<?xml version="1.0" encoding="UTF-8" standalone="no"?>
<svg
   width="32"
   height="32"
   version="1.1"
   viewBox="0 0 24 24"
   id="svg1378277"
   sodipodi:docname="online.svg"
   inkscape:version="1.1.2 (0a00cf5339, 2022-02-04)"
   xmlns:inkscape="http://www.inkscape.org/namespaces/inkscape"
   xmlns:sodipodi="http://sodipodi.sourceforge.net/DTD/sodipodi-0.dtd"
   xmlns="http://www.w3.org/2000/svg"
   xmlns:svg="http://www.w3.org/2000/svg">
  <defs
     id="defs1378281" />
  <sodipodi:namedview
     id="namedview1378279"
     pagecolor="#ffffff"
     bordercolor="#666666"
     borderopacity="1.0"
     inkscape:pageshadow="2"
     inkscape:pageopacity="0.0"
     inkscape:pagecheckerboard="0"
     showgrid="false"
     inkscape:zoom="25.84375"
     inkscape:cx="16"
     inkscape:cy="16"
     inkscape:window-width="1822"
     inkscape:window-height="928"
     inkscape:window-x="0"
     inkscape:window-y="35"
     inkscape:window-maximized="1"
     inkscape:current-layer="svg1378277" />
  <path
     d="m23.25 12c0-6.2136-5.0362-11.25-11.25-11.25-6.2136 0-11.25 5.0362-11.25 11.25 0 6.2136 5.0362 11.25 11.25 11.25 6.2136 0 11.25-5.0362 11.25-11.25z"
     fill="#4aaee6"
     stroke-width=".71425"
     id="path1378267" />
  <path
     d="m12 3.0808c-5.2034 0-9.4191 4.2157-9.4191 9.4191 0 5.2034 4.2157 9.4191 9.4191 9.4191 5.2034 0 9.4191-4.2157 9.4191-9.4191 0-5.2034-4.2157-9.4191-9.4191-9.4191zm-0.87978 1.8773c0.10138-0.0098 0.22894 0.0065 0.33359 0 0.01309 0.04906-0.07195 0.22567-0.18969 0.48077-0.74572 1.6254-0.78818 3.5289-0.09812 4.5493 0.12428 0.18315 0.23875 0.35976 0.23875 0.38265 0 0.02289-0.13409 0.04579-0.28454 0.04579-0.35976 0-0.69992-0.21586-1.39-0.76532-0.30743-0.24202-0.70645-0.44806-0.86018-0.4775-0.24529-0.04906-0.30743-0.02616-0.62467 0.28781-0.29108 0.29108-0.38265 0.45134-0.38265 0.71952 0 1.0138 1.2068 1.8184 3.4505 2.296 3.0416 0.6443 3.7906 1.2232 3.8756 2.8225 0.10466 2.0081-0.96151 3.5191-3.3033 4.69-0.278 0.14064-0.45788 0.19624-0.57235 0.24202-0.05233-0.0033-0.09484 0.0065-0.14718 0-0.01963-0.06214-0.04579-0.20604-0.04579-0.4775 0-1.0662-0.4219-2.1651-1.0531-2.7767-0.17007-0.1668-0.6443-0.51348-1.0531-0.76532-0.40882-0.2551-0.81765-0.54618-0.90918-0.67045-0.15372-0.20932-0.16353-0.33359-0.04579-0.71952 0.21258-0.69992 0.46442-1.0891 0.95498-1.5339 0.25838-0.23221 0.51675-0.4219 0.57562-0.42844 0.0556-0.0033-0.33033-0.12101-0.90918-0.23875-0.58215-0.12101-1.4325-0.36958-1.8708-0.52656-0.80132-0.29108-1.8838-0.90265-2.296-1.3409-0.01962-0.01962-0.0327-0.03271-0.04906-0.04906 0.59197-2.3548 2.2502-4.2877 4.4512-5.2166 0.46115-0.19624 0.93538-0.33033 1.439-0.43171 0.24856-0.04906 0.50694-0.07195 0.76532-0.09812zm7.1819 3.5911c0.17988 0.1112 0.86018 1.583 1.0531 2.2992 0.24856 0.92558 0.23221 2.5281 0 3.4471-0.0883 0.34995-0.20278 0.67699-0.24202 0.71625-0.03598 0.04251-0.17661-0.18969-0.33687-0.47423-0.16026-0.28454-0.67045-0.89285-1.0989-1.3409-1.2297-1.3017-1.426-1.9787-0.90918-3.0155 0.26164-0.52329 1.3932-1.717 1.5339-1.632z"
     opacity=".3"
     stroke-width=".83725"
     id="path1378269" />
  <path
     d="m 12,2.5808 c -5.2034,0 -9.4191,4.2157 -9.4191,9.4191 0,5.2034 4.2157,9.4191 9.4191,9.4191 5.2034,0 9.4191,-4.2157 9.4191,-9.4191 0,-5.2034 -4.2157,-9.4191 -9.4191,-9.4191 z m -0.87978,1.8773 c 0.10138,-0.0098 -0.10477,0.00651 -1.2e-4,10e-6 0.01309,0.04906 0.26176,0.22566 0.14402,0.48076 -0.74572,1.6254 -0.78818,3.5289 -0.09812,4.5493 0.12428,0.18315 -0.08088,0.2436494 -0.08088,0.2665394 0,0.02289 0.185536,0.1619006 0.03509,0.1619006 -0.35976,0 -0.69992,-0.21586 -1.39,-0.76532 C 9.42278,8.90927 9.02376,8.70323 8.87003,8.67379 8.62474,8.62473 8.5626,8.64763 8.24536,8.9616 7.95428,9.25268 7.86271,9.41294 7.86271,9.68112 c 0,1.0138 1.2068,1.8184 3.4505,2.296 3.0416,0.6443 3.7906,1.2232 3.8756,2.8225 0.10466,2.0081 -0.96151,3.5191 -3.3033,4.69 -0.278,0.14064 -0.45788,0.19624 -0.57235,0.24202 0,0 0.57235,-0.24202 0,0 0,0 -0.19297,-0.20604 -0.19297,-0.4775 0,-1.0662 -0.4219,-2.1651 -1.0531,-2.7767 C 9.89702,16.31064 9.42279,15.96396 9.01399,15.71212 8.60517,15.45702 8.19634,15.16594 8.10481,15.04167 7.95109,14.83235 7.94128,14.70808 8.05902,14.32215 8.2716,13.62223 8.52344,13.23305 9.014,12.78825 c 0.25838,-0.23221 -0.05887,0.0065 0,0 C 9.0696,12.78495 9.25929,12.2388 8.68044,12.12106 8.09829,12.00005 7.24794,11.75148 6.80964,11.5945 6.1014441,11.337247 5.1736401,10.829667 4.6830136,10.412639 4.6184988,10.357802 4.5615431,10.304531 4.51364,10.2536 v 0 C 4.538155,10.15608 4.51544,10.010229 4.543573,9.9141996 5.1948227,7.6913705 6.8059283,5.8783722 8.91578,4.98794 9.37693,4.7917 9.85116,4.65761 10.35478,4.55623 10.60334,4.50717 10.86172,4.48428 11.1201,4.45811 Z m 7.1819,3.5911 c 0.17988,0.1112 0.86018,1.583 1.0531,2.2992 0.24856,0.92558 0.23221,2.5281 0,3.4471 -0.0883,0.34995 -0.53965,0.20276 -0.57889,0.24202 -0.03598,0.04251 0.16026,0.28454 0,0 -0.16026,-0.28454 -0.67045,-0.89285 -1.0989,-1.3409 -1.2297,-1.3017 -1.426,-1.9787 -0.90918,-3.0155 0.26164,-0.52329 1.3932,-1.717 1.5339,-1.632 z"
     fill="#ffffff"
     stroke-width="0.83725"
     id="path1378271"
     sodipodi:nodetypes="sssssscccsscccscccccsccccccccsccsccssccccscccc" />
  <path
     d="m12 0.75023c-6.2134 0-11.25 5.0364-11.25 11.25 0 0.08357 0.0014 0.16686 0.0032 0.24999 0.13296-6.0979 5.1164-11 11.247-11 6.1304 0 11.114 4.9017 11.247 11 0.0018-0.08314 0.0032-0.16642 0.0032-0.24999 0-6.2134-5.0364-11.25-11.25-11.25z"
     fill="#fff"
     opacity=".3"
     stroke-width=".71429"
     id="path1378273" />
  <path
     d="m0.75323 11.75c-0.0018 0.08314-0.0032 0.16642-0.0032 0.25 0 6.2134 5.0364 11.25 11.25 11.25 6.2134 0 11.25-5.0364 11.25-11.25 0-0.08357-0.0014-0.16686-0.0032-0.25-0.13296 6.0979-5.1164 11-11.247 11-6.1299 0-11.114-4.9017-11.247-11z"
     opacity=".3"
     stroke-width=".71429"
     id="path1378275" />
</svg>
