<?xml version="1.0" encoding="UTF-8" standalone="no"?>
<svg
   width="32"
   height="32"
   version="1.1"
   id="svg519329"
   sodipodi:docname="akira.svg"
   inkscape:version="1.1.2 (0a00cf5339, 2022-02-04)"
   xmlns:inkscape="http://www.inkscape.org/namespaces/inkscape"
   xmlns:sodipodi="http://sodipodi.sourceforge.net/DTD/sodipodi-0.dtd"
   xmlns="http://www.w3.org/2000/svg"
   xmlns:svg="http://www.w3.org/2000/svg">
  <defs
     id="defs519333" />
  <sodipodi:namedview
     id="namedview519331"
     pagecolor="#ffffff"
     bordercolor="#666666"
     borderopacity="1.0"
     inkscape:pageshadow="2"
     inkscape:pageopacity="0.0"
     inkscape:pagecheckerboard="0"
     showgrid="false"
     inkscape:zoom="25.84375"
     inkscape:cx="15.980653"
     inkscape:cy="16"
     inkscape:window-width="1920"
     inkscape:window-height="1051"
     inkscape:window-x="0"
     inkscape:window-y="29"
     inkscape:window-maximized="1"
     inkscape:current-layer="svg519329" />
  <path
     style="opacity:0.2"
     d="M 16,3 A 14,14 0 0 0 2,17 14,14 0 0 0 16,31 14,14 0 0 0 30,17 14,14 0 0 0 16,3 Z"
     id="path519307" />
  <path
     style="fill:#4f4f4f"
     d="M 16,2 A 14,14 0 0 0 2,16 14,14 0 0 0 16,30 14,14 0 0 0 30,16 14,14 0 0 0 16,2 Z"
     id="path519309" />
  <path
     style="opacity:0.2;fill-rule:evenodd"
     d="m 15.167613,8.9999944 c 0,0 0.609243,0.484478 0.832387,0.6666667 h 0.666667 c 0.184949,-0.23207 0.644032,-0.6666667 0.644032,-0.6666667 0,0 4.401604,10.8166996 6.244611,15.3990946 0.03344,0.07489 0.02007,0.09836 -0.06702,0.04092 l -9.056025,-5.473473 -5.5535832,5.540075 z"
     id="path519311" />
  <path
     style="fill:#f07800;fill-rule:evenodd"
     d="m 11.697706,15.845005 c 0,-0.105479 0.18059,-0.191005 0.407738,-0.191005 0.01181,0 0.02348,1.28e-4 0.03514,6.42e-4 0.0093,3.76e-4 0.310688,0 0.310688,0 l -0.542426,1.419386 -0.606952,-0.230273 c 0,0 0.395804,-0.893265 0.395804,-0.998743 z"
     id="path519313" />
  <path
     style="fill:#ff8f13;fill-rule:evenodd"
     d="m 15.167613,8 c 0,0 0.609243,0.484478 0.832387,0.6666667 h 0.666667 C 16.851616,8.4345967 17.310699,8 17.310699,8 c 0,0 3.984643,9.79204 5.958925,14.689645 0.03045,0.07554 0.06043,0.14992 0.0899,0.223079 0.06802,0.168834 -0.422634,0.07655 -0.360216,0.231749 -0.556003,-0.254622 0.08709,0.05744 0,0 v 0 l -8.567042,-5.177931 -5.5535832,5.540075 z"
     id="path519315"
     sodipodi:nodetypes="ccccsscccccc" />
  <path
     style="opacity:0.2;fill-rule:evenodd"
     d="m 17.310699,8.9999944 h -2.143086 l 1.057838,1.3333336 z"
     id="path519317" />
  <path
     style="opacity:0.2;fill-rule:evenodd"
     d="m 12.105444,17.006151 h 9.64736 c 0.06361,-2.43e-4 0.05993,0.02021 -6.62e-4,0.05807 l -13.2453919,7.91064 c -0.080393,0.04766 -0.098754,0.02719 -0.057833,-0.05833 l 3.2487919,-8.114085 c 0,0 -0.03029,0.185033 0.407738,0.203713 z"
     id="path519319" />
  <path
     style="fill:#ffc30e;fill-rule:evenodd"
     d="m 12.105444,16.006157 9.07542,-2.94e-4 c -0.57194,-2.94e-4 0.174268,0.293931 0.113676,0.331791 L 8.8786828,23.506617 c 0.3719321,-0.46825 -0.040922,0.08552 -6e-7,0 l 2.8190268,-7.704165 c 0,0 -0.03029,0.185033 0.407738,0.203713 z"
     id="path519321"
     sodipodi:nodetypes="cccccccc" />
  <path
     style="fill:#ffc30e;fill-rule:evenodd"
     d="m 17.310699,8 h -2.143086 l 1.057838,1.3333334 z"
     id="path519323" />
  <path
     style="opacity:0.2;fill:#ffffff;fill-rule:evenodd"
     d="m 11.697266,15.802734 -3.0106107,7.52019 0.2391259,0.399732 c 0.429463,-0.409399 -0.1274924,-0.168379 -0.047099,-0.216039 l 0.047099,0.216039 0.1045496,-0.261043 2.6669352,-6.658879 c 0,0 -0.02983,0.184445 0.408203,0.203125 h 8.070312 l 1.118759,-0.668205 v 0 c -0.571089,-0.05859 -0.05007,-0.332041 -0.113676,-0.331791 v 0 h -9.075395 c -0.438028,-0.01868 -0.408203,-0.203125 -0.408203,-0.203125 z"
     id="path519325"
     sodipodi:nodetypes="cccccccccccccccc" />
  <path
     style="fill:#ffffff;opacity:0.1"
     d="M 16 2 A 14 14 0 0 0 2 16 A 14 14 0 0 0 2.0214844 16.414062 A 14 14 0 0 1 16 3 A 14 14 0 0 1 29.978516 16.585938 A 14 14 0 0 0 30 16 A 14 14 0 0 0 16 2 z"
     id="path519327" />
</svg>
