<?xml version="1.0" encoding="UTF-8" standalone="no"?>
<svg
   width="32"
   height="32"
   version="1"
   id="svg743174"
   sodipodi:docname="anjuta_icon.svg"
   inkscape:version="1.1.2 (0a00cf5339, 2022-02-04)"
   xmlns:inkscape="http://www.inkscape.org/namespaces/inkscape"
   xmlns:sodipodi="http://sodipodi.sourceforge.net/DTD/sodipodi-0.dtd"
   xmlns="http://www.w3.org/2000/svg"
   xmlns:svg="http://www.w3.org/2000/svg">
  <defs
     id="defs743178" />
  <sodipodi:namedview
     id="namedview743176"
     pagecolor="#ffffff"
     bordercolor="#666666"
     borderopacity="1.0"
     inkscape:pageshadow="2"
     inkscape:pageopacity="0.0"
     inkscape:pagecheckerboard="0"
     showgrid="false"
     inkscape:zoom="25.84375"
     inkscape:cx="15.980653"
     inkscape:cy="16"
     inkscape:window-width="1920"
     inkscape:window-height="1051"
     inkscape:window-x="0"
     inkscape:window-y="29"
     inkscape:window-maximized="1"
     inkscape:current-layer="svg743174" />
  <rect
     fill="#964fa9"
     width="28"
     height="28"
     x="2"
     y="2"
     rx="14"
     ry="14"
     id="rect743164" />
  <path
     opacity=".2"
     d="m6.001 15.996c-0.4558-0.136-2.001 1-2.001 1 0.82022-3.0347 6.003-5.9976 6.003-5.9976-0.50081-0.18479-3.0015 0-3.0015 0 3.6905-3.586 9.0045-1.9988 9.0045-1.9988 0.136-0.783 2.001-1.9992 2.001-1.9992-0.22846 0.2286 0 1.4994 0 1.4994 0.22793-0.41443 1.0005-0.49944 1.0005-0.49944-0.40984 0.96509-0.38334 2.909-0.38334 2.909 1.1841 1.1969 2.5051 5.3387 2.5051 5.3387l0.50236 0.73596c0.63778 0.92128 0.37842 2.3659-0.25361 2.709-1.7712 1.0589-2.5719-1.0513-2.5719-1.0513-1.9593-0.2302-3.8006-2.6449-3.8006-2.6449-2.489 1.4052 0.32675 5.864 1.4675 7.3592 1.4653 1.9165-0.46695 4.636-0.46695 4.636s-5.0025 0.35197-8.7504-3.4972c-1.8445-1.977-3.255-4.184-1.254-8.499z"
     id="path743166" />
  <path
     style="fill:#ffffff"
     d="m 6.001,14.996 c -0.2806656,-0.08374 -0.9743952,0.314812 -1.4660691,0.633453 -0.3068028,0.198832 0,0 0,0 C 4.5959231,15.403791 4.1461074,15.545071 4.2514206,15.321391 5.5623532,12.537036 10.003,9.9984 10.003,9.9984 9.6758937,9.8777036 8.4956171,9.914674 7.7162213,9.95484 c -0.4138837,0.021329 0,0 0,0 C 7.923693,9.7532314 7.421573,9.611532 7.6380713,9.4414206 11.272847,6.5854324 16.0061,7.9992 16.0061,7.9992 c 0.08506,-0.4899529 0.847228,-1.149573 1.405772,-1.5746554 0.334027,-0.2542125 0,0 0,0 -0.07977,0.079823 0.491391,-0.137824 0.49386,0.097671 C 17.910333,6.9611364 18.0071,7.4994 18.0071,7.4994 c 0.119634,-0.2175227 0.389311,-0.3442932 0.618567,-0.4156527 0.207528,-0.064597 0.269493,0.2395256 0.269493,0.2395256 -0.04187,0.098594 0.03326,-0.1159092 0,0 -0.292262,1.0186704 -0.2709,2.5856871 -0.2709,2.5856871 1.1841,1.1969 2.5051,5.3387 2.5051,5.3387 l 0.50236,0.73596 c 0.63778,0.92128 0.37842,2.3659 -0.25361,2.709 -1.7712,1.0589 -2.5719,-1.0513 -2.5719,-1.0513 -1.9593,-0.2302 -3.8006,-2.6449 -3.8006,-2.6449 -2.489,1.4052 0.32675,5.864 1.4675,7.3592 1.4653,1.9165 -0.46695,4.636 -0.46695,4.636 0,0 -5.0025,0.35197 -8.7504,-3.4972 -1.8455,-1.977 -3.256,-4.184 -1.255,-8.499 z"
     id="path743168"
     sodipodi:nodetypes="cscscscscscscscsccccccccccc" />
  <path
     fill="#fff"
     opacity=".2"
     d="m16 2c-7.756 0-14 6.244-14 14 0 0.169 0.0195 0.333 0.0254 0.5 0.2637-7.5206 6.3874-13.5 13.975-13.5 7.587 0 13.711 5.9794 13.975 13.5 0.005-0.167 0.025-0.331 0.025-0.5 0-7.756-6.244-14-14-14z"
     id="path743170" />
  <path
     opacity=".2"
     d="m2.0254 16.5c-0.0059 0.167-0.0254 0.331-0.0254 0.5 0 7.756 6.244 14 14 14s14-6.244 14-14c0-0.16884-0.01952-0.33264-0.02539-0.5-0.264 7.521-6.388 13.5-13.975 13.5-7.5872 0-13.711-5.979-13.975-13.5z"
     id="path743172" />
</svg>
