<?xml version="1.0" encoding="UTF-8" standalone="no"?>
<svg
   width="32"
   height="32"
   version="1.1"
   id="svg36935"
   sodipodi:docname="appimagekit-Lightcord.svg"
   inkscape:version="1.1.2 (0a00cf5339, 2022-02-04)"
   xmlns:inkscape="http://www.inkscape.org/namespaces/inkscape"
   xmlns:sodipodi="http://sodipodi.sourceforge.net/DTD/sodipodi-0.dtd"
   xmlns="http://www.w3.org/2000/svg"
   xmlns:svg="http://www.w3.org/2000/svg">
  <defs
     id="defs36939" />
  <sodipodi:namedview
     id="namedview36937"
     pagecolor="#ffffff"
     bordercolor="#666666"
     borderopacity="1.0"
     inkscape:pageshadow="2"
     inkscape:pageopacity="0.0"
     inkscape:pagecheckerboard="0"
     showgrid="false"
     inkscape:zoom="25.84375"
     inkscape:cx="15.980653"
     inkscape:cy="16"
     inkscape:window-width="1920"
     inkscape:window-height="1051"
     inkscape:window-x="0"
     inkscape:window-y="29"
     inkscape:window-maximized="1"
     inkscape:current-layer="svg36935" />
  <rect
     style="fill:#bb050b"
     width="26"
     height="26"
     x="3"
     y="2"
     rx="3"
     ry="3"
     id="rect36921" />
  <path
     style="opacity:0.2"
     d="m 3,25 v 1 c 0,1.662 1.338,3 3,3 h 20 l 3,3 V 31 L 26,28 H 6 C 4.338,28 3,26.662 3,25 Z"
     id="path36923" />
  <path
     style="fill:#bb050b;fill-rule:evenodd"
     d="M 29,29.826125 28.136549,30.136549 22,24 h 7 z"
     id="path36925"
     sodipodi:nodetypes="cccccc" />
  <path
     style="opacity:0.2;fill:#ffffff"
     d="M 6,2 C 4.338,2 3,3.338 3,5 V 6 C 3,4.338 4.338,3 6,3 h 20 c 1.662,0 3,1.338 3,3 V 5 C 29,3.338 27.662,2 26,2 Z"
     id="path36927" />
  <path
     style="opacity:0.2;fill-rule:evenodd"
     d="m 22,25 7,7 V 31 L 28.168967,30.168967 23,25 Z"
     id="path36929"
     sodipodi:nodetypes="cccccc" />
  <path
     style="opacity:0.2"
     d="m 14.175781,9.0000005 c 0,0 -1.980445,-0.04304 -4.078124,1.4980465 -2.0976783,1.541083 -3.0976572,4.730918 -3.0976572,9.326172 0,0 2.223992,2.074982 5.4433602,2.175781 0,0 0.539546,-0.634246 0.976562,-1.181641 C 11.56994,20.270965 10.869141,18.632812 10.869141,18.632812 12.573666,19.585677 13.732467,19.983424 15.5,20 c 1.767533,-0.01658 3.926335,-0.414323 5.630859,-1.367188 0,0 -0.700799,1.638153 -2.550781,2.185547 C 19.017094,21.365754 19.556641,22 19.556641,22 22.776009,21.899201 25,19.824219 25,19.824219 25,15.228965 24.000022,12.03913 21.902344,10.498047 19.804665,8.9569604 17.824219,9.0000005 17.824219,9.0000005 l -0.146485,0.171875 c 2.622073,0.7346925 3.816407,2.3730465 3.816407,2.3730465 0,0 -0.320389,-0.171846 -0.859375,-0.402343 C 18.999968,10.357811 17.000043,9.999969 15.5,10 c -1.500043,-3.1e-5 -2.499966,0.357811 -4.134765,1.142579 -0.538986,0.230497 -0.859375,0.402343 -0.859375,0.402343 0,0 1.194332,-1.638354 3.816406,-2.3730465 z M 13.5,15 c 0.838151,0 1.5146,0.668208 1.5,1.5 C 15,17.331792 14.338151,18 13.5,18 12.676558,18 12,17.331792 12,16.5 12,15.668208 12.661868,15 13.5,15 Z m 5,0 C 19.338132,15 20,15.668208 20,16.5 20,17.331792 19.323442,18 18.5,18 17.661849,18 17,17.331792 17,16.5 16.9854,15.668208 17.661849,15 18.5,15 Z"
     id="path36931" />
  <path
     style="fill:#ffffff"
     d="m 14.175781,8.0000005 c 0,0 -1.980445,-0.04304 -4.078124,1.4980465 -2.0976783,1.541083 -3.0976572,4.730918 -3.0976572,9.326172 0,0 2.223992,2.074982 5.4433602,2.175781 0,0 0.539546,-0.634246 0.976562,-1.181641 C 11.56994,19.270965 10.869141,17.632812 10.869141,17.632812 12.573666,18.585677 13.732467,18.983424 15.5,19 c 1.767533,-0.01658 3.926335,-0.414323 5.630859,-1.367188 0,0 -0.700799,1.638153 -2.550781,2.185547 C 19.017094,20.365754 19.556641,21 19.556641,21 22.776009,20.899201 25,18.824219 25,18.824219 25,14.228965 24.000022,11.03913 21.902344,9.498047 19.804665,7.9569604 17.824219,8.0000005 17.824219,8.0000005 l -0.146485,0.171875 c 2.622073,0.7346925 3.816407,2.3730465 3.816407,2.3730465 0,0 -0.320389,-0.171846 -0.859375,-0.402343 C 18.999968,9.357811 17.000043,8.999969 15.5,9 c -1.500043,-3.1e-5 -2.499966,0.357811 -4.134765,1.142579 -0.538986,0.230497 -0.859375,0.402343 -0.859375,0.402343 0,0 1.194332,-1.638354 3.816406,-2.3730465 z M 13.5,14 c 0.838151,0 1.5146,0.668208 1.5,1.5 C 15,16.331792 14.338151,17 13.5,17 12.676558,17 12,16.331792 12,15.5 12,14.668208 12.661868,14 13.5,14 Z m 5,0 C 19.338132,14 20,14.668208 20,15.5 20,16.331792 19.323442,17 18.5,17 17.661849,17 17,16.331792 17,15.5 16.9854,14.668208 17.661849,14 18.5,14 Z"
     id="path36933" />
</svg>
