<?xml version="1.0" encoding="UTF-8" standalone="no"?>
<svg
   width="32"
   height="32"
   version="1"
   id="svg584"
   sodipodi:docname="beatbox.svg"
   inkscape:version="1.1.2 (0a00cf5339, 2022-02-04)"
   xmlns:inkscape="http://www.inkscape.org/namespaces/inkscape"
   xmlns:sodipodi="http://sodipodi.sourceforge.net/DTD/sodipodi-0.dtd"
   xmlns="http://www.w3.org/2000/svg"
   xmlns:svg="http://www.w3.org/2000/svg">
  <defs
     id="defs588" />
  <sodipodi:namedview
     id="namedview586"
     pagecolor="#ffffff"
     bordercolor="#666666"
     borderopacity="1.0"
     inkscape:pageshadow="2"
     inkscape:pageopacity="0.0"
     inkscape:pagecheckerboard="0"
     showgrid="false"
     inkscape:zoom="25.84375"
     inkscape:cx="15.980653"
     inkscape:cy="16"
     inkscape:window-width="1920"
     inkscape:window-height="1051"
     inkscape:window-x="0"
     inkscape:window-y="29"
     inkscape:window-maximized="1"
     inkscape:current-layer="svg584" />
  <path
     fill="#805fd6"
     d="M 18,4 C 16,4 14,4 14,6 V 18.215 C 13.512,18.074 13.008,18.002 12.5,18 9.4624,18 7,20.462 7,23.5 c 0,3.038 2.4624,5.5 5.5,5.5 2.958,-0.003 5.394,-2.346 5.5,-5.303 0.024,-3.766 0,-7.581 0,-11.363 0,-4.6296644 4.520061,0.03241 6.367643,1.99822 0.281083,0.29907 0.49438,-0.361658 0.626427,-0.229612 0,-0.252355 0.0059,0.341953 0,0 C 24.937328,10.830648 24.337651,4 18,4 Z"
     id="path578"
     sodipodi:nodetypes="ssccsccsscss" />
  <path
     fill="#ffffff"
     opacity="0.1"
     d="m 18,4 c -2,0 -4,0 -4,2 v 1 c 0,-2 2,-2 4,-2 6.285,0 5.525654,2.0414558 5.590654,5.343456 l -0.0027,-1.2631412 c 0,-0.265681 0.0147,0.687552 0.0078,0.323256 -0.002,-0.104381 -0.0045,-0.212241 -0.0078,-0.323256 C 23.487642,5.6893998 24.102874,4 18,4 Z M 12.5,18 C 9.4624,18 7,20.462 7,23.5 7,23.669 7.0105,23.835 7.0254,24 7.2783,21.197 9.6312,19 12.5,19 c 0.508,0.002 1.012,0.074 1.5,0.215 v -1 C 13.512,18.074 13.008,18.002 12.5,18 Z"
     id="path580"
     sodipodi:nodetypes="sscsccssscsccccc" />
  <path
     opacity="0.2"
     d="M 18.953,10.359 C 18.375,10.437 18,11 18,12.334 v 1 c 0,-5.334 5.107698,-0.276921 6.107698,0.723079 0,-0.272 -1.240278,-0.178602 -1.248278,-0.554602 -0.170867,-0.17154 1.647014,0.974871 1.248278,0.554602 C 22.728231,12.603113 20.295074,10.177793 18.953,10.3594 Z M 18,23.697 C 17.894,26.654 15.458,28.997 12.5,29 9.6312,29 7.2783,26.803 7.0254,24 7.0105,24.165 7,24.331 7,24.5 c 0,3.038 2.4624,5.5 5.5,5.5 2.958,-0.003 5.394,-2.346 5.5,-5.303 0.002,-0.331 -0.001,-0.668 0,-1 z"
     id="path582"
     sodipodi:nodetypes="cscccscccccsccc" />
</svg>
