<?xml version="1.0" encoding="UTF-8" standalone="no"?>
<svg
   width="32"
   height="32"
   version="1"
   id="svg1657655"
   sodipodi:docname="boomaga.svg"
   inkscape:version="1.1.2 (0a00cf5339, 2022-02-04)"
   xmlns:inkscape="http://www.inkscape.org/namespaces/inkscape"
   xmlns:sodipodi="http://sodipodi.sourceforge.net/DTD/sodipodi-0.dtd"
   xmlns="http://www.w3.org/2000/svg"
   xmlns:svg="http://www.w3.org/2000/svg">
  <defs
     id="defs1657659" />
  <sodipodi:namedview
     id="namedview1657657"
     pagecolor="#ffffff"
     bordercolor="#666666"
     borderopacity="1.0"
     inkscape:pageshadow="2"
     inkscape:pageopacity="0.0"
     inkscape:pagecheckerboard="0"
     showgrid="false"
     inkscape:zoom="25.84375"
     inkscape:cx="15.980653"
     inkscape:cy="16"
     inkscape:window-width="1920"
     inkscape:window-height="1051"
     inkscape:window-x="0"
     inkscape:window-y="29"
     inkscape:window-maximized="1"
     inkscape:current-layer="g1657653" />
  <rect
     style="opacity:0.2"
     width="12"
     height="28"
     x="-23"
     y="-30"
     rx="1.412"
     ry="1.4"
     transform="matrix(0,-1,-1,0,0,0)"
     id="rect1657617" />
  <path
     style="opacity:0.2"
     d="M 5,19 5,29.588235 C 5,30.370353 5.61325,31 6.375,31 l 19.25,0 C 26.38675,31 27,30.370353 27,29.588235 L 27,19 5,19 Z"
     id="path1657619" />
  <path
     style="fill:#e4e4e4"
     d="M 6.375,2 C 5.61325,2 5,2.6371429 5,3.4285714 L 5,12 27,12 27,3.4285714 C 27,2.6371429 26.38675,2 25.625,2 L 6.375,2 Z"
     id="path1657621" />
  <rect
     style="fill:#4f4f4f"
     width="12"
     height="28"
     x="-22"
     y="-30"
     rx="1.412"
     ry="1.4"
     transform="matrix(0,-1,-1,0,0,0)"
     id="rect1657623" />
  <rect
     style="opacity:0.2"
     width="24"
     height="2"
     x="4"
     y="17"
     id="rect1657625" />
  <rect
     style="opacity:0.2"
     width="3"
     height="3"
     x="4"
     y="13"
     rx="1.125"
     ry="1.125"
     id="rect1657627" />
  <rect
     style="fill:#76ff03"
     width="3"
     height="3"
     x="4"
     y="12"
     rx="1.125"
     ry="1.125"
     id="rect1657629" />
  <path
     style="fill:#e4e4e4"
     d="M 5,18 5,28.588235 C 5,29.370353 5.61325,30 6.375,30 l 19.25,0 C 26.38675,30 27,29.370353 27,28.588235 L 27,18 5,18 Z"
     id="path1657631" />
  <path
     style="opacity:0.5;fill-rule:evenodd"
     d="m 8,26 14,0 0,2 -14,0 z"
     id="path1657633" />
  <path
     style="opacity:0.5;fill-rule:evenodd"
     d="m 8,23 11,0 0,2 -11,0 z"
     id="path1657635" />
  <path
     style="opacity:0.5;fill-rule:evenodd"
     d="m 8,20 16,0 0,2 -16,0 z"
     id="path1657637" />
  <path
     style="fill:#ffffff;opacity:0.2"
     d="M 5.125 12 C 4.50175 12 4 12.50175 4 13.125 L 4 13.875 C 4 13.919347 4.020447 13.957021 4.0253906 14 C 4.0899247 13.438945 4.5460966 13 5.125 13 L 5.875 13 C 6.4539034 13 6.9100753 13.438945 6.9746094 14 C 6.979553 13.957021 7 13.919347 7 13.875 L 7 13.125 C 7 12.50175 6.49825 12 5.875 12 L 5.125 12 z"
     id="path1657639" />
  <path
     style="fill:#ffffff;opacity:0.1"
     d="M 3.4003906 10 C 2.6247906 10 2 10.629992 2 11.412109 L 2 12.412109 C 2 11.629992 2.6247906 11 3.4003906 11 L 28.599609 11 C 29.375209 11 30 11.629992 30 12.412109 L 30 11.412109 C 30 10.629992 29.375209 10 28.599609 10 L 3.4003906 10 z"
     id="path1657641" />
  <path
     style="fill:#ffffff;opacity:0.2"
     d="M 6.375 2 C 5.61325 2 5 2.6363059 5 3.4277344 L 5 4.4277344 C 5 3.6363059 5.61325 3 6.375 3 L 25.625 3 C 26.38675 3 27 3.6363059 27 4.4277344 L 27 3.4277344 C 27 2.6363059 26.38675 2 25.625 2 L 6.375 2 z"
     id="path1657643" />
  <circle
     style="fill:#c03630"
     cx="23"
     cy="23"
     r="8"
     id="circle1657645" />
  <path
     style="opacity:0.2;fill-rule:evenodd"
     d="M 30.979,23.424 A 8,8 0 0 1 23,31 8,8 0 0 1 15.021,23.576 8,8 0 0 0 15,24 a 8,8 0 0 0 8,8 8,8 0 0 0 8,-8 8,8 0 0 0 -0.02148,-0.57617 z"
     id="path1657647" />
  <g
     style="fill:#ffffff"
     transform="translate(-1,1)"
     id="g1657653">
    <path
       d="m 26,22.901793 0.512858,0.158614 2.695181,-2.310154 v 0 L 29.169345,20.216582 26.410666,17.852 26.001195,18.019939 c 0.0012,0.519939 2.98e-4,-0.290226 0,0 C 26.000854,18.351839 26,18.762878 26,19 h -2 v 3 h 2 z"
       id="path1657649"
       sodipodi:nodetypes="cccccccsccccc" />
    <path
       d="m 22,25.816475 -0.613546,0.157628 -2.642358,-2.264878 v 0 l 0.0606,-0.470396 2.600033,-2.2286 0.594188,0.111193 c -0.595267,0.510228 -4.19e-4,-0.336283 0,0 C 21.999308,21.432149 22,21.786543 22,22 h 2 v 3 h -2 z"
       id="path1657651"
       sodipodi:nodetypes="cccccccscccccc" />
  </g>
</svg>
