<?xml version="1.0" encoding="UTF-8" standalone="no"?>
<svg
   width="32"
   height="32"
   version="1"
   id="svg17905"
   sodipodi:docname="ccsm.svg"
   inkscape:version="1.1.2 (0a00cf5339, 2022-02-04)"
   xmlns:inkscape="http://www.inkscape.org/namespaces/inkscape"
   xmlns:sodipodi="http://sodipodi.sourceforge.net/DTD/sodipodi-0.dtd"
   xmlns="http://www.w3.org/2000/svg"
   xmlns:svg="http://www.w3.org/2000/svg">
  <defs
     id="defs17909" />
  <sodipodi:namedview
     id="namedview17907"
     pagecolor="#ffffff"
     bordercolor="#666666"
     borderopacity="1.0"
     inkscape:pageshadow="2"
     inkscape:pageopacity="0.0"
     inkscape:pagecheckerboard="0"
     showgrid="false"
     inkscape:zoom="25.84375"
     inkscape:cx="15.980653"
     inkscape:cy="16"
     inkscape:window-width="1920"
     inkscape:window-height="1051"
     inkscape:window-x="0"
     inkscape:window-y="29"
     inkscape:window-maximized="1"
     inkscape:current-layer="svg17905" />
  <rect
     fill="#319ed6"
     width="28"
     height="28"
     x="2"
     y="2"
     rx="1.4"
     ry="1.4"
     id="rect17895" />
  <path
     fill-rule="evenodd"
     opacity="0.2"
     d="m 6,7 v 15.19771 0 L 6.9292787,22.418466 10,17.85 15.543,30 h 4.814 L 12,17 h 6.897672 l 0.251196,-0.607952 v 0 z"
     id="path17897"
     sodipodi:nodetypes="cccccccccccc" />
  <path
     fill="#ffffff"
     fill-rule="evenodd"
     d="m 6,7 0,0.027508 0,14.5285001 0.7237661,0.16739 v 0 l 3.0748125,-4.573784 0.3574854,0.04243 v 0 L 16,30 h 5 L 12.189983,16.295529 v 0 L 12.444755,16 h 6.36134 l 0.19207,-0.715597 v 0 L 6.7698407,6.5498862 Z"
     id="path17899"
     sodipodi:nodetypes="cccccccccccccccccc" />
  <path
     fill="#fff"
     opacity=".2"
     d="m3.4004 2c-0.7756 0-1.4004 0.6248-1.4004 1.4004v1c0-0.7756 0.6248-1.4004 1.4004-1.4004h25.2c0.775 0 1.4 0.6248 1.4 1.4004v-1c0-0.7756-0.625-1.4004-1.4-1.4004h-25.2z"
     id="path17901" />
  <path
     opacity=".2"
     d="m2 28.6v1c0 0.775 0.6248 1.4 1.4004 1.4h25.2c0.775 0 1.4-0.625 1.4-1.4v-1c0 0.775-0.625 1.4-1.4 1.4h-25.2c-0.7752 0-1.4-0.625-1.4-1.4z"
     id="path17903" />
</svg>
