<?xml version="1.0" encoding="UTF-8" standalone="no"?>
<svg
   width="22"
   height="22"
   version="1.1"
   id="svg2596890"
   sodipodi:docname="device_usb.svg"
   inkscape:version="1.1.2 (0a00cf5339, 2022-02-04)"
   xmlns:inkscape="http://www.inkscape.org/namespaces/inkscape"
   xmlns:sodipodi="http://sodipodi.sourceforge.net/DTD/sodipodi-0.dtd"
   xmlns="http://www.w3.org/2000/svg"
   xmlns:svg="http://www.w3.org/2000/svg">
  <defs
     id="defs2596894" />
  <sodipodi:namedview
     id="namedview2596892"
     pagecolor="#ffffff"
     bordercolor="#666666"
     borderopacity="1.0"
     inkscape:pageshadow="2"
     inkscape:pageopacity="0.0"
     inkscape:pagecheckerboard="0"
     showgrid="false"
     inkscape:zoom="37.590909"
     inkscape:cx="11.013301"
     inkscape:cy="11"
     inkscape:window-width="1920"
     inkscape:window-height="1051"
     inkscape:window-x="0"
     inkscape:window-y="29"
     inkscape:window-maximized="1"
     inkscape:current-layer="svg2596890" />
  <rect
     style="opacity:0.2"
     width="20"
     height="20"
     x="1"
     y="1.5"
     rx="6"
     ry="6"
     id="rect2596880" />
  <rect
     style="fill:#2d48a6"
     width="20"
     height="20"
     x="1"
     y="1"
     rx="6"
     ry="6"
     id="rect2596882" />
  <path
     style="opacity:0.1;fill:#ffffff"
     d="M 7,1 C 3.676,1 1,3.676 1,7 v 0.5 c 0,-3.324 2.676,-6 6,-6 h 8 c 3.324,0 6,2.676 6,6 V 7 C 21,3.676 18.324,1 15,1 Z"
     id="path2596884" />
  <path
     style="opacity:0.2"
     d="m 11,3.5 -2.5,4 H 10 v 5 H 7 V 11.2305 C 7.62,10.8705 8,10.21 8,9.5 8,8.4 7.1,7.5 6,7.5 c -1.1,0 -2,0.9 -2,2 0,0.71 0.38,1.3705 1,1.7305 V 12.5 c 0,2 2,2 2,2 h 3 v 1.27 c -0.62,0.36 -1,1.02 -1,1.73 0,1.1 0.9,2 2,2 1.1,0 2,-0.9 2,-2 0,-0.71 -0.38,-1.37 -1,-1.73 V 14.5 h 3 c 0,0 2,0 2,-2 v -1 c 0.554,0 1,-0.446 1,-1 v -2 c 0,-0.554 -0.446,-1 -1,-1 h -2 c -0.554,0 -1,0.446 -1,1 v 2 c 0,0.554 0.446,1 1,1 v 1 h -3 v -5 h 1.5 z"
     id="path2596886" />
  <path
     style="fill:#ffffff"
     d="m 10.829942,3.272092 v 0 L 8.7151981,6.655683 8.7524424,7 V 7 H 10 v 5 H 7 V 10.7305 C 7.62,10.3705 8,9.71 8,9 8,7.9 7.1,7 6,7 4.9,7 4,7.9 4,9 4,9.71 4.38,10.3705 5,10.7305 V 12 c 0,2 2,2 2,2 h 3 v 1.27 C 9.38,15.63 9,16.29 9,17 c 0,1.1 0.9,2 2,2 1.1,0 2,-0.9 2,-2 0,-0.71 -0.38,-1.37 -1,-1.73 V 14 h 3 c 0,0 2,0 2,-2 v -1 c 0.554,0 1,-0.446 1,-1 V 8 C 18,7.446 17.554,7 17,7 h -2 c -0.554,0 -1,0.446 -1,1 v 2 c 0,0.554 0.446,1 1,1 v 1 H 12 V 7 h 1.239183 v 0 l 0.06972,-0.3057512 -2.122465,-3.3959431 z"
     id="path2596888"
     sodipodi:nodetypes="cccccccccssscscccssscccscssssssccccccccc" />
</svg>
