<?xml version="1.0" encoding="UTF-8" standalone="no"?>
<svg
   width="32"
   height="32"
   version="1"
   id="svg976539"
   sodipodi:docname="fjt.svg"
   inkscape:version="1.1.2 (0a00cf5339, 2022-02-04)"
   xmlns:inkscape="http://www.inkscape.org/namespaces/inkscape"
   xmlns:sodipodi="http://sodipodi.sourceforge.net/DTD/sodipodi-0.dtd"
   xmlns="http://www.w3.org/2000/svg"
   xmlns:svg="http://www.w3.org/2000/svg">
  <defs
     id="defs976543" />
  <sodipodi:namedview
     id="namedview976541"
     pagecolor="#ffffff"
     bordercolor="#666666"
     borderopacity="1.0"
     inkscape:pageshadow="2"
     inkscape:pageopacity="0.0"
     inkscape:pagecheckerboard="0"
     showgrid="false"
     inkscape:zoom="25.84375"
     inkscape:cx="15.980653"
     inkscape:cy="16"
     inkscape:window-width="1920"
     inkscape:window-height="1051"
     inkscape:window-x="0"
     inkscape:window-y="29"
     inkscape:window-maximized="1"
     inkscape:current-layer="svg976539" />
  <rect
     style="opacity:0.2"
     width="26"
     height="26"
     x="-30"
     y="-29"
     rx="8.4"
     ry="8.4"
     transform="matrix(0,-1,-1,0,0,0)"
     id="rect976521" />
  <rect
     style="fill:#81d547"
     width="26"
     height="26"
     x="-29"
     y="-29"
     rx="8.4"
     ry="8.4"
     transform="matrix(0,-1,-1,0,0,0)"
     id="rect976523" />
  <path
     opacity=".2"
     d="m16.017 9.0001c1.7532 0.0037 3.531 0.52833 4.9196 1.5668 0.97624 1.0798-0.88389 2.2362-1.7217 1.1833-2.522-1.4652-6.0788-0.94934-7.9763 1.2413-1.0095 1.0871-1.5784 2.5377-1.5717 3.994h1.6667c-0.8892 1.28-1.778 2.56-2.6669 3.84l-2.6667-3.84h1.6667c-0.053013-3.4772 2.5514-6.7845 6.048-7.6851 0.7502-0.19742 1.5231-0.308 2.302-0.30025zm7.3167 4.1607c0.888 1.28 1.777 2.561 2.666 3.841h-1.6667c0.04725 3.5187-2.6237 6.8634-6.1816 7.7164-2.4008 0.64371-5.1155 0.174-7.0886-1.2988-1.0067-1.0978 0.87926-2.2431 1.7248-1.1806 2.4435 1.4235 5.8653 0.97198 7.7941-1.0611 1.117-1.105 1.7598-2.6358 1.7513-4.176h-1.6667l2.6667-3.8406z"
     id="path976525" />
  <path
     fill="#ffffff"
     d="m 16.017,8.0004 c 1.7532,0.0037 3.531,0.52833 4.9196,1.5668 0.97624,1.0798 -0.88389,2.2362 -1.7217,1.1833 -2.522,-1.4652 -6.0788,-0.94934 -7.9763,1.2413 -1.0095,1.0871 -1.5784,2.5377 -1.5717,3.994 h 1.013928 v 0 c -0.160338,0.230806 0.332109,0.461611 0.171795,0.692417 -0.625383,0.900366 -1.2506131,1.800732 -1.8758636,2.701098 -0.1033523,0.148829 -0.5022929,-0.127984 -0.6056472,0.02084 v 0 L 6.4732257,16.667236 v 0 L 6.6856248,15.9858 H 7.6667 c -0.053013,-3.4772 2.5514,-6.7845 6.048,-7.6851 0.7502,-0.19742 1.5231,-0.308 2.302,-0.30025 z m 6.97752,4.648481 c 0.11531,0.166213 0.569817,-0.155338 0.685159,0.0109 0.772901,1.113984 1.546461,2.228528 2.320021,3.342315 H 24.333 c 0.04725,3.5187 -2.6237,6.8634 -6.1816,7.7164 -2.4008,0.64371 -5.1155,0.174 -7.0886,-1.2988 -1.0067,-1.0978 0.87926,-2.2431 1.7248,-1.1806 2.4435,1.4235 5.8653,0.97198 7.7941,-1.0611 1.117,-1.105 1.7598,-2.6358 1.7513,-4.176 h -1.6667 l 2.32822,-3.353119 z"
     id="path976527"
     sodipodi:nodetypes="cccccccssccccccccccsccccccccccc" />
  <circle
     fill="#f34235"
     cx="24"
     cy="23"
     r="8"
     id="circle976529" />
  <path
     fill="#fff"
     d="m20.448 20h6.2498c0.44651 0 0.44651 0.42857 0.44651 0.42857v5.1429c-0.001 0.428-0.448 0.428-0.448 0.428h-6.249s-0.447 0-0.447-0.429v-5.1429c0 0.001 0-0.428 0.447-0.428z"
     id="path976531" />
  <path
     fill="#ffffff"
     d="m 30,21.114894 v 0 3.266473 0 l -0.483361,0.240322 -2.015845,-1.577734 -0.09447,-0.683428 v 0 l 2.150046,-1.542299 z"
     id="path976533"
     sodipodi:nodetypes="cccccccccc" />
  <path
     opacity=".2"
     d="m31.979 23.424a8 8 0 0 1 -7.979 7.576 8 8 0 0 1 -7.979 -7.424 8 8 0 0 0 -0.021 0.424 8 8 0 0 0 8 8 8 8 0 0 0 8 -8 8 8 0 0 0 -0.02148 -0.57617z"
     id="path976535" />
  <path
     style="fill:#ffffff;opacity:0.2"
     d="M 11.400391 3 C 6.7467908 3 3 6.7467908 3 11.400391 L 3 12.400391 C 3 7.7467908 6.7467908 4 11.400391 4 L 20.599609 4 C 25.253209 4 29 7.7467908 29 12.400391 L 29 11.400391 C 29 6.7467908 25.253209 3 20.599609 3 L 11.400391 3 z"
     id="path976537" />
</svg>
