<?xml version="1.0" encoding="UTF-8" standalone="no"?>
<svg
   width="512"
   height="512"
   version="1.1"
   viewBox="0 0 384 384"
   id="svg1030966"
   sodipodi:docname="gerbview.svg"
   inkscape:version="1.1.2 (0a00cf5339, 2022-02-04)"
   xmlns:inkscape="http://www.inkscape.org/namespaces/inkscape"
   xmlns:sodipodi="http://sodipodi.sourceforge.net/DTD/sodipodi-0.dtd"
   xmlns:xlink="http://www.w3.org/1999/xlink"
   xmlns="http://www.w3.org/2000/svg"
   xmlns:svg="http://www.w3.org/2000/svg">
  <sodipodi:namedview
     id="namedview1030968"
     pagecolor="#ffffff"
     bordercolor="#666666"
     borderopacity="1.0"
     inkscape:pageshadow="2"
     inkscape:pageopacity="0.0"
     inkscape:pagecheckerboard="0"
     showgrid="false"
     inkscape:zoom="1.6152344"
     inkscape:cx="255.69045"
     inkscape:cy="256"
     inkscape:window-width="1920"
     inkscape:window-height="1051"
     inkscape:window-x="0"
     inkscape:window-y="29"
     inkscape:window-maximized="1"
     inkscape:current-layer="g1030962" />
  <defs
     id="defs1030934">
    <filter
       id="alpha"
       x="0"
       y="0"
       width="1"
       height="1">
      <feColorMatrix
         in="SourceGraphic"
         values="0 0 0 0 1 0 0 0 0 1 0 0 0 0 1 0 0 0 1 0"
         id="feColorMatrix1030917" />
    </filter>
    <mask
       id="d">
      <g
         filter="url(#alpha)"
         id="g1030922">
        <rect
           width="384"
           height="384"
           fill-opacity=".2"
           id="rect1030920" />
      </g>
    </mask>
    <clipPath
       id="f">
      <rect
         width="384"
         height="384"
         id="rect1030925" />
    </clipPath>
    <g
       id="a"
       clip-path="url(#f)">
      <path
         d="m40.805 24c-9.3086 0-16.805 7.4961-16.805 16.805v6c0-9.3086 7.4961-16.805 16.805-16.805h302.4c9.3008 0 16.793 7.4961 16.793 16.805v-6c0-9.3086-7.4922-16.805-16.793-16.805z"
         fill="#fff"
         id="path1030928" />
    </g>
    <clipPath
       id="e">
      <rect
         width="384"
         height="384"
         id="rect1030931" />
    </clipPath>
  </defs>
  <path
     d="m40.801 24c-11.305 0-20.551 9.0442-20.551 20.102v295.8c0 11.058 9.2461 20.102 20.551 20.102h302.4c11.305 0 20.551-9.0442 20.551-20.102v-295.8c0-11.058-9.2461-20.102-20.551-20.102zm0 7.3362h302.4c7.25 0 13.051 5.6741 13.051 12.766v295.8c0 7.0917-5.8008 12.766-13.051 12.766h-302.4c-7.25 0-13.051-5.6742-13.051-12.766v-295.8c0-7.0917 5.8008-12.766 13.051-12.766z"
     color="#000000"
     color-rendering="auto"
     dominant-baseline="auto"
     image-rendering="auto"
     opacity=".2"
     shape-rendering="auto"
     solid-color="#000000"
     style="font-feature-settings:normal;font-variant-alternates:normal;font-variant-caps:normal;font-variant-ligatures:normal;font-variant-numeric:normal;font-variant-position:normal;isolation:auto;mix-blend-mode:normal;shape-padding:0;text-decoration-color:#000000;text-decoration-line:none;text-decoration-style:solid;text-indent:0;text-orientation:mixed;text-transform:none;white-space:normal"
     id="path1030936" />
  <path
     d="m360 343.2v-302.4c0-9.2773-7.5234-16.801-16.801-16.801h-302.4c-9.2773 0-16.801 7.5234-16.801 16.801v302.4c0 9.2773 7.5234 16.801 16.801 16.801h302.4c9.2773 0 16.801-7.5234 16.801-16.801z"
     fill="#fff"
     id="path1030938" />
  <path
     transform="scale(.75)"
     d="m32 447.6v10c0 12.37 10.031 22.4 22.4 22.4h403.2c12.37 0 22.4-10.031 22.4-22.4v-10c1e-5 12.37-10.031 22.4-22.4 22.4h-403.2c-12.37 0-22.4-10.031-22.4-22.4z"
     opacity=".3"
     stroke-width="1.3333"
     id="path1030940" />
  <use
     width="100%"
     height="100%"
     mask="url(#d)"
     xlink:href="#a"
     id="use1030942" />
  <g
     fill="#4a4a4a"
     id="g1030950">
    <path
       d="m108.12 84c-8.1055-0.14453-8.1758 11.656-0.0703 11.602l40.801 0.22656 19.266 18.781v71.508c-0.11328 7.8438 12.117 7.8438 12 0v-14.387c8e-3 -0.13672 8e-3 -0.27344 0-0.40625v-59.113c-4e-3 -1.5352-0.64063-3-1.7617-4.082l-22.73-22.16c-1.1133-1.0898-2.6328-1.7109-4.2227-1.7227l-43.285-0.24609zm137.78 0.16016c-3.3125 0.05078-5.957 2.6875-5.9062 5.8906v96.066c-0.11328 7.8438 12.117 7.8438 12 0v-14.387c8e-3 -0.13672 8e-3 -0.26953 0-0.40625v-81.277c0.0547-3.2734-2.707-5.9414-6.0938-5.8906zm-71.883 0.02344c-5.3867-0.01953-8.0703 6.3008-4.2188 9.9453l22.199 20.48v56.715c-0.0117 0.19531-0.0117 0.39062 0 0.58594v14.207c-0.11328 7.8438 12.113 7.8438 12 0v-73.906c4e-3 -1.5312-0.61719-3-1.7266-4.0898l-23.941-22.16c-1.125-1.1367-2.6797-1.7812-4.3086-1.7891zm24 0c-5.3867-0.01953-8.0703 6.3008-4.2188 9.9453l22.176 20.48v71.508c-0.11719 7.8438 12.113 7.8438 12 0v-14.387c4e-3 -0.13672 4e-3 -0.27344 0-0.40625v-59.113c0-1.5274-0.62109-2.9961-1.7305-4.082l-23.938-22.16c-1.1211-1.1289-2.6641-1.7773-4.2852-1.7891z"
       id="path1030944" />
    <path
       d="m162.64 228c-3.3047 0.0586-5.9453 3.0352-5.9062 6.6562v16.32c-4e-3 0.15234-4e-3 0.30859 0 0.46094v22.438l-11.672 12.875h-42.961c-2.1641-0.0352-4.1758 1.2109-5.2695 3.2617-1.0898 2.0508-1.0898 4.582 0 6.6328 1.0938 2.0508 3.1055 3.2969 5.2695 3.2617h45.469c1.5976 8e-3 3.1328-0.6875 4.2656-1.9258l15.141-16.781c1.125-1.2305 1.7578-2.9023 1.7617-4.6445v-41.918c0.0195-1.7773-0.61718-3.4844-1.7656-4.7383-1.1445-1.2539-2.707-1.9453-4.3281-1.918zm35.273 0c-3.3047 0.0586-5.9453 3.0352-5.9024 6.6602v58.672c-0.0312 2.3711 1.1055 4.5781 2.9727 5.7734 1.8711 1.1953 4.1797 1.1953 6.0508 0 1.8672-1.1953 3.0039-3.4023 2.9766-5.7734v-41.43c4e-3 -0.15234 4e-3 -0.30859 0-0.46094v-16.781c0.0156-1.7773-0.62109-3.4844-1.7656-4.7383-1.1484-1.2539-2.7109-1.9453-4.3281-1.918zm24.023 0c-3.3125 0.043-5.9688 3.0273-5.9258 6.6602v16.781c-0.0117 0.22266-0.0117 0.44531 0 0.66797v24.465c4e-3 1.7383 0.63672 3.3984 1.7578 4.625l15.137 16.781c1.1328 1.2422 2.668 1.9375 4.2656 1.9297h45.473c2.1641 0.0312 4.1758-1.2148 5.2656-3.2617 1.0898-2.0508 1.0898-4.5859 0-6.6328-1.0898-2.0508-3.1016-3.2969-5.2656-3.2656h-42.961l-11.664-12.867v-39.211c0.0156-1.7695-0.61718-3.4766-1.7578-4.7305-1.1445-1.25-2.6992-1.9453-4.3125-1.9258zm24.047 0c-3.3047 0.0586-5.9453 3.0352-5.9062 6.6562v15.73c-0.15625 1.1445-0.0352 2.3125 0.35156 3.3906 0.0391 0.10547 0.0781 0.20703 0.11719 0.30859 0.41015 1.0586 1.0625 1.9766 1.8984 2.6719l14.531 16.062c1.1289 1.25 2.6641 1.9531 4.2656 1.9531h15.141c2.1641 0.0352 4.1758-1.2148 5.2656-3.2617 1.0938-2.0508 1.0938-4.5859 0-6.6328-1.0898-2.0508-3.1016-3.2969-5.2656-3.2617h-12.656l-11.648-12.902v-14.059c0.0195-1.7774-0.61719-3.4844-1.7656-4.7383-1.1484-1.2539-2.707-1.9453-4.3281-1.918z"
       id="path1030946" />
    <path
       d="m90.266 108c-3.4609 0-6.2656 2.6172-6.2656 5.8438v156.31c0 3.2266 2.8047 5.8438 6.2656 5.8438h39.566c1.6719 0 3.2773-0.625 4.4531-1.7344l7.9062-7.4414c1.1602-1.0938 1.8125-2.5664 1.8125-4.1055v-133.99c0-1.5352-0.65235-3.0117-1.8125-4.1016l-15.828-14.887c-1.168-1.1055-2.7617-1.7266-4.4258-1.7344h-31.668z"
       id="path1030948" />
  </g>
  <path
     d="m165.5 158.64h90.254c8.5625 0 15.504 6.9414 15.504 15.504v68.363c0 8.5625-6.9414 15.504-15.504 15.504h-90.254c-8.5625 0-15.504-6.9414-15.504-15.504v-68.363c0-8.5625 6.9414-15.504 15.504-15.504zm0 0"
     fill="none"
     stroke="#4a4a4a"
     stroke-linecap="round"
     stroke-linejoin="round"
     stroke-width="12"
     id="path1030952" />
  <g
     fill-rule="evenodd"
     id="g1030962">
    <path
       d="m384 283.5c0 53.02-42.98 96-96 96s-96-42.98-96-96c0-53.02 42.98-96 96-96s96 42.98 96 96z"
       opacity=".3"
       id="path1030954" />
    <path
       d="m384 276c0 53.02-42.98 96-96 96s-96-42.98-96-96 42.98-96 96-96 96 42.98 96 96z"
       fill="#d41717"
       id="path1030956" />
    <path
       d="m288 247.5v0.0117c-11.633 0.10937-23.336 2.6562-33.469 8.168-4.0391 2.5234-8.8867 5.7852-12.539 9.0703-5.7461 5.4023-10.668 11.699-13.992 18.762 9.1133 19.297 29.141 33.441 51.176 35.531 14.457 1.5703 29.586-0.83203 42.293-7.6992 4.0391-2.5234 8.8867-5.7852 12.539-9.0703 5.7461-5.4141 10.668-11.711 13.992-18.762-9.1094-19.293-29.145-33.434-51.176-35.52-2.9297-0.33592-5.8828-0.49217-8.8242-0.49217zm0.0234 12c12.84-0.28516 24.207 11.207 23.965 23.977 0.41016 14.113-13.648 26.297-27.551 23.66-14.039-1.6484-23.906-17.406-19.289-30.75 2.9531-9.8164 12.598-16.988 22.887-16.875zm-0.0234 12c-3.1875 0-6.2422 1.2656-8.4922 3.5195s-3.5117 5.3086-3.5078 8.4922c4e-3 6.6211 5.375 11.988 12 11.988s11.996-5.3672 12-11.988c-8e-3 -6.6172-5.3789-11.977-12-11.977z"
       opacity=".3"
       id="path1030958" />
    <path
       d="m 288,240 v 0.0117 c -11.633,0.10937 -23.336,2.6562 -33.469,8.168 -4.0391,2.5234 -8.8867,5.7852 -12.539,9.0703 -4.71228,4.43034 -8.87026,9.46219 -12.04721,15.02491 -0.69698,1.22039 0.59805,-1.27075 0,0 0.50054,1.05987 -0.34587,6.86892 -0.34587,6.86892 9.72044,17.6825 28.75233,30.42396 49.57708,32.39917 14.457,1.5703 29.586,-0.83203 42.293,-7.6992 4.0391,-2.5234 8.8867,-5.7852 12.539,-9.0703 4.85812,-4.57743 9.1271,-9.78589 12.33935,-15.54761 0.58714,-1.05314 -1.65265,3.21439 0,0 -0.53604,-1.1353 0.54273,-5.46715 -0.0672,-6.56537 -9.75449,-17.56454 -28.7216,-30.20577 -49.45618,-32.16902 -2.9297,-0.33592 -5.8828,-0.49217 -8.8242,-0.49217 z m 0.0234,12 c 12.84,-0.28516 24.207,11.207 23.965,23.977 0.41016,14.113 -13.648,26.297 -27.551,23.66 -14.039,-1.6484 -23.906,-17.406 -19.289,-30.75 2.9531,-9.8164 12.598,-16.988 22.887,-16.875 z M 288,264 c -3.1875,0 -6.2422,1.2656 -8.4922,3.5195 -2.25,2.2539 -3.5117,5.3086 -3.5078,8.4922 0.004,6.6211 5.375,11.988 12,11.988 6.625,0 11.996,-5.3672 12,-11.988 -0.008,-6.6172 -5.3789,-11.977 -12,-11.977 z"
       fill="#ffffff"
       id="path1030960"
       sodipodi:nodetypes="ccccscscccscsccccccccccscsccc" />
  </g>
  <path
     transform="scale(.75)"
     d="m54.4 32c-12.37 0-22.4 10.031-22.4 22.4v10c0-12.37 10.031-22.4 22.4-22.4h403.2c12.37 0 22.4 10.031 22.4 22.4v-10c0-12.37-10.031-22.4-22.4-22.4h-403.2z"
     opacity=".1"
     stroke-width="1.3333"
     id="path1030964" />
</svg>
