<?xml version="1.0" encoding="UTF-8" standalone="no"?>
<svg
   width="32"
   height="32"
   version="1.1"
   id="svg1652934"
   sodipodi:docname="gns3.svg"
   inkscape:version="1.1.2 (0a00cf5339, 2022-02-04)"
   xmlns:inkscape="http://www.inkscape.org/namespaces/inkscape"
   xmlns:sodipodi="http://sodipodi.sourceforge.net/DTD/sodipodi-0.dtd"
   xmlns="http://www.w3.org/2000/svg"
   xmlns:svg="http://www.w3.org/2000/svg">
  <defs
     id="defs1652938" />
  <sodipodi:namedview
     id="namedview1652936"
     pagecolor="#ffffff"
     bordercolor="#666666"
     borderopacity="1.0"
     inkscape:pageshadow="2"
     inkscape:pageopacity="0.0"
     inkscape:pagecheckerboard="0"
     showgrid="false"
     inkscape:zoom="25.84375"
     inkscape:cx="15.980653"
     inkscape:cy="16"
     inkscape:window-width="1920"
     inkscape:window-height="1051"
     inkscape:window-x="0"
     inkscape:window-y="29"
     inkscape:window-maximized="1"
     inkscape:current-layer="svg1652934" />
  <path
     style="opacity:0.2"
     d="M 16,3 A 14,14 0 0 0 2,17 14,14 0 0 0 16,31 14,14 0 0 0 30,17 14,14 0 0 0 16,3 Z"
     id="path1652912" />
  <path
     style="fill:#685d8d"
     d="M 16,2 A 14,14 0 0 0 2,16 14,14 0 0 0 16,30 14,14 0 0 0 30,16 14,14 0 0 0 16,2 Z"
     id="path1652914" />
  <path
     style="opacity:0.2"
     d="M 14.309878,26.910412 C 13.111716,26.682437 11.835849,26.129256 10.76715,25.374384 9.5670552,24.526707 8.3267021,23.035054 7.730363,21.722337 7.1311007,20.403174 6.8884226,18.808146 7.0476901,17.235379 c 0.1204875,-1.189768 0.2575237,-1.742092 0.6673156,-2.689603 1.136849,-2.628579 3.3607523,-4.440637 6.3070853,-5.1390714 0.482069,-0.114275 0.816248,-0.2489921 1.02291,-0.4123609 0.306328,-0.2421601 0.307295,-0.2449965 0.49176,-1.4389655 0.230295,-1.490603 0.22685,-1.4791611 0.462902,-1.5382942 0.317135,-0.079446 1.799313,0.131879 2.524118,0.3598812 1.166493,0.3669471 1.999764,0.8445004 2.993662,1.7156924 0.306528,0.2686817 1.098307,0.4885125 1.148145,0.4885125 0.300132,0 1.133723,0.3916885 1.470607,0.7184863 1.004613,0.9745306 1.140043,2.2029076 0.374218,3.3941036 -0.205518,0.319667 -0.478907,0.17656 -0.478907,0.588816 0,0.275394 -0.04724,0.562405 -0.105012,0.637801 -0.08468,0.110539 -0.836175,0.170772 -2.460832,0.311047 C 19.985275,14.35924 19.091021,14.738345 19,14.829197 c -0.270565,0.270051 0.353702,0.326729 3.229612,0.553409 2.68922,0.211964 2.93175,0.285891 2.727388,0.489488 -0.04391,0.04373 -1.222386,0.250241 -2.862717,0.580964 l -2.982419,0.601323 -1.874071,-0.722763 c -1.030741,-0.397515 -1.906334,-0.62289 -1.945764,-0.62289 -0.122911,0 -1.025354,1.498031 -0.995539,1.652566 0.03696,0.191527 0.414477,0.08724 0.905091,0.154359 0.338878,0.04638 0.433416,0.02092 0.783821,-0.210718 0.78083,-0.516224 1.480203,-0.516846 1.914488,-0.0015 0.265421,0.314839 0.274418,0.52872 0.02945,0.699987 -0.244763,0.17111 -0.422168,0.164671 -0.78314,-0.02842 -0.507015,-0.271232 -0.82894,0.08278 -0.645094,0.568918 0.118693,0.313871 0.05149,0.484646 -0.190717,0.484646 -0.134607,0 -0.231134,-0.08343 -0.325039,-0.280943 -0.133314,-0.280408 -0.13498,-0.420958 -0.870691,-0.470656 -0.795889,-0.05376 -1.172215,0.22157 -1.669659,-0.09187 -0.393112,-0.247695 -0.760039,-0.678213 -0.760039,-0.891762 0,-0.204344 0.389344,-0.979847 0.789157,-1.571859 0.37134,-0.549855 0.382755,-0.683366 0.05843,-0.683366 -0.172427,0 -0.312861,0.08039 -0.476075,0.272524 -0.286979,0.337815 -0.959597,1.733618 -0.959597,1.991329 0,0.355343 0.271561,0.748097 0.994368,1.22321 0.572711,0.376447 0.747382,0.400792 0.870134,0.678863 0.184374,0.417659 0.506941,1.132957 0.577263,1.7843 0.05839,0.540823 0.176015,0.40103 0.391374,0.02323 0.219207,-0.384537 0.824758,-0.460265 0.824758,-0.103137 0,0.0859 -0.09389,0.206321 -0.20864,0.267621 -0.379284,0.202599 -0.352783,0.545283 0.0592,0.765349 0.12198,0.06516 0.242932,0.03521 0.52594,-0.130359 0.202138,-0.11824 0.424806,-0.214977 0.494821,-0.214977 0.165654,0 0.388859,0.321303 0.388859,0.559759 0,0.531673 -0.418693,0.865749 -1.085026,0.865749 -0.79515,0 -1.404652,-0.427247 -1.73488,-1.216113 -0.176229,-0.42098 -0.864195,-1.18063 -1.148312,-1.48555 -0.280949,-0.301548 -0.429898,-0.353705 -0.664998,-0.319896 -0.262839,0.03781 -0.392069,0.286427 -0.393474,0.925631 -0.0025,1.235532 0.387269,2.499091 1.790991,3.190922 2.305718,1.136392 4.518509,1.149496 6.901614,0.04087 1.758865,-0.818225 3.11472,-2.170592 3.21297,-3.590896 0.03609,-0.522 0.01457,-0.660003 -0.153563,-0.984449 -0.349418,-0.674223 -1.435629,-1.065047 -2.175311,-0.729899 -0.240501,0.108969 -0.424295,0.420522 -0.542217,0.76098 -0.344401,1.063384 0.161946,1.500799 0.744416,1.754225 0.239113,0.104036 0.660547,0.02966 0.735215,-0.267293 0.08341,-0.331697 -0.07876,-0.464979 -0.531762,-0.437033 -0.342212,0.02113 -0.389376,0.0031 -0.412539,-0.159539 -0.0348,-0.244287 0.331358,-0.480828 0.727036,-0.469634 0.233495,0.0066 0.368731,6.61e-4 0.581452,0.232335 0.33013,0.359557 0.272749,0.779468 0.100473,1.107796 -0.208579,0.397516 -0.596804,0.663947 -1.172781,0.662043 -0.820486,-0.0025 -1.483215,-0.458668 -1.676539,-1.153438 -0.115887,-0.416486 -0.110289,-1.082537 0.0362,-1.57483 0.42477,-1.427662 2.825916,-1.720283 3.968208,-0.612189 0.550784,0.534291 0.829711,1.140687 0.778156,2.102354 -0.111767,2.084688 -2.212897,4.094258 -4.612229,5.270566 -1.421168,0.69675 -2.219323,0.883409 -3.948558,0.923428 -0.984748,0.02281 -1.614928,-0.0025 -2.029594,-0.08138 z"
     id="path1652916" />
  <path
     style="fill:#34bae3"
     d="M 14.309878,25.910412 C 13.111716,25.682437 11.835849,25.129256 10.76715,24.374384 9.5670552,23.526707 8.3267021,22.035054 7.730363,20.722337 7.1311007,19.403174 6.8884226,17.808146 7.0476901,16.235379 7.1681776,15.045611 7.3052138,14.493287 7.7150057,13.545776 8.8518547,10.917197 11.075758,9.1051394 14.022091,8.4067046 c 0.482069,-0.114275 0.816248,-0.2489921 1.02291,-0.4123609 0.306328,-0.2421601 0.307295,-0.2449965 0.49176,-1.4389655 0.230295,-1.490603 0.22685,-1.4791611 0.462902,-1.5382942 0.317135,-0.079446 1.799313,0.131879 2.524118,0.3598812 1.166493,0.3669471 1.999764,0.8445004 2.993662,1.7156924 0.306528,0.2686817 1.098307,0.4885125 1.148145,0.4885125 0.300132,0 1.133723,0.3916885 1.470607,0.7184863 1.004613,0.9745302 1.140043,2.2029076 0.374218,3.3941036 -0.205518,0.319667 -0.478907,0.17656 -0.478907,0.588816 0,0.275394 -0.04724,0.562405 -0.105012,0.637801 -0.08468,0.110539 -0.836175,0.170772 -2.460832,0.311047 C 19.985275,13.35924 19.091021,13.738345 19,13.829197 c -0.270565,0.270051 0.353702,0.326729 3.229612,0.553409 2.68922,0.211964 2.93175,0.285891 2.727388,0.489488 -0.04391,0.04373 -1.222386,0.250241 -2.862717,0.580964 l -2.982419,0.601323 -1.874071,-0.722763 c -1.030741,-0.397515 -1.906334,-0.62289 -1.945764,-0.62289 -0.122911,0 -1.025354,1.498031 -0.995539,1.652566 0.03696,0.191527 0.414477,0.08724 0.905091,0.154359 0.338878,0.04638 0.433416,0.02092 0.783821,-0.210718 0.78083,-0.516224 1.480203,-0.516846 1.914488,-0.0015 0.265421,0.314839 0.274418,0.52872 0.02945,0.699987 -0.244763,0.17111 -0.422168,0.164671 -0.78314,-0.02842 -0.507015,-0.271232 -0.82894,0.08278 -0.645094,0.568918 0.118693,0.313871 0.05149,0.484646 -0.190717,0.484646 -0.134607,0 -0.231134,-0.08343 -0.325039,-0.280943 -0.133314,-0.280408 -0.13498,-0.420958 -0.870691,-0.470656 -0.795889,-0.05376 -1.172215,0.22157 -1.669659,-0.09187 -0.393112,-0.247695 -0.760039,-0.678213 -0.760039,-0.891762 0,-0.204344 0.389344,-0.979847 0.789157,-1.571859 0.37134,-0.549855 0.382755,-0.683366 0.05843,-0.683366 -0.172427,0 -0.312861,0.08039 -0.476075,0.272524 -0.286979,0.337815 -0.959597,1.733618 -0.959597,1.991329 0,0.355343 0.271561,0.748097 0.994368,1.22321 0.572711,0.376447 0.747382,0.400792 0.870134,0.678863 0.184374,0.417659 0.506941,1.132957 0.577263,1.7843 0.05839,0.540823 0.176015,0.40103 0.391374,0.02323 0.219207,-0.384537 0.824758,-0.460265 0.824758,-0.103137 0,0.0859 -0.09389,0.206321 -0.20864,0.267621 -0.379284,0.202599 -0.352783,0.545283 0.0592,0.765349 0.12198,0.06516 0.242932,0.03521 0.52594,-0.130359 0.202138,-0.11824 0.424806,-0.214977 0.494821,-0.214977 0.165654,0 0.388859,0.321303 0.388859,0.559759 0,0.531673 -0.418693,0.865749 -1.085026,0.865749 -0.79515,0 -1.404652,-0.427247 -1.73488,-1.216113 -0.176229,-0.42098 -0.864195,-1.18063 -1.148312,-1.48555 -0.280949,-0.301548 -0.429898,-0.353705 -0.664998,-0.319896 -0.262839,0.03781 -0.392069,0.286427 -0.393474,0.925631 -0.0025,1.235532 0.387269,2.499091 1.790991,3.190922 2.305718,1.136392 4.518509,1.149496 6.901614,0.04087 1.758865,-0.818225 3.11472,-2.170592 3.21297,-3.590896 0.03609,-0.522 0.01457,-0.660003 -0.153563,-0.984449 -0.349418,-0.674223 -1.435629,-1.065047 -2.175311,-0.729899 -0.240501,0.108969 -0.424295,0.420522 -0.542217,0.76098 -0.344401,1.063384 0.161946,1.500799 0.744416,1.754225 0.239113,0.104036 0.660547,0.02966 0.735215,-0.267293 0.08341,-0.331697 -0.07876,-0.464979 -0.531762,-0.437033 -0.342212,0.02113 -0.389376,0.0031 -0.412539,-0.159539 -0.0348,-0.244287 0.331358,-0.480828 0.727036,-0.469634 0.233495,0.0066 0.368731,6.61e-4 0.581452,0.232335 0.33013,0.359557 0.272749,0.779468 0.100473,1.107796 -0.208579,0.397516 -0.596804,0.663947 -1.172781,0.662043 -0.820486,-0.0025 -1.483215,-0.458668 -1.676539,-1.153438 -0.115887,-0.416486 -0.110289,-1.082537 0.0362,-1.57483 0.42477,-1.427662 2.825916,-1.720283 3.968208,-0.612189 0.550784,0.534291 0.829711,1.140687 0.778156,2.102354 -0.111767,2.084688 -2.212897,4.094258 -4.612229,5.270566 -1.421168,0.69675 -2.219323,0.883409 -3.948558,0.923428 -0.984748,0.02281 -1.614928,-0.0025 -2.029594,-0.08138 z"
     id="path1652918" />
  <circle
     style="opacity:0.2"
     cx="17.5"
     cy="11.5"
     r="2.5"
     id="circle1652920" />
  <circle
     style="fill:#ffffff"
     cx="17.5"
     cy="10.5"
     r="2.5"
     id="circle1652922" />
  <circle
     style="fill:#5e5e5e"
     cx="17"
     cy="10"
     r="1"
     id="circle1652924" />
  <path
     style="opacity:0.2"
     d="m 23.97274,10.719272 c 0.11353,0.542644 -0.137912,1.100414 -0.561612,1.245815 L 23,10 c 0.4237,-0.1454006 0.85921,0.176628 0.97274,0.719272 z"
     id="path1652926" />
  <path
     style="fill:#ffffff"
     d="m 23.97274,9.7192719 c 0.11353,0.5426441 -0.137912,1.1004141 -0.561612,1.2458151 L 23,9 c 0.4237,-0.1454006 0.85921,0.176628 0.97274,0.7192719 z"
     id="path1652928" />
  <path
     style="fill:#ffffff;opacity:0.1"
     d="M 16 2 A 14 14 0 0 0 2 16 A 14 14 0 0 0 2.0214844 16.414062 A 14 14 0 0 1 16 3 A 14 14 0 0 1 29.978516 16.585938 A 14 14 0 0 0 30 16 A 14 14 0 0 0 16 2 z"
     id="path1652930" />
  <path
     style="opacity:0.1;fill:#ffffff"
     d="M 16.425781,5.0078125 C 16.230905,4.9956103 16.079284,4.9977166 16,5.0175781 15.763948,5.0767112 15.767404,5.0640845 15.537109,6.5546875 15.352644,7.7486565 15.35125,7.7519805 15.044922,7.9941406 14.83826,8.1575094 14.503553,8.291975 14.021484,8.40625 11.075151,9.1046848 8.8516928,10.916343 7.7148438,13.544922 7.3050519,14.492433 7.1673625,15.04656 7.046875,16.236328 c -0.050075,0.494489 -0.04556,0.986938 -0.017578,1.476563 0.00793,-0.159242 0.00147,-0.317468 0.017578,-0.476563 C 7.1673625,16.04656 7.3050519,15.492433 7.7148438,14.544922 8.8516928,11.916343 11.075151,10.104684 14.021484,9.40625 14.503553,9.291975 14.83826,9.1575094 15.044922,8.9941406 15.35125,8.7519805 15.352644,8.7486565 15.537109,7.5546875 15.767404,6.0640845 15.763948,6.0767112 16,6.0175781 c 0.317135,-0.079446 1.798633,0.1313728 2.523438,0.359375 1.166492,0.3669471 2.000242,0.8436518 2.99414,1.7148438 0.306528,0.2686817 1.0986,0.4902344 1.148438,0.4902343 0.300132,0 1.133819,0.3899991 1.470703,0.7167969 0.432358,0.4194117 0.692961,0.8886579 0.800781,1.3789059 0.183649,-0.851207 -0.08148,-1.6811449 -0.800781,-2.3789059 -0.336884,-0.3267978 -1.170571,-0.7167969 -1.470703,-0.7167969 -0.04984,0 -0.84191,-0.2215526 -1.148438,-0.4902343 C 20.52368,6.2206049 19.68993,5.7439002 18.523438,5.3769531 17.979834,5.2059515 17.01041,5.044419 16.425781,5.0078125 Z m 4.683594,9.2714845 C 19.85795,14.432641 19.082898,14.747334 19,14.830078 c -0.270565,0.270051 0.354559,0.326055 3.230469,0.552734 0.08053,0.0063 0.07029,0.0095 0.146484,0.01563 0.791519,-0.157642 1.469767,-0.286575 1.932125,-0.378167 0.39232,-0.07772 -0.665455,-0.3004 -0.0175,-0.447624 -0.665455,-0.3004 0,0 0,0 -0.426813,-0.05364 -1.081612,-0.112631 -2.061107,-0.189835 -0.576758,-0.04546 -0.714512,-0.06864 -1.121094,-0.103515 z m -7.576172,0.759765 c -0.116228,0 -0.220289,0.05211 -0.324219,0.134766 -0.2817,0.48172 -0.523437,0.964519 -0.523437,1.119141 0,0.102425 0.08752,0.255922 0.21875,0.414062 0.149888,-0.306198 0.356422,-0.669615 0.570312,-0.986328 0.37134,-0.549855 0.382919,-0.68164 0.05859,-0.681641 z m 2.921875,1.025391 c -0.152876,0.06265 -0.307284,0.133486 -0.46875,0.240235 -0.350405,0.231638 -0.446278,0.257317 -0.785156,0.210937 -0.18609,-0.02546 -0.331521,-0.0218 -0.472656,-0.02344 -0.215568,0.359097 -0.39468,0.705499 -0.41211,0.820312 0.223147,-0.02538 0.471206,-0.05729 0.798828,-0.03516 0.360137,0.02433 0.540494,0.07092 0.650391,0.144531 0.06875,-0.03544 0.123021,-0.05261 0.220703,-0.117187 0.191998,-0.126934 0.377223,-0.22253 0.556641,-0.28711 0.09063,-0.114524 0.24957,-0.144931 0.449219,-0.08594 0.258202,-0.01557 0.493767,0.03848 0.691406,0.177734 0.0805,-0.0158 0.159841,-0.04517 0.246094,-0.105469 0.137349,-0.09603 0.184869,-0.208693 0.162109,-0.341797 L 17.238281,16.332031 C 16.938415,16.216385 16.711914,16.14965 16.455078,16.064453 Z m -4.183594,0.71875 c -0.09863,0.234928 -0.173828,0.439213 -0.173828,0.519531 0,0.355343 0.271334,0.747544 0.994141,1.222657 0.572711,0.376447 0.746388,0.399663 0.869141,0.677734 0.184374,0.417659 0.507803,1.133813 0.578124,1.785156 0.05839,0.540823 0.175267,0.401238 0.390626,0.02344 0.0944,-0.165597 0.259489,-0.261582 0.417968,-0.302735 -0.118322,-0.186975 -0.06265,-0.393321 0.199219,-0.533203 0.11475,-0.0613 0.207031,-0.181678 0.207031,-0.267578 0,-0.357128 -0.605011,-0.281021 -0.824218,0.103516 -0.215359,0.3778 -0.332236,0.517385 -0.390626,-0.02344 -0.06494,-0.601542 -0.339658,-1.236302 -0.527343,-1.662109 -0.190606,0.0029 -0.371174,-0.01761 -0.566407,-0.140625 -0.393112,-0.247695 -0.759765,-0.679029 -0.759765,-0.892578 0,-0.01169 0.01315,-0.04135 0.01563,-0.05664 -0.195276,-0.15999 -0.334057,-0.310073 -0.429688,-0.453125 z m 10.205078,0.242188 c -1.019673,-0.05932 -2.056784,0.390914 -2.322265,1.283203 -0.123821,0.416114 -0.141954,0.946714 -0.07617,1.355468 0.01892,-0.123719 0.04317,-0.244549 0.07617,-0.355468 0.149343,-0.501945 0.549528,-0.854665 1.046875,-1.064453 0.10192,-0.175586 0.217885,-0.326701 0.363281,-0.392579 0.628986,-0.284992 1.504731,-0.04159 1.96875,0.451172 0.215358,0.103784 0.419668,0.227497 0.589844,0.392578 0.392616,0.38086 0.637317,0.804627 0.732422,1.361329 0.0114,-0.08637 0.04027,-0.171127 0.04492,-0.257813 0.05156,-0.961667 -0.22656,-1.569225 -0.777344,-2.103516 -0.42836,-0.415535 -1.03468,-0.634327 -1.646485,-0.669921 z m -0.191406,2.007812 c -0.395678,-0.01119 -0.761362,0.226416 -0.726562,0.470703 0.02316,0.162639 0.0699,0.179333 0.412109,0.158203 0.430947,-0.02659 0.591655,0.09923 0.535156,0.396485 0.116578,0.01985 0.227195,0.06095 0.361329,0.207031 0.03876,0.04222 0.05546,0.08722 0.08398,0.130859 0.0043,-0.0079 0.01142,-0.01347 0.01563,-0.02148 0.172276,-0.328328 0.230521,-0.749818 -0.09961,-1.109375 -0.212721,-0.231674 -0.348537,-0.225822 -0.582032,-0.232422 z m -1.28125,0.658203 c -0.167027,0.573608 -0.07902,0.957298 0.134766,1.226563 0.202495,0.07068 0.420227,0.116468 0.65625,0.117187 0.281183,9.3e-4 0.514396,-0.06282 0.707031,-0.173828 -0.04706,-0.152084 -0.213308,-0.218833 -0.53125,-0.199219 -0.342212,0.02113 -0.388946,0.0044 -0.412109,-0.158203 -0.01062,-0.07452 0.02467,-0.144673 0.07813,-0.210937 -0.269783,-0.13632 -0.510077,-0.317328 -0.632813,-0.601563 z m 2.837891,0.166016 c -0.24873,1.311936 -1.522181,2.538794 -3.160156,3.300781 -2.383105,1.108626 -4.596626,1.095377 -6.902344,-0.04102 -1.207471,-0.595108 -1.643442,-1.616329 -1.746094,-2.675782 -0.02649,0.130058 -0.04448,0.281093 -0.04492,0.484375 -0.0025,1.235532 0.387294,2.499576 1.791016,3.191407 2.305718,1.136392 4.519239,1.149641 6.902344,0.04102 1.758865,-0.818225 3.11464,-2.171493 3.21289,-3.591797 0.0242,-0.350053 0.0017,-0.532273 -0.05273,-0.708984 z m -7.214844,0.738281 c -0.07002,0 -0.293956,0.0966 -0.496094,0.214844 -0.193204,0.113031 -0.302445,0.145023 -0.396484,0.144531 -0.02409,0.07918 -0.09156,0.169451 -0.1875,0.220703 -0.379284,0.202599 -0.353389,0.545559 0.05859,0.765625 0.12198,0.06516 0.242382,0.03471 0.52539,-0.130859 0.202138,-0.11824 0.426079,-0.214844 0.496094,-0.214844 0.05492,0 0.112586,0.04371 0.169922,0.09961 0.132028,-0.142835 0.21875,-0.318387 0.21875,-0.539062 0,-0.238456 -0.223018,-0.560547 -0.388672,-0.560547 z"
     id="path1652932"
     sodipodi:nodetypes="ssssssscccsssssssscsscssccscscsscscscsscccccsccccccccccssssscsscscssccsccccscsccsscsccscssccccccscccsscccsccscccscscss" />
</svg>
