<?xml version="1.0" encoding="UTF-8" standalone="no"?>
<svg
   width="512"
   height="512"
   version="1.1"
   viewBox="0 0 384 384"
   id="svg752"
   sodipodi:docname="Grsync.SVG"
   inkscape:version="1.1.2 (0a00cf5339, 2022-02-04)"
   xmlns:inkscape="http://www.inkscape.org/namespaces/inkscape"
   xmlns:sodipodi="http://sodipodi.sourceforge.net/DTD/sodipodi-0.dtd"
   xmlns:xlink="http://www.w3.org/1999/xlink"
   xmlns="http://www.w3.org/2000/svg"
   xmlns:svg="http://www.w3.org/2000/svg">
  <defs
     id="defs756" />
  <sodipodi:namedview
     id="namedview754"
     pagecolor="#ffffff"
     bordercolor="#666666"
     borderopacity="1.0"
     inkscape:pageshadow="2"
     inkscape:pageopacity="0.0"
     inkscape:pagecheckerboard="0"
     showgrid="false"
     inkscape:zoom="1.6152344"
     inkscape:cx="255.69045"
     inkscape:cy="256"
     inkscape:window-width="1920"
     inkscape:window-height="1051"
     inkscape:window-x="0"
     inkscape:window-y="29"
     inkscape:window-maximized="1"
     inkscape:current-layer="svg752" />
  <path
     d="m192 81.945c-60.781 0-110.05 49.273-110.05 110.05s49.277 110.05 110.05 110.05c60.781 0 110.05-49.273 110.05-110.05s-49.273-110.05-110.05-110.05zm0 14.672c52.68 0 95.383 42.703 95.383 95.383 0 52.676-42.703 95.383-95.383 95.383-45.141 0-82.949-31.359-92.848-73.477l34.152-51.254h-32c12.723-39.344 49.348-66.008 90.695-66.035z"
     id="path734" />
  <path
     d="m192 23.25c93.203 0 168.75 75.547 168.75 168.75s-75.547 168.75-168.75 168.75-168.75-75.547-168.75-168.75 75.547-168.75 168.75-168.75z"
     fill="#0ba05d"
     id="path736" />
  <path
     d="m192 89.445c-60.781 0-110.05 49.273-110.05 110.05s49.277 110.05 110.05 110.05c60.781 0 110.05-49.273 110.05-110.05s-49.273-110.05-110.05-110.05zm0 14.672c52.68 0 95.383 35.203 95.383 87.883 0 52.676-42.703 95.383-95.383 95.383-43.83 0-80.746-29.563-91.915-69.834l33.219-47.397h-32c12.723-39.344 49.348-66.008 90.695-66.035z"
     opacity=".3"
     id="path738" />
  <path
     d="m192 81.945c-60.781 0-110.05 49.273-110.05 110.05s49.277 110.05 110.05 110.05c60.781 0 110.05-49.273 110.05-110.05s-49.273-110.05-110.05-110.05zm0 14.672c52.68 0 95.383 42.703 95.383 95.383 0 52.676-42.703 95.383-95.383 95.383-45.141 0-82.949-31.359-92.848-73.477l34.152-51.254h-32c12.723-39.344 49.348-66.008 90.695-66.035z"
     opacity=".3"
     id="path740" />
  <use
     mask="url(#c)"
     xlink:href="#a"
     id="use742" />
  <path
     d="m 192,81.945 c -60.781,0 -110.05,49.273 -110.05,110.05 h 14.676 c 0,-11.93344 2.191613,-23.35503 6.19429,-33.88425 C 116.48606,122.16239 151.26244,96.616 192.005,96.616 c 52.676,0 95.379,42.703 95.379,95.379 0,51.50617 -40.82736,93.47738 -91.88463,95.31618 -1.15963,0.0418 1.16983,0 0,0 l -3.49437,5.3494 v 4.25276 l 4.05817,5.06323 c 1.35861,0 -1.34669,0.0488 0,0 C 254.96397,299.84149 302.055,251.41847 302.055,192 c 0,-60.777 -49.273,-110.05 -110.05,-110.05 z"
     fill="#ffffff"
     id="path744"
     sodipodi:nodetypes="cccssssccccsscc" />
  <path
     d="m 86.047,162.65 c -2.6836,9.5547 -4.0625,19.426 -4.1016,29.348 0.02213,10.39481 1.515433,20.72019 4.428136,30.67028 0.686282,2.34441 6.585926,-3.03714 7.429128,-0.7384 v 0 l 33.043286,-49.58603 v 0 l -3.8472,-9.69285 h -17.32266 v 0 0 H 86.0471"
     fill="#ffffff"
     id="path746"
     sodipodi:nodetypes="ccsccccccccc" />
  <path
     transform="scale(.75)"
     d="m31.064 251c-0.036256 1.6627-0.064453 3.3286-0.064453 5 0 124.27 100.73 225 225 225s225-100.73 225-225c0-1.6714-0.0282-3.3373-0.06445-5-2.6594 121.96-102.34 220-224.94 220s-222.28-98.039-224.94-220z"
     opacity=".3"
     stroke-width="1.3333"
     id="path748" />
  <path
     transform="scale(.75)"
     d="m256 31c-124.27 0-225 100.73-225 225 0 1.6714 0.028197 3.3373 0.064453 5 2.6594-121.96 102.34-220 224.94-220s222.28 98.039 224.94 220c0.03625-1.6627 0.06445-3.3286 0.06445-5 0-124.27-100.73-225-225-225z"
     fill="#fff"
     opacity=".3"
     stroke-width="1.3333"
     id="path750" />
</svg>
