<?xml version="1.0" encoding="UTF-8" standalone="no"?>
<svg
   width="512"
   height="512"
   version="1.1"
   viewBox="0 0 384 384"
   id="svg448583"
   sodipodi:docname="imagemagick2.svg"
   inkscape:version="1.1.2 (0a00cf5339, 2022-02-04)"
   xmlns:inkscape="http://www.inkscape.org/namespaces/inkscape"
   xmlns:sodipodi="http://sodipodi.sourceforge.net/DTD/sodipodi-0.dtd"
   xmlns="http://www.w3.org/2000/svg"
   xmlns:svg="http://www.w3.org/2000/svg">
  <defs
     id="defs448587" />
  <sodipodi:namedview
     id="namedview448585"
     pagecolor="#ffffff"
     bordercolor="#666666"
     borderopacity="1.0"
     inkscape:pageshadow="2"
     inkscape:pageopacity="0.0"
     inkscape:pagecheckerboard="0"
     showgrid="false"
     inkscape:zoom="1.6152344"
     inkscape:cx="255.69045"
     inkscape:cy="256"
     inkscape:window-width="1920"
     inkscape:window-height="1051"
     inkscape:window-x="0"
     inkscape:window-y="29"
     inkscape:window-maximized="1"
     inkscape:current-layer="svg448583" />
  <g
     transform="translate(0,7.5e-4)"
     id="g448573">
    <path
       d="m39.785 47.799c-15.237 0-27.729 12.1-27.729 27.124v234.15c0 15.024 12.491 27.124 27.729 27.124h304.43c15.237 0 27.729-12.1 27.729-27.124v-234.15c0-15.024-12.491-27.124-27.729-27.124zm0 7.4208h304.43c11.395 0 20.342 8.7882 20.342 19.703v234.15c0 10.915-8.947 19.703-20.342 19.703h-304.43c-11.395 0-20.342-8.7882-20.342-19.703v-234.15c0-10.915 8.947-19.703 20.342-19.703z"
       color="#000000"
       color-rendering="auto"
       dominant-baseline="auto"
       image-rendering="auto"
       opacity=".2"
       shape-rendering="auto"
       solid-color="#000000"
       style="font-feature-settings:normal;font-variant-alternates:normal;font-variant-caps:normal;font-variant-ligatures:normal;font-variant-numeric:normal;font-variant-position:normal;isolation:auto;mix-blend-mode:normal;shape-padding:0;text-decoration-color:#000000;text-decoration-line:none;text-decoration-style:solid;text-indent:0;text-orientation:mixed;text-transform:none;white-space:normal"
       id="path448551" />
    <path
       d="m39.785 47.797c-13.316 0-24.035 10.719-24.035 24.031v240.34c0 13.312 10.719 24.031 24.035 24.031h304.43c13.316 0 24.035-10.719 24.035-24.031v-240.34c0-13.312-10.719-24.031-24.035-24.031z"
       fill="#fff"
       id="path448553" />
    <path
       d="m39.785 47.797c-13.316 0-24.035 10.719-24.035 24.031v8.0117c0-13.312 10.719-24.031 24.035-24.031h304.43c13.316 0 24.035 10.719 24.035 24.031v-8.0117c0-13.312-10.719-24.031-24.035-24.031z"
       fill="#fff"
       fill-opacity=".2"
       id="path448555" />
    <path
       d="m47.797 79.836h288.41v224.32h-288.41z"
       fill="#353a4a"
       id="path448557" />
    <path
       d="m117.79 79.84 9 224.32h30.434l91.637-91.637 16.02-16.023-16.02-16.023-100.64-100.64z"
       opacity=".3"
       id="path448559" />
    <path
       d="m47.797 79.84v224.32h94.523l112.16-112.16-112.16-112.16z"
       fill="#ffc72e"
       id="path448561" />
    <path
       d="m52.297 79.84 9 224.32h30.434l91.637-91.637 16.02-16.023-16.02-16.023-100.64-100.64z"
       opacity=".3"
       id="path448563" />
    <path
       d="m47.797 79.84v224.32h30.434l96.137-96.137 16.02-16.023-16.02-16.023-96.137-96.137z"
       fill="#21b8c2"
       id="path448565" />
    <path
       d="m336.2 193.61-110.55 110.55h110.55z"
       fill="#fd4747"
       fill-opacity=".99608"
       id="path448567" />
    <path
       transform="scale(.75)"
       d="m21 406.23v10c0 17.75 14.292 32.043 32.047 32.043h405.91c17.755 0 32.047-14.293 32.047-32.043v-10c0 17.75-14.292 32.043-32.047 32.043h-405.91c-17.755 0-32.047-14.293-32.047-32.043z"
       opacity=".3"
       stroke-width="1.3333"
       id="path448569" />
    <path
       transform="scale(.75)"
       d="m53.049 63.725c-17.755 0-32.047 14.291-32.047 32.041v10c0-17.75 14.292-32.041 32.047-32.041h405.91c17.755 0 32.047 14.291 32.047 32.041v-10c0-17.75-14.292-32.041-32.047-32.041z"
       opacity=".1"
       stroke-width="1.3333"
       id="path448571" />
  </g>
  <path
     d="m384 293.83c0-49.797-40.293-90.165-90-90.165s-90 40.368-90 90.165c0 49.797 40.293 90.165 90 90.165s90-40.368 90-90.165z"
     fill="#09162c"
     opacity=".3"
     stroke-width=".96204"
     id="path448575" />
  <path
     d="m384 286.33c0-49.797-40.293-90.165-90-90.165s-90 40.368-90 90.165 40.293 90.165 90 90.165 90-40.368 90-90.165z"
     fill="#2861bf"
     stroke-width=".96204"
     id="path448577" />
  <path
     d="m 307.23,249.98 c -1.9979,0.0173 -4.0362,0.15281 -6.0572,0.43534 l 0.003,-0.0202 c -8.4241,1.1705 -17.48,5.5815 -24.843,18.636 -16.839,29.833 -15.643,40.218 -18.327,43.574 -2.6956,3.3414 -9.9548,5.1548 -8.9053,8.9518 6.1062,18.613 35.677,16.476 43.462,15.54 30.744,-4.287 35.006,-11.27 34.729,-14.735 -0.27966,-3.4682 -6.7664,-5.9995 -6.7664,-5.9995 0,0 -4.8031,-18.221 -3.572,-25.699 1.2339,-7.4846 5.9188,-18.391 10.549,-20.738 1.8449,-0.94721 3.6041,-0.0866 5.20386,1.1256 2.40263,1.82057 -1.43352,1.5265 0,0 0.89555,-1.57888 6.1265,-1.27702 4.79133,-4.08919 -2.47301,-5.20872 -7.3028,-11.12527 -9.04519,-12.53511 -0.64868,-0.41803 -1.6692,-1.0235 -1.8538,-1.1128 -2.7763,-1.3608 -10.705,-3.4221 -19.365,-3.3356 z m -4.7137,19.789 3.278,8.8108 8.695,3.3414 -6.703,5.7545 -0.14703,9.3408 -7.1124,-4.8982 -9.5172,3.2982 2.6668,-9.0559 -4.9588,-8.3518 9.0212,-0.51318 z m -22.453,18.221 2.217,9.185 8.2278,4.509 -7.3257,4.7858 -1.2455,9.2404 -6.4608,-5.815 -9.8367,1.972 3.7046,-8.6086 -3.9266,-8.9688 9.0064,0.72652 z m 18.212,5.8381 5.5469,7.3488 9.2227,0.42669 -4.8031,7.6285 2.4275,8.9658 -8.1355,-2.3958 -8.1732,6.1812 0.0548,-9.4994 -7.049,-6.3858 8.4787,-3.3558 z"
     fill="#0b0b0b"
     opacity="0.3"
     stroke-width="0.73805"
     id="path448579"
     sodipodi:nodetypes="cccccccccccscsccccccccccccccccccccccccccccccccccccc" />
  <path
     d="m 307.23,242.48 c -1.9979,0.0173 -4.0362,0.15281 -6.0572,0.43534 l 0.003,-0.0202 c -8.4241,1.1705 -17.48,5.5815 -24.843,18.636 -16.839,29.833 -15.643,40.218 -18.327,43.574 -2.6956,3.3414 -9.9548,5.1548 -8.9053,8.9518 6.1062,18.613 35.677,16.476 43.462,15.54 30.744,-4.287 35.006,-11.27 34.729,-14.735 -0.27966,-3.4682 -6.7664,-5.9995 -6.7664,-5.9995 0,0 -4.8031,-18.221 -3.572,-25.699 1.2339,-7.4846 5.9188,-18.391 10.549,-20.738 2.61748,-1.34387 5.06246,0.95122 7.12434,2.72652 1.57406,1.35529 -1.03381,1.10087 0,0 0.7859,-1.38557 2.66719,-4.66592 1.6544,-7.07864 -2.27894,-5.42897 -5.97117,-9.64355 -7.82874,-11.14658 -0.64868,-0.41803 -1.6692,-1.0235 -1.8538,-1.1128 -2.7763,-1.3608 -10.705,-3.4221 -19.365,-3.3356 z m -4.7137,19.789 3.278,8.8108 8.695,3.3414 -6.703,5.7545 -0.14703,9.3408 -7.1124,-4.8982 -9.5172,3.2982 2.6668,-9.0559 -4.9588,-8.3518 9.0212,-0.51318 z m -22.453,18.221 2.217,9.185 8.2278,4.509 -7.3257,4.7858 -1.2455,9.2404 -6.4608,-5.815 -9.8367,1.972 3.7046,-8.6086 -3.9266,-8.9688 9.0064,0.72652 z m 18.212,5.8381 5.5469,7.3488 9.2227,0.42669 -4.8031,7.6285 2.4275,8.9658 -8.1355,-2.3958 -8.1732,6.1812 0.0548,-9.4994 -7.049,-6.3858 8.4787,-3.3558 z"
     fill="#ffffff"
     stroke-width="0.73805"
     id="path448581"
     sodipodi:nodetypes="cccccccccccscsccccccccccccccccccccccccccccccccccccc" />
</svg>
