<?xml version="1.0" encoding="UTF-8" standalone="no"?>
<svg
   width="512"
   height="512"
   version="1.1"
   id="svg434238"
   sodipodi:docname="insomnia.svg"
   inkscape:version="1.1.2 (0a00cf5339, 2022-02-04)"
   xmlns:inkscape="http://www.inkscape.org/namespaces/inkscape"
   xmlns:sodipodi="http://sodipodi.sourceforge.net/DTD/sodipodi-0.dtd"
   xmlns="http://www.w3.org/2000/svg"
   xmlns:svg="http://www.w3.org/2000/svg">
  <sodipodi:namedview
     id="namedview434240"
     pagecolor="#ffffff"
     bordercolor="#666666"
     borderopacity="1.0"
     inkscape:pageshadow="2"
     inkscape:pageopacity="0.0"
     inkscape:pagecheckerboard="0"
     showgrid="false"
     inkscape:zoom="1.6152344"
     inkscape:cx="255.69045"
     inkscape:cy="256"
     inkscape:window-width="1920"
     inkscape:window-height="1051"
     inkscape:window-x="0"
     inkscape:window-y="29"
     inkscape:window-maximized="1"
     inkscape:current-layer="g434234" />
  <defs
     id="defs434222">
    <linearGradient
       id="a"
       x1="159.47"
       x2="495.66"
       y1="156.03"
       y2="525.9"
       gradientTransform="matrix(1.1084 0 0 1.1084 -27.74 -27.74)"
       gradientUnits="userSpaceOnUse">
      <stop
         stop-color="#367bf0"
         offset="0"
         id="stop434217" />
      <stop
         stop-color="#b8174c"
         offset="1"
         id="stop434219" />
    </linearGradient>
  </defs>
  <g
     id="g434236">
    <path
       d="m256 31a225 225 0 0 0-225 225 225 225 0 0 0 225 225 225 225 0 0 0 225-225 225 225 0 0 0-225-225z"
       stroke-width="8.0357"
       id="path434224" />
    <path
       d="m246 71.781a177.33 174.22 0 0 0-52.078 7.8572 88.665 87.109 0 0 1 52.078 79.252 88.665 87.109 0 0 1-88.665 87.109 88.665 87.109 0 0 1-80.762-51.381 177.33 174.22 0 0 0-7.903 51.381 177.33 174.22 0 0 0 177.33 174.22 177.33 174.22 0 0 0 177.33-174.22 177.33 174.22 0 0 0-177.33-174.22z"
       fill="#fff"
       opacity=".1"
       stroke-width="7.9894"
       id="path434226" />
    <g
       stroke-width="8.828"
       id="g434234">
      <path
         d="m 256,63.495 c -14.56769,0.04674 -29.06907,1.689325 -43.237,4.887464 -4.81094,1.085976 4.72358,-1.443122 0,0 4.7889,2.131345 -4.96321,8.406515 -0.66783,11.197823 27.09874,17.609838 43.86854,47.580853 43.90483,80.166613 0,53.15851 -43.86311,96.252 -97.971,96.252 -35.05588,-0.0395 -67.129707,-18.44264 -84.523621,-47.76733 -1.71892,-2.89796 -6.656487,6.16461 -8.07739,3.06052 -1.254656,3.98936 0.98635,-4.05326 0,0 -3.560327,14.63065 -5.366209,29.63512 -5.370489,44.70681 0,106.31481 87.72533,192.5 195.94,192.5 108.21467,0 195.94,-86.18519 195.94,-192.5 0,-106.31481 -87.72533,-192.5 -195.94,-192.5 z"
         fill="url(#a)"
         id="path434228"
         sodipodi:nodetypes="cscsccscscsscc" />
      <path
         d="m60.312 251c-0.10669 1.6655-0.19133 3.3323-0.25391 5 3.82e-4 106.32 87.726 192.5 195.94 192.5 108.22-4.1e-4 195.94-86.187 195.94-192.5-0.0552-1.3816-0.12549-2.7625-0.21094-4.1426-3.221 103.94-89.883 186.58-195.73 186.65-106.16-0.10036-192.93-83.242-195.69-187.5z"
         opacity=".3"
         id="path434230" />
      <path
         d="m256 63.496c-19.515 0.06243-38.91 2.9886-57.545 8.6816 4.3358 1.9731 8.5188 4.2553 12.516 6.8281 14.742-3.5437 29.853-5.3927 45.029-5.5098 106.51 0.08882 193.44 83.746 195.73 188.36 0.10056-1.9513 0.17089-3.904 0.21094-5.8574-3.8e-4 -106.32-87.726-192.5-195.94-192.5z"
         fill="#fff"
         opacity=".1"
         id="path434232" />
    </g>
  </g>
</svg>
