<?xml version="1.0" encoding="UTF-8" standalone="no"?>
<svg
   width="32"
   height="32"
   version="1.1"
   id="svg1790055"
   sodipodi:docname="king-phisher-icon.svg"
   inkscape:version="1.1.2 (0a00cf5339, 2022-02-04)"
   xmlns:inkscape="http://www.inkscape.org/namespaces/inkscape"
   xmlns:sodipodi="http://sodipodi.sourceforge.net/DTD/sodipodi-0.dtd"
   xmlns="http://www.w3.org/2000/svg"
   xmlns:svg="http://www.w3.org/2000/svg">
  <defs
     id="defs1790059" />
  <sodipodi:namedview
     id="namedview1790057"
     pagecolor="#ffffff"
     bordercolor="#666666"
     borderopacity="1.0"
     inkscape:pageshadow="2"
     inkscape:pageopacity="0.0"
     inkscape:pagecheckerboard="0"
     showgrid="false"
     inkscape:zoom="25.84375"
     inkscape:cx="15.980653"
     inkscape:cy="16"
     inkscape:window-width="1920"
     inkscape:window-height="1051"
     inkscape:window-x="0"
     inkscape:window-y="29"
     inkscape:window-maximized="1"
     inkscape:current-layer="svg1790055" />
  <circle
     cx="16"
     cy="17"
     r="14"
     style="opacity:.2"
     id="circle1790029" />
  <circle
     cx="16"
     cy="16"
     r="14"
     style="fill:#e4e4e4"
     id="circle1790031" />
  <path
     d="M 11.919922,14.460938 A 5,5 0 0 0 9,19 a 5,5 0 0 0 5,5 5,5 0 0 0 5,-5 5,5 0 0 0 -0.119141,-1.060547 z"
     style="opacity:.1"
     id="path1790033" />
  <path
     d="M 16,2 A 14,14 0 0 0 2,16 14,14 0 0 0 2.0215,16.586 14,14 0 0 1 16,3 14,14 0 0 1 29.979,16.414 14,14 0 0 0 30,16 14,14 0 0 0 16,2 Z"
     style="fill:#ffffff;opacity:.2"
     id="path1790035" />
  <path
     d="m11.919922 13.460938a5 5 0 0 0-2.919922 4.539062 5 5 0 0 0 5 5 5 5 0 0 0 5-5 5 5 0 0 0-0.119141-1.060547l-6.960937-3.478515z"
     style="fill:#3f3f3f"
     id="path1790037" />
  <circle
     cx="14"
     cy="18"
     r="4"
     style="fill:#ffb73c"
     id="circle1790039" />
  <circle
     cx="14"
     cy="18"
     r="2"
     style="fill:#3f3f3f"
     id="circle1790041" />
  <path
     d="m6 10-4-4c19 3 28 16 28 16s-11-10-24-12z"
     style="opacity:.1"
     id="path1790043" />
  <path
     d="M 6,9 2,5 c 14.678973,2.3177325 23.389185,10.604225 26.591771,14.253419 0.94274,1.074208 0,0 0,0 0,0 0.812512,1.205021 -0.265494,0.348752 C 24.771968,16.778958 15.974711,10.534571 6,9 Z"
     style="fill:#4f4f4f"
     id="path1790045"
     sodipodi:nodetypes="ccscsc" />
  <path
     d="m10 15-3-4c13 5 16 10.2 16 10.2s-9-6.2-13-6.2z"
     style="opacity:.1"
     id="path1790047" />
  <path
     d="M 10,14 7,10 c 9.800945,3.769594 13.917954,7.652867 15.350685,9.335796 0.467647,0.549313 -0.08947,0.371542 -0.08947,0.371542 v 0 L 22.08478,19.589679 C 19.708115,18.004783 13.22343,14 10,14 Z"
     style="fill:#4f4f4f"
     id="path1790049"
     sodipodi:nodetypes="ccsccsc" />
  <circle
     cx="11.5"
     cy="16.5"
     r="1.5"
     style="fill:#ffffff"
     id="circle1790051" />
  <path
     d="m13 20.5a0.5 0.5 0 0 1-0.5 0.5 0.5 0.5 0 0 1-0.5-0.5 0.5 0.5 0 0 1 0.5-0.5 0.5 0.5 0 0 1 0.5 0.5z"
     style="fill:#ffffff"
     id="path1790053" />
</svg>
