<?xml version="1.0" encoding="UTF-8" standalone="no"?>
<svg
   width="512"
   height="512"
   version="1.1"
   viewBox="0 0 384 384"
   id="svg668225"
   sodipodi:docname="laptopdisconnected.svg"
   inkscape:version="1.1.2 (0a00cf5339, 2022-02-04)"
   xmlns:inkscape="http://www.inkscape.org/namespaces/inkscape"
   xmlns:sodipodi="http://sodipodi.sourceforge.net/DTD/sodipodi-0.dtd"
   xmlns="http://www.w3.org/2000/svg"
   xmlns:svg="http://www.w3.org/2000/svg">
  <sodipodi:namedview
     id="namedview668227"
     pagecolor="#ffffff"
     bordercolor="#666666"
     borderopacity="1.0"
     inkscape:pageshadow="2"
     inkscape:pageopacity="0.0"
     inkscape:pagecheckerboard="0"
     showgrid="false"
     inkscape:zoom="1.6152344"
     inkscape:cx="255.69045"
     inkscape:cy="256"
     inkscape:window-width="1920"
     inkscape:window-height="1051"
     inkscape:window-x="0"
     inkscape:window-y="29"
     inkscape:window-maximized="1"
     inkscape:current-layer="svg668225" />
  <defs
     id="defs668201">
    <clipPath
       id="clipPath668164">
      <rect
         width="36"
         height="36"
         id="rect668162" />
    </clipPath>
    <clipPath
       id="clipPath668168">
      <rect
         width="384"
         height="384"
         id="rect668166" />
    </clipPath>
    <clipPath
       id="clipPath668172">
      <rect
         width="384"
         height="384"
         id="rect668170" />
    </clipPath>
    <clipPath
       id="clipPath668176">
      <rect
         width="384"
         height="384"
         id="rect668174" />
    </clipPath>
    <clipPath
       id="clipPath668180">
      <rect
         width="384"
         height="384"
         id="rect668178" />
    </clipPath>
    <linearGradient
       id="e"
       x1="24.161"
       x2="470.92"
       y1="255.65"
       y2="-4.7024"
       gradientTransform="matrix(.83186 0 0 .83186 32.26 47.328)"
       gradientUnits="userSpaceOnUse">
      <stop
         stop-color="#367bf0"
         offset="0"
         id="stop668182" />
      <stop
         stop-color="#b7164b"
         stop-opacity=".99608"
         offset="1"
         id="stop668184" />
    </linearGradient>
    <clipPath
       id="c">
      <path
         d="m111 119h177v23h-177z"
         id="path668187" />
    </clipPath>
    <clipPath
       id="b">
      <path
         d="m177 130h45v89h-45z"
         id="path668190" />
    </clipPath>
    <clipPath
       id="a">
      <path
         d="m111 207h177v89h-177z"
         id="path668193" />
    </clipPath>
    <clipPath
       id="d">
      <rect
         width="384"
         height="384"
         id="rect668196" />
    </clipPath>
    <g
       clip-path="url(#d)"
       id="g668199" />
  </defs>
  <g
     transform="translate(.00065644 -.75108)"
     id="g668215">
    <rect
       x="47.428"
       y="94.902"
       width="289.14"
       height="187.8"
       rx="6.6506"
       ry="6.2107"
       fill="#272a34"
       style="paint-order:normal"
       id="rect668203" />
    <rect
       x="47.43"
       y="263.28"
       width="289.14"
       height="20.687"
       rx="0"
       ry="0"
       style="paint-order:normal"
       id="rect668205" />
    <path
       d="m19.879 272.02v7.9187h0.09028c-0.02576 0.21425-0.05164 0.4285-0.05164 0.64854v0.90913c0 4.731 0.0088 4.8757 7.0749 4.8757h330.05c7.0663 0 7.0706-0.28663 7.0706-5.0176 0 0 9e-3 -0.51247 0-0.76726-9e-3 -0.21714-0.0258-0.43429-0.0473-0.64854l9e-3 -2.7477v-5.171z"
       fill="#fff"
       fill-rule="evenodd"
       opacity=".2"
       stroke="#000"
       stroke-width="8.2576"
       id="path668207" />
    <path
       d="m19.879 272.02v7.9187h0.09032c-0.02581 0.21425-0.05161 0.4285-0.05161 0.64854v0.90913c0 4.731 0.0086 4.8757 7.0749 4.8757h330.05c7.0663 0 7.0706-0.28663 7.0706-5.0176 0 0 9e-3 -0.51247 0-0.76726-9e-3 -0.21714-0.0258-0.43429-0.0473-0.64854l9e-3 -2.7477v-5.171z"
       fill="#fff"
       fill-rule="evenodd"
       stroke-width=".90337"
       id="path668209" />
    <rect
       x="149.91"
       y="271.95"
       width="83.759"
       height="5.9145"
       rx="0"
       ry="0"
       opacity=".2"
       style="paint-order:normal"
       id="rect668211" />
    <rect
       x="52.359"
       y="100.57"
       width="279.28"
       height="159.42"
       rx="3.124"
       ry="3.124"
       fill="url(#e)"
       stroke-width=".83186"
       id="rect668213" />
  </g>
  <path
     d="m384 294c0 49.706-40.294 90-90 90s-90-40.294-90-90c0-49.706 40.294-90 90-90s90 40.294 90 90z"
     fill-rule="evenodd"
     opacity=".3"
     stroke-width=".9375"
     id="path668217" />
  <path
     d="m384 286.5c0 49.706-40.294 90-90 90s-90-40.294-90-90c0-49.706 40.294-90 90-90s90 40.294 90 90z"
     fill="#d41717"
     fill-rule="evenodd"
     stroke-width=".9375"
     id="path668219" />
  <path
     d="m264.75 253.07-11.675 11.675 29.253 29.254-29.253 29.253 11.675 11.676 29.254-29.254 29.253 29.254 11.676-11.676-29.254-29.253 29.254-29.254-11.676-11.675-29.253 29.253z"
     opacity=".3"
     stroke-width="11.029"
     id="path668221" />
  <path
     d="m 267.46865,248.28856 -5.66929,0.23208 -6.27072,6.27072 v 0 l 0.98203,5.88943 25.81733,25.81821 -26.26512,26.26512 v 0 l -0.21308,5.76292 5.87069,5.87119 6.30504,-0.24576 v 0 L 294.004,298.174 l 25.98876,25.98965 6.13381,0.39478 v 0 l 6.05556,-6.05556 -0.70524,-6.20687 v 0 l -25.79789,-25.797 26.82183,-26.82183 -0.86117,-0.43826 0.62506,-4.66197 -5.95612,-5.9556 v 0 L 320.75429,248.07271 294.004,274.823 Z"
     fill="#ffffff"
     stroke-width="11.029"
     id="path668223"
     sodipodi:nodetypes="cccccccccccccccccccccccccccc" />
</svg>
