<?xml version="1.0" encoding="UTF-8" standalone="no"?>
<svg
   width="512"
   height="512"
   version="1.1"
   viewBox="0 0 384 384"
   id="svg229722"
   sodipodi:docname="mcomix.svg"
   inkscape:version="1.1.2 (0a00cf5339, 2022-02-04)"
   xmlns:inkscape="http://www.inkscape.org/namespaces/inkscape"
   xmlns:sodipodi="http://sodipodi.sourceforge.net/DTD/sodipodi-0.dtd"
   xmlns="http://www.w3.org/2000/svg"
   xmlns:svg="http://www.w3.org/2000/svg">
  <sodipodi:namedview
     id="namedview229724"
     pagecolor="#ffffff"
     bordercolor="#666666"
     borderopacity="1.0"
     inkscape:pageshadow="2"
     inkscape:pageopacity="0.0"
     inkscape:pagecheckerboard="0"
     showgrid="false"
     inkscape:zoom="1.6152344"
     inkscape:cx="255.69045"
     inkscape:cy="256"
     inkscape:window-width="1920"
     inkscape:window-height="1051"
     inkscape:window-x="0"
     inkscape:window-y="29"
     inkscape:window-maximized="1"
     inkscape:current-layer="svg229722" />
  <defs
     id="defs229676">
    <clipPath
       id="clipPath229354">
      <rect
         width="384"
         height="384"
         id="rect229352" />
    </clipPath>
    <clipPath
       id="clipPath229358">
      <rect
         width="384"
         height="384"
         id="rect229356" />
    </clipPath>
    <clipPath
       id="clipPath229362">
      <rect
         width="384"
         height="384"
         id="rect229360" />
    </clipPath>
    <clipPath
       id="clipPath229366">
      <rect
         width="384"
         height="384"
         id="rect229364" />
    </clipPath>
    <clipPath
       id="clipPath229370">
      <rect
         width="384"
         height="384"
         id="rect229368" />
    </clipPath>
    <clipPath
       id="clipPath229374">
      <rect
         width="384"
         height="384"
         id="rect229372" />
    </clipPath>
    <clipPath
       id="clipPath229378">
      <rect
         width="384"
         height="384"
         id="rect229376" />
    </clipPath>
    <clipPath
       id="clipPath229382">
      <rect
         width="384"
         height="384"
         id="rect229380" />
    </clipPath>
    <clipPath
       id="clipPath229386">
      <rect
         width="384"
         height="384"
         id="rect229384" />
    </clipPath>
    <clipPath
       id="clipPath229390">
      <rect
         width="384"
         height="384"
         id="rect229388" />
    </clipPath>
    <clipPath
       id="clipPath229394">
      <rect
         width="384"
         height="384"
         id="rect229392" />
    </clipPath>
    <clipPath
       id="clipPath229398">
      <rect
         width="384"
         height="384"
         id="rect229396" />
    </clipPath>
    <clipPath
       id="clipPath229402">
      <rect
         width="384"
         height="384"
         id="rect229400" />
    </clipPath>
    <clipPath
       id="clipPath229406">
      <rect
         width="384"
         height="384"
         id="rect229404" />
    </clipPath>
    <clipPath
       id="clipPath229410">
      <rect
         width="384"
         height="384"
         id="rect229408" />
    </clipPath>
    <clipPath
       id="clipPath229414">
      <rect
         width="384"
         height="384"
         id="rect229412" />
    </clipPath>
    <clipPath
       id="clipPath229418">
      <rect
         width="384"
         height="384"
         id="rect229416" />
    </clipPath>
    <clipPath
       id="clipPath229422">
      <rect
         width="384"
         height="384"
         id="rect229420" />
    </clipPath>
    <clipPath
       id="clipPath229426">
      <rect
         width="384"
         height="384"
         id="rect229424" />
    </clipPath>
    <clipPath
       id="clipPath229430">
      <rect
         width="384"
         height="384"
         id="rect229428" />
    </clipPath>
    <clipPath
       id="clipPath229434">
      <rect
         width="384"
         height="384"
         id="rect229432" />
    </clipPath>
    <clipPath
       id="clipPath229438">
      <rect
         width="384"
         height="384"
         id="rect229436" />
    </clipPath>
    <clipPath
       id="clipPath229442">
      <rect
         width="384"
         height="384"
         id="rect229440" />
    </clipPath>
    <clipPath
       id="clipPath229446">
      <rect
         width="384"
         height="384"
         id="rect229444" />
    </clipPath>
    <clipPath
       id="clipPath229450">
      <rect
         width="384"
         height="384"
         id="rect229448" />
    </clipPath>
    <clipPath
       id="clipPath229454">
      <rect
         width="384"
         height="384"
         id="rect229452" />
    </clipPath>
    <clipPath
       id="clipPath229458">
      <rect
         width="384"
         height="384"
         id="rect229456" />
    </clipPath>
    <clipPath
       id="clipPath229462">
      <rect
         width="384"
         height="384"
         id="rect229460" />
    </clipPath>
    <clipPath
       id="clipPath229466">
      <rect
         width="384"
         height="384"
         id="rect229464" />
    </clipPath>
    <clipPath
       id="clipPath229470">
      <rect
         width="384"
         height="384"
         id="rect229468" />
    </clipPath>
    <clipPath
       id="clipPath229474">
      <rect
         width="384"
         height="384"
         id="rect229472" />
    </clipPath>
    <clipPath
       id="clipPath229478">
      <rect
         width="384"
         height="384"
         id="rect229476" />
    </clipPath>
    <clipPath
       id="clipPath229482">
      <rect
         width="384"
         height="384"
         id="rect229480" />
    </clipPath>
    <clipPath
       id="clipPath229486">
      <rect
         width="384"
         height="384"
         id="rect229484" />
    </clipPath>
    <clipPath
       id="clipPath229490">
      <rect
         width="384"
         height="384"
         id="rect229488" />
    </clipPath>
    <clipPath
       id="clipPath229494">
      <rect
         width="384"
         height="384"
         id="rect229492" />
    </clipPath>
    <clipPath
       id="clipPath229498">
      <rect
         width="384"
         height="384"
         id="rect229496" />
    </clipPath>
    <clipPath
       id="clipPath229502">
      <rect
         width="384"
         height="384"
         id="rect229500" />
    </clipPath>
    <clipPath
       id="clipPath229506">
      <rect
         width="384"
         height="384"
         id="rect229504" />
    </clipPath>
    <clipPath
       id="clipPath229510">
      <rect
         width="384"
         height="384"
         id="rect229508" />
    </clipPath>
    <clipPath
       id="clipPath229514">
      <rect
         width="384"
         height="384"
         id="rect229512" />
    </clipPath>
    <clipPath
       id="clipPath229518">
      <rect
         width="384"
         height="384"
         id="rect229516" />
    </clipPath>
    <clipPath
       id="clipPath229522">
      <rect
         width="384"
         height="384"
         id="rect229520" />
    </clipPath>
    <clipPath
       id="clipPath229526">
      <rect
         width="384"
         height="384"
         id="rect229524" />
    </clipPath>
    <clipPath
       id="clipPath229530">
      <rect
         width="384"
         height="384"
         id="rect229528" />
    </clipPath>
    <clipPath
       id="clipPath229534">
      <rect
         width="384"
         height="384"
         id="rect229532" />
    </clipPath>
    <clipPath
       id="clipPath229538">
      <rect
         width="384"
         height="384"
         id="rect229536" />
    </clipPath>
    <clipPath
       id="clipPath229542">
      <rect
         width="384"
         height="384"
         id="rect229540" />
    </clipPath>
    <clipPath
       id="clipPath229546">
      <rect
         width="384"
         height="384"
         id="rect229544" />
    </clipPath>
    <clipPath
       id="clipPath229550">
      <rect
         width="384"
         height="384"
         id="rect229548" />
    </clipPath>
    <clipPath
       id="clipPath229554">
      <rect
         width="384"
         height="384"
         id="rect229552" />
    </clipPath>
    <clipPath
       id="clipPath229558">
      <rect
         width="384"
         height="384"
         id="rect229556" />
    </clipPath>
    <clipPath
       id="clipPath229562">
      <rect
         width="384"
         height="384"
         id="rect229560" />
    </clipPath>
    <clipPath
       id="clipPath229566">
      <rect
         width="384"
         height="384"
         id="rect229564" />
    </clipPath>
    <clipPath
       id="clipPath229570">
      <rect
         width="384"
         height="384"
         id="rect229568" />
    </clipPath>
    <clipPath
       id="clipPath229574">
      <rect
         width="384"
         height="384"
         id="rect229572" />
    </clipPath>
    <clipPath
       id="clipPath229578">
      <rect
         width="384"
         height="384"
         id="rect229576" />
    </clipPath>
    <clipPath
       id="clipPath229582">
      <rect
         width="384"
         height="384"
         id="rect229580" />
    </clipPath>
    <clipPath
       id="clipPath229586">
      <rect
         width="384"
         height="384"
         id="rect229584" />
    </clipPath>
    <clipPath
       id="clipPath229590">
      <rect
         width="384"
         height="384"
         id="rect229588" />
    </clipPath>
    <clipPath
       id="clipPath229594">
      <rect
         width="384"
         height="384"
         id="rect229592" />
    </clipPath>
    <clipPath
       id="clipPath229598">
      <rect
         width="384"
         height="384"
         id="rect229596" />
    </clipPath>
    <clipPath
       id="c">
      <path
         d="m111 119h177v23h-177z"
         id="path229600" />
    </clipPath>
    <clipPath
       id="clipPath229605">
      <path
         d="m368.64 199.88c0-93.234-75.602-168.75-168.75-168.75-93.152 0-168.75 75.516-168.75 168.75s75.598 168.75 168.75 168.75c93.148 0 168.75-75.516 168.75-168.75z"
         id="path229603" />
    </clipPath>
    <clipPath
       id="b">
      <path
         d="m177 130h45v89h-45z"
         id="path229607" />
    </clipPath>
    <clipPath
       id="clipPath229612">
      <path
         d="m368.64 199.88c0-93.234-75.602-168.75-168.75-168.75-93.152 0-168.75 75.516-168.75 168.75s75.598 168.75 168.75 168.75c93.148 0 168.75-75.516 168.75-168.75z"
         id="path229610" />
    </clipPath>
    <clipPath
       id="a">
      <path
         d="m111 207h177v89h-177z"
         id="path229614" />
    </clipPath>
    <clipPath
       id="clipPath229619">
      <path
         d="m368.64 199.88c0-93.234-75.602-168.75-168.75-168.75-93.152 0-168.75 75.516-168.75 168.75s75.598 168.75 168.75 168.75c93.148 0 168.75-75.516 168.75-168.75z"
         id="path229617" />
    </clipPath>
    <clipPath
       id="d">
      <rect
         width="384"
         height="384"
         id="rect229621" />
    </clipPath>
    <g
       clip-path="url(#d)"
       id="g229630">
      <g
         clip-path="url(#c)"
         id="g229624" />
      <g
         clip-path="url(#b)"
         id="g229626" />
      <g
         clip-path="url(#a)"
         id="g229628" />
    </g>
    <clipPath
       id="clipPath229634">
      <rect
         width="384"
         height="384"
         id="rect229632" />
    </clipPath>
    <clipPath
       id="clipPath229638">
      <rect
         width="384"
         height="384"
         id="rect229636" />
    </clipPath>
    <clipPath
       id="clipPath229642">
      <rect
         width="384"
         height="384"
         id="rect229640" />
    </clipPath>
    <clipPath
       id="clipPath229646">
      <rect
         width="384"
         height="384"
         id="rect229644" />
    </clipPath>
    <clipPath
       id="clipPath229650">
      <rect
         width="384"
         height="384"
         id="rect229648" />
    </clipPath>
    <clipPath
       id="clipPath229654">
      <rect
         width="384"
         height="384"
         id="rect229652" />
    </clipPath>
    <clipPath
       id="clipPath229658">
      <rect
         width="384"
         height="384"
         id="rect229656" />
    </clipPath>
    <clipPath
       id="clipPath229662">
      <rect
         width="384"
         height="384"
         id="rect229660" />
    </clipPath>
    <clipPath
       id="clipPath229666">
      <rect
         width="384"
         height="384"
         id="rect229664" />
    </clipPath>
    <clipPath
       id="clipPath229670">
      <rect
         width="384"
         height="384"
         id="rect229668" />
    </clipPath>
    <clipPath
       id="clipPath229674">
      <rect
         width="384"
         height="384"
         id="rect229672" />
    </clipPath>
  </defs>
  <path
     d="m87.352 101.12c-39.544 0-71.602 32.057-71.602 71.602 0 39.544 32.057 71.602 71.602 71.602 39.544 0 71.602-32.057 71.602-71.602 0-39.544-32.057-71.602-71.602-71.602z"
     fill="#7f5430"
     stroke-width=".91797"
     id="path229678" />
  <path
     transform="scale(.75)"
     d="m21.131 225.3c-0.08547 1.6562-0.13086 3.3226-0.13086 5 0 52.726 42.743 95.469 95.469 95.469 52.726 0 95.469-42.743 95.469-95.469 0-1.6774-0.04539-3.3438-0.13086-5-2.601 50.401-44.29 90.469-95.338 90.469-51.048 0-92.737-40.067-95.338-90.469z"
     fill="#070300"
     opacity=".3"
     stroke-width="1.224"
     id="path229680" />
  <path
     d="m87.352 141.67c-21.293 0-38.555 17.262-38.555 38.555s17.262 38.555 38.555 38.555c21.293 0 38.555-17.262 38.555-38.555s-17.262-38.555-38.555-38.555z"
     opacity=".3"
     stroke-width=".91797"
     id="path229682" />
  <path
     d="m87.352 134.17c-21.293 0-38.555 17.262-38.555 38.555s17.262 38.555 38.555 38.555c21.293 0 38.555-17.262 38.555-38.555s-17.262-38.555-38.555-38.555z"
     fill="#a1683a"
     stroke-width=".91797"
     id="path229684" />
  <path
     transform="scale(.75)"
     d="m116.47 134.83c-52.726 0-95.469 42.743-95.469 95.469 0 1.6774 0.045389 3.3438 0.13086 5 2.6011-50.401 44.29-90.469 95.338-90.469 51.048 1e-5 92.737 40.067 95.338 90.469 0.08547-1.6562 0.13086-3.3226 0.13086-5 0-52.726-42.743-95.469-95.469-95.469z"
     fill="#fff"
     opacity=".1"
     stroke-width="1.224"
     id="path229686" />
  <path
     d="m296.65 101.12c-39.544 0-71.602 32.057-71.602 71.602 0 39.544 32.057 71.602 71.602 71.602 39.544 0 71.602-32.057 71.602-71.602 0-39.544-32.057-71.602-71.602-71.602z"
     fill="#7f5430"
     stroke-width=".91797"
     id="path229688" />
  <path
     transform="scale(.75)"
     d="m300.19 225.3c-0.08547 1.6562-0.13086 3.3226-0.13086 5 0 52.726 42.743 95.469 95.469 95.469 52.726 0 95.469-42.743 95.469-95.469 0-1.6774-0.04539-3.3438-0.13086-5-2.601 50.401-44.29 90.469-95.338 90.469-51.048 1e-5 -92.737-40.067-95.338-90.469z"
     opacity=".3"
     stroke-width="1.224"
     id="path229690" />
  <path
     d="m296.65 141.67c-21.293 0-38.555 17.262-38.555 38.555s17.262 38.555 38.555 38.555 38.555-17.262 38.555-38.555-17.262-38.555-38.555-38.555z"
     opacity=".3"
     stroke-width=".91797"
     id="path229692" />
  <path
     d="m296.65 134.17c-21.293 0-38.555 17.262-38.555 38.555s17.262 38.555 38.555 38.555 38.555-17.262 38.555-38.555-17.262-38.555-38.555-38.555z"
     fill="#a1683a"
     stroke-width=".91797"
     id="path229694" />
  <path
     transform="scale(.75)"
     d="m395.53 134.83c-52.726 0-95.469 42.743-95.469 95.469 0 1.6774 0.04539 3.3438 0.13086 5 2.601-50.401 44.289-90.469 95.338-90.469 51.048 1e-5 92.737 40.067 95.338 90.469 0.08547-1.6562 0.13086-3.3226 0.13086-5 0-52.726-42.743-95.469-95.469-95.469z"
     fill="#fff"
     opacity=".1"
     stroke-width="1.224"
     id="path229696" />
  <path
     d="m192 68.074c3.1053 0.01076 6.207 0.13985 9.298 0.39085-3.091-0.25101-6.1927-0.3801-9.298-0.39085zm0 0c-44.518 0.046615-85.421 24.502-106.54 63.691 21.12-39.189 62.024-63.645 106.54-63.691zm15.118 1.1008c2.1228 0.22949 4.242 0.51994 6.3505 0.8606-2.1085-0.34065-4.2277-0.6311-6.3505-0.8606zm11.249 1.9614c2.3523 0.48767 4.6867 1.0435 7.0031 1.671-2.3164-0.62752-4.6508-1.1833-7.0031-1.671zm11.263 3.091c2.4348 0.76378 4.8444 1.6029 7.2254 2.5208-2.381-0.91797-4.7906-1.757-7.2254-2.5208zm10.732 4.0807c2.6069 1.1008 5.1743 2.2949 7.6988 3.5751-2.5244-1.2801-5.0919-2.4742-7.6988-3.5751zm9.9542 4.8695c2.7934 1.5096 5.5222 3.1232 8.1864 4.8444-2.6643-1.7212-5.3931-3.3348-8.1864-4.8444zm10.248 6.3218c2.6678 1.8073 5.264 3.7221 7.7812 5.7337-2.5172-2.0116-5.1134-3.9265-7.7812-5.7337zm9.1725 6.9601c2.6428 2.1873 5.1958 4.4859 7.6414 6.8919-2.4455-2.4061-4.9986-4.7046-7.6414-6.8919zm8.7279 8.0609c2.485 2.5137 4.8588 5.1313 7.1143 7.8529-2.2555-2.7216-4.6293-5.3393-7.1143-7.8529zm-147.05 6.3218c-17.825-4e-3 -34.747 7.8422-46.261 21.45-0.0036 7e-3 -0.01076 0.0107-0.01435 0.0143-9.3661 17.52-14.279 37.074-14.311 56.939 0 66.922 54.25 121.17 121.17 121.17s121.17-54.25 121.17-121.17c-0.0251-19.736-4.8695-39.168-14.117-56.606-4e-3 -7e-3 -7e-3 -0.0179-0.0143-0.0251-11.496-13.78-28.507-21.755-46.454-21.773-33.459 0-60.586 27.123-60.586 60.586 0.0251 1.1869 0.086 2.3774 0.17929 3.5643h-0.30479c0.0753-1.1869 0.11833-2.3774 0.1255-3.5643 0-33.463-27.127-60.586-60.586-60.586zm167.63 21.773c-1.8539-3.5105-3.8798-6.9242-6.0672-10.234 2.1874 3.3097 4.2133 6.7234 6.0672 10.234zm-12.834-19.421c2.3559 2.8973 4.5755 5.9023 6.6553 9.0076-2.0798-3.1053-4.2994-6.1102-6.6553-9.0076z"
     fill="#fda34a"
     stroke-width=".91797"
     id="path229698" />
  <g
     stroke-width=".91797"
     id="g229706">
    <path
       d="m169.97 196.75c0 12.167-9.8646 22.031-22.031 22.031-12.167 0-22.031-9.8646-22.031-22.031 0-12.167 9.8646-22.031 22.031-22.031 12.167 0 22.031 9.8646 22.031 22.031z"
       fill="#020100"
       opacity=".3"
       id="path229700" />
    <path
       d="m 192,75.574 c -44.747,0.03586 -90.334,24.731 -111.36,64.233 11.514,-13.615 32.943,-21.468 50.775,-21.465 26.38388,0 48.83051,16.8651 57.14376,40.40505 2.22929,6.3125 3.05103,-7.02633 3.05103,0.0496 0,-7.18283 1.64108,6.05776 3.93514,-0.3353 8.39343,-23.39061 30.76504,-40.11939 57.04207,-40.11939 17.954,0.0215 39.476,8.0071 50.969,21.798 -20.97,-39.691 -66.664,-64.534 -111.55,-64.566 z m -0.39021,83.22269 c 3.54493,-20.46261 4.01044,-1.5186 3.93514,-0.3353 l -3.93514,0.3353 c -0.0968,-1.1833 -0.39021,-20.12731 0,0 z"
       fill="#060300"
       opacity="0.3"
       id="path229702"
       sodipodi:nodetypes="sccscsccsscccc" />
    <path
       d="m258.09 196.75c0 12.167-9.8646 22.031-22.031 22.031-12.167 0-22.031-9.8646-22.031-22.031 0-12.167 9.8646-22.031 22.031-22.031 12.167 0 22.031 9.8646 22.031 22.031z"
       fill="#020100"
       opacity=".3"
       id="path229704" />
  </g>
  <path
     d="m 192,68.074 c -44.747,0.03586 -85.834,24.731 -106.86,64.233 11.514,-13.615 28.443,-21.468 46.275,-21.465 25.51298,0 47.34435,15.77009 56.2747,38.09616 2.78136,6.95346 3.92009,1.91156 3.92009,9.85853 0,-7.58959 1.78664,-2.22173 4.33489,-8.91658 8.68714,-22.82317 30.772,-39.03811 56.64232,-39.03811 17.954,0.0215 34.976,8.0071 46.469,21.798 -20.97,-39.691 -62.164,-64.534 -107.05,-64.566 z m 3.94468,81.80611 c -0.007,1.1869 3.67043,-16.52331 -0.39975,8.58128 l 0.39975,-8.58128 c 3.76179,-25.10458 0.0251,1.1869 0,0 z"
     fill="#a1683a"
     stroke-width="0.91797"
     id="path229708"
     sodipodi:nodetypes="sccscsccsscccc" />
  <path
     d="m137.05 251.72a11.017 11.017 0 0 0-7.3008 19.479s27.363 24.684 62.246 24.684c34.883 0 62.246-24.684 62.246-24.684a11.017 11.017 0 1 0-14.336-16.727s-24.043 19.379-47.91 19.379c-23.867 0-47.91-19.379-47.91-19.379a11.017 11.017 0 0 0-7.0352-2.752z"
     color="#000000"
     color-rendering="auto"
     dominant-baseline="auto"
     fill="#020100"
     image-rendering="auto"
     opacity=".3"
     shape-rendering="auto"
     solid-color="#000000"
     style="font-feature-settings:normal;font-variant-alternates:normal;font-variant-caps:normal;font-variant-ligatures:normal;font-variant-numeric:normal;font-variant-position:normal;isolation:auto;mix-blend-mode:normal;shape-padding:0;text-decoration-color:#000000;text-decoration-line:none;text-decoration-style:solid;text-indent:0;text-orientation:mixed;text-transform:none;white-space:normal"
     id="path229710" />
  <g
     fill="#493525"
     id="g229718">
    <path
       d="m169.97 189.25c0 12.167-9.8646 22.031-22.031 22.031s-22.031-9.8646-22.031-22.031c0-12.167 9.8646-22.031 22.031-22.031s22.031 9.8646 22.031 22.031z"
       stroke-width=".91797"
       id="path229712" />
    <path
       d="m258.09 189.25c0 12.167-9.8646 22.031-22.031 22.031s-22.031-9.8646-22.031-22.031c0-12.167 9.8646-22.031 22.031-22.031s22.031 9.8646 22.031 22.031z"
       stroke-width=".91797"
       id="path229714" />
    <path
       d="m137.05 244.22a11.017 11.017 0 0 0-7.3008 19.479s27.363 24.684 62.246 24.684 62.246-24.684 62.246-24.684a11.017 11.017 0 1 0-14.336-16.727s-24.043 19.379-47.91 19.379-47.91-19.379-47.91-19.379a11.017 11.017 0 0 0-7.0352-2.752z"
       color="#000000"
       color-rendering="auto"
       dominant-baseline="auto"
       image-rendering="auto"
       shape-rendering="auto"
       solid-color="#000000"
       style="font-feature-settings:normal;font-variant-alternates:normal;font-variant-caps:normal;font-variant-ligatures:normal;font-variant-numeric:normal;font-variant-position:normal;isolation:auto;mix-blend-mode:normal;shape-padding:0;text-decoration-color:#000000;text-decoration-line:none;text-decoration-style:solid;text-indent:0;text-orientation:mixed;text-transform:none;white-space:normal"
       id="path229716" />
  </g>
  <path
     transform="scale(.75)"
     d="m256 90.766c-59.663 0.047813-114.44 32.976-142.48 85.645 4.7316-5.5952 10.151-10.458 16.078-14.512 30.285-38.165 76.638-61.093 126.4-61.133 49.871 0.03586 96.306 23.051 126.59 61.336 5.9682 4.121 11.415 9.065 16.154 14.752-27.96-52.922-82.886-86.045-142.74-86.088zm0.20898 142.02c-0.01245 0.17607-0.02188 0.35292-0.0332 0.5293h0.06836c-0.0144-0.1761-0.02194-0.35298-0.03516-0.5293z"
     fill="#fff"
     opacity=".1"
     stroke-width="1.224"
     id="path229720" />
</svg>
