<?xml version="1.0" encoding="UTF-8" standalone="no"?>
<svg
   width="512"
   height="512"
   version="1.1"
   viewBox="0 0 384 384"
   id="svg2575911"
   sodipodi:docname="mkv-gui.svg"
   inkscape:version="1.1.2 (0a00cf5339, 2022-02-04)"
   xmlns:inkscape="http://www.inkscape.org/namespaces/inkscape"
   xmlns:sodipodi="http://sodipodi.sourceforge.net/DTD/sodipodi-0.dtd"
   xmlns:xlink="http://www.w3.org/1999/xlink"
   xmlns="http://www.w3.org/2000/svg"
   xmlns:svg="http://www.w3.org/2000/svg">
  <sodipodi:namedview
     id="namedview2575913"
     pagecolor="#ffffff"
     bordercolor="#666666"
     borderopacity="1.0"
     inkscape:pageshadow="2"
     inkscape:pageopacity="0.0"
     inkscape:pagecheckerboard="0"
     showgrid="false"
     inkscape:zoom="1.6152344"
     inkscape:cx="255.69045"
     inkscape:cy="256"
     inkscape:window-width="1920"
     inkscape:window-height="1051"
     inkscape:window-x="0"
     inkscape:window-y="29"
     inkscape:window-maximized="1"
     inkscape:current-layer="svg2575911" />
  <defs
     id="defs2575889">
    <filter
       id="alpha"
       x="0"
       y="0"
       width="1"
       height="1">
      <feColorMatrix
         in="SourceGraphic"
         values="0 0 0 0 1 0 0 0 0 1 0 0 0 0 1 0 0 0 1 0"
         id="feColorMatrix2575871" />
    </filter>
    <clipPath
       id="clipPath2575876">
      <rect
         width="384"
         height="384"
         id="rect2575874" />
    </clipPath>
    <mask
       id="b">
      <g
         filter="url(#alpha)"
         id="g2575880">
        <rect
           width="384"
           height="384"
           fill-opacity=".10196"
           id="rect2575878" />
      </g>
    </mask>
    <clipPath
       id="c">
      <rect
         width="384"
         height="384"
         id="rect2575883" />
    </clipPath>
    <g
       id="a"
       clip-path="url(#c)">
      <path
         d="m42 24c-9.9727 0-18 8.0273-18 18v6c0-9.9727 8.0273-18 18-18h300c9.9727 0 18 8.0273 18 18v-6c0-9.9727-8.0273-18-18-18z"
         fill="#fff"
         id="path2575886" />
    </g>
  </defs>
  <path
     d="m360 342v-300c0-9.9414-8.0586-18-18-18h-300c-9.9414 0-18 8.0586-18 18v300c0 9.9414 8.0586 18 18 18h300c9.9414 0 18-8.0586 18-18z"
     fill="#fff"
     opacity=".2"
     stroke="#000"
     stroke-width="7.5"
     id="path2575891" />
  <path
     d="m360 342v-300c0-9.9414-8.0586-18-18-18h-300c-9.9414 0-18 8.0586-18 18v300c0 9.9414 8.0586 18 18 18h300c9.9414 0 18-8.0586 18-18z"
     fill="#fff"
     id="path2575893" />
  <use
     mask="url(#b)"
     xlink:href="#a"
     id="use2575895" />
  <path
     transform="scale(6)"
     d="m45.624 25.434c4.8607 8.127 3.9206 17.632-2.1016 21.251-6.0221 3.6191-14.855-0.01237-19.75-8.1191-4.8607-8.127-3.9206-17.632 2.1016-21.251 6.0221-3.6191 14.856 0.01237 19.75 8.1191z"
     fill="none"
     stroke="#4b4b4b"
     stroke-width="1.43"
     id="path2575897" />
  <path
     d="m204 144c-33.145 0-60 26.848-60 60s26.848 60 60 60 60-26.848 60-60-26.848-60-60-60zm-10.73 31.707c22.539 0 40.973 18.195 40.973 40.734 0 22.539-18.434 40.973-40.973 40.973-22.539 0-40.73-18.434-40.73-40.973 0-22.539 18.191-40.734 40.73-40.734z"
     fill="#2a61bf"
     id="path2575899" />
  <path
     d="m 70.306145,218.35254 c 0,0 2.541965,-11.35362 -4.062418,-1.06082 -3.928537,6.12255 -6.841043,12.68523 -6.138727,18.04528 2.5977,19.828 27.492,22.988 47.141,22.762 47.637,-0.53906 217.31,-56.207 216.76,-123 -0.0861,-10.34245 -9.04209,-16.16785 -18.3502,-19.29014 -10.12269,-3.39553 0,0 0,0 0,0 -10.71179,-0.43226 -2.63534,4.44992 5.66438,3.42409 10.40718,8.02159 10.14954,13.75422 -2.3438,51.836 -144.06,110.03 -207,111.62 -13.211,0.33594 -31.598,-2.5234 -36.855,-14.641 -1.488266,-3.43341 -0.734989,-7.9998 0.991145,-12.63946 3.733182,-10.03439 0,0 0,0 z"
     fill="#4b4b4b"
     id="path2575901"
     sodipodi:nodetypes="cscccscscccsc" />
  <path
     d="m276 138c0 16.57-13.43 30-30 30s-30-13.43-30-30 13.43-30 30-30 30 13.43 30 30z"
     fill="#fc4848"
     id="path2575903" />
  <path
     d="m192 234.01c0 9.9414-8.0586 18-18 18s-18-8.0586-18-18c0-9.9414 8.0586-18 18-18s18 8.0586 18 18z"
     fill="#4b4b4b"
     id="path2575905" />
  <path
     transform="scale(.75)"
     d="m32 446v10c0 13.255 10.745 24 24 24h400c13.255 0 24-10.745 24-24v-10c0 13.255-10.745 24-24 24h-400c-13.255 0-24-10.745-24-24z"
     opacity=".3"
     stroke-width="1.3333"
     id="path2575907" />
  <path
     transform="scale(.75)"
     d="m56 32c-13.255 0-24 10.745-24 24v10c0-13.255 10.745-24 24-24h400c13.255 0 24 10.745 24 24v-10c0-13.255-10.745-24-24-24h-400z"
     opacity=".1"
     stroke-width="1.3333"
     id="path2575909" />
</svg>
