<?xml version="1.0" encoding="UTF-8" standalone="no"?>
<svg
   width="32"
   height="32"
   version="1"
   id="svg1030742"
   sodipodi:docname="navalbattle.svg"
   inkscape:version="1.1.2 (0a00cf5339, 2022-02-04)"
   xmlns:inkscape="http://www.inkscape.org/namespaces/inkscape"
   xmlns:sodipodi="http://sodipodi.sourceforge.net/DTD/sodipodi-0.dtd"
   xmlns:xlink="http://www.w3.org/1999/xlink"
   xmlns="http://www.w3.org/2000/svg"
   xmlns:svg="http://www.w3.org/2000/svg">
  <sodipodi:namedview
     id="namedview1030744"
     pagecolor="#ffffff"
     bordercolor="#666666"
     borderopacity="1.0"
     inkscape:pageshadow="2"
     inkscape:pageopacity="0.0"
     inkscape:pagecheckerboard="0"
     showgrid="false"
     inkscape:zoom="25.84375"
     inkscape:cx="15.980653"
     inkscape:cy="16"
     inkscape:window-width="1920"
     inkscape:window-height="1051"
     inkscape:window-x="0"
     inkscape:window-y="29"
     inkscape:window-maximized="1"
     inkscape:current-layer="svg1030742" />
  <defs
     id="defs1030724">
    <linearGradient
       id="linearGradient4414">
      <stop
         offset="0"
         id="stop1030717" />
      <stop
         offset="1"
         stop-opacity="0"
         id="stop1030719" />
    </linearGradient>
    <linearGradient
       id="linearGradient4420"
       x1="23.968"
       x2="23.968"
       y1="32.02"
       y2="34.144"
       gradientTransform="matrix(.7 0 0 .5 -.8 3)"
       gradientUnits="userSpaceOnUse"
       xlink:href="#linearGradient4414" />
    <linearGradient
       id="linearGradient4387"
       x1="16.034"
       x2="16.113939"
       y1="16.945"
       y2="13.326758"
       gradientUnits="userSpaceOnUse"
       xlink:href="#linearGradient4414" />
  </defs>
  <rect
     fill="#4e91d9"
     width="28"
     height="28"
     x="2"
     y="2"
     rx="1.5"
     ry="1.5"
     id="rect1030726" />
  <path
     fill="#fff"
     opacity=".1"
     d="m3.5 2c-0.831 0-1.5 0.669-1.5 1.5v1c0-0.831 0.669-1.5 1.5-1.5h25c0.831 0 1.5 0.669 1.5 1.5v-1c0-0.831-0.669-1.5-1.5-1.5h-25z"
     id="path1030728" />
  <path
     opacity=".2"
     d="m2 28.5v1c0 0.831 0.669 1.5 1.5 1.5h25c0.831 0 1.5-0.669 1.5-1.5v-1c0 0.831-0.669 1.5-1.5 1.5h-25c-0.831 0-1.5-0.669-1.5-1.5z"
     id="path1030730" />
  <path
     fill="#fff"
     d="m16 12 5 5-5.0364 0.95877l-4.964-0.959z"
     id="path1030732" />
  <path
     opacity=".2"
     d="m6 13 10 5 10-5-3 8h-14z"
     id="path1030734" />
  <path
     fill="url(#linearGradient4387)"
     opacity="0.15"
     d="m 16.537014,12.537014 v 0 L 21,17 l -5.0364,0.95877 -4.964,-0.959 4.424837,-4.42428 z"
     id="path1030736"
     sodipodi:nodetypes="ccccccc"
     style="fill:url(#linearGradient4387)" />
  <path
     fill="#ffffff"
     d="M 6.3128439,12.83425 6.9951392,12.49757 16,17 l 9.075864,-4.537932 0.560941,0.506452 v 0 L 23,20 H 9 Z"
     id="path1030738"
     sodipodi:nodetypes="cccccccccc" />
  <path
     fill="url(#linearGradient4420)"
     opacity=".15"
     d="m16 19 7 1h-14z"
     id="path1030740" />
</svg>
