<?xml version="1.0" encoding="UTF-8" standalone="no"?>
<svg
   width="512"
   height="512"
   version="1.1"
   viewBox="0 0 384 384"
   id="svg745304"
   sodipodi:docname="notification-display-brightness-high.svg"
   inkscape:version="1.1.2 (0a00cf5339, 2022-02-04)"
   xmlns:inkscape="http://www.inkscape.org/namespaces/inkscape"
   xmlns:sodipodi="http://sodipodi.sourceforge.net/DTD/sodipodi-0.dtd"
   xmlns="http://www.w3.org/2000/svg"
   xmlns:svg="http://www.w3.org/2000/svg">
  <sodipodi:namedview
     id="namedview745306"
     pagecolor="#ffffff"
     bordercolor="#666666"
     borderopacity="1.0"
     inkscape:pageshadow="2"
     inkscape:pageopacity="0.0"
     inkscape:pagecheckerboard="0"
     showgrid="false"
     inkscape:zoom="1.6152344"
     inkscape:cx="255.69045"
     inkscape:cy="256"
     inkscape:window-width="1920"
     inkscape:window-height="1051"
     inkscape:window-x="0"
     inkscape:window-y="29"
     inkscape:window-maximized="1"
     inkscape:current-layer="svg745304" />
  <defs
     id="defs745280">
    <clipPath
       id="clipPath745269">
      <rect
         width="36"
         height="36"
         id="rect745267" />
    </clipPath>
    <clipPath
       id="clipPath745273">
      <rect
         width="384"
         height="384"
         id="rect745271" />
    </clipPath>
    <linearGradient
       id="a"
       x1="24.161"
       x2="470.92"
       y1="255.65"
       y2="-4.7024"
       gradientTransform="translate(-.021237 -.011297)"
       gradientUnits="userSpaceOnUse">
      <stop
         stop-color="#367bf0"
         offset="0"
         id="stop745275" />
      <stop
         stop-color="#b7164b"
         stop-opacity=".99608"
         offset="1"
         id="stop745277" />
    </linearGradient>
  </defs>
  <g
     transform="translate(-.003 -.00015)"
     id="g745298">
    <path
       d="m158.18 263.77h67.652v54.723h-67.652z"
       fill="#262833"
       id="path745282" />
    <path
       d="m158.07 264.17h67.852v54.168z"
       fill="#171717"
       id="path745284" />
    <path
       d="m23.996 55.281h336.01c4.5391 0 8.2188 3.4648 8.2188 7.7422v193.58c0 4.2774-3.6797 7.7461-8.2188 7.7461h-336.01c-4.5352 0-8.2148-3.4688-8.2148-7.7461v-193.58c0-4.2773 3.6797-7.7422 8.2148-7.7422z"
       id="path745286" />
    <path
       d="m132.2 317.36h119.6c2.5781 0 4.6641 1.9688 4.6641 4.3984v2.5664c0 2.4258-2.0859 4.3945-4.6641 4.3945h-119.6c-2.5781 0-4.6641-1.9688-4.6641-4.3945v-2.5664c0-2.4297 2.0859-4.3984 4.6641-4.3984z"
       fill="#171717"
       id="path745288" />
    <path
       d="m23.996 59.781h336.01c4.5391 0 8.2187 3.4648 8.2187 7.7422v193.58c0 4.2774-3.6797 7.7461-8.2187 7.7461h-336.01c-4.5352 0-8.2148-3.4688-8.2148-7.7461v-193.58c0-4.2773 3.6797-7.7422 8.2148-7.7422z"
       opacity=".3"
       id="path745290" />
    <rect
       x="24.14"
       y="63.993"
       width="335.73"
       height="191.64"
       rx="3.7555"
       ry="3.7555"
       fill="url(#a)"
       id="rect745292" />
    <path
       d="m223.32 233.3h-14.855v15.797h14.855zm-22.281 0h-14.855v15.797h14.855zm-22.285 0h-14.855v15.797h14.855z"
       fill="#060606"
       opacity=".3"
       id="path745294" />
    <path
       d="m220.32 230.3h-14.855v15.797h14.855zm-22.281 0h-14.855v15.797h14.855zm-22.285 0h-14.855v15.797h14.855z"
       fill="#fff"
       id="path745296" />
  </g>
  <path
     d="m192.11 81.25c-7.012 6.9353-13.729 14.807-20.826 21.693h-26.902v26.902c-6.9366 7.1468-14.87 13.906-21.842 20.972 6.9709 7.0643 14.906 14.093 21.842 21.262v26.612h26.902c7.0967 6.8879 13.815 14.756 20.826 21.693 7.0105-6.9368 13.729-14.805 20.826-21.693h26.902v-26.612c6.9366-7.1688 14.871-14.198 21.842-21.262-6.9725-7.0659-14.906-13.825-21.842-20.972v-26.902h-26.902c-7.0967-6.8863-13.814-14.758-20.826-21.693zm0 29.172c21.153 0 38.3 17.147 38.3 38.3 0 21.153-17.147 38.298-38.3 38.298-21.153 0-38.3-17.146-38.3-38.298s17.147-38.3 38.3-38.3z"
     opacity=".3"
     stroke-width=".39895"
     id="path745300" />
  <path
     transform="scale(0.75)"
     d="m 256.14667,108.33333 c -1.9282,1.90711 -3.83632,-6.13205 -5.73893,-4.14126 -7.32269,7.66208 -14.51437,15.77761 -22.02574,23.06593 h -26.05117 l -9.81783,9.03323 v 0 26.83577 c -6.97864,7.19014 -14.71358,14.08638 -22.08421,21.0858 -2.39767,2.27693 2.282,-2.31243 0,0 1.92886,1.9547 -3.12574,10.78456 -1.10958,12.73729 7.69904,7.45684 15.8642,14.91466 23.19379,22.48991 v 24.64615 l 9.19377,10.83585 v 0 H 228.382 c 7.12346,6.91387 13.96105,14.56872 20.89447,21.8767 2.27634,2.39933 11.20345,-2.04095 13.51397,0.24509 2.23162,-2.20818 -2.19939,2.31506 0,0 7.01288,-7.38171 13.92381,-15.13043 21.12756,-22.12179 h 24.69857 L 319.787,244.06753 v 0 V 219.44 c 7.21238,-7.45381 15.2338,-14.79464 22.82436,-22.13259 2.1432,-2.07187 -6.58421,-6.44515 -0.28557,-12.66256 -6.5842,-6.44516 2.2413,2.13428 0,0 -7.50637,-7.14799 -15.41643,-14.17987 -22.53879,-21.51785 v -24.93878 l -0.003,-0.93089 -8.63648,-9.99933 H 283.918 c -7.65722,-7.43023 -14.98282,-15.72071 -22.45406,-23.51374 -1.76114,-1.83699 -3.5337,6.353 -5.31727,4.58907 z M 278.355,142.299 c 17.08,8.2606 28.861,25.753 28.861,45.998 0,20.245 -11.782,37.736 -28.861,45.996 z"
     fill="#ffffff"
     stroke-width="0.53194"
     id="path745302"
     sodipodi:nodetypes="cscccccscscccccscscccccscscccccsccscc" />
</svg>
