<?xml version="1.0" encoding="UTF-8" standalone="no"?>
<svg
   width="512"
   height="512"
   version="1.1"
   viewBox="0 0 384 384"
   id="svg616476"
   sodipodi:docname="notification-display-brightness-medium.svg"
   inkscape:version="1.1.2 (0a00cf5339, 2022-02-04)"
   xmlns:inkscape="http://www.inkscape.org/namespaces/inkscape"
   xmlns:sodipodi="http://sodipodi.sourceforge.net/DTD/sodipodi-0.dtd"
   xmlns="http://www.w3.org/2000/svg"
   xmlns:svg="http://www.w3.org/2000/svg">
  <sodipodi:namedview
     id="namedview616478"
     pagecolor="#ffffff"
     bordercolor="#666666"
     borderopacity="1.0"
     inkscape:pageshadow="2"
     inkscape:pageopacity="0.0"
     inkscape:pagecheckerboard="0"
     showgrid="false"
     inkscape:zoom="1.6152344"
     inkscape:cx="255.69045"
     inkscape:cy="256"
     inkscape:window-width="1920"
     inkscape:window-height="1051"
     inkscape:window-x="0"
     inkscape:window-y="29"
     inkscape:window-maximized="1"
     inkscape:current-layer="g616474" />
  <defs
     id="defs616450">
    <linearGradient
       id="a"
       x1="24.161"
       x2="470.92"
       y1="255.65"
       y2="-4.7024"
       gradientTransform="translate(-.021237 -.011297)"
       gradientUnits="userSpaceOnUse">
      <stop
         stop-color="#367bf0"
         offset="0"
         id="stop616445" />
      <stop
         stop-color="#b7164b"
         stop-opacity=".99608"
         offset="1"
         id="stop616447" />
    </linearGradient>
  </defs>
  <g
     transform="translate(-.003 -.00015)"
     id="g616468">
    <path
       d="m158.18 263.77h67.652v54.723h-67.652z"
       fill="#262833"
       id="path616452" />
    <path
       d="m158.07 264.17h67.852v54.168z"
       fill="#171717"
       id="path616454" />
    <path
       d="m23.996 55.281h336.01c4.5391 0 8.2188 3.4648 8.2188 7.7422v193.58c0 4.2774-3.6797 7.7461-8.2188 7.7461h-336.01c-4.5352 0-8.2148-3.4688-8.2148-7.7461v-193.58c0-4.2773 3.6797-7.7422 8.2148-7.7422z"
       id="path616456" />
    <path
       d="m132.2 317.36h119.6c2.5781 0 4.6641 1.9688 4.6641 4.3984v2.5664c0 2.4258-2.0859 4.3945-4.6641 4.3945h-119.6c-2.5781 0-4.6641-1.9688-4.6641-4.3945v-2.5664c0-2.4297 2.0859-4.3984 4.6641-4.3984z"
       fill="#171717"
       id="path616458" />
    <path
       d="m23.996 59.781h336.01c4.5391 0 8.2187 3.4648 8.2187 7.7422v193.58c0 4.2774-3.6797 7.7461-8.2187 7.7461h-336.01c-4.5352 0-8.2148-3.4688-8.2148-7.7461v-193.58c0-4.2773 3.6797-7.7422 8.2148-7.7422z"
       opacity=".3"
       id="path616460" />
    <rect
       x="24.14"
       y="63.993"
       width="335.73"
       height="191.64"
       rx="3.7555"
       ry="3.7555"
       fill="url(#a)"
       id="rect616462" />
    <path
       d="m223.32 233.3h-14.855v15.797h14.855zm-22.281 0h-14.855v15.797h14.855zm-22.285 0h-14.855v15.797h14.855z"
       fill="#060606"
       opacity=".3"
       id="path616464" />
    <path
       d="m220.32 230.3h-14.855v15.797h14.855zm-22.281 0h-14.855v15.797h14.855zm-22.285 0h-14.855v15.797h14.855z"
       fill="#fff"
       id="path616466" />
  </g>
  <path
     d="m191.96 81.101 1e-3 1e-3c7.0659 6.9709 13.827 14.907 20.974 21.842h26.902v26.902c6.9366 7.1468 14.87 13.906 21.842 20.972-6.9709 7.0643-14.906 14.093-21.842 21.262v26.612h-26.902c-7.1468 6.9366-13.909 14.87-20.974 21.842-7.0643-6.9709-14.093-14.906-21.262-21.842h-26.612v-26.622c-6.9366-7.1672-14.871-14.189-21.842-21.252 6.9709-7.0643 14.906-13.825 21.842-20.972v-26.902h26.612c7.1672-6.9382 14.193-14.873 21.261-21.844zm0.14942 29.323v76.598c21.153 0 38.3-17.146 38.3-38.298 0-21.153-17.147-38.3-38.3-38.3z"
     opacity=".3"
     stroke-width=".39895"
     id="path616470" />
  <g
     transform="matrix(.39895 0 0 .39895 115.44 66.718)"
     id="g616474">
    <path
       d="m 191.8,17.251 0.004,0.0038 c 4.36044,4.142416 8.51985,8.590898 12.73725,13.028873 C 217.7666,44.20073 230.79334,58.823752 244.376,72.0038 h 51.98809 v 0 L 311.807,88.265983 V 139.4348 c 13.50472,13.91405 28.51645,27.24231 42.73633,40.79964 4.08787,3.8974 -3.90237,-3.95462 0,0 -3.1521,3.19432 5.62984,18.15413 2.34936,21.34529 -14.90416,14.49834 -30.83528,28.99065 -45.08569,43.71807 v 46.50718 l -16.8503,20.19682 v 0 H 244.376 c -13.95943,13.54876 -27.3341,28.61438 -40.9374,42.87543 -3.85369,4.04002 3.90887,-3.8581 0,0 -3.70235,-3.65342 -19.03545,4.46111 -22.7341,0.6414 -13.99069,-14.44861 -27.98363,-29.76527 -42.1955,-43.51683 l -47.641591,0 v 0 L 71.805,294.80347 V 245.2718 C 58.001989,231.00993 42.622146,216.9781 28.126041,202.94165 c -3.763953,-3.6446 4.190336,-18.72008 0.58862,-22.36941 3.789313,-3.84006 -3.966407,3.78618 0,0 C 43.037855,166.89984 58.188663,153.46385 71.805,139.4348 V 92.043221 L 71.805991,90.803359 87.88618,72.0038 H 138.509 c 13.92326,-13.478399 27.63389,-28.457241 41.34509,-42.648948 3.98018,-4.119666 20.70167,4.859871 24.68716,0.928821 z m 0.37451,73.5 v 192 c 53.02,0 96.001,-42.977 96.001,-95.997 0,-53.02 -42.981,-96.001 -96.001,-96.001 z"
       fill="#ffffff"
       id="path616472"
       sodipodi:nodetypes="csscccccscscccccscscccccscscccccsccccscc" />
  </g>
</svg>
