<?xml version="1.0" encoding="UTF-8" standalone="no"?>
<svg
   width="32"
   height="32"
   version="1.1"
   id="svg36"
   sodipodi:docname="nvim.svg"
   inkscape:version="1.1.2 (0a00cf5339, 2022-02-04)"
   xmlns:inkscape="http://www.inkscape.org/namespaces/inkscape"
   xmlns:sodipodi="http://sodipodi.sourceforge.net/DTD/sodipodi-0.dtd"
   xmlns="http://www.w3.org/2000/svg"
   xmlns:svg="http://www.w3.org/2000/svg">
  <defs
     id="defs40" />
  <sodipodi:namedview
     id="namedview38"
     pagecolor="#505050"
     bordercolor="#ffffff"
     borderopacity="1"
     inkscape:showpageshadow="0"
     inkscape:pageopacity="0"
     inkscape:pagecheckerboard="1"
     inkscape:deskcolor="#505050"
     showgrid="false"
     inkscape:zoom="26.40625"
     inkscape:cx="15.981065"
     inkscape:cy="15.96213"
     inkscape:window-width="1910"
     inkscape:window-height="1011"
     inkscape:window-x="0"
     inkscape:window-y="35"
     inkscape:window-maximized="1"
     inkscape:current-layer="svg36"
     inkscape:pageshadow="2" />
  <path
     style="opacity:.2"
     d="m10 3-4.8047 4 0.00195 0.00195l-1.1972 0.998v18l6 5v-17.139l12 17.139 4.8047-4-0.002-0.002 1.197-0.998v-18l-6-5v17.139z"
     id="path22" />
  <path
     style="fill:#6ba63f"
     d="M 28,7 22.805976,2.6716463 22.296011,2.7348257 22,2.9589665 V 18.261647 L 21.662204,18.656543 22,29.326865 22.025758,29.46079 28,25 Z"
     id="path24"
     sodipodi:nodetypes="cccccccccc" />
  <path
     style="fill:#37b4ee"
     d="M 4,7 9.3907138,2.5077385 10,2 V 13.376458 28.791959 L 9.6929503,29.071787 9.0454378,29.204532 4,25 Z"
     id="path26"
     sodipodi:nodetypes="ccccccccc" />
  <path
     style="fill:#95d25f"
     d="M 10.189257,2.0495389 10.284567,2.4064033 26.805,26 22.442398,29.631718 22.097397,29.277531 21.583879,29.405719 10.308307,13.30134 C 10.137808,13.616419 9.8675245,14.611955 10,12.861 l 5e-5,0.99995 L 5.195,6 9.6695198,2.2751136 Z"
     id="path28"
     sodipodi:nodetypes="cccccccccccc" />
  <path
     style="fill:#50a635"
     d="m 22,19.139 0.150781,9.817726 0.456172,0.537511 L 26.8027,25.998 Z"
     id="path30"
     sodipodi:nodetypes="ccccc" />
  <path
     style="fill:#69c657"
     d="M 9.8520271,2.8340763 9.2481785,2.6264788 5.1973,6.002 10,12.861 V 2.8615691 Z"
     id="path32"
     sodipodi:nodetypes="cccccc" />
  <path
     style="opacity:0.2;fill:#ffffff"
     d="M 10.184199,3.0353094 5.1953,6 5.1973,6.002 4,7 V 8 L 5.1973,7.002 5.1953,7 10,3 21.99975,20.13895 21.662204,18.656543 v 0 0 L 10.624594,2.8920757 Z M 22.405362,3.3300677 22.324676,3.835971 28,8 V 7 L 23.019914,2.8499285 Z"
     id="path34"
     sodipodi:nodetypes="cccccccccccccccccccc" />
</svg>
