<?xml version="1.0" encoding="UTF-8" standalone="no"?>
<svg
   width="32"
   height="32"
   version="1"
   id="svg1847375"
   sodipodi:docname="org.kde.bomber.svg"
   inkscape:version="1.1.2 (0a00cf5339, 2022-02-04)"
   xmlns:inkscape="http://www.inkscape.org/namespaces/inkscape"
   xmlns:sodipodi="http://sodipodi.sourceforge.net/DTD/sodipodi-0.dtd"
   xmlns="http://www.w3.org/2000/svg"
   xmlns:svg="http://www.w3.org/2000/svg">
  <defs
     id="defs1847379" />
  <sodipodi:namedview
     id="namedview1847377"
     pagecolor="#ffffff"
     bordercolor="#666666"
     borderopacity="1.0"
     inkscape:pageshadow="2"
     inkscape:pageopacity="0.0"
     inkscape:pagecheckerboard="0"
     showgrid="false"
     inkscape:zoom="25.84375"
     inkscape:cx="15.980653"
     inkscape:cy="16"
     inkscape:window-width="1920"
     inkscape:window-height="1051"
     inkscape:window-x="0"
     inkscape:window-y="29"
     inkscape:window-maximized="1"
     inkscape:current-layer="svg1847375" />
  <path
     style="opacity:0.2"
     d="M 6.1999566,6.9999999 C 5.4803109,7.2625461 7.9319841,11.800192 7.3403672,12.131421 6.3097452,12.542531 5,13 5,13 v 7 c 0,0 4.562016,0.591816 8,1 0.689187,0.08211 -11,7 -11,7 3.4642764,8.74e-4 38.714821,-9.295625 24.734552,-15.880022 -2.401497,-1.278358 -5.926744,-2.115152 -9.855632,-2.115152 -1.974096,0 -3.788256,0.232922 -5.396183,0.597797 C 10.709066,10.778187 6.8728085,6.7545481 6.2000434,6.9999999 Z"
     id="path1847359" />
  <path
     style="fill:#28aeae"
     d="M 6.1999566,6 C 5.4803109,6.2625462 7.9319841,10.800192 7.3403672,11.131421 6.3097452,11.542531 5,12 5,12 v 7 c 0,0 4.0977299,0.531586 7.452689,0.934622 0.184965,0.02222 -0.04571,0.47329 0.13393,0.494618 0.100485,0.01197 0.351206,-0.259978 0,0 -1.464497,1.084083 -6.3900628,3.778574 -9.107881,5.241829 -0.2393295,0.128853 -0.4615392,0.248159 -0.6627579,0.355977 -0.724148,0.388015 0.175816,0.470487 0.175816,0.470487 0.269295,6.8e-5 -0.619407,0.102801 0,0 C 10.340589,25.277887 39.628067,17.192538 26.734552,11.119978 24.333055,9.8416201 20.807808,9.0048261 16.87892,9.0048261 c -1.974096,0 -3.788256,0.2329215 -5.396183,0.5977972 C 10.709066,9.7781868 6.8728085,5.7545482 6.2000434,6 Z"
     id="path1847361"
     sodipodi:nodetypes="ccccscssscscsscc" />
  <path
     style="opacity:0.2"
     d="M 5,13 V 12 H 2 v 9 h 3 v -1 c 6.007005,-1.011244 9.07058,-2.278653 9,-3.54331 C 13.931057,15.221404 10.867484,13.988744 5,13 Z"
     id="path1847363" />
  <path
     style="fill:#3f3f3f"
     d="M 5,12 V 11 H 2 v 9 h 3 v -1 c 6.007005,-1.011244 9.07058,-2.278653 9,-3.54331 C 13.931057,14.221404 10.867484,12.988744 5,12 Z"
     id="path1847365" />
  <path
     style="opacity:0.2"
     d="m 23.041016,10.75 c -0.01979,0.159284 -0.04028,0.324571 -0.04102,0.449219 0.0015,2.290138 3.041544,3.588379 6.927734,3.794922 -0.257052,-0.988976 -1.24784,-1.958704 -3.193359,-2.875 -0.271857,-0.144715 -0.561714,-0.281239 -0.861328,-0.414063 -0.212212,-0.09318 -0.434796,-0.180958 -0.660156,-0.267578 -0.07706,-0.03 -0.151942,-0.06064 -0.230469,-0.08984 C 24.685202,11.23854 24.379241,11.134715 24.0625,11.037109 23.731655,10.935158 23.390738,10.838895 23.041016,10.75 Z"
     id="path1847367" />
  <path
     style="fill:#3f3f3f"
     d="M 23.041016 9.75 C 23.021226 9.9092843 23.00074 10.074571 23 10.199219 C 23.001491 12.489357 26.041544 13.787598 29.927734 13.994141 C 29.670682 13.005165 28.679894 12.035437 26.734375 11.119141 C 26.462518 10.974426 26.172661 10.837902 25.873047 10.705078 C 25.660835 10.611894 25.438251 10.52412 25.212891 10.4375 C 25.135832 10.407504 25.060949 10.376864 24.982422 10.347656 C 24.685202 10.23854 24.379241 10.134715 24.0625 10.037109 C 23.731655 9.9351576 23.390738 9.8388947 23.041016 9.75 z"
     id="path1847369" />
  <path
     style="opacity:0.1;fill:#ffffff"
     d="m 6.1992188,6 c -0.1952988,0.07125 -0.1476147,0.4685617 0,1 0.672765,-0.2454518 4.5095322,3.77908 5.2832032,3.603516 1.607927,-0.364875 3.422388,-0.59961 5.396484,-0.59961 3.928888,0 7.453972,0.836877 9.855469,2.115235 1.969911,0.927784 2.963431,1.910227 3.205078,2.912109 0.306193,-1.346105 -0.583778,-2.677535 -3.205078,-3.912109 -2.401497,-1.2783583 -5.926581,-2.1152348 -9.855469,-2.1152348 -1.974096,0 -3.788557,0.2347337 -5.396484,0.5996094 C 10.708751,9.7790791 6.8719838,5.7545482 6.1992188,6 Z m 1.0859374,5.152344 C 6.2668205,11.555636 5,12 5,12 v 1 c 0,0 1.3092217,-0.458031 2.3398438,-0.869141 0.1543965,-0.08644 0.094997,-0.46985 -0.054688,-0.978515 z m 4.6601558,9.716797 c -1.918054,1.30573 -6.0745516,3.817471 -8.3600856,5.185837 -0.9564345,0.572625 0.2078154,0.692915 0.2078154,0.692915 0.3244084,8.2e-5 1.5004554,0.479742 2.3268166,0.322757 C 6.2550745,27.04496 4.0684029,26.694863 4.2128906,26.666013 7.1243755,24.928321 13.556728,21.066329 13,21 12.546802,20.94619 12.42455,20.92755 11.945312,20.869141 Z"
     id="path1847371"
     sodipodi:nodetypes="ccsscccsscccccccscsccc" />
  <path
     style="fill:#ffffff;opacity:0.1"
     d="M 2 11 L 2 12 L 5 12 L 5 11 L 2 11 z M 5 12 L 5 13 C 10.134048 13.865151 13.121191 14.917139 13.833984 15.994141 C 13.950001 15.815049 14.01003 15.636754 14 15.457031 C 13.931057 14.221745 10.867484 12.988744 5 12 z"
     id="path1847373" />
</svg>
