<?xml version="1.0" encoding="UTF-8" standalone="no"?>
<svg
   width="512"
   height="512"
   version="1.1"
   viewBox="0 0 384 384"
   id="svg1349626"
   sodipodi:docname="appimagekit-qnapi.svg"
   inkscape:version="1.1.2 (0a00cf5339, 2022-02-04)"
   xmlns:inkscape="http://www.inkscape.org/namespaces/inkscape"
   xmlns:sodipodi="http://sodipodi.sourceforge.net/DTD/sodipodi-0.dtd"
   xmlns="http://www.w3.org/2000/svg"
   xmlns:svg="http://www.w3.org/2000/svg">
  <sodipodi:namedview
     id="namedview1349628"
     pagecolor="#ffffff"
     bordercolor="#666666"
     borderopacity="1.0"
     inkscape:pageshadow="2"
     inkscape:pageopacity="0.0"
     inkscape:pagecheckerboard="0"
     showgrid="false"
     inkscape:zoom="1.6152344"
     inkscape:cx="255.69045"
     inkscape:cy="256"
     inkscape:window-width="1920"
     inkscape:window-height="1051"
     inkscape:window-x="0"
     inkscape:window-y="29"
     inkscape:window-maximized="1"
     inkscape:current-layer="g1349624" />
  <defs
     id="defs1349612">
    <clipPath
       id="clipPath1349602">
      <rect
         width="384"
         height="384"
         id="rect1349600" />
    </clipPath>
    <clipPath
       id="clipPath1349606">
      <rect
         width="384"
         height="384"
         id="rect1349604" />
    </clipPath>
    <clipPath
       id="clipPath1349610">
      <rect
         width="384"
         height="384"
         id="rect1349608" />
    </clipPath>
  </defs>
  <g
     transform="translate(-.0036622 -.0036622)"
     id="g1349624">
    <path
       d="m 42.676,42.008 c -10.344,0 -18.668,10.656 -18.668,21 v 209.99 c 0,10.344 8.332,20.605 18.668,21 h 155.32 l 24.69637,28.22711 17.13078,-0.0171 16.85204,0.72345 25.31681,-28.9335 h 59.332 c 10.344,0 18.672,-10.656 18.672,-21 V 63.008 c 0,-10.344 -8.3281,-21 -18.672,-21 z"
       fill="#1ea6ae"
       id="path1349614"
       sodipodi:nodetypes="sssccccccsssss" />
    <path
       d="m95.593 83.873v16.881h192.81v-16.881zm0 50.644v16.881h192.81v-16.881zm0 50.644v16.881h192.81v-16.881zm0 50.644v16.881h128.54v-16.881z"
       opacity=".3"
       id="path1349616" />
    <path
       d="m95.593 76.373v16.881h192.81v-16.881zm0 50.644v16.881h192.81v-16.881zm0 50.644v16.881h192.81v-16.881zm0 50.644v16.881h128.54v-16.881z"
       fill="#fff"
       id="path1349618" />
    <path
       transform="scale(0.75)"
       d="m 32.01,354 v 10 c 0,13.792 11.109,27.474 24.891,28 h 207.1 l 27.15285,31.03515 27.25303,-10.21989 28.31781,12.63652 L 375.995,392 h 79.109 C 468.896,392 480,377.792 480,364 v -10 c 0,13.792 -11.105,28 -24.896,28 h -70.92061 l -8.18839,10 -4.1215,-5.28972 -22.75218,26.0025 -30.71444,0.10248 -27.98065,-0.61176 -20.33496,-23.24245 -6.0966,3.03628 L 256.37217,382 H 56.901 C 43.12,381.47396 32.01,367.792 32.01,354 Z"
       opacity="0.3"
       stroke-width="1.3333"
       id="path1349620"
       sodipodi:nodetypes="csccccccsscsccccccccccc" />
    <path
       transform="scale(.75)"
       d="m56.9 56.01c-13.792 0-24.891 14.208-24.891 28v10c0-13.792 11.099-28 24.891-28h398.2c13.792 0 24.896 14.208 24.896 28v-10c0-13.792-11.105-28-24.896-28z"
       fill="#fff"
       opacity=".3"
       stroke-width="1.3333"
       id="path1349622" />
  </g>
</svg>
