<?xml version="1.0" encoding="UTF-8" standalone="no"?>
<svg
   width="512"
   height="512"
   version="1"
   id="svg26490"
   sodipodi:docname="yast-snapper.svg"
   inkscape:version="1.1.2 (0a00cf5339, 2022-02-04)"
   xmlns:inkscape="http://www.inkscape.org/namespaces/inkscape"
   xmlns:sodipodi="http://sodipodi.sourceforge.net/DTD/sodipodi-0.dtd"
   xmlns="http://www.w3.org/2000/svg"
   xmlns:svg="http://www.w3.org/2000/svg">
  <defs
     id="defs26494" />
  <sodipodi:namedview
     id="namedview26492"
     pagecolor="#ffffff"
     bordercolor="#666666"
     borderopacity="1.0"
     inkscape:pageshadow="2"
     inkscape:pageopacity="0.0"
     inkscape:pagecheckerboard="0"
     showgrid="false"
     inkscape:zoom="1.6152344"
     inkscape:cx="255.69045"
     inkscape:cy="256"
     inkscape:window-width="1920"
     inkscape:window-height="1051"
     inkscape:window-x="0"
     inkscape:window-y="29"
     inkscape:window-maximized="1"
     inkscape:current-layer="g26486" />
  <g
     transform="matrix(8.6538 0 0 8.6538 -20.923 -3902.2)"
     id="g26486">
    <rect
       transform="matrix(0,-1,-1,0,0,0)"
       x="-506"
       y="-58"
       width="52"
       height="52"
       rx="26"
       ry="26"
       style="fill:#3cb37d"
       id="rect26478" />
    <path
       d="m32 454c-14.404 0-26 11.596-26 26 0 0.11092 0.011605 0.21879 0.017578 0.32812 0.35511-14.09 11.804-25.328 25.982-25.328s25.627 11.238 25.982 25.328c0.005923-0.10933 0.017578-0.2172 0.017578-0.32812 0-14.404-11.596-26-26-26z"
       style="fill:#fff;opacity:.2"
       id="path26480" />
    <path
       d="m32.002 463c-1.6821-0.0174-3.3525 0.23159-4.9746 0.67579-7.5535 2.0262-13.081 9.5022-12.967 17.326h-4.0605c2.07 3.0437 6 8.998 6 8.998s6-9.001 6-9.002h-3.918c-0.0144-3.2766 1.2153-6.5716 3.3965-9.0176 4.0995-4.9288 11.523-6.9806 17.232-2.793 1.81 2.3692 5.7576-0.31918 3.7207-2.6621-3.0002-2.3365-6.6418-3.5174-10.43-3.5254zm15.998 9s-6 8.999-6 9h3.918c0.0144 3.2766-1.2153 6.5735-3.3965 9.0195-4.0995 4.9288-11.523 6.9806-17.232 2.793-1.81-2.3692-5.7576 0.31919-3.7207 2.6621 3.0002 2.3365 6.6418 3.5174 10.43 3.5254 1.6821 0.0174 3.3525-0.23158 4.9746-0.67578 7.5535-2.0262 13.081-9.5022 12.967-17.326h4.0605c-2.07-3.0437-6-8.998-6-8.998z"
       style="opacity:.2"
       id="path26482" />
    <path
       d="m 32.002,462 c -1.6821,-0.0174 -3.3525,0.23158 -4.9746,0.67578 -7.5535,2.0262 -13.081,9.5022 -12.967,17.326 h -2.766329 v 0 c 0.232439,0.34177 -0.805841,0.72025 -0.534694,1.12287 1.591617,2.36338 3.70886,5.55882 4.693673,7.04771 0.341518,0.51632 1.121217,-0.0342 1.121217,-0.0342 0,0 -0.354936,0.53247 0,0 1.143406,-1.71533 3.693037,-5.54029 4.843102,-7.26598 0.359732,-0.53979 -1.353798,-0.87437 -0.385634,-0.87437 v 0 H 18.0819 c -0.0144,-3.2766 1.2153,-6.5716 3.3965,-9.0176 4.0995,-4.9288 11.523,-6.9806 17.232,-2.793 1.81,2.3692 5.7576,-0.31919 3.7207,-2.6621 -3.0002,-2.3365 -6.6418,-3.5174 -10.43,-3.5254 z m 15.50603,9.73788 c 0,0 0.306186,-0.45923 0,0 -1.036052,1.55392 -3.450659,5.17551 -4.710677,7.06568 C 42.313575,479.52928 44.297477,480 43.148739,480 v 0 H 45.918 c 0.0144,3.2766 -1.2153,6.5735 -3.3965,9.0195 -4.0995,4.9288 -11.523,6.9806 -17.232,2.793 -1.81,-2.3692 -5.7576,0.31919 -3.7207,2.6621 3.0002,2.3365 6.6418,3.5174 10.43,3.5254 1.6821,0.0174 3.3525,-0.23158 4.9746,-0.67578 7.5535,-2.0262 13.081,-9.5022 12.967,-17.326 h 2.885469 v 0 c -0.256021,-0.37645 0.634535,-0.79743 0.332563,-1.24615 -1.602122,-2.38073 -3.696794,-5.54263 -4.648022,-6.98088 C 48.191321,471.28873 48,472 48,472 Z"
       style="fill:#ffffff"
       id="path26484"
       sodipodi:nodetypes="cccccsscsscccccccccsscccccccccccsscc" />
  </g>
  <path
     d="m31.062 246.67c-0.035905 1.6626-0.0625 3.3285-0.0625 5 0 124.65 100.35 225 225 225s225-100.35 225-225c0-1.6715-0.0266-3.3374-0.0625-5-2.6425 122.32-101.96 220-224.94 220s-222.29-97.679-224.94-220z"
     style="opacity:.3;stroke-width:8.6538"
     id="path26488" />
</svg>
