<?xml version="1.0" encoding="UTF-8" standalone="no"?>
<svg
   width="512"
   height="512"
   version="1.1"
   viewBox="0 0 384 384"
   id="svg850"
   sodipodi:docname="system-reboot.svg"
   inkscape:version="1.1.2 (0a00cf5339, 2022-02-04)"
   xmlns:inkscape="http://www.inkscape.org/namespaces/inkscape"
   xmlns:sodipodi="http://sodipodi.sourceforge.net/DTD/sodipodi-0.dtd"
   xmlns="http://www.w3.org/2000/svg"
   xmlns:svg="http://www.w3.org/2000/svg">
  <sodipodi:namedview
     id="namedview852"
     pagecolor="#ffffff"
     bordercolor="#666666"
     borderopacity="1.0"
     inkscape:pageshadow="2"
     inkscape:pageopacity="0.0"
     inkscape:pagecheckerboard="0"
     showgrid="false"
     inkscape:zoom="1.6152344"
     inkscape:cx="255.69045"
     inkscape:cy="256"
     inkscape:window-width="1920"
     inkscape:window-height="1051"
     inkscape:window-x="0"
     inkscape:window-y="29"
     inkscape:window-maximized="1"
     inkscape:current-layer="svg850" />
  <defs
     id="defs838">
    <clipPath
       id="clipPath828">
      <rect
         width="384"
         height="384"
         id="rect826" />
    </clipPath>
    <clipPath
       id="clipPath832">
      <rect
         width="384"
         height="384"
         id="rect830" />
    </clipPath>
    <clipPath
       id="clipPath836">
      <rect
         width="384"
         height="384"
         id="rect834" />
    </clipPath>
  </defs>
  <path
     d="m360 192c0 92.785-75.215 168-168 168-92.785 0-168-75.215-168-168 0-92.785 75.215-168 168-168 92.785 0 168 75.215 168 168z"
     fill="#ffc72e"
     id="path840" />
  <path
     d="m168 55.5v38.813c-49.098 11.191-83.945 54.824-84 105.19 0 59.648 48.352 108 108 108 54.953-0.0664 101.1-41.387 107.2-96 0 0 0.79687-12-11.203-12s-12.961 12-12.961 12c-5.9648 41.293-41.316 71.953-83.039 72-46.395 0-84-37.609-84-84 0.0352-37.117 24.43-69.805 60-80.41v32.41l48-48z"
     opacity=".3"
     id="path842" />
  <path
     d="M 168,55.5 V 57.941411 86.812 c -49.098,11.191 -83.945,54.824 -84,105.19 0,59.648 48.352,108 108,108 54.953,-0.0664 101.1,-41.387 107.2,-96 0,0 0.79688,-12 -11.203,-12 -11.99988,0 -12.961,12 -12.961,12 -5.9648,41.293 -41.316,71.953 -83.039,72 -46.395,0 -84,-37.609 -84,-84 0.0343,-36.1474 23.1721,-68.09418 57.23556,-79.53401 0.91369,-0.30686 2.76444,4.94017 2.76444,2.03209 v 0 19.21485 l 6.81958,3.46749 v 0 L 215.997,96.002 174.5788,54.579487 Z"
     fill="#ffffff"
     id="path844"
     sodipodi:nodetypes="ccccccscccscccccccc" />
  <path
     transform="scale(.75)"
     d="m32.07 240.37c-0.35613 5.1655-0.55078 10.375-0.55078 15.631 0 123.71 100.29 224 224 224 121.82 0 220.92-97.237 223.93-218.33-8.0454 116.4-105 208.33-223.45 208.33-123.71 0-224-100.29-224-224 0-1.8827 0.02413-3.7592 0.070312-5.6309z"
     opacity=".3"
     stroke-width="1.3333"
     id="path846" />
  <path
     transform="scale(.75)"
     d="m256 32c-123.71 0-224 100.29-224 224 0 1.6718 0.026062 3.3369 0.0625 5 2.66-121.4 101.9-219 223.94-219 122.04 0 221.28 97.597 223.94 219 0.03644-1.6631 0.0625-3.3282 0.0625-5 0-123.71-100.29-224-224-224z"
     fill="#fff"
     opacity=".3"
     stroke-width="1.3333"
     id="path848" />
</svg>
