<?xml version="1.0" encoding="UTF-8" standalone="no"?>
<svg
   width="32"
   height="32"
   version="1"
   id="svg45820"
   sodipodi:docname="uterror.svg"
   inkscape:version="1.1.2 (0a00cf5339, 2022-02-04)"
   xmlns:inkscape="http://www.inkscape.org/namespaces/inkscape"
   xmlns:sodipodi="http://sodipodi.sourceforge.net/DTD/sodipodi-0.dtd"
   xmlns="http://www.w3.org/2000/svg"
   xmlns:svg="http://www.w3.org/2000/svg">
  <defs
     id="defs45824" />
  <sodipodi:namedview
     id="namedview45822"
     pagecolor="#ffffff"
     bordercolor="#666666"
     borderopacity="1.0"
     inkscape:pageshadow="2"
     inkscape:pageopacity="0.0"
     inkscape:pagecheckerboard="0"
     showgrid="false"
     inkscape:zoom="25.84375"
     inkscape:cx="15.980653"
     inkscape:cy="16"
     inkscape:window-width="1920"
     inkscape:window-height="1051"
     inkscape:window-x="0"
     inkscape:window-y="29"
     inkscape:window-maximized="1"
     inkscape:current-layer="svg45820" />
  <rect
     fill="#2a74c2"
     width="28"
     height="28"
     x="2"
     y="2"
     rx="1.5"
     ry="1.5"
     id="rect45754" />
  <g
     opacity=".2"
     transform="matrix(.86603 .5 -.5 .86603 28.768 2.3492)"
     id="g45764">
    <path
       d="m2 9h6v12h-6z"
       id="path45756" />
    <path
       d="m2 22h6v3h-6z"
       id="path45758" />
    <path
       d="m3 10h4v10h-4z"
       id="path45760" />
    <path
       d="m3 23h4v1h-4z"
       id="path45762" />
  </g>
  <g
     opacity=".2"
     transform="matrix(.96593 .25882 -.25882 .96593 16.539 -4.2188)"
     id="g45774">
    <path
       d="m2 9h6v12h-6z"
       id="path45766" />
    <path
       d="m2 22h6v3h-6z"
       id="path45768" />
    <path
       d="m3 10h4v10h-4z"
       id="path45770" />
    <path
       d="m3 23h4v1h-4z"
       id="path45772" />
  </g>
  <path
     fill="#fff"
     opacity=".1"
     d="m3.5 2c-0.831 0-1.5 0.669-1.5 1.5v1c0-0.831 0.669-1.5 1.5-1.5h25c0.831 0 1.5 0.669 1.5 1.5v-1c0-0.831-0.669-1.5-1.5-1.5h-25z"
     id="path45776" />
  <g
     opacity=".2"
     transform="matrix(.96593 -.25882 .25882 .96593 -3.2612 3.3694)"
     id="g45786">
    <path
       d="m2 9h6v12h-6z"
       id="path45778" />
    <path
       d="m2 22h6v3h-6z"
       id="path45780" />
    <path
       d="m3 10h4v10h-4z"
       id="path45782" />
    <path
       d="m3 23h4v1h-4z"
       id="path45784" />
  </g>
  <g
     transform="matrix(.96593 -.25882 .25882 .96593 -3.2612 2.3695)"
     id="g45796">
    <path
       fill="#ffffff"
       d="M 2,9.8435253 2.6808239,9 H 8 V 21 H 2 Z"
       id="path45788"
       sodipodi:nodetypes="ccccccc" />
    <path
       fill="#fff"
       d="m2 22h6v3h-6z"
       id="path45790" />
    <path
       fill="#b0b0b0"
       d="m3 10h4v10h-4z"
       id="path45792" />
    <path
       fill="#b0b0b0"
       d="m3 23h4v1h-4z"
       id="path45794" />
  </g>
  <g
     transform="matrix(.96593 .25882 -.25882 .96593 16.539 -5.2187)"
     id="g45806">
    <path
       fill="#ffffff"
       d="M 2,9.7076354 2.6238755,9 h 4.953027 V 9 L 8,9.5918387 V 21 l -6,0 z"
       id="path45798"
       sodipodi:nodetypes="ccccccccc" />
    <path
       fill="#fff"
       d="m2 22h6v3h-6z"
       id="path45800" />
    <path
       fill="#b0b0b0"
       d="m3 10h4v10h-4z"
       id="path45802" />
    <path
       fill="#b0b0b0"
       d="m3 23h4v1h-4z"
       id="path45804" />
  </g>
  <g
     transform="matrix(.86603 .5 -.5 .86603 28.768 1.3494)"
     id="g45816">
    <path
       fill="#ffffff"
       d="M 2,9.6476938 2.473792,9 H 7.1385069 V 9 L 8,9.7842113 V 21 l -6,0 z"
       id="path45808"
       sodipodi:nodetypes="ccccccccc" />
    <path
       fill="#fff"
       d="m2 22h6v3h-6z"
       id="path45810" />
    <path
       fill="#b0b0b0"
       d="m3 10h4v10h-4z"
       id="path45812" />
    <path
       fill="#b0b0b0"
       d="m3 23h4v1h-4z"
       id="path45814" />
  </g>
  <path
     opacity=".2"
     d="m2 28.5v1c0 0.831 0.669 1.5 1.5 1.5h25c0.831 0 1.5-0.669 1.5-1.5v-1c0 0.831-0.669 1.5-1.5 1.5h-25c-0.831 0-1.5-0.669-1.5-1.5z"
     id="path45818" />
</svg>
