<?xml version="1.0" encoding="UTF-8" standalone="no"?>
<svg
   width="512"
   height="512"
   version="1.1"
   viewBox="0 0 384 384"
   id="svg10766"
   sodipodi:docname="xfdashboard.svg"
   inkscape:version="1.1.2 (0a00cf5339, 2022-02-04)"
   xmlns:inkscape="http://www.inkscape.org/namespaces/inkscape"
   xmlns:sodipodi="http://sodipodi.sourceforge.net/DTD/sodipodi-0.dtd"
   xmlns="http://www.w3.org/2000/svg"
   xmlns:svg="http://www.w3.org/2000/svg">
  <sodipodi:namedview
     id="namedview10768"
     pagecolor="#ffffff"
     bordercolor="#666666"
     borderopacity="1.0"
     inkscape:pageshadow="2"
     inkscape:pageopacity="0.0"
     inkscape:pagecheckerboard="0"
     showgrid="false"
     inkscape:zoom="1.6152344"
     inkscape:cx="255.69045"
     inkscape:cy="256"
     inkscape:window-width="1920"
     inkscape:window-height="1051"
     inkscape:window-x="0"
     inkscape:window-y="29"
     inkscape:window-maximized="1"
     inkscape:current-layer="svg10766" />
  <defs
     id="defs10746">
    <clipPath
       id="clipPath10723">
      <rect
         width="384"
         height="384"
         id="rect10721" />
    </clipPath>
    <clipPath
       id="clipPath10727">
      <rect
         width="384"
         height="384"
         id="rect10725" />
    </clipPath>
    <clipPath
       id="clipPath10731">
      <rect
         width="384"
         height="384"
         id="rect10729" />
    </clipPath>
    <clipPath
       id="clipPath10735">
      <rect
         width="384"
         height="384"
         id="rect10733" />
    </clipPath>
    <clipPath
       id="clipPath10739">
      <rect
         width="384"
         height="384"
         id="rect10737" />
    </clipPath>
    <linearGradient
       id="a"
       x1="24.161"
       x2="470.92"
       y1="255.65"
       y2="-4.7024"
       gradientTransform="translate(-.021237 -.011297)"
       gradientUnits="userSpaceOnUse">
      <stop
         stop-color="#367bf0"
         offset="0"
         id="stop10741" />
      <stop
         stop-color="#b7164b"
         stop-opacity=".99608"
         offset="1"
         id="stop10743" />
    </linearGradient>
  </defs>
  <g
     transform="translate(-.003905)"
     id="g10760">
    <path
       d="m158.18 263.77h67.652v54.723h-67.652z"
       fill="#262833"
       id="path10748" />
    <path
       d="m158.07 264.17h67.852v54.168z"
       fill="#171717"
       id="path10750" />
    <path
       d="m23.996 55.281h336.01c4.5391 0 8.2188 3.4648 8.2188 7.7422v193.58c0 4.2774-3.6797 7.7461-8.2188 7.7461h-336.01c-4.5352 0-8.2148-3.4688-8.2148-7.7461v-193.58c0-4.2773 3.6797-7.7422 8.2148-7.7422z"
       id="path10752" />
    <path
       d="m132.2 317.36h119.6c2.5781 0 4.6641 1.9688 4.6641 4.3984v2.5664c0 2.4258-2.0859 4.3945-4.6641 4.3945h-119.6c-2.5781 0-4.6641-1.9688-4.6641-4.3945v-2.5664c0-2.4297 2.0859-4.3984 4.6641-4.3984z"
       fill="#171717"
       id="path10754" />
    <path
       d="m23.996 59.781h336.01c4.5391 0 8.2187 3.4648 8.2187 7.7422v193.58c0 4.2774-3.6797 7.7461-8.2187 7.7461h-336.01c-4.5352 0-8.2148-3.4688-8.2148-7.7461v-193.58c0-4.2773 3.6797-7.7422 8.2148-7.7422z"
       opacity=".3"
       id="path10756" />
    <rect
       x="24.14"
       y="63.993"
       width="335.73"
       height="191.64"
       rx="3.7555"
       ry="3.7555"
       fill="url(#a)"
       id="rect10758" />
  </g>
  <path
     d="m263.03 209.06v-80.488c0-7.1328-2.7773-12.914-9.9141-12.914h-122.23c-7.1367 0-9.9141 2.7812-9.9141 9.9141v83.488c0 7.1367 2.7773 9.9141 9.9141 9.9141h122.23c7.1367 0 9.9141-2.7773 9.9141-9.9141zm-93.629-38.516 16.145 19.406 22.602-29.094 29.055 38.746h-90.398z"
     opacity=".3"
     id="path10762" />
  <path
     d="m 263.03,201.56 v -80.488 c 0,-7.1328 -2.7773,-12.914 -9.9141,-12.914 h -122.23 c -7.1367,0 -9.9141,2.7812 -9.9141,9.9141 v 83.488 c 0,7.1367 2.7773,9.9141 9.9141,9.9141 h 122.23 c 7.1367,0 9.9141,-2.7773 9.9141,-9.9141 z m -97.68206,-33.30385 8.97461,0.70347 8.87085,10.6626 4.19804,0.45227 v 0 l 16.16838,-20.81244 v 0 l 8.83141,-0.24753 20.15233,26.87393 v 0 l -2.9453,6.21355 H 153.4859 v 0 l -1.8955,-6.15394 z"
     fill="#ffffff"
     id="path10764"
     sodipodi:nodetypes="csssssssscccccccccccccccc" />
</svg>
