<?xml version="1.0" encoding="UTF-8" standalone="no"?>
<svg
   width="512"
   height="512"
   version="1.1"
   viewBox="0 0 384 384"
   id="svg1995882"
   sodipodi:docname="yacreader.svg"
   inkscape:version="1.1.2 (0a00cf5339, 2022-02-04)"
   xmlns:inkscape="http://www.inkscape.org/namespaces/inkscape"
   xmlns:sodipodi="http://sodipodi.sourceforge.net/DTD/sodipodi-0.dtd"
   xmlns="http://www.w3.org/2000/svg"
   xmlns:svg="http://www.w3.org/2000/svg">
  <sodipodi:namedview
     id="namedview1995884"
     pagecolor="#ffffff"
     bordercolor="#666666"
     borderopacity="1.0"
     inkscape:pageshadow="2"
     inkscape:pageopacity="0.0"
     inkscape:pagecheckerboard="0"
     showgrid="false"
     inkscape:zoom="1.6152344"
     inkscape:cx="255.69045"
     inkscape:cy="256"
     inkscape:window-width="1920"
     inkscape:window-height="1051"
     inkscape:window-x="0"
     inkscape:window-y="29"
     inkscape:window-maximized="1"
     inkscape:current-layer="svg1995882" />
  <defs
     id="defs1995874">
    <clipPath
       id="clipPath1995868">
      <rect
         width="384"
         height="384"
         id="rect1995866" />
    </clipPath>
    <clipPath
       id="clipPath1995872">
      <rect
         width="384"
         height="384"
         id="rect1995870" />
    </clipPath>
  </defs>
  <path
     d="m144.66 352.38c-0.57031-0.92187 4.3438-8.8359 10.914-17.594 16.836-22.43 25.977-36.477 18.492-45.152-3.0742-3.5625-7.2695-7.6367-32.32-7.6367-54.23 0-76.453-10.512-93.277-28.719-23.133-25.043-30.824-76.027-18.938-118.53 13.945-49.852 67.273-86.734 146.61-101.4 51.707-6.7695 113.52-6.3359 152.12 30.898 34.211 34.133 41.789 97.227 17.703 147.38-15.762 32.809-44.457 61.172-80.234 70.68-12.555 3.3359-14.133 4.5039-33.305 24.621-20.484 21.496-48.012 34.707-67.156 42.895-10.266 4.3906-18.816 5.4531-20.609 2.5625z"
     fill="#ffc62f"
     id="path1995876" />
  <path
     transform="scale(0.75)"
     d="m 295.24,40.01 c -20.534,0.14121 -40.989,1.9204 -60.379,4.459 -105.79,19.552 -176.89,68.729 -195.48,135.2 -5.4415,19.457 -7.8039,40.248 -7.3145,60.514 0.378,-17.046 2.7649,-34.246 7.3145,-50.514 18.594,-66.469 89.698,-115.65 195.48,-135.2 68.943,-9.026 151.36,-8.4486 202.82,41.197 26.646,26.585 41.168,66.349 42.242,108.15 1.1589,-45.397 -13.478,-89.452 -42.242,-118.15 C 400.695,49.983 347.713,39.649 295.241,40.01 Z m -60.33,361.18 c -2.6698,11.092 -12.907,25.789 -27.477,45.199 -8.7604,11.677 26.78961,1.71014 6.1183,12.58457 20.67131,-10.87443 10.7112,-25.4375 0,0 2.6333,-4.2252 7.06575,-12.20041 11.37855,-17.94941 19.466,-25.933 13.70795,-28.09266 9.97995,-39.83466 z"
     fill="#ffffff"
     opacity="0.3"
     stroke-width="1.3333"
     id="path1995878"
     sodipodi:nodetypes="sccccccccssccccccc" />
  <path
     transform="scale(0.75)"
     d="m 479.93,193.82 c -0.67891,26.595 -6.7752,53.649 -18.639,78.35 -21.016,43.745 -59.275,81.563 -106.98,94.24 -16.74,4.4479 -18.844,6.0052 -44.406,32.828 -27.313,28.661 -64.015,46.277 -89.541,57.193 -9.9604,4.2601 -18.691,6.1553 -23.639,5.3945 -2.7158,4.3574 9.71905,1.90523 5.87725,9.92673 9.71906,1.90524 -4.97366,0.64905 0,0 4.82959,-0.63024 11.01803,-2.43715 17.76095,-5.32123 25.526,-10.917 62.229,-28.532 89.541,-57.193 25.562,-26.823 27.667,-28.38 44.406,-32.828 47.703,-12.677 85.963,-50.495 106.98,-94.24 13.355,-27.805 19.403,-58.593 18.639,-88.35 z M 32.07,230.183 c -0.93882,42.336 10.575,83.724 32.564,107.53 22.432,24.276 52.062,38.291 124.37,38.291 33.401,0 38.995,5.4316 43.094,10.182 1.3258,1.5369 2.2491,3.2048 2.8203,5.0039 1.4437,-5.9976 0.68198,-10.944 -2.8203,-15.004 -4.099,-4.75 -9.6927,-10.182 -43.094,-10.182 -72.307,0 -101.94,-14.015 -124.37,-38.291 -20.254,-21.927 -31.628,-58.769 -32.564,-97.529 z"
     opacity="0.3"
     stroke-width="1.3333"
     id="path1995880"
     sodipodi:nodetypes="cccccccsccccccccscccscsc" />
</svg>
