<?xml version="1.0" encoding="UTF-8" standalone="no"?>
<!-- Created with Inkscape (http://www.inkscape.org/) -->

<svg
   height="20"
   width="20"
   version="1.1"
   viewBox="0 0 5.2916666 5.2916669"
   id="svg11"
   sodipodi:docname="unmaximize_focused_pressed.svg"
   inkscape:version="1.2.1 (9c6d41e410, 2022-07-14, custom)"
   xmlns:inkscape="http://www.inkscape.org/namespaces/inkscape"
   xmlns:sodipodi="http://sodipodi.sourceforge.net/DTD/sodipodi-0.dtd"
   xmlns="http://www.w3.org/2000/svg"
   xmlns:svg="http://www.w3.org/2000/svg"
   xmlns:rdf="http://www.w3.org/1999/02/22-rdf-syntax-ns#"
   xmlns:cc="http://creativecommons.org/ns#"
   xmlns:dc="http://purl.org/dc/elements/1.1/">
  <defs
     id="defs15" />
  <sodipodi:namedview
     pagecolor="#ffffff"
     bordercolor="#666666"
     inkscape:document-rotation="0"
     borderopacity="1"
     objecttolerance="10"
     gridtolerance="10"
     guidetolerance="10"
     inkscape:pageopacity="0"
     inkscape:pageshadow="2"
     inkscape:window-width="1920"
     inkscape:window-height="1051"
     id="namedview13"
     showgrid="false"
     showguides="true"
     inkscape:guide-bbox="true"
     inkscape:zoom="35.9274"
     inkscape:cx="7.0141452"
     inkscape:cy="6.9584774"
     inkscape:window-x="0"
     inkscape:window-y="29"
     inkscape:window-maximized="1"
     inkscape:current-layer="titlebutton-maximize-active"
     inkscape:showpageshadow="2"
     inkscape:pagecheckerboard="0"
     inkscape:deskcolor="#d1d1d1">
    <sodipodi:guide
       position="2.6217223,2.4007907"
       orientation="1,0"
       id="guide17"
       inkscape:locked="false" />
    <sodipodi:guide
       position="3.8147532,2.6364512"
       orientation="0,1"
       id="guide19"
       inkscape:locked="false" />
  </sodipodi:namedview>
  <metadata
     id="metadata2">
    <rdf:RDF>
      <cc:Work
         rdf:about="">
        <dc:format>image/svg+xml</dc:format>
        <dc:type
           rdf:resource="http://purl.org/dc/dcmitype/StillImage" />
        <dc:title />
      </cc:Work>
    </rdf:RDF>
  </metadata>
  <g
     id="titlebutton-maximize-active"
     fill-rule="evenodd"
     transform="matrix(0.0040622,0,0,-0.0040622,0.72816839,4.4993104)">
    <path
       d="m 466.14,10.287 c 251.8,0 455.92,204.13 455.92,455.92 0,251.8 -204.12,455.93 -455.92,455.93 -251.8,0 -455.93,-204.12 -455.93,-455.93 0,-251.8 204.13,-455.92 455.93,-455.92"
       fill="#13c11e"
       id="path4"
       inkscape:connector-curvature="0" />
    <path
       d="m 466.14,49.063 c 230.38,0 417.15,186.77 417.15,417.15 0,230.39 -186.76,417.15 -417.15,417.15 -230.39,0 -417.15,-186.76 -417.15,-417.15 0,-230.38 186.76,-417.15 417.15,-417.15"
       fill="#13c11e"
       id="path6"
       inkscape:connector-curvature="0" />
    <path
       d="M 397.43147,671.42027 423.62435,698.85 H 627.8 c 37.951,0 69.005,-31.051 69.005,-69.005 V 415.18772 l -17.00197,-25.45259 -26.79447,-1.09492 -262.6296,262.62217 z M 519.67933,233.57 H 514.11078 304.47 c -37.955,0 -69.005,31.05 -69.005,69.004 v 213.19805 l 22.36069,18.30778 26.97731,5.29617 260.65211,-260.65211 1.85723,-9.08108"
       fill="#0b7407"
       id="path8"
       inkscape:connector-curvature="0"
       sodipodi:nodetypes="ccsscccccccssccccc" />
  </g>
</svg>
