<?xml version="1.0" encoding="UTF-8" standalone="no"?>
<svg
   width="16"
   height="16"
   version="1.1"
   id="svg1946101"
   sodipodi:docname="emblem-dropbox-syncing.svg"
   inkscape:version="1.1.2 (0a00cf5339, 2022-02-04)"
   xmlns:inkscape="http://www.inkscape.org/namespaces/inkscape"
   xmlns:sodipodi="http://sodipodi.sourceforge.net/DTD/sodipodi-0.dtd"
   xmlns="http://www.w3.org/2000/svg"
   xmlns:svg="http://www.w3.org/2000/svg">
  <defs
     id="defs1946105" />
  <sodipodi:namedview
     id="namedview1946103"
     pagecolor="#000000"
     bordercolor="#666666"
     borderopacity="1.0"
     inkscape:pageshadow="2"
     inkscape:pageopacity="0"
     inkscape:pagecheckerboard="0"
     showgrid="false"
     inkscape:zoom="51.6875"
     inkscape:cx="7.9903265"
     inkscape:cy="8"
     inkscape:window-width="1920"
     inkscape:window-height="1051"
     inkscape:window-x="0"
     inkscape:window-y="29"
     inkscape:window-maximized="1"
     inkscape:current-layer="svg1946101" />
  <circle
     style="fill:#455a64"
     cx="8"
     cy="8"
     r="7"
     id="circle1946097" />
  <path
     style="fill:#ffffff"
     d="M 8.2636719,4.0039062 C 7.9553875,4.0156437 7.6405762,4.060159 7.3164062,4.140625 5.3948162,4.567168 3.9745,6.240627 4,8 H 3.2844784 v 0 l -0.091778,0.2569332 1.1971847,1.5962462 v 0 L 4.6118487,9.8508683 5.8195943,8.2405409 5.7189755,8 V 8 H 5 C 4.99535,7.2298936 5.4005862,6.4646563 6.0039062,5.9121094 7.0456263,4.8955544 8.5923794,4.6691104 9.9121094,5.3808594 10.368789,5.9121164 11.38746,5.3399166 10.84375,4.7910156 10.04446,4.2387216 9.188525,3.9686937 8.2636719,4.0039062 Z m 3.0905751,2.1904314 v 0 L 10.174902,7.7667975 10.21285,8 V 8 H 11 C 11.0046,8.7701064 10.599414,9.5353441 9.9960938,10.087891 8.9543735,11.104446 7.4076206,11.33089 6.0878906,10.619141 5.6312106,10.087885 4.61254,10.660081 5.15625,11.208984 6.22197,11.945376 7.3869137,12.181239 8.6835938,11.859375 10.605184,11.432832 12.0255,9.7593735 12,8 h 0.775705 l 0.05628,-0.2240175 v 0 l -1.18142,-1.5752264 z"
     id="path1946099"
     sodipodi:nodetypes="scccccccccccccccscccccccccccccccc" />
</svg>
