<?xml version="1.0" encoding="UTF-8" standalone="no"?>
<svg
   width="24"
   height="24"
   version="1.1"
   id="svg4243"
   sodipodi:docname="emblem-rabbitvcs-calculating.svg"
   inkscape:version="1.1.2 (0a00cf5339, 2022-02-04)"
   xmlns:inkscape="http://www.inkscape.org/namespaces/inkscape"
   xmlns:sodipodi="http://sodipodi.sourceforge.net/DTD/sodipodi-0.dtd"
   xmlns="http://www.w3.org/2000/svg"
   xmlns:svg="http://www.w3.org/2000/svg">
  <defs
     id="defs4247" />
  <sodipodi:namedview
     id="namedview4245"
     pagecolor="#000000"
     bordercolor="#666666"
     borderopacity="1.0"
     inkscape:pageshadow="2"
     inkscape:pageopacity="0"
     inkscape:pagecheckerboard="0"
     showgrid="false"
     inkscape:zoom="97.462884"
     inkscape:cx="12.025091"
     inkscape:cy="6.2536627"
     inkscape:window-width="1920"
     inkscape:window-height="1051"
     inkscape:window-x="0"
     inkscape:window-y="29"
     inkscape:window-maximized="1"
     inkscape:current-layer="svg4243" />
  <circle
     style="fill:#2b62c0"
     cx="12"
     cy="12"
     r="10"
     id="circle4239" />
  <path
     style="fill:#ffffff"
     d="m 12,3.3884378 v 0 1.4512501 3.2831866 1.4766097 l 0.423503,0.1040637 v 0 L 16.721319,6.695077 v 0 L 16.702365,6.2916554 12.44005,3.3080349 Z m 0,1.4512501 c -0.04442,0 -0.08875,0.1607259 -0.132979,0.1615521 C 8.062395,5.0721223 5,8.1784309 5,12 c 0,3.865993 3.1340068,7 7,7 3.865993,0 7,-3.134007 7,-7 h -3 c 0,2.209139 -1.790861,4 -4,4 C 9.790861,16 8,14.209139 8,12 8,9.8322784 9.7243396,8.0672979 11.876198,8.0018794 11.917312,8.0006295 11.958583,8.1228745 12,8.1228745 Z"
     id="path4241"
     sodipodi:nodetypes="cccccccccccccsssccssscc" />
</svg>
