<?xml version="1.0" encoding="UTF-8" standalone="no"?>
<svg
   width="24"
   height="24"
   version="1"
   id="svg260348"
   sodipodi:docname="emblem-dropbox-app.svg"
   inkscape:version="1.1.2 (0a00cf5339, 2022-02-04)"
   xmlns:inkscape="http://www.inkscape.org/namespaces/inkscape"
   xmlns:sodipodi="http://sodipodi.sourceforge.net/DTD/sodipodi-0.dtd"
   xmlns="http://www.w3.org/2000/svg"
   xmlns:svg="http://www.w3.org/2000/svg">
  <defs
     id="defs260352" />
  <sodipodi:namedview
     id="namedview260350"
     pagecolor="#ffffff"
     bordercolor="#666666"
     borderopacity="1.0"
     inkscape:pageshadow="2"
     inkscape:pageopacity="0.0"
     inkscape:pagecheckerboard="0"
     showgrid="false"
     inkscape:zoom="34.458333"
     inkscape:cx="12.01451"
     inkscape:cy="12"
     inkscape:window-width="1920"
     inkscape:window-height="1051"
     inkscape:window-x="0"
     inkscape:window-y="29"
     inkscape:window-maximized="1"
     inkscape:current-layer="svg260348" />
  <path
     style="fill:#24aa6e"
     d="M 10,2 C 8.892,2 8,2.892 8,4 V 5.7271007 L 7.7801625,6 V 6 H 4 C 2.892,6 2,6.892 2,8 v 3.503154 L 2.3925557,12 v 0 H 4 c 1.108,0 2,0.892 2,2 0,1.108 -0.892,2 -2,2 H 2.3035686 L 2,16.377311 v 0 V 20 c 0,1.108 0.892,2 2,2 H 7.7089856 L 8,21.688106 v 0 V 20 c 0,-1.108 0.892,-2 2,-2 1.108,0 2,0.892 2,2 v 1.648942 L 12.348665,22 v 0 H 16 c 1.108,0 2,-0.892 2,-2 v -3.738537 0 L 18.214466,16 H 20 c 1.108,0 2,-0.892 2,-2 0,-1.108 -0.892,-2 -2,-2 h -1.813644 v 0 L 18,11.774469 V 8 C 18,6.892 17.108,6 16,6 H 12.170988 V 6 L 12,5.7758745 V 4 C 12,2.892 11.108,2 10,2 Z"
     id="path260346"
     sodipodi:nodetypes="sscccsscccssscccsscccssscccsscccssscccsscccss" />
</svg>
