<?xml version="1.0" encoding="UTF-8" standalone="no"?>
<svg
   width="32"
   height="32"
   version="1.1"
   id="svg55"
   sodipodi:docname="emblem-link.svg"
   inkscape:version="1.1.2 (0a00cf5339, 2022-02-04)"
   xmlns:inkscape="http://www.inkscape.org/namespaces/inkscape"
   xmlns:sodipodi="http://sodipodi.sourceforge.net/DTD/sodipodi-0.dtd"
   xmlns="http://www.w3.org/2000/svg"
   xmlns:svg="http://www.w3.org/2000/svg">
  <defs
     id="defs59" />
  <sodipodi:namedview
     id="namedview57"
     pagecolor="#ffffff"
     bordercolor="#666666"
     borderopacity="1.0"
     inkscape:pageshadow="2"
     inkscape:pageopacity="0.0"
     inkscape:pagecheckerboard="0"
     showgrid="false"
     inkscape:zoom="25.84375"
     inkscape:cx="16.019347"
     inkscape:cy="16"
     inkscape:window-width="1920"
     inkscape:window-height="1051"
     inkscape:window-x="0"
     inkscape:window-y="29"
     inkscape:window-maximized="1"
     inkscape:current-layer="svg55" />
  <circle
     style="fill:#455a64"
     cx="16"
     cy="16"
     r="14"
     id="circle51" />
  <path
     style="fill:#ffffff"
     d="m 17,9.5467298 v 0 2.1268102 L 16.728114,12 v 0 H 12.76 c -2.058,0 -3.9594,1.054 -4.9883,2.706 -1.0289,1.651 -1.0289,3.986 0,5.638 0.238525,0.381591 0.7829389,1.174418 1.3507639,1.648607 0.9239491,0.771587 1.9581551,1.155831 2.1966651,0.948387 C 11.535966,22.7524 9.2968139,20.311939 10,20.344 8.9650637,20.24774 9.9246781,21.321277 10.23468,21.37265 10.365897,21.39439 9.974869,20.668368 9.974869,20.668368 9.5357379,19.2613 11.169,17.982 12.76,18 h 4.019887 L 17,18.319689 v 0 2.056785 l 0.617282,0.170715 -0.309702,0.232703 0.309702,-0.232703 6.981626,-5.245818 v 0 l -0.07188,-0.656103 -7.021612,-5.2662091 z"
     id="path53"
     sodipodi:nodetypes="cccccsccsscssccccccccccccc" />
</svg>
