<?xml version="1.0" encoding="UTF-8" standalone="no"?>
<svg
   width="24"
   height="24"
   version="1.1"
   id="svg259755"
   sodipodi:docname="Nextcloud_warn_shared.svg"
   inkscape:version="1.1.2 (0a00cf5339, 2022-02-04)"
   xmlns:inkscape="http://www.inkscape.org/namespaces/inkscape"
   xmlns:sodipodi="http://sodipodi.sourceforge.net/DTD/sodipodi-0.dtd"
   xmlns="http://www.w3.org/2000/svg"
   xmlns:svg="http://www.w3.org/2000/svg">
  <defs
     id="defs259759" />
  <sodipodi:namedview
     id="namedview259757"
     pagecolor="#ffffff"
     bordercolor="#666666"
     borderopacity="1.0"
     inkscape:pageshadow="2"
     inkscape:pageopacity="0.0"
     inkscape:pagecheckerboard="0"
     showgrid="false"
     inkscape:zoom="34.458333"
     inkscape:cx="12.01451"
     inkscape:cy="12"
     inkscape:window-width="1920"
     inkscape:window-height="1051"
     inkscape:window-x="0"
     inkscape:window-y="29"
     inkscape:window-maximized="1"
     inkscape:current-layer="svg259755" />
  <rect
     style="fill:#4c4f5c"
     width="12"
     height="10"
     x="7"
     y="14"
     id="rect259743" />
  <circle
     style="fill:#4c4f5c"
     cx="7"
     cy="19"
     r="5"
     id="circle259745" />
  <circle
     style="fill:#fd7d00"
     cx="19"
     cy="19"
     r="5"
     id="circle259747" />
  <rect
     style="fill:#ffffff"
     height="4"
     x="18"
     y="16"
     id="rect259749"
     width="2"
     ry="0.65236914" />
  <rect
     style="fill:#ffffff"
     width="2"
     height="1"
     x="18"
     y="21"
     id="rect259751"
     ry="0.5" />
  <path
     style="fill:#ffffff"
     d="M 9.5,15 A 1.5,1.5 0 0 0 8,16.5 1.5,1.5 0 0 0 8.0195312,16.736328 L 5.578125,17.957031 a 1.5,1.5 0 0 1 -0.00195,-0.002 A 1.5,1.5 0 0 0 4.5,17.5 1.5,1.5 0 0 0 3,19 1.5,1.5 0 0 0 4.5,20.5 1.5,1.5 0 0 0 5.5761719,20.041016 l 2.4433593,1.222656 A 1.5,1.5 0 0 0 8,21.5 1.5,1.5 0 0 0 9.5,23 1.5,1.5 0 0 0 11,21.5 1.5,1.5 0 0 0 9.5,20 1.5,1.5 0 0 0 8.4238281,20.458984 L 5.9804688,19.236328 A 1.5,1.5 0 0 0 6,19 1.5,1.5 0 0 0 5.9804688,18.761719 L 8.421875,17.541016 A 1.5,1.5 0 0 0 9.5,18 1.5,1.5 0 0 0 11,16.5 1.5,1.5 0 0 0 9.5,15 Z"
     id="path259753" />
</svg>
