<?xml version="1.0" encoding="UTF-8" standalone="no"?>
<svg
   width="16"
   height="16"
   version="1.1"
   viewBox="0 0 12 12"
   id="svg43207"
   sodipodi:docname="package-new.svg"
   inkscape:version="1.1.2 (0a00cf5339, 2022-02-04)"
   xmlns:inkscape="http://www.inkscape.org/namespaces/inkscape"
   xmlns:sodipodi="http://sodipodi.sourceforge.net/DTD/sodipodi-0.dtd"
   xmlns="http://www.w3.org/2000/svg"
   xmlns:svg="http://www.w3.org/2000/svg">
  <defs
     id="defs43211" />
  <sodipodi:namedview
     id="namedview43209"
     pagecolor="#ffffff"
     bordercolor="#666666"
     borderopacity="1.0"
     inkscape:pageshadow="2"
     inkscape:pageopacity="0.0"
     inkscape:pagecheckerboard="0"
     showgrid="false"
     inkscape:zoom="51.6875"
     inkscape:cx="7.9903265"
     inkscape:cy="8.0096735"
     inkscape:window-width="1314"
     inkscape:window-height="900"
     inkscape:window-x="331"
     inkscape:window-y="31"
     inkscape:window-maximized="1"
     inkscape:current-layer="g43205" />
  <g
     transform="scale(.33333)"
     id="g43205">
    <path
       d="m 18.802619,1.3376989 -0.448037,0.035655 0.666489,0.3284315 5.452009,9.0866816 0.728262,0.461533 v 0 h 8.87887 v 0 l 0.621968,0.435465 0.275649,0.842249 v 0 l -7.679839,9.599799 -0.151958,0.956613 v 0 l 2.675328,10.701316 -0.324534,0.90607 v 0 l -0.484392,0.279854 -0.25411,0.146811 v 0 L 28.338223,34.889031 18.36886,29.451197 v 0 l -0.756282,0.01012 -9.9754436,5.441151 v 0 L 6.8833528,34.792997 v 0 L 6.4078489,34.282541 v 0 L 6.2650916,33.439633 8.918905,22.82438 8.7399944,22.174993 v 0 L 1.4626482,13.07831 1.1494713,12.686839 1.4626482,13.07831 1.2608686,12.359929 1.4918135,11.682191 v 0 L 2.1631486,11.25 h 8.6555384 v 0 l 0.736482,-0.508616 5.35442,-8.9240316 0.634265,-0.3794812 v 0 l 0.810728,-0.064518 z"
       fill="#ffc72e"
       id="path43203"
       sodipodi:nodetypes="ccccccccccccccccccccccccccccccccccccccccccccccccc" />
  </g>
</svg>
