<?xml version="1.0" encoding="UTF-8" standalone="no"?>
<svg
   width="16"
   height="16"
   version="1.1"
   viewBox="0 0 12 12"
   id="svg8"
   sodipodi:docname="package-installed-locked.svg"
   inkscape:version="1.1.2 (0a00cf5339, 2022-02-04)"
   xmlns:inkscape="http://www.inkscape.org/namespaces/inkscape"
   xmlns:sodipodi="http://sodipodi.sourceforge.net/DTD/sodipodi-0.dtd"
   xmlns="http://www.w3.org/2000/svg"
   xmlns:svg="http://www.w3.org/2000/svg">
  <defs
     id="defs12" />
  <sodipodi:namedview
     id="namedview10"
     pagecolor="#ffffff"
     bordercolor="#666666"
     borderopacity="1.0"
     inkscape:pageshadow="2"
     inkscape:pageopacity="0.0"
     inkscape:pagecheckerboard="0"
     showgrid="false"
     inkscape:zoom="146.19433"
     inkscape:cx="7.3600667"
     inkscape:cy="5.9167823"
     inkscape:window-width="820"
     inkscape:window-height="900"
     inkscape:window-x="825"
     inkscape:window-y="31"
     inkscape:window-maximized="1"
     inkscape:current-layer="g6" />
  <g
     transform="matrix(.33333 0 0 .33333 0 -.002604)"
     id="g6">
    <path
       d="m36 34.195v-32.398c0-0.99609-0.80469-1.8008-1.8008-1.8008h-32.398c-0.99609 0-1.8008 0.80469-1.8008 1.8008v32.398c0 0.99219 0.80469 1.8008 1.8008 1.8008h32.398c0.99609 0 1.8008-0.80859 1.8008-1.8008z"
       fill="#357af0"
       id="path2" />
    <path
       d="m 11.25,11.25 v 4.340597 L 11.124279,15.75 v 0 H 10.125 C 9.5,15.75 9,16.25 9,16.875 v 11.25 c 0,0.62109 0.5,1.125 1.125,1.125 h 15.75 C 26.5,29.25 27,28.74609 27,28.125 V 16.875 C 27,16.25 26.5,15.75 25.875,15.75 h -0.942491 v 0 L 24.75,15.508178 V 11.25 c 0,-4.5 -2.25,-4.5 -4.5,-4.5 h -4.5 c -2.25,0 -4.5,0 -4.5,4.5 z m 9,0.212279 v 0 4.055376 L 20.075909,15.75 v 0 h -4.088582 v 0 L 15.75,15.529918 l 0,-4.074186 v 0 L 15.982299,11.25 h 4.070936 z"
       fill="#ffffff"
       id="path4"
       sodipodi:nodetypes="scccsssssssscccssssccccccccccccc" />
  </g>
</svg>
