<?xml version="1.0" encoding="UTF-8" standalone="no"?>
<svg
   width="16"
   height="16"
   version="1.1"
   viewBox="0 0 12 12"
   id="svg62642"
   sodipodi:docname="package-installed-updated.svg"
   inkscape:version="1.1.2 (0a00cf5339, 2022-02-04)"
   xmlns:inkscape="http://www.inkscape.org/namespaces/inkscape"
   xmlns:sodipodi="http://sodipodi.sourceforge.net/DTD/sodipodi-0.dtd"
   xmlns="http://www.w3.org/2000/svg"
   xmlns:svg="http://www.w3.org/2000/svg">
  <defs
     id="defs62646" />
  <sodipodi:namedview
     id="namedview62644"
     pagecolor="#ffffff"
     bordercolor="#666666"
     borderopacity="1.0"
     inkscape:pageshadow="2"
     inkscape:pageopacity="0.0"
     inkscape:pagecheckerboard="0"
     showgrid="false"
     inkscape:zoom="51.6875"
     inkscape:cx="7.9903265"
     inkscape:cy="8"
     inkscape:window-width="1920"
     inkscape:window-height="1051"
     inkscape:window-x="0"
     inkscape:window-y="29"
     inkscape:window-maximized="1"
     inkscape:current-layer="g62640" />
  <g
     transform="matrix(.33333 0 0 .33333 6e-8 .0013021)"
     id="g62640">
    <path
       d="m36 34.195v-32.398c0-0.99609-0.80469-1.8008-1.8008-1.8008h-32.398c-0.99609 0-1.8008 0.80469-1.8008 1.8008v32.398c0 0.99219 0.80469 1.8008 1.8008 1.8008h32.398c0.99609 0 1.8008-0.80859 1.8008-1.8008z"
       fill="#357af0"
       id="path62636" />
    <path
       d="M 29.861496,8.7457456 28.237066,8.6999479 16.826271,20.108053 v 0 L 15.75015,20.09035 10.731181,15.071381 9.43258,14.774406 v 0 l -2.0848693,2.082315 v 0 l 0.08485,1.279339 8.3196606,8.319661 v 0 l 1.16489,-0.07609 L 19.4767,23.8169 31.584369,11.715889 31.58259,10.469005 v 0 z"
       fill="#ffffff"
       id="path62638"
       sodipodi:nodetypes="cccccccccccccccccccc" />
  </g>
</svg>
