<?xml version="1.0" encoding="UTF-8" standalone="no"?>
<svg
   width="16"
   height="16"
   version="1.1"
   id="svg6"
   sodipodi:docname="package-available-locked.svg"
   inkscape:version="1.1.2 (0a00cf5339, 2022-02-04)"
   xmlns:inkscape="http://www.inkscape.org/namespaces/inkscape"
   xmlns:sodipodi="http://sodipodi.sourceforge.net/DTD/sodipodi-0.dtd"
   xmlns="http://www.w3.org/2000/svg"
   xmlns:svg="http://www.w3.org/2000/svg">
  <defs
     id="defs10" />
  <sodipodi:namedview
     id="namedview8"
     pagecolor="#ffffff"
     bordercolor="#666666"
     borderopacity="1.0"
     inkscape:pageshadow="2"
     inkscape:pageopacity="0.0"
     inkscape:pagecheckerboard="0"
     showgrid="false"
     inkscape:zoom="51.6875"
     inkscape:cx="7.9903265"
     inkscape:cy="8"
     inkscape:window-width="1152"
     inkscape:window-height="895"
     inkscape:window-x="493"
     inkscape:window-y="31"
     inkscape:window-maximized="1"
     inkscape:current-layer="svg6" />
  <rect
     style="fill:#e6e6e6"
     width="16"
     height="16"
     x="0"
     y="0"
     rx=".8"
     ry=".8"
     id="rect2" />
  <path
     style="fill:#b3b3b3"
     d="M 5,5 V 6.804201 L 4.8232906,7 V 7 H 4.5 C 4.223,7 4,7.2 4,7.5 v 5 C 4,12.7 4.223,13 4.5,13 h 7 c 0.277,0 0.5,-0.3 0.5,-0.5 v -5 C 12,7.2 11.777,7 11.5,7 H 11.22596 V 7 L 11,6.7139256 V 5 C 11,3 10,3 9,3 H 7 C 6,3 5,3 5,5 Z m 4,0.2038205 v 0 1.5468679 L 8.8215689,7 V 7 H 7.2335437 L 7,6.7924645 v 0 -1.6155443 0 L 7.1401066,5 H 8.831181 Z"
     id="path4"
     sodipodi:nodetypes="scccsssssssscccssssccccccccccccc" />
</svg>
