<?xml version="1.0" encoding="UTF-8" standalone="no"?>
<svg
   width="16"
   height="16"
   version="1.1"
   viewBox="0 0 12 12"
   id="svg32500"
   sodipodi:docname="package-purge.svg"
   inkscape:version="1.1.2 (0a00cf5339, 2022-02-04)"
   xmlns:inkscape="http://www.inkscape.org/namespaces/inkscape"
   xmlns:sodipodi="http://sodipodi.sourceforge.net/DTD/sodipodi-0.dtd"
   xmlns="http://www.w3.org/2000/svg"
   xmlns:svg="http://www.w3.org/2000/svg">
  <defs
     id="defs32504" />
  <sodipodi:namedview
     id="namedview32502"
     pagecolor="#ffffff"
     bordercolor="#666666"
     borderopacity="1.0"
     inkscape:pageshadow="2"
     inkscape:pageopacity="0.0"
     inkscape:pagecheckerboard="0"
     showgrid="false"
     inkscape:zoom="51.6875"
     inkscape:cx="8"
     inkscape:cy="8.0096735"
     inkscape:window-width="1880"
     inkscape:window-height="966"
     inkscape:window-x="0"
     inkscape:window-y="29"
     inkscape:window-maximized="1"
     inkscape:current-layer="g32498" />
  <g
     transform="matrix(.33333 0 0 .33333 6e-8 .0013021)"
     id="g32498">
    <path
       d="m36 34.195v-32.398c0-0.99609-0.80469-1.8008-1.8008-1.8008h-32.398c-0.99609 0-1.8008 0.80469-1.8008 1.8008v32.398c0 0.99219 0.80469 1.8008 1.8008 1.8008h32.398c0.99609 0 1.8008-0.80859 1.8008-1.8008z"
       fill="#d41919"
       id="path32494" />
    <path
       d="m 7.5069662,10.686982 v 0 l 7.0375928,7.041043 v 0 l 0.05865,0.485274 -7.1094646,7.11295 -0.057057,1.203433 v 0 l 2.0200841,2.017609 1.2529385,-0.0734 v 0 l 7.03357,-7.033571 v 0 l 0.544174,0.03073 6.93875,6.93875 1.241232,0.21319 v 0 l 2.013521,-2.011054 -0.0058,-1.316842 v 0 L 21.405693,18.2222 v 0 l 0.03736,-0.481783 7.045493,-7.048948 0.106448,-1.1895087 v 0 l -1.993593,-1.991151 v 0 l -1.311966,0.016153 -7.07326,7.0732597 v 0 l -0.532159,-0.0998 -6.986697,-6.9866971 v 0 L 9.4748128,7.4346864 7.4494715,9.4575466 Z"
       fill="#ffffff"
       id="path32496"
       sodipodi:nodetypes="ccccccccccccccccccccccccccccccccccccc" />
  </g>
</svg>
