<?xml version="1.0" encoding="UTF-8" standalone="no"?>
<svg
   width="16"
   height="16"
   version="1.1"
   viewBox="0 0 12 12"
   id="svg14302"
   sodipodi:docname="package-remove.svg"
   inkscape:version="1.1.2 (0a00cf5339, 2022-02-04)"
   xmlns:inkscape="http://www.inkscape.org/namespaces/inkscape"
   xmlns:sodipodi="http://sodipodi.sourceforge.net/DTD/sodipodi-0.dtd"
   xmlns="http://www.w3.org/2000/svg"
   xmlns:svg="http://www.w3.org/2000/svg">
  <defs
     id="defs14306" />
  <sodipodi:namedview
     id="namedview14304"
     pagecolor="#ffffff"
     bordercolor="#666666"
     borderopacity="1.0"
     inkscape:pageshadow="2"
     inkscape:pageopacity="0.0"
     inkscape:pagecheckerboard="0"
     showgrid="false"
     inkscape:zoom="51.6875"
     inkscape:cx="8"
     inkscape:cy="8.0096735"
     inkscape:window-width="1880"
     inkscape:window-height="966"
     inkscape:window-x="0"
     inkscape:window-y="29"
     inkscape:window-maximized="1"
     inkscape:current-layer="g14300" />
  <g
     transform="matrix(.33333 0 0 .33333 6e-8 .0013021)"
     id="g14300">
    <path
       d="m36 34.195v-32.398c0-0.99609-0.80469-1.8008-1.8008-1.8008h-32.398c-0.99609 0-1.8008 0.80469-1.8008 1.8008v32.398c0 0.99219 0.80469 1.8008 1.8008 1.8008h32.398c0.99609 0 1.8008-0.80859 1.8008-1.8008z"
       fill="#fd7d00"
       id="path14296" />
    <path
       d="m 7.3823594,9.5245765 -0.014248,1.0234825 7.0673651,7.070831 0.01546,0.746755 v 0 l -6.9501029,6.95351 v 0 l -0.024628,1.249998 1.8337341,1.831488 v 0 l 1.3213338,0.151687 6.981642,-6.981642 0.587839,-0.186333 v 0 l 7.059757,7.059757 1.239461,0.146389 v 0 l 1.984962,-1.982531 v 0 L 28.4367,25.256656 21.405659,18.222168 v 0 l 0.05924,-0.503603 7.074208,-7.077677 v 0 l 0.0015,-1.1933017 -1.883907,-1.8815988 v 0 l -1.356701,-0.049585 -7.040071,7.0400714 v 0 l -0.532201,-0.01235 -7.001503,-7.0015033 v 0 L 9.5010857,7.4084456 Z"
       fill="#ffffff"
       id="path14298"
       sodipodi:nodetypes="cccccccccccccccccccccccccccccccccccc" />
  </g>
</svg>
