<?xml version="1.0" encoding="UTF-8" standalone="no"?>
<svg
   width="16"
   height="16"
   version="1.1"
   viewBox="0 0 12 12"
   id="svg20985"
   sodipodi:docname="package-reinstall.svg"
   inkscape:version="1.1.2 (0a00cf5339, 2022-02-04)"
   xmlns:inkscape="http://www.inkscape.org/namespaces/inkscape"
   xmlns:sodipodi="http://sodipodi.sourceforge.net/DTD/sodipodi-0.dtd"
   xmlns="http://www.w3.org/2000/svg"
   xmlns:svg="http://www.w3.org/2000/svg">
  <defs
     id="defs20989" />
  <sodipodi:namedview
     id="namedview20987"
     pagecolor="#ffffff"
     bordercolor="#666666"
     borderopacity="1.0"
     inkscape:pageshadow="2"
     inkscape:pageopacity="0.0"
     inkscape:pagecheckerboard="0"
     showgrid="false"
     inkscape:zoom="51.6875"
     inkscape:cx="7.9903265"
     inkscape:cy="8"
     inkscape:window-width="1920"
     inkscape:window-height="1051"
     inkscape:window-x="0"
     inkscape:window-y="29"
     inkscape:window-maximized="1"
     inkscape:current-layer="g20983" />
  <g
     transform="matrix(.33333 0 0 .33333 2.4e-7 .0013023)"
     id="g20983">
    <path
       d="m36 34.195v-32.398c0-0.99609-0.80469-1.8008-1.8008-1.8008h-32.398c-0.99609 0-1.8008 0.80469-1.8008 1.8008v32.398c0 0.99219 0.80469 1.8008 1.8008 1.8008h32.398c0.99609 0 1.8008-0.80859 1.8008-1.8008z"
       fill="#0aa15c"
       id="path20979" />
    <path
       d="M 7.9154236,6.75 6.75,7.908527 V 28.547271 L 7.4027728,29.25 v 0 H 15.75 v -3.970563 0 L 15.042399,24.75 h -3.226272 v 0 L 11.25,24.163836 v -12.15569 0 L 12.193131,11.25 h 12.007571 v 0 L 24.75,11.842345 24.75,20.25 h -3.595082 v 0 l -0.274772,0.840195 5.732781,7.643708 v 0 l 0.820948,-0.0624 5.745819,-7.661092 L 32.746891,20.25 v 0 H 29.25 V 7.4509107 L 28.513358,6.75 v 0 z"
       fill="#ffffff"
       id="path20981"
       sodipodi:nodetypes="ccccccccccccccccccccccccccccccccc" />
  </g>
</svg>
