<?xml version="1.0" encoding="UTF-8" standalone="no"?>
<svg
   width="512"
   height="512"
   version="1.1"
   viewBox="0 0 384 384"
   id="svg481119"
   sodipodi:docname="4kslideshowmaker.svg"
   inkscape:version="1.1.2 (0a00cf5339, 2022-02-04)"
   xmlns:inkscape="http://www.inkscape.org/namespaces/inkscape"
   xmlns:sodipodi="http://sodipodi.sourceforge.net/DTD/sodipodi-0.dtd"
   xmlns="http://www.w3.org/2000/svg"
   xmlns:svg="http://www.w3.org/2000/svg">
  <sodipodi:namedview
     id="namedview481121"
     pagecolor="#ffffff"
     bordercolor="#666666"
     borderopacity="1.0"
     inkscape:pageshadow="2"
     inkscape:pageopacity="0.0"
     inkscape:pagecheckerboard="0"
     showgrid="false"
     inkscape:zoom="1.6152344"
     inkscape:cx="255.69045"
     inkscape:cy="256"
     inkscape:window-width="1920"
     inkscape:window-height="1051"
     inkscape:window-x="0"
     inkscape:window-y="29"
     inkscape:window-maximized="1"
     inkscape:current-layer="svg481119" />
  <defs
     id="defs481107">
    <clipPath
       id="clipPath481097">
      <rect
         width="384"
         height="384"
         id="rect481095" />
    </clipPath>
    <clipPath
       id="clipPath481101">
      <rect
         width="384"
         height="384"
         id="rect481099" />
    </clipPath>
    <clipPath
       id="clipPath481105">
      <rect
         width="384"
         height="384"
         id="rect481103" />
    </clipPath>
  </defs>
  <path
     d="m132.04 54c-45.66 0-83.961 38.309-83.961 83.98 0 17.992 6.0938 34.723 16.094 48.535l-31.52 52.477c-23.988 39.965 4.7695 90.828 51.375 90.867l215.9 0.14063c44.582 0.0156 73.598-46.895 53.684-86.789l-47.977-96.047c-17.023-33.98-60.949-43.766-90.781-20.223-5.6055-40.594-40.922-72.941-82.812-72.941z"
     fill="#a12328"
     id="path481109" />
  <path
     d="m132 121.5c-13.254 0-24 10.746-24 24s10.746 24 24 24 24-10.746 24-24-10.746-24-24-24zm120 60-36 54-36-30-36 48-24-36l-36 59.93 216 0.14061z"
     opacity=".3"
     id="path481111" />
  <path
     d="m 132,114 c -13.254,0 -24,10.746 -24,24 0,13.254 10.746,24 24,24 13.254,0 24,-10.746 24,-24 0,-13.254 -10.746,-24 -24,-24 z m 120,67.5 -5.16061,0.24091 -28.06047,42.09071 v 0 l -5.17233,2.17387 -30.13059,-25.10882 -6.71364,1.42018 v 0 l -29.59875,39.465 -5.96674,0.0135 v 0 l -17.59901,-26.39851 -6.76902,-0.1177 v 0 l -29.743885,49.51532 v 0 l 3.402472,5.13981 203.684193,0.13261 v 0 l 2.67948,-6.29863 -41.25468,-82.57006 z"
     fill="#ffffff"
     id="path481113"
     sodipodi:nodetypes="ssssscccccccccccccccccccccc" />
  <path
     transform="scale(.75)"
     d="m64.223 178.91c-0.07842 1.6808-0.125 3.3695-0.125 5.0664 0 21.998 6.847 42.571 18.262 60.037l3.1973-5.3242c-12.414-17.147-20.304-37.669-21.334-59.779zm-32.057 175.74c-2.8057 43.593 31.244 85.121 79.865 85.162l287.86 0.1875c48.199 0.0169 82.75-41.103 79.941-85.018-2.5512 39.958-35.425 75.033-79.941 75.018l-287.86-0.1875c-44.883-0.03762-77.345-35.429-79.865-75.162z"
     opacity=".3"
     stroke-width="1.3333"
     id="path481115" />
  <path
     transform="scale(.75)"
     d="m176.05 72c-60.88 0-111.95 51.079-111.95 111.97 0 1.6538 0.04872 3.2965 0.125 4.9336 2.7357-58.636 52.641-106.91 111.82-106.91 55.854 0 102.94 43.131 110.42 97.256 39.776-31.391 98.343-18.344 121.04 26.963l63.969 128.06c5.0223 10.061 7.7081 20.457 8.3633 30.701 0.85539-13.398-1.696-27.344-8.3633-40.701l-63.969-128.06c-22.698-45.307-81.265-58.354-121.04-26.963-7.474-54.125-54.562-97.256-110.42-97.256zm-93.688 182.01-38.828 64.645c-8.8826 14.799-12.334 30.717-11.365 45.994 0.78012-12.121 4.4067-24.401 11.365-35.994l42.025-69.969c-1.1071-1.5291-2.1637-3.0943-3.1973-4.6758z"
     fill="#fff"
     opacity=".3"
     stroke-width="1.3333"
     id="path481117" />
</svg>
