<?xml version="1.0" encoding="UTF-8" standalone="no"?>
<svg
   width="512"
   height="512"
   version="1.1"
   viewBox="0 0 384 384"
   id="svg503254"
   sodipodi:docname="4kvideodownloader.svg"
   inkscape:version="1.1.2 (0a00cf5339, 2022-02-04)"
   xmlns:inkscape="http://www.inkscape.org/namespaces/inkscape"
   xmlns:sodipodi="http://sodipodi.sourceforge.net/DTD/sodipodi-0.dtd"
   xmlns="http://www.w3.org/2000/svg"
   xmlns:svg="http://www.w3.org/2000/svg">
  <defs
     id="defs503258" />
  <sodipodi:namedview
     id="namedview503256"
     pagecolor="#ffffff"
     bordercolor="#666666"
     borderopacity="1.0"
     inkscape:pageshadow="2"
     inkscape:pageopacity="0.0"
     inkscape:pagecheckerboard="0"
     showgrid="false"
     inkscape:zoom="1.6152344"
     inkscape:cx="255.69045"
     inkscape:cy="256"
     inkscape:window-width="1920"
     inkscape:window-height="1051"
     inkscape:window-x="0"
     inkscape:window-y="29"
     inkscape:window-maximized="1"
     inkscape:current-layer="svg503254" />
  <path
     d="m219.13 74.5c-35.719 0-67.582 21.039-81.883 53.785-24.527 3.1367-45.328 18.797-55.008 41.734-36.859 1.5273-66.488 32.504-66.488 69.75 0 38.449 30.902 69.73 69.18 69.73h214.14c38.281 0 69.18-31.281 69.18-69.73 0-35.109-25.355-64.285-59.652-69.016 0.15625-2.1133 0.24609-4.2695 0.24609-6.3711 0-49.633-40.324-89.883-89.715-89.883z"
     fill="#0aa15c"
     fill-opacity=".99608"
     id="path503244" />
  <path
     d="m308.7 161.46c-0.0391 0.86718-0.0312 1.7344-0.0976 2.5898 0.0781 8e-3 0.15234 0.043 0.23046 0.0508-4e-3 -0.89062-0.10156-1.7578-0.13281-2.6406zm59.391 74.766c-1.6602 36.969-31.801 66.551-69.012 66.551h-214.15c-37.156 0-67.277-29.504-69.012-66.402-0.05859 1.1289-0.16406 2.25-0.16406 3.3906 0 38.453 30.898 69.734 69.176 69.734h214.15c38.277 0 69.176-31.281 69.176-69.734 0-1.1914-0.10547-2.3594-0.16406-3.5391z"
     fill="#473323"
     fill-opacity=".31373"
     id="path503246" />
  <path
     d="m177.93 176.43-0.27246 29.077-0.27393 29.086-13.718 0.27392c-8.9024 0.17969-13.72 0.47658-13.72 0.84375 0 1.1016 49.918 56.2 50.801 56.079 0.47655-0.0704 12.168-12.681 25.985-28.028 14.598-16.211 24.914-28.104 24.633-28.386-0.26955-0.26563-6.5278-0.55081-13.915-0.63281l-13.425-0.14941-0.27393-29.086-0.27246-29.077z"
     opacity=".3"
     stroke-width=".75"
     style="paint-order:markers stroke fill"
     id="path503248" />
  <path
     transform="scale(0.75)"
     d="m 237.24,225.24 -0.36328,38.77 -0.36524,38.781 -18.291,0.36523 c -3.38162,0.0683 -6.32115,0.14919 -8.79603,0.24137 -6.21234,0.23137 -4.05607,1.5887 -4.05607,1.5887 9.49697,-0.88363 -3.15978,2.30628 0.56532,6.58925 16.39641,18.85195 60.76868,67.60869 61.72778,67.47668 0.6354,-0.0938 16.225,-16.908 34.646,-37.371 11.34115,-12.59449 20.74406,-23.23442 26.54284,-29.99579 4.15325,-4.84267 -3.86194,-8.81955 1.21961,-8.33588 -0.16809,-0.16565 2.9986,0.14667 0,0 -3.4126,-0.16693 -8.22885,-0.30188 -13.47145,-0.36008 l -17.9,-0.19921 -0.36523,-38.781 -0.36328,-38.77 z"
     fill="#ffffff"
     style="paint-order:markers stroke fill"
     id="path503250"
     sodipodi:nodetypes="ccccsssccscsccccc" />
  <path
     transform="scale(.75)"
     d="m292.17 99.334c-47.625 0-90.11 28.051-109.18 71.713-32.703 4.1823-60.438 25.063-73.344 55.646-49.146 2.0364-88.65 43.339-88.65 93 0 1.6913 0.046198 3.3716 0.13477 5.041 2.5246-47.424 41.015-86.073 88.516-88.041 12.906-30.583 40.641-51.464 73.344-55.646 19.068-43.661 61.553-71.713 109.18-71.713 64.125 0 116.78 50.888 119.5 114.66 0.0715-1.614 0.11914-3.2256 0.11914-4.8164 0-66.177-53.765-119.84-119.62-119.84zm119.6 128.39c0.00579 0.48495 0.01758 0.96875 0.01758 1.4551 0 2.8021-0.11981 5.6764-0.32813 8.4942 44.109 6.0839 77.117 42.496 79.4 87.08 0.08918-1.6752 0.13672-3.3613 0.13672-5.0586 0-46.706-33.656-85.529-79.227-91.971z"
     fill="#fff"
     fill-opacity=".99608"
     opacity=".3"
     stroke-width="1.3333"
     id="path503252" />
</svg>
