<?xml version="1.0" encoding="UTF-8" standalone="no"?>
<svg
   width="512"
   height="512"
   version="1.1"
   id="svg1848788"
   sodipodi:docname="Alva.svg"
   inkscape:version="1.1.2 (0a00cf5339, 2022-02-04)"
   xmlns:inkscape="http://www.inkscape.org/namespaces/inkscape"
   xmlns:sodipodi="http://sodipodi.sourceforge.net/DTD/sodipodi-0.dtd"
   xmlns="http://www.w3.org/2000/svg"
   xmlns:svg="http://www.w3.org/2000/svg">
  <sodipodi:namedview
     id="namedview1848790"
     pagecolor="#ffffff"
     bordercolor="#666666"
     borderopacity="1.0"
     inkscape:pageshadow="2"
     inkscape:pageopacity="0.0"
     inkscape:pagecheckerboard="0"
     showgrid="false"
     inkscape:zoom="1.6152344"
     inkscape:cx="255.69045"
     inkscape:cy="256"
     inkscape:window-width="1920"
     inkscape:window-height="1051"
     inkscape:window-x="0"
     inkscape:window-y="29"
     inkscape:window-maximized="1"
     inkscape:current-layer="g1848784" />
  <defs
     id="defs1848760">
    <linearGradient
       id="b"
       x1="470.2"
       x2="647.84"
       y1="416.22"
       y2="229.01"
       gradientTransform="translate(-304.3 -9.5289)"
       gradientUnits="userSpaceOnUse">
      <stop
         stop-color="#b8174c"
         offset="0"
         id="stop1848745" />
      <stop
         stop-color="#fd3535"
         offset="1"
         id="stop1848747" />
    </linearGradient>
    <linearGradient
       id="a"
       x1="-111.95"
       x2="-249.63"
       y1="288.42"
       y2="111.17"
       gradientTransform="translate(395.53 9.7279)"
       gradientUnits="userSpaceOnUse">
      <stop
         stop-color="#367bf0"
         offset="0"
         id="stop1848750" />
      <stop
         stop-color="#b8174c"
         offset="1"
         id="stop1848752" />
    </linearGradient>
    <linearGradient
       id="c"
       x1="223.86"
       x2="280.11"
       y1="260.02"
       y2="260.02"
       gradientUnits="userSpaceOnUse">
      <stop
         offset="0"
         id="stop1848755" />
      <stop
         stop-opacity="0"
         offset="1"
         id="stop1848757" />
    </linearGradient>
  </defs>
  <g
     id="g1848786">
    <circle
       cx="256"
       cy="256"
       r="225"
       fill="#fff"
       opacity=".2"
       stroke="#000"
       stroke-width="10"
       id="circle1848762" />
    <circle
       cx="256"
       cy="256"
       r="225"
       fill="#fff"
       stroke-width="8.0357"
       id="circle1848764" />
    <g
       fill-rule="evenodd"
       stroke-width="8.0357"
       id="g1848772">
      <path
         d="m354.76 241.89c4.5894 0 7.3212 5.4004 4.644 9.2579l-125.23 181.13c-3.2782 4.629-10.326 2.3144-10.326-3.4165v-181.13c0-3.1961 2.5679-5.8412 5.6821-5.8412z"
         opacity=".3"
         id="path1848766" />
      <path
         d="m354.76 231.89c4.5894 0 7.3212 5.4004 4.644 9.2579l-125.23 181.13c-3.2782 4.629-10.326 2.3144-10.326-3.4166v-181.13c0-3.1961 2.5679-5.8412 5.6821-5.8412z"
         fill="url(#b)"
         id="path1848768" />
      <path
         d="m274.36 105.29a5.4644 5.5102 0 0 0-4.5358 2.4797l-125.24 181.12c-2.7322 3.8571-7e-3 9.2599 4.5829 9.2599h125.24c3.1147 0 5.6972-2.6582 5.6972-5.8542v-181.1c0-3.6366-2.8482-5.9012-5.7443-5.9012zm-18.363 64.882v103.87h-71.835z"
         opacity=".3"
         id="path1848770" />
    </g>
    <path
       d="m256 31a225 225 0 0 0-225 225 225 225 0 0 0 0.20703 5.8535 225 225 0 0 1 224.79-220.85 225 225 0 0 1 224.79 219.15 225 225 0 0 0 0.20703-4.1465 225 225 0 0 0-225-225z"
       fill="#040000"
       opacity=".1"
       stroke-width="8.0357"
       id="path1848774" />
    <path
       d="m480.79 250.15a225 225 0 0 1-224.79 220.85 225 225 0 0 1-224.79-219.15 225 225 0 0 0-0.20703 4.1465 225 225 0 0 0 225 225 225 225 0 0 0 225-225 225 225 0 0 0-0.20703-5.8535z"
       opacity=".3"
       stroke-width="8.0357"
       id="path1848776" />
    <g
       fill-rule="evenodd"
       stroke-width="8.0357"
       id="g1848784">
      <path
         d="m 274.36,95.286 c -1.82809,0.0094 -3.5304,0.940087 -4.5358,2.4797 l -125.24,181.12 c -2.7322,3.8571 -0.007,9.2599 4.5829,9.2599 h 125.24 c 3.1147,0 5.6972,-2.6582 5.6972,-5.8542 v -181.1 c 0,-3.6367 -2.8482,-5.9012 -5.7443,-5.9012 z m -23.86178,72.83297 5.49878,2.40176 v 87.19122 l -5.32208,6.32605 v 0 h -58.33136 l -2.16665,-8.69727 v 0 z"
         fill="url(#a)"
         id="path1848778"
         sodipodi:nodetypes="cccsssscccccccccccc" />
      <path
         d="m256 231.89v32.143h-32.143v24.107h50.553c3.1147 0 5.6972-2.6582 5.6972-5.8542v-50.396z"
         fill="#622e78"
         id="path1848780" />
      <path
         d="m256 231.89v32.143h-32.143v24.107h50.553c3.1147 0 5.6972-2.6582 5.6972-5.8542v-50.396z"
         fill="url(#c)"
         opacity=".3"
         id="path1848782" />
    </g>
  </g>
</svg>
