<?xml version="1.0" encoding="UTF-8" standalone="no"?>
<svg
   width="512"
   height="512"
   version="1.1"
   viewBox="0 0 384 384"
   id="svg2306235"
   sodipodi:docname="chrome-fjliknjliaohjgjajlgolhijphojjdkc-Default.svg"
   inkscape:version="1.1.2 (0a00cf5339, 2022-02-04)"
   xmlns:inkscape="http://www.inkscape.org/namespaces/inkscape"
   xmlns:sodipodi="http://sodipodi.sourceforge.net/DTD/sodipodi-0.dtd"
   xmlns="http://www.w3.org/2000/svg"
   xmlns:svg="http://www.w3.org/2000/svg">
  <sodipodi:namedview
     id="namedview2306237"
     pagecolor="#ffffff"
     bordercolor="#666666"
     borderopacity="1.0"
     inkscape:pageshadow="2"
     inkscape:pageopacity="0.0"
     inkscape:pagecheckerboard="0"
     showgrid="false"
     inkscape:zoom="1.6152344"
     inkscape:cx="255.69045"
     inkscape:cy="256"
     inkscape:window-width="1920"
     inkscape:window-height="1051"
     inkscape:window-x="0"
     inkscape:window-y="29"
     inkscape:window-maximized="1"
     inkscape:current-layer="svg2306235" />
  <defs
     id="defs2306213">
    <clipPath
       id="clipPath2306199">
      <rect
         width="384"
         height="384"
         id="rect2306197" />
    </clipPath>
    <clipPath
       id="clipPath2306203">
      <rect
         width="384"
         height="384"
         id="rect2306201" />
    </clipPath>
    <clipPath
       id="clipPath2306207">
      <rect
         width="384"
         height="384"
         id="rect2306205" />
    </clipPath>
    <clipPath
       id="clipPath2306211">
      <rect
         width="384"
         height="384"
         id="rect2306209" />
    </clipPath>
  </defs>
  <path
     d="m360 343.2v-302.4c0-9.2773-7.5234-16.801-16.801-16.801h-302.4c-9.2773 0-16.801 7.5234-16.801 16.801v302.4c0 9.2773 7.5234 16.801 16.801 16.801h302.4c9.2773 0 16.801-7.5234 16.801-16.801z"
     fill="#fda34a"
     id="path2306215" />
  <path
     d="m64.078 67.508c-2.2617 0-4.0781 1.8164-4.0781 4.0742v255.84c0 2.2578 1.8164 4.0742 4.0781 4.0742h255.86c2.2539 0 4.0664-1.8125 4.0664-4.0781v-255.84c0-2.2617-1.8125-4.0781-4.0781-4.0781z"
     opacity=".3"
     id="path2306217" />
  <path
     d="m64.078 60.008c-2.2617 0-4.0781 1.8164-4.0781 4.0742v255.84c0 2.2578 1.8164 4.0742 4.0781 4.0742h255.86c2.2539 0 4.0664-1.8125 4.0664-4.0781v-255.84c0-2.2617-1.8125-4.0781-4.0781-4.0781z"
     fill="#fff"
     id="path2306219" />
  <path
     d="m108 67.5v276l83.996-48 84 48v-276z"
     opacity=".3"
     id="path2306221" />
  <path
     d="m 108,60 v 266.29566 0 l 10.58699,3.65434 69.61484,-39.7818 v 0 l 7.67776,0.051 69.65705,39.80402 10.45936,-2.87083 v 0 V 60 Z"
     fill="#e32e2e"
     id="path2306223"
     sodipodi:nodetypes="cccccccccccc" />
  <path
     d="M 192,127.5 210,162 246.9741,173.03057 222.008,198 l 4.9881,34.89066 -5.32798,3.93486 v 0 L 192.0039,222 162.04683,236.97521 162.0078,198 139.42944,166.93919 174.0038,162 Z"
     fill="#ffffff"
     id="path2306225"
     sodipodi:nodetypes="ccccccccccccc" />
  <path
     d="m 192,127.5 18,42 42.004,6 -29.996,30 6.0039,41.996 -36.008,-17.996 -29.95707,7.47521 -0.039,-31.47521 -30.004,-30 42,-6 z"
     fill="#272727"
     opacity="0.3"
     id="path2306227"
     sodipodi:nodetypes="ccccccccccc" />
  <path
     d="m 192,127.5 3.07368,-0.32807 L 210,162 l 34.84431,4.97729 2.12979,6.05328 v 0 L 222.008,198 221.66812,236.82552 192.0039,222 162.04683,236.97521 v 0 L 156.95292,233.3578 162.0078,198 l -23.90497,-23.90178 1.32661,-7.15903 v 0 L 174.0038,162 188.76943,127.53958 Z"
     fill="#ffffff"
     id="path2306229"
     sodipodi:nodetypes="ccccccccccccccccccc" />
  <path
     transform="scale(.75)"
     d="m32 447.6v10c0 12.37 10.031 22.4 22.4 22.4h403.2c12.37 0 22.4-10.031 22.4-22.4v-10c0 12.37-10.031 22.4-22.4 22.4h-403.2c-12.37 0-22.4-10.031-22.4-22.4z"
     fill="#120900"
     opacity=".3"
     stroke-width="1.3333"
     id="path2306231" />
  <path
     transform="scale(.75)"
     d="m54.4 32c-12.37 0-22.4 10.031-22.4 22.4v10c0-12.37 10.031-22.4 22.4-22.4h403.2c12.37 0 22.4 10.031 22.4 22.4v-10c0-12.37-10.031-22.4-22.4-22.4h-403.2z"
     fill="#fff"
     opacity=".3"
     stroke-width="1.3333"
     id="path2306233" />
</svg>
