<?xml version="1.0" encoding="UTF-8" standalone="no"?>
<svg
   width="32"
   height="32"
   version="1"
   id="svg27485"
   sodipodi:docname="darktable.svg"
   inkscape:version="1.1.2 (0a00cf5339, 2022-02-04)"
   xmlns:inkscape="http://www.inkscape.org/namespaces/inkscape"
   xmlns:sodipodi="http://sodipodi.sourceforge.net/DTD/sodipodi-0.dtd"
   xmlns="http://www.w3.org/2000/svg"
   xmlns:svg="http://www.w3.org/2000/svg">
  <defs
     id="defs27489" />
  <sodipodi:namedview
     id="namedview27487"
     pagecolor="#ffffff"
     bordercolor="#666666"
     borderopacity="1.0"
     inkscape:pageshadow="2"
     inkscape:pageopacity="0.0"
     inkscape:pagecheckerboard="0"
     showgrid="false"
     inkscape:zoom="25.84375"
     inkscape:cx="15.980653"
     inkscape:cy="16"
     inkscape:window-width="1920"
     inkscape:window-height="1051"
     inkscape:window-x="0"
     inkscape:window-y="29"
     inkscape:window-maximized="1"
     inkscape:current-layer="svg27485" />
  <path
     fill="#343434"
     d="m28 16a12 12 0 0 1 -12 12 12 12 0 0 1 -12 -12 12 12 0 0 1 12 -12 12 12 0 0 1 12 12z"
     id="path27467" />
  <path
     fill="#e9721a"
     d="M 18.668,3.5566 16.145488,11.637872 27.877,10.307 C 26.049,6.8451 22.68,4.3011 18.668,3.5566 Z"
     id="path27469"
     sodipodi:nodetypes="cccc" />
  <path
     fill="#e3bf20"
     d="m 28.264,12.056 -8.383388,1.553515 -0.425614,0.749588 v 0 L 26.9394,23.2949 c 2.1267,-3.2922 2.6771,-7.4402 1.3246,-11.239 z"
     id="path27471"
     sodipodi:nodetypes="ccccccc" />
  <path
     fill="#28a226"
     d="m 25.596,24.499 -5.581468,-6.410348 -0.856078,0.06674 v 0 L 15.0617,28.9874 c 3.9551,0.16981 7.8738,-1.4343 10.534,-4.4884 z"
     id="path27473"
     sodipodi:nodetypes="ccccccc" />
  <path
     fill="#2977d1"
     d="m 13.332,28.443 2.86729,-8.046704 -0.444553,-0.633124 v 0 L 4.123,21.693 c 1.8284,3.462 5.1967,6.0059 9.2096,6.7505 z"
     id="path27475"
     sodipodi:nodetypes="ccccccc" />
  <path
     fill="#c029c0"
     d="M 3.7363,19.944 13.032,18.221 5.4704873,9.1939521 v 0 C 5.3487243,9.3824192 4.8226413,9.0848402 4.7112743,9.2786934 2.8774253,12.470817 2.4613273,16.362505 3.7363,19.9441 Z"
     id="path27477"
     sodipodi:nodetypes="ccccscc" />
  <path
     fill="#c01728"
     d="m 6.4038,7.5006 5.665525,6.506177 v 0 L 12.836146,13.858978 16.938,3.012 C 12.983,2.8424 9.0643,4.4465 6.404,7.5006 Z"
     id="path27479"
     sodipodi:nodetypes="ccccccc" />
  <path
     fill="#ffffff"
     opacity="0.2"
     d="M 16.938,3.012 C 6.8287612,0.49906699 9.0647,4.4462 6.404,7.5003 L 6.8652,8.0296 C 9.4173,5.3856 12.949,3.9643 16.559,4.0159 Z m 1.73,0.5449 -2.866231,8.044099 0.343719,0.03687 0.22521,0.57862 0.321061,-0.0532 L 16.145488,11.637872 18.668,4.5569 c 3.649,0.6771 6.75,2.8514 8.66,5.8414 v -2e-4 C 27.173923,10.106273 27.008906,9.8209738 26.833484,9.5427288 24.927661,6.519812 22.342756,4.2387399 18.668,3.5569 Z M 5.06,9.7054 C 4.8786133,9.9861894 4.7090326,9.2732 4.5513749,9.565686 3.4654099,11.580364 2.9451448,13.854825 3.0288,16.1453 3.1247,13.8663 3.8116,11.6383 5.06,9.7054 l 7.2465,8.6499 0.724,-0.134 L 5.7298804,9.5051634 Z M 28.264,12.0573 20.176239,13.555646 19.693,14.6453 v 0 l 0.645992,-0.119687 0.343414,-0.06363 L 28.264,13.0573 c 0.442,1.242 0.66,2.521 0.707,3.797 0.067,-1.603 -0.149,-3.229 -0.707,-4.797 z M 20.202942,18.305288 19.001988,18.571742 15.062,28.9883 c 0.128,0.006 0.254,-0.007 0.381,-0.006 l 3.750181,-9.915954 v 0 L 19.910763,18.969706 25.135,24.9713 c 0.152,-0.158 0.315,-0.304 0.461,-0.471 z m -4.784001,1.513896 v 0 L 4.123,21.6933 c 0.1657,0.314 0.3586,0.611 0.5489,0.909 l 11.416,-1.895 10e-5,-6e-4 z"
     id="path27481"
     sodipodi:nodetypes="ccccccccccccccsccscccccccccccccccccccccccccccccccc" />
  <path
     opacity="0.2"
     d="M 16.938,4.0114 C 16.81,4.006 16.684,4.0191 16.557,4.0173 L 12.564,14.5753 6.8652,8.0286 C 6.7125,8.1868 6.5497,8.3324 6.4043,8.4993 l 6.1597,7.076 4.374,-11.564 z m 10.39,6.3867 -10.636241,1.765191 v 0 L 15.533,13.3547 27.877,11.3067 c -0.166,-0.314 -0.359,-0.6106 -0.549,-0.9086 z M 20.131293,15.167917 18.969,14.7787 l 7.97,9.516 c 1.432,-2.216 2.128,-4.818 2.032,-7.441 -0.08338,1.978443 -0.612539,3.92068 -1.56849,5.663591 -0.144741,0.263894 0.164243,-0.25419 0,0 l -0.986391,0.153213 z M 3.029,16.1457 c -0.0673,1.603 0.1487,3.229 0.707,4.797 l 9.2947,-1.722 -0.724,-0.866 -7.9610279,1.475038 v 0 C 4.2945261,19.686118 3.6367086,19.654951 3.5914814,19.510381 3.2455935,18.404737 3.0703882,17.273263 3.029,16.1457 Z m 13.438,4.499 -0.379,0.062 -2.756,7.736 c -3.6493,-0.677 -6.7504,-2.851 -8.6601,-5.841 l -0.5489,0.091 c 1.8284,3.462 5.1962,6.006 9.209,6.75 z m 8.668,4.326 c -2.552,2.643 -6.083,4.062 -9.692,4.011 l -0.381,1.006 c 3.956,0.17 7.873,-1.434 10.534,-4.488 z"
     id="path27483"
     sodipodi:nodetypes="ccccccccccccccccccscccccccccsccccccccccccc" />
</svg>
