<?xml version="1.0" encoding="UTF-8" standalone="no"?>
<svg
   width="32"
   height="32"
   version="1"
   id="svg2641876"
   sodipodi:docname="dia.svg"
   inkscape:version="1.1.2 (0a00cf5339, 2022-02-04)"
   xmlns:inkscape="http://www.inkscape.org/namespaces/inkscape"
   xmlns:sodipodi="http://sodipodi.sourceforge.net/DTD/sodipodi-0.dtd"
   xmlns="http://www.w3.org/2000/svg"
   xmlns:svg="http://www.w3.org/2000/svg">
  <defs
     id="defs2641880" />
  <sodipodi:namedview
     id="namedview2641878"
     pagecolor="#ffffff"
     bordercolor="#666666"
     borderopacity="1.0"
     inkscape:pageshadow="2"
     inkscape:pageopacity="0.0"
     inkscape:pagecheckerboard="0"
     showgrid="false"
     inkscape:zoom="25.84375"
     inkscape:cx="15.980653"
     inkscape:cy="16"
     inkscape:window-width="1920"
     inkscape:window-height="1051"
     inkscape:window-x="0"
     inkscape:window-y="29"
     inkscape:window-maximized="1"
     inkscape:current-layer="svg2641876" />
  <path
     fill="#e4e4e4"
     d="m28 28.6v-25.2c0-0.7756-0.669-1.4-1.5-1.4h-21c-0.831 0-1.5 0.6244-1.5 1.4v25.2c0 0.776 0.669 1.4 1.5 1.4h21c0.831 0 1.5-0.6244 1.5-1.4z"
     id="path2641866" />
  <path
     fill="none"
     stroke="#4f4f4f"
     stroke-width="2"
     d="m7 8h9.9s7.1015 0.34979 7.1 8-7.1 8-7.1 8h-9.9"
     id="path2641868" />
  <path
     fill="#4f4f4f"
     fill-rule="evenodd"
     d="M 9,7.6 V 27 H 7.8029564 v 0 L 7.7214209,27.480947 10,29 12.275275,27.48315 12.265958,27 v 0 H 11 V 7.6 Z"
     id="path2641870"
     sodipodi:nodetypes="cccccccccccc" />
  <path
     fill="#fff"
     opacity=".2"
     d="m5.5 2c-0.831 0-1.5 0.6248-1.5 1.4004v1c0-0.7756 0.669-1.4004 1.5-1.4004h21c0.831 0 1.5 0.6248 1.5 1.4004v-1c0-0.7756-0.669-1.4004-1.5-1.4004h-21z"
     id="path2641872" />
  <path
     opacity=".2"
     d="m4 28.6v1c0 0.775 0.669 1.4 1.5 1.4h21c0.831 0 1.5-0.62479 1.5-1.4004v-1c0 0.775-0.669 1.4-1.5 1.4h-21c-0.831 0-1.5-0.625-1.5-1.4z"
     id="path2641874" />
</svg>
