<?xml version="1.0" encoding="UTF-8" standalone="no"?>
<svg
   width="32"
   height="32"
   version="1"
   id="svg2449098"
   sodipodi:docname="disk-utility.svg"
   inkscape:version="1.1.2 (0a00cf5339, 2022-02-04)"
   xmlns:inkscape="http://www.inkscape.org/namespaces/inkscape"
   xmlns:sodipodi="http://sodipodi.sourceforge.net/DTD/sodipodi-0.dtd"
   xmlns="http://www.w3.org/2000/svg"
   xmlns:svg="http://www.w3.org/2000/svg">
  <defs
     id="defs2449102" />
  <sodipodi:namedview
     id="namedview2449100"
     pagecolor="#ffffff"
     bordercolor="#666666"
     borderopacity="1.0"
     inkscape:pageshadow="2"
     inkscape:pageopacity="0.0"
     inkscape:pagecheckerboard="0"
     showgrid="false"
     inkscape:zoom="25.84375"
     inkscape:cx="15.980653"
     inkscape:cy="16"
     inkscape:window-width="1920"
     inkscape:window-height="1051"
     inkscape:window-x="0"
     inkscape:window-y="29"
     inkscape:window-maximized="1"
     inkscape:current-layer="svg2449098" />
  <rect
     fill="#8e8e8e"
     width="28"
     height="22"
     x="-30"
     y="-27"
     rx="2"
     ry="2"
     transform="matrix(0,-1,-1,0,0,0)"
     id="rect2449084" />
  <path
     opacity="0.5"
     d="M 16,6 C 12.134,6 9,9.134 9,13 v 6.502371 L 9.4522512,20 v 0 H 16 c 3.866,0 7,-3.134 7,-7 0,-3.866 -3.134,-7 -7,-7 z m 0,3 c 2.209139,0 4,1.790861 4,4 0,2.209139 -1.790861,4 -4,4 -2.209139,0 -4,-1.790861 -4,-4 0,-2.209139 1.790861,-4 4,-4 z"
     id="path2449086"
     sodipodi:nodetypes="sscccssssssss" />
  <path
     fill="#fff"
     opacity=".2"
     d="m7 2c-1.108 0-2 0.892-2 2v1c0-1.108 0.892-2 2-2h18c1.108 0 2 0.892 2 2v-1c0-1.108-0.892-2-2-2h-18z"
     id="path2449088" />
  <path
     opacity=".2"
     d="m5 28v1c0 1.108 0.892 2 2 2h18c1.108 0 2-0.892 2-2v-1c0 1.108-0.892 2-2 2h-18c-1.108 0-2-0.892-2-2z"
     id="path2449090" />
  <circle
     fill="#8561c5"
     cx="24"
     cy="23"
     r="8"
     id="circle2449092" />
  <path
     fill="#ffffff"
     d="m 22.969799,19.360764 v 0 l -0.058,0.692836 c -0.33407,0.123749 -0.644669,0.303395 -0.91852,0.53126 l -0.702634,-0.330849 v 0 l -0.431077,0.185009 -0.645376,1.117855 0.173428,0.553599 -0.351931,-0.244414 0.351931,0.244414 0.517479,0.359386 c -0.03096,0.175035 -0.04702,0.352381 -0.048,0.53013 9.4e-5,0.178432 0.01538,0.356532 0.0457,0.53237 l -0.553189,0.383741 v 0 l -0.109489,0.572055 0.600474,1.040081 0.498741,0.19479 v 0 l 0.651633,-0.306787 c 0.274771,0.226891 0.586126,0.405403 0.92075,0.5279 l 0.04557,0.545448 0.428621,0.510352 v 0 h 1.272252 l 0.375823,-0.406895 v 0 l 0.05414,-0.646705 c 0.334077,-0.123747 0.644683,-0.303393 0.91854,-0.53126 l 0.6759,0.318264 0.453265,-0.164566 v 0 l 0.646638,-1.120041 v 0 l -0.22994,-0.600789 -0.457703,-0.317868 c 0.03096,-0.175035 0.04702,-0.352381 0.048,-0.53013 -9.4e-5,-0.178432 -0.01538,-0.356532 -0.0457,-0.53237 l 0.603837,-0.418875 0.09583,-0.472847 v 0 L 27.166941,20.484899 26.701138,20.25782 v 0 l -0.692189,0.32588 c -0.274839,-0.226951 -0.586281,-0.405498 -0.921,-0.528 L 25.025618,19.307734 24.723974,18.9997 v 0 h -1.4499 v 0 z M 24,21.8572 c 0.631284,-5.5e-5 1.143055,0.511716 1.143,1.143 5.5e-5,0.631284 -0.511716,1.143055 -1.143,1.143 -0.631284,5.5e-5 -1.143055,-0.511716 -1.143,-1.143 -5.5e-5,-0.631284 0.511716,-1.143055 1.143,-1.143 z"
     id="path2449094"
     sodipodi:nodetypes="cccccccccccccccccccccccccccccccccccccccccccccccccccccccccc" />
  <path
     opacity=".2"
     d="m31.979 23.424a8 8 0 0 1 -7.979 7.576 8 8 0 0 1 -7.979 -7.424 8 8 0 0 0 -0.021 0.424 8 8 0 0 0 8 8 8 8 0 0 0 8 -8 8 8 0 0 0 -0.02148 -0.57617z"
     id="path2449096" />
</svg>
