<?xml version="1.0" encoding="UTF-8" standalone="no"?>
<svg
   width="512"
   height="512"
   version="1.1"
   viewBox="0 0 384 384"
   id="svg2600763"
   sodipodi:docname="dse.svg"
   inkscape:version="1.1.2 (0a00cf5339, 2022-02-04)"
   xmlns:inkscape="http://www.inkscape.org/namespaces/inkscape"
   xmlns:sodipodi="http://sodipodi.sourceforge.net/DTD/sodipodi-0.dtd"
   xmlns="http://www.w3.org/2000/svg"
   xmlns:svg="http://www.w3.org/2000/svg">
  <sodipodi:namedview
     id="namedview2600765"
     pagecolor="#ffffff"
     bordercolor="#666666"
     borderopacity="1.0"
     inkscape:pageshadow="2"
     inkscape:pageopacity="0.0"
     inkscape:pagecheckerboard="0"
     showgrid="false"
     inkscape:zoom="1.6152344"
     inkscape:cx="255.69045"
     inkscape:cy="256"
     inkscape:window-width="1920"
     inkscape:window-height="1051"
     inkscape:window-x="0"
     inkscape:window-y="29"
     inkscape:window-maximized="1"
     inkscape:current-layer="svg2600763" />
  <defs
     id="defs2600749">
    <clipPath
       id="clipPath2600739">
      <rect
         width="384"
         height="384"
         id="rect2600737" />
    </clipPath>
    <clipPath
       id="clipPath2600743">
      <rect
         width="384"
         height="384"
         id="rect2600741" />
    </clipPath>
    <clipPath
       id="clipPath2600747">
      <rect
         width="384"
         height="384"
         id="rect2600745" />
    </clipPath>
  </defs>
  <path
     d="m359.99 192c0-92.781-75.215-168-167.99-168-92.781 0-168 75.215-168 168 0 92.777 75.215 167.99 168 167.99 92.777 0 167.99-75.215 167.99-167.99z"
     fill="#2359b0"
     id="path2600751" />
  <path
     d="m174.87 79.5c-4.7383 0-6.8594 4.1211-6.8594 9.2344v146.76h-36.008l60 84.008 59.996-84h-35.988v-146.76c0-5.1055-2.1406-9.2266-6.8789-9.2266z"
     fill="#010101"
     opacity=".3"
     id="path2600753" />
  <path
     d="m174.87 72c-4.7383 0-6.8594 4.1211-6.8594 9.2344v146.76h-36.008l60 84.008 59.996-84h-35.988v-146.76c0-5.1055-2.1406-9.2266-6.8789-9.2266z"
     opacity=".3"
     id="path2600755" />
  <path
     d="m 174.87,72 c -4.7383,0 -6.8594,4.1211 -6.8594,9.2344 v 146.76 h -29.02158 v 0 l -1.35493,7.88483 50.94866,71.33492 6.68917,0.2109 v 0 l 50.83838,-71.17848 -0.55967,-8.24417 v 0 H 216.0106 v -146.76 c 0,-5.1055 -2.1406,-9.2266 -6.8789,-9.2266 z"
     fill="#ffffff"
     id="path2600757"
     sodipodi:nodetypes="cscccccccccccscc" />
  <path
     transform="scale(.75)"
     d="m32.07 251c-0.036437 1.663-0.0625 3.3283-0.0625 5 0 123.7 100.29 223.99 223.99 223.99 123.7 0 223.99-100.29 223.99-223.99 0-1.6717-0.02606-3.337-0.0625-5-2.66 121.39-101.9 218.99-223.93 218.99-122.04 0-221.27-97.597-223.93-218.99z"
     opacity=".3"
     stroke-width="1.3333"
     id="path2600759" />
  <path
     transform="scale(.75)"
     d="m256 32.008c-123.71 0-223.99 100.29-223.99 223.99 0 1.3373 0.027437 2.6682 0.050782 4 2.136-121.86 101.57-219.99 223.94-219.99 122.37 0 221.8 98.133 223.94 219.99 0.02334-1.3318 0.05078-2.6627 0.05078-4 0-123.71-100.29-223.99-223.99-223.99z"
     fill="#fff"
     opacity=".3"
     stroke-width="1.3333"
     id="path2600761" />
</svg>
