<?xml version="1.0" encoding="UTF-8" standalone="no"?>
<svg
   width="512"
   height="512"
   version="1.1"
   viewBox="0 0 384 384"
   id="svg624377"
   sodipodi:docname="flareget.svg"
   inkscape:version="1.1.2 (0a00cf5339, 2022-02-04)"
   xmlns:inkscape="http://www.inkscape.org/namespaces/inkscape"
   xmlns:sodipodi="http://sodipodi.sourceforge.net/DTD/sodipodi-0.dtd"
   xmlns="http://www.w3.org/2000/svg"
   xmlns:svg="http://www.w3.org/2000/svg">
  <sodipodi:namedview
     id="namedview624379"
     pagecolor="#ffffff"
     bordercolor="#666666"
     borderopacity="1.0"
     inkscape:pageshadow="2"
     inkscape:pageopacity="0.0"
     inkscape:pagecheckerboard="0"
     showgrid="false"
     inkscape:zoom="1.6152344"
     inkscape:cx="255.69045"
     inkscape:cy="256"
     inkscape:window-width="1920"
     inkscape:window-height="1051"
     inkscape:window-x="0"
     inkscape:window-y="29"
     inkscape:window-maximized="1"
     inkscape:current-layer="svg624377" />
  <defs
     id="defs624363">
    <clipPath
       id="clipPath624357">
      <rect
         width="384"
         height="384"
         id="rect624355" />
    </clipPath>
    <clipPath
       id="clipPath624361">
      <rect
         width="384"
         height="384"
         id="rect624359" />
    </clipPath>
  </defs>
  <g
     transform="translate(-1.5e-6)"
     id="g624367">
    <path
       d="M 320.6165,223.5 291.234,216 V 54 c 0,-8.6406 -10.585,-18 -16.54,-18 h -165.4 c -5.9547,0 -16.54,9.3594 -16.54,18 v 162 l -29.673361,6.19046 v 0 l 0.232417,7.3046 L 191.988,348 Z"
       fill="#fd4747"
       stroke-width="0.95858"
       id="path624365"
       sodipodi:nodetypes="ccsssscccccc" />
  </g>
  <g
     transform="translate(-1.5e-6)"
     id="g624371">
    <path
       transform="matrix(0.75,0,0,0.75,1.5e-6,0)"
       d="M 75.716,288 73.479101,295.92341 255.995,464 436.12419,298.1213 436.256,288 v 0 L 255.986,454 75.716,288 Z"
       fill="#434343"
       opacity="0.3"
       stroke-width="1.2781"
       id="path624369"
       sodipodi:nodetypes="cccccccccc" />
  </g>
  <g
     transform="translate(-1.5e-6)"
     id="g624375">
    <path
       transform="matrix(0.75,0,0,0.75,1.5e-6,0)"
       d="m 145.74,48 c -7.9396,0 -22.055,12.479 -22.055,24 v 10 c 0,-11.521 14.115,-24 22.055,-24 h 220.53 c 7.9396,0 22.055,12.479 22.055,24 V 72 c 0,-11.521 -14.115,-24 -22.055,-24 z m -56.862687,239.77796 10.859,10 L 123.685,298 V 288 L 75.738,298 Z M 388.319,288 v 10 h 39.16966 l -17.57361,-11.4075 v 0 L 427.74592,288 H 388.318 Z"
       fill="#ffffff"
       opacity="0.3"
       stroke-width="1.2781"
       id="path624373"
       sodipodi:nodetypes="sscsscssscccccccccccccc" />
  </g>
</svg>
