<?xml version="1.0" encoding="UTF-8" standalone="no"?>
<svg
   width="32"
   height="32"
   version="1"
   id="svg107627"
   sodipodi:docname="furiusisomount.svg"
   inkscape:version="1.1.2 (0a00cf5339, 2022-02-04)"
   xmlns:inkscape="http://www.inkscape.org/namespaces/inkscape"
   xmlns:sodipodi="http://sodipodi.sourceforge.net/DTD/sodipodi-0.dtd"
   xmlns="http://www.w3.org/2000/svg"
   xmlns:svg="http://www.w3.org/2000/svg">
  <defs
     id="defs107631" />
  <sodipodi:namedview
     id="namedview107629"
     pagecolor="#ffffff"
     bordercolor="#666666"
     borderopacity="1.0"
     inkscape:pageshadow="2"
     inkscape:pageopacity="0.0"
     inkscape:pagecheckerboard="0"
     showgrid="false"
     inkscape:zoom="25.84375"
     inkscape:cx="15.980653"
     inkscape:cy="16"
     inkscape:window-width="1920"
     inkscape:window-height="1051"
     inkscape:window-x="0"
     inkscape:window-y="29"
     inkscape:window-maximized="1"
     inkscape:current-layer="svg107627" />
  <path
     opacity=".2"
     d="m16 3c-7.756 0-14 6.244-14 14s6.244 14 14 14 14-6.244 14-14-6.244-14-14-14zm0 8a6 6 0 0 1 6 6 6 6 0 0 1 -6 6 6 6 0 0 1 -6 -6 6 6 0 0 1 6 -6z"
     id="path107613" />
  <path
     fill="#848484"
     d="m16 8.5a7.5 7.5 0 0 0 -7.5 7.5 7.5 7.5 0 0 0 7.5 7.5 7.5 7.5 0 0 0 7.5 -7.5 7.5 7.5 0 0 0 -7.5 -7.5zm0 4.5c1.6569 0 3 1.3431 3 3s-1.3431 3-3 3-3-1.3431-3-3 1.3431-3 3-3z"
     id="path107615" />
  <path
     fill="#e4e4e4"
     d="m16 2c-7.756 0-14 6.244-14 14s6.244 14 14 14 14-6.244 14-14-6.244-14-14-14zm0 8a6 6 0 0 1 6 6 6 6 0 0 1 -6 6 6 6 0 0 1 -6 -6 6 6 0 0 1 6 -6z"
     id="path107617" />
  <path
     fill="#fff"
     opacity=".2"
     d="m16 2c-7.756 0-14 6.244-14 14 0 0.169 0.0195 0.333 0.0254 0.5 0.2637-7.5206 6.3874-13.5 13.975-13.5 7.587 0 13.711 5.9794 13.975 13.5 0.005-0.167 0.025-0.331 0.025-0.5 0-7.756-6.244-14-14-14zm-5.975 14.498a6 6 0 0 0 -0.025 0.502 6 6 0 0 0 6 6 6 6 0 0 0 6 -6 6 6 0 0 0 -0.025 -0.498 6 6 0 0 1 -5.975 5.498 6 6 0 0 1 -5.975 -5.502z"
     id="path107619" />
  <circle
     fill="#ba22ff"
     cx="24"
     cy="23"
     r="8"
     id="circle107621" />
  <path
     fill="#ffffff"
     d="m 20,23.334 c 0,2.2092 1.7909,4 4,4 2.1867,0 3.9602,-1.7554 3.9961,-3.9336 0.0024,-0.02205 0.0038,-0.04421 0.004,-0.0664 0,-0.368192 -0.298478,-0.66667 -0.66667,-0.66667 -0.368192,0 -0.66667,0.298478 -0.66667,0.66667 0,1.4727 -1.1939,2.6667 -2.6667,2.6667 -1.4727,0 -2.6667,-1.1939 -2.6667,-2.6667 0,-1.4727 1.1939,-2.6667 2.6667,-2.6667 v 0.793713 0 l 0.522587,0.147652 1.854731,-1.391032 -0.03649,-0.461545 v 0 l -1.812873,-1.360249 -0.527554,0.03766 v 0 0.899803 c -2.2092,0 -4,1.7909 -4,4 z"
     id="path107623"
     sodipodi:nodetypes="csccssssccccccccccccc" />
  <path
     opacity=".2"
     d="m31.979 23.424a8 8 0 0 1 -7.979 7.576 8 8 0 0 1 -7.979 -7.424 8 8 0 0 0 -0.021 0.424 8 8 0 0 0 8 8 8 8 0 0 0 8 -8 8 8 0 0 0 -0.02148 -0.57617z"
     id="path107625" />
</svg>
