<?xml version="1.0" encoding="UTF-8" standalone="no"?>
<svg
   width="32"
   height="32"
   version="1"
   id="svg1042798"
   sodipodi:docname="gnome-subtitles.svg"
   inkscape:version="1.1.2 (0a00cf5339, 2022-02-04)"
   xmlns:inkscape="http://www.inkscape.org/namespaces/inkscape"
   xmlns:sodipodi="http://sodipodi.sourceforge.net/DTD/sodipodi-0.dtd"
   xmlns="http://www.w3.org/2000/svg"
   xmlns:svg="http://www.w3.org/2000/svg">
  <defs
     id="defs1042802" />
  <sodipodi:namedview
     id="namedview1042800"
     pagecolor="#ffffff"
     bordercolor="#666666"
     borderopacity="1.0"
     inkscape:pageshadow="2"
     inkscape:pageopacity="0.0"
     inkscape:pagecheckerboard="0"
     showgrid="false"
     inkscape:zoom="25.84375"
     inkscape:cx="15.980653"
     inkscape:cy="16"
     inkscape:window-width="1920"
     inkscape:window-height="1051"
     inkscape:window-x="0"
     inkscape:window-y="29"
     inkscape:window-maximized="1"
     inkscape:current-layer="svg1042798" />
  <path
     fill="#2e8163"
     d="M 3.5556,4 C 2.6938,4 2,4.8882 2,5.75 v 17.5 c 0,0.862 0.6944,1.717 1.5556,1.75 h 12.602372 l 0.542052,0.229056 v 0 l 2.125891,2.303162 1.197595,-0.06242 1.287948,0.03094 1.980716,-2.263675 v 0 L 23.922064,25 H 28.444 C 29.306,25 30,24.112 30,23.25 V 5.75 C 30,4.8882 29.306,4 28.444,4 Z"
     id="path1042772"
     sodipodi:nodetypes="sssccccccccccsssss" />
  <g
     fill="#ffffff"
     transform="translate(0,-1)"
     id="g1042782">
    <path
       d="m10 11v-1h12v1z"
       id="path1042774" />
    <path
       d="m10 14v-1h12v1z"
       id="path1042776" />
    <path
       d="m10 17v-1h12v1z"
       id="path1042778" />
    <path
       d="m10 20v-1h8v1z"
       id="path1042780" />
  </g>
  <path
     opacity="0.2"
     d="m 2,23.25 v 1 c 0,0.862 0.6936,1.717 1.5547,1.75 h 12.945 L 19.974784,26.160801 23.4997,26 h 4.945 c 0.862,0 1.555,-0.888 1.555,-1.75 v -1 c 0,0.862 -0.693,1.75 -1.555,1.75 h -4.945 l -2.166187,0.365707 -1.358729,0.795094 -3.115493,-0.74984 L 15.945558,25 v 0 H 3.5547 C 2.693,24.967 1.9994,24.112 1.9994,23.25 Z"
     id="path1042784"
     sodipodi:nodetypes="csccccsscsccccccccc" />
  <path
     fill="#fff"
     opacity=".1"
     d="m3.5547 4c-0.8618 0-1.5547 0.8882-1.5547 1.75v1c0-0.8618 0.6929-1.75 1.5547-1.75h24.89c0.862 0 1.555 0.8882 1.555 1.75v-1c0-0.8618-0.693-1.75-1.555-1.75h-24.89z"
     id="path1042786" />
  <g
     opacity=".2"
     id="g1042796">
    <path
       d="m10 11v-1h12v1z"
       id="path1042788" />
    <path
       d="m10 14v-1h12v1z"
       id="path1042790" />
    <path
       d="m10 17v-1h12v1z"
       id="path1042792" />
    <path
       d="m10 20v-1h8v1z"
       id="path1042794" />
  </g>
</svg>
