<?xml version="1.0" encoding="UTF-8" standalone="no"?>
<svg
   width="512"
   height="512"
   version="1.1"
   viewBox="0 0 384 384"
   id="svg801055"
   sodipodi:docname="mate-inhibit-applet.svg"
   inkscape:version="1.1.2 (0a00cf5339, 2022-02-04)"
   xmlns:inkscape="http://www.inkscape.org/namespaces/inkscape"
   xmlns:sodipodi="http://sodipodi.sourceforge.net/DTD/sodipodi-0.dtd"
   xmlns="http://www.w3.org/2000/svg"
   xmlns:svg="http://www.w3.org/2000/svg">
  <sodipodi:namedview
     id="namedview801057"
     pagecolor="#ffffff"
     bordercolor="#666666"
     borderopacity="1.0"
     inkscape:pageshadow="2"
     inkscape:pageopacity="0.0"
     inkscape:pagecheckerboard="0"
     showgrid="false"
     inkscape:zoom="1.6152344"
     inkscape:cx="255.69045"
     inkscape:cy="256"
     inkscape:window-width="1920"
     inkscape:window-height="1051"
     inkscape:window-x="0"
     inkscape:window-y="29"
     inkscape:window-maximized="1"
     inkscape:current-layer="svg801055" />
  <defs
     id="defs801027">
    <linearGradient
       id="a"
       x1="-12.22"
       x2="386.3"
       y1="930.86"
       y2="334.67"
       gradientTransform="matrix(.74984 0 0 .73405 .036305 -376.97)"
       gradientUnits="userSpaceOnUse">
      <stop
         stop-color="#367bf0"
         offset="0"
         id="stop801022" />
      <stop
         stop-color="#b7164b"
         stop-opacity=".99608"
         offset="1"
         id="stop801024" />
    </linearGradient>
  </defs>
  <g
     transform="translate(0 -1e-4)"
     id="g801043">
    <path
       d="m158.31 281.12h67.378v23.063h-67.378z"
       stroke-width="1.4546"
       id="path801029" />
    <g
       stroke-width=".99594"
       id="g801037">
      <path
         d="m158.2 281.2h67.577v10.702z"
         fill="#fff"
         opacity=".1"
         id="path801031" />
      <path
         d="m24.673 77.977h334.65c4.5207 0 8.1854 3.4547 8.1854 7.7146v192.8c0 4.2601-3.6647 7.7146-8.1854 7.7146h-334.65c-4.5168 0-8.1814-3.4547-8.1814-7.7146v-192.8c0-4.26 3.6647-7.7146 8.1814-7.7146z"
         opacity=".1"
         id="path801033" />
      <path
         d="m24.673 73.477h334.65c4.5207 0 8.1854 3.4547 8.1854 7.7146v192.8c0 4.2601-3.6647 7.7146-8.1854 7.7146h-334.65c-4.5168 0-8.1814-3.4547-8.1814-7.7146v-192.8c0-4.26 3.6647-7.7146 8.1814-7.7146z"
         fill="#000018"
         id="path801035" />
    </g>
    <path
       d="m30.003 82.372h322.5c4.0694 0 7.3696 1.778 7.3696 5.7809v175.88c0 4.0028-3.3001 5.7809-7.3696 5.7809h-322.5c-4.0733 0-5.874-1.778-5.874-5.7809v-175.88c0-4.0028 1.8007-5.7809 5.874-5.7809z"
       fill="url(#a)"
       stroke-width=".9892"
       id="path801039" />
    <path
       d="m132.44 296.97h119.11c2.5676 0 4.6452 2.349 4.6452 5.2479v3.0621c0 2.8944-2.0774 5.2432-4.6452 5.2432h-119.11c-2.5676 0-4.6452-2.349-4.6452-5.2432v-3.0621c0-2.899 2.0774-5.2479 4.6452-5.2479z"
       stroke-width="1.2542"
       id="path801041" />
  </g>
  <g
     transform="translate(0 14.644)"
     fill-rule="evenodd"
     id="g801051">
    <path
       d="m384 279.36c0 49.706-40.294 90-90 90s-90-40.294-90-90 40.294-90 90-90 90 40.294 90 90z"
       opacity=".3"
       stroke-width=".9375"
       id="path801045" />
    <path
       d="m384 271.86c0 49.706-40.294 90-90 90s-90-40.294-90-90 40.294-90 90-90 90 40.294 90 90z"
       fill="#4aaee6"
       stroke-width=".9375"
       id="path801047" />
    <path
       d="m294 247.85c-10.906 0.10253-21.878 2.5012-31.377 7.6685-3.7866 2.3657-8.3313 5.4236-11.755 8.5034-5.387 5.0647-10.001 10.968-13.118 17.589 8.5437 18.091 27.32 31.351 47.978 33.31 13.553 1.4722 27.737-0.78003 39.65-7.218 3.7866-2.3657 8.3313-5.4236 11.755-8.5034 5.387-5.0757 10.001-10.979 13.118-17.589-8.5401-18.087-27.323-31.355-47.978-33.31-2.7466-0.31495-5.5151-0.45044-8.2727-0.45044zm0.0219 11.25c12.038-0.26734 22.694 10.507 22.467 22.478 0.38453 13.231-12.795 24.653-25.829 22.181-13.162-1.5454-22.412-16.318-18.083-28.828 2.7685-9.2029 11.811-15.926 21.457-15.82zm-0.0219 11.25c-2.9883 0-5.8521 1.1865-7.9614 3.2995-2.1094 2.113-3.2922 4.9768-3.2886 7.9614 4e-3 6.2073 5.0391 11.239 11.25 11.239s11.246-5.0318 11.25-11.239c-7e-3 -6.2036-5.0427-11.228-11.25-11.228z"
       opacity=".3"
       stroke-width=".9375"
       id="path801049" />
  </g>
  <path
     d="m 294,255.47 c -10.906,0.10254 -21.878,2.5012 -31.377,7.6685 -3.7866,2.3657 -8.3313,5.4236 -11.755,8.5034 -5.387,5.0647 -8.18944,14.46484 -11.30644,21.08584 v 0 c 0,0 1.4156,2.55548 2.24313,3.80664 8.78177,13.27727 26.28305,24.3337 43.92331,26.00652 13.553,1.4722 27.737,-0.78003 39.65,-7.218 3.7866,-2.3657 8.3313,-5.4236 11.755,-8.5034 4.39662,-4.14256 8.27835,-8.83638 11.25157,-14.01575 0.66974,-1.1667 -1.95995,-8.26081 -1.3869,-9.47603 -3.25333,-5.90278 1.20575,1.90067 0,0 -9.52961,-15.02191 -26.38955,-25.6718 -44.72467,-27.40722 -2.7466,-0.31494 -5.5151,-0.45044 -8.2727,-0.45044 z m 0.0219,11.25 c 12.038,-0.26733 22.694,10.507 22.467,22.478 0.38453,13.231 -12.795,24.653 -25.829,22.181 -13.162,-1.5454 -22.412,-16.318 -18.083,-28.828 2.7685,-9.2029 11.811,-15.926 21.457,-15.82 z M 294,277.97 c -2.9883,0 -5.8521,1.1865 -7.9614,3.2995 -2.1094,2.113 -3.2922,4.9768 -3.2886,7.9614 0.004,6.2073 5.0391,11.239 11.25,11.239 6.2109,0 11.246,-5.0318 11.25,-11.239 -0.007,-6.2036 -5.0427,-11.228 -11.25,-11.228 z"
     fill="#ffffff"
     fill-rule="evenodd"
     stroke-width="0.9375"
     id="path801053"
     sodipodi:nodetypes="scccsscccscscsscccccccscsccc" />
</svg>
