<?xml version="1.0" encoding="UTF-8" standalone="no"?>
<svg
   width="512"
   height="512"
   version="1.1"
   viewBox="0 0 384 384"
   id="svg29302"
   sodipodi:docname="mediainfo.svg"
   inkscape:version="1.1.2 (0a00cf5339, 2022-02-04)"
   xmlns:inkscape="http://www.inkscape.org/namespaces/inkscape"
   xmlns:sodipodi="http://sodipodi.sourceforge.net/DTD/sodipodi-0.dtd"
   xmlns:xlink="http://www.w3.org/1999/xlink"
   xmlns="http://www.w3.org/2000/svg"
   xmlns:svg="http://www.w3.org/2000/svg">
  <sodipodi:namedview
     id="namedview29304"
     pagecolor="#ffffff"
     bordercolor="#666666"
     borderopacity="1.0"
     inkscape:pageshadow="2"
     inkscape:pageopacity="0.0"
     inkscape:pagecheckerboard="0"
     showgrid="false"
     inkscape:zoom="1.6152344"
     inkscape:cx="255.69045"
     inkscape:cy="256"
     inkscape:window-width="1920"
     inkscape:window-height="1051"
     inkscape:window-x="0"
     inkscape:window-y="29"
     inkscape:window-maximized="1"
     inkscape:current-layer="svg29302" />
  <defs
     id="defs29272">
    <filter
       id="alpha"
       x="0"
       y="0"
       width="1"
       height="1">
      <feColorMatrix
         in="SourceGraphic"
         values="0 0 0 0 1 0 0 0 0 1 0 0 0 0 1 0 0 0 1 0"
         id="feColorMatrix29258" />
    </filter>
    <mask
       id="b">
      <g
         filter="url(#alpha)"
         id="g29263">
        <rect
           width="384"
           height="384"
           fill-opacity=".10196"
           id="rect29261" />
      </g>
    </mask>
    <clipPath
       id="c">
      <rect
         width="384"
         height="384"
         id="rect29266" />
    </clipPath>
    <g
       id="a"
       clip-path="url(#c)">
      <path
         d="m42 24c-9.9727 0-18 8.0273-18 18v6c0-9.9727 8.0273-18 18-18h300c9.9727 0 18 8.0273 18 18v-6c0-9.9727-8.0273-18-18-18z"
         fill="#fff"
         id="path29269" />
    </g>
  </defs>
  <path
     d="m360 342v-300c0-9.9414-8.0586-18-18-18h-300c-9.9414 0-18 8.0586-18 18v300c0 9.9414 8.0586 18 18 18h300c9.9414 0 18-8.0586 18-18z"
     fill="#fff"
     opacity=".2"
     stroke="#000"
     stroke-width="7.5"
     id="path29274" />
  <path
     d="m360 342v-300c0-9.9414-8.0586-18-18-18h-300c-9.9414 0-18 8.0586-18 18v300c0 9.9414 8.0586 18 18 18h300c9.9414 0 18-8.0586 18-18z"
     fill="#fff"
     id="path29276" />
  <use
     width="100%"
     height="100%"
     mask="url(#b)"
     xlink:href="#a"
     id="use29278" />
  <path
     transform="scale(6)"
     d="m45.624 25.434c4.8607 8.127 3.9206 17.632-2.1016 21.251-6.0221 3.6191-14.855-0.01237-19.75-8.1191-4.8607-8.127-3.9206-17.632 2.1016-21.251 6.0221-3.6191 14.856 0.01237 19.75 8.1191z"
     fill="none"
     stroke="#4b4b4b"
     stroke-width="1.43"
     id="path29280" />
  <path
     d="m204 144c-33.145 0-60 26.848-60 60s26.848 60 60 60 60-26.848 60-60-26.848-60-60-60zm-10.73 31.707c22.539 0 40.973 18.195 40.973 40.734s-18.434 40.973-40.973 40.973-40.73-18.434-40.73-40.973 18.191-40.734 40.73-40.734z"
     fill="#2a61bf"
     id="path29282" />
  <path
     d="m 63.01781,222.94688 c 0,0 6.096561,-12.38246 0,0 -2.138488,4.34339 -3.40179,8.65824 -2.91281,12.39012 2.5977,19.828 27.492,22.988 47.141,22.762 47.637,-0.53906 217.31,-56.207 216.76,-123 -0.0618,-7.425 -4.69517,-12.5219 -10.74841,-15.96189 -11.54802,-6.56263 0,0 0,0 0,0 -14.55092,-2.8164 -6.25475,3.88539 3.72704,3.01077 6.3609,6.6797 6.16716,10.9905 -2.3438,51.836 -144.06,110.03 -207,111.62 -13.211,0.33594 -31.598,-2.5234 -36.855,-14.641 -0.97664,-2.2531 -0.987996,-4.99409 -0.392591,-7.92352 2.274203,-11.18919 0,0 0,0 z"
     fill="#4b4b4b"
     id="path29284"
     sodipodi:nodetypes="cscccscscccscc" />
  <path
     d="m276 138c0 16.57-13.43 30-30 30s-30-13.43-30-30 13.43-30 30-30 30 13.43 30 30z"
     fill="#fc4848"
     id="path29286" />
  <path
     d="m192 234.01c0 9.9414-8.0586 18-18 18s-18-8.0586-18-18 8.0586-18 18-18 18 8.0586 18 18z"
     fill="#4b4b4b"
     id="path29288" />
  <path
     transform="scale(.75)"
     d="m32 446v10c0 13.255 10.745 24 24 24h400c13.255 0 24-10.745 24-24v-10c0 13.255-10.745 24-24 24h-400c-13.255 0-24-10.745-24-24z"
     opacity=".3"
     stroke-width="1.3333"
     id="path29290" />
  <path
     transform="scale(.75)"
     d="m56 32c-13.255 0-24 10.745-24 24v10c0-13.255 10.745-24 24-24h400c13.255 0 24 10.745 24 24v-10c0-13.255-10.745-24-24-24z"
     opacity=".1"
     stroke-width="1.3333"
     id="path29292" />
  <path
     d="m384 294c0 49.706-40.294 90-90 90s-90-40.294-90-90 40.294-90 90-90 90 40.294 90 90z"
     fill="#010905"
     fill-rule="evenodd"
     opacity=".3"
     stroke-width=".9375"
     id="path29294" />
  <path
     d="m384 286.5c0 49.706-40.294 90-90 90s-90-40.294-90-90 40.294-90 90-90 90 40.294 90 90z"
     fill="#0ba05d"
     fill-rule="evenodd"
     stroke-width=".9375"
     id="path29296" />
  <path
     d="m281.14 249v25.714h25.714v-25.714zm0 38.571v51.429h25.714v-51.429z"
     opacity=".3"
     stroke-width=".71427"
     id="path29298" />
  <path
     d="m281.14 241.5v25.714h25.714v-25.714zm0 38.571v51.429h25.714v-51.429z"
     fill="#fff"
     stroke-width=".71427"
     id="path29300" />
</svg>
