<?xml version="1.0" encoding="UTF-8" standalone="no"?>
<svg
   width="512"
   height="512"
   version="1"
   id="svg682848"
   sodipodi:docname="anki.svg"
   inkscape:version="1.1.2 (0a00cf5339, 2022-02-04)"
   xmlns:inkscape="http://www.inkscape.org/namespaces/inkscape"
   xmlns:sodipodi="http://sodipodi.sourceforge.net/DTD/sodipodi-0.dtd"
   xmlns="http://www.w3.org/2000/svg"
   xmlns:svg="http://www.w3.org/2000/svg">
  <defs
     id="defs682852" />
  <sodipodi:namedview
     id="namedview682850"
     pagecolor="#ffffff"
     bordercolor="#666666"
     borderopacity="1.0"
     inkscape:pageshadow="2"
     inkscape:pageopacity="0.0"
     inkscape:pagecheckerboard="0"
     showgrid="false"
     inkscape:zoom="1.6152344"
     inkscape:cx="255.69045"
     inkscape:cy="256"
     inkscape:window-width="1920"
     inkscape:window-height="1051"
     inkscape:window-x="0"
     inkscape:window-y="29"
     inkscape:window-maximized="1"
     inkscape:current-layer="g682846" />
  <g
     transform="matrix(7.9991981,0,0,7.9991981,-3.171188,-3590.7866)"
     id="g682846">
    <path
       d="m 26.508,452.5951 a 5.9112,5.7568 0 0 0 -4.335,4.4509 l -2.514,12.285 -11.813,4.95 a 5.9112,5.7568 0 0 0 -0.5537,10.307 l 11.217,6.1233 1.1798,12.472 a 5.9112,5.7568 0 0 0 9.8962,3.7026 l 9.4502,-8.4996 12.543,2.7605 a 5.9112,5.7568 0 0 0 6.6693,-8.0255 l -5.38,-11.376 6.575,-10.766 a 5.9112,5.7568 0 0 0 -5.772,-8.656 l -12.777,1.467 -8.48,-9.4165 a 5.9112,5.7568 0 0 0 -5.906,-1.7784 z"
       style="fill:rgb(19.215%,43.529%,84.705%)"
       id="path682838" />
    <path
       d="m 27.676,452.4242 c -0.39559,0.0189 -0.788229,0.0764 -1.172,0.17179 -2.202232,0.54857 -3.886378,2.27836 -4.3318,4.4492 l -2.515,12.289 -11.812,4.949 c -4.4974765,1.88602 -4.8250576,7.97456 -0.5546,10.308 l 11.218,6.1197 1.1798,12.473 c 0.450834,4.74822 6.294252,6.9346 9.8936,3.7018 l 9.4536,-8.4996 12.541,2.7619 c 4.778546,1.04852 8.718042,-3.69333 6.6677,-8.0257 l -5.378,-11.375 6.574,-10.765 c 2.504206,-4.10135 -0.907942,-9.2188 -5.7738,-8.6594 l -12.776,1.468 -8.481,-9.4177 c -1.190232,-1.31876 -2.933365,-2.03645 -4.734,-1.9491 z m 0.28199,5.9686 0.008,0.008 c 0,4e-4 -0.01,0.0118 -0.008,0.0116 0.018,0.001 0.034,0.018 -2e-5,-0.0194 z m 1.186864,1.31739 v 0 l 7.288836,8.09621 c 1.299045,1.44223 3.215488,2.16699 5.1438,1.9453 l 10.301305,-1.18584 1.121756,1.4451 v 0 l -5.256061,8.60774 c -1.054219,1.72548 -1.168494,3.86588 -0.30399,5.6938 l 4.210982,8.89619 v 0 L 50.496089,494.76593 40.3225,492.5285 c -1.889916,-0.41661 -3.864744,0.10389 -5.3038,1.3979 l -7.734304,6.95931 -1.857415,-0.74177 v 0 L 24.4797,490.1484 c -0.187071,-1.98424 -1.347157,-3.7461 -3.096,-4.702 l -8.46667,-4.62264 v 0 l 0.249615,-2.27008 8.807055,-3.68928 c 1.829527,-0.76535 3.162732,-2.38523 3.5619,-4.3278 l 2.10518,-10.29638 v 0 z"
       style="fill:#ffffff"
       id="path682840"
       sodipodi:nodetypes="ccccccccccccccccccccccccccccccccccccccccccccccccccc" />
    <path
       d="m 26.504,452.5963 a 5.9112,5.7568 0 0 0 -2.5339,1.3422 5.9112,5.7568 0 0 0 -0.02853,0.0218 5.9112,5.7568 0 0 0 -0.0019,5.1e-4 5.9112,5.7568 0 0 0 -0.0014,0.002 5.9112,5.7568 0 0 0 -0.40815,0.40862 5.9112,5.7568 0 0 0 -0.0033,0.003 5.9112,5.7568 0 0 0 -0.36482,0.44959 5.9112,5.7568 0 0 0 -0.0033,0.003 5.9112,5.7568 0 0 0 -0.31597,0.48098 5.9112,5.7568 0 0 0 -0.27038,0.51527 5.9112,5.7568 0 0 0 -0.21274,0.5342 5.9112,5.7568 0 0 0 -0.0014,0.002 5.9112,5.7568 0 0 0 -0.1556,0.55124 5.9112,5.7568 0 0 0 -0.0014,0.002 5.9112,5.7568 0 0 0 -0.02953,0.13126 5.9112,5.7568 0 0 0 5.06e-4,0.002 l -2.5137,12.28399 -0.0019,5.1e-4 -11.811,4.9501 a 5.9112,5.7568 0 0 0 -1.0329,0.55984 5.9112,5.7568 0 0 0 -0.46647,0.34944 5.9112,5.7568 0 0 0 -0.00138,0.002 5.9112,5.7568 0 0 0 -0.4288,0.39191 5.9112,5.7568 0 0 0 -0.00138,0.002 5.9112,5.7568 0 0 0 -0.38547,0.43288 5.9112,5.7568 0 0 0 -0.00138,0.002 5.9112,5.7568 0 0 0 -0.33989,0.46717 5.9112,5.7568 0 0 0 -0.00138,0.002 5.9112,5.7568 0 0 0 -0.28864,0.49994 5.9112,5.7568 0 0 0 -0.00138,0.002 5.9112,5.7568 0 0 0 -0.23565,0.52416 5.9112,5.7568 0 0 0 -0.00138,0.002 5.9112,5.7568 0 0 0 -0.18178,0.5441 5.9112,5.7568 0 0 0 -0.00138,0.002 5.9112,5.7568 0 0 0 -0.059439,0.26868 5.9112,5.7568 0 0 0 -0.065198,0.29246 5.9112,5.7568 0 0 0 5.055e-4,0.002 5.9112,5.7568 0 0 0 0.27168,2.8854 5.9112,5.7568 0 0 1 -0.082944,-1.1849 5.9112,5.7568 0 0 1 0.00295,-0.16255 5.9112,5.7568 0 0 0 -5.057e-4,-0.002 5.9112,5.7568 0 0 1 0.067633,-0.57013 5.9112,5.7568 0 0 0 -5.055e-4,-0.002 5.9112,5.7568 0 0 1 0.065198,-0.29246 5.9112,5.7568 0 0 1 0.059439,-0.26868 5.9112,5.7568 0 0 0 0.00138,-0.002 5.9112,5.7568 0 0 1 0.18178,-0.5441 5.9112,5.7568 0 0 0 0.00138,-0.002 5.9112,5.7568 0 0 1 0.23565,-0.52416 5.9112,5.7568 0 0 0 0.00138,-0.002 5.9112,5.7568 0 0 1 0.28915,-0.49806 5.9112,5.7568 0 0 0 0.00138,-0.002 5.9112,5.7568 0 0 1 0.33938,-0.46906 5.9112,5.7568 0 0 0 0.00138,-0.002 5.9112,5.7568 0 0 1 0.38547,-0.43288 5.9112,5.7568 0 0 0 0.00138,-0.002 5.9112,5.7568 0 0 1 0.4288,-0.39191 5.9112,5.7568 0 0 0 0.00138,-0.002 5.9112,5.7568 0 0 1 0.46647,-0.34944 5.9112,5.7568 0 0 1 1.0329,-0.55984 l 11.8109997,-4.9501 0.0019,-5.1e-4 2.5137,-12.28399 a 5.9112,5.7568 0 0 0 -5.06e-4,-0.002 5.9112,5.7568 0 0 1 0.02691,-0.11841 5.9112,5.7568 0 0 1 0.0031,-0.011 5.9112,5.7568 0 0 1 8.76e-4,-0.004 5.9112,5.7568 0 0 1 0.05011,-0.17519 5.9112,5.7568 0 0 1 0.10548,-0.37605 5.9112,5.7568 0 0 0 0.0014,-0.002 5.9112,5.7568 0 0 1 0.21274,-0.5342 5.9112,5.7568 0 0 1 0.27038,-0.51527 5.9112,5.7568 0 0 1 0.31597,-0.48098 5.9112,5.7568 0 0 1 0.0033,-0.003 5.9112,5.7568 0 0 1 0.36532,-0.4477 5.9112,5.7568 0 0 1 0.0033,-0.003 5.9112,5.7568 0 0 1 0.40764,-0.41051 5.9112,5.7568 0 0 0 0.0014,-0.002 5.9112,5.7568 0 0 0 0.0019,-5.1e-4 5.9112,5.7568 0 0 1 0.02853,-0.0218 5.9112,5.7568 0 0 1 2.5339,-1.3422 5.9112,5.7568 0 0 1 0.0038,-10e-4 5.9112,5.7568 0 0 1 0.58036,-0.11304 5.9112,5.7568 0 0 0 0.0019,-5e-4 5.9112,5.7568 0 0 1 0.58697,-0.0582 5.9112,5.7568 0 0 1 0.58654,5.5e-4 5.9112,5.7568 0 0 1 0.0043,8.8e-4 5.9112,5.7568 0 0 1 0.58321,0.056 5.9112,5.7568 0 0 1 1.6933,0.50877 5.9112,5.7568 0 0 1 0.5144,0.27466 5.9112,5.7568 0 0 1 1.3552,1.1109 l 8.4797,9.4152 12.774,-1.4675 a 5.9112,5.7568 0 0 1 6.2682,3.8183 5.9112,5.7568 0 0 0 -6.5276,-4.7861 l -12.775,1.47 -8.48,-9.4175 a 5.9112,5.7568 0 0 0 -1.354,-1.1091 5.9112,5.7568 0 0 0 -0.515,-0.2746 5.9112,5.7568 0 0 0 -0.0043,-8.7e-4 5.9112,5.7568 0 0 0 -0.54101,-0.22305 5.9112,5.7568 0 0 0 -1.148,-0.28485 5.9112,5.7568 0 0 0 -0.14332,-0.0142 5.9112,5.7568 0 0 0 -0.44417,-0.0427 5.9112,5.7568 0 0 0 -0.58654,-5.6e-4 5.9112,5.7568 0 0 0 -1.1692,0.17175 5.9112,5.7568 0 0 0 -0.0038,0.001 z m -7.914,38.986 1.099,11.601 a 5.9112,5.7568 0 0 0 0.32236,1.3917 5.9112,5.7568 0 0 1 -0.06354,-0.4258 l -1.18,-12.471 z m 34.646,-9.0529 -0.11062,0.18332 5.3815,11.376 a 5.9112,5.7568 0 0 1 0.19382,0.48188 5.9112,5.7568 0 0 0 -0.45264,-1.4478 z"
       style="opacity:0.2;fill:rgb(100.000%,100.000%,100.000%)"
       id="path682842" />
    <path
       d="m 4.6246,481.518 a 5.9112,5.7568 0 0 0 2.9243,4.039 l 7.4196,4.0477 3.6216,1.9777 -0.08144,-0.86989 -3.799,-2.0737 -7.4196,-4.0477 a 5.9112,5.7568 0 0 1 -2.6657,-3.073 z m 55.57,-14.411 a 5.9112,5.7568 0 0 1 0.02029,1.7133 5.9112,5.7568 0 0 0 5.17e-4,0.002 5.9112,5.7568 0 0 1 -0.10803,0.56276 5.9112,5.7568 0 0 1 -0.06467,0.21144 5.9112,5.7568 0 0 1 -0.10276,0.34095 5.9112,5.7568 0 0 1 -0.22268,0.53484 5.9112,5.7568 0 0 1 -0.27429,0.50823 l -6.5763,10.766 0.36944,0.78261 6.4638,-10.582 0.0019,-5.2e-4 a 5.9112,5.7568 0 0 0 0.27429,-0.50823 5.9112,5.7568 0 0 0 -5.18e-4,-0.002 5.9112,5.7568 0 0 0 0.22369,-0.53107 5.9112,5.7568 0 0 0 -5.17e-4,-0.002 5.9112,5.7568 0 0 0 0.10276,-0.34095 5.9112,5.7568 0 0 0 0.06467,-0.21144 5.9112,5.7568 0 0 0 0.10803,-0.56276 5.9112,5.7568 0 0 0 -5.17e-4,-0.002 5.9112,5.7568 0 0 0 -0.27911,-2.6792 z m -21.158,31.28 -9.4504,8.4992 a 5.9112,5.7568 0 0 1 -5.0613,1.433 5.9112,5.7568 0 0 0 -0.0019,5.2e-4 5.9112,5.7568 0 0 1 -2.1798,-0.84549 5.9112,5.7568 0 0 1 -1.3203,-1.1466 5.9112,5.7568 0 0 1 -0.35358,-0.45929 5.9112,5.7568 0 0 0 -5.17e-4,-0.002 5.9112,5.7568 0 0 1 -0.30392,-0.49282 5.9112,5.7568 0 0 1 -0.25224,-0.5188 5.9112,5.7568 0 0 0 -5.17e-4,-0.002 5.9112,5.7568 0 0 1 -0.10086,-0.2783 5.9112,5.7568 0 0 0 0.35968,1.2442 5.9112,5.7568 0 0 0 5.17e-4,0.002 5.9112,5.7568 0 0 0 0.25224,0.5188 5.9112,5.7568 0 0 0 0.30392,0.49282 5.9112,5.7568 0 0 0 0.35408,0.46118 5.9112,5.7568 0 0 0 1.8288,1.437 5.9112,5.7568 0 0 0 0.537,0.23827 5.9112,5.7568 0 0 0 0.55744,0.18629 5.9112,5.7568 0 0 0 0.0019,-5.2e-4 5.9112,5.7568 0 0 0 0.57499,0.13104 5.9112,5.7568 0 0 0 0.0019,-5.2e-4 5.9112,5.7568 0 0 0 5.0613,-1.433 l 9.4499,-8.5011 12.541,2.7624 0.0019,-5.2e-4 a 5.9112,5.7568 0 0 0 0.58062,0.0992 5.9112,5.7568 0 0 0 0.0019,-5.1e-4 5.9112,5.7568 0 0 0 0.58721,0.0408 5.9112,5.7568 0 0 0 0.0019,-5.2e-4 5.9112,5.7568 0 0 0 1.1754,-0.0885 5.9112,5.7568 0 0 0 0.0019,-5.2e-4 5.9112,5.7568 0 0 0 0.57581,-0.13002 5.9112,5.7568 0 0 0 0.55876,-0.18612 5.9112,5.7568 0 0 0 1.0471,-0.52929 5.9112,5.7568 0 0 0 2.3325,-6.7497 5.9112,5.7568 0 0 1 -1.2722,4.6397 5.9112,5.7568 0 0 0 -0.0019,5.2e-4 5.9112,5.7568 0 0 1 -1.826,1.4335 5.9112,5.7568 0 0 1 -0.53844,0.23931 5.9112,5.7568 0 0 1 -0.55876,0.18612 5.9112,5.7568 0 0 1 -0.57581,0.13002 5.9112,5.7568 0 0 0 -0.0019,5.2e-4 5.9112,5.7568 0 0 1 -0.58292,0.0733 5.9112,5.7568 0 0 1 -0.0038,10e-4 5.9112,5.7568 0 0 1 -1.1778,-0.0261 5.9112,5.7568 0 0 0 -0.0019,5.1e-4 5.9112,5.7568 0 0 1 -0.58062,-0.0992 l -0.0019,5.2e-4 -4.2826,-0.94324 z"
       style="opacity:0.2"
       id="path682844" />
  </g>
</svg>
