<?xml version="1.0" encoding="UTF-8" standalone="no"?>
<svg
   width="32"
   height="32"
   version="1"
   id="svg995232"
   sodipodi:docname="cs-notifications.svg"
   inkscape:version="1.1.2 (0a00cf5339, 2022-02-04)"
   xmlns:inkscape="http://www.inkscape.org/namespaces/inkscape"
   xmlns:sodipodi="http://sodipodi.sourceforge.net/DTD/sodipodi-0.dtd"
   xmlns="http://www.w3.org/2000/svg"
   xmlns:svg="http://www.w3.org/2000/svg">
  <defs
     id="defs995236" />
  <sodipodi:namedview
     id="namedview995234"
     pagecolor="#ffffff"
     bordercolor="#666666"
     borderopacity="1.0"
     inkscape:pageshadow="2"
     inkscape:pageopacity="0.0"
     inkscape:pagecheckerboard="0"
     showgrid="false"
     inkscape:zoom="25.84375"
     inkscape:cx="15.980653"
     inkscape:cy="28.382104"
     inkscape:window-width="1920"
     inkscape:window-height="1051"
     inkscape:window-x="0"
     inkscape:window-y="29"
     inkscape:window-maximized="1"
     inkscape:current-layer="svg995232" />
  <path
     fill="#4f4f4f"
     d="M 6.3889,7 C 5.6194,7 5,7.6133 5,8.375 v 16.5 c 0,0.76175 0.61944,1.375 1.3889,1.375 h 12.110746 v 0 l 0.67535,0.283233 1.780884,1.763061 v 0 l 1.475745,-0.05356 1.77385,-1.756098 L 24.79627,26.25 v 0 h 3.81493 c 0.769,0 1.388,-0.613 1.388,-1.375 V 8.375 C 29.9982,7.6133 29.3792,7 28.6092,7 Z"
     id="path995220"
     sodipodi:nodetypes="sssscccccccccsscss" />
  <path
     fill="#fff"
     opacity=".1"
     d="m6.3887 7c-0.7695 0-1.3887 0.6133-1.3887 1.375v1c0-0.7617 0.6192-1.375 1.3887-1.375h22.222c0.77 0 1.389 0.6133 1.389 1.375v-1c0-0.7617-0.619-1.375-1.389-1.375h-22.222z"
     id="path995222" />
  <circle
     opacity=".2"
     cx="10"
     cy="12"
     r="8"
     id="circle995224" />
  <circle
     fill="#4daaf5"
     cx="10"
     cy="11"
     r="8"
     id="circle995226" />
  <path
     style="fill:#ffffff"
     d="m 9,6 0,7 2,0 0,-7 z m 0,8 0,2 2,0 0,-2 z"
     id="path995228" />
  <path
     opacity="0.2"
     d="m 5,24.875 v 1 c 0,0.762 0.6192,1.375 1.3887,1.375 h 12.5 L 21.917348,27.393213 24.4447,27.25 h 4.166 c 0.77,0 1.389,-0.613 1.389,-1.375 v -1 c 0,0.762 -0.619,1.375 -1.389,1.375 h -4.166 L 22.759402,27.917711 21.917348,27.393213 20.561621,27.906655 18.8887,26.25 h -12.5 c -0.7698,0 -1.389,-0.613 -1.389,-1.375 z"
     id="path995230"
     sodipodi:nodetypes="csscccsscscccccscc" />
</svg>
