<?xml version="1.0" encoding="UTF-8" standalone="no"?>
<svg
   version="1.1"
   viewBox="0 0 512 512"
   id="svg149267"
   sodipodi:docname="kali-rainbowcrack.svg"
   inkscape:version="1.1.2 (0a00cf5339, 2022-02-04)"
   xmlns:inkscape="http://www.inkscape.org/namespaces/inkscape"
   xmlns:sodipodi="http://sodipodi.sourceforge.net/DTD/sodipodi-0.dtd"
   xmlns="http://www.w3.org/2000/svg"
   xmlns:svg="http://www.w3.org/2000/svg">
  <defs
     id="defs149271" />
  <sodipodi:namedview
     id="namedview149269"
     pagecolor="#ffffff"
     bordercolor="#666666"
     borderopacity="1.0"
     inkscape:pageshadow="2"
     inkscape:pageopacity="0.0"
     inkscape:pagecheckerboard="0"
     showgrid="false"
     inkscape:zoom="1.6152344"
     inkscape:cx="255.69045"
     inkscape:cy="256"
     inkscape:window-width="1920"
     inkscape:window-height="1051"
     inkscape:window-x="0"
     inkscape:window-y="29"
     inkscape:window-maximized="1"
     inkscape:current-layer="g149257" />
  <path
     d="m300.19 19.07-22.648 24.873c-18.142 19.803-32.375 42.995-41.574 67.813l-5.1426-58.236c-4.0601 7.8175-7.5794 15.891-10.535 24.139 3.0804-21.871 8.8864-42.101 17.297-58.295l-15.482 29.738c-19.435 37.42-27.119 80.564-20.529 121.4l-40.135-109.24c-2.1951 10.035-3.6549 20.204-4.3809 30.396-2.7251-23.338-2.2177-45.815 2.0039-65.113l-7.0898 32.709c-6.289 28.75-6.8168 58.619-1.502 87.199l-37.613-53.217c0.4861 9.9491 1.6855 19.842 3.5703 29.578-8.6485-21.568-13.985-43.116-14.934-62.531l1.6953 33.439c1.3966 28.584 8.4306 56.789 20.576 82.379l-51.086-42.469c2.9767 9.2015 6.6022 18.174 10.82 26.836-13.856-18.384-24.532-37.577-30.43-55.807l10.398 31.922c8.6535 26.749 22.545 51.725 40.609 72.943l-54.551-25.201c5.1352 7.9033 10.831 15.42 16.986 22.516-18.041-14.033-33.234-29.643-43.549-45.518l18.434 28.215c14.863 22.875 34.113 42.837 56.297 58.332l-59.344-10.365c6.8042 6.1188 14.029 11.744 21.574 16.867-20.87-8.7912-39.41-19.807-53.301-32.299l25.238 22.551c19.987 17.974 43.392 32.073 68.439 41.188l-58.773 5.0957c7.8498 4.0019 15.954 7.4735 24.234 10.393-22.129-3.057-42.592-8.8183-58.955-17.16l30.26 15.408c37.837 19.289 81.472 26.898 122.76 20.307l-110.43 39.824c10.115 2.1719 20.365 3.6196 30.639 4.3398-23.651 2.7265-46.424 2.2345-65.953-1.959l33.287 6.998c29.017 6.2308 59.165 6.7537 88.012 1.4883l-53.711 37.264c10.069-0.48288 20.08-1.6749 29.932-3.5508-21.87 8.6347-43.722 13.965-63.391 14.908l33.951-1.7774c28.849-1.3836 57.314-8.3511 83.141-20.383l-42.859 50.609c9.3429-2.9669 18.453-6.5818 27.244-10.793-18.624 13.812-38.077 24.454-56.545 30.318l32.279-10.396c26.999-8.5737 52.208-22.338 73.625-40.236l-25.438 54.049c8.039-5.1273 15.682-10.819 22.893-16.973-14.186 17.939-29.979 33.046-46.045 43.293l28.414-18.27c23.087-14.725 43.234-33.794 58.873-55.771l-10.461 58.793c6.2246-6.7945 11.943-14.013 17.146-21.553-8.8658 20.691-19.987 39.076-32.609 52.854l22.648-24.873c18.142-19.803 32.375-42.995 41.574-67.812l5.1426 58.236c4.0601-7.8175 7.5794-15.891 10.535-24.139-3.0805 21.871-8.8864 42.101-17.297 58.295l15.482-29.738c19.434-37.419 27.118-80.56 20.529-121.4l40.125 109.21c2.1944-10.032 3.6565-20.197 4.3828-30.387 2.7238 23.334 2.2152 45.808-2.0059 65.104l7.0898-32.709c6.2892-28.75 6.8172-58.62 1.502-87.201l37.613 53.219c-0.48611-9.9494-1.6854-19.842-3.5703-29.578 8.6488 21.568 13.985 43.117 14.934 62.533l-1.6953-33.443c-1.3966-28.584-8.4309-56.787-20.576-82.377l51.086 42.469c-2.9766-9.2012-6.6006-18.174-10.818-26.836 13.855 18.383 24.531 37.575 30.428 55.805l-10.398-31.92c-8.6536-26.75-22.545-51.726-40.609-72.945l54.551 25.203c-5.1342-7.9018-10.829-15.418-16.982-22.512 18.039 14.032 33.231 29.641 43.545 45.514l-18.434-28.215c-14.863-22.875-34.111-42.837-56.295-58.332l59.342 10.365c-6.8064-6.1208-14.034-11.747-21.582-16.871 20.873 8.7915 39.416 19.808 53.309 32.301l-25.238-22.549c-19.987-17.974-43.392-32.073-68.439-41.188l58.773-5.0957c-7.8779-4.0162-16.019-7.4786-24.33-10.404 22.166 3.0536 42.664 8.818 59.051 17.172l-30.26-15.408c-37.797-19.269-81.381-26.881-122.63-20.326l110.31-39.781c-10.115-2.1719-20.365-3.6196-30.639-4.3398 23.651-2.7265 46.424-2.2345 65.953 1.959l-33.287-6.998c-29.017-6.2308-59.165-6.7537-88.012-1.4883l53.711-37.264c-10.069 0.48288-20.08 1.6749-29.932 3.5508 21.87-8.6347 43.722-13.965 63.391-14.908l-33.951 1.7774c-28.849 1.3836-57.314 8.3511-83.141 20.383l42.859-50.609c-9.3429 2.9669-18.453 6.5818-27.244 10.793 18.624-13.812 38.077-24.454 56.545-30.318l-32.279 10.396c-26.999 8.5737-52.208 22.338-73.625 40.236l25.438-54.049c-8.0382 5.1268-15.681 10.818-22.891 16.971 14.186-17.938 29.978-33.044 46.043-43.291l-28.414 18.27c-23.087 14.725-43.234 33.794-58.873 55.771l10.461-58.793c-6.2246 6.7945-11.943 14.013-17.146 21.553 8.8658-20.691 19.987-39.076 32.609-52.854z"
     fill-rule="evenodd"
     opacity=".3"
     id="path149205" />
  <path
     d="m284.73 40.371c-22.803 24.89-39.072 55.309-46.461 87.402l-7.4414-84.254c-32.199 61.998-30.412 140.06 17.146 194.12l-0.63281-7.168c0.82267 1.8431 1.6783 3.68 2.5801 5.5059l1.1777-6.6191c0.29565 1.8352 0.6154 3.6717 0.97852 5.5098l4.373-9.293c-0.24766 2.2231-0.4534 4.459-0.60938 6.7109l3.3066-3.9062c-0.79434 2.0297-1.5564 4.0808-2.2754 6.1582l7.5801-5.2578c-1.4758 1.9797-2.9145 3.9985-4.3144 6.0606l202.48-73.021c-35.963-7.7223-73.636-6.2814-108.01 4.4141l75.736-52.545c-35.851 1.7194-70.983 12.431-100.73 30.986l59.953-70.793c-33.686 10.697-64.364 29.798-87.855 55.018l36.689-77.959c-28.882 18.421-52.871 43.896-68.689 73.313l15.016-84.385zm-123.29 10.889c-7.7944 35.631-6.3405 72.957 4.4551 107.01l-53.037-75.039c1.7355 35.521 12.548 70.33 31.277 99.799l-71.455-59.402c10.797 33.374 30.077 63.769 55.531 87.043l-78.684-36.35c18.594 28.618 44.308 52.386 74.002 68.059l-85.178-14.879c25.123 22.593 55.825 38.709 88.219 46.029l-85.041 7.373c62.576 31.902 141.37 30.133 195.93-16.986l-7.2363 0.62696c1.861-0.81536 3.715-1.6629 5.5586-2.5566l-6.6836-1.168c1.8533-0.29304 3.7082-0.60879 5.5644-0.96875l-9.3789-4.332c2.2436 0.24534 4.5008 0.449 6.7734 0.60352l-3.9394-3.2754c2.0474 0.78649 4.1154 1.5401 6.2109 2.252l-5.3066-7.5078c1.9978 1.4618 4.0363 2.8867 6.1172 4.2734l-73.701-200.61zm220.98 158.25c-38.825-0.11451-77.183 12.041-107.88 38.545l7.2363-0.62695c-1.861 0.81535-3.715 1.6629-5.5586 2.5566l6.6836 1.168c-1.8533 0.29303-3.7082 0.60879-5.5644 0.96875l9.3789 4.332c-2.2436-0.24533-4.5008-0.449-6.7734-0.60352l3.9394 3.2754c-2.0474-0.78649-4.1154-1.542-6.2109-2.2539l5.3086 7.5117c-1.9985-1.4624-4.0374-2.8881-6.1191-4.2754l73.701 200.61c7.7945-35.632 6.341-72.958-4.4551-107.02l53.037 75.041c-1.7354-35.52-12.547-70.329-31.275-99.797l71.453 59.4c-10.796-33.373-30.075-63.769-55.527-87.043l78.68 36.35c-18.593-28.616-44.305-52.384-73.996-68.057l85.172 14.877c-25.123-22.593-55.825-38.709-88.219-46.029l85.041-7.373c-27.377-13.957-57.857-21.47-88.055-21.559zm-118.38 64.846 0.63282 7.168c-0.82268-1.8431-1.6783-3.68-2.5801-5.5059l-1.1777 6.6191c-0.29564-1.8352-0.6154-3.6717-0.97851-5.5098l-4.373 9.293c0.24766-2.2231 0.45339-4.459 0.60938-6.7109l-3.3066 3.9043c0.79412-2.0291 1.5566-4.0794 2.2754-6.1562l-7.5801 5.2578c1.4758-1.9797 2.9145-3.9985 4.3144-6.0606l-202.48 73.021c35.963 7.7223 73.636 6.2814 108.01-4.4141l-75.736 52.545c35.851-1.7194 70.983-12.431 100.73-30.986l-59.953 70.793c33.686-10.697 64.364-29.798 87.855-55.018l-36.689 77.959c28.882-18.421 52.871-43.896 68.689-73.312l-15.016 84.385c22.803-24.89 39.072-55.309 46.461-87.402l7.4414 84.254c32.199-61.998 30.412-140.06-17.146-194.12z"
     fill="#622e78"
     fill-rule="evenodd"
     id="path149207" />
  <g
     fill-rule="evenodd"
     shape-rendering="auto"
     id="g149257">
    <path
       d="m 268.13,240.73 12.817,14.661 c 40.45552,-34.93336 120.00256,-44.55616 180.92271,-32.04311 16.09379,3.30568 0.62761,-7.25277 13.05729,-0.91589 v 0 c -4.724,-2.40833 -9.53841,-4.63461 -14.42735,-6.67393 C 397.42571,189.44805 321.94546,194.25624 268.127,240.73 Z"
       color="#000000"
       color-rendering="auto"
       dominant-baseline="auto"
       fill="#0ca15e"
       image-rendering="auto"
       solid-color="#000000"
       id="path149209"
       sodipodi:nodetypes="ccsccscc" />
    <path
       d="m 271.99,241.36 8.4507,17.246 c 51.05687,-24.75281 135.68185,-11.70888 192.35889,18.88105 12.41303,6.69961 -1.75152,-8.30716 7.33411,-0.13705 v 0 c -2.10169,-1.88998 -4.24118,-3.73714 -6.4164,-5.54018 C 418.28286,225.8603 339.63893,208.56194 271.9837,241.359 Z"
       color="#000000"
       color-rendering="auto"
       dominant-baseline="auto"
       fill="#f8de68"
       image-rendering="auto"
       solid-color="#000000"
       id="path149211"
       sodipodi:nodetypes="ccsccscc" />
    <path
       d="m 275.51,242.71 3.6579,18.825 c 55.97182,-10.85356 133.70344,22.55851 181.44636,66.34788 11.43011,10.48359 -2.47592,-14.26416 4.80636,-3.05601 l 5.18328,7.61113 c -1.6729,-2.57467 -3.40135,-5.11245 -5.18328,-7.61113 C 423.07776,265.45243 350.53669,228.1603 275.5139,242.71 Z"
       color="#000000"
       color-rendering="auto"
       dominant-baseline="auto"
       fill="#fd7d00"
       image-rendering="auto"
       solid-color="#000000"
       id="path149213"
       sodipodi:nodetypes="ccsccscc" />
    <path
       d="m 280.63,246.29 -1.3852,19.122 c 60.10497,4.08663 130.12506,60.66469 164.14776,118.24758 6.68172,11.30871 1.57706,-9.26382 5.13424,1.73242 v 0 c -0.59353,-1.83469 -1.21167,-3.66105 -1.8541,-5.47845 C 421.58576,308.94335 359.47565,251.64492 280.6268,246.292 Z"
       color="#000000"
       color-rendering="auto"
       dominant-baseline="auto"
       fill="#d41919"
       image-rendering="auto"
       solid-color="#000000"
       id="path149215"
       sodipodi:nodetypes="ccsccscc" />
    <path
       d="m 280.84,247.82 -6.3321,18.115 c 57.40525,19.50111 110.40444,91.55267 129.06304,156.38375 3.92372,13.63333 4.63323,-6.49464 5.24136,5.94425 v 0 c -0.12776,-2.61485 -0.30263,-5.22654 -0.52423,-7.83338 C 401.86648,344.88671 356.2076,273.42938 280.8423,247.823 Z"
       color="#000000"
       color-rendering="auto"
       dominant-baseline="auto"
       fill="#8c42ab"
       image-rendering="auto"
       solid-color="#000000"
       id="path149217"
       sodipodi:nodetypes="ccsccscc" />
    <path
       d="m 282.28,252.17 -10.849,15.875 c 51.33606,34.21136 84.17524,118.57121 85.17647,187.08071 0.20945,14.33143 6.11547,-4.73876 3.41633,7.60129 v 0 c 0.66975,-3.06171 1.27424,-6.13614 1.81336,-9.22038 C 375.02974,378.03313 349.07529,296.68805 282.2798,252.177 Z"
       color="#000000"
       color-rendering="auto"
       dominant-baseline="auto"
       fill="#367bf0"
       image-rendering="auto"
       solid-color="#000000"
       id="path149219"
       sodipodi:nodetypes="ccsccscc" />
    <path
       d="m 271.44,268.01 -14.797,12.699 c 36.18479,41.13347 45.50984,122.9012 31.36423,183.74899 -3.27957,14.10718 7.66227,-2.64813 1.90177,8.44301 v 0 c 1.57813,-3.03861 3.0788,-6.11498 4.50068,-9.22481 C 323.43313,400.19794 319.62256,322.77794 271.441,268.011 Z"
       color="#000000"
       color-rendering="auto"
       dominant-baseline="auto"
       fill="#0ca15e"
       image-rendering="auto"
       solid-color="#000000"
       id="path149221"
       sodipodi:nodetypes="ccsccscc" />
    <path
       d="m 270.8,271.83 -17.407,8.3726 c 25.16074,50.94274 11.70501,135.52716 -19.61396,191.64799 -6.59129,11.81103 1.48541,1.06933 -6.49484,9.78001 l 7.1898,-3.581 c 1.51187,-1.65031 2.9966,-3.32414 4.45353,-5.02049 C 286.15643,418.03902 304.17252,339.39532 270.8,271.8296 Z"
       color="#000000"
       color-rendering="auto"
       dominant-baseline="auto"
       fill="#f8de68"
       image-rendering="auto"
       solid-color="#000000"
       id="path149223"
       sodipodi:nodetypes="ccsccscc" />
    <path
       d="m 269.44,275.32 -19.001,3.6241 c 11.19906,56.68897 -24.24775,135.90765 -69.87364,182.88911 -9.69199,9.97994 8.57071,0.23622 -1.69036,6.78189 v 0 c 1.88502,-1.20227 3.75046,-2.43351 5.59545,-3.69292 C 245.60785,423.18916 284.29666,350.516 269.44,275.3251 Z"
       color="#000000"
       color-rendering="auto"
       dominant-baseline="auto"
       fill="#fd7d00"
       image-rendering="auto"
       solid-color="#000000"
       id="path149225"
       sodipodi:nodetypes="ccsccscc" />
    <path
       d="m 265.82,280.4 -19.3,-1.3724 c -4.0452,58.40159 -59.08874,126.31808 -116.04658,160.73305 -12.52591,7.56838 7.1346,3.11953 -5.05442,6.98995 v 0 c 2.71853,-0.86326 5.41894,-1.7791 8.09919,-2.74643 C 203.95875,418.5813 260.47244,357.58572 265.819,280.4006 Z"
       color="#000000"
       color-rendering="auto"
       dominant-baseline="auto"
       fill="#d41919"
       image-rendering="auto"
       solid-color="#000000"
       id="path149227"
       sodipodi:nodetypes="ccsccscc" />
    <path
       d="m 264.28,280.6 -18.284,-6.2736 c -19.45955,56.23028 -90.89768,108.26202 -155.791933,127.31913 -14.548013,4.27222 5.183849,5.10975 -8.047067,5.74337 v 0 c 3.297374,-0.15814 6.589795,-0.38914 9.873882,-0.69226 C 167.54899,399.72654 238.66097,354.62758 264.277,280.5989 Z"
       color="#000000"
       color-rendering="auto"
       dominant-baseline="auto"
       fill="#8c42ab"
       image-rendering="auto"
       solid-color="#000000"
       id="path149229"
       sodipodi:nodetypes="ccsccscc" />
    <path
       d="m 259.89,282.03 -16.023,-10.749 c -33.79745,49.78351 -116.26788,82.02722 -184.650633,84.30851 -16.096541,0.537 1.875486,6.41133 -11.841367,3.46599 v 0 c 3.925574,0.84291 7.871863,1.58148 11.832838,2.21549 C 134.66767,373.34941 215.45757,347.47708 259.895,282.0295 Z"
       color="#000000"
       color-rendering="auto"
       dominant-baseline="auto"
       fill="#367bf0"
       image-rendering="auto"
       solid-color="#000000"
       id="path149231"
       sodipodi:nodetypes="ccsccscc" />
    <path
       d="m 243.87,271.25 -12.817,-14.661 c -41.62011,35.93898 -124.61477,45.0892 -186.136118,30.90752 -14.076398,-3.24484 3.23137,7.69785 -7.843882,2.05148 v 0 c 2.23955,1.14174 4.499417,2.24256 6.777913,3.30194 C 108.38441,322.85472 187.86064,319.61825 243.873,271.25 Z"
       color="#000000"
       color-rendering="auto"
       dominant-baseline="auto"
       fill="#0ca15e"
       image-rendering="auto"
       solid-color="#000000"
       id="path149233"
       sodipodi:nodetypes="ccsccscc" />
    <path
       d="m 240.01,270.61 -8.4507,-17.246 c -50.45594,24.46147 -133.694477,12.00957 -190.346162,-17.80998 -13.229959,-6.9638 6.71195,10.56021 -2.861938,1.95098 l -6.4849,-2.885 c 2.705726,2.43317 5.474107,4.79537 8.300734,7.08383 C 95.48959,286.4935 173.12406,303.03818 240.0163,270.611 Z"
       color="#000000"
       color-rendering="auto"
       dominant-baseline="auto"
       fill="#f8de68"
       image-rendering="auto"
       solid-color="#000000"
       id="path149235"
       sodipodi:nodetypes="ccsccscc" />
    <path
       d="m 236.49,269.27 -3.6579,-18.825 C 175.59305,261.54429 95.597755,226.35087 48.189694,181.10733 38.140613,171.51706 56.120816,194.47322 49.5272,184.325 l -8.1311,-4.783 c 1.404982,2.16233 2.849143,4.29864 4.331261,6.40762 C 87.94454,246.02253 160.95767,283.91776 236.4861,269.27 Z"
       color="#000000"
       color-rendering="auto"
       dominant-baseline="auto"
       fill="#fd7d00"
       image-rendering="auto"
       solid-color="#000000"
       id="path149237"
       sodipodi:nodetypes="ccsccscc" />
    <path
       d="m 231.37,265.69 1.3852,-19.122 C 171.3689,242.39425 99.640238,183.46572 66.481065,124.63623 c -5.684072,-10.08442 3.171049,9.8023 0,0 L 63.4732,126.59 c 23.771,73.48 87.032,133.61 167.9,139.1 z"
       color="#000000"
       color-rendering="auto"
       dominant-baseline="auto"
       fill="#d41919"
       image-rendering="auto"
       solid-color="#000000"
       id="path149239"
       sodipodi:nodetypes="ccscccc" />
    <path
       d="m 231.16,264.16 6.3321,-18.115 C 180.57393,226.70935 127.98736,155.71124 108.9114,91.318512 c -4.20905,-14.208064 -4.39374,15.112958 -5.02641,2.173991 L 103.1877,83.725 c 0.15937,3.261845 0.39205,6.51879 0.69729,9.767503 7.0304,74.825707 52.55091,145.284757 127.27271,170.672497 z"
       color="#000000"
       color-rendering="auto"
       dominant-baseline="auto"
       fill="#8c42ab"
       image-rendering="auto"
       solid-color="#000000"
       id="path149241"
       sodipodi:nodetypes="ccsccscc" />
    <path
       d="m 229.72,259.81 10.849,-15.875 C 189.87623,210.15234 157.21968,127.47014 155.44514,59.437101 155.0467,44.161403 146.60535,75.777376 149.46617,62.698129 L 151.9762,49.253 c -0.97513,4.457744 -1.81193,8.942452 -2.51003,13.445129 C 137.95166,136.9655 164.16931,216.12133 229.7202,259.803 Z"
       color="#000000"
       color-rendering="auto"
       dominant-baseline="auto"
       fill="#367bf0"
       image-rendering="auto"
       solid-color="#000000"
       id="path149243"
       sodipodi:nodetypes="ccsccscc" />
    <path
       d="m 240.57,243.99 14.797,-12.699 C 218.0883,188.91402 209.31789,103.40878 225.34995,42.082546 228.48737,30.081235 217.09264,48.743906 222.102,39.099 v 0 c -33.791,65.063 -32.074,147.44 18.468,204.89 z"
       color="#000000"
       color-rendering="auto"
       dominant-baseline="auto"
       fill="#0ca15e"
       image-rendering="auto"
       solid-color="#000000"
       id="path149245"
       sodipodi:nodetypes="ccscccc" />
    <path
       d="m 241.21,240.17 17.407,-8.3726 C 232.99688,179.92456 247.41613,93.170394 279.96409,37.104344 c 6.14354,-10.582645 -7.28795,7.955002 0,0 L 277.536,33.9504 c -50.522,55.148 -70.728,136.57 -36.326,206.22 z"
       color="#000000"
       color-rendering="auto"
       dominant-baseline="auto"
       fill="#f8de68"
       image-rendering="auto"
       solid-color="#000000"
       id="path149247"
       sodipodi:nodetypes="ccscccc" />
    <path
       d="m 242.57,236.68 19.001,-3.6241 C 250.47166,176.87174 285.19115,98.557317 330.22822,51.429504 340.28573,40.905094 322.44378,50.204966 333.135,43.3849 v 0 c -2.00268,1.277315 -3.98325,2.587316 -5.94068,3.929066 C 266.2566,89.084614 227.74132,161.62562 242.57,236.6749 Z"
       color="#000000"
       color-rendering="auto"
       dominant-baseline="auto"
       fill="#fd7d00"
       image-rendering="auto"
       solid-color="#000000"
       id="path149249"
       sodipodi:nodetypes="ccsccscc" />
    <path
       d="m 246.19,231.6 19.3,1.3724 C 269.49728,175.11828 323.55124,107.92682 379.93532,73.215992 392.98594,65.181847 373.8824,69.284801 386.591,65.2494 v 0 c -2.61687,0.830984 -5.21696,1.710679 -7.79844,2.638134 C 308.21217,93.245165 251.54517,154.30446 246.191,231.5994 Z"
       color="#000000"
       color-rendering="auto"
       dominant-baseline="auto"
       fill="#d41919"
       image-rendering="auto"
       solid-color="#000000"
       id="path149251"
       sodipodi:nodetypes="ccsccscc" />
    <path
       d="m 247.73,231.4 18.284,6.2736 c 19.45316,-56.21181 90.85076,-108.22784 155.72798,-127.30034 14.5703,-4.28335 -5.13928,-5.12761 8.11102,-5.76216 v 0 c -3.08823,0.14811 -6.17212,0.36013 -9.24889,0.63545 -75.75047,6.77834 -147.18443,51.92168 -172.87111,126.15455 z"
       color="#000000"
       color-rendering="auto"
       dominant-baseline="auto"
       fill="#8c42ab"
       image-rendering="auto"
       solid-color="#000000"
       id="path149253"
       sodipodi:nodetypes="ccsccscc" />
    <path
       d="m 252.12,229.97 16.023,10.749 c 33.46969,-49.30072 114.67288,-81.40018 182.65721,-84.2337 16.82523,-0.70126 -12.54682,-8.86552 1.73516,-5.79884 l 12.09963,2.25804 c -4.0137,-0.86183 -8.04906,-1.61459 -12.09963,-2.25804 -75.3834,-11.97483 -156.03531,13.91358 -200.42037,79.28404 z"
       color="#000000"
       color-rendering="auto"
       dominant-baseline="auto"
       fill="#367bf0"
       image-rendering="auto"
       solid-color="#000000"
       id="path149255"
       sodipodi:nodetypes="ccsccscc" />
  </g>
  <g
     id="g149265">
    <circle
       cx="256"
       cy="256"
       r="49.712"
       fill="#622e78"
       id="circle149259" />
    <path
       d="m256 206.29a49.712 49.712 0 0 0-49.711 49.711 49.712 49.712 0 0 0 0.11789 3.3704 49.712 49.712 0 0 1 49.593-47.333 49.712 49.712 0 0 1 49.593 46.341 49.712 49.712 0 0 0 0.11789-2.3785 49.712 49.712 0 0 0-49.711-49.711z"
       fill="#fff"
       opacity=".1"
       id="path149261" />
    <path
       d="m305.59 252.63a49.712 49.712 0 0 1-49.593 47.333 49.712 49.712 0 0 1-49.593-46.341 49.712 49.712 0 0 0-0.11789 2.3785 49.712 49.712 0 0 0 49.711 49.711 49.712 49.712 0 0 0 49.711-49.711 49.712 49.712 0 0 0-0.11789-3.3704z"
       opacity=".3"
       id="path149263" />
  </g>
</svg>
