<?xml version="1.0" encoding="UTF-8" standalone="no"?>
<svg
   width="32"
   height="32"
   version="1"
   id="svg2146867"
   sodipodi:docname="sgt-launcher.svg"
   inkscape:version="1.1.2 (0a00cf5339, 2022-02-04)"
   xmlns:inkscape="http://www.inkscape.org/namespaces/inkscape"
   xmlns:sodipodi="http://sodipodi.sourceforge.net/DTD/sodipodi-0.dtd"
   xmlns="http://www.w3.org/2000/svg"
   xmlns:svg="http://www.w3.org/2000/svg">
  <defs
     id="defs2146871" />
  <sodipodi:namedview
     id="namedview2146869"
     pagecolor="#ffffff"
     bordercolor="#666666"
     borderopacity="1.0"
     inkscape:pageshadow="2"
     inkscape:pageopacity="0.0"
     inkscape:pagecheckerboard="0"
     showgrid="false"
     inkscape:zoom="25.84375"
     inkscape:cx="15.980653"
     inkscape:cy="16"
     inkscape:window-width="1920"
     inkscape:window-height="1051"
     inkscape:window-x="0"
     inkscape:window-y="29"
     inkscape:window-maximized="1"
     inkscape:current-layer="svg2146867" />
  <g
     id="g2146835">
    <path
       style="opacity:0.2"
       d="M 2,17 2,29.599609 C 2,30.375209 2.6247906,31 3.4003906,31 L 16,31 28.599609,31 C 29.375209,31 30,30.375209 30,29.599609 L 30,17 16,17 2,17 Z"
       id="path2146833" />
  </g>
  <path
     style="fill:#8e8e8e"
     d="M 16,2 3.4,2 C 2.6244,2 2,2.6244 2,3.4 L 2,16 16,16 Z"
     id="path2146837" />
  <path
     style="fill:#e4e4e4"
     d="M 16,2 28.6,2 C 29.3756,2 30,2.6244 30,3.4 L 30,16 16,16 Z"
     id="path2146839" />
  <path
     style="fill:#45792a"
     d="M 16,30 3.4,30 C 2.6244,30 2,29.3756 2,28.6 L 2,16 16,16 Z"
     id="path2146841" />
  <path
     style="fill:#8e8e8e"
     d="m 16,30 12.6,0 C 29.3756,30 30,29.3756 30,28.6 L 30,16 16,16 Z"
     id="path2146843" />
  <circle
     style="opacity:0.1"
     cx="9"
     cy="10"
     r="4"
     id="circle2146845" />
  <circle
     style="fill:#ffffff"
     cx="9"
     cy="9"
     r="4"
     id="circle2146847" />
  <path
     style="opacity:0.1"
     transform="matrix(0.6220694,0,0,0.71830386,0.24726492,-0.22114771)"
     d="m 14.070352,26.759076 4.018844,6.960842 4.018844,6.960843 -8.037688,0 -8.037689,0 4.018844,-6.960842 z"
     id="path2146849" />
  <path
     style="fill:#ffdd4c"
     transform="matrix(0.6220694,0,0,0.71830386,0.24726492,-1.2211477)"
     d="m 14.070352,28.151244 0.707294,-0.167099 3.31155,5.735773 3.295117,5.70731 -0.724987,1.253533 v 0 H 14.070352 7.3860427 v 0 L 6.8362534,39.288902 10.051507,33.719919 13.361479,27.98688 Z"
     id="path2146851"
     sodipodi:nodetypes="ccccccccccccc" />
  <path
     style="opacity:0.1"
     d="m 22,6 0,3 -3,0 0,2 3,0 0,3 2,0 0,-3 3,0 0,-2 -3,0 0,-3 -2,0 z"
     id="path2146853" />
  <path
     style="fill:#3f3f3f"
     d="M 22 5 L 22 8 L 19 8 L 19 10 L 22 10 L 22 13 L 24 13 L 24 10 L 27 10 L 27 8 L 24 8 L 24 5 L 22 5 z"
     id="path2146855" />
  <rect
     style="opacity:0.1"
     width="2"
     height="8"
     x="25"
     y="21"
     id="rect2146857" />
  <rect
     style="fill:#3f3f3f"
     width="2"
     height="8"
     x="25"
     y="20"
     id="rect2146859" />
  <path
     style="opacity:0.1"
     transform="matrix(0,0.43544858,0.64647347,0,0.70096721,16.373085)"
     d="m 14.070352,26.759076 4.018844,6.960842 4.018844,6.960843 -8.037688,0 -8.037689,0 4.018844,-6.960842 z"
     id="path2146861" />
  <path
     style="fill:#e33939"
     transform="matrix(0,0.43544858,0.64647347,0,0.70096721,15.373085)"
     d="m 13.118169,28.408305 1.869761,-0.05994 3.101266,5.371551 3.666911,6.351278 -0.831203,0.609565 v 0 l -6.854552,0 H 7.6743173 v 0 L 6.5984582,39.700775 10.051507,33.719919 Z"
     id="path2146863"
     sodipodi:nodetypes="ccccccccccccc" />
  <path
     style="fill:#ffffff;opacity:0.2"
     d="M 3.4003906 2 C 2.6247906 2 2 2.6247906 2 3.4003906 L 2 4.4003906 C 2 3.6247906 2.6247906 3 3.4003906 3 L 16 3 L 28.599609 3 C 29.375209 3 30 3.6247906 30 4.4003906 L 30 3.4003906 C 30 2.6247906 29.375209 2 28.599609 2 L 16 2 L 3.4003906 2 z"
     id="path2146865" />
</svg>
