<?xml version="1.0" encoding="UTF-8" standalone="no"?>
<svg
   width="32"
   height="32"
   version="1"
   id="svg2009888"
   sodipodi:docname="slimjet.svg"
   inkscape:version="1.1.2 (0a00cf5339, 2022-02-04)"
   xmlns:inkscape="http://www.inkscape.org/namespaces/inkscape"
   xmlns:sodipodi="http://sodipodi.sourceforge.net/DTD/sodipodi-0.dtd"
   xmlns="http://www.w3.org/2000/svg"
   xmlns:svg="http://www.w3.org/2000/svg">
  <defs
     id="defs2009892" />
  <sodipodi:namedview
     id="namedview2009890"
     pagecolor="#ffffff"
     bordercolor="#666666"
     borderopacity="1.0"
     inkscape:pageshadow="2"
     inkscape:pageopacity="0.0"
     inkscape:pagecheckerboard="0"
     showgrid="false"
     inkscape:zoom="25.84375"
     inkscape:cx="15.980653"
     inkscape:cy="16"
     inkscape:window-width="1920"
     inkscape:window-height="1051"
     inkscape:window-x="0"
     inkscape:window-y="29"
     inkscape:window-maximized="1"
     inkscape:current-layer="g2009882" />
  <rect
     opacity=".2"
     width="28"
     height="28"
     x="2"
     y="3"
     rx="14"
     ry="14"
     id="rect2009870" />
  <rect
     fill="#37a0f2"
     width="28"
     height="28"
     x="2"
     y="2"
     rx="14"
     ry="14"
     id="rect2009872" />
  <g
     opacity=".2"
     transform="matrix(-.021264 -.021291 -.021315 .021341 25.746 18.535)"
     id="g2009878">
    <g
       id="g2009876">
      <path
         d="m76.784 5.2979 94.375 163.83 39.378 297 54.998-202.85 117.26 93.553 0.0582 93.773 46.94-93.744 93.968-46.828-93.997-0.058-94.37-117.56 203.92-54.29-297.65-39.223-164.89-93.589z"
         id="path2009874" />
    </g>
  </g>
  <g
     fill="#fff"
     transform="matrix(-.021264 -.021291 -.021315 .021341 25.746 17.535)"
     id="g2009884">
    <g
       id="g2009882">
      <path
         d="M 76.784,5.2979 93.180088,33.76064 171.159,169.1279 l 33.6983,254.16211 16.32031,3.59196 v 0 L 265.535,263.2779 l 117.26,93.553 0.0416,66.95528 v 0 l 12.63375,1.62005 34.32289,-68.54633 67.09522,-33.43622 -4.02106,-13.41084 v 0 l -63.10316,-0.0389 -94.37,-117.56 166.31887,-44.27938 v 0 L 500.06297,132.95155 241.6642,98.9009 107.38721,22.687368 93.180088,33.76064 Z"
         id="path2009880"
         sodipodi:nodetypes="cccccccccccccccccccccccc" />
    </g>
  </g>
  <path
     fill="#fff"
     opacity=".2"
     d="m16 2c-7.756 0-14 6.244-14 14 0 0.169 0.0195 0.333 0.0254 0.5 0.2637-7.5206 6.3874-13.5 13.975-13.5 7.587 0 13.711 5.9794 13.975 13.5 0.005-0.167 0.025-0.331 0.025-0.5 0-7.756-6.244-14-14-14z"
     id="path2009886" />
</svg>
