<?xml version="1.0" encoding="UTF-8" standalone="no"?>
<svg
   width="32"
   height="32"
   version="1.1"
   id="svg248488"
   sodipodi:docname="start-here-kaos.svg"
   inkscape:version="1.1.2 (0a00cf5339, 2022-02-04)"
   xmlns:inkscape="http://www.inkscape.org/namespaces/inkscape"
   xmlns:sodipodi="http://sodipodi.sourceforge.net/DTD/sodipodi-0.dtd"
   xmlns="http://www.w3.org/2000/svg"
   xmlns:svg="http://www.w3.org/2000/svg">
  <defs
     id="defs248492" />
  <sodipodi:namedview
     id="namedview248490"
     pagecolor="#ffffff"
     bordercolor="#666666"
     borderopacity="1.0"
     inkscape:pageshadow="2"
     inkscape:pageopacity="0.0"
     inkscape:pagecheckerboard="0"
     showgrid="false"
     inkscape:zoom="25.84375"
     inkscape:cx="15.980653"
     inkscape:cy="16"
     inkscape:window-width="1920"
     inkscape:window-height="1051"
     inkscape:window-x="0"
     inkscape:window-y="29"
     inkscape:window-maximized="1"
     inkscape:current-layer="svg248488" />
  <path
     style="opacity:0.2"
     d="M 20.196262,4.0068984 C 19.681867,4.0192994 19.155877,4.0781154 18.62317,4.1846089 15.83896,4.7413191 13.891866,6.5199429 12.235168,8.5160561 12.161526,8.0454174 12.051966,7.5703832 11.788222,7.0709384 11.18018,5.9195041 9.611406,5.0082562 8.3824594,5.0067636 6.8033575,5.0048458 5.8338029,5.6860417 5.0001167,6.4167297 4.1664305,7.1474179 3.4834671,8.0639813 2.9586104,9.1605005 1.2548388,12.720155 2.095179,16.51518 3.3665213,19.7372 c 1.2713423,3.222019 3.1281812,6.079109 4.5807029,8.047743 a 2.9981523,2.9998955 0 0 0 5.1779318,-2.937104 c -0.0957,-0.22911 -0.113016,-0.373977 -0.199077,-0.591717 5.873004,-0.416053 8.149987,-1.000174 13.726495,1.823973 a 2.9981523,2.9998955 0 0 0 3.312081,-4.946599 c -2.445346,-2.108914 -6.253262,-5.08466 -10.714981,-6.379999 1.228664,-0.720642 2.236283,-1.353584 4.010799,-2.378585 0.9189,-0.530715 1.764936,-1.157892 2.330362,-2.323907 C 26.156261,8.8849914 25.975683,7.0764716 25.243428,6.0730261 23.778917,4.0661355 21.994749,3.9635407 20.196262,4.0068984 Z"
     id="path248472" />
  <path
     style="fill:#124364"
     d="M 20.196262,3.0068986 C 19.681867,3.0192996 19.155877,3.0781156 18.62317,3.1846091 15.83896,3.7413193 13.891866,5.5199431 12.235168,7.5160563 12.161526,7.0454176 12.051966,6.5703834 11.788222,6.0709386 11.18018,4.9195043 9.611406,4.0082564 8.3824594,4.0067638 6.8033575,4.004846 5.8338029,4.6860419 5.0001167,5.4167299 4.1664305,6.1474181 3.4834671,7.0639815 2.9586104,8.1605007 1.2548388,11.720155 2.095179,15.51518 3.3665213,18.7372 c 1.2713423,3.222019 3.1281812,6.079109 4.5807029,8.047743 a 2.9981523,2.9998955 0 0 0 5.1779318,-2.937104 c -0.0957,-0.22911 -0.113016,-0.373977 -0.199077,-0.591717 5.873004,-0.416053 8.149987,-1.000174 13.726495,1.823973 a 2.9981523,2.9998955 0 0 0 3.312081,-4.946599 c -2.445346,-2.108914 -6.253262,-5.08466 -10.714981,-6.379999 1.228664,-0.720642 2.236283,-1.353584 4.010799,-2.378585 0.9189,-0.530715 1.764936,-1.157892 2.330362,-2.3239064 C 26.156261,7.8849916 25.975683,6.0764718 25.243428,5.0730263 23.778917,3.0661357 21.994749,2.9635409 20.196262,3.0068986 Z"
     id="path248474" />
  <path
     style="opacity:0.2"
     d="M 20.255859,7 C 19.916223,7.0081832 19.56078,7.046513 19.197266,7.1191406 13.993523,8.1590381 10.668869,15.999387 9.2910156,20.400391 13.000107,14.214652 16.04725,13.063615 21.75,9.7714844 24.196971,8.3590482 22.633313,6.9427179 20.255859,7 Z M 8.3574219,8 c -0.8286284,-0.00101 -2.0072722,0.9636791 -2.71875,2.449219 -1.8941233,3.955052 0.7916738,9.631449 3.2950134,13.513486 0.4873475,0.755751 0.1179191,-0.823348 0.556298,-0.229549 -0.3358796,-0.803613 0.23303,0.711841 0,0 C 7.8305661,18.664101 8.6011944,15.600489 9.2714844,9.9648438 9.4353769,8.5862365 9.0019106,8.0007823 8.3574219,8 Z m 7.1972661,9.056641 c -1.026559,-0.04381 -2.015689,0.09879 -2.931641,0.486328 -2.7302725,1.15558 -3.8898898,3.952585 -0.697266,3.755859 C 18.437338,20.897944 21.590246,20.156146 28,23.400391 25.146364,20.94079 20.003106,17.246504 15.554688,17.056641 Z"
     id="path248476"
     sodipodi:nodetypes="scccsscscscsscccs" />
  <path
     style="fill:#3eb9ff"
     d="m 25.998312,20.784846 c -0.580794,-0.500597 0.745281,0.56286 0,0 -3.761572,-2.840862 -9.29787,-5.96611 -13.375123,-4.241037 -2.7302724,1.15558 -3.8901571,3.951367 -0.697533,3.754641 5.628289,-0.346506 8.747399,-0.94772 13.629225,0.99057 0.766124,0.304184 -0.869459,-0.440072 0,0"
     id="path248478"
     sodipodi:nodetypes="csccsc" />
  <path
     style="fill:#007ae0"
     d="m 10.082031,18.144531 c 0.153026,-0.488782 0.320303,-1.004499 0.503907,-1.536564 1.469567,-4.258663 3.985076,-9.5646505 8.610884,-10.4890555 2.908113,-0.5810208 5.350454,1.0379814 2.553916,2.6521942 -5.220999,3.0140213 -7.553719,3.1810933 -10.756848,7.9345963 -0.295558,0.438614 -0.09462,-0.620287 -0.407952,-0.09774"
     id="path248480"
     sodipodi:nodetypes="csccsc" />
  <path
     style="fill:#0055b2"
     d="M 9.5921707,23.039093 C 9.1846998,22.48716 9.4884942,23.81497 9.0365668,23.12154 6.5048021,19.23684 3.7182428,13.458632 5.6383646,9.4492938 6.9032141,6.8083345 9.6451498,5.8132985 9.2705384,8.9644008 8.5868702,14.712527 7.7995192,17.785281 9.5921707,23.039093 c 0.2117346,0.620542 -0.2881416,-0.689397 0,0"
     id="path248482"
     sodipodi:nodetypes="csccsc" />
  <path
     style="opacity:0.1;fill:#ffffff"
     d="M 20.195312 3.0078125 C 19.680917 3.0202135 19.155754 3.0790534 18.623047 3.1855469 C 15.838837 3.7422571 13.891073 5.5195118 12.234375 7.515625 C 12.160733 7.0449863 12.052807 6.5697573 11.789062 6.0703125 C 11.181021 4.9188782 9.6117591 4.007352 8.3828125 4.0058594 C 6.8037106 4.0039416 5.8336862 4.6853276 5 5.4160156 C 4.1663138 6.1467038 3.4838411 7.0636371 2.9589844 8.1601562 C 2.2042108 9.7370889 1.9672634 11.359948 2.0273438 12.958984 C 2.0901007 11.687264 2.3613196 10.408845 2.9589844 9.1601562 C 3.4838411 8.063637 4.1663138 7.1467038 5 6.4160156 C 5.8336862 5.6853276 6.8037106 5.0039416 8.3828125 5.0058594 C 9.6117591 5.007352 11.181021 5.9188782 11.789062 7.0703125 C 12.052807 7.5697573 12.160733 8.0449863 12.234375 8.515625 C 13.891073 6.5195118 15.838837 4.7422571 18.623047 4.1855469 C 19.155754 4.0790534 19.680917 4.0202135 20.195312 4.0078125 C 21.993799 3.9644548 23.77963 4.065375 25.244141 6.0722656 C 25.595976 6.5544029 25.817022 7.2246815 25.892578 7.9179688 C 26.001192 6.9092747 25.765828 5.7871602 25.244141 5.0722656 C 23.77963 3.065375 21.993799 2.9644548 20.195312 3.0078125 z M 20.320312 14.119141 C 20.005089 14.308108 19.577932 14.561566 19.25 14.753906 C 23.711719 16.049245 27.519498 19.023899 29.964844 21.132812 A 2.9981523 2.9998955 0 0 1 30.955078 22.892578 A 2.9981523 2.9998955 0 0 0 29.964844 20.132812 C 27.718956 18.195916 24.315816 15.545029 20.320312 14.119141 z M 13.251953 24.232422 C 13.130377 24.241377 13.050536 24.247022 12.925781 24.255859 C 13.011842 24.473599 13.0293 24.618546 13.125 24.847656 A 2.9981523 2.9998955 0 0 1 13.310547 25.494141 A 2.9981523 2.9998955 0 0 0 13.251953 24.232422 z"
     id="path248484" />
  <path
     style="opacity:0.2;fill:#ffffff"
     d="m 20.255859,6 c -0.339636,0.00818 -0.695079,0.046513 -1.058593,0.1191406 -4.119171,0.8231606 -7.060912,5.9074614 -8.791637,10.1739584 -0.177495,0.437551 0.238031,-0.567923 0.08605,-0.153053 -0.238219,0.650262 0.11893,0.544461 -0.05639,1.104453 0.267305,-0.445792 -0.4544572,0.879432 -0.192772,0.483247 0.05216,-0.137708 -0.05483,0.140088 0,0 0.06252,-0.15975 0.126781,-0.320925 0.192772,-0.483247 0.09072,-0.223164 0.184727,-0.448497 0.282004,-0.675276 1.758591,-4.099768 4.587542,-8.6722325 8.479975,-9.4500824 1.644718,-0.3286033 3.137799,0.046618 3.621093,0.7265625 C 23.457985,6.8025642 22.105044,5.955446 20.255859,6 Z M 8.3574219,7 C 7.5287935,6.9989942 6.3501497,7.963679 5.6386719,9.4492188 5.1205395,10.531113 4.9575243,11.744184 5.0273438,13.011719 5.0771853,12.108362 5.2587796,11.242458 5.6386719,10.449219 6.7436966,8.1419672 8.9747522,7.0924375 9.2714844,8.9648438 9.4353769,7.5862364 9.0019106,7.0007823 8.3574219,7 Z m 7.1972661,9.056641 c -1.02656,-0.04381 -2.015689,0.09879 -2.931641,0.486328 -1.877062,0.794461 -3.0114986,2.365516 -2.5,3.205078 0.312691,-0.779673 1.233109,-1.66887 2.5,-2.205078 3.751487,-1.587243 4.676113,-2.215382 8.379083,0.410151 0.915551,0.338809 1.88419,0.759773 2.949219,1.298829 -0.355705,-0.306589 1.136569,0.832388 1.913142,1.427964 0.361967,0.277603 0.568443,0.437148 0.359816,0.27722 -2.934597,-2.249565 -7.034149,-4.745326 -10.669619,-4.900492 z m -7.039063,1.238281 c -0.043323,1.956272 0.1649319,3.876205 0.9025875,6.210216 0.035164,0.111263 0.1363582,-0.579238 0.1739582,-0.466045 0,0 -0.2560572,-0.346837 10e-8,0 -0.22725,-0.54371 0.2423265,0.542606 0.063874,0.04293 C 8.8153131,20.727907 8.5668278,19.173383 8.515625,17.294922 Z"
     id="path248486"
     sodipodi:nodetypes="scssccsssccssccccsscccccssscsccsc" />
</svg>
