<?xml version="1.0" encoding="UTF-8" standalone="no"?>
<svg
   width="512"
   height="512"
   version="1.1"
   viewBox="0 0 384 384"
   id="svg96225"
   sodipodi:docname="subdownloader.svg"
   inkscape:version="1.1.2 (0a00cf5339, 2022-02-04)"
   xmlns:inkscape="http://www.inkscape.org/namespaces/inkscape"
   xmlns:sodipodi="http://sodipodi.sourceforge.net/DTD/sodipodi-0.dtd"
   xmlns="http://www.w3.org/2000/svg"
   xmlns:svg="http://www.w3.org/2000/svg">
  <defs
     id="defs96229" />
  <sodipodi:namedview
     id="namedview96227"
     pagecolor="#ffffff"
     bordercolor="#666666"
     borderopacity="1.0"
     inkscape:pageshadow="2"
     inkscape:pageopacity="0.0"
     inkscape:pagecheckerboard="0"
     showgrid="false"
     inkscape:zoom="1.6152344"
     inkscape:cx="255.69045"
     inkscape:cy="256"
     inkscape:window-width="1920"
     inkscape:window-height="1051"
     inkscape:window-x="0"
     inkscape:window-y="29"
     inkscape:window-maximized="1"
     inkscape:current-layer="svg96225" />
  <path
     d="m 42.676,42.008 c -10.344,0 -18.668,10.656 -18.668,21 v 209.99 c 0,10.344 8.332,20.605 18.668,21 h 155.32 l 30.63228,35.01166 10.43506,-1.97567 13.27841,0.85001 29.65025,-33.886 h 59.332 c 10.344,0 18.672,-10.656 18.672,-21 V 63.008 c 0,-10.344 -8.3281,-21 -18.672,-21 z"
     fill="#4a4a4a"
     id="path96215"
     sodipodi:nodetypes="sssccccccsssss" />
  <path
     d="m120 109.5v12h144v-12zm0 36v12h144v-12zm0 36v12h144v-12zm0 36v12h96v-12z"
     opacity=".3"
     id="path96217" />
  <path
     d="m120 102v12h144v-12zm0 36v12h144v-12zm0 36v12h144v-12zm0 36v12h96v-12z"
     fill="#ffc72e"
     id="path96219" />
  <path
     transform="scale(.75)"
     d="m56.896 56.006c-13.792 0-24.891 14.208-24.891 28v10c0-13.792 11.099-28 24.891-28h398.2c13.792 0 24.895 14.208 24.895 28v-10c0-13.792-11.103-28-24.895-28h-398.2z"
     fill="#fff"
     opacity=".3"
     stroke-width="1.3333"
     id="path96221" />
  <path
     transform="scale(0.75)"
     d="m 32.01,354 v 10 c 0,13.792 11.109,27.473 24.891,28 h 207.09 l 36.23749,41.41723 26.84481,-0.6158 13.70027,-0.55751 L 375.987,392 h 79.109 c 13.792,0 24.895,-14.208 24.895,-28 v -10 c 0,13.792 -11.103,28 -24.895,28 h -70.11414 v 0 l -13.32444,4.9481 -31.10355,35.54691 -20.48616,0.0206 -19.11535,1.72901 -30.6126,-34.98837 L 263.991,392 257.00102,382 H 56.901 C 43.12,381.47333 32.01,367.792 32.01,354 Z"
     fill="#060606"
     opacity="0.3"
     stroke-width="1.3333"
     id="path96223"
     sodipodi:nodetypes="csccccccsscsccccccccccc" />
</svg>
