<?xml version="1.0" encoding="UTF-8" standalone="no"?>
<svg
   width="32"
   height="32"
   version="1.1"
   id="svg108954"
   sodipodi:docname="system-config-selinux.svg"
   inkscape:version="1.1.2 (0a00cf5339, 2022-02-04)"
   xmlns:inkscape="http://www.inkscape.org/namespaces/inkscape"
   xmlns:sodipodi="http://sodipodi.sourceforge.net/DTD/sodipodi-0.dtd"
   xmlns="http://www.w3.org/2000/svg"
   xmlns:svg="http://www.w3.org/2000/svg">
  <defs
     id="defs108958" />
  <sodipodi:namedview
     id="namedview108956"
     pagecolor="#ffffff"
     bordercolor="#666666"
     borderopacity="1.0"
     inkscape:pageshadow="2"
     inkscape:pageopacity="0.0"
     inkscape:pagecheckerboard="0"
     showgrid="false"
     inkscape:zoom="25.84375"
     inkscape:cx="15.980653"
     inkscape:cy="16"
     inkscape:window-width="1920"
     inkscape:window-height="1051"
     inkscape:window-x="0"
     inkscape:window-y="29"
     inkscape:window-maximized="1"
     inkscape:current-layer="svg108954" />
  <g
     transform="translate(0 -1020.4)"
     id="g108946">
    <circle
       opacity=".2"
       cx="16"
       cy="1037.4"
       r="14"
       id="circle108936" />
    <circle
       fill="#4f4f4f"
       cx="16"
       cy="1036.4"
       r="14"
       id="circle108938" />
    <path
       opacity=".2"
       d="m12 1031.4v1h3v1h-4v3h-1v-3h-1v7h1v-3h1v3l2 2h6.5l1-1h1.5v1h1l1-0.9998v-6l-1-1.0002h-1v1l-0.87501 0.0002-2-2h-3.125v-1l3-0.0002v-1zm0 3h6.5l2 2h2.5v4h-3l-1 1h-5.375l-1.625-1.7z"
       id="path108940" />
    <path
       fill="#ffa92c"
       d="M 12.334164,1030.4 12,1030.7301 v 0.3967 0 l 0.304742,0.2732 H 15 v 1 h -4 v 3 h -1 v -2.6907 L 9.6964414,1032.4 v 0 H 9.3079466 v 0 L 9,1032.8013 v 6.3585 0 l 0.3616422,0.2402 h 0.3437477 v 0 L 10,1039.0637 V 1036.4 h 1 v 3 l 2,2 h 6.5 l 1,-1 H 22 v 1 h 1 l 1,-0.9998 v -6 L 23,1033.4 h -1 v 1 l -0.87501,2e-4 -2,-2 h -3.125 v -1 l 2.67694,-2e-4 v 0 l 0.32306,-0.3087 v -0.3936 L 18.62714,1030.4 v 0 z M 12,1033.4 h 6.5 l 2,2 H 23 v 4 h -3 l -1,1 H 13.625 L 12,1038.7 Z"
       id="path108942"
       sodipodi:nodetypes="cccccccccccccccccccccccccccccccccccccccccccccccccccccccccc" />
    <path
       fill="#fff"
       opacity=".1"
       transform="translate(0 1020.4)"
       d="m16 2a14 14 0 0 0 -14 14 14 14 0 0 0 0.0215 0.586 14 14 0 0 1 13.978 -13.586 14 14 0 0 1 13.979 13.414 14 14 0 0 0 0.021 -0.414 14 14 0 0 0 -14 -14z"
       id="path108944" />
  </g>
  <circle
     style="fill:#3f92e7"
     cx="24"
     cy="23"
     r="8"
     id="circle108948" />
  <path
     style="fill:#ffffff"
     d="M 23,19 22.96866,19.374398 22.9118,20.0536 c -0.33407,0.123749 -0.644669,0.303395 -0.91852,0.53126 l -0.623978,-0.293812 -0.548951,0.2159 v 0 l -0.574748,0.995521 0.135996,0.603823 v 0 L 20.9051,22.46986 c -0.03096,0.175035 -0.04702,0.352381 -0.048,0.53013 9.4e-5,0.178432 0.01538,0.356532 0.0457,0.53237 l -0.592697,0.411147 -0.06462,0.553934 v 0 l 0.557536,0.965708 0.600985,0.229433 v 0 L 21.99097,25.41624 c 0.274771,0.226891 0.586126,0.405403 0.92075,0.5279 l 0.06052,0.724483 0.411043,0.331317 v 0 h 1.284868 l 0.365609,-0.404268 v 0 l 0.05436,-0.649332 c 0.334077,-0.123747 0.644683,-0.303393 0.91854,-0.53126 l 0.554987,0.261329 0.56548,-0.09257 v 0 l 0.659129,-1.141676 -0.11101,-0.508989 v 0 L 27.09482,23.53008 c 0.03096,-0.175035 0.04702,-0.352381 0.048,-0.53013 -9.4e-5,-0.178432 -0.01538,-0.356532 -0.0457,-0.53237 l 0.543038,-0.376699 0.194226,-0.449906 v 0 l -0.697219,-1.207653 v 0 L 26.658271,20.278002 26.00895,20.5837 c -0.274839,-0.226951 -0.586281,-0.405498 -0.921,-0.528 l -0.05134,-0.616074 v 0 L 24.723747,18.9997 h -1.37884 l -0.376249,0.374698 z m 1,2.8572 c 0.631284,-5.5e-5 1.143055,0.511716 1.143,1.143 5.5e-5,0.631284 -0.511716,1.143055 -1.143,1.143 -0.631284,5.5e-5 -1.143055,-0.511716 -1.143,-1.143 -5.5e-5,-0.631284 0.511716,-1.143055 1.143,-1.143 z"
     id="path108950"
     sodipodi:nodetypes="ccccccccccccccccccccccccccccccccccccccccccccccccccccccccc" />
  <path
     style="opacity:0.2"
     d="M 31.979,23.424 A 8,8 0 0 1 24,31 8,8 0 0 1 16.021,23.576 8,8 0 0 0 16,24 a 8,8 0 0 0 8,8 8,8 0 0 0 8,-8 8,8 0 0 0 -0.02148,-0.57617 z"
     id="path108952" />
</svg>
