<?xml version="1.0" encoding="UTF-8" standalone="no"?>
<svg
   width="32"
   height="32"
   version="1"
   id="svg510946"
   sodipodi:docname="transmageddon.svg"
   inkscape:version="1.1.2 (0a00cf5339, 2022-02-04)"
   xmlns:inkscape="http://www.inkscape.org/namespaces/inkscape"
   xmlns:sodipodi="http://sodipodi.sourceforge.net/DTD/sodipodi-0.dtd"
   xmlns="http://www.w3.org/2000/svg"
   xmlns:svg="http://www.w3.org/2000/svg">
  <defs
     id="defs510950" />
  <sodipodi:namedview
     id="namedview510948"
     pagecolor="#ffffff"
     bordercolor="#666666"
     borderopacity="1.0"
     inkscape:pageshadow="2"
     inkscape:pageopacity="0.0"
     inkscape:pagecheckerboard="0"
     showgrid="false"
     inkscape:zoom="25.84375"
     inkscape:cx="15.980653"
     inkscape:cy="16"
     inkscape:window-width="1920"
     inkscape:window-height="1051"
     inkscape:window-x="0"
     inkscape:window-y="29"
     inkscape:window-maximized="1"
     inkscape:current-layer="svg510946" />
  <path
     fill="#4f4f4f"
     d="m27 27.6v-24.2c0-0.7756-0.624-1.4-1.4-1.4h-19.2c-0.7756 0-1.4 0.6244-1.4 1.4v24.2c0 0.776 0.6244 1.4 1.4 1.4h19.2c0.7756 0 1.4-0.6244 1.4-1.4z"
     id="path510886" />
  <rect
     opacity=".2"
     width="12"
     height="10"
     x="10"
     y="4"
     id="rect510888" />
  <g
     opacity=".2"
     transform="translate(0,1)"
     id="g510910">
    <rect
       width="3"
       height="3"
       x="6"
       y="4"
       id="rect510890" />
    <rect
       width="3"
       height="3"
       x="6"
       y="9"
       id="rect510892" />
    <rect
       width="3"
       height="3"
       x="6"
       y="14"
       id="rect510894" />
    <rect
       width="3"
       height="3"
       x="6"
       y="19"
       id="rect510896" />
    <rect
       width="3"
       height="3"
       x="6"
       y="24"
       id="rect510898" />
    <rect
       width="3"
       height="3"
       x="23"
       y="4"
       id="rect510900" />
    <rect
       width="3"
       height="3"
       x="23"
       y="9"
       id="rect510902" />
    <rect
       width="3"
       height="3"
       x="23"
       y="14"
       id="rect510904" />
    <rect
       width="3"
       height="3"
       x="23"
       y="19"
       id="rect510906" />
    <rect
       width="3"
       height="3"
       x="23"
       y="24"
       id="rect510908" />
  </g>
  <g
     fill="#fff"
     id="g510932">
    <rect
       width="3"
       height="3"
       x="6"
       y="4"
       id="rect510912" />
    <rect
       width="3"
       height="3"
       x="6"
       y="9"
       id="rect510914" />
    <rect
       width="3"
       height="3"
       x="6"
       y="14"
       id="rect510916" />
    <rect
       width="3"
       height="3"
       x="6"
       y="19"
       id="rect510918" />
    <rect
       width="3"
       height="3"
       x="6"
       y="24"
       id="rect510920" />
    <rect
       width="3"
       height="3"
       x="23"
       y="4"
       id="rect510922" />
    <rect
       width="3"
       height="3"
       x="23"
       y="9"
       id="rect510924" />
    <rect
       width="3"
       height="3"
       x="23"
       y="14"
       id="rect510926" />
    <rect
       width="3"
       height="3"
       x="23"
       y="19"
       id="rect510928" />
    <rect
       width="3"
       height="3"
       x="23"
       y="24"
       id="rect510930" />
  </g>
  <rect
     opacity=".2"
     width="12"
     height="10"
     x="10"
     y="17"
     id="rect510934" />
  <path
     fill="#fff"
     opacity=".1"
     d="m6.4004 2c-0.7756 0-1.4004 0.6248-1.4004 1.4004v1c0-0.7756 0.6248-1.4004 1.4004-1.4004h19.2c0.775 0 1.4 0.6248 1.4 1.4004v-1c0-0.7756-0.625-1.4004-1.4-1.4004h-19.2z"
     id="path510936" />
  <path
     opacity=".2"
     d="m5 27.6v1c0 0.775 0.6248 1.4 1.4004 1.4h19.2c0.775 0 1.4-0.625 1.4-1.4v-1c0 0.775-0.625 1.4-1.4 1.4h-19.2c-0.7752 0-1.4-0.625-1.4-1.4z"
     id="path510938" />
  <circle
     fill="#4269cd"
     cx="24"
     cy="23"
     r="8"
     id="circle510940" />
  <path
     fill="#ffffff"
     d="m 24,19 c -2.2091,0 -4,1.7909 -4,4 0,2.2091 1.7909,4 4,4 1.8142,0 3.3495,-1.2018 3.8393,-2.8571 h -1.2321 c -0.44244,1.0054 -1.4382,1.7143 -2.6071,1.7143 -1.578,0 -2.8571,-1.2792 -2.8571,-2.8571 0,-1.578 1.2792,-2.8571 2.8571,-2.8571 0.78946,0 1.4946,0.3286 2.0089,0.84821 l -0.986061,0.986061 0.20087,0.451439 v 0 h 2.445256 v 0 L 28.0001,22.156245 v -2.484696 l -0.438477,-0.232362 v 0 L 26.8271,20.17371 c -0.725,-0.723 -1.722,-1.173 -2.827,-1.173 z"
     id="path510942"
     sodipodi:nodetypes="cssccsssccccccccccccc" />
  <path
     fill-rule="evenodd"
     opacity=".2"
     d="m31.979 23.424a8 8 0 0 1 -7.979 7.576 8 8 0 0 1 -7.979 -7.424 8 8 0 0 0 -0.021 0.424 8 8 0 0 0 8 8 8 8 0 0 0 8 -8 8 8 0 0 0 -0.02148 -0.57617z"
     id="path510944" />
</svg>
