<?xml version="1.0" encoding="UTF-8" standalone="no"?>
<svg
   width="24"
   height="24"
   viewBox="0 0 24 24"
   fill="#cccccc"
   version="1.1"
   id="svg6"
   sodipodi:docname="close_unfocused_pressed.svg"
   inkscape:version="1.1.2 (0a00cf5339, 2022-02-04)"
   xmlns:inkscape="http://www.inkscape.org/namespaces/inkscape"
   xmlns:sodipodi="http://sodipodi.sourceforge.net/DTD/sodipodi-0.dtd"
   xmlns="http://www.w3.org/2000/svg"
   xmlns:svg="http://www.w3.org/2000/svg">
  <defs
     id="defs10" />
  <sodipodi:namedview
     id="namedview8"
     pagecolor="#000000"
     bordercolor="#666666"
     borderopacity="1.0"
     inkscape:pageshadow="2"
     inkscape:pageopacity="0"
     inkscape:pagecheckerboard="0"
     showgrid="false"
     inkscape:zoom="45.785164"
     inkscape:cx="12.001704"
     inkscape:cy="17.243577"
     inkscape:window-width="1920"
     inkscape:window-height="1051"
     inkscape:window-x="0"
     inkscape:window-y="29"
     inkscape:window-maximized="1"
     inkscape:current-layer="svg6" />
  <circle
     cx="12"
     cy="12"
     r="10"
     opacity=".2"
     id="circle2" />
  <path
     d="M 16.580966,8.8290338 16.61778,8.0277796 16.053057,7.4630571 v 0 l -0.938612,0.012498 -2.835668,2.8356683 -0.542547,0.01501 v 0 L 8.7442518,7.3342518 8.0977172,7.3122828 v 0 L 7.4143958,7.9956042 v 0 l 0.089076,0.9178677 2.8243031,2.8243031 0.03117,0.493275 v 0 L 7.6015041,14.988496 7.5156196,15.59 l -0.044587,0.471032 0.527738,0.527738 0.9088435,-0.08638 v 0 L 11.80508,13.60492 v 0 l 0.481861,0.09202 2.857679,2.857679 0.768971,0.121789 v 0 l 0.718499,-0.718499 0.05344,-0.36791 -0.06569,-0.380163 -2.975165,-2.975165 -0.01866,-0.450687 v 0 z"
     opacity="0.38"
     id="path4"
     sodipodi:nodetypes="ccccccccccccccccccccccccccccccccccccc" />
</svg>
