<?xml version="1.0" encoding="UTF-8" standalone="no"?>
<svg
   width="512"
   height="512"
   version="1.1"
   viewBox="0 0 384 384"
   id="svg48"
   sodipodi:docname="1E64_notepad.0.svg"
   inkscape:version="1.2 (dc2aedaf03, 2022-05-15)"
   xmlns:inkscape="http://www.inkscape.org/namespaces/inkscape"
   xmlns:sodipodi="http://sodipodi.sourceforge.net/DTD/sodipodi-0.dtd"
   xmlns="http://www.w3.org/2000/svg"
   xmlns:svg="http://www.w3.org/2000/svg">
  <defs
     id="defs52" />
  <sodipodi:namedview
     id="namedview50"
     pagecolor="#505050"
     bordercolor="#ffffff"
     borderopacity="1"
     inkscape:showpageshadow="0"
     inkscape:pageopacity="0"
     inkscape:pagecheckerboard="1"
     inkscape:deskcolor="#505050"
     showgrid="false"
     inkscape:zoom="3.4023437"
     inkscape:cx="256"
     inkscape:cy="374.00689"
     inkscape:window-width="1444"
     inkscape:window-height="1080"
     inkscape:window-x="237"
     inkscape:window-y="-1"
     inkscape:window-maximized="1"
     inkscape:current-layer="g46" />
  <path
     d="m230.23 19.492-155.63 0.007812c-9.9132 0-18.428 8.5142-18.428 18.428v304.36c0 4.8868 2.422 9.3146 5.7676 12.66s7.7733 5.7676 12.66 5.7676h234.8c4.8867 0 9.3146-2.422 12.66-5.7676 3.3456-3.3455 5.7676-7.7733 5.7676-12.66v-225.19z"
     color="#000000"
     color-rendering="auto"
     dominant-baseline="auto"
     image-rendering="auto"
     opacity=".2"
     shape-rendering="auto"
     solid-color="#000000"
     style="font-feature-settings:normal;font-variant-alternates:normal;font-variant-caps:normal;font-variant-ligatures:normal;font-variant-numeric:normal;font-variant-position:normal;isolation:auto;mix-blend-mode:normal;shape-padding:0;text-decoration-color:#000000;text-decoration-line:none;text-decoration-style:solid;text-indent:0;text-orientation:mixed;text-transform:none;white-space:normal"
     id="path28" />
  <path
     d="m74.6 23.25c-7.5586 0-14.678 7.1191-14.678 14.678v308.14c0 7.1192 7.5586 14.678 14.678 14.678h234.8c7.1191 0 14.678-7.5586 14.678-14.678v-227.42l-95.405-95.405z"
     fill="#fff"
     id="path30" />
  <path
     d="m59.923 338.57v7.5c0 7.1192 7.5586 14.678 14.678 14.678h234.8c7.1191 0 14.678-7.5586 14.678-14.678v-7.5c0 7.1192-7.5586 14.678-14.678 14.678h-234.8c-7.1191 0-14.678-7.5586-14.678-14.678z"
     opacity=".3"
     id="path32" />
  <path
     d="m276.33 70.906-43.002 43.002 90.75 93.548 2.4e-4 -88.808z"
     fill="#ccc"
     stroke-width=".75"
     id="path34" />
  <path
     d="m228.67 23.243 95.405 95.405h-80.728c-7.1191 0-14.678-7.5586-14.678-14.678z"
     fill="#f4f4f4"
     id="path36" />
  <g
     transform="translate(12,4.5)"
     stroke-width=".9375"
     id="g46">
    <path
       d="m372 289.5c0 49.706-40.294 90-90 90s-90-40.294-90-90 40.294-90 90-90 90 40.294 90 90z"
       fill-rule="evenodd"
       opacity=".3"
       id="path38" />
    <path
       d="m372 282c0 49.706-40.294 90-90 90s-90-40.294-90-90 40.294-90 90-90 90 40.294 90 90z"
       fill="#d41717"
       fill-rule="evenodd"
       id="path40" />
    <path
       d="m237 314.45v20.047h20.047l50.629-50.629-20.047-20.047zm88.411-48.252c2.1203-2.1203 2.1203-5.4638 0-7.5842l-12.532-12.528c-2.1203-2.1203-5.4602-2.1203-7.5805 0l-10.474 10.539 20.047 20.05z"
       opacity=".3"
       id="path42" />
    <path
       d="M 238.82255,307.3667 237,310.43783 v 10.89424 l 2.5671,4.13059 3.35605,1.53434 h 10.77595 l 2.82488,-1.3707 3.02828,-1.13456 L 307.676,276.368 287.629,256.321 239.42452,304.52548 Z M 325.411,258.698 c 2.1203,-2.1203 2.1203,-5.4638 0,-7.5842 l -12.532,-12.528 c -2.1203,-2.1203 -5.4602,-2.1203 -7.5805,0 l -10.474,10.539 20.047,20.05 z"
       fill="#ffffff"
       id="path44"
       sodipodi:nodetypes="ccccccccccccccccccc" />
  </g>
</svg>
