<?xml version="1.0" encoding="UTF-8" standalone="no"?>
<svg
   width="512"
   height="512"
   version="1"
   id="svg602"
   sodipodi:docname="4diac-ide.svg"
   inkscape:version="1.2 (dc2aedaf03, 2022-05-15)"
   xmlns:inkscape="http://www.inkscape.org/namespaces/inkscape"
   xmlns:sodipodi="http://sodipodi.sourceforge.net/DTD/sodipodi-0.dtd"
   xmlns="http://www.w3.org/2000/svg"
   xmlns:svg="http://www.w3.org/2000/svg">
  <sodipodi:namedview
     id="namedview604"
     pagecolor="#505050"
     bordercolor="#ffffff"
     borderopacity="1"
     inkscape:showpageshadow="0"
     inkscape:pageopacity="0"
     inkscape:pagecheckerboard="1"
     inkscape:deskcolor="#505050"
     showgrid="false"
     inkscape:zoom="1.7011719"
     inkscape:cx="255.70608"
     inkscape:cy="256.58783"
     inkscape:window-width="1444"
     inkscape:window-height="1080"
     inkscape:window-x="237"
     inkscape:window-y="-1"
     inkscape:window-maximized="1"
     inkscape:current-layer="g600" />
  <defs
     id="defs580">
    <clipPath
       id="clipPath306">
      <rect
         width="384"
         height="384"
         id="rect304" />
    </clipPath>
    <clipPath
       id="clipPath310">
      <rect
         width="384"
         height="384"
         id="rect308" />
    </clipPath>
    <clipPath
       id="clipPath314">
      <rect
         width="384"
         height="384"
         id="rect312" />
    </clipPath>
    <clipPath
       id="clipPath318">
      <rect
         width="384"
         height="384"
         id="rect316" />
    </clipPath>
    <clipPath
       id="clipPath322">
      <rect
         width="384"
         height="384"
         id="rect320" />
    </clipPath>
    <clipPath
       id="clipPath326">
      <rect
         width="384"
         height="384"
         id="rect324" />
    </clipPath>
    <clipPath
       id="clipPath330">
      <rect
         width="384"
         height="384"
         id="rect328" />
    </clipPath>
    <clipPath
       id="clipPath334">
      <rect
         width="384"
         height="384"
         id="rect332" />
    </clipPath>
    <clipPath
       id="clipPath338">
      <rect
         width="384"
         height="384"
         id="rect336" />
    </clipPath>
    <clipPath
       id="clipPath342">
      <rect
         width="384"
         height="384"
         id="rect340" />
    </clipPath>
    <clipPath
       id="clipPath346">
      <rect
         width="384"
         height="384"
         id="rect344" />
    </clipPath>
    <clipPath
       id="clipPath350">
      <rect
         width="384"
         height="384"
         id="rect348" />
    </clipPath>
    <clipPath
       id="clipPath354">
      <rect
         width="384"
         height="384"
         id="rect352" />
    </clipPath>
    <clipPath
       id="clipPath358">
      <rect
         width="384"
         height="384"
         id="rect356" />
    </clipPath>
    <clipPath
       id="clipPath362">
      <rect
         width="384"
         height="384"
         id="rect360" />
    </clipPath>
    <clipPath
       id="clipPath366">
      <rect
         width="384"
         height="384"
         id="rect364" />
    </clipPath>
    <clipPath
       id="clipPath370">
      <rect
         width="384"
         height="384"
         id="rect368" />
    </clipPath>
    <clipPath
       id="clipPath374">
      <rect
         width="384"
         height="384"
         id="rect372" />
    </clipPath>
    <clipPath
       id="clipPath378">
      <rect
         width="384"
         height="384"
         id="rect376" />
    </clipPath>
    <clipPath
       id="clipPath382">
      <rect
         width="384"
         height="384"
         id="rect380" />
    </clipPath>
    <clipPath
       id="clipPath386">
      <rect
         width="384"
         height="384"
         id="rect384" />
    </clipPath>
    <clipPath
       id="clipPath390">
      <rect
         width="384"
         height="384"
         id="rect388" />
    </clipPath>
    <clipPath
       id="clipPath394">
      <rect
         width="384"
         height="384"
         id="rect392" />
    </clipPath>
    <clipPath
       id="clipPath398">
      <rect
         width="384"
         height="384"
         id="rect396" />
    </clipPath>
    <clipPath
       id="clipPath402">
      <rect
         width="384"
         height="384"
         id="rect400" />
    </clipPath>
    <clipPath
       id="clipPath406">
      <rect
         width="384"
         height="384"
         id="rect404" />
    </clipPath>
    <clipPath
       id="clipPath410">
      <rect
         width="384"
         height="384"
         id="rect408" />
    </clipPath>
    <clipPath
       id="clipPath414">
      <rect
         width="384"
         height="384"
         id="rect412" />
    </clipPath>
    <clipPath
       id="clipPath418">
      <rect
         width="384"
         height="384"
         id="rect416" />
    </clipPath>
    <clipPath
       id="clipPath422">
      <rect
         width="384"
         height="384"
         id="rect420" />
    </clipPath>
    <clipPath
       id="clipPath426">
      <rect
         width="384"
         height="384"
         id="rect424" />
    </clipPath>
    <clipPath
       id="clipPath430">
      <rect
         width="384"
         height="384"
         id="rect428" />
    </clipPath>
    <clipPath
       id="clipPath434">
      <rect
         width="384"
         height="384"
         id="rect432" />
    </clipPath>
    <clipPath
       id="clipPath438">
      <rect
         width="384"
         height="384"
         id="rect436" />
    </clipPath>
    <clipPath
       id="clipPath442">
      <rect
         width="384"
         height="384"
         id="rect440" />
    </clipPath>
    <clipPath
       id="clipPath446">
      <rect
         width="384"
         height="384"
         id="rect444" />
    </clipPath>
    <clipPath
       id="clipPath450">
      <rect
         width="384"
         height="384"
         id="rect448" />
    </clipPath>
    <clipPath
       id="clipPath454">
      <rect
         width="384"
         height="384"
         id="rect452" />
    </clipPath>
    <clipPath
       id="clipPath458">
      <rect
         width="384"
         height="384"
         id="rect456" />
    </clipPath>
    <clipPath
       id="clipPath462">
      <rect
         width="384"
         height="384"
         id="rect460" />
    </clipPath>
    <clipPath
       id="clipPath466">
      <rect
         width="384"
         height="384"
         id="rect464" />
    </clipPath>
    <clipPath
       id="clipPath470">
      <rect
         width="384"
         height="384"
         id="rect468" />
    </clipPath>
    <clipPath
       id="clipPath474">
      <rect
         width="384"
         height="384"
         id="rect472" />
    </clipPath>
    <clipPath
       id="clipPath478">
      <rect
         width="384"
         height="384"
         id="rect476" />
    </clipPath>
    <clipPath
       id="clipPath482">
      <rect
         width="384"
         height="384"
         id="rect480" />
    </clipPath>
    <clipPath
       id="clipPath486">
      <rect
         width="384"
         height="384"
         id="rect484" />
    </clipPath>
    <clipPath
       id="clipPath490">
      <rect
         width="384"
         height="384"
         id="rect488" />
    </clipPath>
    <clipPath
       id="clipPath494">
      <rect
         width="384"
         height="384"
         id="rect492" />
    </clipPath>
    <clipPath
       id="clipPath498">
      <rect
         width="384"
         height="384"
         id="rect496" />
    </clipPath>
    <clipPath
       id="clipPath502">
      <rect
         width="384"
         height="384"
         id="rect500" />
    </clipPath>
    <clipPath
       id="c">
      <path
         d="m111 119h177v23h-177z"
         id="path504" />
    </clipPath>
    <clipPath
       id="clipPath509">
      <path
         d="m368.64 199.88c0-93.234-75.602-168.75-168.75-168.75-93.152 0-168.75 75.516-168.75 168.75s75.598 168.75 168.75 168.75c93.148 0 168.75-75.516 168.75-168.75z"
         id="path507" />
    </clipPath>
    <clipPath
       id="b">
      <path
         d="m177 130h45v89h-45z"
         id="path511" />
    </clipPath>
    <clipPath
       id="clipPath516">
      <path
         d="m368.64 199.88c0-93.234-75.602-168.75-168.75-168.75-93.152 0-168.75 75.516-168.75 168.75s75.598 168.75 168.75 168.75c93.148 0 168.75-75.516 168.75-168.75z"
         id="path514" />
    </clipPath>
    <clipPath
       id="a">
      <path
         d="m111 207h177v89h-177z"
         id="path518" />
    </clipPath>
    <clipPath
       id="clipPath523">
      <path
         d="m368.64 199.88c0-93.234-75.602-168.75-168.75-168.75-93.152 0-168.75 75.516-168.75 168.75s75.598 168.75 168.75 168.75c93.148 0 168.75-75.516 168.75-168.75z"
         id="path521" />
    </clipPath>
    <clipPath
       id="d">
      <rect
         width="384"
         height="384"
         id="rect525" />
    </clipPath>
    <g
       clip-path="url(#d)"
       id="g534">
      <g
         clip-path="url(#c)"
         id="g528" />
      <g
         clip-path="url(#b)"
         id="g530" />
      <g
         clip-path="url(#a)"
         id="g532" />
    </g>
    <clipPath
       id="clipPath538">
      <rect
         width="384"
         height="384"
         id="rect536" />
    </clipPath>
    <clipPath
       id="clipPath542">
      <rect
         width="384"
         height="384"
         id="rect540" />
    </clipPath>
    <clipPath
       id="clipPath546">
      <rect
         width="384"
         height="384"
         id="rect544" />
    </clipPath>
    <clipPath
       id="clipPath550">
      <rect
         width="384"
         height="384"
         id="rect548" />
    </clipPath>
    <clipPath
       id="clipPath554">
      <rect
         width="384"
         height="384"
         id="rect552" />
    </clipPath>
    <clipPath
       id="clipPath558">
      <rect
         width="384"
         height="384"
         id="rect556" />
    </clipPath>
    <clipPath
       id="clipPath562">
      <rect
         width="384"
         height="384"
         id="rect560" />
    </clipPath>
    <clipPath
       id="clipPath566">
      <rect
         width="384"
         height="384"
         id="rect564" />
    </clipPath>
    <clipPath
       id="clipPath570">
      <rect
         width="384"
         height="384"
         id="rect568" />
    </clipPath>
    <clipPath
       id="clipPath574">
      <rect
         width="384"
         height="384"
         id="rect572" />
    </clipPath>
    <clipPath
       id="clipPath578">
      <rect
         width="384"
         height="384"
         id="rect576" />
    </clipPath>
  </defs>
  <g
     stroke-width="7.894"
     id="g588">
    <rect
       transform="matrix(0,-1,-1,0,0,0)"
       x="-475.98"
       y="-402.22"
       width="449.96"
       height="371.22"
       rx="22.498"
       ry="22.498"
       fill="#153873"
       id="rect582" />
    <path
       d="m402.26 82.265v303.72h-168.74z"
       fill="#fff"
       id="path584" />
    <path
       d="m31.039 112.85v71.046h71.046v-71.046zm0 102.62v23.682h244.72v-23.682zm0 47.364v23.682h244.72v-23.682zm0 47.364v23.682h244.72v-23.682z"
       fill="#fff"
       id="path586" />
  </g>
  <g
     stroke-width="7.894"
     id="g600">
    <path
       d="m375.1 36.02-186.18 343.42v51.278h189.46v55.258h71.046v-55.258h31.576v-71.046h-31.576v-323.66h-35.918zm3.2763 128.84v194.82h-109.64z"
       opacity=".3"
       id="path590" />
    <path
       d="m31 443.48v10c0 12.464 10.034 22.498 22.498 22.498h326.22c12.464 0 22.498-10.034 22.498-22.498v-10c0 12.464-10.034 22.498-22.498 22.498h-326.22c-12.464 0-22.498-10.034-22.498-22.498z"
       opacity=".3"
       id="path592" />
    <path
       d="m53.498 26.02c-12.464 0-22.498 10.034-22.498 22.498v10c0-12.464 10.034-22.498 22.498-22.498h326.22c12.464 0 22.498 10.034 22.498 22.498v-10c0-12.464-10.034-22.498-22.498-22.498z"
       fill="#fff"
       opacity=".1"
       id="path594" />
    <path
       d="M 375.1,26.02 188.92,369.44 v 51.278 h 189.46 v 55.258 h 71.046 v -55.258 h 31.576 V 349.672 H 449.426 V 26.012 h -35.918 z m -0.8469,153.59009 6.29118,3.9379 L 378.3763,349.68 h -97.61123 l -0.72689,-8.05708 -5.28731,-2.63025 90.74098,-158.84144 z"
       fill="#fd8a19"
       id="path596"
       sodipodi:nodetypes="ccccccccccccccccccccc" />
    <path
       d="m375.1 26.02-186.18 343.42v10l186.18-343.42h74.324v-10h-35.918zm-100.73 323.66-5.627 10h109.64v-10zm175.06 0v10h31.576v-10z"
       fill="#fff"
       opacity=".2"
       id="path598" />
  </g>
</svg>
