<?xml version="1.0" encoding="UTF-8" standalone="no"?>
<svg
   width="512"
   height="512"
   version="1.1"
   viewBox="0 0 384 384"
   id="svg62"
   sodipodi:docname="abricotine.svg"
   inkscape:version="1.2 (dc2aedaf03, 2022-05-15)"
   xmlns:inkscape="http://www.inkscape.org/namespaces/inkscape"
   xmlns:sodipodi="http://sodipodi.sourceforge.net/DTD/sodipodi-0.dtd"
   xmlns="http://www.w3.org/2000/svg"
   xmlns:svg="http://www.w3.org/2000/svg">
  <sodipodi:namedview
     id="namedview64"
     pagecolor="#505050"
     bordercolor="#ffffff"
     borderopacity="1"
     inkscape:showpageshadow="0"
     inkscape:pageopacity="0"
     inkscape:pagecheckerboard="1"
     inkscape:deskcolor="#505050"
     showgrid="false"
     inkscape:zoom="1.7011719"
     inkscape:cx="255.70608"
     inkscape:cy="256.58783"
     inkscape:window-width="1444"
     inkscape:window-height="1080"
     inkscape:window-x="237"
     inkscape:window-y="-1"
     inkscape:window-maximized="1"
     inkscape:current-layer="g60" />
  <defs
     id="defs38">
    <clipPath
       id="clipPath36">
      <rect
         width="384"
         height="384"
         id="rect34" />
    </clipPath>
  </defs>
  <g
     id="g60">
    <g
       stroke-width="1.2785"
       id="g50">
      <path
         d="m280.02 30.75-45.982 30.655v59.783l-0.0861 0.0506v53.146l0.0861-0.0505v43.182l-0.0861-0.0506v53.146l0.0861 0.0505v97.588l45.982-30.655z"
         opacity=".3"
         id="path40" />
      <path
         d="M 275.35279,28.451544 271.88389,27.54193 234.038,53.905 v 59.783 l -0.0861,0.0506 v 53.146 l 0.0861,-0.0505 v 43.182 l -0.0861,-0.0506 v 53.146 l 0.0861,0.0505 v 83.79128 l 4.21773,4.38911 7.88932,1.33616 L 280.02,330.095 279.80386,29.494431 Z"
         fill="#fd5757"
         id="path42"
         sodipodi:nodetypes="ccccccccccccccccc" />
      <path
         d="m349.43 106.92-49.541-24.489-51.771 29.897-0.0871-0.0494-46.023 26.577 0.087 0.0495-37.395 21.595 7.5e-4 -0.0999-46.023 26.577-7.5e-4 0.0999-84.509 48.803 49.541 24.489z"
         opacity=".3"
         id="path44" />
      <path
         d="M 343.31914,100.05297 340.53477,95.02193 299.889,74.93 l -51.771,29.897 -0.0871,-0.0494 -46.023,26.577 0.087,0.0495 -37.395,21.595 8.2e-4,-0.0999 -46.023,26.577 -8.3e-4,0.0999 -69.663952,41.46102 -0.621823,3.85165 0.481987,4.30338 34.835788,23.67595 258.17233,-149.08982 z"
         fill="#ffd305"
         id="path46"
         sodipodi:nodetypes="ccccccccccccccccc" />
      <path
         d="m349.75 337.51-3.5622-55.149-51.777-29.886-7.5e-4 -0.1001-46.028-26.568 5.9e-4 0.10001-37.399-21.588 0.0868-0.0492-46.028-26.568-0.087 0.0492-84.519-48.785 3.5622 55.149z"
         opacity=".3"
         id="path48" />
    </g>
    <path
       transform="scale(0.75)"
       d="m 399.85,99.906 -69.027,39.861 -0.11719,-0.0645 -61.363,35.436 0.11523,0.0664 -49.859,28.793 0.002,-0.13282 -61.365,35.436 54.96746,-0.40296 -102.46611,59.17172 -18.521584,0.15811 -8.676681,3.67875 74.697015,-52.47351 v -0.13281 l 61.365,-35.436 -0.002,0.13282 49.859,-28.793 -0.11523,-0.0664 61.363,-35.436 0.11719,0.0645 69.027,-39.861 46.71869,24.2438 19.33641,-1.5915 -10.89402,-5.38508 L 399.8502,99.9056 Z"
       fill="#ffffff"
       opacity="0.3"
       stroke-width="1.7047"
       id="path52"
       sodipodi:nodetypes="cccccccccccccccccccccccccc" />
    <path
       d="m 344.59615,322.23103 4.19492,-8.35544 -2.52327,-39.06459 -51.777,-29.886 -8.1e-4,-0.10011 -46.028,-26.568 5.9e-4,0.1 -37.399,-21.588 0.0868,-0.0492 -46.028,-26.568 -0.087,0.0492 -76.644427,-37.90581 -3.718978,-1.42195 -2.953119,4.7198 2.359724,40.97196 254.906,147.13499 z"
       fill="#ff8c05"
       stroke-width="1.2785"
       id="path54"
       sodipodi:nodetypes="ccccccccccccccccc" />
    <path
       transform="scale(0.75)"
       d="m 114.80884,168.33191 -6.77696,3.94509 112.02,64.66 0.11524,-0.0645 61.371,35.424 -0.11523,0.0664 49.865,28.783 -0.002,-0.13281 61.371,35.424 0.002,0.13282 69.035,39.85 2.90232,44.93924 1.17578,18.20576 0.67188,0.38672 -4.75,-73.531 -69.035,-39.85 -0.002,-0.13282 -61.371,-35.424 0.002,0.13281 -49.865,-28.783 0.11523,-0.0664 -61.371,-35.424 -0.11524,0.0645 -102.86796,-59.37751 -2.60437,2.84902 z"
       fill="#ffffff"
       opacity="0.3"
       stroke-width="1.7047"
       id="path56"
       sodipodi:nodetypes="cccccccccccccccccccccccccc" />
    <path
       transform="scale(0.75)"
       d="M 365.52523,43.485819 361.57006,38.85336 312.041,71.873 v 10 L 373.35,41 Z M 312.041,151.58 l -0.11523,0.0664 v 10 L 312.041,161.58 Z m -0.11523,128.37 v 10 l 0.11523,0.0684 v -10 z"
       fill="#ffffff"
       opacity="0.3"
       stroke-width="1.7047"
       id="path58"
       sodipodi:nodetypes="cccccccccccccccc" />
  </g>
</svg>
