<?xml version="1.0" encoding="UTF-8" standalone="no"?>
<svg
   width="512"
   height="512"
   version="1.1"
   viewBox="0 0 384 384"
   id="svg82"
   sodipodi:docname="accessories-ebook-reader.svg"
   inkscape:version="1.2 (dc2aedaf03, 2022-05-15)"
   xmlns:inkscape="http://www.inkscape.org/namespaces/inkscape"
   xmlns:sodipodi="http://sodipodi.sourceforge.net/DTD/sodipodi-0.dtd"
   xmlns="http://www.w3.org/2000/svg"
   xmlns:svg="http://www.w3.org/2000/svg">
  <sodipodi:namedview
     id="namedview84"
     pagecolor="#505050"
     bordercolor="#ffffff"
     borderopacity="1"
     inkscape:showpageshadow="0"
     inkscape:pageopacity="0"
     inkscape:pagecheckerboard="1"
     inkscape:deskcolor="#505050"
     showgrid="false"
     inkscape:zoom="1.7011719"
     inkscape:cx="255.70608"
     inkscape:cy="256"
     inkscape:window-width="1444"
     inkscape:window-height="1080"
     inkscape:window-x="237"
     inkscape:window-y="-1"
     inkscape:window-maximized="1"
     inkscape:current-layer="svg82" />
  <defs
     id="defs62">
    <clipPath
       id="clipPath60">
      <rect
         width="384"
         height="384"
         id="rect58" />
    </clipPath>
  </defs>
  <path
     d="m29.117 64.617 162.88 10.5 162.88-10.5c7.3906-0.47656 13.367 5.9609 13.367 13.367v240.14c0 7.4062-5.9766 12.891-13.367 13.367l-162.88 10.5-162.88-10.5c-7.3906-0.47657-13.367-5.9609-13.367-13.367v-240.14c0-7.4062 5.9766-13.844 13.367-13.367z"
     fill="#b8174a"
     id="path64" />
  <path
     d="m174.92 73.846h34.154v266.93l-16.771 1.2238-17.383-1.2238z"
     opacity=".3"
     id="path66" />
  <path
     d="m192 68.906 145.28-10.348c3.4766-0.25 6.293 3.668 6.293 8.2266v240.68c0 4.5586-2.8164 7.9805-6.293 8.2266l-145.28 10.348z"
     fill="#b3b3b3"
     id="path68" />
  <path
     d="m46.789 58.559c-3.5273-0.10938-6.3672 3.668-6.3672 8.2266v240.68c0 4.5586 2.8398 8.1211 6.3672 8.2266l146.15 10.32v-257.14z"
     fill="#b3b3b3"
     id="path70" />
  <path
     d="m46.711 47.535 145.29 10.18 145.28-10.18c3.4766-0.24219 6.293 3.6094 6.293 8.0938v236.73c0 4.4844-2.8164 7.8477-6.293 8.0938l-145.28 10.176-145.29-10.176c-3.4766-0.24609-6.2891-3.6094-6.2891-8.0938v-236.73c0-4.4844 2.8125-8.3359 6.2891-8.0938z"
     fill="#e6e6e6"
     id="path72" />
  <path
     d="m201.06 63.715 115.53-33.684c3.8672-1.1289 7.2617 4.0391 7.2539 9.0586l-0.27736 247.01c-8e-3 5.0195-3.293 8.3203-7.2539 9.0586l-122.66 15.643z"
     opacity=".3"
     id="path74" />
  <path
     d="m193.56 57.715 115.53-33.684c3.8672-1.1289 7.2617 4.0391 7.2539 9.0586l-0.27735 247.01c-8e-3 5.0195-3.293 8.3203-7.2539 9.0586l-115.24 21.477z"
     fill="#fff"
     id="path76" />
  <path
     d="m 142.46,58.984 c -2.1562,0 -3.8906,1.7344 -3.8906,3.8906 v 126.37778 1.84176 c 0,11.02848 9.00698,-12.51479 7.24719,-2.23598 l 1.60985,3.93604 6.43966,-5.82076 4.78988,4.84576 4.39097,-0.31056 c -4.40472,-10.84593 -0.0285,-2.60256 0.0405,-2.5753 l 6.13433,2.42209 0,-126.77383 c 0,-2.1562 -1.7422,-3.7305 -3.8906,-3.8906 z"
     fill-rule="evenodd"
     opacity="0.3"
     id="path78"
     sodipodi:nodetypes="cscscccccscscc" />
  <path
     d="m 142.46,51.484 c -2.1562,0 -3.8906,1.7344 -3.8906,3.8906 v 126.31613 l 2.20436,2.74708 c 6.96769,8.68316 6.78182,-9.91946 4.17871,-0.77208 l 2.10723,1.95997 6.8064,-6.15225 5.76623,5.8335 2.24094,-5.0841 c -9.57075,-21.08751 -8.45073,-5.18723 2.05806,0.61049 l 5.29047,2.91876 0,-126.67049 c 0,-2.1562 -1.7422,-3.7305 -3.8906,-3.8906 z"
     fill="#fd4747"
     fill-rule="evenodd"
     id="path80"
     sodipodi:nodetypes="cscscccccscscc" />
</svg>
