<?xml version="1.0" encoding="UTF-8" standalone="no"?>
<svg
   width="512"
   height="512"
   version="1.1"
   viewBox="0 0 384 384"
   id="svg50"
   sodipodi:docname="accessories-dictionary.svg"
   inkscape:version="1.2 (dc2aedaf03, 2022-05-15)"
   xmlns:inkscape="http://www.inkscape.org/namespaces/inkscape"
   xmlns:sodipodi="http://sodipodi.sourceforge.net/DTD/sodipodi-0.dtd"
   xmlns="http://www.w3.org/2000/svg"
   xmlns:svg="http://www.w3.org/2000/svg">
  <defs
     id="defs54" />
  <sodipodi:namedview
     id="namedview52"
     pagecolor="#505050"
     bordercolor="#ffffff"
     borderopacity="1"
     inkscape:showpageshadow="0"
     inkscape:pageopacity="0"
     inkscape:pagecheckerboard="1"
     inkscape:deskcolor="#505050"
     showgrid="false"
     inkscape:zoom="1.7011719"
     inkscape:cx="255.70608"
     inkscape:cy="256"
     inkscape:window-width="1444"
     inkscape:window-height="1080"
     inkscape:window-x="237"
     inkscape:window-y="-1"
     inkscape:window-maximized="1"
     inkscape:current-layer="svg50" />
  <path
     d="m57.254 32.16h269.49c8.0938 0 14.652 6.5586 14.652 14.652v306.99c0 8.0937-6.5586 14.652-14.652 14.652h-269.49c-8.0938 0-14.652-6.5586-14.652-14.652v-306.99c0-8.0938 6.5586-14.652 14.652-14.652z"
     fill-rule="evenodd"
     opacity=".3"
     id="path38" />
  <path
     d="m57.254 24.66h269.49c8.0938 0 14.652 6.5586 14.652 14.652v306.99c0 8.0938-6.5586 14.652-14.652 14.652h-269.49c-8.0938 0-14.652-6.5586-14.652-14.652v-306.99c0-8.0938 6.5586-14.652 14.652-14.652z"
     fill="#e6e6e6"
     fill-rule="evenodd"
     id="path40" />
  <path
     transform="matrix(.93052 0 0 1 22.711 0)"
     d="m313.49 7.8594c5.7656 0 13.098 5.6289 13.098 15.516l0.26172 341.17c0 7.5508-8.3516 14.324-18.074 14.324l-109.88-17.305v-337.5z"
     opacity=".3"
     id="path42" />
  <path
     d="m305.99 7.8594c5.7656 0 13.098 5.6289 13.098 15.516l0.26172 341.17c0 7.5508-8.3516 14.324-18.074 14.324l-109.88-17.305v-337.5z"
     fill="#fff"
     id="path44" />
  <path
     d="m 154.07,27.848 c -2.1562,0 -3.8906,1.7383 -3.8906,3.8906 v 126.59857 l -1.03426,0.73494 c -10.32978,7.34027 13.50879,-12.64433 8.33964,-1.5656 l 3.00839,1.82905 4.97923,-4.98802 6.6773,6.66338 7.78895,0.49907 c 0.004,-0.0703 -15.7141,-1.46771 -2.31345,-1.88871 l 3.2069,-0.10074 V 31.7387 c 0,-2.1523 -1.7344,-3.8906 -3.8906,-3.8906 z"
     fill-rule="evenodd"
     opacity="0.3"
     id="path46"
     sodipodi:nodetypes="cscscccccscscc" />
  <path
     d="m 154.07,20.348 c -2.1562,0 -3.8906,1.7383 -3.8906,3.8906 v 124.0032 l 0.44087,-0.32459 c 10.68101,-7.86385 11.14031,-9.40951 4.98028,1.35235 l 4.53203,2.92723 5.33982,-5.34925 7.1387,7.12381 3.08284,0.85121 c -5.36513,-10.3967 -10.43367,-8.7733 0.31835,-4.64488 l 4.81981,1.85065 V 24.2387 c 0,-2.1523 -1.7344,-3.8906 -3.8906,-3.8906 z"
     fill="#b8174a"
     fill-rule="evenodd"
     id="path48"
     sodipodi:nodetypes="cscscccccscscc" />
</svg>
