<?xml version="1.0" encoding="UTF-8" standalone="no"?>
<svg
   width="32"
   height="32"
   version="1"
   id="svg64"
   sodipodi:docname="accessories-painting.svg"
   inkscape:version="1.2 (dc2aedaf03, 2022-05-15)"
   xmlns:inkscape="http://www.inkscape.org/namespaces/inkscape"
   xmlns:sodipodi="http://sodipodi.sourceforge.net/DTD/sodipodi-0.dtd"
   xmlns="http://www.w3.org/2000/svg"
   xmlns:svg="http://www.w3.org/2000/svg">
  <defs
     id="defs68" />
  <sodipodi:namedview
     id="namedview66"
     pagecolor="#505050"
     bordercolor="#ffffff"
     borderopacity="1"
     inkscape:showpageshadow="0"
     inkscape:pageopacity="0"
     inkscape:pagecheckerboard="1"
     inkscape:deskcolor="#505050"
     showgrid="false"
     inkscape:zoom="27.21875"
     inkscape:cx="15.98163"
     inkscape:cy="16"
     inkscape:window-width="1444"
     inkscape:window-height="1080"
     inkscape:window-x="237"
     inkscape:window-y="-1"
     inkscape:window-maximized="1"
     inkscape:current-layer="svg64" />
  <circle
     style="opacity:0.2;stroke:#000000;stroke-width:0;stroke-linecap:round;stroke-linejoin:round"
     cx="16"
     cy="17"
     r="14"
     id="circle36" />
  <ellipse
     style="fill:#ffffff;stroke:#000000;stroke-width:0;stroke-linecap:round;stroke-linejoin:round"
     cx="15.994"
     cy="16.008"
     rx="13.654"
     ry="13.656"
     id="ellipse38" />
  <path
     style="fill:#e040fb;stroke:#000000;stroke-width:0;stroke-linecap:round;stroke-linejoin:round"
     d="M 28.121537,9.0053763 A 14.003603,14.006081 0 0 0 8.9922599,3.8787948 14.003603,14.006081 0 0 0 3.8501357,9.0671529 L 15.994061,16.008417 Z"
     id="path40" />
  <path
     style="fill:#fdfd4b;stroke:#000000;stroke-width:0;stroke-linecap:round;stroke-linejoin:round"
     d="m 28.121537,9.0053763 -12.127476,7.0030407 -0.06222,13.99131 a 14.003603,14.006081 0 0 0 7.064021,-1.861688 14.003603,14.006081 0 0 0 5.125675,-19.1326627 z"
     id="path42" />
  <path
     style="fill:#18ffff;stroke:#000000;stroke-width:0;stroke-linecap:round;stroke-linejoin:round"
     d="M 15.994061,16.008417 3.8501357,9.0671529 a 14.003603,14.006081 0 0 0 0.01645,13.9443051 14.003603,14.006081 0 0 0 12.0652593,6.988269 z"
     id="path44" />
  <path
     style="opacity:0.2;fill:#ffffff;stroke:#000000;stroke-width:0;stroke-linecap:round;stroke-linejoin:round"
     d="M 16 2 A 13.999999 13.999999 0 0 0 2 16 A 13.999999 13.999999 0 0 0 2.0214844 16.585938 A 13.999999 13.999999 0 0 1 16 3 A 13.999999 13.999999 0 0 1 29.978516 16.414062 A 13.999999 13.999999 0 0 0 30 16 A 13.999999 13.999999 0 0 0 16 2 z"
     id="path46" />
  <path
     style="opacity:0.1"
     d="m 18.758192,18.36596 c -2.16228,1.991312 -6.322227,-1.167312 -8.07809,-3.151079 C 8.8741419,13.174506 2.1307349,6.2928728 1.6378425,5.8465594 1.1449736,5.4002627 0.75244178,4.8491063 1.1882639,4.3007418 1.641967,3.7666989 2.2693868,4.032029 2.813547,4.4159122 3.3577425,4.7998094 11.57172,9.891986 13.967222,11.214994 c 2.329025,1.286306 6.318931,4.651859 4.79097,7.150966 z"
     id="path48" />
  <path
     style="fill:#4f4f4f"
     d="m 18.758192,17.36596 c -2.16228,1.991312 -6.322227,-1.167312 -8.07809,-3.151079 C 8.8741419,12.174506 2.1307349,5.292873 1.6378425,4.8465596 1.1449736,4.4002629 0.75244178,3.8491065 1.1882639,3.300742 1.641967,2.7666991 2.2693868,3.0320292 2.813547,3.4159124 c 0.5441955,0.3838972 8.758173,5.4760738 11.153675,6.7990816 2.329025,1.286306 6.318931,4.651859 4.79097,7.150966 z"
     id="path50" />
  <path
     style="opacity:0.1"
     d="M 21.9,19.839784 C 14,26.72271 6.7704403,20.575183 5.7219277,18.166164 c 0.6200397,4.181376 3.4860435,7.923213 7.8156733,9.363251 3.269936,1.087561 10.000682,0.366725 10.507083,-2.967973 z"
     id="path52" />
  <path
     style="fill:#4883f7"
     d="M 21.9,18.839784 C 15.378731,24.521482 9.3143081,21.324067 6.806395,18.679918 6.2761704,18.12089 6.4179186,18.950307 6.2349291,18.529878 c 0.081118,0.547039 -0.3123235,-0.27716 -0.1560742,0.250663 1.0380674,3.506672 3.6955506,6.497232 7.4587461,7.748874 3.269936,1.087561 10.000682,0.366725 10.507083,-2.967973 z"
     id="path54"
     sodipodi:nodetypes="cscsccc" />
  <path
     style="opacity:0.1"
     d="m 21.777206,20.821229 c -0.675854,0.304304 -0.602764,0.52425 -1.202862,0.42937 -0.413897,-0.06544 -3.999484,-2.737446 -3.999484,-2.737446 -0.181741,-0.428776 0.03627,-1.018226 0.445784,-1.484758 0.379819,-0.490204 0.921508,-0.821553 1.385773,-0.735217 0,0 3.399362,2.89772 3.549911,3.282359 0.218275,0.557686 -0.01572,0.532766 -0.179122,1.245692 z"
     id="path56" />
  <path
     style="fill:#9b9b9b"
     d="m 21.777206,19.821229 c -0.675854,0.304304 -0.602764,0.52425 -1.202862,0.42937 -0.413897,-0.06544 -3.999484,-2.737446 -3.999484,-2.737446 -0.181741,-0.428776 0.03627,-1.018226 0.445784,-1.484758 0.379819,-0.490204 0.921508,-0.821553 1.385773,-0.735217 0,0 3.399362,2.89772 3.549911,3.282359 0.218275,0.557686 -0.01572,0.532766 -0.179122,1.245692 z"
     id="path58" />
  <path
     style="opacity:0.1"
     d="m 22.443279,26.683961 c 2.541652,-1.409784 3.139221,-3.950175 2.135626,-5.746974 -0.779889,-1.396277 -2.060423,-1.660264 -2.944883,-0.985123 -0.877402,0.669754 -0.95475,1.467826 -0.693026,2.260451 0.533746,1.616596 2.822577,2.804345 1.502283,4.471646 z"
     id="path60" />
  <path
     style="fill:#3f3f3f"
     d="m 23.153867,25.019573 c 0.337756,-0.187343 -0.06941,0.269735 0.200491,0.04686 1.761117,-1.454299 2.094776,-3.571419 1.224547,-5.129444 -0.779886,-1.396279 -2.060423,-1.660264 -2.944883,-0.985123 -0.877402,0.669754 -0.95475,1.467826 -0.693026,2.260451 0.439247,1.330379 2.067121,2.370322 1.893925,3.626118 -0.03726,0.270171 0.552703,-0.114054 0.318946,0.18114 z"
     id="path62"
     sodipodi:nodetypes="cssscsc" />
</svg>
