<?xml version="1.0" encoding="UTF-8" standalone="no"?>
<svg
   width="512"
   height="512"
   version="1.1"
   viewBox="0 0 384 384"
   id="svg1042525"
   sodipodi:docname="Acetino2.svg"
   inkscape:version="1.2 (dc2aedaf03, 2022-05-15)"
   xmlns:inkscape="http://www.inkscape.org/namespaces/inkscape"
   xmlns:sodipodi="http://sodipodi.sourceforge.net/DTD/sodipodi-0.dtd"
   xmlns="http://www.w3.org/2000/svg"
   xmlns:svg="http://www.w3.org/2000/svg">
  <defs
     id="defs1042529" />
  <sodipodi:namedview
     id="namedview1042527"
     pagecolor="#ffffff"
     bordercolor="#666666"
     borderopacity="1.0"
     inkscape:pageshadow="2"
     inkscape:pageopacity="0.0"
     inkscape:pagecheckerboard="0"
     showgrid="false"
     inkscape:zoom="6.4609376"
     inkscape:cx="384.92865"
     inkscape:cy="343.68077"
     inkscape:window-width="1444"
     inkscape:window-height="1080"
     inkscape:window-x="237"
     inkscape:window-y="-1"
     inkscape:window-maximized="1"
     inkscape:current-layer="g1042523"
     inkscape:showpageshadow="0"
     inkscape:deskcolor="#d1d1d1" />
  <g
     transform="translate(679.9,212.91)"
     id="g1042523">
    <g
       transform="translate(-679.9,-212.91)"
       id="g1042517">
      <g
         transform="translate(6e-4 .098419)"
         id="g1042511">
        <g
           transform="translate(16.314 -.099008)"
           id="g1042509">
          <path
             transform="matrix(7.9471,0,0,7.9471,-15.045,1.2686)"
             d="m24 4.0002c-11.046 0-20 8.9542-20 20s8.9547 20 20 20c11.045 0 20-8.9542 20-20s-8.9547-20-20-20zm0 14.545c3.0126 0 5.4545 2.4419 5.4545 5.4545s-2.4419 5.4545-5.4545 5.4545c-3.0131 0-5.4545-2.4419-5.4545-5.4545s2.4414-5.4545 5.4545-5.4545z"
             fill="#e5e5e5"
             stroke="#ccc"
             stroke-width=".25"
             id="path1042505" />
          <path
             transform="matrix(7.9471,0,0,7.9471,-15.045,1.2686)"
             d="m24 15.461c-4.7162 0-8.5393 3.8226-8.5393 8.5388s3.8231 8.5388 8.5393 8.5388c4.7157 0 8.5388-3.8226 8.5388-8.5388s-3.8231-8.5388-8.5388-8.5388zm0 4.0074c2.5024 0 4.5314 2.029 4.5314 4.5314s-2.029 4.5314-4.5314 4.5314-4.5319-2.029-4.5319-4.5314 2.0295-4.5314 4.5319-4.5314z"
             fill="#fff"
             stroke="#e5e5e5"
             stroke-width=".44277"
             id="path1042507" />
        </g>
      </g>
      <path
         d="m384 294c0 49.706-40.294 90-90 90s-90-40.294-90-90 40.294-90 90-90 90 40.294 90 90z"
         fill-opacity=".98431"
         opacity=".3"
         stroke-width=".9375"
         id="path1042513" />
      <path
         d="m384 286.5c0 49.706-40.294 90-90 90s-90-40.294-90-90 40.294-90 90-90 90 40.294 90 90z"
         fill="#8a3fab"
         stroke-width=".9375"
         id="path1042515" />
    </g>
    <path
       d="m-424.47 87.521c0 21.303 17.269 38.569 38.569 38.569 21.086 0 38.186-16.927 38.531-37.928 0.0251-0.21342 0.0377-0.42685 0.0377-0.64032 0-3.55-2.8782-6.4281-6.4281-6.4281s-6.4281 2.8782-6.4281 6.4281c0 14.2-11.51 25.712-25.712 25.712-14.2 0-25.712-11.513-25.712-25.712 0-14.2 11.513-25.712 25.712-25.712v12.856l25.712-19.284-25.709-19.291v12.856c-21.299 0-38.569 17.269-38.569 38.569z"
       opacity=".3"
       stroke-width=".80352"
       id="path1042519" />
    <path
       d="m -424.47,80.021 c 0,21.303 17.269,38.569 38.569,38.569 21.086,0 38.186,-16.927 38.531,-37.928 0.0251,-0.21343 0.0377,-0.42686 0.0377,-0.64033 0,-3.55 -2.8782,-6.4281 -6.4281,-6.4281 -3.5499,0 -6.4281,2.8782 -6.4281,6.4281 0,14.2 -11.51,25.712 -25.712,25.712 -14.2,0 -25.712,-11.513 -25.712,-25.712 0,-13.761461 10.81287,-24.998386 24.40442,-25.679321 0.43313,-0.0217 -0.65583,0.663814 -0.21732,0.663814 l 1.5249,1.343809 v 5.307223 0.152485 l 5.23644,1.428663 17.51836,-13.138776 v 0 l -0.12893,-4.533603 -18.18838,-13.647832 v 0 l -4.43449,1.51422 v 6.287343 l -1.04261,0.79035 c -0.58477,0 -0.12389,0.949642 -0.70231,0.975402 -20.48936,0.912509 -36.82408,17.815018 -36.82408,38.530223 z"
       fill="#ffffff"
       stroke-width="0.80352"
       id="path1042521"
       sodipodi:nodetypes="cscsssssscccccscccccccscc" />
  </g>
</svg>
