<?xml version="1.0" encoding="UTF-8" standalone="no"?>
<svg
   width="32"
   height="32"
   version="1"
   id="svg75892"
   sodipodi:docname="acetoneiso.svg"
   inkscape:version="1.2 (dc2aedaf03, 2022-05-15)"
   xmlns:inkscape="http://www.inkscape.org/namespaces/inkscape"
   xmlns:sodipodi="http://sodipodi.sourceforge.net/DTD/sodipodi-0.dtd"
   xmlns="http://www.w3.org/2000/svg"
   xmlns:svg="http://www.w3.org/2000/svg">
  <defs
     id="defs75896" />
  <sodipodi:namedview
     id="namedview75894"
     pagecolor="#ffffff"
     bordercolor="#666666"
     borderopacity="1.0"
     inkscape:pageshadow="2"
     inkscape:pageopacity="0.0"
     inkscape:pagecheckerboard="0"
     showgrid="false"
     inkscape:zoom="103.375"
     inkscape:cx="22.423216"
     inkscape:cy="18.365175"
     inkscape:window-width="1444"
     inkscape:window-height="1080"
     inkscape:window-x="237"
     inkscape:window-y="-1"
     inkscape:window-maximized="1"
     inkscape:current-layer="svg75892"
     inkscape:showpageshadow="0"
     inkscape:deskcolor="#d1d1d1"
     inkscape:lockguides="true" />
  <path
     opacity=".2"
     d="m16 3c-7.756 0-14 6.244-14 14s6.244 14 14 14 14-6.244 14-14-6.244-14-14-14zm0 8a6 6 0 0 1 6 6 6 6 0 0 1 -6 6 6 6 0 0 1 -6 -6 6 6 0 0 1 6 -6z"
     id="path75878" />
  <path
     fill="#848484"
     d="m16 8.5a7.5 7.5 0 0 0 -7.5 7.5 7.5 7.5 0 0 0 7.5 7.5 7.5 7.5 0 0 0 7.5 -7.5 7.5 7.5 0 0 0 -7.5 -7.5zm0 4.5c1.6569 0 3 1.3431 3 3s-1.3431 3-3 3-3-1.3431-3-3 1.3431-3 3-3z"
     id="path75880" />
  <path
     fill="#e4e4e4"
     d="m16 2c-7.756 0-14 6.244-14 14s6.244 14 14 14 14-6.244 14-14-6.244-14-14-14zm0 8a6 6 0 0 1 6 6 6 6 0 0 1 -6 6 6 6 0 0 1 -6 -6 6 6 0 0 1 6 -6z"
     id="path75882" />
  <path
     fill="#fff"
     opacity=".2"
     d="m16 2c-7.756 0-14 6.244-14 14 0 0.169 0.0195 0.333 0.0254 0.5 0.2637-7.5206 6.3874-13.5 13.975-13.5 7.587 0 13.711 5.9794 13.975 13.5 0.005-0.167 0.025-0.331 0.025-0.5 0-7.756-6.244-14-14-14zm-5.975 14.498a6 6 0 0 0 -0.025 0.502 6 6 0 0 0 6 6 6 6 0 0 0 6 -6 6 6 0 0 0 -0.025 -0.498 6 6 0 0 1 -5.975 5.498 6 6 0 0 1 -5.975 -5.502z"
     id="path75884" />
  <circle
     fill="#ba22ff"
     cx="24"
     cy="23"
     r="8"
     id="circle75886" />
  <path
     fill="#ffffff"
     d="m 20,23.334 c 0,2.2092 1.7909,4 4,4 2.1867,0 3.9602,-1.7554 3.9961,-3.9336 0.0024,-0.02205 0.0038,-0.04421 0.004,-0.0664 0,-0.368192 -0.298478,-0.66667 -0.66667,-0.66667 -0.368192,0 -0.66667,0.298478 -0.66667,0.66667 0,1.4727 -1.1939,2.6667 -2.6667,2.6667 -1.4727,0 -2.6667,-1.1939 -2.6667,-2.6667 0,-1.426195 1.119689,-2.591014 2.528039,-2.663157 0.04592,-0.0024 0.01324,0.04278 0.05975,0.04278 l 0.07891,0.07274 v 0.806775 l 0.443352,0.07496 v 0 l 1.998319,-1.498721 v 0 l -0.01466,-0.348613 -1.995386,-1.497194 -0.431227,0.07171 v 0 0.780992 l -0.129591,0.08586 c -0.048,0 0.03378,0.07202 -0.01382,0.0737 -2.142774,0.0755 -3.856594,1.836379 -3.856594,3.997477 z"
     id="path75888"
     sodipodi:nodetypes="csccssssscccccccccccccscc" />
  <path
     opacity=".2"
     d="m31.979 23.424a8 8 0 0 1 -7.979 7.576 8 8 0 0 1 -7.979 -7.424 8 8 0 0 0 -0.021 0.424 8 8 0 0 0 8 8 8 8 0 0 0 8 -8 8 8 0 0 0 -0.02148 -0.57617z"
     id="path75890" />
</svg>
