<?xml version="1.0" encoding="UTF-8" standalone="no"?>
<svg
   width="512"
   height="512"
   version="1.1"
   viewBox="0 0 384 384"
   id="svg58"
   sodipodi:docname="AdobeFlash.svg"
   inkscape:version="1.2 (dc2aedaf03, 2022-05-15)"
   xmlns:inkscape="http://www.inkscape.org/namespaces/inkscape"
   xmlns:sodipodi="http://sodipodi.sourceforge.net/DTD/sodipodi-0.dtd"
   xmlns="http://www.w3.org/2000/svg"
   xmlns:svg="http://www.w3.org/2000/svg">
  <sodipodi:namedview
     id="namedview60"
     pagecolor="#505050"
     bordercolor="#ffffff"
     borderopacity="1"
     inkscape:showpageshadow="0"
     inkscape:pageopacity="0"
     inkscape:pagecheckerboard="1"
     inkscape:deskcolor="#505050"
     showgrid="false"
     inkscape:zoom="1.7011719"
     inkscape:cx="255.70608"
     inkscape:cy="256"
     inkscape:window-width="1444"
     inkscape:window-height="1080"
     inkscape:window-x="237"
     inkscape:window-y="-1"
     inkscape:window-maximized="1"
     inkscape:current-layer="svg58" />
  <defs
     id="defs46">
    <clipPath
       id="clipPath44">
      <rect
         width="384"
         height="384"
         id="rect42" />
    </clipPath>
  </defs>
  <path
     d="m192 23.25c93.199 0 168.75 75.551 168.75 168.75 0 93.195-75.551 168.75-168.75 168.75-93.199 0-168.75-75.555-168.75-168.75 0-93.199 75.551-168.75 168.75-168.75z"
     fill="#d41717"
     id="path48" />
  <path
     d="m252.75 123.61v30.559c-30.504 0.53125-38 30.281-38 30.281h23.008v30.555h-35.676c-21.457 66.195-70.832 60.301-70.832 60.301v-30.555s31.332 5.8164 47.309-52.527c19.984-72.977 74.191-68.613 74.191-68.613z"
     opacity=".3"
     id="path50" />
  <path
     d="m 252.75,116.11 v 30.559 c -22.11954,0.38523 -32.14097,16.13418 -35.9789,24.76272 -1.45477,3.27067 1.43121,2.71676 1.43121,2.71676 l 1.47111,2.80152 H 237.758 v 30.555 H 202.082 C 180.625,273.7 131.25,267.806 131.25,267.806 v -30.555 c 0,0 31.332,5.8164 47.309,-52.527 19.984,-72.977 74.191,-68.613 74.191,-68.613 z"
     fill="#ffffff"
     id="path52"
     sodipodi:nodetypes="ccscccccccccc" />
  <path
     transform="scale(.75)"
     d="m31.082 250c-0.052213 1.9941-0.082031 3.9933-0.082031 6 0 124.26 100.73 225 225 225s225-100.74 225-225c0-2.0067-0.0298-4.0059-0.082-6-3.1811 121.49-102.66 219-224.92 219-122.26 0-221.74-97.513-224.92-219z"
     opacity=".3"
     id="path54" />
  <path
     transform="scale(.75)"
     d="m256 31c-124.27 0-225 100.73-225 225 0 1.6718 0.02817 3.3368 0.06445 5 2.6604-121.96 102.34-220 224.94-220s222.28 98.045 224.94 220c0.03628-1.6632 0.06445-3.3282 0.06445-5 0-124.27-100.73-225-225-225z"
     fill="#fff"
     opacity=".3"
     id="path56" />
</svg>
