<?xml version="1.0" encoding="UTF-8" standalone="no"?>
<svg
   width="32"
   height="32"
   version="1.1"
   id="svg113878"
   sodipodi:docname="rocketchat-desktop.svg"
   inkscape:version="1.1.2 (0a00cf5339, 2022-02-04)"
   xmlns:inkscape="http://www.inkscape.org/namespaces/inkscape"
   xmlns:sodipodi="http://sodipodi.sourceforge.net/DTD/sodipodi-0.dtd"
   xmlns="http://www.w3.org/2000/svg"
   xmlns:svg="http://www.w3.org/2000/svg">
  <defs
     id="defs113882" />
  <sodipodi:namedview
     id="namedview113880"
     pagecolor="#ffffff"
     bordercolor="#666666"
     borderopacity="1.0"
     inkscape:pageshadow="2"
     inkscape:pageopacity="0.0"
     inkscape:pagecheckerboard="0"
     showgrid="false"
     inkscape:zoom="25.84375"
     inkscape:cx="15.980653"
     inkscape:cy="16"
     inkscape:window-width="1920"
     inkscape:window-height="1051"
     inkscape:window-x="0"
     inkscape:window-y="29"
     inkscape:window-maximized="1"
     inkscape:current-layer="svg113878" />
  <path
     style="opacity:0.2"
     d="m 1,3 c 1.1805293,1.6527409 2.0312916,4.830053 2.4941406,8.488281 A 15,10 0 0 0 1,17 15,10 0 0 0 3.6347656,22.640625 C 3.2459122,26.244627 2.4000911,29.36656 1,31 5.0690536,31 8.7213304,29.254114 11.279297,26.482422 A 15,10 0 0 0 16,27 15,10 0 0 0 31,17 15,10 0 0 0 16,7 15,10 0 0 0 11.283203,7.5214844 C 8.7250681,4.7474277 5.0710396,3 1,3 Z"
     id="path113862" />
  <path
     style="fill:#c1272d"
     d="m 15,16 c 0,7.076057 -5.249651,12.925993 -12.0667527,13.867606 -0.1646128,0.02274 -0.3301395,0.04261 -0.4965284,0.05957 -0.4723539,0.04815 0.9815917,-0.05957 0.4965284,-0.05957 C 3.1833453,29.575829 2.1776145,29.3323 2.3887561,28.952063 5.5337374,23.288384 4.9654331,9.3506589 2.1293369,3.9177154 c -0.1710378,-0.327647 0.1872166,0.2621032 0,0 0.4915724,0 0.4372954,-0.8652986 0.9113187,-0.8236694 C 10.022588,3.7072054 15,8.7595856 15,16 Z"
     id="path113864"
     sodipodi:nodetypes="ssscsscss" />
  <ellipse
     style="fill:#c1272d"
     cx="16"
     cy="16"
     rx="15"
     ry="10"
     id="ellipse113866" />
  <path
     style="opacity:0.2"
     d="m 16,8.999562 c -3.781842,0 -7.1742472,1.04455 -9.4980469,2.59375 C 4.1788796,13.142028 3.0007365,15.047482 3,16.997609 c 0.00495,1.408971 0.6263575,2.848155 2.0253906,4.207031 a 2.0002,2.0002 0 0 1 0.5957032,1.650391 C 5.4049599,24.857388 5.0815996,26.727068 4.5507812,28.398 6.5789865,27.762208 8.3955763,26.657594 9.8085938,25.126515 a 2.0002,2.0002 0 0 1 1.9062502,-0.595703 c 1.374405,0.306854 2.826752,0.46595 4.289062,0.46875 3.78019,-7.56e-4 7.171183,-1.045111 9.494141,-2.59375 C 27.821847,20.856612 29,18.950326 29,16.999562 29,15.048798 27.821847,13.142512 25.498047,11.593312 23.174247,10.044112 19.781842,8.999562 16,8.999562 Z"
     id="path113868" />
  <path
     style="fill:#ffffff"
     d="M 16,8 C 12.218158,8 8.8257528,9.0445502 6.5019531,10.59375 4.1788796,12.142466 3.0007365,14.04792 3,15.998047 c 0.00495,1.408971 0.6263575,2.848155 2.0253906,4.207031 0.4421395,0.429032 0.6619001,1.037877 0.5957032,1.650391 -0.1813404,1.680015 -0.438163,3.266631 -0.8296676,4.720826 -0.075118,0.279014 0.085452,-0.268989 0,0 0.2702545,-0.08472 0.2961068,0.644383 0.5583926,0.543117 1.7061165,-0.658713 3.2340394,-1.665393 4.458775,-2.992459 0.4837302,-0.524283 1.2100692,-0.751263 1.9062502,-0.595703 1.374405,0.306854 2.826752,0.46595 4.289062,0.46875 3.78019,-7.56e-4 7.171183,-1.045111 9.494141,-2.59375 C 27.821847,19.85705 29,17.950764 29,16 29,14.049236 27.821847,12.14295 25.498047,10.59375 23.174247,9.0445502 19.781842,8 16,8 Z"
     id="path113870"
     sodipodi:nodetypes="sscccscscccssss" />
  <path
     style="opacity:0.2"
     d="m 10,15 a 2,2 0 0 0 -2,2 2,2 0 0 0 2,2 2,2 0 0 0 2,-2 2,2 0 0 0 -2,-2 z m 6,0 a 2,2 0 0 0 -2,2 2,2 0 0 0 2,2 2,2 0 0 0 2,-2 2,2 0 0 0 -2,-2 z m 6,0 a 2,2 0 0 0 -2,2 2,2 0 0 0 2,2 2,2 0 0 0 2,-2 2,2 0 0 0 -2,-2 z"
     id="path113872" />
  <path
     style="fill:#c1272d"
     d="M 10 14 A 2 2 0 0 0 8 16 A 2 2 0 0 0 10 18 A 2 2 0 0 0 12 16 A 2 2 0 0 0 10 14 z M 16 14 A 2 2 0 0 0 14 16 A 2 2 0 0 0 16 18 A 2 2 0 0 0 18 16 A 2 2 0 0 0 16 14 z M 22 14 A 2 2 0 0 0 20 16 A 2 2 0 0 0 22 18 A 2 2 0 0 0 24 16 A 2 2 0 0 0 22 14 z"
     id="path113874" />
  <path
     style="opacity:0.2;fill:#ffffff"
     d="m 1.5917969,3.03125 c 0.2090292,0.2926408 -0.188029,-0.3824429 0,0 3.8305404,0.1615922 7.258936,1.8524492 9.6914061,4.4902344 C 12.803533,7.1806477 14.396024,7.0045835 16,7 24.035557,7.00657 30.636034,11.23349 30.96875,16.585938 30.987755,16.390871 30.998176,16.195474 31,16 31,10.477153 24.284271,6 16,6 14.396024,6.0045835 12.803533,6.1806477 11.283203,6.5214844 9.0546253,4.1048014 5.9943276,2.4672705 2.5511667,2.085462 2.0419997,2.0290011 2.1162572,3.03125 1.5917969,3.03125 Z M 3.359375,10.640625 C 1.8253304,12.241427 1.0069455,14.100407 1,16 c 0.00653,0.151851 0.018254,0.303583 0.035156,0.455078 0.1441945,-1.771715 0.9928863,-3.485951 2.4589844,-4.966797 -0.037198,-0.294 -0.092587,-0.560409 -0.1347654,-0.847656 z M 3.5234375,22.519531 C 3.1836788,25.088147 2.5992171,27.359181 1.7268795,28.93429 1.5036745,29.337313 1.2616224,29.694774 1,30 c 0.2355148,0 0.4646746,-0.02555 0.6972656,-0.03711 0.9865707,-1.752087 1.6187277,-4.367795 1.9375,-7.322266 -0.037539,-0.04019 -0.074649,-0.08055 -0.1113281,-0.121093 z"
     id="path113876"
     sodipodi:nodetypes="ccccccccscccccccscccc" />
</svg>
