<?xml version="1.0" encoding="UTF-8" standalone="no"?>
<svg
   style="fill:none"
   width="32"
   height="32"
   version="1.1"
   id="svg160402"
   sodipodi:docname="com.github.hannesschulze.optimizer.svg"
   inkscape:version="1.1.2 (0a00cf5339, 2022-02-04)"
   xmlns:inkscape="http://www.inkscape.org/namespaces/inkscape"
   xmlns:sodipodi="http://sodipodi.sourceforge.net/DTD/sodipodi-0.dtd"
   xmlns="http://www.w3.org/2000/svg"
   xmlns:svg="http://www.w3.org/2000/svg">
  <defs
     id="defs160406" />
  <sodipodi:namedview
     id="namedview160404"
     pagecolor="#ffffff"
     bordercolor="#666666"
     borderopacity="1.0"
     inkscape:pageshadow="2"
     inkscape:pageopacity="0.0"
     inkscape:pagecheckerboard="0"
     showgrid="false"
     inkscape:zoom="25.84375"
     inkscape:cx="15.980653"
     inkscape:cy="16"
     inkscape:window-width="1920"
     inkscape:window-height="1051"
     inkscape:window-x="0"
     inkscape:window-y="29"
     inkscape:window-maximized="1"
     inkscape:current-layer="svg160402" />
  <path
     style="opacity:0.2"
     d="M 16,8 C 7.67287,8 1.3886848,15.271868 1.000976,23.975811 A 1.0001217,0.98086727 0 0 0 1.9996956,25 H 30.000304 a 1.0001217,0.98086727 0 0 0 0.99872,-1.024189 C 30.611286,15.271873 24.327131,8 16,8 Z"
     id="path160352" />
  <path
     style="fill:#5d6d79"
     d="M 16,7 C 7.67287,7 1.3886848,14.271868 1.000976,22.975811 A 1.0001217,0.98086727 0 0 0 1.9996956,24 H 30.000304 a 1.0001217,0.98086727 0 0 0 0.99872,-1.024189 C 30.611286,14.271873 24.327131,7 16,7 Z"
     id="path160354" />
  <path
     style="opacity:0.2"
     d="m 16.541879,26.229 -1.692538,-1.923693 7.57923,-4.962077 z"
     id="path160356" />
  <path
     style="fill:#e2900d"
     d="m 16.541879,25.229 -1.692538,-1.923693 6.981676,-4.69366 0.312584,0.295688 v 0 z"
     id="path160358"
     sodipodi:nodetypes="cccccc" />
  <path
     style="opacity:0.1;fill:#ffffff"
     d="m 21.42682,18.998988 v 0 l -6.577211,4.3057 0.558594,0.634765 5.078125,-3.324219 1.140682,-1.33462 z"
     id="path160360"
     sodipodi:nodetypes="ccccccc" />
  <circle
     style="opacity:0.2"
     cx="16"
     cy="25"
     r="2"
     id="circle160362" />
  <circle
     style="fill:#ed274c"
     cx="16"
     cy="24"
     r="2"
     id="circle160364" />
  <g
     style="opacity:0.2;stroke:#000000"
     transform="translate(0,0.9999)"
     id="g160380">
    <path
       style="fill:none;stroke:#000000;stroke-width:2;stroke-linecap:round"
       d="m 16,9 v 2"
       id="path160366" />
    <path
       style="fill:none;stroke:#000000;stroke-width:2;stroke-linecap:round"
       d="M 29,22 H 27"
       id="path160368" />
    <path
       style="fill:none;stroke:#000000;stroke-width:2;stroke-linecap:round"
       d="M 5,22 H 3"
       id="path160370" />
    <path
       style="fill:none;stroke:#000000;stroke-width:2;stroke-linecap:round"
       d="m 6.4737206,16.5 -1.7320508,-1"
       id="path160372" />
    <path
       style="fill:none;stroke:#000000;stroke-width:2;stroke-linecap:round"
       d="m 25.526279,16.5 1.732051,-1"
       id="path160374" />
    <path
       style="fill:none;stroke:#000000;stroke-width:2;stroke-linecap:round"
       d="m 21.5,12.473721 1,-1.732051"
       id="path160376" />
    <path
       style="fill:none;stroke:#000000;stroke-width:2;stroke-linecap:round"
       d="M 10.5,12.473721 9.5,10.74167"
       id="path160378" />
  </g>
  <g
     id="g160396">
    <path
       style="fill:none;stroke:#ffffff;stroke-width:2;stroke-linecap:round"
       d="m 16,9 v 2"
       id="path160382" />
    <path
       style="fill:none;stroke:#ffffff;stroke-width:2;stroke-linecap:round"
       d="M 29,22 H 27"
       id="path160384" />
    <path
       style="fill:none;stroke:#ffffff;stroke-width:2;stroke-linecap:round"
       d="M 5,22 H 3"
       id="path160386" />
    <path
       style="fill:none;stroke:#ffffff;stroke-width:2;stroke-linecap:round"
       d="m 6.4737206,16.5 -1.7320508,-1"
       id="path160388" />
    <path
       style="fill:none;stroke:#ffffff;stroke-width:2;stroke-linecap:round"
       d="m 25.526279,16.5 1.732051,-1"
       id="path160390" />
    <path
       style="fill:none;stroke:#ffffff;stroke-width:2;stroke-linecap:round"
       d="m 21.5,12.473721 1,-1.732051"
       id="path160392" />
    <path
       style="fill:none;stroke:#ffffff;stroke-width:2;stroke-linecap:round"
       d="M 10.5,12.473721 9.5,10.74167"
       id="path160394" />
  </g>
  <path
     style="opacity:0.1;fill:#ffffff"
     d="M 16 7 C 7.67287 7 1.3877088 14.272619 1 22.976562 A 1.0001217 0.98086727 0 0 0 1.0566406 23.341797 C 1.7151212 14.923718 7.8774154 8 16 8 C 24.121337 8 30.283257 14.921572 30.943359 23.337891 A 1.0001217 0.98086727 0 0 0 31 22.976562 C 30.612262 14.272624 24.327131 7 16 7 z"
     id="path160398" />
  <path
     style="fill:#ffffff;opacity:0.2"
     d="M 16 22 A 2 2 0 0 0 14 24 A 2 2 0 0 0 14.064453 24.503906 A 2 2 0 0 1 16 23 A 2 2 0 0 1 17.935547 24.496094 A 2 2 0 0 0 18 24 A 2 2 0 0 0 16 22 z"
     id="path160400" />
</svg>
