<?xml version="1.0" encoding="UTF-8" standalone="no"?>
<svg
   width="512"
   height="512"
   version="1.1"
   viewBox="0 0 384 384"
   id="svg1290119"
   sodipodi:docname="crashplan.svg"
   inkscape:version="1.1.2 (0a00cf5339, 2022-02-04)"
   xmlns:inkscape="http://www.inkscape.org/namespaces/inkscape"
   xmlns:sodipodi="http://sodipodi.sourceforge.net/DTD/sodipodi-0.dtd"
   xmlns="http://www.w3.org/2000/svg"
   xmlns:svg="http://www.w3.org/2000/svg">
  <sodipodi:namedview
     id="namedview1290121"
     pagecolor="#ffffff"
     bordercolor="#666666"
     borderopacity="1.0"
     inkscape:pageshadow="2"
     inkscape:pageopacity="0.0"
     inkscape:pagecheckerboard="0"
     showgrid="false"
     inkscape:zoom="1.6152344"
     inkscape:cx="255.69045"
     inkscape:cy="256"
     inkscape:window-width="1920"
     inkscape:window-height="1051"
     inkscape:window-x="0"
     inkscape:window-y="29"
     inkscape:window-maximized="1"
     inkscape:current-layer="svg1290119" />
  <defs
     id="defs1290105">
    <clipPath
       id="c">
      <rect
         width="384"
         height="384"
         id="rect1290102" />
    </clipPath>
  </defs>
  <path
     d="M 192,48 188.23564,50.688829 36.881936,158.79862 34.5,168 H 35.057087 48 v 156.1 c 0,5.8516 4.3516,11.898 10.684,11.898 h 266.63 c 6.3359,0 10.73,-6.0469 10.684,-11.898 V 168 h 13.7162 v 0 L 348.73005,159.95137 196.4053,51.146677 Z"
     fill="#077041"
     id="path1290107"
     sodipodi:nodetypes="ccccccsssccccccc" />
  <path
     d="m198 187.5c-9.9412 0-18 8.0588-18 18 0 9.0368 6.6597 16.516 15.338 17.802v12.395c-8.679 1.2868-15.338 8.7652-15.338 17.802s6.6597 16.516 15.338 17.802v12.395c-8.679 1.2868-15.338 8.7652-15.338 17.802 0 9.9412 8.0588 18 18 18 9.0368 0 16.516-6.6597 17.802-15.338h12.395c1.2868 8.679 8.7652 15.338 17.802 15.338s16.516-6.6597 17.802-15.338h12.395c1.2868 8.679 8.7652 15.338 17.802 15.338 9.9412 0 18-8.0588 18-18 0-9.0368-6.6597-16.516-15.338-17.802v-12.395c8.679-1.2868 15.338-8.7652 15.338-17.802s-6.6597-16.516-15.338-17.802v-12.395c8.679-1.2868 15.338-8.7652 15.338-17.802 0-9.9412-8.0588-18-18-18-9.0368 0-16.516 6.6597-17.802 15.338h-12.395c-1.2868-8.679-8.7652-15.338-17.802-15.338s-16.516 6.6597-17.802 15.338h-12.395c-1.2868-8.679-8.7652-15.338-17.802-15.338zm17.802 20.662h12.395c1.1968 8.0715 7.7505 14.396 15.932 15.242v12.194c-8.181 0.8451-14.734 7.1699-15.932 15.242h-12.395c-1.1579-7.8098-7.3308-13.983-15.141-15.141v-12.395c7.8098-1.1579 13.983-7.3308 15.141-15.141zm48 0h12.395c1.1579 7.8098 7.3308 13.983 15.141 15.141v12.395c-7.8098 1.1579-13.983 7.3308-15.141 15.141h-12.395c-1.1185-7.5435-6.915-13.558-14.347-15.003v-12.671c7.4318-1.4452 13.228-7.4596 14.347-15.003zm-48 48h12.395c1.1968 8.0715 7.7505 14.396 15.932 15.242v12.194c-8.181 0.8451-14.734 7.1699-15.932 15.242h-12.395c-1.1579-7.8098-7.3308-13.983-15.141-15.141v-12.395c7.8098-1.1579 13.983-7.3308 15.141-15.141zm48 0h12.395c1.1579 7.8098 7.3308 13.983 15.141 15.141v12.395c-7.8098 1.1579-13.983 7.3308-15.141 15.141h-12.395c-1.1185-7.5435-6.915-13.558-14.347-15.003v-12.671c7.4318-1.4452 13.228-7.4596 14.347-15.003z"
     fill="#050505"
     opacity=".3"
     stroke-width=".99997"
     id="path1290109" />
  <path
     transform="scale(.75)"
     d="m264 240c-13.255 0-24 10.745-24 24 0 12.049 8.8796 22.021 20.451 23.736v16.527c-11.572 1.7157-20.451 11.687-20.451 23.736s8.8796 22.021 20.451 23.736v16.527c-11.572 1.7157-20.451 11.687-20.451 23.736 0 13.255 10.745 24 24 24 12.049 0 22.021-8.8796 23.736-20.451h16.527c1.7157 11.572 11.687 20.451 23.736 20.451s22.021-8.8796 23.736-20.451h16.527c1.7157 11.572 11.687 20.451 23.736 20.451 13.255 0 24-10.745 24-24 0-12.049-8.8796-22.021-20.451-23.736v-16.527c11.572-1.7157 20.451-11.687 20.451-23.736s-8.8796-22.021-20.451-23.736v-16.527c11.572-1.7157 20.451-11.687 20.451-23.736 0-13.255-10.745-24-24-24-12.049 0-22.021 8.8796-23.736 20.451h-16.527c-1.7157-11.572-11.687-20.451-23.736-20.451s-22.021 8.8796-23.736 20.451h-16.527c-1.7157-11.572-11.687-20.451-23.736-20.451zm23.736 27.549h16.527c1.5957 10.762 10.334 19.195 21.242 20.322v16.258c-10.908 1.1268-19.646 9.5599-21.242 20.322h-16.527c-1.5439-10.413-9.7744-18.644-20.188-20.188v-16.527c10.413-1.5439 18.644-9.7744 20.188-20.188zm64 0h16.527c1.5439 10.413 9.7744 18.644 20.188 20.188v16.527c-10.413 1.5439-18.644 9.7744-20.188 20.188h-16.527c-1.4913-10.058-9.22-18.077-19.129-20.004v-16.895c9.909-1.927 17.638-9.9461 19.129-20.004zm-64 64h16.527c1.5957 10.762 10.334 19.195 21.242 20.322v16.258c-10.908 1.1268-19.646 9.5599-21.242 20.322h-16.527c-1.5439-10.413-9.7744-18.644-20.188-20.188v-16.527c10.413-1.5439 18.644-9.7744 20.188-20.188zm64 0h16.527c1.5439 10.413 9.7744 18.644 20.188 20.188v16.527c-10.413 1.5439-18.644 9.7744-20.188 20.188h-16.527c-1.4913-10.058-9.22-18.077-19.129-20.004v-16.895c9.909-1.927 17.638-9.9461 19.129-20.004z"
     fill="#fff"
     stroke-width="1.3333"
     id="path1290111" />
  <path
     d="m294 276"
     fill="#fff"
     id="path1290113" />
  <path
     transform="scale(.75)"
     d="m60 214-14 10h18v-10zm388 0v10h18l-14-10zm-384 208.13v10c0 7.8021 5.8014 15.865 14.244 15.865h355.51c8.4479 0 14.307-8.0632 14.244-15.865v-10c0.0625 7.8021-5.7962 15.865-14.244 15.865h-355.51c-8.4427 0-14.244-8.0631-14.244-15.865z"
     fill="#010d07"
     opacity=".3"
     stroke-width="1.3333"
     id="path1290115" />
  <path
     transform="scale(0.75)"
     d="M 256,64 60,214 v 0 0 L 256,74 466,224 452,214 Z"
     fill="#ffffff"
     opacity="0.3"
     stroke-width="1.3333"
     id="path1290117"
     sodipodi:nodetypes="cccccccc" />
</svg>
