<?xml version="1.0" encoding="UTF-8" standalone="no"?>
<svg
   width="32"
   height="32"
   version="1.1"
   id="svg20"
   sodipodi:docname="deluge-torrent.svg"
   inkscape:version="1.2 (dc2aedaf03, 2022-05-15)"
   xmlns:inkscape="http://www.inkscape.org/namespaces/inkscape"
   xmlns:sodipodi="http://sodipodi.sourceforge.net/DTD/sodipodi-0.dtd"
   xmlns="http://www.w3.org/2000/svg"
   xmlns:svg="http://www.w3.org/2000/svg">
  <defs
     id="defs24" />
  <sodipodi:namedview
     id="namedview22"
     pagecolor="#505050"
     bordercolor="#ffffff"
     borderopacity="1"
     inkscape:showpageshadow="0"
     inkscape:pageopacity="0"
     inkscape:pagecheckerboard="1"
     inkscape:deskcolor="#505050"
     showgrid="false"
     inkscape:zoom="27.3125"
     inkscape:cx="16"
     inkscape:cy="15.89016"
     inkscape:window-width="1574"
     inkscape:window-height="1080"
     inkscape:window-x="172"
     inkscape:window-y="-1"
     inkscape:window-maximized="1"
     inkscape:current-layer="svg20" />
  <path
     style="opacity:0.2"
     d="M 15.117,2.7254 7.1627,14.181 C 4.4266,18.12 4.457,22.376 6.3007,25.59 8.1444,28.805 11.772,31 16.003,31 20.233,31 23.859,28.805 25.701,25.59 27.543,22.376 27.572,18.12 24.839,14.178 L 16.882,2.7031 C 16.195,1.7698 15.882,1.7541 15.117,2.7254 Z"
     id="path2" />
  <path
     style="fill:#225394"
     d="M 15.117,1.7254 7.1627,13.181 C 4.4266,17.12 4.457,21.376 6.3007,24.59 8.1444,27.805 11.772,30 16.003,30 20.233,30 23.859,27.805 25.701,24.59 27.543,21.376 27.572,17.12 24.839,13.178 L 16.882,1.7031 C 16.195,0.76978 15.882,0.75408 15.117,1.7254 Z"
     id="path4" />
  <path
     style="opacity:0.2"
     d="m 16.007,5.1058 -5.607036,8.573456 0.290379,0.256009 c 0.351009,-0.316245 -0.318455,0.309217 0.07894,0.07538 1.27389,-0.749595 2.746271,-1.063155 4.161716,-0.859642 0.854,0.124 1.688,0.435 2.442,0.951 1.659,1.137 0.888,3.533 -1.122,3.58 -0.005,0.001 -0.011,0.002 -0.016,0.003 -1.671,0.059 -2.996,1.431 -2.997,3.103 0.001,1.576 1.183,2.902 2.749,3.084 0.468,0.092 0.996,0.058 1.656,-0.049 1.366,-0.229 3.353,-0.828 4.422,-1.738 2.687,-2.133 2.196,-4.304 0.581,-6.81 z"
     id="path6"
     sodipodi:nodetypes="cccscccccccccc" />
  <path
     style="fill:#358eff"
     d="m 16.060691,4.7601561 -0.4442,-0.057247 -5.289834,8.0884367 0.54107,0.230618 c 0.325388,-0.293163 -0.550887,0.263061 -0.18515,0.04056 1.293515,-0.786929 2.800749,-1.119671 4.248423,-0.911524 0.854,0.124 1.688,0.435 2.442,0.951 1.659,1.137 0.888,3.533 -1.122,3.58 -0.005,0.001 -0.011,0.002 -0.016,0.003 -1.671,0.059 -2.996,1.431 -2.997,3.103 0.001,1.576 1.183,2.902 2.749,3.084 0.468,0.092 0.996,0.058 1.656,-0.049 1.366,-0.229 3.353,-0.828 4.422,-1.738 2.687,-2.133 2.196,-4.304 0.581,-6.81 L 16.497075,4.8564662 Z"
     id="path8"
     sodipodi:nodetypes="ccccsccccccccccc" />
  <path
     style="opacity:0.2"
     d="M 14.202202,14.967845 C 12.638202,14.899845 10.864,15.778 9.9061,17.452 c -1.393,2.434 -1.2177,5.35 0.7899,7.438 2.481403,2.582633 5.959257,2.56089 8.231025,1.188703 0.398796,-0.240881 -0.205638,-0.13743 0.106911,-0.454757 -0.426912,0.126154 0.125796,-0.156109 -0.274202,-0.07597 C 17.84706,25.730824 17.003933,25.79109 16.228,25.716 h -0.009 c -2.848076,3.21e-4 -5.157057,-2.238365 -5.157,-5 0.0017,-2.460484 1.849257,-4.554073 4.356,-4.936 0.217,-0.06 0.598202,-0.139155 0.821202,-0.147155 -0.625,-0.415 -1.326,-0.634 -2.037,-0.665 z"
     id="path10"
     sodipodi:nodetypes="cccscscscccc" />
  <path
     style="fill:#c3dcfc"
     d="M 13.356714,13.892105 C 11.792714,13.824105 10.864,14.778 9.9061,16.452 c -1.393,2.434 -1.2177,5.35 0.7899,7.438 2.917,3.036 10.836311,1.399769 9.201557,0.07915 C 18.496557,24.383148 17.344,24.824 16.228,24.716 h -0.009 c -2.848076,3.21e-4 -5.157057,-2.238365 -5.157,-5 0.0017,-2.460484 1.215392,-4.973046 4.356,-4.936 0.217,-0.06 -0.247286,-0.214895 -0.02429,-0.222895 0.288119,-0.171308 0.467748,-1.319677 -2.037,-0.665 z"
     id="path12"
     sodipodi:nodetypes="cccccscccc" />
  <path
     style="opacity:0.1;fill:#ffffff"
     d="M 16.029,1 C 15.77,1.0008 15.5,1.2389 15.117,1.7246 L 7.1621,13.18 C 5.5636,15.481 4.9156,17.89 5.0156,20.137 5.1234,18.185 5.799,16.142 7.1621,14.18 L 15.117,2.7246 C 15.882,1.7533 16.196,1.7698 16.883,2.7031 L 24.84,14.178 C 26.202,16.142 26.877,18.184 26.984,20.137 27.084,17.89 26.437,15.481 24.84,13.178 L 16.883,1.7031 C 16.539,1.2365 16.289,0.99917 16.029,1 Z"
     id="path14" />
  <path
     style="opacity:0.2;fill:#ffffff"
     d="m 15.935138,5.146181 -0.372225,0.086187 -5.101091,7.3526743 0.611855,0.377117 c 0.3824,-0.345 3.199802,-2.285182 -0.196677,-0.01116 L 15.678868,5.6058915 16.006,5.5519249 16.331946,5.6047022 22.646,15.274999 c 0.694,1.076 1.158,2.089 1.274,3.065 0.213,-1.282 -0.341,-2.617 -1.274,-4.065 L 16.492569,5.2789428 Z M 18.197,15.24 c -0.218,0.774 -0.915,1.417 -1.947,1.442 -0.005,0 -0.01,0.003 -0.016,0.004 -1.671,0.059 -2.995,1.429 -2.996,3.101 0,0.175 0.021,0.345 0.049,0.512 0.231,-1.442 1.444,-2.56 2.947,-2.613 0.006,-0.001 0.011,-0.004 0.016,-0.004 1.463,-0.035 2.255,-1.31 1.947,-2.442 z"
     id="path16"
     sodipodi:nodetypes="ccccccccccccccccccccc" />
  <path
     style="opacity:0.2;fill:#ffffff"
     d="m 14.039,14.004 c -1.564,-0.068 -3.175,0.774 -4.1328,2.447 -0.6874,1.202 -0.989,2.52 -0.8808,3.799 0.0772,-0.954 0.3717,-1.909 0.8808,-2.799 0.9578,-1.673 2.5688,-2.515 4.1328,-2.447 0.121,0.005 0.241,0.023 0.361,0.039 0.329145,-0.121479 0.670259,-0.20994 1.018,-0.264 0.216,-0.059 0.435,-0.101 0.658,-0.109 -0.625,-0.415 -1.326,-0.635 -2.037,-0.666 z m -2.949,6.195 c -0.01824,0.172097 -0.02725,0.344997 -0.027,0.518 0.0011,2.760475 2.30912,4.997786 5.156,4.998 h 0.01 c 0.402,0.039 0.83,0.03 1.269,-0.002 10e-4,-0.001 0.003,-0.002 0.004,-0.002 0.517901,-0.157761 1.005894,-0.376184 1.447643,-0.645829 0.389886,-0.237987 -5.12e-4,-0.290559 0.306096,-0.601855 -0.383348,0.113554 -0.01143,-0.01663 -0.372949,0.05948 -0.959708,0.202027 -1.843155,0.269928 -2.65379,0.192206 h -0.01 c -2.653285,-0.0016 -4.87221,-1.955321 -5.129,-4.516 z"
     id="path18"
     sodipodi:nodetypes="cccccccccccscccscsccc" />
</svg>
