<?xml version="1.0" encoding="UTF-8" standalone="no"?>
<svg
   width="32"
   height="32"
   version="1.1"
   id="svg220411"
   sodipodi:docname="opendiablo2.svg"
   inkscape:version="1.1.2 (0a00cf5339, 2022-02-04)"
   xmlns:inkscape="http://www.inkscape.org/namespaces/inkscape"
   xmlns:sodipodi="http://sodipodi.sourceforge.net/DTD/sodipodi-0.dtd"
   xmlns="http://www.w3.org/2000/svg"
   xmlns:svg="http://www.w3.org/2000/svg">
  <defs
     id="defs220415" />
  <sodipodi:namedview
     id="namedview220413"
     pagecolor="#ffffff"
     bordercolor="#666666"
     borderopacity="1.0"
     inkscape:pageshadow="2"
     inkscape:pageopacity="0.0"
     inkscape:pagecheckerboard="0"
     showgrid="false"
     inkscape:zoom="25.84375"
     inkscape:cx="15.980653"
     inkscape:cy="16"
     inkscape:window-width="1920"
     inkscape:window-height="1051"
     inkscape:window-x="0"
     inkscape:window-y="29"
     inkscape:window-maximized="1"
     inkscape:current-layer="svg220411" />
  <path
     style="opacity:0.2;fill-rule:evenodd"
     d="M 4.5729993,2.549733 C 5.2654824,3.0332561 6.4447165,3.7601434 7.2847322,4.4160424 7.925525,5.0155289 8.0285743,5.3088859 8.0285743,6.263152 v 10.9964 c 0,2.928465 0.3422715,5.052724 -0.6414285,7.27083 -1.0856633,2.448021 -3.3801412,3.195057 -4.9664641,5.366006 -1.51044605,1.867918 1.4422844,0.976918 2.6006366,0.391224 2.482626,-1.25528 4.4597739,-1.957631 7.4337917,-2.282255 3.749524,-0.0741 6.113428,0.08607 9.520874,0.0096 C 28.142857,28.015 31,21.999941 31,14.245593 31,7.7142272 28.142857,1.9999415 21.396807,2.0315329 15.627664,2.0048303 7.198275,2.0006981 4.5330007,2.0000586 3.771342,1.9999415 4.0907838,2.2148666 4.5729993,2.549733 Z"
     id="path220397" />
  <path
     style="fill:#e97e10;fill-rule:evenodd"
     d="M 4.5729993,1.549733 C 5.2654824,2.0332561 6.4447165,2.7601434 7.2847322,3.4160424 7.925525,4.0155289 8.0285743,4.3088859 8.0285743,5.263152 v 10.9964 c 0,2.928465 0.3422715,5.052724 -0.6414285,7.27083 -1.0856633,2.448021 -3.3801412,3.195057 -4.9664641,5.366006 -1.51044605,1.867918 1.4422844,0.976918 2.6006366,0.391224 2.482626,-1.25528 4.4597739,-1.957631 7.4337917,-2.282255 3.749524,-0.0741 6.113428,0.08607 9.520874,0.0096 C 28.142857,27.015 31,20.999941 31,13.245593 31,6.7142272 28.142857,0.99994153 21.396807,1.0315329 15.627664,1.0048303 7.5426884,1.0007324 4.8774141,1.0000929 5.1702617,0.60390821 4.5722661,1.5488281 4.5729993,1.549733 Z"
     id="path220399"
     sodipodi:nodetypes="ccssscsccsccc" />
  <path
     style="opacity:0.2;fill-rule:evenodd"
     d="m 14.193612,6.0002953 c 2.171129,0.00419 6.622838,0.065093 7.495879,0.4887444 3.813281,2.1417435 4.383871,4.7104653 4.303602,8.3703543 0.105758,3.311653 -1.114082,6.882317 -4.303602,8.575736 C 20.525437,23.999999 13.193252,24 13.193252,24 L 13,6.0036049 c 0,0 0.469904,-0.00471 1.193612,-0.00336 z"
     id="path220401" />
  <path
     style="fill:#ffffff;fill-rule:evenodd"
     d="m 14.193612,5.0002953 c 2.171129,0.00419 6.622838,0.065093 7.495879,0.4887444 3.813281,2.1417435 4.383871,4.7104653 4.303602,8.3703543 0.105758,3.311653 -1.114082,6.882317 -4.303602,8.575736 C 20.525437,22.999999 13.193252,23 13.193252,23 L 13,5.0036049 c 0,0 0.469904,-0.00471 1.193612,-0.00336 z"
     id="path220403" />
  <path
     style="opacity:0.2;fill-rule:evenodd"
     d="m 9.9726562,15.023438 c -0.09406,0.04678 0.1763978,0.708178 0.4726558,1.121093 0.451625,0.629458 0.750991,0.99826 1.376954,1.56836 0.819338,0.746219 1.032544,0.870466 1.376953,1.21875 0.34441,0.348286 0.791015,1.003906 0.791015,1.003906 v 10.148437 c 0,0.69657 -0.710446,1.136913 -0.939453,1.220704 -0.323253,0.118273 -1.023437,0.345703 -1.023437,0.345703 V 32 H 15.884766 20 v -0.347656 c 0,0 -0.81542,-0.229382 -1.138672,-0.347656 -0.229007,-0.08379 -0.810243,-0.524181 -0.818359,-1.220704 v -8.580078 -1.568359 -0.173828 c 0,-0.749733 0.664253,-0.932347 0.925781,-1.044922 0.3543,-0.152508 0.860997,-0.175153 1.033203,-0.523438 0.172204,-0.348285 -0.217352,-0.174614 -0.345703,-0.173828 -1.236647,0.0072 -4.458984,0 -4.458984,0 -0.84131,1e-6 -1.661849,-0.113831 -2.341797,-0.480469 -0.480517,-0.2591 -0.937915,-0.600944 -1.376953,-1.044921 l -1.378907,-1.394532 c -0.06458,-0.06531 -0.1052448,-0.08697 -0.1269528,-0.07617 z m 21.0996098,0 c -0.02171,-0.0108 -0.06237,0.01086 -0.126954,0.07617 l -1.378906,1.394532 c -0.439038,0.443977 -0.896436,0.785821 -1.376953,1.044921 -0.679948,0.366638 -1.498534,0.48047 -2.339844,0.480469 0,0 -3.22429,0.0072 -4.460937,0 -0.128351,-7.86e-4 -0.517907,-0.174457 -0.345703,0.173828 0.172206,0.348285 0.678903,0.37093 1.033203,0.523438 0.261528,0.112575 0.925781,0.295189 0.925781,1.044922 v 0.173828 1.568359 8.580078 c -0.0081,0.696523 -0.589352,1.136913 -0.818359,1.220704 -0.323252,0.118273 -1.125,0.345703 -1.125,0.345703 V 32 h 4.101562 3.857422 v -0.349609 c 0,0 -0.700184,-0.22743 -1.023437,-0.345703 -0.229007,-0.08379 -0.939453,-0.524134 -0.939453,-1.220704 V 19.935547 c 0,0 0.446605,-0.65562 0.791015,-1.003906 0.344409,-0.348284 0.557615,-0.472531 1.376953,-1.21875 0.625963,-0.5701 0.925328,-0.938902 1.376953,-1.56836 0.296259,-0.412915 0.566717,-1.074313 0.472657,-1.121093 z"
     id="path220405" />
  <path
     style="fill:#c2352a;fill-rule:evenodd"
     d="m 10.445312,15.144531 c -0.09406,0.04678 -0.296258,-0.412915 0,0 0.451625,0.629458 0.750991,0.99826 1.376954,1.56836 0.819338,0.746219 1.032544,0.870466 1.376953,1.21875 0.34441,0.348286 0.791015,1.003906 0.791015,1.003906 v 10.148437 c 0,0.69657 -0.710446,1.136913 -0.939453,1.220704 -0.323253,0.118273 -1.023437,0.345703 -1.023437,0.345703 V 31 H 15.884766 20 v -0.347656 c 0,0 -0.81542,-0.229382 -1.138672,-0.347656 -0.229007,-0.08379 -0.810243,-0.524181 -0.818359,-1.220704 v -8.580078 -1.568359 -0.173828 c 0,-0.749733 0.664253,-0.932347 0.925781,-1.044922 0.3543,-0.152508 0.860997,-0.175153 1.033203,-0.523438 0.172204,-0.348285 -0.217352,-0.174614 -0.345703,-0.173828 -1.236647,0.0072 -4.458984,0 -4.458984,0 -0.84131,1e-6 -1.661849,-0.113831 -2.341797,-0.480469 -0.480517,-0.2591 -0.937915,-0.600944 -1.376953,-1.044921 l -0.598579,-0.605362 v 0 c -0.06458,-0.06531 -0.412917,0.244953 -0.434625,0.255752 z M 30.248104,15.4136 c -0.02171,-0.0108 0.0058,0.775854 0.351505,-0.269069 l -0.583261,-0.105432 -0.449942,0.455041 c -0.439038,0.443977 -0.896436,0.785821 -1.376953,1.044921 -0.679948,0.366638 -1.498534,0.48047 -2.339844,0.480469 0,0 -3.22429,0.0072 -4.460937,0 -0.128351,-7.86e-4 -0.517907,-0.174457 -0.345703,0.173828 0.172206,0.348285 0.678903,0.37093 1.033203,0.523438 0.261528,0.112575 0.925781,0.295189 0.925781,1.044922 v 0.173828 1.568359 8.580078 c -0.0081,0.696523 -0.589352,1.136913 -0.818359,1.220704 -0.323252,0.118273 -1.125,0.345703 -1.125,0.345703 V 31 h 4.101562 3.857422 v -0.349609 c 0,0 -0.700184,-0.22743 -1.023437,-0.345703 -0.229007,-0.08379 -0.939453,-0.524134 -0.939453,-1.220704 V 18.935547 c 0,0 0.446605,-0.65562 0.791015,-1.003906 0.344409,-0.348284 0.557614,-0.472532 1.376953,-1.21875 0.492962,-0.448968 0.783369,-0.773093 1.105105,-1.198 0.08681,-0.11464 0.175889,-0.236616 0.271848,-0.37036 0.296259,-0.412915 -0.257445,0.315849 -0.351505,0.269069 z"
     id="path220407"
     sodipodi:nodetypes="cssscsscccccscccsssccsccccscccsccssscccscccccsscsssss" />
  <path
     style="opacity:0.2;fill:#ffffff;fill-rule:evenodd"
     d="m 4.8774141,1.0000929 c 0.039063,0.5488281 0,0 -0.305148,0.5487352 0.1804341,0.1259873 0.4458187,0.2996537 0.6777344,0.453125 3.0066037,9.296e-4 10.6225665,0.00373 16.1464835,0.029297 6.586761,-0.030845 9.459495,5.4190716 9.591797,11.7558589 C 30.991475,13.605965 31,13.429235 31,13.246094 31,6.714728 28.142534,0.99965863 21.396484,1.03125 15.856408,1.0056076 7.8636301,1.0009858 4.8774141,1.0000929 c -0.123472,-3.7e-5 0.1058263,2.54e-5 0,0 z M 8.0722656,20.240234 c -0.042077,1.144039 -0.2047903,2.206977 -0.6855468,3.291016 -1.0856634,2.448021 -3.380474,3.194285 -4.9667969,5.365234 -0.6002085,0.742258 -0.4830661,1.038325 -0.066406,1.101563 0.029163,-0.03873 0.032926,-0.06016 0.066406,-0.101563 1.5863229,-2.170949 3.8811335,-2.919166 4.9667969,-5.367187 0.6146814,-1.386021 0.6993135,-2.757218 0.6855468,-4.289063 z"
     id="path220409"
     sodipodi:nodetypes="cccccscsccscccsc" />
</svg>
