<?xml version="1.0" encoding="UTF-8" standalone="no"?>
<svg
   width="32"
   height="32"
   version="1"
   id="svg2579227"
   sodipodi:docname="disk-usage-analyzer.svg"
   inkscape:version="1.1.2 (0a00cf5339, 2022-02-04)"
   xmlns:inkscape="http://www.inkscape.org/namespaces/inkscape"
   xmlns:sodipodi="http://sodipodi.sourceforge.net/DTD/sodipodi-0.dtd"
   xmlns="http://www.w3.org/2000/svg"
   xmlns:svg="http://www.w3.org/2000/svg">
  <defs
     id="defs2579231" />
  <sodipodi:namedview
     id="namedview2579229"
     pagecolor="#ffffff"
     bordercolor="#666666"
     borderopacity="1.0"
     inkscape:pageshadow="2"
     inkscape:pageopacity="0.0"
     inkscape:pagecheckerboard="0"
     showgrid="false"
     inkscape:zoom="25.84375"
     inkscape:cx="15.980653"
     inkscape:cy="16"
     inkscape:window-width="1920"
     inkscape:window-height="1051"
     inkscape:window-x="0"
     inkscape:window-y="29"
     inkscape:window-maximized="1"
     inkscape:current-layer="svg2579227" />
  <rect
     fill="#8e8e8e"
     width="28"
     height="22"
     x="-30"
     y="-27"
     rx="2"
     ry="2"
     transform="matrix(0,-1,-1,0,0,0)"
     id="rect2579209" />
  <path
     opacity="0.5"
     d="M 16,6 C 12.134,6 9,9.134 9,13 v 6.388497 0 L 9.5351964,20 H 16 c 3.866,0 7,-3.134 7,-7 0,-3.866 -3.134,-7 -7,-7 z m 0,3 c 2.209139,0 4,1.790861 4,4 0,2.209139 -1.790861,4 -4,4 -2.209139,0 -4,-1.790861 -4,-4 0,-2.209139 1.790861,-4 4,-4 z"
     id="path2579211"
     sodipodi:nodetypes="sscccssssssss" />
  <path
     fill="#fff"
     opacity=".2"
     d="m7 2c-1.108 0-2 0.892-2 2v1c0-1.108 0.892-2 2-2h18c1.108 0 2 0.892 2 2v-1c0-1.108-0.892-2-2-2h-18z"
     id="path2579213" />
  <path
     opacity=".2"
     d="m5 28v1c0 1.108 0.892 2 2 2h18c1.108 0 2-0.892 2-2v-1c0 1.108-0.892 2-2 2h-18c-1.108 0-2-0.892-2-2z"
     id="path2579215" />
  <circle
     fill="#4daaf5"
     cx="24"
     cy="23"
     r="8"
     id="circle2579217" />
  <g
     fill="#fff"
     transform="translate(4,2)"
     id="g2579223">
    <rect
       width="3"
       height="6"
       x="19"
       y="20"
       id="rect2579219"
       ry="1.0166594" />
    <rect
       width="3"
       height="3"
       x="19"
       y="16"
       id="rect2579221"
       ry="0.90788215" />
  </g>
  <path
     opacity=".2"
     d="m31.979 23.424a8 8 0 0 1 -7.979 7.576 8 8 0 0 1 -7.979 -7.424 8 8 0 0 0 -0.021 0.424 8 8 0 0 0 8 8 8 8 0 0 0 8 -8 8 8 0 0 0 -0.02148 -0.57617z"
     id="path2579225" />
</svg>
