<?xml version="1.0" encoding="UTF-8" standalone="no"?>
<svg
   width="512"
   height="512"
   version="1.1"
   viewBox="0 0 384 384"
   id="svg591782"
   sodipodi:docname="litesources.svg"
   inkscape:version="1.1.2 (0a00cf5339, 2022-02-04)"
   xmlns:inkscape="http://www.inkscape.org/namespaces/inkscape"
   xmlns:sodipodi="http://sodipodi.sourceforge.net/DTD/sodipodi-0.dtd"
   xmlns="http://www.w3.org/2000/svg"
   xmlns:svg="http://www.w3.org/2000/svg">
  <defs
     id="defs591786" />
  <sodipodi:namedview
     id="namedview591784"
     pagecolor="#ffffff"
     bordercolor="#666666"
     borderopacity="1.0"
     inkscape:pageshadow="2"
     inkscape:pageopacity="0.0"
     inkscape:pagecheckerboard="0"
     showgrid="false"
     inkscape:zoom="1.6152344"
     inkscape:cx="255.69045"
     inkscape:cy="256"
     inkscape:window-width="1920"
     inkscape:window-height="1051"
     inkscape:window-x="0"
     inkscape:window-y="29"
     inkscape:window-maximized="1"
     inkscape:current-layer="svg591782" />
  <g
     transform="translate(6e-4 .098419)"
     id="g591772">
    <g
       transform="translate(16.314 -.099008)"
       id="g591770">
      <path
         transform="matrix(7.9471,0,0,7.9471,-15.045,1.2686)"
         d="m24 4.0002c-11.046 0-20 8.9542-20 20s8.9547 20 20 20c11.045 0 20-8.9542 20-20s-8.9547-20-20-20zm0 14.545c3.0126 0 5.4545 2.4419 5.4545 5.4545s-2.4419 5.4545-5.4545 5.4545c-3.0131 0-5.4545-2.4419-5.4545-5.4545s2.4414-5.4545 5.4545-5.4545z"
         fill="#e5e5e5"
         stroke="#ccc"
         stroke-width=".25"
         id="path591766" />
      <path
         transform="matrix(7.9471,0,0,7.9471,-15.045,1.2686)"
         d="m24 15.461c-4.7162 0-8.5393 3.8226-8.5393 8.5388s3.8231 8.5388 8.5393 8.5388c4.7157 0 8.5388-3.8226 8.5388-8.5388s-3.8231-8.5388-8.5388-8.5388zm0 4.0074c2.5024 0 4.5314 2.029 4.5314 4.5314s-2.029 4.5314-4.5314 4.5314-4.5319-2.029-4.5319-4.5314 2.0295-4.5314 4.5319-4.5314z"
         fill="#fff"
         stroke="#e5e5e5"
         stroke-width=".44277"
         id="path591768" />
    </g>
  </g>
  <path
     d="m384 294c0 49.706-40.294 90-90 90s-90-40.294-90-90 40.294-90 90-90 90 40.294 90 90z"
     fill-opacity=".98431"
     opacity=".3"
     stroke-width=".9375"
     id="path591774" />
  <path
     d="m384 286.5c0 49.706-40.294 90-90 90s-90-40.294-90-90 40.294-90 90-90 90 40.294 90 90z"
     fill="#49ade5"
     fill-opacity=".98431"
     stroke-width=".9375"
     id="path591776" />
  <path
     d="m 289.43927,333.53013 v 0 L 257.997,294 h 24 v -45 h 24 v 45 h 24 l -31.75815,39.47073 z"
     opacity="0.3"
     stroke-width="0.96825"
     id="path591778"
     sodipodi:nodetypes="cccccccccc" />
  <path
     d="m 290.61835,327.51251 v 0 l -27.57706,-34.67068 v 0 L 264.27604,286.5 H 281.997 v -45 h 24 v 45 h 16.71544 v 0 l 1.87242,6.72649 -27.68382,34.40694 z"
     fill="#ffffff"
     stroke-width="0.96825"
     id="path591780"
     sodipodi:nodetypes="cccccccccccccc" />
</svg>
