<?xml version="1.0" encoding="UTF-8" standalone="no"?>
<svg
   width="32"
   height="32"
   version="1"
   id="svg1748276"
   sodipodi:docname="homebank.svg"
   inkscape:version="1.1.2 (0a00cf5339, 2022-02-04)"
   xmlns:inkscape="http://www.inkscape.org/namespaces/inkscape"
   xmlns:sodipodi="http://sodipodi.sourceforge.net/DTD/sodipodi-0.dtd"
   xmlns="http://www.w3.org/2000/svg"
   xmlns:svg="http://www.w3.org/2000/svg">
  <defs
     id="defs1748280" />
  <sodipodi:namedview
     id="namedview1748278"
     pagecolor="#ffffff"
     bordercolor="#666666"
     borderopacity="1.0"
     inkscape:pageshadow="2"
     inkscape:pageopacity="0.0"
     inkscape:pagecheckerboard="0"
     showgrid="false"
     inkscape:zoom="25.84375"
     inkscape:cx="15.980653"
     inkscape:cy="16"
     inkscape:window-width="1920"
     inkscape:window-height="1051"
     inkscape:window-x="0"
     inkscape:window-y="29"
     inkscape:window-maximized="1"
     inkscape:current-layer="svg1748276" />
  <path
     fill="#f4981b"
     d="m16 2c-7.756 0-14 6.244-14 14s6.244 14 14 14 14-6.244 14-14-6.244-14-14-14z"
     id="path1748262" />
  <circle
     opacity=".2"
     cx="16"
     cy="17"
     r="11"
     id="circle1748264" />
  <circle
     fill="#fff"
     cx="16"
     cy="16"
     r="11"
     id="circle1748266" />
  <path
     fill="#3f3f3f"
     d="m 10.09499,16 v 0 h 0.654552 L 11,16.254643 v 0 l 0,6.383703 v 0 L 11.356567,23 20.655442,23 21,22.623838 v 0 L 21,16.308575 21.22993,16 v 0 h 0.762196 v 0 l 0.05261,-0.955432 -5.686429,-5.6874031 -0.650369,-0.066248 v 0 l -5.559698,5.5606505 z"
     id="path1748268"
     sodipodi:nodetypes="cccccccccccccccccccccc" />
  <rect
     fill="#3f3f3f"
     width="2"
     height="7"
     x="19"
     y="10"
     id="rect1748270" />
  <path
     fill="#fff"
     opacity=".2"
     d="m16 2c-7.756 0-14 6.244-14 14 0 0.169 0.0195 0.333 0.0254 0.5 0.2637-7.5206 6.3874-13.5 13.975-13.5 7.587 0 13.711 5.9794 13.975 13.5 0.005-0.167 0.025-0.331 0.025-0.5 0-7.756-6.244-14-14-14z"
     id="path1748272" />
  <path
     opacity=".2"
     d="m2.0254 16.5c-0.0059 0.167-0.0254 0.331-0.0254 0.5 0 7.756 6.244 14 14 14s14-6.244 14-14c0-0.16884-0.01952-0.33264-0.02539-0.5-0.264 7.521-6.388 13.5-13.975 13.5-7.5872 0-13.711-5.979-13.975-13.5z"
     id="path1748274" />
</svg>
