<?xml version="1.0" encoding="UTF-8" standalone="no"?>
<svg
   width="32"
   height="32"
   version="1.1"
   id="svg426657"
   sodipodi:docname="kde-im-log-viewer.svg"
   inkscape:version="1.1.2 (0a00cf5339, 2022-02-04)"
   xmlns:inkscape="http://www.inkscape.org/namespaces/inkscape"
   xmlns:sodipodi="http://sodipodi.sourceforge.net/DTD/sodipodi-0.dtd"
   xmlns="http://www.w3.org/2000/svg"
   xmlns:svg="http://www.w3.org/2000/svg">
  <defs
     id="defs426661" />
  <sodipodi:namedview
     id="namedview426659"
     pagecolor="#ffffff"
     bordercolor="#666666"
     borderopacity="1.0"
     inkscape:pageshadow="2"
     inkscape:pageopacity="0.0"
     inkscape:pagecheckerboard="0"
     showgrid="false"
     inkscape:zoom="25.84375"
     inkscape:cx="15.980653"
     inkscape:cy="16"
     inkscape:window-width="1920"
     inkscape:window-height="1051"
     inkscape:window-x="0"
     inkscape:window-y="29"
     inkscape:window-maximized="1"
     inkscape:current-layer="svg426657" />
  <path
     style="opacity:0.2"
     d="m 22,19.675 h 7.0325 L 23.248501,29.811905 22,29.946956 v 0 z"
     id="path426643"
     sodipodi:nodetypes="cccccc" />
  <path
     style="fill:#4479d9"
     d="m 22,18.675 h 7.0325 L 22.968702,29.302274 22,29.406193 v 0 z"
     id="path426645"
     sodipodi:nodetypes="cccccc" />
  <path
     style="opacity:.2"
     d="M 30,15.5 A 14.5,12.5 0 0 1 15.5,28 14.5,12.5 0 0 1 1,15.5 14.5,12.5 0 0 1 15.5,3 14.5,12.5 0 0 1 30,15.5 Z"
     id="path426647" />
  <path
     style="fill:#47b4f4"
     d="M 30,14.5 A 14.5,12.5 0 0 1 15.5,27 14.5,12.5 0 0 1 1,14.5 14.5,12.5 0 0 1 15.5,2 14.5,12.5 0 0 1 30,14.5 Z"
     id="path426649" />
  <path
     style="opacity:.1"
     d="m16.511719 8a7.4878132 7.5 0 0 0-1.482422 0.1542969 7.4878132 7.5 0 0 1 5.974609 7.3457031 7.4878132 7.5 0 0 1-6.003906 7.345703 7.4878132 7.5 0 0 0 1.511719 0.154297 7.4878132 7.5 0 0 0 7.488281-7.5 7.4878132 7.5 0 0 0-7.488281-7.5zm-8.011719 2a1.5 1.5 0 0 0-1.5 1.5 1.5 1.5 0 0 0 1.5 1.5 1.5 1.5 0 0 0 1.5-1.5 1.5 1.5 0 0 0-1.5-1.5zm3.900391 4c-0.7756 0-1.400391 0.669-1.400391 1.5s0.624791 1.5 1.400391 1.5h4.199218c0.7756 0 1.400391-0.669 1.400391-1.5s-0.624791-1.5-1.400391-1.5zm-3.900391 4c-0.82845 0-1.5 0.671573-1.5 1.5s0.6715724 1.5 1.5 1.5c0.5302276 0 0.75 1.5 0.75 1.5s0.75-2.7018 0.75-3c0-0.82845-0.6715726-1.5-1.5-1.5z"
     id="path426651" />
  <path
     style="fill:#2e4e8a"
     d="m16.511719 7a7.4878132 7.5 0 0 0-1.482422 0.1542969 7.4878132 7.5 0 0 1 5.974609 7.3457031 7.4878132 7.5 0 0 1-6.003906 7.345703 7.4878132 7.5 0 0 0 1.511719 0.154297 7.4878132 7.5 0 0 0 7.488281-7.5 7.4878132 7.5 0 0 0-7.488281-7.5zm-8.011719 2a1.5 1.5 0 0 0-1.5 1.5 1.5 1.5 0 0 0 1.5 1.5 1.5 1.5 0 0 0 1.5-1.5 1.5 1.5 0 0 0-1.5-1.5zm3.900391 4c-0.7756 0-1.400391 0.669-1.400391 1.5s0.624791 1.5 1.400391 1.5h4.199218c0.7756 0 1.400391-0.669 1.400391-1.5s-0.624791-1.5-1.400391-1.5h-4.199218zm-3.900391 4c-0.82845 0-1.5 0.671573-1.5 1.5s0.6715724 1.5 1.5 1.5c0.5302276 0 0.75 1.5 0.75 1.5s0.75-2.7018 0.75-3c0-0.82845-0.6715726-1.5-1.5-1.5z"
     id="path426653" />
  <path
     style="fill:#ffffff;opacity:.2"
     d="M 15.5 2 A 14.5 12.5 0 0 0 1 14.5 A 14.5 12.5 0 0 0 1.0234375 15.080078 A 14.5 12.5 0 0 1 15.5 3 A 14.5 12.5 0 0 1 29.976562 14.919922 A 14.5 12.5 0 0 0 30 14.5 A 14.5 12.5 0 0 0 15.5 2 z"
     id="path426655" />
</svg>
