<?xml version="1.0" encoding="UTF-8" standalone="no"?>
<svg
   width="32"
   height="32"
   version="1.1"
   id="svg36935"
   sodipodi:docname="Lightcord.svg"
   inkscape:version="1.2 (dc2aedaf03, 2022-05-15)"
   xmlns:inkscape="http://www.inkscape.org/namespaces/inkscape"
   xmlns:sodipodi="http://sodipodi.sourceforge.net/DTD/sodipodi-0.dtd"
   xmlns="http://www.w3.org/2000/svg"
   xmlns:svg="http://www.w3.org/2000/svg">
  <defs
     id="defs36939" />
  <sodipodi:namedview
     id="namedview36937"
     pagecolor="#ffffff"
     bordercolor="#666666"
     borderopacity="1.0"
     inkscape:pageshadow="2"
     inkscape:pageopacity="0.0"
     inkscape:pagecheckerboard="0"
     showgrid="false"
     inkscape:zoom="36.548582"
     inkscape:cx="16.006093"
     inkscape:cy="16.019773"
     inkscape:window-width="1444"
     inkscape:window-height="1080"
     inkscape:window-x="237"
     inkscape:window-y="-1"
     inkscape:window-maximized="1"
     inkscape:current-layer="svg36935"
     inkscape:showpageshadow="0"
     inkscape:deskcolor="#d1d1d1" />
  <rect
     style="fill:#bb050b"
     width="26"
     height="26"
     x="3"
     y="2"
     rx="3"
     ry="3"
     id="rect36921" />
  <path
     style="opacity:0.2"
     d="m 3,25 v 1 c 0,1.662 1.338,3 3,3 h 20 l 3,3 V 31 L 26,28 H 6 C 4.338,28 3,26.662 3,25 Z"
     id="path36923" />
  <path
     style="fill:#bb050b;fill-rule:evenodd"
     d="M 29,29.826125 28.136549,30.136549 22,24 h 7 z"
     id="path36925"
     sodipodi:nodetypes="cccccc" />
  <path
     style="opacity:0.2;fill:#ffffff"
     d="M 6,2 C 4.338,2 3,3.338 3,5 V 6 C 3,4.338 4.338,3 6,3 h 20 c 1.662,0 3,1.338 3,3 V 5 C 29,3.338 27.662,2 26,2 Z"
     id="path36927" />
  <path
     style="opacity:0.2;fill-rule:evenodd"
     d="m 22,25 7,7 V 31 L 28.168967,30.168967 23,25 Z"
     id="path36929"
     sodipodi:nodetypes="cccccc" />
  <path
     style="opacity:0.2"
     d="m 14.175781,9.0000005 c 0,0 -1.980445,-0.04304 -4.078124,1.4980465 -2.0976783,1.541083 -3.0976572,4.730918 -3.0976572,9.326172 0,0 2.223992,2.074982 5.4433602,2.175781 0,0 0.539546,-0.634246 0.976562,-1.181641 C 11.56994,20.270965 10.869141,18.632812 10.869141,18.632812 12.573666,19.585677 13.732467,19.983424 15.5,20 c 1.767533,-0.01658 3.926335,-0.414323 5.630859,-1.367188 0,0 -0.700799,1.638153 -2.550781,2.185547 C 19.017094,21.365754 19.556641,22 19.556641,22 22.776009,21.899201 25,19.824219 25,19.824219 25,15.228965 24.000022,12.03913 21.902344,10.498047 19.804665,8.9569604 17.824219,9.0000005 17.824219,9.0000005 l -0.146485,0.171875 c 2.622073,0.7346925 3.816407,2.3730465 3.816407,2.3730465 0,0 -0.320389,-0.171846 -0.859375,-0.402343 C 18.999968,10.357811 17.000043,9.999969 15.5,10 c -1.500043,-3.1e-5 -2.499966,0.357811 -4.134765,1.142579 -0.538986,0.230497 -0.859375,0.402343 -0.859375,0.402343 0,0 1.194332,-1.638354 3.816406,-2.3730465 z M 13.5,15 c 0.838151,0 1.5146,0.668208 1.5,1.5 C 15,17.331792 14.338151,18 13.5,18 12.676558,18 12,17.331792 12,16.5 12,15.668208 12.661868,15 13.5,15 Z m 5,0 C 19.338132,15 20,15.668208 20,16.5 20,17.331792 19.323442,18 18.5,18 17.661849,18 17,17.331792 17,16.5 16.9854,15.668208 17.661849,15 18.5,15 Z"
     id="path36931" />
  <path
     style="fill:#ffffff"
     d="m 14.175781,8.0000005 c 0,0 -1.980445,-0.04304 -4.078124,1.4980465 -2.0976783,1.541083 -3.0976572,4.730918 -3.0976572,9.326172 0,0 2.223992,2.074982 5.4433602,2.175781 0,0 0.539546,-0.634246 0.976562,-1.181641 -1.231591,-0.364417 -1.953866,-1.212257 -2.299121,-1.738351 -0.173356,-0.264156 0.06666,-0.08139 0.06666,-0.08139 0.185748,0.103836 0.0467,-0.164727 0.220978,-0.07385 C 12.833451,18.667838 13.925081,18.98523 15.5,19 c 1.54833,-0.01452 3.396899,-0.321532 4.977344,-1.037957 0.22375,-0.101427 0.04304,0.199216 0.254431,0.08104 0,0 0.28694,-0.148134 0.03395,0.201463 -0.379441,0.524331 -1.07571,1.245387 -2.185646,1.573808 C 19.017094,20.365754 19.556641,21 19.556641,21 22.776009,20.899201 25,18.824219 25,18.824219 25,14.228965 24.000022,11.03913 21.902344,9.498047 19.804665,7.9569604 17.824219,8.0000005 17.824219,8.0000005 l -0.146485,0.171875 c 1.562302,0.4377498 2.617743,1.1963085 3.215693,1.7379772 0.405613,0.3674353 -0.375693,0.3036063 -0.375693,0.3036063 0,0 0.656018,0.159617 0.117032,-0.07088 C 18.999968,9.357811 17.000043,8.999969 15.5,9 c -1.500043,-3.1e-5 -2.499966,0.357811 -4.134765,1.142579 -0.538986,0.230497 0.07728,0.100914 0.07728,0.100914 0,0 -0.756435,0.05421 -0.382324,-0.2912172 0.588981,-0.5438295 1.658546,-1.3310977 3.26208,-1.7804003 z M 13.5,14 c 0.838151,0 1.5146,0.668208 1.5,1.5 C 15,16.331792 14.338151,17 13.5,17 12.676558,17 12,16.331792 12,15.5 12,14.668208 12.661868,14 13.5,14 Z m 5,0 C 19.338132,14 20,14.668208 20,15.5 20,16.331792 19.323442,17 18.5,17 17.661849,17 17,16.331792 17,15.5 16.9854,14.668208 17.661849,14 18.5,14 Z"
     id="path36933"
     sodipodi:nodetypes="cscccscscscscccsccscccccsccscsssssscs" />
</svg>
