<?xml version="1.0" encoding="UTF-8" standalone="no"?>
<svg
   width="512"
   height="512"
   version="1.1"
   viewBox="0 0 384 384"
   id="svg69369"
   sodipodi:docname="lutris_firewatch.svg"
   inkscape:version="1.1.2 (0a00cf5339, 2022-02-04)"
   xmlns:inkscape="http://www.inkscape.org/namespaces/inkscape"
   xmlns:sodipodi="http://sodipodi.sourceforge.net/DTD/sodipodi-0.dtd"
   xmlns="http://www.w3.org/2000/svg"
   xmlns:svg="http://www.w3.org/2000/svg">
  <defs
     id="defs69373" />
  <sodipodi:namedview
     id="namedview69371"
     pagecolor="#ffffff"
     bordercolor="#666666"
     borderopacity="1.0"
     inkscape:pageshadow="2"
     inkscape:pageopacity="0.0"
     inkscape:pagecheckerboard="0"
     showgrid="false"
     inkscape:zoom="1.6152344"
     inkscape:cx="255.69045"
     inkscape:cy="256"
     inkscape:window-width="1920"
     inkscape:window-height="1051"
     inkscape:window-x="0"
     inkscape:window-y="29"
     inkscape:window-maximized="1"
     inkscape:current-layer="svg69369" />
  <path
     d="m192 31.5c-0.96094 0-5.0898 2.7344-9.4922 6.0703-38.906 28.809-93.629 58.82-145.75 66.227l-6.7617 1.0469 0.46484 6.8086c0.78906 11.516 7.4648 42.086 13.891 63.559 8.2227 27.488 17.336 50.578 29.309 74.32 27.117 53.773 61.391 87.066 103.5 112.64 5.4844 3.332 10.574 5.125 14.836 5.332 4.2617-0.20703 9.3516-2 14.836-5.332 42.109-25.57 76.383-58.863 103.5-112.64 11.973-23.742 21.086-46.832 29.309-74.32 6.4258-21.473 13.102-52.043 13.891-63.559l0.46484-6.8086-6.7617-1.0469c-52.117-7.4063-106.84-37.418-145.75-66.227-4.4024-3.3359-8.5312-6.0703-9.4922-6.0703z"
     opacity=".3"
     id="path69339" />
  <path
     d="m192 24c-0.96094 0-5.0898 2.7344-9.4922 6.0703-38.906 28.809-93.629 58.82-145.75 66.227l-6.7617 1.0469 0.46484 6.8086c0.78906 11.516 7.4648 42.086 13.891 63.559 8.2227 27.488 17.336 50.578 29.309 74.32 27.117 53.773 61.391 87.066 103.5 112.64 5.4844 3.332 10.574 5.125 14.836 5.332 4.2617-0.20703 9.3516-2 14.836-5.332 42.109-25.57 76.383-58.863 103.5-112.64 11.973-23.742 21.086-46.832 29.309-74.32 6.4258-21.473 13.102-52.043 13.891-63.559l0.46484-6.8086-6.7617-1.0469c-52.117-7.4062-106.84-37.418-145.75-66.227-4.4024-3.3359-8.5312-6.0703-9.4922-6.0703z"
     fill="#fd4747"
     id="path69341" />
  <path
     d="m192 66.258c-33.793 23.719-74.801 46.617-120.42 58.687 2.4844 12.145 3.9453 21.34 7.2656 32.438 7.7188 25.797 15.898 46.516 26.953 68.438 23.379 46.363 50.687 72.719 86.203 95.039 35.516-22.32 62.824-48.676 86.203-95.039 11.055-21.922 19.234-42.641 26.953-68.438 3.3203-11.098 4.7812-20.293 7.2656-32.438-45.621-12.07-86.629-34.969-120.42-58.687z"
     fill="#fff"
     id="path69343" />
  <g
     fill="#fd4747"
     id="g69351">
    <path
       d="m174 208.8h36v67.199h-36z"
       id="path69345" />
    <path
       d="m192 108 66 120h-132z"
       id="path69347" />
    <path
       d="m192 96 54 84h-108z"
       id="path69349" />
  </g>
  <path
     d="m192 73.758c-33.793 23.719-74.801 46.617-120.42 58.687 2.4844 12.145 3.9453 21.34 7.2656 32.438 7.7188 25.797 15.898 46.516 26.953 68.438 23.379 46.363 50.687 72.719 86.203 95.039 35.516-22.32 62.824-48.676 86.203-95.039 11.055-21.922 19.234-42.641 26.953-68.438 3.3203-11.098 4.7812-20.293 7.2656-32.438-45.621-12.07-86.629-34.969-120.42-58.687z"
     opacity=".3"
     id="path69353" />
  <path
     d="m192 66.258c-33.793 23.719-74.801 46.617-120.42 58.687 2.4844 12.145 3.9453 21.34 7.2656 32.438 7.7188 25.797 15.898 46.516 26.953 68.438 23.379 46.363 50.687 72.719 86.203 95.039 35.516-22.32 62.824-48.676 86.203-95.039 11.055-21.922 19.234-42.641 26.953-68.438 3.3203-11.098 4.7812-20.293 7.2656-32.438-45.621-12.07-86.629-34.969-120.42-58.687z"
     fill="#fff"
     id="path69355" />
  <path
     d="m192 114 66 120h-132z"
     opacity=".3"
     id="path69357" />
  <path
     d="m 192,108 61.04256,110.98647 v 0 L 249.112,228 H 135.73331 v 0 l -4.7304,-9.0962 z"
     fill="#fd4747"
     id="path69359"
     sodipodi:nodetypes="cccccccc" />
  <path
     d="m174 208.8h36v67.199h-36z"
     fill="#fd4747"
     id="path69361" />
  <path
     d="m192 102 54 84h-108z"
     fill="#150000"
     opacity=".3"
     id="path69363" />
  <path
     d="m 192,102 4.76574,1.41338 43.59487,67.81423 L 237.47629,180 v 0 h -91.52758 v 0 l -2.63481,-8.26607 44.65758,-69.46734 z"
     fill="#fd4747"
     id="path69365"
     sodipodi:nodetypes="cccccccccc" />
  <path
     transform="scale(.75)"
     d="m256 32c-1.2813 0-6.7864 3.6458-12.656 8.0938-51.875 38.411-124.84 78.428-194.33 88.303l-9.0156 1.3945 0.61914 9.0781c0.016905 0.24672 0.053293 0.55477 0.074218 0.81445l8.3223-1.2871c69.49-9.875 142.45-49.891 194.33-88.303 5.8698-4.4479 11.375-8.0938 12.656-8.0938 1.2813 0 6.7864 3.6458 12.656 8.0938 51.875 38.411 124.84 78.428 194.33 88.303l8.3223 1.2871c0.02093-0.25968 0.05731-0.56773 0.07422-0.81445l0.61914-9.0781-9.0156-1.3945c-69.49-9.875-142.45-49.891-194.33-88.303-5.8698-4.4479-11.375-8.0938-12.656-8.0938z"
     fill="#fff"
     opacity=".3"
     stroke-width="1.3333"
     id="path69367" />
</svg>
