<?xml version="1.0" encoding="UTF-8" standalone="no"?>
<svg
   width="32"
   height="32"
   version="1.1"
   id="svg2270178"
   sodipodi:docname="mess.svg"
   inkscape:version="1.1.2 (0a00cf5339, 2022-02-04)"
   xmlns:inkscape="http://www.inkscape.org/namespaces/inkscape"
   xmlns:sodipodi="http://sodipodi.sourceforge.net/DTD/sodipodi-0.dtd"
   xmlns="http://www.w3.org/2000/svg"
   xmlns:svg="http://www.w3.org/2000/svg">
  <defs
     id="defs2270182" />
  <sodipodi:namedview
     id="namedview2270180"
     pagecolor="#ffffff"
     bordercolor="#666666"
     borderopacity="1.0"
     inkscape:pageshadow="2"
     inkscape:pageopacity="0.0"
     inkscape:pagecheckerboard="0"
     showgrid="false"
     inkscape:zoom="25.84375"
     inkscape:cx="15.980653"
     inkscape:cy="16"
     inkscape:window-width="1920"
     inkscape:window-height="1051"
     inkscape:window-x="0"
     inkscape:window-y="29"
     inkscape:window-maximized="1"
     inkscape:current-layer="svg2270178" />
  <path
     style="opacity:0.2;fill-rule:evenodd"
     d="M 21,7 2.7650875,25.234912 v 0 L 3.1451075,26 H 10 l 8,-8 v 8 l 8,-8 v 8 l 4,-4 V 7.1 L 21,17 Z"
     id="path2270172"
     sodipodi:nodetypes="ccccccccccccc" />
  <path
     style="fill:#ffa726;fill-rule:evenodd"
     d="M 21.100518,6.469022 20.385284,6.2753556 2.7487601,24.237419 3,25 h 7 l 8,-8 v 7.102344 l 0.74305,0.154606 v 0 L 26,17 v 7.079417 0 L 26.7313,24.2687 30,21 V 7.9892637 l -0.929513,-0.05975 v 0 L 21,16 Z"
     id="path2270174"
     sodipodi:nodetypes="ccccccccccccccccccc" />
  <path
     style="opacity:0.2;fill:#ffffff;fill-rule:evenodd"
     d="M 21,7 20.164954,6.835046 C 14.409568,12.590432 7.324543,19.010629 2.7014265,24.199887 2.4607682,24.470016 3.2267811,24.736809 3,25 v 0 z m 9,0 -9,9 v 1 l 9,-9 z"
     id="path2270176"
     sodipodi:nodetypes="ccscccccccc" />
</svg>
