<?xml version="1.0" encoding="UTF-8" standalone="no"?>
<svg
   width="512"
   height="512"
   version="1.1"
   viewBox="0 0 384 384"
   id="svg650"
   sodipodi:docname="mozilla-thunderbird.svg"
   inkscape:version="1.2 (dc2aedaf03, 2022-05-15)"
   xmlns:inkscape="http://www.inkscape.org/namespaces/inkscape"
   xmlns:sodipodi="http://sodipodi.sourceforge.net/DTD/sodipodi-0.dtd"
   xmlns="http://www.w3.org/2000/svg"
   xmlns:svg="http://www.w3.org/2000/svg">
  <sodipodi:namedview
     id="namedview652"
     pagecolor="#505050"
     bordercolor="#ffffff"
     borderopacity="1"
     inkscape:showpageshadow="0"
     inkscape:pageopacity="0"
     inkscape:pagecheckerboard="1"
     inkscape:deskcolor="#505050"
     showgrid="false"
     inkscape:zoom="6.8046875"
     inkscape:cx="176.34902"
     inkscape:cy="48.275545"
     inkscape:window-width="1444"
     inkscape:window-height="1080"
     inkscape:window-x="237"
     inkscape:window-y="-1"
     inkscape:window-maximized="1"
     inkscape:current-layer="g648" />
  <defs
     id="defs608">
    <clipPath
       id="clipPath330">
      <rect
         width="384"
         height="384"
         id="rect328" />
    </clipPath>
    <clipPath
       id="clipPath334">
      <rect
         width="384"
         height="384"
         id="rect332" />
    </clipPath>
    <clipPath
       id="clipPath338">
      <rect
         width="384"
         height="384"
         id="rect336" />
    </clipPath>
    <clipPath
       id="clipPath342">
      <rect
         width="384"
         height="384"
         id="rect340" />
    </clipPath>
    <clipPath
       id="clipPath346">
      <rect
         width="384"
         height="384"
         id="rect344" />
    </clipPath>
    <clipPath
       id="clipPath350">
      <rect
         width="384"
         height="384"
         id="rect348" />
    </clipPath>
    <clipPath
       id="clipPath354">
      <rect
         width="384"
         height="384"
         id="rect352" />
    </clipPath>
    <clipPath
       id="clipPath358">
      <rect
         width="384"
         height="384"
         id="rect356" />
    </clipPath>
    <clipPath
       id="clipPath362">
      <rect
         width="384"
         height="384"
         id="rect360" />
    </clipPath>
    <clipPath
       id="clipPath366">
      <rect
         width="384"
         height="384"
         id="rect364" />
    </clipPath>
    <clipPath
       id="clipPath370">
      <rect
         width="384"
         height="384"
         id="rect368" />
    </clipPath>
    <clipPath
       id="clipPath374">
      <rect
         width="384"
         height="384"
         id="rect372" />
    </clipPath>
    <clipPath
       id="clipPath378">
      <rect
         width="384"
         height="384"
         id="rect376" />
    </clipPath>
    <clipPath
       id="clipPath382">
      <rect
         width="384"
         height="384"
         id="rect380" />
    </clipPath>
    <clipPath
       id="clipPath386">
      <rect
         width="384"
         height="384"
         id="rect384" />
    </clipPath>
    <clipPath
       id="clipPath390">
      <rect
         width="384"
         height="384"
         id="rect388" />
    </clipPath>
    <clipPath
       id="clipPath394">
      <rect
         width="384"
         height="384"
         id="rect392" />
    </clipPath>
    <clipPath
       id="clipPath398">
      <rect
         width="384"
         height="384"
         id="rect396" />
    </clipPath>
    <clipPath
       id="clipPath402">
      <rect
         width="384"
         height="384"
         id="rect400" />
    </clipPath>
    <clipPath
       id="clipPath406">
      <rect
         width="384"
         height="384"
         id="rect404" />
    </clipPath>
    <clipPath
       id="clipPath410">
      <rect
         width="384"
         height="384"
         id="rect408" />
    </clipPath>
    <clipPath
       id="clipPath414">
      <rect
         width="384"
         height="384"
         id="rect412" />
    </clipPath>
    <clipPath
       id="clipPath418">
      <rect
         width="384"
         height="384"
         id="rect416" />
    </clipPath>
    <clipPath
       id="clipPath422">
      <rect
         width="384"
         height="384"
         id="rect420" />
    </clipPath>
    <clipPath
       id="clipPath426">
      <rect
         width="384"
         height="384"
         id="rect424" />
    </clipPath>
    <clipPath
       id="clipPath430">
      <rect
         width="384"
         height="384"
         id="rect428" />
    </clipPath>
    <clipPath
       id="clipPath434">
      <rect
         width="384"
         height="384"
         id="rect432" />
    </clipPath>
    <clipPath
       id="clipPath438">
      <rect
         width="384"
         height="384"
         id="rect436" />
    </clipPath>
    <clipPath
       id="clipPath442">
      <rect
         width="384"
         height="384"
         id="rect440" />
    </clipPath>
    <clipPath
       id="clipPath446">
      <rect
         width="384"
         height="384"
         id="rect444" />
    </clipPath>
    <clipPath
       id="clipPath450">
      <rect
         width="384"
         height="384"
         id="rect448" />
    </clipPath>
    <clipPath
       id="clipPath454">
      <rect
         width="384"
         height="384"
         id="rect452" />
    </clipPath>
    <clipPath
       id="clipPath458">
      <rect
         width="384"
         height="384"
         id="rect456" />
    </clipPath>
    <clipPath
       id="clipPath462">
      <rect
         width="384"
         height="384"
         id="rect460" />
    </clipPath>
    <clipPath
       id="clipPath466">
      <rect
         width="384"
         height="384"
         id="rect464" />
    </clipPath>
    <clipPath
       id="clipPath470">
      <rect
         width="384"
         height="384"
         id="rect468" />
    </clipPath>
    <clipPath
       id="clipPath474">
      <rect
         width="384"
         height="384"
         id="rect472" />
    </clipPath>
    <clipPath
       id="clipPath478">
      <rect
         width="384"
         height="384"
         id="rect476" />
    </clipPath>
    <clipPath
       id="clipPath482">
      <rect
         width="384"
         height="384"
         id="rect480" />
    </clipPath>
    <clipPath
       id="clipPath486">
      <rect
         width="384"
         height="384"
         id="rect484" />
    </clipPath>
    <clipPath
       id="clipPath490">
      <rect
         width="384"
         height="384"
         id="rect488" />
    </clipPath>
    <clipPath
       id="clipPath494">
      <rect
         width="384"
         height="384"
         id="rect492" />
    </clipPath>
    <clipPath
       id="clipPath498">
      <rect
         width="384"
         height="384"
         id="rect496" />
    </clipPath>
    <clipPath
       id="clipPath502">
      <rect
         width="384"
         height="384"
         id="rect500" />
    </clipPath>
    <clipPath
       id="clipPath506">
      <rect
         width="384"
         height="384"
         id="rect504" />
    </clipPath>
    <clipPath
       id="clipPath510">
      <rect
         width="384"
         height="384"
         id="rect508" />
    </clipPath>
    <clipPath
       id="clipPath514">
      <rect
         width="384"
         height="384"
         id="rect512" />
    </clipPath>
    <clipPath
       id="clipPath518">
      <rect
         width="384"
         height="384"
         id="rect516" />
    </clipPath>
    <clipPath
       id="clipPath522">
      <rect
         width="384"
         height="384"
         id="rect520" />
    </clipPath>
    <clipPath
       id="clipPath526">
      <rect
         width="384"
         height="384"
         id="rect524" />
    </clipPath>
    <clipPath
       id="clipPath530">
      <rect
         width="384"
         height="384"
         id="rect528" />
    </clipPath>
    <clipPath
       id="clip2-08">
      <path
         d="m111 119h177v23h-177z"
         id="path532" />
    </clipPath>
    <clipPath
       id="clipPath537">
      <path
         d="m368.64 199.88c0-93.234-75.602-168.75-168.75-168.75-93.152 0-168.75 75.516-168.75 168.75s75.598 168.75 168.75 168.75c93.148 0 168.75-75.516 168.75-168.75z"
         id="path535" />
    </clipPath>
    <clipPath
       id="clip4-06">
      <path
         d="m177 130h45v89h-45z"
         id="path539" />
    </clipPath>
    <clipPath
       id="clipPath544">
      <path
         d="m368.64 199.88c0-93.234-75.602-168.75-168.75-168.75-93.152 0-168.75 75.516-168.75 168.75s75.598 168.75 168.75 168.75c93.148 0 168.75-75.516 168.75-168.75z"
         id="path542" />
    </clipPath>
    <clipPath
       id="clip6">
      <path
         d="m111 207h177v89h-177z"
         id="path546" />
    </clipPath>
    <clipPath
       id="clipPath551">
      <path
         d="m368.64 199.88c0-93.234-75.602-168.75-168.75-168.75-93.152 0-168.75 75.516-168.75 168.75s75.598 168.75 168.75 168.75c93.148 0 168.75-75.516 168.75-168.75z"
         id="path549" />
    </clipPath>
    <clipPath
       id="clip1-6">
      <rect
         width="384"
         height="384"
         id="rect553" />
    </clipPath>
    <g
       clip-path="url(#clip1-6)"
       id="g562">
      <g
         clip-path="url(#clip2-08)"
         id="g556" />
      <g
         clip-path="url(#clip4-06)"
         id="g558" />
      <g
         clip-path="url(#clip6)"
         id="g560" />
    </g>
    <clipPath
       id="clipPath566">
      <rect
         width="384"
         height="384"
         id="rect564" />
    </clipPath>
    <clipPath
       id="clipPath570">
      <rect
         width="384"
         height="384"
         id="rect568" />
    </clipPath>
    <clipPath
       id="clipPath574">
      <rect
         width="384"
         height="384"
         id="rect572" />
    </clipPath>
    <clipPath
       id="clipPath578">
      <rect
         width="384"
         height="384"
         id="rect576" />
    </clipPath>
    <clipPath
       id="clipPath582">
      <rect
         width="384"
         height="384"
         id="rect580" />
    </clipPath>
    <clipPath
       id="clipPath586">
      <rect
         width="384"
         height="384"
         id="rect584" />
    </clipPath>
    <clipPath
       id="clipPath590">
      <rect
         width="384"
         height="384"
         id="rect588" />
    </clipPath>
    <clipPath
       id="clipPath594">
      <rect
         width="384"
         height="384"
         id="rect592" />
    </clipPath>
    <clipPath
       id="clipPath598">
      <rect
         width="384"
         height="384"
         id="rect596" />
    </clipPath>
    <clipPath
       id="clipPath602">
      <rect
         width="384"
         height="384"
         id="rect600" />
    </clipPath>
    <clipPath
       id="clipPath606">
      <rect
         width="384"
         height="384"
         id="rect604" />
    </clipPath>
  </defs>
  <g
     transform="translate(-448.74 83.378)"
     id="g648">
    <path
       d="m738.44 64.021-105.8-37.103-113.38 7.5554-28.938 36.113c5.1491 33.383 1.9499 69.52 19.882 98.685l200.47 63.498 27.607-77.059z"
       fill="#fff"
       stroke-width="11.633"
       id="path610" />
    <path
       d="m632.23-25.331c-0.018 6e-3 -24.14 0.11706-34.669 3.4977-17.544 4.0486-33.283 11.51-48.878 20.154-20.25 13.614-36.835 32.464-49.644 53.091-11.267 19.888-18.093 42.009-20.631 64.679-1.5082 22.984 1.1193 46.404 9.7741 67.907 16.384 36.934 56.943 79.998 94.521 79.537-8.1413-4.7071-28.519-23.156-34.899-58.164 6.7735 13.266 37.356 30.861 46.534 34.899-4.5596-4.2578-22.069-29.794-23.269-44.787l-58.473-17.981c-5.157-16.316-8.227-33.19-10.106-50.442-0.24011-3.8559-0.72099-8.039 0.66828-7.0111 5.1968 8.2366 12.36 10.846 21.381 15.523-8.5557-13.456-12.458-28.885-11.052-44.88 1.4112-16.05 10.467-31.611 20.412-43.141 26.056-29.829 64.076-53.961 98.331-72.882z"
       opacity=".3"
       stroke-width="11.633"
       id="path612" />
    <path
       d="m521.97 32.303 19.102 2.7282 5.2444-25.564-10.489 5.1128z"
       fill="#3f7da7"
       fill-rule="evenodd"
       stroke-width="11.633"
       id="path614" />
    <g
       id="g636">
      <g
         stroke-width="11.633"
         id="g622">
        <path
           d="m729.83 96.001-15.697-51.565-192-1.927l-1.0886 1.3413-1.7992 2.2552 72.692 102.8z"
           opacity=".2"
           id="path616" />
        <path
           d="m729.83 84.368-15.697-51.565-192-1.927-1.0886 1.3413-1.7992 2.2552 72.692 102.8z"
           fill="#fff"
           id="path618" />
        <path
           d="m 632.23,-32.831 c -0.018,0.006 -24.14,0.11706 -34.669,3.4977 -17.544,4.0486 -33.283,11.51 -48.878,20.154 -20.25,13.614 -36.835,32.464 -49.644,53.091 -11.267,19.888 -18.093,42.009 -20.631,64.679 -1.5082,22.984 1.1193,46.404 9.7741,67.907 15.62973,35.23367 53.2598,76.04591 89.31476,79.32877 1.73996,0.15843 0.0563,-0.67494 1.7863,-0.69616 -1.13479,-0.65611 0.91261,-0.67482 -0.62661,-1.87253 -9.50358,-7.39499 -25.36174,-25.25875 -30.85245,-55.38708 5.47918,10.73106 26.53759,24.29476 39.24343,31.22393 3.00144,1.63684 -0.34468,-0.97861 1.4091,-0.207 -1.08331,-1.01161 2.98383,0.6577 0.83092,-2.32942 -6.90852,-9.58546 -17.30356,-27.1447 -18.21845,-38.57551 l -58.473,-17.981 c -5.157,-16.316 -8.227,-33.19 -10.106,-50.442 -0.24011,-3.8559 -0.72099,-8.0389 0.66828,-7.0111 3.85625,6.11192 8.79526,9.12534 14.77266,12.18428 2.07792,1.06338 0.34445,-1.58077 2.67147,-0.3743 -1.30406,-2.05097 1.43685,-0.43475 0.35133,-2.57241 -6.03642,-11.8871 -8.65816,-25.037532 -7.46646,-38.59457 1.4112,-16.05 10.467,-31.611 20.412,-43.141 26.056,-29.829 64.076,-53.961 98.331,-72.882 z"
           fill="#2b62c0"
           id="path620"
           sodipodi:nodetypes="ccccccscscscsccccscscccc" />
      </g>
      <path
         transform="scale(.75)"
         d="m842.97-43.773c-0.024 8e-3 -32.186 0.15452-46.225 4.6621-23.392 5.3981-44.378 15.348-65.172 26.873-26.999 18.152-49.115 43.284-66.193 70.787-15.023 26.517-24.124 56.012-27.508 86.238-0.45543 6.9405-0.61024 13.911-0.4707 20.875 0.0795-3.6294 0.23327-7.2566 0.4707-10.875 3.3839-30.226 12.485-59.721 27.508-86.238 17.078-27.503 39.194-52.635 66.193-70.787 20.794-11.525 41.78-21.475 65.172-26.873 6.7738-2.175 17.754-3.3283 27.32-3.9473 6.358-3.6979 12.68-7.2767 18.904-10.715zm-112.57 317.6c5.8705 32.21 20.626 53.903 32.777 66.32 4.5996 0.85593 9.1929 1.2883 13.754 1.2324-9.5718-5.5342-31.822-25.326-42.783-61.928-1.5376-1.918-2.818-3.8034-3.748-5.625z"
         fill="#fff"
         opacity=".3"
         stroke-width="15.511"
         id="path624" />
      <path
         transform="scale(.75)"
         d="m984.57 95.355-0.20898 112.26-36.809 102.75c-87.999-28.006-175.62-57.285-264.09-83.689 0.30122 3.584 1.1777 7.1681 2.1958 10.752l261.9 82.937 36.809-102.75 0.22656-122.25z"
         opacity=".3"
         stroke-width="15.511"
         id="path626" />
      <path
         d="m605.96-50.558c-27.566 0.73573-43.047 28.966-53.911 50.754-3.9131 6.9253-7.9691 15.143-11.387 21.684-6.5417 10.308-2.702 22.688-1.3461 33.966-0.14273 3.0905 1.7504 9.5791 0.26756 10.233-2.9914 9.0367-5.842 20.698 1.3111 28.588 2.2657-10.214 13.412-15.135 22.196-19.431 9.9298-4.311 17.967-10.842 27.799-15.373 12.956-7.432 25.466 3.5193 42.109 3.5193 15.911 0 32.721-9.1971 48.466-16.277 3.6644 3.7907 10.218 9.9478 13.084 14.446h-0.0408c8.207 13.125 13.897 28.384 15.766 43.358 2.3322 19.587 0.37807 39.087-11.203 53.919-7.5e-4 2.1e-4 -0.0918 0.0187-0.0918 0.0187 2.6e-4 0 0.0803-2.1e-4 0.0814 0 0.23878 0.0315 21.009 1.5072 34.864-11.643-9.8851 76.432-56.751 117.29-81.432 127.96 32.854 2.2111 58.165-23.266 58.165-23.266 4.7778-6.8048-11.549 16.265-23.266 23.266 21.468-6.0114 35.841-8.196 49.388-18.081-5e-3 0 11.009-5.9929 22.493-19.093 1.5279-1.7428 4.1528-4.161 5.7258-6.1458 0.97776-1.2338 1.8816-2.499 2.8373-3.7387 0.16835-0.20382 0.36052-0.39759 0.52246-0.60434 24.172-29.571 35.945-66.336 35.072-99.653 0.1697-40.387-16.222-75.447-43.758-104.43-19.914-20.96-42.529-34.946-62.897-41.886-26.388-7.5776-58.946-10.808-82.235-6.4016-2.2055 0.73736 0.33022-12.124 3.0522-14.06-6.5297 0.61127-13.607 15.085-18.898 18.307 4.3422-7.194 2.0418-11.508 7.2649-18.307-19.417 3.6251-17.033 19.825-28.969 31.141 3.9327-21.027 12.604-29.239 28.969-42.774z"
         opacity=".3"
         stroke-width="11.633"
         id="path628" />
      <path
         d="m 605.96,-58.058 c -1.28748,0.03436 -2.5486,0.128701 -3.78411,0.279559 -25.21791,3.079127 -39.7703,29.704057 -50.12689,50.474441 -3.9131,6.9253 -7.9691,15.143 -11.387,21.684 -6.5417,10.308 -2.702,22.688 -1.3461,33.966 -0.14273,3.0905 1.7504,9.5791 0.26756,10.233 -2.9914,9.0367 -5.842,20.698 1.3111,28.588 2.2657,-10.214 13.412,-15.135 22.196,-19.431 9.9298,-4.311 17.967,-10.842 27.799,-15.373 12.956,-7.432 25.466,3.5193 42.109,3.5193 15.911,0 32.721,-9.1971 48.466,-16.277 3.6644,3.7907 10.218,9.9478 13.084,14.446 h -0.0408 c 8.207,13.125 13.897,28.384 15.766,43.358 2.10178,17.65182 0.72236,35.23297 -8.04716,49.39054 -0.96141,1.55211 1.57846,-0.60712 0.43426,0.85828 6.20663,-2.64154 0.76213,0.78427 0.76213,0.78427 4.24316,-2.56003 4.35007,0.0832 0.6873,0.55098 4.44974,-1.23584 -3.16416,2.49485 -0.28249,2.35105 6.99868,-0.34926 20.28247,-2.32557 30.09656,-11.64042 -8.90978,68.89077 -47.86287,108.88111 -73.5354,123.91489 -2.81028,1.6457 3.67524,1.43557 1.24006,2.48833 3.26112,0.21948 -2.68875,1.72293 0.40635,1.44879 21.65993,-1.91845 38.82915,-14.65076 45.55216,-20.3769 1.9947,-1.69893 0.87101,0.002 0.87101,0.002 1.89596,-2.70033 2.96968,-3.08764 -0.009,0.96464 -3.17465,4.31946 -8.45491,10.5207 -14.42635,14.43722 -0.78908,0.51754 2.46131,0.0953 0.35009,1.35672 21.468,-6.0114 28.85869,-4.47198 42.40569,-14.35698 -0.005,0 11.009,-5.9929 22.493,-19.093 1.5279,-1.7428 4.1528,-4.161 5.7258,-6.1458 0.97776,-1.2338 1.8816,-2.499 2.8373,-3.7387 0.16835,-0.20382 0.36052,-0.39759 0.52246,-0.60433 24.172,-29.571 35.945,-66.336 35.072,-99.653 0.16968,-40.387 -16.222,-75.447 -43.758,-104.43 -19.914,-20.96 -42.529,-34.946 -62.897,-41.886 -26.388,-7.5776 -58.946,-10.808 -82.235,-6.4016 -2.2055,0.73736 0.33023,-12.124 3.0522,-14.06 -6.5297,0.61127 -13.607,15.085 -18.898,18.307 3.85238,-6.382488 2.47626,-10.49808 5.76421,-16.093299 0.41805,-0.711414 -1.81146,-0.438309 -1.22227,-1.205263 -1.03292,0.192843 0.71882,-0.587167 -0.19615,-0.325782 -16.28477,4.652182 -14.74884,19.744317 -26.04989,30.458344 3.6883,-19.720286 11.54455,-28.168846 26.00644,-40.307938 0.95828,-0.804365 -1.15529,-0.83996 -0.13829,-1.681087 z"
         fill="#357af0"
         stroke-width="11.633"
         id="path630"
         sodipodi:nodetypes="cscccccccsccccscccscscsscssccssccccccccscscscc" />
      <path
         d="m 551.41,58.273 c 53.14559,-14.415957 22.17844,-26.963439 59.21679,-63.379654 2.09663,-2.061409 -1.75587,-1.2033679 0.80417,-3.4224125 -2.91395,1.5087724 0.34884,-0.082801 -2.52779,1.2402127 C 570.15292,10.533069 536.41395,13.59377 551.46,58.273 h -0.0488 z"
         opacity="0.3"
         stroke-width="11.633"
         id="path632"
         sodipodi:nodetypes="cscsccc" />
      <path
         d="m580.44 41.723c-3.7184 6.7917-12.395 9.529-17.194 6.9725-4.9051-2.5566-4.8787-11.104-1.0816-17.896 3.6656-6.7917 19.858-3.7445 19.937-3.7445 0.0768 0 2.0569 7.9021-1.6615 14.668z"
         opacity=".3"
         stroke-width="11.633"
         id="path634" />
    </g>
    <path
       d="m580.44 38.723c-3.7184 6.7917-12.395 9.529-17.194 6.9725-4.9051-2.5566-4.8787-11.104-1.0816-17.896 3.6656-6.7917 19.858-3.7445 19.937-3.7445 0.0768 0 2.0569 7.9021-1.6615 14.668z"
       fill="#fff"
       stroke-width="11.633"
       id="path638" />
    <g
       id="g646">
      <path
         d="m558.39 69.721s2.0883-2.0152 0.99967-5.7002c-13.018 4.3041-19.41-8.1565-19.364-8.1565 0.044 0-9.7527 25.675 1.9414 37.308 1.013-9.5811 15.939-22.95 15.985-22.95"
         stroke-width="11.633"
         id="path640" />
      <path
         d="m529.49 208.54c14.134 20.328 32.379 44.28 53.208 47.492-8.1413-4.7071-28.519-23.158-34.899-58.165 6.7735 13.266 37.354 30.861 46.532 34.899-4.5596-4.2578-22.067-29.795-23.266-44.787l-58.681-18.04c0.36558 0.55629 1.6646 16.883 17.106 38.602z"
         opacity=".3"
         stroke-width="11.633"
         id="path642" />
      <path
         transform="scale(0.75)"
         d="m 802.14312,-74.839064 c -2.69615,0.07206 0.50129,-2.229563 -2.02536,-1.780847 -31.9168,5.668204 -50.62433,39.962921 -64.04676,66.881911 -5.2174,9.2337 -10.626,20.191 -15.184,28.912 -4.7439,7.4752 -5.3807,15.769 -4.6953,24.197 0.494,-4.9279 1.8482,-9.7108 4.6953,-14.197 4.5573,-8.7216 9.9662,-19.678 15.184,-28.912 12.486,-25.041 29.556,-56.443 57.568,-65.268 2.24856,-2.118006 4.65796,-4.25552 7.23904,-6.468862 2.22718,-1.909859 -1.2247,-1.30524 1.26508,-3.364202 z M 807.952,-61.9 c -4.4633,0.83329 -8.0471,2.1741 -11.029,3.8848 -3.9276,3.5121 -7.3896,6.9108 -10.467,10.42 -4.5429,7.1772 -7.3665,15.797 -13.586,23.387 -1.4085,4.1371 -2.5826,8.6952 -3.543,13.83 14.777,-14.009 13.108,-33.625 33.514,-40.229 0.8014,-3.5281 1.8486,-7.0462 5.1113,-11.293 z m 15.512,0 c -2.04387,0.191338 -4.12765,1.399179 -6.21129,3.191589 -4.84927,4.171497 -9.69778,11.509238 -14.04071,16.568411 -1.1731,4.5295 -1.4777,8.9002 -4.9473,14.648 5.7866,-3.5234 13.177,-17.134 20.451,-22.365 0.4317,-2.480417 1.15287,-5.237517 2.02503,-7.517784 0.81371,-2.127447 -2.17512,-1.25082 -1.211,-1.936204 z m 28.033,16.086 c -11.477,-0.01887 -22.376,0.8223 -32.072,2.6543 -1.3215,5.188 -1.7151,10.569 -0.0312,10.006 31.052,-5.8754 74.462,-1.5683 109.65,8.5352 27.156,9.2528 57.312,27.901 83.863,55.848 36.532,38.453 58.344,84.93 58.336,138.44 0.079,-3.086 0.088,-6.1559 0.01,-9.2031 0.2263,-53.85 -21.629,-100.6 -58.344,-139.24 -26.551,-27.947 -56.707,-46.595 -83.863,-55.848 -24.189,-6.9461 -52.266,-11.154 -77.543,-11.195 z m -132.13,124.18 c -2.5958,7.8798 -5.0727,17.212 -3.7969,25.654 0.67169,-5.5016 2.2516,-11 3.8789,-15.916 1.4649,-0.64568 0.46026,-5.5581 -0.082,-9.7383 z m 228.71,74.955 c -0.69009,17.797 -5.2027,34.641 -15.984,48.449 -10e-4,2.8e-4 -0.12109,0.0254 -0.12109,0.0254 3.4e-4,0 0.10595,-2.8e-4 0.10742,0 0.0936,0.0123 2.5953,0.18154 6.4902,-0.0176 7.6721,-14.423 10.129,-31.181 9.5078,-48.457 z m 30.488,42.951 c -0.57528,0.54601 -1.1599,1.0732 -1.752,1.582 -13.95735,81.2974 -59.57886,130.31739 -92.18862,151.12982 -5.28175,3.37095 5.01955,3.01728 0.61032,4.92555 6.665,0.44856 -2.1487,3.01713 3.9673,2.00612 33.741,-23.421 78.453,-75.254 89.367,-159.64 z m -31.844,140.38 c -2.2925,2.1981 -12.921,11.957 -29.283,19.996 5.59,-1.5549 10.769,-2.9149 15.697,-4.2051 5.9511,-6.3116 10.98,-12.516 13.586,-15.791 z"
         fill="#ffffff"
         opacity="0.3"
         stroke-width="15.511"
         id="path644"
         sodipodi:nodetypes="csccccccsccccccccccscccscccccccccccccccccccccccccccsccccscccs" />
    </g>
  </g>
</svg>
