<?xml version="1.0" encoding="UTF-8" standalone="no"?>
<svg
   width="512"
   height="512"
   version="1.1"
   viewBox="0 0 384 384"
   id="svg1055033"
   sodipodi:docname="ndm.svg"
   inkscape:version="1.2 (dc2aedaf03, 2022-05-15)"
   xmlns:inkscape="http://www.inkscape.org/namespaces/inkscape"
   xmlns:sodipodi="http://sodipodi.sourceforge.net/DTD/sodipodi-0.dtd"
   xmlns="http://www.w3.org/2000/svg"
   xmlns:svg="http://www.w3.org/2000/svg">
  <sodipodi:namedview
     id="namedview1055035"
     pagecolor="#ffffff"
     bordercolor="#666666"
     borderopacity="1.0"
     inkscape:pageshadow="2"
     inkscape:pageopacity="0.0"
     inkscape:pagecheckerboard="0"
     showgrid="false"
     inkscape:zoom="1.6152344"
     inkscape:cx="256.30955"
     inkscape:cy="256.6191"
     inkscape:window-width="1444"
     inkscape:window-height="1080"
     inkscape:window-x="237"
     inkscape:window-y="-1"
     inkscape:window-maximized="1"
     inkscape:current-layer="svg1055033"
     inkscape:showpageshadow="0"
     inkscape:deskcolor="#d1d1d1" />
  <defs
     id="defs1055021">
    <clipPath
       id="clipPath1055011">
      <rect
         width="384"
         height="384"
         id="rect1055009" />
    </clipPath>
    <clipPath
       id="clipPath1055015">
      <rect
         width="384"
         height="384"
         id="rect1055013" />
    </clipPath>
    <clipPath
       id="clipPath1055019">
      <rect
         width="384"
         height="384"
         id="rect1055017" />
    </clipPath>
  </defs>
  <path
     d="m102.03 30.006c-26.508 0-47.996 21.492-48 48v144c0.0039 26.508 21.492 47.996 48 48h36c0.96875-0.0195 1.9375-0.0664 2.9062-0.14063l48.703 64.945c9.0664 12.078 23.289 19.184 38.391 19.184s29.324-7.1055 38.391-19.184l54-72c9.5781-12.809 12.145-29.547 6.8516-44.641-5.2969-15.09-17.762-26.555-33.242-30.57v-13.477-0.0234c0.10547-49.293-22.133-95.578-63.141-116.34-21.809-11.043-41.855-13.91-60.234-14.906-8.8672-8.2422-20.52-12.828-32.625-12.844z"
     fill="#fd4747"
     id="path1055023" />
  <path
     d="m102 85.5v144h36v-96c23.859 0.0156 44.148 1.2266 54.914 6.6797 10.766 5.4531 17.156 12.656 17.086 41.273l18 0.0469h-18v60h-36l54 72 54-72h-36v-59.953-0.0469c0.0781-36.383-14.543-62.152-36.82-73.43-22.285-11.285-47.09-10.559-71.18-10.57v-12z"
     opacity=".3"
     id="path1055025" />
  <path
     d="m 102,78 v 144 h 36 v -92.4842 0 c 1.44423,9.4e-4 2.87538,-3.50953 4.29212,-3.49915 21.98825,0.1611 40.50757,1.54004 50.62188,6.66305 10.766,5.4531 17.156,12.656 17.086,41.273 v 60.047 h -27.26637 l -3.46724,7.02185 v 0 l 41.38015,55.17354 7.10423,0.6855 7.36756,-0.37199 41.66945,-55.55927 v 0 l -3.71699,-6.94963 H 246 v -60 c 0.0781,-36.383 -14.543,-62.152 -36.82,-73.43 -22.285,-11.285 -47.09,-10.559 -71.18,-10.57 v -7.704488 l -4.46741,-4.295475 v 0 z"
     fill="#ffffff"
     id="path1055027"
     sodipodi:nodetypes="cccccssccccccccccccccccccc" />
  <path
     transform="scale(.75)"
     d="m72.033 286.01v10c0.005333 35.344 28.656 63.995 64 64h48c1.2917-0.026 2.5833-0.08854 3.875-0.1875l64.938 86.594c12.089 16.104 31.052 25.578 51.188 25.578 20.135 0 39.099-9.474 51.188-25.578l72-96c9.414-12.589 13.742-28.026 12.543-43.332-0.93246 11.902-5.1818 23.488-12.543 33.332l-72 96c-12.089 16.104-31.052 25.578-51.188 25.578-20.135 0-39.099-9.474-51.188-25.578l-64.938-86.594c-1.2917 0.09896-2.5833 0.1615-3.875 0.1875h-48c-35.344-0.00521-63.995-28.656-64-64z"
     opacity=".3"
     stroke-width="1.3333"
     id="path1055029" />
  <path
     transform="scale(.75)"
     d="m136.03 40.008c-35.344 0-63.995 28.656-64 64v10c0.005213-35.344 28.656-64 64-64h48c16.141 0.020827 31.677 6.1354 43.5 17.125 24.505 1.3281 51.234 5.151 80.312 19.875 54.677 27.687 84.328 89.401 84.188 155.12v-9.9688-0.03125c0.14063-65.724-29.51-127.44-84.188-155.12-29.078-14.724-55.807-18.547-80.312-19.875-11.823-10.99-27.359-17.104-43.5-17.125h-48zm256 210.12v10c20.641 5.3542 37.262 20.64 44.324 40.76 1.855 5.2899 2.9787 10.732 3.4062 16.189 0.68526-8.7468-0.41683-17.665-3.4062-26.189-7.0625-20.12-23.684-35.406-44.324-40.76z"
     fill="#f7f7f7"
     opacity=".3"
     stroke-width="1.3333"
     id="path1055031" />
</svg>
