<?xml version="1.0" encoding="UTF-8" standalone="no"?>
<svg
   width="512"
   height="512"
   version="1.1"
   viewBox="0 0 384 384"
   id="svg1195059"
   sodipodi:docname="oggconvert.svg"
   inkscape:version="1.1.2 (0a00cf5339, 2022-02-04)"
   xmlns:inkscape="http://www.inkscape.org/namespaces/inkscape"
   xmlns:sodipodi="http://sodipodi.sourceforge.net/DTD/sodipodi-0.dtd"
   xmlns="http://www.w3.org/2000/svg"
   xmlns:svg="http://www.w3.org/2000/svg">
  <sodipodi:namedview
     id="namedview1195061"
     pagecolor="#ffffff"
     bordercolor="#666666"
     borderopacity="1.0"
     inkscape:pageshadow="2"
     inkscape:pageopacity="0.0"
     inkscape:pagecheckerboard="0"
     showgrid="false"
     inkscape:zoom="1.6152344"
     inkscape:cx="255.69045"
     inkscape:cy="256"
     inkscape:window-width="1920"
     inkscape:window-height="1051"
     inkscape:window-x="0"
     inkscape:window-y="29"
     inkscape:window-maximized="1"
     inkscape:current-layer="svg1195059" />
  <defs
     id="defs1195037">
    <clipPath
       id="clipPath1195023">
      <rect
         width="384"
         height="384"
         id="rect1195021" />
    </clipPath>
    <clipPath
       id="clipPath1195027">
      <rect
         width="384"
         height="384"
         id="rect1195025" />
    </clipPath>
    <clipPath
       id="clipPath1195031">
      <rect
         width="384"
         height="384"
         id="rect1195029" />
    </clipPath>
    <clipPath
       id="clipPath1195035">
      <rect
         width="384"
         height="384"
         id="rect1195033" />
    </clipPath>
  </defs>
  <path
     d="m360.75 343.87v-303.75c0-9.3215-7.5552-16.877-16.877-16.877h-303.75c-9.3215 0-16.877 7.5552-16.877 16.877v303.75c0 9.3215 7.5552 16.877 16.877 16.877h303.75c9.3215 0 16.877-7.5552 16.877-16.877z"
     fill="#23a86e"
     stroke-width="1.0817"
     id="path1195039" />
  <g
     id="g1195047">
    <path
       transform="scale(.75)"
       d="m31 448.5v10c0 12.429 10.073 22.502 22.502 22.502h405c12.429 0 22.502-10.073 22.502-22.502v-10c-1e-5 12.429-10.073 22.502-22.502 22.502h-405c-12.429 0-22.502-10.073-22.502-22.502z"
       opacity=".3"
       stroke-width="1.4423"
       id="path1195041" />
    <path
       d="m192.01 91.5c-10.094-0.10547-20.113 1.3906-29.848 4.0547-45.32 12.156-78.488 57.012-77.801 103.96h-24.363c12.418 18.262 36 53.988 36 53.988s36-54.004 36-54.012h-23.508c-0.0859-19.66 7.293-39.43 20.379-54.105 24.598-29.574 69.137-41.883 103.39-16.758 10.859 14.215 34.547-1.9141 22.324-15.973-18-14.02-39.852-21.105-62.578-21.152zm95.988 54s-36 53.992-36 54h23.508c0.0859 19.66-7.293 39.441-20.379 54.117-24.598 29.574-69.137 41.883-103.39 16.758-10.859-14.215-34.547 1.9141-22.324 15.973 18 14.02 39.852 21.105 62.578 21.152 10.094 0.10547 20.113-1.3906 29.848-4.0547 45.32-12.156 78.488-57.012 77.801-103.96h24.363c-12.418-18.262-36-53.988-36-53.988z"
       opacity=".3"
       id="path1195043" />
    <path
       d="m384 294c0 49.706-40.294 90-90 90-49.706 0-90-40.294-90-90 0-49.706 40.294-90 90-90 49.706 0 90 40.294 90 90z"
       opacity=".3"
       stroke-width=".9375"
       id="path1195045" />
  </g>
  <path
     d="m 192.01,84 c -10.094,-0.10547 -20.113,1.3906 -29.848,4.0547 -45.32,12.156 -78.488,57.012 -77.801,103.96 H 66.814163 v 0 c 1.263634,1.85831 -4.173293,3.89746 -2.715069,6.06139 10.322655,15.31833 24.60355,36.89003 29.855479,44.83398 1.297072,1.96193 0,0 0,0 0,0 2.999507,1.6584 4.600051,-0.74262 6.020256,-9.03118 21.158366,-31.74065 28.831386,-43.25399 2.8047,-4.20844 0,0 0,0 l -3.74733,-6.92276 H 108.49 c -0.0859,-19.66 7.293,-39.43 20.379,-54.105 24.598,-29.574 69.137,-41.883 103.39,-16.758 10.859,14.215 34.547,-1.9141 22.324,-15.973 -18,-14.02 -39.852,-21.105 -62.578,-21.152 z m 95.988,54 c 0,0 -1.38534,2.0777 -3.61251,5.41802 -6.40929,9.61269 -19.79026,29.68184 -27.18938,40.78149 -3.1365,4.70517 9.56375,7.80049 2.18282,7.80049 v 0 H 275.506 c 0.0859,19.66 -7.293,39.441 -20.379,54.117 -24.598,29.574 -69.137,41.883 -103.39,16.758 -10.859,-14.215 -34.547,1.9141 -22.324,15.973 18,14.02 39.852,21.105 62.578,21.152 10.094,0.10547 20.113,-1.3906 29.848,-4.0547 45.32,-12.156 78.488,-57.012 77.801,-103.96 h 16.89815 v 0 c -1.62468,-2.38926 4.02441,-5.07745 2.09536,-7.94545 -9.24808,-13.74952 -21.09978,-31.63181 -26.98134,-40.52197 -2.26875,-3.42928 -3.64917,-5.52058 -3.64917,-5.52058 z"
     fill="#ffffff"
     id="path1195049"
     sodipodi:nodetypes="cccccsscsscccccccccsscccccccccccsscc" />
  <path
     d="m384 286.5c0 49.706-40.294 90-90 90s-90-40.294-90-90 40.294-90 90-90 90 40.294 90 90z"
     fill="#9754b3"
     stroke-width=".9375"
     id="path1195051" />
  <path
     d="m334.5 249.01-53.996 8.9994v47.423c-2.7332-1.5849-5.8385-2.4256-8.9994-2.4286-9.9398 0-17.999 8.0561-17.999 17.999 0 9.9398 8.059 17.999 17.999 17.999s17.999-8.059 17.999-17.999v-46.491l35.998-6.0113v27.93c-2.7332-1.5878-5.8385-2.4256-8.9994-2.4315-9.9398 0-17.999 8.059-17.999 17.999 0 9.9398 8.0591 17.999 17.999 17.999 9.9398 0 17.999-8.059 17.999-17.999v-62.996z"
     opacity=".3"
     stroke-width=".74995"
     id="path1195053" />
  <path
     d="m334.5 241.51-53.996 8.9994v47.423c-2.7332-1.5849-5.8385-2.4256-8.9994-2.4286-9.9398 0-17.999 8.0561-17.999 17.999 0 9.9398 8.059 17.999 17.999 17.999s17.999-8.059 17.999-17.999v-46.491l35.998-6.0113v27.93c-2.7332-1.5878-5.8385-2.4256-8.9994-2.4315-9.9398 0-17.999 8.059-17.999 17.999 0 9.9398 8.0591 17.999 17.999 17.999 9.9398 0 17.999-8.059 17.999-17.999v-62.996z"
     fill="#fff"
     stroke-width=".74995"
     id="path1195055" />
  <path
     transform="scale(.75)"
     d="m53.502 31c-12.429 0-22.502 10.073-22.502 22.502v10c0-12.429 10.073-22.502 22.502-22.502h405c12.429 0 22.502 10.073 22.502 22.502v-10c0-12.429-10.073-22.502-22.502-22.502h-405z"
     fill="#fff"
     opacity=".3"
     stroke-width="1.4423"
     id="path1195057" />
</svg>
