<?xml version="1.0" encoding="UTF-8" standalone="no"?>
<svg
   width="22"
   height="22"
   version="1"
   id="svg2623693"
   sodipodi:docname="usbpendrive_unmount.svg"
   inkscape:version="1.1.2 (0a00cf5339, 2022-02-04)"
   xmlns:inkscape="http://www.inkscape.org/namespaces/inkscape"
   xmlns:sodipodi="http://sodipodi.sourceforge.net/DTD/sodipodi-0.dtd"
   xmlns="http://www.w3.org/2000/svg"
   xmlns:svg="http://www.w3.org/2000/svg">
  <defs
     id="defs2623697" />
  <sodipodi:namedview
     id="namedview2623695"
     pagecolor="#ffffff"
     bordercolor="#666666"
     borderopacity="1.0"
     inkscape:pageshadow="2"
     inkscape:pageopacity="0.0"
     inkscape:pagecheckerboard="0"
     showgrid="false"
     inkscape:zoom="37.590909"
     inkscape:cx="11.013301"
     inkscape:cy="11"
     inkscape:window-width="1916"
     inkscape:window-height="1015"
     inkscape:window-x="0"
     inkscape:window-y="29"
     inkscape:window-maximized="1"
     inkscape:current-layer="svg2623693" />
  <rect
     style="opacity:0.2"
     width="20"
     height="16"
     x="-21.5"
     y="-19"
     rx="1"
     ry="1"
     transform="matrix(0,-1,-1,0,0,0)"
     id="rect2623685" />
  <rect
     style="fill:#8e8e8e"
     width="20"
     height="16"
     x="-21"
     y="-19"
     rx="1"
     ry="1"
     transform="matrix(0,-1,-1,0,0,0)"
     id="rect2623687" />
  <path
     style="opacity:0.5"
     d="m 10.759753,5.3003093 v 0 L 7.4780327,9.4024591 v 0 L 7.4908638,10 v 0 h 6.9175822 0.177477 -0.177477 l 0.102227,-0.6116589 v 0 L 11.283911,5.3548883 Z M 7.2891279,11 7,11.216138 v 0.507515 L 7.2723976,12 v 0 h 7.4893294 v 0 L 15,11.773176 V 11.245378 L 14.721752,11 v 0 z"
     id="path2623689"
     sodipodi:nodetypes="ccccccccccccccccccccccccc" />
  <path
     style="opacity:.2;fill:#ffffff"
     d="M 4,1 C 3.446,1 3,1.446 3,2 V 2.5 C 3,1.946 3.446,1.5 4,1.5 H 18 C 18.554,1.5 19,1.946 19,2.5 V 2 C 19,1.446 18.554,1 18,1 Z"
     id="path2623691" />
</svg>
