<?xml version="1.0" encoding="UTF-8" standalone="no"?>
<svg
   width="512"
   height="512"
   version="1.1"
   viewBox="0 0 384 384"
   id="svg1422132"
   sodipodi:docname="org.kde.latte.plasmoid.svg"
   inkscape:version="1.1.2 (0a00cf5339, 2022-02-04)"
   xmlns:inkscape="http://www.inkscape.org/namespaces/inkscape"
   xmlns:sodipodi="http://sodipodi.sourceforge.net/DTD/sodipodi-0.dtd"
   xmlns="http://www.w3.org/2000/svg"
   xmlns:svg="http://www.w3.org/2000/svg">
  <sodipodi:namedview
     id="namedview1422134"
     pagecolor="#ffffff"
     bordercolor="#666666"
     borderopacity="1.0"
     inkscape:pageshadow="2"
     inkscape:pageopacity="0.0"
     inkscape:pagecheckerboard="0"
     showgrid="false"
     inkscape:zoom="1.6152344"
     inkscape:cx="255.69045"
     inkscape:cy="256"
     inkscape:window-width="1920"
     inkscape:window-height="1051"
     inkscape:window-x="0"
     inkscape:window-y="29"
     inkscape:window-maximized="1"
     inkscape:current-layer="svg1422132" />
  <defs
     id="defs1422120">
    <clipPath
       id="e">
      <rect
         width="384"
         height="384"
         id="rect1422103" />
    </clipPath>
    <clipPath
       id="f">
      <path
         d="m111 119h177v23h-177z"
         id="path1422106" />
    </clipPath>
    <clipPath
       id="d">
      <path
         d="m177 130h45v89h-45z"
         id="path1422109" />
    </clipPath>
    <clipPath
       id="c">
      <path
         d="m111 207h177v89h-177z"
         id="path1422112" />
    </clipPath>
    <clipPath
       id="g">
      <rect
         width="384"
         height="384"
         id="rect1422115" />
    </clipPath>
    <g
       clip-path="url(#g)"
       id="g1422118" />
  </defs>
  <path
     d="m360 192c0 92.781-75.215 168-168 168s-168-75.219-168-168c0-92.785 75.215-168 168-168s168 75.215 168 168z"
     fill="#aa7a50"
     id="path1422122" />
  <path
     d="m279.14 73.523c-10.07 0-19.73 2.6484-28.992 7.9688-9.0625 5.1172-17.633 12.586-25.688 22.406-7.8555 9.6172-15 21.48-21.445 35.602-6.4453 13.914-11.961 29.676-16.594 47.273-3.2226 12.484-6.457 23.023-9.6797 31.617-3.2227 8.5938-6.5391 15.738-9.9609 21.469-7.4492-2.8633-14.805-11.496-22.055-13.336-7.0469-2.0469-14.301-3.0703-21.75-3.0703-5.8398 0-11.176 0.92578-16.008 2.7656-4.6328 1.8398-8.6484 4.0898-12.07 6.75-3.4219 2.6602-6.1406 5.5078-8.1562 8.5781-1.8125 3.0898-2.7422 12.27-2.7422 14.93 0 4.2969 2.0195 7.8711 6.0469 10.734 4.0273 2.8672 10.086 4.2891 18.141 4.2891 21.348 0 39.371-5.6172 54.07-16.875 9.2617 4.0977 18.715 7.9648 28.383 11.648 9.8672 3.4805 20.742 5.2266 32.625 5.2266 13.492 0 24.266-2.8477 32.32-8.5781 8.0547-5.9336 12.676-13.512 17.508-24.562 0.20312-1.2344-0.0625-2.0547-0.86719-2.4609-0.60546-0.61328-1.3281-0.61328-2.1328 0-3.4219 6.957-5.9453 11.363-11.18 15.047-5.2344 3.6797-12.898 5.5312-22.969 5.5312-12.082 0-23.141-1.3477-33.211-4.0078-9.8672-2.8633-19.344-6.0391-28.406-9.5156 12.484-14.938 22.273-36.117 29.32-63.539 4.2305-17.191 8.3476-31.504 12.375-42.961 4.0273-11.457 8.3516-20.551 12.984-27.305 4.6328-6.957 9.6797-10.887 15.117-13.547 5.6367-2.8672 12.27-4.2656 19.922-4.2656 5.6367 0 10.25 1.0312 13.875 3.0703 3.8242 1.8398 6.6484 4.2891 8.4609 7.3594s2.8438 5.5547 3.0469 9.2344c0.20311 3.6836-0.31641 10.941-1.5234 14.625-0.20313 1.0312 0.0859 1.75 0.89063 2.1562 1.0078 0.41797 1.9375 0.32422 2.7422-0.30078 2.0156-3.4766 3.9062-11.484 5.7188-16.805 1.8125-5.5312 2.7422-10.371 2.7422-14.465 0-6.3438-1.9375-11.641-5.7656-15.938-3.8281-4.5039-8.8516-6.75-15.094-6.75zm-169.45 160.08c8.6602 0 16.816 1.2031 24.469 3.6562 7.6523 2.457 15.215 11.656 22.664 14.93-4.6328 4.5039-9.8867 7.5508-15.727 9.1875-5.6367 1.4297-12.062 2.1562-19.312 2.1562-8.2578 0-14.727-1.3242-19.359-3.9844-4.4297-2.6602-6.6328-12.336-6.6328-16.43 0-6.3399 4.6367-9.5156 13.898-9.5156zm28.312 49.898c-9.9414 0-18 8.0586-18 18s8.0586 18 18 18 18-8.0586 18-18-8.0586-18-18-18zm96 0c-9.9414 0-18 8.0586-18 18s8.0586 18 18 18 18-8.0586 18-18-8.0586-18-18-18zm-48 24c-9.9414 0-18 8.0586-18 18s8.0586 18 18 18 18-8.0586 18-18-8.0586-18-18-18z"
     opacity=".3"
     id="path1422124" />
  <path
     d="m 279.14,66.023 c -10.07,0 -19.73,2.6484 -28.992,7.9688 -9.0625,5.1172 -17.633,12.586 -25.688,22.406 -7.8555,9.6172 -15,21.48 -21.445,35.602 -6.4453,13.914 -11.961,29.676 -16.594,47.273 -3.2226,12.484 -6.457,23.023 -9.6797,31.617 -3.2227,8.5938 -6.5391,15.738 -9.9609,21.469 -7.4492,-2.8633 -14.805,-11.496 -22.055,-13.336 -7.0469,-2.0469 -14.301,-3.0703 -21.75,-3.0703 -5.8398,0 -11.176,0.92579 -16.008,2.7656 -4.6328,1.8398 -8.6484,4.0898 -12.07,6.75 -3.4219,2.6602 -6.1406,5.5078 -8.1562,8.5781 -1.8125,3.0898 -2.7422,12.27 -2.7422,14.93 0,4.2969 2.0195,7.8711 6.0469,10.734 4.0273,2.8672 10.086,4.2891 18.141,4.2891 21.348,0 39.371,-5.6172 54.07,-16.875 9.2617,4.0977 18.715,7.9648 28.383,11.648 9.8672,3.4805 20.742,5.2266 32.625,5.2266 13.492,0 24.266,-2.8477 32.32,-8.5781 8.0547,-5.9336 9.67601,-8.4729 14.50801,-19.5229 -2.99999,5.0391 -7.07718,8.7993 -4.94438,1.2993 -7.07718,8.7993 5.74908,-1.91258 4.94438,-1.2993 -1.72232,3.50162 -3.21702,-1.14302 -4.94438,1.2993 -1.70455,2.41007 -3.63566,4.41794 -6.23562,6.2477 -5.2344,3.6797 -12.898,5.5312 -22.969,5.5312 -12.082,0 -23.141,-1.3476 -33.211,-4.0078 -9.8672,-2.8633 -19.344,-6.0391 -28.406,-9.5156 12.484,-14.938 22.273,-36.117 29.32,-63.539 4.2305,-17.191 8.3476,-31.504 12.375,-42.961 4.0273,-11.457 8.3516,-20.551 12.984,-27.305 4.6328,-6.957 9.6797,-10.887 15.117,-13.547 5.6367,-2.8672 12.27,-4.2656 19.922,-4.2656 5.6367,0 10.25,1.0312 13.875,3.0703 3.8242,1.8398 6.6484,4.2891 8.4609,7.3594 1.8125,3.0703 2.8438,5.5547 3.0469,9.2344 0.20312,3.6836 -0.31641,10.941 -1.5234,14.625 -0.20313,1.0312 0.0859,1.75 0.89062,2.1562 1.0078,0.41797 1.9375,0.32422 2.7422,-0.30078 2.0156,-3.4766 3.9062,-11.484 5.7188,-16.805 1.8125,-5.5312 2.7422,-10.371 2.7422,-14.465 0,-6.3438 -1.9375,-11.641 -5.7656,-15.938 -3.8281,-4.5039 -8.8516,-6.75 -15.094,-6.75 z m -169.45,160.08 c 8.6602,0 16.816,1.2031 24.469,3.6562 7.6523,2.457 15.215,11.656 22.664,14.93 -4.6328,4.5039 -9.8867,7.5508 -15.727,9.1875 -5.6367,1.4297 -12.062,2.1562 -19.312,2.1562 -8.2578,0 -14.727,-1.3242 -19.359,-3.9844 -4.4297,-2.6602 -6.6328,-12.336 -6.6328,-16.43 0,-6.3398 4.6367,-9.5156 13.898,-9.5156 z m 28.312,49.898 c -9.9414,0 -18,8.0586 -18,18 0,9.9414 8.0586,18 18,18 9.9414,0 18,-8.0586 18,-18 0,-9.9414 -8.0586,-18 -18,-18 z m 96,0 c -9.9414,0 -18,8.0586 -18,18 0,9.9414 8.0586,18 18,18 9.9414,0 18,-8.0586 18,-18 0,-9.9414 -8.0586,-18 -18,-18 z m -48,24 c -9.9414,0 -18,8.0586 -18,18 0,9.9414 8.0586,18 18,18 9.9414,0 18,-8.0586 18,-18 0,-9.9414 -8.0586,-18 -18,-18 z"
     fill="#ffffff"
     id="path1422126"
     sodipodi:nodetypes="ccccccccscccscsccsccccscsccccccscscccccscccccccscsccsssssssssssssss" />
  <path
     transform="scale(.75)"
     d="m256 32c-123.71 0-224 100.29-224 224 0 1.6717 0.026062 3.337 0.0625 5 2.66-121.4 101.9-219 223.94-219s221.28 97.597 223.94 219c0.03644-1.663 0.0625-3.3283 0.0625-5 0-123.71-100.29-224-224-224z"
     fill="#fff"
     opacity=".3"
     stroke-width="1.3333"
     id="path1422128" />
  <path
     transform="scale(.75)"
     d="m32.062 251c-0.036438 1.6631-0.0625 3.3282-0.0625 5 0 123.71 100.29 224 224 224s224-100.29 224-224c0-1.6718-0.02606-3.3369-0.0625-5-2.66 121.4-101.9 219-223.94 219s-221.28-97.602-223.94-219z"
     opacity=".3"
     stroke-width="1.3333"
     id="path1422130" />
</svg>
