<?xml version="1.0" encoding="UTF-8" standalone="no"?>
<svg
   width="32"
   height="32"
   version="1"
   id="svg32111"
   sodipodi:docname="caffeine.svg"
   inkscape:version="1.1.2 (0a00cf5339, 2022-02-04)"
   xmlns:inkscape="http://www.inkscape.org/namespaces/inkscape"
   xmlns:sodipodi="http://sodipodi.sourceforge.net/DTD/sodipodi-0.dtd"
   xmlns="http://www.w3.org/2000/svg"
   xmlns:svg="http://www.w3.org/2000/svg">
  <defs
     id="defs32115" />
  <sodipodi:namedview
     id="namedview32113"
     pagecolor="#ffffff"
     bordercolor="#666666"
     borderopacity="1.0"
     inkscape:pageshadow="2"
     inkscape:pageopacity="0.0"
     inkscape:pagecheckerboard="0"
     showgrid="false"
     inkscape:zoom="25.84375"
     inkscape:cx="15.980653"
     inkscape:cy="16"
     inkscape:window-width="1920"
     inkscape:window-height="1051"
     inkscape:window-x="0"
     inkscape:window-y="29"
     inkscape:window-maximized="1"
     inkscape:current-layer="svg32111" />
  <path
     style="opacity:0.2"
     d="m 30,20 c 0,6 -4,10 -10,10 l -4,0 C 10,30 6.4804,26.86862 6.082,22 L 5,22 C 2,22 2,19 2,19 l 0,-2 c 0,-3 3,-3 3,-3 l 1,0 24,0 z M 5,16 C 4,15.9354 3.9688,17.0625 3.9688,17.0625 l 0,2 C 3.9688,20 5,20 5,20 l 1,0 -0.02,-3.96876 z"
     id="path32099" />
  <path
     style="fill:#e4e4e4"
     d="m 30,19 c 0,6 -4,10 -10,10 l -4,0 C 10,29 6.4804,25.86862 6.082,21 L 5,21 C 2,21 2,18 2,18 l 0,-2 c 0,-3 3,-3 3,-3 l 1,0 24,0 z M 5,15 C 4,14.9354 3.9688,16.0625 3.9688,16.0625 l 0,2 C 3.9688,19 5,19 5,19 l 1,0 -0.02,-3.96876 z"
     id="path32101" />
  <path
     style="opacity:0.2;fill:#ffffff"
     d="m 30,13 0,1 -24,0 -1,0 c 0,0 -3,0 -3,3 l 0,-1 c 0,-3 3,-3 3,-3 l 1,0 24,0 z M 3.96875,18.0625 C 3.96875,19 5,19 5,19 l 0.99414,0 0.006,1 -1,0 c 0,0 -1.03125,0 -1.03125,-0.9375 l 0,-1 z"
     id="path32103" />
  <path
     style="opacity:0.2"
     d="M 12.387277,3 C 10.190877,5.3070333 9.530624,6.4436594 10.322824,7.9121093 11.041024,9.243226 12.898602,9.9216167 11.965402,13 13.498202,11.500133 14.715877,9.5951771 13.512277,8.0585937 12.287877,6.4957604 11.617277,5.5466667 12.387277,3 Z m 6,0 c -2.1964,2.3070333 -2.856653,3.4436594 -2.064453,4.9121093 0.7182,1.3311167 2.575778,2.0095074 1.642578,5.0878907 1.5328,-1.499867 2.750475,-3.4048229 1.546875,-4.9414063 -1.2244,-1.5628333 -1.895,-2.511927 -1.125,-5.0585937 z m 6,0 c -2.1964,2.3070333 -2.856653,3.4436594 -2.064453,4.9121093 0.7182,1.3311167 2.575778,2.0095074 1.642578,5.0878907 1.5328,-1.499867 2.750475,-3.4048229 1.546875,-4.9414063 -1.2244,-1.5628333 -1.895,-2.511927 -1.125,-5.0585937 z"
     id="path32105" />
  <path
     style="fill:#956b5f"
     d="m 11.772637,2.6604009 c -0.220306,0.2314036 0.189482,-0.209369 0,0 -1.699599,1.877986 -2.1625526,2.9305492 -1.449813,4.2517084 0.617496,1.1444717 2.077251,1.8064307 1.881357,3.9261087 -0.03195,0.345685 0.108868,-0.271812 -0.02198,0.159829 0.278543,-0.272558 0.329883,0.443459 0.574974,0.148788 1.103628,-1.3268811 1.739984,-2.8308885 0.755104,-4.0882413 -1.076255,-1.3737393 -1.724615,-2.2732722 -1.342798,-4.2004438 0.05256,-0.2652734 -0.490007,0.1103833 -0.396842,-0.197749 z m 5.981354,0.020625 c -0.227553,0.2390144 0.194669,-0.2155598 0,0 -1.684332,1.8650836 -2.141293,2.9147686 -1.431167,4.2310834 0.633215,1.1736041 2.329747,1.6545929 2.082811,3.8617807 -0.03314,0.296233 0.355125,0.134912 0.244698,0.49918 0.238593,-0.233467 -0.215379,0.250181 0,0 C 19.818619,9.9160131 20.528526,8.3559947 19.512277,7.0585937 18.434679,5.68314 17.786044,4.7830771 18.170913,2.85093 18.223344,2.5877115 17.66167,2.9863647 17.753991,2.6810259 Z M 24.1871,2.7719548 C 23.95532,3.015409 23.940825,2.4738747 23.74316,2.693027 c -1.675458,1.8575908 -2.128938,2.9055934 -1.420336,4.2190823 0.643337,1.1923645 2.200899,1.8609878 1.847883,4.2000157 -0.04108,0.272186 0.594423,-0.180347 0.497149,0.140535 0.245077,-0.239811 -0.220356,0.257362 0,0 C 25.825688,9.9003898 26.523435,8.3494954 25.512277,7.0585937 24.420103,5.664535 23.768576,4.7588148 24.1871,2.7719548 c 0.05067,-0.2405434 -0.08316,0.2750215 0,0 z"
     id="path32107"
     sodipodi:nodetypes="cscscscsccscscscsccscscscsc" />
  <path
     style="opacity:0.1;fill:#ffffff"
     d="m 11.771254,2.662526 c -0.221034,0.2321678 0.18969,-0.210025 0,0 -1.404448,1.5550056 -1.9532923,2.5449441 -1.69843,3.5894271 0.198379,-0.8033549 0.281631,-1.0528325 1.421086,-2.2769271 0.04707,-0.3920703 0.126911,-0.8149662 0.277344,-1.3125 z M 18.387277,2 C 16.529725,3.9511169 15.783539,5.0663982 16.072824,6.2519531 16.271203,5.4485982 16.970478,4.5365946 18.109933,3.3125 18.157008,2.9204297 18.236844,2.4975338 18.387277,2 Z m 6,0 C 22.529725,3.9511169 21.783539,5.0663982 22.072824,6.2519531 22.271203,5.4485982 22.970478,4.5365946 24.109933,3.3125 24.157008,2.9204297 24.236844,2.4975338 24.387277,2 Z m -12.28711,2.3925781 c -0.164423,1.5643712 0.443035,2.4290808 1.41211,3.6660157 0.232321,0.2965939 0.350922,0.6092535 0.417969,0.9277343 0.14448,-0.6679123 0.05312,-1.3263108 -0.417969,-1.9277343 -0.743427,-0.948916 -1.275519,-1.6746376 -1.41211,-2.6660157 z m 6,0 c -0.164423,1.5643712 0.443035,2.4290808 1.41211,3.6660157 0.232321,0.2965939 0.350922,0.6092535 0.417969,0.9277343 0.14448,-0.6679123 0.05312,-1.3263108 -0.417969,-1.9277343 -0.743427,-0.948916 -1.275519,-1.6746376 -1.41211,-2.6660157 z m 6,0 c -0.164423,1.5643712 0.443035,2.4290808 1.41211,3.6660157 0.232321,0.2965939 0.350922,0.6092535 0.417969,0.9277343 0.14448,-0.6679123 0.05312,-1.3263108 -0.417969,-1.9277343 C 24.76885,6.1096778 24.236758,5.3839562 24.100167,4.3925781 Z M 12.182199,10.998047 C 12.143659,11.302418 12.076847,11.632372 11.965402,12 c 0.07868,-0.07699 0.151779,-0.15926 0.228515,-0.238281 0.01977,-0.276373 0.01993,-0.533314 -0.01172,-0.763672 z m 6,0 C 18.143659,11.302418 18.076847,11.632372 17.965402,12 c 0.07868,-0.07699 0.151779,-0.15926 0.228515,-0.238281 0.01977,-0.276373 0.01993,-0.533314 -0.01172,-0.763672 z m 6,0 C 24.143659,11.302418 24.076847,11.632372 23.965402,12 c 0.07868,-0.07699 0.151779,-0.15926 0.228515,-0.238281 0.01977,-0.276373 0.01993,-0.533314 -0.01172,-0.763672 z"
     id="path32109"
     sodipodi:nodetypes="csccccccccccccccccccccccccccsccsssccsssccss" />
</svg>
