<?xml version="1.0" encoding="UTF-8" standalone="no"?>
<svg
   width="32"
   height="32"
   version="1.1"
   id="svg1622927"
   sodipodi:docname="pencil.svg"
   inkscape:version="1.1.2 (0a00cf5339, 2022-02-04)"
   xmlns:inkscape="http://www.inkscape.org/namespaces/inkscape"
   xmlns:sodipodi="http://sodipodi.sourceforge.net/DTD/sodipodi-0.dtd"
   xmlns="http://www.w3.org/2000/svg"
   xmlns:svg="http://www.w3.org/2000/svg">
  <defs
     id="defs1622931" />
  <sodipodi:namedview
     id="namedview1622929"
     pagecolor="#ffffff"
     bordercolor="#666666"
     borderopacity="1.0"
     inkscape:pageshadow="2"
     inkscape:pageopacity="0.0"
     inkscape:pagecheckerboard="0"
     showgrid="false"
     inkscape:zoom="25.84375"
     inkscape:cx="15.980653"
     inkscape:cy="16"
     inkscape:window-width="1920"
     inkscape:window-height="1051"
     inkscape:window-x="0"
     inkscape:window-y="29"
     inkscape:window-maximized="1"
     inkscape:current-layer="svg1622927" />
  <circle
     fill="#e4e4e4"
     cx="16"
     cy="16"
     r="14"
     id="circle1622915" />
  <path
     fill="#4e4e4e"
     fill-rule="evenodd"
     d="M 19,11 12.438932,14.374263 12,15.129506 v 0 V 29.41 c 1.29776,0.389182 2.645142,0.587921 4,0.59 3.765328,-0.005 7.369919,-1.526488 10,-4.221 v -10.671191 0 l -0.365599,-0.695831 z"
     id="path1622917"
     sodipodi:nodetypes="ccccccccccc" />
  <path
     fill="#fea332"
     fill-rule="evenodd"
     d="m 19.265783,12.146225 -0.656261,0.0686 -5.225204,2.874733 L 13,15.763433 v 0 L 13,29.664 c 0.984967,0.219801 1.990813,0.332455 3,0.336 3.294228,-0.0053 6.481093,-1.172013 9,-3.295 V 15.748975 L 24.668046,15.11837 v 0 z"
     id="path1622919"
     sodipodi:nodetypes="ccccccccccccc" />
  <path
     fill="#4e4e4e"
     d="m21 15a2 1 0 0 1 -1 0.86602 2 1 0 0 1 -2 0 2 1 0 0 1 -1 -0.866"
     id="path1622921" />
  <path
     fill="#fff"
     opacity=".2"
     d="m16 2a14 14 0 0 0 -14 14 14 14 0 0 0 0.0215 0.586 14 14 0 0 1 13.978 -13.586 14 14 0 0 1 13.979 13.414 14 14 0 0 0 0.021 -0.414 14 14 0 0 0 -14 -14z"
     id="path1622923" />
  <path
     opacity=".2"
     d="m29.979 16.414a14 14 0 0 1 -13.979 13.586 14 14 0 0 1 -13.978 -13.414 14 14 0 0 0 -0.022 0.414 14 14 0 0 0 14 14 14 14 0 0 0 14 -14 14 14 0 0 0 -0.021 -0.586z"
     id="path1622925" />
</svg>
