<?xml version="1.0" encoding="UTF-8" standalone="no"?>
<svg
   width="32"
   height="32"
   version="1"
   id="svg2057211"
   sodipodi:docname="poedit.svg"
   inkscape:version="1.1.2 (0a00cf5339, 2022-02-04)"
   xmlns:inkscape="http://www.inkscape.org/namespaces/inkscape"
   xmlns:sodipodi="http://sodipodi.sourceforge.net/DTD/sodipodi-0.dtd"
   xmlns="http://www.w3.org/2000/svg"
   xmlns:svg="http://www.w3.org/2000/svg">
  <defs
     id="defs2057215" />
  <sodipodi:namedview
     id="namedview2057213"
     pagecolor="#ffffff"
     bordercolor="#666666"
     borderopacity="1.0"
     inkscape:pageshadow="2"
     inkscape:pageopacity="0.0"
     inkscape:pagecheckerboard="0"
     showgrid="false"
     inkscape:zoom="25.84375"
     inkscape:cx="15.980653"
     inkscape:cy="16"
     inkscape:window-width="1920"
     inkscape:window-height="1051"
     inkscape:window-x="0"
     inkscape:window-y="29"
     inkscape:window-maximized="1"
     inkscape:current-layer="svg2057211" />
  <rect
     style="opacity:0.2"
     width="28"
     height="28"
     x="2"
     y="3"
     rx="1.4"
     ry="1.4"
     id="rect2057195" />
  <rect
     style="fill:#dd9f59"
     width="28"
     height="28"
     x="2"
     y="2"
     rx="1.4"
     ry="1.4"
     id="rect2057197" />
  <rect
     style="opacity:0.2"
     width="22"
     height="22"
     x="-28"
     y="-27"
     rx="1.333"
     ry="1.375"
     transform="matrix(0,-1,-1,0,0,0)"
     id="rect2057199" />
  <rect
     style="fill:#ffffff"
     width="22"
     height="22"
     x="-27"
     y="-27"
     rx="1.333"
     ry="1.375"
     transform="matrix(0,-1,-1,0,0,0)"
     id="rect2057201" />
  <path
     style="fill:#6b6b6b"
     d="m 12.029297,5.9992577 c -0.868806,0.5336414 -3.2069225,1.1906119 -4.9821018,1.6892929 -0.3818557,0.1072703 0.3095318,-0.089819 0,0 v 0 C 7.3838571,7.6549282 6.7864416,8.0669614 7.1928018,8.0227329 7.7901861,7.957713 8.4119278,7.8820396 8.908205,7.7980857 V 9.024649 H 6.011721 l 0.07031,1.035155 h 2.423828 c -0.3364412,1.383452 -1.0301682,2.119257 -1.8626972,3.048205 -0.1977654,0.220669 0.2105016,-0.253738 0,0 l 0.2836212,0.335568 c 0.2454187,-0.17782 -0.2405018,0.17381 0,0 C 7.6940675,12.889065 8.4099644,12.32707 8.90625,11.579609 V 15 h 0.265625 c 0.707587,0 1.866396,-0.273242 1.878906,-0.357422 v -3.484844 c 0.527846,0.475517 0.628733,1.031495 0.726563,1.623047 0.179741,0.151297 0.374946,0.222656 0.554687,0.222656 0.37427,0 0.69336,-0.270754 0.69336,-0.648437 0,-0.510783 -0.184028,-0.983193 -1.97461,-1.384766 v -0.91043 h 2.34375 c 0.375408,0 0.555644,-0.859281 0.652344,-1.011718 L 12.029297,7.9992577 11.580078,9.022696 H 11.050781 V 7.5148827 c 0.62568,-0.1422 1.209536,-0.283581 1.681641,-0.425781 0.274247,0.00698 1.296875,-0.089844 1.296875,-0.089844 z"
     id="path2057203"
     sodipodi:nodetypes="csccscccccsccsccscccssccscccccccc" />
  <path
     style="fill:#6b6b6b"
     d="M 15,8.0305074 15,15 c 1.304827,-10e-7 1.972656,-0.521121 1.972656,-0.496094 l 0,-0.464844 2.021485,0 0,0.736329 c 1.098922,0 1.986328,-0.319045 1.986328,-0.341797 l 0,-5.270274 C 21.271695,9.1053 21.49508,9.011626 21.578125,8.9035543 l -1.605469,-0.8652344 -1.115234,0.9609375 -1.814453,0 z m 1.972656,2.0039056 2.021485,0 0,3.004649 -2.021485,0 z"
     id="path2057205" />
  <path
     style="fill:#6b6b6b"
     d="m 15,18 0,3 0,2 0,3 2,0 0,-3 1.132383,0 c 0.455457,1.763986 2.045353,2.99736 3.867187,3 2.209139,0 4,-1.790861 4,-4 0,-2.209139 -1.790861,-4 -4,-4 -1.822562,0.0018 -3.413501,1.235311 -3.86914,3 L 17,21 17,18 Z m 6.99957,2 c 1.10457,0 2,0.895431 2,2 0,1.104569 -0.89543,2 -2,2 -1.104569,0 -2,-0.895431 -2,-2 0,-1.104569 0.895431,-2 2,-2 z"
     id="path2057207" />
  <path
     style="fill:#ffffff;opacity:0.2"
     d="M 3.4003906 2 C 2.6247906 2 2 2.6247906 2 3.4003906 L 2 4.4003906 C 2 3.6247906 2.6247906 3 3.4003906 3 L 28.599609 3 C 29.375209 3 30 3.6247906 30 4.4003906 L 30 3.4003906 C 30 2.6247906 29.375209 2 28.599609 2 L 3.4003906 2 z"
     id="path2057209" />
</svg>
