<?xml version="1.0" encoding="UTF-8" standalone="no"?>
<svg
   width="512"
   height="512"
   version="1.1"
   viewBox="0 0 384 384"
   id="svg209"
   sodipodi:docname="safeeyes.svg"
   inkscape:version="1.1.2 (0a00cf5339, 2022-02-04)"
   xmlns:inkscape="http://www.inkscape.org/namespaces/inkscape"
   xmlns:sodipodi="http://sodipodi.sourceforge.net/DTD/sodipodi-0.dtd"
   xmlns="http://www.w3.org/2000/svg"
   xmlns:svg="http://www.w3.org/2000/svg">
  <sodipodi:namedview
     id="namedview211"
     pagecolor="#ffffff"
     bordercolor="#666666"
     borderopacity="1.0"
     inkscape:pageshadow="2"
     inkscape:pageopacity="0.0"
     inkscape:pagecheckerboard="0"
     showgrid="false"
     inkscape:zoom="1.6425781"
     inkscape:cx="255.6956"
     inkscape:cy="256"
     inkscape:window-width="1920"
     inkscape:window-height="1051"
     inkscape:window-x="0"
     inkscape:window-y="29"
     inkscape:window-maximized="1"
     inkscape:current-layer="g207" />
  <defs
     id="defs163">
    <clipPath
       id="clipPath129">
      <rect
         width="384"
         height="384"
         id="rect127" />
    </clipPath>
    <clipPath
       id="clipPath133">
      <rect
         width="384"
         height="384"
         id="rect131" />
    </clipPath>
    <clipPath
       id="clipPath137">
      <rect
         width="384"
         height="384"
         id="rect135" />
    </clipPath>
    <clipPath
       id="clipPath141">
      <rect
         width="384"
         height="384"
         id="rect139" />
    </clipPath>
    <clipPath
       id="clipPath145">
      <rect
         width="384"
         height="384"
         id="rect143" />
    </clipPath>
    <clipPath
       id="clipPath149">
      <rect
         width="384"
         height="384"
         id="rect147" />
    </clipPath>
    <clipPath
       id="clipPath153">
      <rect
         width="384"
         height="384"
         id="rect151" />
    </clipPath>
    <clipPath
       id="clipPath157">
      <rect
         width="384"
         height="384"
         id="rect155" />
    </clipPath>
    <clipPath
       id="clipPath161">
      <rect
         width="384"
         height="384"
         id="rect159" />
    </clipPath>
  </defs>
  <g
     shape-rendering="auto"
     id="g173">
    <path
       d="m191.97 31.248c-16.591-0.0016-33.457 2.4591-50.117 7.6309-88.862 27.585-138.61 122.02-110.93 210.64 27.674 88.622 122.37 138.19 211.23 110.6 88.855-27.583 138.61-122.02 110.93-210.64-22.491-72.004-89.222-118.23-161.12-118.23z"
       color="#000000"
       color-rendering="auto"
       dominant-baseline="auto"
       image-rendering="auto"
       opacity=".3"
       solid-color="#000000"
       style="font-feature-settings:normal;font-variant-alternates:normal;font-variant-caps:normal;font-variant-ligatures:normal;font-variant-numeric:normal;font-variant-position:normal;isolation:auto;mix-blend-mode:normal;shape-padding:0;text-decoration-color:#000000;text-decoration-line:none;text-decoration-style:solid;text-indent:0;text-orientation:mixed;text-transform:none;white-space:normal"
       id="path165" />
    <path
       d="m191.97 23.748c-16.591-0.0016-33.457 2.4591-50.117 7.6309-88.862 27.585-138.61 122.02-110.93 210.64 27.674 88.622 122.37 138.19 211.23 110.6 88.855-27.583 138.61-122.02 110.93-210.64-22.491-72.004-89.222-118.23-161.12-118.23z"
       color="#000000"
       color-rendering="auto"
       dominant-baseline="auto"
       fill="#fff"
       image-rendering="auto"
       solid-color="#000000"
       style="font-feature-settings:normal;font-variant-alternates:normal;font-variant-caps:normal;font-variant-ligatures:normal;font-variant-numeric:normal;font-variant-position:normal;isolation:auto;mix-blend-mode:normal;shape-padding:0;text-decoration-color:#000000;text-decoration-line:none;text-decoration-style:solid;text-indent:0;text-orientation:mixed;text-transform:none;white-space:normal"
       id="path167" />
    <path
       d="m192.03 54.233c62.059-0.04441 119.48 39.781 138.91 101.99h-2e-3c23.91 76.568-18.844 157.76-95.672 181.61-76.834 23.851-158.3-18.807-182.21-95.375h-0.0019c-23.916-76.565 18.84-157.76 95.674-181.61 14.405-4.4717 28.974-6.6042 43.295-6.6144z"
       color="#000000"
       color-rendering="auto"
       dominant-baseline="auto"
       fill="#010101"
       image-rendering="auto"
       opacity=".3"
       solid-color="#000000"
       style="font-feature-settings:normal;font-variant-alternates:normal;font-variant-caps:normal;font-variant-ligatures:normal;font-variant-numeric:normal;font-variant-position:normal;isolation:auto;mix-blend-mode:normal;shape-padding:0;text-decoration-color:#000000;text-decoration-line:none;text-decoration-style:solid;text-indent:0;text-orientation:mixed;text-transform:none;white-space:normal"
       id="path169" />
    <path
       d="m192.03 47.054c62.059-0.04441 119.48 39.781 138.91 101.99h-2e-3c23.91 76.568-18.844 157.76-95.672 181.61-76.834 23.851-158.3-18.807-182.21-95.375h-0.0019c-23.916-76.565 18.84-157.76 95.674-181.61 14.405-4.4717 28.974-6.6042 43.295-6.6144z"
       color="#000000"
       color-rendering="auto"
       dominant-baseline="auto"
       fill="#16171c"
       image-rendering="auto"
       solid-color="#000000"
       style="font-feature-settings:normal;font-variant-alternates:normal;font-variant-caps:normal;font-variant-ligatures:normal;font-variant-numeric:normal;font-variant-position:normal;isolation:auto;mix-blend-mode:normal;shape-padding:0;text-decoration-color:#000000;text-decoration-line:none;text-decoration-style:solid;text-indent:0;text-orientation:mixed;text-transform:none;white-space:normal"
       id="path171" />
  </g>
  <g
     transform="matrix(.93216 0 0 .92933 -320.23 161.61)"
     fill="#fff"
     id="g199">
    <rect
       x="540.69"
       y="-99.232"
       width="17.645"
       height="52.935"
       rx="6.0655"
       ry="6.0655"
       style="paint-order:normal"
       id="rect175" />
    <rect
       transform="rotate(30)"
       x="483.5"
       y="-378.39"
       width="17.645"
       height="52.935"
       rx="6.0655"
       ry="6.0655"
       style="paint-order:normal"
       id="rect177" />
    <rect
       transform="rotate(60)"
       x="294.4"
       y="-591.56"
       width="17.645"
       height="52.935"
       rx="6.0655"
       ry="6.0655"
       style="paint-order:normal"
       id="rect179" />
    <rect
       transform="rotate(90)"
       x="24.054"
       y="-681.62"
       width="17.645"
       height="52.935"
       rx="6.0655"
       ry="6.0655"
       style="paint-order:normal"
       id="rect181" />
    <rect
       transform="rotate(120)"
       x="-255.11"
       y="-624.44"
       width="17.645"
       height="52.935"
       rx="6.0655"
       ry="6.0655"
       style="paint-order:normal"
       id="rect183" />
    <rect
       transform="rotate(150)"
       x="-468.27"
       y="-435.33"
       width="17.645"
       height="52.935"
       rx="6.0655"
       ry="6.0655"
       style="paint-order:normal"
       id="rect185" />
    <rect
       transform="scale(-1)"
       x="-558.33"
       y="-164.98"
       width="17.645"
       height="52.935"
       rx="6.0655"
       ry="6.0655"
       style="paint-order:normal"
       id="rect187" />
    <rect
       transform="rotate(210)"
       x="-501.15"
       y="114.18"
       width="17.645"
       height="52.935"
       rx="6.0655"
       ry="6.0655"
       style="paint-order:normal"
       id="rect189" />
    <rect
       transform="rotate(240)"
       x="-312.05"
       y="327.34"
       width="17.645"
       height="52.935"
       rx="6.0655"
       ry="6.0655"
       style="paint-order:normal"
       id="rect191" />
    <rect
       transform="rotate(-90)"
       x="-41.699"
       y="417.4"
       width="17.645"
       height="52.935"
       rx="6.0655"
       ry="6.0655"
       style="paint-order:normal"
       id="rect193" />
    <rect
       transform="rotate(-60)"
       x="237.46"
       y="360.22"
       width="17.645"
       height="52.935"
       rx="6.0655"
       ry="6.0655"
       style="paint-order:normal"
       id="rect195" />
    <rect
       transform="rotate(-30)"
       x="450.63"
       y="171.12"
       width="17.645"
       height="52.935"
       rx="6.0655"
       ry="6.0655"
       style="paint-order:normal"
       id="rect197" />
  </g>
  <g
     id="g207">
    <path
       transform="matrix(.46603 -.88477 .88593 .46381 0 0)"
       d="m44.72 252.69a132.95 133.18 0 0 1-33.756 99.353l-98.798-89.115z"
       style="paint-order:normal"
       id="path201" />
    <path
       transform="matrix(0.46603,-0.88477,0.88593,0.46381,0,0)"
       d="m 44.316799,249.73438 c 0,0 7.313006,3.4976 7.376308,5.5151 0.984726,31.3841 -9.138574,62.08991 -28.526959,86.69319 -1.775184,2.25266 -8.856532,-0.2619 -10.785641,1.88427 v 0 l -81.745599,-73.73387 7.027308,-12.12107 v 0 z"
       fill="#4aaee6"
       style="paint-order:normal"
       id="path203"
       sodipodi:nodetypes="cssccccccc" />
    <path
       transform="scale(.75)"
       d="m255.96 31.664c-22.121-0.002666-44.608 3.2782-66.822 10.174-97.945 30.404-160.25 121.72-158.05 219.21 2.1198-93.681 63.466-179.85 158.05-209.21 22.214-6.8957 44.701-10.176 66.822-10.174 95.858 0.009374 184.83 61.638 214.82 157.64 6.3958 20.482 9.684 41.196 10.143 61.639 0.53651-23.665-2.7015-47.81-10.143-71.639-29.988-96.005-118.96-157.63-214.82-157.64z"
       color="#000000"
       color-rendering="auto"
       dominant-baseline="auto"
       fill="#282828"
       image-rendering="auto"
       opacity=".1"
       shape-rendering="auto"
       solid-color="#000000"
       style="font-feature-settings:normal;font-variant-alternates:normal;font-variant-caps:normal;font-variant-ligatures:normal;font-variant-numeric:normal;font-variant-position:normal;isolation:auto;mix-blend-mode:normal;shape-padding:0;text-decoration-color:#000000;text-decoration-line:none;text-decoration-style:solid;text-indent:0;text-orientation:mixed;text-transform:none;white-space:normal"
       id="path205" />
  </g>
</svg>
