<?xml version="1.0" encoding="UTF-8" standalone="no"?>
<svg
   width="512"
   height="512"
   version="1.1"
   viewBox="0 0 384 384"
   id="svg55556"
   sodipodi:docname="serviio.svg"
   inkscape:version="1.1.2 (0a00cf5339, 2022-02-04)"
   xmlns:inkscape="http://www.inkscape.org/namespaces/inkscape"
   xmlns:sodipodi="http://sodipodi.sourceforge.net/DTD/sodipodi-0.dtd"
   xmlns="http://www.w3.org/2000/svg"
   xmlns:svg="http://www.w3.org/2000/svg">
  <sodipodi:namedview
     id="namedview55558"
     pagecolor="#ffffff"
     bordercolor="#666666"
     borderopacity="1.0"
     inkscape:pageshadow="2"
     inkscape:pageopacity="0.0"
     inkscape:pagecheckerboard="0"
     showgrid="false"
     inkscape:zoom="1.6152344"
     inkscape:cx="255.69045"
     inkscape:cy="256"
     inkscape:window-width="1920"
     inkscape:window-height="1051"
     inkscape:window-x="0"
     inkscape:window-y="29"
     inkscape:window-maximized="1"
     inkscape:current-layer="svg55556" />
  <defs
     id="defs55544">
    <clipPath
       id="clipPath55262">
      <rect
         width="384"
         height="384"
         id="rect55260" />
    </clipPath>
    <clipPath
       id="clipPath55266">
      <rect
         width="384"
         height="384"
         id="rect55264" />
    </clipPath>
    <clipPath
       id="clipPath55270">
      <rect
         width="384"
         height="384"
         id="rect55268" />
    </clipPath>
    <clipPath
       id="clipPath55274">
      <rect
         width="384"
         height="384"
         id="rect55272" />
    </clipPath>
    <clipPath
       id="clipPath55278">
      <rect
         width="384"
         height="384"
         id="rect55276" />
    </clipPath>
    <clipPath
       id="clipPath55282">
      <rect
         width="384"
         height="384"
         id="rect55280" />
    </clipPath>
    <clipPath
       id="clipPath55286">
      <rect
         width="384"
         height="384"
         id="rect55284" />
    </clipPath>
    <clipPath
       id="clipPath55290">
      <rect
         width="384"
         height="384"
         id="rect55288" />
    </clipPath>
    <clipPath
       id="clipPath55294">
      <rect
         width="384"
         height="384"
         id="rect55292" />
    </clipPath>
    <clipPath
       id="clipPath55298">
      <rect
         width="384"
         height="384"
         id="rect55296" />
    </clipPath>
    <clipPath
       id="clipPath55302">
      <rect
         width="384"
         height="384"
         id="rect55300" />
    </clipPath>
    <clipPath
       id="clipPath55306">
      <rect
         width="384"
         height="384"
         id="rect55304" />
    </clipPath>
    <clipPath
       id="clipPath55310">
      <rect
         width="384"
         height="384"
         id="rect55308" />
    </clipPath>
    <clipPath
       id="clipPath55314">
      <rect
         width="384"
         height="384"
         id="rect55312" />
    </clipPath>
    <clipPath
       id="clipPath55318">
      <rect
         width="384"
         height="384"
         id="rect55316" />
    </clipPath>
    <clipPath
       id="clipPath55322">
      <rect
         width="384"
         height="384"
         id="rect55320" />
    </clipPath>
    <clipPath
       id="clipPath55326">
      <rect
         width="384"
         height="384"
         id="rect55324" />
    </clipPath>
    <clipPath
       id="clipPath55330">
      <rect
         width="384"
         height="384"
         id="rect55328" />
    </clipPath>
    <clipPath
       id="clipPath55334">
      <rect
         width="384"
         height="384"
         id="rect55332" />
    </clipPath>
    <clipPath
       id="clipPath55338">
      <rect
         width="384"
         height="384"
         id="rect55336" />
    </clipPath>
    <clipPath
       id="clipPath55342">
      <rect
         width="384"
         height="384"
         id="rect55340" />
    </clipPath>
    <clipPath
       id="clipPath55346">
      <rect
         width="384"
         height="384"
         id="rect55344" />
    </clipPath>
    <clipPath
       id="clipPath55350">
      <rect
         width="384"
         height="384"
         id="rect55348" />
    </clipPath>
    <clipPath
       id="clipPath55354">
      <rect
         width="384"
         height="384"
         id="rect55352" />
    </clipPath>
    <clipPath
       id="clipPath55358">
      <rect
         width="384"
         height="384"
         id="rect55356" />
    </clipPath>
    <clipPath
       id="clipPath55362">
      <rect
         width="384"
         height="384"
         id="rect55360" />
    </clipPath>
    <clipPath
       id="clipPath55366">
      <rect
         width="384"
         height="384"
         id="rect55364" />
    </clipPath>
    <clipPath
       id="clipPath55370">
      <rect
         width="384"
         height="384"
         id="rect55368" />
    </clipPath>
    <clipPath
       id="clipPath55374">
      <rect
         width="384"
         height="384"
         id="rect55372" />
    </clipPath>
    <clipPath
       id="clipPath55378">
      <rect
         width="384"
         height="384"
         id="rect55376" />
    </clipPath>
    <clipPath
       id="clipPath55382">
      <rect
         width="384"
         height="384"
         id="rect55380" />
    </clipPath>
    <clipPath
       id="clipPath55386">
      <rect
         width="384"
         height="384"
         id="rect55384" />
    </clipPath>
    <clipPath
       id="clipPath55390">
      <rect
         width="384"
         height="384"
         id="rect55388" />
    </clipPath>
    <clipPath
       id="clipPath55394">
      <rect
         width="384"
         height="384"
         id="rect55392" />
    </clipPath>
    <clipPath
       id="clipPath55398">
      <rect
         width="384"
         height="384"
         id="rect55396" />
    </clipPath>
    <clipPath
       id="clipPath55402">
      <rect
         width="384"
         height="384"
         id="rect55400" />
    </clipPath>
    <clipPath
       id="clipPath55406">
      <rect
         width="384"
         height="384"
         id="rect55404" />
    </clipPath>
    <clipPath
       id="clipPath55410">
      <rect
         width="384"
         height="384"
         id="rect55408" />
    </clipPath>
    <clipPath
       id="clipPath55414">
      <rect
         width="384"
         height="384"
         id="rect55412" />
    </clipPath>
    <clipPath
       id="clipPath55418">
      <rect
         width="384"
         height="384"
         id="rect55416" />
    </clipPath>
    <clipPath
       id="clipPath55422">
      <rect
         width="384"
         height="384"
         id="rect55420" />
    </clipPath>
    <clipPath
       id="clipPath55426">
      <rect
         width="384"
         height="384"
         id="rect55424" />
    </clipPath>
    <clipPath
       id="clipPath55430">
      <rect
         width="384"
         height="384"
         id="rect55428" />
    </clipPath>
    <clipPath
       id="clipPath55434">
      <rect
         width="384"
         height="384"
         id="rect55432" />
    </clipPath>
    <clipPath
       id="clipPath55438">
      <rect
         width="384"
         height="384"
         id="rect55436" />
    </clipPath>
    <clipPath
       id="clipPath55442">
      <rect
         width="384"
         height="384"
         id="rect55440" />
    </clipPath>
    <clipPath
       id="clipPath55446">
      <rect
         width="384"
         height="384"
         id="rect55444" />
    </clipPath>
    <clipPath
       id="clipPath55450">
      <rect
         width="384"
         height="384"
         id="rect55448" />
    </clipPath>
    <clipPath
       id="clipPath55454">
      <rect
         width="384"
         height="384"
         id="rect55452" />
    </clipPath>
    <clipPath
       id="clipPath55458">
      <rect
         width="384"
         height="384"
         id="rect55456" />
    </clipPath>
    <clipPath
       id="clipPath55462">
      <rect
         width="384"
         height="384"
         id="rect55460" />
    </clipPath>
    <clipPath
       id="clipPath55466">
      <rect
         width="384"
         height="384"
         id="rect55464" />
    </clipPath>
    <clipPath
       id="clip2-08">
      <path
         d="m111 119h177v23h-177z"
         id="path55468" />
    </clipPath>
    <clipPath
       id="clipPath55473">
      <path
         d="m368.64 199.88c0-93.234-75.602-168.75-168.75-168.75-93.152 0-168.75 75.516-168.75 168.75s75.598 168.75 168.75 168.75c93.148 0 168.75-75.516 168.75-168.75z"
         id="path55471" />
    </clipPath>
    <clipPath
       id="clip4-06">
      <path
         d="m177 130h45v89h-45z"
         id="path55475" />
    </clipPath>
    <clipPath
       id="clipPath55480">
      <path
         d="m368.64 199.88c0-93.234-75.602-168.75-168.75-168.75-93.152 0-168.75 75.516-168.75 168.75s75.598 168.75 168.75 168.75c93.148 0 168.75-75.516 168.75-168.75z"
         id="path55478" />
    </clipPath>
    <clipPath
       id="clip6">
      <path
         d="m111 207h177v89h-177z"
         id="path55482" />
    </clipPath>
    <clipPath
       id="clipPath55487">
      <path
         d="m368.64 199.88c0-93.234-75.602-168.75-168.75-168.75-93.152 0-168.75 75.516-168.75 168.75s75.598 168.75 168.75 168.75c93.148 0 168.75-75.516 168.75-168.75z"
         id="path55485" />
    </clipPath>
    <clipPath
       id="clip1-6">
      <rect
         width="384"
         height="384"
         id="rect55489" />
    </clipPath>
    <g
       clip-path="url(#clip1-6)"
       id="g55498">
      <g
         clip-path="url(#clip2-08)"
         id="g55492" />
      <g
         clip-path="url(#clip4-06)"
         id="g55494" />
      <g
         clip-path="url(#clip6)"
         id="g55496" />
    </g>
    <clipPath
       id="clipPath55502">
      <rect
         width="384"
         height="384"
         id="rect55500" />
    </clipPath>
    <clipPath
       id="clipPath55506">
      <rect
         width="384"
         height="384"
         id="rect55504" />
    </clipPath>
    <clipPath
       id="clipPath55510">
      <rect
         width="384"
         height="384"
         id="rect55508" />
    </clipPath>
    <clipPath
       id="clipPath55514">
      <rect
         width="384"
         height="384"
         id="rect55512" />
    </clipPath>
    <clipPath
       id="clipPath55518">
      <rect
         width="384"
         height="384"
         id="rect55516" />
    </clipPath>
    <clipPath
       id="clipPath55522">
      <rect
         width="384"
         height="384"
         id="rect55520" />
    </clipPath>
    <clipPath
       id="clipPath55526">
      <rect
         width="384"
         height="384"
         id="rect55524" />
    </clipPath>
    <clipPath
       id="clipPath55530">
      <rect
         width="384"
         height="384"
         id="rect55528" />
    </clipPath>
    <clipPath
       id="clipPath55534">
      <rect
         width="384"
         height="384"
         id="rect55532" />
    </clipPath>
    <clipPath
       id="clipPath55538">
      <rect
         width="384"
         height="384"
         id="rect55536" />
    </clipPath>
    <clipPath
       id="clipPath55542">
      <rect
         width="384"
         height="384"
         id="rect55540" />
    </clipPath>
  </defs>
  <path
     d="m360 343.2v-302.39c0-9.2773-7.5234-16.797-16.801-16.797h-302.39c-9.2773 0-16.797 7.5195-16.797 16.797v302.39c0 9.2773 7.5195 16.801 16.797 16.801h302.39c9.2773 0 16.801-7.5234 16.801-16.801z"
     style="fill:#ffc72e"
     id="path55546" />
  <path
     d="m192 91.504c-45.668 0.11328-86.328 28.941-101.55 72h-30.445l48 72 48-72h-26.203c12.832-22.23 36.535-35.949 62.207-36 30.562 0.0352 57.773 19.367 67.871 48.215l16.125-24.215 23.066 34.594c-6.7578-54.004-52.641-94.543-107.06-94.594zm84 72-48 72h26.203c-12.836 22.23-36.535 35.945-62.207 35.996-30.562-0.0352-57.773-19.363-67.871-48.215l-16.129 24.215-23.063-34.594c6.7578 54.004 52.641 94.543 107.06 94.594 45.672-0.11327 86.332-28.941 101.55-71.996h30.445l-48-72z"
     style="opacity:.3"
     id="path55548" />
  <path
     d="m 192,84.004 c -45.668,0.11328 -86.328,28.941 -101.55,72 H 69.043502 l -3.521258,8.27587 v 0 L 108.005,228.004 150.50922,164.24767 v 0 L 148.61075,156.004 H 129.802 c 12.832,-22.23 36.535,-35.949 62.207,-36 28.15198,0.0324 53.46063,16.43811 65.16962,41.57275 1.00238,2.15171 -0.79629,-2.27485 0,0 l 6.89406,0.34608 11.93232,-17.91883 16.86698,25.29681 v 0 c -0.51741,-4.13482 4.93484,1.10649 3.97243,-2.85833 C 285.23707,118.62361 242.26341,84.004 192.011,84.004 Z m 84,72 -41.56843,62.35265 1.7223,9.64735 v 0 H 254.203 c -12.836,22.23 -36.535,35.945 -62.207,35.996 -28.50489,-0.0328 -54.09471,-16.84852 -65.60353,-42.5214 -0.83056,-1.85273 -1.58778,3.74841 -2.26747,1.8064 L 120.75925,220.83811 107.996,240 91.107196,214.66716 v 0 c 0.464847,3.71476 -5.059377,-1.89536 -4.234235,1.68318 C 98.043493,264.79551 141.3173,299.95251 191.993,300 c 45.672,-0.11328 86.332,-28.941 101.55,-71.996 h 23.47761 v 0 l 0.8385,-9.19334 L 275.988,156.004 Z"
     style="fill:#272a34"
     id="path55550"
     sodipodi:nodetypes="sccccccccccscccccsssccccccscccccsccccccc" />
  <path
     transform="scale(.75)"
     d="m32.01 447.6v10c0 12.37 10.027 22.4 22.396 22.4h403.19c12.37 0 22.4-10.031 22.4-22.4v-10c0 12.37-10.031 22.4-22.4 22.4h-403.19c-12.37 0-22.396-10.031-22.396-22.4z"
     style="opacity:.3;stroke-width:1.3333"
     id="path55552" />
  <path
     transform="scale(.75)"
     d="m54.406 32.01c-12.37 0-22.396 10.027-22.396 22.396v10c0-12.37 10.027-22.396 22.396-22.396h403.19c12.37 0 22.4 10.027 22.4 22.396v-10c0-12.37-10.031-22.396-22.4-22.396h-403.19z"
     style="fill:#fff;opacity:.3;stroke-width:1.3333"
     id="path55554" />
</svg>
