<?xml version="1.0" encoding="UTF-8" standalone="no"?>
<svg
   width="512"
   height="512"
   version="1.1"
   viewBox="0 0 384 384"
   id="svg88996"
   sodipodi:docname="steadyflow.svg"
   inkscape:version="1.1.2 (0a00cf5339, 2022-02-04)"
   xmlns:inkscape="http://www.inkscape.org/namespaces/inkscape"
   xmlns:sodipodi="http://sodipodi.sourceforge.net/DTD/sodipodi-0.dtd"
   xmlns="http://www.w3.org/2000/svg"
   xmlns:svg="http://www.w3.org/2000/svg">
  <sodipodi:namedview
     id="namedview88998"
     pagecolor="#ffffff"
     bordercolor="#666666"
     borderopacity="1.0"
     inkscape:pageshadow="2"
     inkscape:pageopacity="0.0"
     inkscape:pagecheckerboard="0"
     showgrid="false"
     inkscape:zoom="1.6152344"
     inkscape:cx="255.69045"
     inkscape:cy="256"
     inkscape:window-width="1920"
     inkscape:window-height="1051"
     inkscape:window-x="0"
     inkscape:window-y="29"
     inkscape:window-maximized="1"
     inkscape:current-layer="svg88996" />
  <defs
     id="defs88984">
    <clipPath
       id="clipPath88974">
      <rect
         width="384"
         height="384"
         id="rect88972" />
    </clipPath>
    <clipPath
       id="clipPath88978">
      <rect
         width="384"
         height="384"
         id="rect88976" />
    </clipPath>
    <clipPath
       id="clipPath88982">
      <rect
         width="384"
         height="384"
         id="rect88980" />
    </clipPath>
  </defs>
  <path
     d="m192 72c-46.598 0-86.281 27.664-103.36 66.816-43.375 6.25-76.641 42.109-76.641 85.906 0 48.207 40.293 87.277 90 87.277h191.26c43.484 0 78.742-34.188 78.742-76.367 0-39.191-30.395-71.316-69.613-75.672-10.223-50.043-55.785-87.961-110.39-87.961z"
     fill="#4aaee6"
     id="path88986" />
  <path
     d="m 156.01,140.25 v 58.5 h -24.004 l 54.91939,54.91939 10.32505,-0.16436 v 0 L 222.003,228.75 l 30,-30 H 228.01 v -58.5 z"
     opacity="0.3"
     id="path88988"
     sodipodi:nodetypes="ccccccccccc" />
  <path
     d="m 156.01,132.75 v 58.5 h -14.97945 v 0 l -1.66996,7.35459 48.66658,48.66658 7.83489,0.12238 v 0 L 222.003,221.25 244.3353,198.9177 242.27987,191.25 v 0 H 228.01 v -58.5 z"
     fill="#ffffff"
     id="path88990"
     sodipodi:nodetypes="ccccccccccccccc" />
  <path
     transform="scale(.75)"
     d="m16.115 294.57c-0.073965 1.6763-0.11523 3.3618-0.11523 5.0566 0 64.276 53.724 116.37 120 116.37h255.01c57.979 0 104.99-45.583 104.99-101.82 0-1.6846-0.04369-3.3594-0.12695-5.0234-2.6764 53.927-48.605 96.846-104.86 96.846h-255.01c-64.567 0-117.21-49.444-119.88-111.43z"
     opacity=".3"
     stroke-width="1.3333"
     id="path88992" />
  <path
     transform="scale(.75)"
     d="m256 96c-62.13 0-115.04 36.885-137.81 89.088-57.833 8.3333-102.19 56.147-102.19 114.54 0 1.3389 0.031877 2.6701 0.078125 3.998 1.9731-56.566 45.603-102.4 102.11-110.54 22.771-52.203 75.682-89.088 137.81-89.088 72.802 0 133.55 50.557 147.18 117.28 50.938 5.6569 90.705 46.449 92.73 96.857 0.0519-1.315 0.08789-2.6336 0.08789-3.9609 0-52.255-40.527-95.089-92.818-100.9-13.63-66.724-74.38-117.28-147.18-117.28z"
     fill="#fff"
     opacity=".3"
     stroke-width="1.3333"
     id="path88994" />
</svg>
