<?xml version="1.0" encoding="UTF-8" standalone="no"?>
<svg
   width="32"
   height="32"
   version="1.1"
   id="svg145951"
   sodipodi:docname="synology-cloud-station-drive.svg"
   inkscape:version="1.1.2 (0a00cf5339, 2022-02-04)"
   xmlns:inkscape="http://www.inkscape.org/namespaces/inkscape"
   xmlns:sodipodi="http://sodipodi.sourceforge.net/DTD/sodipodi-0.dtd"
   xmlns="http://www.w3.org/2000/svg"
   xmlns:svg="http://www.w3.org/2000/svg">
  <defs
     id="defs145955" />
  <sodipodi:namedview
     id="namedview145953"
     pagecolor="#ffffff"
     bordercolor="#666666"
     borderopacity="1.0"
     inkscape:pageshadow="2"
     inkscape:pageopacity="0.0"
     inkscape:pagecheckerboard="0"
     showgrid="false"
     inkscape:zoom="25.84375"
     inkscape:cx="15.980653"
     inkscape:cy="16"
     inkscape:window-width="1920"
     inkscape:window-height="1051"
     inkscape:window-x="0"
     inkscape:window-y="29"
     inkscape:window-maximized="1"
     inkscape:current-layer="svg145951" />
  <path
     style="opacity:.2"
     d="m19 7a7 7 0 0 0 -6.503906 4.431641 5 5 0 0 0 -3.496094 -1.431641 5 5 0 0 0 -5 5 5 5 0 0 0 0.4882812 2.144531 6 6 0 0 0 -2.4882812 4.855469 6 6 0 0 0 6 6h14a8 8 0 0 0 8 -8 8 8 0 0 0 -4.074219 -6.966797 7 7 0 0 0 -6.925781 -6.033203z"
     id="path145929" />
  <circle
     style="fill:#46b4ff"
     cx="19"
     cy="13"
     r="7"
     id="circle145931" />
  <circle
     style="fill:#46b4ff"
     cx="8"
     cy="21"
     r="6"
     id="circle145933" />
  <circle
     style="fill:#46b4ff"
     cx="9"
     cy="14"
     r="5"
     id="circle145935" />
  <circle
     style="fill:#46b4ff"
     cx="22"
     cy="19"
     r="8"
     id="circle145937" />
  <rect
     style="fill:#46b4ff"
     width="14"
     height="14"
     x="8"
     y="13"
     id="rect145939" />
  <path
     style="opacity:.2"
     d="m16 14a5 5 0 0 0 -4.894531 4h2.070312a3 3 0 0 1 2.824219 -2 3 3 0 0 1 2.119141 0.880859l-1.119141 1.119141h4v-4l-1.466797 1.466797a5 5 0 0 0 -3.533203 -1.466797zm-5 5v4l1.003906-1.003906a5 5 0 0 0 3.996094 2.003906 5 5 0 0 0 4.894531 -4h-2.070312a3 3 0 0 1 -2.824219 2 3 3 0 0 1 -2.558594 -1.441406l1.558594-1.558594h-4z"
     id="path145941" />
  <path
     style="fill:#ffffff"
     d="m16 13a5 5 0 0 0 -4.894531 4h2.070312a3 3 0 0 1 2.824219 -2 3 3 0 0 1 2.826172 2h2.072266a5 5 0 0 0 -4.898438 -4zm-4.898438 6a5 5 0 0 0 4.898438 4 5 5 0 0 0 4.894531 -4h-2.070312a3 3 0 0 1 -2.824219 2 3 3 0 0 1 -2.826172 -2h-2.072266z"
     id="path145943" />
  <path
     style="fill:#ffffff"
     d="m 20.552099,17 v 0 h -2.903584 v 0 l -0.198184,-0.450331 3.057764,-3.057764 v 0 L 21,13.741042 v 2.765805 z"
     id="path145945"
     sodipodi:nodetypes="cccccccccc" />
  <path
     style="fill:#ffffff"
     d="m 11,18 h 3.334273 v 0 l 0.157039,0.508688 -3.0587,3.0587 v 0 L 11,21.228953 Z"
     id="path145947"
     sodipodi:nodetypes="cccccccc" />
  <path
     style="opacity:.2;fill:#ffffff"
     d="m19 6a7 7 0 0 0 -6.503906 4.431641 5 5 0 0 0 -3.496094 -1.431641 5 5 0 0 0 -5 5 5 5 0 0 0 0.0273438 0.515625 5 5 0 0 1 4.9726562 -4.515625 5 5 0 0 1 3.496094 1.431641 7 7 0 0 1 6.503906 -4.431641 7 7 0 0 1 6.925781 6.033203 8 8 0 0 1 4.052735 6.548828 8 8 0 0 0 0.021484 -0.582031 8 8 0 0 0 -4.074219 -6.966797 7 7 0 0 0 -6.925781 -6.033203zm-14.798828 10.375a6 6 0 0 0 -2.2011719 4.625 6 6 0 0 0 0.0253906 0.527344 6 6 0 0 1 2.4628906 -4.382813 5 5 0 0 1 -0.2871093 -0.769531z"
     id="path145949" />
</svg>
