<?xml version="1.0" encoding="UTF-8" standalone="no"?>
<svg
   width="32"
   height="32"
   version="1"
   id="svg12"
   sodipodi:docname="yast-x11.svg"
   inkscape:version="1.2 (dc2aedaf03, 2022-05-15)"
   xmlns:inkscape="http://www.inkscape.org/namespaces/inkscape"
   xmlns:sodipodi="http://sodipodi.sourceforge.net/DTD/sodipodi-0.dtd"
   xmlns="http://www.w3.org/2000/svg"
   xmlns:svg="http://www.w3.org/2000/svg">
  <defs
     id="defs16" />
  <sodipodi:namedview
     id="namedview14"
     pagecolor="#505050"
     bordercolor="#ffffff"
     borderopacity="1"
     inkscape:showpageshadow="0"
     inkscape:pageopacity="0"
     inkscape:pagecheckerboard="1"
     inkscape:deskcolor="#505050"
     showgrid="false"
     inkscape:zoom="77.251416"
     inkscape:cx="15.999707"
     inkscape:cy="15.98029"
     inkscape:window-width="1574"
     inkscape:window-height="1080"
     inkscape:window-x="172"
     inkscape:window-y="-1"
     inkscape:window-maximized="1"
     inkscape:current-layer="svg12" />
  <rect
     style="opacity:0.2"
     width="28"
     height="28"
     x="2"
     y="3"
     rx="1.4"
     ry="1.4"
     id="rect2" />
  <rect
     style="fill:#a7a7a7"
     width="28"
     height="28"
     x="2"
     y="2"
     rx="1.4"
     ry="1.4"
     id="rect4" />
  <path
     style="fill:#ffffff;opacity:0.2"
     d="M 3.4003906 2 C 2.6247906 2 2 2.6247906 2 3.4003906 L 2 4.4003906 C 2 3.6247906 2.6247906 3 3.4003906 3 L 28.599609 3 C 29.375209 3 30 3.6247906 30 4.4003906 L 30 3.4003906 C 30 2.6247906 29.375209 2 28.599609 2 L 3.4003906 2 z"
     id="path6" />
  <path
     style="opacity:0.1"
     d="M 24,9.3 C 22.538,10.1 19.528,10.001 16.681,9.9665 14.446,9.9798 10.083,9.7821 9.3335,11.966 9.6167,11.576 14.812,9.8047 14.29,12.004 13.675,13.797 12.576,15.33 11.634,16.952 10.72,17.02 9.4521,17.061 8.6665,17.606 8.8711,17.48 10.614,17.134 11.312,17.515 10.243,19.283 9.1403,20.774 8.356,22.698 8.1401,23.36 7.6536,24.423 8.4006,24.902 9.0343,25.197 8.5905,24.772 8.8471,24.359 9.9219,22.048 11.402,20.042 12.753,17.897 13.542,18.225 14.307,18.833 15.167,18.927 16.338,19.066 18.357,17.411 18.667,16.273 17.333,17.274 15.032,16.962 13.512,16.93 L 16.795,11.83 C 17.118,11.929 17.688,11.956 18.632,11.966 20.831,12.029 23.642,11.619 24,9.3 Z"
     id="path8" />
  <path
     style="fill:#4f4f4f"
     d="m 23.850516,8.4833897 c -0.09151,0.050055 -0.0396,-0.086801 -0.142823,-0.043552 C 22.16183,9.087537 19.349799,8.9983718 16.681,8.9665 c -2.102783,0.012513 -6.08924,-0.1617476 -7.1777359,1.636386 -0.068441,0.113061 0.1204961,-0.0289 0.076158,0.100294 0.036063,-0.04966 -0.09414,0.141094 0.079284,0.05768 C 10.847151,10.189265 14.745527,9.084764 14.29,11.004 c -0.615,1.793 -1.714,3.326 -2.656,4.948 -0.689573,0.0513 -1.580587,0.08724 -2.3139446,0.335836 -0.2386777,0.08091 0.1345109,-0.06527 -0.058389,0.06855 0.068578,-0.04223 -0.2851909,0.140435 0.031755,0.08443 0.6286562,-0.111083 1.5545328,-0.179111 2.0185778,0.07419 -1.069,1.768 -2.1717,3.259 -2.956,5.183 -0.2159,0.662 -0.7024,1.725 0.0446,2.204 0.6337,0.295 0.1899,-0.13 0.4465,-0.543 1.0748,-2.311 2.5549,-4.317 3.9059,-6.462 0.789,0.328 1.554,0.936 2.414,1.03 1.036557,0.123041 2.737572,-1.159624 3.329514,-2.245089 0.07678,-0.140787 -0.08634,-0.03446 -0.05074,-0.165113 -0.114853,0.08618 -0.01564,-0.08117 -0.143719,-0.01343 -1.291469,0.683015 -3.198371,0.479745 -4.576838,0.432626 -0.07259,-0.0025 0.0581,-0.09777 -0.01139,-0.09923 L 13.626133,15.7527 16.795,10.83 c 0.323,0.099 0.893,0.126 1.837,0.136 2.078453,0.05955 4.703647,-0.30347 5.287515,-2.3015981 0.03386,-0.1158882 -0.08862,-0.053887 -0.069,-0.1810122 z"
     id="path10"
     sodipodi:nodetypes="cscscsccscsccccccscssccccsc" />
</svg>
