<?xml version="1.0" encoding="UTF-8" standalone="no"?>
<svg
   width="512"
   height="512"
   version="1.1"
   viewBox="0 0 384 384"
   id="svg94"
   sodipodi:docname="yubikey-neo-manager.svg"
   inkscape:version="1.2 (dc2aedaf03, 2022-05-15)"
   xmlns:inkscape="http://www.inkscape.org/namespaces/inkscape"
   xmlns:sodipodi="http://sodipodi.sourceforge.net/DTD/sodipodi-0.dtd"
   xmlns="http://www.w3.org/2000/svg"
   xmlns:svg="http://www.w3.org/2000/svg">
  <sodipodi:namedview
     id="namedview96"
     pagecolor="#505050"
     bordercolor="#ffffff"
     borderopacity="1"
     inkscape:showpageshadow="0"
     inkscape:pageopacity="0"
     inkscape:pagecheckerboard="1"
     inkscape:deskcolor="#505050"
     showgrid="false"
     inkscape:zoom="1.7070312"
     inkscape:cx="256"
     inkscape:cy="255.12128"
     inkscape:window-width="1574"
     inkscape:window-height="1080"
     inkscape:window-x="172"
     inkscape:window-y="-1"
     inkscape:window-maximized="1"
     inkscape:current-layer="svg94" />
  <defs
     id="defs70">
    <clipPath
       id="clipPath52">
      <rect
         width="384"
         height="384"
         id="rect50" />
    </clipPath>
    <clipPath
       id="clipPath56">
      <rect
         width="384"
         height="384"
         id="rect54" />
    </clipPath>
    <clipPath
       id="clipPath60">
      <rect
         width="384"
         height="384"
         id="rect58" />
    </clipPath>
    <clipPath
       id="clipPath64">
      <rect
         width="384"
         height="384"
         id="rect62" />
    </clipPath>
    <clipPath
       id="clipPath68">
      <rect
         width="384"
         height="384"
         id="rect66" />
    </clipPath>
  </defs>
  <g
     transform="translate(0 -.005)"
     id="g86">
    <path
       d="m192 23.25c-93.199 0-168.75 75.551-168.75 168.75s75.551 168.75 168.75 168.75 168.75-75.551 168.75-168.75-75.551-168.75-168.75-168.75z"
       fill="#23a86e"
       stroke-width="1.0045"
       id="path72" />
    <path
       d="m175.65 293.25h34.852v-73.487l66.733-114.01h-38.635l-44.308 83.213-46.47-83.213h-41.066l68.894 113.47z"
       opacity=".3"
       id="path74" />
    <path
       d="m 175.65,285.75 h 34.852 V 212.263 L 277.235,98.253 H 238.6 l -39.6816,74.52435 -2.4296,-0.52219 -6.95238,0.69512 L 147.822,98.253 h -41.066 l 68.894,113.47 z"
       fill="#ffffff"
       id="path76"
       sodipodi:nodetypes="cccccccccccc" />
    <path
       transform="scale(.75)"
       d="m31.064 251c-0.03628 1.6632-0.06445 3.3281-0.06445 5 0 124.27 100.73 225 225 225s225-100.73 225-225c0-1.6719-0.0282-3.3368-0.0645-5-2.6604 121.96-102.34 220-224.94 220s-222.28-98.045-224.94-220z"
       opacity=".3"
       stroke-width="1.3393"
       id="path78" />
    <path
       transform="scale(.75)"
       d="m256 31c-124.27 0-225 100.73-225 225 0 1.6719 0.02817 3.3368 0.06445 5 2.6604-121.96 102.34-220 224.94-220 122.59 0 222.28 98.045 224.94 220 0.0363-1.6632 0.0644-3.3281 0.0644-5 0-124.27-100.73-225-225-225z"
       fill="#fff"
       opacity=".2"
       stroke-width="1.3393"
       id="path80" />
    <path
       d="m384 291.63c0 51.016-41.359 92.375-92.379 92.375s-92.379-41.359-92.379-92.375c0-51.02 41.359-92.379 92.379-92.379s92.379 41.359 92.379 92.379z"
       opacity=".3"
       id="path82" />
    <path
       d="m384 284.13c0 51.016-41.359 92.375-92.379 92.375s-92.379-41.359-92.379-92.375c0-51.02 41.359-92.379 92.379-92.379s92.379 41.359 92.379 92.379z"
       fill="#9754b3"
       id="path84" />
  </g>
  <path
     d="m252.26 336.62h15.821v-67.176l44.222 67.176h18.674v-90h-15.951l-0.12969 67.046-43.444-67.046h-19.193z"
     opacity=".3"
     id="path88" />
  <g
     transform="matrix(4.3228 0 0 4.3228 -122.14 -1992.6)"
     aria-label="N"
     id="g92">
    <path
       d="m 86.613,537.1 h 3.66 v -13.72072 l 0.152891,0.0258 1.182615,0.18362 L 100.503,537.1 h 4.32 v -20.82 h -3.69 l -0.0252,13.05666 -0.56528,-0.23946 -0.810058,0.57759 L 91.053,516.28 h -4.44 z"
       fill="#ffffff"
       stroke-width="0.75"
       id="path90"
       sodipodi:nodetypes="ccccccccccccccc" />
  </g>
</svg>
