<?xml version="1.0" encoding="UTF-8" standalone="no"?>
<svg
   width="512"
   height="512"
   version="1.1"
   viewBox="0 0 384 384"
   id="svg86"
   sodipodi:docname="yubikey-personalization-gui.svg"
   inkscape:version="1.2 (dc2aedaf03, 2022-05-15)"
   xmlns:inkscape="http://www.inkscape.org/namespaces/inkscape"
   xmlns:sodipodi="http://sodipodi.sourceforge.net/DTD/sodipodi-0.dtd"
   xmlns="http://www.w3.org/2000/svg"
   xmlns:svg="http://www.w3.org/2000/svg">
  <sodipodi:namedview
     id="namedview88"
     pagecolor="#505050"
     bordercolor="#ffffff"
     borderopacity="1"
     inkscape:showpageshadow="0"
     inkscape:pageopacity="0"
     inkscape:pagecheckerboard="1"
     inkscape:deskcolor="#505050"
     showgrid="false"
     inkscape:zoom="1.7070312"
     inkscape:cx="256"
     inkscape:cy="255.12128"
     inkscape:window-width="1574"
     inkscape:window-height="1080"
     inkscape:window-x="172"
     inkscape:window-y="-1"
     inkscape:window-maximized="1"
     inkscape:current-layer="g78" />
  <defs
     id="defs62">
    <clipPath
       id="clipPath4">
      <rect
         width="384"
         height="384"
         id="rect2" />
    </clipPath>
    <clipPath
       id="clipPath8">
      <rect
         width="384"
         height="384"
         id="rect6" />
    </clipPath>
    <clipPath
       id="clipPath12">
      <rect
         width="384"
         height="384"
         id="rect10" />
    </clipPath>
    <clipPath
       id="clipPath16">
      <rect
         width="384"
         height="384"
         id="rect14" />
    </clipPath>
    <clipPath
       id="clipPath20">
      <rect
         width="384"
         height="384"
         id="rect18" />
    </clipPath>
    <clipPath
       id="clipPath24">
      <rect
         width="384"
         height="384"
         id="rect22" />
    </clipPath>
    <clipPath
       id="clipPath28">
      <rect
         width="384"
         height="384"
         id="rect26" />
    </clipPath>
    <clipPath
       id="clipPath32">
      <rect
         width="384"
         height="384"
         id="rect30" />
    </clipPath>
    <clipPath
       id="clipPath36">
      <rect
         width="384"
         height="384"
         id="rect34" />
    </clipPath>
    <clipPath
       id="clipPath40">
      <rect
         width="384"
         height="384"
         id="rect38" />
    </clipPath>
    <clipPath
       id="clipPath44">
      <rect
         width="384"
         height="384"
         id="rect42" />
    </clipPath>
    <clipPath
       id="clipPath48">
      <rect
         width="384"
         height="384"
         id="rect46" />
    </clipPath>
    <clipPath
       id="clipPath52">
      <rect
         width="384"
         height="384"
         id="rect50" />
    </clipPath>
    <clipPath
       id="clipPath56">
      <rect
         width="384"
         height="384"
         id="rect54" />
    </clipPath>
    <clipPath
       id="clipPath60">
      <rect
         width="384"
         height="384"
         id="rect58" />
    </clipPath>
  </defs>
  <g
     transform="translate(0 -.005)"
     id="g78">
    <path
       d="m192 23.25c-93.199 0-168.75 75.551-168.75 168.75s75.551 168.75 168.75 168.75 168.75-75.551 168.75-168.75-75.551-168.75-168.75-168.75z"
       fill="#23a86e"
       stroke-width="1.0045"
       id="path64" />
    <path
       d="m175.65 293.25h34.852v-73.487l66.733-114.01h-38.635l-44.308 83.213-46.47-83.213h-41.066l68.894 113.47z"
       opacity=".3"
       id="path66" />
    <path
       d="m 175.65,285.75 h 34.852 V 212.263 L 277.235,98.253 H 238.6 l -40.29821,75.68238 -4.00979,-1.02965 -4.62178,0.28413 L 147.822,98.253 h -41.066 l 68.894,113.47 z"
       fill="#ffffff"
       id="path68"
       sodipodi:nodetypes="cccccccccccc" />
    <path
       transform="scale(.75)"
       d="m31.064 251c-0.03628 1.6632-0.06445 3.3281-0.06445 5 0 124.27 100.73 225 225 225s225-100.73 225-225c0-1.6719-0.0282-3.3368-0.0645-5-2.6604 121.96-102.34 220-224.94 220s-222.28-98.045-224.94-220z"
       opacity=".3"
       stroke-width="1.3393"
       id="path70" />
    <path
       transform="scale(.75)"
       d="m256 31c-124.27 0-225 100.73-225 225 0 1.6719 0.02817 3.3368 0.06445 5 2.6604-121.96 102.34-220 224.94-220 122.59 0 222.28 98.045 224.94 220 0.0363-1.6632 0.0644-3.3281 0.0644-5 0-124.27-100.73-225-225-225z"
       fill="#fff"
       opacity=".2"
       stroke-width="1.3393"
       id="path72" />
    <path
       d="m384 291.63c0 51.016-41.359 92.375-92.379 92.375s-92.379-41.359-92.379-92.375c0-51.02 41.359-92.379 92.379-92.379s92.379 41.359 92.379 92.379z"
       opacity=".3"
       id="path74" />
    <path
       d="m384 284.13c0 51.016-41.359 92.375-92.379 92.375s-92.379-41.359-92.379-92.375c0-51.02 41.359-92.379 92.379-92.379s92.379 41.359 92.379 92.379z"
       fill="#b8174c"
       id="path76" />
  </g>
  <g
     transform="translate(459.19 -317.86)"
     id="g84">
    <path
       d="m-175.72 562.35-2.5977 13.156c-3.2031 0.85937-6.25 2.1523-9.082 3.7109l-11.672-7.4102-11.309 10.934 7.5977 11.305c-1.6055 2.7383-2.8164 5.6094-3.707 8.7109l-13.535 2.5976v15.758l13.535 2.5938c0.88281 3.1055 2.1016 6.1562 3.707 8.8984l-7.5977 11.121 11.309 11.121 11.672-7.5976c2.832 1.5508 5.8789 2.8476 9.082 3.707l2.5977 13.16h16.309l2.5977-13.16c3.2031-0.85938 6.2539-2.1484 9.082-3.707l11.676 7.5976 11.309-11.121-7.6016-11.121c1.6055-2.7383 2.8203-5.793 3.7109-8.8984l13.531-2.5938v-15.758l-13.531-2.5976c-0.88672-3.1016-2.1055-5.9727-3.7109-8.7109l7.6016-11.305-11.309-10.934-11.676 7.4102c-2.8281-1.5508-5.8789-2.8516-9.082-3.7109l-2.5977-13.156zm8.1602 32.988c9.8281 0 17.793 7.9648 17.793 17.793 0 9.832-7.9648 17.793-17.793 17.793-9.832 0-17.797-7.9609-17.797-17.793 0-9.8281 7.9648-17.793 17.797-17.793z"
       opacity=".3"
       id="path80" />
    <path
       d="m-175.72 554.85-2.5977 13.156c-3.2031 0.85937-6.25 2.1523-9.082 3.7109l-11.672-7.4102-11.309 10.934 7.5977 11.305c-1.6055 2.7383-2.8164 5.6094-3.707 8.7109l-13.535 2.5976v15.758l13.535 2.5938c0.88281 3.1055 2.1016 6.1562 3.707 8.8984l-7.5977 11.121 11.309 11.121 11.672-7.5976c2.832 1.5508 5.8789 2.8476 9.082 3.707l2.5977 13.16h16.309l2.5977-13.16c3.2031-0.85938 6.2539-2.1484 9.082-3.707l11.676 7.5976 11.309-11.121-7.6016-11.121c1.6055-2.7383 2.8203-5.793 3.7109-8.8984l13.531-2.5938v-15.758l-13.531-2.5976c-0.88672-3.1016-2.1055-5.9727-3.7109-8.7109l7.6016-11.305-11.309-10.934-11.676 7.4102c-2.8281-1.5508-5.8789-2.8516-9.082-3.7109l-2.5977-13.156zm8.1602 32.988c9.8281 0 17.793 7.9648 17.793 17.793 0 9.832-7.9648 17.793-17.793 17.793-9.832 0-17.797-7.9609-17.797-17.793 0-9.8281 7.9648-17.793 17.797-17.793z"
       fill="#fff"
       id="path82" />
  </g>
</svg>
