<?xml version="1.0" encoding="UTF-8" standalone="no"?>
<svg
   width="512"
   height="512"
   version="1.1"
   viewBox="0 0 384 384"
   id="svg24"
   sodipodi:docname="zotero.svg"
   inkscape:version="1.2 (dc2aedaf03, 2022-05-15)"
   xmlns:inkscape="http://www.inkscape.org/namespaces/inkscape"
   xmlns:sodipodi="http://sodipodi.sourceforge.net/DTD/sodipodi-0.dtd"
   xmlns="http://www.w3.org/2000/svg"
   xmlns:svg="http://www.w3.org/2000/svg">
  <defs
     id="defs28" />
  <sodipodi:namedview
     id="namedview26"
     pagecolor="#505050"
     bordercolor="#ffffff"
     borderopacity="1"
     inkscape:showpageshadow="0"
     inkscape:pageopacity="0"
     inkscape:pagecheckerboard="1"
     inkscape:deskcolor="#505050"
     showgrid="false"
     inkscape:zoom="1.7070312"
     inkscape:cx="256"
     inkscape:cy="255.12128"
     inkscape:window-width="1574"
     inkscape:window-height="1080"
     inkscape:window-x="172"
     inkscape:window-y="-1"
     inkscape:window-maximized="1"
     inkscape:current-layer="g12" />
  <path
     d="m192.43 18.007c-3.3672-0.08984-6.6914 0.75391-9.6094 2.4102l-137.64 77.988c-5.6797 3.2187-9.1797 9.168-9.1797 15.609v155.97c0 6.4414 3.5 12.391 9.1797 15.609l137.64 77.988c5.6797 3.2188 12.68 3.2188 18.359 0l137.64-77.988c5.6797-3.2188 9.1797-9.168 9.1797-15.609v-155.97c0-6.4414-3.5-12.391-9.1797-15.609l-137.64-77.988c-2.6641-1.5117-5.6719-2.3398-8.75-2.4102z"
     fill="#737680"
     id="path2" />
  <path
     d="m192.36 187.41c-2.8167-0.0751-5.5974 0.63024-8.0383 2.0157l-115.14 65.237c-4.7511 2.6925-7.6792 7.669-7.6792 13.057v2.0635c0 5.3883 2.9282 10.365 7.6792 13.057l115.14 65.237c4.7511 2.6925 10.607 2.6925 15.358 0l115.14-65.237c4.7511-2.6925 7.6792-7.669 7.6792-13.057v-2.0635c0-5.3882-2.9282-10.365-7.6792-13.057l-115.14-65.237c-2.2285-1.2645-4.7454-1.9569-7.3202-2.0157z"
     opacity=".5"
     stroke-width=".8365"
     id="path4" />
  <g
     opacity=".3"
     stroke-width="6.0137"
     aria-label="Z"
     id="g8">
    <path
       d="m119.48 282.97h145.05v-36.564h-88.522l87.32-105.6v-24.777h-139.52v36.564h81.306l-85.636 103.68z"
       stroke-width="6.0137"
       id="path6" />
  </g>
  <g
     fill="#fd3535"
     stroke-width="6.0137"
     aria-label="Z"
     id="g12">
    <path
       d="m 119.48,275.47 h 145.05 v -36.564 h -81.53123 l -0.45455,-2.88021 -1.38844,-3.34523 L 263.328,133.306 v -24.777 h -139.52 v 36.564 h 74.51224 l -1.05201,1.95332 2.8731,4.06712 L 119.478,248.773 Z"
       fill="#fd3535"
       stroke-width="6.0137"
       id="path10"
       sodipodi:nodetypes="ccccccccccccccc" />
  </g>
  <path
     d="m192.43 18.008c-3.3672-0.08984-6.6914 0.75345-9.609 2.4097l-137.64 77.985c-5.6797 3.2188-9.18 9.168-9.18 15.609v7.5c0-6.4414 3.5005-12.391 9.18-15.609l137.64-77.985c2.918-1.6562 6.2422-2.4994 9.609-2.4097 3.0782 0.07032 6.0869 0.89798 8.751 2.4097l137.64 77.985c5.6797 3.2187 9.18 9.168 9.18 15.609v-7.5c0-6.4414-3.5005-12.391-9.18-15.609l-137.64-77.985c-2.6641-1.5117-5.6728-2.3393-8.751-2.4097z"
     fill="#fff"
     opacity=".2"
     stroke-width=".99997"
     id="path14" />
  <path
     d="m36 262.48v7.5c0 6.4414 3.5005 12.391 9.18 15.609l137.64 77.985c5.6797 3.2187 12.681 3.2187 18.36 0l137.64-77.985c5.6797-3.2188 9.18-9.168 9.18-15.609v-7.5c0 6.4414-3.5005 12.391-9.18 15.609l-137.64 77.985c-5.6797 3.2187-12.681 3.2187-18.36 0l-137.64-77.985c-5.6797-3.2188-9.18-9.168-9.18-15.609z"
     opacity=".3"
     stroke-width=".99997"
     id="path16" />
  <path
     transform="scale(.75)"
     d="m82.348 353.34c-0.22104 1.1841-0.34375 2.3943-0.34375 3.623v2.752c0 7.1844 3.9036 13.821 10.238 17.41l153.52 86.982c6.3348 3.59 14.144 3.59 20.479 0l153.52-86.982c6.3348-3.59 10.238-10.226 10.238-17.41v-2.752c0-1.2288-0.12271-2.4389-0.34375-3.623-1.0717 5.7386-4.6436 10.809-9.8945 13.785l-153.52 86.982c-6.3346 3.59-14.144 3.59-20.479 0l-153.52-86.982c-5.2508-2.9752-8.8229-8.0463-9.8945-13.785z"
     opacity=".5"
     stroke-width="1.1153"
     id="path18" />
  <g
     transform="translate(-170.72 177.04)"
     fill="#fd3535"
     stroke-width="6.0137"
     aria-label="Z"
     id="g22">
    <path
       transform="matrix(.75 0 0 .75 170.72 -177.04)"
       d="m165.07 144.7v10h186.03v-10h-186.03zm100.15 58.752-105.92 128.24v10l114.18-138.24h-8.2598zm-22.279 115.09-8.2695 10h118.03v-10h-109.76z"
       fill="#fff"
       opacity=".3"
       stroke-width="8.0183"
       id="path20" />
  </g>
</svg>
