<?xml version="1.0" encoding="UTF-8" standalone="no"?>
<svg
   width="512"
   height="512"
   version="1.1"
   viewBox="0 0 384 384"
   id="svg112"
   sodipodi:docname="zuluMount.svg"
   inkscape:version="1.2 (dc2aedaf03, 2022-05-15)"
   xmlns:inkscape="http://www.inkscape.org/namespaces/inkscape"
   xmlns:sodipodi="http://sodipodi.sourceforge.net/DTD/sodipodi-0.dtd"
   xmlns="http://www.w3.org/2000/svg"
   xmlns:svg="http://www.w3.org/2000/svg">
  <sodipodi:namedview
     id="namedview114"
     pagecolor="#505050"
     bordercolor="#ffffff"
     borderopacity="1"
     inkscape:showpageshadow="0"
     inkscape:pageopacity="0"
     inkscape:pagecheckerboard="1"
     inkscape:deskcolor="#505050"
     showgrid="false"
     inkscape:zoom="1.7070312"
     inkscape:cx="256"
     inkscape:cy="254.24256"
     inkscape:window-width="1574"
     inkscape:window-height="1080"
     inkscape:window-x="172"
     inkscape:window-y="-1"
     inkscape:window-maximized="1"
     inkscape:current-layer="g104" />
  <defs
     id="defs90">
    <clipPath
       id="clipPath80">
      <rect
         width="384"
         height="384"
         id="rect78" />
    </clipPath>
    <clipPath
       id="clipPath84">
      <rect
         width="384"
         height="384"
         id="rect82" />
    </clipPath>
    <clipPath
       id="clipPath88">
      <rect
         width="384"
         height="384"
         id="rect86" />
    </clipPath>
  </defs>
  <path
     d="m360 342v-300c0-9.9414-8.0586-18-18-18h-300c-9.9414 0-18 8.0586-18 18v300c0 9.9414 8.0586 18 18 18h300c9.9414 0 18-8.0586 18-18z"
     fill="#d72e2e"
     id="path92" />
  <g
     id="g110">
    <g
       transform="matrix(7.19 0 0 7.19 3989.7 -2276)"
       opacity=".3"
       stroke-width=".75"
       aria-label="zM"
       id="g98">
      <path
         d="m-547.5 354.71h13.17v-4.23h-6.54l6.15-7.35v-3.12h-12.78v4.23h6.15l-6.15 7.38z"
         id="path94" />
      <path
         d="m-531.62 354.71h5.04v-11.7l4.32 8.49h3.93l4.41-9.03v12.24h5.04v-20.82h-4.95l-6.21 12.15-6.57-12.15h-5.01z"
         id="path96" />
    </g>
    <g
       transform="matrix(7.19 0 0 7.19 3989.7 -2283.5)"
       fill="#fff"
       stroke-width=".75"
       aria-label="zM"
       id="g104">
      <path
         d="m -547.5,354.71 h 13.17 v -4.23 h -5.20616 l -0.0112,-0.25479 -0.56753,-0.64767 5.39488,-6.44754 v -3.12 h -12.78 v 4.23 h 5.21303 l 0.15021,0.25718 0.25571,0.38009 L -547.5,351.62 Z"
         id="path100"
         sodipodi:nodetypes="ccccccccccccccc" />
      <path
         d="m -531.62,354.71 h 5.04 v -10.40548 l 0.29977,0.0526 0.42084,0.0691 3.59939,7.07381 h 3.93 l 3.6309,-7.43469 0.71799,-0.17046 0.0611,0.22769 V 354.71 h 5.04 v -20.82 h -4.95 l -5.65221,11.05867 -0.55779,0.10655 -0.59403,-0.11377 L -526.61,333.89 h -5.01 z"
         id="path102"
         sodipodi:nodetypes="cccccccccccccccccccc" />
    </g>
    <path
       transform="scale(.75)"
       d="m32 446v10c0 13.255 10.745 24 24 24h400c13.255 0 24-10.745 24-24v-10c0 13.255-10.745 24-24 24h-400c-13.255 0-24-10.745-24-24z"
       opacity=".3"
       stroke-width="1.3333"
       id="path106" />
    <path
       transform="scale(.75)"
       d="m56 32c-13.255 0-24 10.745-24 24v12c0-13.255 10.745-24 24-24h400c13.255 0 24 10.745 24 24v-12c0-13.255-10.745-24-24-24h-400z"
       fill="#fff"
       opacity=".3"
       stroke-width="1.3333"
       id="path108" />
  </g>
</svg>
