<?xml version="1.0" encoding="UTF-8" standalone="no"?>
<svg
   width="512"
   height="512"
   version="1.1"
   viewBox="0 0 384 384"
   id="svg20"
   sodipodi:docname="zuluCrypt.svg"
   inkscape:version="1.2 (dc2aedaf03, 2022-05-15)"
   xmlns:inkscape="http://www.inkscape.org/namespaces/inkscape"
   xmlns:sodipodi="http://sodipodi.sourceforge.net/DTD/sodipodi-0.dtd"
   xmlns="http://www.w3.org/2000/svg"
   xmlns:svg="http://www.w3.org/2000/svg">
  <defs
     id="defs24" />
  <sodipodi:namedview
     id="namedview22"
     pagecolor="#505050"
     bordercolor="#ffffff"
     borderopacity="1"
     inkscape:showpageshadow="0"
     inkscape:pageopacity="0"
     inkscape:pagecheckerboard="1"
     inkscape:deskcolor="#505050"
     showgrid="false"
     inkscape:zoom="1.7070312"
     inkscape:cx="256"
     inkscape:cy="254.24256"
     inkscape:window-width="1574"
     inkscape:window-height="1080"
     inkscape:window-x="172"
     inkscape:window-y="-1"
     inkscape:window-maximized="1"
     inkscape:current-layer="g14" />
  <path
     d="m360 342v-300c0-9.9414-8.0586-18-18-18h-300c-9.9414 0-18 8.0586-18 18v300c0 9.9414 8.0586 18 18 18h300c9.9414 0 18-8.0586 18-18z"
     fill="#d72f2f"
     id="path2" />
  <g
     opacity=".4"
     stroke-width="6.0762"
     aria-label="zC"
     id="g8">
    <path
       d="m64.298 283.19h106.7v-34.27h-52.985l49.825-59.547v-25.277h-103.54v34.27h49.825l-49.825 59.79z"
       id="path4" />
    <path
       d="m269.67 285.62c18.472 0 39.374-4.861 52.256-11.909l-9.2359-30.381c-9.722 3.4027-22.118 5.3471-32.812 5.3471-34.027 0-53.471-19.93-53.471-52.742 0-30.867 17.257-46.666 48.124-46.666 13.368 0 28.68 2.4305 37.916 6.3193l11.666-33.055c-16.284-7.0484-32.083-10.451-49.096-10.451-54.443 0-92.359 34.999-92.359 87.984 0 51.284 35.485 85.554 87.012 85.554z"
       id="path6" />
  </g>
  <g
     fill="#fff"
     stroke-width="6.0762"
     aria-label="zC"
     id="g14">
    <path
       d="m 64.298,275.69 h 106.7 v -34.27 h -46.29277 l -1.68615,-0.50552 -0.54345,-4.82787 L 167.838,181.873 V 156.596 H 64.298 v 34.27 h 44.79927 l 1.20823,2.09835 0.1209,2.33757 L 64.298,250.656 Z"
       id="path10"
       sodipodi:nodetypes="ccccccccccccccc" />
    <path
       d="m269.67 278.12c18.472 0 39.374-4.861 52.256-11.909l-9.2359-30.381c-9.722 3.4027-22.118 5.3471-32.812 5.3471-34.027 0-53.471-19.93-53.471-52.742 0-30.867 17.257-46.666 48.124-46.666 13.368 0 28.68 2.4305 37.916 6.3193l11.666-33.055c-16.284-7.0484-32.083-10.451-49.096-10.451-54.443 0-92.359 34.999-92.359 87.984 0 51.284 35.485 85.554 87.012 85.554z"
       id="path12" />
  </g>
  <path
     transform="scale(.75)"
     d="m32 446v10c0 13.255 10.745 24 24 24h400c13.255 0 24-10.745 24-24v-10c0 13.255-10.745 24-24 24h-400c-13.255 0-24-10.745-24-24z"
     fill="#060101"
     opacity=".3"
     stroke-width="1.3333"
     id="path16" />
  <path
     transform="scale(.75)"
     d="m56 32c-13.255 0-24 10.745-24 24v10c0-13.255 10.745-24 24-24h400c13.255 0 24 10.745 24 24v-10c0-13.255-10.745-24-24-24h-400z"
     fill="#fff"
     opacity=".2"
     stroke-width="1.3333"
     id="path18" />
</svg>
