<?xml version="1.0" encoding="UTF-8" standalone="no"?>
<svg
   width="32"
   height="32"
   version="1"
   id="svg908822"
   sodipodi:docname="converseen.svg"
   inkscape:version="1.1.2 (0a00cf5339, 2022-02-04)"
   xmlns:inkscape="http://www.inkscape.org/namespaces/inkscape"
   xmlns:sodipodi="http://sodipodi.sourceforge.net/DTD/sodipodi-0.dtd"
   xmlns="http://www.w3.org/2000/svg"
   xmlns:svg="http://www.w3.org/2000/svg">
  <defs
     id="defs908826" />
  <sodipodi:namedview
     id="namedview908824"
     pagecolor="#ffffff"
     bordercolor="#666666"
     borderopacity="1.0"
     inkscape:pageshadow="2"
     inkscape:pageopacity="0.0"
     inkscape:pagecheckerboard="0"
     showgrid="false"
     inkscape:zoom="25.84375"
     inkscape:cx="15.980653"
     inkscape:cy="16"
     inkscape:window-width="1920"
     inkscape:window-height="1051"
     inkscape:window-x="0"
     inkscape:window-y="29"
     inkscape:window-maximized="1"
     inkscape:current-layer="svg908822" />
  <ellipse
     fill="#4f4f4f"
     cx="16"
     cy="16"
     rx="12"
     ry="10"
     id="ellipse908804" />
  <g
     fill="#9ccd44"
     transform="matrix(.7 0 0 .7 -2.9 -.8)"
     id="g908808">
    <path
       transform="translate(2)"
       d="m 22.143,5.2946968 v 0 V 7 C 12.754,7 5,14.611 5,24 c 0,5.6431 2.75,10.644 6.9824,13.736 1.9893,1.2887 4.3615,-3.0761 2.0391,-4.7715 -2.468,-2.197 -4.022,-5.399 -4.022,-8.964 0,-6.627 5.515,-12 12.143,-12 v 1.688201 l 1.368881,0.58825 v 0 l 7.76944,-4.106693 -0.01342,-0.9555838 v 0 L 23.405136,4.7213213 Z"
       id="path908806"
       sodipodi:nodetypes="cccsccsccccccccc" />
  </g>
  <g
     fill="#5db43e"
     transform="matrix(-.7 0 0 -.7 34.9 32.8)"
     id="g908812">
    <path
       transform="rotate(180,26,24)"
       d="m 37.264,10.029 c -1.7552,-0.0047 -3.3173,3.5224 -1.2852,5.0059 2.467,2.198 4.021,5.4 4.021,8.965 0,6.627 -5.515,12 -12.143,12 v -1.93914 0 l -0.868019,-0.602051 -7.996087,4.226491 0.0264,1.264571 v 0 l 7.886902,4.506813 v 0 L 27.8568,43.094936 V 40.9999 c 9.389,0 17.143,-7.611 17.143,-17 0,-5.643 -2.75,-10.644 -6.982,-13.736 -0.249,-0.161 -0.504,-0.234 -0.754,-0.235 z"
       id="path908810"
       sodipodi:nodetypes="ccscccccccccccsccc" />
  </g>
  <g
     transform="matrix(.7 0 0 .7 -2.9 .19937)"
     id="g908816">
    <path
       opacity=".2"
       transform="matrix(1.4286,0,0,1.4286,4.1429,1.1429)"
       d="m20.09 5.4805-6.09 3.2187v1l7-3.6992-0.91-0.5195zm-6.09 1.1191c-4.6392 0-8.5 3.7614-8.5 8.4004 0 0.165 0.018 0.326 0.0273 0.488 0.2726-4.399 4.0062-7.8884 8.4727-7.8884v-1zm9.086 1.25c-0.148 0.6809-0.029 1.416 0.6 1.875 1.613 1.4364 2.654 3.4894 2.787 5.7874 0.01-0.17 0.027-0.339 0.027-0.512 0-2.495-1.087-4.737-2.814-6.2754-0.32-0.2335-0.507-0.5412-0.6-0.875zm-21.059 7.6114c-0.0082 0.18-0.0273 0.357-0.0273 0.539 0 3.95 1.926 7.451 4.8887 9.615 1.1135 0.722 2.3926-1.086 2.0312-2.447-0.2416 1.072-1.1817 1.998-2.0312 1.447-2.8457-2.079-4.7166-5.395-4.8614-9.154zm27.946 0.078c-0.289 6.32-5.583 11.361-11.973 11.361v1c6.572 0 12-5.328 12-11.9 0-0.156-0.021-0.306-0.027-0.461zm-18.063 9.981-0.91 0.48l7 4v-1l-6.09-3.48z"
       id="path908814" />
  </g>
  <g
     fill="#fff"
     transform="matrix(.7 0 0 .7 -2.9 -.8)"
     id="g908820">
    <path
       style="fill:#ffffff;opacity:0.1"
       transform="matrix(1.4285714,0,0,1.4285714,4.1428571,1.1428571)"
       d="M 14 2 L 14 3 L 20.089844 6.4804688 L 21 6 L 14 2 z M 14 4.0996094 C 7.4276685 4.0996094 2 9.4280682 2 16 C 2 16.156003 2.0214435 16.305934 2.0273438 16.460938 C 2.3164494 10.140811 7.6093717 5.0996094 14 5.0996094 L 14 4.0996094 z M 24.583984 6.2207031 C 23.631965 6.2181831 22.766931 7.6989858 23.085938 8.8496094 C 23.272941 7.9899919 23.897971 7.2189034 24.583984 7.2207031 C 24.759988 7.2212029 24.937324 7.2719655 25.111328 7.3847656 C 27.957385 9.4638076 29.827653 12.779988 29.972656 16.539062 C 29.980657 16.359059 30 16.182003 30 16 C 30 12.049921 28.074387 8.549209 25.111328 6.3847656 C 24.937324 6.2719634 24.759988 6.2212029 24.583984 6.2207031 z"
       id="path908818" />
  </g>
</svg>
