<?xml version="1.0" encoding="UTF-8" standalone="no"?>
<svg
   width="32"
   height="32"
   version="1"
   id="svg1404108"
   sodipodi:docname="application-community.svg"
   inkscape:version="1.1.2 (0a00cf5339, 2022-02-04)"
   xmlns:inkscape="http://www.inkscape.org/namespaces/inkscape"
   xmlns:sodipodi="http://sodipodi.sourceforge.net/DTD/sodipodi-0.dtd"
   xmlns="http://www.w3.org/2000/svg"
   xmlns:svg="http://www.w3.org/2000/svg">
  <defs
     id="defs1404112" />
  <sodipodi:namedview
     id="namedview1404110"
     pagecolor="#ffffff"
     bordercolor="#666666"
     borderopacity="1.0"
     inkscape:pageshadow="2"
     inkscape:pageopacity="0.0"
     inkscape:pagecheckerboard="0"
     showgrid="false"
     inkscape:zoom="25.84375"
     inkscape:cx="15.980653"
     inkscape:cy="16"
     inkscape:window-width="1920"
     inkscape:window-height="1051"
     inkscape:window-x="0"
     inkscape:window-y="29"
     inkscape:window-maximized="1"
     inkscape:current-layer="svg1404108" />
  <g
     fill="#c2352a"
     transform="matrix(.063443 0 0 .068968 2 .78072)"
     id="g1404094">
    <g
       id="g1404092">
      <path
         d="m 314.02,17.679 c -36.879,0 -70.09,17.27 -93.344,43.499 -23.26,-26.229 -56.47,-43.499 -93.35,-43.499 -70.322,0 -127.33,59.675 -127.33,133.29 0,19.779 3.338,38.813 9.184,56.989 0,0 5.301,16.4 9.997,25.428 44.723068,96.18572 154.8186,164.19437 190.28539,184.19745 7.09599,4.0021 0,0 0,0 0,0 15.22206,4.04822 22.17282,0.13314 C 266.84666,397.8834 377.3349,329.78483 422.157,233.386 c 53.67,-115.428 6.925,-15.38 9.997,-25.428 5.582,-18.26 9.184,-37.21 9.184,-56.989 0,-73.615 -57.008,-133.29 -127.33,-133.29 z"
         id="path1404090"
         sodipodi:nodetypes="ccssccscsscscc" />
    </g>
  </g>
  <g
     fill="#fff"
     transform="matrix(.063443 0 0 .068968 2 .78072)"
     id="g1404100">
    <g
       id="g1404098">
      <path
         opacity=".2"
         transform="matrix(15.762 0 0 14.5 -31.525 -11.32)"
         d="m10.078 2c-4.4612 0-8.078 4.1163-8.078 9.193 0 0.179 0.0124 0.355 0.0195 0.532 0.2155-4.8585 3.7362-8.725 8.0585-8.725 2.34 0 4.447 1.191 5.922 3 1.475-1.809 3.582-3 5.922-3 4.318 0 7.835 3.8592 8.057 8.711 0.007-0.173 0.021-0.343 0.021-0.518 0-5.0767-3.617-9.193-8.078-9.193-2.34 0-4.447 1.191-5.922 3-1.475-1.809-3.582-3-5.922-3z"
         id="path1404096" />
    </g>
  </g>
  <g
     transform="matrix(.063443 0 0 .068968 2 1.7796)"
     id="g1404106">
    <g
       id="g1404104">
      <path
         opacity="0.2"
         transform="matrix(15.762,0,0,14.5,-31.525,-11.32)"
         d="m 29.979,10.711 c -0.05,1.177 -0.252,2.314 -0.561,3.412 -0.195,0.693 -0.635,1.754 -0.635,1.754 -2.915273,6.816003 -10.498568,13.424989 -10.919916,11.082771 -0.610675,-3.394659 -3.108823,-0.319548 -3.108823,-0.319548 0,0 -0.410129,0.828015 -0.751254,0.622243 C 11.967895,26.034811 6.1330172,22.695143 3.217,15.877 2.9189,15.254 2.582,14.123 2.582,14.123 2.2597,13.034 2.067,11.898 2.0195,10.725 2.0126,10.881 2,11.035 2,11.193 c 0,1.364 0.2111,2.676 0.582,3.93 0,0 0.3369,1.131 0.6348,1.754 3.405,7.961 12.82297,11.175254 12.82297,11.175254 0,0 9.33803,-3.214254 12.74303,-11.175254 3.405,-7.961 0.44,-1.061 0.635,-1.754 0.354,-1.259 0.582,-2.566 0.582,-3.93 0,-0.162 -0.014,-0.322 -0.021,-0.482 z"
         id="path1404102"
         sodipodi:nodetypes="cccscscccscccscscc" />
    </g>
  </g>
</svg>
