<?xml version="1.0" encoding="UTF-8" standalone="no"?>
<svg
   width="32"
   height="32"
   version="1.1"
   id="svg82206"
   sodipodi:docname="armagetronad.svg"
   inkscape:version="1.1.2 (0a00cf5339, 2022-02-04)"
   xmlns:inkscape="http://www.inkscape.org/namespaces/inkscape"
   xmlns:sodipodi="http://sodipodi.sourceforge.net/DTD/sodipodi-0.dtd"
   xmlns="http://www.w3.org/2000/svg"
   xmlns:svg="http://www.w3.org/2000/svg">
  <defs
     id="defs82210" />
  <sodipodi:namedview
     id="namedview82208"
     pagecolor="#ffffff"
     bordercolor="#666666"
     borderopacity="1.0"
     inkscape:pageshadow="2"
     inkscape:pageopacity="0.0"
     inkscape:pagecheckerboard="0"
     showgrid="false"
     inkscape:zoom="25.84375"
     inkscape:cx="15.980653"
     inkscape:cy="16"
     inkscape:window-width="1920"
     inkscape:window-height="1051"
     inkscape:window-x="0"
     inkscape:window-y="29"
     inkscape:window-maximized="1"
     inkscape:current-layer="svg82206" />
  <path
     style="opacity:0.2"
     d="M 16,3 A 14,14 0 0 0 2,17 14,14 0 0 0 16,31 14,14 0 0 0 30,17 14,14 0 0 0 16,3 Z"
     id="path82194" />
  <path
     style="fill:#e3ac33"
     d="M 16,2 A 14,14 0 0 0 2,16 14,14 0 0 0 16,30 14,14 0 0 0 30,16 14,14 0 0 0 16,2 Z"
     id="path82196" />
  <path
     style="fill:#383838"
     d="m 16.80329,6.0419865 c -0.09621,0.2866886 -0.732484,0.5088293 -0.838169,0.8577957 -0.350252,1.1565172 -0.683267,2.5779836 -0.679411,3.3831118 0.0036,0.768901 0.337354,2.134023 0.684992,3.243599 0.08912,0.2844 0.135226,0.394793 0.21066,0.616634 0.102639,-0.207592 0.148892,-0.32055 0.281812,-0.57478 0.564528,-1.079777 1.270953,-2.32505 2.060555,-3.122228 0.815077,-0.8229302 2.098376,-1.5688108 3.21291,-2.1651913 0.14189,-0.075925 -0.26104,-0.4745062 -0.126413,-0.5441502 -0.161576,-0.1248223 0.168148,0.1142148 0,0 C 20.181603,6.76638 18.525334,6.1822328 16.80329,6.0419865 c -0.18153,-0.014784 0.182802,0.00485 0,0 z M 14.201634,6.174618 c -0.175914,0.022466 0.173792,-0.031643 0,0 -1.773358,0.3228844 -3.427593,1.119455 -4.7864381,2.3061827 -0.1007168,0.08796 0.097399,-0.092212 0,0 0.1336452,0.2676293 -0.04939,0.7749003 0.1213194,1.0933821 0.5686447,1.0608872 1.3334167,2.3005462 1.9196517,2.8920362 0.581891,0.587099 1.865333,1.397649 2.968768,2.004754 0.168785,0.09286 0.284936,0.147943 0.438061,0.228798 -0.08786,-0.255463 -0.149593,-0.409027 -0.255302,-0.746379 -0.364335,-1.162699 -0.745206,-2.542896 -0.750564,-3.664919 -0.0055,-1.1582456 0.374408,-2.5932378 0.740797,-3.8030347 0.04664,-0.154068 -0.442271,-0.1663338 -0.396293,-0.3108203 z m 9.372332,3.3038976 c -0.271745,0.1351516 -0.840294,-0.1107582 -1.163497,0.062185 -1.065447,0.5701144 -2.305921,1.3392464 -2.872503,1.9112844 -0.541089,0.546303 -1.270671,1.747232 -1.809443,2.777637 -0.137638,0.263262 -0.182699,0.373457 -0.285993,0.583152 0.212475,-0.07164 0.355694,-0.127249 0.604078,-0.20508 1.162698,-0.364335 2.542896,-0.745206 3.664919,-0.750564 1.158246,-0.0055 2.593236,0.374409 3.803033,0.740797 0.154068,0.04664 -0.144488,-0.04598 0,0 -0.0214,-0.167554 0.345027,-0.205868 0.315299,-0.371504 -0.315043,-1.755277 -1.093963,-3.39478 -2.255893,-4.7479073 -0.105665,-0.1230526 0.11194,0.1181877 0,-1e-7 z M 8.2753477,10.24941 c -0.091598,0.118568 -0.360333,-0.11538 -0.4462324,0.0068 -1.1302808,1.607194 -1.7640328,3.51497 -1.8166154,5.485733 0.282715,0.09432 0.5292415,0.180659 0.8733305,0.2846 1.1522522,0.348066 2.5698623,0.684069 3.4026426,0.687783 0.8266,0.0036 2.307503,-0.331243 3.51704,-0.682202 0.129285,-0.03752 0.209559,-0.0669 0.329241,-0.103237 -0.140848,-0.0746 -0.243508,-0.12246 -0.396206,-0.206475 -1.149339,-0.632364 -2.470808,-1.41711 -3.296615,-2.25029 -0.8214507,-0.828801 -1.5719157,-2.113239 -2.1665853,-3.222676 -0.073441,-0.137014 0.06749,0.130133 0,0 z m 13.4417583,5.0363 c -0.768901,0.0036 -2.134023,0.337355 -3.243599,0.684993 -0.259892,0.08145 -0.400742,0.136585 -0.615239,0.209265 0.201304,0.09979 0.34216,0.162315 0.573385,0.283206 1.079777,0.564528 2.32505,1.270957 3.122228,2.060557 0.82293,0.815076 1.568811,2.098376 2.165191,3.212908 0.07593,0.141892 -0.06964,-0.134628 0,0 0.121037,-0.156677 0.422678,0.05174 0.533744,-0.111125 1.079214,-1.582516 1.683651,-3.445712 1.734684,-5.368817 -0.286689,-0.09621 -0.538316,-0.185888 -0.887282,-0.291575 C 23.9437,15.61487 22.522234,15.281854 21.717106,15.28571 Z m -7.085698,1.98383 c -0.15252,0.04693 -0.259293,0.08531 -0.426899,0.133928 -1.259853,0.365557 -2.748535,0.744616 -3.921616,0.739402 -1.0517607,-0.0046 -2.3249873,-0.312681 -3.4483385,-0.639966 -0.1229813,-0.03583 -0.2441663,-0.07189 -0.3630678,-0.107808 -0.1490115,-0.04503 0.1399107,0.04433 0,0 0.032976,0.258883 -0.3020962,0.39149 -0.2493247,0.645614 0.3763097,1.812136 1.2495514,3.489813 2.5289133,4.841304 0.2676292,-0.133645 0.5046256,-0.247818 0.8231073,-0.418528 1.0608864,-0.568646 2.3005454,-1.333418 2.8920364,-1.919653 0.587098,-0.581892 1.397649,-1.865333 2.004753,-2.968768 0.06485,-0.117868 0.102872,-0.197406 0.160436,-0.305525 z m 2.679983,0.23298 c 0.03221,0.106144 0.05868,0.177928 0.09207,0.292971 0.365557,1.259853 0.744617,2.748535 0.739402,3.921616 -0.0047,1.076961 -0.327621,2.38613 -0.663521,3.528824 -0.02805,0.09543 -0.0562,0.189704 -0.08425,0.282582 -0.04503,0.149011 0.04432,-0.139913 0,0 0.165507,-0.02108 0.205987,0.331809 0.369626,0.302598 1.91822,-0.342421 3.698627,-1.238757 5.118687,-2.583581 -0.135151,-0.271743 -0.251164,-0.513856 -0.424108,-0.837059 -0.570115,-1.065446 -1.339246,-2.305922 -1.911284,-2.872505 -0.546303,-0.541089 -1.747233,-1.270669 -2.777637,-1.80944 -0.189868,-0.09928 -0.292671,-0.142906 -0.458987,-0.226006 z m -1.38254,0.362726 c -0.07285,0.138005 -0.122477,0.243535 -0.206476,0.396206 -0.632363,1.149339 -1.417108,2.470807 -2.25029,3.296615 -0.777551,0.770656 -1.956129,1.478832 -3.015004,2.054502 -0.06979,0.03794 -0.139068,0.07531 -0.207672,0.112085 -0.137013,0.07345 0.130132,-0.06749 0,0 0.165254,0.127665 -0.02027,0.429798 0.15185,0.546364 1.576343,1.067557 3.428859,1.665473 5.340648,1.716482 0.09432,-0.282714 0.180658,-0.529242 0.284599,-0.87333 0.348067,-1.152254 0.684068,-2.569861 0.687784,-3.402643 0.0036,-0.8266 -0.331244,-2.307503 -0.682203,-3.51704 -0.03752,-0.129285 -0.06748,-0.212014 -0.103236,-0.329241 z"
     id="path82198"
     sodipodi:nodetypes="cscccccscssccsscscccsccccssccscccssccscscccccsccccccscsccccccsccscscscsccsccscssscscscsccscsccc" />
  <circle
     style="opacity:0.2"
     cx="16"
     cy="17"
     r="4"
     id="circle82200" />
  <circle
     style="fill:#e4e4e4"
     cx="16"
     cy="16"
     r="4"
     id="circle82202" />
  <path
     style="fill:#ffffff;opacity:0.2"
     d="M 16 2 A 14 14 0 0 0 2 16 A 14 14 0 0 0 2.0214844 16.414062 A 14 14 0 0 1 16 3 A 14 14 0 0 1 29.978516 16.585938 A 14 14 0 0 0 30 16 A 14 14 0 0 0 16 2 z"
     id="path82204" />
</svg>
