<?xml version="1.0" encoding="UTF-8" standalone="no"?>
<svg
   width="512"
   height="512"
   version="1"
   id="svg1879942"
   sodipodi:docname="bomber.svg"
   inkscape:version="1.1.2 (0a00cf5339, 2022-02-04)"
   xmlns:inkscape="http://www.inkscape.org/namespaces/inkscape"
   xmlns:sodipodi="http://sodipodi.sourceforge.net/DTD/sodipodi-0.dtd"
   xmlns="http://www.w3.org/2000/svg"
   xmlns:svg="http://www.w3.org/2000/svg">
  <sodipodi:namedview
     id="namedview1879944"
     pagecolor="#ffffff"
     bordercolor="#666666"
     borderopacity="1.0"
     inkscape:pageshadow="2"
     inkscape:pageopacity="0.0"
     inkscape:pagecheckerboard="0"
     showgrid="false"
     inkscape:zoom="1.6152344"
     inkscape:cx="255.69045"
     inkscape:cy="256"
     inkscape:window-width="1920"
     inkscape:window-height="1051"
     inkscape:window-x="0"
     inkscape:window-y="29"
     inkscape:window-maximized="1"
     inkscape:current-layer="svg1879942" />
  <defs
     id="defs1879916">
    <linearGradient
       id="a"
       x1="-15.689"
       x2="4"
       y1="30.798"
       y2="30.798"
       gradientUnits="userSpaceOnUse">
      <stop
         stop-color="#d31818"
         offset="0"
         id="stop1879911" />
      <stop
         stop-color="#fc7c00"
         offset="1"
         id="stop1879913" />
    </linearGradient>
  </defs>
  <path
     d="m 143.26,200.86 c -9.1287,4.8867 -32.893,6.5153 -43.801,1.8902 -4.2392,-1.7975 -4.5655,-1.1819 -3.1583,5.8543 1.8769,9.3844 -0.59675,9.9109 -12.366,2.6368 -6.4363,-3.9779 -10.56,-4.8257 -17.332,-3.5553 l -8.8822,1.665 8.3549,4.1774 c 9.5714,4.7804 15.668,15.533 13.563,23.921 -2.2101,8.8059 -8.5477,9.6793 -19.181,2.6428 -10.696,-7.0785 -14.183,-8.7255 -27.281,-3.4012 l -1.410188,0.40291 1.88e-4,9.99619 c 21.635453,15.18851 21.384714,27.04049 11.979338,40.04171 -1.616529,2.23456 6.511792,2.40247 4.419042,4.7277 v 0 L 70.6075,287.1524 c 12.56,-4.608 22.428,-2.128 22.428,5.641 0,7.76 -5.4029,10.472 -20.958,10.512 -10.137,0.0261 -19.959,2.982 -19.959,2.982 4.3268,6.6191 13.715,7.7918 19.835,10.629 17.217,8.176 24.782,7.6834 42.065,-2.7376 13.688,-8.2535 23.383,-11.566 29.242,-10.002 z"
     opacity="0.3"
     stroke-width="6.2096"
     id="path1879918"
     sodipodi:nodetypes="csccccccccccscccssccccc" />
  <path
     d="m 201.33603,119.11007 c -0.36643,0.0172 -0.80369,0.17735 -1.1992,0.2539 h -0.60156 l -0.83008,0.30274 c -1.8624,0.67946 -3.3807,2.3182 -4.0703,3.834 -0.68964,1.5158 -0.844,2.9119 -0.87109,4.2695 -0.0542,2.7152 0.48842,5.4664 1.2852,8.5859 1.5935,6.2391 4.3742,13.777 7.168,21.297 2.7938,7.5203 5.6031,15.012 7.1855,20.576 0.74489,2.6191 1.1338,4.7036 1.2441,5.998 -12.106,4.7295 -26.781,9.9375 -26.781,9.9375 l -3.3496,1.1719 v 94.885 l 4.3555,0.56446 c 0,0 48.465,6.2016 88.475,11.061 -2.7309,1.9419 -5.0248,3.6432 -8.9609,6.2441 -12.309,8.1341 -29.635,18.958 -47.225,29.748 -35.18,21.58 -71.453,43.047 -71.453,43.047 l -2.45168,2.48875 4.99668,6.81405 c 6.4976,0.002 17.832,-1.8825 33.707,-5.2246 15.875,-3.3421 35.908,-8.1906 58.182,-14.264 44.548,-12.146 98.035,-29.175 144.9,-48.846 46.867,-19.671 87.08,-41.519 105.68,-65.516 9.2977,-11.998 13.104,-25.525 7.7793,-38.346 -5.3182,-12.804 -18.602,-24.04 -40.826,-34.52 -30.815,-16.365 -75.181,-26.789 -124.62,-26.789 -24.912,0 -47.814,2.939 -68.129,7.5488 1.2434,-0.28216 -0.002,-0.0438 -1.8418,-0.99023 -1.8395,-0.94643 -4.3791,-2.5928 -7.2402,-4.6758 -5.7222,-4.1659 -12.803,-10.071 -19.881,-15.99 -7.0775,-5.919 -14.149,-11.849 -20.172,-16.24 -3.0116,-2.1954 -5.7381,-4.0086 -8.2949,-5.2988 -1.9176,-0.96767 -3.7486,-2.0412 -6.1602,-1.9277 z m 79.637,177.01 c -0.009,0.0104 -0.23071,0.19378 -0.25782,0.2207 0.15821,-0.24996 0.28122,-0.24774 0.25782,-0.2207 z"
     color="#000000"
     color-rendering="auto"
     dominant-baseline="auto"
     image-rendering="auto"
     opacity="0.2"
     shape-rendering="auto"
     solid-color="#000000"
     style="font-variant-ligatures:normal;font-variant-position:normal;font-variant-caps:normal;font-variant-numeric:normal;font-variant-alternates:normal;font-feature-settings:normal;text-indent:0;text-decoration-line:none;text-decoration-style:solid;text-decoration-color:#000000;text-transform:none;text-orientation:mixed;white-space:normal;shape-padding:0;isolation:auto;mix-blend-mode:normal"
     id="path1879920"
     sodipodi:nodetypes="ccccssccscccccccscccscccccscccccsccscs" />
  <g
     transform="matrix(6.2096 0 0 6.2096 118.42 60.475)"
     id="g1879940">
    <path
       d="m12.401 11.641c-1.4394 0.52513 3.4643 9.6011 2.281 10.264-2.0614 0.82228-4.6811 1.7373-4.6811 1.7373v14.001s9.1247 1.1837 16.001 2.0002c1.3785 0.16423-22.002 14.001-22.002 14.001 6.9291 0.001748 77.436-18.593 49.473-31.762-4.8034-2.5569-11.854-4.2306-19.713-4.2306-3.9485 0-7.5771 0.46588-10.793 1.1957-1.5475 0.35115-9.2206-7.6967-10.566-7.2058z"
       opacity=".3"
       id="path1879922" />
    <path
       d="m 12.401,9.9967 c -1.4394,0.52513 3.4643,9.6011 2.281,10.264 -2.0614,0.82228 -4.6811,1.7373 -4.6811,1.7373 v 14.001 c 0,0 9.1247,1.1837 16.001,2.0002 1.007379,0.120016 -11.207501,7.541695 -17.8575109,11.529134 -2.4498768,1.468981 0,0 0,0 0.8085624,2.04e-4 -1.661641,2.21905 0.620882,1.750976 C 26.043178,47.736156 78.172874,31.870498 53.4729,20.2382 c -4.8034,-2.5569 -11.854,-4.2306 -19.713,-4.2306 -3.9485,0 -7.5771,0.46588 -10.793,1.1957 -1.5475,0.35115 -9.2206,-7.6967 -10.566,-7.2058 z"
       fill="#ffffff"
       id="path1879924"
       sodipodi:nodetypes="cccccscscsccc" />
    <path
       d="m10 22.998v-2.0002h-6.0005v18.001h6.0005v-2.0002c12.015-2.0226 18.143-4.5577 18.001-7.0872-0.1379-2.4708-6.2655-4.9363-18.001-6.9139z"
       opacity=".2"
       id="path1879926" />
    <path
       d="m10 21.998v-2.0002h-6.0005v18.001h6.0005v-2.0002c12.015-2.0226 18.143-4.5577 18.001-7.0872-0.1379-2.4708-6.2655-4.9363-18.001-6.9139z"
       fill="#373b49"
       id="path1879928" />
    <path
       d="m46.085 18.497c-0.03958 0.31859-0.08057 0.64919-0.08205 0.89851 3e-3 4.5806 6.0836 7.1773 13.857 7.5904-0.51414-1.9781-2.4959-3.9177-6.3872-5.7504-0.54376-0.28945-1.1235-0.56252-1.7228-0.82819-0.42446-0.18637-0.86966-0.36194-1.3204-0.5352-0.15413-0.06-0.30391-0.12129-0.46097-0.17969-0.59448-0.21826-1.2064-0.42592-1.84-0.62115-0.66174-0.20392-1.3436-0.39646-2.0431-0.57426z"
       opacity=".2"
       id="path1879930" />
    <path
       d="m46.085 17.497c-0.03958 0.31859-0.08056 0.64919-0.08204 0.89851 3e-3 4.5806 6.0836 7.1773 13.857 7.5904-0.51414-1.9781-2.4959-3.9177-6.3872-5.7504-0.54376-0.28945-1.1235-0.56252-1.7228-0.82819-0.42446-0.18637-0.86966-0.36194-1.3204-0.5352-0.15413-0.06-0.30391-0.12129-0.46097-0.17969-0.59449-0.21826-1.2065-0.42592-1.84-0.62115-0.66174-0.20392-1.3436-0.39646-2.0431-0.57426z"
       fill="#373b49"
       id="path1879932" />
    <path
       d="m 12.4,9.9961 c -0.28511,0.10402 -0.31524,0.55218 -0.19922,1.1953 0.04344,-0.09548 0.10926,-0.16249 0.19922,-0.19531 1.3456,-0.49094 9.0189,7.5582 10.566,7.207 3.2161,-0.72981 6.8445,-1.1953 10.793,-1.1953 7.8584,1e-6 14.91,1.6736 19.713,4.2305 4.2644,2.0085 6.2294,4.1428 6.4883,6.3184 0.29091,-2.5204 -1.5717,-5.0028 -6.4883,-7.3184 -4.8034,-2.5569 -11.855,-4.2324 -19.713,-4.2324 -3.9485,0 -7.5769,0.46746 -10.793,1.1973 -1.5475,0.35115 -9.2208,-7.698 -10.566,-7.207 z m 2.3906,10.143 c -0.02851,0.05135 -0.06265,0.09493 -0.10938,0.12109 -2.0614,0.82228 -4.6816,1.7383 -4.6816,1.7383 v 1 c 0,0 2.6202,-0.916 4.6816,-1.7383 0.21812,-0.12212 0.22704,-0.53349 0.10938,-1.1211 z m 10.316,18.75 C 22.237213,41.022217 12.88138,46.688744 7.6405658,49.828948 6.5950188,50.455421 5.7132519,50.981345 5.0794434,51.358604 4.3948994,51.766061 3.9996,52.0001 3.9996,52.0001 c 0.43852,1.11e-4 1.1382,-0.07598 2.0449,-0.21875 4.8369,-2.8792 21.141,-12.642 19.957,-12.783 -0.29066,-0.03451 -0.59669,-0.07367 -0.89453,-0.10938 z"
       fill="#ffffff"
       opacity="0.1"
       id="path1879934"
       sodipodi:nodetypes="ccccscccscccscccccscssccccc" />
    <path
       d="m4 19.998v1h6v-1zm6 2v1c11.061 1.864 17.136 4.1616 17.914 6.4883 0.06127-0.19172 0.0986-0.38234 0.08789-0.57422-0.1379-2.4708-6.2661-4.9364-18.002-6.9141z"
       fill="#fff"
       opacity=".1"
       id="path1879936" />
    <path
       d="m 4,20.998 c -1.4701,0.78696 -5.2971,1.0492 -7.0537,0.3044 -0.68268,-0.28947 -0.73523,-0.19033 -0.50861,0.94278 0.30225,1.5113 -0.0961,1.596 -1.9915,0.42463 -1.0365,-0.64059 -1.7006,-0.77713 -2.7911,-0.57254 v 0 l -0.0849,0.94087 c 1.5414,0.76984 2.5233,2.5015 2.1842,3.8522 -0.35592,1.4181 -1.3765,1.5588 -3.0888,0.42559 -1.7225,-1.1399 -2.2841,-1.4052 -4.3933,-0.54773 v 0 l -0.2271,1.67468 c 3.434636,2.411143 3.4443,4.300201 1.992862,6.3591 -0.273991,0.388663 0.626325,0.526166 0.261412,0.931588 v 0 L -7.69981,34.89448 c 2.0226,-0.74208 3.6118,-0.3427 3.6118,0.90843 0,1.2497 -0.87008,1.6865 -3.3751,1.6928 -1.6325,0.0042 -3.2142,0.48023 -3.2142,0.48023 0.69679,1.0659 2.2087,1.2548 3.1942,1.7116 2.7727,1.3167 3.9909,1.2373 6.7741,-0.44086 2.2043,-1.3291 3.7656,-1.8626 4.7091,-1.6107 z"
       fill="url(#a)"
       id="path1879938"
       sodipodi:nodetypes="ccccccccccccscccscccscc" />
  </g>
</svg>
