<?xml version="1.0" encoding="UTF-8" standalone="no"?>
<svg
   width="32"
   height="32"
   version="1"
   id="svg17537"
   sodipodi:docname="colorhug-flash.svg"
   inkscape:version="1.1.2 (0a00cf5339, 2022-02-04)"
   xmlns:inkscape="http://www.inkscape.org/namespaces/inkscape"
   xmlns:sodipodi="http://sodipodi.sourceforge.net/DTD/sodipodi-0.dtd"
   xmlns="http://www.w3.org/2000/svg"
   xmlns:svg="http://www.w3.org/2000/svg">
  <defs
     id="defs17541" />
  <sodipodi:namedview
     id="namedview17539"
     pagecolor="#ffffff"
     bordercolor="#666666"
     borderopacity="1.0"
     inkscape:pageshadow="2"
     inkscape:pageopacity="0.0"
     inkscape:pagecheckerboard="0"
     showgrid="false"
     inkscape:zoom="25.84375"
     inkscape:cx="15.980653"
     inkscape:cy="16"
     inkscape:window-width="1920"
     inkscape:window-height="1051"
     inkscape:window-x="0"
     inkscape:window-y="29"
     inkscape:window-maximized="1"
     inkscape:current-layer="svg17537" />
  <rect
     fill="#4f4f4f"
     width="28"
     height="28"
     x="2"
     y="2"
     rx="14"
     ry="14"
     id="rect17507" />
  <g
     opacity=".2"
     transform="translate(0,1)"
     id="g17517">
    <path
       d="m10.016 13.09a6 6 0 0 0 -5.016 5.91 6 6 0 0 0 6 6 6 6 0 0 0 4.773 -2.371 8 8 0 0 1 -2.808 -1.369 3 3 0 0 1 -1.965 0.74 3 3 0 0 1 -3 -3 3 3 0 0 1 1.9102 -2.795 8 8 0 0 1 -0.1094 -1.305 8 8 0 0 1 0.2152 -1.81z"
       id="path17509" />
    <path
       d="m16 5a6 6 0 0 0 -6 6 6 6 0 0 0 0.33789 1.957 8 8 0 0 1 2.6719 -1.7715 3 3 0 0 1 -0.01 -0.186 3 3 0 0 1 3 -3 3 3 0 0 1 3 3 3 3 0 0 1 -0.0098 0.1875 8 8 0 0 1 2.6738 1.7676 6 6 0 0 0 0.336 -1.955 6 6 0 0 0 -6 -6z"
       id="path17511" />
    <circle
       cx="16"
       cy="11"
       r="2"
       id="circle17513" />
    <circle
       cx="11"
       cy="19"
       r="2"
       id="circle17515" />
  </g>
  <path
     fill="#fff"
     opacity=".1"
     d="m16 2c-7.756 0-14 6.244-14 14 0 0.169 0.0195 0.333 0.0254 0.5 0.2637-7.5206 6.3874-13.5 13.975-13.5 7.587 0 13.711 5.9794 13.975 13.5 0.005-0.167 0.025-0.331 0.025-0.5 0-7.756-6.244-14-14-14z"
     id="path17519" />
  <path
     opacity=".2"
     d="m2.0254 16.5c-0.0059 0.167-0.0254 0.331-0.0254 0.5 0 7.756 6.244 14 14 14s14-6.244 14-14c0-0.16884-0.01952-0.33264-0.02539-0.5-0.264 7.521-6.388 13.5-13.975 13.5-7.5872 0-13.711-5.979-13.975-13.5z"
     id="path17521" />
  <path
     fill="#69db3e"
     d="m10.016 13.09a6 6 0 0 0 -5.016 5.91 6 6 0 0 0 6 6 6 6 0 0 0 4.773 -2.371 8 8 0 0 1 -2.808 -1.369 3 3 0 0 1 -1.965 0.74 3 3 0 0 1 -3 -3 3 3 0 0 1 1.9102 -2.795 8 8 0 0 1 -0.1094 -1.305 8 8 0 0 1 0.2152 -1.81z"
     id="path17523" />
  <path
     fill="#3facd2"
     d="m16 5a6 6 0 0 0 -6 6 6 6 0 0 0 0.338 1.957 8 8 0 0 1 2.672 -1.771 3 3 0 0 1 -0.01 -0.186 3 3 0 0 1 3 -3 3 3 0 0 1 3 3 3 3 0 0 1 -0.01 0.188 8 8 0 0 1 2.674 1.767 6 6 0 0 0 0.336 -1.955 6 6 0 0 0 -6 -6z"
     id="path17525" />
  <circle
     fill="#8ccde4"
     cx="16"
     cy="11"
     r="2"
     id="circle17527" />
  <circle
     fill="#a5e98c"
     cx="11"
     cy="19"
     r="2"
     id="circle17529" />
  <circle
     fill="#e16262"
     cx="24"
     cy="21"
     r="8"
     id="circle17531" />
  <path
     opacity=".2"
     d="m31.979 21.424a8 8 0 0 1 -7.979 7.576 8 8 0 0 1 -7.979 -7.424 8 8 0 0 0 -0.021 0.424 8 8 0 0 0 8 8 8 8 0 0 0 8 -8 8 8 0 0 0 -0.02148 -0.57617z"
     id="path17533" />
  <path
     fill="#ffffff"
     d="m 24,17 c -2.2091,0 -4,1.7909 -4,4 0,2.2091 1.7909,4 4,4 1.8142,0 3.3495,-1.2018 3.8393,-2.8571 h -1.2321 c -0.44244,1.0054 -1.4382,1.7143 -2.6071,1.7143 -1.578,0 -2.8571,-1.2792 -2.8571,-2.8571 0,-1.578 1.2792,-2.8571 2.8571,-2.8571 0.78946,0 1.4946,0.3286 2.0089,0.84821 l -1.003533,1.003533 0.184688,0.433967 v 0 h 2.478376 v 0 L 28.0001,20.099406 v -2.563822 l -0.358856,-0.176018 v 0 L 26.8271,18.17371 c -0.725,-0.723 -1.722,-1.173 -2.827,-1.173 z"
     id="path17535"
     sodipodi:nodetypes="cssccsssccccccccccccc" />
</svg>
