<?xml version="1.0" encoding="UTF-8" standalone="no"?>
<svg
   width="512"
   height="512"
   version="1.1"
   viewBox="0 0 384 384"
   id="svg1586865"
   sodipodi:docname="com.github.zren.todolist.svg"
   inkscape:version="1.1.2 (0a00cf5339, 2022-02-04)"
   xmlns:inkscape="http://www.inkscape.org/namespaces/inkscape"
   xmlns:sodipodi="http://sodipodi.sourceforge.net/DTD/sodipodi-0.dtd"
   xmlns="http://www.w3.org/2000/svg"
   xmlns:svg="http://www.w3.org/2000/svg">
  <sodipodi:namedview
     id="namedview1586867"
     pagecolor="#ffffff"
     bordercolor="#666666"
     borderopacity="1.0"
     inkscape:pageshadow="2"
     inkscape:pageopacity="0.0"
     inkscape:pagecheckerboard="0"
     showgrid="false"
     inkscape:zoom="1.6152344"
     inkscape:cx="255.69045"
     inkscape:cy="256"
     inkscape:window-width="1920"
     inkscape:window-height="1051"
     inkscape:window-x="0"
     inkscape:window-y="29"
     inkscape:window-maximized="1"
     inkscape:current-layer="svg1586865" />
  <defs
     id="defs1586853">
    <linearGradient
       id="b"
       x1="20"
       x2="20"
       y1="18"
       y2="38"
       gradientTransform="matrix(11.827,0,0,11.827,-44.363,-113.27)"
       gradientUnits="userSpaceOnUse">
      <stop
         stop-color="#fff"
         offset="0"
         id="stop1586848" />
      <stop
         stop-color="#fff"
         offset="1"
         id="stop1586850" />
    </linearGradient>
  </defs>
  <path
     d="m88.094 75.953c-2.1172 0-4.1289 0.33984-6.0977 0.8125-11.43 2.7461-19.918 12.91-19.918 25.207v208.15c0 14.414 11.602 26.016 26.016 26.016h208.15c14.414 0 26.02-11.602 26.02-26.016v-208.15c0-12.297-8.4883-22.461-19.922-25.207-2.0156-0.23438-4.0117-0.8125-6.0976-0.8125z"
     style="fill:url(#b)"
     id="path1586855" />
  <path
     d="m97.555 64.129c-26.207 0-47.305 21.098-47.305 47.305v189.23c0 26.207 21.098 47.305 47.305 47.305h189.23c26.207 0 47.309-21.098 47.309-47.305v-189.23c0-26.207-21.102-47.305-47.309-47.305zm0 23.652h189.23c13.105 0 23.652 10.547 23.652 23.652v189.23c0 13.102-10.547 23.652-23.652 23.652h-189.23c-13.102 0-23.652-10.551-23.652-23.652v-189.23c0-13.105 10.551-23.652 23.652-23.652z"
     style="fill:#353a4a"
     id="path1586857" />
  <path
     d="m 351.28,53.677 c -5.1758,1.1172 -9.9453,4.0312 -13.305,8.1289 l -139.21,160.25 -53.219,-53.219 c -8.9024,-8.9023 -25.102,-8.9023 -34.004,-0.004 -8.9023,8.9024 -8.9023,25.102 0.004,34.004 l 70.957,70.961 11.19183,10.74247 v 0 l 14.41624,-1.42867 9.13393,-10.7948 156.21,-179.46 c 13.422,-14.613 -2.7383,-43.164 -22.176,-39.176 z"
     style="opacity:0.3"
     id="path1586859"
     sodipodi:nodetypes="cccccccccccccc" />
  <path
     d="m 351.28,46.177 c -5.1758,1.1172 -9.9453,4.0312 -13.305,8.1289 l -134.95332,155.34998 -8.37561,0.78109 v 0 L 145.546,161.3369 c -8.9024,-8.9023 -25.102,-8.9023 -34.004,-0.004 -8.9023,8.9024 -8.9023,25.102 0.004,34.004 l 70.957,70.961 12.17129,11.6826 v 0 l 12.49933,-1.26089 10.07138,-11.90271 156.21,-179.46 c 13.422,-14.613 -2.7383,-43.164 -22.176,-39.176 z"
     style="fill:#2a61bf"
     id="path1586861"
     sodipodi:nodetypes="cccccccccccccccc" />
  <path
     d="m73.903 293.16v7.5c0 13.102 10.55 23.651 23.651 23.651h189.22c13.106 0 23.653-10.55 23.653-23.651v-7.5c0 13.102-10.547 23.651-23.653 23.651h-189.22c-13.102 0-23.651-10.55-23.651-23.651z"
     style="fill:#020203;opacity:.3;stroke-width:.99997"
     id="path1586863" />
</svg>
