<?xml version="1.0" encoding="UTF-8" standalone="no"?>
<svg
   width="512"
   height="512"
   version="1.1"
   viewBox="0 0 384 384"
   id="svg2522680"
   sodipodi:docname="compiz.svg"
   inkscape:version="1.1.2 (0a00cf5339, 2022-02-04)"
   xmlns:inkscape="http://www.inkscape.org/namespaces/inkscape"
   xmlns:sodipodi="http://sodipodi.sourceforge.net/DTD/sodipodi-0.dtd"
   xmlns="http://www.w3.org/2000/svg"
   xmlns:svg="http://www.w3.org/2000/svg">
  <sodipodi:namedview
     id="namedview2522682"
     pagecolor="#ffffff"
     bordercolor="#666666"
     borderopacity="1.0"
     inkscape:pageshadow="2"
     inkscape:pageopacity="0.0"
     inkscape:pagecheckerboard="0"
     showgrid="false"
     inkscape:zoom="1.6152344"
     inkscape:cx="255.69045"
     inkscape:cy="256"
     inkscape:window-width="1920"
     inkscape:window-height="1051"
     inkscape:window-x="0"
     inkscape:window-y="29"
     inkscape:window-maximized="1"
     inkscape:current-layer="svg2522680" />
  <defs
     id="defs2522668">
    <clipPath
       id="clipPath2522658">
      <rect
         width="384"
         height="384"
         id="rect2522656" />
    </clipPath>
    <clipPath
       id="clipPath2522662">
      <rect
         width="384"
         height="384"
         id="rect2522660" />
    </clipPath>
    <clipPath
       id="clipPath2522666">
      <rect
         width="384"
         height="384"
         id="rect2522664" />
    </clipPath>
  </defs>
  <path
     d="m360 343.2v-302.39c0-9.2773-7.5234-16.797-16.801-16.797h-302.39c-9.2773 0-16.797 7.5195-16.797 16.797v302.39c0 9.2773 7.5195 16.801 16.797 16.801h302.39c9.2773 0 16.801-7.5234 16.801-16.801z"
     fill="#4aaee6"
     id="path2522670" />
  <path
     d="m 72,79.504 v 186.78429 l 7.549428,3.58625 v 0 L 120,209.706 l 68.437,150.27 h 60 l -104.44,-160.47 h 87.00425 v 0 l 0.91481,-5.76958 z"
     fill-rule="evenodd"
     opacity="0.3"
     id="path2522672"
     sodipodi:nodetypes="cccccccccccc" />
  <path
     d="m 72,79.504 v 1.956135 177.755615 l 7.576438,3.11861 v 0 l 37.716402,-56.10157 v 0 l 4.34938,-0.42739 70.35378,154.2006 h 60 L 146.82353,196.40439 148.69586,192.006 v 0 h 79.28152 v 0 l 0.65248,-8.11634 L 78.85866,76.903358 Z"
     fill="#ffffff"
     fill-rule="evenodd"
     id="path2522674"
     sodipodi:nodetypes="cccccccccccccccccc" />
  <path
     transform="scale(.75)"
     d="m32.01 447.6v10c0 12.37 10.027 22.4 22.396 22.4h403.19c12.37 0 22.4-10.031 22.4-22.4v-10c0 12.37-10.031 22.4-22.4 22.4h-403.19c-12.37 0-22.396-10.031-22.396-22.4z"
     opacity=".3"
     stroke-width="1.3333"
     id="path2522676" />
  <path
     transform="scale(.75)"
     d="m54.406 32.01c-12.37 0-22.396 10.027-22.396 22.396v10c0-12.37 10.027-22.396 22.396-22.396h403.19c12.37 0 22.4 10.027 22.4 22.396v-10c0-12.37-10.031-22.396-22.4-22.396h-403.19z"
     fill="#fff"
     opacity=".3"
     stroke-width="1.3333"
     id="path2522678" />
</svg>
