<?xml version="1.0" encoding="UTF-8" standalone="no"?>
<svg
   width="32"
   height="32"
   version="1"
   id="svg8290"
   sodipodi:docname="dods.svg"
   inkscape:version="1.1.2 (0a00cf5339, 2022-02-04)"
   xmlns:inkscape="http://www.inkscape.org/namespaces/inkscape"
   xmlns:sodipodi="http://sodipodi.sourceforge.net/DTD/sodipodi-0.dtd"
   xmlns="http://www.w3.org/2000/svg"
   xmlns:svg="http://www.w3.org/2000/svg">
  <defs
     id="defs8294" />
  <sodipodi:namedview
     id="namedview8292"
     pagecolor="#ffffff"
     bordercolor="#666666"
     borderopacity="1.0"
     inkscape:pageshadow="2"
     inkscape:pageopacity="0.0"
     inkscape:pagecheckerboard="0"
     showgrid="false"
     inkscape:zoom="25.84375"
     inkscape:cx="15.980653"
     inkscape:cy="16"
     inkscape:window-width="1920"
     inkscape:window-height="1051"
     inkscape:window-x="0"
     inkscape:window-y="29"
     inkscape:window-maximized="1"
     inkscape:current-layer="svg8290" />
  <rect
     fill="#c2352a"
     width="28"
     height="28"
     x="2"
     y="2"
     rx="1.4"
     ry="1.4"
     id="rect8276" />
  <path
     fill="#6fbb34"
     d="m30 16v-12.6c0-0.7756-0.624-1.4-1.4-1.4h-25.2c-0.7756 0-1.4 0.6244-1.4 1.4v12.6z"
     id="path8278" />
  <path
     fill="#ffffff"
     transform="matrix(0.75,0,0,0.73931,-3.0365,-1.3381)"
     d="m 24.896905,6.7289531 1.000824,0.054403 2.150971,3.8185439 4.137161,0.574066 v 0 l 0.289854,1.070923 -3.093715,3.089151 0.73868,4.232505 -0.740569,0.660318 v 0 L 25.38197,18.04134 21.567928,20.128136 v 0 L 20.676399,19.378665 21.38194,15.33604 18.282776,12.241447 v 0 L 18.589909,11.174324 22.71524,10.6019 Z"
     id="path8280"
     sodipodi:nodetypes="cccccccccccccccccccc" />
  <path
     fill="#1f1f1f"
     d="M 14.145759,17.583038 14.572294,17 h 2.973943 v 0 L 17.900322,17.398712 16.5,23 l 1.384584,5.538335 v 0 L 17.593049,29 h -3.029538 v 0 L 14.127873,28.488507 15.5,23 Z"
     id="path8282"
     sodipodi:nodetypes="cccccccccccccc" />
  <path
     fill="#1f1f1f"
     d="m 22,21.5742 v 0 2.854302 0 L 21.525412,24.881353 16,23.5 10.528963,24.867759 v 0 L 10,24.432295 v -2.867365 0 L 10.574813,21.143703 16,22.5 21.520091,21.119977 Z"
     id="path8284"
     sodipodi:nodetypes="ccccccccccccccc" />
  <path
     fill="#fff"
     opacity=".2"
     d="m3.4004 2c-0.7756 0-1.4004 0.6248-1.4004 1.4004v1c0-0.7756 0.6248-1.4004 1.4004-1.4004h25.2c0.775 0 1.4 0.6248 1.4 1.4004v-1c0-0.7756-0.625-1.4004-1.4-1.4004h-25.2z"
     id="path8286" />
  <path
     opacity=".2"
     d="m2 28.6v1c0 0.775 0.6248 1.4 1.4004 1.4h25.2c0.775 0 1.4-0.625 1.4-1.4v-1c0 0.775-0.625 1.4-1.4 1.4h-25.2c-0.7752 0-1.4-0.625-1.4-1.4z"
     id="path8288" />
</svg>
