<?xml version="1.0" encoding="UTF-8" standalone="no"?>
<svg
   width="512"
   height="512"
   version="1.1"
   viewBox="0 0 384 384"
   id="svg1660417"
   sodipodi:docname="hedgewars.svg"
   inkscape:version="1.1.2 (0a00cf5339, 2022-02-04)"
   xmlns:inkscape="http://www.inkscape.org/namespaces/inkscape"
   xmlns:sodipodi="http://sodipodi.sourceforge.net/DTD/sodipodi-0.dtd"
   xmlns:xlink="http://www.w3.org/1999/xlink"
   xmlns="http://www.w3.org/2000/svg"
   xmlns:svg="http://www.w3.org/2000/svg">
  <defs
     id="defs1660421" />
  <sodipodi:namedview
     id="namedview1660419"
     pagecolor="#ffffff"
     bordercolor="#666666"
     borderopacity="1.0"
     inkscape:pageshadow="2"
     inkscape:pageopacity="0.0"
     inkscape:pagecheckerboard="0"
     showgrid="false"
     inkscape:zoom="1.6152344"
     inkscape:cx="255.69045"
     inkscape:cy="256"
     inkscape:window-width="1920"
     inkscape:window-height="1051"
     inkscape:window-x="0"
     inkscape:window-y="29"
     inkscape:window-maximized="1"
     inkscape:current-layer="svg1660417" />
  <path
     d="m335.15 146.95c-21.469-8.7817-45.993 1.5037-54.775 22.972-8.7817 21.469 1.5037 45.993 22.972 54.775 21.469 8.7817 45.993-1.5037 54.775-22.972s-1.5037-45.993-22.972-54.775z"
     fill="#622e78"
     id="path1660351" />
  <use
     transform="rotate(-67.753 166.06 131.74)"
     width="100%"
     height="100%"
     mask="url(#k)"
     xlink:href="#m"
     id="use1660353" />
  <path
     d="m324 282c0-23.195-18.805-42-42-42s-42 18.805-42 42 18.805 42 42 42 42-18.805 42-42z"
     fill="#622e78"
     id="path1660355" />
  <path
     transform="scale(.75)"
     d="m320.23 371c-0.14604 1.6488-0.23438 3.3133-0.23438 5 0 30.927 25.073 56 56 56s56-25.073 56-56c0-1.6867-0.0883-3.3512-0.23438-5-2.5316 28.583-26.525 51-55.766 51-29.24 0-53.234-22.417-55.766-51z"
     opacity=".3"
     stroke-width="1.3333"
     id="path1660357" />
  <path
     d="m48 235.5 50.578-76.605 41.055 71.105z"
     opacity=".3"
     id="path1660359" />
  <path
     d="M 61.736659,227.17599 57.740233,219.99337 98.578,151.395 l 46.21275,70.79592 z"
     fill="#367bf0"
     id="path1660361"
     sodipodi:nodetypes="cccccc" />
  <path
     d="m36 169.5 84-42v84z"
     opacity=".3"
     id="path1660363" />
  <path
     transform="scale(0.75)"
     d="M 131.44,201.86 71.517455,292.61727 64.002,304 l 6.875,-0.41211 60.562,-91.729 49.16,85.143 5.5801,-0.33593 -54.74,-94.807 z"
     opacity="0.3"
     stroke-width="1.3333"
     id="path1660365"
     sodipodi:nodetypes="ccccccccc" />
  <path
     d="m 50.856235,161.35068 v 0 L 120,120 v 84 L 50.070543,169.03527 Z"
     fill="#2b62c0"
     id="path1660367"
     sodipodi:nodetypes="cccccc" />
  <path
     transform="scale(0.75)"
     d="M 160,160 60.168009,209.916 58,221 v 0 l 102,-51 z"
     opacity="0.3"
     stroke-width="1.3333"
     id="path1660369"
     sodipodi:nodetypes="cccccc" />
  <path
     d="m48 114.59 89.93-18.402-21.246 79.309z"
     opacity=".3"
     id="path1660371" />
  <path
     d="m 64.698632,110.29105 v 0 L 137.93,88.688 116.684,167.997 60.885056,118.52195 Z"
     fill="#265ab1"
     id="path1660373"
     sodipodi:nodetypes="cccccc" />
  <path
     d="m84 62.891 91.633 5.5-41.055 71.105z"
     opacity=".3"
     id="path1660375" />
  <path
     transform="scale(0.75)"
     d="M 183.91,118.26 81.584097,139.19709 v 0 L 73.1621,150.92 l 107.91,-22.08 2.834,-10.58 z"
     opacity="0.3"
     stroke-width="1.3333"
     id="path1660377"
     sodipodi:nodetypes="ccccccc" />
  <path
     d="m 95.613235,62.638034 v 0 L 175.633,60.895 134.578,132 90.785352,72.1624 Z"
     fill="#1e488e"
     id="path1660379"
     sodipodi:nodetypes="cccccc" />
  <path
     transform="scale(0.75)"
     d="M 125.06253,74.643188 118.875,84.271 l 9.92302,0.595625 99.79698,5.990275 5.5801,-9.6641 z"
     opacity="0.3"
     stroke-width="1.3333"
     id="path1660381"
     sodipodi:nodetypes="cccccc" />
  <path
     transform="scale(.75)"
     d="m376 320c-30.927 0-56 25.073-56 56 0 1.6867 0.0883 3.3512 0.23438 5 2.5316-28.583 26.525-51 55.766-51 29.24 0 53.234 22.417 55.766 51 0.14604-1.6488 0.23438-3.3133 0.23438-5 0-30.927-25.073-56-56-56z"
     fill="#fff"
     opacity=".1"
     stroke-width="1.3333"
     id="path1660383" />
  <path
     d="m348 168c0-66.273-53.727-120-120-120s-120 53.727-120 120 53.727 120 120 120 120-53.727 120-120z"
     fill="#a368bc"
     id="path1660385" />
  <path
     d="m292 115.5c-8.2258 0-15.725 3.7065-21.394 9.7925-3.3197-1.3911-6.8869-2.1562-10.605-2.1562-17.672 0-32 17.094-32 38.18 0 21.09 14.328 38.184 32 38.184 8.2276 0 15.727-3.7076 21.396-9.7939 3.32 1.3916 6.8856 2.1562 10.604 2.1562 17.676 0 32.001-17.093 32.001-38.183 0-21.086-14.325-38.18-32.001-38.18z"
     fill="#1a0d0d"
     opacity=".3"
     id="path1660387" />
  <path
     d="m292 153.82c0-21.086-14.324-38.18-32-38.18-17.672 0-32 17.094-32 38.18 0 21.09 14.328 38.184 32 38.184 17.676 0 32-17.094 32-38.184z"
     fill="#fff"
     id="path1660389" />
  <path
     d="m324 146.18c0-21.086-14.324-38.18-32-38.18-17.672 0-32 17.094-32 38.18 0 21.09 14.328 38.184 32 38.184 17.676 0 32-17.094 32-38.184z"
     fill="#fff"
     id="path1660391" />
  <path
     d="m282 156c0-6.6289-4.0312-12-9-12s-9 5.3711-9 12 4.0312 12 9 12 9-5.3711 9-12z"
     id="path1660393" />
  <use
     width="100%"
     height="100%"
     fill="#000000"
     mask="url(#j)"
     xlink:href="#l"
     id="use1660395" />
  <path
     d="m318 144c0-6.6289-4.0312-12-9-12s-9 5.3711-9 12 4.0312 12 9 12 9-5.3711 9-12z"
     id="path1660397" />
  <path
     d="m216 294c0-23.195-18.805-42-42-42s-42 18.805-42 42 18.805 42 42 42 42-18.805 42-42z"
     fill="#622e78"
     id="path1660399" />
  <path
     transform="scale(.75)"
     d="m176.23 387c-0.14604 1.6488-0.23438 3.3133-0.23438 5 0 30.927 25.073 56 56 56s56-25.073 56-56c0-1.6867-0.0883-3.3512-0.23438-5-2.5316 28.583-26.525 51-55.766 51s-53.234-22.417-55.766-51z"
     opacity=".3"
     stroke-width="1.3333"
     id="path1660401" />
  <path
     transform="scale(.75)"
     d="m232 336c-30.927 0-56 25.073-56 56 0 1.6867 0.0883 3.3512 0.23438 5 2.5316-28.583 26.525-51 55.766-51s53.234 22.417 55.766 51c0.14604-1.6488 0.23438-3.3133 0.23438-5 0-30.927-25.073-56-56-56z"
     fill="#fff"
     opacity=".1"
     stroke-width="1.3333"
     id="path1660403" />
  <path
     d="m192.85 166.79c-22.751-4.5194-44.859 10.261-49.378 33.012-4.5194 22.751 10.261 44.859 33.012 49.378 22.751 4.5194 44.859-10.261 49.378-33.012 4.5194-22.751-10.261-44.859-33.012-49.378z"
     fill="#622e78"
     id="path1660405" />
  <path
     d="m192.85 166.79c-22.751-4.5194-44.859 10.261-49.378 33.012-4.5194 22.751 10.261 44.859 33.012 49.378 22.751 4.5194 44.859-10.261 49.378-33.012 4.5194-22.751-10.261-44.859-33.012-49.378z"
     opacity=".3"
     id="path1660407" />
  <path
     d="m192.85 159.29c-22.751-4.5194-44.859 10.261-49.378 33.012-4.5194 22.751 10.261 44.859 33.012 49.378 22.751 4.5194 44.859-10.261 49.378-33.012 4.5194-22.751-10.261-44.859-33.012-49.378z"
     fill="#622e78"
     id="path1660409" />
  <path
     transform="scale(.75)"
     d="m245.84 211.31c-26.046 0.15-49.274 18.557-54.547 45.1-6.0258 30.334 13.681 59.812 44.016 65.838 7.1292 1.4162 14.208 1.3945 20.949 0.16407-0.31644-0.05731-0.63257-0.10116-0.94922-0.16407-30.334-6.0258-50.041-35.504-44.016-65.838 4.6092-23.203 22.945-40.173 44.885-44.18-3.4713-0.62842-6.9292-0.93956-10.338-0.91993z"
     fill="#fff"
     opacity=".1"
     stroke-width="1.3333"
     id="path1660411" />
  <path
     transform="scale(.75)"
     d="m304 64c-88.364 0-160 71.636-160 160 0 1.6736 0.03491 3.3387 0.08594 5 2.6429-86.049 73.224-155 159.91-155 86.69 0 157.27 68.951 159.91 155 0.05103-1.6613 0.08594-3.3264 0.08594-5 0-88.364-71.636-160-160-160z"
     fill="#fff"
     opacity=".2"
     stroke-width="1.3333"
     id="path1660413" />
  <path
     d="m303.59 216c-13.109 3.1484-21.176 13.711-34.109 16.574-9.3086 1.8125-21.562-5.875-30.281-1.582-4.8789 2.4062-17.535 8.7461-7.3242 12.84 0 0 6.0234 2.4297 13.605 4.6016 7.5859 2.1719 16.383 4.6445 25.672 3.0703 10.508-1.7773 18.969-7.8594 26.137-13.215 7.168-5.3516 12.48-10.379 12.48-10.379 4.9453-4.5469 1.1523-11.855-6.1797-11.918z"
     fill-rule="evenodd"
     opacity=".5"
     id="path1660415" />
</svg>
