<?xml version="1.0" encoding="UTF-8" standalone="no"?>
<svg
   width="32"
   height="32"
   version="1"
   id="svg1093252"
   sodipodi:docname="hexchat.svg"
   inkscape:version="1.1.2 (0a00cf5339, 2022-02-04)"
   xmlns:inkscape="http://www.inkscape.org/namespaces/inkscape"
   xmlns:sodipodi="http://sodipodi.sourceforge.net/DTD/sodipodi-0.dtd"
   xmlns="http://www.w3.org/2000/svg"
   xmlns:svg="http://www.w3.org/2000/svg">
  <defs
     id="defs1093256" />
  <sodipodi:namedview
     id="namedview1093254"
     pagecolor="#ffffff"
     bordercolor="#666666"
     borderopacity="1.0"
     inkscape:pageshadow="2"
     inkscape:pageopacity="0.0"
     inkscape:pagecheckerboard="0"
     showgrid="false"
     inkscape:zoom="25.84375"
     inkscape:cx="15.980653"
     inkscape:cy="16"
     inkscape:window-width="1920"
     inkscape:window-height="1051"
     inkscape:window-x="0"
     inkscape:window-y="29"
     inkscape:window-maximized="1"
     inkscape:current-layer="svg1093252" />
  <path
     fill="#feea3a"
     d="m 11.562,3 c -0.831,0 -1.5,0.669 -1.5,1.5 v 14 c 0,0.831 0.669,1.5 1.5,1.5 h 14 c 0.831,0 1.5,-0.669 1.5,-1.5 V 6.2960897 l 0.249295,-0.545385 v 0 L 29.293375,3.7686253 29.165229,3 v 0 z"
     id="path1093236"
     sodipodi:nodetypes="ssssssccccccs" />
  <path
     fill="#ffffff"
     opacity="0.1"
     d="m 11.562,3 c -0.831,0 -1.5,0.669 -1.5,1.5 v 1 c 0,-0.831 0.669,-1.5 1.5,-1.5 h 17.5 L 28.391688,3 v 0 z"
     id="path1093238"
     sodipodi:nodetypes="sscscccs" />
  <path
     opacity=".2"
     d="m29.062 4-2 2v1l3-3h-1zm-19 14.5v1c0 0.831 0.669 1.5 1.5 1.5h14c0.831 0 1.5-0.669 1.5-1.5v-1c0 0.831-0.669 1.5-1.5 1.5h-14c-0.831 0-1.5-0.669-1.5-1.5z"
     id="path1093240" />
  <path
     fill="#fe9700"
     d="m 2.8775081,12.815008 v 0 L 5.0625,15 v 12.5 c 0,0.831 0.669,1.5 1.5,1.5 h 14 c 0.831,0 1.5,-0.669 1.5,-1.5 v -14 c 0,-0.831 -0.669,-1.5 -1.5,-1.5 H 3.1442526 Z"
     id="path1093242"
     sodipodi:nodetypes="cccsssssscc" />
  <path
     fill-rule="evenodd"
     opacity=".2"
     d="m11.533 16-0.5293 3h-2.9414v1h2.7656l-0.53125 3h-2.2344v1h2.0586l-0.5293 3h1l0.5293-3h2.5l-0.52929 3h1l0.52929-3h3.4414v-1h-3.2656l0.53124-3h2.7344v-1h-2.5586l0.52929-3h-1l-0.52929 3h-2.5l0.52929-3zm0.29492 4h2.5l-0.53124 3h-2.5z"
     id="path1093244" />
  <path
     fill="#ffffff"
     opacity="0.1"
     d="m 20.5,12 c 0.831,0 1.5,0.669 1.5,1.5 v 1 C 22,13.669 21.331,13 20.5,13 H 3 v 0 l 0.2528364,-1 z"
     id="path1093246"
     sodipodi:nodetypes="sscscccs" />
  <path
     fill="#fff"
     fill-rule="evenodd"
     d="m11.533 15-0.5293 3h-2.9414v1h2.7656l-0.53125 3h-2.2344v1h2.0586l-0.5293 3h1l0.5293-3h2.5l-0.52929 3h1l0.52929-3h3.4414v-1h-3.2656l0.53124-3h2.7344v-1h-2.5586l0.52929-3h-1l-0.52929 3h-2.5l0.52929-3zm0.29492 4h2.5l-0.53124 3h-2.5z"
     id="path1093248" />
  <path
     opacity="0.2"
     d="m 2.0625,13 3,3 v -0.570008 0 L 4.8438787,14.781379 3.0625,13 Z m 3,14.5 v 1 c 0,0.831 0.669,1.5 1.5,1.5 h 14 c 0.831,0 1.5,-0.669 1.5,-1.5 v -1 c 0,0.831 -0.669,1.5 -1.5,1.5 h -14 c -0.831,0 -1.5,-0.669 -1.5,-1.5 z"
     id="path1093250"
     sodipodi:nodetypes="ccccccccsssscssc" />
</svg>
