<?xml version="1.0" encoding="UTF-8" standalone="no"?>
<svg
   width="32"
   height="32"
   version="1"
   id="svg774973"
   sodipodi:docname="io.github.cloose.CuteMarkEd.svg"
   inkscape:version="1.1.2 (0a00cf5339, 2022-02-04)"
   xmlns:inkscape="http://www.inkscape.org/namespaces/inkscape"
   xmlns:sodipodi="http://sodipodi.sourceforge.net/DTD/sodipodi-0.dtd"
   xmlns="http://www.w3.org/2000/svg"
   xmlns:svg="http://www.w3.org/2000/svg">
  <defs
     id="defs774977" />
  <sodipodi:namedview
     id="namedview774975"
     pagecolor="#ffffff"
     bordercolor="#666666"
     borderopacity="1.0"
     inkscape:pageshadow="2"
     inkscape:pageopacity="0.0"
     inkscape:pagecheckerboard="0"
     showgrid="false"
     inkscape:zoom="25.84375"
     inkscape:cx="15.980653"
     inkscape:cy="16"
     inkscape:window-width="1920"
     inkscape:window-height="1051"
     inkscape:window-x="0"
     inkscape:window-y="29"
     inkscape:window-maximized="1"
     inkscape:current-layer="svg774973" />
  <path
     fill="#e4e4e4"
     d="m27 28.5v-25c0-0.831-0.669-1.5-1.5-1.5h-19c-0.831 0-1.5 0.669-1.5 1.5v25c0 0.831 0.669 1.5 1.5 1.5h19c0.831 0 1.5-0.669 1.5-1.5z"
     id="path774953" />
  <path
     fill="#fff"
     opacity=".1"
     d="m6.5 2c-0.831 0-1.5 0.669-1.5 1.5v1c0-0.831 0.669-1.5 1.5-1.5h19c0.831 0 1.5 0.669 1.5 1.5v-1c0-0.831-0.669-1.5-1.5-1.5z"
     id="path774955" />
  <path
     opacity=".2"
     d="m5 28.5v1c0 0.831 0.669 1.5 1.5 1.5h19c0.831 0 1.5-0.669 1.5-1.5v-1c0 0.831-0.669 1.5-1.5 1.5h-19c-0.831 0-1.5-0.669-1.5-1.5z"
     id="path774957" />
  <path
     style="opacity:0.5"
     d="m 19,13 v 3 h -0.841627 v 0 L 18.001155,16.668206 19,18 h 2 l 1,-2 h -1 v -3 z"
     id="path774959"
     sodipodi:nodetypes="ccccccccccc" />
  <path
     style="opacity:0.5"
     d="M 8.2265625,10 C 7.5608055,10 7,10.528372 7,11.154297 l 0,8.691406 C 7,20.471628 7.5608055,21 8.2265625,21 L 23.773438,21 C 24.439194,21 25,20.471628 25,19.845703 l 0,-8.691406 C 25,10.528372 24.439194,10 23.773438,10 Z M 9,12 l 14,0 0,7 -14,0 z"
     id="path774961" />
  <g
     transform="translate(3)"
     id="g774965">
    <circle
       fill="#ff8c50"
       cx="21"
       cy="23"
       r="8"
       id="circle774963" />
  </g>
  <path
     fill="#fff"
     d="m20 25.218v1.782h1.7819l4.5004-4.5004-1.7819-1.7819zm7.8586-4.2891c0.18848-0.18847 0.18848-0.48545 0-0.67393l-1.1137-1.1137c-0.18848-0.18848-0.48546-0.18848-0.67393 0l-0.931 0.937 1.782 1.782z"
     id="path774967" />
  <path
     fill-rule="evenodd"
     opacity=".2"
     d="m31.979 23.424a8 8 0 0 1 -7.979 7.576 8 8 0 0 1 -7.979 -7.424 8 8 0 0 0 -0.021 0.424 8 8 0 0 0 8 8 8 8 0 0 0 8 -8 8 8 0 0 0 -0.02148 -0.57617z"
     id="path774969" />
  <path
     style="opacity:0.5"
     d="m 10,13 0,5 2,0 0,-2.199285 L 13,17 14,15.800715 14,18 l 2,0 0,-5 -2,0 -1,1.5 -1,-1.5 z"
     id="path774971" />
</svg>
