<?xml version="1.0" encoding="UTF-8" standalone="no"?>
<svg
   width="512"
   height="512"
   version="1.1"
   viewBox="0 0 384 384"
   id="svg85692"
   sodipodi:docname="kali-thcping6.svg"
   inkscape:version="1.1.2 (0a00cf5339, 2022-02-04)"
   xmlns:inkscape="http://www.inkscape.org/namespaces/inkscape"
   xmlns:sodipodi="http://sodipodi.sourceforge.net/DTD/sodipodi-0.dtd"
   xmlns="http://www.w3.org/2000/svg"
   xmlns:svg="http://www.w3.org/2000/svg">
  <defs
     id="defs85696" />
  <sodipodi:namedview
     id="namedview85694"
     pagecolor="#ffffff"
     bordercolor="#666666"
     borderopacity="1.0"
     inkscape:pageshadow="2"
     inkscape:pageopacity="0.0"
     inkscape:pagecheckerboard="0"
     showgrid="false"
     inkscape:zoom="1.6152344"
     inkscape:cx="255.69045"
     inkscape:cy="256"
     inkscape:window-width="1920"
     inkscape:window-height="1051"
     inkscape:window-x="0"
     inkscape:window-y="29"
     inkscape:window-maximized="1"
     inkscape:current-layer="svg85692" />
  <g
     fill-rule="evenodd"
     id="g85648">
    <path
       d="m290.3 36.879h30.18v41.418h-30.18z"
       fill="#ffc72e"
       id="path85640" />
    <path
       d="m63.953 36.531h30.176v41.422h-30.176z"
       fill="#ffc72e"
       id="path85642" />
    <path
       d="m34.004 47.406h318.57v137.48h-318.57z"
       fill="#dc4545"
       id="path85644" />
    <path
       d="m49.762 65.242h285.29v123.12h-285.29z"
       fill="#ca2828"
       id="path85646" />
  </g>
  <path
     d="m105.64 114.72 18.734-29.799c2.808-2.8965 4.5461-2.635 5.5308 0.77029l3.0069 28.822c1.7748 4.7127 4.8399 6.8165 9.4593 6.8165 3.7734 0 6.0848-1.5315 7.7051-6.1834l4.741-27.231c0.68042-2.1085 1.434-3.0479 2.2496-2.7803 0.40808 0.13278 1.0841 0.75277 1.9462 1.7474l17.526 27.874-14.935 25.25c-2.8764 3.6749-5.0276 4.3004-9.0149 4.3129-3.9375 0.0117-17.457 0.62109-17.52 0.61328l-10.16-0.82812z"
     fill="#fff"
     id="path85650" />
  <g
     fill-rule="evenodd"
     id="g85670">
    <path
       d="m222.07 94.941h23.668v82.91h-23.668z"
       fill="#fff"
       id="path85652" />
    <path
       d="m125.54 143.89h32.336v41.422h-32.336z"
       fill="#353a4a"
       id="path85654" />
    <path
       d="m16.273 169.98h353.09v170.85h-353.09z"
       opacity=".3"
       id="path85656" />
    <path
       d="m16.273 177.48h353.09v170.85h-353.09z"
       fill="#dc4545"
       id="path85658" />
    <path
       d="m16.32 177.41h353.09v56.949h-353.09z"
       fill="#fd5c5c"
       id="path85660" />
    <path
       d="m63.27 161.54h15.531v41.418h-15.531z"
       fill="#ffc72e"
       id="path85662" />
    <path
       d="m78.473 161.57h15.531v41.418h-15.531z"
       fill="#fd8a17"
       id="path85664" />
    <path
       d="m289.87 161.99h15.531v41.418h-15.531z"
       fill="#ffc72e"
       id="path85666" />
    <path
       d="m305.07 162.02h15.531v41.418h-15.531z"
       fill="#fd8a17"
       id="path85668" />
  </g>
  <g
     fill-rule="evenodd"
     id="g85678">
    <path
       d="m222.02 93.996v23.257h0.0234v1.9497c0 8.1328 5.2964 14.726 11.832 14.726 6.5352 0 11.836-6.5933 11.836-14.726v-9.9302c0-0.19383-0.0175-0.38221-0.0235-0.57422v-14.703z"
       fill="#e6e6e6"
       id="path85672" />
    <path
       transform="scale(.75)"
       d="m21.697 454.44v10h470.78v-10h-470.78z"
       fill="#100303"
       opacity=".3"
       stroke-width="1.3333"
       id="path85674" />
    <path
       transform="scale(.75)"
       d="m45.338 63.209v10h424.76v-10h-424.76z"
       fill="#fff"
       opacity=".3"
       stroke-width="1.3333"
       id="path85676" />
  </g>
  <path
     transform="scale(.75)"
     d="m142.78 149.89-1.9258 3.0625 25.693 39.18 13.547 1.1035c0.084 0.01041 18.109-0.80276 23.359-0.81836 5.3163-0.01665 8.1843-0.85015 12.02-5.75l19.914-33.666-1.8281-2.9082-18.086 30.574c-3.8353 4.8998-6.7032 5.7334-12.02 5.75-5.25 0.0156-23.275 0.82877-23.359 0.81836l-13.547-1.1035-23.768-36.242z"
     opacity=".1"
     stroke-width="1.3333"
     id="path85680" />
  <path
     transform="scale(0.75)"
     d="m 169.97,110.57 c -1.1272,0.0793 -2.4928,0.96274 -4.1309,2.6524 l -24.979,39.73 1.9258,2.9375 23.053,-36.668 c 3.744,-3.862 6.0621,-3.513 7.375,1.0273 l 4.0098,38.428 c 2.3664,6.2836 6.4521,9.0898 12.611,9.0898 5.0313,0 8.113,-2.0436 10.273,-8.2461 l 6.3223,-36.309 c 0.90723,-2.8113 1.9107,-4.0638 2.998,-3.707 0.54411,0.17704 1.4462,1.0039 2.5957,2.3301 l 21.541,34.258 1.8281,-3.0918 -23.369,-37.166 c -1.1495,-1.3262 -2.0517,3.8468 -2.5958,3.6697 -1.0874,-0.35676 -2.0907,-5.1041 -2.9979,-2.2928 l -6.3223,36.309 c -2.1604,6.2025 -5.2422,8.2461 -10.273,8.2461 -6.1592,0 -10.245,-2.8062 -12.611,-9.0898 l -4.0098,-38.428 c -0.73849,-2.5539 -1.7947,-3.7814 -3.244,-3.6794 z"
     opacity="0.1"
     stroke-width="1.3333"
     id="path85682"
     sodipodi:nodetypes="cccccccsccccccccccscccc" />
  <rect
     x="46.093"
     y="207.06"
     width="291.81"
     height="120.6"
     rx="22.5"
     ry="22.5"
     fill="#272a34"
     stroke-linecap="round"
     stroke-linejoin="round"
     stroke-width="7.5"
     id="rect85684" />
  <rect
     x="46.093"
     y="207.06"
     width="291.81"
     height="120.6"
     rx="22.5"
     ry="22.5"
     opacity=".5"
     stroke-linecap="round"
     stroke-linejoin="round"
     stroke-width="7.5"
     id="rect85686" />
  <path
     d="m285.36 232.21c-26.102 0-39.919 15.942-39.919 44.169 0 26.338 11.929 40.155 32.716 40.155 18.897 0 31.413-11.455 31.413-28.581 0-15.354-9.8008-25.271-24.446-25.271-7.7951 0-14.408 2.7128-19.487 8.0276 1.1811-14.291 8.1464-21.966 20.548-21.966 5.3148 0 12.049 1.415 16.891 3.5409l5.196-15.236c-6.2597-3.0708-14.054-4.8385-22.912-4.8385zm-210.94 1.1765v81.972h20.784v-81.972zm37.554 0v81.972h20.432v-24.094h6.7358c22.204 0 36.851-12.169 36.851-30.594 0-17.126-12.52-27.284-33.425-27.284zm20.432 17.953h8.5063c8.2675 0 13.818 4.4934 13.818 11.344 0 6.614-4.6035 10.628-11.926 10.628h-10.398zm44.411 6.1418 22.203 57.877h20.432l22.439-57.877h-20.548l-11.695 38.506-10.392-38.506zm101.93 21.378c6.614 0 10.986 4.2507 10.986 10.628 0 6.1416-4.0198 10.161-10.161 10.161-6.9683 0-11.57-5.4362-13.224-15.121 3.307-3.5432 7.9109-5.6689 12.399-5.6689z"
     id="path85688" />
  <path
     d="m285.36 223.21c-26.102 0-39.919 15.942-39.919 44.169 0 26.338 11.929 40.155 32.716 40.155 18.897 0 31.413-11.455 31.413-28.581 0-15.354-9.8008-25.271-24.446-25.271-7.7951 0-14.408 2.7128-19.487 8.0276 1.1811-14.291 8.1464-21.966 20.548-21.966 5.3148 0 12.049 1.415 16.891 3.5409l5.196-15.236c-6.2597-3.0708-14.054-4.8385-22.912-4.8385zm-210.94 1.1765v81.972h20.784v-81.972zm37.554 0v81.972h20.432v-24.094h6.7358c22.204 0 36.851-12.169 36.851-30.594 0-17.126-12.52-27.284-33.425-27.284zm20.432 17.953h8.5063c8.2675 0 13.818 4.4934 13.818 11.344 0 6.614-4.6035 10.628-11.926 10.628h-10.398zm44.411 6.1418 22.203 57.877h20.432l22.439-57.877h-20.548l-11.695 38.506-10.392-38.506zm101.93 21.378c6.614 0 10.986 4.2507 10.986 10.628 0 6.1416-4.0198 10.161-10.161 10.161-6.9683 0-11.57-5.4362-13.224-15.121 3.307-3.5432 7.9109-5.6689 12.399-5.6689z"
     fill="#fff"
     id="path85690" />
</svg>
