<?xml version="1.0" encoding="UTF-8" standalone="no"?>
<svg
   version="1.1"
   viewBox="0 0 512 512"
   id="svg294046"
   sodipodi:docname="kali-eyewitness.svg"
   inkscape:version="1.1.2 (0a00cf5339, 2022-02-04)"
   xmlns:inkscape="http://www.inkscape.org/namespaces/inkscape"
   xmlns:sodipodi="http://sodipodi.sourceforge.net/DTD/sodipodi-0.dtd"
   xmlns:xlink="http://www.w3.org/1999/xlink"
   xmlns="http://www.w3.org/2000/svg"
   xmlns:svg="http://www.w3.org/2000/svg">
  <sodipodi:namedview
     id="namedview294048"
     pagecolor="#ffffff"
     bordercolor="#666666"
     borderopacity="1.0"
     inkscape:pageshadow="2"
     inkscape:pageopacity="0.0"
     inkscape:pagecheckerboard="0"
     showgrid="false"
     inkscape:zoom="1.6152344"
     inkscape:cx="255.69045"
     inkscape:cy="256"
     inkscape:window-width="1920"
     inkscape:window-height="1051"
     inkscape:window-x="0"
     inkscape:window-y="29"
     inkscape:window-maximized="1"
     inkscape:current-layer="svg294046" />
  <defs
     id="defs294014">
    <linearGradient
       id="d"
       x1="-44"
       x2="-24"
       y1="-24"
       y2="-24"
       gradientTransform="matrix(2.3855,-2.4201,-2.4201,-2.3855,191.02,67.38)"
       gradientUnits="userSpaceOnUse">
      <stop
         stop-opacity="0"
         offset="0"
         id="stop293985" />
      <stop
         offset="1"
         id="stop293987" />
    </linearGradient>
    <g
       id="b"
       opacity=".3"
       lip-path="url(#clip3)">
      <path
         d="m152.85 144.27c-11.742 10.883-18.426 26.164-18.445 42.172 0 31.805 25.785 57.59 57.59 57.59 16.297-0.0234 31.82-6.9531 42.723-19.066z"
         fill="url(#d)"
         id="path293990" />
    </g>
    <linearGradient
       id="c"
       x1="-44"
       x2="-24"
       y1="-24"
       y2="-24"
       gradientTransform="matrix(-2.4201,-2.3855,2.3855,-2.4201,191.02,67.38)"
       gradientUnits="userSpaceOnUse">
      <stop
         stop-opacity="0"
         offset="0"
         id="stop293993" />
      <stop
         offset="1"
         id="stop293995" />
    </linearGradient>
    <clipPath
       id="e">
      <rect
         width="384"
         height="384"
         id="rect293998" />
    </clipPath>
    <g
       id="a"
       clip-path="url(#e)"
       opacity=".3">
      <path
         d="m230.4 143.61-80.684 81.852c10.887 11.816 26.215 18.551 42.281 18.57 31.805 0 57.586-25.785 57.59-57.59-0.0234-16.355-7-31.926-19.188-42.832z"
         fill="url(#c)"
         id="path294001" />
    </g>
    <radialGradient
       id="g"
       cx="108.64"
       cy="-21.136"
       r="231.99"
       gradientTransform="matrix(.99472 -.10259 .028669 .27799 -9.4843 154.38)"
       gradientUnits="userSpaceOnUse">
      <stop
         stop-color="#808080"
         offset="0"
         id="stop294004" />
      <stop
         stop-color="#191919"
         offset="1"
         id="stop294006" />
    </radialGradient>
    <radialGradient
       id="f"
       cx="256"
       cy="346.53"
       r="235"
       gradientTransform="matrix(1 0 0 .23437 .0024 268.17)"
       gradientUnits="userSpaceOnUse">
      <stop
         stop-color="#999"
         offset="0"
         id="stop294009" />
      <stop
         stop-color="#191919"
         offset="1"
         id="stop294011" />
    </radialGradient>
  </defs>
  <path
     d="M 77.844,338.71 34.948919,370.87785 C 323.19892,443.55185 351.002,397.941 491.002,309.699 l -45.943,-15.385 c -95.109,59.064 -173.16,107.21 -367.21,44.395 z"
     fill="url(#f)"
     id="path294016"
     sodipodi:nodetypes="cccccc" />
  <path
     d="M 480.67,306.24 C 351.26273,388.39376 303.75054,426.77854 36.514192,361.25229 33.989163,360.63315 31.444517,360.00474 28.88,359.367 l 6.068919,11.51085 c 4.716739,1.18919 -4.586244,-1.12801 0,0 C 310.63785,438.68491 353.28607,396.49726 490.9952,309.6992 l -10.33,-3.459 z"
     opacity="0.3"
     id="path294018"
     sodipodi:nodetypes="csccsccc" />
  <g
     transform="matrix(.86967 0 0 .86967 93.06 90.409)"
     id="g294040">
    <path
       d="m353.74 199.5c0 89.328-72.414 161.75-161.74 161.75-89.332 0-161.75-72.418-161.75-161.75 0-89.328 72.414-161.74 161.75-161.74 89.328 0 161.74 72.414 161.74 161.74z"
       opacity=".3"
       id="path294020" />
    <path
       d="m327.97 192.11c0 75.434-61.148 136.58-136.58 136.58-75.43 0-136.58-61.145-136.58-136.58 0-75.43 61.148-136.58 136.58-136.58 75.43 0 136.58 61.148 136.58 136.58z"
       fill="#262833"
       id="path294022" />
    <path
       d="m353.74 192c0 89.328-72.414 161.75-161.74 161.75-89.332 0-161.75-72.418-161.75-161.75 0-89.328 72.414-161.74 161.75-161.74 89.328 0 161.74 72.414 161.74 161.74z"
       id="path294024" />
    <path
       d="m322.67 192c0 72.172-58.504 130.68-130.67 130.68-72.172 0-130.68-58.504-130.68-130.68 0-72.168 58.504-130.67 130.68-130.67 72.168 0 130.67 58.504 130.67 130.67z"
       fill="#193d7a"
       id="path294026" />
    <path
       transform="scale(.75)"
       d="m256 81.768c-47.254 0-90.104 18.819-121.49 49.359l246.36 246.36c30.54-31.386 49.359-74.236 49.359-121.49 0-96.224-78.007-174.23-174.23-174.23z"
       opacity=".3"
       stroke-width="1.3333"
       id="path294028" />
    <path
       d="m302.71 192c0 61.147-49.569 110.72-110.71 110.72-61.147 0-110.72-49.569-110.72-110.72 0-61.142 49.569-110.71 110.72-110.71 61.142 0 110.71 49.569 110.71 110.71z"
       stroke-width="1.2283"
       id="path294030" />
    <path
       d="m282.2 192c0 49.814-40.381 90.195-90.191 90.195-49.814 0-90.195-40.381-90.195-90.195 0-49.81 40.381-90.191 90.195-90.191 49.81 0 90.191 40.381 90.191 90.191z"
       fill="#2359b0"
       stroke-width="1.2283"
       id="path294032" />
    <use
       transform="matrix(1.2283,0,0,1.2283,-43.829,-35.136)"
       width="100%"
       height="100%"
       xlink:href="#b"
       id="use294034" />
    <use
       transform="matrix(1.2283,0,0,1.2283,-43.829,-35.136)"
       width="100%"
       height="100%"
       xlink:href="#a"
       id="use294036" />
    <path
       transform="scale(.75)"
       d="m361.85 170.15a26.769 26.769 0 0 0-26.77 26.77 26.769 26.769 0 0 0 26.77 26.768 26.769 26.769 0 0 0 26.77-26.768 26.769 26.769 0 0 0-26.77-26.77zm-51.076 45.537a14.154 14.154 0 0 0-14.154 14.154 14.154 14.154 0 0 0 14.154 14.154 14.154 14.154 0 0 0 14.154-14.154 14.154 14.154 0 0 0-14.154-14.154z"
       fill="#fff"
       opacity=".3"
       id="path294038" />
  </g>
  <path
     d="M 28.442,264.85 38.62866,241.3138 42.043,233.425 c 127.74,-134.57 247.48,-146.67 428.6,-104.25 l 1.6401,1.797 c -6.30406,-0.71394 -2.66175,9.54705 -8.91772,8.9395 C 301.46641,124.18864 156.05691,144.94373 47.083654,246.32163 40.743107,252.22025 43.069913,238.6568 36.98,245.11 Z"
     fill="url(#g)"
     id="path294042"
     sodipodi:nodetypes="cccccsscc" />
  <path
     d="m 296.81,129.01 c -99.301,10.623 -187.93,44.856 -259.83,116.1 l -8.5404,19.732 C 139.08904,147.58 291.78295,123.30831 462.92112,139.86459 c 6.40408,0.61954 -6.4545,-0.73116 0,0 l 9.36198,-8.89259 c -4.13161,-0.437 -8.25284,-0.85104 -12.36336,-1.24138 -56.69344,-5.38371 -111.34927,-6.26007 -163.10664,-0.72322 z"
     opacity="0.3"
     id="path294044"
     sodipodi:nodetypes="cccsccscc" />
</svg>
