<?xml version="1.0" encoding="UTF-8" standalone="no"?>
<svg
   version="1.1"
   viewBox="0 0 512 512"
   id="svg108092"
   sodipodi:docname="kali-responder.svg"
   inkscape:version="1.1.2 (0a00cf5339, 2022-02-04)"
   xmlns:inkscape="http://www.inkscape.org/namespaces/inkscape"
   xmlns:sodipodi="http://sodipodi.sourceforge.net/DTD/sodipodi-0.dtd"
   xmlns="http://www.w3.org/2000/svg"
   xmlns:svg="http://www.w3.org/2000/svg">
  <defs
     id="defs108096" />
  <sodipodi:namedview
     id="namedview108094"
     pagecolor="#ffffff"
     bordercolor="#666666"
     borderopacity="1.0"
     inkscape:pageshadow="2"
     inkscape:pageopacity="0.0"
     inkscape:pagecheckerboard="0"
     showgrid="false"
     inkscape:zoom="1.6152344"
     inkscape:cx="255.69045"
     inkscape:cy="256"
     inkscape:window-width="1920"
     inkscape:window-height="1051"
     inkscape:window-x="0"
     inkscape:window-y="29"
     inkscape:window-maximized="1"
     inkscape:current-layer="g108090" />
  <g
     fill="#4a88f1"
     id="g108090">
    <g
       transform="matrix(1.4134,0,0,1.4134,14.970559,15.53787)"
       id="g108080">
      <path
         d="m 308,318.23 c 0,-58.604 -20.287,-120.1 -54.79,-166.09 -10.919,-14.554 -25.435,-30.812 -27.51,-30.812 -2.9192,0 -49.967,47.55 -64.643,65.333 -25.203,30.538 -43.402,56.454 -62.266,88.667 -13.259,22.64 -27.249,50.848 -26.123,52.67 0.53685,0.86864 41.518,1.3304 118.08,1.3304 h 117.25 z M 32.67,254.996 c 23.278,-11.604 60.421,-39.385 102,-76.292 25.707,-22.819 74.666,-70.775 74.672,-73.143 C 209.351,102.0495 189.566,84.011 174.88,74.14 147.064,55.444 108.325,40.117 68.43,32.024 46.137,27.5015 21.632,24.4214 18.254,25.7175 c -2.0898,0.80192 -2.2518,9.2472 -2.2518,117.35 0,64.067 0.4066,116.89 0.90355,117.39 1.2363,1.2363 4.8131,-0.003 15.763,-5.4612 z m 292.34,-147.33 -0.34211,-96.333 -103,-0.34156 c -40.09763,-0.132968 -70.6785,1.243555 -85.12589,2.279864 -5.96391,0.42779 -13.36843,3.710764 -4.18985,2.731433 9.17859,-0.979331 -5.91793,0.34752 -0.39105,3.866274 0.89866,0.572142 1.96801,1.195947 3.23979,1.875389 74.697,39.909 132.74,87.403 164.71,134.79 4.62153,6.84867 10.14671,14.1405 14.47426,21.05774 2.7053,4.32418 4.7408,-4.18489 5.99673,-0.35324 -0.004,-7.07762 2.51164,15.0291 0.15919,-0.99167 -2.7466,-18.70501 -13.81901,13.10264 -0.15919,0.99167 12.96071,-11.49114 6.0399,4.76519 6.16587,-2.72416 0.27107,-16.11607 -1.43694,-38.66873 -1.53701,-66.84434 z"
         fill="#4a88f1"
         stroke-width="1.3333"
         id="path108078"
         sodipodi:nodetypes="ccsccssccccccccscccccssssccscssscc" />
    </g>
    <g
       transform="matrix(1.4134 0 0 1.4134 14.975 15.536)"
       id="g108084">
      <path
         transform="matrix(0.70754,0,0,0.70754,-10.596,-10.992)"
         d="m 197.44,31.549 c 0.88795,6.127924 8.617,4.72067 13.78114,6.097799 14.2653,3.804151 -11.58591,-10.560831 -2.32311,-5.399456 2.32297,1.294395 -5.41768,12.64564 -2.84103,14.022327 105.57,56.405 187.6,123.53 232.79,190.5 10.615,15.731 30.17296,23.2639 34.78896,37.3419 3.87393,-10.31648 -1.14752,20.17604 -0.57376,10.08802 0.57376,-10.08802 0.97685,-4.31563 0.97685,-4.31563 3.42407,-15.1272 0.35128,-37.98608 0.35905,-65.79269 -0.0668,49.751 -5.60136,26.32273 -2.45217,69.55892 0.70372,9.66159 5.56396,-9.8551 1.69003,-9.53862 -14.76613,1.20632 -24.17296,-31.6109 -34.78896,-47.3419 -45.19,-66.969 -126.55353,-140.117462 -232.79,-190.5 -3.0452,-1.627 -5.9432,-3.2187 -8.6172,-4.7207 z m 110.01,127.64 c -14.237,16.086 -70.575,70.894 -102.15,98.92 -58.766,52.163 -111.26,91.428 -144.16,107.83 -15.476,7.7144 -20.532,9.4661 -22.279,7.7188 -0.6948,-0.69478 -1.2612,-73.829 -1.2734,-163.06 -1.54e-4,2.5918 -0.002,4.465 -0.002,7.1426 0,90.55 0.57302,165.21 1.2754,165.91 1.7474,1.7474 6.803,-0.004 22.279,-7.7188 32.901,-16.4 85.396,-55.665 144.16,-107.83 36.333,-32.251 105.53,-100.03 105.54,-103.38 0.003,-1.037 -1.2713,-3.0056 -3.3906,-5.543 z m -186.73,310.37 c -2.2848,5.324 -3.4785,8.859 -3.0449,9.5606 0.75876,1.2277 58.68,1.8809 166.88,1.8809 h 165.72 v -10 h -165.72 c -94.495,0 -150.62,-0.4976 -163.84,-1.4414 z"
         fill="#000000"
         opacity="0.3"
         stroke-width="1.8845"
         id="path108082"
         sodipodi:nodetypes="csscscsscsscccccccccscccccccssccscc" />
    </g>
    <g
       transform="matrix(1.4134,0,0,1.4134,14.974997,15.536001)"
       id="g108088">
      <path
         d="m 200.97261,3.870656 c -46.82287,-0.049366 -82.30813,0.2918461 -82.30813,0.8360293 0,0.4745824 4.34366,3.2013354 10.43622,6.6234937 16.66256,-0.324357 51.79405,-0.473768 92.56746,-0.338572 l 27.3251,0.09092 75.67149,0.251795 0.34271,96.331574 c 0.026,7.30818 0.0423,14.29443 0.0511,20.92478 -0.003,-8.75227 -0.0154,-17.94109 -0.0511,-28.00018 L 324.66475,4.2589256 221.66816,3.9162074 c -7.08106,-0.023482 -14.00222,-0.03855 -20.6913,-0.045603 z M 20.457931,18.357537 c -1.0369,0.03099 -1.788874,0.124046 -2.211063,0.286059 -2.08979,0.801926 -2.251109,9.247548 -2.251109,117.352584 0,0.69088 0.0013,1.33216 0.0014,2.02038 0.0061,-102.805561 0.196611,-111.508303 2.249765,-112.293673 3.377583,-1.296071 27.882736,1.784487 50.175906,6.307083 39.89465,8.09355 78.636,23.420281 106.4494,42.116318 11.6178,7.808412 26.38628,20.702621 32.06288,27.498542 1.51838,-1.715643 2.3982,-2.843391 2.39898,-3.153505 0.009,-3.511451 -19.77574,-21.549546 -34.46215,-31.420437 C 147.05569,48.374851 108.31646,33.047412 68.422529,24.95457 48.916359,20.997369 27.71563,18.144568 20.457685,18.361429 Z M 225.69406,114.25751 c -2.91924,0 -49.96718,47.54952 -64.64298,65.33283 -25.20257,30.53884 -43.40333,56.45532 -62.267764,88.66891 -13.258592,22.64057 -27.248073,50.84665 -26.122377,52.66857 0.06802,0.11005 0.797893,0.21405 2.154389,0.31093 4.317409,-10.0598 14.321317,-29.43225 23.967917,-45.90449 18.864435,-32.21217 37.065195,-58.12936 62.267765,-88.66891 14.6758,-17.78331 61.72367,-65.33283 64.64298,-65.33283 2.07472,0 16.5904,16.25715 27.50986,30.81124 34.50319,45.98727 54.79048,107.48241 54.79048,166.08794 v -7.0754 c 0,-58.60412 -20.28729,-120.09784 -54.79048,-166.08794 -10.91946,-14.55339 -25.43536,-30.81124 -27.50986,-30.81124 z"
         fill="#ffffff"
         opacity="0.2"
         stroke-width="1.8845"
         id="path108086"
         sodipodi:nodetypes="csccccsccccccccscccccccccccccscccsccsccc" />
    </g>
  </g>
</svg>
