<?xml version="1.0" encoding="UTF-8" standalone="no"?>
<svg
   width="32"
   height="32"
   version="1"
   id="svg341315"
   sodipodi:docname="dialog-information.svg"
   inkscape:version="1.1.2 (0a00cf5339, 2022-02-04)"
   xmlns:inkscape="http://www.inkscape.org/namespaces/inkscape"
   xmlns:sodipodi="http://sodipodi.sourceforge.net/DTD/sodipodi-0.dtd"
   xmlns="http://www.w3.org/2000/svg"
   xmlns:svg="http://www.w3.org/2000/svg">
  <defs
     id="defs341319" />
  <sodipodi:namedview
     id="namedview341317"
     pagecolor="#ffffff"
     bordercolor="#666666"
     borderopacity="1.0"
     inkscape:pageshadow="2"
     inkscape:pageopacity="0.0"
     inkscape:pagecheckerboard="0"
     showgrid="false"
     inkscape:zoom="25.84375"
     inkscape:cx="15.980653"
     inkscape:cy="16"
     inkscape:window-width="1920"
     inkscape:window-height="1051"
     inkscape:window-x="0"
     inkscape:window-y="29"
     inkscape:window-maximized="1"
     inkscape:current-layer="svg341315" />
  <rect
     style="opacity:0.2"
     width="29"
     height="29"
     x="2"
     y="2"
     rx="1.45"
     ry="1.45"
     id="rect341305" />
  <rect
     style="fill:#37a0f2"
     width="29"
     height="29"
     x="2"
     y="1"
     rx="1.45"
     ry="1.45"
     id="rect341307" />
  <path
     style="opacity:0.2"
     d="m 15,8 v 1 h 3 V 8 Z m 0,18 v 1 h 3 v -1 z"
     id="path341309" />
  <path
     style="fill:#ffffff"
     d="m 15,5.5091658 v 0 1.9932573 0 L 15.465342,8 h 2.188997 V 8 L 18,7.5136093 v -2.0466542 0 L 17.548457,5 h -2.137576 z m 0,6.0094252 v 0 13.93179 0 L 15.519808,26 17.564016,26 18,25.358518 v 0 -13.919967 0 L 17.500345,11 h -2.05704 z"
     id="path341311"
     sodipodi:nodetypes="cccccccccccccccccccccccccc" />
  <path
     style="fill:#ffffff;opacity:0.2"
     d="M 3.4492188 1 C 2.6459187 1 2 1.6459187 2 2.4492188 L 2 3.4492188 C 2 2.6459187 2.6459187 2 3.4492188 2 L 29.550781 2 C 30.354081 2 31 2.6459187 31 3.4492188 L 31 2.4492188 C 31 1.6459187 30.354081 1 29.550781 1 L 3.4492188 1 z"
     id="path341313" />
</svg>
