<?xml version="1.0" encoding="UTF-8" standalone="no"?>
<svg
   width="32"
   height="32"
   version="1"
   id="svg309587"
   sodipodi:docname="muon.svg"
   inkscape:version="1.1.2 (0a00cf5339, 2022-02-04)"
   xmlns:inkscape="http://www.inkscape.org/namespaces/inkscape"
   xmlns:sodipodi="http://sodipodi.sourceforge.net/DTD/sodipodi-0.dtd"
   xmlns="http://www.w3.org/2000/svg"
   xmlns:svg="http://www.w3.org/2000/svg">
  <defs
     id="defs309591" />
  <sodipodi:namedview
     id="namedview309589"
     pagecolor="#ffffff"
     bordercolor="#666666"
     borderopacity="1.0"
     inkscape:pageshadow="2"
     inkscape:pageopacity="0.0"
     inkscape:pagecheckerboard="0"
     showgrid="false"
     inkscape:zoom="25.84375"
     inkscape:cx="15.980653"
     inkscape:cy="16"
     inkscape:window-width="1920"
     inkscape:window-height="1051"
     inkscape:window-x="0"
     inkscape:window-y="29"
     inkscape:window-maximized="1"
     inkscape:current-layer="svg309587" />
  <rect
     style="opacity:0.2"
     width="29"
     height="29"
     x="2"
     y="2"
     rx="8.7"
     ry="8.7"
     id="rect309573" />
  <rect
     style="fill:#e3b36b"
     width="29"
     height="29"
     x="2"
     y="1"
     rx="8.7"
     ry="8.7"
     id="rect309575" />
  <path
     style="opacity:0.35;fill:none;stroke:#ffffff;stroke-width:3;stroke-linejoin:round"
     d="M 7.5,26 V 6.5 l 9,13 9,-13 V 26"
     id="path309577" />
  <path
     style="opacity:0.1"
     d="m 15,10.001662 v 6 h -3.439453 l 3.707031,5.353516 c 0.596694,0.859763 1.86815,0.859763 2.464844,0 l 3.707031,-5.353516 H 18 v -6 z"
     id="path309579" />
  <path
     style="fill:#4f4f4f"
     d="m 12.058836,15.719605 v 0 l 3.208742,4.633911 c 0.596694,0.859763 1.86815,0.859763 2.464844,0 L 21.027514,15.594903 20.836589,15 v 0 h -3.04362 L 16.5,16.867188 15.207031,15 h -2.83013 z"
     id="path309581"
     sodipodi:nodetypes="cccccccccccc" />
  <rect
     style="fill:#4f4f4f"
     width="3"
     height="8"
     x="15"
     y="9"
     id="rect309583" />
  <path
     style="fill:#ffffff;opacity:0.2"
     d="M 10.699219 1 C 5.8794189 1 2 4.8794189 2 9.6992188 L 2 10.699219 C 2 5.8794189 5.8794189 2 10.699219 2 L 22.300781 2 C 27.120581 2 31 5.8794189 31 10.699219 L 31 9.6992188 C 31 4.8794189 27.120581 1 22.300781 1 L 10.699219 1 z"
     id="path309585" />
</svg>
