<?xml version="1.0" encoding="UTF-8" standalone="no"?>
<svg
   version="1.1"
   viewBox="0 0 512 512"
   id="svg2068726"
   sodipodi:docname="radare2.svg"
   inkscape:version="1.1.2 (0a00cf5339, 2022-02-04)"
   xmlns:inkscape="http://www.inkscape.org/namespaces/inkscape"
   xmlns:sodipodi="http://sodipodi.sourceforge.net/DTD/sodipodi-0.dtd"
   xmlns="http://www.w3.org/2000/svg"
   xmlns:svg="http://www.w3.org/2000/svg">
  <defs
     id="defs2068730" />
  <sodipodi:namedview
     id="namedview2068728"
     pagecolor="#ffffff"
     bordercolor="#666666"
     borderopacity="1.0"
     inkscape:pageshadow="2"
     inkscape:pageopacity="0.0"
     inkscape:pagecheckerboard="0"
     showgrid="false"
     inkscape:zoom="1.6152344"
     inkscape:cx="255.69045"
     inkscape:cy="256"
     inkscape:window-width="1920"
     inkscape:window-height="1051"
     inkscape:window-x="0"
     inkscape:window-y="29"
     inkscape:window-maximized="1"
     inkscape:current-layer="svg2068726" />
  <rect
     x="31"
     y="31"
     width="450"
     height="450"
     rx="30"
     ry="30"
     fill="#272a34"
     style="paint-order:normal"
     id="rect2068716" />
  <path
     d="m31 441v10c0 16.62 13.38 30 30 30h390c16.62 0 30-13.38 30-30v-10c0 16.62-13.38 30-30 30h-390c-16.62 0-30-13.38-30-30z"
     opacity=".5"
     style="paint-order:normal"
     id="path2068718" />
  <path
     d="m61 31c-16.62 0-30 13.38-30 30v10c0-16.62 13.38-30 30-30h390c16.62 0 30 13.38 30 30v-10c0-16.62-13.38-30-30-30z"
     fill="#fff"
     opacity=".1"
     style="paint-order:normal"
     id="path2068720" />
  <path
     d="m209.63 325.37 1.0838-9.2713c0.46962-4.0174-4.8656-3.505-7.5617-3.505h-6.4779v-101.05h6.4779c3.5629 0 6.4943-0.70391 6.478-1.5639l2e-3 -9.9882-60.447-4.0004h-9.887v36.721l-10.733-20.621c-22.765-22.528-47.065-23.761-61.108-3.1006-5.6444 8.3038-4.9903 32.293 1.4664 41.36 5.9439 8.3475 18.411 13.677 28.145 12.033 16.109-2.7216 28.526-21.029 24.083-35.506-1.1508-3.7496-1.7743-7.1356-1.3856-7.5244 2.0377-2.0377 9.1804 4.5594 12.246 11.31 3.1115 6.8531 3.5082 12.533 3.5443 50.749l0.0407 33.032h-9.2542c-3.348 0-9.3489-7e-3 -9.3352 1.7044l0.081 10.146c9e-3 1.1845 16.658 1.8508 46.271 1.8508 39.896 0 46.271-0.38252 46.271-2.7763zm112.48-90.468-0.50746-30.315-60.004 30.016-60.004 20.016v10l120.01 61.405 0.50746-30.403c0.27911-16.721 0.27911-44.044 0-60.718zm126.28 29.243v-60.299l-37.48 19.377c-20.614 10.657-47.891 24.606-60.615 30.997l-23.136 1.6196v10l59.227 29.186c32.575 16.052 59.852 29.238 60.615 29.302 0.76347 0.064 1.3881-27.018 1.3881-60.183z"
     stroke-width="1.8508"
     id="path2068722" />
  <path
     d="m 209.63,315.37 c 0,-1.939 -1.9537,-2.7763 -6.478,-2.7763 h -6.4779 v -111.05 h 6.4779 c 3.5629,0 6.478,-0.70375 6.478,-1.5639 0,-1.4617 -38.294,-3.9886 -60.445,-3.9886 h -9.887 v 26.721 l -10.733,-10.621 C 105.8,189.5632 81.5,188.3302 67.457,208.9906 c -5.6444,8.3038 -4.9903,22.293 1.4664,31.36 5.9439,8.3475 18.411,13.677 28.145,12.033 16.109,-2.7216 28.526,-21.029 24.083,-35.506 -1.1508,-3.7496 -1.7743,-7.1356 -1.3856,-7.5244 2.0377,-2.0377 9.1804,4.5594 12.246,11.31 3.1115,6.8531 3.5082,12.533 3.5443,50.749 l 0.0407,43.032 h -9.2542 c -5.0898,0 -9.2542,0.83288 -9.2542,1.8508 0,1.1845 16.658,1.8508 46.271,1.8508 39.896,0 46.271,-0.38252 46.271,-2.7763 z m 112.48,-90.468 -0.29993,-17.91713 -11.1343,-6.93212 v 0 l -97.06899,48.55553 -1.28078,11.50166 v 0 l 98.78603,50.54543 10.68754,-6.4367 v 0 L 322.11,285.62 c 0.27911,-16.721 0.27911,-44.044 0,-60.718 z m 126.28,29.243 V 207.67365 203.846 L 435.78807,200.36114 410.91,213.223 c -20.614,10.657 -47.891,24.606 -60.615,30.997 l -9.72581,4.88477 0.42886,13.55486 v 0 L 386.386,285.026 c 20.39003,10.04761 38.70429,18.97232 49.73966,24.25888 6.59468,3.15923 11.67046,-5.66044 11.67046,-5.66044 0.71439,-11.37588 -0.0896,2.6843 0,0 0.0228,-0.68363 0.052,-1.75909 0.10121,-3.56953 0.30038,-11.05795 0.49177,-27.55202 0.49177,-45.90991 z"
     fill="#ffffff"
     stroke-width="1.8508"
     id="path2068724"
     sodipodi:nodetypes="csccsssccccccsccscsssccscccccccccssccccccccccscsscc" />
</svg>
