<?xml version="1.0" encoding="UTF-8" standalone="no"?>
<svg
   width="32"
   height="32"
   version="1"
   id="svg7336"
   sodipodi:docname="yast-software.svg"
   inkscape:version="1.1.2 (0a00cf5339, 2022-02-04)"
   xmlns:inkscape="http://www.inkscape.org/namespaces/inkscape"
   xmlns:sodipodi="http://sodipodi.sourceforge.net/DTD/sodipodi-0.dtd"
   xmlns="http://www.w3.org/2000/svg"
   xmlns:svg="http://www.w3.org/2000/svg">
  <defs
     id="defs7340" />
  <sodipodi:namedview
     id="namedview7338"
     pagecolor="#ffffff"
     bordercolor="#666666"
     borderopacity="1.0"
     inkscape:pageshadow="2"
     inkscape:pageopacity="0.0"
     inkscape:pagecheckerboard="0"
     showgrid="false"
     inkscape:zoom="25.84375"
     inkscape:cx="15.980653"
     inkscape:cy="16"
     inkscape:window-width="1920"
     inkscape:window-height="1051"
     inkscape:window-x="0"
     inkscape:window-y="29"
     inkscape:window-maximized="1"
     inkscape:current-layer="svg7336" />
  <path
     fill="#e4e4e4"
     d="m12 3-2 2v3h-8v18.5c0 0.831 0.669 1.5 1.5 1.5h25c0.831 0 1.5-0.669 1.5-1.5v-18.5h-8v-3l-2-2zm0 2h8v3h-8z"
     id="path7326" />
  <path
     opacity=".2"
     d="m12 5v1h8v-1h-8zm-10 21.5v1c0 0.831 0.669 1.5 1.5 1.5h25c0.831 0 1.5-0.669 1.5-1.5v-1c0 0.831-0.669 1.5-1.5 1.5h-25c-0.831 0-1.5-0.669-1.5-1.5z"
     id="path7328" />
  <circle
     fill="#4ab3e4"
     cx="24.5"
     cy="23.5"
     r="7.5"
     id="circle7330" />
  <path
     fill="#ffffff"
     d="M 26,18.96 V 23 l 0.794315,-0.02118 v 0 l 0.220713,0.634278 -2.105497,2.835402 v 0 l -0.825728,-0.009 -2.142379,-2.88507 v 0 L 22.110934,22.96 H 23 v -4 z m -4.605336,8.0402 v 0 h 6.19278 v 0 L 28,27.340009 v 0.280102 L 27.718863,28.0002 v 0 H 21.318461 L 21,27.682139 v 0 -0.300914 z"
     id="path7332"
     sodipodi:nodetypes="ccccccccccccccccccccccccccc" />
  <path
     fill-rule="evenodd"
     opacity=".2"
     d="m31.979 23.947a7.5 7.5 0 0 1 -7.479 7.053 7.5 7.5 0 0 1 -7.479 -6.947 7.5 7.5 0 0 0 -0.021 0.447 7.5 7.5 0 0 0 7.5 7.5 7.5 7.5 0 0 0 7.5 -7.5 7.5 7.5 0 0 0 -0.021 -0.553z"
     id="path7334" />
</svg>
