<?xml version="1.0" encoding="UTF-8" standalone="no"?>
<svg
   width="32"
   height="32"
   version="1"
   id="svg80967"
   sodipodi:docname="spacefm.svg"
   inkscape:version="1.1.2 (0a00cf5339, 2022-02-04)"
   xmlns:inkscape="http://www.inkscape.org/namespaces/inkscape"
   xmlns:sodipodi="http://sodipodi.sourceforge.net/DTD/sodipodi-0.dtd"
   xmlns="http://www.w3.org/2000/svg"
   xmlns:svg="http://www.w3.org/2000/svg">
  <defs
     id="defs80971" />
  <sodipodi:namedview
     id="namedview80969"
     pagecolor="#ffffff"
     bordercolor="#666666"
     borderopacity="1.0"
     inkscape:pageshadow="2"
     inkscape:pageopacity="0.0"
     inkscape:pagecheckerboard="0"
     showgrid="false"
     inkscape:zoom="25.84375"
     inkscape:cx="15.980653"
     inkscape:cy="16"
     inkscape:window-width="1920"
     inkscape:window-height="1051"
     inkscape:window-x="0"
     inkscape:window-y="29"
     inkscape:window-maximized="1"
     inkscape:current-layer="svg80967" />
  <rect
     style="fill:#4385ce"
     width="28"
     height="28"
     x="2"
     y="2"
     rx="1.5"
     ry="1.5"
     id="rect80957" />
  <path
     style="opacity:0.2"
     d="m 7,17 2,0 0,8 5,0 0,-4 4,0 0,4 5,0 0,-8 2,0 -9,-9 z"
     id="path80959" />
  <path
     fill="#ffffff"
     d="M 7.8646251,15.135375 7.8468037,16 H 9 v 8 h 5 v -4 h 4 v 4 h 5 v -8 h 1.121396 v 0 l 0.06998,-0.808626 -7.824596,-7.8245963 -0.685296,-0.04826 v 0 z"
     id="path80961"
     sodipodi:nodetypes="cccccccccccccccccc" />
  <path
     fill="#fff"
     style="opacity:0.2"
     d="m3.5 2c-0.831 0-1.5 0.669-1.5 1.5v1c0-0.831 0.669-1.5 1.5-1.5h25c0.831 0 1.5 0.669 1.5 1.5v-1c0-0.831-0.669-1.5-1.5-1.5h-25z"
     id="path80963" />
  <path
     opacity=".2"
     d="m2 28.5v1c0 0.831 0.669 1.5 1.5 1.5h25c0.831 0 1.5-0.669 1.5-1.5v-1c0 0.831-0.669 1.5-1.5 1.5h-25c-0.831 0-1.5-0.669-1.5-1.5z"
     id="path80965" />
</svg>
