<?xml version="1.0" encoding="UTF-8" standalone="no"?>
<svg
   version="1.1"
   viewBox="0 0 512 512"
   id="svg59694"
   sodipodi:docname="sqlsus.svg"
   inkscape:version="1.1.2 (0a00cf5339, 2022-02-04)"
   xmlns:inkscape="http://www.inkscape.org/namespaces/inkscape"
   xmlns:sodipodi="http://sodipodi.sourceforge.net/DTD/sodipodi-0.dtd"
   xmlns="http://www.w3.org/2000/svg"
   xmlns:svg="http://www.w3.org/2000/svg">
  <sodipodi:namedview
     id="namedview59696"
     pagecolor="#ffffff"
     bordercolor="#666666"
     borderopacity="1.0"
     inkscape:pageshadow="2"
     inkscape:pageopacity="0.0"
     inkscape:pagecheckerboard="0"
     showgrid="false"
     inkscape:zoom="1.6152344"
     inkscape:cx="255.69045"
     inkscape:cy="256"
     inkscape:window-width="1920"
     inkscape:window-height="1051"
     inkscape:window-x="0"
     inkscape:window-y="29"
     inkscape:window-maximized="1"
     inkscape:current-layer="svg59694" />
  <defs
     id="defs59656">
    <clipPath
       id="l">
      <rect
         width="384"
         height="384"
         id="rect59639" />
    </clipPath>
    <clipPath
       id="k">
      <rect
         width="384"
         height="384"
         id="rect59642" />
    </clipPath>
    <clipPath
       id="j">
      <rect
         width="384"
         height="384"
         id="rect59645" />
    </clipPath>
    <clipPath
       id="i">
      <rect
         width="384"
         height="384"
         id="rect59648" />
    </clipPath>
    <linearGradient
       id="m"
       x1="-483.61"
       x2="-212.08"
       y1="38.735"
       y2="19.559"
       gradientUnits="userSpaceOnUse">
      <stop
         stop-color="#d41919"
         offset="0"
         id="stop59651" />
      <stop
         stop-color="#fd7d00"
         offset="1"
         id="stop59653" />
    </linearGradient>
  </defs>
  <path
     d="m256 262c-123.71 0-224 50.146-224 112s100.29 112 224 112 224-50.146 224-112-100.29-112-224-112z"
     opacity=".3"
     stroke-width="1.3333"
     id="path59658" />
  <path
     d="m256 252c-123.71 0-224 50.146-224 112s100.29 112 224 112 224-50.146 224-112-100.29-112-224-112z"
     fill="#4a4a4a"
     stroke-width="1.3333"
     id="path59660" />
  <path
     d="m256 150c-123.71 0-224 50.146-224 112s100.29 112 224 112 224-50.146 224-112-100.29-112-224-112z"
     opacity=".3"
     stroke-width="1.3333"
     id="path59662" />
  <path
     d="m256 140c-123.71 0-224 50.146-224 112s100.29 112 224 112 224-50.146 224-112-100.29-112-224-112z"
     fill="#b3b3b3"
     stroke-width="1.3333"
     id="path59664" />
  <path
     d="m256 38c-123.71 0-224 50.146-224 112s100.29 112 224 112 224-50.146 224-112-100.29-112-224-112z"
     opacity=".3"
     stroke-width="1.3333"
     id="path59666" />
  <path
     d="m256 28c-123.71 0-224 50.146-224 112s100.29 112 224 112 224-50.146 224-112-100.29-112-224-112z"
     fill="#ccc"
     stroke-width="1.3333"
     id="path59668" />
  <path
     d="m462.39 467.7c-26.792-30.545-63.534-74.166-66.326-78.74-2.1732-3.5617-2.7137-14.071-1.9876-38.638 0.78359-26.514 0.23271-35.814-2.571-43.402-2.9757-8.0532-19.567-25.959-99.857-107.77-67.367-68.638-96.722-99.935-97.73-104.19-1.0047-4.2438 0.50177-8.1026 4.9816-12.761l6.4218-6.6776-18.266-17.814-22.749 22.335c-16.478 16.178-24.344 22.158-28.534 21.692-4.2416-0.47208-13.26-8.2076-33.804-28.992-15.41-15.593-28.101-29.083-28.201-29.979-0.099832-0.89647 4.1854-6.3772 9.5225-12.179l9.7039-10.549-11.461-11.461-72.073 72.073 11.434 11.434 9.5652-8.6386c5.2609-4.7512 10.974-8.4817 12.696-8.29 4.7201 0.52535 59.096 56.408 59.64 61.293 0.25986 2.3349-9.8675 14.76-22.506 27.613-12.637 12.852-22.859 24.438-22.714 25.745 0.1456 1.3082 3.7822 5.7775 8.0813 9.9318l7.8165 7.5533 5.8995-5.5917c3.2447-3.0754 7.4124-5.4234 9.2614-5.2176 1.849 0.20578 47.524 44.445 101.5 98.311 112.05 111.82 105.22 106.63 138.49 105.27 10.185-0.41776 25.515-0.55904 34.066-0.31388 18.668 0.53508 15.526-1.5789 68.9 46.371 21.206 19.052 39.481 34.746 40.61 34.877 1.1292 0.1309-3.2868-5.8496-9.813-13.29z"
     opacity=".3"
     stroke-width="2.3398"
     id="path59670" />
  <path
     d="m256 28c-123.71 0-224 50.146-224 112 0 1.676 0.08668 3.3419 0.23242 5 5.2329-59.533 103.41-107 223.77-107s218.53 47.467 223.77 107c0.14574-1.6581 0.23242-3.324 0.23242-5 0-61.854-100.29-112-224-112z"
     fill="#fff"
     opacity=".2"
     id="path59672" />
  <path
     d="m 461.26,457.58 c -26.792,-30.545 -63.534,-74.166 -66.326,-78.74 -2.1732,-3.5617 -2.7137,-14.071 -1.9876,-38.638 0.7836,-26.514 0.23272,-35.814 -2.571,-43.402 -2.9757,-8.0532 -19.567,-25.959 -99.857,-107.77 -67.367,-68.638 -96.722,-99.935 -97.73,-104.19 -1.0047,-4.2438 0.50176,-8.1026 4.9816,-12.761 l 6.4218,-6.6776 -18.266,-17.814 -22.749,22.335 c -16.478,16.178 -24.344,22.158 -28.534,21.692 -4.2416,-0.47209 -13.26,-8.2076 -33.804,-28.992 -15.41,-15.593 -28.101,-29.083 -28.201,-29.979 -0.09978,-0.89647 4.1854,-6.3772 9.5225,-12.179 L 86.928677,15.280751 81.5332,8.5744 88.336633,6.3878327 80.4032,-1.5456 l -72.073,72.073 11.4334,5.4334 9.5658,-2.638 c 5.2609,-4.7512 10.974,-8.4817 12.696,-8.29 4.7201,0.52535 59.096,56.408 59.64,61.293 0.25987,2.3349 -9.8673,14.76 -22.506,27.613 -12.637,12.852 -22.859,24.438 -22.714,25.745 0.1456,1.3082 3.7822,5.7775 8.0813,9.9318 l 7.8165,7.5533 5.8995,-5.5917 c 3.2447,-3.0754 7.4124,-5.4234 9.2614,-5.2176 1.849,0.2058 47.524,44.445 101.5,98.311 112.05,111.82 105.22,106.63 138.49,105.27 10.185,-0.41776 25.515,-0.55904 34.066,-0.31388 18.668,0.53508 15.526,-1.5789 68.9,46.371 21.206,19.052 27.78458,25.95553 28.91358,26.08653 1.1292,0.1309 8.40962,2.94087 1.88342,-4.49953 z"
     fill="#f8de68"
     stroke-width="2.3398"
     id="path59674"
     sodipodi:nodetypes="ccsscccccccccccccccccccccccssccccscc" />
  <rect
     transform="matrix(-.70711 -.70711 -.70711 .70711 0 0)"
     x="-495.19"
     y="-61.816"
     width="303.26"
     height="119.53"
     rx="48.814"
     ry="28.889"
     fill="url(#m)"
     stroke-width="2.0399"
     id="rect59676" />
  <path
     d="m183.55 108.07c9.9312 2.5464 20.837 8.8965 30.398 18.458l71.874 71.874c-2.3756 0.39043-4.3928 0.33168-5.7959-0.26503-19.972 38.059-45.316 53.482-70.001 53.528-22.032 0.0405-50.98-66.76-49.158-41.309 3.3227 46.426-32.202-19.605-38.21-41.563-6.1441 1.4142-11.547 2.5746-12.005 2.5791-0.38496 3e-3 -0.61353-1.891-0.59926-4.3955 0.31963-2.0028 0.8777-3.8798 1.6702-5.6109 1.1131-1.8854 2.7222-3.9604 4.7349-5.9909 1.7716-1.7873 3.4174-3.5714 4.9634-5.3495l37.586-37.586c5.6585-5.6585 14.616-6.9154 24.546-4.3688z"
     fill="#272a34"
     stroke-width="2.7199"
     id="path59678" />
  <path
     d="m183.56 108.09c9.9312 2.5465 20.837 8.8966 30.398 18.458l145.41 145.41c11.509 11.509 18.358 24.965 19.527 36.325-3.2426-8.1472-8.8111-16.611-16.424-24.224l-145.41-145.41c-19.123-19.123-43.627-25.406-54.944-14.089l-43.665 43.665c-4.5058 4.5058-6.2117 11.106-5.4381 18.62-4.9024-12.318-4.4764-23.909 2.3352-30.721l43.665-43.665c5.6585-5.6585 14.616-6.9155 24.547-4.3688z"
     opacity=".3"
     stroke-width="1.1697"
     id="path59680" />
  <g
     transform="matrix(1.0723 0 0 1.0723 -34.161 -34.784)"
     fill="#fd7d00"
     id="g59688">
    <circle
       cx="270.46"
       cy="308.79"
       r="10.847"
       id="circle59682" />
    <circle
       cx="327.59"
       cy="341.33"
       r="10.847"
       id="circle59684" />
    <circle
       cx="314.58"
       cy="300.11"
       r="20.249"
       id="circle59686" />
  </g>
  <path
     d="m 80.402,-1.5449 -72.072,72.072 3,3 69.072,-69.072 8.5859,8.5859 2.875,-3.125 -11.461,-11.461 z m -5.6992,36.805 c -1.3097,1.7373 -2.1073,2.998 -2.0645,3.3828 0.1,0.896 12.789,14.387 28.199,29.98 20.544,20.784 29.563,28.52 33.805,28.992 4.19,0.466 12.057,-5.5154 28.535,-21.693 l 22.748,-22.334 15.287,14.91 2.9785,-3.0957 -18.266,-17.814 -22.748,22.334 c -16.478,16.178 -24.345,22.159 -28.535,21.693 -4.2416,-0.47209 -13.261,-8.2078 -33.805,-28.992 -11.807,-11.947 -21.96,-22.604 -26.135,-27.363 z m 118.27,50.07 c -0.57894,1.8298 -0.62819,3.6318 -0.1836,5.5098 1.008,4.255 30.362,35.551 97.729,104.19 80.29,81.811 96.882,99.718 99.857,107.77 1.9087,5.1656 2.7549,11.267 2.8652,22.91 0.1415,-15.73 -0.65329,-22.924 -2.8652,-28.91 -2.9757,-8.0532 -19.567,-25.96 -99.857,-107.77 -65.224,-66.454 -94.813,-97.904 -97.545,-103.7 z m -92.83,44.316 c -3.2544,5.0369 -11.388,14.536 -20.982,24.293 -12.637,12.852 -22.86,24.437 -22.715,25.744 0.06104,0.54842 0.76017,1.6708 1.8398,3.0742 3.4672,-4.4589 11.496,-13.279 20.875,-22.818 12.639,-12.853 22.766,-25.278 22.506,-27.613 -0.0516,-0.46327 -0.5918,-1.3898 -1.5234,-2.6797 z m 292.53,230.41 c -0.1287,14.79 0.55815,21.984 2.2637,24.779 2.7326,4.4768 37.936,46.288 64.553,76.705 6.6382,5.6775 -3.93632,-7.46982 -4.25873,-7.89621 -11.5887,-15.32646 12.55643,11.37571 6.03023,3.93531 l 0.002,-0.004 c -26.792,-30.545 -63.534,-74.166 -66.326,-78.74 -1.456,-2.3862 -2.1633,-8.0179 -2.2637,-18.779 z"
     fill="#fae895"
     id="path59690"
     sodipodi:nodetypes="cccccccccccccccccccccccccccsccccccccssccccsccccc" />
  <path
     d="m 88.988,7.041 -6.8281,7.4238 c -5.3371,5.8018 -9.6213,11.281 -9.5215,12.178 0.02338,0.20951 0.79041,1.1646 2.0645,2.6172 1.7411,-2.3095 4.4111,-5.4838 7.457,-8.7949 L 81.5332,8.5744 88.988,7.0411 Z M 42.025,59.033 c -1.722,-0.1917 -7.4344,3.5379 -12.695,8.2891 l -9.5664,8.6387 -8.4336,-8.4336 -3,3 6.177242,6.177242 L 19.7636,75.9608 24.456725,77.723551 29.3304,73.3225 c 5.2609,-4.7512 10.973,-8.4808 12.695,-8.2891 4.2725,0.47553 49.225,46.302 58.117,58.613 1.0326,-1.5982 1.586,-2.7579 1.5234,-3.3203 -0.544,-4.885 -54.921,-60.768 -59.641,-61.293 z m 159.19,3.4648 -3.4434,3.5801 c -4.4798,4.6584 -5.9852,8.5179 -4.9805,12.762 0.0321,0.13537 0.0938,0.2998 0.1836,0.49023 0.72934,-2.3052 2.2994,-4.655 4.7969,-7.252 l 6.4219,-6.6758 -2.9785,-2.9043 z m -142.93,114.26 c -1.2042,1.5486 -1.8772,2.5889 -1.8398,2.9258 0.1456,1.3082 3.7829,5.7773 8.082,9.9316 l 7.8164,7.5527 5.8984,-5.5898 c 3.2447,-3.0754 7.4127,-5.4246 9.2617,-5.2187 1.849,0.20579 47.524,44.445 101.5,98.311 112.05,111.82 105.22,106.63 138.49,105.27 10.185,-0.41776 25.515,-0.55962 34.066,-0.31446 18.668,0.53508 15.526,-1.5788 68.9,46.371 21.206,19.052 21.12374,15.92345 22.25274,16.05445 1.1292,0.1309 0,0 8.54376,5.53155 l 0.002,-0.004 c -0.56961,-0.6494 -1.1953,-1.3744 -1.7734,-2.0352 -7.4752,-6.3934 -17.794,-15.456 -29.025,-25.547 -53.374,-47.95 -50.232,-45.836 -68.9,-46.371 -8.551,-0.24516 -23.881,-0.1033 -34.066,0.31446 -33.27,1.36 -26.44,6.5485 -138.49,-105.27 -53.976,-53.866 -99.651,-98.105 -101.5,-98.311 -1.849,-0.206 -6.017,2.1433 -9.2617,5.2187 l -5.8984,5.5898 -7.8164,-7.5527 c -2.4969,-2.4128 -4.7464,-4.9131 -6.2422,-6.8574 z m 334.96,142.95 c -0.0378,4.2083 -0.12757,8.8939 -0.29296,14.49 -0.23964,8.1078 -0.32679,14.558 -0.27735,19.859 0.0353,-4.0557 0.12109,-8.5725 0.27735,-13.859 0.25015,-8.4643 0.34469,-15.03 0.29296,-20.49 z"
     fill="#ffc730"
     id="path59692"
     sodipodi:nodetypes="ccccccccccccccccccccccccscccccscccccccccsccccsccsccccscscsc" />
</svg>
