<?xml version="1.0" encoding="UTF-8" standalone="no"?>
<svg
   width="32"
   height="32"
   version="1"
   id="svg1244297"
   sodipodi:docname="switchuser.svg"
   inkscape:version="1.1.2 (0a00cf5339, 2022-02-04)"
   xmlns:inkscape="http://www.inkscape.org/namespaces/inkscape"
   xmlns:sodipodi="http://sodipodi.sourceforge.net/DTD/sodipodi-0.dtd"
   xmlns="http://www.w3.org/2000/svg"
   xmlns:svg="http://www.w3.org/2000/svg">
  <defs
     id="defs1244301" />
  <sodipodi:namedview
     id="namedview1244299"
     pagecolor="#ffffff"
     bordercolor="#666666"
     borderopacity="1.0"
     inkscape:pageshadow="2"
     inkscape:pageopacity="0.0"
     inkscape:pagecheckerboard="0"
     showgrid="false"
     inkscape:zoom="25.84375"
     inkscape:cx="16.019347"
     inkscape:cy="16"
     inkscape:window-width="1920"
     inkscape:window-height="1051"
     inkscape:window-x="0"
     inkscape:window-y="29"
     inkscape:window-maximized="1"
     inkscape:current-layer="svg1244297" />
  <rect
     style="opacity:0.2"
     width="29"
     height="29"
     x="2"
     y="2"
     rx="8.7"
     ry="8.7"
     id="rect1244287" />
  <rect
     style="fill:#3f51b5"
     width="29"
     height="29"
     x="2"
     y="1"
     rx="8.7"
     ry="8.7"
     id="rect1244289" />
  <path
     style="opacity:0.2"
     d="M 21.5,6 C 20.74317,6 19.98634,6.4904746 20,7.4707031 V 20 h -3.5 l 5,6.5 5,-6.5 H 23 V 7.4707031 C 23.013661,6.4904746 22.25683,6 21.5,6 Z m -10,0.5 -5,6.5 H 10 v 12.529297 c -0.02732,1.960457 3.027321,1.960457 3,0 V 13 h 3.5 z"
     id="path1244291" />
  <path
     style="fill:#ffffff"
     d="M 21.5,5 C 20.74317,5 19.98634,5.4904746 20,6.4707031 V 19 h -2.682132 v 0 l -0.226319,0.769014 4.069257,5.290034 0.653572,0.03226 v 0 l 4.025439,-5.233071 v 0 L 25.607741,19 H 23 V 6.4707031 C 23.013661,5.4904746 22.25683,5 21.5,5 Z M 11.135318,5.9740862 v 0 L 7.1194805,11.194675 7.3384881,12 v 0 H 10 v 12.529297 c -0.02732,1.960457 3.027321,1.960457 3,0 V 12 h 2.778206 v 0 l 0.148267,-0.745585 -4.046628,-5.2606169 z"
     id="path1244293"
     sodipodi:nodetypes="scccccccccccccscccccccccccccc" />
  <path
     style="fill:#ffffff;opacity:0.1"
     d="M 10.699219 1 C 5.8794189 1 2 4.8794189 2 9.6992188 L 2 10.699219 C 2 5.8794189 5.8794189 2 10.699219 2 L 22.300781 2 C 27.120581 2 31 5.8794189 31 10.699219 L 31 9.6992188 C 31 4.8794189 27.120581 1 22.300781 1 L 10.699219 1 z"
     id="path1244295" />
</svg>
