<?xml version="1.0" encoding="UTF-8" standalone="no"?>
<svg
   width="512"
   height="512"
   version="1.1"
   viewBox="0 0 384 384"
   id="svg2223668"
   sodipodi:docname="xdman.svg"
   inkscape:version="1.1.2 (0a00cf5339, 2022-02-04)"
   xmlns:inkscape="http://www.inkscape.org/namespaces/inkscape"
   xmlns:sodipodi="http://sodipodi.sourceforge.net/DTD/sodipodi-0.dtd"
   xmlns="http://www.w3.org/2000/svg"
   xmlns:svg="http://www.w3.org/2000/svg">
  <defs
     id="defs2223672" />
  <sodipodi:namedview
     id="namedview2223670"
     pagecolor="#ffffff"
     bordercolor="#666666"
     borderopacity="1.0"
     inkscape:pageshadow="2"
     inkscape:pageopacity="0.0"
     inkscape:pagecheckerboard="0"
     showgrid="false"
     inkscape:zoom="1.6152344"
     inkscape:cx="255.69045"
     inkscape:cy="256"
     inkscape:window-width="1920"
     inkscape:window-height="1051"
     inkscape:window-x="0"
     inkscape:window-y="29"
     inkscape:window-maximized="1"
     inkscape:current-layer="svg2223668" />
  <path
     d="m360 343.2v-302.4c0-9.2773-7.5234-16.801-16.801-16.801h-302.4c-9.2773 0-16.801 7.5234-16.801 16.801v302.4c0 9.2773 7.5234 16.801 16.801 16.801h302.4c9.2773 0 16.801-7.5234 16.801-16.801z"
     fill="#4aaee6"
     id="path2223658" />
  <path
     d="m 174.87,79.496 c -4.75,0 -6.8672,4.1211 -6.8672,9.2344 v 146.77 h -36 l 54.18888,75.86444 11.56516,0.0799 v 0 L 252.0028,235.5004 h -36 v -146.77 c 0,-5.1094 -2.1289,-9.2305 -6.8711,-9.2305 z"
     opacity="0.3"
     id="path2223660"
     sodipodi:nodetypes="cscccccccscc" />
  <path
     d="m 174.87,71.996 c -4.75,0 -6.8672,4.1211 -6.8672,9.2344 v 146.77 h -29.49315 v 0 l -1.72484,6.69482 50.33902,70.47463 9.03634,1.01023 v 0 l 50.50269,-70.70377 -2.77989,-7.47591 v 0 H 216.0028 v -146.77 c 0,-5.1094 -2.1289,-9.2305 -6.8711,-9.2305 z"
     fill="#ffffff"
     id="path2223662"
     sodipodi:nodetypes="cscccccccccccscc" />
  <path
     transform="scale(.75)"
     d="m54.4 32c-12.37 0-22.4 10.031-22.4 22.4v10c0-12.37 10.031-22.4 22.4-22.4h403.2c12.37 0 22.4 10.031 22.4 22.4v-10c0-12.37-10.031-22.4-22.4-22.4h-403.2z"
     fill="#eef5f9"
     opacity=".3"
     stroke-width="1.3333"
     id="path2223664" />
  <path
     transform="scale(.75)"
     d="m32 447.6v10c0 12.37 10.031 22.4 22.4 22.4h403.2c12.37 0 22.4-10.031 22.4-22.4v-10c0 12.37-10.031 22.4-22.4 22.4h-403.2c-12.37 0-22.4-10.031-22.4-22.4z"
     opacity=".3"
     stroke-width="1.3333"
     id="path2223666" />
</svg>
