<?xml version="1.0" encoding="UTF-8" standalone="no"?>
<svg
   width="35"
   height="200"
   version="1.1"
   id="svg13"
   sodipodi:docname="add-workspace.svg"
   inkscape:version="1.1.2 (0a00cf5339, 2022-02-04)"
   xmlns:inkscape="http://www.inkscape.org/namespaces/inkscape"
   xmlns:sodipodi="http://sodipodi.sourceforge.net/DTD/sodipodi-0.dtd"
   xmlns="http://www.w3.org/2000/svg"
   xmlns:svg="http://www.w3.org/2000/svg">
  <sodipodi:namedview
     id="namedview15"
     pagecolor="#505050"
     bordercolor="#ffffff"
     borderopacity="1"
     inkscape:pageshadow="0"
     inkscape:pageopacity="0"
     inkscape:pagecheckerboard="1"
     showgrid="false"
     inkscape:zoom="47.008459"
     inkscape:cx="17.52876"
     inkscape:cy="99.950097"
     inkscape:window-width="1920"
     inkscape:window-height="1051"
     inkscape:window-x="0"
     inkscape:window-y="29"
     inkscape:window-maximized="1"
     inkscape:current-layer="svg13" />
  <defs
     id="defs5">
    <filter
       id="a"
       x="-0.088000002"
       y="-0.013894737"
       width="1.176"
       height="1.0277895"
       color-interpolation-filters="sRGB">
      <feGaussianBlur
         stdDeviation="1.1"
         id="feGaussianBlur2" />
    </filter>
  </defs>
  <path
     d="M7 5h28v190H7a2 2 0 01-2-2V7c0-1.1.9-2 2-2z"
     fill="#000000"
     fill-opacity=".3"
     filter="url(#a)"
     transform="translate(0 1)"
     id="path7" />
  <path
     d="M7 5h28v190H7a2 2 0 01-2-2V7c0-1.1.9-2 2-2z"
     fill="#cccccc"
     id="path9" />
  <path
     d="m 18,94 c -0.552285,0 -1,0.447715 -1,1 v 3.676383 L 16.710334,99 v 0 H 13 c -1.333333,0 -1.333333,2 0,2 h 3.695293 L 17,101.32767 v 0 V 105 c 0,1.33333 2,1.33333 2,0 v -3.61623 L 19.322779,101 v 0 H 23 c 1.333333,0 1.333333,-2 0,-2 h -3.68212 v 0 L 19,98.630395 V 95 c 0,-0.552285 -0.447715,-1 -1,-1 z m 8,6 c 0,4.41828 -3.581722,8 -8,8 -4.418278,0 -8,-3.58172 -8,-8 0,-4.418278 3.581722,-8 8,-8 4.418278,0 8,3.581722 8,8 z"
     fill="#000000"
     fill-opacity="0.87"
     id="path11"
     sodipodi:nodetypes="sscccsscccsscccsscccsssssss" />
</svg>
