<?xml version="1.0" encoding="UTF-8" standalone="no"?>
<svg
   width="16"
   height="16"
   version="1.1"
   id="svg4"
   sodipodi:docname="action-unavailable-symbolic.svg"
   inkscape:version="1.1.2 (0a00cf5339, 2022-02-04)"
   xmlns:inkscape="http://www.inkscape.org/namespaces/inkscape"
   xmlns:sodipodi="http://sodipodi.sourceforge.net/DTD/sodipodi-0.dtd"
   xmlns="http://www.w3.org/2000/svg"
   xmlns:svg="http://www.w3.org/2000/svg">
  <defs
     id="defs8" />
  <sodipodi:namedview
     id="namedview6"
     pagecolor="#ffffff"
     bordercolor="#666666"
     borderopacity="1.0"
     inkscape:pageshadow="2"
     inkscape:pageopacity="0.0"
     inkscape:pagecheckerboard="0"
     showgrid="false"
     inkscape:zoom="94.5"
     inkscape:cx="8.010582"
     inkscape:cy="7.984127"
     inkscape:window-width="1920"
     inkscape:window-height="1051"
     inkscape:window-x="0"
     inkscape:window-y="29"
     inkscape:window-maximized="1"
     inkscape:current-layer="svg4" />
  <path
     style="fill:#5c616c"
     d="M 8,1 C 4.14,1 1,4.137 1,8 c 0,3.863 3.14,7 7,7 3.86,0 7,-3.137 7,-7 C 15,4.137 11.86,1 8,1 Z m 0,2 c 0.9193255,0 1.7736638,0.2331418 2.511763,0.6635495 0.08083,0.047134 -0.07797,-0.051818 0,0 l 0.08127,0.3053722 -6.6251984,6.6232893 -0.2603948,-0.0051 c -0.03525,-0.05362 0.033117,0.05497 0,0 C 3.2520155,9.8311952 3,8.9499238 3,8 3,5.24 5.24,3 8,3 Z m 3.861949,2.5779091 c -0.11091,0.1108618 0.243525,0.070491 0.396343,-0.018562 0.05214,-0.030386 0.07136,0.084565 0.05006,0.046918 -0.0279,-0.049315 0.06612,-0.052849 0.09317,-0.00302 0.01249,0.023009 0.0248,0.046123 0.03693,0.069342 C 12.801492,6.3676484 13,7.1561015 13,8 c 0,2.759 -2.24,5 -5,5 -0.9329251,0 -1.798926,-0.240927 -2.544443,-0.683759 -0.069583,-0.04133 0.06744,0.04482 0,0 L 5.406234,12.030833 Z"
     id="path2"
     sodipodi:nodetypes="sssssssccccssscssssssscccc" />
</svg>
