<?xml version="1.0" encoding="UTF-8" standalone="no"?>
<svg
   width="16"
   height="16"
   version="1.1"
   viewBox="0 0 16 16"
   id="svg4"
   sodipodi:docname="add-files-to-archive-symbolic.svg"
   inkscape:version="1.1.2 (0a00cf5339, 2022-02-04)"
   xmlns:inkscape="http://www.inkscape.org/namespaces/inkscape"
   xmlns:sodipodi="http://sodipodi.sourceforge.net/DTD/sodipodi-0.dtd"
   xmlns="http://www.w3.org/2000/svg"
   xmlns:svg="http://www.w3.org/2000/svg">
  <defs
     id="defs8" />
  <sodipodi:namedview
     id="namedview6"
     pagecolor="#ffffff"
     bordercolor="#666666"
     borderopacity="1.0"
     inkscape:pageshadow="2"
     inkscape:pageopacity="0.0"
     inkscape:pagecheckerboard="0"
     showgrid="false"
     inkscape:zoom="146.19433"
     inkscape:cx="7.9962063"
     inkscape:cy="14.29262"
     inkscape:window-width="1920"
     inkscape:window-height="1051"
     inkscape:window-x="0"
     inkscape:window-y="29"
     inkscape:window-maximized="1"
     inkscape:current-layer="svg4" />
  <path
     style="fill:#5c616c"
     d="M 4.7029987,1.0058594 C 4.4687422,1.0433148 3.9998737,1.2049729 3.9998737,1.8046875 V 12.199219 C 3.9998737,12.998895 4.8338581,13 4.8338581,13 h 8.3242189 c 0.832521,0 0.833982,-0.800781 0.833985,-0.800781 0.01532,-0.03566 0.0049,-5.5797986 4.31e-4,-7.7841513 L 13.844661,4.0634691 v 0 L 10.830909,1.1681472 v 0 L 10.457471,1.0058594 H 4.8338581 c 0,0 -0.052774,-0.012462 -0.1308594,0 z m -2,2 C 2.4687422,3.0433148 1.9998737,3.2049729 1.9998737,3.8046875 V 14.199219 C 1.9998737,14.998895 2.8338581,15 2.8338581,15 h 8.3242189 c 0.832521,0 0.833981,-0.800781 0.833985,-0.800781 3.94e-4,-9.19e-4 0,0 -0.183284,-0.199219 v 0 H 3.8338581 c 0,0 -0.8339844,-0.0011 -0.8339844,-0.800781 v -10.0013783 0 L 2.8338581,3.0058594 c 0,0 -0.052774,-0.012462 -0.1308594,0 z M 7.9998737,4 h 2 V 6 H 11.999874 V 8 H 9.9998737 v 2 h -2 V 8 h -2 V 6 h 2 z"
     id="path2"
     sodipodi:nodetypes="csscscsccccccccsscsccccsccccccccccccccccc" />
</svg>
