<?xml version="1.0" encoding="UTF-8" standalone="no"?>
<svg
   width="16"
   height="16"
   version="1.1"
   id="svg6"
   sodipodi:docname="calendar-go-today-symbolic.svg"
   inkscape:version="1.1.2 (0a00cf5339, 2022-02-04)"
   xmlns:inkscape="http://www.inkscape.org/namespaces/inkscape"
   xmlns:sodipodi="http://sodipodi.sourceforge.net/DTD/sodipodi-0.dtd"
   xmlns="http://www.w3.org/2000/svg"
   xmlns:svg="http://www.w3.org/2000/svg">
  <defs
     id="defs10" />
  <sodipodi:namedview
     id="namedview8"
     pagecolor="#ffffff"
     bordercolor="#666666"
     borderopacity="1.0"
     inkscape:pageshadow="2"
     inkscape:pageopacity="0.0"
     inkscape:pagecheckerboard="0"
     showgrid="false"
     inkscape:zoom="48.5625"
     inkscape:cx="8.010296"
     inkscape:cy="7.958816"
     inkscape:window-width="1507"
     inkscape:window-height="980"
     inkscape:window-x="205"
     inkscape:window-y="49"
     inkscape:window-maximized="1"
     inkscape:current-layer="svg6" />
  <path
     style="fill:#444444"
     d="M 2,1 C 2,1 1,1 1,2 V 7 H 3 V 6.3356509 L 3.2562339,6 V 6 H 3.8 L 5.7923308,4.0043624 v 0 L 6.6715044,4.0463601 8.63,6 H 13 v 7 H 7.66 l -1.1230819,1.1379 v 0 L 5.9109535,14.150165 4.76,13 H 3.3223523 L 3,12.664172 v 0 V 11 H 1 v 3 c 0,0 0,1 1,1 h 12 c 1,0 1,-1 1,-1 V 2 c 0,0 0,-1 -1,-1 z"
     id="path2"
     sodipodi:nodetypes="cscccccccccccccccccccccccssccsc" />
  <path
     style="fill:#444444"
     d="m 5.9553698,5.2557372 v 0 L 5.12379,6.0909326 v 0 L 5.0802852,6.637053 6.1785645,7.7387013 6.1234539,8.019906 v 0 L 0,8 v 2 l 6.1195939,0.01989 0.1465863,0.195402 v 0 l -1.140256,1.143055 v 0 l 0.010173,0.604078 0.7749749,0.778344 0.6494524,-0.05389 v 0 L 9.8393489,9.3744503 v 0 L 9.8368236,8.6268236 6.4913527,5.2813527 Z"
     id="path4"
     sodipodi:nodetypes="cccccccccccccccccccccccc" />
</svg>
