<?xml version="1.0" encoding="UTF-8" standalone="no"?>
<svg
   width="16"
   height="16"
   version="1.1"
   id="svg6"
   sodipodi:docname="camera-switch-symbolic.svg"
   inkscape:version="1.1.2 (0a00cf5339, 2022-02-04)"
   xmlns:inkscape="http://www.inkscape.org/namespaces/inkscape"
   xmlns:sodipodi="http://sodipodi.sourceforge.net/DTD/sodipodi-0.dtd"
   xmlns="http://www.w3.org/2000/svg"
   xmlns:svg="http://www.w3.org/2000/svg">
  <defs
     id="defs10" />
  <sodipodi:namedview
     id="namedview8"
     pagecolor="#ffffff"
     bordercolor="#666666"
     borderopacity="1.0"
     inkscape:pageshadow="2"
     inkscape:pageopacity="0.0"
     inkscape:pagecheckerboard="0"
     showgrid="false"
     inkscape:zoom="51.6875"
     inkscape:cx="7.9903265"
     inkscape:cy="8"
     inkscape:window-width="1920"
     inkscape:window-height="1051"
     inkscape:window-x="0"
     inkscape:window-y="29"
     inkscape:window-maximized="1"
     inkscape:current-layer="svg6" />
  <path
     style="fill:#5c616c"
     d="m 7.5,6.0000001 c -0.831,0 -1.5,0.669 -1.5,1.5 V 11.5 C 6,12.331 6.669,13 7.5,13 h 4 c 0.831,0 1.5,-0.669 1.5,-1.5 v -0.567095 0 l 0.186911,-0.04724 2.166605,1.051837 C 15.64072,12.114879 16.000209,11.89156 16,11.537109 V 7.4609376 c 2.87e-4,-0.2593932 -0.200689,-0.4682008 -0.443359,-0.4609375 -0.07157,0.00222 -0.141175,0.024137 -0.203125,0.0625 l -2.193295,1.0647945 v 0 L 13,8.0162827 V 7.5000001 c 0,-0.831 -0.669,-1.5 -1.5,-1.5 z"
     id="path2"
     sodipodi:nodetypes="sssssscccccccccccsss" />
  <path
     style="opacity:0.35;fill:#5c616c"
     d="M 4.5,2 C 3.6690003,2 3,2.669 3,3.5 v 0.5339683 0 L 2.8161911,4.1158431 0.64648438,3.0625 C 0.58453437,3.024137 0.51492937,3.00222 0.44335938,3 0.20068938,2.9927367 -2.87e-4,3.2015443 0,3.4609375 V 7.5371094 C -2.09e-4,7.8915604 0.35928038,8.114879 0.64648438,7.9375 L 2.8565751,6.8645514 v 0 L 3,6.9336475 V 7.5 C 3,8.331 3.6690003,9 4.5,9 H 5 V 7.5 C 5,6.1322972 6.1322972,5 7.5,5 H 10 V 3.5 C 10,2.669 9.331,2 8.5,2 Z"
     id="path4"
     sodipodi:nodetypes="sscccccccccccsscsscsss" />
</svg>
