<?xml version="1.0" encoding="UTF-8" standalone="no"?>
<svg
   width="16"
   height="16"
   version="1.1"
   id="svg1565656"
   sodipodi:docname="dino-double-tick-symbolic.svg"
   inkscape:version="1.1.2 (0a00cf5339, 2022-02-04)"
   xmlns:inkscape="http://www.inkscape.org/namespaces/inkscape"
   xmlns:sodipodi="http://sodipodi.sourceforge.net/DTD/sodipodi-0.dtd"
   xmlns="http://www.w3.org/2000/svg"
   xmlns:svg="http://www.w3.org/2000/svg">
  <defs
     id="defs1565660" />
  <sodipodi:namedview
     id="namedview1565658"
     pagecolor="#ffffff"
     bordercolor="#666666"
     borderopacity="1.0"
     inkscape:pageshadow="2"
     inkscape:pageopacity="0.0"
     inkscape:pagecheckerboard="0"
     showgrid="false"
     inkscape:zoom="51.6875"
     inkscape:cx="7.9903265"
     inkscape:cy="8"
     inkscape:window-width="1920"
     inkscape:window-height="1051"
     inkscape:window-x="0"
     inkscape:window-y="29"
     inkscape:window-maximized="1"
     inkscape:current-layer="svg1565656" />
  <path
     style="fill:#5c616c"
     d="M 11.03,3.03 C 10.81,3.08 10.61,3.2 10.47,3.37 l -6.093033,6.975941 -0.3555002,0.04553 v 0 L 1.94,8.31 C 1.56,7.93 0.88,7.93 0.5,8.31 0.12,8.69 0.12,9.37 0.5,9.75 l 3.5389107,3.510824 v 0 L 4.5265474,13.217545 11.97,4.69 C 12.53,4.07 11.85,2.86 11.03,3.03 Z"
     id="path1565652"
     sodipodi:nodetypes="cccccsscccccc" />
  <path
     style="fill:#5c616c"
     d="M 14.75,3.03 C 14.52,3.08 14.3,3.21 14.15,3.4 l -6.7,7.66 -0.35,-0.34 -1.42,1.62 1.04,1.06 0.510916,0.492449 v 0 L 7.7779639,13.928317 8.28,13.33 15.75,4.8 c 0.61,-0.66 -0.12,-1.95 -1,-1.77 z"
     id="path1565654"
     sodipodi:nodetypes="cccccccccccc" />
</svg>
