<?xml version="1.0" encoding="UTF-8" standalone="no"?>
<svg
   width="16"
   height="16"
   version="1.1"
   id="svg6"
   sodipodi:docname="document-revert-rtl-symbolic.svg"
   inkscape:version="1.1.2 (0a00cf5339, 2022-02-04)"
   xmlns:inkscape="http://www.inkscape.org/namespaces/inkscape"
   xmlns:sodipodi="http://sodipodi.sourceforge.net/DTD/sodipodi-0.dtd"
   xmlns="http://www.w3.org/2000/svg"
   xmlns:svg="http://www.w3.org/2000/svg">
  <defs
     id="defs10" />
  <sodipodi:namedview
     id="namedview8"
     pagecolor="#ffffff"
     bordercolor="#666666"
     borderopacity="1.0"
     inkscape:pageshadow="2"
     inkscape:pageopacity="0.0"
     inkscape:pagecheckerboard="0"
     showgrid="false"
     inkscape:zoom="47.25"
     inkscape:cx="8"
     inkscape:cy="8"
     inkscape:window-width="1854"
     inkscape:window-height="966"
     inkscape:window-x="0"
     inkscape:window-y="29"
     inkscape:window-maximized="1"
     inkscape:current-layer="svg6" />
  <path
     style="fill:#5c616c"
     d="M 6.4844456,10.677036 6,10.375043 V 9 H 5 C 4,9 4,10 4,10 V 12.745404 12.893531 14 H 2 V 10 C 2,7 5,7 5,7 h 1 v -1.4713923 0 l 0.4987692,-0.1960949 3.5699978,2.3799988 0.02489,0.5583812 v 0 z"
     id="path2"
     sodipodi:nodetypes="cccscccccsccccccccc" />
  <path
     style="fill:#5c616c"
     d="m 13,15 c 0,0 1,0 1,-1 V 2 C 14,1 13,1 13,1 H 3 C 3,1 2,1 2,2 v 4 h 2 v -2.7569257 0 L 4.2162724,3 H 11.750524 L 12,3.2430743 v 0 9.4178237 0 L 11.665507,13 H 4.2372285 v 0 0 H 2 v 1 c 0,1 1,1 1,1 z"
     id="path4"
     sodipodi:nodetypes="cssccscccccccccccccccscc" />
</svg>
