<?xml version="1.0" encoding="UTF-8" standalone="no"?>
<svg
   width="16"
   height="16"
   version="1.1"
   id="svg6"
   sodipodi:docname="document-import-symbolic.svg"
   inkscape:version="1.1.2 (0a00cf5339, 2022-02-04)"
   xmlns:inkscape="http://www.inkscape.org/namespaces/inkscape"
   xmlns:sodipodi="http://sodipodi.sourceforge.net/DTD/sodipodi-0.dtd"
   xmlns="http://www.w3.org/2000/svg"
   xmlns:svg="http://www.w3.org/2000/svg">
  <defs
     id="defs10" />
  <sodipodi:namedview
     id="namedview8"
     pagecolor="#ffffff"
     bordercolor="#666666"
     borderopacity="1.0"
     inkscape:pageshadow="2"
     inkscape:pageopacity="0.0"
     inkscape:pagecheckerboard="0"
     showgrid="false"
     inkscape:zoom="47.25"
     inkscape:cx="8"
     inkscape:cy="8"
     inkscape:window-width="1854"
     inkscape:window-height="966"
     inkscape:window-x="0"
     inkscape:window-y="29"
     inkscape:window-maximized="1"
     inkscape:current-layer="svg6" />
  <path
     style="fill:#5c616c"
     d="M 3,15 C 3,15 2,15 2,14 V 2 C 2,1 3,1 3,1 h 10 c 0,0 1,0 1,1 V 6 H 12 V 3.2854882 L 11.771479,3.01 v 0 H 4.2797374 L 4,3.2854882 v 0 9.3962948 L 4.2587813,13 v 0 h 7.5126977 v 0 L 12,12.766611 V 10 h 2 v 4 c 0,1 -1,1 -1,1 z"
     id="path2"
     sodipodi:nodetypes="cssccsccccccccccccccccscc" />
  <path
     style="fill:#5c616c"
     d="m 11,10.501963 v 0 V 9 h 4 V 7 H 11 V 5.4441008 L 10.586797,5.2754685 v 0 L 6.9436327,7.7042448 6.938315,8.29221 v 0 l 3.638296,2.425531 z"
     id="path4"
     sodipodi:nodetypes="cccccccccccccc" />
</svg>
