<?xml version="1.0" encoding="UTF-8" standalone="no"?>
<svg
   width="16"
   height="16"
   version="1.1"
   id="svg4"
   sodipodi:docname="edit-clear-all-symbolic.svg"
   inkscape:version="1.1.2 (0a00cf5339, 2022-02-04)"
   xmlns:inkscape="http://www.inkscape.org/namespaces/inkscape"
   xmlns:sodipodi="http://sodipodi.sourceforge.net/DTD/sodipodi-0.dtd"
   xmlns="http://www.w3.org/2000/svg"
   xmlns:svg="http://www.w3.org/2000/svg">
  <defs
     id="defs8" />
  <sodipodi:namedview
     id="namedview6"
     pagecolor="#ffffff"
     bordercolor="#666666"
     borderopacity="1.0"
     inkscape:pageshadow="2"
     inkscape:pageopacity="0.0"
     inkscape:pagecheckerboard="0"
     showgrid="false"
     inkscape:zoom="51.6875"
     inkscape:cx="7.9903265"
     inkscape:cy="8"
     inkscape:window-width="1920"
     inkscape:window-height="1051"
     inkscape:window-x="0"
     inkscape:window-y="29"
     inkscape:window-maximized="1"
     inkscape:current-layer="svg4" />
  <path
     style="fill:#5c616c"
     d="M 8,1 C 4.1340068,1 1,4.1340068 1,8 c 0,3.865993 3.1340068,7 7,7 3.865993,0 7,-3.134007 7,-7 C 15,4.1340068 11.865993,1 8,1 Z M 5,5.2823984 5.2605851,5 H 6 c 0.28,0 0.5407,0.1002 0.7207,0.2812 l 1.1220927,1.1204262 0.3140366,3.775e-4 v 0 L 9.2793,5.2812 C 9.4593,5.1002 9.72,5 10,5 h 0.684047 V 5 L 11,5.2679885 V 6 c 0,0.276 -0.099,0.5377 -0.279,0.7188 L 9.582779,7.8567545 v 0 L 9.536343,8.0968203 10.721,9.2812 C 10.901,9.4621 11,9.7239 11,10 v 0.689315 0 L 10.666474,11 H 10 C 9.72,11 9.4593,10.9 9.2793,10.719 L 8.1071299,9.5412408 7.8524619,9.5818416 v 0 L 6.7207,10.719 C 6.5407,10.9 6.28,11 6,11 H 5.3181799 v 0 L 5,10.605237 V 10 C 5,9.7239 5.0993,9.4622 5.2793,9.2812 L 6.4408703,8.1196297 6.4137255,7.8532255 v 0 L 5.2793,6.7188 C 5.0993,6.5377 5,6.276 5,6 Z"
     id="path2"
     sodipodi:nodetypes="sssssccscccccscccscccccscccscccccscccscccccscc" />
</svg>
