<?xml version="1.0" encoding="UTF-8" standalone="no"?>
<svg
   width="16"
   height="16"
   version="1.1"
   id="svg4"
   sodipodi:docname="fcitx-punc-inactive-symbolic.svg"
   inkscape:version="1.1.2 (0a00cf5339, 2022-02-04)"
   xmlns:inkscape="http://www.inkscape.org/namespaces/inkscape"
   xmlns:sodipodi="http://sodipodi.sourceforge.net/DTD/sodipodi-0.dtd"
   xmlns="http://www.w3.org/2000/svg"
   xmlns:svg="http://www.w3.org/2000/svg">
  <defs
     id="defs8" />
  <sodipodi:namedview
     id="namedview6"
     pagecolor="#ffffff"
     bordercolor="#666666"
     borderopacity="1.0"
     inkscape:pageshadow="2"
     inkscape:pageopacity="0.0"
     inkscape:pagecheckerboard="0"
     showgrid="false"
     inkscape:zoom="146.19433"
     inkscape:cx="12.681751"
     inkscape:cy="7.9996264"
     inkscape:window-width="1920"
     inkscape:window-height="1051"
     inkscape:window-x="0"
     inkscape:window-y="29"
     inkscape:window-maximized="1"
     inkscape:current-layer="svg4" />
  <path
     style="opacity:0.35;fill:#5c616c"
     d="M 3,3 C 1.3431458,3 0,4.3431458 0,6 0,7.6568542 1.3431458,9 3,9 4.6568542,9 6,7.6568542 6,6 6,4.3431458 4.6568542,3 3,3 Z m 9,0 c -1.656854,0 -3,1.3431458 -3,3 0,1.6568542 1.343146,3 3,3 0.198446,-0.00133 0.396177,-0.022354 0.590293,-0.062697 0.03704,-0.0077 -0.03676,0.0091 0,0 -0.01735,0.039476 0.0753,0.053364 0.05656,0.092055 C 12.081211,10.197088 10.888979,11 9.5,11 H 9 v 2 H 9.5996 C 12.591,13 15,10.547 15,7.5 V 6 C 15,4.3431458 13.656854,3 12,3 Z M 3,5 C 3.5522847,5 4,5.4477153 4,6 4,6.5522847 3.5522847,7 3,7 2.4477153,7 2,6.5522847 2,6 2,5.4477153 2.4477153,5 3,5 Z m 9,0 c 0.552285,0 1,0.4477153 1,1 0,0.5522847 -0.447715,1 -1,1 -0.552285,0 -1,-0.4477153 -1,-1 0,-0.5522847 0.447715,-1 1,-1 z"
     id="path2"
     sodipodi:nodetypes="ssssssscscssccssssssssssssss" />
</svg>
