<?xml version="1.0" encoding="UTF-8" standalone="no"?>
<svg
   width="16"
   height="16"
   version="1.1"
   id="svg8"
   sodipodi:docname="format-text-direction-ltr-symbolic.svg"
   inkscape:version="1.1.2 (0a00cf5339, 2022-02-04)"
   xmlns:inkscape="http://www.inkscape.org/namespaces/inkscape"
   xmlns:sodipodi="http://sodipodi.sourceforge.net/DTD/sodipodi-0.dtd"
   xmlns="http://www.w3.org/2000/svg"
   xmlns:svg="http://www.w3.org/2000/svg">
  <defs
     id="defs12" />
  <sodipodi:namedview
     id="namedview10"
     pagecolor="#ffffff"
     bordercolor="#666666"
     borderopacity="1.0"
     inkscape:pageshadow="2"
     inkscape:pageopacity="0.0"
     inkscape:pagecheckerboard="0"
     showgrid="false"
     inkscape:zoom="133.64318"
     inkscape:cx="8.0063943"
     inkscape:cy="12.192915"
     inkscape:window-width="1920"
     inkscape:window-height="1051"
     inkscape:window-x="0"
     inkscape:window-y="29"
     inkscape:window-maximized="1"
     inkscape:current-layer="svg8" />
  <path
     style="fill:#5c616c"
     d="M 11,3 C 11,1.37 9.68,0 8,0 H 2 V 2 H 8 C 8.43,2 9,2.61 9,3 V 3.8621311 L 8.9027274,4 V 4 H 4 C 3.08,4 2.26,4.38 1.75,4.97 1.24,5.55 1,6.28 1,7 1,7.72 1.27,8.45 1.78,9.03 2.29,9.61 3.09,10 4,10 h 7 M 4,6 H 8.8935669 L 9,6.1028118 v 0 1.770751 0 L 8.8730957,8 H 4 C 3.6,8 3.43,7.89 3.28,7.72 3.13,7.55 3,7.28 3,7 3,6.72 3.1,6.45 3.25,6.28 3.4,6.12 3.58,6 4,6 Z"
     id="path2"
     sodipodi:nodetypes="csccsscccscssscsccccccssscs" />
  <path
     style="fill:#5c616c"
     d="m 12.526192,14.605356 v 0 l 3.077874,-2.308405 v 0 L 15.588229,11.691172 12.496998,9.3727486 12,9.6344052 v 0 1.2351188 l -0.09927,0.209473 -0.138615,1.82734 0.200489,0.213857 L 12,14.353921 Z"
     id="path4"
     sodipodi:nodetypes="cccccccccccccc" />
  <path
     style="fill:#5c616c"
     d="m 1,11 v 2 h 13 v -2 h -2.095273 z"
     id="path6"
     sodipodi:nodetypes="cccccc" />
</svg>
