<?xml version="1.0" encoding="UTF-8" standalone="no"?>
<svg
   width="16"
   height="16"
   version="1.1"
   id="svg4"
   sodipodi:docname="format-text-italic-symbolic.svg"
   inkscape:version="1.1.2 (0a00cf5339, 2022-02-04)"
   xmlns:inkscape="http://www.inkscape.org/namespaces/inkscape"
   xmlns:sodipodi="http://sodipodi.sourceforge.net/DTD/sodipodi-0.dtd"
   xmlns="http://www.w3.org/2000/svg"
   xmlns:svg="http://www.w3.org/2000/svg">
  <defs
     id="defs8" />
  <sodipodi:namedview
     id="namedview6"
     pagecolor="#ffffff"
     bordercolor="#666666"
     borderopacity="1.0"
     inkscape:pageshadow="2"
     inkscape:pageopacity="0.0"
     inkscape:pagecheckerboard="0"
     showgrid="false"
     inkscape:zoom="103.375"
     inkscape:cx="8"
     inkscape:cy="7.2212817"
     inkscape:window-width="1920"
     inkscape:window-height="1051"
     inkscape:window-x="0"
     inkscape:window-y="29"
     inkscape:window-maximized="1"
     inkscape:current-layer="svg4" />
  <path
     style="fill:#5c616c"
     d="M 5.9544,3 5.228738,4.8566252 5.3441255,5 V 5 L 11.173,5 c 0.43,0 0.761,0.61 0.609,1 L 11.436605,6.8833628 11.241283,7 V 7 H 6.3909 C 5.4709,7 4.5024,7.38 3.7617,7.97 3.025,8.55 2.4997,9.28 2.2182,10 1.9368,10.72 1.9214,11.45 2.2047,12.03 2.488,12.61 3.1356,13 4.0456,13 h 6.868463 l 0.171562,-0.101379 v 0 L 13.782,6 C 14.419,4.37 13.634,3 11.954,3 Z M 5.6091,9 h 4.847876 V 9 L 10.542089,9.1711926 9.8708881,10.888479 9.6909434,11 v 0 H 4.8273 C 4.4273,11 4.3003,10.89 4.2168,10.72 4.1332,10.55 4.1088,10.28 4.2182,10 4.3277,9.72 4.5332,9.45 4.7497,9.28 4.9622,9.12 5.1891,9 5.6091,9 Z"
     id="path2"
     sodipodi:nodetypes="ccccsccccsccssccccscsccccccscccs" />
</svg>
