<?xml version="1.0" encoding="UTF-8" standalone="no"?>
<svg
   width="16"
   height="16"
   version="1.1"
   id="svg8"
   sodipodi:docname="format-text-remove-formatting-symbolic.svg"
   inkscape:version="1.1.2 (0a00cf5339, 2022-02-04)"
   xmlns:inkscape="http://www.inkscape.org/namespaces/inkscape"
   xmlns:sodipodi="http://sodipodi.sourceforge.net/DTD/sodipodi-0.dtd"
   xmlns="http://www.w3.org/2000/svg"
   xmlns:svg="http://www.w3.org/2000/svg">
  <defs
     id="defs12" />
  <sodipodi:namedview
     id="namedview10"
     pagecolor="#ffffff"
     bordercolor="#666666"
     borderopacity="1.0"
     inkscape:pageshadow="2"
     inkscape:pageopacity="0.0"
     inkscape:pagecheckerboard="0"
     showgrid="false"
     inkscape:zoom="47.25"
     inkscape:cx="8"
     inkscape:cy="8"
     inkscape:window-width="1854"
     inkscape:window-height="966"
     inkscape:window-x="0"
     inkscape:window-y="29"
     inkscape:window-maximized="1"
     inkscape:current-layer="svg8" />
  <path
     style="fill:#5c616c"
     d="M 2.5,1 15,13.5 13.5,15 1,2.5 Z"
     id="path2" />
  <path
     style="fill:#5c616c"
     d="m 6.7600295,3.2600295 v 0 L 8.5,5 H 10 c 0.43,0 1,0.61 1,1 v 1 h -0.22299 l -0.04894,0.2280661 v 0 L 12.696426,9.196426 13,9.1051949 v 0 V 6 C 13,4.37 11.68,3 10,3 H 6.9248667 Z"
     id="path4"
     sodipodi:nodetypes="cccsscccccccsscc" />
  <path
     style="fill:#5c616c"
     d="M 6,7 C 5.08,7 4.26,7.3807 3.75,7.9707 3.24,8.5507 3,9.28 3,10 3,10.72 3.2693,11.449 3.7793,12.029 4.2893,12.609 5.09,13 6,13 H 13 V 12.5 L 11,10.5 V 11 H 6 C 5.6,11 5.4293,10.891 5.2793,10.721 5.1293,10.551 5,10.28 5,10 5,9.72 5.1,9.4493 5.25,9.2793 5.4,9.1193 5.58,9 6,9 H 9.5 L 7.5,7 Z"
     id="path6" />
</svg>
