<?xml version="1.0" encoding="UTF-8" standalone="no"?>
<svg
   width="16"
   height="16"
   version="1.1"
   id="svg8"
   sodipodi:docname="format-text-direction-rtl-symbolic.svg"
   inkscape:version="1.1.2 (0a00cf5339, 2022-02-04)"
   xmlns:inkscape="http://www.inkscape.org/namespaces/inkscape"
   xmlns:sodipodi="http://sodipodi.sourceforge.net/DTD/sodipodi-0.dtd"
   xmlns="http://www.w3.org/2000/svg"
   xmlns:svg="http://www.w3.org/2000/svg">
  <defs
     id="defs12" />
  <sodipodi:namedview
     id="namedview10"
     pagecolor="#ffffff"
     bordercolor="#666666"
     borderopacity="1.0"
     inkscape:pageshadow="2"
     inkscape:pageopacity="0.0"
     inkscape:pagecheckerboard="0"
     showgrid="false"
     inkscape:zoom="133.64318"
     inkscape:cx="8.0063942"
     inkscape:cy="11.893611"
     inkscape:window-width="1920"
     inkscape:window-height="1051"
     inkscape:window-x="0"
     inkscape:window-y="29"
     inkscape:window-maximized="1"
     inkscape:current-layer="svg8" />
  <path
     style="fill:#5c616c"
     d="m 6,0 v 2 h 6 c 0.43,0 1,0.61 1,1 V 3.9286327 L 12.924231,4 V 4 H 8 C 7.08,4 6.26,4.38 5.75,4.97 5.24,5.55 5,6.28 5,7 5,7.72 5.27,8.45 5.78,9.03 6.29,9.61 7.09,10 8,10 h 7 V 3 C 15,1.37 13.68,0 12,0 Z m 2,6 h 4.90975 L 13,6.0951995 v 0 1.7789707 L 12.891693,8 V 8 H 8 C 7.6,8 7.43,7.89 7.28,7.72 7.13,7.55 7,7.28 7,7 7,6.72 7.1,6.45 7.25,6.28 7.4,6.12 7.58,6 8,6 Z"
     id="path2"
     sodipodi:nodetypes="ccsscccscssscsscsccccccssscs" />
  <path
     style="fill:#5c616c"
     d="M 0.32340505,12.242554 0.37995866,11.715031 3.5491906,9.338107 4,9.5707853 v 0 1.3337147 l 0.091839,0.120179 0.068945,1.940315 -0.124352,0.13199 L 4,14.459634 v 0 l -0.422259,0.223672 z"
     id="path4"
     sodipodi:nodetypes="ccccccccccccc" />
  <path
     style="fill:#5c616c"
     d="M 2,11 V 13 H 15 V 11 Z"
     id="path6" />
</svg>
