<?xml version="1.0" encoding="UTF-8" standalone="no"?>
<svg
   width="16"
   height="16"
   version="1.1"
   id="svg6"
   sodipodi:docname="format-text-strikethrough-symbolic.svg"
   inkscape:version="1.1.2 (0a00cf5339, 2022-02-04)"
   xmlns:inkscape="http://www.inkscape.org/namespaces/inkscape"
   xmlns:sodipodi="http://sodipodi.sourceforge.net/DTD/sodipodi-0.dtd"
   xmlns="http://www.w3.org/2000/svg"
   xmlns:svg="http://www.w3.org/2000/svg">
  <defs
     id="defs10" />
  <sodipodi:namedview
     id="namedview8"
     pagecolor="#ffffff"
     bordercolor="#666666"
     borderopacity="1.0"
     inkscape:pageshadow="2"
     inkscape:pageopacity="0.0"
     inkscape:pagecheckerboard="0"
     showgrid="false"
     inkscape:zoom="146.19433"
     inkscape:cx="7.9962063"
     inkscape:cy="9.0940601"
     inkscape:window-width="1920"
     inkscape:window-height="1051"
     inkscape:window-x="0"
     inkscape:window-y="29"
     inkscape:window-maximized="1"
     inkscape:current-layer="svg6" />
  <path
     style="fill:#5c616c"
     d="m 4,3 v 2 h 6 c 0.43,0 1,0.61 1,1 h 2 C 13,4.37 11.68,3 10,3 Z m -0.9215359,7 c 0,0.02219 -0.078208,0.0444 -0.077697,0.0666 C 3.0168308,10.764801 3.2850205,11.466878 3.7793,12.029 4.2893,12.609 5.09,13 6,13 h 6.895778 L 13,12.868481 v 0 V 10 h -2 v 0.920409 0 L 10.907088,11 H 6 C 5.6,11 5.4293,10.891 5.2793,10.721 5.1293,10.551 5,10.28 5,10 Z"
     id="path2"
     sodipodi:nodetypes="ccsccsccsssccccccccssccc" />
  <path
     style="fill:#5c616c"
     d="M 1,7 V 9 H 15 V 7 Z"
     id="path4" />
</svg>
