<?xml version="1.0" encoding="UTF-8" standalone="no"?>
<svg
   width="16"
   height="16"
   version="1.1"
   id="svg4"
   sodipodi:docname="format-text-bold-symbolic.svg"
   inkscape:version="1.1.2 (0a00cf5339, 2022-02-04)"
   xmlns:inkscape="http://www.inkscape.org/namespaces/inkscape"
   xmlns:sodipodi="http://sodipodi.sourceforge.net/DTD/sodipodi-0.dtd"
   xmlns="http://www.w3.org/2000/svg"
   xmlns:svg="http://www.w3.org/2000/svg">
  <defs
     id="defs8" />
  <sodipodi:namedview
     id="namedview6"
     pagecolor="#ffffff"
     bordercolor="#666666"
     borderopacity="1.0"
     inkscape:pageshadow="2"
     inkscape:pageopacity="0.0"
     inkscape:pagecheckerboard="0"
     showgrid="false"
     inkscape:zoom="103.375"
     inkscape:cx="8"
     inkscape:cy="9.5429262"
     inkscape:window-width="1920"
     inkscape:window-height="1051"
     inkscape:window-x="0"
     inkscape:window-y="29"
     inkscape:window-maximized="1"
     inkscape:current-layer="svg4" />
  <path
     style="fill:#5c616c"
     d="M 14,6 C 14,4.37 12.68,3 11,3 H 4 v 2 h 5 c 0.43,0 1,0.61 1,1 v 0.8622542 0 L 9.8928686,7 H 5 C 4.08,7 3.26,7.38 2.75,7.97 2.24,8.55 1.99,9.28 2,10 2.01,10.72 2.27,11.45 2.78,12.03 3.29,12.61 4.09,13 5,13 h 9 M 7,9 H 9.9128793 L 10,9.1188566 v 0 1.7703904 0 L 9.8987906,11 H 7 C 6.6,11 6.43,10.89 6.28,10.72 6.13,10.55 6,10.28 6,10 6,9.72 6.1,9.45 6.25,9.28 6.4,9.12 6.58,9 7,9 Z"
     id="path2"
     sodipodi:nodetypes="csccsscccscssscsccccccssscs" />
</svg>
