<?xml version="1.0" encoding="UTF-8" standalone="no"?>
<svg
   width="16"
   height="16"
   version="1.1"
   id="svg6"
   sodipodi:docname="go-bottom-symbolic.svg"
   inkscape:version="1.1.2 (0a00cf5339, 2022-02-04)"
   xmlns:inkscape="http://www.inkscape.org/namespaces/inkscape"
   xmlns:sodipodi="http://sodipodi.sourceforge.net/DTD/sodipodi-0.dtd"
   xmlns="http://www.w3.org/2000/svg"
   xmlns:svg="http://www.w3.org/2000/svg">
  <defs
     id="defs10" />
  <sodipodi:namedview
     id="namedview8"
     pagecolor="#ffffff"
     bordercolor="#666666"
     borderopacity="1.0"
     inkscape:pageshadow="2"
     inkscape:pageopacity="0.0"
     inkscape:pagecheckerboard="0"
     showgrid="false"
     inkscape:zoom="48.5625"
     inkscape:cx="7.989704"
     inkscape:cy="7.979408"
     inkscape:window-width="1507"
     inkscape:window-height="980"
     inkscape:window-x="205"
     inkscape:window-y="49"
     inkscape:window-maximized="1"
     inkscape:current-layer="svg6" />
  <path
     style="fill:#444444"
     d="M 10,14 A 2,2 0 0 1 8,16 2,2 0 0 1 6,14 2,2 0 0 1 8,12 2,2 0 0 1 10,14 Z"
     id="path2" />
  <path
     style="fill:#444444"
     d="m 7,0 v 6.5003513 0 L 6.6290634,6.6290634 3.7954567,3.7954567 3.1753322,3.8246678 v 0 l -0.809077,0.809077 -0.013036,0.7194745 v 0 l 5.1380727,5.1380727 0.5704841,0.07716 0.4510637,-0.08129 5.1607392,-5.1607386 v 0 l -0.0021,-0.6549502 -0.83459,-0.8345901 -0.673558,-2.046e-4 v 0 L 9.3714032,6.6285968 v 0 L 9,6.4729466 V 0 Z"
     id="path4"
     sodipodi:nodetypes="cccccccccccccccccccccccc" />
</svg>
