<?xml version="1.0" encoding="UTF-8" standalone="no"?>
<svg
   width="16"
   height="16"
   version="1.1"
   id="svg6"
   sodipodi:docname="go-last-symbolic.svg"
   inkscape:version="1.1.2 (0a00cf5339, 2022-02-04)"
   xmlns:inkscape="http://www.inkscape.org/namespaces/inkscape"
   xmlns:sodipodi="http://sodipodi.sourceforge.net/DTD/sodipodi-0.dtd"
   xmlns="http://www.w3.org/2000/svg"
   xmlns:svg="http://www.w3.org/2000/svg">
  <defs
     id="defs10" />
  <sodipodi:namedview
     id="namedview8"
     pagecolor="#ffffff"
     bordercolor="#666666"
     borderopacity="1.0"
     inkscape:pageshadow="2"
     inkscape:pageopacity="0.0"
     inkscape:pagecheckerboard="0"
     showgrid="false"
     inkscape:zoom="48.5625"
     inkscape:cx="7.989704"
     inkscape:cy="7.979408"
     inkscape:window-width="1507"
     inkscape:window-height="980"
     inkscape:window-x="205"
     inkscape:window-y="49"
     inkscape:window-maximized="1"
     inkscape:current-layer="svg6" />
  <path
     style="fill:#444444"
     d="M 16,8 A 2,2 0 0 1 14,10 2,2 0 0 1 12,8 2,2 0 0 1 14,6 2,2 0 0 1 16,8 Z"
     id="path2" />
  <path
     style="fill:#444444"
     d="m 0,9 h 6.5566482 l 0.1933147,0.2500371 v 0 L 3.8690438,12.130956 v 0 l -0.077861,0.660227 0.8978298,0.89783 0.6846658,-0.06269 v 0 L 10.517273,8.4827273 v 0 L 10.494246,7.4942456 5.4097211,2.4097211 4.615816,2.384184 v 0 L 3.8849177,3.1150823 v 0 L 3.8616332,3.8616332 6.7277857,6.7277857 6.6468187,7 V 7 H 0 Z"
     id="path4"
     sodipodi:nodetypes="cccccccccccccccccccccccc" />
</svg>
