<?xml version="1.0" encoding="UTF-8" standalone="no"?>
<svg
   width="16"
   height="16"
   version="1.1"
   id="svg6"
   sodipodi:docname="go-first-symbolic.svg"
   inkscape:version="1.1.2 (0a00cf5339, 2022-02-04)"
   xmlns:inkscape="http://www.inkscape.org/namespaces/inkscape"
   xmlns:sodipodi="http://sodipodi.sourceforge.net/DTD/sodipodi-0.dtd"
   xmlns="http://www.w3.org/2000/svg"
   xmlns:svg="http://www.w3.org/2000/svg">
  <defs
     id="defs10" />
  <sodipodi:namedview
     id="namedview8"
     pagecolor="#ffffff"
     bordercolor="#666666"
     borderopacity="1.0"
     inkscape:pageshadow="2"
     inkscape:pageopacity="0.0"
     inkscape:pagecheckerboard="0"
     showgrid="false"
     inkscape:zoom="48.5625"
     inkscape:cx="7.989704"
     inkscape:cy="7.979408"
     inkscape:window-width="1507"
     inkscape:window-height="980"
     inkscape:window-x="205"
     inkscape:window-y="49"
     inkscape:window-maximized="1"
     inkscape:current-layer="svg6" />
  <path
     style="fill:#444444"
     d="M 4,8 A 2,2 0 0 1 2,10 2,2 0 0 1 0,8 2,2 0 0 1 2,6 2,2 0 0 1 4,8 Z"
     id="path2" />
  <path
     style="fill:#444444"
     d="M 16,7 H 9.408961 V 7 L 9.2986233,6.7013767 12.184961,3.8150388 v 0 L 12.1306,3.1305998 11.311308,2.3113076 10.639851,2.3601486 v 0 L 5.5374717,7.4625283 v 0 l -0.027675,1.0472687 5.138205,5.138205 0.688952,0.01504 v 0 l 0.838634,-0.838634 -0.05675,-0.705576 v 0 L 9.2583781,9.2583781 9.3866949,9 V 9 H 16 Z"
     id="path4"
     sodipodi:nodetypes="cccccccccccccccccccccccc" />
</svg>
