<?xml version="1.0" encoding="UTF-8" standalone="no"?>
<svg
   width="16"
   height="16"
   version="1.1"
   id="svg8"
   sodipodi:docname="insert-text-symbolic.svg"
   inkscape:version="1.1.2 (0a00cf5339, 2022-02-04)"
   xmlns:inkscape="http://www.inkscape.org/namespaces/inkscape"
   xmlns:sodipodi="http://sodipodi.sourceforge.net/DTD/sodipodi-0.dtd"
   xmlns="http://www.w3.org/2000/svg"
   xmlns:svg="http://www.w3.org/2000/svg">
  <defs
     id="defs12" />
  <sodipodi:namedview
     id="namedview10"
     pagecolor="#ffffff"
     bordercolor="#666666"
     borderopacity="1.0"
     inkscape:pageshadow="2"
     inkscape:pageopacity="0.0"
     inkscape:pagecheckerboard="0"
     showgrid="false"
     inkscape:zoom="94.5"
     inkscape:cx="8.010582"
     inkscape:cy="8.005291"
     inkscape:window-width="1920"
     inkscape:window-height="1051"
     inkscape:window-x="0"
     inkscape:window-y="29"
     inkscape:window-maximized="1"
     inkscape:current-layer="svg8" />
  <path
     style="fill:#5c616c"
     d="m 5.3296084,12.439478 v 0 l 2.3897999,3.1864 0.556774,0.0059 v 0 l 2.4050347,-3.206713 v 0 L 10.374673,12 H 5.5915256 Z"
     id="path2"
     sodipodi:nodetypes="cccccccccc" />
  <path
     style="fill:#5c616c"
     d="M 14,6.5 C 14,5.685 13.34,5 12.5,5 h -3 v 1 h 3 C 12.715,6 13,6.305 13,6.5 V 6.8881426 L 12.884882,7 V 7 H 10.5 C 10.04,7 9.63,7.19 9.375,7.485 9.12,7.775 9,8.14 9,8.5 9,8.86 9.135,9.225 9.39,9.515 9.645,9.805 10.045,10 10.5,10 H 14 M 10.5,8 h 2.41848 L 13,8.1100648 v 0 0.7939208 L 12.887017,9 V 9 L 10.5,9 C 10.3,9 10.215,8.945 10.14,8.86 10.065,8.775 10,8.64 10,8.5 10,8.36 10.05,8.225 10.125,8.14 10.2,8.06 10.29,8 10.5,8 Z"
     id="path4"
     sodipodi:nodetypes="csccsscccscssscsccccccssscs" />
  <path
     style="fill:#5c616c"
     d="M 4.3676,2 1.4559,10 H 2.92 L 3.5965533,8.1199018 v 0 L 3.7575102,8 h 2.3159522 l 0.1597533,0.1256097 v 0 L 6.9154,10 H 8.3713 L 5.4596,2 Z m 0.6597599,2.8125615 v 0 L 5.7649936,6.8392506 5.7058325,7 V 7 H 4.1737196 L 4.0642854,6.8335384 v 0 l 0.7520101,-2.066189 z"
     id="path6"
     sodipodi:nodetypes="ccccccccccccccccccccccc" />
</svg>
