<?xml version="1.0" encoding="UTF-8" standalone="no"?>
<svg
   width="16"
   height="16"
   version="1.1"
   id="svg4"
   sodipodi:docname="location-symbolic.svg"
   inkscape:version="1.1.2 (0a00cf5339, 2022-02-04)"
   xmlns:inkscape="http://www.inkscape.org/namespaces/inkscape"
   xmlns:sodipodi="http://sodipodi.sourceforge.net/DTD/sodipodi-0.dtd"
   xmlns="http://www.w3.org/2000/svg"
   xmlns:svg="http://www.w3.org/2000/svg">
  <defs
     id="defs8" />
  <sodipodi:namedview
     id="namedview6"
     pagecolor="#ffffff"
     bordercolor="#666666"
     borderopacity="1.0"
     inkscape:pageshadow="2"
     inkscape:pageopacity="0.0"
     inkscape:pagecheckerboard="0"
     showgrid="false"
     inkscape:zoom="47.25"
     inkscape:cx="8"
     inkscape:cy="8.010582"
     inkscape:window-width="1920"
     inkscape:window-height="1051"
     inkscape:window-x="0"
     inkscape:window-y="29"
     inkscape:window-maximized="1"
     inkscape:current-layer="svg4" />
  <path
     style="fill:#5c616c"
     d="m 4,2 v 2 h 7 c 1.68,0 3,1.321 3,3 0,1.679 -1.32,3 -3,3 h -0.746636 v 0 L 10,9.7690766 V 8.5975129 L 9.4954744,8.3027153 v 0 l -4.0056548,2.4033927 -0.071848,0.544675 v 0 L 9.4790654,13.687439 10,13.443628 v 0 -1.262305 0 L 10.245009,12 H 11 C 13.75,12.101 16,9.753 16,7 16,4.247 13.75,2 11,2 Z M 2,9 C 0.8954305,9 0,9.8954305 0,11 0,12.104569 0.8954305,13 2,13 3.1045695,13 4,12.104569 4,11 4,9.8954305 3.1045695,9 2,9 Z"
     id="path2"
     sodipodi:nodetypes="ccsssccccccccccccccccsscsssss" />
</svg>
