<?xml version="1.0" encoding="UTF-8" standalone="no"?>
<svg
   width="16"
   height="16"
   version="1.1"
   id="svg4"
   sodipodi:docname="mail-mark-notjunk-symbolic.svg"
   inkscape:version="1.1.2 (0a00cf5339, 2022-02-04)"
   xmlns:inkscape="http://www.inkscape.org/namespaces/inkscape"
   xmlns:sodipodi="http://sodipodi.sourceforge.net/DTD/sodipodi-0.dtd"
   xmlns="http://www.w3.org/2000/svg"
   xmlns:svg="http://www.w3.org/2000/svg">
  <defs
     id="defs8" />
  <sodipodi:namedview
     id="namedview6"
     pagecolor="#ffffff"
     bordercolor="#666666"
     borderopacity="1.0"
     inkscape:pageshadow="2"
     inkscape:pageopacity="0.0"
     inkscape:pagecheckerboard="0"
     showgrid="false"
     inkscape:zoom="47.25"
     inkscape:cx="8"
     inkscape:cy="8"
     inkscape:window-width="1854"
     inkscape:window-height="966"
     inkscape:window-x="0"
     inkscape:window-y="29"
     inkscape:window-maximized="1"
     inkscape:current-layer="svg4" />
  <path
     style="opacity:0.35;fill:#5c616c"
     d="m 4.8517492,1.1482508 v 0 l -3.65098,3.65098 v 0 L 1,5.2747667 v 5.4389453 0 l 0.2689932,0.555281 3.5134523,3.513453 v 0 L 5.2742048,15 h 5.3968332 l 0.508834,-0.179872 v 0 l 3.661157,-3.661157 v 0 L 15,10.713712 v -5.4389453 0 L 14.782251,4.7822511 11.184463,1.1844626 10.734502,1 V 1 H 5.2957589 Z M 7,4.4068875 7.34816,4 H 8.7449661 L 9,4.2799666 v 0 V 7 L 8.7822047,8.7423622 v 0 L 8.5336191,9 H 7.3906689 V 9 L 7.2201775,8.7614197 7,7 Z M 8,9.75 c 0.69,0 1.25,0.56 1.25,1.25 0,0.69 -0.56,1.25 -1.25,1.25 C 7.31,12.25 6.75,11.69 6.75,11 6.75,10.31 7.31,9.75 8,9.75 Z"
     id="path2"
     sodipodi:nodetypes="ccccccccccccccccccccccccccccccccccccccccsssss" />
</svg>
