<?xml version="1.0" encoding="UTF-8" standalone="no"?>
<svg
   width="16"
   height="16"
   version="1.1"
   id="svg1818148"
   sodipodi:docname="mail-reply-rtl-symbolic.svg"
   inkscape:version="1.1.2 (0a00cf5339, 2022-02-04)"
   xmlns:inkscape="http://www.inkscape.org/namespaces/inkscape"
   xmlns:sodipodi="http://sodipodi.sourceforge.net/DTD/sodipodi-0.dtd"
   xmlns="http://www.w3.org/2000/svg"
   xmlns:svg="http://www.w3.org/2000/svg">
  <defs
     id="defs1818152" />
  <sodipodi:namedview
     id="namedview1818150"
     pagecolor="#ffffff"
     bordercolor="#666666"
     borderopacity="1.0"
     inkscape:pageshadow="2"
     inkscape:pageopacity="0.0"
     inkscape:pagecheckerboard="0"
     showgrid="false"
     inkscape:zoom="51.6875"
     inkscape:cx="8.0096735"
     inkscape:cy="8"
     inkscape:window-width="1920"
     inkscape:window-height="1051"
     inkscape:window-x="0"
     inkscape:window-y="29"
     inkscape:window-maximized="1"
     inkscape:current-layer="svg1818148" />
  <path
     style="fill:#5c616c"
     d="m 9,2.113469 v 0 1.636433 L 8.7909448,4 V 4 H 6.5 c -3,0 -5,2.13 -5,5.25 0,2.545662 2.4541135,4.017649 3.5178219,4.536102 0.2943088,0.143447 0,0 0,0 0,0 0.378226,0.06659 0.2249761,-0.176266 C 4.7460611,12.822664 3.7313828,11.031705 4.06,10 4.43,8.87 5.64,8 7,8 H 8.7552205 V 8 L 9,8.2219855 v 1.5913694 l 0.6054895,0.2674601 v 0 L 15.068057,6.2990374 v 0 L 15.064905,5.6987806 9.5801782,1.9016618 Z"
     id="path1818146"
     sodipodi:nodetypes="cccccssscscsccccccccccc" />
</svg>
