<?xml version="1.0" encoding="UTF-8" standalone="no"?>
<svg
   width="16"
   height="16"
   version="1.1"
   id="svg10"
   sodipodi:docname="object-move-symbolic.svg"
   inkscape:version="1.1.2 (0a00cf5339, 2022-02-04)"
   xmlns:inkscape="http://www.inkscape.org/namespaces/inkscape"
   xmlns:sodipodi="http://sodipodi.sourceforge.net/DTD/sodipodi-0.dtd"
   xmlns="http://www.w3.org/2000/svg"
   xmlns:svg="http://www.w3.org/2000/svg">
  <defs
     id="defs14" />
  <sodipodi:namedview
     id="namedview12"
     pagecolor="#ffffff"
     bordercolor="#666666"
     borderopacity="1.0"
     inkscape:pageshadow="2"
     inkscape:pageopacity="0.0"
     inkscape:pagecheckerboard="0"
     showgrid="false"
     inkscape:zoom="133.64318"
     inkscape:cx="8.0063942"
     inkscape:cy="7.404044"
     inkscape:window-width="1920"
     inkscape:window-height="1051"
     inkscape:window-x="0"
     inkscape:window-y="29"
     inkscape:window-maximized="1"
     inkscape:current-layer="svg10" />
  <path
     style="fill:#5c616c"
     d="m 8.2574602,15.19963 -0.520108,-0.0061 -2.4335168,-2.839103 v 0 L 5.5705696,12 h 1.2943131 v 0 L 7,11.88012 V 10 h 2 v 1.874272 L 9.1427373,12 v 0 h 1.3163547 l 0.21269,0.38292 v 0 z"
     id="path2"
     sodipodi:nodetypes="ccccccccccccccccc" />
  <path
     style="fill:#5c616c"
     d="m 7.7311214,0.81369171 v 0 L 5.3961672,3.5378049 v 0 L 5.5496148,4 H 6.8619803 L 7,4.1471358 v 0 V 6 h 2 v -1.8656147 0 L 9.1444554,4 h 1.3996536 l 0.09189,-0.4246631 v 0 L 8.2800911,0.82677289 Z"
     id="path4"
     sodipodi:nodetypes="cccccccccccccccccc" />
  <path
     style="fill:#5c616c"
     d="m 15.214268,7.7550872 v 0 L 12.424064,5.3634831 12,5.4441008 v 0 1.4049631 L 11.842041,7 V 7 H 10 v 2 h 1.867265 V 9 L 12,9.1635623 v 1.3384007 0 l 0.443942,0.117515 2.744583,-2.3524995 z"
     id="path6"
     sodipodi:nodetypes="cccccccccccccccccc" />
  <path
     style="fill:#5c616c"
     d="M 0.75007383,8.214349 0.80122953,7.7418033 3.5724232,5.3664944 v 0 L 4,5.4865148 V 6.9054411 L 4.091416,7 V 7 H 6 V 9 H 4.1094329 V 9 L 4,9.0988847 v 1.4030783 l -0.3568743,0.192145 v 0 z"
     id="path8"
     sodipodi:nodetypes="ccccccccccccccccc" />
</svg>
