<?xml version="1.0" encoding="UTF-8" standalone="no"?>
<svg
   width="16"
   height="16"
   version="1.1"
   id="svg4"
   sodipodi:docname="selection-mode-symbolic.svg"
   inkscape:version="1.1.2 (0a00cf5339, 2022-02-04)"
   xmlns:inkscape="http://www.inkscape.org/namespaces/inkscape"
   xmlns:sodipodi="http://sodipodi.sourceforge.net/DTD/sodipodi-0.dtd"
   xmlns="http://www.w3.org/2000/svg"
   xmlns:svg="http://www.w3.org/2000/svg">
  <defs
     id="defs8" />
  <sodipodi:namedview
     id="namedview6"
     pagecolor="#ffffff"
     bordercolor="#666666"
     borderopacity="1.0"
     inkscape:pageshadow="2"
     inkscape:pageopacity="0.0"
     inkscape:pagecheckerboard="0"
     showgrid="false"
     inkscape:zoom="51.6875"
     inkscape:cx="7.9903265"
     inkscape:cy="8"
     inkscape:window-width="1920"
     inkscape:window-height="1051"
     inkscape:window-x="0"
     inkscape:window-y="29"
     inkscape:window-maximized="1"
     inkscape:current-layer="svg4" />
  <path
     style="fill:#5c616c"
     d="M 8.046875,1.0019531 C 7.6719614,0.9997493 7.2973018,1.0266897 6.9277344,1.0839844 5.4494647,1.3131629 4.0435249,2.0143543 2.953125,3.1484375 0.77232512,5.4166039 0.3755909,8.8740021 1.984375,11.578125 3.5931591,14.282248 6.8215774,15.584249 9.8554688,14.75 12.88936,13.915751 15,11.146501 15,8 15,7.4477153 14.552285,7 14,7 13.447715,7 13,7.4477153 13,8 13,10.255582 11.501029,12.222278 9.3261719,12.820312 7.151315,13.418347 4.8563883,12.495102 3.703125,10.556641 2.5498617,8.618179 2.8331694,6.1611003 4.3964844,4.5351562 5.9597994,2.9092122 8.4044748,2.5291983 10.386719,3.6054688 10.871624,3.8688513 11.478226,3.6896677 11.742188,3.2050781 12.006592,2.7192022 11.82631,2.110972 11.339844,1.8476562 10.302894,1.2846387 9.1716157,1.0085646 8.046875,1.0019531 Z M 15,2 c -0.265201,4.01e-5 -0.519526,0.1054233 -0.707031,0.2929688 L 8.3561371,8.2298004 v 0 L 7.9533053,8.1255698 6.8320312,6.4453125 C 6.5256781,5.9858057 5.9048333,5.8616368 5.4453125,6.1679688 4.9858057,6.4743219 4.8616368,7.0951667 5.1679688,7.5546875 l 2.4541575,3.6830275 0.5679005,-0.01368 v 0 L 15.707031,3.7070312 c 0.390424,-0.390507 0.390424,-1.0235554 0,-1.4140624 C 15.519526,2.1054233 15.265201,2.0000401 15,2 Z"
     id="path2"
     sodipodi:nodetypes="ssssssssssscccsccccccccccccsc" />
</svg>
