<?xml version="1.0" encoding="UTF-8" standalone="no"?>
<svg
   width="16"
   height="16"
   version="1.1"
   id="svg51"
   sodipodi:docname="emblem-system-symbolic.svg"
   inkscape:version="1.1.2 (0a00cf5339, 2022-02-04)"
   xmlns:inkscape="http://www.inkscape.org/namespaces/inkscape"
   xmlns:sodipodi="http://sodipodi.sourceforge.net/DTD/sodipodi-0.dtd"
   xmlns="http://www.w3.org/2000/svg"
   xmlns:svg="http://www.w3.org/2000/svg">
  <defs
     id="defs55" />
  <sodipodi:namedview
     id="namedview53"
     pagecolor="#000000"
     bordercolor="#666666"
     borderopacity="1.0"
     inkscape:pageshadow="2"
     inkscape:pageopacity="0"
     inkscape:pagecheckerboard="0"
     showgrid="false"
     inkscape:zoom="52.5625"
     inkscape:cx="7.9904875"
     inkscape:cy="8"
     inkscape:window-width="1920"
     inkscape:window-height="1051"
     inkscape:window-x="0"
     inkscape:window-y="29"
     inkscape:window-maximized="1"
     inkscape:current-layer="svg51" />
  <path
     style="fill:#5c616c"
     d="m 6.2293258,1.2536032 v 0 L 6.1,2.84 C 5.5144441,3.0563849 4.9699996,3.3708777 4.49,3.77 L 3.118247,3.1249495 2.6324121,3.2884956 v 0 L 1.2266723,5.7304664 v 0 L 1.3408304,6.2139947 2.58,7.07 C 2.5270281,7.377173 2.5002651,7.6882931 2.5,8 2.5002651,8.3117069 2.527028,8.622827 2.58,8.93 L 1.3600519,9.7727273 v 0 l -0.1247672,0.5117677 1.4154869,2.458902 v 0 L 3.1196886,12.873501 4.48,12.23 c 0.4837548,0.396558 1.0316126,0.707687 1.62,0.92 L 6.214444,14.561476 6.5583685,15 v 0 h 2.8715733 l 0.3485287,-0.349238 v 0 L 9.9,13.16 c 0.585556,-0.216385 1.13,-0.530878 1.61,-0.93 l 1.438776,0.676567 v 0 l 0.404764,-0.17066 1.448807,-2.516783 -0.08521,-0.393076 v 0 L 13.42,8.93 C 13.472972,8.622827 13.499735,8.3117069 13.5,8 13.499735,7.6882931 13.472972,7.377173 13.42,7.07 l 1.303292,-0.9003004 v 0 l 0.02484,-0.4829935 -1.409169,-2.4479282 v 0 L 12.949692,3.0936785 11.52,3.77 C 11.036245,3.3734424 10.488387,3.0623132 9.9,2.85 L 9.7720076,1.2714276 v 0 L 9.5293979,1 H 6.5976539 Z M 8,6 c 1.1045695,0 2,0.8954305 2,2 0,1.1045695 -0.8954305,2 -2,2 C 6.8954305,10 6,9.1045695 6,8 6,6.8954305 6.8954305,6 8,6 Z"
     id="path49"
     sodipodi:nodetypes="cccccccccccccccccccccccccccccccccccccccccccccccccccsssss" />
</svg>
