<?xml version="1.0" encoding="UTF-8" standalone="no"?>
<svg
   width="16"
   height="16"
   version="1.1"
   id="svg8"
   sodipodi:docname="tools-check-spelling-symbolic.svg"
   inkscape:version="1.1.2 (0a00cf5339, 2022-02-04)"
   xmlns:inkscape="http://www.inkscape.org/namespaces/inkscape"
   xmlns:sodipodi="http://sodipodi.sourceforge.net/DTD/sodipodi-0.dtd"
   xmlns="http://www.w3.org/2000/svg"
   xmlns:svg="http://www.w3.org/2000/svg">
  <defs
     id="defs12" />
  <sodipodi:namedview
     id="namedview10"
     pagecolor="#ffffff"
     bordercolor="#666666"
     borderopacity="1.0"
     inkscape:pageshadow="2"
     inkscape:pageopacity="0.0"
     inkscape:pagecheckerboard="0"
     showgrid="false"
     inkscape:zoom="47.25"
     inkscape:cx="8.010582"
     inkscape:cy="7.989418"
     inkscape:window-width="759"
     inkscape:window-height="863"
     inkscape:window-x="765"
     inkscape:window-y="31"
     inkscape:window-maximized="1"
     inkscape:current-layer="svg8" />
  <path
     style="fill:#5c616c"
     d="m 2.7865409,11.506412 v 0 L 0.64648,13.646 c -0.47612893,0.471339 0.23502186,1.183476 0.70702,0.708 l 1.4522663,-1.452707 0.3876959,-8.31e-4 v 0 l 1.5132307,1.513231 0.5435531,0.04306 v 0 l 1.6084423,-1.608442 v 0 l 0.3028147,0.02019 1.5871937,1.587194 0.4698303,0.03278 v 0 l 1.587193,-1.587193 0.387705,-8.55e-4 v 0 l 1.619067,1.619067 0.36344,0.01165 v 0 L 15.354,12.354 c 0.472,-0.472 -0.236,-1.18 -0.708,-0.708 l -1.478759,1.479657 v 0 l -0.335812,-0.0012 -1.608421,-1.608421 v 0 l -0.478802,0.03279 -1.5448773,1.544877 v 0 L 8.789384,13.082384 7.2125747,11.505575 v 0 l -0.3744974,-0.05065 v 0 L 6.7654217,11.527578 5.1994566,13.093543 5,13.293 5.1994566,13.093543 4.7999376,13.092938 3.2233692,11.516369 Z"
     id="path2"
     sodipodi:nodetypes="cccccccccccccccccccccccccccccccccccccccccccc" />
  <path
     style="fill:#5c616c"
     d="m 8,2 v 8.770482 0 L 8.18193,11 11,11 C 12.662,11 14,9.662 14,8 14,6.338 12.662,5 11,5 H 10.162946 V 5 L 10,4.7997905 V 2 Z m 2.181555,5 V 7 H 11 c 0.554,0 1,0.446 1,1 0,0.554 -0.446,1 -1,1 H 10.203724 L 10,8.7411715 v 0 -1.6028691 z"
     id="path4"
     sodipodi:nodetypes="ccccssscccccccsssccccc" />
  <path
     style="fill:#5c616c"
     d="M 2,3 V 5 H 4.8120259 L 5,5.1489639 v 0 0.6302936 L 4.7415868,6 V 6 H 4 C 2.338,6 1,7.115 1,8.5 1,9.885 2.338,11 4,11 h 2.7929429 v 0 L 7,10.786401 7,5 C 7,3.892 6.108,3 5,3 Z M 3.5,8 H 4.8309591 L 5,8.1446546 v 0 0.5635915 L 4.7596442,9 V 9 H 3.5 C 3.223,9 3,8.777 3,8.5 3,8.223 3.223,8 3.5,8 Z"
     id="path6"
     sodipodi:nodetypes="ccccccccssscccsscsccccccsss" />
</svg>
