<?xml version="1.0" encoding="UTF-8" standalone="no"?>
<svg
   width="16"
   height="16"
   version="1.1"
   id="svg1722643"
   sodipodi:docname="twitter-home-symbolic.svg"
   inkscape:version="1.1.2 (0a00cf5339, 2022-02-04)"
   xmlns:inkscape="http://www.inkscape.org/namespaces/inkscape"
   xmlns:sodipodi="http://sodipodi.sourceforge.net/DTD/sodipodi-0.dtd"
   xmlns="http://www.w3.org/2000/svg"
   xmlns:svg="http://www.w3.org/2000/svg">
  <defs
     id="defs1722647" />
  <sodipodi:namedview
     id="namedview1722645"
     pagecolor="#ffffff"
     bordercolor="#666666"
     borderopacity="1.0"
     inkscape:pageshadow="2"
     inkscape:pageopacity="0.0"
     inkscape:pagecheckerboard="0"
     showgrid="false"
     inkscape:zoom="51.6875"
     inkscape:cx="8.0096735"
     inkscape:cy="7.980653"
     inkscape:window-width="1920"
     inkscape:window-height="1051"
     inkscape:window-x="0"
     inkscape:window-y="29"
     inkscape:window-maximized="1"
     inkscape:current-layer="svg1722643" />
  <path
     style="fill:#5c616c"
     d="m 7.7848166,0.96008624 v 0 L 0.26102033,8.3056626 0.24236672,8.8068543 v 0 L 1.3166967,9.8988601 v 0 l 0.4217528,0.020745 0.5960004,-0.5046627 v 0 l 0.3871581,0.081551 v 0 0 L 3.5,15 h 9 l 0.786983,-5.5649199 v 0 l 0.428507,0.022347 v 0 l 0.526236,0.445745 v 0 L 14.7117,9.8695656 15.805743,8.757888 v 0 L 15.782888,8.3485306 8.2466782,0.99083499 Z M 8,7 c 1.6568542,0 3,1.3431458 3,3 0,1.656854 -1.3431458,3 -3,3 C 6.3431458,13 5,11.656854 5,10 5,8.3431458 6.3431458,7 8,7 Z"
     id="path1722641"
     sodipodi:nodetypes="cccccccccccccccccccccccccccsssss" />
</svg>
