<?xml version="1.0" encoding="UTF-8" standalone="no"?>
<svg
   width="16"
   height="16"
   version="1.1"
   id="svg1177676"
   sodipodi:docname="xapp-prefs-display-symbolic.svg"
   inkscape:version="1.1.2 (0a00cf5339, 2022-02-04)"
   xmlns:inkscape="http://www.inkscape.org/namespaces/inkscape"
   xmlns:sodipodi="http://sodipodi.sourceforge.net/DTD/sodipodi-0.dtd"
   xmlns="http://www.w3.org/2000/svg"
   xmlns:svg="http://www.w3.org/2000/svg">
  <defs
     id="defs1177680" />
  <sodipodi:namedview
     id="namedview1177678"
     pagecolor="#ffffff"
     bordercolor="#666666"
     borderopacity="1.0"
     inkscape:pageshadow="2"
     inkscape:pageopacity="0.0"
     inkscape:pagecheckerboard="0"
     showgrid="false"
     inkscape:zoom="51.6875"
     inkscape:cx="7.9903265"
     inkscape:cy="8"
     inkscape:window-width="1920"
     inkscape:window-height="1051"
     inkscape:window-x="0"
     inkscape:window-y="29"
     inkscape:window-maximized="1"
     inkscape:current-layer="svg1177676" />
  <path
     style="fill:#5c616c"
     d="M 8,3 C 2.8152328,3 0.61733344,6.7335849 0.11578414,7.7481652 0.03692247,7.9076938 0.08822853,8.1953393 0.08822853,8.1953393 c 0,0 -0.05994044,-0.1246191 0,0 C 0.53229113,9.1185671 2.7135724,13 8,13 c 5.335532,0 7.507964,-3.9538752 7.923697,-4.8296164 0.05177,-0.1090617 0,0 0,0 0,0 0.04456,-0.2497486 -0.02294,-0.3884805 C 15.432556,6.8194842 13.244072,3 8,3 Z m 0,2 c 1.6568542,0 3,1.3431458 3,3 0,1.6568542 -1.3431458,3 -3,3 C 6.3431458,11 5,9.6568542 5,8 5,6.3431458 6.3431458,5 8,5 Z M 8,7 C 7.4477153,7 7,7.4477153 7,8 7,8.5522847 7.4477153,9 8,9 8.5522847,9 9,8.5522847 9,8 9,7.4477153 8.5522847,7 8,7 Z"
     id="path1177674"
     sodipodi:nodetypes="sscssscssssssssssss" />
</svg>
