<?xml version="1.0" encoding="UTF-8" standalone="no"?>
<svg
   width="16"
   height="16"
   version="1.1"
   id="svg6"
   sodipodi:docname="view-refresh-symbolic.svg"
   inkscape:version="1.1.2 (0a00cf5339, 2022-02-04)"
   xmlns:inkscape="http://www.inkscape.org/namespaces/inkscape"
   xmlns:sodipodi="http://sodipodi.sourceforge.net/DTD/sodipodi-0.dtd"
   xmlns="http://www.w3.org/2000/svg"
   xmlns:svg="http://www.w3.org/2000/svg">
  <defs
     id="defs10" />
  <sodipodi:namedview
     id="namedview8"
     pagecolor="#ffffff"
     bordercolor="#666666"
     borderopacity="1.0"
     inkscape:pageshadow="2"
     inkscape:pageopacity="0.0"
     inkscape:pagecheckerboard="0"
     showgrid="false"
     inkscape:zoom="47.25"
     inkscape:cx="8.010582"
     inkscape:cy="7.9470899"
     inkscape:window-width="1920"
     inkscape:window-height="1051"
     inkscape:window-x="0"
     inkscape:window-y="29"
     inkscape:window-maximized="1"
     inkscape:current-layer="svg6" />
  <path
     style="fill:#5c616c"
     d="M 8,1 C 4.13,1 1,4.134 1,8 1,11.866 4.13,15 8,15 11.18,15 13.86,12.897 14.72,10 H 12.56 C 11.79,11.76 10.05,13 8,13 5.24,13 3,10.761 3,8 3,5.239 5.24,3 8,3 10.05,3 11.79,4.24 12.56,6 H 14.72 C 13.86,3.103 11.18,1 8,1 Z"
     id="path2" />
  <path
     style="fill:#5c616c"
     d="M 10.20312,7 9.8494169,6.1505831 v 0 L 14.124679,1.8753207 v 0 l 0.390947,-0.086659 -0.390947,0.086659 0.390947,-0.086659 L 15,1.9837317 v 0 4.5396754 0 L 14.565065,7 Z"
     id="path4"
     sodipodi:nodetypes="ccccccccccccccc" />
</svg>
