<?xml version="1.0" encoding="UTF-8" standalone="no"?>
<svg
   width="16"
   height="16"
   version="1.1"
   id="svg4"
   sodipodi:docname="window-close-symbolic.svg"
   inkscape:version="1.1.2 (0a00cf5339, 2022-02-04)"
   xmlns:inkscape="http://www.inkscape.org/namespaces/inkscape"
   xmlns:sodipodi="http://sodipodi.sourceforge.net/DTD/sodipodi-0.dtd"
   xmlns="http://www.w3.org/2000/svg"
   xmlns:svg="http://www.w3.org/2000/svg">
  <defs
     id="defs8" />
  <sodipodi:namedview
     id="namedview6"
     pagecolor="#ffffff"
     bordercolor="#666666"
     borderopacity="1.0"
     inkscape:pageshadow="2"
     inkscape:pageopacity="0.0"
     inkscape:pagecheckerboard="0"
     showgrid="false"
     inkscape:zoom="51.6875"
     inkscape:cx="7.9903265"
     inkscape:cy="8"
     inkscape:window-width="1920"
     inkscape:window-height="1051"
     inkscape:window-x="0"
     inkscape:window-y="29"
     inkscape:window-maximized="1"
     inkscape:current-layer="svg4" />
  <path
     style="fill:#5c616c"
     d="M 5,4 C 4.4477153,4 4,4.4477153 4,5 3.9984632,5.265803 4.1028135,5.5212812 4.29,5.71 l 2.1792473,2.1697723 0.013011,0.2275007 v 0 L 4.29,10.29 C 4.1028135,10.478719 3.9984632,10.734197 4,11 c 0,0.552285 0.4477153,1 1,1 0.265803,0.0015 0.5212812,-0.102813 0.71,-0.29 L 7.8849234,9.5255791 v 0 L 8.1320592,9.5426384 10.28,11.7 c 0.189498,0.193336 0.449286,0.301581 0.72,0.3 0.552285,0 1,-0.447715 1,-1 0.0015,-0.265803 -0.102813,-0.521281 -0.29,-0.71 L 9.5771049,8.1663784 9.5260891,7.8844178 v 0 L 11.7,5.72 C 11.893336,5.5305017 12.001581,5.2707138 12,5 12,4.4477153 11.552285,4 11,4 10.734197,3.9984632 10.478719,4.1028135 10.29,4.29 L 8.1369269,6.4524752 v 0 L 7.8719163,6.4613545 5.72,4.3 C 5.7166903,4.2966431 5.7133569,4.2933097 5.71,4.29 5.5212812,4.1028135 5.265803,3.9984632 5,4 Z"
     id="path2"
     sodipodi:nodetypes="cccccccccccccccccccccccccccccc" />
</svg>
