<?xml version="1.0" encoding="UTF-8" standalone="no"?>
<svg
   width="16"
   height="16"
   version="1.1"
   id="svg4"
   sodipodi:docname="xapp-prefs-plugins-symbolic.svg"
   inkscape:version="1.1.2 (0a00cf5339, 2022-02-04)"
   xmlns:inkscape="http://www.inkscape.org/namespaces/inkscape"
   xmlns:sodipodi="http://sodipodi.sourceforge.net/DTD/sodipodi-0.dtd"
   xmlns="http://www.w3.org/2000/svg"
   xmlns:svg="http://www.w3.org/2000/svg">
  <defs
     id="defs8" />
  <sodipodi:namedview
     id="namedview6"
     pagecolor="#ffffff"
     bordercolor="#666666"
     borderopacity="1.0"
     inkscape:pageshadow="2"
     inkscape:pageopacity="0.0"
     inkscape:pagecheckerboard="0"
     showgrid="false"
     inkscape:zoom="47.25"
     inkscape:cx="8"
     inkscape:cy="8"
     inkscape:window-width="1854"
     inkscape:window-height="966"
     inkscape:window-x="0"
     inkscape:window-y="29"
     inkscape:window-maximized="1"
     inkscape:current-layer="svg4" />
  <path
     style="fill:#5c616c"
     d="M 6.5,1 C 5.67,1 5,1.67 5,2.5 V 4 H 2 C 1.45,4 1,4.45 1,5 V 7.7720482 L 1.2322694,8 V 8 H 2.5 C 3.33,8 4,8.67 4,9.5 4,10.33 3.33,11 2.5,11 H 1.2322694 L 1,11.242923 v 0 V 14 c 0,0.55 0.45,1 1,1 H 4.7664931 L 5,14.734682 v 0 V 13.5 C 5,12.67 5.67,12 6.5,12 7.33,12 8,12.67 8,13.5 v 1.277096 L 8.1737907,15 v 0 H 11 c 0.55,0 1,-0.45 1,-1 v -3 h 1.5 C 14.33,11 15,10.33 15,9.5 15,8.67 14.33,8 13.5,8 H 12 V 5 C 12,4.45 11.55,4 11,4 H 8 V 2.5 C 8,1.67 7.33,1 6.5,1 Z"
     id="path2"
     sodipodi:nodetypes="sscsscccssscccsscccssscccsscssscsscss" />
</svg>
