<?xml version="1.0" encoding="UTF-8" standalone="no"?>
<svg
   width="16"
   height="16"
   version="1.1"
   id="svg1629969"
   sodipodi:docname="xapp-go-history-next-symbolic-rtl.svg"
   inkscape:version="1.1.2 (0a00cf5339, 2022-02-04)"
   xmlns:inkscape="http://www.inkscape.org/namespaces/inkscape"
   xmlns:sodipodi="http://sodipodi.sourceforge.net/DTD/sodipodi-0.dtd"
   xmlns="http://www.w3.org/2000/svg"
   xmlns:svg="http://www.w3.org/2000/svg">
  <defs
     id="defs1629973" />
  <sodipodi:namedview
     id="namedview1629971"
     pagecolor="#ffffff"
     bordercolor="#666666"
     borderopacity="1.0"
     inkscape:pageshadow="2"
     inkscape:pageopacity="0.0"
     inkscape:pagecheckerboard="0"
     showgrid="false"
     inkscape:zoom="51.6875"
     inkscape:cx="8.0096735"
     inkscape:cy="8"
     inkscape:window-width="1920"
     inkscape:window-height="1051"
     inkscape:window-x="0"
     inkscape:window-y="29"
     inkscape:window-maximized="1"
     inkscape:current-layer="svg1629969" />
  <path
     style="fill:#5c616c"
     d="M 2,13.5 C 2,14.328427 2.6715729,15 3.5,15 4.3284271,15 5,14.328427 5,13.5 5,12.671573 4.3284271,12 3.5,12 2.6715729,12 2,12.671573 2,13.5 Z M 2.3566683,6.2547631 v 0 l 6.2447888,4.4605629 v 0 L 9,10.558041 V 8.2533371 L 9.1600134,8 V 8 H 13 V 4 H 9.2542286 V 4 L 9,3.7778362 9,1.4225212 8.6369785,1.2593011 v 0 L 2.4039941,5.7114328 Z M 6,13.5 C 6,14.328427 6.6715729,15 7.5,15 8.3284271,15 9,14.328427 9,13.5 9,12.671573 8.3284271,12 7.5,12 6.6715729,12 6,12.671573 6,13.5 Z m 4,0 C 10,14.328427 10.671573,15 11.5,15 12.328427,15 13,14.328427 13,13.5 13,12.671573 12.328427,12 11.5,12 10.671573,12 10,12.671573 10,13.5 Z"
     id="path1629967"
     sodipodi:nodetypes="sssssccccccccccccccccccssssssssss" />
</svg>
