<?xml version="1.0" encoding="UTF-8" standalone="no"?>
<svg
   width="16"
   height="16"
   version="1.1"
   id="svg6"
   sodipodi:docname="xfsm-switch-user-symbolic.svg"
   inkscape:version="1.1.2 (0a00cf5339, 2022-02-04)"
   xmlns:inkscape="http://www.inkscape.org/namespaces/inkscape"
   xmlns:sodipodi="http://sodipodi.sourceforge.net/DTD/sodipodi-0.dtd"
   xmlns="http://www.w3.org/2000/svg"
   xmlns:svg="http://www.w3.org/2000/svg">
  <defs
     id="defs10" />
  <sodipodi:namedview
     id="namedview8"
     pagecolor="#ffffff"
     bordercolor="#666666"
     borderopacity="1.0"
     inkscape:pageshadow="2"
     inkscape:pageopacity="0.0"
     inkscape:pagecheckerboard="0"
     showgrid="false"
     inkscape:zoom="103.375"
     inkscape:cx="7.9903265"
     inkscape:cy="6.4474002"
     inkscape:window-width="1920"
     inkscape:window-height="1051"
     inkscape:window-x="0"
     inkscape:window-y="29"
     inkscape:window-maximized="1"
     inkscape:current-layer="svg6" />
  <path
     style="fill:#5c616c"
     d="M 10 2 C 8.34 2 7 3.34 7 5 C 7 6.65 8.34 8 10 8 C 11.66 8 13 6.65 13 5 C 13 3.34 11.66 2 10 2 z M 10 10 C 4.723 10 4 14 4 14 L 4 15 L 16 15 L 16 14 C 16 14 16 10 10 10 z"
     id="path2" />
  <path
     style="opacity:0.35;fill:#5c616c"
     d="m 5,3.9492188 c -1.43,0 -2.5898438,1.1314843 -2.5898438,2.5214843 C 2.4101562,7.8707031 3.57,9 5,9 5.8864361,9 6.6611782,8.5637405 7.127996,7.905761 7.1456715,7.8808473 7.092621,7.7835871 7.109403,7.7580494 c -0.023726,-0.023726 0.023128,0.024291 0,0 C 6.4209313,7.0349641 6,6.0642481 6,5 6,4.7546015 6.0231035,4.5164641 6.0624734,4.2863241 c 0.00555,-0.03245 -0.00618,0.03213 0,0 C 6.0249236,4.2692612 6.0045918,4.1561006 5.9662686,4.1406292 5.6676925,4.0200919 5.3456364,3.9492188 5,3.9492188 Z M 5,10 c -5,0 -5,3 -5,3 v 0.866047 L 0.10312329,14 v 0 L 2.859055,14 v 0 c 0,0 0.1412577,-0.04544 0.1476398,-0.127446 0.028272,-0.363282 0.1756436,-1.444216 0.942524,-2.472163 0.331619,-0.448134 0.8010372,-0.880919 1.3916541,-1.25384 0.04367,-0.02757 0.025175,-0.04053 0.024786,-0.0571 -2.204e-4,-0.0094 -0.033231,-0.02925 -0.00738,-0.04424 -0.021489,-0.0012 0.00602,0.0046 0,0 -0.017269,-0.01329 0.00685,-0.0357 -0.054642,-0.03834 C 5.2068951,10.002719 5.1076816,10 5,10 Z"
     id="path4"
     sodipodi:nodetypes="sssscssscsssccccccscsscsss" />
</svg>
