<?xml version="1.0" encoding="UTF-8" standalone="no"?>
<svg
   width="16"
   height="16"
   version="1.1"
   id="svg4"
   sodipodi:docname="xfsm-reboot-symbolic.svg"
   inkscape:version="1.1.2 (0a00cf5339, 2022-02-04)"
   xmlns:inkscape="http://www.inkscape.org/namespaces/inkscape"
   xmlns:sodipodi="http://sodipodi.sourceforge.net/DTD/sodipodi-0.dtd"
   xmlns="http://www.w3.org/2000/svg"
   xmlns:svg="http://www.w3.org/2000/svg">
  <defs
     id="defs8" />
  <sodipodi:namedview
     id="namedview6"
     pagecolor="#ffffff"
     bordercolor="#666666"
     borderopacity="1.0"
     inkscape:pageshadow="2"
     inkscape:pageopacity="0.0"
     inkscape:pagecheckerboard="0"
     showgrid="false"
     inkscape:zoom="47.25"
     inkscape:cx="8"
     inkscape:cy="8"
     inkscape:window-width="1880"
     inkscape:window-height="966"
     inkscape:window-x="0"
     inkscape:window-y="29"
     inkscape:window-maximized="1"
     inkscape:current-layer="svg4" />
  <path
     style="fill:#5c616c"
     d="M 8,2 C 7.4477153,2 7,2.4477153 7,3 c 0,0.5522847 0.4477153,1 1,1 2.209139,0 4,1.790861 4,4 H 10.544157 V 8 L 10.320086,8.4267808 12.725018,11.633357 13,11.767045 13.266626,11.644499 15.740125,8.3464997 15.602015,8 V 8 H 14 C 14,4.6862915 11.313708,2 8,2 Z M 2.7750682,4.2999091 v 0 L 0.33216673,7.557111 0.51282965,8 V 8 H 2 c 0,3.313708 2.6862915,6 6,6 0.5522847,0 1,-0.447715 1,-1 C 9,12.447715 8.5522847,12 8,12 5.790861,12 4,10.209139 4,8 H 5.5494391 V 8 L 5.6800705,7.5734274 3.2371092,4.3161456 Z"
     id="path2"
     sodipodi:nodetypes="ssscccccccccccsccccccssscccccc" />
</svg>
