<?xml version="1.0" encoding="UTF-8" standalone="no"?>
<svg
   width="16"
   height="16"
   version="1.1"
   id="svg6"
   sodipodi:docname="xfsm-logout-symbolic.svg"
   inkscape:version="1.1.2 (0a00cf5339, 2022-02-04)"
   xmlns:inkscape="http://www.inkscape.org/namespaces/inkscape"
   xmlns:sodipodi="http://sodipodi.sourceforge.net/DTD/sodipodi-0.dtd"
   xmlns="http://www.w3.org/2000/svg"
   xmlns:svg="http://www.w3.org/2000/svg">
  <defs
     id="defs10" />
  <sodipodi:namedview
     id="namedview8"
     pagecolor="#ffffff"
     bordercolor="#666666"
     borderopacity="1.0"
     inkscape:pageshadow="2"
     inkscape:pageopacity="0.0"
     inkscape:pagecheckerboard="0"
     showgrid="false"
     inkscape:zoom="47.25"
     inkscape:cx="8"
     inkscape:cy="8"
     inkscape:window-width="1880"
     inkscape:window-height="966"
     inkscape:window-x="0"
     inkscape:window-y="29"
     inkscape:window-maximized="1"
     inkscape:current-layer="svg6" />
  <path
     style="fill:#5c616c"
     d="m 12,5.4016869 0.327649,-0.1559499 3.349022,2.5117663 v 0 l 0.03234,0.4607389 -3.321513,2.4911348 v 0 L 12,10.544378 V 9 H 8 V 7 h 4 z"
     id="path2"
     sodipodi:nodetypes="ccccccccccccc" />
  <path
     style="fill:#5c616c"
     d="M 8,2 A 6,6 0 0 0 2,8 6,6 0 0 0 8,14 6,6 0 0 0 12.24,12.24 L 10.826,10.826 A 4,4 0 0 1 8,12 4,4 0 0 1 4,8 4,4 0 0 1 8,4 4,4 0 0 1 10.826,5.1738 L 12.24,3.7598 A 6,6 0 0 0 8,2 Z"
     id="path4" />
</svg>
