<?xml version="1.0" encoding="UTF-8" standalone="no"?>
<svg
   width="16"
   height="16"
   version="1.1"
   id="svg6283"
   sodipodi:docname="ymuse-random-symbolic.svg"
   inkscape:version="1.1.2 (0a00cf5339, 2022-02-04)"
   xmlns:inkscape="http://www.inkscape.org/namespaces/inkscape"
   xmlns:sodipodi="http://sodipodi.sourceforge.net/DTD/sodipodi-0.dtd"
   xmlns="http://www.w3.org/2000/svg"
   xmlns:svg="http://www.w3.org/2000/svg">
  <defs
     id="defs6287" />
  <sodipodi:namedview
     id="namedview6285"
     pagecolor="#ffffff"
     bordercolor="#666666"
     borderopacity="1.0"
     inkscape:pageshadow="2"
     inkscape:pageopacity="0.0"
     inkscape:pagecheckerboard="0"
     showgrid="false"
     inkscape:zoom="51.6875"
     inkscape:cx="8.0096735"
     inkscape:cy="8"
     inkscape:window-width="1920"
     inkscape:window-height="1051"
     inkscape:window-x="0"
     inkscape:window-y="29"
     inkscape:window-maximized="1"
     inkscape:current-layer="svg6283" />
  <path
     style="fill:#5c616c"
     d="m 1,3 v 2 h 4.2920465 v 0 l 0.2914769,0.1670467 0.8137092,1.6274184 0.1900192,0.031031 v 0 L 7.5,5 6.5867584,3.1735169 v 0 L 6.3232599,3 Z m 10,6.3521659 v 0 1.4859631 0 L 10.874903,11 H 10.5 L 9.6269852,9.2539705 9.3947081,9.2105837 v 0 L 8.5,11 l 1,2 h 1.337787 L 11,13.151544 v 0 1.434384 l 0.331041,0.165791 v 0 l 3.471005,-2.603253 v 0 l -0.02228,-0.313639 -3.460832,-2.5956239 z m 0,-7.9812198 v 0 1.4597762 L 10.866453,3 V 3 H 9.7362289 V 3 L 9.4247175,3.1505649 5.5815386,10.836923 5.3212466,11 c -0.051967,0 0.06692,0 0,0 C 4.4520099,11 2.3927744,11 1,11 v 2 h 5.301106 l 0.2664657,-0.135143 v 0 L 10.5,5 h 0.360032 V 5 L 11,5.140158 v 1.4386891 l 0.352674,0.1566476 v 0 l 3.445527,-2.5841451 v 0 l -0.05136,-0.34122 -3.411332,-2.5584993 z"
     id="path6281"
     sodipodi:nodetypes="cccccccccccccccccccccccccccccccccccccccccccccsccccccccccccccccc" />
</svg>
