<?xml version="1.0" encoding="UTF-8" standalone="no"?>
<svg
   width="16"
   height="16"
   version="1.1"
   id="svg4"
   sodipodi:docname="ymuse-delete-track-symbolic.svg"
   inkscape:version="1.1.2 (0a00cf5339, 2022-02-04)"
   xmlns:inkscape="http://www.inkscape.org/namespaces/inkscape"
   xmlns:sodipodi="http://sodipodi.sourceforge.net/DTD/sodipodi-0.dtd"
   xmlns="http://www.w3.org/2000/svg"
   xmlns:svg="http://www.w3.org/2000/svg">
  <defs
     id="defs8" />
  <sodipodi:namedview
     id="namedview6"
     pagecolor="#ffffff"
     bordercolor="#666666"
     borderopacity="1.0"
     inkscape:pageshadow="2"
     inkscape:pageopacity="0.0"
     inkscape:pagecheckerboard="0"
     showgrid="false"
     inkscape:zoom="51.6875"
     inkscape:cx="7.9903265"
     inkscape:cy="8"
     inkscape:window-width="1920"
     inkscape:window-height="1051"
     inkscape:window-x="0"
     inkscape:window-y="29"
     inkscape:window-maximized="1"
     inkscape:current-layer="svg4" />
  <path
     id="path2"
     style="fill:#5c616c"
     d="M 3 1 C 3 1 2 1 2 2 L 2 11 L 2 14 C 2 15 3 15 3 15 L 8 15 L 8 13 L 4 13 L 4 3.0097656 L 12 3.0097656 L 12 9 L 14 9 L 14 2 C 14 1 13 1 13 1 L 3 1 z M 7 4 L 7 6.9570312 L 7 7.0859375 C 6.8394217 7.0291099 6.6703372 7.0000485 6.5 7 C 5.6715729 7 5 7.6715729 5 8.5 C 5 9.3284271 5.6715729 10 6.5 10 C 7.3284271 10 8 9.3284271 8 8.5 L 8 5 L 9 5 L 9 4 L 8 4 L 7 4 z M 9.296875 10 L 9 10.277344 L 9 11 C 9 11.28 9.1090625 11.530932 9.2890625 11.710938 L 10.589844 13 L 9.2890625 14.289062 C 9.1090625 14.469062 9 14.72 9 15 L 9 15.664062 L 9.2910156 16 L 10 16 C 10.28 16 10.530935 15.890937 10.710938 15.710938 L 12 14.410156 L 13.289062 15.710938 C 13.469062 15.890935 13.72 16 14 16 L 14.734375 16 L 15 15.744141 L 15 15 C 15 14.72 14.890937 14.469068 14.710938 14.289062 L 13.410156 13 L 14.710938 11.710938 C 14.890935 11.530938 15 11.28 15 11 L 15 10.306641 L 14.822266 10 L 14 10 C 13.72 10 13.469068 10.109068 13.289062 10.289062 L 12 11.589844 L 10.710938 10.289062 C 10.530936 10.109065 10.28 10 10 10 L 9.296875 10 z " />
</svg>
