<?xml version="1.0" encoding="UTF-8" standalone="no"?>
<svg
   width="16"
   height="16"
   version="1.1"
   id="svg618136"
   sodipodi:docname="ymuse-update-db-symbolic.svg"
   inkscape:version="1.1.2 (0a00cf5339, 2022-02-04)"
   xmlns:inkscape="http://www.inkscape.org/namespaces/inkscape"
   xmlns:sodipodi="http://sodipodi.sourceforge.net/DTD/sodipodi-0.dtd"
   xmlns="http://www.w3.org/2000/svg"
   xmlns:svg="http://www.w3.org/2000/svg">
  <defs
     id="defs618140" />
  <sodipodi:namedview
     id="namedview618138"
     pagecolor="#ffffff"
     bordercolor="#666666"
     borderopacity="1.0"
     inkscape:pageshadow="2"
     inkscape:pageopacity="0.0"
     inkscape:pagecheckerboard="0"
     showgrid="false"
     inkscape:zoom="51.6875"
     inkscape:cx="7.9903265"
     inkscape:cy="8"
     inkscape:window-width="1920"
     inkscape:window-height="1051"
     inkscape:window-x="0"
     inkscape:window-y="29"
     inkscape:window-maximized="1"
     inkscape:current-layer="svg618136" />
  <path
     style="fill:#5c616c"
     d="M 7,1 C 3.6862915,1 1,2.3431458 1,4 1,5.6568542 3.6862915,7 7,7 10.313708,7 13,5.6568542 13,4 13,2.3431458 10.313708,1 7,1 Z M 1.8046875,6.5 C 1.277784,6.956017 1.0002554,7.4733518 1,8 1.0008346,9.4868054 3.1795592,10.749003 6.1210938,10.966797 6.3796727,9.7481891 7.0838408,8.6699972 8.0957031,7.9433594 7.734715,7.9789985 7.3679353,7.9979586 7,8 4.8567065,7.99985 2.8763342,7.4280733 1.8046875,6.5 Z M 11,8 c -2.209139,0 -4,1.790861 -4,4 0,2.209139 1.790861,4 4,4 1.310965,-0.0036 2.529086,-0.648576 3.27051,-1.712607 C 14.335082,14.194725 14.052687,14.098878 14.109774,14 v 0 H 11 c -1.1045695,0 -2,-0.895431 -2,-2 0,-1.104569 0.8954305,-2 2,-2 0.530402,8e-5 1.039051,0.210847 1.414062,0.585938 l -1.081276,1.081276 v 0 L 11.490626,12 H 15 v -3.6076947 0 L 14.725813,8.2741873 13.828125,9.171875 C 13.078103,8.4216927 12.060805,8.0001603 11,8 Z M 1.8105469,10.496094 C 1.2802683,10.952973 1.0006627,11.47176 1,12 c 0,1.656854 2.6862915,3 6,3 H 7.015625 C 6.3609344,14.136479 6.0045032,13.083636 6,12 6.00123,11.98437 6.00253,11.96874 6.00391,11.95313 4.2418883,11.803922 2.7046048,11.269782 1.8105469,10.496094 Z"
     id="path618134"
     sodipodi:nodetypes="ssssscccccccscsccsscccccccccccccscccc" />
</svg>
