<?xml version="1.0" encoding="UTF-8" standalone="no"?>
<svg
   width="16"
   height="16"
   version="1.1"
   id="svg7"
   sodipodi:docname="appointment-soon.svg"
   inkscape:version="1.1.2 (0a00cf5339, 2022-02-04)"
   xmlns:inkscape="http://www.inkscape.org/namespaces/inkscape"
   xmlns:sodipodi="http://sodipodi.sourceforge.net/DTD/sodipodi-0.dtd"
   xmlns="http://www.w3.org/2000/svg"
   xmlns:svg="http://www.w3.org/2000/svg">
  <sodipodi:namedview
     id="namedview9"
     pagecolor="#000000"
     bordercolor="#666666"
     borderopacity="1.0"
     inkscape:pageshadow="2"
     inkscape:pageopacity="0"
     inkscape:pagecheckerboard="0"
     showgrid="false"
     inkscape:zoom="51.6875"
     inkscape:cx="8.0096735"
     inkscape:cy="8.0096735"
     inkscape:window-width="922"
     inkscape:window-height="878"
     inkscape:window-x="993"
     inkscape:window-y="32"
     inkscape:window-maximized="1"
     inkscape:current-layer="svg7" />
  <defs
     id="defs3">
    <style
       id="current-color-scheme"
       type="text/css">
   .ColorScheme-Text { color:#eeeeec; } .ColorScheme-Highlight { color:#367bf0; } .ColorScheme-NeutralText { color:#ffcc44; } .ColorScheme-PositiveText { color:#3db47e; } .ColorScheme-NegativeText { color:#dd4747; }
  </style>
  </defs>
  <path
     style="fill:currentColor"
     class="ColorScheme-Text"
     d="M 12.5,9 C 10.567003,9 9,10.567003 9,12.5 9,14.432997 10.567003,16 12.5,16 14.432997,16 16,14.432997 16,12.5 16,10.567003 14.432997,9 12.5,9 Z M 12,10.294481 12.258386,10 h 0.491652 v 0 L 13,10.294736 v 1.504833 0 L 13.183353,12 h 1.576297 v 0 L 15,12.308473 v 0.391001 L 14.709627,13 v 0 H 13 12.336204 L 12,12.642905 v 0 V 12 Z M 2,1 C 2,1 1,1 1,2 v 12 c 0,1 1,1 1,1 H 8.7617 C 8.3624219,14.401184 8.1126003,13.715332 8.0332,13 H 3 V 6 h 10 v 2.0312 c 0.71534,0.07943 1.401193,0.3292865 2,0.7286 V 2 C 15,1 14,1 14,1 Z"
     id="path5"
     sodipodi:nodetypes="sssssccccccccccccccccccccccssccccccccscc" />
</svg>
