<?xml version="1.0" encoding="UTF-8" standalone="no"?>
<svg
   width="16"
   height="16"
   version="1"
   id="svg7"
   sodipodi:docname="as_light.svg"
   inkscape:version="1.1.2 (0a00cf5339, 2022-02-04)"
   xmlns:inkscape="http://www.inkscape.org/namespaces/inkscape"
   xmlns:sodipodi="http://sodipodi.sourceforge.net/DTD/sodipodi-0.dtd"
   xmlns="http://www.w3.org/2000/svg"
   xmlns:svg="http://www.w3.org/2000/svg">
  <sodipodi:namedview
     id="namedview9"
     pagecolor="#ffffff"
     bordercolor="#666666"
     borderopacity="1.0"
     inkscape:pageshadow="2"
     inkscape:pageopacity="0.0"
     inkscape:pagecheckerboard="0"
     showgrid="false"
     inkscape:zoom="146.19433"
     inkscape:cx="7.9962063"
     inkscape:cy="7.9996264"
     inkscape:window-width="1920"
     inkscape:window-height="1051"
     inkscape:window-x="0"
     inkscape:window-y="29"
     inkscape:window-maximized="1"
     inkscape:current-layer="svg7" />
  <defs
     id="defs3">
    <style
       id="current-color-scheme"
       type="text/css">
   .ColorScheme-Text { color:#eeeeec; } .ColorScheme-Highlight { color:#367bf0; } .ColorScheme-NeutralText { color:#ffcc44; } .ColorScheme-PositiveText { color:#3db47e; } .ColorScheme-NegativeText { color:#dd4747; }
  </style>
  </defs>
  <path
     style="fill:currentColor"
     class="ColorScheme-NegativeText"
     d="M 8,1 C 4.122,1 1,4.122 1,8 c 0,3.878 3.122,7 7,7 3.878,0 7,-3.122 7,-7 C 15,4.122 11.878,1 8,1 Z M 6.4961,5.002 c 0.5381,0.0186 1.0732,0.2241 1.5019,0.6367 0.3306,0.3176 0.4769,0.5891 0.9747,1.791 0.5195,1.2569 0.6148,1.4535 0.7832,1.6211 0.1803,0.1782 0.3481,0.2383 0.6681,0.2383 0.525,0 0.9,-0.3308 0.9,-0.7911 0,-0.3895 -0.134,-0.5137 -0.822,-0.7617 C 9.4548,7.3527 9.1165,7.0068 9.1152,6.3105 9.1152,5.9391 9.2079,5.6903 9.4434,5.4336 9.7813,5.0672 10.363,4.9469 10.879,5.1289 c 0.22,0.0794 0.682,0.4928 0.682,0.6113 0,0.0576 -0.268,0.2338 -0.416,0.2754 C 11.066,6.0363 11,6.0097 10.91,5.9219 10.727,5.7437 10.604,5.6875 10.385,5.6875 c -0.378,0 -0.6135,0.2308 -0.6135,0.6035 0,0.3715 0.1502,0.4968 0.8945,0.752 1.026,0.3517 1.328,0.6712 1.334,1.4062 0.006,0.635 -0.276,1.0922 -0.836,1.3633 C 10.909,9.9348 10.822,9.9512 10.406,9.9512 9.8122,9.9499 9.5459,9.8382 9.2129,9.457 8.9891,9.2007 8.7625,8.7194 8.0352,6.9629 7.7335,6.235 7.345,5.8787 6.6992,5.7383 6.372,5.6673 5.9162,5.7337 5.6191,5.8926 5.3295,6.0464 5.0062,6.3936 4.8535,6.7109 4.7273,6.9686 4.7168,7.0402 4.7168,7.4883 c 0,0.4274 0.0155,0.5292 0.1211,0.7637 0.1601,0.3579 0.476,0.687 0.8223,0.8652 0.2502,0.1282 0.3273,0.1445 0.7265,0.1445 0.3835,0 0.4823,-0.0179 0.711,-0.1289 0.261,-0.1294 0.6127,-0.4476 0.7558,-0.6855 l 0.1278986,0.00218 v 0 L 8.0742,8.666 c 0.055992,0.1286642 0.104832,0.2518133 0.1301295,0.3270453 0.011706,0.034811 0.01837,0.059363 0.01837,0.069455 0,0.016282 -0.00996,0.038967 -0.028002,0.066345 C 8.1084546,9.2596981 7.8374661,9.4977514 7.5859,9.6562 7.1242,9.9458 6.5937,10.053 6.0273,9.9746 v 0.002 C 5.8673,9.9547 5.5825,9.8604 5.3926,9.7676 4.1552,9.1654 3.6483,7.6486 4.2578,6.3711 4.693,5.4581 5.5992,4.9708 6.4961,5.002 Z"
     id="path5"
     sodipodi:nodetypes="sssssccccssccccsccsscccccccccsccscccccssscccccc" />
</svg>
