<?xml version="1.0" encoding="UTF-8" standalone="no"?>
<svg
   width="16"
   height="16"
   version="1.1"
   id="svg487460"
   sodipodi:docname="bitmap-trace.svg"
   inkscape:version="1.1.2 (0a00cf5339, 2022-02-04)"
   xmlns:inkscape="http://www.inkscape.org/namespaces/inkscape"
   xmlns:sodipodi="http://sodipodi.sourceforge.net/DTD/sodipodi-0.dtd"
   xmlns="http://www.w3.org/2000/svg"
   xmlns:svg="http://www.w3.org/2000/svg">
  <sodipodi:namedview
     id="namedview487462"
     pagecolor="#000000"
     bordercolor="#666666"
     borderopacity="1.0"
     inkscape:pageshadow="2"
     inkscape:pageopacity="0"
     inkscape:pagecheckerboard="0"
     showgrid="false"
     inkscape:zoom="51.6875"
     inkscape:cx="8.019347"
     inkscape:cy="8.0096735"
     inkscape:window-width="1880"
     inkscape:window-height="966"
     inkscape:window-x="0"
     inkscape:window-y="29"
     inkscape:window-maximized="1"
     inkscape:current-layer="svg487460" />
  <defs
     id="defs487456">
    <style
       id="current-color-scheme"
       type="text/css">
   .ColorScheme-Text { color:#eeeeec; } .ColorScheme-Highlight { color:#367bf0; } .ColorScheme-NeutralText { color:#ffcc44; } .ColorScheme-PositiveText { color:#3db47e; } .ColorScheme-NegativeText { color:#dd4747; }
  </style>
  </defs>
  <path
     style="fill:currentColor"
     class="ColorScheme-Text"
     d="m 13.862181,9.1378187 v 0 L 10.106481,12.893519 10,13.141455 v 0 1.605301 L 10.277289,15 v 0 H 12 L 16,11 14.193972,9.1939716 Z M 2,2 C 1,2 1,3 1,3 v 10 c 0,1 1,1 1,1 H 8.8632553 L 9,13.840082 v 0 -1.086178 0 L 9.0980043,12.483996 9.4483429,12.133657 9.3607141,12 v 0 H 3.2301369 v 0 L 3,11.721709 V 9.6951354 L 3.1408893,9.3344551 v 0 L 5.2609814,6.8433468 v 0 l 0.4523198,-0.039341 2.9750787,3.3684622 0.2693636,-4.41e-4 v 0 L 10.782126,8.4012901 v 0 l 0.394207,0.087103 0.856233,0.8564474 v 0 l 0.209504,-0.00463 1.515201,-1.5154452 0.465505,-0.019991 v 0 L 14.811682,8.3936811 15,8.362202 v 0 V 3 C 15,2 14,2 14,2 Z"
     id="path487458"
     sodipodi:nodetypes="ccccccccccccscsccccccccccccccccccccccccccccccccccscs" />
</svg>
