<?xml version="1.0" encoding="UTF-8" standalone="no"?>
<svg
   width="16"
   height="16"
   version="1.1"
   id="svg7"
   sodipodi:docname="view-refresh.svg"
   inkscape:version="1.1.2 (0a00cf5339, 2022-02-04)"
   xmlns:inkscape="http://www.inkscape.org/namespaces/inkscape"
   xmlns:sodipodi="http://sodipodi.sourceforge.net/DTD/sodipodi-0.dtd"
   xmlns="http://www.w3.org/2000/svg"
   xmlns:svg="http://www.w3.org/2000/svg">
  <sodipodi:namedview
     id="namedview9"
     pagecolor="#000000"
     bordercolor="#666666"
     borderopacity="1.0"
     inkscape:pageshadow="2"
     inkscape:pageopacity="0"
     inkscape:pagecheckerboard="0"
     showgrid="false"
     inkscape:zoom="206.75"
     inkscape:cx="12.556227"
     inkscape:cy="2.1160822"
     inkscape:window-width="1920"
     inkscape:window-height="1051"
     inkscape:window-x="0"
     inkscape:window-y="29"
     inkscape:window-maximized="1"
     inkscape:current-layer="svg7"
     inkscape:showpageshadow="0"
     inkscape:deskcolor="#000000" />
  <defs
     id="defs3">
    <style
       id="current-color-scheme"
       type="text/css">
   .ColorScheme-Text { color:#eeeeec; } .ColorScheme-Highlight { color:#367bf0; } .ColorScheme-NeutralText { color:#ffcc44; } .ColorScheme-PositiveText { color:#3db47e; } .ColorScheme-NegativeText { color:#dd4747; }
  </style>
  </defs>
  <path
     style="fill:currentColor"
     class="ColorScheme-Text"
     d="M 8,1 C 4.1340068,1 1,4.1340068 1,8 c 0,3.865993 3.1340068,7 7,7 3.093007,-0.0032 5.817285,-2.035923 6.701,-5 H 12.58 C 11.78513,11.821277 9.9871759,12.998976 8,13 5.2385763,13 3,10.761424 3,8 3,5.2385763 5.2385763,3 8,3 c 1.2375932,0.00316 2.42676,0.4650316 3.340262,1.290911 0.06431,0.058137 -0.06149,-0.061711 0,0 l 0.03065,0.3378995 -1.6082411,1.644614 -0.092812,0.1980529 0.021448,0.1433521 0.051558,0.1670627 0.094342,0.1483999 0.1449621,0.10871 0.180567,0.012962 4.310431,-0.051971 0.133522,-0.040019 0.124657,-0.051331 0.16963,-0.1689564 0.03759,-0.1021819 0.01695,-0.044305 L 15,6.4930017 15.07385,2.1499988 v 0 0 0 l -0.255579,-0.2277391 -0.6071,-0.059899 -0.228888,0.081151 v 0 0 0 0 0 l -0.889034,0.9629762 v 0 C 13.0361,2.8492822 12.831829,2.9393872 12.772941,2.8843802 11.48013,1.6767858 9.7750592,1.0013175 8,1 Z"
     id="path5"
     sodipodi:nodetypes="csccccscsccccccccccccccccccccccccccccccsc" />
</svg>
