<?xml version="1.0" encoding="UTF-8" standalone="no"?>
<svg
   width="16"
   height="16"
   version="1.1"
   id="svg7"
   sodipodi:docname="colors-luma.svg"
   inkscape:version="1.1.2 (0a00cf5339, 2022-02-04)"
   xmlns:inkscape="http://www.inkscape.org/namespaces/inkscape"
   xmlns:sodipodi="http://sodipodi.sourceforge.net/DTD/sodipodi-0.dtd"
   xmlns="http://www.w3.org/2000/svg"
   xmlns:svg="http://www.w3.org/2000/svg">
  <sodipodi:namedview
     id="namedview9"
     pagecolor="#000000"
     bordercolor="#666666"
     borderopacity="1.0"
     inkscape:pageshadow="2"
     inkscape:pageopacity="0"
     inkscape:pagecheckerboard="0"
     showgrid="false"
     inkscape:zoom="146.19433"
     inkscape:cx="8.023567"
     inkscape:cy="3.0336334"
     inkscape:window-width="1507"
     inkscape:window-height="980"
     inkscape:window-x="205"
     inkscape:window-y="49"
     inkscape:window-maximized="1"
     inkscape:current-layer="svg7" />
  <defs
     id="defs3">
    <style
       id="current-color-scheme"
       type="text/css">
   .ColorScheme-Text { color:#eeeeec; } .ColorScheme-Highlight { color:#367bf0; } .ColorScheme-NeutralText { color:#ffcc44; } .ColorScheme-PositiveText { color:#3db47e; } .ColorScheme-NegativeText { color:#dd4747; }
  </style>
  </defs>
  <path
     style="fill:currentColor"
     class="ColorScheme-Text"
     d="M 8.3455243,2.0759251 C 8.3848693,2.2333054 8.2486583,1.898079 8.2968653,2.0523931 8.3323603,2.1660149 8.3948786,2.1558777 8.4347766,2.2678677 8.4670266,2.3583917 8.3105983,1.9864546 8.3455223,2.0759261 9.7001964,5.5461841 13,8.2293298 13,10.5 13,13 10.77,15 8,15 5.23,15 3,13 3,10.5 3,8.245271 6.2536341,5.5838376 7.6256579,2.1488967 7.6658554,2.04826 7.5467059,2.2748292 7.583544,2.1728553 7.626899,2.0528415 7.5603786,2.2861286 7.5986916,2.1642346 7.6486936,2.0051491 8.0486824,1.8334133 8.3455243,2.0759251 Z"
     id="path5"
     sodipodi:nodetypes="csssssssssc" />
</svg>
