<?xml version="1.0" encoding="UTF-8" standalone="no"?>
<svg
   width="16"
   height="16"
   version="1.1"
   viewBox="0 0 16 16"
   id="svg7"
   sodipodi:docname="color-select.svg"
   inkscape:version="1.1.2 (0a00cf5339, 2022-02-04)"
   xmlns:inkscape="http://www.inkscape.org/namespaces/inkscape"
   xmlns:sodipodi="http://sodipodi.sourceforge.net/DTD/sodipodi-0.dtd"
   xmlns="http://www.w3.org/2000/svg"
   xmlns:svg="http://www.w3.org/2000/svg">
  <sodipodi:namedview
     id="namedview9"
     pagecolor="#000000"
     bordercolor="#666666"
     borderopacity="1.0"
     inkscape:pageshadow="2"
     inkscape:pageopacity="0"
     inkscape:pagecheckerboard="0"
     showgrid="false"
     inkscape:zoom="47.25"
     inkscape:cx="8"
     inkscape:cy="8"
     inkscape:window-width="1912"
     inkscape:window-height="966"
     inkscape:window-x="0"
     inkscape:window-y="29"
     inkscape:window-maximized="1"
     inkscape:current-layer="svg7" />
  <defs
     id="defs3">
    <style
       id="current-color-scheme"
       type="text/css">
   .ColorScheme-Text { color:#eeeeec; } .ColorScheme-Highlight { color:#367bf0; } .ColorScheme-NeutralText { color:#ffcc44; } .ColorScheme-PositiveText { color:#3db47e; } .ColorScheme-NegativeText { color:#dd4747; }
  </style>
  </defs>
  <path
     style="fill:currentColor"
     class="ColorScheme-Text"
     d="m 13.456086,1.0006868 c -0.38886,0.011288 -0.758096,0.1736868 -1.029397,0.4526607 l -2.353186,2.3550062 -0.0039,-0.00585 L 8.2922887,2.023808 c 0,0 -0.1035526,-0.03169 -0.1566971,-0.029898 C 8.0764566,1.9959 7.9638687,2.038845 7.9638687,2.038845 l -1.0894872,1.09033 v 0 l 0.016489,0.3173572 1.2700659,1.2710485 -6.9993568,7.0047713 -0.1615797,0.366921 v 0 2.624203 l 0.2323184,0.286525 v 0 h 2.708739 v 0 l 0.3149233,-0.14061 7.0184852,-7.0239181 1.211753,1.2110475 0.390392,0.063475 v 0 l 1.036701,-1.0375022 -0.03625,-0.4593361 v 0 L 12.190786,5.9272739 14.543971,3.5722677 C 15.521581,2.6194252 14.82011,0.96132714 13.456086,1.0006868 Z M 8.9973154,5.5468049 10.408838,6.9594183 3.5325442,13.841031 2.1210229,12.428418 Z"
     id="path5"
     sodipodi:nodetypes="cccccsccccccccccccccccccccccccccccc" />
</svg>
