<?xml version="1.0" encoding="UTF-8" standalone="no"?>
<svg
   width="16"
   height="16"
   version="1.1"
   id="svg9"
   sodipodi:docname="crosshairs.svg"
   inkscape:version="1.1.2 (0a00cf5339, 2022-02-04)"
   xmlns:inkscape="http://www.inkscape.org/namespaces/inkscape"
   xmlns:sodipodi="http://sodipodi.sourceforge.net/DTD/sodipodi-0.dtd"
   xmlns="http://www.w3.org/2000/svg"
   xmlns:svg="http://www.w3.org/2000/svg">
  <sodipodi:namedview
     id="namedview11"
     pagecolor="#000000"
     bordercolor="#666666"
     borderopacity="1.0"
     inkscape:pageshadow="2"
     inkscape:pageopacity="0"
     inkscape:pagecheckerboard="0"
     showgrid="false"
     inkscape:zoom="51.6875"
     inkscape:cx="8.0096735"
     inkscape:cy="6.452237"
     inkscape:window-width="1920"
     inkscape:window-height="1051"
     inkscape:window-x="0"
     inkscape:window-y="29"
     inkscape:window-maximized="1"
     inkscape:current-layer="svg9" />
  <defs
     id="defs3">
    <style
       id="current-color-scheme"
       type="text/css">
   .ColorScheme-Text { color:#eeeeec; } .ColorScheme-Highlight { color:#367bf0; } .ColorScheme-NeutralText { color:#ffcc44; } .ColorScheme-PositiveText { color:#3db47e; } .ColorScheme-NegativeText { color:#dd4747; }
  </style>
  </defs>
  <path
     style="fill:currentColor"
     class="ColorScheme-Text"
     d="M 1,7 H 6.7321952 15 V 9 H 1 Z M 7,1 H 9 V 6.7861753 L 9.4709287,7.0373443 9,7.9645273 V 8.601383 L 9.4893228,8.8379615 9,9.2593204 V 15 H 7 V 9.25538 L 6.6125385,8.8474071 7,8.6848041 V 7.716145 L 6.7321952,7 7,6.7906283 V 6.5295437 4.485227 L 6.5034741,4.0443734 7,3.7657289 Z"
     id="path5"
     sodipodi:nodetypes="ccccccccccccccccccccccccccc" />
  <path
     style="fill:currentColor"
     class="ColorScheme-Text"
     d="M 8,2 C 4.6862915,2 2,4.6862915 2,8 c 0,3.313708 2.6862915,6 6,6 3.313708,0 6,-2.686292 6,-6 C 14,4.6862915 11.313708,2 8,2 Z M 8,4 C 8.2021122,4 8.5355504,4.789505 8.7296093,4.8184339 8.9494657,4.8512084 9.0286521,4.1273591 9.2352941,4.1943874 10.424857,4.5802455 11.370139,5.5083444 11.77955,6.6870952 11.838439,6.8566432 11.376437,7.1274048 11.412284,7.3064565 11.463388,7.5617095 12,7.7297101 12,8 12,8.2513476 11.467127,8.4146447 11.422783,8.6531414 11.390707,8.8256608 11.857247,9.076925 11.803791,9.2408972 11.416428,10.429085 10.487836,11.372784 9.3091563,11.78085 9.0999144,11.853291 8.8666087,11.389611 8.6432329,11.426663 8.4287135,11.462246 8.2246099,12 8,12 7.7387613,12 7.5668176,11.45671 7.319547,11.408893 7.133386,11.372894 6.8683809,11.842233 6.6923922,11.781386 5.5581034,11.389212 4.6552154,10.501058 4.2430545,9.3762504 4.1645528,9.1620151 4.5462947,8.9514663 4.5051885,8.7218529 4.46396,8.4915568 4,8.2421556 4,8 4,7.7530167 4.4489429,7.4701089 4.4917942,7.2355002 4.5310425,7.0206178 4.160902,6.8528832 4.2330154,6.6514649 4.7863998,5.105821 6.2640607,4 8,4 Z"
     id="path7"
     sodipodi:nodetypes="ssssssssssssssssssssssss" />
</svg>
