<?xml version="1.0" encoding="UTF-8" standalone="no"?>
<svg
   width="16"
   height="16"
   version="1.1"
   id="svg726679"
   sodipodi:docname="delete-comment.svg"
   inkscape:version="1.1.2 (0a00cf5339, 2022-02-04)"
   xmlns:inkscape="http://www.inkscape.org/namespaces/inkscape"
   xmlns:sodipodi="http://sodipodi.sourceforge.net/DTD/sodipodi-0.dtd"
   xmlns="http://www.w3.org/2000/svg"
   xmlns:svg="http://www.w3.org/2000/svg">
  <sodipodi:namedview
     id="namedview726681"
     pagecolor="#000000"
     bordercolor="#666666"
     borderopacity="1.0"
     inkscape:pageshadow="2"
     inkscape:pageopacity="0"
     inkscape:pagecheckerboard="0"
     showgrid="false"
     inkscape:zoom="51.6875"
     inkscape:cx="8.0096735"
     inkscape:cy="8"
     inkscape:window-width="1920"
     inkscape:window-height="1051"
     inkscape:window-x="0"
     inkscape:window-y="29"
     inkscape:window-maximized="1"
     inkscape:current-layer="svg726679" />
  <defs
     id="defs726675">
    <style
       id="current-color-scheme"
       type="text/css">
   .ColorScheme-Text { color:#eeeeec; } .ColorScheme-Highlight { color:#367bf0; } .ColorScheme-NeutralText { color:#ffcc44; } .ColorScheme-PositiveText { color:#3db47e; } .ColorScheme-NegativeText { color:#dd4747; }
  </style>
  </defs>
  <path
     style="fill:currentColor"
     class="ColorScheme-Text"
     d="M 3,2 C 3,2 1,2 1,4 v 6 c 0,2 2,2 2,2 h 4.7856711 v 0 l 0.3300803,0.173627 1.5552009,2.332801 v 0 l 0.6541367,0.0059 1.570661,-2.355956 v 0 L 12.193591,12 H 13 c 0,0 2,0 2,-2 V 4 C 15,2 13,2 13,2 Z M 5,4.4777073 5.4578366,4 H 6.4141 L 8,5.5859 9.5859,4 h 1.031056 V 4 L 11,4.3982226 V 5.4141 L 9.4141,7 11,8.5859 V 9.5716268 L 10.557233,10 v 0 H 9.5859 L 8,8.4141 6.4141,10 H 5.6338257 L 5,9.5235532 v 0 V 8.5859 L 6.5859,7 5,5.4141 Z"
     id="path726677"
     sodipodi:nodetypes="csscccccccccccssccccccccccccccccccccccccccc" />
</svg>
