<?xml version="1.0" encoding="UTF-8" standalone="no"?>
<svg
   width="16"
   height="16"
   version="1.1"
   id="svg654126"
   sodipodi:docname="document-edit-decrypt-verify.svg"
   inkscape:version="1.1.2 (0a00cf5339, 2022-02-04)"
   xmlns:inkscape="http://www.inkscape.org/namespaces/inkscape"
   xmlns:sodipodi="http://sodipodi.sourceforge.net/DTD/sodipodi-0.dtd"
   xmlns="http://www.w3.org/2000/svg"
   xmlns:svg="http://www.w3.org/2000/svg">
  <sodipodi:namedview
     id="namedview654128"
     pagecolor="#000000"
     bordercolor="#666666"
     borderopacity="1.0"
     inkscape:pageshadow="2"
     inkscape:pageopacity="0"
     inkscape:pagecheckerboard="0"
     showgrid="false"
     inkscape:zoom="51.6875"
     inkscape:cx="7.9903265"
     inkscape:cy="8"
     inkscape:window-width="1920"
     inkscape:window-height="1051"
     inkscape:window-x="0"
     inkscape:window-y="29"
     inkscape:window-maximized="1"
     inkscape:current-layer="svg654126" />
  <defs
     id="defs654122">
    <style
       id="current-color-scheme"
       type="text/css">
   .ColorScheme-Text { color:#eeeeec; } .ColorScheme-Highlight { color:#367bf0; } .ColorScheme-NeutralText { color:#ffcc44; } .ColorScheme-PositiveText { color:#3db47e; } .ColorScheme-NegativeText { color:#dd4747; }
  </style>
  </defs>
  <path
     style="fill:currentColor"
     class="ColorScheme-Text"
     d="M 2,2 V 4 H 4 V 2 Z M 7,2 V 4 H 9 V 2 Z m 5,0 v 2 h 2 V 2 Z M 4,5 V 7 H 6 V 5 Z m 6,0 v 2 h 2 V 5 Z M 2,8 v 6 c 0,1 1,1 1,1 h 10 c 0,0 1,0 1,-1 V 8 h -2 v 5 H 4 V 8 Z m 7.7879696,0.2120304 v 0 L 7.1310147,10.868985 v 0 l -0.2662857,-0.0043 -0.6531651,-0.653165 -0.4287977,0.0057 v 0 l -0.5957338,0.595734 v 0 l 0.021594,0.395659 1.5960178,1.596017 v 0 l 0.393893,-0.0032 3.6127006,-3.6127007 -0.03461,-0.412133 v 0 L 10.23787,8.2378697 Z"
     id="path654124"
     sodipodi:nodetypes="ccccccccccccccccccccccccccsccsccccccccccccccccccccccccc" />
</svg>
