<?xml version="1.0" encoding="UTF-8" standalone="no"?>
<svg
   width="16"
   height="16"
   version="1.1"
   id="svg527518"
   sodipodi:docname="document-page-setup.svg"
   inkscape:version="1.1.2 (0a00cf5339, 2022-02-04)"
   xmlns:inkscape="http://www.inkscape.org/namespaces/inkscape"
   xmlns:sodipodi="http://sodipodi.sourceforge.net/DTD/sodipodi-0.dtd"
   xmlns="http://www.w3.org/2000/svg"
   xmlns:svg="http://www.w3.org/2000/svg">
  <sodipodi:namedview
     id="namedview527520"
     pagecolor="#000000"
     bordercolor="#666666"
     borderopacity="1.0"
     inkscape:pageshadow="2"
     inkscape:pageopacity="0"
     inkscape:pagecheckerboard="0"
     showgrid="false"
     inkscape:zoom="51.6875"
     inkscape:cx="7.9903265"
     inkscape:cy="8.0096735"
     inkscape:window-width="1880"
     inkscape:window-height="966"
     inkscape:window-x="0"
     inkscape:window-y="29"
     inkscape:window-maximized="1"
     inkscape:current-layer="svg527518" />
  <defs
     id="defs527514">
    <style
       id="current-color-scheme"
       type="text/css">
   .ColorScheme-Text { color:#eeeeec; } .ColorScheme-Highlight { color:#367bf0; } .ColorScheme-NeutralText { color:#ffcc44; } .ColorScheme-PositiveText { color:#3db47e; } .ColorScheme-NegativeText { color:#dd4747; }
  </style>
  </defs>
  <path
     style="fill:currentColor"
     class="ColorScheme-Text"
     d="M 3,1 C 3,1 2,1 2,2 V 4.75 L 4,6 V 3 h 8 v 9 L 11.503143,11.710167 11.24404,11.559023 11.018788,11.427626 0.31549892,5.184041 0,5.4179865 v 0 6.1826235 l 0.31575813,0.391434 v 0 L 11.031348,11.722054 v 0 L 11.018788,11.427626 12,12 v 1 H 2 v 1 c 0,1 1,1 1,1 h 10 c 0,0 1,0 1,-1 V 2 C 14,1 13,1 13,1 Z M 2,8 5,10 H 2 Z"
     id="path527516"
     sodipodi:nodetypes="csccccccccccccccccccccsccsscccccc" />
</svg>
