<?xml version="1.0" encoding="UTF-8" standalone="no"?>
<svg
   width="16"
   height="16"
   version="1.1"
   id="svg7"
   sodipodi:docname="document-swap.svg"
   inkscape:version="1.1.2 (0a00cf5339, 2022-02-04)"
   xmlns:inkscape="http://www.inkscape.org/namespaces/inkscape"
   xmlns:sodipodi="http://sodipodi.sourceforge.net/DTD/sodipodi-0.dtd"
   xmlns="http://www.w3.org/2000/svg"
   xmlns:svg="http://www.w3.org/2000/svg">
  <sodipodi:namedview
     id="namedview9"
     pagecolor="#000000"
     bordercolor="#666666"
     borderopacity="1.0"
     inkscape:pageshadow="2"
     inkscape:pageopacity="0"
     inkscape:pagecheckerboard="0"
     showgrid="false"
     inkscape:zoom="94.5"
     inkscape:cx="8.010582"
     inkscape:cy="5.4656085"
     inkscape:window-width="1920"
     inkscape:window-height="1051"
     inkscape:window-x="0"
     inkscape:window-y="29"
     inkscape:window-maximized="1"
     inkscape:current-layer="svg7" />
  <defs
     id="defs3">
    <style
       id="current-color-scheme"
       type="text/css">
   .ColorScheme-Text { color:#eeeeec; } .ColorScheme-Highlight { color:#367bf0; } .ColorScheme-NeutralText { color:#ffcc44; } .ColorScheme-PositiveText { color:#3db47e; } .ColorScheme-NegativeText { color:#dd4747; }
  </style>
  </defs>
  <path
     style="fill:currentColor"
     class="ColorScheme-Text"
     d="M 10.332248,1 10.218917,1.2189174 11.841604,2.8416041 11.806907,3 V 3 H 7 v 1 h 4.750493 v 0 l 0.09158,0.1579275 -1.588273,1.5882728 v 0 L 10.332248,6 h 1.037311 v 0 l 0.279769,-0.1493282 2.105598,-2.1055982 0.0077,-0.4824674 v 0 l -2.14816,-2.1481601 v 0 L 11.326955,1 Z M 4.6819933,3 4.3528811,3.1471189 2.1731777,5.3268223 v 0 L 2.1911818,5.6911818 4.3708851,7.8708851 4.7239803,8 V 8 H 5.6976932 V 8 L 5.7876626,7.7876626 4.1540544,6.1540544 v 0 L 4.2267653,6 H 9 V 5 H 4.1935648 V 5 L 4.1468574,4.8531426 5.7908115,3.2091885 5.6976932,3 V 3 Z M 2,8 v 6 c 0,1 1,1 1,1 h 10 c 0,0 1,0 1,-1 V 8 h -2 v 4.639691 L 11.750524,13 v 0 H 4.2794183 v 0 L 4,12.702991 V 8 Z"
     id="path5"
     sodipodi:nodetypes="cccccccccccccccccccccccccccccccccccccccccccccccccsccscccccccc" />
</svg>
