<?xml version="1.0" encoding="UTF-8" standalone="no"?>
<svg
   width="16"
   height="16"
   viewBox="0 0 16 16"
   version="1.1"
   id="svg7"
   sodipodi:docname="document-edit-sign.svg"
   inkscape:version="1.1.2 (0a00cf5339, 2022-02-04)"
   xmlns:inkscape="http://www.inkscape.org/namespaces/inkscape"
   xmlns:sodipodi="http://sodipodi.sourceforge.net/DTD/sodipodi-0.dtd"
   xmlns="http://www.w3.org/2000/svg"
   xmlns:svg="http://www.w3.org/2000/svg">
  <sodipodi:namedview
     id="namedview9"
     pagecolor="#000000"
     bordercolor="#666666"
     borderopacity="1.0"
     inkscape:pageshadow="2"
     inkscape:pageopacity="0"
     inkscape:pagecheckerboard="0"
     showgrid="false"
     inkscape:zoom="47.25"
     inkscape:cx="8"
     inkscape:cy="8"
     inkscape:window-width="1912"
     inkscape:window-height="966"
     inkscape:window-x="0"
     inkscape:window-y="29"
     inkscape:window-maximized="1"
     inkscape:current-layer="svg7" />
  <defs
     id="defs3">
    <style
       id="current-color-scheme"
       type="text/css">
   .ColorScheme-Text { color:#eeeeec; } .ColorScheme-Highlight { color:#367bf0; } .ColorScheme-NeutralText { color:#ffcc44; } .ColorScheme-PositiveText { color:#3db47e; } .ColorScheme-NegativeText { color:#dd4747; }
  </style>
  </defs>
  <path
     style="fill:currentColor"
     class="ColorScheme-Text"
     d="M 3,1 C 3,1 2,1 2,2 v 12 c 0,1 1,1 1,1 H 7 V 13 H 4.343015 c -0.084098,-0.0453 0.3864818,-0.407682 0,0 L 4,12.639691 v -9.3754094 0 L 4.343015,3.0039062 h 7.407509 L 12,3.2218676 v 0 4.7683668 h 2 V 2 C 14,1 13,1 13,1 Z m 8.811996,8.1880044 v 0 L 8.1612684,12.838732 v 0 L 8,13.16858 v 1.65093 L 8.2372517,15 v 0 H 9.824707 v 0 L 10.161282,14.838718 13.822614,11.177386 13.661639,11 13.769025,10.769025 12.181642,9.1816419 Z"
     id="path5"
     sodipodi:nodetypes="cssccccccccccccccscccccccccccccccccc" />
</svg>
