<?xml version="1.0" encoding="UTF-8" standalone="no"?>
<svg
   width="16"
   height="16"
   version="1.1"
   id="svg7"
   sodipodi:docname="draw-use-tilt.svg"
   inkscape:version="1.1.2 (0a00cf5339, 2022-02-04)"
   xmlns:inkscape="http://www.inkscape.org/namespaces/inkscape"
   xmlns:sodipodi="http://sodipodi.sourceforge.net/DTD/sodipodi-0.dtd"
   xmlns="http://www.w3.org/2000/svg"
   xmlns:svg="http://www.w3.org/2000/svg">
  <sodipodi:namedview
     id="namedview9"
     pagecolor="#ffffff"
     bordercolor="#666666"
     borderopacity="1.0"
     inkscape:pageshadow="2"
     inkscape:pageopacity="0.0"
     inkscape:pagecheckerboard="0"
     showgrid="false"
     inkscape:zoom="47.125"
     inkscape:cx="7.9893899"
     inkscape:cy="8"
     inkscape:window-width="1880"
     inkscape:window-height="966"
     inkscape:window-x="0"
     inkscape:window-y="29"
     inkscape:window-maximized="1"
     inkscape:current-layer="svg7" />
  <defs
     id="defs3">
    <style
       id="current-color-scheme"
       type="text/css">
   .ColorScheme-Text { color:#eeeeec; } .ColorScheme-Highlight { color:#367bf0; } .ColorScheme-NeutralText { color:#ffcc44; } .ColorScheme-PositiveText { color:#3db47e; } .ColorScheme-NegativeText { color:#dd4747; }
  </style>
  </defs>
  <path
     style="fill:currentColor"
     class="ColorScheme-Text"
     d="M 5.9453,1 C 5.535003,1.022445 5.1801986,1.2935957 5.0508,1.6836 l -4,12.0004 C 0.83508499,14.331663 1.3173578,15.000301 2,15 h 12 c 0.552285,0 1,-0.447715 1,-1 v -2 c 0,-1.333333 -2,-1.333333 -2,0 v 1 h -2.852422 v 0 C 10.137429,12.919948 9.9082164,12.840211 9.8957107,12.760811 9.5013065,10.256696 7.9422853,8.0872374 5.695953,6.9146136 c -0.078812,-0.041141 0.080483,0.038659 0,0 L 5.5396794,6.546724 6.6562,3.1953 7.7578,3.4707 C 9.0608258,3.8082923 9.5510855,1.8434075 8.2422,1.5293 l -2,-0.5 C 6.1452552,1.0047423 6.045175,0.9948657 5.9453,1 Z M 5.0582399,8.8545518 c 0.081863,0.0435 -0.07935,-0.046982 0,0 1.4041199,0.8313648 2.4083005,2.1989622 2.7823489,3.7846522 0.02809,0.11908 -0.217576,0.239391 -0.1966909,0.360796 v 0 H 3.675631 v 0 L 3.487869,12.702625 4.7063988,9.0486571 Z"
     id="path5"
     sodipodi:nodetypes="ccccsssscccssccccccccssccccccc" />
</svg>
