<?xml version="1.0" encoding="UTF-8" standalone="no"?>
<svg
   width="16"
   height="16"
   version="1.1"
   id="svg686902"
   sodipodi:docname="draw-geometry-show-measuring-info.svg"
   inkscape:version="1.1.2 (0a00cf5339, 2022-02-04)"
   xmlns:inkscape="http://www.inkscape.org/namespaces/inkscape"
   xmlns:sodipodi="http://sodipodi.sourceforge.net/DTD/sodipodi-0.dtd"
   xmlns="http://www.w3.org/2000/svg"
   xmlns:svg="http://www.w3.org/2000/svg">
  <sodipodi:namedview
     id="namedview686904"
     pagecolor="#000000"
     bordercolor="#666666"
     borderopacity="1.0"
     inkscape:pageshadow="2"
     inkscape:pageopacity="0"
     inkscape:pagecheckerboard="0"
     showgrid="false"
     inkscape:zoom="51.6875"
     inkscape:cx="7.9903265"
     inkscape:cy="8"
     inkscape:window-width="1920"
     inkscape:window-height="1051"
     inkscape:window-x="0"
     inkscape:window-y="29"
     inkscape:window-maximized="1"
     inkscape:current-layer="svg686902" />
  <defs
     id="defs686898">
    <style
       id="current-color-scheme"
       type="text/css">
   .ColorScheme-Text { color:#eeeeec; } .ColorScheme-Highlight { color:#367bf0; } .ColorScheme-NeutralText { color:#ffcc44; } .ColorScheme-PositiveText { color:#3db47e; } .ColorScheme-NegativeText { color:#dd4747; }
  </style>
  </defs>
  <path
     style="fill:currentColor"
     class="ColorScheme-Text"
     d="M 8,8 H 9 V 9 H 8 Z m 3,-5 c -1,0 -1,1 -1,1 v 4 c 0,1 1,1 1,1 h 1 c 1,0 1,-1 1,-1 V 4 C 13,3 12,3 12,3 Z m 0,1 h 1 V 8 H 11 Z M 5,3 V 4 H 6 V 9 H 7 V 3 Z M 1,1 v 10 h 4.8989299 l 0.217245,0.116175 v 0 L 9.5744508,14.574451 10,14.460301 v 0 V 11 h 1 v 3.546287 0 l 0.363181,0.09053 L 14.8891,11.1109 v 0 L 15,10.830221 V 1 Z m 1,1 h 12 v 8 H 2 Z"
     id="path686900"
     sodipodi:nodetypes="cccccscscscscsccccccccccccccccccccccccccccccccccc" />
</svg>
