<?xml version="1.0" encoding="UTF-8" standalone="no"?>
<svg
   width="16"
   height="16"
   version="1.1"
   id="svg9"
   sodipodi:docname="draw-geometry.svg"
   inkscape:version="1.1.2 (0a00cf5339, 2022-02-04)"
   xmlns:inkscape="http://www.inkscape.org/namespaces/inkscape"
   xmlns:sodipodi="http://sodipodi.sourceforge.net/DTD/sodipodi-0.dtd"
   xmlns="http://www.w3.org/2000/svg"
   xmlns:svg="http://www.w3.org/2000/svg">
  <sodipodi:namedview
     id="namedview11"
     pagecolor="#000000"
     bordercolor="#666666"
     borderopacity="1.0"
     inkscape:pageshadow="2"
     inkscape:pageopacity="0"
     inkscape:pagecheckerboard="0"
     showgrid="false"
     inkscape:zoom="47.25"
     inkscape:cx="8"
     inkscape:cy="8"
     inkscape:window-width="1912"
     inkscape:window-height="966"
     inkscape:window-x="0"
     inkscape:window-y="29"
     inkscape:window-maximized="1"
     inkscape:current-layer="svg9" />
  <defs
     id="defs3">
    <style
       id="current-color-scheme"
       type="text/css">
   .ColorScheme-Text { color:#eeeeec; } .ColorScheme-Highlight { color:#367bf0; } .ColorScheme-NeutralText { color:#ffcc44; } .ColorScheme-PositiveText { color:#3db47e; } .ColorScheme-NegativeText { color:#dd4747; }
  </style>
  </defs>
  <path
     style="fill:currentColor"
     class="ColorScheme-Text"
     d="M 1.5,10 H 14.5 C 14.777,10 15,10.223 15,10.5 15,10.777 14.777,11 14.5,11 H 1.5 C 1.223,11 1,10.777 1,10.5 1,10.223 1.223,10 1.5,10 Z M 8,9 C 8.554,9 9,9.446 9,10 V 11 C 9,11.554 8.554,12 8,12 7.446,12 7,11.554 7,11 V 10 C 7,9.446 7.446,9 8,9 Z M 8,0 C 8.554,0 9,0.446 9,1 9,1.554 8.554,2 8,2 7.446,2 7,1.554 7,1 7,0.446 7.446,0 8,0 Z"
     id="path5" />
  <path
     style="fill:currentColor"
     class="ColorScheme-Text"
     d="M 8,1 C 6.3431458,1 5,2.3431458 5,4 5,5.6568542 6.3431458,7 8,7 9.6568542,7 11,5.6568542 11,4 11,2.3431458 9.6568542,1 8,1 Z M 8,3 C 8.5522847,3 9,3.4477153 9,4 9,4.5522847 8.5522847,5 8,5 7.4477153,5 7,4.5522847 7,4 7,3.4477153 7.4477153,3 8,3 Z M 5.2422,5.1719 4,6 3,11 v 4 l 0.8141276,0.814128 v 0 L 4,15.729482 V 14 L 5,12 5.2734,7 6.1035,6.3223 C 5.727437,6.0142775 5.4318567,5.6194842 5.2422,5.1719 Z M 10.762,5.1738 C 10.570883,5.6211427 10.273849,6.0153003 9.8965,6.3223 L 10.727,7 11,12 l 1,2 v 1.708275 0 l 0.200843,0.09088 L 13,15 V 11 L 12,6 Z"
     id="path7"
     sodipodi:nodetypes="sssssssssscccccccccccccccccccccccc" />
</svg>
