<?xml version="1.0" encoding="UTF-8" standalone="no"?>
<svg
   width="16"
   height="16"
   version="1.1"
   id="svg9"
   sodipodi:docname="draw-ellipse-chord.svg"
   inkscape:version="1.1.2 (0a00cf5339, 2022-02-04)"
   xmlns:inkscape="http://www.inkscape.org/namespaces/inkscape"
   xmlns:sodipodi="http://sodipodi.sourceforge.net/DTD/sodipodi-0.dtd"
   xmlns="http://www.w3.org/2000/svg"
   xmlns:svg="http://www.w3.org/2000/svg">
  <sodipodi:namedview
     id="namedview11"
     pagecolor="#000000"
     bordercolor="#666666"
     borderopacity="1.0"
     inkscape:pageshadow="2"
     inkscape:pageopacity="0"
     inkscape:pagecheckerboard="0"
     showgrid="false"
     inkscape:zoom="51.6875"
     inkscape:cx="7.9903265"
     inkscape:cy="8"
     inkscape:window-width="1920"
     inkscape:window-height="1051"
     inkscape:window-x="0"
     inkscape:window-y="29"
     inkscape:window-maximized="1"
     inkscape:current-layer="svg9" />
  <defs
     id="defs3">
    <style
       id="current-color-scheme"
       type="text/css">
   .ColorScheme-Text { color:#eeeeec; } .ColorScheme-Highlight { color:#367bf0; } .ColorScheme-NeutralText { color:#ffcc44; } .ColorScheme-PositiveText { color:#3db47e; } .ColorScheme-NegativeText { color:#dd4747; }
  </style>
  </defs>
  <path
     style="fill:currentColor;opacity:.35"
     class="ColorScheme-Text"
     d="M 15,8 A 7,7 0 0 1 10.394,14.578 7,7 0 0 1 2.6377,12.5 7,7 0 0 1 1.9379,4.5"
     id="path5" />
  <path
     style="fill:currentColor"
     class="ColorScheme-Text"
     d="M 1.9379,4.5 C 1.3266,5.559 1.003,6.7772 1,8 c 0,3.866 3.134,7 7,7 3.866,0 7,-3.134 7,-7 z M 2.383448,5.8995734 2.7440826,5.7332786 13.787778,8.6930909 v 0 c -0.0078,0.063441 0.144578,0.1697578 0.134813,0.2325183 C 13.470029,11.834334 10.963067,13.997063 8,14 4.6863,14 2,11.314 2,8 2.0012513,7.2818587 2.1313519,6.5705074 2.383448,5.8995734 c 0.029964,-0.079748 -0.0334,0.078549 0,0 z"
     id="path7"
     sodipodi:nodetypes="ccsccccccsccsc" />
</svg>
