<?xml version="1.0" encoding="UTF-8" standalone="no"?>
<svg
   width="16"
   height="16"
   version="1.1"
   id="svg7"
   sodipodi:docname="edit-delete.svg"
   inkscape:version="1.1.2 (0a00cf5339, 2022-02-04)"
   xmlns:inkscape="http://www.inkscape.org/namespaces/inkscape"
   xmlns:sodipodi="http://sodipodi.sourceforge.net/DTD/sodipodi-0.dtd"
   xmlns="http://www.w3.org/2000/svg"
   xmlns:svg="http://www.w3.org/2000/svg">
  <sodipodi:namedview
     id="namedview9"
     pagecolor="#252525"
     bordercolor="#666666"
     borderopacity="1.0"
     inkscape:pageshadow="2"
     inkscape:pageopacity="0"
     inkscape:pagecheckerboard="0"
     showgrid="false"
     inkscape:zoom="47.25"
     inkscape:cx="8"
     inkscape:cy="8"
     inkscape:window-width="1912"
     inkscape:window-height="966"
     inkscape:window-x="0"
     inkscape:window-y="29"
     inkscape:window-maximized="1"
     inkscape:current-layer="svg7" />
  <defs
     id="defs3">
    <style
       id="current-color-scheme"
       type="text/css">
   .ColorScheme-Text { color:#eeeeec; } .ColorScheme-Highlight { color:#367bf0; } .ColorScheme-NeutralText { color:#ffcc44; } .ColorScheme-PositiveText { color:#3db47e; } .ColorScheme-NegativeText { color:#dd4747; }
  </style>
  </defs>
  <path
     style="fill:currentColor"
     class="ColorScheme-Text"
     d="M 6,1 C 5,1 5,2 5,2 H 2 C 2,2 1,2 1,3 V 4 H 14 V 3 C 14,2 13,2 13,2 H 10 C 10,2 10,1 9,1 Z M 2,5 v 9 c 0,0.52 0.48,1 1,1 h 9 c 0.52,0 1,-0.48 1,-1 V 5 Z M 4,7.3909654 4.4492162,7 H 4.90625 C 5.1896143,7 5.441896,7.094451 5.5878906,7.2226562 L 7.5,8.890625 9.4121094,7.2226562 C 9.5581045,7.0944527 9.810385,7 10.09375,7 h 0.49227 L 11,7.2852518 v 0 0.4510763 C 11,7.9375667 10.918222,8.1210684 10.771484,8.25 L 8.7695312,10 10.771484,11.75 C 10.898603,11.861628 10.96343,12.04569 11,12.3125 v 0.411697 L 10.607631,13 v 0 H 10.09375 C 9.810385,13 9.5581045,12.90555 9.4121094,12.777344 L 7.5,11.099609 5.5878906,12.777344 C 5.441896,12.905551 5.1896143,13 4.90625,13 H 4.4066117 L 4,12.639691 v 0 -0.376019 C 4,12.062433 4.0819193,11.878734 4.2285156,11.75 L 6.2304688,10 4.2285156,8.25 C 4.0814864,8.1206723 4,7.9375667 4,7.7363281 Z"
     id="path5"
     sodipodi:nodetypes="sccsccsccsscssssccccscccscccscccccccscccscccscccscc" />
</svg>
