<?xml version="1.0" encoding="UTF-8" standalone="no"?>
<svg
   width="16"
   height="16"
   version="1.1"
   id="svg619133"
   sodipodi:docname="edit-paste-in-place.svg"
   inkscape:version="1.1.2 (0a00cf5339, 2022-02-04)"
   xmlns:inkscape="http://www.inkscape.org/namespaces/inkscape"
   xmlns:sodipodi="http://sodipodi.sourceforge.net/DTD/sodipodi-0.dtd"
   xmlns="http://www.w3.org/2000/svg"
   xmlns:svg="http://www.w3.org/2000/svg">
  <sodipodi:namedview
     id="namedview619135"
     pagecolor="#000000"
     bordercolor="#666666"
     borderopacity="1.0"
     inkscape:pageshadow="2"
     inkscape:pageopacity="0"
     inkscape:pagecheckerboard="0"
     showgrid="false"
     inkscape:zoom="51.6875"
     inkscape:cx="7.9903265"
     inkscape:cy="8"
     inkscape:window-width="1920"
     inkscape:window-height="1051"
     inkscape:window-x="0"
     inkscape:window-y="29"
     inkscape:window-maximized="1"
     inkscape:current-layer="svg619133" />
  <defs
     id="defs619129">
    <style
       id="current-color-scheme"
       type="text/css">
   .ColorScheme-Text { color:#eeeeec; } .ColorScheme-Highlight { color:#367bf0; } .ColorScheme-NeutralText { color:#ffcc44; } .ColorScheme-PositiveText { color:#3db47e; } .ColorScheme-NegativeText { color:#dd4747; }
  </style>
  </defs>
  <path
     style="fill:currentColor"
     class="ColorScheme-Text"
     d="M 8,1 C 5.2386,1 3,3.2386 3,6 c 0,2.4134052 3.8191953,7.482832 4.7817939,8.722213 0.1387995,0.17871 0,0 0,0 0,0 0.3025368,0.172566 0.4492941,-0.0166 C 9.2143661,13.438237 13,8.4027779 13,6 13,3.2386 10.761,1 8,1 Z M 8,3 C 9.6568542,3 11,4.3431458 11,6 11,7.6568542 9.6568542,9 8,9 6.3431458,9 5,7.6568542 5,6 5,4.3431458 6.3431458,3 8,3 Z"
     id="path619131"
     sodipodi:nodetypes="ssscssssssss" />
</svg>
