<?xml version="1.0" encoding="UTF-8" standalone="no"?>
<svg
   width="16"
   height="16"
   version="1.1"
   id="svg7"
   sodipodi:docname="edit-undo-history.svg"
   inkscape:version="1.1.2 (0a00cf5339, 2022-02-04)"
   xmlns:inkscape="http://www.inkscape.org/namespaces/inkscape"
   xmlns:sodipodi="http://sodipodi.sourceforge.net/DTD/sodipodi-0.dtd"
   xmlns="http://www.w3.org/2000/svg"
   xmlns:svg="http://www.w3.org/2000/svg">
  <sodipodi:namedview
     id="namedview9"
     pagecolor="#000000"
     bordercolor="#666666"
     borderopacity="1.0"
     inkscape:pageshadow="2"
     inkscape:pageopacity="0"
     inkscape:pagecheckerboard="0"
     showgrid="false"
     inkscape:zoom="47.25"
     inkscape:cx="8"
     inkscape:cy="8"
     inkscape:window-width="1912"
     inkscape:window-height="966"
     inkscape:window-x="0"
     inkscape:window-y="29"
     inkscape:window-maximized="1"
     inkscape:current-layer="svg7" />
  <defs
     id="defs3">
    <style
       id="current-color-scheme"
       type="text/css">
   .ColorScheme-Text { color:#eeeeec; } .ColorScheme-Highlight { color:#367bf0; } .ColorScheme-NeutralText { color:#ffcc44; } .ColorScheme-PositiveText { color:#3db47e; } .ColorScheme-NegativeText { color:#dd4747; }
  </style>
  </defs>
  <path
     style="fill:currentColor"
     class="ColorScheme-Text"
     d="M 12.5,9 C 10.567,9 9,10.567 9,12.5 9,14.433 10.567,16 12.5,16 14.433,16 16,14.433 16,12.5 16,10.567 14.433,9 12.5,9 Z m -0.178339,1 v 0 H 12.72362 L 13,10.396251 v 0 1.354354 L 13.210785,12 v 0 h 1.523859 v 0 L 15,12.301022 v 0.380761 L 14.713033,13 v 0 H 12.30067 v 0 L 12,12.639691 V 10.311743 Z M 7,2.5445298 6.558134,2.2651196 2.4564248,4.7261451 2.4340647,5.2604388 v 0 L 6.5644193,7.7386516 7,7.454586 v 0 V 6 h 3 c 1.332,0 2.425,0.8362 2.826,2.0176 0.771821,0.054853 1.516458,0.3077951 2.162,0.7344 C 14.857,6.1143 12.669,4 10,4 H 7 Z M 5,12 v 2 H 8.2637 C 8.0912126,13.518614 8.0020357,13.011351 8,12.5 8.0011075,12.332883 8.0115236,12.165958 8.0312,12 Z"
     id="path5"
     sodipodi:nodetypes="sssssccccccccccccccccccccccccccccsccsccccccccc" />
</svg>
