<?xml version="1.0" encoding="UTF-8" standalone="no"?>
<svg
   width="16"
   height="16"
   version="1.1"
   id="svg778414"
   sodipodi:docname="edit-clone-unlink.svg"
   inkscape:version="1.1.2 (0a00cf5339, 2022-02-04)"
   xmlns:inkscape="http://www.inkscape.org/namespaces/inkscape"
   xmlns:sodipodi="http://sodipodi.sourceforge.net/DTD/sodipodi-0.dtd"
   xmlns="http://www.w3.org/2000/svg"
   xmlns:svg="http://www.w3.org/2000/svg">
  <sodipodi:namedview
     id="namedview778416"
     pagecolor="#000000"
     bordercolor="#666666"
     borderopacity="1.0"
     inkscape:pageshadow="2"
     inkscape:pageopacity="0"
     inkscape:pagecheckerboard="0"
     showgrid="false"
     inkscape:zoom="51.6875"
     inkscape:cx="7.9903265"
     inkscape:cy="8"
     inkscape:window-width="1920"
     inkscape:window-height="1051"
     inkscape:window-x="0"
     inkscape:window-y="29"
     inkscape:window-maximized="1"
     inkscape:current-layer="svg778414" />
  <defs
     id="defs778410">
    <style
       id="current-color-scheme"
       type="text/css">
   .ColorScheme-Text { color:#eeeeec; } .ColorScheme-Highlight { color:#367bf0; } .ColorScheme-NeutralText { color:#ffcc44; } .ColorScheme-PositiveText { color:#3db47e; } .ColorScheme-NegativeText { color:#dd4747; }
  </style>
  </defs>
  <path
     style="fill:currentColor"
     class="ColorScheme-Text"
     d="m 6,6.3207866 v 0 V 15 h 9 V 6 H 6.3123642 Z M 10.5,7 c 0,0 1.5,0 1.5,1.5 V 10 h 0.5 c 0.5,0 0.5,0.5 0.5,0.5 v 3 c 0,0 0,0.5 -0.5,0.5 h -4 C 8,14 8,13.5 8,13.5 v -3 C 8,10.5 8,10 8.5,10 H 11 V 8.5 C 11,8.5 11,8 10.5,8 10,8 10,8.5 10,8.5 V 9 H 9 V 8.5 C 9,7 10.5,7 10.5,7 Z M 1,1 v 9 h 4 v -4.6385874 0 L 5.3725155,5 H 10 V 1 Z"
     id="path778412"
     sodipodi:nodetypes="ccccccccscsccssccsccscccscccccccccc" />
</svg>
