<?xml version="1.0" encoding="UTF-8" standalone="no"?>
<svg
   width="16"
   height="16"
   version="1.1"
   id="svg7"
   sodipodi:docname="edit-clear-history.svg"
   inkscape:version="1.2 (dc2aedaf03, 2022-05-15)"
   xmlns:inkscape="http://www.inkscape.org/namespaces/inkscape"
   xmlns:sodipodi="http://sodipodi.sourceforge.net/DTD/sodipodi-0.dtd"
   xmlns="http://www.w3.org/2000/svg"
   xmlns:svg="http://www.w3.org/2000/svg">
  <sodipodi:namedview
     id="namedview9"
     pagecolor="#000000"
     bordercolor="#666666"
     borderopacity="1.0"
     inkscape:pageshadow="2"
     inkscape:pageopacity="0"
     inkscape:pagecheckerboard="0"
     showgrid="false"
     inkscape:zoom="133.64318"
     inkscape:cx="2.0839073"
     inkscape:cy="5.6082173"
     inkscape:window-width="1489"
     inkscape:window-height="1080"
     inkscape:window-x="214"
     inkscape:window-y="-1"
     inkscape:window-maximized="1"
     inkscape:current-layer="svg7"
     inkscape:showpageshadow="0"
     inkscape:deskcolor="#000000" />
  <defs
     id="defs3">
    <style
       id="current-color-scheme"
       type="text/css">
   .ColorScheme-Text { color:#eeeeec; } .ColorScheme-Highlight { color:#367bf0; } .ColorScheme-NeutralText { color:#ffcc44; } .ColorScheme-PositiveText { color:#3db47e; } .ColorScheme-NegativeText { color:#dd4747; }
  </style>
  </defs>
  <path
     style="fill:currentColor"
     class="ColorScheme-Text"
     d="M 8,0 C 5.4140995,0.00609679 2.9927068,1.2615635 1.4972894,3.3664993 1.4791765,3.3919949 1.3943268,3.3507427 1.3764869,3.3764869 v 0 L 0.45963709,2.4807236 0.04737739,2.5418631 0.02644398,2.566086 0,2.5805096 V 5.7191492 L 0.25976562,6 V 6 H 2.3515625 3.4244091 3.6026967 L 3.4470123,5.9926087 3.6214392,5.6103641 2.963089,4.963089 v 0 C 2.9776836,4.9390857 2.9121555,4.8349313 2.927056,4.8111796 4.021577,3.0664866 5.9364843,2.0032761 8,2 c 3.313708,0 6,2.6862915 6,6 0,3.313708 -2.686292,6 -6,6 C 5.4596746,13.9973 3.1963835,12.395044 2.3496094,10 H 0.265625 C 1.1765395,13.527973 4.3563304,15.994719 8,16 12.418278,16 16,12.418278 16,8 16,3.581722 12.418278,0 8,0 Z M 5,5 V 6 C 5,6.276 5.099297,6.53765 5.2792969,6.71875 L 6.5605469,8 5.2792969,9.28125 C 5.0992969,9.46225 5,9.7239 5,10 v 1 h 1 c 0.28,0 0.5407031,-0.10025 0.7207031,-0.28125 L 8,9.4335938 9.2792969,10.71875 C 9.4592969,10.89975 9.72,11 10,11 h 1 V 10 C 11,9.7239 10.900703,9.46215 10.720703,9.28125 L 9.4394531,8 10.720703,6.71875 C 10.900703,6.53765 11,6.276 11,6 V 5 H 10 C 9.72,5 9.4592969,5.10025 9.2792969,5.28125 L 8,6.5585938 6.7207031,5.28125 C 6.5407031,5.10025 6.28,5 6,5 Z"
     id="path5"
     sodipodi:nodetypes="csccccccccccccccccscsccccsccscccscscccscscccscscccsc" />
</svg>
