<?xml version="1.0" encoding="UTF-8" standalone="no"?>
<svg
   width="16"
   height="16"
   viewBox="0 0 16 16"
   version="1.1"
   id="svg7"
   sodipodi:docname="exchange-positions-clockwise.svg"
   inkscape:version="1.1.2 (0a00cf5339, 2022-02-04)"
   xmlns:inkscape="http://www.inkscape.org/namespaces/inkscape"
   xmlns:sodipodi="http://sodipodi.sourceforge.net/DTD/sodipodi-0.dtd"
   xmlns="http://www.w3.org/2000/svg"
   xmlns:svg="http://www.w3.org/2000/svg">
  <sodipodi:namedview
     id="namedview9"
     pagecolor="#000000"
     bordercolor="#666666"
     borderopacity="1.0"
     inkscape:pageshadow="2"
     inkscape:pageopacity="0"
     inkscape:pagecheckerboard="0"
     showgrid="false"
     inkscape:zoom="51.6875"
     inkscape:cx="7.9903265"
     inkscape:cy="8"
     inkscape:window-width="1920"
     inkscape:window-height="1051"
     inkscape:window-x="0"
     inkscape:window-y="29"
     inkscape:window-maximized="1"
     inkscape:current-layer="svg7" />
  <defs
     id="defs3">
    <style
       id="current-color-scheme"
       type="text/css">
   .ColorScheme-Text { color:#eeeeec; } .ColorScheme-Highlight { color:#367bf0; } .ColorScheme-NeutralText { color:#ffcc44; } .ColorScheme-PositiveText { color:#3db47e; } .ColorScheme-NegativeText { color:#dd4747; }
  </style>
  </defs>
  <path
     style="fill:currentColor"
     class="ColorScheme-Text"
     d="M 0,0 V 7 H 8 V 0 Z M 9.3354871,1.134805 9,1.3207609 V 5 h 1 v -2.3595935 0 C 10.108994,2.6789417 10.216347,2.4354731 10.321982,2.479769 12.535602,3.4080024 13.995037,5.5775031 14,8 h 1 c -0.0029,-3.3633293 -2.393632,-6.2312758 -5.6645129,-6.865195 -0.1108379,-0.021481 0.1128006,0.016283 0,0 z M 1,8 c 0.00289,3.349694 2.3742866,6.208013 5.6247741,6.857375 C 6.7486011,14.882112 6.8737038,14.534839 7,14.55307 v 0 L 7,11 H 6 v 2.327604 l -0.283119,0.208764 c -0.095654,-0.03382 0.093075,0.03827 0,0 C 3.481495,12.617331 2.0049921,10.436646 2,8 Z M 12.5,9 C 10.567003,9 9,10.567003 9,12.5 c 0.00112,0.755068 0.246401,1.489527 0.6992188,2.09375 l 0.7167972,-0.716797 c -0.270492,-0.405667 -0.4164553,-0.881576 -0.4199222,-1.369141 0,-1.380712 1.1192882,-2.5 2.5000002,-2.5 0.489828,7.83e-4 0.968635,0.145444 1.376953,0.416016 L 14.589844,9.7070312 C 13.984261,9.2523155 13.24753,9.0062818 12.490234,9.0058594 Z m 2.804688,1.398438 -0.0039,0.0078 -0.716797,0.716797 c 0.270491,0.405667 0.416455,0.881576 0.419922,1.369141 0,1.380712 -1.119288,2.5 -2.5,2.5 -0.489828,-7.83e-4 -0.968635,-0.145444 -1.376953,-0.416016 l -0.716797,0.716797 c 0.604223,0.452818 1.338682,0.698094 2.09375,0.699219 1.932997,0 3.5,-1.567003 3.5,-3.5 -0.0011,-0.755068 -0.246401,-1.489527 -0.699218,-2.09375 z"
     id="path5"
     sodipodi:nodetypes="cccccccccccsccsccsccccccscccccccccccccccccccccc" />
</svg>
