<?xml version="1.0" encoding="UTF-8" standalone="no"?>
<svg
   width="16"
   height="16"
   version="1.1"
   id="svg7"
   sodipodi:docname="fcitx-remind-active.svg"
   inkscape:version="1.1.2 (0a00cf5339, 2022-02-04)"
   xmlns:inkscape="http://www.inkscape.org/namespaces/inkscape"
   xmlns:sodipodi="http://sodipodi.sourceforge.net/DTD/sodipodi-0.dtd"
   xmlns="http://www.w3.org/2000/svg"
   xmlns:svg="http://www.w3.org/2000/svg">
  <sodipodi:namedview
     id="namedview9"
     pagecolor="#191919"
     bordercolor="#666666"
     borderopacity="1.0"
     inkscape:pageshadow="2"
     inkscape:pageopacity="0"
     inkscape:pagecheckerboard="0"
     showgrid="false"
     inkscape:zoom="47.25"
     inkscape:cx="8"
     inkscape:cy="8"
     inkscape:window-width="1880"
     inkscape:window-height="966"
     inkscape:window-x="0"
     inkscape:window-y="29"
     inkscape:window-maximized="1"
     inkscape:current-layer="svg7" />
  <defs
     id="defs3">
    <style
       id="current-color-scheme"
       type="text/css">
   .ColorScheme-Text { color:#eeeeec; } .ColorScheme-Highlight { color:#367bf0; } .ColorScheme-NeutralText { color:#ffcc44; } .ColorScheme-PositiveText { color:#3db47e; } .ColorScheme-NegativeText { color:#dd4747; }
  </style>
  </defs>
  <path
     style="fill:currentColor"
     class="ColorScheme-Text"
     d="M 8,0 C 5.2377,0 3,2.31 3,5.16 3,6.84 3.7694,8.3198 4.9852,9.2598 5.5396,9.6898 5.9753,10.25 5.9753,11.02 L 6,12 h 4 l 0.029,-0.98 C 10.068,10.25 10.46,9.6898 11.015,9.2598 12.231,8.3198 13,6.84 13,5.16 13,2.31 10.762,0 8,0 Z m 0,2.0605 c 1.6535,0 3.005,1.3895 3.005,3.0995 0,0.97 -0.438,1.8694 -1.1965,2.4494 -0.9837944,0.7672951 -1.4349539,1.6103877 -1.6375253,2.3572587 -0.029755,0.1097053 0.019928,-0.1050076 0,0 l -0.3384889,0.012839 c -0.01915,-0.1009081 0.028192,0.1052652 0,0 C 7.6316107,9.2294596 7.1809359,8.3810951 6.1915,7.6094 5.4328,7.0294 4.9947,6.13 4.9947,5.16 4.9947,3.45 6.3465,2.0605 8,2.0605 Z M 6,13 v 2 c 0,1 1.0274,1 1.0274,1 h 1.9452 c 0,0 1.0564,0 1.0274,-1 v -2 z"
     id="path5"
     sodipodi:nodetypes="ssccccccsssscsccscsscsccccc" />
</svg>
