<?xml version="1.0" encoding="UTF-8" standalone="no"?>
<svg
   width="16"
   height="16"
   version="1.1"
   id="svg7"
   sodipodi:docname="fcitx-chttrans-inactive.svg"
   inkscape:version="1.1.2 (0a00cf5339, 2022-02-04)"
   xmlns:inkscape="http://www.inkscape.org/namespaces/inkscape"
   xmlns:sodipodi="http://sodipodi.sourceforge.net/DTD/sodipodi-0.dtd"
   xmlns="http://www.w3.org/2000/svg"
   xmlns:svg="http://www.w3.org/2000/svg">
  <sodipodi:namedview
     id="namedview9"
     pagecolor="#000000"
     bordercolor="#666666"
     borderopacity="1.0"
     inkscape:pageshadow="2"
     inkscape:pageopacity="0"
     inkscape:pagecheckerboard="0"
     showgrid="false"
     inkscape:zoom="51.6875"
     inkscape:cx="7.9903265"
     inkscape:cy="8"
     inkscape:window-width="1920"
     inkscape:window-height="1051"
     inkscape:window-x="0"
     inkscape:window-y="29"
     inkscape:window-maximized="1"
     inkscape:current-layer="svg7" />
  <defs
     id="defs3">
    <style
       id="current-color-scheme"
       type="text/css">
   .ColorScheme-Text { color:#eeeeec; } .ColorScheme-Highlight { color:#367bf0; } .ColorScheme-NeutralText { color:#ffcc44; } .ColorScheme-PositiveText { color:#3db47e; } .ColorScheme-NegativeText { color:#dd4747; }
  </style>
  </defs>
  <path
     style="fill:currentColor"
     class="ColorScheme-Text"
     d="M 2,0 C 0.892,0 0,0.892 0,2 v 12 c 0,1.108 0.892,2 2,2 h 12 c 1.108,0 2,-0.892 2,-2 V 2 C 16,0.892 15.108,0 14,0 Z m 4,2 h 7 c -0.228,3.0343 -1.036,5.674 -2.439,7.8359 1.024,1.2901 2.37,2.4091 4.039,3.3571 l -0.569,1.08 c -1.549641,-0.828502 -2.875406,-1.879073 -3.979955,-3.152572 -0.057991,-0.06686 0.05677,0.06809 0,0 -0.058525,0.07263 -0.2900561,-0.05787 -0.3503037,0.01337 C 8.6287106,12.401279 7.2839825,13.447398 5.668,14.273 L 4.9844,13.25 C 6.7291,12.378 8.0959,11.258 9.082,9.8926 7.8304,8.0341 6.9579,5.655 6.4649,3 H 6 Z M 2.3516,2.377 c 0.8458,0.4613 1.6146,1.0202 2.3066,1.6738 l -0.75,0.9804 C 3.1393,4.3008 2.3504,3.6854 1.543,3.1855 Z M 7.6016,3 c 0.4330577,2.1654791 1.1236335,4.1160882 2.0718995,5.639782 0.048266,0.077555 0.2204629,-0.069618 0.2700641,0.0057 0.041715,-0.074184 -0.040461,0.074891 0,0 C 10.896017,6.88252 11.500839,4.9282857 11.756,3 Z M 1.7754,5.6523 c 0.7689,0.423 1.4792,0.9032 2.1328,1.4414 L 3.1016,8.0742 C 2.448,7.4206 1.7357,6.8819 0.9668,6.459 Z M 3.1016,8.9863 4.082,9.6797 C 3.6207,11.487 2.9468,13.236 2.0625,14.928 L 0.91016,14.119 C 1.8329,12.504 2.5633,10.793 3.1016,8.9863 Z"
     id="path5"
     sodipodi:nodetypes="ssssssssscccccscsccccccccccccscscccccccccccc" />
</svg>
