<?xml version="1.0" encoding="UTF-8" standalone="no"?>
<svg
   width="16"
   height="16"
   viewBox="0 0 16 16"
   version="1.1"
   id="svg7"
   sodipodi:docname="filename-composer-amarok.svg"
   inkscape:version="1.1.2 (0a00cf5339, 2022-02-04)"
   xmlns:inkscape="http://www.inkscape.org/namespaces/inkscape"
   xmlns:sodipodi="http://sodipodi.sourceforge.net/DTD/sodipodi-0.dtd"
   xmlns="http://www.w3.org/2000/svg"
   xmlns:svg="http://www.w3.org/2000/svg">
  <sodipodi:namedview
     id="namedview9"
     pagecolor="#000000"
     bordercolor="#666666"
     borderopacity="1.0"
     inkscape:pageshadow="2"
     inkscape:pageopacity="0"
     inkscape:pagecheckerboard="0"
     showgrid="false"
     inkscape:zoom="47.25"
     inkscape:cx="8"
     inkscape:cy="8"
     inkscape:window-width="1912"
     inkscape:window-height="966"
     inkscape:window-x="0"
     inkscape:window-y="29"
     inkscape:window-maximized="1"
     inkscape:current-layer="svg7" />
  <defs
     id="defs3">
    <style
       id="current-color-scheme"
       type="text/css">
   .ColorScheme-Text { color:#eeeeec; } .ColorScheme-Highlight { color:#367bf0; } .ColorScheme-NeutralText { color:#ffcc44; } .ColorScheme-PositiveText { color:#3db47e; } .ColorScheme-NegativeText { color:#dd4747; }
  </style>
  </defs>
  <path
     style="fill:currentColor"
     class="ColorScheme-Text"
     d="M 3,1 C 3,1 2,1 2,2 v 12 c 0,1 1,1 1,1 H 7 V 13 H 4.2794183 v 0 L 4,12.681783 V 3.2430743 L 4.2794183,3.0039062 v 0 h 7.4075077 v 0 L 12,3.3063739 v 4.6838605 h 2 V 2 C 14,1 13,1 13,1 Z m 9,8.1905408 -0.198756,0.00821 -3.6400821,3.6400823 v 0 L 8,13.210993 v 1.523689 L 8.2582452,15 v 0 h 1.5238586 l 0.3683732,-0.150477 v 0 l 3.650728,-3.650728 0.01022,-0.387368 v 0 L 12.192298,9.1922982 Z"
     id="path5"
     sodipodi:nodetypes="cssccccccccccccccscccccccccccccccccc" />
</svg>
