<?xml version="1.0" encoding="UTF-8" standalone="no"?>
<svg
   width="16"
   height="16"
   version="1.1"
   id="svg7"
   sodipodi:docname="fitbest.svg"
   inkscape:version="1.1.2 (0a00cf5339, 2022-02-04)"
   xmlns:inkscape="http://www.inkscape.org/namespaces/inkscape"
   xmlns:sodipodi="http://sodipodi.sourceforge.net/DTD/sodipodi-0.dtd"
   xmlns="http://www.w3.org/2000/svg"
   xmlns:svg="http://www.w3.org/2000/svg">
  <sodipodi:namedview
     id="namedview9"
     pagecolor="#000000"
     bordercolor="#666666"
     borderopacity="1.0"
     inkscape:pageshadow="2"
     inkscape:pageopacity="0"
     inkscape:pagecheckerboard="0"
     showgrid="false"
     inkscape:zoom="47.25"
     inkscape:cx="8"
     inkscape:cy="8"
     inkscape:window-width="1912"
     inkscape:window-height="966"
     inkscape:window-x="0"
     inkscape:window-y="29"
     inkscape:window-maximized="1"
     inkscape:current-layer="svg7" />
  <defs
     id="defs3">
    <style
       id="current-color-scheme"
       type="text/css">
   .ColorScheme-Text { color:#eeeeec; } .ColorScheme-Highlight { color:#367bf0; } .ColorScheme-NeutralText { color:#ffcc44; } .ColorScheme-PositiveText { color:#3db47e; } .ColorScheme-NegativeText { color:#dd4747; }
  </style>
  </defs>
  <path
     style="fill:currentColor"
     class="ColorScheme-Text"
     d="M 8.2327094,0.31027922 7.7529295,0.32942729 5.2666648,3.6444469 5.4439226,4 V 4 H 7 V 7 H 4 V 5.3804802 L 3.6915909,5.2313068 v 0 L 0.28524254,7.7860681 v 0 L 0.30683986,8.2301299 3.7030084,10.777256 4,10.629206 v 0 V 9 h 3 v 3 H 5.4223116 l -0.2044304,0.290508 v 0 l 2.5117813,3.349042 0.5592338,-0.02474 v 0 l 2.4633707,-3.284494 v 0 L 10.52304,12 H 9 V 9 h 3 v 1.52317 l 0.410856,0.168688 v 0 L 15.74963,8.1877778 15.767224,8 15.679922,7.7599419 12.29705,5.2227875 12,5.3804802 v 0 V 7 H 9 V 4 h 1.628622 v 0 l 0.123273,-0.3308073 z"
     id="path5"
     sodipodi:nodetypes="ccccccccccccccccccccccccccccccccccccccccccccccccc" />
</svg>
