<?xml version="1.0" encoding="UTF-8" standalone="no"?>
<svg
   width="16"
   height="16"
   version="1.1"
   id="svg972201"
   sodipodi:docname="focus-legacy-systray.svg"
   inkscape:version="1.1.2 (0a00cf5339, 2022-02-04)"
   xmlns:inkscape="http://www.inkscape.org/namespaces/inkscape"
   xmlns:sodipodi="http://sodipodi.sourceforge.net/DTD/sodipodi-0.dtd"
   xmlns="http://www.w3.org/2000/svg"
   xmlns:svg="http://www.w3.org/2000/svg">
  <sodipodi:namedview
     id="namedview972203"
     pagecolor="#000000"
     bordercolor="#666666"
     borderopacity="1.0"
     inkscape:pageshadow="2"
     inkscape:pageopacity="0"
     inkscape:pagecheckerboard="0"
     showgrid="false"
     inkscape:zoom="51.6875"
     inkscape:cx="7.9903265"
     inkscape:cy="8"
     inkscape:window-width="1920"
     inkscape:window-height="1051"
     inkscape:window-x="0"
     inkscape:window-y="29"
     inkscape:window-maximized="1"
     inkscape:current-layer="svg972201" />
  <defs
     id="defs972197">
    <style
       id="current-color-scheme"
       type="text/css">
   .ColorScheme-Text { color:#eeeeec; } .ColorScheme-Highlight { color:#367bf0; } .ColorScheme-NeutralText { color:#ffcc44; } .ColorScheme-PositiveText { color:#3db47e; } .ColorScheme-NegativeText { color:#dd4747; }
  </style>
  </defs>
  <path
     style="fill:currentColor"
     class="ColorScheme-Text"
     d="M 0,2 V 14 H 10 V 4 C 10,2 8,2 8,2 Z m 10,0 c 0,0 1,0 1,2 v 10 h 1 V 4 C 12,2 10,2 10,2 Z m 2,0 c 0,0 1,0 1,2 v 10 h 1 V 4 C 14,2 12,2 12,2 Z M 3,5.4369196 3.3553939,5.2369293 7.1799812,7.7866541 7.1692483,8.2205011 v 0 l -3.813983,2.5426549 v 0 L 3,10.46394 Z"
     id="path972199"
     sodipodi:nodetypes="cccscccsccsccsccsccccccccccc" />
</svg>
