<?xml version="1.0" encoding="UTF-8" standalone="no"?>
<svg
   width="16"
   height="16"
   version="1.1"
   id="svg25"
   sodipodi:docname="format-currency.svg"
   inkscape:version="1.2 (dc2aedaf03, 2022-05-15)"
   xmlns:inkscape="http://www.inkscape.org/namespaces/inkscape"
   xmlns:sodipodi="http://sodipodi.sourceforge.net/DTD/sodipodi-0.dtd"
   xmlns="http://www.w3.org/2000/svg"
   xmlns:svg="http://www.w3.org/2000/svg">
  <sodipodi:namedview
     id="namedview27"
     pagecolor="#505050"
     bordercolor="#ffffff"
     borderopacity="1"
     inkscape:showpageshadow="0"
     inkscape:pageopacity="0"
     inkscape:pagecheckerboard="1"
     inkscape:deskcolor="#505050"
     showgrid="false"
     inkscape:zoom="54.8125"
     inkscape:cx="8"
     inkscape:cy="8"
     inkscape:window-width="1489"
     inkscape:window-height="1080"
     inkscape:window-x="214"
     inkscape:window-y="-1"
     inkscape:window-maximized="1"
     inkscape:current-layer="svg25" />
  <defs
     id="defs21">
    <style
       id="current-color-scheme"
       type="text/css">
   .ColorScheme-Text { color:#eeeeec; } .ColorScheme-Highlight { color:#367bf0; } .ColorScheme-NeutralText { color:#ffcc44; } .ColorScheme-PositiveText { color:#3db47e; } .ColorScheme-NegativeText { color:#dd4747; }
  </style>
  </defs>
  <path
     style="fill:currentColor"
     class="ColorScheme-Text"
     d="M 6,0 V 2 C 4,2 2,3.5 2,5.5 2,7.5 4,9 6,9 v 3 H 4 c 0,0 -1,0 -1,1 0,1 1,1 1,1 h 2 v 2 h 1 v -2 h 1 v 2 h 1 v -2 c 2,0 4,-1.5 4,-3.5 C 13,8.5 12,7 9,7 V 4 h 2 C 11,4 12,4 12,3 12,2 11,2 11,2 H 9 V 0 H 8 V 2 H 7 V 0 Z M 8,4 V 7 H 7 V 4 Z M 5.841082,4.0937556 6,4.2111897 v 2.5376829 l -0.1781319,0.096781 c -0.081963,0 0.017192,0.152853 -0.058882,0.1498673 C 4.4468509,6.9438651 4,6.445358 4,5.5 4,4.5649331 4.4371751,4.0670412 5.7203132,4.0063245 c 0.089104,-0.00422 0.023369,0.087431 0.1207688,0.087431 z M 7,9 h 1 v 3 H 7 Z m 2.1537568,0.1391229 c 0.08489,0 0.012821,-0.1375215 0.091397,-0.1343186 C 10.554992,9.058195 11,9.5565936 11,10.5 c 0,0.923663 -0.426577,1.42075 -1.6737446,1.491259 -0.1030728,0.0058 -0.077645,-0.116095 -0.1921501,-0.116095 L 9,11.745321 V 9.2424447 Z"
     id="path23"
     sodipodi:nodetypes="ccscccscccccccccscccscccccccccccccccccssscccccccssscccc" />
</svg>
