<?xml version="1.0" encoding="UTF-8" standalone="no"?>
<svg
   width="16"
   height="16"
   version="1.1"
   id="svg7"
   sodipodi:docname="format-text-remove-formatting.svg"
   inkscape:version="1.1.2 (0a00cf5339, 2022-02-04)"
   xmlns:inkscape="http://www.inkscape.org/namespaces/inkscape"
   xmlns:sodipodi="http://sodipodi.sourceforge.net/DTD/sodipodi-0.dtd"
   xmlns="http://www.w3.org/2000/svg"
   xmlns:svg="http://www.w3.org/2000/svg">
  <sodipodi:namedview
     id="namedview9"
     pagecolor="#000000"
     bordercolor="#666666"
     borderopacity="1.0"
     inkscape:pageshadow="2"
     inkscape:pageopacity="0"
     inkscape:pagecheckerboard="0"
     showgrid="false"
     inkscape:zoom="51.6875"
     inkscape:cx="7.9903265"
     inkscape:cy="8"
     inkscape:window-width="1920"
     inkscape:window-height="1051"
     inkscape:window-x="0"
     inkscape:window-y="29"
     inkscape:window-maximized="1"
     inkscape:current-layer="svg7" />
  <defs
     id="defs3">
    <style
       id="current-color-scheme"
       type="text/css">
   .ColorScheme-Text { color:#eeeeec; } .ColorScheme-Highlight { color:#367bf0; } .ColorScheme-NeutralText { color:#ffcc44; } .ColorScheme-PositiveText { color:#3db47e; } .ColorScheme-NegativeText { color:#dd4747; }
  </style>
  </defs>
  <path
     style="fill:currentColor"
     class="ColorScheme-Text"
     d="M 2.5,0.5 1,2 5.7740188,6.7740188 v 0 c -0.091649,0 0.045484,0.228781 -0.04065,0.2342096 C 3,7.180497 3,10 3,10 c 0,0 0,3 3,3 h 6 l 2,2 1.5,-1.5 z M 7.2514064,3 7.2618894,3.2618894 9,5 h 1 c 0,0 1,0 1,1 V 7 L 12.68779,8.6877899 13,8.6353915 v 0 V 6 C 13,3 10,3 10,3 Z M 6,9 H 8 L 9.8183989,10.818399 9.7218178,11 v 0 H 6 C 5,11 5,10 5,10 5,10 5,9 6,9 Z"
     id="path5"
     sodipodi:nodetypes="ccccscsccccccccsccccscccsccccscs" />
</svg>
