<?xml version="1.0" encoding="UTF-8" standalone="no"?>
<svg
   width="16"
   height="16"
   viewBox="0 0 16 16"
   version="1.1"
   id="svg7"
   sodipodi:docname="format-precision-less.svg"
   inkscape:version="1.1.2 (0a00cf5339, 2022-02-04)"
   xmlns:inkscape="http://www.inkscape.org/namespaces/inkscape"
   xmlns:sodipodi="http://sodipodi.sourceforge.net/DTD/sodipodi-0.dtd"
   xmlns="http://www.w3.org/2000/svg"
   xmlns:svg="http://www.w3.org/2000/svg">
  <sodipodi:namedview
     id="namedview9"
     pagecolor="#000000"
     bordercolor="#666666"
     borderopacity="1.0"
     inkscape:pageshadow="2"
     inkscape:pageopacity="0"
     inkscape:pagecheckerboard="0"
     showgrid="false"
     inkscape:zoom="133.28963"
     inkscape:cx="12.093964"
     inkscape:cy="13.838286"
     inkscape:window-width="1920"
     inkscape:window-height="1051"
     inkscape:window-x="0"
     inkscape:window-y="29"
     inkscape:window-maximized="1"
     inkscape:current-layer="svg7" />
  <defs
     id="defs3">
    <style
       id="current-color-scheme"
       type="text/css">
   .ColorScheme-Text { color:#eeeeec; } .ColorScheme-Highlight { color:#367bf0; } .ColorScheme-NeutralText { color:#ffcc44; } .ColorScheme-PositiveText { color:#3db47e; } .ColorScheme-NegativeText { color:#dd4747; }
  </style>
  </defs>
  <path
     style="fill:currentColor"
     class="ColorScheme-Text"
     d="M 4.5,0 C 2.567,0 1,1.7909 1,4 V 7 C 1,9.2091 2.567,11 4.5,11 6.433,11 8,9.2091 8,7 V 4 C 8,1.7909 6.433,0 4.5,0 Z m 8,0 C 10.567,0 9,1.7909 9,4 v 3 c 0,2.2091 1.567,4 3.5,4 C 14.433,11 16,9.2091 16,7 V 4 C 16,1.7909 14.433,0 12.5,0 Z m -8,2 C 5.32843,2 6,3.0452844 6,4.3339844 V 6.6660156 C 6,7.9547156 5.32843,9 4.5,9 3.67157,9 3,7.9547156 3,6.6660156 V 4.3339844 C 3,3.0452844 3.67157,2 4.5,2 Z m 8,0 C 13.32843,2 14,3.0452844 14,4.3339844 V 6.6660156 C 14,7.9547156 13.32843,9 12.5,9 11.67157,9 11,7.9547156 11,6.6660156 V 4.3339844 C 11,3.0452844 11.67157,2 12.5,2 Z M 0,10 v 1 h 1 v -1 z m 11.792612,1.843391 -0.157657,-0.0135 -0.555945,0.555946 0.02561,0.18363 v 0 l 1.248823,1.248823 0.0127,0.108537 v 0 l -1.226633,1.226634 -0.03876,0.240267 v 0 l 0.495092,0.495092 0.213217,0.0091 v 0 l 1.260408,-1.260407 v 0 l 0.116798,0.01356 1.230385,1.230385 0.231913,0.0051 v 0 l 0.483878,-0.483879 0.0062,-0.213299 v 0 l -1.245393,-1.245393 v 0 l -0.006,-0.124214 1.24911,-1.249109 v 0 l 0.0059,-0.205781 -0.502695,-0.502695 v 0 l -0.221496,0.01268 -1.221123,1.221124 v 0 l -0.148466,0.0032 z"
     id="path5"
     sodipodi:nodetypes="sssssssssssssssssssssssssssscccccccccccccccccccccccccccccccccccccccccc" />
</svg>
