<?xml version="1.0" encoding="UTF-8" standalone="no"?>
<svg
   width="16"
   height="16"
   version="1.1"
   id="svg7"
   sodipodi:docname="format-text-subscript.svg"
   inkscape:version="1.1.2 (0a00cf5339, 2022-02-04)"
   xmlns:inkscape="http://www.inkscape.org/namespaces/inkscape"
   xmlns:sodipodi="http://sodipodi.sourceforge.net/DTD/sodipodi-0.dtd"
   xmlns="http://www.w3.org/2000/svg"
   xmlns:svg="http://www.w3.org/2000/svg">
  <sodipodi:namedview
     id="namedview9"
     pagecolor="#ffffff"
     bordercolor="#666666"
     borderopacity="1.0"
     inkscape:pageshadow="2"
     inkscape:pageopacity="0.0"
     inkscape:pagecheckerboard="0"
     showgrid="false"
     inkscape:zoom="47.125"
     inkscape:cx="8"
     inkscape:cy="8"
     inkscape:window-width="1745"
     inkscape:window-height="966"
     inkscape:window-x="0"
     inkscape:window-y="29"
     inkscape:window-maximized="1"
     inkscape:current-layer="svg7" />
  <defs
     id="defs3">
    <style
       id="current-color-scheme"
       type="text/css">
   .ColorScheme-Text { color:#eeeeec; } .ColorScheme-Highlight { color:#367bf0; } .ColorScheme-NeutralText { color:#ffcc44; } .ColorScheme-PositiveText { color:#3db47e; } .ColorScheme-NegativeText { color:#dd4747; }
  </style>
  </defs>
  <path
     style="fill:currentColor"
     class="ColorScheme-Text"
     d="m 11,9 v 6 h 3 c 2,0 2,-2 2,-2 0,0 0,-1.291 -1.172,-1.816 C 14.828,11.184 15,11 15,10.5 15,10.5 15,9 13.5,9 Z m 1,1 h 1.5 c 0.5,0 0.5,0.5 0.5,0.5 0,0 0,0.5 -0.5,0.5 H 12 Z m 0,2 h 2 c 1,0 1,1 1,1 0,0 0,1 -1,1 H 12 Z M 7,1 2,15 H 4.5 L 5.5625,12 H 10 V 8 h 1.625 L 9,1 Z m 1.1417246,4.4049274 v 0 L 9.6384258,9.6812165 9.4685803,10 v 0 H 6.5615947 v 0 L 6.3599668,9.6858091 7.8499764,5.428639 Z"
     id="path5"
     sodipodi:nodetypes="ccscccsccscscccscsccccccccccccccccccccc" />
</svg>
