<?xml version="1.0" encoding="UTF-8" standalone="no"?>
<svg
   width="16"
   height="16"
   version="1.1"
   id="svg7"
   sodipodi:docname="format-text-superscript.svg"
   inkscape:version="1.1.2 (0a00cf5339, 2022-02-04)"
   xmlns:inkscape="http://www.inkscape.org/namespaces/inkscape"
   xmlns:sodipodi="http://sodipodi.sourceforge.net/DTD/sodipodi-0.dtd"
   xmlns="http://www.w3.org/2000/svg"
   xmlns:svg="http://www.w3.org/2000/svg">
  <sodipodi:namedview
     id="namedview9"
     pagecolor="#000000"
     bordercolor="#666666"
     borderopacity="1.0"
     inkscape:pageshadow="2"
     inkscape:pageopacity="0"
     inkscape:pagecheckerboard="0"
     showgrid="false"
     inkscape:zoom="47.125"
     inkscape:cx="8"
     inkscape:cy="7.9893899"
     inkscape:window-width="1920"
     inkscape:window-height="1051"
     inkscape:window-x="0"
     inkscape:window-y="29"
     inkscape:window-maximized="1"
     inkscape:current-layer="svg7" />
  <defs
     id="defs3">
    <style
       id="current-color-scheme"
       type="text/css">
   .ColorScheme-Text { color:#eeeeec; } .ColorScheme-Highlight { color:#367bf0; } .ColorScheme-NeutralText { color:#ffcc44; } .ColorScheme-PositiveText { color:#3db47e; } .ColorScheme-NegativeText { color:#dd4747; }
  </style>
  </defs>
  <path
     style="fill:currentColor"
     class="ColorScheme-Text"
     d="m 11,0 v 6 h 3 C 16,6 16,4 16,4 16,4 16,2.709 14.828,2.184 14.828,2.184 15,2 15,1.5 15,1.5 15,0 13.5,0 Z m 1.181387,1 V 1 H 13.5 C 14,1 14,1.5 14,1.5 14,1.5 14,2 13.5,2 H 12.247711 V 2 L 12,1.8108953 V 1.2069548 Z M 12,3.2154887 12.271629,3 H 14 c 1,0 1,1 1,1 0,0 0,1 -1,1 H 12.226614 V 5 L 12,4.7970065 Z M 7,1 2,15 h 2.5 l 1.0625,-3 h 4.8755 l 1.062,3 h 2.75 L 9,1 Z M 7.841341,5.4533116 8.1616146,5.4617559 9.6453317,9.7009478 9.4047346,10 v 0 H 6.5615947 v 0 L 6.3605806,9.6840554 Z"
     id="path5"
     sodipodi:nodetypes="ccscccscccscscccccccscsccccccccccccccccccccccc" />
</svg>
