<?xml version="1.0" encoding="UTF-8" standalone="no"?>
<svg
   width="16"
   height="16"
   viewBox="0 0 16 16"
   version="1.1"
   id="svg674204"
   sodipodi:docname="format-text-symbol.svg"
   inkscape:version="1.1.2 (0a00cf5339, 2022-02-04)"
   xmlns:inkscape="http://www.inkscape.org/namespaces/inkscape"
   xmlns:sodipodi="http://sodipodi.sourceforge.net/DTD/sodipodi-0.dtd"
   xmlns="http://www.w3.org/2000/svg"
   xmlns:svg="http://www.w3.org/2000/svg">
  <sodipodi:namedview
     id="namedview674206"
     pagecolor="#000000"
     bordercolor="#666666"
     borderopacity="1.0"
     inkscape:pageshadow="2"
     inkscape:pageopacity="0"
     inkscape:pagecheckerboard="0"
     showgrid="false"
     inkscape:zoom="51.6875"
     inkscape:cx="7.9903265"
     inkscape:cy="8"
     inkscape:window-width="1920"
     inkscape:window-height="1051"
     inkscape:window-x="0"
     inkscape:window-y="29"
     inkscape:window-maximized="1"
     inkscape:current-layer="svg674204" />
  <defs
     id="defs674200">
    <style
       id="current-color-scheme"
       type="text/css">
   .ColorScheme-Text { color:#eeeeec; } .ColorScheme-Highlight { color:#367bf0; } .ColorScheme-NeutralText { color:#ffcc44; } .ColorScheme-PositiveText { color:#3db47e; } .ColorScheme-NegativeText { color:#dd4747; }
  </style>
  </defs>
  <path
     style="fill:currentColor"
     class="ColorScheme-Text"
     d="m 5.375,0.98046875 c 0,0 -4.013257,2.293e-5 -4.3522481,3.84376445 -0.014948,0.1694946 0,-0.1847723 0,0 C 1.1167474,4.6362503 1.1837604,5.0042819 1.272374,4.8626989 2.0076948,3.6878352 2.6637428,4.0017403 5,4 4.989539,13.57 2.752175,12.960531 2.75,14.488281 c 1.31325,1.008075 3.36495,0.44935 3.515625,-1.53125 L 7,3.9726562 10,3.9609375 9.75,13.011719 c 0,2.625 3.50005,2.625 4.375,0 l 0.591151,-1.773452 -0.139328,-0.133892 c -0.114437,0.228865 0.16436,-0.244972 0,0 -1.092389,1.628162 -3.067407,3.307259 -3.000651,0.985469 L 12,3.9746094 15,3.9648438 V 0.98046875 Z"
     id="path674202"
     sodipodi:nodetypes="cscscccccccccsccccc" />
</svg>
