<?xml version="1.0" encoding="UTF-8" standalone="no"?>
<svg
   viewBox="0 0 22 22"
   version="1.1"
   id="svg6"
   sodipodi:docname="games-highscores.svg"
   inkscape:version="1.1.2 (0a00cf5339, 2022-02-04)"
   xmlns:inkscape="http://www.inkscape.org/namespaces/inkscape"
   xmlns:sodipodi="http://sodipodi.sourceforge.net/DTD/sodipodi-0.dtd"
   xmlns="http://www.w3.org/2000/svg"
   xmlns:svg="http://www.w3.org/2000/svg">
  <sodipodi:namedview
     id="namedview8"
     pagecolor="#ffffff"
     bordercolor="#666666"
     borderopacity="1.0"
     inkscape:pageshadow="2"
     inkscape:pageopacity="0.0"
     inkscape:pagecheckerboard="0"
     showgrid="false"
     inkscape:zoom="34.272727"
     inkscape:cx="11"
     inkscape:cy="11"
     inkscape:window-width="1745"
     inkscape:window-height="966"
     inkscape:window-x="0"
     inkscape:window-y="29"
     inkscape:window-maximized="1"
     inkscape:current-layer="svg6" />
  <defs
     id="defs3051">
    <style
       type="text/css"
       id="current-color-scheme">
     .ColorScheme-Text {
       color:#f2f2f2;
     }
     </style>
  </defs>
  <path
     style="fill:currentColor;fill-opacity:1;stroke:none"
     d="m 7.8554688,3 c -0.2756445,0 -0.5000001,0.2243971 -0.5,0.5 V 4.609375 C 7.0248199,4.5217416 6.6919891,4.4962649 6.3730469,4.5410156 5.7247427,4.6319285 5.1772095,5.0116769 4.8320312,5.6113281 4.4099714,6.3446088 4.4611385,7.2947043 4.9746094,8.2851562 c 0.4428992,0.8543733 1.1966885,1.6804001 2.1210937,2.3261718 0.1968949,0.137573 0.2191074,0.285094 0.203125,0.384766 -0.018099,0.112914 -0.091936,0.204276 -0.1855469,0.232422 -0.1406866,0.04234 -0.4088383,-0.04156 -0.7402343,-0.402344 -0.2388642,-0.260036 -0.6422666,-0.276015 -0.9023438,-0.03711 -0.2600357,0.238906 -0.2779682,0.64235 -0.039063,0.902344 0.6145958,0.669019 1.2024299,0.824219 1.6132813,0.824219 0.1875544,0 0.3377034,-0.0324 0.4375,-0.0625 0.2132923,-0.06414 0.4072505,-0.176431 0.5703125,-0.322266 0.4655651,0.63996 1.1339929,1.124492 1.9101562,1.355469 v 1.835938 H 8.4101562 c -0.7324089,0 -1.3281249,0.595674 -1.328125,1.328125 v 1.726562 C 7.0820312,18.720844 7.3611868,19 7.7050781,19 h 6.5898439 c 0.343891,0 0.623047,-0.279156 0.623047,-0.623047 v -1.726562 c 0,-0.732451 -0.595716,-1.328125 -1.328125,-1.328125 h -1.552735 v -1.835938 c 0.776081,-0.230977 1.44455,-0.715509 1.910157,-1.355469 0.163103,0.145876 0.356978,0.258129 0.570312,0.322266 0.0998,0.03001 0.249904,0.0625 0.4375,0.0625 0.410852,-4.2e-5 0.998727,-0.155283 1.613281,-0.824219 0.238906,-0.260118 0.220974,-0.663438 -0.03906,-0.902344 -0.260036,-0.238905 -0.663438,-0.222926 -0.902344,0.03711 -0.331437,0.360745 -0.599382,0.444562 -0.740234,0.402344 -0.09365,-0.02815 -0.167448,-0.119508 -0.185547,-0.232422 -0.01598,-0.09963 0.0062,-0.247234 0.203125,-0.384766 C 15.828702,9.9655147 16.582491,9.1395711 17.025391,8.2851562 17.53882,7.2947043 17.590029,6.3445673 17.167969,5.6113281 16.822832,5.0116769 16.275216,4.63197 15.626953,4.5410156 15.308052,4.4963064 14.975263,4.5217001 14.644531,4.609375 V 3.5 c 0,-0.2756445 -0.224438,-0.5 -0.5,-0.5 z M 6.5507812,5.8066406 c 0.2428079,-0.033957 0.5262617,0.027735 0.8046876,0.1640625 V 8.847617 L 7.1096845,8.9791606 c -0.084388,-0.071666 0.079369,0.074934 0,0 C 6.6848019,8.578018 6.3361066,8.1345686 6.109375,7.6972656 5.9321157,7.3554084 5.6753927,6.7122026 5.9414062,6.25 6.0918068,5.9887605 6.2907871,5.8430888 6.5507812,5.8066406 Z m 8.8984378,0 c 0.260035,0.036448 0.459057,0.1821199 0.609375,0.4433594 0.266055,0.4622026 0.0092,1.1054084 -0.167969,1.4472656 -0.22043,0.4252815 -0.556323,0.8563484 -0.965437,1.2487028 -0.09015,0.086455 0.09681,-0.08222 0,0 L 14.644531,8.8768544 V 5.9707031 c 0.278385,-0.1364108 0.561921,-0.1982274 0.804688,-0.1640625 z"
     class="ColorScheme-Text"
     id="path4"
     sodipodi:nodetypes="ssccccccccccsccccssssssssccccccsccccccccsssccccsccccccscccc" />
</svg>
