<?xml version="1.0" encoding="UTF-8" standalone="no"?>
<svg
   width="16"
   height="16"
   version="1.1"
   id="svg7"
   sodipodi:docname="gcr-gnupg.svg"
   inkscape:version="1.1.2 (0a00cf5339, 2022-02-04)"
   xmlns:inkscape="http://www.inkscape.org/namespaces/inkscape"
   xmlns:sodipodi="http://sodipodi.sourceforge.net/DTD/sodipodi-0.dtd"
   xmlns="http://www.w3.org/2000/svg"
   xmlns:svg="http://www.w3.org/2000/svg">
  <sodipodi:namedview
     id="namedview9"
     pagecolor="#ffffff"
     bordercolor="#666666"
     borderopacity="1.0"
     inkscape:pageshadow="2"
     inkscape:pageopacity="0.0"
     inkscape:pagecheckerboard="0"
     showgrid="false"
     inkscape:zoom="47.125"
     inkscape:cx="8"
     inkscape:cy="8"
     inkscape:window-width="1745"
     inkscape:window-height="966"
     inkscape:window-x="0"
     inkscape:window-y="29"
     inkscape:window-maximized="1"
     inkscape:current-layer="svg7" />
  <defs
     id="defs3">
    <style
       id="current-color-scheme"
       type="text/css">
   .ColorScheme-Text { color:#eeeeec; } .ColorScheme-Highlight { color:#367bf0; } .ColorScheme-NeutralText { color:#ffcc44; } .ColorScheme-PositiveText { color:#3db47e; } .ColorScheme-NegativeText { color:#dd4747; }
  </style>
  </defs>
  <path
     style="fill:currentColor;fill-rule:evenodd"
     class="ColorScheme-Text"
     d="M 8.0058594,0 C 5.1586894,0 3,2.3169881 3,5.1738281 V 8.0058594 H 2.0058594 L 2,7.9941406 v 3.4908274 0 c 0.075535,-0.101811 0.1545187,0.08438 0.237206,-0.01406 C 3.1211954,10.418482 4.4284895,9.5808037 6.4707031,9.4335938 8.1557642,9.3037047 10.904138,9.3401802 13,8.03125 V 5.1738281 C 13,2.3169881 10.853139,0 8.0058594,0 Z M 8,2 c 1.6566056,0 3,1.4235227 3,3.1796875 V 8 H 5 V 5.1796875 C 5,3.4235227 6.3434376,2 8,2 Z m 6.005859,7.0020036 c -0.07854,0.083293 -0.159579,-0.1382987 -0.24309,-0.055549 -1.22709,1.2159087 -2.988465,2.3461297 -5.2280937,2.5974767 -0.2962049,0.03324 0.3134127,0.128353 6.065e-4,0.129014 0.3102298,0.04122 -0.2983887,-0.01096 0,0 1.5055252,0.05531 2.8282462,-0.248385 3.6444062,-0.647554 0.97798,-0.47784 2.487413,-1.624361 1.433593,-0.238282 -1.001561,1.317273 -2.726941,2.780965 -6.9885929,2.867135 -0.2227015,0.0045 0.243729,0.151591 0.00692,0.148353 0.218262,0.05757 -0.2439344,-0.04016 0,0 1.4481678,0.238423 3.2513491,0.178768 4.2531612,-0.07604 1.17036,-0.29786 2.297581,-1.1058 1.263672,-0.04687 -1.033812,1.05879 -3.1347299,1.857274 -5.0371099,1.796874 -1.2807383,-0.04063 -2.0970093,-0.09748 -3.096104,0.379896 -0.090648,0.04331 0.1578507,0.09102 0.063709,0.143542 v 0 h 9.9269258 z"
     id="path5"
     sodipodi:nodetypes="sscccccsccssssccsscsscsccscscccsccccc" />
</svg>
