<?xml version="1.0" encoding="UTF-8" standalone="no"?>
<svg
   width="16"
   height="16"
   version="1.1"
   id="svg832964"
   sodipodi:docname="go-jump-definition.svg"
   inkscape:version="1.1.2 (0a00cf5339, 2022-02-04)"
   xmlns:inkscape="http://www.inkscape.org/namespaces/inkscape"
   xmlns:sodipodi="http://sodipodi.sourceforge.net/DTD/sodipodi-0.dtd"
   xmlns="http://www.w3.org/2000/svg"
   xmlns:svg="http://www.w3.org/2000/svg">
  <sodipodi:namedview
     id="namedview832966"
     pagecolor="#000000"
     bordercolor="#666666"
     borderopacity="1.0"
     inkscape:pageshadow="2"
     inkscape:pageopacity="0"
     inkscape:pagecheckerboard="0"
     showgrid="false"
     inkscape:zoom="51.6875"
     inkscape:cx="8.0096735"
     inkscape:cy="8"
     inkscape:window-width="1920"
     inkscape:window-height="1051"
     inkscape:window-x="0"
     inkscape:window-y="29"
     inkscape:window-maximized="1"
     inkscape:current-layer="svg832964" />
  <defs
     id="defs832960">
    <style
       id="current-color-scheme"
       type="text/css">
   .ColorScheme-Text { color:#eeeeec; } .ColorScheme-Highlight { color:#367bf0; } .ColorScheme-NeutralText { color:#ffcc44; } .ColorScheme-PositiveText { color:#3db47e; } .ColorScheme-NegativeText { color:#dd4747; }
  </style>
  </defs>
  <path
     style="fill:currentColor"
     class="ColorScheme-Text"
     d="M 5,2 1.5085648,2.8728588 v 0 L 1.5167977,3.1033595 6,4 9.5064101,3.1233975 v 0 L 9.4784245,2.8956849 Z M 13,2.2726209 12.792985,2.2070147 12,3 11.110292,3.8897081 v 0 l 0.03612,0.2567066 1.633399,1.6333991 L 13,5.7350233 v 0 -0.7262951 l 0.170344,-0.021518 c 0.05904,0.089237 -0.05449,-0.092348 0,0 C 13.691782,5.8709446 14,6.8941579 14,8 c 0,3.324 -2.676,5 -6,5 v 1 c 3.878,0 7,-2.122 7,-6 C 15,6.0909 14.232,4.3761 13,3.1172 Z M 1,4.3181273 v 0 V 9 l 3.7396013,0.9349003 v 0 L 5,9.6166868 V 5 L 1.3237629,4.0809407 Z M 9.7112099,4.0721975 v 0 L 6,5 V 9.6651335 L 6.2710119,9.932247 v 0 L 9.793246,9.0516885 10,9 V 4.296359 Z"
     id="path832962"
     sodipodi:nodetypes="ccccccccccccccccccccssccsccccccccccccccccccccc" />
</svg>
