<?xml version="1.0" encoding="UTF-8" standalone="no"?>
<svg
   width="16"
   height="16"
   version="1.1"
   id="svg7"
   sodipodi:docname="gtg-plugin.svg"
   inkscape:version="1.1.2 (0a00cf5339, 2022-02-04)"
   xmlns:inkscape="http://www.inkscape.org/namespaces/inkscape"
   xmlns:sodipodi="http://sodipodi.sourceforge.net/DTD/sodipodi-0.dtd"
   xmlns="http://www.w3.org/2000/svg"
   xmlns:svg="http://www.w3.org/2000/svg">
  <sodipodi:namedview
     id="namedview9"
     pagecolor="#000000"
     bordercolor="#666666"
     borderopacity="1.0"
     inkscape:pageshadow="2"
     inkscape:pageopacity="0"
     inkscape:pagecheckerboard="0"
     showgrid="false"
     inkscape:zoom="51.6875"
     inkscape:cx="8"
     inkscape:cy="8"
     inkscape:window-width="1107"
     inkscape:window-height="1043"
     inkscape:window-x="776"
     inkscape:window-y="32"
     inkscape:window-maximized="1"
     inkscape:current-layer="svg7" />
  <defs
     id="defs3">
    <style
       id="current-color-scheme"
       type="text/css">
   .ColorScheme-Text { color:#eeeeec; } .ColorScheme-Highlight { color:#367bf0; } .ColorScheme-NeutralText { color:#ffcc44; } .ColorScheme-PositiveText { color:#3db47e; } .ColorScheme-NegativeText { color:#dd4747; }
  </style>
  </defs>
  <path
     style="fill:currentColor"
     class="ColorScheme-Text"
     d="M 6.5,1 C 6.5,1 5,1 5,2.5 V 4 H 2 C 1,4 1,5 1,5 V 7.8062509 L 1.1975042,8 V 8 H 2.5 C 4,8 4,9.5 4,9.5 4,9.5 4,11 2.5,11 H 1.2111772 L 1,11.177243 v 0 V 14 c 0,1 1,1 1,1 H 4.8064257 L 5,14.846402 v 0 V 14 c 0,-2 1.5,-2 1.5,-2 0,0 1.5,0 1.5,2 v 0.803145 L 8.1748507,15 v 0 H 11 c 1,0 1,-1 1,-1 v -3 h 1.5 C 15,11 15,9.5 15,9.5 15,9.5 15,8 13.5,8 H 12 V 5 C 12,4 11,4 11,4 H 8 V 2.5 C 8,1 6.5,1 6.5,1 Z"
     id="path5"
     sodipodi:nodetypes="cscsccccscscccsccccscscccsccscscsccsc" />
</svg>
