<?xml version="1.0" encoding="UTF-8" standalone="no"?>
<svg
   width="16"
   height="16"
   viewBox="0 0 16 16"
   version="1.1"
   id="svg7"
   sodipodi:docname="stock_undo (copy).svg"
   inkscape:version="1.2 (dc2aedaf03, 2022-05-15)"
   xmlns:inkscape="http://www.inkscape.org/namespaces/inkscape"
   xmlns:sodipodi="http://sodipodi.sourceforge.net/DTD/sodipodi-0.dtd"
   xmlns="http://www.w3.org/2000/svg"
   xmlns:svg="http://www.w3.org/2000/svg">
  <sodipodi:namedview
     id="namedview9"
     pagecolor="#000000"
     bordercolor="#666666"
     borderopacity="1.0"
     inkscape:pageshadow="2"
     inkscape:pageopacity="0"
     inkscape:pagecheckerboard="0"
     showgrid="false"
     inkscape:zoom="103.375"
     inkscape:cx="8.0096735"
     inkscape:cy="4.8512696"
     inkscape:window-width="1574"
     inkscape:window-height="1080"
     inkscape:window-x="172"
     inkscape:window-y="-1"
     inkscape:window-maximized="1"
     inkscape:current-layer="svg7"
     inkscape:showpageshadow="0"
     inkscape:deskcolor="#000000" />
  <defs
     id="defs3">
    <style
       id="current-color-scheme"
       type="text/css">
   .ColorScheme-Text { color:#eeeeec; } .ColorScheme-Highlight { color:#367bf0; } .ColorScheme-NeutralText { color:#ffcc44; } .ColorScheme-PositiveText { color:#3db47e; } .ColorScheme-NegativeText { color:#dd4747; }
  </style>
  </defs>
  <path
     style="fill:currentColor"
     class="ColorScheme-Text"
     d="m 10.434076,2.1675912 0.353946,-0.018868 0.301852,0.145078 3.631597,2.257881 0.198829,0.139067 0.0651,0.218105 0.0146,0.301694 -0.164208,0.145105 -0.153708,0.111784 -3.728674,2.3024671 -0.344119,0.00693 -0.356019,-0.2150595 -0.01692,-0.3527056 0.08952,-0.9909211 -0.257835,-0.218147 v 0 H 7.3258668 c -1.6792996,0 -3.0000006,1.3206999 -3.0000006,2.9999999 0,1.6793 1.320701,2.999999 3.0000005,2.999999 h 5.0000003 v 2 H 7.3258662 c -2.752701,0 -5,-2.247299 -5,-4.999999 0,-2.7526999 2.247299,-4.9999999 5,-4.9999999 h 2.7362288 v 0 l 0.276907,-0.284707 -0.06247,-1.011477 -0.03314,-0.218968 0.03241,-0.121365 z"
     id="path5"
     sodipodi:nodetypes="ccccccccccccccccsssccsssccccccc" />
</svg>
