<?xml version="1.0" encoding="UTF-8" standalone="no"?>
<svg
   width="16"
   height="16"
   viewBox="0 0 16 16"
   version="1.1"
   id="svg7"
   sodipodi:docname="gtk-convert.svg"
   inkscape:version="1.1.2 (0a00cf5339, 2022-02-04)"
   xmlns:inkscape="http://www.inkscape.org/namespaces/inkscape"
   xmlns:sodipodi="http://sodipodi.sourceforge.net/DTD/sodipodi-0.dtd"
   xmlns="http://www.w3.org/2000/svg"
   xmlns:svg="http://www.w3.org/2000/svg">
  <sodipodi:namedview
     id="namedview9"
     pagecolor="#000000"
     bordercolor="#666666"
     borderopacity="1.0"
     inkscape:pageshadow="2"
     inkscape:pageopacity="0"
     inkscape:pagecheckerboard="0"
     showgrid="false"
     inkscape:zoom="51.6875"
     inkscape:cx="8.0096735"
     inkscape:cy="7.980653"
     inkscape:window-width="938"
     inkscape:window-height="1043"
     inkscape:window-x="945"
     inkscape:window-y="32"
     inkscape:window-maximized="1"
     inkscape:current-layer="svg7" />
  <defs
     id="defs3">
    <style
       id="current-color-scheme"
       type="text/css">
   .ColorScheme-Text { color:#eeeeec; } .ColorScheme-Highlight { color:#367bf0; } .ColorScheme-NeutralText { color:#ffcc44; } .ColorScheme-PositiveText { color:#3db47e; } .ColorScheme-NegativeText { color:#dd4747; }
  </style>
  </defs>
  <path
     style="fill:currentColor"
     class="ColorScheme-Text"
     d="m 6,0.49085816 v 0 V 2 C 2.6863,2 0,4.6863 0,8 c 0,2.622 1.6837437,4.846109 4.0273438,5.662109 V 11.458984 C 2.8222438,10.769984 2,9.4877 2,8 2,5.7909 3.7909,4 6,4 v 1.5374813 l 0.4242384,0.1443399 v 0 l 3.2849882,-2.4637411 -0.0013,-0.4371347 v 0 L 6.3582952,0.26872142 Z M 11,2.3476562 V 4.5546875 C 12.191,5.2475875 13,6.5232 13,8 c 0,2.209 -1.791,4 -4,4 V 10.560018 L 8.6268484,10.279864 v 0 L 5.369147,12.72314 5.3114393,13.233579 v 0 L 8.6145188,15.710889 9,15.529158 v 0 V 14 c 3.314,0 6,-2.686 6,-6 0,-2.6116 -1.671,-4.8281437 -4,-5.6523438 z"
     id="path5"
     sodipodi:nodetypes="cccsccscccccccccccscccccccccccsc" />
</svg>
