<?xml version="1.0" encoding="UTF-8" standalone="no"?>
<svg
   width="16"
   height="16"
   version="1.1"
   id="svg9"
   sodipodi:docname="im-ban-user.svg"
   inkscape:version="1.1.2 (0a00cf5339, 2022-02-04)"
   xmlns:inkscape="http://www.inkscape.org/namespaces/inkscape"
   xmlns:sodipodi="http://sodipodi.sourceforge.net/DTD/sodipodi-0.dtd"
   xmlns="http://www.w3.org/2000/svg"
   xmlns:svg="http://www.w3.org/2000/svg">
  <sodipodi:namedview
     id="namedview11"
     pagecolor="#000000"
     bordercolor="#666666"
     borderopacity="1.0"
     inkscape:pageshadow="2"
     inkscape:pageopacity="0"
     inkscape:pagecheckerboard="0"
     showgrid="false"
     inkscape:zoom="47.25"
     inkscape:cx="8"
     inkscape:cy="8"
     inkscape:window-width="1880"
     inkscape:window-height="966"
     inkscape:window-x="0"
     inkscape:window-y="29"
     inkscape:window-maximized="1"
     inkscape:current-layer="svg9" />
  <defs
     id="defs3">
    <style
       id="current-color-scheme"
       type="text/css">
   .ColorScheme-Text { color:#eeeeec; } .ColorScheme-Highlight { color:#367bf0; } .ColorScheme-NeutralText { color:#ffcc44; } .ColorScheme-PositiveText { color:#3db47e; } .ColorScheme-NegativeText { color:#dd4747; }
  </style>
  </defs>
  <path
     style="fill:currentColor"
     class="ColorScheme-Text"
     d="M 8,9 C 3.568,9 0,12.122 0,16 H 9.6765925 10 C 9.6765925,16 9.8371695,15.867068 9.7591557,15.797935 8.6470381,14.812414 8,13.470823 8,12 8,11.019093 8.3082461,10.018176 8.8571639,9.2011499 c 0.045939,-0.068378 -0.049271,0.065682 0,0 L 8.702784,9 Z M 8,0 C 5.790861,0 4,1.790861 4,4 4,6.209139 5.790861,8 8,8 10.209139,8 12,6.209139 12,4 12,1.790861 10.209139,0 8,0 Z"
     id="path5"
     sodipodi:nodetypes="scccsssccssssss" />
  <path
     style="fill:currentColor"
     class="ColorScheme-NegativeText"
     d="M 12.5,9 C 10.567003,9 9,10.567003 9,12.5 9,14.432997 10.567003,16 12.5,16 14.432997,16 16,14.432997 16,12.5 16,10.567003 14.432997,9 12.5,9 Z m -1.587862,1.552862 0.377176,0.02945 L 12.5,11.793 l 1.180627,-1.180627 0.451202,-0.01554 v 0 l 0.306887,0.306887 v 0 l 0.03364,0.330928 L 13.207,12.5 l 1.20386,1.20386 v 0 l 0.0152,0.405075 -0.359926,0.359926 v 0 L 13.661566,14.368566 12.5,13.207 11.287287,14.419713 v 0 l -0.383747,0.01883 -0.317492,-0.317492 0.01525,-0.429343 v 0 L 11.793,12.5 10.582314,11.289314 v 0 l 0.0019,-0.408576 z"
     id="path7"
     sodipodi:nodetypes="ssssscccccccccccccccccccccccccccc" />
</svg>
