<?xml version="1.0" encoding="UTF-8" standalone="no"?>
<svg
   width="16"
   height="16"
   version="1.1"
   id="svg7"
   sodipodi:docname="im-google.svg"
   inkscape:version="1.2 (dc2aedaf03, 2022-05-15)"
   xmlns:inkscape="http://www.inkscape.org/namespaces/inkscape"
   xmlns:sodipodi="http://sodipodi.sourceforge.net/DTD/sodipodi-0.dtd"
   xmlns="http://www.w3.org/2000/svg"
   xmlns:svg="http://www.w3.org/2000/svg">
  <sodipodi:namedview
     id="namedview9"
     pagecolor="#505050"
     bordercolor="#ffffff"
     borderopacity="1"
     inkscape:showpageshadow="0"
     inkscape:pageopacity="0"
     inkscape:pagecheckerboard="1"
     inkscape:deskcolor="#505050"
     showgrid="false"
     inkscape:zoom="54.8125"
     inkscape:cx="8"
     inkscape:cy="8"
     inkscape:window-width="1489"
     inkscape:window-height="1080"
     inkscape:window-x="214"
     inkscape:window-y="-1"
     inkscape:window-maximized="1"
     inkscape:current-layer="svg7" />
  <defs
     id="defs3">
    <style
       id="current-color-scheme"
       type="text/css">
   .ColorScheme-Text { color:#eeeeec; } .ColorScheme-Highlight { color:#367bf0; } .ColorScheme-NeutralText { color:#ffcc44; } .ColorScheme-PositiveText { color:#3db47e; } .ColorScheme-NegativeText { color:#dd4747; }
  </style>
  </defs>
  <path
     style="fill:currentColor"
     class="ColorScheme-Text"
     d="M 8.7793,1 C 7.5785,1.0124 6.2897,1.2539 5.4124,2.1418 4.4214,3.0853 4.0654,4.698 4.7687,5.9098 5.304,6.8993 6.4527,7.439 7.5571,7.3594 7.943,7.2839 8.0166,7.3549 7.8187,7.7314 7.6741,8.3103 7.9563,8.861 8.3281,9.2852 6.855,9.376 5.2248,9.5967 4.1517,10.715 c -0.7064,0.799 -0.91,2.047 -0.2515,2.919 0.843,1.118 2.3637,1.403 3.6867,1.362 C 9.159,14.959 10.894,14.369 11.729,12.949 12.322,11.956 12.242,10.587 11.426,9.7377 10.897,9.1362 10.216,8.7026 9.6445,8.1484 9.2101,7.5878 9.7107,6.9052 10.202,6.5849 10.974,6.0224 11.556,5.1311 11.504,4.1465 11.528348,3.2600486 11.072902,2.4356451 10.436864,1.8447441 c -0.06927,-0.064358 0.09428,-0.03286 0.02111,-0.091457 L 10.515144,1.6602 H 11.342 l 0.745684,-0.4251303 0.0703,-0.072621 L 12.006521,1 Z M 7.6445,1.6074 C 8.6147,1.6153 9.2737,2.5065 9.5915,3.3328 9.895,4.1726 10.081,5.1489 9.7124,5.9963 9.2017,6.9296 7.7476,7.151 7.0326,6.3281 6.1683,5.4257 5.8383,4.0702 6.0586,2.8555 6.23,2.1382 6.9055,1.603 7.6445,1.6074 Z m 0.6348,8.1895 c 0.3154,0.0128 0.6744,-0.0713 0.9087,0.1989 0.7341,0.5452 1.674,1.1432 1.722,2.1582 0.095,1.04 -0.855,1.882 -1.8308,2.003 C 7.9036,14.326 6.5423,14.216 5.6453,13.352 4.8912,12.638 4.8772,11.263 5.7168,10.607 6.413,10 7.3906,9.8657 8.2793,9.7969 Z"
     id="path5"
     sodipodi:nodetypes="ccccccccccccccscccccccccccccccccccc" />
</svg>
