<?xml version="1.0" encoding="UTF-8" standalone="no"?>
<svg
   width="16"
   height="16"
   version="1.1"
   id="svg1015467"
   sodipodi:docname="im-twitter.svg"
   inkscape:version="1.1.2 (0a00cf5339, 2022-02-04)"
   xmlns:inkscape="http://www.inkscape.org/namespaces/inkscape"
   xmlns:sodipodi="http://sodipodi.sourceforge.net/DTD/sodipodi-0.dtd"
   xmlns="http://www.w3.org/2000/svg"
   xmlns:svg="http://www.w3.org/2000/svg">
  <sodipodi:namedview
     id="namedview1015469"
     pagecolor="#000000"
     bordercolor="#666666"
     borderopacity="1.0"
     inkscape:pageshadow="2"
     inkscape:pageopacity="0"
     inkscape:pagecheckerboard="0"
     showgrid="false"
     inkscape:zoom="51.6875"
     inkscape:cx="8.0096735"
     inkscape:cy="7.980653"
     inkscape:window-width="1920"
     inkscape:window-height="1051"
     inkscape:window-x="0"
     inkscape:window-y="29"
     inkscape:window-maximized="1"
     inkscape:current-layer="svg1015467" />
  <defs
     id="defs1015463">
    <style
       id="current-color-scheme"
       type="text/css">
   .ColorScheme-Text { color:#eeeeec; } .ColorScheme-Highlight { color:#367bf0; } .ColorScheme-NeutralText { color:#ffcc44; } .ColorScheme-PositiveText { color:#3db47e; } .ColorScheme-NegativeText { color:#dd4747; }
  </style>
  </defs>
  <path
     style="fill:currentColor"
     class="ColorScheme-Text"
     d="M 11.078,1 C 9.2653,1 7.7949,2.5814 7.7949,4.5332 c 0,0.277 0.086,0.8066 0.086,0.8066 C 5.1526,5.1924 2.7324,3.7846 1.1133,1.6465 0.83072,2.1685 0.66992,2.7761 0.66992,3.4238 c 0,1.1066712 0.4709531,2.0954779 1.2102833,2.7435982 0.079853,0.070002 -0.1497947,0.1093505 -0.063935,0.1711229 -0.1055343,-0.00359 0.1028096,0.014112 0,0 C 1.3948704,6.2806791 0.99831123,6.136586 0.64258,5.9238 v 0.043 c 0,1.5404754 0.9155003,2.8519786 2.1927089,3.3364018 0.1424598,0.054033 -0.1506915,-0.032623 0,0 -0.1446916,0.042436 0.1466181,0.2046228 -0.00542,0.225243 C 2.6924111,9.5470865 2.5523087,9.5566 2.4102,9.5566 2.1986,9.5566 1.9934,9.5353 1.793,9.4941 c 0.383062,1.287481 1.4343187,2.252933 2.7139847,2.425797 0.1157126,0.01563 -0.1191226,-0.0023 0,0 -0.1032719,0.08714 0.1434103,0.198155 0.035346,0.278697 C 3.4747636,12.994271 2.1797365,13.461 0.7832,13.461 c -0.26495,0 0.038513,0.344711 -0.21829701,0.311711 0.18403738,0.127057 -0.11887647,-0.154835 0.0735917,-0.04153 C 1.9653797,14.512293 3.4121478,15 5.0312,15 11.069,15 14.371,9.6139 14.371,4.9434 c 0,-0.1533 -0.008,-0.4571 -0.008,-0.4571 0.476578,-0.3698302 1.147679,-1.1990776 1.461879,-1.6018633 0.109061,-0.1398087 -0.09406,-0.1286178 -0.09406,-0.1286178 0,0 0.164598,-0.05925 0,0 -0.313518,0.1128558 -0.844767,0.2942113 -1.28573,0.3955667 -0.11855,0.027249 0.09951,-0.012799 0,0 0.08621,-0.055619 -0.156238,-0.067192 -0.06893,-0.152406 0.405091,-0.3953917 0.803012,-1.0518557 1.018353,-1.4357616 0.103221,-0.1840217 -0.107283,-0.1684317 -0.107283,-0.1684317 0,0 0.167115,-0.082276 0,0 C 14.85704,1.606581 14.013001,2.0010459 13.475,2.1152 12.876,1.4283 12.022,1 11.078,1 Z"
     id="path1015465"
     sodipodi:nodetypes="ssccsscscsscsscscsscssscscsscsscscs" />
</svg>
