<?xml version="1.0" encoding="UTF-8" standalone="no"?>
<svg
   width="16"
   height="16"
   version="1.1"
   id="svg7"
   sodipodi:docname="im-user-away.svg"
   inkscape:version="1.1.2 (0a00cf5339, 2022-02-04)"
   xmlns:inkscape="http://www.inkscape.org/namespaces/inkscape"
   xmlns:sodipodi="http://sodipodi.sourceforge.net/DTD/sodipodi-0.dtd"
   xmlns="http://www.w3.org/2000/svg"
   xmlns:svg="http://www.w3.org/2000/svg">
  <sodipodi:namedview
     id="namedview9"
     pagecolor="#000000"
     bordercolor="#666666"
     borderopacity="1.0"
     inkscape:pageshadow="2"
     inkscape:pageopacity="0"
     inkscape:pagecheckerboard="0"
     showgrid="false"
     inkscape:zoom="47.25"
     inkscape:cx="8"
     inkscape:cy="8"
     inkscape:window-width="1880"
     inkscape:window-height="966"
     inkscape:window-x="0"
     inkscape:window-y="29"
     inkscape:window-maximized="1"
     inkscape:current-layer="svg7" />
  <defs
     id="defs3">
    <style
       id="current-color-scheme"
       type="text/css">
   .ColorScheme-Text { color:#eeeeec; } .ColorScheme-Highlight { color:#367bf0; } .ColorScheme-NeutralText { color:#ffcc44; } .ColorScheme-PositiveText { color:#3db47e; } .ColorScheme-NegativeText { color:#dd4747; }
  </style>
  </defs>
  <path
     style="fill:currentColor"
     class="ColorScheme-Text"
     d="M 12.5,9 C 10.567003,9 9,10.567003 9,12.5 c 0,1.932997 1.567003,3.5 3.5,3.5 1.871817,0 3.400441,-1.469381 3.495329,-3.317599 0.0031,-0.06041 0,0.06118 0,0 l -0.128278,-0.07161 -2.470755,2.058963 v 0 L 13,14.480841 V 13 h -3 v -1 h 3 v -1.455622 l 0.383617,-0.224697 v 0 l 2.442094,2.035078 0.162914,-0.138995 c 0,-0.09569 0.0075,0.09375 0,0 C 15.843958,10.415698 14.337306,9 12.5,9 Z M 8,9 C 3.568,9 0,12.122 0,16 h 9.6765925 v 0 C 9.5777212,15.921468 9.805452,15.84031 9.713078,15.756658 8.6291861,14.775115 8,13.450391 8,12 8,11.042442 8.2937464,10.065814 8.8183763,9.2598025 8.876146,9.1710485 8.6182499,9.0843632 8.6815347,9 V 9 Z M 8,0 C 5.790861,0 4,1.790861 4,4 4,6.209139 5.790861,8 8,8 10.209139,8 12,6.209139 12,4 12,1.790861 10.209139,0 8,0 Z"
     id="path5"
     sodipodi:nodetypes="ssssccccccccccccccssscccsssccssssss" />
</svg>
