<?xml version="1.0" encoding="UTF-8" standalone="no"?>
<svg
   width="16"
   height="16"
   version="1.1"
   id="svg7"
   sodipodi:docname="indicator-notification-close-deselect.svg"
   inkscape:version="1.1.2 (0a00cf5339, 2022-02-04)"
   xmlns:inkscape="http://www.inkscape.org/namespaces/inkscape"
   xmlns:sodipodi="http://sodipodi.sourceforge.net/DTD/sodipodi-0.dtd"
   xmlns="http://www.w3.org/2000/svg"
   xmlns:svg="http://www.w3.org/2000/svg">
  <sodipodi:namedview
     id="namedview9"
     pagecolor="#000000"
     bordercolor="#666666"
     borderopacity="1.0"
     inkscape:pageshadow="2"
     inkscape:pageopacity="0"
     inkscape:pagecheckerboard="0"
     showgrid="false"
     inkscape:zoom="51.6875"
     inkscape:cx="7.9903265"
     inkscape:cy="8"
     inkscape:window-width="1920"
     inkscape:window-height="1051"
     inkscape:window-x="0"
     inkscape:window-y="29"
     inkscape:window-maximized="1"
     inkscape:current-layer="svg7" />
  <defs
     id="defs3">
    <style
       id="current-color-scheme"
       type="text/css">
   .ColorScheme-Text { color:#eeeeec; } .ColorScheme-Highlight { color:#367bf0; } .ColorScheme-NeutralText { color:#ffcc44; } .ColorScheme-PositiveText { color:#3db47e; } .ColorScheme-NegativeText { color:#dd4747; }
  </style>
  </defs>
  <path
     style="opacity:0.35;fill:currentColor"
     class="ColorScheme-Text"
     d="M 5,4 C 4.4477,4 4,4.4477 4,5 4,5.2652 4.1054687,5.5195313 4.2929688,5.7070312 l 2.1066395,2.1066396 v 0 l 0.02405,0.348608 -2.1306899,2.1306902 C 4.1054687,10.479969 4,10.735 4,11 c 0,0.552 0.4477,1 1,1 0.2652,0 0.5195312,-0.104969 0.7070312,-0.292969 L 7.7874329,9.6266296 8.2102066,9.624269 v 0 l 2.0827624,2.082762 C 10.479969,11.895031 10.735,12 11,12 c 0.552,0 1,-0.448 1,-1 0,-0.265 -0.104969,-0.520031 -0.292969,-0.707031 L 9.6429064,8.2288439 v 0 L 9.6099507,7.8041118 11.707031,5.7070312 C 11.895031,5.5200312 12,5.265 12,5 12,4.448 11.552,4 11,4 10.735,4 10.479969,4.1049688 10.292969,4.2929688 L 8.1903863,6.3955512 v 0 L 7.804955,6.3908925 5.7070312,4.2929688 C 5.5195312,4.1054688 5.2652,4 5,4 Z"
     id="path5"
     sodipodi:nodetypes="sscccccsscccccsscccccssccccss" />
</svg>
