<?xml version="1.0" encoding="UTF-8" standalone="no"?>
<svg
   width="16"
   height="16"
   version="1.1"
   id="svg1973944"
   sodipodi:docname="insert-link.svg"
   inkscape:version="1.1.2 (0a00cf5339, 2022-02-04)"
   xmlns:inkscape="http://www.inkscape.org/namespaces/inkscape"
   xmlns:sodipodi="http://sodipodi.sourceforge.net/DTD/sodipodi-0.dtd"
   xmlns="http://www.w3.org/2000/svg"
   xmlns:svg="http://www.w3.org/2000/svg">
  <sodipodi:namedview
     id="namedview1973946"
     pagecolor="#000000"
     bordercolor="#666666"
     borderopacity="1.0"
     inkscape:pageshadow="2"
     inkscape:pageopacity="0"
     inkscape:pagecheckerboard="0"
     showgrid="false"
     inkscape:zoom="51.6875"
     inkscape:cx="8"
     inkscape:cy="7.9613059"
     inkscape:window-width="1920"
     inkscape:window-height="1051"
     inkscape:window-x="0"
     inkscape:window-y="29"
     inkscape:window-maximized="1"
     inkscape:current-layer="svg1973944" />
  <defs
     id="defs1973940">
    <style
       id="current-color-scheme"
       type="text/css">
   .ColorScheme-Text { color:#eeeeec; } .ColorScheme-Highlight { color:#367bf0; } .ColorScheme-NeutralText { color:#ffcc44; } .ColorScheme-PositiveText { color:#3db47e; } .ColorScheme-NegativeText { color:#dd4747; }
  </style>
  </defs>
  <path
     style="fill:currentColor"
     class="ColorScheme-Text"
     d="m 5.0100561,1.8703652 c -2.77,0 -4.99999999,2.23 -4.99999999,5 0,2.77 2.22999999,4.9999998 4.99999999,4.9999998 h 2 V 9.8703652 h -2 c -1.662,0 -3,-1.338 -3,-3 0,-1.662 1.338,-3 3,-3 h 2 v -2 z m 4,0 v 2 h 1.9999999 c 1.662,0 3,1.338 3,3 0,1.662 -1.338,3 -3,3 H 9.0100561 v 1.9999998 h 1.9999999 c 2.77,0 5,-2.2299998 5,-4.9999998 0,-2.77 -2.23,-5 -5,-5 z m -4,4 v 2 h 5.9999999 v -2 z m 0.2991817,8.3989088 v 0 L 7.7798325,17.5634 v 0 L 8.2702131,17.52349 7.7798325,17.5634 c -0.070224,0.128188 0,0 0,0 v 0 z"
     id="path1973942"
     sodipodi:nodetypes="sssccsssccsccsssccssscccccccccccccccc" />
</svg>
