<?xml version="1.0" encoding="UTF-8" standalone="no"?>
<svg
   width="16"
   height="16"
   version="1.1"
   id="svg7"
   sodipodi:docname="itmages-open-browser.svg"
   inkscape:version="1.1.2 (0a00cf5339, 2022-02-04)"
   xmlns:inkscape="http://www.inkscape.org/namespaces/inkscape"
   xmlns:sodipodi="http://sodipodi.sourceforge.net/DTD/sodipodi-0.dtd"
   xmlns="http://www.w3.org/2000/svg"
   xmlns:svg="http://www.w3.org/2000/svg">
  <sodipodi:namedview
     id="namedview9"
     pagecolor="#000000"
     bordercolor="#666666"
     borderopacity="1.0"
     inkscape:pageshadow="2"
     inkscape:pageopacity="0"
     inkscape:pagecheckerboard="0"
     showgrid="false"
     inkscape:zoom="47.25"
     inkscape:cx="8"
     inkscape:cy="8"
     inkscape:window-width="1880"
     inkscape:window-height="966"
     inkscape:window-x="0"
     inkscape:window-y="29"
     inkscape:window-maximized="1"
     inkscape:current-layer="svg7" />
  <defs
     id="defs3">
    <style
       id="current-color-scheme"
       type="text/css">
   .ColorScheme-Text { color:#eeeeec; } .ColorScheme-Highlight { color:#367bf0; } .ColorScheme-NeutralText { color:#ffcc44; } .ColorScheme-PositiveText { color:#3db47e; } .ColorScheme-NegativeText { color:#dd4747; }
  </style>
  </defs>
  <path
     style="fill:currentColor"
     class="ColorScheme-Text"
     d="M 8,1 C 4.134,1 1,4.134 1,8 c 0,3.866 3.134,7 7,7 3.866,0 7,-3.134 7,-7 C 15,4.134 11.866,1 8,1 Z M 7.5,2.9375 C 7.9693,2.8762 7.4089,3.451 7.416,3.707 7.1448,4.5738 7.0652,5.618 7.6406,6.3828 7.6669,6.6688 7.0408,6.3858 6.8926,6.2285 6.5605,6.0283 6.1677,5.5126 5.752,5.7539 5.3904,5.9793 5.247,6.463 5.5215,6.8145 5.9839,7.4294 6.78,7.634 7.4902,7.8145 8.263,8.0035 9.115,8.1148 9.7461,8.6406 10.238,9.116 10.21,9.879 10.092,10.502 9.8391,11.632 8.823,12.381 7.8223,12.832 7.2797,13.114 7.6022,12.232 7.4238,11.945 7.2927,11.33 6.9303,10.767 6.3809,10.449 6.0801,10.218 5.6844,10.076 5.4746,9.748 5.4178,9.3082 5.679,8.8609 5.9609,8.5352 6.0756,8.3071 6.8093,8.0491 6.2188,8.0078 5.190981,7.7909199 4.1140871,7.5026583 3.2971868,6.8130445 c -0.047911,-0.040445 0.04606,0.043273 0,0 C 3.3161819,6.7342367 3.1962375,6.5304746 3.2192633,6.4529149 3.7793063,4.5664791 5.5127064,3.0692819 7.5,2.9375 Z m 4.511031,2.4425603 c 0.03041,0.019222 0.260851,0.00157 0.32542,0.119295 0.179636,0.3275198 0.445128,0.9376585 0.538549,1.2818447 0.163,0.6042 0.152,1.65 0,2.25 -0.058,0.2286 0.024,-0.0266 0,0 C 12.85,9.0578 12.605,9.3735 12.5,9.1875 12.395,9.0016 12.06,8.6064 11.781,8.3125 10.977,7.464 10.851,7.0209 11.188,6.3438 c 0.124372,-0.2543301 0.56711,-0.7502628 0.823031,-0.9637397 0.08772,-0.073168 -0.02348,-0.014294 0,0 z"
     id="path5"
     sodipodi:nodetypes="ssssscccccccccccccccscsccsccccccsc" />
</svg>
