<?xml version="1.0" encoding="UTF-8" standalone="no"?>
<svg
   width="16"
   height="16"
   version="1.1"
   id="svg7"
   sodipodi:docname="kdenlive-zoom-small.svg"
   inkscape:version="1.1.2 (0a00cf5339, 2022-02-04)"
   xmlns:inkscape="http://www.inkscape.org/namespaces/inkscape"
   xmlns:sodipodi="http://sodipodi.sourceforge.net/DTD/sodipodi-0.dtd"
   xmlns="http://www.w3.org/2000/svg"
   xmlns:svg="http://www.w3.org/2000/svg">
  <sodipodi:namedview
     id="namedview9"
     pagecolor="#000000"
     bordercolor="#666666"
     borderopacity="1.0"
     inkscape:pageshadow="2"
     inkscape:pageopacity="0"
     inkscape:pagecheckerboard="0"
     showgrid="false"
     inkscape:zoom="51.6875"
     inkscape:cx="8"
     inkscape:cy="8"
     inkscape:window-width="1015"
     inkscape:window-height="1043"
     inkscape:window-x="718"
     inkscape:window-y="32"
     inkscape:window-maximized="1"
     inkscape:current-layer="svg7" />
  <defs
     id="defs3">
    <style
       id="current-color-scheme"
       type="text/css">
   .ColorScheme-Text { color:#eeeeec; } .ColorScheme-Highlight { color:#367bf0; } .ColorScheme-NeutralText { color:#ffcc44; } .ColorScheme-PositiveText { color:#3db47e; } .ColorScheme-NegativeText { color:#dd4747; }
  </style>
  </defs>
  <path
     style="fill:currentColor"
     class="ColorScheme-Text"
     d="m 7.8131395,7.6262791 v 0 L 6.1416726,4.2833453 v 0 L 6.3584303,4 H 9.6499018 V 4 L 9.8448291,4.3103419 8.1768195,7.6463611 Z M 2,2 C 1,2 1,3 1,3 V 7 H 3 V 4 L 5.9269975,3.9441883 6,2 Z m 8,0 0.07466,1.9699049 L 13,4 v 3 h 2 V 3 C 15,2 14,2 14,2 Z M 1,9 v 4 c 0,1 1,1 1,1 H 6 V 12 H 3 V 9 Z m 12,0 v 3 h -3 v 2 h 4 c 0,0 1,0 1,-1 V 9 Z M 7.8287891,8.3424218 v 0 L 6.189626,11.620748 v 0 L 6.4616366,12 h 3.1463828 l 0.2367419,-0.310477 v 0 L 8.1524004,8.3048009 Z"
     id="path5"
     sodipodi:nodetypes="ccccccccccsccccccscccccscccscccccccccccscccccccccccc" />
</svg>
