<?xml version="1.0" encoding="UTF-8" standalone="no"?>
<svg
   width="16"
   height="16"
   viewBox="0 0 16 16"
   version="1.1"
   id="svg7"
   sodipodi:docname="kdenlive-unselect-all.svg"
   inkscape:version="1.2 (dc2aedaf03, 2022-05-15)"
   xmlns:inkscape="http://www.inkscape.org/namespaces/inkscape"
   xmlns:sodipodi="http://sodipodi.sourceforge.net/DTD/sodipodi-0.dtd"
   xmlns="http://www.w3.org/2000/svg"
   xmlns:svg="http://www.w3.org/2000/svg">
  <sodipodi:namedview
     id="namedview9"
     pagecolor="#505050"
     bordercolor="#ffffff"
     borderopacity="1"
     inkscape:showpageshadow="0"
     inkscape:pageopacity="0"
     inkscape:pagecheckerboard="1"
     inkscape:deskcolor="#505050"
     showgrid="false"
     inkscape:zoom="54.8125"
     inkscape:cx="8"
     inkscape:cy="8"
     inkscape:window-width="1489"
     inkscape:window-height="1080"
     inkscape:window-x="214"
     inkscape:window-y="-1"
     inkscape:window-maximized="1"
     inkscape:current-layer="svg7" />
  <defs
     id="defs3">
    <style
       id="current-color-scheme"
       type="text/css">
   .ColorScheme-Text { color:#eeeeec; } .ColorScheme-Highlight { color:#367bf0; } .ColorScheme-NeutralText { color:#ffcc44; } .ColorScheme-PositiveText { color:#3db47e; } .ColorScheme-NegativeText { color:#dd4747; }
  </style>
  </defs>
  <path
     style="fill:currentColor"
     class="ColorScheme-Text"
     d="M 8,1 C 4.137,1 1,4.137 1,8 c 0,3.863 3.137,7 7,7 3.863,0 7,-3.137 7,-7 C 15,4.137 11.863,1 8,1 Z m 0,2 c 0.9116668,0 1.7595093,0.2300473 2.494317,0.6540992 0.08683,0.050111 -0.08858,0.1386334 -0.005,0.1941032 L 10.582569,3.9799309 4.0491004,10.5134 3.8597157,10.499439 C 3.7978162,10.406151 3.6920005,10.561359 3.6367828,10.464052 3.2237882,9.7362547 3,8.899179 3,8 3,5.2407 5.2408,3 8,3 Z m 4.168047,2.440864 c 0.05335,0.0804 0.123698,-0.02853 0.172092,0.054867 C 12.767868,6.2328437 13,7.0842125 13,8 c 0,2.7592 -2.2408,5 -5,5 -0.9160457,0 -1.7676525,-0.232263 -2.5048969,-0.660223 -0.083181,-0.04828 0.095878,-0.117306 0.01568,-0.170521 L 5.487087,11.950413 11.946973,5.490527 Z"
     id="path5"
     sodipodi:nodetypes="sssssssccccssscsssscccc" />
</svg>
