<?xml version="1.0" encoding="UTF-8" standalone="no"?>
<svg
   width="16"
   height="16"
   version="1.1"
   id="svg7"
   sodipodi:docname="kdenlive-slide.svg"
   inkscape:version="1.1.2 (0a00cf5339, 2022-02-04)"
   xmlns:inkscape="http://www.inkscape.org/namespaces/inkscape"
   xmlns:sodipodi="http://sodipodi.sourceforge.net/DTD/sodipodi-0.dtd"
   xmlns="http://www.w3.org/2000/svg"
   xmlns:svg="http://www.w3.org/2000/svg">
  <sodipodi:namedview
     id="namedview9"
     pagecolor="#000000"
     bordercolor="#666666"
     borderopacity="1.0"
     inkscape:pageshadow="2"
     inkscape:pageopacity="0"
     inkscape:pagecheckerboard="0"
     showgrid="false"
     inkscape:zoom="51.6875"
     inkscape:cx="7.9903265"
     inkscape:cy="8"
     inkscape:window-width="1916"
     inkscape:window-height="1047"
     inkscape:window-x="2"
     inkscape:window-y="31"
     inkscape:window-maximized="1"
     inkscape:current-layer="svg7" />
  <defs
     id="defs3">
    <style
       id="current-color-scheme"
       type="text/css">
   .ColorScheme-Text { color:#eeeeec; } .ColorScheme-Highlight { color:#367bf0; } .ColorScheme-NeutralText { color:#ffcc44; } .ColorScheme-PositiveText { color:#3db47e; } .ColorScheme-NegativeText { color:#dd4747; }
  </style>
  </defs>
  <path
     style="fill:currentColor"
     class="ColorScheme-Text"
     d="M 5,1 V 7 H 3.2768171 V 7 L 3,6.7650175 V 5.5792208 L 2.5786948,5.4213052 v 0 L 1.5,6.5 0.31619547,7.6838045 0.2926263,8.2926263 v 0 L 1.5,9.5 2.6118075,10.611808 v 0 L 3,10.353762 v -1.1458699 0 L 3.2655282,9 H 5 v 6 h 2 2 2 V 9 h 1.830248 L 13,9.2080503 v 0 1.1629127 l 0.471605,0.157432 v 0 L 14.5,9.5 15.741156,8.258844 v 0 L 15.755877,7.7558771 14.5,6.5 13.428276,5.4282761 v 0 L 13,5.6301332 v 1.0995196 0 L 12.753028,7 H 11 V 1 H 9 7 Z M 7,3 H 9 V 13 H 7 Z"
     id="path5"
     sodipodi:nodetypes="cccccccccccccccccccccccccccccccccccccccccccccccccccc" />
</svg>
