<?xml version="1.0" encoding="UTF-8" standalone="no"?>
<svg
   width="16"
   height="16"
   version="1.1"
   id="svg7"
   sodipodi:docname="kdenlive-zoom-large.svg"
   inkscape:version="1.1.2 (0a00cf5339, 2022-02-04)"
   xmlns:inkscape="http://www.inkscape.org/namespaces/inkscape"
   xmlns:sodipodi="http://sodipodi.sourceforge.net/DTD/sodipodi-0.dtd"
   xmlns="http://www.w3.org/2000/svg"
   xmlns:svg="http://www.w3.org/2000/svg">
  <sodipodi:namedview
     id="namedview9"
     pagecolor="#000000"
     bordercolor="#666666"
     borderopacity="1.0"
     inkscape:pageshadow="2"
     inkscape:pageopacity="0"
     inkscape:pagecheckerboard="0"
     showgrid="false"
     inkscape:zoom="51.6875"
     inkscape:cx="8"
     inkscape:cy="7.980653"
     inkscape:window-width="863"
     inkscape:window-height="1043"
     inkscape:window-x="870"
     inkscape:window-y="32"
     inkscape:window-maximized="1"
     inkscape:current-layer="svg7" />
  <defs
     id="defs3">
    <style
       id="current-color-scheme"
       type="text/css">
   .ColorScheme-Text { color:#eeeeec; } .ColorScheme-Highlight { color:#367bf0; } .ColorScheme-NeutralText { color:#ffcc44; } .ColorScheme-PositiveText { color:#3db47e; } .ColorScheme-NegativeText { color:#dd4747; }
  </style>
  </defs>
  <path
     style="fill:currentColor"
     class="ColorScheme-Text"
     d="M 2,2 C 1,2 1,3 1,3 V 7 H 3 V 4 H 6 V 2 Z m 8,0 v 2 h 3 v 3 h 2 V 3 C 15,2 14,2 14,2 Z M 7.8317252,3.3365497 v 0 L 6.1777072,6.6445856 6.4096815,7 v 0 h 3.288458 L 9.8446942,6.6893884 v 0 L 8.1848183,3.3696366 Z M 6.2043904,9.4087808 v 0 l 1.6016404,3.2032812 0.3846636,0.0065 v 0 L 9.824608,9.3507841 v 0 L 9.6245206,9 H 6.5089343 Z M 1,9 v 4 c 0,1 1,1 1,1 H 6 V 12 H 3 V 9 Z m 12,0 v 3 h -3 v 2 h 4 c 0,0 1,0 1,-1 V 9 Z"
     id="path5"
     sodipodi:nodetypes="sccccccscccccscccccccccccccccccccccccscccccccccccscc" />
</svg>
