<?xml version="1.0" encoding="UTF-8" standalone="no"?>
<svg
   width="16"
   height="16"
   viewBox="0 0 16 16"
   version="1.1"
   id="svg7"
   sodipodi:docname="hidemouse.svg"
   inkscape:version="1.1.2 (0a00cf5339, 2022-02-04)"
   xmlns:inkscape="http://www.inkscape.org/namespaces/inkscape"
   xmlns:sodipodi="http://sodipodi.sourceforge.net/DTD/sodipodi-0.dtd"
   xmlns="http://www.w3.org/2000/svg"
   xmlns:svg="http://www.w3.org/2000/svg">
  <sodipodi:namedview
     id="namedview9"
     pagecolor="#000000"
     bordercolor="#666666"
     borderopacity="1.0"
     inkscape:pageshadow="2"
     inkscape:pageopacity="0"
     inkscape:pagecheckerboard="0"
     showgrid="false"
     inkscape:zoom="47.25"
     inkscape:cx="8"
     inkscape:cy="8"
     inkscape:window-width="1880"
     inkscape:window-height="966"
     inkscape:window-x="0"
     inkscape:window-y="29"
     inkscape:window-maximized="1"
     inkscape:current-layer="svg7" />
  <defs
     id="defs3">
    <style
       id="current-color-scheme"
       type="text/css">
   .ColorScheme-Text { color:#eeeeec; } .ColorScheme-Highlight { color:#367bf0; } .ColorScheme-NeutralText { color:#ffcc44; } .ColorScheme-PositiveText { color:#3db47e; } .ColorScheme-NegativeText { color:#dd4747; }
  </style>
  </defs>
  <path
     style="fill:currentColor"
     class="ColorScheme-Text"
     d="m 2.0006004,1.4439504 v 0 l 0.014339,10.6028806 v 0 L 2.3790205,12.178356 4.3379,10.256 4.6537052,9.945657 v 0 L 4.8412465,9.9810365 5.0137,10.404 6.9062,15 8.3672,14.326 6.3848,9.7793 6.2140001,9.3862034 6.3139773,9.1961605 v 0 L 6.7324,9.1562 9.554599,8.8880237 9.6472385,8.4997424 v 0 L 2.3171757,1.3110582 Z M 10.834,1 10,1.834 11.666,3.5 10,5.166 10.834,6 12.5,4.334 14.166,6 15,5.166 13.334,3.5 15,1.834 14.166,1 12.5,2.666 Z"
     id="path5"
     sodipodi:nodetypes="ccccccccccccccccccccccccccccccccccc" />
</svg>
