<?xml version="1.0" encoding="UTF-8" standalone="no"?>
<svg
   width="16"
   height="16"
   viewBox="0 0 16 16"
   version="1.1"
   id="svg7"
   sodipodi:docname="kstars_supernovae.svg"
   inkscape:version="1.1.2 (0a00cf5339, 2022-02-04)"
   xmlns:inkscape="http://www.inkscape.org/namespaces/inkscape"
   xmlns:sodipodi="http://sodipodi.sourceforge.net/DTD/sodipodi-0.dtd"
   xmlns="http://www.w3.org/2000/svg"
   xmlns:svg="http://www.w3.org/2000/svg">
  <sodipodi:namedview
     id="namedview9"
     pagecolor="#000000"
     bordercolor="#666666"
     borderopacity="1.0"
     inkscape:pageshadow="2"
     inkscape:pageopacity="0"
     inkscape:pagecheckerboard="0"
     showgrid="false"
     inkscape:zoom="103.375"
     inkscape:cx="5.2623942"
     inkscape:cy="5.6735187"
     inkscape:window-width="1920"
     inkscape:window-height="1051"
     inkscape:window-x="0"
     inkscape:window-y="29"
     inkscape:window-maximized="1"
     inkscape:current-layer="svg7" />
  <defs
     id="defs3">
    <style
       id="current-color-scheme"
       type="text/css">
   .ColorScheme-Text { color:#eeeeec; } .ColorScheme-Highlight { color:#367bf0; } .ColorScheme-NeutralText { color:#ffcc44; } .ColorScheme-PositiveText { color:#3db47e; } .ColorScheme-NegativeText { color:#dd4747; }
  </style>
  </defs>
  <path
     style="fill:currentColor"
     class="ColorScheme-Text"
     d="m 15.810547,0 c -0.33111,-0.029 -1.331541,0.33673438 -1.681641,0.55273438 -0.78299,0.36519999 -2.369897,1.16812302 -4.037597,2.50262302 0.11437,0.081 0.287335,0.2028169 0.512207,0.2063614 0.02806,-0.020709 0.05597,-0.041186 0.08372,-0.061431 1.545785,-1.1274495 2.619838,-1.5340391 2.959244,-1.0772414 0.30568,0.4114975 -0.191727,1.3886689 -1.180052,2.6866553 -0.05933,0.077919 0.0628,-0.080178 0,0 0.18323,-0.2371728 -0.249851,0.1265889 -0.284406,0.072518 C 11.786102,4.2626818 11.282467,3.7505854 10.709873,3.3654309 9.7436183,2.7154815 8.5809902,2.4270198 7.4082031,2.59375 4.667377,2.9861861 2.7401306,5.7030438 3.1035156,8.6621094 c 0.057716,0.4623402 0.1706339,0.9146673 0.3359375,1.3457026 -1.8811,2.430101 -3.82969372,5.197154 -3.37109373,5.814454 0.49605001,0.6678 3.22615313,-0.641829 6.12695313,-2.861328 0.8017729,0.349982 1.6738493,0.469758 2.53125,0.347656 2.7400355,-0.393487 4.6661745,-3.110016 4.3027345,-6.0683596 -0.04508,-0.3523998 -0.122279,-0.6991335 -0.230469,-1.0351563 2.16,-2.8602 3.584975,-5.52766872 3.109375,-6.16796873 C 15.892043,0.01510937 15.857857,0.004 15.810547,0 Z M 3.4961909,10.611589 c 0.035741,0.0744 0.1998909,-0.03216 0.2386967,0.04019 0.3353801,0.625235 0.7836989,1.171923 1.3187045,1.607331 0.031959,0.02601 -0.032572,-0.02521 0,0 -0.046184,0.03747 0.00482,0.151153 -0.040586,0.187379 -1.393633,1.111946 -2.4140081,1.631829 -2.7434746,1.188279 -0.324914,-0.437447 0.1641585,-1.502162 1.2266597,-3.023177 0.041419,-0.05929 -0.043147,0.06067 0,0 z"
     id="path5"
     sodipodi:nodetypes="ccccscscsscccccccccccsscscsc" />
</svg>
