<?xml version="1.0" encoding="UTF-8" standalone="no"?>
<svg
   width="16"
   height="16"
   viewBox="0 0 16 16"
   version="1.1"
   id="svg7"
   sodipodi:docname="kstars_grid.svg"
   inkscape:version="1.1.2 (0a00cf5339, 2022-02-04)"
   xmlns:inkscape="http://www.inkscape.org/namespaces/inkscape"
   xmlns:sodipodi="http://sodipodi.sourceforge.net/DTD/sodipodi-0.dtd"
   xmlns="http://www.w3.org/2000/svg"
   xmlns:svg="http://www.w3.org/2000/svg">
  <sodipodi:namedview
     id="namedview9"
     pagecolor="#000000"
     bordercolor="#666666"
     borderopacity="1.0"
     inkscape:pageshadow="2"
     inkscape:pageopacity="0"
     inkscape:pagecheckerboard="0"
     showgrid="false"
     inkscape:zoom="51.6875"
     inkscape:cx="14.781137"
     inkscape:cy="12.643289"
     inkscape:window-width="1920"
     inkscape:window-height="1051"
     inkscape:window-x="0"
     inkscape:window-y="29"
     inkscape:window-maximized="1"
     inkscape:current-layer="svg7" />
  <defs
     id="defs3">
    <style
       id="current-color-scheme"
       type="text/css">
   .ColorScheme-Text { color:#eeeeec; } .ColorScheme-Highlight { color:#367bf0; } .ColorScheme-NeutralText { color:#ffcc44; } .ColorScheme-PositiveText { color:#3db47e; } .ColorScheme-NegativeText { color:#dd4747; }
  </style>
  </defs>
  <path
     style="fill:currentColor"
     class="ColorScheme-Text"
     d="m 3.5253906,0 2.640615,1.1639319 0.1596905,0.307239 c -0.033395,0.064352 0.034627,-0.063563 0,0 -0.4251544,0.7804454 -0.9423,1.5013118 -1.5302717,2.1587169 -0.055531,0.062089 0.1684713,-0.1845654 0,0 L 4.4214262,3.609664 0.81835938,0.01953125 H 0.01171875 V 0.96875 L 3.5925546,4.5326773 3.5394012,4.8390386 c -0.064416,0.055754 0.065565,-0.054381 0,0 C 2.9527698,5.3255973 2.320243,5.756528 1.6438192,6.120023 c -0.093969,0.050497 0.095658,-0.047862 0,0 L 1.2137542,5.9389426 0.56835938,4.4824219 0.02929688,3.2265625 0.015625,6.25 0.24023438,6.7558594 C 0.15877237,6.7858594 0.08232,6.8264688 0,6.8554688 v 1.3085937 c 0.25343,-0.079 0.49383437,-0.1853969 0.74023438,-0.2792969 L 2.5794155,12.032667 2.4843691,12.32326 c -0.063639,0.02472 0.063969,-0.02412 0,0 C 1.6822716,12.625632 0.85417712,12.879503 0,13.064453 v 1.269531 c 1.0244935,-0.206725 2.0135743,-0.507123 2.9692108,-0.875395 0.069685,-0.02685 -0.2085236,0.08164 0,0 l 0.311585,0.151095 1.0317042,2.329769 h 1.3320312 l -1.2373713,-2.793487 0.174152,-0.392684 c 0.095924,-0.04564 -0.095001,0.04722 0,0 1.4757226,-0.733517 2.8391472,-1.656598 4.0618192,-2.737039 0.080507,-0.071141 0.384856,0.08046 0.4641342,0.008 v 0 l 3.0199407,3.006158 0.03421,0.312734 c -0.04823,0.04489 0.04859,-0.04452 0,0 C 11.083475,14.330729 9.9183497,15.22484 8.6699219,16 h 2.2207031 c 0.80623,-0.59 1.564769,-1.238722 2.292969,-1.919922 l 1.867187,1.859375 0.888672,0.0098 0.0059,-0.855469 -1.884765,-1.876953 C 14.746247,12.508797 15.4016,11.771228 16,10.986328 V 8.8378906 c -0.765819,1.1727444 -1.638627,2.2674084 -2.596335,3.2817174 -0.07158,0.07581 0.07252,-0.07492 0,0 L 12.927693,12.086787 9.8775912,9.0471361 v 0 c 0.052645,-0.054916 -0.00505,-0.2197837 0.046924,-0.2753289 1.2114456,-1.2945618 2.2411536,-2.759296 3.0476466,-4.3573599 0.03509,-0.069538 -0.03425,0.07004 0,0 l 0.364721,-0.094507 2.598664,1.1449032 0.0039,-1.3457032 L 13.572266,3.09375 c 0.40526,-0.9881 0.738503,-2.0121719 0.970703,-3.07617187 h -1.269531 c -0.190564,0.81435019 -0.442074,1.60345467 -0.743089,2.36878027 -0.02855,0.072599 -0.267825,0.053883 -0.297261,0.1260554 v 0 L 8.0390625,0.6953125 C 8.1295525,0.4689125 8.23485,0.25007812 8.3125,0.01757813 H 6.9960938 c -0.02451,0.066 -0.058314,0.12630624 -0.083984,0.19140625 L 6.4316406,0 Z m 3.935951,1.953943 0.3751813,-0.05449 3.9134901,1.722701 0.111198,0.2592749 c -0.02837,0.057667 0.029,-0.057296 0,0 -0.73442,1.4511702 -1.668433,2.782904 -2.762168,3.9654907 -0.068204,0.073745 0.069436,-0.072577 0,0 L 8.6408633,7.8155609 5.6965661,4.881434 v 0 C 5.7618958,4.8117617 5.6298952,4.5454999 5.6936814,4.4744318 6.3791744,3.710682 6.9746626,2.866845 7.4613416,1.953943 c 0.031575,-0.059228 -0.030654,0.059806 0,0 z m -3.0361078,3.749819 0.3504327,0.00669 3.024759,3.010852 v 0 c -0.08001,0.072637 0.046703,0.3509784 -0.034625,0.4221466 -1.1187057,0.9789495 -2.3612704,1.8178925 -3.7051528,2.4877315 -0.088786,0.04425 0.089664,-0.04277 0,0 L 3.6444952,11.426379 1.9724278,7.6498706 v 0 C 2.0417503,7.6154634 1.9976371,7.3251033 2.0661902,7.2894763 2.9137507,6.8489996 3.702243,6.3158456 4.4252338,5.703762 c 0.061861,-0.052372 -0.060898,0.053519 0,0 z"
     id="path5"
     sodipodi:nodetypes="cccsscccccccsscccccccccccsccsccccccssccccscccccccccsccccsscccccccsccccccccccccssccccsscccccssccccssc" />
</svg>
