<?xml version="1.0" encoding="UTF-8" standalone="no"?>
<svg
   width="16"
   height="16"
   viewBox="0 0 16 16"
   version="1.1"
   id="svg7"
   sodipodi:docname="kstars_ekos.svg"
   inkscape:version="1.1.2 (0a00cf5339, 2022-02-04)"
   xmlns:inkscape="http://www.inkscape.org/namespaces/inkscape"
   xmlns:sodipodi="http://sodipodi.sourceforge.net/DTD/sodipodi-0.dtd"
   xmlns="http://www.w3.org/2000/svg"
   xmlns:svg="http://www.w3.org/2000/svg">
  <sodipodi:namedview
     id="namedview9"
     pagecolor="#ffffff"
     bordercolor="#666666"
     borderopacity="1.0"
     inkscape:pageshadow="2"
     inkscape:pageopacity="0.0"
     inkscape:pagecheckerboard="0"
     showgrid="false"
     inkscape:zoom="47.125"
     inkscape:cx="8"
     inkscape:cy="8"
     inkscape:window-width="1745"
     inkscape:window-height="966"
     inkscape:window-x="0"
     inkscape:window-y="29"
     inkscape:window-maximized="1"
     inkscape:current-layer="svg7" />
  <defs
     id="defs3">
    <style
       id="current-color-scheme"
       type="text/css">
   .ColorScheme-Text { color:#eeeeec; } .ColorScheme-Highlight { color:#367bf0; } .ColorScheme-NeutralText { color:#ffcc44; } .ColorScheme-PositiveText { color:#3db47e; } .ColorScheme-NegativeText { color:#dd4747; }
  </style>
  </defs>
  <path
     style="fill:currentColor"
     class="ColorScheme-Text"
     d="M 8,-0.09570312 V 0 C 7.6921899,0.00217301 7.3848822,0.02174675 7.0800781,0.05859375 7.0259637,0.06391232 6.9719236,0.06977209 6.9179688,0.07617187 h -0.00391 C 3.5207931,0.53288053 1.0154451,3.0324367 1,5.9765625 v 7.9999995 c 0,1.104569 3.1340068,2 7,2 3.865993,0 7,-0.895431 7,-2 V 5.9765625 C 14.997307,3.554154 13.295432,1.3707616 10.685547,0.44140625 h -0.002 c -0.01755,-0.00592 -0.03513,-0.0117797 -0.05274,-0.0175781 C 10.502052,0.38081726 10.371786,0.34108629 10.240234,0.3046875 10.147154,0.27629655 10.053383,0.24959786 9.9589844,0.22460938 9.8329512,0.19421809 9.7059482,0.16686358 9.578125,0.14257812 9.4777311,0.12113158 9.3767949,0.10159553 9.2753906,0.08398437 9.1521826,0.06617428 9.0284404,0.05119496 8.9042969,0.0390625 8.7952601,0.02513071 8.6858546,0.01340869 8.5761719,0.00390625 8.3858264,-0.03619669 8.1935996,-0.06942911 8,-0.09570312 Z M 10.115234,1.3261719 C 12.460953,2.0625633 14.010136,3.9365368 14,6.0253906 c 0,1.1045695 -2.686292,2 -6,2 -3.3137085,0 -6,-0.8954305 -6,-2 0.00137,-1.9245696 1.3263206,-3.6667026 3.3839895,-4.4968246 0.1201937,-0.04849 0.051676,0.1978111 0.1767524,0.1556906 -0.065733,0.095411 0.06175,-0.098981 0,0 -0.8999331,1.4425196 -1.3797322,3.244771 -1.5197263,4.841134 1.0935628,0.3214785 2.5009,0.4992182 3.9589844,0.5 0.29858,-2.4953 1.1928344,-4.2446281 2.115234,-5.6738281 z M 2,7.5253906 c 1.2609267,0.9057437 3.5390269,1.461179 6,1.4628906 2.460052,-0.0013 4.737943,-0.5559436 6,-1.4609374 v 6.4609372 c 0,0.552285 -2.686292,1 -6,1 -3.3137085,0 -6,-0.447715 -6,-1 z"
     id="path5"
     sodipodi:nodetypes="ccccccssscccccccccccccscscscccccccsssc" />
</svg>
