<?xml version="1.0" encoding="UTF-8" standalone="no"?>
<svg
   width="16"
   height="16"
   version="1.1"
   id="svg7"
   sodipodi:docname="kt-show-statusbar.svg"
   inkscape:version="1.1.2 (0a00cf5339, 2022-02-04)"
   xmlns:inkscape="http://www.inkscape.org/namespaces/inkscape"
   xmlns:sodipodi="http://sodipodi.sourceforge.net/DTD/sodipodi-0.dtd"
   xmlns="http://www.w3.org/2000/svg"
   xmlns:svg="http://www.w3.org/2000/svg">
  <sodipodi:namedview
     id="namedview9"
     pagecolor="#000000"
     bordercolor="#666666"
     borderopacity="1.0"
     inkscape:pageshadow="2"
     inkscape:pageopacity="0"
     inkscape:pagecheckerboard="0"
     showgrid="false"
     inkscape:zoom="51.6875"
     inkscape:cx="7.9903265"
     inkscape:cy="12.643289"
     inkscape:window-width="1920"
     inkscape:window-height="1051"
     inkscape:window-x="0"
     inkscape:window-y="29"
     inkscape:window-maximized="1"
     inkscape:current-layer="svg7" />
  <defs
     id="defs3">
    <style
       id="current-color-scheme"
       type="text/css">
   .ColorScheme-Text { color:#eeeeec; } .ColorScheme-Highlight { color:#367bf0; } .ColorScheme-NeutralText { color:#ffcc44; } .ColorScheme-PositiveText { color:#3db47e; } .ColorScheme-NegativeText { color:#dd4747; }
  </style>
  </defs>
  <path
     style="fill:currentColor"
     class="ColorScheme-Text"
     d="M 12.585938,1 1,12.585938 v 1.049355 L 1.2692337,14 v 0 h 1.1448288 l 2,-2 H 15 c 1,0 1,-1 1,-1 V 4 C 16,3 15,3 15,3 H 14 13.655201 V 3 L 13.613889,2.800173 14,2.4140625 v -1.1195206 0 L 13.737233,1 Z M 1,3 C 1.5e-8,3 0,4 0,4 v 7 c 0,1 1,1 1,1 L 3,10 H 2 V 5 H 5 V 6 H 3 V 7 H 5 V 8 L 6,7 V 6 5 H 7 V 6 L 9,4 9.8020504,3.1979496 v 0 L 9.717777,3 Z M 5,8 H 3 v 2 z M 11.414062,5 H 14 v 1 h -2 v 1 h 2 v 1 h -2 v 1 h 2 v 1 H 11 V 6 5.4140625 Z M 9,7.4140625 V 9 h 1 v 1 H 9 8 V 9 8.4140625 Z"
     id="path5"
     sodipodi:nodetypes="cccccccscsccccccccccscscccccccccccccccccccscccccccccccccccccccccccccccc" />
</svg>
