<?xml version="1.0" encoding="UTF-8" standalone="no"?>
<svg
   width="16"
   height="16"
   viewBox="0 0 16 16"
   version="1.1"
   id="svg7"
   sodipodi:docname="labplot-xy-plot-two-axes-centered-origin.svg"
   inkscape:version="1.1.2 (0a00cf5339, 2022-02-04)"
   xmlns:inkscape="http://www.inkscape.org/namespaces/inkscape"
   xmlns:sodipodi="http://sodipodi.sourceforge.net/DTD/sodipodi-0.dtd"
   xmlns="http://www.w3.org/2000/svg"
   xmlns:svg="http://www.w3.org/2000/svg">
  <sodipodi:namedview
     id="namedview9"
     pagecolor="#000000"
     bordercolor="#666666"
     borderopacity="1.0"
     inkscape:pageshadow="2"
     inkscape:pageopacity="0"
     inkscape:pagecheckerboard="0"
     showgrid="false"
     inkscape:zoom="47.25"
     inkscape:cx="8"
     inkscape:cy="8"
     inkscape:window-width="1880"
     inkscape:window-height="966"
     inkscape:window-x="0"
     inkscape:window-y="29"
     inkscape:window-maximized="1"
     inkscape:current-layer="svg7" />
  <defs
     id="defs3">
    <style
       id="current-color-scheme"
       type="text/css">
   .ColorScheme-Text { color:#eeeeec; } .ColorScheme-Highlight { color:#367bf0; } .ColorScheme-NeutralText { color:#ffcc44; } .ColorScheme-PositiveText { color:#3db47e; } .ColorScheme-NegativeText { color:#dd4747; }
  </style>
  </defs>
  <path
     style="fill:currentColor"
     class="ColorScheme-Text"
     d="m 13.720703,0 -1.726562,2.9902344 v 1.6496084 0 L 11.602356,5 H 8.9941406 L 8.1714303,5.8227103 v 0 L 7.9941406,5.6555279 V 1 h -1 V 6.9941406 L 6.9882812,7 h 0.00586 L 5.9921875,8 H -0.00585938 V 9 H 4.6606252 v 0 l 0.1122279,0.2178075 -0.7787125,0.7802394 -1,0.9980471 v 3.759795 0 L 2.7561126,15 h -2.76197198 v 1 H 3.9941406 V 11.410156 L 4.4042969,11 h 0.00195 l 2,-2 h 0.5878906 v 7 h 1 V 9 H 14.994141 V 8 H 7.9941406 V 7.4121094 L 9.40625,6 h 3.148058 l 0.439833,-0.4501856 v 0 -2.2920019 L 14.296875,1 h 1.697266 V 0 Z"
     id="path5"
     sodipodi:nodetypes="ccccccccccccccccccccccccccccccccccccccccccccccccc" />
</svg>
