<?xml version="1.0" encoding="UTF-8" standalone="no"?>
<svg
   width="16"
   height="16"
   viewBox="0 0 16 16"
   version="1.1"
   id="svg7"
   sodipodi:docname="labplot-shift-up-y.svg"
   inkscape:version="1.1.2 (0a00cf5339, 2022-02-04)"
   xmlns:inkscape="http://www.inkscape.org/namespaces/inkscape"
   xmlns:sodipodi="http://sodipodi.sourceforge.net/DTD/sodipodi-0.dtd"
   xmlns="http://www.w3.org/2000/svg"
   xmlns:svg="http://www.w3.org/2000/svg">
  <sodipodi:namedview
     id="namedview9"
     pagecolor="#000000"
     bordercolor="#666666"
     borderopacity="1.0"
     inkscape:pageshadow="2"
     inkscape:pageopacity="0"
     inkscape:pagecheckerboard="0"
     showgrid="false"
     inkscape:zoom="47.25"
     inkscape:cx="8"
     inkscape:cy="8"
     inkscape:window-width="1880"
     inkscape:window-height="966"
     inkscape:window-x="0"
     inkscape:window-y="29"
     inkscape:window-maximized="1"
     inkscape:current-layer="svg7" />
  <defs
     id="defs3">
    <style
       id="current-color-scheme"
       type="text/css">
   .ColorScheme-Text { color:#eeeeec; } .ColorScheme-Highlight { color:#367bf0; } .ColorScheme-NeutralText { color:#ffcc44; } .ColorScheme-PositiveText { color:#3db47e; } .ColorScheme-NegativeText { color:#dd4747; }
  </style>
  </defs>
  <path
     style="fill:currentColor"
     class="ColorScheme-Text"
     d="M 4,3.4124091 3.6101609,3.1949195 0.37627806,4.811861 v 0 L 0.40121037,5.2006052 3.643805,6.8219025 v 0 L 4,6.607914 Z m 8,-0.021207 v 0 3.1322053 l 0.431038,0.2610738 v 0 l 3.199952,-1.5999758 0.0083,-0.3648814 v 0 L 12.388655,3.1943273 Z M 8,4 C 7.446,4 7,4.446 7,5 7,5.554 7.446,6 8,6 8.554,6 9,5.554 9,5 9,4.446 8.554,4 8,4 Z M 6.1594236,9.3188471 v 0 l 1.6465138,3.2930279 0.3940781,-0.01191 v 0 L 9.800116,9.399768 v 0 L 9.507208,9 H 6.4382518 Z"
     id="path5"
     sodipodi:nodetypes="ccccccccccccccccccccssssscccccccccc" />
</svg>
