<?xml version="1.0" encoding="UTF-8" standalone="no"?>
<svg
   width="16"
   height="16"
   viewBox="0 0 16 16"
   version="1.1"
   id="svg7"
   sodipodi:docname="labplot-transform-move.svg"
   inkscape:version="1.1.2 (0a00cf5339, 2022-02-04)"
   xmlns:inkscape="http://www.inkscape.org/namespaces/inkscape"
   xmlns:sodipodi="http://sodipodi.sourceforge.net/DTD/sodipodi-0.dtd"
   xmlns="http://www.w3.org/2000/svg"
   xmlns:svg="http://www.w3.org/2000/svg">
  <sodipodi:namedview
     id="namedview9"
     pagecolor="#000000"
     bordercolor="#666666"
     borderopacity="1.0"
     inkscape:pageshadow="2"
     inkscape:pageopacity="0"
     inkscape:pagecheckerboard="0"
     showgrid="false"
     inkscape:zoom="47.25"
     inkscape:cx="8"
     inkscape:cy="8"
     inkscape:window-width="1880"
     inkscape:window-height="966"
     inkscape:window-x="0"
     inkscape:window-y="29"
     inkscape:window-maximized="1"
     inkscape:current-layer="svg7" />
  <defs
     id="defs3">
    <style
       id="current-color-scheme"
       type="text/css">
   .ColorScheme-Text { color:#eeeeec; } .ColorScheme-Highlight { color:#367bf0; } .ColorScheme-NeutralText { color:#ffcc44; } .ColorScheme-PositiveText { color:#3db47e; } .ColorScheme-NegativeText { color:#dd4747; }
  </style>
  </defs>
  <path
     style="fill:currentColor"
     class="ColorScheme-Text"
     d="m 8.1608839,1.2413258 -0.3254342,0.0055 -1.6864769,2.5297153 v 0 L 6.2901166,4 h 3.4283673 v 0 l 0.12869,-0.2292391 z M 3.7273966,6.1817356 v 0 L 1.2025014,7.8649991 1.1628969,8.108598 v 0 l 2.6712607,1.7808404 v 0 L 4,9.7613261 V 6.3328657 Z M 8,6 C 6.8954,6 6,6.8954 6,8 6,9.1046 6.8954,10 8,10 9.1046,10 10,9.1046 10,8 10,6.8954 9.1046,6 8,6 Z M 12.229618,6.1530789 12,6.2904518 v 3.386368 0 l 0.201011,0.1891729 2.62247,-1.7483135 v 0 L 14.779374,7.8529161 Z M 6.1597942,12.239691 v 0 l 1.6833757,2.525064 v 0 l 0.3164933,-0.0042 1.6964129,-2.544619 v 0 L 9.6972346,12 h -3.407118 z"
     id="path5"
     sodipodi:nodetypes="ccccccccccccccccccccssssscccccccccccccccccccc" />
</svg>
