<?xml version="1.0" encoding="UTF-8" standalone="no"?>
<svg
   width="16"
   height="16"
   viewBox="0 0 16 16"
   version="1.1"
   id="svg7"
   sodipodi:docname="layer-delete.svg"
   inkscape:version="1.1.2 (0a00cf5339, 2022-02-04)"
   xmlns:inkscape="http://www.inkscape.org/namespaces/inkscape"
   xmlns:sodipodi="http://sodipodi.sourceforge.net/DTD/sodipodi-0.dtd"
   xmlns="http://www.w3.org/2000/svg"
   xmlns:svg="http://www.w3.org/2000/svg">
  <sodipodi:namedview
     id="namedview9"
     pagecolor="#000000"
     bordercolor="#666666"
     borderopacity="1.0"
     inkscape:pageshadow="2"
     inkscape:pageopacity="0"
     inkscape:pagecheckerboard="0"
     showgrid="false"
     inkscape:zoom="47.25"
     inkscape:cx="8"
     inkscape:cy="8.010582"
     inkscape:window-width="1920"
     inkscape:window-height="1051"
     inkscape:window-x="0"
     inkscape:window-y="29"
     inkscape:window-maximized="1"
     inkscape:current-layer="svg7" />
  <defs
     id="defs3">
    <style
       id="current-color-scheme"
       type="text/css">
   .ColorScheme-Text { color:#eeeeec; } .ColorScheme-Highlight { color:#367bf0; } .ColorScheme-NeutralText { color:#ffcc44; } .ColorScheme-PositiveText { color:#3db47e; } .ColorScheme-NegativeText { color:#dd4747; }
  </style>
  </defs>
  <path
     style="fill:currentColor"
     class="ColorScheme-Text"
     d="M 4,2 1.3700145,4.6299855 1.5072816,5 V 5 H 10 L 12.621248,2.3787517 12.448671,2 V 2 Z M 4,6 1.3701327,8.6298673 1.5072816,9 V 9 H 10 L 12.589759,6.4102409 12.46992,6 v 0 z m 6.834,4 -0.834,0.834 1.547423,1.547423 -0.0059,0.243098 v 0 L 10,14.166 10.834,15 l 1.511235,-1.511235 0.325904,0.01637 v 0 L 14.166,15 15,14.166 13.51184,12.67784 v 0 L 13.491717,12.342283 15,10.834 14.166,10 12.659318,11.506682 v 0 l -0.30144,0.0172 z"
     id="path5"
     sodipodi:nodetypes="ccccccccccccccccccccccccccccccccccccccc" />
</svg>
