<?xml version="1.0" encoding="UTF-8" standalone="no"?>
<svg
   width="16"
   height="16"
   viewBox="0 0 16 16"
   version="1.1"
   id="svg7"
   sodipodi:docname="layer-raise.svg"
   inkscape:version="1.1.2 (0a00cf5339, 2022-02-04)"
   xmlns:inkscape="http://www.inkscape.org/namespaces/inkscape"
   xmlns:sodipodi="http://sodipodi.sourceforge.net/DTD/sodipodi-0.dtd"
   xmlns="http://www.w3.org/2000/svg"
   xmlns:svg="http://www.w3.org/2000/svg">
  <sodipodi:namedview
     id="namedview9"
     pagecolor="#000000"
     bordercolor="#666666"
     borderopacity="1.0"
     inkscape:pageshadow="2"
     inkscape:pageopacity="0"
     inkscape:pagecheckerboard="0"
     showgrid="false"
     inkscape:zoom="47.25"
     inkscape:cx="8"
     inkscape:cy="8.010582"
     inkscape:window-width="1920"
     inkscape:window-height="1051"
     inkscape:window-x="0"
     inkscape:window-y="29"
     inkscape:window-maximized="1"
     inkscape:current-layer="svg7" />
  <defs
     id="defs3">
    <style
       id="current-color-scheme"
       type="text/css">
   .ColorScheme-Text { color:#eeeeec; } .ColorScheme-Highlight { color:#367bf0; } .ColorScheme-NeutralText { color:#ffcc44; } .ColorScheme-PositiveText { color:#3db47e; } .ColorScheme-NegativeText { color:#dd4747; }
  </style>
  </defs>
  <path
     style="fill:currentColor"
     class="ColorScheme-Text"
     d="M 4,1 1.2235755,4.7018994 v 0 L 1.3591451,5 H 7 L 9.7184397,1.3754138 9.507208,1 V 1 Z M 4,6 1.243641,9.6751453 1.3803943,10 v 0 H 5 L 7.7148653,6.3801796 7.5176995,6 v 0 z m 7.740441,0.2595589 v 0 L 9,9 l 0.5284895,1.132478 0.3486169,0.04264 v 0 L 10.784343,9.2256871 11,9.3341678 v 0 V 15 h 2 V 9.3618991 l 0.220234,-0.1314217 v 0 l 0.86497,0.9052016 0.388467,-0.0078 v 0 L 15,9 12.274245,6.2742445 Z M 4,11 1.322626,14.569832 v 0 L 1.4435338,15 H 5 L 7.7529147,11.329447 7.6233362,11 v 0 z"
     id="path5"
     sodipodi:nodetypes="ccccccccccccccccccccccccccccccccccccccccccccccc" />
</svg>
