<?xml version="1.0" encoding="UTF-8" standalone="no"?>
<svg
   width="16"
   height="16"
   viewBox="0 0 16 16"
   version="1.1"
   id="svg7"
   sodipodi:docname="location.svg"
   inkscape:version="1.2 (dc2aedaf03, 2022-05-15)"
   xmlns:inkscape="http://www.inkscape.org/namespaces/inkscape"
   xmlns:sodipodi="http://sodipodi.sourceforge.net/DTD/sodipodi-0.dtd"
   xmlns="http://www.w3.org/2000/svg"
   xmlns:svg="http://www.w3.org/2000/svg">
  <sodipodi:namedview
     id="namedview9"
     pagecolor="#000000"
     bordercolor="#666666"
     borderopacity="1.0"
     inkscape:pageshadow="2"
     inkscape:pageopacity="0"
     inkscape:pagecheckerboard="0"
     showgrid="false"
     inkscape:zoom="51.6875"
     inkscape:cx="8.0580411"
     inkscape:cy="8"
     inkscape:window-width="1489"
     inkscape:window-height="1080"
     inkscape:window-x="214"
     inkscape:window-y="-1"
     inkscape:window-maximized="1"
     inkscape:current-layer="svg7"
     inkscape:showpageshadow="0"
     inkscape:deskcolor="#000000" />
  <defs
     id="defs3">
    <style
       id="current-color-scheme"
       type="text/css">
   .ColorScheme-Text { color:#eeeeec; } .ColorScheme-Highlight { color:#367bf0; } .ColorScheme-NeutralText { color:#ffcc44; } .ColorScheme-PositiveText { color:#3db47e; } .ColorScheme-NegativeText { color:#dd4747; }
  </style>
  </defs>
  <path
     style="fill:currentColor"
     class="ColorScheme-Text"
     d="m 4,2 v 2 h 7 c 1.6793,0 3,1.3207 3,3 0,1.6793 -1.3207,3 -3,3 h -0.753646 v 0 L 10,9.7013159 V 8.5159238 L 9.6467953,8.386305 9.4312785,8.3381736 9.3195301,8.4082819 5.3981817,10.761091 v 0 l 0.013414,0.485867 3.9969408,2.37549 0.5053087,-0.207269 0.031387,-0.03972 L 10,12.318072 10.311345,12 v 0 H 11 C 13.7508,12.10093 16,9.7527 16,7 16,4.2473 13.7527,2 11,2 Z M 2,9 C 0.8954305,9 0,9.8954305 0,11 0,12.104569 0.8954305,13 2,13 3.1045695,13 4,12.104569 4,11 4,9.8954305 3.1045695,9 2,9 Z"
     id="path5"
     sodipodi:nodetypes="ccssscccccccccccccccccsscsssss" />
</svg>
