<?xml version="1.0" encoding="UTF-8" standalone="no"?>
<svg
   width="16"
   height="16"
   viewBox="0 0 16 16"
   version="1.1"
   id="svg1098806"
   sodipodi:docname="love-amarok.svg"
   inkscape:version="1.1.2 (0a00cf5339, 2022-02-04)"
   xmlns:inkscape="http://www.inkscape.org/namespaces/inkscape"
   xmlns:sodipodi="http://sodipodi.sourceforge.net/DTD/sodipodi-0.dtd"
   xmlns="http://www.w3.org/2000/svg"
   xmlns:svg="http://www.w3.org/2000/svg">
  <sodipodi:namedview
     id="namedview1098808"
     pagecolor="#000000"
     bordercolor="#666666"
     borderopacity="1.0"
     inkscape:pageshadow="2"
     inkscape:pageopacity="0"
     inkscape:pagecheckerboard="0"
     showgrid="false"
     inkscape:zoom="51.6875"
     inkscape:cx="7.9903265"
     inkscape:cy="8"
     inkscape:window-width="1920"
     inkscape:window-height="1051"
     inkscape:window-x="0"
     inkscape:window-y="29"
     inkscape:window-maximized="1"
     inkscape:current-layer="svg1098806" />
  <defs
     id="defs1098802">
    <style
       id="current-color-scheme"
       type="text/css">
   .ColorScheme-Text { color:#eeeeec; } .ColorScheme-Highlight { color:#367bf0; } .ColorScheme-NeutralText { color:#ffcc44; } .ColorScheme-PositiveText { color:#3db47e; } .ColorScheme-NegativeText { color:#dd4747; }
  </style>
  </defs>
  <path
     style="fill:currentColor"
     class="ColorScheme-Text"
     d="M 4,1 C 2.3432,1 1,2.567 1,4.5 c 0,4.4582995 4.5634019,7.851775 6.7148227,10.180426 0.1005669,0.108851 0.4765498,-0.09933 0.5658636,0.0049 0.087983,-0.102646 -0.098914,0.107162 0,0 C 10.43024,12.3565 15,8.9614041 15,4.5 15,2.567 13.6568,1 12,1 9.4906918,1 8.3806342,2.3992506 8.0846353,2.8569845 c -0.057882,0.089509 0,0 0,0 0,0 -0.1172065,0.077873 -0.1882273,-0.028899 C 7.5739076,2.3432425 6.458575,1 4,1 Z"
     id="path1098804"
     sodipodi:nodetypes="ssscsssscss" />
</svg>
