<?xml version="1.0" encoding="UTF-8" standalone="no"?>
<svg
   width="16"
   height="16"
   version="1.1"
   id="svg7"
   sodipodi:docname="mail-encrypted-full.svg"
   inkscape:version="1.1.2 (0a00cf5339, 2022-02-04)"
   xmlns:inkscape="http://www.inkscape.org/namespaces/inkscape"
   xmlns:sodipodi="http://sodipodi.sourceforge.net/DTD/sodipodi-0.dtd"
   xmlns="http://www.w3.org/2000/svg"
   xmlns:svg="http://www.w3.org/2000/svg">
  <sodipodi:namedview
     id="namedview9"
     pagecolor="#000000"
     bordercolor="#666666"
     borderopacity="1.0"
     inkscape:pageshadow="2"
     inkscape:pageopacity="0"
     inkscape:pagecheckerboard="0"
     showgrid="false"
     inkscape:zoom="51.6875"
     inkscape:cx="7.9903265"
     inkscape:cy="8"
     inkscape:window-width="1920"
     inkscape:window-height="1051"
     inkscape:window-x="0"
     inkscape:window-y="29"
     inkscape:window-maximized="1"
     inkscape:current-layer="svg7" />
  <defs
     id="defs3">
    <style
       id="current-color-scheme"
       type="text/css">
   .ColorScheme-Text { color:#eeeeec; } .ColorScheme-Highlight { color:#367bf0; } .ColorScheme-NeutralText { color:#ffcc44; } .ColorScheme-PositiveText { color:#3db47e; } .ColorScheme-NegativeText { color:#dd4747; }
  </style>
  </defs>
  <path
     style="fill:currentColor"
     class="ColorScheme-Text"
     d="M 13.5,8 C 13.5,8 12,8 12,9.5 V 11 h -1 v 3 h 5 V 11 H 15 V 9.5 C 15,8 13.5,8 13.5,8 Z m 0,1 c 0,0 0.5,0 0.5,0.5 V 11 H 13 V 9.5 C 13,9 13.5,9 13.5,9 Z M 2,2 C 0,2 0,4 0,4 v 8 c 0,0 0,2 2,2 h 8 v -3 c 0,-1 1,-1 1,-1 V 9 c 0,-2 2.5,-2 2.5,-2 0,0 2.5,0 2.5,2 V 4 C 16,4 16,2 14,2 Z M 2,4.460823 2.4088923,4.2044461 7.8299641,6.914982 8.2342579,6.8828711 v 0 L 13.651037,4.1744814 v 0 L 14,4.3895103 V 6 L 8.2535614,8.8732193 v 0 L 7.7367136,8.8683568 2,6 Z"
     id="path5"
     sodipodi:nodetypes="csccccccsccsccscsccscscscccssccccccccccccccc" />
</svg>
