<?xml version="1.0" encoding="UTF-8" standalone="no"?>
<svg
   width="16"
   height="16"
   viewBox="0 0 16 16"
   version="1.1"
   id="svg7"
   sodipodi:docname="mail-folder-outbox.svg"
   inkscape:version="1.1.2 (0a00cf5339, 2022-02-04)"
   xmlns:inkscape="http://www.inkscape.org/namespaces/inkscape"
   xmlns:sodipodi="http://sodipodi.sourceforge.net/DTD/sodipodi-0.dtd"
   xmlns="http://www.w3.org/2000/svg"
   xmlns:svg="http://www.w3.org/2000/svg">
  <sodipodi:namedview
     id="namedview9"
     pagecolor="#000000"
     bordercolor="#666666"
     borderopacity="1.0"
     inkscape:pageshadow="2"
     inkscape:pageopacity="0"
     inkscape:pagecheckerboard="0"
     showgrid="false"
     inkscape:zoom="47.25"
     inkscape:cx="15.428571"
     inkscape:cy="8.010582"
     inkscape:window-width="1920"
     inkscape:window-height="1051"
     inkscape:window-x="0"
     inkscape:window-y="29"
     inkscape:window-maximized="1"
     inkscape:current-layer="svg7" />
  <defs
     id="defs3">
    <style
       id="current-color-scheme"
       type="text/css">
   .ColorScheme-Text { color:#eeeeec; } .ColorScheme-Highlight { color:#367bf0; } .ColorScheme-NeutralText { color:#ffcc44; } .ColorScheme-PositiveText { color:#3db47e; } .ColorScheme-NegativeText { color:#dd4747; }
  </style>
  </defs>
  <path
     style="fill:currentColor"
     class="ColorScheme-Text"
     d="M 1.9980469,0.99414062 2,1 C 0.9688,1.0625 1,2 1,2 v 12 c 0,0 -0.0312,0.9375 1,1 h 12 c 1,0 1,-1 1,-1 V 2 C 15,2 15,1 14,1 H 8.46875 L 8.78125,1.375 10.09375,3 h 2.629942 L 13,3.2854882 v 0 6.4334246 0 L 12.744942,10 h -2.518305 l -0.2394339,0.228532 c 0,0.07731 0.00845,-0.07497 0,0 C 9.8744785,11.228128 9.0306946,12 8,12 6.9680432,12 6.1234552,11.226236 6.012386,10.224859 6.0042015,10.151069 5.6975744,10.076043 5.6975744,10 v 0 H 3.2424097 L 3,9.7613261 v 0 -6.5394585 0 L 3.2217675,3 H 5.90625 L 7.21875,1.375 7.5292969,0.99414062 Z M 7.7462765,2.3171544 v 0 L 4.374683,6.5316463 4.6096095,7 V 7 H 6 v 2 h 4 V 7 h 1.511816 V 7 L 11.640257,6.5503209 8.2653717,2.3317146 Z"
     id="path5"
     sodipodi:nodetypes="cccccsccscccccccccccssscccccccccccccccccccccccccc" />
</svg>
