<?xml version="1.0" encoding="UTF-8" standalone="no"?>
<svg
   width="16"
   height="16"
   version="1.1"
   id="svg4"
   sodipodi:docname="slideshow-symbolic.svg"
   inkscape:version="1.2 (dc2aedaf03, 2022-05-15)"
   xmlns:inkscape="http://www.inkscape.org/namespaces/inkscape"
   xmlns:sodipodi="http://sodipodi.sourceforge.net/DTD/sodipodi-0.dtd"
   xmlns="http://www.w3.org/2000/svg"
   xmlns:svg="http://www.w3.org/2000/svg">
  <defs
     id="defs8" />
  <sodipodi:namedview
     id="namedview6"
     pagecolor="#ffffff"
     bordercolor="#666666"
     borderopacity="1.0"
     inkscape:pageshadow="2"
     inkscape:pageopacity="0.0"
     inkscape:pagecheckerboard="0"
     showgrid="false"
     inkscape:zoom="146.19433"
     inkscape:cx="7.9962061"
     inkscape:cy="4.709485"
     inkscape:window-width="1574"
     inkscape:window-height="1080"
     inkscape:window-x="172"
     inkscape:window-y="-1"
     inkscape:window-maximized="1"
     inkscape:current-layer="svg4"
     inkscape:showpageshadow="0"
     inkscape:deskcolor="#d1d1d1" />
  <path
     style="fill:#5c616c"
     d="M 14,7.5 C 14,3.91 11.09,1 7.5,1 3.91,1 1,3.91 1,7.5 1,11.09 3.91,14 7.5,14 11.09,14 14,11.09 14,7.5 Z m -1,0 C 13,10.54 10.54,13 7.5,13 4.46,13 2,10.54 2,7.5 2,4.46 4.46,2 7.5,2 10.54,2 13,4.46 13,7.5 Z M 10.901219,7.1171173 10.765111,7 H 8.1583187 L 8,6.8731129 v 0 -1.8439382 L 7.7659315,4.75 v 0 H 7.2208297 L 6.9941973,4.985064 c -0.00233,0.075636 0.00156,-0.080947 0,0 C 6.9782266,5.8153305 7,6.904996 7,7.8450224 v 0 L 7.1858692,8 H 10.749115 L 11,7.80511 v 0 -0.5754427 z"
     id="path2"
     sodipodi:nodetypes="ssssssssssccccccccccscccccccc" />
</svg>
