<?xml version="1.0" encoding="UTF-8" standalone="no"?>
<svg
   width="16"
   height="16"
   version="1.1"
   id="svg265492"
   sodipodi:docname="mail-tagged.svg"
   inkscape:version="1.1.2 (0a00cf5339, 2022-02-04)"
   xmlns:inkscape="http://www.inkscape.org/namespaces/inkscape"
   xmlns:sodipodi="http://sodipodi.sourceforge.net/DTD/sodipodi-0.dtd"
   xmlns="http://www.w3.org/2000/svg"
   xmlns:svg="http://www.w3.org/2000/svg">
  <sodipodi:namedview
     id="namedview265494"
     pagecolor="#000000"
     bordercolor="#666666"
     borderopacity="1.0"
     inkscape:pageshadow="2"
     inkscape:pageopacity="0"
     inkscape:pagecheckerboard="0"
     showgrid="false"
     inkscape:zoom="51.6875"
     inkscape:cx="8.0096735"
     inkscape:cy="8"
     inkscape:window-width="1920"
     inkscape:window-height="1051"
     inkscape:window-x="0"
     inkscape:window-y="29"
     inkscape:window-maximized="1"
     inkscape:current-layer="svg265492" />
  <defs
     id="defs265488">
    <style
       id="current-color-scheme"
       type="text/css">
   .ColorScheme-Text { color:#eeeeec; } .ColorScheme-Highlight { color:#367bf0; } .ColorScheme-NeutralText { color:#ffcc44; } .ColorScheme-PositiveText { color:#3db47e; } .ColorScheme-NegativeText { color:#dd4747; }
  </style>
  </defs>
  <path
     style="fill:currentColor"
     class="ColorScheme-Text"
     d="m 13,9 c -1.104569,0 -2,0.8954305 -2,2 0,1.104569 0.895431,2 2,2 1.104569,0 2,-0.895431 2,-2 C 15,9.8954305 14.104569,9 13,9 Z M 2,2 C 0,2 0,4 0,4 v 8 c 0,0 0,2 2,2 h 9.685613 l 0.54193,-0.0517 c -0.437623,0 -0.0809,-0.042 -0.455785,-0.210444 C 10.727323,13.268588 10,12.219231 10,11 10,9.3431458 11.343146,8 13,8 14.292182,8 15.393553,8.8169625 15.815776,9.9625518 15.934933,10.285853 16,9.610607 16,9.9752789 v 0 V 4 C 16,4 16,2 14,2 Z M 2,4.4280225 2.365454,4.182727 7.7017817,6.8508908 8.2229538,6.8885231 8,7 8.2229538,6.8885231 13.643249,4.1783755 v 0 L 14,4.3584469 V 6 L 8.2760892,8.8619554 v 0 L 7.7252919,8.862646 2,6 Z"
     id="path265490"
     sodipodi:nodetypes="ssssssccsccsssscccsscccccccccccccccc" />
</svg>
