<?xml version="1.0" encoding="UTF-8" standalone="no"?>
<svg
   width="16"
   height="16"
   version="1.1"
   id="svg7"
   sodipodi:docname="mail-folder-inbox.svg"
   inkscape:version="1.1.2 (0a00cf5339, 2022-02-04)"
   xmlns:inkscape="http://www.inkscape.org/namespaces/inkscape"
   xmlns:sodipodi="http://sodipodi.sourceforge.net/DTD/sodipodi-0.dtd"
   xmlns="http://www.w3.org/2000/svg"
   xmlns:svg="http://www.w3.org/2000/svg">
  <sodipodi:namedview
     id="namedview9"
     pagecolor="#414141"
     bordercolor="#666666"
     borderopacity="1.0"
     inkscape:pageshadow="2"
     inkscape:pageopacity="0"
     inkscape:pagecheckerboard="0"
     showgrid="false"
     inkscape:zoom="47.25"
     inkscape:cx="8"
     inkscape:cy="8"
     inkscape:window-width="1880"
     inkscape:window-height="966"
     inkscape:window-x="0"
     inkscape:window-y="29"
     inkscape:window-maximized="1"
     inkscape:current-layer="svg7" />
  <defs
     id="defs3">
    <style
       id="current-color-scheme"
       type="text/css">
   .ColorScheme-Text { color:#eeeeec; } .ColorScheme-Highlight { color:#367bf0; } .ColorScheme-NeutralText { color:#ffcc44; } .ColorScheme-PositiveText { color:#3db47e; } .ColorScheme-NegativeText { color:#dd4747; }
  </style>
  </defs>
  <path
     style="fill:currentColor"
     class="ColorScheme-Text"
     d="M 2,1 C 1,1 1,2 1,2 v 12 c 0,0 0,1 1,1 h 12 c 1,0 1,-1 1,-1 V 2 c 0,0 0,-1 -1,-1 h -3 v 2 h 1.808689 L 13,3.3275812 v 0 6.3492386 L 12.78744,10 v 0 h -2.62455 l -0.1688119,0.184539 c 0,0.06351 0.00391,-0.05954 0,0 C 9.8749997,12 8,12 8,12 c 0,0 -1.8610785,0 -1.9926768,-1.795279 -0.00482,-0.0658 0.00732,0.20472 0,0 L 5.7188236,10 H 3.263659 v 0 L 3,9.7401194 V 3.2006603 L 3.2005195,3 V 3 H 5 V 1 Z M 6,1 V 5 H 4.4699927 L 4.2720328,5.340041 v 0 l 3.4894289,4.3617861 0.4744298,0.00331 v 0 L 11.71703,5.3537119 v 0 L 11.602356,5 H 10 V 1 Z"
     id="path5"
     sodipodi:nodetypes="sccssccsccccccccccscsccccccccccscccccccccccccc" />
</svg>
