<?xml version="1.0" encoding="UTF-8" standalone="no"?>
<svg
   width="16"
   height="16"
   version="1.1"
   id="svg256511"
   sodipodi:docname="mail-signed-verified.svg"
   inkscape:version="1.1.2 (0a00cf5339, 2022-02-04)"
   xmlns:inkscape="http://www.inkscape.org/namespaces/inkscape"
   xmlns:sodipodi="http://sodipodi.sourceforge.net/DTD/sodipodi-0.dtd"
   xmlns="http://www.w3.org/2000/svg"
   xmlns:svg="http://www.w3.org/2000/svg">
  <sodipodi:namedview
     id="namedview256513"
     pagecolor="#000000"
     bordercolor="#666666"
     borderopacity="1.0"
     inkscape:pageshadow="2"
     inkscape:pageopacity="0"
     inkscape:pagecheckerboard="0"
     showgrid="false"
     inkscape:zoom="51.6875"
     inkscape:cx="8.0096735"
     inkscape:cy="8"
     inkscape:window-width="1920"
     inkscape:window-height="1051"
     inkscape:window-x="0"
     inkscape:window-y="29"
     inkscape:window-maximized="1"
     inkscape:current-layer="svg256511" />
  <defs
     id="defs256507">
    <style
       id="current-color-scheme"
       type="text/css">
   .ColorScheme-Text { color:#eeeeec; } .ColorScheme-Highlight { color:#367bf0; } .ColorScheme-NeutralText { color:#ffcc44; } .ColorScheme-PositiveText { color:#3db47e; } .ColorScheme-NegativeText { color:#dd4747; }
  </style>
  </defs>
  <path
     style="fill:currentColor"
     class="ColorScheme-Text"
     d="M 2,2 C 0,2 0,4 0,4 v 8 c 0,0 0,2 2,2 h 12 c 2,0 2,-2 2,-2 V 4 c 0,0 0,-2 -2,-2 z m 11.131,2 c 0.196,0.0171 0.396,0.0975 0.584,0.2852 C 14.465,5 13.5,6 13.5,6 l -6.1061719,6.106172 v 0 L 6.6580715,12.158071 3.5,9 C 3.5,9 2.5352,8 3.2852,7.2852 4.0354,6.5349 5,7.5 5,7.5 l 1.7034604,1.7034604 v 0 L 7.3364819,9.1635181 12,4.5 c 0,0 0.543,-0.5433 1.131,-0.5 z"
     id="path256509"
     sodipodi:nodetypes="sccssccsscccccccccccccc" />
</svg>
