<?xml version="1.0" encoding="UTF-8" standalone="no"?>
<svg
   width="16"
   height="16"
   version="1.1"
   id="svg7"
   sodipodi:docname="mail-meeting-request-reply.svg"
   inkscape:version="1.1.2 (0a00cf5339, 2022-02-04)"
   xmlns:inkscape="http://www.inkscape.org/namespaces/inkscape"
   xmlns:sodipodi="http://sodipodi.sourceforge.net/DTD/sodipodi-0.dtd"
   xmlns="http://www.w3.org/2000/svg"
   xmlns:svg="http://www.w3.org/2000/svg">
  <sodipodi:namedview
     id="namedview9"
     pagecolor="#737373"
     bordercolor="#666666"
     borderopacity="1.0"
     inkscape:pageshadow="2"
     inkscape:pageopacity="0"
     inkscape:pagecheckerboard="0"
     showgrid="false"
     inkscape:zoom="103.375"
     inkscape:cx="8"
     inkscape:cy="7.9951632"
     inkscape:window-width="1920"
     inkscape:window-height="1051"
     inkscape:window-x="0"
     inkscape:window-y="29"
     inkscape:window-maximized="1"
     inkscape:current-layer="svg7" />
  <defs
     id="defs3">
    <style
       id="current-color-scheme"
       type="text/css">
   .ColorScheme-Text { color:#eeeeec; } .ColorScheme-Highlight { color:#367bf0; } .ColorScheme-NeutralText { color:#ffcc44; } .ColorScheme-PositiveText { color:#3db47e; } .ColorScheme-NegativeText { color:#dd4747; }
  </style>
  </defs>
  <path
     style="fill:currentColor"
     class="ColorScheme-Text"
     d="m 14,12 v 2 h 2 v -2 z m 0,-5 v 4 h 2 V 7 Z M 2,2 C 0,2 0,4 0,4 v 8 c 0,0 0,2 2,2 H 13 V 7 C 13,6.8910449 13.0199,6.7882928 13.05464,6.6924547 13.0954,6.5800009 12.856229,6.6272537 12.929653,6.534987 v 0 L 8.1981071,8.9009389 8.0062457,8.9258123 7.8046014,8.9023007 2,6 v -1.767913 0 l 0.236491,-0.1138415 5.5784203,2.7892102 0.1919289,-0.014891 0.200772,0.00363 5.5081348,-2.7540674 v 0 L 14,4.3918141 V 6 h 2 V 4 c 0,0 0,-2 -2,-2 z"
     id="path5"
     sodipodi:nodetypes="ccccccccccsccscssccccccccccccccccccss" />
</svg>
