<?xml version="1.0" encoding="UTF-8" standalone="no"?>
<svg
   width="16"
   height="16"
   viewBox="0 0 16 16"
   version="1.1"
   id="svg229848"
   sodipodi:docname="mark-location.svg"
   inkscape:version="1.1.2 (0a00cf5339, 2022-02-04)"
   xmlns:inkscape="http://www.inkscape.org/namespaces/inkscape"
   xmlns:sodipodi="http://sodipodi.sourceforge.net/DTD/sodipodi-0.dtd"
   xmlns="http://www.w3.org/2000/svg"
   xmlns:svg="http://www.w3.org/2000/svg">
  <sodipodi:namedview
     id="namedview229850"
     pagecolor="#000000"
     bordercolor="#666666"
     borderopacity="1.0"
     inkscape:pageshadow="2"
     inkscape:pageopacity="0"
     inkscape:pagecheckerboard="0"
     showgrid="false"
     inkscape:zoom="51.6875"
     inkscape:cx="7.9903265"
     inkscape:cy="8"
     inkscape:window-width="1920"
     inkscape:window-height="1051"
     inkscape:window-x="0"
     inkscape:window-y="29"
     inkscape:window-maximized="1"
     inkscape:current-layer="svg229848" />
  <defs
     id="defs229844">
    <style
       id="current-color-scheme"
       type="text/css">
   .ColorScheme-Text { color:#eeeeec; } .ColorScheme-Highlight { color:#367bf0; } .ColorScheme-NeutralText { color:#ffcc44; } .ColorScheme-PositiveText { color:#3db47e; } .ColorScheme-NegativeText { color:#dd4747; }
  </style>
  </defs>
  <path
     style="fill:currentColor"
     class="ColorScheme-Text"
     d="m 8,1.0039062 c -2.7614,0 -5,2.2386 -5,5 0,0.17259 0.01425,0.3319101 0.03125,0.5 0.0137,0.1672501 0.0358,0.3361701 0.0625,0.5 0.544336,3.3416268 2.6810437,5.7548878 4.6091101,7.7033848 0.099687,0.100744 0.4808323,-0.08304 0.5791552,0.01528 0.093349,-0.09335 -0.09459,0.09553 0,0 1.9320007,-1.951151 4.0784557,-4.368203 4.6242347,-7.7186648 0.0267,-0.1638299 0.0488,-0.3327499 0.0625,-0.5 0.0171,-0.1680899 0.03125,-0.32741 0.03125,-0.5 0,-2.7614 -2.2386,-5 -5,-5 z m 0,3 c 1.1046,0 2,0.89543 2,2 0,1.1045701 -0.89543,2 -2,2 -1.10457,0 -2,-0.89543 -2,-2 0,-1.1045699 0.89543,-2 2,-2 z"
     id="path229846"
     sodipodi:nodetypes="ssccscsccsssssss" />
</svg>
