<?xml version="1.0" encoding="UTF-8" standalone="no"?>
<svg
   width="16"
   height="16"
   viewBox="0 0 16 16"
   version="1.1"
   id="svg1015832"
   sodipodi:docname="measure.svg"
   inkscape:version="1.1.2 (0a00cf5339, 2022-02-04)"
   xmlns:inkscape="http://www.inkscape.org/namespaces/inkscape"
   xmlns:sodipodi="http://sodipodi.sourceforge.net/DTD/sodipodi-0.dtd"
   xmlns="http://www.w3.org/2000/svg"
   xmlns:svg="http://www.w3.org/2000/svg">
  <sodipodi:namedview
     id="namedview1015834"
     pagecolor="#000000"
     bordercolor="#666666"
     borderopacity="1.0"
     inkscape:pageshadow="2"
     inkscape:pageopacity="0"
     inkscape:pagecheckerboard="0"
     showgrid="false"
     inkscape:zoom="51.6875"
     inkscape:cx="7.9903265"
     inkscape:cy="8"
     inkscape:window-width="1920"
     inkscape:window-height="1051"
     inkscape:window-x="0"
     inkscape:window-y="29"
     inkscape:window-maximized="1"
     inkscape:current-layer="svg1015832" />
  <defs
     id="defs1015828">
    <style
       id="current-color-scheme"
       type="text/css">
   .ColorScheme-Text { color:#eeeeec; } .ColorScheme-Highlight { color:#367bf0; } .ColorScheme-NeutralText { color:#ffcc44; } .ColorScheme-PositiveText { color:#3db47e; } .ColorScheme-NegativeText { color:#dd4747; }
  </style>
  </defs>
  <path
     style="fill:currentColor"
     class="ColorScheme-Text"
     d="M 2,1 C 1.4477,1.0001 1.0001,1.4477 1,2 v 6 c 10e-5,0.5523 0.4477,0.9999 1,1 h 12 c 0.552,-10e-5 1,-0.4477 1,-1 V 2 C 15,1.4477 14.552,1.0001 14,1 Z M 3,3 H 4 V 5 H 5 V 3 H 7 V 5 H 8 V 3 h 2 v 2 h 1 V 3 h 2 V 7 H 3 Z m 0.719751,7.233541 v 0 l -2.4510487,2.04254 -0.01015,0.43938 v 0 L 3.729898,14.774915 4,14.675336 v 0 -4.316077 z M 12,10.366962 v 0 l 0,4.219352 0.331523,0.137417 v 0 l 2.479861,-2.066551 v 0 l -0.135887,-0.427599 -2.38284,-1.985701 z"
     id="path1015830"
     sodipodi:nodetypes="cccccssccccccccccccccccccccccccccccccccccccccc" />
</svg>
