<?xml version="1.0" encoding="UTF-8" standalone="no"?>
<svg
   width="16"
   height="16"
   version="1.1"
   id="svg9"
   sodipodi:docname="media-repeat-none.svg"
   inkscape:version="1.1.2 (0a00cf5339, 2022-02-04)"
   xmlns:inkscape="http://www.inkscape.org/namespaces/inkscape"
   xmlns:sodipodi="http://sodipodi.sourceforge.net/DTD/sodipodi-0.dtd"
   xmlns="http://www.w3.org/2000/svg"
   xmlns:svg="http://www.w3.org/2000/svg">
  <sodipodi:namedview
     id="namedview11"
     pagecolor="#000000"
     bordercolor="#666666"
     borderopacity="1.0"
     inkscape:pageshadow="2"
     inkscape:pageopacity="0"
     inkscape:pagecheckerboard="0"
     showgrid="false"
     inkscape:zoom="47.25"
     inkscape:cx="8"
     inkscape:cy="8"
     inkscape:window-width="1880"
     inkscape:window-height="966"
     inkscape:window-x="0"
     inkscape:window-y="29"
     inkscape:window-maximized="1"
     inkscape:current-layer="svg9" />
  <defs
     id="defs3">
    <style
       id="current-color-scheme"
       type="text/css">
   .ColorScheme-Text { color:#eeeeec; } .ColorScheme-Highlight { color:#367bf0; } .ColorScheme-NeutralText { color:#ffcc44; } .ColorScheme-PositiveText { color:#3db47e; } .ColorScheme-NegativeText { color:#dd4747; }
  </style>
  </defs>
  <path
     style="fill:currentColor"
     class="ColorScheme-NegativeText"
     d="m 10,2.2482749 v 0 V 3.4141 L 11.586,5 10,6.5859 V 7.6872203 L 10.374773,8 V 8 H 11.414 L 13,6.4141 14.586,8 h 1.16415 V 8 L 16,7.6239207 V 6.5859 L 14.414,5 16,3.4141 v -1.1446182 0 L 15.686405,2 H 14.586 L 13,3.5859 11.414,2 h -1.124223 z"
     id="path5"
     sodipodi:nodetypes="ccccccccccccccccccccccccc" />
  <path
     style="opacity:0.35;fill:currentColor"
     class="ColorScheme-Text"
     d="m 5,2.4812302 v 0 V 4 H 3 C 1,4 1,6 1,6 v 6 c 0,0 0,2 2,2 h 10 c 2,0 2,-2 2,-2 v -2 h -2 v 2 H 3 V 6 h 2 v 1.4333793 l 0.4169938,0.2538753 v 0 L 8.6676333,5.249275 v 0 L 8.606441,4.7048307 5.4201432,2.3151074 Z"
     id="path7"
     sodipodi:nodetypes="cccsccssccccccccccccccc" />
</svg>
