<?xml version="1.0" encoding="UTF-8" standalone="no"?>
<svg
   width="16"
   height="16"
   version="1.1"
   id="svg7"
   sodipodi:docname="media-album-repeat-amarok.svg"
   inkscape:version="1.1.2 (0a00cf5339, 2022-02-04)"
   xmlns:inkscape="http://www.inkscape.org/namespaces/inkscape"
   xmlns:sodipodi="http://sodipodi.sourceforge.net/DTD/sodipodi-0.dtd"
   xmlns="http://www.w3.org/2000/svg"
   xmlns:svg="http://www.w3.org/2000/svg">
  <sodipodi:namedview
     id="namedview9"
     pagecolor="#000000"
     bordercolor="#666666"
     borderopacity="1.0"
     inkscape:pageshadow="2"
     inkscape:pageopacity="0"
     inkscape:pagecheckerboard="0"
     showgrid="false"
     inkscape:zoom="47.25"
     inkscape:cx="8"
     inkscape:cy="8"
     inkscape:window-width="1880"
     inkscape:window-height="966"
     inkscape:window-x="0"
     inkscape:window-y="29"
     inkscape:window-maximized="1"
     inkscape:current-layer="svg7" />
  <defs
     id="defs3">
    <style
       id="current-color-scheme"
       type="text/css">
   .ColorScheme-Text { color:#eeeeec; } .ColorScheme-Highlight { color:#367bf0; } .ColorScheme-NeutralText { color:#ffcc44; } .ColorScheme-PositiveText { color:#3db47e; } .ColorScheme-NegativeText { color:#dd4747; }
  </style>
  </defs>
  <path
     style="fill:currentColor"
     class="ColorScheme-Text"
     d="m 5,2.4600233 v 0 V 4 H 3 C 1,4 1,6 1,6 v 6 c 0,0 0,2 2,2 h 10 c 2,0 2,-2 2,-2 V 6 c 0,0 0,-2 -2,-2 h -2 v 2 h 2 v 6 H 3 V 6 h 2 v 1.4969999 l 0.434167,0.1773749 v 0 L 8.6137058,5.2897207 v 0 L 8.5760572,4.6820429 5.3895247,2.2921436 Z M 9,7 v 4 h 1 v -1 h 1 v 1 h 1 V 7 Z m 1,1 h 1 v 1 h -1 z"
     id="path5"
     sodipodi:nodetypes="cccsccssccsccccccccccccccccccccccccccccc" />
</svg>
