<?xml version="1.0" encoding="UTF-8" standalone="no"?>
<svg
   width="16"
   height="16"
   version="1.1"
   id="svg7"
   sodipodi:docname="node-break.svg"
   inkscape:version="1.1.2 (0a00cf5339, 2022-02-04)"
   xmlns:inkscape="http://www.inkscape.org/namespaces/inkscape"
   xmlns:sodipodi="http://sodipodi.sourceforge.net/DTD/sodipodi-0.dtd"
   xmlns="http://www.w3.org/2000/svg"
   xmlns:svg="http://www.w3.org/2000/svg">
  <sodipodi:namedview
     id="namedview9"
     pagecolor="#ffffff"
     bordercolor="#666666"
     borderopacity="1.0"
     inkscape:pageshadow="2"
     inkscape:pageopacity="0.0"
     inkscape:pagecheckerboard="0"
     showgrid="false"
     inkscape:zoom="47.25"
     inkscape:cx="8"
     inkscape:cy="8"
     inkscape:window-width="1880"
     inkscape:window-height="966"
     inkscape:window-x="0"
     inkscape:window-y="29"
     inkscape:window-maximized="1"
     inkscape:current-layer="svg7" />
  <defs
     id="defs3">
    <style
       id="current-color-scheme"
       type="text/css">
   .ColorScheme-Text { color:#eeeeec; } .ColorScheme-Highlight { color:#367bf0; } .ColorScheme-NeutralText { color:#ffcc44; } .ColorScheme-PositiveText { color:#3db47e; } .ColorScheme-NegativeText { color:#dd4747; }
  </style>
  </defs>
  <path
     style="fill:currentColor"
     class="ColorScheme-Text"
     d="M 5,0 V 2 H 0.5 C 0,2 0,2.5 0,2.5 0,2.5 0,3 0.5,3 H 5 v 2 h 5 V 3 h 4.5 C 15,3 15,2.5 15,2.5 15,2.5 15,2 14.5,2 H 10 V 0 Z M 7,6 V 7 H 5.5069406 L 5.2994898,7.3593877 v 0 l 1.9552471,2.3462966 v 0 l 0.505034,-0.017409 1.9465379,-2.3358455 v 0 L 9.5490994,7 H 8 V 6 Z m -6,5 v 2 H 0.5 C 0,13 0,13.5 0,13.5 0,13.5 0,14 0.5,14 H 1 v 2 h 4 v -5 z m 9,0 v 5 h 4 v -2 h 0.5 C 15,14 15,13.5 15,13.5 15,13.5 15,13 14.5,13 H 14 v -2 z"
     id="path5"
     sodipodi:nodetypes="ccscsccccscscccccccccccccccccccscscccccccccscsccc" />
</svg>
