<?xml version="1.0" encoding="UTF-8" standalone="no"?>
<svg
   width="16"
   height="16"
   viewBox="0 0 16 16"
   version="1.1"
   id="svg7"
   sodipodi:docname="object-order-raise-calligra.svg"
   inkscape:version="1.1.2 (0a00cf5339, 2022-02-04)"
   xmlns:inkscape="http://www.inkscape.org/namespaces/inkscape"
   xmlns:sodipodi="http://sodipodi.sourceforge.net/DTD/sodipodi-0.dtd"
   xmlns="http://www.w3.org/2000/svg"
   xmlns:svg="http://www.w3.org/2000/svg">
  <sodipodi:namedview
     id="namedview9"
     pagecolor="#000000"
     bordercolor="#666666"
     borderopacity="1.0"
     inkscape:pageshadow="2"
     inkscape:pageopacity="0"
     inkscape:pagecheckerboard="0"
     showgrid="false"
     inkscape:zoom="47.25"
     inkscape:cx="8"
     inkscape:cy="8"
     inkscape:window-width="1880"
     inkscape:window-height="966"
     inkscape:window-x="0"
     inkscape:window-y="29"
     inkscape:window-maximized="1"
     inkscape:current-layer="svg7" />
  <defs
     id="defs3">
    <style
       id="current-color-scheme"
       type="text/css">
   .ColorScheme-Text { color:#eeeeec; } .ColorScheme-Highlight { color:#367bf0; } .ColorScheme-NeutralText { color:#ffcc44; } .ColorScheme-PositiveText { color:#3db47e; } .ColorScheme-NegativeText { color:#dd4747; }
  </style>
  </defs>
  <path
     style="fill:currentColor"
     class="ColorScheme-Text"
     d="M 4,1 1.2563308,4.6582257 1.3803943,5 V 5 H 7 L 9.7415465,1.3446046 v 0 L 9.5703474,1 Z M 4,6 1.2843584,9.6208554 1.4016436,10 v 0 H 5 L 7.7046858,6.3937523 v 0 L 7.5176995,6 Z m 7.803842,0.1961583 v 0 L 9,9 9.5322896,10.14062 v 0 l 0.3139412,0.06681 0.9619592,-1.0067019 v 0 L 11,9.3381503 V 15 h 2 v -5.7678843 0 l 0.20557,-0.016985 0.962412,1.007175 0.328907,-0.14421 v 0 L 15,9 12.221367,6.2213668 Z M 4,11 1.2666092,14.644521 v 0 L 1.3591451,15 H 5 l 2.7656842,-3.687579 v 0 L 7.6658348,11 Z"
     id="path5"
     sodipodi:nodetypes="ccccccccccccccccccccccccccccccccccccccccccccccc" />
</svg>
