<?xml version="1.0" encoding="UTF-8" standalone="no"?>
<svg
   width="16"
   height="16"
   version="1.1"
   id="svg16"
   sodipodi:docname="object-group.svg"
   inkscape:version="1.2 (dc2aedaf03, 2022-05-15)"
   xmlns:inkscape="http://www.inkscape.org/namespaces/inkscape"
   xmlns:sodipodi="http://sodipodi.sourceforge.net/DTD/sodipodi-0.dtd"
   xmlns="http://www.w3.org/2000/svg"
   xmlns:svg="http://www.w3.org/2000/svg">
  <sodipodi:namedview
     id="namedview18"
     pagecolor="#505050"
     bordercolor="#ffffff"
     borderopacity="1"
     inkscape:showpageshadow="0"
     inkscape:pageopacity="0"
     inkscape:pagecheckerboard="1"
     inkscape:deskcolor="#505050"
     showgrid="false"
     inkscape:zoom="54.4375"
     inkscape:cx="7.9908152"
     inkscape:cy="8"
     inkscape:window-width="1472"
     inkscape:window-height="1080"
     inkscape:window-x="223"
     inkscape:window-y="-1"
     inkscape:window-maximized="1"
     inkscape:current-layer="svg16" />
  <defs
     id="defs12">
    <style
       id="current-color-scheme"
       type="text/css">
   .ColorScheme-Text { color:#eeeeec; } .ColorScheme-Highlight { color:#367bf0; } .ColorScheme-NeutralText { color:#ffcc44; } .ColorScheme-PositiveText { color:#3db47e; } .ColorScheme-NegativeText { color:#dd4747; }
  </style>
  </defs>
  <path
     style="fill:currentColor"
     class="ColorScheme-Text"
     d="M 3,1 C 1,1 1,3 1,3 v 10 c 0,2 2,2 2,2 h 10 c 2,0 2,-2 2,-2 V 3 C 15,1 13,1 13,1 Z m 7,1 c 2.209,0 4,1.7909 4,4 0,2.2091 -1.791,4 -4,4 V 6.2570148 L 9.794747,6.0734788 9.7876408,6 H 6 C 6,3.7909 7.7909,2 10,2 Z M 3,7 H 8.7941505 L 8.9018011,7.0895315 9,7.2812186 V 13 H 3 Z"
     id="path14"
     sodipodi:nodetypes="scscscscssscccccsccccccc" />
</svg>
