<?xml version="1.0" encoding="UTF-8" standalone="no"?>
<svg
   width="16"
   height="16"
   viewBox="0 0 16 16"
   version="1.1"
   id="svg7"
   sodipodi:docname="object-order-lower.svg"
   inkscape:version="1.1.2 (0a00cf5339, 2022-02-04)"
   xmlns:inkscape="http://www.inkscape.org/namespaces/inkscape"
   xmlns:sodipodi="http://sodipodi.sourceforge.net/DTD/sodipodi-0.dtd"
   xmlns="http://www.w3.org/2000/svg"
   xmlns:svg="http://www.w3.org/2000/svg">
  <sodipodi:namedview
     id="namedview9"
     pagecolor="#000000"
     bordercolor="#666666"
     borderopacity="1.0"
     inkscape:pageshadow="2"
     inkscape:pageopacity="0"
     inkscape:pagecheckerboard="0"
     showgrid="false"
     inkscape:zoom="47.25"
     inkscape:cx="8"
     inkscape:cy="8"
     inkscape:window-width="1880"
     inkscape:window-height="966"
     inkscape:window-x="0"
     inkscape:window-y="29"
     inkscape:window-maximized="1"
     inkscape:current-layer="svg7" />
  <defs
     id="defs3">
    <style
       id="current-color-scheme"
       type="text/css">
   .ColorScheme-Text { color:#eeeeec; } .ColorScheme-Highlight { color:#367bf0; } .ColorScheme-NeutralText { color:#ffcc44; } .ColorScheme-PositiveText { color:#3db47e; } .ColorScheme-NegativeText { color:#dd4747; }
  </style>
  </defs>
  <path
     style="fill:currentColor"
     class="ColorScheme-Text"
     d="m 3,1 v 5.7351559 0 L 2.7611546,6.7500637 1.8419466,5.7881719 1.5448263,5.8324675 v 0 L 1,7 3.7665906,9.7665906 4.1956361,9.8043639 v 0 L 7,7 6.4817397,5.8893971 v 0 L 6.0804426,5.8693865 5.1918229,6.7992698 v 0 L 5,6.650328 V 1 Z m 8,0 -2.6578917,3.5438556 v 0 L 8.5121502,5 H 12 L 14.714008,1.3813225 15,1 14.714008,1.3813225 14.565065,1 Z M 11,6 8.2988811,9.6014918 8.4702588,10 v 0 H 12 L 14.752276,6.3302984 14.565065,6 v 0 z m -2,5 -2.7251125,3.633483 v 0 L 6.3957545,15 H 12 L 14.716698,11.377736 14.670705,11 v 0 z"
     id="path5"
     sodipodi:nodetypes="cccccccccccccccccccccccccccccccccccccccccccccccc" />
</svg>
