<?xml version="1.0" encoding="UTF-8" standalone="no"?>
<svg
   width="16"
   height="16"
   viewBox="0 0 16 16"
   version="1.1"
   id="svg7"
   sodipodi:docname="object-order-front.svg"
   inkscape:version="1.1.2 (0a00cf5339, 2022-02-04)"
   xmlns:inkscape="http://www.inkscape.org/namespaces/inkscape"
   xmlns:sodipodi="http://sodipodi.sourceforge.net/DTD/sodipodi-0.dtd"
   xmlns="http://www.w3.org/2000/svg"
   xmlns:svg="http://www.w3.org/2000/svg">
  <sodipodi:namedview
     id="namedview9"
     pagecolor="#000000"
     bordercolor="#666666"
     borderopacity="1.0"
     inkscape:pageshadow="2"
     inkscape:pageopacity="0"
     inkscape:pagecheckerboard="0"
     showgrid="false"
     inkscape:zoom="47.25"
     inkscape:cx="8"
     inkscape:cy="8"
     inkscape:window-width="1880"
     inkscape:window-height="966"
     inkscape:window-x="0"
     inkscape:window-y="29"
     inkscape:window-maximized="1"
     inkscape:current-layer="svg7" />
  <defs
     id="defs3">
    <style
       id="current-color-scheme"
       type="text/css">
   .ColorScheme-Text { color:#eeeeec; } .ColorScheme-Highlight { color:#367bf0; } .ColorScheme-NeutralText { color:#ffcc44; } .ColorScheme-PositiveText { color:#3db47e; } .ColorScheme-NegativeText { color:#dd4747; }
  </style>
  </defs>
  <path
     style="fill:currentColor"
     class="ColorScheme-Text"
     d="M 4,1 1.327586,4.5632186 1.4435338,5 V 5 H 7 L 9.7490382,1.3346158 9.5915967,1 v 0 z m 7.719319,1.2806813 v 0 L 9,5 9.5116915,6.0964817 v 0 L 9.9490432,6.0998385 10.807782,5.2011582 11,5.2323528 v 0 V 13 h 2 v -7.6828193 0 l 0.227163,-0.079452 0.877832,0.9186616 0.356781,-0.00305 v 0 L 15,5 12.242531,2.2425314 Z M 4,6 1.3327858,9.5562855 1.5072816,10 v 0 H 5 L 7.7299462,6.3600717 7.5601968,6 V 6 Z M 4,11 1.3453601,14.53952 1.5072816,15 v 0 H 5 l 2.7098216,-3.613095 v 0 L 7.580839,11 Z"
     id="path5"
     sodipodi:nodetypes="ccccccccccccccccccccccccccccccccccccccccccccccc" />
</svg>
