<?xml version="1.0" encoding="UTF-8" standalone="no"?>
<svg
   width="16"
   height="16"
   version="1.1"
   id="svg7"
   sodipodi:docname="office-chart-line.svg"
   inkscape:version="1.1.2 (0a00cf5339, 2022-02-04)"
   xmlns:inkscape="http://www.inkscape.org/namespaces/inkscape"
   xmlns:sodipodi="http://sodipodi.sourceforge.net/DTD/sodipodi-0.dtd"
   xmlns="http://www.w3.org/2000/svg"
   xmlns:svg="http://www.w3.org/2000/svg">
  <sodipodi:namedview
     id="namedview9"
     pagecolor="#000000"
     bordercolor="#666666"
     borderopacity="1.0"
     inkscape:pageshadow="2"
     inkscape:pageopacity="0"
     inkscape:pagecheckerboard="0"
     showgrid="false"
     inkscape:zoom="47.25"
     inkscape:cx="8"
     inkscape:cy="8"
     inkscape:window-width="1880"
     inkscape:window-height="966"
     inkscape:window-x="0"
     inkscape:window-y="29"
     inkscape:window-maximized="1"
     inkscape:current-layer="svg7" />
  <defs
     id="defs3">
    <style
       id="current-color-scheme"
       type="text/css">
   .ColorScheme-Text { color:#eeeeec; } .ColorScheme-Highlight { color:#367bf0; } .ColorScheme-NeutralText { color:#ffcc44; } .ColorScheme-PositiveText { color:#3db47e; } .ColorScheme-NegativeText { color:#dd4747; }
  </style>
  </defs>
  <path
     style="fill:currentColor"
     class="ColorScheme-Text"
     d="M 1,2 V 15 H 14 V 13.001953 13 11.867188 L 13.958984,11.828125 11.355657,9.2247975 11.130859,9 11.355657,9.2247975 10.906919,9.2141747 v 0 L 9.2242516,10.896842 v 0 L 8.8044407,10.929441 5.875,8 H 4.4609375 3 V 2 Z M 9,2 8.8117227,2.1882773 4.9980469,6.0019531 H 3.0019531 v 1 H 5.4121094 L 8.7780962,3.6359663 v 0 l 0.4869678,0.039254 1.587455,1.587455 0.508742,0.04602 v 0 0 0 L 13.962925,2.7070312 C 13.965857,2.7120315 13.255859,2 13.255859,2 l -1.882338,1.8823382 v 0 L 10.872371,3.866749 9.2419842,2.2378594 v 0 L 8.8117227,2.1882773 Z M 3,9 h 2.4609375 l 3.3033074,3.303307 v 0 L 9.2648932,12.2705 v 0 0 l 1.7257178,-1.724134 v 0 l 0.314243,0.0417 1.947093,1.947093 0.215205,0.207359 v 0 L 13.379981,13 H 3 Z"
     id="path5"
     sodipodi:nodetypes="ccccccccccccccccccccccccccccccccccccccccccccccccccccccccccc" />
</svg>
