<?xml version="1.0" encoding="UTF-8" standalone="no"?>
<svg
   width="16"
   height="16"
   version="1.1"
   viewBox="0 0 16 16"
   id="svg7"
   sodipodi:docname="oilpaint.svg"
   inkscape:version="1.1.2 (0a00cf5339, 2022-02-04)"
   xmlns:inkscape="http://www.inkscape.org/namespaces/inkscape"
   xmlns:sodipodi="http://sodipodi.sourceforge.net/DTD/sodipodi-0.dtd"
   xmlns="http://www.w3.org/2000/svg"
   xmlns:svg="http://www.w3.org/2000/svg">
  <sodipodi:namedview
     id="namedview9"
     pagecolor="#ffffff"
     bordercolor="#666666"
     borderopacity="1.0"
     inkscape:pageshadow="2"
     inkscape:pageopacity="0.0"
     inkscape:pagecheckerboard="0"
     showgrid="false"
     inkscape:zoom="47.125"
     inkscape:cx="8"
     inkscape:cy="8"
     inkscape:window-width="1745"
     inkscape:window-height="966"
     inkscape:window-x="0"
     inkscape:window-y="29"
     inkscape:window-maximized="1"
     inkscape:current-layer="svg7" />
  <defs
     id="defs3">
    <style
       id="current-color-scheme"
       type="text/css">
   .ColorScheme-Text { color:#eeeeec; } .ColorScheme-Highlight { color:#367bf0; } .ColorScheme-NeutralText { color:#ffcc44; } .ColorScheme-PositiveText { color:#3db47e; } .ColorScheme-NegativeText { color:#dd4747; }
  </style>
  </defs>
  <path
     style="fill:currentColor"
     class="ColorScheme-Text"
     d="m 14.605153,1.2071448 c -0.0249,-0.02937 0.226758,-0.1562374 0,0 C 13.243228,2.1455214 8.7258256,6.0353909 6.8828125,8.1171875 7.4414213,8.2598092 7.9945975,8.5388413 8.3867188,9.0761719 8.4910496,9.2191385 8.5750299,9.3872587 8.65625,9.5566406 10.657868,7.3696359 14.039406,2.7353585 14.831135,1.3806763 14.957645,1.1642113 14.62709,1.2327694 14.605153,1.2071448 Z M 6.1503906,9 C 5.120145,9.0306611 4.135565,9.8674859 3.4511719,11.628906 c -0.6093745,1.566432 -1.590349,2.401802 -2.123427,2.672191 -0.1519904,0.07709 0.084375,0.238861 0.0242,0.227946 0.1031173,0.04005 -0.1307671,-0.04609 0,0 1.6286594,0.574083 5.2283418,1.401901 6.4781332,-2.866934 0.3291075,-0.782704 0.1456669,-1.455857 -0.25,-1.9980465 C 7.2706834,9.2400934 6.7483789,9.0555723 6.1503906,9 Z"
     id="path5"
     sodipodi:nodetypes="cscscscccscscsc" />
</svg>
