<?xml version="1.0" encoding="UTF-8" standalone="no"?>
<svg
   width="16"
   height="16"
   version="1.1"
   id="svg7"
   sodipodi:docname="osd-rotate-cw.svg"
   inkscape:version="1.1.2 (0a00cf5339, 2022-02-04)"
   xmlns:inkscape="http://www.inkscape.org/namespaces/inkscape"
   xmlns:sodipodi="http://sodipodi.sourceforge.net/DTD/sodipodi-0.dtd"
   xmlns="http://www.w3.org/2000/svg"
   xmlns:svg="http://www.w3.org/2000/svg">
  <sodipodi:namedview
     id="namedview9"
     pagecolor="#000000"
     bordercolor="#666666"
     borderopacity="1.0"
     inkscape:pageshadow="2"
     inkscape:pageopacity="0"
     inkscape:pagecheckerboard="0"
     showgrid="false"
     inkscape:zoom="47.25"
     inkscape:cx="8"
     inkscape:cy="8"
     inkscape:window-width="1880"
     inkscape:window-height="966"
     inkscape:window-x="0"
     inkscape:window-y="29"
     inkscape:window-maximized="1"
     inkscape:current-layer="svg7" />
  <defs
     id="defs3">
    <style
       id="current-color-scheme"
       type="text/css">
   .ColorScheme-Text { color:#eeeeec; } .ColorScheme-Highlight { color:#367bf0; } .ColorScheme-NeutralText { color:#ffcc44; } .ColorScheme-PositiveText { color:#3db47e; } .ColorScheme-NegativeText { color:#dd4747; }
  </style>
  </defs>
  <path
     style="fill:currentColor"
     class="ColorScheme-Text"
     d="M 2.4003906,3 C 1.6247906,3 1,3.6363058 1,4.4277344 V 11.572266 C 1,12.363694 1.6247906,13 2.4003906,13 h 4.7785399 l 0.1462993,-0.240756 c -0.098598,-0.240756 0.030736,0.081 0,0 C 7.1121873,12.197817 7.0017645,11.601904 7,11 7,8.2385763 9.2385763,6 12,6 12.976445,6.0005084 13.928963,6.2868495 14.741403,6.8202309 14.82929,6.8779304 14.915538,6.6505163 15,6.7139486 v 0 -2.2862142 C 15,3.6363058 14.375209,3 13.599609,3 Z M 12,7 c -2.209139,0 -4,1.790861 -4,4 0,2.209139 1.790861,4 4,4 2.209139,0 4,-1.790861 4,-4 0,-2.209139 -1.790861,-4 -4,-4 z m 0,1 c 1.045804,0.00166 2.015266,0.5478161 2.558594,1.4414062 l 0.266459,-0.2664587 v 0 L 15,9.3593582 v 1.3967668 0 L 14.776948,11 H 14 13.316236 v 0 l -0.089,-0.227236 0.58917,-0.58917 C 13.495834,9.4666548 12.785337,9.00369 12,9 c -1.10457,0 -2,0.895431 -2,2 0,1.10457 0.89543,2 2,2 v 1 C 10.343146,14 9,12.656854 9,11 9,9.343146 10.343146,8 12,8 Z"
     id="path5"
     sodipodi:nodetypes="ssssccsccsccssssssssccccccccccccccsccsc" />
</svg>
