<?xml version="1.0" encoding="UTF-8" standalone="no"?>
<svg
   width="16"
   height="16"
   version="1.1"
   id="svg7"
   sodipodi:docname="path-mode-polyline.svg"
   inkscape:version="1.1.2 (0a00cf5339, 2022-02-04)"
   xmlns:inkscape="http://www.inkscape.org/namespaces/inkscape"
   xmlns:sodipodi="http://sodipodi.sourceforge.net/DTD/sodipodi-0.dtd"
   xmlns="http://www.w3.org/2000/svg"
   xmlns:svg="http://www.w3.org/2000/svg">
  <sodipodi:namedview
     id="namedview9"
     pagecolor="#ffffff"
     bordercolor="#666666"
     borderopacity="1.0"
     inkscape:pageshadow="2"
     inkscape:pageopacity="0.0"
     inkscape:pagecheckerboard="0"
     showgrid="false"
     inkscape:zoom="47.125"
     inkscape:cx="8"
     inkscape:cy="7.9893899"
     inkscape:window-width="1811"
     inkscape:window-height="928"
     inkscape:window-x="0"
     inkscape:window-y="35"
     inkscape:window-maximized="1"
     inkscape:current-layer="svg7" />
  <defs
     id="defs3">
    <style
       id="current-color-scheme"
       type="text/css">
   .ColorScheme-Text { color:#eeeeec; } .ColorScheme-Highlight { color:#367bf0; } .ColorScheme-NeutralText { color:#ffcc44; } .ColorScheme-PositiveText { color:#3db47e; } .ColorScheme-NegativeText { color:#dd4747; }
  </style>
  </defs>
  <path
     style="fill:currentColor"
     class="ColorScheme-Text"
     d="M 6.9805,0 C 6.7531,0.00458 6.534,0.08656 6.3594,0.23242 L 0.35938,5.2324 C -0.21,5.7069 -0.08364,6.6244 0.60547,6.9199 L 4.3633,8.5312 3.0215,14.791 c -0.2002,0.939 0.8768,1.554 1.5918,0.998 l 5.9277,-4.611 4.064,1.742 c 1.24,0.533 1.985,-1.327 0.79,-1.84 L 12.481387,9.8305983 v 0 L 12.551101,9.6153665 13.613,8.7891 C 14.746,7.9828 13.448,6.3126 12.387,7.2109 L 10.248,8.875 6.6641,7.3379 7.9785,1.209 C 8.1133,0.57852 7.6252,0 6.9805,0 Z M 5.029992,3.9430951 5.3075179,4.1211357 v 0 L 4.791,6.5352 3.1410886,5.8283437 v 0 L 3.0951361,5.5555006 Z m 1.1412875,5.7028394 0.3889669,-0.1739637 1.6313237,0.6991072 -0.0068,0.308871 v 0 l -2.3467363,1.823354 v 0 L 5.6301914,12.16433 Z"
     id="path5"
     sodipodi:nodetypes="cccccccccccccccccccccccccccccccccccccc" />
</svg>
