<?xml version="1.0" encoding="UTF-8" standalone="no"?>
<svg
   width="16"
   height="16"
   version="1.1"
   id="svg9"
   sodipodi:docname="path-reverse.svg"
   inkscape:version="1.1.2 (0a00cf5339, 2022-02-04)"
   xmlns:inkscape="http://www.inkscape.org/namespaces/inkscape"
   xmlns:sodipodi="http://sodipodi.sourceforge.net/DTD/sodipodi-0.dtd"
   xmlns="http://www.w3.org/2000/svg"
   xmlns:svg="http://www.w3.org/2000/svg">
  <sodipodi:namedview
     id="namedview11"
     pagecolor="#000000"
     bordercolor="#666666"
     borderopacity="1.0"
     inkscape:pageshadow="2"
     inkscape:pageopacity="0"
     inkscape:pagecheckerboard="0"
     showgrid="false"
     inkscape:zoom="47.25"
     inkscape:cx="8"
     inkscape:cy="8"
     inkscape:window-width="1880"
     inkscape:window-height="966"
     inkscape:window-x="0"
     inkscape:window-y="29"
     inkscape:window-maximized="1"
     inkscape:current-layer="svg9" />
  <defs
     id="defs3">
    <style
       id="current-color-scheme"
       type="text/css">
   .ColorScheme-Text { color:#eeeeec; } .ColorScheme-Highlight { color:#367bf0; } .ColorScheme-NeutralText { color:#ffcc44; } .ColorScheme-PositiveText { color:#3db47e; } .ColorScheme-NegativeText { color:#dd4747; }
  </style>
  </defs>
  <path
     style="fill:currentColor"
     class="ColorScheme-Text"
     d="M 14,1.5 V 3 C 14,8 9,8 9,8 H 6 C 6,8 0,8 0,14 V 15.5 C 0,15.5 0,16 0.5,16 1,16 1,15.5 1,15.5 V 14 C 1,9 6,9 6,9 H 9 C 9,9 15,9 15,3 V 1.5 C 15,1.5 15,1 14.5,1 14,1 14,1.5 14,1.5 Z"
     id="path5" />
  <path
     style="fill:currentColor"
     class="ColorScheme-Text"
     d="m 11.688402,11.194748 v 0 l -3.3136998,2.071063 -0.039325,0.4438 v 0 L 11.687498,15.804687 12,15.665861 v 0 V 14 h 3 V 13 H 12 V 11.412257 Z M 3,1.4019239 v 0 V 3 H 0 v 1 h 3 v 1.5922283 l 0.3595547,0.18305 v 0 L 6.65463,3.7158562 v 0 L 6.67092,3.294325 3.3342231,1.2088894 Z M 5,6 h 5 v 5 H 5 Z"
     id="path7"
     sodipodi:nodetypes="ccccccccccccccccccccccccccccccccc" />
</svg>
