<?xml version="1.0" encoding="UTF-8" standalone="no"?>
<svg
   width="16"
   height="16"
   viewBox="0 0 16 16"
   version="1.1"
   id="svg7"
   sodipodi:docname="poedit-sync.svg"
   inkscape:version="1.1.2 (0a00cf5339, 2022-02-04)"
   xmlns:inkscape="http://www.inkscape.org/namespaces/inkscape"
   xmlns:sodipodi="http://sodipodi.sourceforge.net/DTD/sodipodi-0.dtd"
   xmlns="http://www.w3.org/2000/svg"
   xmlns:svg="http://www.w3.org/2000/svg">
  <sodipodi:namedview
     id="namedview9"
     pagecolor="#000000"
     bordercolor="#666666"
     borderopacity="1.0"
     inkscape:pageshadow="2"
     inkscape:pageopacity="0"
     inkscape:pagecheckerboard="0"
     showgrid="false"
     inkscape:zoom="51.6875"
     inkscape:cx="7.9903265"
     inkscape:cy="8"
     inkscape:window-width="1920"
     inkscape:window-height="1051"
     inkscape:window-x="0"
     inkscape:window-y="29"
     inkscape:window-maximized="1"
     inkscape:current-layer="svg7" />
  <defs
     id="defs3">
    <style
       id="current-color-scheme"
       type="text/css">
   .ColorScheme-Text { color:#eeeeec; } .ColorScheme-Highlight { color:#367bf0; } .ColorScheme-NeutralText { color:#ffcc44; } .ColorScheme-PositiveText { color:#3db47e; } .ColorScheme-NegativeText { color:#dd4747; }
  </style>
  </defs>
  <path
     style="fill:currentColor"
     class="ColorScheme-Text"
     d="M 0,0 V 7 H 8 V 0 Z m 9,1.2452311 v 0 V 5 h 1 V 2.6560056 l 0.27025,-0.197647 c 0.27025,0.1028898 -0.0889,-0.036311 0,0 C 12.512837,3.374306 13.994998,5.5586816 14,8 h 1 C 14.997071,4.6055497 12.56192,1.7156922 9.2444656,1.1177831 9.1634952,1.1031897 9.0819991,1.2570678 9,1.2452311 Z M 1,8 c 0.00293,3.39068 2.4326732,6.277888 5.7444834,6.880216 C 6.8290886,14.895603 6.9142693,14.617471 7,14.629846 v 0 V 11 H 6 v 2.287403 0 C 5.8896538,13.24839 5.78099,13.563497 5.6740875,13.518581 3.4626703,12.589429 2.0049602,10.421063 2,8 Z m 7,1 v 7 h 8 V 9 Z"
     id="path5"
     sodipodi:nodetypes="cccccccccccsccsccsccccccsccccccc" />
</svg>
