<?xml version="1.0" encoding="UTF-8" standalone="no"?>
<svg
   width="16"
   height="16"
   version="1.1"
   id="svg42"
   sodipodi:docname="albumfolder-properties.svg"
   inkscape:version="1.2 (dc2aedaf03, 2022-05-15)"
   xmlns:inkscape="http://www.inkscape.org/namespaces/inkscape"
   xmlns:sodipodi="http://sodipodi.sourceforge.net/DTD/sodipodi-0.dtd"
   xmlns="http://www.w3.org/2000/svg"
   xmlns:svg="http://www.w3.org/2000/svg">
  <sodipodi:namedview
     id="namedview44"
     pagecolor="#505050"
     bordercolor="#ffffff"
     borderopacity="1"
     inkscape:showpageshadow="0"
     inkscape:pageopacity="0"
     inkscape:pagecheckerboard="1"
     inkscape:deskcolor="#505050"
     showgrid="false"
     inkscape:zoom="154.50283"
     inkscape:cx="13.572567"
     inkscape:cy="4.8963504"
     inkscape:window-width="1574"
     inkscape:window-height="1080"
     inkscape:window-x="172"
     inkscape:window-y="-1"
     inkscape:window-maximized="1"
     inkscape:current-layer="svg42" />
  <defs
     id="defs38">
    <style
       id="current-color-scheme"
       type="text/css">.ColorScheme-Text { color:#dedede; }</style>
  </defs>
  <path
     d="M 6.127,0.25977 C 6.062649,0.2508882 5.99662,0.2555187 5.92973,0.273442 5.66217,0.345135 5.50452,0.617212 5.57621,0.884772 l 0.098494,0.367242 0.090798,-0.2494241 C 5.7259883,1.0162239 5.6340333,1.422161 5.5947849,1.4364952 5.2307123,1.5694601 4.8782435,1.7324588 4.54103,1.923842 4.527562,1.930112 4.513133,1.929942 4.500014,1.937514 4.486594,1.945264 4.479229,1.958064 4.466811,1.966811 4.1402033,2.1579136 3.8297018,2.3751428 3.5383348,2.6163306 3.4991788,2.6487431 3.1532124,2.5722328 3.1147549,2.6055055 L 3.3098374,2.6027874 3.050821,2.343771 c -0.19587,-0.19587 -0.51116,-0.19587 -0.70703,0 -0.19587,0.19587 -0.19587,0.51116 0,0.70703 L 2.6420731,3.3490831 2.5991138,3.7503647 C 2.5764408,3.7763334 2.667781,3.4720413 2.6455013,3.4983336 2.3807005,3.8108258 2.1437949,4.1460083 1.937541,4.500041 1.7385306,4.8470952 1.5696792,5.2105006 1.4328033,5.5862492 1.4177166,5.627665 1.592443,5.4212526 1.5781356,5.4629629 L 1.2578567,5.6759442 0.884801,5.576171 c -0.26756,-0.071693 -0.53964,0.085954 -0.61133,0.35352 -0.07169,0.267566 0.085954,0.53964 0.35352,0.61133 L 1.0163359,6.6462502 0.89169386,6.481017 c -0.00777,0.040201 0.22597384,0.2771764 0.21891604,0.3174747 -0.13876153,0.7923033 -0.13992245,1.602585 -0.00345,2.3952372 0.0075,0.043559 0.042959,-0.1097766 0.05129,-0.06633 L 1.0187316,9.3542406 0.626991,9.459011 c -0.26756,0.071693 -0.42521,0.34377 -0.35352,0.61133 0.071693,0.26756 0.34377,0.42521 0.61133,0.35352 l 0.3839493,-0.102975 0.1668391,0.06073 c 0.010901,0.03154 -0.018994,-0.03149 -0.00765,-1.31e-4 0.2787167,0.770498 0.690543,1.48607 1.2166939,2.114119 0.023191,0.02768 -0.00579,0.02651 0.017839,0.05384 l -0.021521,0.102612 -0.2971691,0.297169 c -0.19587,0.19587 -0.19587,0.51116 0,0.70703 0.19587,0.19587 0.51116,0.19587 0.70703,0 l 0.295556,-0.295556 0.1022372,-0.01148 c 0.029585,0.02583 0.030728,-0.0107 0.060732,0.01462 0.3093561,0.261052 0.6408299,0.494828 0.9907149,0.698665 0.3540757,0.203037 0.7251708,0.374682 1.1090294,0.513006 0.033859,0.0122 0.020393,0.03505 0.054447,0.04674 l 0.026888,0.06587 -0.1142347,0.427128 c -0.071693,0.26756 0.085954,0.53964 0.35352,0.61133 0.26756,0.07169 0.53964,-0.08595 0.61133,-0.35352 l 0.1128059,-0.417378 0.09433,-0.05389 c 0.039179,0.0076 0.00799,-0.01979 0.047263,-0.01289 0.7965534,0.139872 1.6113273,0.140649 2.4081313,0.0023 0.040278,-0.007 0.024642,0.03603 0.064824,0.02832 l 0.081876,0.04688 0.1087611,0.406662 c 0.071693,0.26756 0.34377,0.42521 0.6113297,0.35352 0.26756,-0.07169 0.42521,-0.34377 0.35352,-0.61133 l -0.106358,-0.396557 0.02947,-0.08702 c 0.0392,-0.01355 0.01844,-0.05363 0.05736,-0.06786 0.759166,-0.277603 1.464544,-0.684614 2.084823,-1.202989 0.02986,-0.02495 0.04658,0.03101 0.07604,0.0055 l 0.08388,-0.01024 0.300152,0.300152 c 0.19587,0.19587 0.51116,0.19587 0.70703,0 0.19587,-0.19587 0.19587,-0.51116 0,-0.70703 l -0.288625,-0.288625 -0.0063,-0.08699 c 0.02569,-0.02942 -0.02305,-0.05257 0.0021,-0.08241 0.261224,-0.309501 0.495142,-0.641145 0.699091,-0.99122 0.204369,-0.356398 0.376933,-0.73004 0.515724,-1.116585 0.01126,-0.03135 0.06414,0.01637 0.07495,-0.01516 l 0.09586,-0.04233 0.366213,0.09794 c 0.26756,0.07169 0.53964,-0.08595 0.61133,-0.35352 0.07169,-0.26756 -0.08595,-0.53963 -0.35352,-0.61133 l -0.400615,-0.1082752 -0.04046,-0.057948 c 0.0068,-0.035309 -0.05141,-0.041161 -0.04514,-0.076559 0.06954,-0.3924364 0.105454,-0.7901607 0.10731,-1.1888382 5.42e-4,-0.00958 0.0059,-0.017622 0.0059,-0.027344 0,-0.012518 -0.0069,-0.022874 -0.0078,-0.035156 -9.88e-4,-0.3885128 -0.03431,-0.7761924 -0.0996,-1.1590266 -0.0074,-0.043422 0.04911,-0.048918 0.04088,-0.09221 l 0.04054,-0.065912 0.399037,-0.1067219 c 0.26756,-0.071693 0.42521,-0.34377 0.35352,-0.61133 -0.07169,-0.26756 -0.34377,-0.42521 -0.61133,-0.35352 l -0.392393,0.1052415 -0.07526,-0.013815 c -0.01352,-0.039127 -0.0695,-0.032824 -0.08371,-0.071674 -0.27644,-0.7559293 -0.681206,-1.4586131 -1.196489,-2.0770386 -0.02711,-0.032531 0.06818,-0.3318139 0.04046,-0.3638744 L 13.38057,3.3266418 13.656341,3.050871 c 0.19587,-0.19587 0.19587,-0.51116 0,-0.70703 -0.19587,-0.19587 -0.51116,-0.19587 -0.70703,0 l -0.288978,0.2889782 0.286896,-0.082916 c -0.03784,-0.033036 -0.44308,0.097421 -0.481603,0.065222 C 12.163478,2.3625747 11.840489,2.135913 11.500071,1.937591 11.146173,1.7346562 10.775272,1.5630815 10.391619,1.4247931 10.357569,1.4125198 10.275781,0.9642069 10.241533,0.95245928 l 0.08329,0.30299242 0.09912,-0.3706007 c 0.07169,-0.26756 -0.08595,-0.53964 -0.35352,-0.61133 C 9.8028049,0.201781 9.5307349,0.359428 9.4590349,0.626994 L 9.358666,0.99835601 9.5239168,0.85196548 C 9.4848576,0.84441642 9.244148,1.1180919 9.2049964,1.1112149 8.4152272,0.97249195 7.6075411,0.97050859 6.8172122,1.1052909 6.7700154,1.1133398 6.4654535,0.88614684 6.4183879,0.89517125 L 6.6451378,1.0161982 6.5410449,0.6269909 c -0.05377,-0.20067 -0.22101,-0.34054 -0.41406,-0.36719 z m 1.5898,1.7461 C 8.8651285,1.9521216 10.004725,2.2293951 11,2.8047 c 1.641051,0.950278 2.732734,2.6179481 2.952504,4.4935603 0.0078,0.066989 -0.291758,0.3002915 -0.286147,0.3677878 L 13.797071,7.5 H 9.9336 C 9.7058708,6.6180046 8.9109197,6.0013173 8,6 7.8197341,6.000597 7.6403763,6.0255628 7.4668,6.074219 L 5.5162441,2.6970508 5.7518303,2.2826272 C 5.8060263,2.257009 5.5540354,2.5238138 5.6088989,2.4998629 6.2753049,2.2089406 6.9895293,2.0413725 7.7168,2.005859 Z M 4.5117322,3.2302153 4.6794171,3.2501049 6.5996,6.57427 c -0.3829986,0.3756183 -0.5990456,0.8893518 -0.59961,1.4258 5.05e-5,0.5361647 0.2153777,1.0498574 0.59766,1.4258 l -1.9206816,3.326836 0.122687,-0.01564 C 4.7454666,12.699402 4.4705741,12.847794 4.4179939,12.80866 1.9865615,10.99903 1.2804219,7.6437691 2.80475,5.00007 3.2044343,4.3116089 3.7366743,3.7103286 4.3697631,3.2305525 4.4387096,3.1783025 3.6516789,3.4277952 3.7229767,3.3784717 Z M 8,7.00007 c 0.5522847,0 1,0.4477153 1,1 0,0.5522847 -0.4477153,1 -1,1 -0.5522847,0 -1,-0.4477153 -1,-1 0,-0.5522847 0.4477153,-1 1,-1 z m 1.9355,1.5 h 3.876263 L 13.477712,8.2127263 c -0.0049,0.059514 0.484279,0.4062495 0.477654,0.4655003 -0.09138,0.8172493 -0.349868,1.6076684 -0.760106,2.3218434 -1.530765,2.646226 -4.7986874,3.71051 -7.5844581,2.498767 -0.055377,-0.02409 0.1851803,0.170322 0.1302018,0.14443 L 5.532069,13.273589 7.46476,9.92777 c 0.1742993,0.048172 0.3543266,0.072482 0.53516,0.072266 0.9116273,-4.52e-4 1.7075933,-0.6173205 1.9355,-1.5 z"
     class="ColorScheme-Text"
     fill="currentColor"
     id="path40"
     sodipodi:nodetypes="cscccscscsccsssccscscccscccsscccccccssccsssccscscccccccsscccscccssccsssccscscccccccscscscccscccssccsssccscscccccccsscccccccscccccccscccccccccscsccssssscccscscccccc" />
</svg>
