<?xml version="1.0" encoding="UTF-8" standalone="no"?>
<svg
   width="24"
   height="24"
   version="1.1"
   id="svg4"
   sodipodi:docname="previous.svg"
   inkscape:version="1.1.2 (0a00cf5339, 2022-02-04)"
   xmlns:inkscape="http://www.inkscape.org/namespaces/inkscape"
   xmlns:sodipodi="http://sodipodi.sourceforge.net/DTD/sodipodi-0.dtd"
   xmlns="http://www.w3.org/2000/svg"
   xmlns:svg="http://www.w3.org/2000/svg">
  <defs
     id="defs8" />
  <sodipodi:namedview
     id="namedview6"
     pagecolor="#000000"
     bordercolor="#666666"
     borderopacity="1.0"
     inkscape:pageshadow="2"
     inkscape:pageopacity="0"
     inkscape:pagecheckerboard="0"
     showgrid="false"
     inkscape:zoom="34.458333"
     inkscape:cx="12.01451"
     inkscape:cy="12"
     inkscape:window-width="1920"
     inkscape:window-height="1051"
     inkscape:window-x="0"
     inkscape:window-y="29"
     inkscape:window-maximized="1"
     inkscape:current-layer="svg4" />
  <path
     style="fill:#eeeeec"
     d="M 13.18763,3.96875 C 12.941842,3.9589185 12.712182,4.0691982 12.53138,4.25 l -7.1250003,6.96875 c -0.1469014,0.146901 -0.2386713,0.31694 -0.28125,0.5 -0.021871,0.09403 -0.037292,0.187359 -0.03125,0.28125 -0.00169,0.03029 -0.00122,0.06324 0,0.09375 0.00947,0.05498 0.011762,0.104001 0.03125,0.15625 0.040648,0.188768 0.1300395,0.380039 0.28125,0.53125 L 12.53138,19.75 c 0.361604,0.361604 0.952013,0.329237 1.34375,-0.0625 l 1.40625,-1.40625 c 0.391737,-0.391737 0.424104,-1.013396 0.0625,-1.375 L 12.728112,14.290482 12.906067,14 v 0 h 6.094063 c 0.554,0 1,-0.446 1,-1 v -2 c 0,-0.554 -0.446,-1 -1,-1 h -6.227568 v 0 L 12.718064,9.6883162 15.34388,7.0625 C 15.705484,6.7008965 15.673117,6.1104872 15.28138,5.71875 L 13.87513,4.28125 C 13.679261,4.0853814 13.433418,3.9785815 13.18763,3.96875 Z"
     id="path2"
     sodipodi:nodetypes="sccscccccssscccsssscccsccs" />
</svg>
