<?xml version="1.0" encoding="UTF-8" standalone="no"?>
<svg
   width="16"
   height="16"
   version="1.1"
   id="svg7"
   sodipodi:docname="document-revert.svg"
   inkscape:version="1.1.2 (0a00cf5339, 2022-02-04)"
   xmlns:inkscape="http://www.inkscape.org/namespaces/inkscape"
   xmlns:sodipodi="http://sodipodi.sourceforge.net/DTD/sodipodi-0.dtd"
   xmlns="http://www.w3.org/2000/svg"
   xmlns:svg="http://www.w3.org/2000/svg">
  <sodipodi:namedview
     id="namedview9"
     pagecolor="#000000"
     bordercolor="#666666"
     borderopacity="1.0"
     inkscape:pageshadow="2"
     inkscape:pageopacity="0"
     inkscape:pagecheckerboard="0"
     showgrid="false"
     inkscape:zoom="47.25"
     inkscape:cx="8"
     inkscape:cy="8"
     inkscape:window-width="1912"
     inkscape:window-height="966"
     inkscape:window-x="0"
     inkscape:window-y="29"
     inkscape:window-maximized="1"
     inkscape:current-layer="svg7" />
  <defs
     id="defs3">
    <style
       id="current-color-scheme"
       type="text/css">
   .ColorScheme-Text { color:#eeeeec; } .ColorScheme-Highlight { color:#367bf0; } .ColorScheme-NeutralText { color:#ffcc44; } .ColorScheme-PositiveText { color:#3db47e; } .ColorScheme-NegativeText { color:#dd4747; }
  </style>
  </defs>
  <path
     style="fill:currentColor"
     class="ColorScheme-Text"
     d="m 13,1 c 0,0 1,0 1,1 V 6 H 12 V 3.3275812 L 11.686926,3 V 3 H 4.3856195 L 4,3.3275812 c 0.3293971,0.3441789 0.020889,-0.094292 0,0 V 12.639691 L 4.3220215,13 v 0 h 7.3223005 v 0 L 12,12.597276 V 10 c 0,0 0,-1 -1,-1 h -1 v 1.629206 0 L 9.6096788,10.739786 5.834174,8.2227826 5.8689859,7.7540094 v 0 L 9.6197425,5.253505 v 0 L 10,5.4016869 V 7 h 1 c 0,0 3,0 3,3 v 4 c 0,1 -1,1 -1,1 H 3 C 3,15 2,15 2,14 V 2 C 2,1 3,1 3,1 Z"
     id="path5"
     sodipodi:nodetypes="cscccccccccccccccsccccccccccccssccsscc" />
</svg>
