<?xml version="1.0" encoding="UTF-8" standalone="no"?>
<svg
   width="16"
   height="16"
   viewBox="0 0 16 16"
   version="1.1"
   id="svg7"
   sodipodi:docname="raindrop.svg"
   inkscape:version="1.1.2 (0a00cf5339, 2022-02-04)"
   xmlns:inkscape="http://www.inkscape.org/namespaces/inkscape"
   xmlns:sodipodi="http://sodipodi.sourceforge.net/DTD/sodipodi-0.dtd"
   xmlns="http://www.w3.org/2000/svg"
   xmlns:svg="http://www.w3.org/2000/svg">
  <sodipodi:namedview
     id="namedview9"
     pagecolor="#000000"
     bordercolor="#666666"
     borderopacity="1.0"
     inkscape:pageshadow="2"
     inkscape:pageopacity="0"
     inkscape:pagecheckerboard="0"
     showgrid="false"
     inkscape:zoom="47.25"
     inkscape:cx="8"
     inkscape:cy="8"
     inkscape:window-width="1880"
     inkscape:window-height="966"
     inkscape:window-x="0"
     inkscape:window-y="29"
     inkscape:window-maximized="1"
     inkscape:current-layer="svg7" />
  <defs
     id="defs3">
    <style
       id="current-color-scheme"
       type="text/css">
   .ColorScheme-Text { color:#eeeeec; } .ColorScheme-Highlight { color:#367bf0; } .ColorScheme-NeutralText { color:#ffcc44; } .ColorScheme-PositiveText { color:#3db47e; } .ColorScheme-NegativeText { color:#dd4747; }
  </style>
  </defs>
  <path
     style="fill:currentColor"
     class="ColorScheme-Text"
     d="M 8.0936611,0.29983033 C 8.0632707,0.40618998 7.9365274,0.21180973 7.9010805,0.31633452 7.3691286,1.8849391 6.3046081,3.2451554 5.8125,4.34375 5.6288,4.69215 5.5,5.07735 5.5,5.5 5.5,6.885 6.615,8 8,8 9.385,8 10.5,6.885 10.5,5.5 10.5,5.0773 10.4025,4.6921 10.21875,4.34375 9.7249057,3.2413006 8.6270176,1.8754787 8.0936611,0.29983033 c -0.033551,-0.0991176 0.028792,0.10076488 0,0 z M 3.3740107,8.3946862 c -0.038001,0.1329945 0.045779,-0.1301194 0,0 C 2.8337606,9.9302622 1.7963963,11.263488 1.3125,12.34375 1.1288,12.69215 1,13.07735 1,13.5 1,14.885 2.115,16 3.5,16 4.885,16 6,14.885 6,13.5 6,13.0773 5.9025,12.6921 5.71875,12.34375 5.239125,11.273043 4.1897399,9.9539127 3.6411081,8.4354103 3.5893077,8.2920371 3.415982,8.5415728 3.3740107,8.3946862 Z m 9.2645813,0.033749 C 12.59376,8.5853375 12.404478,8.3118249 12.34898,8.4647176 11.802286,9.9708205 10.789025,11.279943 10.3125,12.34375 10.1288,12.69215 10,13.07735 10,13.5 c 0,1.385 1.115,2.5 2.5,2.5 1.385,0 2.5,-1.115 2.5,-2.5 0,-0.4227 -0.0975,-0.8079 -0.28125,-1.15625 -0.480359,-1.072346 -1.532224,-2.3938765 -2.080158,-3.9153146 -0.05082,-0.1411054 0.04129,0.1445051 0,0 z"
     id="path5"
     sodipodi:nodetypes="cscssscsccscssscsccscssscsc" />
</svg>
