<?xml version="1.0" encoding="UTF-8" standalone="no"?>
<svg
   version="1.1"
   viewBox="0 0 16 16"
   id="svg198"
   sodipodi:docname="amarok_clock.svg"
   inkscape:version="1.2 (dc2aedaf03, 2022-05-15)"
   xmlns:inkscape="http://www.inkscape.org/namespaces/inkscape"
   xmlns:sodipodi="http://sodipodi.sourceforge.net/DTD/sodipodi-0.dtd"
   xmlns="http://www.w3.org/2000/svg"
   xmlns:svg="http://www.w3.org/2000/svg">
  <sodipodi:namedview
     id="namedview200"
     pagecolor="#505050"
     bordercolor="#ffffff"
     borderopacity="1"
     inkscape:showpageshadow="0"
     inkscape:pageopacity="0"
     inkscape:pagecheckerboard="1"
     inkscape:deskcolor="#505050"
     showgrid="false"
     inkscape:zoom="77.251416"
     inkscape:cx="7.9998534"
     inkscape:cy="5.9092768"
     inkscape:window-width="1574"
     inkscape:window-height="1080"
     inkscape:window-x="172"
     inkscape:window-y="-1"
     inkscape:window-maximized="1"
     inkscape:current-layer="svg198" />
  <defs
     id="defs192">
    <style
       id="current-color-scheme"
       type="text/css">.ColorScheme-Text {
        color:#dedede;
      }</style>
  </defs>
  <path
     class="ColorScheme-Text"
     d="M 7.1002357,4.0585785 7,4.2541127 7,8.5490795 7.1598155,8.8662255 7.4122099,9 H 11.683937 L 11.902112,8.9119435 12,8.690528 V 8.2862843 L 11.914503,8.1396751 11.696188,8 H 8.3720468 L 8.1283185,7.8916686 8,7.670837 7.9583365,4.3902767 7.9241345,4.1011771 7.7635359,4 H 7.250737 Z"
     fill="currentColor"
     id="path194"
     sodipodi:nodetypes="ccccccccccccccccccc" />
  <path
     d="m8 0a8 8 0 0 0-8 8 8 8 0 0 0 8 8 8 8 0 0 0 8-8 8 8 0 0 0-8-8zm0 1a7 7 0 0 1 7 7 7 7 0 0 1-7 7 7 7 0 0 1-7-7 7 7 0 0 1 7-7z"
     style="fill:currentColor"
     class="ColorScheme-Text"
     id="path196" />
</svg>
