<?xml version="1.0" encoding="UTF-8" standalone="no"?>
<svg
   width="16"
   height="16"
   viewBox="0 0 16 16"
   version="1.1"
   id="svg7"
   sodipodi:docname="remove-link.svg"
   inkscape:version="1.2 (dc2aedaf03, 2022-05-15)"
   xmlns:inkscape="http://www.inkscape.org/namespaces/inkscape"
   xmlns:sodipodi="http://sodipodi.sourceforge.net/DTD/sodipodi-0.dtd"
   xmlns="http://www.w3.org/2000/svg"
   xmlns:svg="http://www.w3.org/2000/svg">
  <sodipodi:namedview
     id="namedview9"
     pagecolor="#000000"
     bordercolor="#666666"
     borderopacity="1.0"
     inkscape:pageshadow="2"
     inkscape:pageopacity="0"
     inkscape:pagecheckerboard="0"
     showgrid="false"
     inkscape:zoom="103.375"
     inkscape:cx="16.469166"
     inkscape:cy="12.667473"
     inkscape:window-width="1489"
     inkscape:window-height="1080"
     inkscape:window-x="214"
     inkscape:window-y="-1"
     inkscape:window-maximized="1"
     inkscape:current-layer="svg7"
     inkscape:showpageshadow="0"
     inkscape:deskcolor="#000000" />
  <defs
     id="defs3">
    <style
       id="current-color-scheme"
       type="text/css">
   .ColorScheme-Text { color:#eeeeec; } .ColorScheme-Highlight { color:#367bf0; } .ColorScheme-NeutralText { color:#ffcc44; } .ColorScheme-PositiveText { color:#3db47e; } .ColorScheme-NegativeText { color:#dd4747; }
  </style>
  </defs>
  <path
     style="fill:currentColor"
     class="ColorScheme-Text"
     d="M 5,0 C 2.23,0 0,2.23 0,5 0,7.77 2.23,10 5,10 H 7 V 8 H 5 C 3.338,8 2,6.662 2,5 2,3.338 3.338,2 5,2 H 7 V 0 Z m 4,0 v 2 h 2 c 1.662,0 3,1.338 3,3 0,1.662 -1.338,3 -3,3 H 9 v 2 h 2 C 13.77,10 16,7.77 16,5 16,2.23 13.77,0 11,0 Z M 5,4 v 2 h 6 V 4 Z m 7.414062,7.165431 -0.124024,0.0094 -1.142723,1.142723 0.002,0.133851 -0.0075,0.155298 0.749031,0.749031 0.0097,0.329715 v 0 l -0.735649,0.735609 0.0032,0.188692 -0.05595,0.08837 1.157359,1.157359 0.16389,0.04386 0.109312,-0.02798 0.769353,-0.769353 v 0 l 0.389578,0.06451 0.695216,0.695214 0.138288,0.01927 0.138307,-0.01929 1.129763,-1.129762 0.02216,-0.152387 -0.0031,-0.09652 -0.730134,-0.754134 -0.0073,-0.399753 v 0 l 0.751605,-0.751605 -0.0118,-0.112692 0.0066,-0.117888 -1.17309,-1.17309 -0.123085,-0.04545 -0.125309,0.04767 -0.705214,0.705214 -0.409282,0.05077 v 0 l -0.755655,-0.755699 z"
     id="path5"
     sodipodi:nodetypes="sssccsssccsccsssccsssccccccccccccccccccccccccccccccccccccccccccc" />
</svg>
