<?xml version="1.0" encoding="UTF-8" standalone="no"?>
<svg
   viewBox="0 0 22 22"
   version="1.1"
   id="svg65445"
   sodipodi:docname="run-clean.svg"
   inkscape:version="1.1.2 (0a00cf5339, 2022-02-04)"
   xmlns:inkscape="http://www.inkscape.org/namespaces/inkscape"
   xmlns:sodipodi="http://sodipodi.sourceforge.net/DTD/sodipodi-0.dtd"
   xmlns="http://www.w3.org/2000/svg"
   xmlns:svg="http://www.w3.org/2000/svg">
  <sodipodi:namedview
     id="namedview65447"
     pagecolor="#222222"
     bordercolor="#666666"
     borderopacity="1.0"
     inkscape:pageshadow="2"
     inkscape:pageopacity="0"
     inkscape:pagecheckerboard="0"
     showgrid="false"
     inkscape:zoom="37.590909"
     inkscape:cx="11.013301"
     inkscape:cy="11"
     inkscape:window-width="1920"
     inkscape:window-height="1051"
     inkscape:window-x="0"
     inkscape:window-y="29"
     inkscape:window-maximized="1"
     inkscape:current-layer="svg65445" />
  <defs
     id="defs3051">
    <style
       type="text/css"
       id="current-color-scheme">
     .ColorScheme-Text {
       color:#f2f2f2;
     }
     </style>
  </defs>
  <path
     style="fill:currentColor;fill-opacity:1;stroke:none"
     d="M 9.84375,3 C 9.6423772,3 9.5173352,3.096547 9.46875,3.2910156 9.3784838,3.6381441 9.2771223,4.284045 9.1660156,5.2285156 8.8395998,5.3328459 8.5243253,5.4653081 8.21875,5.625 L 6.78125,4.5097656 C 6.6909838,4.4403399 6.6000318,4.40625 6.5097656,4.40625 6.356978,4.40625 6.0288867,4.6537988 5.5253906,5.1503906 5.0218946,5.6469825 4.6806602,6.0215263 4.5,6.2714844 4.4374785,6.3617506 4.40625,6.4403399 4.40625,6.5097656 c 0,0.083362 0.03409,0.1667659 0.1035156,0.25 C 4.9750328,7.322331 5.3471694,7.8012963 5.625,8.1972656 5.4513719,8.5166494 5.3159204,8.8368663 5.21875,9.15625 L 3.28125,9.4472656 C 3.2049201,9.4612019 3.1396016,9.5075266 3.0839844,9.5839844 3.0283671,9.6603143 3,9.7390315 3,9.8222656 v 2.3125004 c 0,0.09039 0.028367,0.173216 0.083984,0.246093 0.055617,0.07301 0.1284838,0.115098 0.21875,0.128907 l 1.90625,0.28125 c 0.09717,0.340224 0.2382168,0.684121 0.4257812,1.03125 -0.1249151,0.173628 -0.3125419,0.418315 -0.5625,0.734375 -0.249958,0.316059 -0.4271754,0.547476 -0.53125,0.693359 -0.055617,0.07659 -0.082031,0.156872 -0.082031,0.240234 0,0.09027 0.02368,0.168856 0.072266,0.238282 0.2707985,0.375128 0.8437051,0.958445 1.71875,1.75 0.076458,0.07646 0.1625952,0.115234 0.2597656,0.115234 0.1042025,0 0.1922931,-0.03136 0.2617188,-0.09375 l 1.46875,-1.115234 c 0.2848626,0.145883 0.5972758,0.275484 0.9375,0.386718 L 9.46875,18.6875 c 0.00703,0.09027 0.046263,0.16554 0.1191406,0.224609 C 9.6607684,18.971307 9.7465796,19 9.84375,19 h 2.3125 c 0.201629,0 0.326287,-0.09655 0.375,-0.291016 0.09014,-0.347256 0.191628,-0.993029 0.302734,-1.9375 C 13.1604,16.667282 13.475803,16.534692 13.78125,16.375 l 1.4375,1.125 c 0.09717,0.06239 0.18825,0.09375 0.271484,0.09375 0.15266,0 0.4786,-0.247095 0.978516,-0.740234 0.500172,-0.493012 0.843941,-0.86801 1.03125,-1.125 0.06252,-0.06943 0.09375,-0.148015 0.09375,-0.238282 0,-0.09027 -0.03396,-0.178612 -0.103516,-0.261718 -0.499916,-0.611151 -0.872052,-1.090244 -1.115234,-1.4375 0.138851,-0.25699 0.274303,-0.572265 0.40625,-0.947266 l 1.927734,-0.291016 c 0.08323,-0.01394 0.151542,-0.06026 0.207032,-0.136718 C 18.971505,12.339558 19,12.260968 19,12.177734 V 9.8652344 c 1.28e-4,-0.090266 -0.02824,-0.1730881 -0.08398,-0.2460938 -0.05574,-0.073006 -0.128484,-0.1150978 -0.21875,-0.1289062 l -1.90625,-0.2929688 c -0.104203,-0.33332 -0.245249,-0.6722749 -0.425782,-1.0195312 0.124915,-0.1736282 0.312542,-0.4183155 0.5625,-0.734375 0.249958,-0.3160595 0.427048,-0.547476 0.53125,-0.6933594 0.05562,-0.076458 0.08203,-0.1568724 0.08203,-0.2402344 0,-0.09717 -0.02355,-0.1728983 -0.07227,-0.2285156 C 17.218792,5.9269616 16.645885,5.3362254 15.75,4.5097656 15.666894,4.4403399 15.580373,4.40625 15.490234,4.40625 c -0.104202,0 -0.187478,0.031356 -0.25,0.09375 L 13.759766,5.6152344 C 13.474903,5.4693509 13.16249,5.3396223 12.822266,5.2285156 L 12.53125,3.3125 C 12.524346,3.2222338 12.484987,3.14696 12.412109,3.0878906 12.339104,3.0288213 12.253676,3 12.15625,3 Z M 9.6880787,9.4115307 10.20052,9.1992188 h 3.464984 l 0.234887,0.2650088 v 0 3.4611634 l -0.252607,0.273828 v 0 l -3.411207,0 -0.4843509,-0.148165 v 0 L 8.2029529,11.501781 v 0 l 0.012117,-0.617242 z"
     class="ColorScheme-Text"
     id="path65443"
     sodipodi:nodetypes="sccccsscscccccssccccscsccscccccssccccsccsccccsscscccscsccscccccsscccccccccccccccc" />
</svg>
