<?xml version="1.0" encoding="UTF-8" standalone="no"?>
<svg
   width="16"
   height="16"
   viewBox="0 0 16 16"
   version="1.1"
   id="svg7"
   sodipodi:docname="send-to.svg"
   inkscape:version="1.1.2 (0a00cf5339, 2022-02-04)"
   xmlns:inkscape="http://www.inkscape.org/namespaces/inkscape"
   xmlns:sodipodi="http://sodipodi.sourceforge.net/DTD/sodipodi-0.dtd"
   xmlns="http://www.w3.org/2000/svg"
   xmlns:svg="http://www.w3.org/2000/svg">
  <sodipodi:namedview
     id="namedview9"
     pagecolor="#000000"
     bordercolor="#666666"
     borderopacity="1.0"
     inkscape:pageshadow="2"
     inkscape:pageopacity="0"
     inkscape:pagecheckerboard="0"
     showgrid="false"
     inkscape:zoom="47.25"
     inkscape:cx="8"
     inkscape:cy="8"
     inkscape:window-width="1880"
     inkscape:window-height="966"
     inkscape:window-x="0"
     inkscape:window-y="29"
     inkscape:window-maximized="1"
     inkscape:current-layer="svg7" />
  <defs
     id="defs3">
    <style
       id="current-color-scheme"
       type="text/css">
   .ColorScheme-Text { color:#eeeeec; } .ColorScheme-Highlight { color:#367bf0; } .ColorScheme-NeutralText { color:#ffcc44; } .ColorScheme-PositiveText { color:#3db47e; } .ColorScheme-NegativeText { color:#dd4747; }
  </style>
  </defs>
  <path
     style="fill:currentColor"
     class="ColorScheme-Text"
     d="m 9.2539937,1.4011784 v 0 l 0.9647563,1.5089778 -4.40625,2.75 C 5.29706,5.2492462 4.6617,5.0038663 4,5.0039062 c -1.5709,9.01e-5 -3,1.4293 -3,3 0,1.5707001 1.4291,2.9998998 3,2.9999998 0.66168,4e-5 1.2971,-0.27659 1.8125,-0.6875 l 4.40625,2.779297 -0.9603272,1.50205 v 0 l 0.2275359,0.4042 h 5.1216053 l 0.212207,-0.396505 v 0 l -2.127141,-4.67971 -0.454445,-0.00757 v 0 L 11.28125,11.439453 6.90625,8.6582031 C 6.96075,8.4435731 7,8.2260931 7,8.0019531 7,7.7778131 6.96065,7.5603331 6.90625,7.3457031 l 4.375,-2.7792969 0.937225,1.4899469 0.484237,0.00159 v 0 L 14.82268,1.3940106 v 0 L 14.607564,1.0039062 H 9.507208 Z"
     id="path5"
     sodipodi:nodetypes="cccccsscccccccccccccscccccccccc" />
</svg>
