<?xml version="1.0" encoding="UTF-8" standalone="no"?>
<svg
   width="16"
   height="16"
   version="1.1"
   id="svg9"
   sodipodi:docname="stock_folder-move.svg"
   inkscape:version="1.1.2 (0a00cf5339, 2022-02-04)"
   xmlns:inkscape="http://www.inkscape.org/namespaces/inkscape"
   xmlns:sodipodi="http://sodipodi.sourceforge.net/DTD/sodipodi-0.dtd"
   xmlns="http://www.w3.org/2000/svg"
   xmlns:svg="http://www.w3.org/2000/svg">
  <sodipodi:namedview
     id="namedview11"
     pagecolor="#000000"
     bordercolor="#666666"
     borderopacity="1.0"
     inkscape:pageshadow="2"
     inkscape:pageopacity="0"
     inkscape:pagecheckerboard="0"
     showgrid="false"
     inkscape:zoom="51.6875"
     inkscape:cx="7.9903265"
     inkscape:cy="8"
     inkscape:window-width="1920"
     inkscape:window-height="1051"
     inkscape:window-x="0"
     inkscape:window-y="29"
     inkscape:window-maximized="1"
     inkscape:current-layer="svg9" />
  <defs
     id="defs3">
    <style
       id="current-color-scheme"
       type="text/css">
   .ColorScheme-Text { color:#eeeeec; } .ColorScheme-Highlight { color:#367bf0; } .ColorScheme-NeutralText { color:#ffcc44; } .ColorScheme-PositiveText { color:#3db47e; } .ColorScheme-NegativeText { color:#dd4747; }
  </style>
  </defs>
  <path
     style="fill:currentColor;opacity:.35"
     class="ColorScheme-Text"
     d="M 12,7 V 11.25 C 12,12 11.25,12 11.25,12 H 5 V 14.25 C 5,15 5.75,15 5.75,15 H 14.25 C 14.25,15 15,15 15,14.25 V 7.75 C 15,7 14.25,7 14.25,7 Z"
     id="path5" />
  <path
     style="fill:currentColor"
     class="ColorScheme-Text"
     d="M 1.75,1 C 1.75,1 1,1 1,1.75 v 8.5 C 1,11 1.75,11 1.75,11 h 8.5 c 0,0 0.75,0 0.75,-0.75 V 3.75 C 11,3 10.25,3 10.25,3 H 7.2578574 V 3 L 6.840872,2.840872 5.181364,1.181364 4.7202745,1 v 0 z"
     id="path7"
     sodipodi:nodetypes="cssccsscccccccc" />
</svg>
