<?xml version="1.0" encoding="UTF-8" standalone="no"?>
<svg
   width="24"
   height="24"
   version="1.1"
   id="svg4"
   sodipodi:docname="stock_right.svg"
   inkscape:version="1.1.2 (0a00cf5339, 2022-02-04)"
   xmlns:inkscape="http://www.inkscape.org/namespaces/inkscape"
   xmlns:sodipodi="http://sodipodi.sourceforge.net/DTD/sodipodi-0.dtd"
   xmlns="http://www.w3.org/2000/svg"
   xmlns:svg="http://www.w3.org/2000/svg">
  <defs
     id="defs8" />
  <sodipodi:namedview
     id="namedview6"
     pagecolor="#000000"
     bordercolor="#666666"
     borderopacity="1.0"
     inkscape:pageshadow="2"
     inkscape:pageopacity="0"
     inkscape:pagecheckerboard="0"
     showgrid="false"
     inkscape:zoom="34.458333"
     inkscape:cx="12.01451"
     inkscape:cy="12"
     inkscape:window-width="1920"
     inkscape:window-height="1051"
     inkscape:window-x="0"
     inkscape:window-y="29"
     inkscape:window-maximized="1"
     inkscape:current-layer="svg4" />
  <path
     style="fill:#eeeeec"
     d="M 10.8125,3.96875 C 11.058288,3.95892 11.287948,4.0691982 11.46875,4.25 l 7.125,6.96875 c 0.146902,0.146901 0.238672,0.31694 0.28125,0.5 0.02187,0.09403 0.03729,0.187359 0.03125,0.28125 0.0017,0.03029 0.0012,0.06324 0,0.09375 -0.0095,0.05498 -0.01176,0.104001 -0.03125,0.15625 -0.04065,0.188768 -0.130039,0.380039 -0.28125,0.53125 L 11.46875,19.75 C 11.107146,20.111604 10.516737,20.079237 10.125,19.6875 L 8.7187503,18.28125 c -0.391737,-0.391737 -0.424104,-1.013396 -0.0625,-1.375 l 2.5311857,-2.531186 v 0 L 11.064521,14 5.0000003,14 c -0.554,0 -1,-0.446 -1,-1 v -2 c 0,-0.554 0.446,-1 1,-1 H 11.192 v 0 L 11.279358,9.685608 8.6562503,7.0625 C 8.2946463,6.7008965 8.3270133,6.1104872 8.7187503,5.71875 L 10.125,4.28125 c 0.195869,-0.1958686 0.441712,-0.3026685 0.6875,-0.3125 z"
     id="path2"
     sodipodi:nodetypes="sccscccccssscccssssccccccs" />
</svg>
