<?xml version="1.0" encoding="UTF-8" standalone="no"?>
<svg
   width="16"
   height="16"
   version="1.1"
   id="svg7"
   sodipodi:docname="stock_mail-unread-multiple.svg"
   inkscape:version="1.1.2 (0a00cf5339, 2022-02-04)"
   xmlns:inkscape="http://www.inkscape.org/namespaces/inkscape"
   xmlns:sodipodi="http://sodipodi.sourceforge.net/DTD/sodipodi-0.dtd"
   xmlns="http://www.w3.org/2000/svg"
   xmlns:svg="http://www.w3.org/2000/svg">
  <sodipodi:namedview
     id="namedview9"
     pagecolor="#000000"
     bordercolor="#666666"
     borderopacity="1.0"
     inkscape:pageshadow="2"
     inkscape:pageopacity="0"
     inkscape:pagecheckerboard="0"
     showgrid="false"
     inkscape:zoom="51.6875"
     inkscape:cx="7.9903265"
     inkscape:cy="8"
     inkscape:window-width="1920"
     inkscape:window-height="1051"
     inkscape:window-x="0"
     inkscape:window-y="29"
     inkscape:window-maximized="1"
     inkscape:current-layer="svg7" />
  <defs
     id="defs3">
    <style
       id="current-color-scheme"
       type="text/css">
   .ColorScheme-Text { color:#eeeeec; } .ColorScheme-Highlight { color:#367bf0; } .ColorScheme-NeutralText { color:#ffcc44; } .ColorScheme-PositiveText { color:#3db47e; } .ColorScheme-NegativeText { color:#dd4747; }
  </style>
  </defs>
  <path
     style="fill:currentColor"
     class="ColorScheme-Text"
     d="M 2,2 C 2,2 0,2 0,4 v 8 c 0,2 2,2 2,2 H 8 V 9.2081082 L 7.801221,8.9006105 v 0 L 2,6 V 4.3835694 L 2.3147195,4.1573598 v 0 l 5.4465597,2.7232798 v 0 l 0.543935,-0.033247 5.4285328,-2.7142666 v 0 L 14,4.3343634 V 6 L 12.418927,6.7905367 12.452509,7 V 7 H 16 V 4 C 16,2 14,2 14,2 Z m 8,6 C 9,8 9,9 9,9 v 5 c 0,0 0,1 1,1 h 5 c 1,0 1,-1 1,-1 V 9 c 0,0 0,-1 -1,-1 z m 0,1 h 1 v 1 h 1 v 1 h 1 v -1 h 1 V 9 h 1 v 5 h -1 v -3 h -1 v 1 h -1 v -1 h -1 v 3 h -1 z"
     id="path5"
     sodipodi:nodetypes="cssccccccccccccccccccccsccsccssccssccccccccccccccccccccc" />
</svg>
