<?xml version="1.0" encoding="UTF-8" standalone="no"?>
<svg
   width="16"
   height="16"
   version="1.1"
   viewBox="0 0 16 16"
   id="svg389670"
   sodipodi:docname="stock_xfburn-blank-cdrw.svg"
   inkscape:version="1.1.2 (0a00cf5339, 2022-02-04)"
   xmlns:inkscape="http://www.inkscape.org/namespaces/inkscape"
   xmlns:sodipodi="http://sodipodi.sourceforge.net/DTD/sodipodi-0.dtd"
   xmlns="http://www.w3.org/2000/svg"
   xmlns:svg="http://www.w3.org/2000/svg">
  <sodipodi:namedview
     id="namedview389672"
     pagecolor="#000000"
     bordercolor="#666666"
     borderopacity="1.0"
     inkscape:pageshadow="2"
     inkscape:pageopacity="0"
     inkscape:pagecheckerboard="0"
     showgrid="false"
     inkscape:zoom="51.6875"
     inkscape:cx="8.0096735"
     inkscape:cy="8"
     inkscape:window-width="1920"
     inkscape:window-height="1051"
     inkscape:window-x="0"
     inkscape:window-y="29"
     inkscape:window-maximized="1"
     inkscape:current-layer="svg389670" />
  <defs
     id="defs389666">
    <style
       id="current-color-scheme"
       type="text/css">
   .ColorScheme-Text { color:#eeeeec; } .ColorScheme-Highlight { color:#367bf0; } .ColorScheme-NeutralText { color:#ffcc44; } .ColorScheme-PositiveText { color:#3db47e; } .ColorScheme-NegativeText { color:#dd4747; }
  </style>
  </defs>
  <path
     style="fill:currentColor"
     class="ColorScheme-Text"
     d="M 8,0 C 3.581722,0 0,3.581722 0,8 c 0,4.418278 3.581722,8 8,8 4.418278,0 8,-3.581722 8,-8 C 16,3.581722 12.418278,0 8,0 Z M 5.4257142,4.0116517 v 0 l 2.364295,2.364295 0.4190702,9.114e-4 v 0 L 10.555812,4.0301255 v 0 l 0.557682,0.013056 0.857708,0.8577072 0.0059,0.536053 v 0 L 9.6166376,7.7974234 9.5871532,8.1730907 v 0 l 2.4121888,2.4121893 0.0259,0.45979 v 0 l -0.918347,0.918347 -0.537595,0.01995 v 0 L 8.1221269,9.5361896 v 0 L 7.8220165,9.5920461 5.4550701,11.958993 v 0 L 4.9175405,11.987853 4.006876,11.077189 v 0 l 0.03705,-0.535177 2.3632955,-2.3632957 v 0 L 6.3860504,7.8001129 4.0156011,5.4296636 3.9840886,4.9455989 v 0 l 0.955503,-0.955503 z"
     id="path389668"
     sodipodi:nodetypes="sssssccccccccccccccccccccccccccccccccccccc" />
</svg>
