<?xml version="1.0" encoding="UTF-8" standalone="no"?>
<svg
   width="16"
   height="16"
   version="1.1"
   id="svg7"
   sodipodi:docname="stock_xfburn-format-dvdrw.svg"
   inkscape:version="1.1.2 (0a00cf5339, 2022-02-04)"
   xmlns:inkscape="http://www.inkscape.org/namespaces/inkscape"
   xmlns:sodipodi="http://sodipodi.sourceforge.net/DTD/sodipodi-0.dtd"
   xmlns="http://www.w3.org/2000/svg"
   xmlns:svg="http://www.w3.org/2000/svg">
  <sodipodi:namedview
     id="namedview9"
     pagecolor="#000000"
     bordercolor="#666666"
     borderopacity="1.0"
     inkscape:pageshadow="2"
     inkscape:pageopacity="0"
     inkscape:pagecheckerboard="0"
     showgrid="false"
     inkscape:zoom="51.6875"
     inkscape:cx="7.9903265"
     inkscape:cy="7.2261185"
     inkscape:window-width="1920"
     inkscape:window-height="1051"
     inkscape:window-x="0"
     inkscape:window-y="29"
     inkscape:window-maximized="1"
     inkscape:current-layer="svg7" />
  <defs
     id="defs3">
    <style
       id="current-color-scheme"
       type="text/css">
   .ColorScheme-Text { color:#eeeeec; } .ColorScheme-Highlight { color:#367bf0; } .ColorScheme-NeutralText { color:#ffcc44; } .ColorScheme-PositiveText { color:#3db47e; } .ColorScheme-NegativeText { color:#dd4747; }
  </style>
  </defs>
  <path
     style="fill:currentColor"
     class="ColorScheme-Text"
     d="M 5,1 C 4,1 4,2 4,2 v 0.4355227 l 0.3097289,0.1109151 c 0.1022284,-0.04891 -0.1042255,0.043791 0,0 C 5.1606052,2.1889378 6.0748264,2.0027617 7,2 c 3.866,0 7,3.134 7,7 -0.0038,2.321029 -1.155868,4.479282 -3.05949,5.775123 -0.114799,0.07815 0.154986,0.153157 0.03481,0.224877 v 0 H 15 c 1,0 1,-1 1,-1 V 2 C 16,2 16,1 15,1 Z M 7,3 C 3.6862915,3 1,5.6862915 1,9 c 0,3.313708 2.6862915,6 6,6 3.313708,0 6,-2.686292 6,-6 C 13,5.6862915 10.313708,3 7,3 Z M 7,7 C 8.1045695,7 9,7.8954305 9,9 9,10.104569 8.1045695,11 7,11 5.8954305,11 5,10.104569 5,9 5,7.8954305 5.8954305,7 7,7 Z"
     id="path5"
     sodipodi:nodetypes="scccsccsccsccssssssssssss" />
</svg>
