<?xml version="1.0" encoding="UTF-8" standalone="no"?>
<svg
   width="16"
   height="16"
   version="1.1"
   id="svg7"
   sodipodi:docname="stock_xfburn-audio-cd.svg"
   inkscape:version="1.1.2 (0a00cf5339, 2022-02-04)"
   xmlns:inkscape="http://www.inkscape.org/namespaces/inkscape"
   xmlns:sodipodi="http://sodipodi.sourceforge.net/DTD/sodipodi-0.dtd"
   xmlns="http://www.w3.org/2000/svg"
   xmlns:svg="http://www.w3.org/2000/svg">
  <sodipodi:namedview
     id="namedview9"
     pagecolor="#000000"
     bordercolor="#666666"
     borderopacity="1.0"
     inkscape:pageshadow="2"
     inkscape:pageopacity="0"
     inkscape:pagecheckerboard="0"
     showgrid="false"
     inkscape:zoom="47.25"
     inkscape:cx="8"
     inkscape:cy="8"
     inkscape:window-width="1880"
     inkscape:window-height="966"
     inkscape:window-x="0"
     inkscape:window-y="29"
     inkscape:window-maximized="1"
     inkscape:current-layer="svg7" />
  <defs
     id="defs3">
    <style
       id="current-color-scheme"
       type="text/css">
   .ColorScheme-Text { color:#eeeeec; } .ColorScheme-Highlight { color:#367bf0; } .ColorScheme-NeutralText { color:#ffcc44; } .ColorScheme-PositiveText { color:#3db47e; } .ColorScheme-NegativeText { color:#dd4747; }
  </style>
  </defs>
  <path
     style="fill:currentColor"
     class="ColorScheme-Text"
     d="m 6,3.2854882 v 0 V 9.2695 C 5.6961119,9.0934213 5.3512143,9.0004714 5,9 3.8954305,9 3,9.8954305 3,11 c 0,1.104569 0.8954305,2 2,2 1.1045695,0 2,-0.895431 2,-2 v -5.7676472 0 L 7.2639263,5 H 10.734184 V 5 L 11,5.2747667 V 9.2695 C 10.696112,9.0934213 10.351214,9.0004714 10,9 8.8954305,9 8,9.8954305 8,11 c 0,1.104569 0.8954305,2 2,2 1.104569,0 2,-0.895431 2,-2 V 3.2642816 L 11.729242,3 V 3 H 6.3326151 Z M 16,8 c 0,4.418278 -3.581722,8 -8,8 C 3.581722,16 0,12.418278 0,8 0,3.581722 3.581722,0 8,0 c 4.418278,0 8,3.581722 8,8 z"
     id="path5"
     sodipodi:nodetypes="ccccsssccccccccssscccccsssss" />
</svg>
