<?xml version="1.0" encoding="UTF-8" standalone="no"?>
<svg
   width="16"
   height="16"
   viewBox="0 0 16 16"
   version="1.1"
   id="svg7"
   sodipodi:docname="svn-update.svg"
   inkscape:version="1.1.2 (0a00cf5339, 2022-02-04)"
   xmlns:inkscape="http://www.inkscape.org/namespaces/inkscape"
   xmlns:sodipodi="http://sodipodi.sourceforge.net/DTD/sodipodi-0.dtd"
   xmlns="http://www.w3.org/2000/svg"
   xmlns:svg="http://www.w3.org/2000/svg">
  <sodipodi:namedview
     id="namedview9"
     pagecolor="#000000"
     bordercolor="#666666"
     borderopacity="1.0"
     inkscape:pageshadow="2"
     inkscape:pageopacity="0"
     inkscape:pagecheckerboard="0"
     showgrid="false"
     inkscape:zoom="51.6875"
     inkscape:cx="8.0096735"
     inkscape:cy="8"
     inkscape:window-width="1920"
     inkscape:window-height="1051"
     inkscape:window-x="0"
     inkscape:window-y="29"
     inkscape:window-maximized="1"
     inkscape:current-layer="svg7" />
  <defs
     id="defs3">
    <style
       id="current-color-scheme"
       type="text/css">
   .ColorScheme-Text { color:#eeeeec; } .ColorScheme-Highlight { color:#367bf0; } .ColorScheme-NeutralText { color:#ffcc44; } .ColorScheme-PositiveText { color:#3db47e; } .ColorScheme-NegativeText { color:#dd4747; }
  </style>
  </defs>
  <path
     style="fill:currentColor"
     class="ColorScheme-Text"
     d="M 3.5,1 C 2.1193,1 1,2.1193 1,3.5 1.00013,4.6879 1.83612,5.7116187 3,5.9492188 V 9.953125 c -1.1632,0.23742 -1.9989,1.260066 -2,2.447266 0,1.3807 1.1193,2.5 2.5,2.5 1.3807,0 2.5,-1.1193 2.5,-2.5 -1.3e-4,-1.1879 -0.83612,-2.211619 -2,-2.4492191 V 5.9453125 C 4.38986,5.8671125 4.7554563,5.6970387 5.0664062,5.4492188 L 6.2792969,6.3574219 C 6.0966469,6.7106519 6.0009,7.10233 6,7.5 6,8.8807 7.1193,10 8.5,10 9.06529,10 9.5812,9.8046412 10,9.4882812 V 11.781316 L 9.8364264,12 v 0 H 8.4528936 v 0 l -0.098553,0.30372 2.9269094,2.50878 v 0 h 0.4375 L 14.615447,12.329617 14.49146,12 v 0 h -1.274557 v 0 L 13,11.72962 V 9 H 10.488281 C 10.804641,8.58123 11,8.06529 11,7.5 11,6.1193 9.8807,5 8.5,5 7.90804,5.001 7.3356656,5.2121731 6.8847656,5.5957031 L 5.6914062,4.703125 C 5.8938362,4.334425 5.99998,3.92059 6,3.5 6,2.1193 4.8807,1 3.5,1 Z"
     id="path5"
     sodipodi:nodetypes="sccccsccccccsccccccccccccccccccsccccs" />
</svg>
