<?xml version="1.0" encoding="UTF-8" standalone="no"?>
<svg
   width="16"
   height="16"
   version="1.1"
   id="svg7"
   sodipodi:docname="swap-panels.svg"
   inkscape:version="1.1.2 (0a00cf5339, 2022-02-04)"
   xmlns:inkscape="http://www.inkscape.org/namespaces/inkscape"
   xmlns:sodipodi="http://sodipodi.sourceforge.net/DTD/sodipodi-0.dtd"
   xmlns="http://www.w3.org/2000/svg"
   xmlns:svg="http://www.w3.org/2000/svg">
  <sodipodi:namedview
     id="namedview9"
     pagecolor="#000000"
     bordercolor="#666666"
     borderopacity="1.0"
     inkscape:pageshadow="2"
     inkscape:pageopacity="0"
     inkscape:pagecheckerboard="0"
     showgrid="false"
     inkscape:zoom="51.6875"
     inkscape:cx="8.0096735"
     inkscape:cy="8"
     inkscape:window-width="1920"
     inkscape:window-height="1051"
     inkscape:window-x="0"
     inkscape:window-y="29"
     inkscape:window-maximized="1"
     inkscape:current-layer="svg7" />
  <defs
     id="defs3">
    <style
       id="current-color-scheme"
       type="text/css">
   .ColorScheme-Text { color:#eeeeec; } .ColorScheme-Highlight { color:#367bf0; } .ColorScheme-NeutralText { color:#ffcc44; } .ColorScheme-PositiveText { color:#3db47e; } .ColorScheme-NegativeText { color:#dd4747; }
  </style>
  </defs>
  <path
     style="fill:#eeeeec;fill-opacity:1"
     class="ColorScheme-Text"
     d="M 1,1 V 6 C 1.0000511,5.734801 1.1054325,5.4804805 1.2929688,5.2929688 l 1,-1 2,-2 C 4.504413,2.0810311 4.7996821,1.9749635 5.0976562,2.0039062 c 0.098095,0.0099 0.1941859,0.034253 0.2851563,0.072266 C 5.7564011,2.2310077 5.9999738,2.5955961 6,3 V 4 H 7 V 1 Z m 0,5 v 9 H 7 V 12 C 6.4477381,11.999945 6.0000552,11.552262 6,11 V 9.6390545 L 5.8656511,9.5065224 c -7.51e-5,0.191486 0.084445,-0.1441058 0,0 C 5.5573254,10.03268 4.7875152,10.201233 4.2929688,9.7070312 l -2,-2 -1,-1 C 1.1054325,6.5195195 1.0000511,6.265199 1,6 Z M 6,8.5363843 C 6.0000178,8.3581796 6.0466441,8.6544796 6.128353,8.5095791 6.2123205,8.3606732 6.3333369,8.2354387 6.4788937,8.1463842 6.6306466,8.0535387 6.2945598,8.0000191 6.4854862,8 V 8 H 6 Z M 9,1 v 3 c 0.5522619,5.52e-5 0.9999448,0.4477381 1,1 v 1.4082976 l 0.159895,0.043995 c 8.2e-5,-0.2100663 -0.09985,0.1523133 0,0 0.323502,-0.4934624 1.065732,-0.6403915 1.547136,-0.1593233 l 2,2 1,1 C 14.894567,9.4804805 14.999949,9.734801 15,10 V 7.125 1 Z m 6,9 c -5.1e-5,0.265199 -0.105433,0.519519 -0.292969,0.707031 l -1,1 -2,2 C 11.077036,14.336587 10.00035,13.890637 10,13 V 12 H 9 v 3 h 6 z M 10,7.4337154 C 9.9999843,7.590788 9.9637586,7.3056856 9.8992157,7.4379462 9.8050379,7.630934 9.6505695,7.7891057 9.4603303,7.8879415 9.3225457,7.9595253 9.6114642,7.9999834 9.4454672,8 V 8 H 10 Z M 4.7803847,3.2196153 v 0 L 3,5 2.1946657,5.8053343 v 0 L 2.2066215,6.2066215 3,7 4.7186679,8.7186679 5,8.631536 v 0 -1.483983 0 L 5.2142049,7 H 9 V 5 H 5.2213408 V 5 L 5,4.770003 V 3.3439366 Z M 11,7.3634572 v 0 1.3613187 L 10.732004,9 V 9 H 7 v 2 h 3.758861 L 11,11.244602 v 0 1.331984 0 L 11.305825,12.694175 13,11 13.80158,10.19842 v 0 L 13.789048,9.7890477 13,9 11.284047,7.2840474 Z"
     id="path5"
     sodipodi:nodetypes="cccccccccccccccccccscccccssccccccccccsccccccccccccccccccssccccccccccccccccccccccccccccccccccccccccccc" />
</svg>
