<?xml version="1.0" encoding="UTF-8" standalone="no"?>
<svg
   width="16"
   height="16"
   version="1.1"
   id="svg7"
   sodipodi:docname="symbol-bigger.svg"
   inkscape:version="1.1.2 (0a00cf5339, 2022-02-04)"
   xmlns:inkscape="http://www.inkscape.org/namespaces/inkscape"
   xmlns:sodipodi="http://sodipodi.sourceforge.net/DTD/sodipodi-0.dtd"
   xmlns="http://www.w3.org/2000/svg"
   xmlns:svg="http://www.w3.org/2000/svg">
  <sodipodi:namedview
     id="namedview9"
     pagecolor="#000000"
     bordercolor="#666666"
     borderopacity="1.0"
     inkscape:pageshadow="2"
     inkscape:pageopacity="0"
     inkscape:pagecheckerboard="0"
     showgrid="false"
     inkscape:zoom="47.25"
     inkscape:cx="8"
     inkscape:cy="8"
     inkscape:window-width="1880"
     inkscape:window-height="966"
     inkscape:window-x="0"
     inkscape:window-y="29"
     inkscape:window-maximized="1"
     inkscape:current-layer="svg7" />
  <defs
     id="defs3">
    <style
       id="current-color-scheme"
       type="text/css">
   .ColorScheme-Text { color:#eeeeec; } .ColorScheme-Highlight { color:#367bf0; } .ColorScheme-NeutralText { color:#ffcc44; } .ColorScheme-PositiveText { color:#3db47e; } .ColorScheme-NegativeText { color:#dd4747; }
  </style>
  </defs>
  <path
     style="fill:currentColor"
     class="ColorScheme-Text"
     d="M 8,4 C 5.790861,4 4,5.790861 4,8 c 0,2.209139 1.790861,4 4,4 2.209139,0 4,-1.790861 4,-4 C 12,5.790861 10.209139,4 8,4 Z m 0,1 c 1.6568542,0 3,1.3431458 3,3 0,1.6568542 -1.3431458,3 -3,3 C 6.3431458,11 5,9.6568542 5,8 5,6.3431458 6.3431458,5 8,5 Z M 2.6968504,6.2020997 3,6.4385793 v 3.0264918 0 L 2.5791898,9.7194599 0.31804242,8.2120283 v 0 l 0.005317,-0.4276015 z m 5.5141714,9.4813673 v 0 l 1.5203033,-2.280455 v 0 L 9.507146,13 H 6.501937 l -0.2404035,0.3923 v 0 l 1.5465652,2.319848 z M 7.7615234,0.35771483 8.2153054,0.32295803 9.7294439,2.5941658 9.6127839,3 V 3 H 6.4806877 V 3 L 6.2507123,2.6239315 Z M 13,6.5234071 v 0 3.0261702 l 0.353305,0.2454968 c 0.353305,-0.204926 -0.129659,0.080261 0,0 0.657301,-0.4068812 1.59005,-1.0906438 2.339864,-1.59052 v 0 l 0.0045,-0.406128 -2.290776,-1.5271838 z"
     id="path5"
     sodipodi:nodetypes="sssssssssscccccccccccccccccccccccccccccccccsccccc" />
</svg>
