<?xml version="1.0" encoding="UTF-8" standalone="no"?>
<svg
   width="16"
   height="16"
   version="1.1"
   id="svg7"
   sodipodi:docname="system-search.svg"
   inkscape:version="1.1.2 (0a00cf5339, 2022-02-04)"
   xmlns:inkscape="http://www.inkscape.org/namespaces/inkscape"
   xmlns:sodipodi="http://sodipodi.sourceforge.net/DTD/sodipodi-0.dtd"
   xmlns="http://www.w3.org/2000/svg"
   xmlns:svg="http://www.w3.org/2000/svg">
  <sodipodi:namedview
     id="namedview9"
     pagecolor="#000000"
     bordercolor="#666666"
     borderopacity="1.0"
     inkscape:pageshadow="2"
     inkscape:pageopacity="0"
     inkscape:pagecheckerboard="0"
     showgrid="false"
     inkscape:zoom="51.6875"
     inkscape:cx="7.9903265"
     inkscape:cy="14.191052"
     inkscape:window-width="1920"
     inkscape:window-height="1051"
     inkscape:window-x="0"
     inkscape:window-y="29"
     inkscape:window-maximized="1"
     inkscape:current-layer="svg7" />
  <defs
     id="defs3">
    <style
       id="current-color-scheme"
       type="text/css">
   .ColorScheme-Text { color:#eeeeec; } .ColorScheme-Highlight { color:#367bf0; } .ColorScheme-NeutralText { color:#ffcc44; } .ColorScheme-PositiveText { color:#3db47e; } .ColorScheme-NegativeText { color:#dd4747; }
  </style>
  </defs>
  <path
     style="fill:currentColor"
     class="ColorScheme-Text"
     d="M 6.5,1 C 3.4624339,1 1,3.4624339 1,6.5 1,9.5375661 3.4624339,12 6.5,12 c 1.0524162,-9.5e-5 2.0813853,-0.302102 2.9655162,-0.868286 0.051052,-0.03269 -0.050063,0.03445 0,0 l 0.3213906,0.069 L 13.279,14.693 c 0.188559,0.196161 0.448909,0.307017 0.721,0.307 0.552285,0 1,-0.447715 1,-1 -1.9e-5,-0.270113 -0.109309,-0.528731 -0.303,-0.717 L 11.189731,9.7760174 11.124564,9.466948 c 0.03334,-0.048317 -0.0317,0.049243 0,0 C 11.693548,8.5831391 11.998043,7.5535764 12,6.5 12,3.4624339 9.5375661,1 6.5,1 Z m 0,2 C 8.4329966,3 10,4.5670034 10,6.5 10,8.4329966 8.4329966,10 6.5,10 4.5670034,10 3,8.4329966 3,6.5 3,4.5670034 4.5670034,3 6.5,3 Z"
     id="path5"
     sodipodi:nodetypes="sscsccccccccscssssss" />
</svg>
