<?xml version="1.0" encoding="UTF-8" standalone="no"?>
<svg
   width="16"
   height="16"
   version="1.1"
   id="svg7"
   sodipodi:docname="system-software-install.svg"
   inkscape:version="1.1.2 (0a00cf5339, 2022-02-04)"
   xmlns:inkscape="http://www.inkscape.org/namespaces/inkscape"
   xmlns:sodipodi="http://sodipodi.sourceforge.net/DTD/sodipodi-0.dtd"
   xmlns="http://www.w3.org/2000/svg"
   xmlns:svg="http://www.w3.org/2000/svg">
  <sodipodi:namedview
     id="namedview9"
     pagecolor="#000000"
     bordercolor="#666666"
     borderopacity="1.0"
     inkscape:pageshadow="2"
     inkscape:pageopacity="0"
     inkscape:pagecheckerboard="0"
     showgrid="false"
     inkscape:zoom="51.6875"
     inkscape:cx="7.9903265"
     inkscape:cy="14.191052"
     inkscape:window-width="1920"
     inkscape:window-height="1051"
     inkscape:window-x="0"
     inkscape:window-y="29"
     inkscape:window-maximized="1"
     inkscape:current-layer="svg7" />
  <defs
     id="defs3">
    <style
       id="current-color-scheme"
       type="text/css">
   .ColorScheme-Text { color:#eeeeec; } .ColorScheme-Highlight { color:#367bf0; } .ColorScheme-NeutralText { color:#ffcc44; } .ColorScheme-PositiveText { color:#3db47e; } .ColorScheme-NegativeText { color:#dd4747; }
  </style>
  </defs>
  <path
     style="fill:currentColor"
     class="ColorScheme-Text"
     d="M 2,1 C 1.446,1 1,1.446 1,2 V 6 C 1,6.554 1.446,7 2,7 H 6 C 6.554,7 7,6.554 7,6 V 2 C 7,1.446 6.554,1 6,1 Z m 8,0 C 9.446,1 9,1.446 9,2 v 4 c 0,0.554 0.446,1 1,1 h 4 c 0.554,0 1,-0.446 1,-1 V 2 C 15,1.446 14.554,1 14,1 Z M 2,9 C 1.446,9 1,9.446 1,10 v 4 c 0,0.554 0.446,1 1,1 h 4 c 0.554,0 1,-0.446 1,-1 V 10 C 7,9.446 6.554,9 6,9 Z m 10,0 c -0.554,0 -1,0.4542252 -1,1.019531 v 1.727992 L 10.750472,12 v 0 L 9.4277344,12 C 9.0455278,11.999937 8.8543513,12.404491 9.125,12.640625 l 2.572266,2.25 c 0.16731,0.146051 0.438158,0.146051 0.605468,0 l 2.572266,-2.25 C 15.145649,12.404491 14.954472,11.999937 14.572266,12 h -1.399571 v 0 L 13,11.802335 V 10.019531 C 13,9.4542252 12.553999,9 12,9 Z"
     id="path5"
     sodipodi:nodetypes="sssssssssssssssssssssssssssssccccccccccccss" />
</svg>
