<?xml version="1.0" encoding="UTF-8" standalone="no"?>
<svg
   width="16"
   height="16"
   version="1.1"
   id="svg7"
   sodipodi:docname="tab_breakoff.svg"
   inkscape:version="1.2 (dc2aedaf03, 2022-05-15)"
   xmlns:inkscape="http://www.inkscape.org/namespaces/inkscape"
   xmlns:sodipodi="http://sodipodi.sourceforge.net/DTD/sodipodi-0.dtd"
   xmlns="http://www.w3.org/2000/svg"
   xmlns:svg="http://www.w3.org/2000/svg">
  <sodipodi:namedview
     id="namedview9"
     pagecolor="#000000"
     bordercolor="#666666"
     borderopacity="1.0"
     inkscape:pageshadow="2"
     inkscape:pageopacity="0"
     inkscape:pagecheckerboard="0"
     showgrid="false"
     inkscape:zoom="51.6875"
     inkscape:cx="8.0096735"
     inkscape:cy="11.095526"
     inkscape:window-width="1472"
     inkscape:window-height="1080"
     inkscape:window-x="223"
     inkscape:window-y="-1"
     inkscape:window-maximized="1"
     inkscape:current-layer="svg7"
     inkscape:showpageshadow="0"
     inkscape:deskcolor="#000000" />
  <defs
     id="defs3">
    <style
       id="current-color-scheme"
       type="text/css">
   .ColorScheme-Text { color:#eeeeec; } .ColorScheme-Highlight { color:#367bf0; } .ColorScheme-NeutralText { color:#ffcc44; } .ColorScheme-PositiveText { color:#3db47e; } .ColorScheme-NegativeText { color:#dd4747; }
  </style>
  </defs>
  <path
     style="fill:currentColor"
     class="ColorScheme-Text"
     d="M 4,1 C 4,1 2,1 2,3 V 6.7282381 L 1.7786061,6.9822058 1.7584265,7 H 1.1769845 L 1,7.2259036 v 0 V 9 H 5.7952525 L 6,9.2423375 v 0 3.4372925 L 5.8485773,12.901511 5.755452,13 H 5.2124596 L 5,13.141933 v 0 V 15 h 10 v -1.728944 0 L 14.691775,13 h -0.49334 L 14.137852,12.949319 14,12.746989 V 9 C 14,7 12,7 12,7 H 10.18238 V 7 L 10,6.8247407 V 3 C 10,1 8,1 8,1 Z"
     id="path5"
     sodipodi:nodetypes="csccccccccccccccccccccccccsccccscc" />
</svg>
