<?xml version="1.0" encoding="UTF-8" standalone="no"?>
<svg
   width="16"
   height="16"
   version="1.1"
   id="svg7"
   sodipodi:docname="tag-edit.svg"
   inkscape:version="1.1.2 (0a00cf5339, 2022-02-04)"
   xmlns:inkscape="http://www.inkscape.org/namespaces/inkscape"
   xmlns:sodipodi="http://sodipodi.sourceforge.net/DTD/sodipodi-0.dtd"
   xmlns="http://www.w3.org/2000/svg"
   xmlns:svg="http://www.w3.org/2000/svg">
  <sodipodi:namedview
     id="namedview9"
     pagecolor="#000000"
     bordercolor="#666666"
     borderopacity="1.0"
     inkscape:pageshadow="2"
     inkscape:pageopacity="0"
     inkscape:pagecheckerboard="0"
     showgrid="false"
     inkscape:zoom="51.6875"
     inkscape:cx="7.9903265"
     inkscape:cy="14.200726"
     inkscape:window-width="1880"
     inkscape:window-height="966"
     inkscape:window-x="0"
     inkscape:window-y="29"
     inkscape:window-maximized="1"
     inkscape:current-layer="svg7" />
  <defs
     id="defs3">
    <style
       id="current-color-scheme"
       type="text/css">
   .ColorScheme-Text { color:#eeeeec; } .ColorScheme-Highlight { color:#367bf0; } .ColorScheme-NeutralText { color:#ffcc44; } .ColorScheme-PositiveText { color:#3db47e; } .ColorScheme-NegativeText { color:#dd4747; }
  </style>
  </defs>
  <path
     style="fill:currentColor"
     class="ColorScheme-Text"
     d="M 4,1 C 4,1 2,1 2,3 v 4.7819054 l 0.1215265,0.3396211 v 0 l 6.6936263,6.6936265 v 0 L 9.2138666,14.786133 15.78461,8.2153905 v 0 L 15.732315,7.732315 9.1120629,1.1120629 8.8264659,1 V 1 Z M 5,3 C 5.5522847,3 6,3.4477153 6,4 6,4.5522847 5.5522847,5 5,5 4.4477153,5 4,4.5522847 4,4 4,3.4477153 4.4477153,3 5,3 Z m 9.980469,8.003906 c -0.04186,0.0084 -0.08621,0.03153 -0.13086,0.07617 l -0.634765,0.634766 1.070312,1.070312 0.634766,-0.634765 c 0.178594,-0.178569 0,-0.357422 0,-0.357422 l -0.712891,-0.712891 c 0,0 -0.100988,-0.101281 -0.226562,-0.07617 z M 13.857422,12.072266 11.10638,14.821427 11,15.075626 v 0 0.715825 L 11.205711,16 v 0 h 0.67709 v 0 l 0.286116,-0.09672 2.758817,-2.760705 z"
     id="path5"
     sodipodi:nodetypes="cscccccccccccccssssssccccccscccccccccccc" />
</svg>
