<?xml version="1.0" encoding="UTF-8" standalone="no"?>
<svg
   width="16"
   height="16"
   version="1.1"
   id="svg9"
   sodipodi:docname="task-past-due.svg"
   inkscape:version="1.1.2 (0a00cf5339, 2022-02-04)"
   xmlns:inkscape="http://www.inkscape.org/namespaces/inkscape"
   xmlns:sodipodi="http://sodipodi.sourceforge.net/DTD/sodipodi-0.dtd"
   xmlns="http://www.w3.org/2000/svg"
   xmlns:svg="http://www.w3.org/2000/svg">
  <sodipodi:namedview
     id="namedview11"
     pagecolor="#000000"
     bordercolor="#666666"
     borderopacity="1.0"
     inkscape:pageshadow="2"
     inkscape:pageopacity="0"
     inkscape:pagecheckerboard="0"
     showgrid="false"
     inkscape:zoom="51.6875"
     inkscape:cx="7.9903265"
     inkscape:cy="15.738815"
     inkscape:window-width="1920"
     inkscape:window-height="1051"
     inkscape:window-x="0"
     inkscape:window-y="29"
     inkscape:window-maximized="1"
     inkscape:current-layer="svg9" />
  <defs
     id="defs3">
    <style
       id="current-color-scheme"
       type="text/css">
   .ColorScheme-Text { color:#eeeeec; } .ColorScheme-Highlight { color:#367bf0; } .ColorScheme-NeutralText { color:#ffcc44; } .ColorScheme-PositiveText { color:#3db47e; } .ColorScheme-NegativeText { color:#dd4747; }
  </style>
  </defs>
  <path
     style="opacity:.35;fill:currentColor"
     class="ColorScheme-Text"
     d="M 9,2 A 1,1 0 0 1 8,3 1,1 0 0 1 7,2 1,1 0 0 1 8,1 1,1 0 0 1 9,2 Z M 8,0 C 8,0 6,0 6,2 H 2 C 2,2 1,2 1,3 V 14 C 1,15 2,15 2,15 H 10 V 12 H 4 V 11 H 10 V 10 H 15 V 3 C 15,2 14,2 14,2 H 10 C 10,0 8,0 8,0 Z M 4,5 H 12 V 6 H 4 Z M 4,8 H 12 V 9 H 4 Z"
     id="path5" />
  <path
     style="fill:currentColor"
     class="ColorScheme-Text"
     d="m 11,11.353464 v 0 V 12 c 0,0.28 0.1,0.54 0.28,0.72 l 0.78,0.78 -0.78,0.78 C 11.1,14.46 11,14.72 11,15 v 0.625455 L 11.397405,16 v 0 H 12 c 0.28,0 0.54,-0.1 0.72,-0.28 l 0.78,-0.78 0.78,0.78 C 14.46,15.9 14.72,16 15,16 h 0.595616 v 0 L 16,15.619115 V 15 c 0,-0.28 -0.1,-0.54 -0.28,-0.72 L 14.94,13.5 15.72,12.72 C 15.9,12.54 16,12.28 16,12 v -0.526342 0 L 15.518572,11 H 15 c -0.28,0 -0.54,0.1 -0.72,0.28 L 13.5,12.06 12.72,11.28 C 12.54,11.1 12.28,11 12,11 h -0.673783 z"
     id="path7"
     sodipodi:nodetypes="ccsscsscccsscsscccsscsscccsscsscc" />
</svg>
