<?xml version="1.0" encoding="UTF-8" standalone="no"?>
<svg
   width="16"
   height="16"
   version="1.1"
   id="svg7"
   sodipodi:docname="text-wrap.svg"
   inkscape:version="1.1.2 (0a00cf5339, 2022-02-04)"
   xmlns:inkscape="http://www.inkscape.org/namespaces/inkscape"
   xmlns:sodipodi="http://sodipodi.sourceforge.net/DTD/sodipodi-0.dtd"
   xmlns="http://www.w3.org/2000/svg"
   xmlns:svg="http://www.w3.org/2000/svg">
  <sodipodi:namedview
     id="namedview9"
     pagecolor="#000000"
     bordercolor="#666666"
     borderopacity="1.0"
     inkscape:pageshadow="2"
     inkscape:pageopacity="0"
     inkscape:pagecheckerboard="0"
     showgrid="false"
     inkscape:zoom="47.25"
     inkscape:cx="8"
     inkscape:cy="8.010582"
     inkscape:window-width="1920"
     inkscape:window-height="1051"
     inkscape:window-x="0"
     inkscape:window-y="29"
     inkscape:window-maximized="1"
     inkscape:current-layer="svg7" />
  <defs
     id="defs3">
    <style
       id="current-color-scheme"
       type="text/css">
   .ColorScheme-Text { color:#eeeeec; } .ColorScheme-Highlight { color:#367bf0; } .ColorScheme-NeutralText { color:#ffcc44; } .ColorScheme-PositiveText { color:#3db47e; } .ColorScheme-NegativeText { color:#dd4747; }
  </style>
  </defs>
  <path
     style="fill:currentColor"
     class="ColorScheme-Text"
     d="M 6,1 1,15 H 3.5 L 4.4699252,12.261388 4.8304463,12 v 0 H 6.7227 L 10.828,8.6406 8,1 Z m 1.1632167,4.4663334 v 0 L 8.6366815,9.6762328 8.4474219,10 v 0 l -2.8980538,0 v 0 L 5.3647968,9.6720091 6.8562111,5.4108255 Z M 13,9 v 3 h -1.780472 v 0 L 11,11.825283 11,10.925461 10.671067,10.734952 v 0 l -2.8306315,2.02188 v 0 l -0.0046,0.483049 2.8905515,2.06468 v 0 L 11,15.073351 V 14.211368 L 11.209992,14 v 0 L 14.776948,14 15,13.76109 v 0 V 9 Z"
     id="path5"
     sodipodi:nodetypes="cccccccccccccccccccccccccccccccccccccccccc" />
</svg>
