<?xml version="1.0" encoding="UTF-8" standalone="no"?>
<svg
   width="16"
   height="16"
   version="1.1"
   id="svg7"
   sodipodi:docname="text-flow-into-frame.svg"
   inkscape:version="1.1.2 (0a00cf5339, 2022-02-04)"
   xmlns:inkscape="http://www.inkscape.org/namespaces/inkscape"
   xmlns:sodipodi="http://sodipodi.sourceforge.net/DTD/sodipodi-0.dtd"
   xmlns="http://www.w3.org/2000/svg"
   xmlns:svg="http://www.w3.org/2000/svg">
  <sodipodi:namedview
     id="namedview9"
     pagecolor="#000000"
     bordercolor="#666666"
     borderopacity="1.0"
     inkscape:pageshadow="2"
     inkscape:pageopacity="0"
     inkscape:pagecheckerboard="0"
     showgrid="false"
     inkscape:zoom="47.25"
     inkscape:cx="8"
     inkscape:cy="8.010582"
     inkscape:window-width="1920"
     inkscape:window-height="1051"
     inkscape:window-x="0"
     inkscape:window-y="29"
     inkscape:window-maximized="1"
     inkscape:current-layer="svg7" />
  <defs
     id="defs3">
    <style
       id="current-color-scheme"
       type="text/css">
   .ColorScheme-Text { color:#eeeeec; } .ColorScheme-Highlight { color:#367bf0; } .ColorScheme-NeutralText { color:#ffcc44; } .ColorScheme-PositiveText { color:#3db47e; } .ColorScheme-NegativeText { color:#dd4747; }
  </style>
  </defs>
  <path
     style="fill:currentColor"
     class="ColorScheme-Text"
     d="m 10,7 v 3.740555 L 9.785257,11 v 0 H 8.5546475 l -0.1983017,0.356346 v 0 l 2.4127202,2.41272 0.460955,9.13e-4 v 0 l 2.39129,-2.39129 L 13.42248,11 v 0 h -1.172839 v 0 L 12,10.693396 V 7 Z M 2,2 v 2.6610495 l 0.2511803,0.08777 v 0 L 3,4 H 4.6610127 V 4 L 5,4.2561739 V 9 L 4.1743868,9.8256132 v 0 L 4.3218561,10 h 3.4496166 l 0.090282,-0.1382456 v 0 L 7,9 V 4.2176468 L 7.155524,4 V 4 H 9 L 9.7851214,4.7851214 10,4.7455564 v 0 V 2 Z M 0,0 V 16 H 16 V 0 Z M 1,1 H 15 V 15 H 1 Z"
     id="path5"
     sodipodi:nodetypes="ccccccccccccccccccccccccccccccccccccccccccccccccccccc" />
</svg>
