<?xml version="1.0" encoding="UTF-8" standalone="no"?>
<svg
   width="16"
   height="16"
   version="1.1"
   id="svg7"
   sodipodi:docname="text_horz_kern.svg"
   inkscape:version="1.1.2 (0a00cf5339, 2022-02-04)"
   xmlns:inkscape="http://www.inkscape.org/namespaces/inkscape"
   xmlns:sodipodi="http://sodipodi.sourceforge.net/DTD/sodipodi-0.dtd"
   xmlns="http://www.w3.org/2000/svg"
   xmlns:svg="http://www.w3.org/2000/svg">
  <sodipodi:namedview
     id="namedview9"
     pagecolor="#000000"
     bordercolor="#666666"
     borderopacity="1.0"
     inkscape:pageshadow="2"
     inkscape:pageopacity="0"
     inkscape:pagecheckerboard="0"
     showgrid="false"
     inkscape:zoom="103.375"
     inkscape:cx="8"
     inkscape:cy="8.7690447"
     inkscape:window-width="1920"
     inkscape:window-height="1051"
     inkscape:window-x="0"
     inkscape:window-y="29"
     inkscape:window-maximized="1"
     inkscape:current-layer="svg7" />
  <defs
     id="defs3">
    <style
       id="current-color-scheme"
       type="text/css">
   .ColorScheme-Text { color:#eeeeec; } .ColorScheme-Highlight { color:#367bf0; } .ColorScheme-NeutralText { color:#ffcc44; } .ColorScheme-PositiveText { color:#3db47e; } .ColorScheme-NegativeText { color:#dd4747; }
  </style>
  </defs>
  <path
     style="fill:currentColor"
     class="ColorScheme-Text"
     d="M 8,2 V 12.831071 L 7.7347411,13 v 0 H 0 v 1 H 16 V 13 H 9.1420562 v 0 L 9,12.845137 V 2 Z m 4,2 -3,8 h 1 l 0.77,-2 h 3.46 L 15,12 h 1 L 13,4 Z m 0.598688,1.7566192 v 0 L 13.77203,8.8076554 13.679793,9 V 9 H 11.3938 V 9 L 11.216206,8.8382462 12.402153,5.7544302 Z M 3,4 0,12 h 1 l 0.7695,-2 h 3.461 L 6,12 H 7 L 4,4 Z M 3.4132305,5.7256769 3.6022945,5.7660554 4.7627659,8.7842985 4.6667661,9 V 9 H 2.3561457 V 9 L 2.2375912,8.7833698 Z"
     id="path5"
     sodipodi:nodetypes="ccccccccccccccccccccccccccccccccccccccccccccccccccc" />
</svg>
