<?xml version="1.0" encoding="UTF-8" standalone="no"?>
<svg
   width="16"
   height="16"
   version="1.1"
   id="svg9"
   sodipodi:docname="text_remove_kerns.svg"
   inkscape:version="1.1.2 (0a00cf5339, 2022-02-04)"
   xmlns:inkscape="http://www.inkscape.org/namespaces/inkscape"
   xmlns:sodipodi="http://sodipodi.sourceforge.net/DTD/sodipodi-0.dtd"
   xmlns="http://www.w3.org/2000/svg"
   xmlns:svg="http://www.w3.org/2000/svg">
  <sodipodi:namedview
     id="namedview11"
     pagecolor="#000000"
     bordercolor="#666666"
     borderopacity="1.0"
     inkscape:pageshadow="2"
     inkscape:pageopacity="0"
     inkscape:pagecheckerboard="0"
     showgrid="false"
     inkscape:zoom="51.6875"
     inkscape:cx="7.9903265"
     inkscape:cy="14.191052"
     inkscape:window-width="1920"
     inkscape:window-height="1051"
     inkscape:window-x="0"
     inkscape:window-y="29"
     inkscape:window-maximized="1"
     inkscape:current-layer="svg9" />
  <defs
     id="defs3">
    <style
       id="current-color-scheme"
       type="text/css">
   .ColorScheme-Text { color:#eeeeec; } .ColorScheme-Highlight { color:#367bf0; } .ColorScheme-NeutralText { color:#ffcc44; } .ColorScheme-PositiveText { color:#3db47e; } .ColorScheme-NegativeText { color:#dd4747; }
  </style>
  </defs>
  <path
     style="opacity:0.35;fill:currentColor"
     class="ColorScheme-Text"
     d="M 3,3 0,11 H 1 L 1.6877307,9.2136866 v 0 L 2.0298436,9 H 5.0026652 L 5.23,9.2567285 5.3115781,9.211891 6,11 H 7 L 4,3 Z M 3.3794655,4.8134255 3.6419471,4.8691047 4.7473832,7.7435669 4.562683,8 V 8 H 2.3945501 V 8 L 2.2742662,7.6872721 Z"
     id="path5"
     sodipodi:nodetypes="ccccccccccccccccccccccc" />
  <path
     style="fill:currentColor"
     class="ColorScheme-Text"
     d="M 10.372598,10 10,10.382907 V 11.414 L 11.586,13 10,14.586 v 0.88841 L 10.508615,16 v 0 H 11.414 L 13,14.414 14.586,16 h 1.000644 v 0 L 16,15.583341 V 14.586 L 14.414,13 16,11.414 v -0.887387 0 L 15.487367,10 H 14.586 L 13,11.586 11.414,10 Z M 8,1 V 11.749681 L 7.8203609,12 c 0,0 0.05988,0 0,0 C 5.2135739,12 0,12 0,12 v 1 H 9 V 1 Z"
     id="path7"
     sodipodi:nodetypes="ccccccccccccccccccccccccccccsccccc" />
</svg>
