<?xml version="1.0" encoding="UTF-8" standalone="no"?>
<svg
   width="16"
   height="16"
   version="1.1"
   id="svg11"
   sodipodi:docname="tools-check-spelling.svg"
   inkscape:version="1.1.2 (0a00cf5339, 2022-02-04)"
   xmlns:inkscape="http://www.inkscape.org/namespaces/inkscape"
   xmlns:sodipodi="http://sodipodi.sourceforge.net/DTD/sodipodi-0.dtd"
   xmlns="http://www.w3.org/2000/svg"
   xmlns:svg="http://www.w3.org/2000/svg">
  <sodipodi:namedview
     id="namedview13"
     pagecolor="#000000"
     bordercolor="#666666"
     borderopacity="1.0"
     inkscape:pageshadow="2"
     inkscape:pageopacity="0"
     inkscape:pagecheckerboard="0"
     showgrid="false"
     inkscape:zoom="47.25"
     inkscape:cx="15.428571"
     inkscape:cy="8"
     inkscape:window-width="1880"
     inkscape:window-height="966"
     inkscape:window-x="0"
     inkscape:window-y="29"
     inkscape:window-maximized="1"
     inkscape:current-layer="svg11" />
  <defs
     id="defs3">
    <style
       id="current-color-scheme"
       type="text/css">
   .ColorScheme-Text { color:#eeeeec; } .ColorScheme-Highlight { color:#367bf0; } .ColorScheme-NeutralText { color:#ffcc44; } .ColorScheme-PositiveText { color:#3db47e; } .ColorScheme-NegativeText { color:#dd4747; }
  </style>
  </defs>
  <path
     style="fill:currentColor"
     class="ColorScheme-Text"
     d="m 2.7336793,11.559262 v 0 L 0.64648,13.646 c -0.47612893,0.471339 0.23502186,1.183476 0.70702,0.708 l 1.4102857,-1.410714 0.4721647,-3.36e-4 v 0 l 1.5871511,1.587152 v 0 l 0.4271554,-0.07336 1.5027243,-1.502724 0.4509674,-0.04307 v 0 l 1.57683,1.57683 0.4695907,-0.03115 v 0 l 1.4815177,-1.481518 0.514348,-0.02188 v 0 l 1.502542,1.502542 v 0 L 13.271485,14.43563 15.354,12.354 c 0.472,-0.472 -0.236,-1.18 -0.708,-0.708 l -1.39392,1.394766 v 0 l -0.505007,-6.93e-4 -1.523814,-1.523814 v 0 l -0.489587,0.04307 -1.4813151,1.481315 v 0 L 8.7894157,13.082416 7.223147,11.516147 v 0 l -0.4577773,0.01148 -1.4919398,1.49194 v 0 l -0.526321,0.02054 -1.4390407,-1.439041 z"
     id="path5"
     sodipodi:nodetypes="ccccccccccccccccccccccccccccccccccccccccc" />
  <path
     style="fill:currentColor"
     class="ColorScheme-Text"
     d="M 8,2 V 11 H 11 C 12.662,11 14,9.662 14,8 14,6.338 12.662,5 11,5 H 10 V 2 Z M 10,7 H 11 C 11.554,7 12,7.446 12,8 12,8.554 11.554,9 11,9 H 10 Z"
     id="path7" />
  <path
     style="fill:currentColor"
     class="ColorScheme-Text"
     d="M 2,3 V 5 H 5 V 6 H 4 C 2.338,6 1,7.115 1,8.5 1,9.885 2.338,11 4,11 H 7 V 5 C 7,3.892 6.108,3 5,3 Z M 3.5,8 H 5 V 9 H 3.5 C 3.223,9 3,8.777 3,8.5 3,8.223 3.223,8 3.5,8 Z"
     id="path9" />
</svg>
