<?xml version="1.0" encoding="UTF-8" standalone="no"?>
<svg
   width="16"
   height="16"
   version="1.1"
   id="svg7"
   sodipodi:docname="tools-rip-audio-cd.svg"
   inkscape:version="1.1.2 (0a00cf5339, 2022-02-04)"
   xmlns:inkscape="http://www.inkscape.org/namespaces/inkscape"
   xmlns:sodipodi="http://sodipodi.sourceforge.net/DTD/sodipodi-0.dtd"
   xmlns="http://www.w3.org/2000/svg"
   xmlns:svg="http://www.w3.org/2000/svg">
  <sodipodi:namedview
     id="namedview9"
     pagecolor="#000000"
     bordercolor="#666666"
     borderopacity="1.0"
     inkscape:pageshadow="2"
     inkscape:pageopacity="0"
     inkscape:pagecheckerboard="0"
     showgrid="false"
     inkscape:zoom="103.375"
     inkscape:cx="7.9951632"
     inkscape:cy="7.9854897"
     inkscape:window-width="1872"
     inkscape:window-height="928"
     inkscape:window-x="0"
     inkscape:window-y="35"
     inkscape:window-maximized="1"
     inkscape:current-layer="svg7" />
  <defs
     id="defs3">
    <style
       id="current-color-scheme"
       type="text/css">
   .ColorScheme-Text { color:#eeeeec; } .ColorScheme-Highlight { color:#367bf0; } .ColorScheme-NeutralText { color:#ffcc44; } .ColorScheme-PositiveText { color:#3db47e; } .ColorScheme-NegativeText { color:#dd4747; }
  </style>
  </defs>
  <path
     style="fill:currentColor"
     class="ColorScheme-Text"
     d="M 5.3308811,1 5,1.3740819 v 7.6265971 0 C 4.9289643,8.9752259 4.8570833,9.1276149 4.7845146,9.1076319 4.529234,9.0373359 4.2654431,9.0010567 4,9 2.3431458,9 1,10.343146 1,12 c 0,1.656854 1.3431458,3 3,3 1.6568542,0 3,-1.343146 3,-3 v -6.6326637 0 L 7.3389227,5 H 12.727443 L 13,5.2461628 v 0 3.7136328 0 C 12.935491,8.9366812 12.870286,9.1318153 12.804501,9.1132099 12.543013,9.0392552 12.272377,9.0010843 12,9 c -1.656854,0 -3,1.343146 -3,3 0,1.656854 1.343146,3 3,3 1.656854,0 3,-1.343146 3,-3 V 1.3814209 L 14.625052,1 v 0 z"
     id="path5"
     sodipodi:nodetypes="ccccscsssccccccccscssscccc" />
</svg>
