<?xml version="1.0" encoding="UTF-8" standalone="no"?>
<svg
   width="16"
   height="16"
   version="1.1"
   id="svg7"
   sodipodi:docname="tools-media-optical-copy.svg"
   inkscape:version="1.1.2 (0a00cf5339, 2022-02-04)"
   xmlns:inkscape="http://www.inkscape.org/namespaces/inkscape"
   xmlns:sodipodi="http://sodipodi.sourceforge.net/DTD/sodipodi-0.dtd"
   xmlns="http://www.w3.org/2000/svg"
   xmlns:svg="http://www.w3.org/2000/svg">
  <sodipodi:namedview
     id="namedview9"
     pagecolor="#000000"
     bordercolor="#666666"
     borderopacity="1.0"
     inkscape:pageshadow="2"
     inkscape:pageopacity="0"
     inkscape:pagecheckerboard="0"
     showgrid="false"
     inkscape:zoom="47.125"
     inkscape:cx="8"
     inkscape:cy="8"
     inkscape:window-width="1745"
     inkscape:window-height="966"
     inkscape:window-x="0"
     inkscape:window-y="29"
     inkscape:window-maximized="1"
     inkscape:current-layer="svg7" />
  <defs
     id="defs3">
    <style
       id="current-color-scheme"
       type="text/css">
   .ColorScheme-Text { color:#eeeeec; } .ColorScheme-Highlight { color:#367bf0; } .ColorScheme-NeutralText { color:#ffcc44; } .ColorScheme-PositiveText { color:#3db47e; } .ColorScheme-NegativeText { color:#dd4747; }
  </style>
  </defs>
  <path
     style="fill:currentColor"
     class="ColorScheme-Text"
     d="m 9,1 c -1.4897825,0.00228 -2.9176052,0.5582702 -4.0124903,1.5471779 -0.1515554,0.1368859 0.242953,0.088694 0.1048748,0.241849 0.1762654,-0.071956 -0.1834048,0.056796 0,0 C 5.695809,2.6021609 6.3359357,2.5 7,2.5 c 3.584,0 6.5,2.9161 6.5,6.5 0,0.7088337 -0.116601,1.390327 -0.327861,2.028954 -0.04681,0.14151 0.05587,-0.137131 0,0 0.115573,-0.104282 0.07246,0.205445 0.178815,0.09339 C 14.403146,10.013779 14.997275,8.5401304 15,7 15,3.6863 12.314,1 9,1 Z M 7,3 C 3.6862915,3 1,5.6862915 1,9 c 0,3.313708 2.6862915,6 6,6 3.313708,0 6,-2.686292 6,-6 C 13,5.6862915 10.313708,3 7,3 Z M 7,7 C 8.1045695,7 9,7.8954305 9,9 9,10.104569 8.1045695,11 7,11 5.8954305,11 5,10.104569 5,9 5,7.8954305 5.8954305,7 7,7 Z"
     id="path5"
     sodipodi:nodetypes="cscsssscsccssssssssss" />
</svg>
