<?xml version="1.0" encoding="UTF-8" standalone="no"?>
<svg
   width="16"
   height="16"
   version="1.1"
   id="svg13"
   sodipodi:docname="transform-affect-gradient.svg"
   inkscape:version="1.1.2 (0a00cf5339, 2022-02-04)"
   xmlns:inkscape="http://www.inkscape.org/namespaces/inkscape"
   xmlns:sodipodi="http://sodipodi.sourceforge.net/DTD/sodipodi-0.dtd"
   xmlns="http://www.w3.org/2000/svg"
   xmlns:svg="http://www.w3.org/2000/svg">
  <sodipodi:namedview
     id="namedview15"
     pagecolor="#000000"
     bordercolor="#666666"
     borderopacity="1.0"
     inkscape:pageshadow="2"
     inkscape:pageopacity="0"
     inkscape:pagecheckerboard="0"
     showgrid="false"
     inkscape:zoom="47.25"
     inkscape:cx="8"
     inkscape:cy="8.010582"
     inkscape:window-width="1920"
     inkscape:window-height="1051"
     inkscape:window-x="0"
     inkscape:window-y="29"
     inkscape:window-maximized="1"
     inkscape:current-layer="svg13" />
  <defs
     id="defs3">
    <style
       id="current-color-scheme"
       type="text/css">
   .ColorScheme-Text { color:#eeeeec; } .ColorScheme-Highlight { color:#367bf0; } .ColorScheme-NeutralText { color:#ffcc44; } .ColorScheme-PositiveText { color:#3db47e; } .ColorScheme-NegativeText { color:#dd4747; }
  </style>
  </defs>
  <path
     style="opacity:.35;fill:currentColor"
     class="ColorScheme-Text"
     d="M 2,3 V 6 H 12 V 3 Z"
     id="path5" />
  <path
     style="opacity:.35;fill:currentColor"
     class="ColorScheme-Text"
     d="M 5,3 V 6 H 12 V 3 Z"
     id="path7" />
  <path
     style="opacity:.35;fill:currentColor"
     class="ColorScheme-Text"
     d="M 8,3 V 6 H 12 V 3 Z"
     id="path9" />
  <path
     style="fill:currentColor"
     class="ColorScheme-Text"
     d="m 10,3 v 3 h 2 V 3 Z m 1,6.5919919 v 0 1.1186301 L 10.775404,11 v 0 H 9 v 2 h 1.786006 v 0 L 11,13.197594 v 1.219627 l 0.441557,0.251611 v 0 l 3.179773,-2.384829 -0.01244,-0.577338 v 0 L 11.476752,9.357564 Z M 2,11 v 2 h 2 v -2 z m 3,0 v 2 H 8 V 11 Z M 2,7 v 1 h 7 v 1 h 1 V 7 Z M 2,1 v 1 h 11 v 7 h 1 V 1 Z"
     id="path11"
     sodipodi:nodetypes="ccccccccccccccccccccccccccccccccccccccccccccccc" />
</svg>
