<?xml version="1.0" encoding="UTF-8" standalone="no"?>
<svg
   width="16"
   height="16"
   version="1.1"
   id="svg271124"
   sodipodi:docname="twitter-home.svg"
   inkscape:version="1.1.2 (0a00cf5339, 2022-02-04)"
   xmlns:inkscape="http://www.inkscape.org/namespaces/inkscape"
   xmlns:sodipodi="http://sodipodi.sourceforge.net/DTD/sodipodi-0.dtd"
   xmlns="http://www.w3.org/2000/svg"
   xmlns:svg="http://www.w3.org/2000/svg">
  <sodipodi:namedview
     id="namedview271126"
     pagecolor="#000000"
     bordercolor="#666666"
     borderopacity="1.0"
     inkscape:pageshadow="2"
     inkscape:pageopacity="0"
     inkscape:pagecheckerboard="0"
     showgrid="false"
     inkscape:zoom="51.6875"
     inkscape:cx="7.9903265"
     inkscape:cy="8"
     inkscape:window-width="1920"
     inkscape:window-height="1051"
     inkscape:window-x="0"
     inkscape:window-y="29"
     inkscape:window-maximized="1"
     inkscape:current-layer="svg271124" />
  <defs
     id="defs271120">
    <style
       id="current-color-scheme"
       type="text/css">
   .ColorScheme-Text { color:#eeeeec; } .ColorScheme-Highlight { color:#367bf0; } .ColorScheme-NeutralText { color:#ffcc44; } .ColorScheme-PositiveText { color:#3db47e; } .ColorScheme-NegativeText { color:#dd4747; }
  </style>
  </defs>
  <path
     style="fill:currentColor"
     class="ColorScheme-Text"
     d="m 7.7769485,1.2230515 v 0 L 0.30136577,8.6986342 0.2678261,9.2678261 v 0 l 0.9993848,0.9993849 v 0 l 0.4631079,0.0025 0.5264244,-0.5264242 v 0 L 2.5724628,9.8985453 3.5,15 h 9 l 0.05196,-0.285795 0.87789,-4.8283947 v 0 L 13.797356,9.7973556 14.2659,10.2659 v 0 l 0.415617,0.05258 1.139427,-1.1394267 v 0 L 15.775981,8.775981 8.2661642,1.2661642 Z M 8,6 C 9.3807119,6 10.5,7.1192881 10.5,8.5 10.5,9.8807119 9.3807119,11 8,11 6.6192881,11 5.5,9.8807119 5.5,8.5 5.5,7.1192881 6.6192881,6 8,6 Z m 0,6 c 0.5522847,0 1,0.447715 1,1 0,0.552285 -0.4477153,1 -1,1 -0.5522847,0 -1,-0.447715 -1,-1 0,-0.552285 0.4477153,-1 1,-1 z"
     id="path271122"
     sodipodi:nodetypes="cccccccccccccccccccccccccssssssssss" />
</svg>
