<?xml version="1.0" encoding="UTF-8" standalone="no"?>
<svg
   width="16"
   height="16"
   viewBox="0 0 16 16"
   version="1.1"
   id="svg7"
   sodipodi:docname="stock_undo.svg"
   inkscape:version="1.2 (dc2aedaf03, 2022-05-15)"
   xmlns:inkscape="http://www.inkscape.org/namespaces/inkscape"
   xmlns:sodipodi="http://sodipodi.sourceforge.net/DTD/sodipodi-0.dtd"
   xmlns="http://www.w3.org/2000/svg"
   xmlns:svg="http://www.w3.org/2000/svg">
  <sodipodi:namedview
     id="namedview9"
     pagecolor="#000000"
     bordercolor="#666666"
     borderopacity="1.0"
     inkscape:pageshadow="2"
     inkscape:pageopacity="0"
     inkscape:pagecheckerboard="0"
     showgrid="false"
     inkscape:zoom="103.375"
     inkscape:cx="8.0096735"
     inkscape:cy="4.8609432"
     inkscape:window-width="1574"
     inkscape:window-height="1080"
     inkscape:window-x="172"
     inkscape:window-y="-1"
     inkscape:window-maximized="1"
     inkscape:current-layer="svg7"
     inkscape:showpageshadow="0"
     inkscape:deskcolor="#000000" />
  <defs
     id="defs3">
    <style
       id="current-color-scheme"
       type="text/css">
   .ColorScheme-Text { color:#eeeeec; } .ColorScheme-Highlight { color:#367bf0; } .ColorScheme-NeutralText { color:#ffcc44; } .ColorScheme-PositiveText { color:#3db47e; } .ColorScheme-NegativeText { color:#dd4747; }
  </style>
  </defs>
  <path
     style="fill:currentColor"
     class="ColorScheme-Text"
     d="M 6.8917899,2.1675949 6.5378444,2.148727 6.2359919,2.2938055 2.6043949,4.5516857 2.405566,4.6907527 2.3404691,4.9088576 2.3258672,5.2105521 2.490075,5.3556567 2.6437836,5.4674412 6.3724573,7.7699082 6.7165757,7.7768333 7.0725951,7.5617738 7.0895172,7.2090682 7,6.2181466 7.2578349,6 V 6 H 10 c 1.6793,0 3,1.3207 3,3 0,1.6793 -1.3207,3 -3,3 H 5 v 2 h 5 c 2.7527,0 5,-2.2473 5,-5 C 15,6.2473 12.7527,4 10,4 H 7.2637711 V 4 L 6.9868642,3.7152928 7.0493304,2.7038161 7.0824705,2.4848482 7.0500647,2.3634829 Z"
     id="path5"
     sodipodi:nodetypes="ccccccccccccccccsssccsssccccccc" />
</svg>
