<?xml version="1.0" encoding="UTF-8" standalone="no"?>
<svg
   width="24"
   height="24"
   version="1.1"
   id="svg4"
   sodipodi:docname="up.svg"
   inkscape:version="1.1.2 (0a00cf5339, 2022-02-04)"
   xmlns:inkscape="http://www.inkscape.org/namespaces/inkscape"
   xmlns:sodipodi="http://sodipodi.sourceforge.net/DTD/sodipodi-0.dtd"
   xmlns="http://www.w3.org/2000/svg"
   xmlns:svg="http://www.w3.org/2000/svg">
  <defs
     id="defs8" />
  <sodipodi:namedview
     id="namedview6"
     pagecolor="#000000"
     bordercolor="#666666"
     borderopacity="1.0"
     inkscape:pageshadow="2"
     inkscape:pageopacity="0"
     inkscape:pagecheckerboard="0"
     showgrid="false"
     inkscape:zoom="137.83333"
     inkscape:cx="12"
     inkscape:cy="11.996372"
     inkscape:window-width="1920"
     inkscape:window-height="1051"
     inkscape:window-x="0"
     inkscape:window-y="29"
     inkscape:window-maximized="1"
     inkscape:current-layer="svg4" />
  <path
     style="fill:#eeeeec"
     d="m 3.9834924,12.187501 c -0.00983,-0.245788 0.1004482,-0.475448 0.28125,-0.65625 L 11.233493,4.4062505 c 0.146901,-0.146902 0.31694,-0.238672 0.5,-0.28125 0.09403,-0.02187 0.187359,-0.03729 0.28125,-0.03125 0.03029,-0.0017 0.06324,-0.0012 0.09375,0 0.05498,0.0095 0.104001,0.01176 0.15625,0.03125 0.188768,0.04065 0.380039,0.130039 0.53125,0.28125 l 6.96875,7.1250005 c 0.361604,0.361604 0.329237,0.952013 -0.0625,1.34375 l -1.40625,1.406249 c -0.391737,0.391737 -1.013396,0.424104 -1.375,0.0625 l -2.692253,-2.692252 -0.213997,0.06901 v 0 V 18 c 0,0.554 -0.446,1 -1,1 h -2 c -0.554001,0 -1.000001,-0.446 -1.000001,-1 v -6.324289 0 L 9.8317627,11.58923 7.0772424,14.34375 c -0.3616035,0.361604 -0.9520128,0.329237 -1.34375,-0.0625 l -1.4375,-1.406249 c -0.1958686,-0.195869 -0.3026685,-0.441712 -0.3125,-0.6875 z"
     id="path2"
     sodipodi:nodetypes="sccscccccssscccssssccccccs" />
</svg>
