<?xml version="1.0" encoding="UTF-8" standalone="no"?>
<svg
   width="16"
   height="16"
   version="1.1"
   id="svg7"
   sodipodi:docname="upcomingevents-amarok.svg"
   inkscape:version="1.1.2 (0a00cf5339, 2022-02-04)"
   xmlns:inkscape="http://www.inkscape.org/namespaces/inkscape"
   xmlns:sodipodi="http://sodipodi.sourceforge.net/DTD/sodipodi-0.dtd"
   xmlns="http://www.w3.org/2000/svg"
   xmlns:svg="http://www.w3.org/2000/svg">
  <sodipodi:namedview
     id="namedview9"
     pagecolor="#000000"
     bordercolor="#666666"
     borderopacity="1.0"
     inkscape:pageshadow="2"
     inkscape:pageopacity="0"
     inkscape:pagecheckerboard="0"
     showgrid="false"
     inkscape:zoom="47.25"
     inkscape:cx="8"
     inkscape:cy="8"
     inkscape:window-width="1912"
     inkscape:window-height="966"
     inkscape:window-x="0"
     inkscape:window-y="29"
     inkscape:window-maximized="1"
     inkscape:current-layer="svg7" />
  <defs
     id="defs3">
    <style
       id="current-color-scheme"
       type="text/css">
   .ColorScheme-Text { color:#eeeeec; } .ColorScheme-Highlight { color:#367bf0; } .ColorScheme-NeutralText { color:#ffcc44; } .ColorScheme-PositiveText { color:#3db47e; } .ColorScheme-NegativeText { color:#dd4747; }
  </style>
  </defs>
  <path
     style="fill:currentColor"
     class="ColorScheme-Text"
     d="m 8,10 c -0.5522847,0 -1,0.447715 -1,1 0,0.552285 0.4477153,1 1,1 0.5522847,0 1,-0.447715 1,-1 C 9,10.447715 8.5522847,10 8,10 Z M 7,5.3804802 v 0 3.2803323 L 7.306142,9 V 9 H 8.5972235 V 9 L 9,8.6608125 v -3.2803323 0 L 8.6818137,5 H 7.284531 Z M 3,1 C 1,1 1,3 1,3 v 11.628968 0 L 1.3379023,15 H 14.586457 v 0 L 15,14.54414 V 3 C 15,3 15,1 13,1 Z M 3,3.3487878 3.3063216,3 H 12.702626 L 13,3.3063739 v 0 9.2272811 L 12.702626,13 v 0 H 3.3693021 v 0 L 3,12.597276 Z"
     id="path5"
     sodipodi:nodetypes="ssssscccccccccccccsccccccccsscccccccccccc" />
</svg>
