<?xml version="1.0" encoding="UTF-8" standalone="no"?>
<svg
   viewBox="0 0 22 22"
   version="1.1"
   id="svg6"
   sodipodi:docname="view-bank-account-savings.svg"
   inkscape:version="1.1.2 (0a00cf5339, 2022-02-04)"
   xmlns:inkscape="http://www.inkscape.org/namespaces/inkscape"
   xmlns:sodipodi="http://sodipodi.sourceforge.net/DTD/sodipodi-0.dtd"
   xmlns="http://www.w3.org/2000/svg"
   xmlns:svg="http://www.w3.org/2000/svg">
  <sodipodi:namedview
     id="namedview8"
     pagecolor="#000000"
     bordercolor="#666666"
     borderopacity="1.0"
     inkscape:pageshadow="2"
     inkscape:pageopacity="0"
     inkscape:pagecheckerboard="0"
     showgrid="false"
     inkscape:zoom="256"
     inkscape:cx="11"
     inkscape:cy="14.779297"
     inkscape:window-width="1920"
     inkscape:window-height="1051"
     inkscape:window-x="0"
     inkscape:window-y="29"
     inkscape:window-maximized="1"
     inkscape:current-layer="svg6" />
  <defs
     id="defs3051">
    <style
       type="text/css"
       id="current-color-scheme">
     .ColorScheme-Text {
       color:#f2f2f2;
     }
     </style>
  </defs>
  <path
     style="fill:currentColor;fill-opacity:1;stroke:none"
     d="M 3.88867,3 C 3.39623,3 3,3.35758 3,3.80078 V 18.19922 C 3,18.64242 3.39623,19 3.88867,19 H 18.11133 C 18.60377,19 19,18.64242 19,18.19922 V 3.80078 C 19,3.35758 18.60377,3 18.11133,3 Z m 7.11328,2 c 3.31059,0 6.0011,2.68441 5.9961,6 0,1.33219 -0.43334,2.56051 -1.16407,3.55469 -0.87978,1.198 -2.19764,2.05652 -3.71875,2.33984 C 11.75731,16.96453 11.38482,17 11.00195,17 10.2215,17 9.47597,16.85035 8.79492,16.58203 7.32855,16.00041 6.14106,14.85757 5.50977,13.41602 5.182,12.67538 5.00195,11.85994 5.00195,11 c 0,-3.31559 2.68441,-6 6,-6 z M 10.4043,7 v 0.7221429 l -0.03472,0.071107 c -0.01161,0.00198 0.01153,-0.00211 0,0 C 9.9474085,7.8705838 9.5785878,8.0365225 9.30469,8.32617 h -0.002 C 8.98754,8.65464 8.82027,9.05534 8.82027,9.49219 c 0,0.41732 0.14903,0.8012 0.43359,1.11914 0.2564023,0.286492 0.6363148,0.513935 1.096374,0.709727 0.01788,0.0076 0.03589,0.07749 0.05402,0.085 v 0 1.491837 0 c -0.02091,-0.0094 -0.042,0.07213 -0.06311,0.06344 -0.106087,-0.04365 -0.21308,-0.0836 -0.304076,-0.17423 -0.17241,-0.17763 -0.2884,-0.3821 -0.34961,-0.62695 l -0.035101,-0.141795 -0.096071,-0.03956 v 0 l -0.946923,0.380501 -0.021465,0.08779 v 0 l 0.0215,0.08807 c 0.11767,0.48922 0.36826,0.89508 0.74024,1.1914 0.3097433,0.242642 0.65987,0.370698 1.023176,0.452055 0.01049,0.0023 0.021,0.06624 0.03151,0.06851 v 0 V 15 h 0.1914 0.84766 v -0.763677 l 0.03906,-0.05379 c 0.01306,-0.0029 -0.01298,0.003 0,0 0.392434,-0.09187 0.744,-0.25455 1.027351,-0.516509 0.3445,-0.3185 0.51757,-0.76431 0.51757,-1.28711 0,-0.46635 -0.1626,-0.86797 -0.48242,-1.15625 -0.262759,-0.24605 -0.635194,-0.455173 -1.065051,-0.6478 -0.01212,-0.0054 0.01221,0.0054 0,0 l -0.03651,-0.06938 v -1.4051159 0 c 0.02241,0.014315 0.0486,-0.032045 0.07432,-0.020514 0.03213,0.014408 0.06352,0.029591 0.08584,0.05292 l 0.004,0.004 0.002,0.002 c 0.11295,0.10805 0.17757,0.21315 0.20703,0.31836 l 0.04529,0.163309 0.06914,0.023805 v 0 L 12.87937,9.24028 v 0 L 12.924407,9.1530438 12.890737,9.04698 C 12.79853,8.75726 12.61156,8.49227 12.34777,8.25205 12.128545,8.0434492 11.825658,7.9303786 11.499461,7.8495568 c -0.01859,-0.00461 0.01873,0.00441 0,0 L 11.44347,7.7782104 V 7.0001 h -1.03906 z m 0,2.0537359 v 0 0.9300485 0 C 10.38645,9.9714494 10.36711,10.014485 10.34719,10.002295 10.271672,9.9560821 10.187919,9.9105827 10.14648,9.86328 10.03938,9.74105 9.99609,9.62653 9.99609,9.49219 c 0,-0.16247 0.0472,-0.27416 0.15625,-0.37891 v -0.002 l 0.002,-0.002 c 0.04739,-0.047394 0.125027,-0.069493 0.197204,-0.095948 0.01813,-0.00665 -0.01688,0.00767 0,0 z m 1.039084,2.8451341 c 0.01771,0.01189 0.03692,-0.02147 0.05677,-0.0094 0.07836,0.0475 0.166417,0.0956 0.208822,0.139858 v 0.002 h 0.002 c 0.0978,0.0978 0.14258,0.20612 0.14258,0.36523 0,0.19593 -0.0541,0.33376 -0.16406,0.45313 -0.04587,0.04751 -0.120264,0.07279 -0.189707,0.101493 -0.01943,0.008 0.01792,-0.0091 0,0 l -0.05639,-0.02416 v -0.999139 0 z"
     class="ColorScheme-Text"
     id="path4"
     sodipodi:nodetypes="sssssssssscccsccsscccsccscsccccsccccccccccscccccccscscsccccsccccccccccccscccccccccscsccsscccscccscsccccc" />
</svg>
