<?xml version="1.0" encoding="UTF-8" standalone="no"?>
<svg
   width="16"
   height="16"
   version="1.1"
   id="svg423260"
   sodipodi:docname="view-sort.svg"
   inkscape:version="1.1.2 (0a00cf5339, 2022-02-04)"
   xmlns:inkscape="http://www.inkscape.org/namespaces/inkscape"
   xmlns:sodipodi="http://sodipodi.sourceforge.net/DTD/sodipodi-0.dtd"
   xmlns="http://www.w3.org/2000/svg"
   xmlns:svg="http://www.w3.org/2000/svg">
  <sodipodi:namedview
     id="namedview423262"
     pagecolor="#000000"
     bordercolor="#666666"
     borderopacity="1.0"
     inkscape:pageshadow="2"
     inkscape:pageopacity="0"
     inkscape:pagecheckerboard="0"
     showgrid="false"
     inkscape:zoom="51.6875"
     inkscape:cx="7.9903265"
     inkscape:cy="8"
     inkscape:window-width="1920"
     inkscape:window-height="1051"
     inkscape:window-x="0"
     inkscape:window-y="29"
     inkscape:window-maximized="1"
     inkscape:current-layer="svg423260" />
  <defs
     id="defs423256">
    <style
       id="current-color-scheme"
       type="text/css">
   .ColorScheme-Text { color:#eeeeec; } .ColorScheme-Highlight { color:#367bf0; } .ColorScheme-NeutralText { color:#ffcc44; } .ColorScheme-PositiveText { color:#3db47e; } .ColorScheme-NegativeText { color:#dd4747; }
  </style>
  </defs>
  <path
     style="fill:currentColor"
     class="ColorScheme-Text"
     d="m 10.814096,1.2478716 v 0 L 8.1930859,4.7425521 8.2628972,5 V 5 H 9.862986 L 10,5.1627848 v 0 V 8 h 2 V 5.1665801 L 12.1358,5 v 0 h 1.649378 V 5 L 13.760052,4.6800695 11.206087,1.2747825 Z M 2.5,2 C 1.6715729,2 1,2.6715729 1,3.5 1,4.3284271 1.6715729,5 2.5,5 3.3284271,5 4,4.3284271 4,3.5 4,2.6715729 3.3284271,2 2.5,2 Z m 0,4 C 1.6715729,6 1,6.6715729 1,7.5 1,8.3284271 1.6715729,9 2.5,9 3.3284271,9 4,8.3284271 4,7.5 4,6.6715729 3.3284271,6 2.5,6 Z M 7,7 V 9.8673268 L 6.8717125,10 v 0 H 5.3493177 l -0.1693074,0.240014 v 0 l 2.6645553,3.55274 0.2959268,0.01992 v 0 L 10.778395,10.295473 10.673063,10 v 0 H 9.1589329 v 0 L 9,9.8785343 V 7 Z M 2.5,10 C 1.6715729,10 1,10.671573 1,11.5 1,12.328427 1.6715729,13 2.5,13 3.3284271,13 4,12.328427 4,11.5 4,10.671573 3.3284271,10 2.5,10 Z"
     id="path423258"
     sodipodi:nodetypes="ccccccccccccccccccssssssssssccccccccccccccccccsssss" />
</svg>
