<?xml version="1.0" encoding="UTF-8" standalone="no"?>
<svg
   width="16"
   height="16"
   version="1.1"
   id="svg7"
   sodipodi:docname="view-media-track.svg"
   inkscape:version="1.1.2 (0a00cf5339, 2022-02-04)"
   xmlns:inkscape="http://www.inkscape.org/namespaces/inkscape"
   xmlns:sodipodi="http://sodipodi.sourceforge.net/DTD/sodipodi-0.dtd"
   xmlns="http://www.w3.org/2000/svg"
   xmlns:svg="http://www.w3.org/2000/svg">
  <sodipodi:namedview
     id="namedview9"
     pagecolor="#000000"
     bordercolor="#666666"
     borderopacity="1.0"
     inkscape:pageshadow="2"
     inkscape:pageopacity="0"
     inkscape:pagecheckerboard="0"
     showgrid="false"
     inkscape:zoom="51.6875"
     inkscape:cx="8"
     inkscape:cy="7.980653"
     inkscape:window-width="1872"
     inkscape:window-height="928"
     inkscape:window-x="0"
     inkscape:window-y="35"
     inkscape:window-maximized="1"
     inkscape:current-layer="svg7" />
  <defs
     id="defs3">
    <style
       id="current-color-scheme"
       type="text/css">
   .ColorScheme-Text { color:#eeeeec; } .ColorScheme-Highlight { color:#367bf0; } .ColorScheme-NeutralText { color:#ffcc44; } .ColorScheme-PositiveText { color:#3db47e; } .ColorScheme-NegativeText { color:#dd4747; }
  </style>
  </defs>
  <path
     style="fill:currentColor"
     class="ColorScheme-Text"
     d="M 5.3308811,1 5,1.3740819 v 7.58804 l -0.2373683,0.139573 c -0.078169,-0.028009 0.080006,0.021382 0,0 C 4.5141719,9.0352933 4.2578656,9.0010265 4,9 2.3431458,9 1,10.343146 1,12 c 0,1.656854 1.3431458,3 3,3 1.6568542,0 3,-1.343146 3,-3 v -6.6326637 0 L 7.3389227,5 H 12.727443 L 13,5.2461628 v 0 3.6965341 L 12.811813,9.115288 c -0.06212,-0.022258 0.0633,0.018078 0,0 C 12.54806,9.0399702 12.274917,9.0010944 12,9 c -1.656854,0 -3,1.343146 -3,3 0,1.656854 1.343146,3 3,3 1.656854,0 3,-1.343146 3,-3 V 1.3814209 L 14.625052,1 v 0 z"
     id="path5"
     sodipodi:nodetypes="ccccscsssccccccccscssscccc" />
</svg>
