<?xml version="1.0" encoding="UTF-8" standalone="no"?>
<svg
   width="16"
   height="16"
   version="1.1"
   id="svg25191"
   sodipodi:docname="view-institution-delete.svg"
   inkscape:version="1.1.2 (0a00cf5339, 2022-02-04)"
   xmlns:inkscape="http://www.inkscape.org/namespaces/inkscape"
   xmlns:sodipodi="http://sodipodi.sourceforge.net/DTD/sodipodi-0.dtd"
   xmlns="http://www.w3.org/2000/svg"
   xmlns:svg="http://www.w3.org/2000/svg">
  <sodipodi:namedview
     id="namedview25193"
     pagecolor="#686868"
     bordercolor="#666666"
     borderopacity="1.0"
     inkscape:pageshadow="2"
     inkscape:pageopacity="0"
     inkscape:pagecheckerboard="0"
     showgrid="false"
     inkscape:zoom="51.6875"
     inkscape:cx="7.9903265"
     inkscape:cy="8"
     inkscape:window-width="1920"
     inkscape:window-height="1051"
     inkscape:window-x="0"
     inkscape:window-y="29"
     inkscape:window-maximized="1"
     inkscape:current-layer="svg25191" />
  <defs
     id="defs25187">
    <style
       id="current-color-scheme"
       type="text/css">
   .ColorScheme-Text { color:#eeeeec; } .ColorScheme-Highlight { color:#367bf0; } .ColorScheme-NeutralText { color:#ffcc44; } .ColorScheme-PositiveText { color:#3db47e; } .ColorScheme-NegativeText { color:#dd4747; }
  </style>
  </defs>
  <path
     style="fill:currentColor"
     class="ColorScheme-Text"
     d="M 8,1 0.7738234,4.6130883 0.82576684,5 V 5 H 2 v 2 h 1 v 6 H 2 v 2 h 1 7 V 13 H 9 V 7 h 2 v 3 h 2 V 7 h 1 V 5 h 1.312186 v 0 l 0.03936,-0.3242278 z M 5,7 h 2 v 6 H 5 Z m 6,4 v 0.707031 L 12.792969,13.5 11,15.292969 V 16 h 0.707031 L 13.5,14.207031 15.292969,16 H 16 V 15.292969 L 14.207031,13.5 16,11.707031 V 11 H 15.292969 L 13.5,12.792969 11.707031,11 Z"
     id="path25189"
     sodipodi:nodetypes="ccccccccccccccccccccccccccccccccccccccccccccccc" />
</svg>
