<?xml version="1.0" encoding="UTF-8" standalone="no"?>
<svg
   width="16"
   height="16"
   version="1.1"
   id="svg7"
   sodipodi:docname="view-financial-account-liability.svg"
   inkscape:version="1.1.2 (0a00cf5339, 2022-02-04)"
   xmlns:inkscape="http://www.inkscape.org/namespaces/inkscape"
   xmlns:sodipodi="http://sodipodi.sourceforge.net/DTD/sodipodi-0.dtd"
   xmlns="http://www.w3.org/2000/svg"
   xmlns:svg="http://www.w3.org/2000/svg">
  <sodipodi:namedview
     id="namedview9"
     pagecolor="#000000"
     bordercolor="#666666"
     borderopacity="1.0"
     inkscape:pageshadow="2"
     inkscape:pageopacity="0"
     inkscape:pagecheckerboard="0"
     showgrid="false"
     inkscape:zoom="51.6875"
     inkscape:cx="14.781137"
     inkscape:cy="14.191052"
     inkscape:window-width="1920"
     inkscape:window-height="1051"
     inkscape:window-x="0"
     inkscape:window-y="29"
     inkscape:window-maximized="1"
     inkscape:current-layer="svg7" />
  <defs
     id="defs3">
    <style
       id="current-color-scheme"
       type="text/css">
   .ColorScheme-Text { color:#eeeeec; } .ColorScheme-Highlight { color:#367bf0; } .ColorScheme-NeutralText { color:#ffcc44; } .ColorScheme-PositiveText { color:#3db47e; } .ColorScheme-NegativeText { color:#dd4747; }
  </style>
  </defs>
  <path
     style="fill:currentColor"
     class="ColorScheme-Text"
     d="M 11,1 C 9.338,1 8,2.338 8,4 8,5.662 9.338,7 11,7 12.662,7 14,5.662 14,4 14,2.338 12.662,1 11,1 Z M 0,6 V 7 H 3.6713873 V 7 L 4,7.3210682 V 7.6407147 L 4.1979972,8 V 8 H 4.7336777 L 5,8.3494488 v 0 0.4071557 L 5.2647659,9 V 9 H 5.6785391 L 6,9.4428859 v 0 3.1468801 L 5.5687189,13 v 0 H 5.2545911 L 5,13.202471 v 0 0.572588 L 4.6808766,14 v 0 H 4.3099216 L 4,14.296124 v 0 0.433662 L 3.738789,15 v 0 H 0 v 1 H 7 V 6 Z M 0,8 V 9.2773438 C 0.59563287,9.6237092 1,10.261342 1,11 1,11.738658 0.59563287,12.376291 0,12.722656 V 14 h 2.7044393 v 0 L 3,13.576696 v -0.394382 0 L 3.1504845,13 H 3.708907 v 0 L 4,12.637278 V 12.194463 L 4.2584626,12 v 0 h 0.5636773 v 0 L 5,11.719523 V 10.31496 L 4.6633599,10 v 0 h -0.417422 v 0 L 4,9.7767492 V 9.2647972 L 3.7134799,9 V 9 H 3.3084863 V 9 L 3,8.6987216 v -0.459736 0 L 2.5886842,8 Z M 11,8 C 10.353654,8 9.562365,8.2005634 9,8.4277344 V 14 h 7 V 13 C 16,10.22998 13.77002,8 11,8 Z"
     id="path5"
     sodipodi:nodetypes="ssssscccccccccccccccccccccccccccccccccccccccscccccccccccccccccccccccccccccccccscccss" />
</svg>
