<?xml version="1.0" encoding="UTF-8" standalone="no"?>
<svg
   width="16"
   height="16"
   version="1.1"
   id="svg7"
   sodipodi:docname="view-time-schedule-baselined-remove.svg"
   inkscape:version="1.1.2 (0a00cf5339, 2022-02-04)"
   xmlns:inkscape="http://www.inkscape.org/namespaces/inkscape"
   xmlns:sodipodi="http://sodipodi.sourceforge.net/DTD/sodipodi-0.dtd"
   xmlns="http://www.w3.org/2000/svg"
   xmlns:svg="http://www.w3.org/2000/svg">
  <sodipodi:namedview
     id="namedview9"
     pagecolor="#000000"
     bordercolor="#666666"
     borderopacity="1.0"
     inkscape:pageshadow="2"
     inkscape:pageopacity="0"
     inkscape:pagecheckerboard="0"
     showgrid="false"
     inkscape:zoom="51.6875"
     inkscape:cx="7.9903265"
     inkscape:cy="14.191052"
     inkscape:window-width="1920"
     inkscape:window-height="1051"
     inkscape:window-x="0"
     inkscape:window-y="29"
     inkscape:window-maximized="1"
     inkscape:current-layer="svg7" />
  <defs
     id="defs3">
    <style
       id="current-color-scheme"
       type="text/css">
   .ColorScheme-Text { color:#eeeeec; } .ColorScheme-Highlight { color:#367bf0; } .ColorScheme-NeutralText { color:#ffcc44; } .ColorScheme-PositiveText { color:#3db47e; } .ColorScheme-NegativeText { color:#dd4747; }
  </style>
  </defs>
  <path
     style="fill:currentColor"
     class="ColorScheme-Text"
     d="M 10.360858,10 10,10.430656 V 11.414 L 11.586,13 10,14.586 v 0.930269 L 10.543292,16 v 0 H 11.414 L 13,14.414 14.586,16 h 1.023068 v 0 L 16,15.549295 V 14.586 L 14.414,13 16,11.414 v -0.997664 0 L 15.598556,10 H 14.586 L 13,11.586 11.414,10 Z M 4,10 v 2 H 8 V 10 Z M 2,1 C 0,1 0,3 0,3 V 15 H 8 V 13 H 2 V 6 H 6 V 4 H 2 V 3 H 12 V 7 H 6 v 2 h 8 V 3 c 0,0 0,-2 -2,-2 z"
     id="path5"
     sodipodi:nodetypes="ccccccccccccccccccccccccccccccsccccccccccccccccss" />
</svg>
