<?xml version="1.0" encoding="UTF-8" standalone="no"?>
<svg
   width="16"
   height="16"
   version="1.1"
   id="svg9"
   sodipodi:docname="view-calendar-wedding-anniversary.svg"
   inkscape:version="1.1.2 (0a00cf5339, 2022-02-04)"
   xmlns:inkscape="http://www.inkscape.org/namespaces/inkscape"
   xmlns:sodipodi="http://sodipodi.sourceforge.net/DTD/sodipodi-0.dtd"
   xmlns="http://www.w3.org/2000/svg"
   xmlns:svg="http://www.w3.org/2000/svg">
  <sodipodi:namedview
     id="namedview11"
     pagecolor="#000000"
     bordercolor="#666666"
     borderopacity="1.0"
     inkscape:pageshadow="2"
     inkscape:pageopacity="0"
     inkscape:pagecheckerboard="0"
     showgrid="false"
     inkscape:zoom="146.19433"
     inkscape:cx="7.9962061"
     inkscape:cy="10.831473"
     inkscape:window-width="1502"
     inkscape:window-height="1039"
     inkscape:window-x="208"
     inkscape:window-y="19"
     inkscape:window-maximized="1"
     inkscape:current-layer="svg9" />
  <defs
     id="defs3">
    <style
       id="current-color-scheme"
       type="text/css">
   .ColorScheme-Text { color:#eeeeec; } .ColorScheme-Highlight { color:#367bf0; } .ColorScheme-NeutralText { color:#ffcc44; } .ColorScheme-PositiveText { color:#3db47e; } .ColorScheme-NegativeText { color:#dd4747; }
  </style>
  </defs>
  <path
     style="fill:currentColor"
     class="ColorScheme-Text"
     d="M 6,2 C 2.6862915,2 0,4.6862915 0,8 c 0,3.313708 2.6862915,6 6,6 3.3137085,0 6,-2.686292 6,-6 C 12,6.5864477 11.511181,5.2870653 10.693359,4.2616695 9.5940091,2.8832897 7.9001562,2 6,2 Z m 0,2 c 0.6960496,0 1.0978895,0.2825207 1.6679582,0.5951587 0.059683,0.032732 0.3711265,-0.037794 0.4289091,-0.00216 C 9.238848,5.2973435 10,6.5597834 10,8 10,10.209139 8.209139,12 6,12 5.8683596,12 5.6933744,11.60301 5.5649949,11.590583 5.4614017,11.580554 5.3108309,11.98558 5.2097027,11.967801 3.3330043,11.63787 2,9.971274 2,8 2,6.012525 3.2800149,4.3977138 5.1795401,4.0868189 5.2681378,4.0723181 5.3225556,4.2548088 5.4130098,4.2462312 5.5388501,4.2342979 5.8710357,4 6,4 Z"
     id="path5"
     sodipodi:nodetypes="sssssssssssssssss" />
  <path
     style="fill:currentColor"
     class="ColorScheme-Text"
     d="M 10,2 C 6.6862915,2 4,4.6862915 4,8 c 0,3.313708 2.6862915,6 6,6 3.313708,0 6,-2.686292 6,-6 0,-3.3137085 -2.686292,-6 -6,-6 z m 0,2 c 0.130623,0 0.168232,0.3169019 0.295646,0.3291404 0.146334,0.014056 0.381916,-0.2746448 0.523213,-0.2452502 C 12.635247,4.4617598 14,6.0715024 14,8 c 0,1.9559853 -1.403935,3.584064 -3.259083,3.931514 -0.134707,0.02523 -0.01706,-0.575685 -0.156159,-0.564325 C 10.475926,11.376077 10.111124,12 10,12 9.2832158,12 8.7704306,11.737683 8.188601,11.407497 8.1382369,11.378916 7.9285898,11.423055 7.8796186,11.392381 6.7507159,10.685278 6,9.4303088 6,8 6,5.790861 7.790861,4 10,4 Z"
     id="path7"
     sodipodi:nodetypes="ssssssssssssssss" />
</svg>
