<?xml version="1.0" encoding="UTF-8" standalone="no"?>
<svg
   width="16"
   height="16"
   version="1.1"
   id="svg7"
   sodipodi:docname="view-pages-facing.svg"
   inkscape:version="1.1.2 (0a00cf5339, 2022-02-04)"
   xmlns:inkscape="http://www.inkscape.org/namespaces/inkscape"
   xmlns:sodipodi="http://sodipodi.sourceforge.net/DTD/sodipodi-0.dtd"
   xmlns="http://www.w3.org/2000/svg"
   xmlns:svg="http://www.w3.org/2000/svg">
  <sodipodi:namedview
     id="namedview9"
     pagecolor="#000000"
     bordercolor="#666666"
     borderopacity="1.0"
     inkscape:pageshadow="2"
     inkscape:pageopacity="0"
     inkscape:pagecheckerboard="0"
     showgrid="false"
     inkscape:zoom="47.25"
     inkscape:cx="8"
     inkscape:cy="8"
     inkscape:window-width="1912"
     inkscape:window-height="966"
     inkscape:window-x="0"
     inkscape:window-y="29"
     inkscape:window-maximized="1"
     inkscape:current-layer="svg7" />
  <defs
     id="defs3">
    <style
       id="current-color-scheme"
       type="text/css">
   .ColorScheme-Text { color:#eeeeec; } .ColorScheme-Highlight { color:#367bf0; } .ColorScheme-NeutralText { color:#ffcc44; } .ColorScheme-PositiveText { color:#3db47e; } .ColorScheme-NegativeText { color:#dd4747; }
  </style>
  </defs>
  <path
     style="fill:currentColor"
     class="ColorScheme-Text"
     d="M 2.6660156,3 0,5.8574219 V 12.285156 C 0,12.285156 -6.5137253e-4,13 0.66601562,13 H 7.3339844 c 0,0 0.3106292,-2.6e-4 0.5076089,-0.22794 0.091452,-0.105704 0,0.226476 0,0 0,0.222238 0.2228792,-0.11152 0.3117053,-0.006 C 8.3499654,12.999735 8.6660156,13 8.6660156,13 H 15.333984 C 16.000651,13 16,12.285156 16,12.285156 V 5.8574219 L 13.333984,3 H 8.6660156 c 0,0 -0.3234931,2.71e-4 -0.5195741,0.2422279 -0.085268,0.1052175 -0.2571633,-0.1673636 -0.2571633,0.049114 0,-0.1848449 0.06612,0.1016097 0,0 C 7.6998953,3.0003065 7.3339844,3 7.3339844,3 Z m 1.0212713,2 v 0 h 2.074003 L 6,5.3171807 v 0 5.3753253 0 L 5.7396802,11 H 2.269012 v 0 L 2,10.713712 v -3.7883364 0 L 2.1420318,6.5267882 3.2467972,5.2007645 Z m 6.6449611,0 v 0 h 2.053011 V 5 L 12.715058,5.1549794 13.880665,6.5540306 14,6.8832833 v 0 3.7459227 0 L 13.697333,11 h -3.407072 v 0 L 10,10.692506 V 5.3380663 Z"
     id="path5"
     sodipodi:nodetypes="cccscscscsccccscscccccccccccccccccccccccccccccccccc" />
</svg>
