<?xml version="1.0" encoding="UTF-8" standalone="no"?>
<svg
   viewBox="0 0 22 22"
   version="1.1"
   id="svg6"
   sodipodi:docname="view-bank.svg"
   inkscape:version="1.1.2 (0a00cf5339, 2022-02-04)"
   xmlns:inkscape="http://www.inkscape.org/namespaces/inkscape"
   xmlns:sodipodi="http://sodipodi.sourceforge.net/DTD/sodipodi-0.dtd"
   xmlns="http://www.w3.org/2000/svg"
   xmlns:svg="http://www.w3.org/2000/svg">
  <sodipodi:namedview
     id="namedview8"
     pagecolor="#000000"
     bordercolor="#666666"
     borderopacity="1.0"
     inkscape:pageshadow="2"
     inkscape:pageopacity="0"
     inkscape:pagecheckerboard="0"
     showgrid="false"
     inkscape:zoom="99.894903"
     inkscape:cx="11.006568"
     inkscape:cy="8.5890268"
     inkscape:window-width="1910"
     inkscape:window-height="1009"
     inkscape:window-x="0"
     inkscape:window-y="35"
     inkscape:window-maximized="1"
     inkscape:current-layer="svg6" />
  <defs
     id="defs3051">
    <style
       type="text/css"
       id="current-color-scheme">
     .ColorScheme-Text {
       color:#f2f2f2;
     }
     </style>
  </defs>
  <path
     style="fill:currentColor;fill-opacity:1;stroke:none"
     d="m 12.113825,3 c -1.105109,10e-8 -2.000977,0.895868 -2.000977,2.0009771 0,1.1051091 0.895868,2.0009769 2.000977,2.000977 1.105109,-1e-7 2.000977,-0.8958679 2.000977,-2.000977 C 14.114802,3.895868 13.218934,3.0000001 12.113825,3 Z M 6.4912881,5.4829832 c -0.2640376,7.337e-4 -0.505154,0.0163 -0.7112849,0.036476 C 5.4211179,5.5539614 5.2087285,5.9351122 5.3657385,6.259404 L 6.0639961,7.6923954 C 5.2877686,8.3685841 4.7025306,9.1950959 4.3730663,10.118059 H 3.5210878 C 3.2347463,10.116317 3,10.350182 3,10.636541 v 1.909787 c 0,0.19318 0.1080153,0.368862 0.278782,0.458557 l 1.104706,0.575802 c 0.4622993,1.274735 1.4209223,2.370117 2.6836021,3.123922 v 1.690929 C 7.0670901,18.728452 7.3386214,19 7.6715518,19 H 9.219183 c 0.2397511,0 0.4582976,-0.143101 0.5549585,-0.362156 l 0.3882095,-0.89106 c 0.334636,0.04145 0.672902,0.06253 1.021332,0.06253 0.548563,0 1.082211,-0.0528 1.594529,-0.151115 v 0.737338 c 0,0.332912 0.271548,0.60446 0.604462,0.60446 h 1.542419 c 0.222511,0 0.426218,-0.121208 0.531509,-0.317864 0.821112,-1.542129 1.714609,-3.09084 2.373555,-4.705422 C 18.163035,13.159088 18.283,12.29118 18.210551,11.444228 18.093234,10.078038 17.471193,8.7652737 16.431037,7.8096401 15.823852,7.2507504 15.120481,6.813894 14.364925,6.4964989 c -0.09832,0.1483526 -0.211046,0.2892071 -0.338708,0.4168702 -0.08957,0.089574 -0.184835,0.1724715 -0.2854,0.2478097 -0.08924,0.066855 0.112348,0.2338902 0.01502,0.2882214 0.100264,0.033127 -0.09646,-0.037673 0,0 0.114297,0.044638 0.226042,0.092561 0.335511,0.1439886 0.205069,0.096609 0.285868,0.3478889 0.171959,0.5445366 C 14.163255,8.3125447 13.944107,8.3804606 13.763068,8.2942518 12.386534,7.6439257 10.849861,7.7677649 10.175378,7.8695652 9.9770072,7.8988941 9.7868526,7.7726796 9.7402699,7.5777561 v -0.00261 c -0.053508,-0.2207845 0.096235,-0.4397048 0.3204681,-0.4741882 0.06215,-0.00959 0.130619,-0.019084 0.204634,-0.028031 0.07184,-0.00868 -0.08158,0.00723 0,0 -0.05007,-0.043287 0.131167,-0.1129703 0.08457,-0.15956 C 10.111896,6.6753202 9.9261285,6.3979407 9.7949849,6.0874424 9.7812295,6.0546103 9.7661034,6.0186626 9.7532999,5.9858303 9.5480319,6.0203139 9.3446045,6.0634221 9.1462319,6.1134968 8.2794284,5.6088473 7.2833815,5.4837478 6.4912881,5.4855886 v -0.00261 z m 0.6748086,3.983716 c 0.4295216,0 0.776421,0.3468993 0.776421,0.7764208 -1.91e-5,0.42952 -0.3468994,0.776421 -0.776421,0.776421 -0.4295216,0 -0.7764208,-0.346918 -0.7764208,-0.776421 0,-0.4295215 0.3468992,-0.7764208 0.7764208,-0.7764208 z m 4.4579053,0.6982578 h 0.458557 v 0.53151 c 0.281682,0.04426 0.508298,0.146396 0.677415,0.30744 0.172967,0.156937 0.287609,0.323241 0.343917,0.500245 l -0.495032,0.21104 c -0.02806,-0.100568 -0.08975,-0.195402 -0.182381,-0.283992 -0.08854,-0.09246 -0.20305,-0.156664 -0.343919,-0.192802 v 1.357434 c 0.350099,0.144866 0.622338,0.308782 0.815504,0.489822 0.197205,0.177058 0.294414,0.413497 0.294414,0.711284 0,0.338012 -0.104598,0.607902 -0.317864,0.805081 -0.213285,0.197144 -0.478181,0.319131 -0.792054,0.367368 v 0.531509 H 11.624002 V 14.979807 C 11.338285,14.939569 11.073388,14.825036 10.831949,14.63589 10.594526,14.446763 10.43946,14.195615 10.36297,13.877707 l 0.495034,-0.200618 c 0.04829,0.193143 0.139342,0.359375 0.276176,0.500245 0.14085,0.140852 0.304711,0.229442 0.489822,0.265753 v -1.448623 c -0.01191,0 -0.02393,-0.003 -0.03126,-0.01042 -0.72032,-0.281682 -1.078652,-0.685782 -1.078652,-1.208923 0,-0.27363 0.101035,-0.515063 0.302232,-0.724311 0.201214,-0.213302 0.469672,-0.335272 0.807685,-0.367368 V 10.16496 Z m 0,1.055203 c -0.169007,0.02808 -0.303327,0.09229 -0.403843,0.192802 -0.100704,0.09657 -0.151115,0.217251 -0.151115,0.362156 0,0.253527 0.184756,0.466611 0.554958,0.635727 z m 0.458557,1.961895 v 1.250611 c 0.169023,-0.03624 0.303328,-0.106496 0.403844,-0.21104 0.100703,-0.108643 0.151115,-0.246579 0.151115,-0.41166 0,-0.140851 -0.04546,-0.256498 -0.138089,-0.349129 -0.09256,-0.09665 -0.23176,-0.190192 -0.41687,-0.278782 z"
     class="ColorScheme-Text"
     id="path4"
     sodipodi:nodetypes="sssssccccccsscccsssccscssscccccsscscccccccsccccccccscsssccccccccccsccccccccccccsccccccscccccscc" />
</svg>
