<?xml version="1.0" encoding="UTF-8" standalone="no"?>
<svg
   width="16"
   height="16"
   version="1.1"
   id="svg315103"
   sodipodi:docname="view-media-genre.svg"
   inkscape:version="1.1.2 (0a00cf5339, 2022-02-04)"
   xmlns:inkscape="http://www.inkscape.org/namespaces/inkscape"
   xmlns:sodipodi="http://sodipodi.sourceforge.net/DTD/sodipodi-0.dtd"
   xmlns="http://www.w3.org/2000/svg"
   xmlns:svg="http://www.w3.org/2000/svg">
  <sodipodi:namedview
     id="namedview315105"
     pagecolor="#000000"
     bordercolor="#666666"
     borderopacity="1.0"
     inkscape:pageshadow="2"
     inkscape:pageopacity="0"
     inkscape:pagecheckerboard="0"
     showgrid="false"
     inkscape:zoom="51.6875"
     inkscape:cx="7.9903265"
     inkscape:cy="8"
     inkscape:window-width="1920"
     inkscape:window-height="1051"
     inkscape:window-x="0"
     inkscape:window-y="29"
     inkscape:window-maximized="1"
     inkscape:current-layer="svg315103" />
  <defs
     id="defs315099">
    <style
       id="current-color-scheme"
       type="text/css">
   .ColorScheme-Text { color:#eeeeec; } .ColorScheme-Highlight { color:#367bf0; } .ColorScheme-NeutralText { color:#ffcc44; } .ColorScheme-PositiveText { color:#3db47e; } .ColorScheme-NegativeText { color:#dd4747; }
  </style>
  </defs>
  <path
     style="fill:currentColor"
     class="ColorScheme-Text"
     d="M 8,0 C 3.581722,0 0,3.581722 0,8 c 0,4.418278 3.581722,8 8,8 4.418278,0 8,-3.581722 8,-8 C 16,3.581722 12.418278,0 8,0 Z m 0,2 c 2.599573,9.037e-4 4.902866,1.6757394 5.705078,4.1484375 -0.356481,0.5375769 -0.320275,0.095278 -0.399667,-0.05857 L 9.7734375,5.5722656 8.2299094,2.4631104 7.764395,2.4745833 Z M 8,2 7.764395,2.4745833 6.2265625,5.5722656 2.6335166,6.0985559 2.2929688,6.1484375 C 3.0954029,3.6750548 5.3997072,2.0000574 8,2 Z M 2.2929688,6.1484375 C 2.556946,5.983985 2.6585948,6.0866318 2.5891935,6.4707289 l 2.543619,2.4999742 -0.6001157,3.4359229 -0.075666,0.433218 C 2.9134101,11.71041 2.0007667,9.9126909 2,8 2.0007913,7.3800994 2.1035031,6.7386749 2.2929688,6.1484375 Z m 11.4121092,0 C 13.894544,6.7386749 13.999209,7.3800994 14,8 c -7.67e-4,1.9126909 -0.91341,3.71041 -2.457031,4.839844 -0.602992,-0.130515 -0.07603,-0.26103 -0.06839,-0.391546 L 10.867188,8.9707031 13.379787,6.4811467 Z M 8,11.070312 l 3.249236,1.630898 0.287873,0.144493 C 10.510173,13.595553 9.271563,13.99976 8,14 6.7284368,13.99976 5.4839674,13.589694 4.4570312,12.839844 4.5326968,12.406626 4.7290754,12.630509 4.9298329,12.611329 Z"
     id="path315101"
     sodipodi:nodetypes="ssssscccccccccccccccccccccccccccccccccc" />
</svg>
