<?xml version="1.0" encoding="UTF-8" standalone="no"?>
<svg
   width="16"
   height="16"
   version="1.1"
   id="svg7"
   sodipodi:docname="view-financial-account-delete.svg"
   inkscape:version="1.1.2 (0a00cf5339, 2022-02-04)"
   xmlns:inkscape="http://www.inkscape.org/namespaces/inkscape"
   xmlns:sodipodi="http://sodipodi.sourceforge.net/DTD/sodipodi-0.dtd"
   xmlns="http://www.w3.org/2000/svg"
   xmlns:svg="http://www.w3.org/2000/svg">
  <sodipodi:namedview
     id="namedview9"
     pagecolor="#000000"
     bordercolor="#666666"
     borderopacity="1.0"
     inkscape:pageshadow="2"
     inkscape:pageopacity="0"
     inkscape:pagecheckerboard="0"
     showgrid="false"
     inkscape:zoom="94.25"
     inkscape:cx="8"
     inkscape:cy="12.228117"
     inkscape:window-width="1920"
     inkscape:window-height="1051"
     inkscape:window-x="0"
     inkscape:window-y="29"
     inkscape:window-maximized="1"
     inkscape:current-layer="svg7" />
  <defs
     id="defs3">
    <style
       id="current-color-scheme"
       type="text/css">
   .ColorScheme-Text { color:#eeeeec; } .ColorScheme-Highlight { color:#367bf0; } .ColorScheme-NeutralText { color:#ffcc44; } .ColorScheme-PositiveText { color:#3db47e; } .ColorScheme-NegativeText { color:#dd4747; }
  </style>
  </defs>
  <path
     style="fill:currentColor"
     class="ColorScheme-Text"
     d="M 3,0 C 2.446,0 2,0.446 2,1 v 6 h 11 c 1.090703,0 2,0.9092972 2,2 v 1 h 1 V 1 C 16,0.446 15.554,0 15,0 Z m 1,2 h 7 V 3 H 4 Z m 8,0 h 2 V 3 H 12 Z M 4,4 H 8 V 5 H 4 Z M 1,8 C 0.446,8 0,8.446 0,9 v 6 c 0,0.554 0.446,1 1,1 h 9 v -3 -2 -1 h 4 V 9 C 14,8.446 13.554,8 13,8 Z M 11.251193,11 11,11.272658 v 0.434373 l 1.669566,1.669566 0.0024,0.244418 v 0 L 11,15.292969 v 0.393418 L 11.272098,16 v 0 h 0.434933 l 1.69462,-1.69462 v 0 l 0.210963,0.01426 L 15.292969,16 h 0.435378 v 0 L 16,15.686387 v -0.393418 l -1.669675,-1.669675 v 0 L 14.311745,13.395286 16,11.707031 V 11.251395 L 15.749816,11 v 0 h -0.456847 l -1.663727,1.663727 -0.233324,0.02516 v 0 L 11.707031,11 Z M 1,14 h 1 v 1 H 1 Z m 2,0 h 1 v 1 H 3 Z m 2,0 h 1 v 1 H 5 Z m 2,0 h 1 v 1 H 7 Z"
     id="path5"
     sodipodi:nodetypes="sscssccssscccccccccccccccsssscccccssscccccccccccccccccccccccccccccccccccccccccccccccccccc" />
</svg>
