<?xml version="1.0" encoding="UTF-8" standalone="no"?>
<svg
   width="16"
   height="16"
   version="1.1"
   id="svg2392"
   sodipodi:docname="view-task.svg"
   inkscape:version="1.1.2 (0a00cf5339, 2022-02-04)"
   xmlns:inkscape="http://www.inkscape.org/namespaces/inkscape"
   xmlns:sodipodi="http://sodipodi.sourceforge.net/DTD/sodipodi-0.dtd"
   xmlns="http://www.w3.org/2000/svg"
   xmlns:svg="http://www.w3.org/2000/svg">
  <sodipodi:namedview
     id="namedview2394"
     pagecolor="#000000"
     bordercolor="#666666"
     borderopacity="1.0"
     inkscape:pageshadow="2"
     inkscape:pageopacity="0"
     inkscape:pagecheckerboard="0"
     showgrid="false"
     inkscape:zoom="51.6875"
     inkscape:cx="7.9903265"
     inkscape:cy="8"
     inkscape:window-width="1920"
     inkscape:window-height="1051"
     inkscape:window-x="0"
     inkscape:window-y="29"
     inkscape:window-maximized="1"
     inkscape:current-layer="svg2392" />
  <defs
     id="defs2388">
    <style
       id="current-color-scheme"
       type="text/css">
   .ColorScheme-Text { color:#eeeeec; } .ColorScheme-Highlight { color:#367bf0; } .ColorScheme-NeutralText { color:#ffcc44; } .ColorScheme-PositiveText { color:#3db47e; } .ColorScheme-NegativeText { color:#dd4747; }
  </style>
  </defs>
  <path
     style="fill:currentColor"
     class="ColorScheme-Text"
     d="M 3,1 C 1,1 1,3 1,3 V 15 H 15 V 3 c 0,0 0,-2 -2,-2 z m 0,2 h 9.590973 l 0.0786,0.3855001 v 0 L 7.2413758,9.7183949 6.7476867,9.7476867 v 0 L 5,8 C 5,8 4,7 3.2852,7.7852 2.5352,8.5352 3.5,9.5 3.5,9.5 L 6.4239917,12.423992 6.709083,12.709083 7,13 6.4239917,12.423992 6.9472092,12.464215 12.611468,6.639588 13,6.6891892 v 0 V 13 H 7 3 Z"
     id="path2390"
     sodipodi:nodetypes="sccccsscccccccccccccccccccccc" />
</svg>
