<?xml version="1.0" encoding="UTF-8" standalone="no"?>
<svg
   width="16"
   height="16"
   version="1.1"
   id="svg620"
   sodipodi:docname="view-task-child.svg"
   inkscape:version="1.1.2 (0a00cf5339, 2022-02-04)"
   xmlns:inkscape="http://www.inkscape.org/namespaces/inkscape"
   xmlns:sodipodi="http://sodipodi.sourceforge.net/DTD/sodipodi-0.dtd"
   xmlns="http://www.w3.org/2000/svg"
   xmlns:svg="http://www.w3.org/2000/svg">
  <sodipodi:namedview
     id="namedview622"
     pagecolor="#000000"
     bordercolor="#666666"
     borderopacity="1.0"
     inkscape:pageshadow="2"
     inkscape:pageopacity="0"
     inkscape:pagecheckerboard="0"
     showgrid="false"
     inkscape:zoom="51.6875"
     inkscape:cx="7.9903265"
     inkscape:cy="8"
     inkscape:window-width="1920"
     inkscape:window-height="1051"
     inkscape:window-x="0"
     inkscape:window-y="29"
     inkscape:window-maximized="1"
     inkscape:current-layer="svg620" />
  <defs
     id="defs616">
    <style
       id="current-color-scheme"
       type="text/css">
   .ColorScheme-Text { color:#eeeeec; } .ColorScheme-Highlight { color:#367bf0; } .ColorScheme-NeutralText { color:#ffcc44; } .ColorScheme-PositiveText { color:#3db47e; } .ColorScheme-NegativeText { color:#dd4747; }
  </style>
  </defs>
  <path
     style="fill:currentColor"
     class="ColorScheme-Text"
     d="M 12.877433,6.7409802 13,3 12.69384,3.3571869 7.1834259,9.7860031 6.8501933,9.8501933 v 0 L 5,8 C 5,8 4,7 3.285,7.7845 2.535,8.5345 3.5,9.5 3.5,9.5 l 3.3004217,3.300422 v 0 L 7.2244071,12.745672 12.61085,6.6410362 Z M 10.8,10 C 10,10 10,10.8 10,10.8 V 16 h 6 V 10.8 C 16,10 15.2,10 15.2,10 Z M 3,1 C 1,1 1,3 1,3 V 15 H 9 V 13 H 3 V 3 h 9.576273 L 12.69384,3.3571869 12.877433,6.7409802 13,9 h 2 V 3 c 0,0 0,-2 -2,-2 z"
     id="path618"
     sodipodi:nodetypes="ccccccccccccccscccscssccccccccccccss" />
</svg>
