<?xml version="1.0" encoding="UTF-8" standalone="no"?>
<svg
   viewBox="0 0 22 22"
   version="1.1"
   id="svg6"
   sodipodi:docname="view-bank-account-checking.svg"
   inkscape:version="1.1.2 (0a00cf5339, 2022-02-04)"
   xmlns:inkscape="http://www.inkscape.org/namespaces/inkscape"
   xmlns:sodipodi="http://sodipodi.sourceforge.net/DTD/sodipodi-0.dtd"
   xmlns="http://www.w3.org/2000/svg"
   xmlns:svg="http://www.w3.org/2000/svg">
  <sodipodi:namedview
     id="namedview8"
     pagecolor="#000000"
     bordercolor="#666666"
     borderopacity="1.0"
     inkscape:pageshadow="2"
     inkscape:pageopacity="0"
     inkscape:pagecheckerboard="0"
     showgrid="false"
     inkscape:zoom="256"
     inkscape:cx="11.009766"
     inkscape:cy="6.109375"
     inkscape:window-width="1910"
     inkscape:window-height="1009"
     inkscape:window-x="0"
     inkscape:window-y="35"
     inkscape:window-maximized="1"
     inkscape:current-layer="svg6" />
  <defs
     id="defs3051">
    <style
       type="text/css"
       id="current-color-scheme">
     .ColorScheme-Text {
       color:#f2f2f2;
     }
     </style>
  </defs>
  <path
     style="fill:currentColor;fill-opacity:1;stroke:none"
     d="m 12.172982,3 c -1.112348,10e-8 -2.013102,0.896844 -2.013102,2.0019531 0,1.1051091 0.900754,1.9999999 2.013102,2 1.112349,-10e-8 2.015068,-0.8948909 2.015068,-2 C 14.18805,3.896844 13.285331,3.0000001 12.172982,3 Z M 6.5150649,5.4824219 C 6.2492972,5.4831556 6.0049855,5.4993553 5.7975041,5.5195312 5.4362681,5.5540333 5.2226905,5.9354738 5.3807291,6.2597656 L 6.0845284,7.6933594 C 5.3032153,8.3695481 4.7136641,9.1942245 4.3820418,10.117188 H 3.5249007 C 3.2366838,10.115487 3,10.35036 3,10.636719 v 1.910156 c 0,0.19318 0.1092409,0.369289 0.2811266,0.458984 l 1.1107447,0.574219 c 0.4653276,1.274735 1.4302222,2.371195 2.701174,3.125 v 1.691406 C 7.0930453,18.729398 7.3673695,19 7.7024805,19 h 1.5570086 c 0.2413218,0 0.4610272,-0.142273 0.5583213,-0.361328 l 0.3912176,-0.892578 c 0.336828,0.04145 0.677464,0.0625 1.028177,0.0625 0.552157,0 1.088516,-0.05208 1.604191,-0.150391 v 0.738281 C 12.841396,18.729396 13.115735,19 13.45083,19 h 1.553077 c 0.223969,0 0.428749,-0.121703 0.53473,-0.318359 0.826491,-1.542129 1.72533,-3.090497 2.388593,-4.705079 0.335059,-0.817622 0.456279,-1.686251 0.383355,-2.533203 C 18.1925,10.077169 17.566602,8.7661809 16.519632,7.8105469 15.908469,7.2516572 15.200194,6.8134888 14.439688,6.4960938 c -0.09896,0.1483525 -0.21357,0.290306 -0.342069,0.4179687 -0.141494,0.1405734 -0.296444,0.2645599 -0.464424,0.3687845 -0.03404,0.021121 0.03706,0.077167 0.0019,0.096639 0.03546,0.01164 -0.03499,-0.012186 0,0 0.182581,0.063584 0.358811,0.1346852 0.529315,0.2142645 0.206412,0.096609 0.287656,0.3482742 0.173001,0.5449219 -0.100713,0.1746197 -0.321051,0.242459 -0.503276,0.15625 C 12.448633,7.6445955 10.901691,7.7673403 10.22279,7.8691406 10.023119,7.8984696 9.8312777,7.7730481 9.7843898,7.578125 v -0.00391 c -0.053858,-0.2207845 0.096709,-0.4381729 0.3224112,-0.4726563 0.0969,-0.01485 0.209333,-0.029871 0.33398,-0.042746 0.03392,-0.0035 -0.03567,0.00314 0,0 -0.02658,-0.02283 0.05133,-0.056095 0.02533,-0.079831 -0.0233,-0.021268 -0.04619,-0.042906 -0.06835,-0.064923 C 10.158151,6.6760163 9.9714383,6.3983889 9.8394356,6.0878906 9.8255904,6.0550586 9.7151891,6.0357462 9.7023013,6.0029141 c -0.031991,0.00534 0.031904,-0.00572 0,0 C 9.5281509,6.0341245 9.3555062,6.0709599 9.1867501,6.1132812 8.3142682,5.6086317 7.3123469,5.4844873 6.5150649,5.4863281 v -0.00391 z m 0.6782423,3.984375 c 0.4323358,0 0.7824362,0.3458686 0.7824362,0.7753911 -1.92e-5,0.42952 -0.3501004,0.777343 -0.7824362,0.777343 -0.4323348,0 -0.7804702,-0.347841 -0.7804702,-0.777343 0,-0.4295225 0.3481354,-0.7753911 0.7804702,-0.7753911 z M 13.45083,10.494141 c 0.07906,0 0.14713,0.02703 0.20249,0.08203 l 0.403014,0.40039 c 0.05526,0.055 0.08261,0.122672 0.08257,0.201172 0,0.07858 -0.02721,0.144219 -0.08257,0.199219 l -2.146785,2.134766 -0.403013,0.40039 c -0.05536,0.0549 -0.123476,0.08203 -0.20249,0.08203 -0.07909,0 -0.14713,-0.02703 -0.20249,-0.08203 l -0.403013,-0.40039 -1.0733928,-1.066407 c -0.05536,-0.05496 -0.082569,-0.122671 -0.082569,-0.201171 0,-0.07858 0.027208,-0.146172 0.082569,-0.201172 l 0.4030138,-0.400391 c 0.05536,-0.055 0.123375,-0.08203 0.20249,-0.08203 0.07906,0 0.147129,0.02703 0.20249,0.08203 l 0.769606,0.76805 0.203528,-5.78e-4 v 0 l 1.844029,-1.833878 c 0.05533,-0.055 0.121409,-0.08203 0.200523,-0.08203 z"
     class="ColorScheme-Text"
     id="path4"
     sodipodi:nodetypes="sssssccccccsscccsssccscssscccccsscscccccccscscccsccccscssssscccccssccscsscccccs" />
</svg>
