<?xml version="1.0" encoding="UTF-8" standalone="no"?>
<svg
   width="16"
   height="16"
   version="1.1"
   id="svg7"
   sodipodi:docname="view-financial-account-liability-closed.svg"
   inkscape:version="1.1.2 (0a00cf5339, 2022-02-04)"
   xmlns:inkscape="http://www.inkscape.org/namespaces/inkscape"
   xmlns:sodipodi="http://sodipodi.sourceforge.net/DTD/sodipodi-0.dtd"
   xmlns="http://www.w3.org/2000/svg"
   xmlns:svg="http://www.w3.org/2000/svg">
  <sodipodi:namedview
     id="namedview9"
     pagecolor="#000000"
     bordercolor="#666666"
     borderopacity="1.0"
     inkscape:pageshadow="2"
     inkscape:pageopacity="0"
     inkscape:pagecheckerboard="0"
     showgrid="false"
     inkscape:zoom="51.6875"
     inkscape:cx="7.9903265"
     inkscape:cy="12.643289"
     inkscape:window-width="1920"
     inkscape:window-height="1051"
     inkscape:window-x="0"
     inkscape:window-y="29"
     inkscape:window-maximized="1"
     inkscape:current-layer="svg7" />
  <defs
     id="defs3">
    <style
       id="current-color-scheme"
       type="text/css">
   .ColorScheme-Text { color:#eeeeec; } .ColorScheme-Highlight { color:#367bf0; } .ColorScheme-NeutralText { color:#ffcc44; } .ColorScheme-PositiveText { color:#3db47e; } .ColorScheme-NegativeText { color:#dd4747; }
  </style>
  </defs>
  <path
     style="opacity:0.35;fill:currentColor"
     class="ColorScheme-Text"
     d="M 11,1 C 9.338,1 8,2.338 8,4 8,5.662 9.338,7 11,7 12.662,7 14,5.662 14,4 14,2.338 12.662,1 11,1 Z M 0,6 V 7 H 3.6515449 V 7 L 4,7.3575907 v 0.31835 L 4.411617,8 V 8 H 4.7850435 L 5,8.2772599 v 0 0.3485112 L 5.3619711,9 V 9 H 5.7675616 V 9 L 6,9.2938922 V 12.629239 L 5.7622366,13 v 0 H 5.2657307 L 5,13.214491 v 0 0.575475 L 4.7125966,14 v 0 H 4.2663087 L 4,14.308413 v 0 0.434227 L 3.7426091,15 v 0 H 0 v 1 H 7 V 6 Z M 0,8 V 9.2773438 C 0.59563287,9.6237092 1,10.261342 1,11 1,11.738658 0.59563287,12.376291 0,12.722656 V 14 h 2.7452595 v 0 L 3,13.769545 v -0.463194 0 L 3.3267629,13 h 0.3610506 v 0 L 4,12.704387 V 12.262336 L 4.285517,12 v 0 h 0.4316141 v 0 L 5,11.759956 v -1.411556 0 L 4.7391185,10 H 4.2447263 v 0 L 4,9.7898005 V 9.2633412 L 3.7150528,9 V 9 H 3.3488696 V 9 L 3,8.7636837 v -0.4587364 0 L 2.6447379,8 Z M 11,8 C 10.353654,8 9.562365,8.2005634 9,8.4277344 V 14 h 7 V 13 C 16,10.22998 13.77002,8 11,8 Z"
     id="path5"
     sodipodi:nodetypes="ssssscccccccccccccccccccccccccccccccccccccccscccccccccccccccccccccccccccccccccscccss" />
</svg>
