<?xml version="1.0" encoding="UTF-8" standalone="no"?>
<svg
   width="16"
   height="16"
   version="1.1"
   id="svg207372"
   sodipodi:docname="view-form-action.svg"
   inkscape:version="1.1.2 (0a00cf5339, 2022-02-04)"
   xmlns:inkscape="http://www.inkscape.org/namespaces/inkscape"
   xmlns:sodipodi="http://sodipodi.sourceforge.net/DTD/sodipodi-0.dtd"
   xmlns="http://www.w3.org/2000/svg"
   xmlns:svg="http://www.w3.org/2000/svg">
  <sodipodi:namedview
     id="namedview207374"
     pagecolor="#000000"
     bordercolor="#666666"
     borderopacity="1.0"
     inkscape:pageshadow="2"
     inkscape:pageopacity="0"
     inkscape:pagecheckerboard="0"
     showgrid="false"
     inkscape:zoom="51.6875"
     inkscape:cx="8.0096735"
     inkscape:cy="8"
     inkscape:window-width="1920"
     inkscape:window-height="1051"
     inkscape:window-x="0"
     inkscape:window-y="29"
     inkscape:window-maximized="1"
     inkscape:current-layer="svg207372" />
  <defs
     id="defs207368">
    <style
       id="current-color-scheme"
       type="text/css">
   .ColorScheme-Text { color:#eeeeec; } .ColorScheme-Highlight { color:#367bf0; } .ColorScheme-NeutralText { color:#ffcc44; } .ColorScheme-PositiveText { color:#3db47e; } .ColorScheme-NegativeText { color:#dd4747; }
  </style>
  </defs>
  <path
     style="fill:currentColor"
     class="ColorScheme-Text"
     d="M 2,1 C 2,1 1,1 1,2 v 12 c 0,1 1,1 1,1 h 12 c 0,0 1,0 1,-1 V 2 C 15,1 14,1 14,1 Z m 1,3 h 3 v 6 H 3 Z M 7,5 H 9 V 6 H 7 Z M 10.693739,5.4083476 11,5.4762419 v 2.3768167 0 L 11.158621,8 h 1.472987 l 0.103349,0.3533906 v 0 L 10.379801,11.493599 10,11.375883 v 0 -2.1915311 L 9.8336703,9 V 9 H 8.4149151 V 9 L 8.2730925,8.6358767 Z"
     id="path207370"
     sodipodi:nodetypes="cssccsscccccccccccccccccccccccccccccc" />
</svg>
