<?xml version="1.0" encoding="UTF-8" standalone="no"?>
<svg
   width="16"
   height="16"
   version="1.1"
   id="svg7"
   sodipodi:docname="vm-snapshot-recording.svg"
   inkscape:version="1.1.2 (0a00cf5339, 2022-02-04)"
   xmlns:inkscape="http://www.inkscape.org/namespaces/inkscape"
   xmlns:sodipodi="http://sodipodi.sourceforge.net/DTD/sodipodi-0.dtd"
   xmlns="http://www.w3.org/2000/svg"
   xmlns:svg="http://www.w3.org/2000/svg">
  <sodipodi:namedview
     id="namedview9"
     pagecolor="#000000"
     bordercolor="#666666"
     borderopacity="1.0"
     inkscape:pageshadow="2"
     inkscape:pageopacity="0"
     inkscape:pagecheckerboard="0"
     showgrid="false"
     inkscape:zoom="51.6875"
     inkscape:cx="7.9903265"
     inkscape:cy="8"
     inkscape:window-width="1920"
     inkscape:window-height="1051"
     inkscape:window-x="0"
     inkscape:window-y="29"
     inkscape:window-maximized="1"
     inkscape:current-layer="svg7" />
  <defs
     id="defs3">
    <style
       id="current-color-scheme"
       type="text/css">
   .ColorScheme-Text { color:#eeeeec; } .ColorScheme-Highlight { color:#367bf0; } .ColorScheme-NeutralText { color:#ffcc44; } .ColorScheme-PositiveText { color:#3db47e; } .ColorScheme-NegativeText { color:#dd4747; }
  </style>
  </defs>
  <path
     style="fill:currentColor"
     class="ColorScheme-Text"
     d="M 4.5,0 C 3.132132,0 2,1.1321324 2,2.5 V 5.0507812 C 0.866938,5.2861798 0,6.3031158 0,7.5 v 6 C 0,14.867868 1.132132,16 2.5,16 h 6 C 8.8380221,16 9.161266,15.929448 9.4570312,15.804688 8.9198202,15.308689 8.5115598,14.689262 8.2675781,14 H 2.5 C 2.205537,14 2,13.794463 2,13.5 v -6 C 2,7.2055368 2.205537,7 2.5,7 H 5 7 8.5 C 8.7944632,7 9,7.2055368 9,7.5 v 1.8982769 0.28727 C 9,9.3982769 9.154522,9.5014374 9.236865,9.4144859 9.7245468,8.8995097 10.328351,8.5057978 11,8.2675781 V 7.5 C 11,6.490928 10.383897,5.6101425 9.5115518,5.2175042 9.201372,5.0778939 9.9381629,5 9.5793673,5 V 5 H 13.5 C 13.794463,5 14,5.2055368 14,5.5 v 2.7578125 c 0.784592,0.2773595 1.476907,0.7668481 2,1.4140625 V 5.5 C 16,4.1321324 14.867868,3 13.5,3 H 13 V 2.5 C 13,1.1321324 11.867868,0 10.5,0 Z m 0,2 h 6 C 10.794463,2 11,2.2055368 11,2.5 V 3 H 7.5 C 6.3031158,3 5.2861799,3.8669384 5.0507812,5 H 4 V 2.5 C 4,2.2055368 4.2055368,2 4.5,2 Z m 8,7 C 10.567003,9 9,10.567003 9,12.5 9,14.432997 10.567003,16 12.5,16 14.432997,16 16,14.432997 16,12.5 16,10.567003 14.432997,9 12.5,9 Z m 0,2 C 13.328427,11 14,11.671573 14,12.5 14,13.328427 13.328427,14 12.5,14 11.671573,14 11,13.328427 11,12.5 11,11.671573 11.671573,11 12.5,11 Z"
     id="path5"
     sodipodi:nodetypes="sscssssccssssccssccscssccssccsscsssssscsccssssssssssss" />
</svg>
