<?xml version="1.0" encoding="UTF-8" standalone="no"?>
<svg
   width="16"
   height="16"
   version="1.1"
   id="svg7"
   sodipodi:docname="vm-snapshot-current.svg"
   inkscape:version="1.1.2 (0a00cf5339, 2022-02-04)"
   xmlns:inkscape="http://www.inkscape.org/namespaces/inkscape"
   xmlns:sodipodi="http://sodipodi.sourceforge.net/DTD/sodipodi-0.dtd"
   xmlns="http://www.w3.org/2000/svg"
   xmlns:svg="http://www.w3.org/2000/svg">
  <sodipodi:namedview
     id="namedview9"
     pagecolor="#000000"
     bordercolor="#666666"
     borderopacity="1.0"
     inkscape:pageshadow="2"
     inkscape:pageopacity="0"
     inkscape:pagecheckerboard="0"
     showgrid="false"
     inkscape:zoom="51.6875"
     inkscape:cx="7.9903265"
     inkscape:cy="8"
     inkscape:window-width="1920"
     inkscape:window-height="1051"
     inkscape:window-x="0"
     inkscape:window-y="29"
     inkscape:window-maximized="1"
     inkscape:current-layer="svg7" />
  <defs
     id="defs3">
    <style
       id="current-color-scheme"
       type="text/css">
   .ColorScheme-Text { color:#eeeeec; } .ColorScheme-Highlight { color:#367bf0; } .ColorScheme-NeutralText { color:#ffcc44; } .ColorScheme-PositiveText { color:#3db47e; } .ColorScheme-NegativeText { color:#dd4747; }
  </style>
  </defs>
  <path
     style="fill:currentColor"
     class="ColorScheme-Text"
     d="m 4.5,-2e-7 c -1.367868,0 -2.5,1.1321324 -2.5,2.5 V 5.050781 C 0.866938,5.2861796 0,6.3031156 0,7.4999998 V 13.5 C 0,14.867868 1.132132,16 2.5,16 h 6 c 1.1968842,0 2.21382,-0.866938 2.449219,-2 H 13.5 C 14.867868,14 16,12.867868 16,11.5 V 5.4999998 c 0,-1.3678676 -1.132132,-2.5 -2.5,-2.5 H 13 v -0.5 c 0,-1.3678676 -1.132132,-2.5 -2.5,-2.5 z m 0,2 h 6 c 0.294463,0 0.5,0.2055368 0.5,0.5 v 0.5 H 7.5 c -1.1968842,0 -2.2138202,0.8669384 -2.4492188,2 H 4 v -2.5 c 0,-0.2944632 0.2055368,-0.5 0.5,-0.5 z m 5.1373387,3 v 0 H 13.5 c 0.294463,0 0.5,0.2055368 0.5,0.5 V 11.5 C 14,11.794463 13.794463,12 13.5,12 H 11 V 7.4999998 C 11,6.5517687 10.455952,5.7168206 9.6664694,5.2937699 9.3170868,5.1065503 10.056975,4.9999998 9.6373387,4.9999998 Z m -7.1373387,2 H 5 7 8.5 c 0.2944632,0 0.5,0.2055368 0.5,0.5 V 13.5 C 9,13.794463 8.7944632,14 8.5,14 h -6 C 2.205537,14 2,13.794463 2,13.5 V 7.4999998 c 0,-0.2944632 0.205537,-0.5 0.5,-0.5 z"
     id="path5"
     sodipodi:nodetypes="sscsssscsssscsssssscsccssccsssscsscsccssssssss" />
</svg>
