<?xml version="1.0" encoding="UTF-8" standalone="no"?>
<svg
   width="16"
   height="16"
   version="1.1"
   id="svg7"
   sodipodi:docname="vmware-component.svg"
   inkscape:version="1.2 (dc2aedaf03, 2022-05-15)"
   xmlns:inkscape="http://www.inkscape.org/namespaces/inkscape"
   xmlns:sodipodi="http://sodipodi.sourceforge.net/DTD/sodipodi-0.dtd"
   xmlns="http://www.w3.org/2000/svg"
   xmlns:svg="http://www.w3.org/2000/svg">
  <sodipodi:namedview
     id="namedview9"
     pagecolor="#000000"
     bordercolor="#666666"
     borderopacity="1.0"
     inkscape:pageshadow="2"
     inkscape:pageopacity="0"
     inkscape:pagecheckerboard="0"
     showgrid="false"
     inkscape:zoom="51.687501"
     inkscape:cx="13.736396"
     inkscape:cy="10.128174"
     inkscape:window-width="1472"
     inkscape:window-height="1080"
     inkscape:window-x="223"
     inkscape:window-y="-1"
     inkscape:window-maximized="1"
     inkscape:current-layer="svg7"
     inkscape:showpageshadow="0"
     inkscape:deskcolor="#000000" />
  <defs
     id="defs3">
    <style
       id="current-color-scheme"
       type="text/css">
   .ColorScheme-Text { color:#eeeeec; } .ColorScheme-Highlight { color:#367bf0; } .ColorScheme-NeutralText { color:#ffcc44; } .ColorScheme-PositiveText { color:#3db47e; } .ColorScheme-NegativeText { color:#dd4747; }
  </style>
  </defs>
  <path
     style="fill:currentColor"
     class="ColorScheme-Text"
     d="M 6.203125,1.0002119 4.2792969,1.6142588 C 0.21368673,2.9265448 0.08235,2.9732213 0.03125,3.1279306 -0.00739,3.2448503 0.1540525,3.4367839 0.8515625,4.1083994 1.3288925,4.568007 1.71875,4.978358 1.71875,5.0205088 c 0,0.042146 -0.386475,0.438281 -0.859375,0.8808593 C 0.386485,6.3439453 0,6.7488998 0,6.8017588 c 0,0.052863 0.05429375,0.141109 0.12109375,0.1953124 0.06676,0.054201 1.43793505,0.5247705 3.04687505,1.0449219 1.2731678,0.4116002 2.3828809,0.7654651 2.809089,0.8967589 0.1124037,0.034626 0.3547615,-0.076783 0.3625457,-0.076142 0.013456,0.00113 -0.099662,0.083603 0,0 C 6.5162882,8.7143947 6.8038729,8.4545195 7.1152344,8.1591806 L 7.8216062,7.4871139 v 0 l 0.4066637,0.047077 0.6662613,0.6328027 c 0.3128671,0.2967721 0.6068633,0.5530099 0.793075,0.6954513 0.1066163,0.081555 0.1971594,0.1190018 0.1971594,0.1190018 0.012013,-0.00425 0.090427,-0.029627 0.2230234,-0.072237 0.45087,-0.144887 1.528201,-0.4889953 2.751586,-0.8789351 C 15.589974,7.1599272 16,7.0007156 16,6.8134775 16,6.7695894 15.613515,6.3640032 15.140625,5.9111338 14.667725,5.4582641 14.28125,5.0561411 14.28125,5.0166025 c 0,-0.039543 0.389857,-0.4485955 0.867188,-0.9082031 C 15.844758,3.437921 16.00725,3.2443355 15.96875,3.1279306 15.93023,3.0113904 15.491018,2.8417928 13.736328,2.2666025 12.534898,1.8727757 11.155575,1.4247358 10.671875,1.2724619 L 9.7929688,1.0041181 8.8964844,1.8564462 8.1489841,2.5713756 7.8778594,2.5967724 v 0 L 7.1015625,1.85254 Z M 8.0136719,2.993165 10.244141,3.7353525 c 0.772292,0.2566935 1.460806,0.488015 1.868382,0.627712 0.239543,0.082103 -0.187245,0.074726 0.152492,0.080081 -0.269496,0.00537 0.119846,0.1414923 -0.121388,0.1940106 -0.40404,0.087962 -1.062584,0.3637392 -1.827221,0.6138209 C 9.1008469,5.6485377 8.0745856,5.9825552 8.0351562,5.993165 7.9621454,6.0127962 4.937298,5.0241247 3.8688175,4.6442119 3.6331592,4.5604204 4.2538969,4.58236 3.8616452,4.4990244 4.1962655,4.5125964 3.6443085,4.4441198 3.8771984,4.3644711 4.2864774,4.224497 4.987483,3.9902669 5.7734375,3.7314462 Z M 8.2070312,8.8935556 7.8027344,8.88379 C 7.5511703,9.1224087 7.316254,9.3388138 7.1289062,9.5029306 c -0.093674,0.082058 -0.173593,0.1504285 -0.25,0.2109375 -0.038203,0.030254 -0.072915,0.05625 -0.1289062,0.09375 -0.027996,0.01875 -0.057715,0.041062 -0.1230469,0.074219 -0.032666,0.016578 -0.073706,0.036528 -0.1464843,0.060547 C 6.4440799,9.9543919 6.3984755,9.9666 6.3359375,9.97754 6.2738723,9.9883971 6.0835481,9.989295 6.0800781,9.9892588 6.0789125,9.9891626 5.9334905,9.966735 5.9140625,9.961915 5.8946335,9.957096 5.8826626,9.9534165 5.8710938,9.9501962 5.8479558,9.9437534 5.8277854,9.938145 5.8027344,9.930665 5.7526317,9.915707 5.6876729,9.8969856 5.6074219,9.8720712 5.4469196,9.8222439 5.2237471,9.751593 4.9511719,9.66504 4.4060215,9.4919339 3.6672235,9.2537015 2.8613281,8.993165 2.5841796,8.9035662 2.3764899,8.8322236 2.1377736,8.7524868 c -0.043396,-0.014495 0.04605,0.01521 0,0 1.955e-4,0.069423 -0.1334387,0.095269 -0.1331685,0.1663323 0.00692,1.8197589 0.037977,4.1240949 0.075473,4.1817679 0.039418,0.06062 1.3630086,0.533822 2.9394531,1.052734 h 0.00195 C 6.5979853,14.672203 8.00195,15 8.00195,15 v -0.01367 c 2.078469,-0.647602 5.902347,-1.870118 5.902347,-1.870118 C 13.976486,13.027796 14,12.431619 14,10.731446 14,10.28143 13.99923,9.6221349 13.997079,8.9810761 13.996778,8.891443 13.800438,8.8656349 13.800082,8.7773367 c -0.06819,0.021984 0.06347,-0.02062 0,0 -0.193108,0.062737 -0.378031,0.1232095 -0.637973,0.2060627 -0.791396,0.2522475 -1.519876,0.4860059 -2.058593,0.6582031 -0.269359,0.086099 -0.491501,0.1566524 -0.648438,0.2070313 C 10.29814,9.8990097 10.111471,9.962736 10.21875,9.9248056 10.217923,9.9250976 10.05161,9.97058 9.984375,9.97754 9.917134,9.98449 9.860788,9.9826731 9.8125,9.9794931 9.7159111,9.9731347 9.6512824,9.9588699 9.5996094,9.9443369 9.4962625,9.9152699 9.4430935,9.8866657 9.3984375,9.8642588 9.3091255,9.8194452 9.2607545,9.7870746 9.2109375,9.7529306 9.1113032,9.6846426 9.0229611,9.6149794 8.9199219,9.5302744 8.7138435,9.3608646 8.467614,9.1407331 8.2070312,8.8935556 Z"
     id="path5"
     sodipodi:nodetypes="ccccscscsscscccccscssscscccccccccccccscsscscsccccsssssscssssssscsccccccsscssscccsssssc" />
</svg>
