<?xml version="1.0" encoding="UTF-8" standalone="no"?>
<svg
   width="16"
   height="16"
   version="1.1"
   id="svg7"
   sodipodi:docname="vmware-replay-speed-fast.svg"
   inkscape:version="1.1.2 (0a00cf5339, 2022-02-04)"
   xmlns:inkscape="http://www.inkscape.org/namespaces/inkscape"
   xmlns:sodipodi="http://sodipodi.sourceforge.net/DTD/sodipodi-0.dtd"
   xmlns="http://www.w3.org/2000/svg"
   xmlns:svg="http://www.w3.org/2000/svg">
  <sodipodi:namedview
     id="namedview9"
     pagecolor="#000000"
     bordercolor="#666666"
     borderopacity="1.0"
     inkscape:pageshadow="2"
     inkscape:pageopacity="0"
     inkscape:pagecheckerboard="0"
     showgrid="false"
     inkscape:zoom="51.6875"
     inkscape:cx="8"
     inkscape:cy="8"
     inkscape:window-width="1139"
     inkscape:window-height="1043"
     inkscape:window-x="638"
     inkscape:window-y="32"
     inkscape:window-maximized="1"
     inkscape:current-layer="svg7" />
  <defs
     id="defs3">
    <style
       id="current-color-scheme"
       type="text/css">
   .ColorScheme-Text { color:#eeeeec; } .ColorScheme-Highlight { color:#367bf0; } .ColorScheme-NeutralText { color:#ffcc44; } .ColorScheme-PositiveText { color:#3db47e; } .ColorScheme-NegativeText { color:#dd4747; }
  </style>
  </defs>
  <path
     style="fill:currentColor"
     class="ColorScheme-Text"
     d="M 0.42256856,4.3380548 0,4.57075 V 8 11.425654 l 0.49642465,0.177206 v 0 L 2.5,10 4.5911199,8.327104 v 0 l 0.089905,-0.5822842 v 0 L 2.5,6 Z m 4.56718874,3.8009536 0.00888,3.3459796 0.4057707,0.191489 v 0 L 7.5,10 9.6481207,8.2815035 v 0 L 9.5648279,7.6518623 7.5,6 5.4432609,4.3546087 4.9987045,4.5235221 v 0 z m 5.0598317,-0.1975242 -0.04212,3.4473448 0.511508,0.19599 v 0 L 12.5,10 14.684116,8.2527071 14.632003,7.7056021 v 0 L 12.5,6 10.405932,4.3247458 10.006663,4.5296097 v 0 z"
     id="path5"
     sodipodi:nodetypes="cccccccccccccccccccccccccccccccccccccccc" />
</svg>
