<?xml version="1.0" encoding="UTF-8" standalone="no"?>
<svg
   width="16"
   height="16"
   version="1.1"
   id="svg9"
   sodipodi:docname="vmware-component-downloading.svg"
   inkscape:version="1.2 (dc2aedaf03, 2022-05-15)"
   xmlns:inkscape="http://www.inkscape.org/namespaces/inkscape"
   xmlns:sodipodi="http://sodipodi.sourceforge.net/DTD/sodipodi-0.dtd"
   xmlns="http://www.w3.org/2000/svg"
   xmlns:svg="http://www.w3.org/2000/svg">
  <sodipodi:namedview
     id="namedview11"
     pagecolor="#000000"
     bordercolor="#666666"
     borderopacity="1.0"
     inkscape:pageshadow="2"
     inkscape:pageopacity="0"
     inkscape:pagecheckerboard="0"
     showgrid="false"
     inkscape:zoom="66.82159"
     inkscape:cx="12.346309"
     inkscape:cy="3.2250056"
     inkscape:window-width="1472"
     inkscape:window-height="1080"
     inkscape:window-x="223"
     inkscape:window-y="-1"
     inkscape:window-maximized="1"
     inkscape:current-layer="svg9"
     inkscape:showpageshadow="0"
     inkscape:deskcolor="#000000" />
  <defs
     id="defs3">
    <style
       id="current-color-scheme"
       type="text/css">
   .ColorScheme-Text { color:#eeeeec; } .ColorScheme-Highlight { color:#367bf0; } .ColorScheme-NeutralText { color:#ffcc44; } .ColorScheme-PositiveText { color:#3db47e; } .ColorScheme-NegativeText { color:#dd4747; }
  </style>
  </defs>
  <path
     style="fill:currentColor"
     class="ColorScheme-Text"
     d="m 6.0984827,1.033783 v 0 L 4.2792969,1.6210938 C 0.2136867,2.9333798 0.08235,2.9800563 0.03125,3.1347656 -0.00739,3.2516853 0.1540525,3.4436189 0.8515625,4.1152344 1.3288925,4.574842 1.71875,4.985193 1.71875,5.0273438 c 0,0.042146 -0.386475,0.438281 -0.859375,0.8808593 C 0.386485,6.3507803 0,6.7557348 0,6.8085938 c 0,0.052863 0.05429375,0.141109 0.12109375,0.1953124 0.06676,0.054201 1.43793505,0.5247705 3.04687505,1.0449219 1.3667088,0.4418409 2.5450622,0.8171511 2.891756,0.9220281 0.061447,0.018588 0.2110087,-0.049768 0.2166243,-0.049305 0.010346,8.651e-4 -0.063445,0.051093 0,0 0.1653597,-0.1331655 0.4869324,-0.421694 0.8388853,-0.7555356 l 0.7808943,-0.74297 v 0 l 0.2103796,0.00233 0.7880229,0.7484497 c 0.3718196,0.3526917 0.7169864,0.6481346 0.8862613,0.7633594 0.054714,0.037243 0.1039731,0.051094 0.1039731,0.051094 0.00966,-0.00341 0.062211,-0.020481 0.1513214,-0.049174 C 10.43481,8.8107184 11.565395,8.4495507 12.859375,8.0371094 15.589974,7.1667622 16,7.0075506 16,6.8203125 16,6.7764244 15.613515,6.3708382 15.140625,5.9179688 14.667725,5.4650991 14.28125,5.0629761 14.28125,5.0234375 c 0,-0.039543 0.389857,-0.4485955 0.867188,-0.9082031 C 15.844758,3.444756 16.00725,3.2511705 15.96875,3.1347656 15.93023,3.0182254 15.491018,2.8486278 13.736328,2.2734375 12.534898,1.8796107 11.155575,1.4315708 10.671875,1.2792969 L 9.8825476,1.0319742 9.7243839,1.0696521 v 0 L 8.8964844,1.8632812 8.1002506,2.6248207 v 0 L 7.8917564,2.6169304 7.1015625,1.859375 6.2686464,1.0626726 Z M 8.0136719,3 10.244141,3.7421875 c 0.871503,0.289669 1.63632,0.5470286 2.01113,0.6768729 0.152541,0.052844 -0.02677,0.090005 0.191683,0.09419 -0.168488,0.00449 -0.03395,0.034723 -0.19878,0.093678 C 11.88208,4.7378712 11.154589,4.9836767 10.316406,5.2578125 9.1008471,5.6553727 8.0745856,5.9893902 8.0351562,6 7.9600053,6.0202067 4.7574275,4.9721316 3.7800234,4.6192478 3.598426,4.5536836 3.9895058,4.5270826 3.7377487,4.5208246 4.0263493,4.5156639 3.6163581,4.4609162 3.8061324,4.3956716 4.2019281,4.2595968 4.9399109,4.0127677 5.7734375,3.7382812 Z M 8,8.8241868 7.8027344,8.890625 C 7.5511703,9.1292437 7.316254,9.3456488 7.1289062,9.5097656 c -0.093674,0.082058 -0.173593,0.1504285 -0.25,0.2109375 -0.038203,0.030254 -0.072915,0.05625 -0.1289062,0.09375 -0.027996,0.01875 -0.057715,0.041062 -0.1230469,0.074219 -0.032666,0.016578 -0.073706,0.036528 -0.1464843,0.060547 C 6.4440799,9.9612268 6.3984755,9.973435 6.3359375,9.984375 6.2738723,9.9952321 6.0835481,9.99613 6.0800781,9.9960938 6.0789125,9.9959976 5.9334905,9.97357 5.9140625,9.96875 5.8946335,9.963931 5.8826626,9.9602515 5.8710938,9.9570312 5.8479558,9.9505884 5.8277854,9.94498 5.8027344,9.9375 5.7526317,9.922542 5.6876729,9.9038207 5.6074219,9.8789062 5.4469196,9.829079 5.2237471,9.758428 4.9511719,9.671875 4.4060215,9.4987689 3.6672235,9.2605365 2.8613281,9 2.5337971,8.8941131 2.3032741,8.8137234 2.0039062,8.7148438 c 0.0052,1.8471702 0.037212,4.3326532 0.076172,4.3925782 0.039418,0.06062 1.3630086,0.533822 2.9394531,1.052734 h 0.00195 c 1.2775241,0.420477 2.4417465,0.786657 2.8373825,0.910424 0.092591,0.02897 0.1430862,0.04465 0.1430862,0.04465 v 0 c 0,0 0.0489,-0.0287 0.1382749,-0.05633 C 8.5386414,14.935728 9.7413702,14.562051 11.00195,14.152346 11.164576,14.09949 11.308677,14.051574 11.464844,14 L 11.167969,13.554688 C 10.725127,12.890134 11.201413,12.000171 12,12 v -2 c 0.0016,-0.1612544 0.04201,-0.3177367 0.115621,-0.4571954 0.0582,-0.1102614 -0.14516,-0.1195909 -0.04831,-0.2025142 -0.09268,0.029645 0.09488,-0.030342 0,0 -0.352514,0.1127369 -0.706855,0.2260178 -0.963795,0.3081471 -0.269359,0.086099 -0.491501,0.1566523 -0.648438,0.2070313 -0.156938,0.050376 -0.343607,0.1141022 -0.236328,0.076172 -8.27e-4,2.92e-4 -0.16714,0.045774 -0.234375,0.052734 C 9.917134,9.991325 9.860788,9.9895081 9.8125,9.9863281 9.7159111,9.9799697 9.6512824,9.9657049 9.5996094,9.9511719 9.4962625,9.9221049 9.4430935,9.8935007 9.3984375,9.8710938 9.3091255,9.8262801 9.2607545,9.7939096 9.2109375,9.7597656 9.1113032,9.6914776 9.0229611,9.6218144 8.9199219,9.5371094 8.7138435,9.3676996 8.467614,9.1475681 8.2070312,8.9003906 Z"
     id="path5"
     sodipodi:nodetypes="cccccscscsscscccccscssscsccccccccccccccccscsscscsccccsssssscssssssccccsccssccccscsscccssssscc" />
  <path
     style="fill:currentColor"
     class="ColorScheme-PositiveText"
     d="m 13,10 v 2.884178 L 12.887113,13 v 0 h -0.501854 l -0.192028,0.289846 v 0 L 13,14.5 l 0.785141,1.177712 v 0 L 14.223906,15.664141 15,14.5 15.780141,13.329788 15.62315,13 v 0 h -0.493548 v 0 L 15,12.876102 V 10 Z"
     id="path7"
     sodipodi:nodetypes="cccccccccccccccccccc" />
</svg>
