<?xml version="1.0" encoding="UTF-8" standalone="no"?>
<svg
   width="16"
   height="16"
   version="1.1"
   id="svg9"
   sodipodi:docname="vmware-component-download-inactive.svg"
   inkscape:version="1.2 (dc2aedaf03, 2022-05-15)"
   xmlns:inkscape="http://www.inkscape.org/namespaces/inkscape"
   xmlns:sodipodi="http://sodipodi.sourceforge.net/DTD/sodipodi-0.dtd"
   xmlns="http://www.w3.org/2000/svg"
   xmlns:svg="http://www.w3.org/2000/svg">
  <sodipodi:namedview
     id="namedview11"
     pagecolor="#000000"
     bordercolor="#666666"
     borderopacity="1.0"
     inkscape:pageshadow="2"
     inkscape:pageopacity="0"
     inkscape:pagecheckerboard="0"
     showgrid="false"
     inkscape:zoom="66.82159"
     inkscape:cx="7.5424724"
     inkscape:cy="7.0710679"
     inkscape:window-width="1472"
     inkscape:window-height="1080"
     inkscape:window-x="223"
     inkscape:window-y="-1"
     inkscape:window-maximized="1"
     inkscape:current-layer="svg9"
     inkscape:showpageshadow="0"
     inkscape:deskcolor="#000000" />
  <defs
     id="defs3">
    <style
       id="current-color-scheme"
       type="text/css">
   .ColorScheme-Text { color:#eeeeec; } .ColorScheme-Highlight { color:#367bf0; } .ColorScheme-NeutralText { color:#ffcc44; } .ColorScheme-PositiveText { color:#3db47e; } .ColorScheme-NegativeText { color:#dd4747; }
  </style>
  </defs>
  <path
     style="fill:currentColor"
     class="ColorScheme-Text"
     d="M 6.203125,1 4.2792969,1.6210938 C 0.2136867,2.9333798 0.08235,2.9800563 0.03125,3.1347656 -0.00739,3.2516853 0.1540525,3.4436189 0.8515625,4.1152344 1.3288925,4.574842 1.71875,4.985193 1.71875,5.0273438 c 0,0.042146 -0.386475,0.438281 -0.859375,0.8808593 C 0.386485,6.3507803 0,6.7557348 0,6.8085938 0,6.8614568 0.05429375,6.9497028 0.12109375,7.0039062 0.18785375,7.0581072 1.5590288,7.5286767 3.1679688,8.0488281 4.5484656,8.4951265 5.7367875,8.873545 6.0699631,8.9739476 6.1250966,8.9905621 6.2866688,8.9132034 6.1621094,9 6.1730054,9.0009112 6.2172929,8.9695585 6.2866688,8.9132034 6.4548487,8.7765884 6.7704652,8.4930431 7.1152344,8.1660156 L 7.8699854,7.4479192 8.1295563,7.447269 v 0 l 0.7649749,0.7265591 c 0.3775811,0.3581568 0.727677,0.6572768 0.8940029,0.7685855 0.050402,0.03373 -0.012302,0.00435 0,0 0.00896,-0.00317 0.1510768,0.02778 0.2288239,0.00273 C 10.398363,8.8223618 11.544513,8.4562065 12.859375,8.0371094 15.589974,7.1667622 16,7.0075506 16,6.8203125 16,6.7764244 15.613515,6.3708382 15.140625,5.9179688 14.667725,5.4650991 14.28125,5.0629761 14.28125,5.0234375 c 0,-0.039543 0.389857,-0.4485955 0.867188,-0.9082031 C 15.844758,3.444756 16.00725,3.2511705 15.96875,3.1347656 15.93023,3.0182254 15.491018,2.8486278 13.736328,2.2734375 12.534898,1.8796107 11.155575,1.4315708 10.671875,1.2792969 L 9.7929688,1.0039062 8.8964844,1.8632812 8.1595659,2.56809 v 0 L 7.816889,2.5451554 7.1015625,1.859375 Z m 1.8105469,2 2.2304691,0.7421875 c 0.797208,0.2649749 1.505145,0.5029144 1.906946,0.6409443 0.21621,0.074274 -0.09559,0.1196194 0.140395,0.1246807 -0.252139,0.00517 0.09158,0.051681 -0.123156,0.1274758 -0.38597,0.1362356 -1.070889,0.3670806 -1.85192,0.6225242 C 9.1008471,5.6553727 8.0745856,5.9893902 8.0351562,6 7.9617748,6.0197309 4.9065059,5.0208942 3.8526946,4.6453074 3.6267691,4.5647858 4.0002505,4.5129104 3.7919616,4.5058594 4.030262,4.5000738 3.6448173,4.4507742 3.8784822,4.370867 4.2879423,4.2308426 4.9883041,3.9968314 5.7734375,3.7382812 Z M 7.8961961,8.8027155 v 0 l -0.093462,0.08791 C 7.5511703,9.1292437 7.316254,9.3456488 7.1289062,9.5097656 c -0.093674,0.082058 -0.173593,0.1504285 -0.25,0.2109375 -0.038203,0.030254 -0.072915,0.05625 -0.1289062,0.09375 -0.027996,0.01875 -0.057715,0.041062 -0.1230469,0.074219 -0.032666,0.016578 -0.073706,0.036528 -0.1464843,0.060547 C 6.4440799,9.9612268 6.3984755,9.973435 6.3359375,9.984375 6.2738723,9.9952321 6.0835481,9.99613 6.0800781,9.9960938 6.0789125,9.9959976 5.9334905,9.97357 5.9140625,9.96875 5.8946335,9.963931 5.8826626,9.9602515 5.8710938,9.9570312 5.8479558,9.9505884 5.8277854,9.94498 5.8027344,9.9375 5.7526317,9.922542 5.6876729,9.9038207 5.6074219,9.8789062 5.4469196,9.829079 5.2237471,9.758428 4.9511719,9.671875 4.4060215,9.4987689 3.6672235,9.2605365 2.8613281,9 2.5337971,8.8941131 2.3032741,8.8137234 2.0039062,8.7148438 c 0.0052,1.8471702 0.037212,4.3326532 0.076172,4.3925782 0.039418,0.06062 1.3630086,0.533822 2.9394531,1.052734 h 0.00195 c 1.2788613,0.420917 2.4441837,0.787424 2.8386224,0.910812 0.091802,0.02872 0.1418463,0.04427 0.1418463,0.04427 v 0 c 0,0 0.060875,-0.03238 0.1709226,-0.06643 C 8.6011369,14.916299 9.7741005,14.551413 11.00195,14.152346 11.164576,14.09949 11.308677,14.051574 11.464844,14 L 11.167969,13.554688 C 10.725127,12.890134 11.201413,12.000171 12,12 v -2 c 0.0017,-0.1753292 0.04936,-0.3450168 0.13565,-0.4933153 0.05582,-0.095933 -0.128151,-0.1010511 -0.04199,-0.17482 -0.0841,0.026901 0.08606,-0.027522 0,0 -0.361142,0.115498 -0.726799,0.2323971 -0.990141,0.3165728 -0.269359,0.086099 -0.491501,0.1566523 -0.648438,0.2070313 -0.156938,0.050376 -0.343607,0.1141022 -0.236328,0.076172 -8.27e-4,2.92e-4 -0.16714,0.045774 -0.234375,0.052734 -0.067244,0.00695 -0.12359,0.00513 -0.171878,0.00195 C 9.7159111,9.9799697 9.6512824,9.9657049 9.5996094,9.9511719 9.4962625,9.9221049 9.4430935,9.8935007 9.3984375,9.8710938 9.3091255,9.8262801 9.2607545,9.7939096 9.2109375,9.7597656 9.1113032,9.6914776 9.0229611,9.6218144 8.9199219,9.5371094 8.7138435,9.3676996 8.467614,9.1475681 8.2070312,8.9003906 l -0.098489,-0.092914 z"
     id="path5"
     sodipodi:nodetypes="ccccscscsscscccccscssscscccccccccccccscsscscscccccsssssscssssssccccsccssccccscsscccsssssccc" />
  <path
     style="opacity:0.35;fill:currentColor"
     class="ColorScheme-Text"
     d="m 13,10 v 2.892274 L 12.866574,13 v 0 h -0.481315 l -0.201816,0.275165 v 0 L 13,14.5 l 0.801579,1.202368 0.406079,-0.01385 v 0 L 15,14.5 15.812685,13.280973 15.665755,13 v 0 h -0.556717 v 0 L 15,12.909241 V 10 Z"
     id="path7"
     sodipodi:nodetypes="cccccccccccccccccccc" />
</svg>
