<?xml version="1.0" encoding="UTF-8" standalone="no"?>
<svg
   width="16"
   height="16"
   version="1.1"
   id="svg7"
   sodipodi:docname="vmware-disabled.svg"
   inkscape:version="1.1.2 (0a00cf5339, 2022-02-04)"
   xmlns:inkscape="http://www.inkscape.org/namespaces/inkscape"
   xmlns:sodipodi="http://sodipodi.sourceforge.net/DTD/sodipodi-0.dtd"
   xmlns="http://www.w3.org/2000/svg"
   xmlns:svg="http://www.w3.org/2000/svg">
  <sodipodi:namedview
     id="namedview9"
     pagecolor="#ffffff"
     bordercolor="#666666"
     borderopacity="1.0"
     inkscape:pageshadow="2"
     inkscape:pageopacity="0.0"
     inkscape:pagecheckerboard="0"
     showgrid="false"
     inkscape:zoom="51.6875"
     inkscape:cx="7.8742443"
     inkscape:cy="11.869407"
     inkscape:window-width="1264"
     inkscape:window-height="789"
     inkscape:window-x="651"
     inkscape:window-y="286"
     inkscape:window-maximized="1"
     inkscape:current-layer="svg7" />
  <defs
     id="defs3">
    <style
       id="current-color-scheme"
       type="text/css">
   .ColorScheme-Text { color:#eeeeec; } .ColorScheme-Highlight { color:#367bf0; } .ColorScheme-NeutralText { color:#ffcc44; } .ColorScheme-PositiveText { color:#3db47e; } .ColorScheme-NegativeText { color:#dd4747; }
  </style>
  </defs>
  <path
     style="fill:currentColor"
     class="ColorScheme-NegativeText"
     d="M 10.5,9 C 9.669,9 9,9.669 9,10.5 v 4 c 0,0.831 0.669,1.5 1.5,1.5 h 4 c 0.831,0 1.5,-0.669 1.5,-1.5 v -4 C 16,9.669 15.331,9 14.5,9 Z m 0.756368,1.549336 v 0 L 12.5,11.792969 13.741655,10.551313 v 0 l 0.348772,0.004 0.375493,0.375493 -0.03728,0.347623 v 0 L 13.207031,12.5 l 1.246535,1.246534 v 0 l 0.01156,0.323494 -0.333668,0.333668 v 0 L 13.722392,14.429424 12.5,13.207031 l -1.222542,1.222543 -0.348474,0.03457 v 0 l -0.338043,-0.338043 v 0 L 10.508694,13.784274 11.792969,12.5 l -1.2354,-1.235399 v 0 l -0.04938,-0.307943 0.42165,-0.42165 z"
     id="path5"
     sodipodi:nodetypes="sssssssssccccccccccccccccccccccccccccc" />
</svg>
