<?xml version="1.0" encoding="UTF-8" standalone="no"?>
<svg
   width="16"
   height="16"
   version="1.1"
   id="svg7"
   sodipodi:docname="web-browser.svg"
   inkscape:version="1.1.2 (0a00cf5339, 2022-02-04)"
   xmlns:inkscape="http://www.inkscape.org/namespaces/inkscape"
   xmlns:sodipodi="http://sodipodi.sourceforge.net/DTD/sodipodi-0.dtd"
   xmlns="http://www.w3.org/2000/svg"
   xmlns:svg="http://www.w3.org/2000/svg">
  <sodipodi:namedview
     id="namedview9"
     pagecolor="#000000"
     bordercolor="#666666"
     borderopacity="1.0"
     inkscape:pageshadow="2"
     inkscape:pageopacity="0"
     inkscape:pagecheckerboard="0"
     showgrid="false"
     inkscape:zoom="47.25"
     inkscape:cx="8"
     inkscape:cy="8"
     inkscape:window-width="1912"
     inkscape:window-height="966"
     inkscape:window-x="0"
     inkscape:window-y="29"
     inkscape:window-maximized="1"
     inkscape:current-layer="svg7" />
  <defs
     id="defs3">
    <style
       id="current-color-scheme"
       type="text/css">
   .ColorScheme-Text { color:#eeeeec; } .ColorScheme-Highlight { color:#367bf0; } .ColorScheme-NeutralText { color:#ffcc44; } .ColorScheme-PositiveText { color:#3db47e; } .ColorScheme-NegativeText { color:#dd4747; }
  </style>
  </defs>
  <path
     style="fill:currentColor"
     class="ColorScheme-Text"
     d="M 8,1 C 4.134,1 1,4.134 1,8 c 0,3.866 3.134,7 7,7 3.866,0 7,-3.134 7,-7 C 15,4.134 11.866,1 8,1 Z M 7.5,2.9375 C 7.9693,2.8762 7.4089,3.451 7.416,3.707 7.1448,4.5738 7.0652,5.618 7.6406,6.3828 7.6669,6.6688 7.0408,6.3858 6.8926,6.2285 6.5605,6.0283 6.1677,5.5126 5.752,5.7539 5.3904,5.9793 5.247,6.463 5.5215,6.8145 5.9839,7.4294 6.78,7.634 7.4902,7.8145 8.263,8.0035 9.115,8.1148 9.7461,8.6406 10.238,9.116 10.21,9.879 10.092,10.502 9.8391,11.632 8.823,12.381 7.8223,12.832 7.2797,13.114 7.6022,12.232 7.4238,11.945 7.2927,11.33 6.9303,10.767 6.3809,10.449 6.0801,10.218 5.6844,10.076 5.4746,9.748 5.4178,9.3082 5.679,8.8609 5.9609,8.5352 6.0756,8.3071 6.8093,8.0491 6.2188,8.0078 5.196188,7.7920186 4.1249971,7.5055772 3.3096223,6.8234946 c -0.052217,-0.04368 0.050038,0.047011 0,0 C 3.3292634,6.7420062 3.1976713,6.5251542 3.2216198,6.4450027 3.784155,4.5622942 5.5154856,3.0690976 7.5,2.9375 Z m 4.846169,2.5796942 c 0.03192,0.020178 -0.06891,-0.127328 0,0 C 12.525528,5.848612 12.78325,6.4431688 12.875,6.7812 c 0.163,0.6042 0.152,1.65 0,2.25 -0.058,0.2286 0.024,-0.0266 0,0 C 12.85,9.0578 12.605,9.3735 12.5,9.1875 12.395,9.0016 12.06,8.6064 11.781,8.3125 10.977,7.464 10.851,7.0209 11.188,6.3438 c 0.118267,-0.2418456 0.524411,-0.7021567 0.784053,-0.9303227 0.106987,-0.094018 0.347269,0.087375 0.374116,0.1037169 z"
     id="path5"
     sodipodi:nodetypes="ssssscccccccccccccccscsccsccccccsc" />
</svg>
