<?xml version="1.0" encoding="UTF-8" standalone="no"?>
<svg
   height="16"
   width="16"
   version="1.1"
   id="svg6"
   sodipodi:docname="window-restore-symbolic (copy).svg"
   inkscape:version="1.1.2 (0a00cf5339, 2022-02-04)"
   xmlns:inkscape="http://www.inkscape.org/namespaces/inkscape"
   xmlns:sodipodi="http://sodipodi.sourceforge.net/DTD/sodipodi-0.dtd"
   xmlns="http://www.w3.org/2000/svg"
   xmlns:svg="http://www.w3.org/2000/svg">
  <defs
     id="defs10" />
  <sodipodi:namedview
     id="namedview8"
     pagecolor="#000000"
     bordercolor="#666666"
     borderopacity="1.0"
     inkscape:pageshadow="2"
     inkscape:pageopacity="0"
     inkscape:pagecheckerboard="0"
     showgrid="false"
     inkscape:zoom="51.9375"
     inkscape:cx="7.990373"
     inkscape:cy="7.9614922"
     inkscape:window-width="1920"
     inkscape:window-height="1051"
     inkscape:window-x="0"
     inkscape:window-y="29"
     inkscape:window-maximized="1"
     inkscape:current-layer="g4" />
  <g
     color="#ffffff"
     transform="translate(-773 -157)"
     id="g4">
    <path
       d="m 781.60838,169.58742 0.37926,0.10793 0.49923,-0.17327 v 0 l 0.75019,-0.7593 1.714,1.715 0.027,0.026 c 0.42,0.381 1.068,0.38 1.474,-0.026 0.40758,-0.39873 0.43089,-1.04702 0.053,-1.474 l -0.214,-0.214 -1.527,-1.553 0.73011,-0.72168 0.11952,-0.57028 v 0 l -0.26095,-0.44244 -0.21711,-0.25848 -0.55693,-0.23116 v 0 h -3.56464 v 3.93119 0 l 0.27876,0.52142 z m -5.0632,-5.09913 0.23276,0.32295 v 0 l 0.5111,0.2015 h 3.72502 v -3.8524 0 l -0.26165,-0.54044 -0.27404,-0.2296 -0.4397,-0.0651 -0.5016,0.16457 v 0 l -0.77301,0.77301 -1.714,-1.714 -0.027,-0.027 c -0.42,-0.38 -1.068,-0.378 -1.473,0.027 -0.406,0.405 -0.434,1.08 -0.054,1.5 l 0.214,0.188 1.554,1.553 -0.7537,0.74466 -0.13523,0.54736 v 0 z"
       fill="#ffffff"
       overflow="visible"
       style="marker:none"
       id="path2"
       sodipodi:nodetypes="cccccccccccccccccccccccccccccccccccccccccccccc" />
  </g>
</svg>
