<?xml version="1.0" encoding="UTF-8" standalone="no"?>
<svg
   width="16"
   height="16"
   version="1.1"
   id="svg20"
   sodipodi:docname="window-unpin.svg"
   inkscape:version="1.2 (dc2aedaf03, 2022-05-15)"
   xmlns:inkscape="http://www.inkscape.org/namespaces/inkscape"
   xmlns:sodipodi="http://sodipodi.sourceforge.net/DTD/sodipodi-0.dtd"
   xmlns="http://www.w3.org/2000/svg"
   xmlns:svg="http://www.w3.org/2000/svg">
  <sodipodi:namedview
     id="namedview22"
     pagecolor="#505050"
     bordercolor="#ffffff"
     borderopacity="1"
     inkscape:showpageshadow="0"
     inkscape:pageopacity="0"
     inkscape:pagecheckerboard="1"
     inkscape:deskcolor="#505050"
     showgrid="false"
     inkscape:zoom="54.625"
     inkscape:cx="8"
     inkscape:cy="12.347826"
     inkscape:window-width="1574"
     inkscape:window-height="1080"
     inkscape:window-x="172"
     inkscape:window-y="-1"
     inkscape:window-maximized="1"
     inkscape:current-layer="svg20" />
  <defs
     id="defs14">
    <style
       id="current-color-scheme"
       type="text/css">
   .ColorScheme-Text { color:#eeeeec; } .ColorScheme-Highlight { color:#367bf0; } .ColorScheme-NeutralText { color:#ffcc44; } .ColorScheme-PositiveText { color:#3db47e; } .ColorScheme-NegativeText { color:#dd4747; }
  </style>
  </defs>
  <path
     style="opacity:0.35;fill:currentColor"
     class="ColorScheme-Text"
     d="M 4.0214844,0 C 3.7305148,4.096652e-4 3.4543107,0.12887668 3.265625,0.3515625 L 11.914062,9 H 14 V 7 C 12.695714,7 10.944251,6.326829 11,5 V 2 h 0.978516 c 1.345107,0.019125 1.345107,-2.01912521 0,-2 z M 3.7016266,6.7486561 C 3.5688424,6.9058511 3.5959781,6.6863781 3.5331033,6.7108614 3.0411234,6.9024371 2.493098,7 2,7 V 9 H 5.6499146 L 5.7587544,8.8773945 5.7934456,8.7075081 3.9212859,6.8353484 Z M 7.1146846,10.140076 7,10.279568 V 15 l 0.734516,0.752144 0.2501205,0.01411 0.257698,-0.02594 L 9,15 v -3.085938 l -1.72363,-1.72363 z"
     id="path16"
     sodipodi:nodetypes="cccccccccccsccccccccccccccccc" />
  <path
     style="fill:currentColor"
     class="ColorScheme-Text"
     d="M 0.1280592,0.10653368 -1e-7,0.24497975 V 1.5000001 L 14.5,16 h 1.201558 L 15.873804,15.874121 16,15.696041 V 14.5 l -14.5000001,-14.4999999 -1.25346815,0 z"
     id="path18"
     sodipodi:nodetypes="ccccccccccc" />
</svg>
