<?xml version="1.0" encoding="UTF-8" standalone="no"?>
<svg
   width="16"
   height="16"
   version="1.1"
   id="svg270876"
   sodipodi:docname="window-keep-below.svg"
   inkscape:version="1.1.2 (0a00cf5339, 2022-02-04)"
   xmlns:inkscape="http://www.inkscape.org/namespaces/inkscape"
   xmlns:sodipodi="http://sodipodi.sourceforge.net/DTD/sodipodi-0.dtd"
   xmlns="http://www.w3.org/2000/svg"
   xmlns:svg="http://www.w3.org/2000/svg">
  <sodipodi:namedview
     id="namedview270878"
     pagecolor="#000000"
     bordercolor="#666666"
     borderopacity="1.0"
     inkscape:pageshadow="2"
     inkscape:pageopacity="0"
     inkscape:pagecheckerboard="true"
     showgrid="false"
     inkscape:zoom="51.6875"
     inkscape:cx="8"
     inkscape:cy="7.8742443"
     inkscape:window-width="1920"
     inkscape:window-height="1051"
     inkscape:window-x="0"
     inkscape:window-y="29"
     inkscape:window-maximized="1"
     inkscape:current-layer="svg270876" />
  <defs
     id="defs270872">
    <style
       id="current-color-scheme"
       type="text/css">
   .ColorScheme-Text { color:#eeeeec; } .ColorScheme-Highlight { color:#367bf0; } .ColorScheme-NeutralText { color:#ffcc44; } .ColorScheme-PositiveText { color:#3db47e; } .ColorScheme-NegativeText { color:#dd4747; }
  </style>
  </defs>
  <path
     style="fill:currentColor"
     class="ColorScheme-Text"
     d="m 8.005461,5.1448742 v 0 l 0.5020144,0.08001 v 0 l 0.2801033,0.218136 v 0 l 4.9062423,4.9062458 0.183817,0.183817 v 0 l 0.428963,0.428963 0.15034,0.15034 v 0 0 l -0.76312,-0.76312 0.152293,0.337267 0.01626,0.289787 -0.19431,0.561358 v 0 0 l -0.29503,0.235508 h 0.863871 v 0 0 0 h -0.863871 v 0 0 H 3.0424633 2.6222983 2.1257882 v 0 h -0.584197 0.584197 0.4965101 0.420165 l -0.524227,-0.268064 -0.09291,-0.239329 -0.06958,-0.507723 -0.154187,-0.0687 v 0 0 l 0.154187,0.0687 v 0 l 0.182563,-0.405454 v 0 0 l 4.965095,-4.9650918 0.112483,-0.112483 v 0 0 l -0.112485,0.112483 v 0 0 z"
     id="path270874"
     sodipodi:nodetypes="cccccccccccccccccccccccccccccccccccccccccccccccccccccc" />
</svg>
