<?xml version="1.0" encoding="UTF-8" standalone="no"?>
<svg
   width="16"
   height="16"
   version="1.1"
   id="svg6"
   sodipodi:docname="window-pop-out-symbolic.svg"
   inkscape:version="1.1.2 (0a00cf5339, 2022-02-04)"
   xmlns:inkscape="http://www.inkscape.org/namespaces/inkscape"
   xmlns:sodipodi="http://sodipodi.sourceforge.net/DTD/sodipodi-0.dtd"
   xmlns="http://www.w3.org/2000/svg"
   xmlns:svg="http://www.w3.org/2000/svg">
  <defs
     id="defs10" />
  <sodipodi:namedview
     id="namedview8"
     pagecolor="#000000"
     bordercolor="#666666"
     borderopacity="1.0"
     inkscape:pageshadow="2"
     inkscape:pageopacity="0"
     inkscape:pagecheckerboard="0"
     showgrid="false"
     inkscape:zoom="51.9375"
     inkscape:cx="7.990373"
     inkscape:cy="7.9807461"
     inkscape:window-width="1920"
     inkscape:window-height="1051"
     inkscape:window-x="0"
     inkscape:window-y="29"
     inkscape:window-maximized="1"
     inkscape:current-layer="svg6" />
  <path
     fill="#ffffff"
     d="M 9,6.95 2.07,7.02 C 1.49,7.02 1.26,7.35 1.16,7.63 1.15,7.65 1.15,7.66 1.14,7.68 1.09,7.86 1.07,8.02 1.07,8.02 V 14.02 C 1.07,14.54 1.55,15.02 2.07,15.02 H 7.07 L 9,14.95 C 9.52,14.95 10,14.47 10,13.95 V 7.95 C 10,7.95 9.98,7.78 9.92,7.59 9.92,7.58 9.92,7.58 9.91,7.57 9.81,7.28 9.59,6.94 9,6.95 Z M 2,9 H 9 V 14 H 4.9 L 2.07,14.02 V 14 H 2 Z"
     id="path2" />
  <path
     fill="#ffffff"
     d="M 11.503793,1.463594 11.324327,1.8750077 11.43644,2.417287 v 0 L 12.25,3.22 10.54,4.94 10.51,4.96 c -0.38,0.42 -0.38,1.07 0.03,1.48 0.399061,0.4041906 1.044397,0.4261408 1.47,0.05 l 0.21,-0.21 1.56,-1.53 0.722347,0.7321082 0.531079,0.1611164 v 0 L 15.548506,5.5270923 15.848725,5.2931125 16,4.9574678 v 0 V 1.622491 L 15.703419,1.3465704 15.320254,1 H 12.279797 V 1 L 11.81019,1.1496181 Z"
     id="path4"
     sodipodi:nodetypes="ccccccccccccccccccccccccc" />
</svg>
