<?xml version="1.0" encoding="UTF-8" standalone="no"?>
<svg
   width="16"
   height="16"
   version="1.1"
   id="svg270876"
   sodipodi:docname="window-keep-below.svg"
   inkscape:version="1.1.2 (0a00cf5339, 2022-02-04)"
   xmlns:inkscape="http://www.inkscape.org/namespaces/inkscape"
   xmlns:sodipodi="http://sodipodi.sourceforge.net/DTD/sodipodi-0.dtd"
   xmlns="http://www.w3.org/2000/svg"
   xmlns:svg="http://www.w3.org/2000/svg">
  <sodipodi:namedview
     id="namedview270878"
     pagecolor="#000000"
     bordercolor="#666666"
     borderopacity="1.0"
     inkscape:pageshadow="2"
     inkscape:pageopacity="0"
     inkscape:pagecheckerboard="true"
     showgrid="false"
     inkscape:zoom="51.6875"
     inkscape:cx="8"
     inkscape:cy="7.9032648"
     inkscape:window-width="1920"
     inkscape:window-height="1051"
     inkscape:window-x="0"
     inkscape:window-y="29"
     inkscape:window-maximized="1"
     inkscape:current-layer="svg270876" />
  <defs
     id="defs270872">
    <style
       id="current-color-scheme"
       type="text/css">
   .ColorScheme-Text { color:#eeeeec; } .ColorScheme-Highlight { color:#367bf0; } .ColorScheme-NeutralText { color:#ffcc44; } .ColorScheme-PositiveText { color:#3db47e; } .ColorScheme-NegativeText { color:#dd4747; }
  </style>
  </defs>
  <path
     style="fill:currentColor"
     class="ColorScheme-Text"
     d="m 7.9930704,11.773185 v 0 l -0.5020142,-0.08001 v 0 L 7.2109529,11.475039 v 0 L 2.3047101,6.5687932 2.1208932,6.3849762 v 0 l -0.428963,-0.428963 -0.15034,-0.15034 v 0 0 L 2.3047101,6.5687932 2.1524171,6.2315259 2.1361596,5.9417396 2.3304689,5.3803817 v 0 0 L 2.6254995,5.1448733 H 1.7616282 v 0 0 0 h 0.8638713 v 0 0 h 10.3305705 0.420165 0.49651 v 0 h 0.584197 -0.584197 -0.49651 -0.420165 l 0.524227,0.268064 0.09291,0.2393286 0.06958,0.5077234 0.154187,0.068701 v 0 0 l -0.154187,-0.068701 v 0 l -0.182563,0.405454 v 0 0 L 8.495129,11.530535 8.3826461,11.643018 v 0 0 L 8.495129,11.530535 v 0 0 z"
     id="path270874"
     sodipodi:nodetypes="cccccccccccccccccccccccccccccccccccccccccccccccccccccc" />
</svg>
