<?xml version="1.0" encoding="UTF-8" standalone="no"?>
<svg
   height="16"
   width="16"
   version="1.1"
   id="svg6"
   sodipodi:docname="window-maximize-symbolic (copy).svg"
   inkscape:version="1.1.2 (0a00cf5339, 2022-02-04)"
   xmlns:inkscape="http://www.inkscape.org/namespaces/inkscape"
   xmlns:sodipodi="http://sodipodi.sourceforge.net/DTD/sodipodi-0.dtd"
   xmlns="http://www.w3.org/2000/svg"
   xmlns:svg="http://www.w3.org/2000/svg">
  <defs
     id="defs10" />
  <sodipodi:namedview
     id="namedview8"
     pagecolor="#000000"
     bordercolor="#666666"
     borderopacity="1.0"
     inkscape:pageshadow="2"
     inkscape:pageopacity="0"
     inkscape:pagecheckerboard="0"
     showgrid="false"
     inkscape:zoom="51.9375"
     inkscape:cx="7.990373"
     inkscape:cy="7.9422383"
     inkscape:window-width="1920"
     inkscape:window-height="1051"
     inkscape:window-x="0"
     inkscape:window-y="29"
     inkscape:window-maximized="1"
     inkscape:current-layer="g4" />
  <g
     color="#ffffff"
     transform="translate(-753 -157)"
     id="g4">
    <path
       d="m 766.61378,166.44386 v 0 l -0.41803,-0.17209 v 0 l -0.61057,0.16024 -0.80818,0.81799 -1.714,-1.714 -0.027,-0.027 c -0.42,-0.38 -1.068,-0.378 -1.474,0.027 -0.40695,0.39861 -0.43025,1.04617 -0.053,1.473 l 0.214,0.215 1.527,1.553 -0.80034,0.79074 v 0 l -0.12106,0.59364 0.18768,0.36682 0.10621,0.22349 v 0 l 0.529,0.24831 h 3.2355 v 0 L 767,170.29179 v -3.26934 z m -7.01095,-6.83262 -0.2562,-0.35998 v 0 L 758.76907,159 h -3.02288 l -0.42197,0.40955 L 755,159.74782 v 3.14284 l 0.25636,0.52651 v 0 l 0.25445,0.0909 0.38379,0.1261 v 0 l 0.6056,-0.13441 0.7498,-0.7498 1.714,1.715 0.027,0.026 c 0.42,0.381 1.068,0.38 1.473,-0.026 0.406,-0.406 0.434,-1.08 0.054,-1.5 l -0.214,-0.188 -1.554,-1.553 0.77281,-0.76388 0.16442,-0.56439 v 0 z"
       fill="#ffffff"
       overflow="visible"
       style="marker:none"
       id="path2"
       sodipodi:nodetypes="ccccccccccccccccccccccccccccccccccccccccccccccccc" />
  </g>
</svg>
