<?xml version="1.0" encoding="UTF-8" standalone="no"?>
<svg
   width="16"
   height="16"
   version="1.1"
   id="svg1223"
   sodipodi:docname="zoom-select-y.svg"
   inkscape:version="1.1.2 (0a00cf5339, 2022-02-04)"
   xmlns:inkscape="http://www.inkscape.org/namespaces/inkscape"
   xmlns:sodipodi="http://sodipodi.sourceforge.net/DTD/sodipodi-0.dtd"
   xmlns="http://www.w3.org/2000/svg"
   xmlns:svg="http://www.w3.org/2000/svg">
  <sodipodi:namedview
     id="namedview1225"
     pagecolor="#000000"
     bordercolor="#666666"
     borderopacity="1.0"
     inkscape:pageshadow="2"
     inkscape:pageopacity="0"
     inkscape:pagecheckerboard="0"
     showgrid="false"
     inkscape:zoom="51.6875"
     inkscape:cx="2.8633615"
     inkscape:cy="8"
     inkscape:window-width="1920"
     inkscape:window-height="1051"
     inkscape:window-x="0"
     inkscape:window-y="29"
     inkscape:window-maximized="1"
     inkscape:current-layer="svg1223" />
  <defs
     id="defs1219">
    <style
       id="current-color-scheme"
       type="text/css">
   .ColorScheme-Text { color:#eeeeec; } .ColorScheme-Highlight { color:#367bf0; } .ColorScheme-NeutralText { color:#ffcc44; } .ColorScheme-PositiveText { color:#3db47e; } .ColorScheme-NegativeText { color:#dd4747; }
  </style>
  </defs>
  <path
     style="fill:currentColor"
     class="ColorScheme-Text"
     d="m 12,9 v 2.786424 0 L 11.833651,12 H 9 v 2 h 4 c 1,0 1,-1 1,-1 V 9 Z M 2,9 v 4 c 0,0 0,1 1,1 H 7 V 12 H 4.1830978 v 0 L 4,11.844437 V 9 Z M 9,2 v 2 h 2.837768 V 4 L 12,4.2399669 V 7 h 2 V 3 C 14,3 14,2 13,2 Z M 3,2 C 2,2 2,3 2,3 v 4 h 2 v -2.8471798 0 L 4.1604574,4 H 7 V 2 Z m 3.2796015,8.279602 v 0 l 1.5115564,1.511556 v 0 L 8.22637,11.77363 9.6942078,10.305792 9.6033161,10 v 0 H 6.438114 Z M 5,7.2687047 v 0 1.4886107 L 5.241427,9 v 0 h 5.502518 V 9 L 11,8.8183499 v -1.5890821 0 L 10.786694,7 H 5.2665366 Z M 7.7782114,4.2217886 v 0 L 6.2587643,5.7412357 v 0 L 6.3886672,6 H 9.6802933 V 6 L 9.7022733,5.7022733 8.2112469,4.2112469 Z"
     id="path1221"
     sodipodi:nodetypes="ccccccscccccscccccccccccccccscsccccccccsccccccccccccccccccccccccccccccccc" />
</svg>
