<?xml version="1.0" encoding="UTF-8" standalone="no"?>
<svg
   width="16"
   height="16"
   version="1.1"
   id="svg55"
   sodipodi:docname="zoom-previous.svg"
   inkscape:version="1.1.2 (0a00cf5339, 2022-02-04)"
   xmlns:inkscape="http://www.inkscape.org/namespaces/inkscape"
   xmlns:sodipodi="http://sodipodi.sourceforge.net/DTD/sodipodi-0.dtd"
   xmlns="http://www.w3.org/2000/svg"
   xmlns:svg="http://www.w3.org/2000/svg">
  <sodipodi:namedview
     id="namedview57"
     pagecolor="#000000"
     bordercolor="#666666"
     borderopacity="1.0"
     inkscape:pageshadow="2"
     inkscape:pageopacity="0"
     inkscape:pagecheckerboard="0"
     showgrid="false"
     inkscape:zoom="52.0625"
     inkscape:cx="7.9903962"
     inkscape:cy="8"
     inkscape:window-width="1912"
     inkscape:window-height="1043"
     inkscape:window-x="3"
     inkscape:window-y="32"
     inkscape:window-maximized="1"
     inkscape:current-layer="svg55" />
  <defs
     id="defs51">
    <style
       id="current-color-scheme"
       type="text/css">
   .ColorScheme-Text { color:#eeeeec; } .ColorScheme-Highlight { color:#367bf0; } .ColorScheme-NeutralText { color:#ffcc44; } .ColorScheme-PositiveText { color:#3db47e; } .ColorScheme-NegativeText { color:#dd4747; }
  </style>
  </defs>
  <path
     style="fill:currentColor"
     class="ColorScheme-Text"
     d="M 3,2 C 2,2 2,3 2,3 V 7 H 4 V 4 H 7 V 2 Z m 6,0 v 2 h 3 v 3 h 2 V 3 C 14,3 14,2 13,2 Z M 7.7388598,5.2611402 v 0 L 5.1829349,7.8170651 v 0 l 0.00128,0.3671523 2.5039544,2.5039546 v 0 L 8,10.631558 V 9 h 3 V 7 H 8 V 5.3961374 Z M 2,9 v 4 c 0,0 0,1 1,1 H 7 V 12 H 4 V 9 Z m 10,0 v 3 H 9 v 2 h 4 c 1,0 1,-1 1,-1 V 9 Z"
     id="path53"
     sodipodi:nodetypes="sccccccsccccccscccccccccccccccccscccccccccsccc" />
</svg>
