<?xml version="1.0" encoding="UTF-8" standalone="no"?>
<svg
   width="16"
   height="16"
   version="1.1"
   id="svg7"
   sodipodi:docname="zoom-fit-drawing.svg"
   inkscape:version="1.1.2 (0a00cf5339, 2022-02-04)"
   xmlns:inkscape="http://www.inkscape.org/namespaces/inkscape"
   xmlns:sodipodi="http://sodipodi.sourceforge.net/DTD/sodipodi-0.dtd"
   xmlns="http://www.w3.org/2000/svg"
   xmlns:svg="http://www.w3.org/2000/svg">
  <sodipodi:namedview
     id="namedview9"
     pagecolor="#000000"
     bordercolor="#666666"
     borderopacity="1.0"
     inkscape:pageshadow="2"
     inkscape:pageopacity="0"
     inkscape:pagecheckerboard="0"
     showgrid="false"
     inkscape:zoom="47.25"
     inkscape:cx="8"
     inkscape:cy="8"
     inkscape:window-width="1912"
     inkscape:window-height="966"
     inkscape:window-x="0"
     inkscape:window-y="29"
     inkscape:window-maximized="1"
     inkscape:current-layer="svg7" />
  <defs
     id="defs3">
    <style
       id="current-color-scheme"
       type="text/css">
   .ColorScheme-Text { color:#eeeeec; } .ColorScheme-Highlight { color:#367bf0; } .ColorScheme-NeutralText { color:#ffcc44; } .ColorScheme-PositiveText { color:#3db47e; } .ColorScheme-NegativeText { color:#dd4747; }
  </style>
  </defs>
  <path
     style="fill:currentColor"
     class="ColorScheme-Text"
     d="m 12,9 v 2.64489 L 11.728913,12 v 0 H 9 v 2 h 4 c 1,0 1,-1 1,-1 V 9 Z M 2,9 v 4 c 0,0 0,1 1,1 H 7 V 12 H 4.3010293 v 0 L 4,11.750605 V 9 Z M 9,2 v 2 h 2.750524 V 4 L 12,4.25876 V 7 h 2 V 3 C 14,3 14,2 13,2 Z M 3,2 C 2,2 2,3 2,3 v 4 h 2 v -2.7621257 0 L 4.3220215,4 H 7 V 2 Z M 5.168541,5 5,5.2111455 V 8.7877333 L 5.232139,9 V 9 H 6.7769898 L 7,9.1900228 v 0 1.6081952 L 7.1789486,11 v 0 h 3.5978634 v 0 L 11,10.734919 v -3.534174 0 L 10.8614,7 H 9.2109659 L 9,6.7984555 v 0 -1.58731 L 8.7873974,5 v 0 z"
     id="path5"
     sodipodi:nodetypes="ccccccscccccscccccccccccccccscsccccccccsccccccccccccccccccccccccc" />
</svg>
