<?xml version="1.0" encoding="UTF-8" standalone="no"?>
<svg
   width="16"
   height="16"
   version="1.1"
   id="svg2348432"
   sodipodi:docname="zoom-2-to-1.svg"
   inkscape:version="1.1.2 (0a00cf5339, 2022-02-04)"
   xmlns:inkscape="http://www.inkscape.org/namespaces/inkscape"
   xmlns:sodipodi="http://sodipodi.sourceforge.net/DTD/sodipodi-0.dtd"
   xmlns="http://www.w3.org/2000/svg"
   xmlns:svg="http://www.w3.org/2000/svg">
  <sodipodi:namedview
     id="namedview2348434"
     pagecolor="#474747"
     bordercolor="#666666"
     borderopacity="1.0"
     inkscape:pageshadow="2"
     inkscape:pageopacity="0"
     inkscape:pagecheckerboard="0"
     showgrid="false"
     inkscape:zoom="51.6875"
     inkscape:cx="7.9903265"
     inkscape:cy="8"
     inkscape:window-width="1920"
     inkscape:window-height="1051"
     inkscape:window-x="0"
     inkscape:window-y="29"
     inkscape:window-maximized="1"
     inkscape:current-layer="svg2348432" />
  <defs
     id="defs2348428">
    <style
       id="current-color-scheme"
       type="text/css">
   .ColorScheme-Text { color:#eeeeec; } .ColorScheme-Highlight { color:#367bf0; } .ColorScheme-NeutralText { color:#ffcc44; } .ColorScheme-PositiveText { color:#3db47e; } .ColorScheme-NegativeText { color:#dd4747; }
  </style>
  </defs>
  <path
     style="fill:currentColor"
     class="ColorScheme-Text"
     d="m 12,9 v 3 H 9 v 2 h 4 c 1,0 1,-1 1,-1 V 9 Z M 2,9 v 4 c 0,0 0,1 1,1 H 7 V 12 H 4 V 9 Z M 9,2 v 2 h 3 v 3 h 2 V 3 C 14,3 14,2 13,2 Z M 3,2 C 2,2 2,3 2,3 V 7 H 4 V 4 H 7 V 2 Z m 7,8 h 1 V 6 H 10 Z M 8,6.3726413 v 0 3.151905 l 0.2970994,0.1783543 v 0 L 9.7864298,8.2135702 v 0 L 9.7695555,7.7695555 8.2873175,6.2873175 Z M 5,5 v 6 H 7 V 5 Z"
     id="path2348430"
     sodipodi:nodetypes="ccccscccccscccccccccccscsccccccscccccccccccccccccccc" />
</svg>
