<?xml version="1.0" encoding="UTF-8" standalone="no"?>
<svg
   width="18"
   height="18"
   version="1.1"
   id="svg11"
   sodipodi:docname="boundingbox_top_right.svg"
   inkscape:version="1.1.2 (0a00cf5339, 2022-02-04)"
   xmlns:inkscape="http://www.inkscape.org/namespaces/inkscape"
   xmlns:sodipodi="http://sodipodi.sourceforge.net/DTD/sodipodi-0.dtd"
   xmlns="http://www.w3.org/2000/svg"
   xmlns:svg="http://www.w3.org/2000/svg">
  <sodipodi:namedview
     id="namedview13"
     pagecolor="#000000"
     bordercolor="#666666"
     borderopacity="1.0"
     inkscape:pageshadow="2"
     inkscape:pageopacity="0"
     inkscape:pagecheckerboard="0"
     showgrid="false"
     inkscape:zoom="41.888889"
     inkscape:cx="8.9880637"
     inkscape:cy="9"
     inkscape:window-width="1770"
     inkscape:window-height="966"
     inkscape:window-x="0"
     inkscape:window-y="29"
     inkscape:window-maximized="1"
     inkscape:current-layer="svg11" />
  <defs
     id="defs3">
    <style
       id="current-color-scheme"
       type="text/css">
   .ColorScheme-Text { color:#eeeeec; } .ColorScheme-Highlight { color:#367bf0; } .ColorScheme-NeutralText { color:#ffcc44; } .ColorScheme-PositiveText { color:#3db47e; } .ColorScheme-NegativeText { color:#dd4747; }
  </style>
  </defs>
  <path
     style="opacity:.35;fill:currentColor"
     class="ColorScheme-Text"
     d="M 18,5 A 5,5 0 0 1 13,10 5,5 0 0 1 8,5 5,5 0 0 1 13,0 5,5 0 0 1 18,5 Z"
     id="path5" />
  <path
     style="opacity:0.7;fill:currentColor"
     class="ColorScheme-Text"
     d="M 13,0 A 5,5 0 0 0 8,5 5,5 0 0 0 13,10 5,5 0 0 0 18,5 5,5 0 0 0 13,0 Z M 13,1 A 4,4 0 0 1 17,5 4,4 0 0 1 13,9 4,4 0 0 1 9,5 4,4 0 0 1 13,1 Z"
     id="path7" />
  <path
     style="fill:currentColor"
     class="ColorScheme-Text"
     d="m 14,18 v -13.6496975 0 L 13.731887,4 H 0 V 6 H 11.798298 L 12,6.2600054 v 0 V 18 Z"
     id="path9"
     sodipodi:nodetypes="ccccccccccc" />
</svg>
