<?xml version="1.0" encoding="UTF-8" standalone="no"?>
<svg
   width="18"
   height="18"
   version="1.1"
   id="svg9"
   sodipodi:docname="dialog-fill-and-stroke.svg"
   inkscape:version="1.1.2 (0a00cf5339, 2022-02-04)"
   xmlns:inkscape="http://www.inkscape.org/namespaces/inkscape"
   xmlns:sodipodi="http://sodipodi.sourceforge.net/DTD/sodipodi-0.dtd"
   xmlns="http://www.w3.org/2000/svg"
   xmlns:svg="http://www.w3.org/2000/svg">
  <sodipodi:namedview
     id="namedview11"
     pagecolor="#000000"
     bordercolor="#666666"
     borderopacity="1.0"
     inkscape:pageshadow="2"
     inkscape:pageopacity="0"
     inkscape:pagecheckerboard="0"
     showgrid="false"
     inkscape:zoom="41.888889"
     inkscape:cx="9.0119363"
     inkscape:cy="9"
     inkscape:window-width="1770"
     inkscape:window-height="966"
     inkscape:window-x="0"
     inkscape:window-y="29"
     inkscape:window-maximized="1"
     inkscape:current-layer="g7" />
  <defs
     id="defs3">
    <style
       id="current-color-scheme"
       type="text/css">
   .ColorScheme-Text { color:#eeeeec; } .ColorScheme-Highlight { color:#367bf0; } .ColorScheme-NeutralText { color:#ffcc44; } .ColorScheme-PositiveText { color:#3db47e; } .ColorScheme-NegativeText { color:#dd4747; }
  </style>
  </defs>
  <g
     transform="translate(1,1)"
     id="g7">
    <path
       style="fill:currentColor"
       class="ColorScheme-Text"
       d="m 14.747452,1.112564 c -0.248642,0.1067045 0.142496,-0.090407 0,0 C 13.59326,1.8448404 8.796428,5.9556411 6.8828125,8.1171875 7.4414213,8.2598092 7.9945975,8.5388413 8.3867188,9.0761719 8.4910496,9.2191385 8.5750299,9.3872587 8.65625,9.5566406 10.728319,7.2926598 14.279156,2.406101 14.904936,1.2500722 14.980253,1.110936 14.656294,1.3567768 14.747452,1.112564 Z M 6.1503906,9 C 5.120145,9.0306611 4.135565,9.8674859 3.4511719,11.628906 2.892663,13.064585 2.0220011,13.886155 1.4701214,14.221481 c -0.2219435,0.134855 0.077792,0.01411 0,0 0.1338602,0.05199 -0.1772196,0.288368 0.00211,0.349151 1.6793608,0.569205 5.1379714,1.258127 6.3578459,-2.908523 0.3291075,-0.782704 0.1456669,-1.455857 -0.25,-1.9980465 C 7.2706834,9.2400934 6.7483789,9.0555723 6.1503906,9 Z"
       id="path5"
       sodipodi:nodetypes="cscscscccscscsc" />
  </g>
</svg>
