<?xml version="1.0" encoding="UTF-8" standalone="no"?>
<svg
   width="18"
   height="18"
   version="1.1"
   id="svg11"
   sodipodi:docname="draw-ellipse-chord.svg"
   inkscape:version="1.1.2 (0a00cf5339, 2022-02-04)"
   xmlns:inkscape="http://www.inkscape.org/namespaces/inkscape"
   xmlns:sodipodi="http://sodipodi.sourceforge.net/DTD/sodipodi-0.dtd"
   xmlns="http://www.w3.org/2000/svg"
   xmlns:svg="http://www.w3.org/2000/svg">
  <sodipodi:namedview
     id="namedview13"
     pagecolor="#000000"
     bordercolor="#666666"
     borderopacity="1.0"
     inkscape:pageshadow="2"
     inkscape:pageopacity="0"
     inkscape:pagecheckerboard="0"
     showgrid="false"
     inkscape:zoom="41.888889"
     inkscape:cx="8.9880637"
     inkscape:cy="9"
     inkscape:window-width="1770"
     inkscape:window-height="966"
     inkscape:window-x="0"
     inkscape:window-y="29"
     inkscape:window-maximized="1"
     inkscape:current-layer="g9" />
  <defs
     id="defs3">
    <style
       id="current-color-scheme"
       type="text/css">
   .ColorScheme-Text { color:#eeeeec; } .ColorScheme-Highlight { color:#367bf0; } .ColorScheme-NeutralText { color:#ffcc44; } .ColorScheme-PositiveText { color:#3db47e; } .ColorScheme-NegativeText { color:#dd4747; }
  </style>
  </defs>
  <g
     transform="translate(1,1)"
     id="g9">
    <path
       style="fill:currentColor;opacity:.35"
       class="ColorScheme-Text"
       d="M 15,8 A 7,7 0 0 1 10.394,14.578 7,7 0 0 1 2.6377,12.5 7,7 0 0 1 1.9379,4.5"
       id="path5" />
    <path
       style="fill:currentColor"
       class="ColorScheme-Text"
       d="m 1.8402841,4.6749804 c -0.097616,0.1749804 0.031676,-0.058785 0,0 C 1.2921963,5.6921299 1.0028361,6.8440094 1,8 c 0,3.866 3.134,7 7,7 3.784379,0 6.867341,-3.003064 6.995832,-6.7561387 0.0028,-0.080946 -0.487094,-0.3754953 -0.241463,-0.3096783 v 0 L 2.1747321,4.5634594 Z M 2.3782562,5.913443 2.7314123,5.7298828 13.68871,8.66654 v 0 C 13.67852,8.749061 13.92697,8.9007782 13.913522,8.9821407 13.437473,11.862312 10.943839,13.997082 8,14 4.6863,14 2,11.314 2,8 2.0012427,7.2868052 2.1295658,6.5803071 2.3782562,5.913443 c 0.031489,-0.084439 -0.035335,0.083101 0,0 z"
       id="path7"
       sodipodi:nodetypes="cscssccccccccsccsc" />
  </g>
</svg>
