<?xml version="1.0" encoding="UTF-8" standalone="no"?>
<svg
   width="18"
   height="18"
   version="1.1"
   id="svg9"
   sodipodi:docname="draw-geometry-show-measuring-info.svg"
   inkscape:version="1.1.2 (0a00cf5339, 2022-02-04)"
   xmlns:inkscape="http://www.inkscape.org/namespaces/inkscape"
   xmlns:sodipodi="http://sodipodi.sourceforge.net/DTD/sodipodi-0.dtd"
   xmlns="http://www.w3.org/2000/svg"
   xmlns:svg="http://www.w3.org/2000/svg">
  <sodipodi:namedview
     id="namedview11"
     pagecolor="#000000"
     bordercolor="#666666"
     borderopacity="1.0"
     inkscape:pageshadow="2"
     inkscape:pageopacity="0"
     inkscape:pagecheckerboard="0"
     showgrid="false"
     inkscape:zoom="41.888889"
     inkscape:cx="8.9880637"
     inkscape:cy="9"
     inkscape:window-width="1770"
     inkscape:window-height="966"
     inkscape:window-x="0"
     inkscape:window-y="29"
     inkscape:window-maximized="1"
     inkscape:current-layer="g7" />
  <defs
     id="defs3">
    <style
       id="current-color-scheme"
       type="text/css">
   .ColorScheme-Text { color:#eeeeec; } .ColorScheme-Highlight { color:#367bf0; } .ColorScheme-NeutralText { color:#ffcc44; } .ColorScheme-PositiveText { color:#3db47e; } .ColorScheme-NegativeText { color:#dd4747; }
  </style>
  </defs>
  <g
     transform="translate(1,1)"
     id="g7">
    <path
       style="fill:currentColor"
       class="ColorScheme-Text"
       d="M 8,8 H 9 V 9 H 8 Z m 3,-5 c -1,0 -1,1 -1,1 v 4 c 0,1 1,1 1,1 h 1 c 1,0 1,-1 1,-1 V 4 C 13,3 12,3 12,3 Z m 0,1 h 1 V 8 H 11 Z M 5,3 V 4 H 6 V 9 H 7 V 3 Z M 1,1.3213561 v 0 9.3100299 L 1.3450492,11 v 0 l 4.3920018,0 0.4605947,0.197646 v 0 L 9.5634253,14.563425 10,14.40295 v 0 V 11 h 1 v 3.331549 l 0.531619,0.136832 v 0 l 3.258639,-3.258639 v 0 L 15,10.631386 v -9.3578721 0 L 14.665478,1 H 1.321194 Z M 2,2 h 12 v 8 H 2 Z"
       id="path5"
       sodipodi:nodetypes="cccccscscscscsccccccccccccccccccccccccccccccccccccccccc" />
  </g>
</svg>
