<?xml version="1.0" encoding="UTF-8" standalone="no"?>
<svg
   width="18"
   height="18"
   version="1.1"
   id="svg11"
   sodipodi:docname="draw-connector.svg"
   inkscape:version="1.1.2 (0a00cf5339, 2022-02-04)"
   xmlns:inkscape="http://www.inkscape.org/namespaces/inkscape"
   xmlns:sodipodi="http://sodipodi.sourceforge.net/DTD/sodipodi-0.dtd"
   xmlns="http://www.w3.org/2000/svg"
   xmlns:svg="http://www.w3.org/2000/svg">
  <sodipodi:namedview
     id="namedview13"
     pagecolor="#000000"
     bordercolor="#666666"
     borderopacity="1.0"
     inkscape:pageshadow="2"
     inkscape:pageopacity="0"
     inkscape:pagecheckerboard="0"
     showgrid="false"
     inkscape:zoom="45.944444"
     inkscape:cx="8.9891173"
     inkscape:cy="9"
     inkscape:window-width="1920"
     inkscape:window-height="1051"
     inkscape:window-x="0"
     inkscape:window-y="29"
     inkscape:window-maximized="1"
     inkscape:current-layer="g9" />
  <defs
     id="defs3">
    <style
       id="current-color-scheme"
       type="text/css">
   .ColorScheme-Text { color:#eeeeec; } .ColorScheme-Highlight { color:#367bf0; } .ColorScheme-NeutralText { color:#ffcc44; } .ColorScheme-PositiveText { color:#3db47e; } .ColorScheme-NegativeText { color:#dd4747; }
  </style>
  </defs>
  <g
     transform="translate(1,1)"
     id="g9">
    <path
       style="fill:currentColor"
       class="ColorScheme-Text"
       d="M 0,11 H 1.4000716 L 1.7654693,10.573806 2.1847632,11 H 4 v 4 H 0 Z M 9,9 h 4 v 4 H 9 V 11.878374 L 8.4550888,11.717954 9,11.184 Z m 2,-9 h 4 V 4 H 13.803215 L 13.326501,4.5207666 12.953427,4 H 11 Z M 2,2 H 6 V 3.1054865 L 6.6073433,3.0026734 6,3.647446 V 6 H 2 Z"
       id="path5"
       sodipodi:nodetypes="cccccccccccccccccccccccccccccccc" />
    <path
       style="fill:none;stroke:currentColor"
       class="ColorScheme-Text"
       d="m 14,1 c 0,0 0,1.1358671 -0.196095,2.688588 -0.0016,0.013045 -0.0033,0.026119 -0.005,0.039222 -0.0039,0.0304 -0.0078,0.060955 -0.01189,0.091662 C 13.485665,6.1110473 12.757823,9.2421772 11,11 9,13 1,13 1,13 c 0,0 0.1464035,-1.024824 0.4392104,-2.402258 9.022e-4,-0.0042 0.00181,-0.0085 0.00271,-0.01274 0.00167,-0.0078 0.00334,-0.01569 0.00502,-0.02355 C 1.9209412,8.3411805 2.7719604,5.2280396 4,4 6,2 13,2 13,2"
       id="path7"
       sodipodi:nodetypes="csssscssssc" />
  </g>
</svg>
