<?xml version="1.0" encoding="UTF-8" standalone="no"?>
<svg
   width="18"
   height="18"
   version="1.1"
   id="svg9"
   sodipodi:docname="draw-geometry-angle-bisector.svg"
   inkscape:version="1.1.2 (0a00cf5339, 2022-02-04)"
   xmlns:inkscape="http://www.inkscape.org/namespaces/inkscape"
   xmlns:sodipodi="http://sodipodi.sourceforge.net/DTD/sodipodi-0.dtd"
   xmlns="http://www.w3.org/2000/svg"
   xmlns:svg="http://www.w3.org/2000/svg">
  <sodipodi:namedview
     id="namedview11"
     pagecolor="#000000"
     bordercolor="#666666"
     borderopacity="1.0"
     inkscape:pageshadow="2"
     inkscape:pageopacity="0"
     inkscape:pagecheckerboard="0"
     showgrid="false"
     inkscape:zoom="41.888889"
     inkscape:cx="9.0119363"
     inkscape:cy="9"
     inkscape:window-width="1872"
     inkscape:window-height="895"
     inkscape:window-x="0"
     inkscape:window-y="35"
     inkscape:window-maximized="1"
     inkscape:current-layer="g7" />
  <defs
     id="defs3">
    <style
       id="current-color-scheme"
       type="text/css">
   .ColorScheme-Text { color:#eeeeec; } .ColorScheme-Highlight { color:#367bf0; } .ColorScheme-NeutralText { color:#ffcc44; } .ColorScheme-PositiveText { color:#3db47e; } .ColorScheme-NegativeText { color:#dd4747; }
  </style>
  </defs>
  <g
     transform="translate(1,1)"
     id="g7">
    <path
       style="fill:currentColor"
       class="ColorScheme-Text"
       d="m 2.7387,1.001 c -0.6494,0 -0.9621,0.7729 -0.5586,1.2402 L 3.9653,4.3662 6.268,14.409 c 0.1875,0.979 1.726,0.653 1.461,-0.336 L 6.2531537,7.6385428 v 0 0 L 6.5219544,7.4112027 v 0 L 12.668,14.726 c 0.606,0.758 1.809,-0.216 1.148,-0.965 L 7.6289908,6.3969843 7.4559918,6.1910742 7.6289908,6.3969843 7.8209841,6.1360665 v 0 L 13.951,8.6924 c 0.9,0.4231 1.524,-1.0348 0.578,-1.3828 L 5.0864,3.3701 3.3286,1.2764 C 3.1841,1.0996 2.9676,1.001 2.7387,1.001 Z"
       id="path5"
       sodipodi:nodetypes="sccccccccccccccccccccs" />
  </g>
</svg>
