<?xml version="1.0" encoding="UTF-8" standalone="no"?>
<svg
   width="18"
   height="18"
   version="1.1"
   id="svg11"
   sodipodi:docname="draw-geometry-circle-from-three-points.svg"
   inkscape:version="1.1.2 (0a00cf5339, 2022-02-04)"
   xmlns:inkscape="http://www.inkscape.org/namespaces/inkscape"
   xmlns:sodipodi="http://sodipodi.sourceforge.net/DTD/sodipodi-0.dtd"
   xmlns="http://www.w3.org/2000/svg"
   xmlns:svg="http://www.w3.org/2000/svg">
  <sodipodi:namedview
     id="namedview13"
     pagecolor="#000000"
     bordercolor="#666666"
     borderopacity="1.0"
     inkscape:pageshadow="2"
     inkscape:pageopacity="0"
     inkscape:pagecheckerboard="0"
     showgrid="false"
     inkscape:zoom="183.77778"
     inkscape:cx="6.8669891"
     inkscape:cy="4.6441959"
     inkscape:window-width="1920"
     inkscape:window-height="1051"
     inkscape:window-x="0"
     inkscape:window-y="29"
     inkscape:window-maximized="1"
     inkscape:current-layer="g9" />
  <defs
     id="defs3">
    <style
       id="current-color-scheme"
       type="text/css">
   .ColorScheme-Text { color:#eeeeec; } .ColorScheme-Highlight { color:#367bf0; } .ColorScheme-NeutralText { color:#ffcc44; } .ColorScheme-PositiveText { color:#3db47e; } .ColorScheme-NegativeText { color:#dd4747; }
  </style>
  </defs>
  <g
     transform="translate(1,1)"
     id="g9">
    <path
       style="fill:currentColor"
       class="ColorScheme-Text"
       d="M 8,1 C 4.1340068,1 1,4.1340068 1,8 c 0,3.865993 3.1340068,7 7,7 3.865993,0 7,-3.134007 7,-7 C 15,4.1340068 11.865993,1 8,1 Z m 0,1 c 2.481611,0 4.611355,1.5065726 5.524446,3.6549915 0.03187,0.074985 0.06226,0.1507529 0.09113,0.2272654 0.01962,0.052011 -0.170672,0.1098067 -0.152463,0.1624942 0.02057,0.059506 0.249439,0.1139949 0.268168,0.174333 C 13.905927,6.7817564 14,7.3798923 14,8 14,11.313708 11.313708,14 8,14 4.6862915,14 2,11.313708 2,8 2,7.3748576 2.0956054,6.772045 2.2729925,6.205386 2.2898326,6.1515907 2.5704765,6.1197505 2.5887789,6.0666188 2.6244361,5.963106 2.3997792,5.8392455 2.4408543,5.7383834 3.0662821,4.2026113 4.309626,2.9842537 5.8621366,2.3920602 5.9353097,2.3641488 6.0922687,2.7120255 6.166783,2.6869285 6.2217312,2.6684215 6.193936,2.2762915 6.249583,2.2593454 6.803353,2.0907068 7.3910836,2 8,2 Z"
       id="path5"
       sodipodi:nodetypes="ssssssssssssssssssss" />
    <path
       style="fill:currentColor"
       class="ColorScheme-Text"
       d="m 6,0 h 4 V 1.8094552 L 10.538177,2.2818925 10,2.5389447 V 2.8406556 4 H 6 Z M 0,6 h 4 v 4 H 2.5980185 L 2.2714489,10.405847 2.1109123,10 H 0 Z m 12,0 h 4 v 4 H 13.734438 L 13.679324,10.185512 13.518118,10 H 12 Z"
       id="path7"
       sodipodi:nodetypes="ccccccccccccccccccccccccc" />
  </g>
</svg>
