<?xml version="1.0" encoding="UTF-8" standalone="no"?>
<svg
   width="18"
   height="18"
   version="1.1"
   id="svg9"
   sodipodi:docname="draw-cuboid.svg"
   inkscape:version="1.1.2 (0a00cf5339, 2022-02-04)"
   xmlns:inkscape="http://www.inkscape.org/namespaces/inkscape"
   xmlns:sodipodi="http://sodipodi.sourceforge.net/DTD/sodipodi-0.dtd"
   xmlns="http://www.w3.org/2000/svg"
   xmlns:svg="http://www.w3.org/2000/svg">
  <sodipodi:namedview
     id="namedview11"
     pagecolor="#000000"
     bordercolor="#666666"
     borderopacity="1.0"
     inkscape:pageshadow="2"
     inkscape:pageopacity="0"
     inkscape:pagecheckerboard="0"
     showgrid="false"
     inkscape:zoom="41.888889"
     inkscape:cx="8.9880637"
     inkscape:cy="9"
     inkscape:window-width="1770"
     inkscape:window-height="966"
     inkscape:window-x="0"
     inkscape:window-y="29"
     inkscape:window-maximized="1"
     inkscape:current-layer="g7" />
  <defs
     id="defs3">
    <style
       id="current-color-scheme"
       type="text/css">
   .ColorScheme-Text { color:#eeeeec; } .ColorScheme-Highlight { color:#367bf0; } .ColorScheme-NeutralText { color:#ffcc44; } .ColorScheme-PositiveText { color:#3db47e; } .ColorScheme-NegativeText { color:#dd4747; }
  </style>
  </defs>
  <g
     transform="translate(1,1)"
     id="g7">
    <path
       style="fill:currentColor"
       class="ColorScheme-Text"
       d="M 7.6035156,0 C 7.4954087,0 7.3884192,0.02464035 7.2890625,0.07421875 L 0.39257813,3.515625 C 0.1528418,3.6352265 0,3.8658019 0,4.15625 v 7.654297 c 0,0.266714 0.15062446,0.510636 0.38867187,0.630859 L 7.2851562,15.923828 C 7.3855575,15.974584 7.4945809,16 7.6035156,16 7.7751622,16 7.9512163,15.90971 7.9511718,15.91016 l 6.8691402,-3.46875 c 0.238092,-0.120223 0.388672,-0.364145 0.388672,-0.630859 V 4.1484415 c 0,-0.2679589 -0.152708,-0.513211 -0.392578,-0.6328125 L 7.9199218,0.07421875 C 7.8205873,0.02464035 7.7116225,0 7.6035156,0 Z M 7.364382,1.6154848 7.9124587,1.6502815 12.5544,3.9669875 v 0 l 0.03682,0.3445264 -4.7473976,2.3693371 v 0 l -0.4495066,0.015482 -4.7184,-2.3557305 v 0 L 2.7127092,3.9379008 Z M 1.4140625,5.737703 1.8620167,5.5145937 6.8964843,8.0273438 v 5.6119432 c 0,0.161798 0,-0.509392 0,0 L 6.4360937,13.911957 1.4140625,11.375 Z M 13.794922,5.809104 v 0 5.565896 l -5.0599095,2.555182 v 0 L 8.3105469,13.615364 V 8.0273438 L 13.424218,5.4759717 Z"
       id="path5"
       sodipodi:nodetypes="sccssccsccssccsccccccccccccccccccccccccccccccc" />
  </g>
</svg>
