<?xml version="1.0" encoding="UTF-8" standalone="no"?>
<svg
   width="18"
   height="18"
   version="1.1"
   id="svg9"
   sodipodi:docname="edit-undo.svg"
   inkscape:version="1.1.2 (0a00cf5339, 2022-02-04)"
   xmlns:inkscape="http://www.inkscape.org/namespaces/inkscape"
   xmlns:sodipodi="http://sodipodi.sourceforge.net/DTD/sodipodi-0.dtd"
   xmlns="http://www.w3.org/2000/svg"
   xmlns:svg="http://www.w3.org/2000/svg">
  <sodipodi:namedview
     id="namedview11"
     pagecolor="#000000"
     bordercolor="#666666"
     borderopacity="1.0"
     inkscape:pageshadow="2"
     inkscape:pageopacity="0"
     inkscape:pagecheckerboard="0"
     showgrid="false"
     inkscape:zoom="167.55556"
     inkscape:cx="9"
     inkscape:cy="9.0029841"
     inkscape:window-width="1502"
     inkscape:window-height="1039"
     inkscape:window-x="208"
     inkscape:window-y="19"
     inkscape:window-maximized="1"
     inkscape:current-layer="g7" />
  <defs
     id="defs3">
    <style
       id="current-color-scheme"
       type="text/css">
   .ColorScheme-Text { color:#eeeeec; } .ColorScheme-Highlight { color:#367bf0; } .ColorScheme-NeutralText { color:#ffcc44; } .ColorScheme-PositiveText { color:#3db47e; } .ColorScheme-NegativeText { color:#dd4747; }
  </style>
  </defs>
  <g
     transform="translate(1,1)"
     id="g7">
    <path
       style="fill:currentColor"
       class="ColorScheme-Text"
       d="M 7.019867,2.4175517 6.2755565,2.1290992 2.4182318,4.7490609 2.376194,5.2287888 c 0.1212347,0.072741 -0.1292347,-0.079509 0,0 1.3641767,0.8392787 3.0230941,2.0501247 4.0170804,2.5762268 0.2063741,0.1092307 0.046548,0.00272 0.1769728,0.047699 -0.097158,0.023604 0.5873172,0.011996 0.5665603,-0.2336535 L 7,6 h 3 c 1.6793,0 3,1.3207 3,3 0,1.6793 -1.3207,3 -3,3 H 5 v 2 h 5 c 2.7527,0 5,-2.2473 5,-5 C 15,6.2473 12.7527,4 10,4 H 7 c 9.64e-4,-0.5501929 0.039365,-0.9502012 0.019867,-1.5824483 -0.00396,-0.1285173 0.00955,0.1509211 0,0 z"
       id="path5"
       sodipodi:nodetypes="ccccsscscsssccssscsc" />
  </g>
</svg>
