<?xml version="1.0" encoding="UTF-8" standalone="no"?>
<svg
   width="18"
   height="18"
   version="1.1"
   id="svg9"
   sodipodi:docname="format-text-direction-vertical-lr.svg"
   inkscape:version="1.1.2 (0a00cf5339, 2022-02-04)"
   xmlns:inkscape="http://www.inkscape.org/namespaces/inkscape"
   xmlns:sodipodi="http://sodipodi.sourceforge.net/DTD/sodipodi-0.dtd"
   xmlns="http://www.w3.org/2000/svg"
   xmlns:svg="http://www.w3.org/2000/svg">
  <sodipodi:namedview
     id="namedview11"
     pagecolor="#000000"
     bordercolor="#666666"
     borderopacity="1.0"
     inkscape:pageshadow="2"
     inkscape:pageopacity="0"
     inkscape:pagecheckerboard="0"
     showgrid="false"
     inkscape:zoom="41.888889"
     inkscape:cx="9"
     inkscape:cy="9"
     inkscape:window-width="1745"
     inkscape:window-height="966"
     inkscape:window-x="0"
     inkscape:window-y="29"
     inkscape:window-maximized="1"
     inkscape:current-layer="g7" />
  <defs
     id="defs3">
    <style
       id="current-color-scheme"
       type="text/css">
   .ColorScheme-Text { color:#eeeeec; } .ColorScheme-Highlight { color:#367bf0; } .ColorScheme-NeutralText { color:#ffcc44; } .ColorScheme-PositiveText { color:#3db47e; } .ColorScheme-NegativeText { color:#dd4747; }
  </style>
  </defs>
  <g
     transform="translate(1,1)"
     id="g7">
    <path
       style="fill:currentColor"
       class="ColorScheme-Text"
       d="m 1,2 v 9 H 2 V 2 Z m 3,0 v 9 H 5 V 2 Z m 5,8 v 1 h 1 v -1 z m 3,0 v 1 h 1 v -1 z m -2.7185072,2.422239 v 0 l 1.3844462,2.07667 v 0 c 0.118331,-0.177496 0.572877,0.146099 0.69437,-0.0314 0.440537,-0.643605 0.89432,-1.28721 1.306643,-1.930815 0.114611,-0.178899 -0.10703,0.1789 0,0 L 12.349554,12 H 9.5326642 Z M 1.5120385,12 l -0.1892576,0.484171 1.3954867,2.09323 0.5364917,0.04046 v 0 l 1.5056641,-2.258496 v 0 L 4.4959179,12 Z M 10.547,2 8,9 H 9 L 9.728,7 h 2.543 L 13,9 h 1 L 11.453,2 Z m 0.327809,1.8446902 0.276439,0.071741 0.665629,1.8326787 L 11.609919,6 V 6 H 10.392037 L 10.178416,5.7620699 v 0 z"
       id="path5"
       sodipodi:nodetypes="ccccccccccccccccccccccccssccccccccccccccccccccccccccccccc" />
  </g>
</svg>
