<?xml version="1.0" encoding="UTF-8" standalone="no"?>
<svg
   width="18"
   height="18"
   version="1.1"
   id="svg9"
   sodipodi:docname="format-text-direction-vertical.svg"
   inkscape:version="1.1.2 (0a00cf5339, 2022-02-04)"
   xmlns:inkscape="http://www.inkscape.org/namespaces/inkscape"
   xmlns:sodipodi="http://sodipodi.sourceforge.net/DTD/sodipodi-0.dtd"
   xmlns="http://www.w3.org/2000/svg"
   xmlns:svg="http://www.w3.org/2000/svg">
  <sodipodi:namedview
     id="namedview11"
     pagecolor="#000000"
     bordercolor="#666666"
     borderopacity="1.0"
     inkscape:pageshadow="2"
     inkscape:pageopacity="0"
     inkscape:pagecheckerboard="0"
     showgrid="false"
     inkscape:zoom="41.888889"
     inkscape:cx="9"
     inkscape:cy="9"
     inkscape:window-width="1745"
     inkscape:window-height="966"
     inkscape:window-x="0"
     inkscape:window-y="29"
     inkscape:window-maximized="1"
     inkscape:current-layer="g7" />
  <defs
     id="defs3">
    <style
       id="current-color-scheme"
       type="text/css">
   .ColorScheme-Text { color:#eeeeec; } .ColorScheme-Highlight { color:#367bf0; } .ColorScheme-NeutralText { color:#ffcc44; } .ColorScheme-PositiveText { color:#3db47e; } .ColorScheme-NegativeText { color:#dd4747; }
  </style>
  </defs>
  <g
     transform="translate(1,1)"
     id="g7">
    <path
       style="fill:currentColor"
       class="ColorScheme-Text"
       d="m 10,2 v 9 h 1 V 2 Z m 3,0 v 9 h 1 V 2 Z M 2,10 v 1 h 1 v -1 z m 3,0 v 1 h 1 v -1 z m -2.6983398,2.45249 v 0 l 1.4028268,2.10424 0.6097409,-0.02807 v 0 L 5.6839936,12.47401 5.4507843,12 v 0 H 2.5861837 Z m 7.9659458,-0.05108 v 0 l 1.480081,2.220122 v 0 l 0.591268,-0.129962 1.399385,-2.099078 v 0 L 13.495265,12 H 10.487531 Z M 3.5469,2 1,9 H 2 L 2.7285,7 h 2.543 L 6,9 H 7 L 4.4531,2 Z m 0.5667748,1.8129122 v 0 L 4.8072515,5.7221193 4.6153556,6 V 6 H 3.3739545 V 6 L 3.1845223,5.7447635 3.8961949,3.7857442 Z"
       id="path5"
       sodipodi:nodetypes="ccccccccccccccccccccccccccccccccccccccccccccccccccccccccccc" />
  </g>
</svg>
