<?xml version="1.0" encoding="UTF-8" standalone="no"?>
<svg
   width="18"
   height="18"
   version="1.1"
   id="svg9"
   sodipodi:docname="node-transform.svg"
   inkscape:version="1.1.2 (0a00cf5339, 2022-02-04)"
   xmlns:inkscape="http://www.inkscape.org/namespaces/inkscape"
   xmlns:sodipodi="http://sodipodi.sourceforge.net/DTD/sodipodi-0.dtd"
   xmlns="http://www.w3.org/2000/svg"
   xmlns:svg="http://www.w3.org/2000/svg">
  <sodipodi:namedview
     id="namedview11"
     pagecolor="#000000"
     bordercolor="#666666"
     borderopacity="1.0"
     inkscape:pageshadow="2"
     inkscape:pageopacity="0"
     inkscape:pagecheckerboard="0"
     showgrid="false"
     inkscape:zoom="41.888889"
     inkscape:cx="9.0119363"
     inkscape:cy="9"
     inkscape:window-width="1770"
     inkscape:window-height="966"
     inkscape:window-x="0"
     inkscape:window-y="29"
     inkscape:window-maximized="1"
     inkscape:current-layer="g7" />
  <defs
     id="defs3">
    <style
       id="current-color-scheme"
       type="text/css">
   .ColorScheme-Text { color:#eeeeec; } .ColorScheme-Highlight { color:#367bf0; } .ColorScheme-NeutralText { color:#ffcc44; } .ColorScheme-PositiveText { color:#3db47e; } .ColorScheme-NegativeText { color:#dd4747; }
  </style>
  </defs>
  <g
     transform="translate(1,1)"
     id="g7">
    <path
       style="fill:currentColor"
       class="ColorScheme-Text"
       d="m 0,0.48592893 v 0 3.69980077 l 0.49459879,0.3196715 v 0 L 1.5,3.5 3.5,5.5 2.4588156,6.5411844 2.681606,7 V 7 H 6.4772177 L 7,6.5492095 v 0 -3.9864919 0 L 6.6362569,2.3637431 5.5,3.5 3.5,1.5 4.576659,0.42334102 v 0 L 4.3527839,0 H 0.55717068 Z M 11.368544,0.36854434 v 0 L 12.5,1.5 l -2,2 -1.1193378,-1.1193378 v 0 L 9,2.5627176 v 3.8672487 l 0.4857696,0.5962026 c 0.1466133,0.011747 -0.1760961,-0.00592 0,0 C 10.583239,7.0630864 12.187028,7 13.47141,7 V 7 L 13.570271,6.5702712 12.5,5.5 l 2,-2 1.225298,1.2252982 v 0 L 16,4.4963419 V 0.36632329 L 15.548779,0 V 0 H 11.609388 Z M 2.3927137,9.3927137 v 0 L 3.5,10.5 1.5,12.5 0.44039277,11.440393 0,11.586056 v 0 3.89117 L 0.48560509,16 v 0 H 4.3527839 v 0 L 4.665602,15.665602 3.5,14.5 l 2,-2 1.0820097,1.08201 v 0 L 7,13.352594 V 9.509268 L 6.5726399,9 V 9 H 2.681606 Z M 9,9.5571095 v 0 3.7719265 l 0.3752383,0.295726 v 0 L 10.5,12.5 l 2,2 -1.136773,1.136773 L 11.537821,16 v 0 h 3.963245 L 16,15.548989 v 0 -3.939011 l -0.363612,-0.246366 v 0 L 14.5,12.5 l -2,-2 1.160294,-1.1602939 v 0 L 13.352131,9 H 9.508809 Z"
       id="path5"
       sodipodi:nodetypes="ccccccccccccccccccccccccccccccccsccccccccccccccccccccccccccccccccccccccccccccccccccccccccccc" />
  </g>
</svg>
