<?xml version="1.0" encoding="UTF-8" standalone="no"?>
<svg
   width="18"
   height="18"
   version="1.1"
   id="svg9"
   sodipodi:docname="object-rotate-left.svg"
   inkscape:version="1.2 (dc2aedaf03, 2022-05-15)"
   xmlns:inkscape="http://www.inkscape.org/namespaces/inkscape"
   xmlns:sodipodi="http://sodipodi.sourceforge.net/DTD/sodipodi-0.dtd"
   xmlns="http://www.w3.org/2000/svg"
   xmlns:svg="http://www.w3.org/2000/svg">
  <sodipodi:namedview
     id="namedview11"
     pagecolor="#000000"
     bordercolor="#666666"
     borderopacity="1.0"
     inkscape:pageshadow="2"
     inkscape:pageopacity="0"
     inkscape:pagecheckerboard="0"
     showgrid="false"
     inkscape:zoom="41.888889"
     inkscape:cx="9"
     inkscape:cy="8.964191"
     inkscape:window-width="1574"
     inkscape:window-height="1080"
     inkscape:window-x="172"
     inkscape:window-y="-1"
     inkscape:window-maximized="1"
     inkscape:current-layer="g7"
     inkscape:showpageshadow="0"
     inkscape:deskcolor="#000000" />
  <defs
     id="defs3">
    <style
       id="current-color-scheme"
       type="text/css">
   .ColorScheme-Text { color:#eeeeec; } .ColorScheme-Highlight { color:#367bf0; } .ColorScheme-NeutralText { color:#ffcc44; } .ColorScheme-PositiveText { color:#3db47e; } .ColorScheme-NegativeText { color:#dd4747; }
  </style>
  </defs>
  <g
     transform="translate(1,1)"
     id="g7">
    <path
       style="fill:currentColor"
       class="ColorScheme-Text"
       d="M 4,8 C 4,8 4,7 3,7 2,7 2,8 2,8 Z M 8,2 v 2 c 2.209139,0 4,1.790861 4,4 0,2.209139 -1.790861,4 -4,4 C 5.790861,12 4,10.209139 4,8 H 2 c 0,3.313708 2.6862915,6 6,6 3.313708,0 6,-2.686292 6,-6 C 14,4.6862915 11.313708,2 8,2 Z M 8,0.4620078 v 0 3.7876932 1.2252321 0 L 7.3508807,5.5609791 4.3862299,3.2896724 v 0 l 0.041799,-0.610694 2.9797506,-2.38333162 z"
       id="path5"
       sodipodi:nodetypes="csccccssccsscccccccccccc" />
  </g>
</svg>
