<?xml version="1.0" encoding="UTF-8" standalone="no"?>
<svg
   width="18"
   height="18"
   version="1.1"
   id="svg9"
   sodipodi:docname="object-ungroup.svg"
   inkscape:version="1.1.2 (0a00cf5339, 2022-02-04)"
   xmlns:inkscape="http://www.inkscape.org/namespaces/inkscape"
   xmlns:sodipodi="http://sodipodi.sourceforge.net/DTD/sodipodi-0.dtd"
   xmlns="http://www.w3.org/2000/svg"
   xmlns:svg="http://www.w3.org/2000/svg">
  <sodipodi:namedview
     id="namedview11"
     pagecolor="#000000"
     bordercolor="#666666"
     borderopacity="1.0"
     inkscape:pageshadow="2"
     inkscape:pageopacity="0"
     inkscape:pagecheckerboard="0"
     showgrid="false"
     inkscape:zoom="41.888889"
     inkscape:cx="8.9880637"
     inkscape:cy="9"
     inkscape:window-width="1770"
     inkscape:window-height="966"
     inkscape:window-x="0"
     inkscape:window-y="29"
     inkscape:window-maximized="1"
     inkscape:current-layer="g7" />
  <defs
     id="defs3">
    <style
       id="current-color-scheme"
       type="text/css">
   .ColorScheme-Text { color:#eeeeec; } .ColorScheme-Highlight { color:#367bf0; } .ColorScheme-NeutralText { color:#ffcc44; } .ColorScheme-PositiveText { color:#3db47e; } .ColorScheme-NegativeText { color:#dd4747; }
  </style>
  </defs>
  <g
     transform="translate(1,1)"
     id="g7">
    <path
       style="fill:currentColor"
       class="ColorScheme-Text"
       d="M 3,7 H 8.7447856 V 7 L 9,7.3607152 V 13 H 3 Z M 10,2 C 7.790861,2 6,3.790861 6,6 H 9.7718645 V 6 L 10,6.3103603 V 10 c 2.209139,0 4,-1.790861 4,-4 0,-2.209139 -1.790861,-4 -4,-4 z m 4,10 v 2 h -2 v 2 h 2 c 2,0 2,-2 2,-2 V 12 Z M 0,12 v 2 c 0,2 2,2 2,2 H 4 V 14 H 2 V 12 Z M 12,0 v 2 h 2 v 2 h 2 V 2 C 16,0 14,0 14,0 Z M 2,0 C 0,0 0,2 0,2 V 4 H 2 V 2 H 4 V 0 Z"
       id="path5"
       sodipodi:nodetypes="cccccccscccccssccccsccccscccccccccccsccsccccccs" />
  </g>
</svg>
