<?xml version="1.0" encoding="UTF-8" standalone="no"?>
<svg
   width="18"
   height="18"
   version="1.1"
   id="svg9"
   sodipodi:docname="path-mode-polyline.svg"
   inkscape:version="1.2 (dc2aedaf03, 2022-05-15)"
   xmlns:inkscape="http://www.inkscape.org/namespaces/inkscape"
   xmlns:sodipodi="http://sodipodi.sourceforge.net/DTD/sodipodi-0.dtd"
   xmlns="http://www.w3.org/2000/svg"
   xmlns:svg="http://www.w3.org/2000/svg">
  <sodipodi:namedview
     id="namedview11"
     pagecolor="#000000"
     bordercolor="#666666"
     borderopacity="1.0"
     inkscape:pageshadow="2"
     inkscape:pageopacity="0"
     inkscape:pagecheckerboard="0"
     showgrid="false"
     inkscape:zoom="41.888889"
     inkscape:cx="9"
     inkscape:cy="8.964191"
     inkscape:window-width="1574"
     inkscape:window-height="1080"
     inkscape:window-x="172"
     inkscape:window-y="-1"
     inkscape:window-maximized="1"
     inkscape:current-layer="g7"
     inkscape:showpageshadow="0"
     inkscape:deskcolor="#000000" />
  <defs
     id="defs3">
    <style
       id="current-color-scheme"
       type="text/css">
   .ColorScheme-Text { color:#eeeeec; } .ColorScheme-Highlight { color:#367bf0; } .ColorScheme-NeutralText { color:#ffcc44; } .ColorScheme-PositiveText { color:#3db47e; } .ColorScheme-NegativeText { color:#dd4747; }
  </style>
  </defs>
  <g
     transform="translate(1,1)"
     id="g7">
    <path
       style="fill:currentColor"
       class="ColorScheme-Text"
       d="M 6.9805,0 C 6.7531,0.00458 6.534,0.08656 6.3594,0.23242 L 0.35938,5.2324 C -0.21,5.7069 -0.08364,6.6244 0.60547,6.9199 L 4.3633,8.5312 3.0215,14.791 c -0.2002,0.939 0.8768,1.554 1.5918,0.998 l 5.9277,-4.611 4.064,1.742 c 1.24,0.533 1.985,-1.327 0.79,-1.84 L 12.547369,9.8588925 12.488424,9.6641356 v 0 L 13.613,8.7891 C 14.746,7.9828 13.448,6.3126 12.387,7.2109 L 10.248,8.875 6.6641,7.3379 7.9785,1.209 C 8.1133,0.57852 7.6252,0 6.9805,0 Z M 5.0644269,3.9862819 5.347472,4.172785 4.8592506,6.2162155 4.5727127,6.4416812 v 0 L 3.1812169,5.8455355 v 0 L 3.1205958,5.5342838 Z M 6.1680056,9.6611724 6.5352518,9.4612593 8.2179234,10.182372 v 0 L 8.1911184,10.475016 5.858085,12.287724 5.6338806,12.14716 v 0 z"
       id="path5"
       sodipodi:nodetypes="ccccccccccccccccccccccccccccccccccccc" />
  </g>
</svg>
