<?xml version="1.0" encoding="UTF-8" standalone="no"?>
<svg
   width="18"
   height="18"
   version="1.1"
   id="svg11"
   sodipodi:docname="path-clip-edit.svg"
   inkscape:version="1.1.2 (0a00cf5339, 2022-02-04)"
   xmlns:inkscape="http://www.inkscape.org/namespaces/inkscape"
   xmlns:sodipodi="http://sodipodi.sourceforge.net/DTD/sodipodi-0.dtd"
   xmlns="http://www.w3.org/2000/svg"
   xmlns:svg="http://www.w3.org/2000/svg">
  <sodipodi:namedview
     id="namedview13"
     pagecolor="#000000"
     bordercolor="#666666"
     borderopacity="1.0"
     inkscape:pageshadow="2"
     inkscape:pageopacity="0"
     inkscape:pagecheckerboard="0"
     showgrid="false"
     inkscape:zoom="256"
     inkscape:cx="9.0019531"
     inkscape:cy="6.8125"
     inkscape:window-width="1872"
     inkscape:window-height="895"
     inkscape:window-x="0"
     inkscape:window-y="35"
     inkscape:window-maximized="1"
     inkscape:current-layer="g9" />
  <defs
     id="defs3">
    <style
       id="current-color-scheme"
       type="text/css">
   .ColorScheme-Text { color:#eeeeec; } .ColorScheme-Highlight { color:#367bf0; } .ColorScheme-NeutralText { color:#ffcc44; } .ColorScheme-PositiveText { color:#3db47e; } .ColorScheme-NegativeText { color:#dd4747; }
  </style>
  </defs>
  <g
     transform="translate(0.97614335,1.0235587)"
     id="g9">
    <path
       style="fill:currentColor"
       class="ColorScheme-Text"
       d="M 14,2 C 8.5,2 2,7.5 2,14 v 1 H 3 V 14 C 3,11.513485 4.0304592,9.198714 5.5931619,7.3403804 5.8742946,7.0060632 6.1726532,6.6865183 6.4853368,6.3834036 c 0.00895,-0.00867 0.017908,-0.017335 0.02688,-0.025983 0.1056502,-0.1018327 0.2129179,-0.201794 0.321692,-0.2998205 0.018483,-0.016656 0.05926,0.02607 0.1148379,-0.023731 C 7.2529386,5.7612926 7.520179,5.4834776 7.8378308,5.2399715 7.8661562,5.2182577 7.8948825,5.1968167 7.9240716,5.1756766 9.8061585,3.8125797 11.984337,3 14,3 h 1 V 2 Z M 6.373,6.3193 5.666,7.0264 C 5.593162,7.3403804 5.713295,7.2712327 5.806273,7.3204074 5.899775,7.3698594 6.0027482,7.3797594 6.0027482,7.3797594 7.2432392,8.7457056 7.9456191,10.267117 8.1523,11.404 8.3771,12.64 8.063,13.689 7.166,14.586 l 0.707,0.707 C 8.9763,14.19 9.412,12.741 9.1367,11.227 8.8698683,9.7591831 7.97935,7.981733 6.5142276,6.4630883 6.5046428,6.4531533 6.4077542,6.519761 6.4853994,6.4333168 6.5209723,6.3937126 6.4108305,6.3571329 6.373,6.3193 Z m 1,-1.2333 -0.707,0.7071 C 6.7580045,5.8850986 6.8501008,5.974946 6.9422705,6.0626309 8.4021823,7.4515064 9.880532,8.2978426 11.305,8.5567 12.819,8.832 14.27,8.3963 15.373,7.2931 L 14.666,6.586 C 13.769,7.483 12.72,7.7971 11.484,7.5724 10.397284,7.3747514 9.1653166,6.7242632 7.8973186,5.5838259 c 0,0 0.00797,-0.1216135 -0.074418,-0.2466581 C 7.8087539,5.315697 7.8388322,5.294125 7.8188595,5.2730501 7.7420577,5.19201 7.5716133,5.1183206 7.373,5.086 Z"
       id="path5"
       sodipodi:nodetypes="ssccsssssssssccsccssccccsscccsccccsssc" />
    <path
       style="fill:currentColor"
       class="ColorScheme-Text"
       d="M 4,14.5 A 1.5,1.5 0 0 1 2.5,16 1.5,1.5 0 0 1 1,14.5 1.5,1.5 0 0 1 2.5,13 1.5,1.5 0 0 1 4,14.5 Z M 16,2.5 A 1.5,1.5 0 0 1 14.5,4 1.5,1.5 0 0 1 13,2.5 1.5,1.5 0 0 1 14.5,1 1.5,1.5 0 0 1 16,2.5 Z"
       id="path7" />
  </g>
</svg>
