<?xml version="1.0" encoding="UTF-8" standalone="no"?>
<svg
   width="18"
   height="18"
   version="1.1"
   id="svg9"
   sodipodi:docname="symbol-smaller.svg"
   inkscape:version="1.1.2 (0a00cf5339, 2022-02-04)"
   xmlns:inkscape="http://www.inkscape.org/namespaces/inkscape"
   xmlns:sodipodi="http://sodipodi.sourceforge.net/DTD/sodipodi-0.dtd"
   xmlns="http://www.w3.org/2000/svg"
   xmlns:svg="http://www.w3.org/2000/svg">
  <sodipodi:namedview
     id="namedview11"
     pagecolor="#000000"
     bordercolor="#666666"
     borderopacity="1.0"
     inkscape:pageshadow="2"
     inkscape:pageopacity="0"
     inkscape:pagecheckerboard="0"
     showgrid="false"
     inkscape:zoom="41.888889"
     inkscape:cx="8.9880637"
     inkscape:cy="9"
     inkscape:window-width="1770"
     inkscape:window-height="966"
     inkscape:window-x="0"
     inkscape:window-y="29"
     inkscape:window-maximized="1"
     inkscape:current-layer="g7" />
  <defs
     id="defs3">
    <style
       id="current-color-scheme"
       type="text/css">
   .ColorScheme-Text { color:#eeeeec; } .ColorScheme-Highlight { color:#367bf0; } .ColorScheme-NeutralText { color:#ffcc44; } .ColorScheme-PositiveText { color:#3db47e; } .ColorScheme-NegativeText { color:#dd4747; }
  </style>
  </defs>
  <g
     transform="translate(1,1)"
     id="g7">
    <path
       style="fill:currentColor"
       class="ColorScheme-Text"
       d="M 8,4 C 5.790861,4 4,5.790861 4,8 c 0,2.209139 1.790861,4 4,4 2.209139,0 4,-1.790861 4,-4 C 12,5.790861 10.209139,4 8,4 Z m 0,1 c 1.6568542,0 3,1.3431458 3,3 0,1.6568542 -1.3431458,3 -3,3 C 6.3431458,11 5,9.6568542 5,8 5,6.3431458 6.3431458,5 8,5 Z M 15.588368,6.2744216 16,6.525288 v 2.9600577 0 L 15.648463,9.7656423 13.367432,8.2449547 v 0 L 13.368,7.7546665 Z M 8.2915241,2.5627139 v 0 L 9.7016914,0.44746295 9.4849523,0 V 0 H 6.5487847 L 6.2755682,0.41335224 v 0 L 7.7261966,2.5892949 Z m -0.00226,10.8711751 v 0 l 1.4175681,2.126352 v 0 L 9.4133867,16 H 6.5964966 v 0 L 6.3146547,15.528018 7.7248216,13.412768 Z M 0,6.5013672 v 0 2.9364998 l 0.45244244,0.2605047 v 0 L 2.606378,8.2624147 v 0 L 2.5728575,7.7152383 0.44640007,6.2976 Z"
       id="path5"
       sodipodi:nodetypes="ssssssssssccccccccccccccccccccccccccccccccccccccc" />
  </g>
</svg>
