<?xml version="1.0" encoding="UTF-8" standalone="no"?>
<svg
   width="18"
   height="18"
   version="1.1"
   id="svg9"
   sodipodi:docname="text-orientation-upright.svg"
   inkscape:version="1.2 (dc2aedaf03, 2022-05-15)"
   xmlns:inkscape="http://www.inkscape.org/namespaces/inkscape"
   xmlns:sodipodi="http://sodipodi.sourceforge.net/DTD/sodipodi-0.dtd"
   xmlns="http://www.w3.org/2000/svg"
   xmlns:svg="http://www.w3.org/2000/svg">
  <sodipodi:namedview
     id="namedview11"
     pagecolor="#000000"
     bordercolor="#666666"
     borderopacity="1.0"
     inkscape:pageshadow="2"
     inkscape:pageopacity="0"
     inkscape:pagecheckerboard="0"
     showgrid="false"
     inkscape:zoom="118.47967"
     inkscape:cx="8.9973242"
     inkscape:cy="15.753758"
     inkscape:window-width="1574"
     inkscape:window-height="1080"
     inkscape:window-x="172"
     inkscape:window-y="-1"
     inkscape:window-maximized="1"
     inkscape:current-layer="g7"
     inkscape:showpageshadow="0"
     inkscape:deskcolor="#000000" />
  <defs
     id="defs3">
    <style
       id="current-color-scheme"
       type="text/css">
   .ColorScheme-Text { color:#eeeeec; } .ColorScheme-Highlight { color:#367bf0; } .ColorScheme-NeutralText { color:#ffcc44; } .ColorScheme-PositiveText { color:#3db47e; } .ColorScheme-NegativeText { color:#dd4747; }
  </style>
  </defs>
  <g
     transform="translate(1,1)"
     id="g7">
    <path
       style="fill:currentColor"
       class="ColorScheme-Text"
       d="M 2,2 V 12 H 0.58102733 l -0.26407215,0.422607 v 0 l 2.43493822,3.246584 0.5333494,-0.04951 v 0 L 5.6026755,12.529766 5.4507843,12 v 0 H 4 V 2 Z m 6,14 h 1 v -2 h 3 v 2 h 1 v -4 c 0,-2 -2.5,-2 -2.5,-2 0,0 -2.5,0 -2.5,2 z M 9.1000643,12.970013 9,12.838187 V 12.5 C 9,11 10.5,11 10.5,11 c 0,0 1.5,0 1.5,1.5 v 0.322768 L 11.85506,12.937769 11.823992,13 H 9.1574312 Z M 8.5,3 C 8.5,3 8,3 8,3.5 8,4 8.5,4 8.5,4 h 2.63609 V 4 L 11.199727,4.2502271 10,5.25 V 6 H 6.5 C 6.5,6 6,6 6,6.5 6,7 6.5,7 6.5,7 H 10 V 8 H 8.5 C 8.5,8 8,8 8,8.5 8,9 8.5,9 8.5,9 H 10 c 0,0 1,0 1,-1 V 7 h 3.5 C 14.5,7 15,7 15,6.5 15,6 14.5,6 14.5,6 H 11 V 5.75 C 11,5.75 13,4.5 13,4 13,3 12,3 12,3 Z m 1,-3 C 9,0 9,0.5 9,0.5 V 1 H 6.5 C 6,1 6,1.5 6,1.5 v 1 C 6,2.5 6,3 6.5,3 7,3 7,2.5 7,2.5 V 2 h 7 V 2.5 C 14,2.5 14,3 14.5,3 15,3 15,2.5 15,2.5 v -1 C 15,1.5 15,1 14.5,1 H 10 V 0.5 C 10,0.5 10,0 9.5,0 Z"
       id="path5"
       sodipodi:nodetypes="ccccccccccccccccccccscscccscsccccccscccccccsccccsccsccscccsccsccsccsccccsccsccs" />
  </g>
</svg>
