<?xml version="1.0" encoding="UTF-8" standalone="no"?>
<svg
   width="18"
   height="18"
   version="1.1"
   id="svg11"
   sodipodi:docname="text_rotation.svg"
   inkscape:version="1.1.2 (0a00cf5339, 2022-02-04)"
   xmlns:inkscape="http://www.inkscape.org/namespaces/inkscape"
   xmlns:sodipodi="http://sodipodi.sourceforge.net/DTD/sodipodi-0.dtd"
   xmlns="http://www.w3.org/2000/svg"
   xmlns:svg="http://www.w3.org/2000/svg">
  <sodipodi:namedview
     id="namedview13"
     pagecolor="#ffffff"
     bordercolor="#666666"
     borderopacity="1.0"
     inkscape:pageshadow="2"
     inkscape:pageopacity="0.0"
     inkscape:pagecheckerboard="0"
     showgrid="false"
     inkscape:zoom="41.888889"
     inkscape:cx="9"
     inkscape:cy="9"
     inkscape:window-width="1745"
     inkscape:window-height="966"
     inkscape:window-x="0"
     inkscape:window-y="29"
     inkscape:window-maximized="1"
     inkscape:current-layer="g9" />
  <defs
     id="defs3">
    <style
       id="current-color-scheme"
       type="text/css">
   .ColorScheme-Text { color:#eeeeec; } .ColorScheme-Highlight { color:#367bf0; } .ColorScheme-NeutralText { color:#ffcc44; } .ColorScheme-PositiveText { color:#3db47e; } .ColorScheme-NegativeText { color:#dd4747; }
  </style>
  </defs>
  <g
     transform="translate(1,1)"
     id="g9">
    <path
       style="fill:currentColor"
       class="ColorScheme-Text"
       transform="rotate(15,12.5,8)"
       d="M 12,4 9,12 H 10 L 10.77,10 H 14.23 L 15,12 H 16 L 13,4 Z M 12.5,5.5 13.846,9 H 11.154 Z"
       id="path5" />
    <path
       style="fill:currentColor"
       class="ColorScheme-Text"
       d="M 7,1 V 12 H 0 v 1 H 7.5 L 15,15 V 14 L 8,12 V 1 Z M 3,3 0,11 H 1 L 1.7695,9 h 3.461 L 6,11 H 7 L 4,3 Z m 0.3730554,1.8301672 0.2871617,0.086538 1.0991822,2.8588376 v 0 L 4.5912017,8 H 2.466899 L 2.2339308,7.79289 v 0 z"
       id="path7"
       sodipodi:nodetypes="ccccccccccccccccccccccccccccc" />
  </g>
</svg>
