<?xml version="1.0" encoding="UTF-8" standalone="no"?>
<svg
   width="18"
   height="18"
   version="1.1"
   id="svg9"
   sodipodi:docname="tool-node-editor.svg"
   inkscape:version="1.1.2 (0a00cf5339, 2022-02-04)"
   xmlns:inkscape="http://www.inkscape.org/namespaces/inkscape"
   xmlns:sodipodi="http://sodipodi.sourceforge.net/DTD/sodipodi-0.dtd"
   xmlns="http://www.w3.org/2000/svg"
   xmlns:svg="http://www.w3.org/2000/svg">
  <sodipodi:namedview
     id="namedview11"
     pagecolor="#000000"
     bordercolor="#666666"
     borderopacity="1.0"
     inkscape:pageshadow="2"
     inkscape:pageopacity="0"
     inkscape:pagecheckerboard="0"
     showgrid="false"
     inkscape:zoom="41.888889"
     inkscape:cx="8.9880637"
     inkscape:cy="9"
     inkscape:window-width="1770"
     inkscape:window-height="966"
     inkscape:window-x="0"
     inkscape:window-y="29"
     inkscape:window-maximized="1"
     inkscape:current-layer="g7" />
  <defs
     id="defs3">
    <style
       id="current-color-scheme"
       type="text/css">
   .ColorScheme-Text { color:#eeeeec; } .ColorScheme-Highlight { color:#367bf0; } .ColorScheme-NeutralText { color:#ffcc44; } .ColorScheme-PositiveText { color:#3db47e; } .ColorScheme-NegativeText { color:#dd4747; }
  </style>
  </defs>
  <g
     transform="translate(1,1)"
     id="g7">
    <path
       style="fill:currentColor"
       class="ColorScheme-Text"
       d="m 11,0 v 1.5546875 c -0.363,0.0213 -0.723034,0.040525 -1.1152344,0.078125 C 8.6058656,1.7555125 7.2229,1.9617813 6,2.3632812 V 2 H 2 V 6 H 2.1269531 C 1.5575531,7.3541 1.2070438,8.931325 0.96484375,10.390625 0.92942375,10.603625 0.90924625,10.793 0.87890625,11 H 0 v 4 h 1 l 0.5,0.01172 V 15 H 4 V 11 H 1.8886719 c 0.0231,-0.154 0.0365,-0.291266 0.0625,-0.447266 C 2.2116719,8.9833344 2.6491594,7.2961 3.2558594,6 H 6 V 3.4492188 C 7.1634,3.0253188 8.6275688,2.7566531 9.9804688,2.6269531 10.337969,2.5925531 10.666,2.5749875 11,2.5546875 V 4 h 4 V 0 Z M 7.3324407,6.6232249 v 0 l 4.2719133,8.0085341 0.533382,0.01277 v 0 l 2.601519,-2.744459 -0.09835,-0.52756 v 0 L 7.5806776,6.4082889 Z"
       id="path5"
       sodipodi:nodetypes="cccccccccccccccccccccccccccccccccccccc" />
  </g>
</svg>
