<?xml version="1.0" encoding="UTF-8" standalone="no"?>
<svg
   width="512"
   height="512"
   version="1.1"
   viewBox="0 0 384 384"
   id="svg102666"
   sodipodi:docname="bytecode-viewer.svg"
   inkscape:version="1.1.2 (0a00cf5339, 2022-02-04)"
   xmlns:inkscape="http://www.inkscape.org/namespaces/inkscape"
   xmlns:sodipodi="http://sodipodi.sourceforge.net/DTD/sodipodi-0.dtd"
   xmlns="http://www.w3.org/2000/svg"
   xmlns:svg="http://www.w3.org/2000/svg">
  <sodipodi:namedview
     id="namedview102668"
     pagecolor="#ffffff"
     bordercolor="#666666"
     borderopacity="1.0"
     inkscape:pageshadow="2"
     inkscape:pageopacity="0.0"
     inkscape:pagecheckerboard="0"
     showgrid="false"
     inkscape:zoom="1.6152344"
     inkscape:cx="255.69045"
     inkscape:cy="256"
     inkscape:window-width="1920"
     inkscape:window-height="1051"
     inkscape:window-x="0"
     inkscape:window-y="29"
     inkscape:window-maximized="1"
     inkscape:current-layer="svg102666" />
  <defs
     id="defs102648">
    <radialGradient
       id="a"
       cx="192"
       cy="192"
       r="168.43"
       gradientTransform="matrix(1.1739 0 0 1.1739 -33.387 -33.387)"
       gradientUnits="userSpaceOnUse">
      <stop
         stop-color="#54bd8e"
         offset="0"
         id="stop102643" />
      <stop
         stop-color="#087142"
         offset="1"
         id="stop102645" />
    </radialGradient>
  </defs>
  <path
     d="m360.43 192c0 93.023-75.41 168.43-168.43 168.43s-168.43-75.41-168.43-168.43 75.41-168.43 168.43-168.43 168.43 75.41 168.43 168.43z"
     fill="url(#a)"
     id="path102650" />
  <path
     d="m 222.93218,56.72346 c 10.895,43.152 -39.83118,47.05354 -57.70218,74.07754 -12.203,18.309 5.668,37.922 30.512,60.152 -9.5898,-21.797 -42.281,-40.977 0,-74.539 52.742,-41.406 27.19018,-59.69054 27.19018,-59.69054 z M 254.148,101.16 c 0,0 -89.355,22.23 -46.641,71.484 12.641,14.387 -3.4883,27.465 -3.4883,27.465 0,0 32.258,-16.566 17.438,-37.051 -13.516,-19.617 -28.8522,-26.35085 27.8118,-59.04185 z m 14.035,91.484 c -3.1211,-0.004 -6.4297,0.53516 -9.8125,1.7266 -3.0508,0.87109 -4.3594,3.4883 -4.3594,3.4883 0,0 1.7422,-0.87109 5.668,-1.7461 15.691,-3.0508 38.355,21.359 -10.461,46.641 -0.4375,0.87109 -0.87109,1.3086 -0.87109,1.3086 58.23,-15.141 45.234,-51.371 19.836,-51.418 z m -107.25,2.5625 c -6.332,0.14453 -21.125,1.4531 -38.125,9.625 -26.59,13.078 66.258,18.742 114.64,6.1016 4.793,-3.0508 11.766,-6.1016 11.766,-6.1016 0,0 -19.613,3.4883 -39.227,5.2305 -23.977,1.7422 -49.691,2.1797 -62.77,0.4375 -30.508,-3.9258 16.988,-15.254 17,-15.258 0,0 -1.1719,-0.082 -3.2852,-0.0352 z m -8.0508,29.676 c -44.016,14.82 24.848,31.383 86.305,13.074 -6.5352,-2.1797 -10.461,-6.5352 -10.461,-6.5352 -30.074,6.1016 -47.508,5.668 -69.738,3.4883 -16.992,-1.7461 -6.1133,-10.02 -6.1055,-10.027 z m 6.5391,28.332 c -40.102,11.332 24.41,34.434 75.41,12.641 -8.2812,-3.0508 -14.383,-6.9727 -14.383,-6.9727 -22.668,4.3594 -33.566,4.793 -54.051,2.1758 -17,-1.7422 -6.9766,-7.8438 -6.9766,-7.8438 z m -26.152,19.113 c -17.043,-0.5 -56.277,16.52 -23.098,21.859 104.17,17 190.04,-7.4062 163.02,-19.609 0.0312,0.0234 7.375,6.1055 -8.2852,10.891 -29.207,8.7188 -122.48,11.332 -148.63,0 -9.1562,-3.9219 8.2812,-9.5898 13.945,-10.461 5.668,-1.3047 8.7188,-1.3047 8.7188,-1.3047 -1.2539,-0.875 -3.2344,-1.3047 -5.6719,-1.375 z m 156.48,15.32 c 0,0 -3.4844,8.7188 -38.793,15.258 -40.098,7.4102 -89.789,6.5391 -118.99,1.7422 0,0 6.1016,5.2305 37.047,6.9766 47.074,3.0508 118.99,-1.7461 120.73,-23.977 z"
     fill="#ffffff"
     id="path102652"
     sodipodi:nodetypes="ccccccccccccccccccccccccccccccccccccccccccccccccccccccc" />
  <g
     stroke-width="1.3333"
     id="g102660">
    <path
       transform="scale(.75)"
       d="m31.486 251c-0.036336 1.6629-0.064453 3.3284-0.064453 5 0 124.03 100.55 224.58 224.58 224.58s224.58-100.55 224.58-224.58c0-1.6716-0.02811-3.3371-0.06445-5-2.6598 121.72-102.15 219.58-224.51 219.58s-221.85-97.857-224.51-219.58z"
       opacity=".3"
       id="path102654" />
    <path
       transform="scale(.75)"
       d="m256 31.422c-124.03 0-224.58 100.55-224.58 224.58 0 1.6716 0.028117 3.3371 0.064453 5 2.6598-121.72 102.15-219.58 224.51-219.58s221.85 97.857 224.51 219.58c0.03634-1.6629 0.06445-3.3284 0.06445-5 0-124.03-100.55-224.58-224.58-224.58z"
       fill="#fff"
       opacity=".3"
       id="path102656" />
    <path
       transform="scale(0.75)"
       d="m 297.2429,75.63128 c 1.08399,4.293602 -0.24151,-3.871381 0,0 2.99477,48.0067 -54.88606,65.42622 -76.9359,98.76472 -14.58902,21.88757 3.05884,45.1748 30.7413,71.12099 3.19153,2.99135 -3.42426,-3.06397 0,0 -1.6946,-3.8517 6.0047,1.44001 3.5325,-2.34199 -26.238,-25.008 -42.422,-47.553 -28.273,-68.779 21.464,-32.456 76.867,-49.831 77.037,-95.01 -0.33573,-1.394613 -0.72877,-2.705171 -1.15739,-3.928816 -2.73116,-7.796992 0,0 0,0 z m 35.1152,63.05732 c 0,0 2.39852,-2.78672 -3.92639,-0.70206 -27.73954,9.14279 -98.13315,38.72792 -51.75571,92.20546 8.75901,9.96887 7.15791,19.46644 3.59927,26.29011 -3.28885,6.30637 0,0 0,0 0,0 -1.44797,6.82749 5.50233,0.90309 3.8874,-6.875 6.0543,-16.773 -3.1016,-27.193 -45.285,-52.218 20.719,-81.634 49.682,-91.504 2.0941,-1.245 -2.2507,1.2985 0,0 z M 357.577,256.86 c -4.1615,-0.005 -8.5716,0.7142 -13.082,2.3027 -4.0677,1.1615 -5.8125,4.6504 -5.8125,4.6504 0,0 2.3223,-1.1615 7.5566,-2.3281 0.11064,-0.0215 0.22283,-0.0352 0.33398,-0.0547 0.93218,-0.88 2.2097,-1.7787 3.9219,-2.2676 3.4105,-1.2012 6.764,-1.9042 9.9961,-2.1738 -0.9562,-0.0818 -1.9279,-0.12709 -2.9141,-0.1289 z m -143,3.416 c -8.4427,0.19271 -28.165,1.9382 -50.832,12.834 -21.965,10.804 17.209,17.805 65.529,17.566 -45.489,-0.34402 -80.58,-7.2129 -59.529,-17.566 21.33,-10.254 39.928,-12.379 49.098,-12.758 0.004,-9.2e-4 0.11515,-0.0293 0.11523,-0.0293 0,0 -1.5632,-0.10928 -4.3808,-0.0469 z m 141.67,0.86719 c -1.1307,-0.0193 -2.2527,0.0595 -3.3535,0.23242 19.487,2.7855 37.778,32.064 -20.6,62.297 -0.58333,1.1614 -1.1621,1.7441 -1.1621,1.7441 2.9652,-0.771 5.7762,-1.5868 8.4688,-2.4356 59.364,-31.354 36.819,-61.493 16.646,-61.838 z m -23.959,11.967 c 0,0 -26.152,4.6517 -52.303,6.9746 -16.822,1.2223 -34.263,1.9559 -49.576,2.0449 16.649,0.0995 36.511,-0.6596 55.576,-2.0449 16.547,-1.4698 33.047,-3.8656 42.969,-5.4316 1.8781,-0.88325 3.334,-1.543 3.334,-1.543 z m -128.44,26.734 c -41.046,13.821 -8.4434,28.755 42.885,28.146 -43.183,-0.51868 -70.625,-12.24 -46.418,-24.293 1.3505,-2.1748 3.5292,-3.8495 3.5332,-3.8535 z m 101.12,8.7188 c -22.492,4.5633 -39.68,6.3827 -55.67,6.5898 16.537,0.19136 33.864,-1.255 56.652,-5.6133 -0.64112,-0.60195 -0.98242,-0.97656 -0.98242,-0.97656 z m -92.406,29.057 c -38.283,10.818 -5.0584,29.677 41.859,28.854 -38.979,-0.70602 -66.122,-14.901 -45.418,-25.303 0.96189,-1.968 3.5586,-3.5508 3.5586,-3.5508 z m 81.371,7.5586 c -16.581,3.1888 -28.439,4.7928 -40.275,5.0234 12.834,0.24575 24.814,-1.063 41.684,-4.1641 -0.8921,-0.52945 -1.4082,-0.85938 -1.4082,-0.85938 z m -116.24,17.926 c -22.724,-0.66667 -75.036,22.027 -30.797,29.146 34.972,5.7073 68.393,7.9118 98.258,7.7598 -28.313,-0.1556 -59.611,-2.4319 -92.258,-7.7598 -41.712,-6.713 2.4018,-27.261 26.627,-29.029 -0.58729,-0.056 -1.1933,-0.0988 -1.8301,-0.11718 z m 186.57,3 c 0.0416,0.0312 9.8333,8.1412 -11.047,14.521 -20.226,6.0379 -63.494,9.8715 -105.3,10.053 43.605,0.18169 90.104,-3.7252 111.3,-10.053 5.7796,-1.766 9.2018,-3.6653 11.139,-5.4883 1.6594,-3.2389 -0.1673,-6.3567 -6.0918,-9.0332 z m 22.072,17.428 c 0,0 -4.6465,11.625 -51.725,20.344 -26.326,4.8651 -55.745,7.0441 -83.484,7.248 29.465,0.0865 61.246,-2.0295 89.484,-7.248 23.156,-4.2885 36.016,-9.2747 43.137,-13.24 1.4901,-2.2042 2.3891,-4.5668 2.5879,-7.1035 z m -210.38,22.666 c 0,0 8.1361,6.9746 49.396,9.3027 11.956,0.77485 25.115,1.1666 38.6,1.0938 -11.376,-0.055 -22.425,-0.43436 -32.6,-1.0938 -30.63,-1.7283 -42.987,-6.0123 -47.33,-8.1074 -2.7981,-0.37508 -5.4951,-0.7729 -8.0664,-1.1953 z"
       fill="#1f1111"
       opacity="0.3"
       id="path102658"
       sodipodi:nodetypes="cscsccccscccscsccccccsccccccssccccccccccccccccccccccccccccccccccccscccscccccccccccccccccccscccccccc" />
  </g>
  <path
     d="m30.361 245.46c-5.0704 7.7e-4 -9.1808 4.1115-9.1805 9.1819v74.831c7.64e-4 5.0697 4.1108 9.1784 9.1805 9.1791h89.627c5.0697-7.6e-4 9.1798-4.1094 9.1805-9.1791v-39.167c2.7e-4 -5.0704-4.1101-9.1812-9.1805-9.1819h-4.7608v-26.482c2.6e-4 -5.0712-4.1108-9.1822-9.1819-9.1819zm114.77 0c-5.0712-2.6e-4 -9.1822 4.1108-9.1819 9.1819v74.831c7.6e-4 5.0704 4.1115 9.1794 9.1819 9.1791h88.009v-18.36h-78.829v-56.471h78.829v-18.361zm120.37 0.13364-21.662 0.44267 51.489 88.205c3.5846 5.8925 12.144 5.8767 15.706-0.0292l51.778-88.616-22.383 0.0278-37.291 66.125zm-225.97 18.227h57.324v17.303h-57.324zm0 35.664h71.267v20.807h-71.267z"
     color="#000000"
     color-rendering="auto"
     dominant-baseline="auto"
     fill="#fff"
     image-rendering="auto"
     shape-rendering="auto"
     solid-color="#000000"
     stroke="#000"
     stroke-linejoin="round"
     stroke-width="18.361"
     style="font-feature-settings:normal;font-variant-alternates:normal;font-variant-caps:normal;font-variant-ligatures:normal;font-variant-numeric:normal;font-variant-position:normal;isolation:auto;mix-blend-mode:normal;shape-padding:0;text-decoration-color:#000000;text-decoration-line:none;text-decoration-style:solid;text-indent:0;text-orientation:mixed;text-transform:none;white-space:normal"
     id="path102662" />
  <path
     d="m30.361 245.46c-5.0704 7.7e-4 -9.1808 4.1115-9.1805 9.1819v74.831c7.64e-4 5.0697 4.1108 9.1784 9.1805 9.1791h89.627c5.0697-7.6e-4 9.1798-4.1094 9.1805-9.1791v-39.167c2.7e-4 -5.0704-4.1101-9.1812-9.1805-9.1819h-4.7608v-26.482c2.6e-4 -5.0712-4.1108-9.1822-9.1819-9.1819zm114.77 0c-5.0712-2.6e-4 -9.1822 4.1108-9.1819 9.1819v74.831c7.6e-4 5.0704 4.1115 9.1794 9.1819 9.1791h88.009v-18.36h-78.829v-56.471h78.829v-18.361zm120.37 0.13364-21.662 0.44267 51.489 88.205c3.5846 5.8925 12.144 5.8767 15.706-0.0292l51.778-88.616-22.383 0.0278-37.291 66.125zm-225.97 18.227h57.324v17.303h-57.324zm0 35.664h71.267v20.807h-71.267z"
     color="#000000"
     color-rendering="auto"
     dominant-baseline="auto"
     fill="#fff"
     image-rendering="auto"
     shape-rendering="auto"
     solid-color="#000000"
     style="font-feature-settings:normal;font-variant-alternates:normal;font-variant-caps:normal;font-variant-ligatures:normal;font-variant-numeric:normal;font-variant-position:normal;isolation:auto;mix-blend-mode:normal;shape-padding:0;text-decoration-color:#000000;text-decoration-line:none;text-decoration-style:solid;text-indent:0;text-orientation:mixed;text-transform:none;white-space:normal"
     id="path102664" />
</svg>
