<?xml version="1.0" encoding="UTF-8" standalone="no"?>
<svg
   width="512"
   height="512"
   version="1.1"
   viewBox="0 0 384 384"
   id="svg479990"
   sodipodi:docname="com.github.davidmhewitt.torrential.svg"
   inkscape:version="1.1.2 (0a00cf5339, 2022-02-04)"
   xmlns:inkscape="http://www.inkscape.org/namespaces/inkscape"
   xmlns:sodipodi="http://sodipodi.sourceforge.net/DTD/sodipodi-0.dtd"
   xmlns:xlink="http://www.w3.org/1999/xlink"
   xmlns="http://www.w3.org/2000/svg"
   xmlns:svg="http://www.w3.org/2000/svg">
  <sodipodi:namedview
     id="namedview479992"
     pagecolor="#ffffff"
     bordercolor="#666666"
     borderopacity="1.0"
     inkscape:pageshadow="2"
     inkscape:pageopacity="0.0"
     inkscape:pagecheckerboard="0"
     showgrid="false"
     inkscape:zoom="1.6152344"
     inkscape:cx="255.69045"
     inkscape:cy="256"
     inkscape:window-width="1920"
     inkscape:window-height="1051"
     inkscape:window-x="0"
     inkscape:window-y="29"
     inkscape:window-maximized="1"
     inkscape:current-layer="svg479990" />
  <defs
     id="defs479968">
    <filter
       id="alpha"
       x="0"
       y="0"
       width="1"
       height="1">
      <feColorMatrix
         in="SourceGraphic"
         values="0 0 0 0 1 0 0 0 0 1 0 0 0 0 1 0 0 0 1 0"
         id="feColorMatrix479949" />
    </filter>
    <mask
       id="d">
      <g
         filter="url(#alpha)"
         id="g479954">
        <rect
           width="384"
           height="384"
           fill-opacity=".2"
           id="rect479952" />
      </g>
    </mask>
    <clipPath
       id="f">
      <rect
         width="384"
         height="384"
         id="rect479957" />
    </clipPath>
    <mask
       id="c">
      <g
         filter="url(#alpha)"
         id="g479962">
        <rect
           width="384"
           height="384"
           fill-opacity=".50196"
           id="rect479960" />
      </g>
    </mask>
    <clipPath
       id="e">
      <rect
         width="384"
         height="384"
         id="rect479965" />
    </clipPath>
  </defs>
  <path
     d="m360 343.2v-302.4c0-9.2773-7.5234-16.801-16.801-16.801h-302.4c-9.2773 0-16.801 7.5234-16.801 16.801v302.4c0 9.2773 7.5234 16.801 16.801 16.801h302.4c9.2773 0 16.801-7.5234 16.801-16.801z"
     fill="#4aaee6"
     id="path479970" />
  <path
     d="m108 223.5 84 96 84-96-48 0.0117v-36.012c0 12-12 12-12 12s-12 0-12-12-12-12-12-12-12 0-12 12-12 12-12 12-12 0-12-12.012v36.012z"
     opacity=".3"
     id="path479972" />
  <path
     d="m 115.15634,224.17867 v 0 L 192,312 l 76.57303,-87.51203 -1.78883,-8.48572 v 0 L 228,216.0117 v -36.012 c 0,12 -12,12 -12,12 0,0 -12,0 -12,-12 0,-12 -12,-12 -12,-12 0,0 -12,0 -12,12 0,12 -12,12 -12,12 0,0 -12,0 -12,-12.012 v 36.012 l -38.92408,2.4e-4 z"
     fill="#ffffff"
     id="path479974"
     sodipodi:nodetypes="cccccccccscsccccc" />
  <use
     width="100%"
     height="100%"
     mask="url(#d)"
     xlink:href="#b"
     id="use479976" />
  <use
     width="100%"
     height="100%"
     mask="url(#c)"
     xlink:href="#a"
     id="use479978" />
  <path
     transform="scale(.75)"
     d="m32 447.6v10c0 12.37 10.031 22.4 22.4 22.4h403.2c12.37 0 22.4-10.031 22.4-22.4v-10c0 12.37-10.031 22.4-22.4 22.4h-403.2c-12.37 0-22.4-10.031-22.4-22.4z"
     opacity=".3"
     stroke-width="1.3333"
     id="path479980" />
  <path
     transform="scale(.75)"
     d="m54.4 32c-12.37 0-22.4 10.031-22.4 22.4v10c0-12.37 10.031-22.4 22.4-22.4h403.2c12.37 0 22.4 10.031 22.4 22.4v-10c0-12.37-10.031-22.4-22.4-22.4h-403.2z"
     fill="#fff"
     opacity=".3"
     stroke-width="1.3333"
     id="path479982" />
  <g
     id="b"
     clip-path="url(#f)">
    <path
       d="m 192,72 c 0,0 -12,0 -12,12 0,12 -12,12 -12,12 0,0 -4.5809,0.0045 -8.08206,-2.825192 -2.1655,-1.750175 0,4.590248 0,0 L 156,97.104439 V 252 h 72 v -154.895433 0 c 0,5.030913 -2.10917,-5.151918 -4.55901,-3.455097 C 220.04735,96 216,96 216,96 c 0,0 -12,0 -12,-12 0,-12 -12,-12 -12,-12 z"
       fill="#ffffff"
       opacity="0.3"
       id="path479984"
       sodipodi:nodetypes="cscsccccccscsc" />
  </g>
  <g
     id="a"
     clip-path="url(#e)">
    <path
       d="m168 120s-12-0.011719-12 12v72h72v-72c0-12-12-12-12-12s-12 0-12 12-12 12-12 12-12 0-12-12-12-12-12-12z"
       fill="#fff"
       opacity=".3"
       id="path479987" />
  </g>
</svg>
