<?xml version="1.0" encoding="UTF-8" standalone="no"?>
<svg
   width="512"
   height="512"
   version="1.1"
   viewBox="0 0 384 384"
   id="svg1395545"
   sodipodi:docname="encryptr.svg"
   inkscape:version="1.1.2 (0a00cf5339, 2022-02-04)"
   xmlns:inkscape="http://www.inkscape.org/namespaces/inkscape"
   xmlns:sodipodi="http://sodipodi.sourceforge.net/DTD/sodipodi-0.dtd"
   xmlns="http://www.w3.org/2000/svg"
   xmlns:svg="http://www.w3.org/2000/svg">
  <sodipodi:namedview
     id="namedview1395547"
     pagecolor="#ffffff"
     bordercolor="#666666"
     borderopacity="1.0"
     inkscape:pageshadow="2"
     inkscape:pageopacity="0.0"
     inkscape:pagecheckerboard="0"
     showgrid="false"
     inkscape:zoom="1.6152344"
     inkscape:cx="255.69045"
     inkscape:cy="256"
     inkscape:window-width="1920"
     inkscape:window-height="1051"
     inkscape:window-x="0"
     inkscape:window-y="29"
     inkscape:window-maximized="1"
     inkscape:current-layer="svg1395545" />
  <defs
     id="defs1395525">
    <clipPath
       id="clipPath1395515">
      <rect
         width="384"
         height="384"
         id="rect1395513" />
    </clipPath>
    <clipPath
       id="clipPath1395519">
      <rect
         width="384"
         height="384"
         id="rect1395517" />
    </clipPath>
    <clipPath
       id="clipPath1395523">
      <rect
         width="384"
         height="384"
         id="rect1395521" />
    </clipPath>
  </defs>
  <path
     d="m360 343.2v-302.39c0-9.2773-7.5234-16.797-16.801-16.797h-302.39c-9.2773 0-16.797 7.5195-16.797 16.797v302.39c0 9.2773 7.5195 16.801 16.797 16.801h302.39c9.2773 0 16.801-7.5234 16.801-16.801z"
     fill="#bd2e5c"
     id="path1395527" />
  <path
     d="m 95.996,55.504 v 192 l 95.997,96 89.38494,-89.38494 0.95897,-6.61506 v 0 H 191.996 v -0.003 l 90.72027,-90.71743 -0.35844,-5.27657 v 0 H 191.996 v -0.003 L 282.34533,61.154672 279.91222,56.091785 281.77305,55.507 H 191.996 v -0.0029 z"
     opacity="0.3"
     id="path1395529"
     sodipodi:nodetypes="ccccccccccccccccccc" />
  <path
     d="m 278.15172,240 v 0 H 192 v 96 l 87.86542,-87.86542 z"
     fill="#ffffff"
     id="path1395531"
     sodipodi:nodetypes="cccccc" />
  <path
     d="m 279.1294,144 v 0 H 192 v 95.996 l 87.92091,-87.91725 z"
     fill="#ffffff"
     id="path1395533"
     sodipodi:nodetypes="cccccc" />
  <path
     d="m 278.01591,48.004 v 0 H 192 v 96 l 87.91222,-87.912215 z"
     fill="#cc5c7f"
     id="path1395535"
     sodipodi:nodetypes="cccccc" />
  <path
     d="m96 240h95.996v96z"
     fill="#e6e6e6"
     id="path1395537" />
  <path
     d="M 96,54.504317 102.08015,48 H 192 V 240 H 96 Z"
     fill="#e6e6e6"
     id="path1395539"
     sodipodi:nodetypes="ccccccc" />
  <path
     transform="scale(.75)"
     d="m32.01 447.6v10c0 12.37 10.027 22.4 22.396 22.4h403.19c12.37 0 22.4-10.031 22.4-22.4v-10c0 12.37-10.031 22.4-22.4 22.4h-403.19c-12.37 0-22.396-10.031-22.396-22.4z"
     opacity=".3"
     stroke-width="1.3333"
     id="path1395541" />
  <path
     transform="scale(.75)"
     d="m54.406 32.01c-12.37 0-22.396 10.027-22.396 22.396v10c0-12.37 10.027-22.396 22.396-22.396h403.19c12.37 0 22.4 10.027 22.4 22.396v-10c0-12.37-10.031-22.396-22.4-22.396h-403.19z"
     fill="#fff"
     opacity=".3"
     stroke-width="1.3333"
     id="path1395543" />
</svg>
