<?xml version="1.0" encoding="UTF-8" standalone="no"?>
<svg
   width="512"
   height="512"
   version="1.1"
   viewBox="0 0 384 384"
   id="svg1727985"
   sodipodi:docname="foobnix.svg"
   inkscape:version="1.1.2 (0a00cf5339, 2022-02-04)"
   xmlns:inkscape="http://www.inkscape.org/namespaces/inkscape"
   xmlns:sodipodi="http://sodipodi.sourceforge.net/DTD/sodipodi-0.dtd"
   xmlns="http://www.w3.org/2000/svg"
   xmlns:svg="http://www.w3.org/2000/svg">
  <sodipodi:namedview
     id="namedview1727987"
     pagecolor="#ffffff"
     bordercolor="#666666"
     borderopacity="1.0"
     inkscape:pageshadow="2"
     inkscape:pageopacity="0.0"
     inkscape:pagecheckerboard="0"
     showgrid="false"
     inkscape:zoom="1.6152344"
     inkscape:cx="255.69045"
     inkscape:cy="256"
     inkscape:window-width="1920"
     inkscape:window-height="1051"
     inkscape:window-x="0"
     inkscape:window-y="29"
     inkscape:window-maximized="1"
     inkscape:current-layer="svg1727985" />
  <defs
     id="defs1727971">
    <clipPath
       id="clipPath1727961">
      <rect
         width="384"
         height="384"
         id="rect1727959" />
    </clipPath>
    <clipPath
       id="clipPath1727965">
      <rect
         width="384"
         height="384"
         id="rect1727963" />
    </clipPath>
    <clipPath
       id="clipPath1727969">
      <rect
         width="384"
         height="384"
         id="rect1727967" />
    </clipPath>
  </defs>
  <path
     d="m360 342v-300c0-9.9414-8.0586-18-18-18h-300c-9.9414 0-18 8.0586-18 18v300c0 9.9414 8.0586 18 18 18h300c9.9414 0 18-8.0586 18-18z"
     fill="#3a8ab8"
     id="path1727973" />
  <path
     d="m73.195 67.5c-7.3125 0-13.195 5.8828-13.195 13.195v237.6c0 7.3164 5.8828 13.199 13.195 13.199h237.6c7.3164 0 13.199-5.8828 13.199-13.199v-237.6c0-7.3164-5.8828-13.199-13.199-13.199h-237.6z"
     opacity=".3"
     id="path1727975" />
  <path
     d="m73.195 60c-7.3125 0-13.195 5.8828-13.195 13.195v237.6c0 7.3164 5.8828 13.199 13.195 13.199h237.6c7.3164 0 13.199-5.8828 13.199-13.199v-237.6c0-7.3164-5.8828-13.199-13.199-13.199h-237.6z"
     fill="#fff"
     id="path1727977" />
  <path
     d="m 140.29021,124.97413 v 0 l 101.37269,60.82361 1.32314,11.61064 L 252,192 l -9.01396,5.40838 -100.8443,60.50658 v 0 L 132,250.50947 V 130.25926 Z"
     fill="#3a8ab8"
     id="path1727979"
     sodipodi:nodetypes="ccccccccccc" />
  <path
     transform="scale(.75)"
     d="m32 446v10c0 13.255 10.745 24 24 24h400c13.255 0 24-10.745 24-24v-10c0 13.255-10.745 24-24 24h-400c-13.255 0-24-10.745-24-24z"
     opacity=".3"
     stroke-width="1.3333"
     id="path1727981" />
  <path
     transform="scale(.75)"
     d="m56 32c-13.255 0-24 10.745-24 24v10c0-13.255 10.745-24 24-24h400c13.255 0 24 10.745 24 24v-10c0-13.255-10.745-24-24-24h-400z"
     fill="#fff"
     opacity=".3"
     stroke-width="1.3333"
     id="path1727983" />
</svg>
