<?xml version="1.0" encoding="UTF-8" standalone="no"?>
<svg
   width="512"
   height="512"
   version="1.1"
   viewBox="0 0 384 384"
   id="svg843116"
   sodipodi:docname="foxitpdf.svg"
   inkscape:version="1.1.2 (0a00cf5339, 2022-02-04)"
   xmlns:inkscape="http://www.inkscape.org/namespaces/inkscape"
   xmlns:sodipodi="http://sodipodi.sourceforge.net/DTD/sodipodi-0.dtd"
   xmlns="http://www.w3.org/2000/svg"
   xmlns:svg="http://www.w3.org/2000/svg">
  <sodipodi:namedview
     id="namedview843118"
     pagecolor="#ffffff"
     bordercolor="#666666"
     borderopacity="1.0"
     inkscape:pageshadow="2"
     inkscape:pageopacity="0.0"
     inkscape:pagecheckerboard="0"
     showgrid="false"
     inkscape:zoom="1.6152344"
     inkscape:cx="255.69045"
     inkscape:cy="256"
     inkscape:window-width="1920"
     inkscape:window-height="1051"
     inkscape:window-x="0"
     inkscape:window-y="29"
     inkscape:window-maximized="1"
     inkscape:current-layer="svg843116" />
  <defs
     id="defs843104">
    <clipPath
       id="clipPath843094">
      <rect
         width="384"
         height="384"
         id="rect843092" />
    </clipPath>
    <clipPath
       id="clipPath843098">
      <rect
         width="384"
         height="384"
         id="rect843096" />
    </clipPath>
    <clipPath
       id="clipPath843102">
      <rect
         width="384"
         height="384"
         id="rect843100" />
    </clipPath>
  </defs>
  <path
     d="m360 192c0-92.781-75.215-168-168-168-92.781 0-168 75.215-168 168 0 92.781 75.215 168 168 168 92.781 0 168-75.215 168-168z"
     fill="#fd7d00"
     id="path843106" />
  <path
     d="m311.98 163.12c-22.488-95.066-108.86-94.27-161.02-69.453-54.883 27.738-94.625 98.832-72.949 158.36 33.504 89.805 156.83 88.461 198.56 4.9453 12.383-30.625 21.48-52.367-12.586-81.469v36l-12-24s-10.652 25.176-21.965 36.66c-15.746 15.969-38.039 11.34-38.039 11.34 4.207 15.906 35.996 23.996 35.996 23.996-82.527 39.062-84.941-26.219-83.996-41.996 2.707-45.414 39.219-80.656 87.316-78.129 15.336 1.1758 44.676 12.133 44.676 12.133-11.039-25.262-26.758-31.273-36-36 36.223-11.977 55.555 25.836 72 47.605z"
     fill="#2a2a2a"
     fill-rule="evenodd"
     opacity=".3"
     id="path843108" />
  <path
     d="m 311.98,155.62 c -0.9961,-4.21091 -2.11753,-8.23373 -3.35578,-12.07471 C 281.90751,60.671646 200.8096,62.449258 150.96,86.167 c -54.883,27.738 -94.625,98.832 -72.949,158.36 33.504,89.805 156.83,88.461 198.56,4.9453 11.47195,-28.37184 20.12363,-49.11969 -5.75207,-75.15872 -2.05492,-2.0679 -4.32761,3.30712 -6.83393,1.16601 v 0 28.52371 l -9.41829,-18.83658 v 0 c 0,0 -3.54139,-2.89521 -5.19057,0.59012 -3.84523,8.12638 -11.43881,22.86946 -19.35614,30.90646 -11.58991,11.75405 -26.72681,12.3486 -33.91003,11.84359 -2.57587,-0.1811 -4.12897,-0.50359 -4.12897,-0.50359 4.12897,0.50359 1.03055,2.91215 1.86022,4.26507 8.02493,13.08596 34.13578,19.73093 34.13578,19.73093 -82.527,39.062 -84.941,-26.219 -83.996,-41.996 2.707,-45.414 39.219,-80.656 87.316,-78.129 10.56756,0.81021 27.78445,6.26478 37.46933,9.57844 4.37014,1.49524 3.22467,-5.43289 3.22467,-5.43289 -1.27098,-2.90853 1.37802,2.42557 0,0 -8.43925,-14.85464 -18.56662,-21.16665 -26.47092,-25.23455 -2.01511,-1.03706 1.54291,-3.38435 -0.11843,-4.23407 1.85313,-0.61273 -1.76659,0.36092 0,0 27.8365,-5.6871 45.16225,18.79229 59.31315,38.95147 2.50534,3.56908 1.56239,-5.06428 3.90942,-1.95741 z"
     fill="#ffffff"
     fill-rule="evenodd"
     id="path843110"
     sodipodi:nodetypes="cscccscccccscscscccscsscsscc" />
  <path
     transform="scale(.75)"
     d="m32.074 251.01c-0.036438 1.663-0.064453 3.3283-0.064453 5 0 123.71 100.29 223.99 224 223.99 123.71 0 223.99-100.29 223.99-223.99 0-1.6717-0.02606-3.337-0.0625-5-2.66 121.4-101.9 218.99-223.93 218.99-122.04 0-221.27-97.596-223.93-218.99z"
     fill="#180c00"
     opacity=".3"
     stroke-width="1.3333"
     id="path843112" />
  <path
     transform="scale(.75)"
     d="m256.01 32.01c-123.71 0-224 100.29-224 224 0 1.6717 0.028015 3.337 0.064453 5 2.66-121.4 101.9-219 223.93-219 122.04 0 221.27 97.598 223.93 219 0.03644-1.663 0.0625-3.3283 0.0625-5 0-123.71-100.29-224-223.99-224z"
     fill="#fff"
     opacity=".3"
     stroke-width="1.3333"
     id="path843114" />
</svg>
