<?xml version="1.0" encoding="UTF-8" standalone="no"?>
<svg
   width="512"
   height="512"
   version="1.1"
   viewBox="0 0 384 384"
   id="svg1739294"
   sodipodi:docname="fusion-icon.svg"
   inkscape:version="1.1.2 (0a00cf5339, 2022-02-04)"
   xmlns:inkscape="http://www.inkscape.org/namespaces/inkscape"
   xmlns:sodipodi="http://sodipodi.sourceforge.net/DTD/sodipodi-0.dtd"
   xmlns="http://www.w3.org/2000/svg"
   xmlns:svg="http://www.w3.org/2000/svg">
  <sodipodi:namedview
     id="namedview1739296"
     pagecolor="#ffffff"
     bordercolor="#666666"
     borderopacity="1.0"
     inkscape:pageshadow="2"
     inkscape:pageopacity="0.0"
     inkscape:pagecheckerboard="0"
     showgrid="false"
     inkscape:zoom="1.6152344"
     inkscape:cx="255.69045"
     inkscape:cy="256"
     inkscape:window-width="1920"
     inkscape:window-height="1051"
     inkscape:window-x="0"
     inkscape:window-y="29"
     inkscape:window-maximized="1"
     inkscape:current-layer="svg1739294" />
  <defs
     id="defs1739282">
    <clipPath
       id="clipPath1738996">
      <rect
         width="384"
         height="384"
         id="rect1738994" />
    </clipPath>
    <clipPath
       id="clipPath1739000">
      <rect
         width="384"
         height="384"
         id="rect1738998" />
    </clipPath>
    <clipPath
       id="clipPath1739004">
      <rect
         width="384"
         height="384"
         id="rect1739002" />
    </clipPath>
    <clipPath
       id="clipPath1739008">
      <rect
         width="384"
         height="384"
         id="rect1739006" />
    </clipPath>
    <clipPath
       id="clipPath1739012">
      <rect
         width="384"
         height="384"
         id="rect1739010" />
    </clipPath>
    <clipPath
       id="clipPath1739016">
      <rect
         width="384"
         height="384"
         id="rect1739014" />
    </clipPath>
    <clipPath
       id="clipPath1739020">
      <rect
         width="384"
         height="384"
         id="rect1739018" />
    </clipPath>
    <clipPath
       id="clipPath1739024">
      <rect
         width="384"
         height="384"
         id="rect1739022" />
    </clipPath>
    <clipPath
       id="clipPath1739028">
      <rect
         width="384"
         height="384"
         id="rect1739026" />
    </clipPath>
    <clipPath
       id="clipPath1739032">
      <rect
         width="384"
         height="384"
         id="rect1739030" />
    </clipPath>
    <clipPath
       id="clipPath1739036">
      <rect
         width="384"
         height="384"
         id="rect1739034" />
    </clipPath>
    <clipPath
       id="clipPath1739040">
      <rect
         width="384"
         height="384"
         id="rect1739038" />
    </clipPath>
    <clipPath
       id="clipPath1739044">
      <rect
         width="384"
         height="384"
         id="rect1739042" />
    </clipPath>
    <clipPath
       id="clipPath1739048">
      <rect
         width="384"
         height="384"
         id="rect1739046" />
    </clipPath>
    <clipPath
       id="clipPath1739052">
      <rect
         width="384"
         height="384"
         id="rect1739050" />
    </clipPath>
    <clipPath
       id="clipPath1739056">
      <rect
         width="384"
         height="384"
         id="rect1739054" />
    </clipPath>
    <clipPath
       id="clipPath1739060">
      <rect
         width="384"
         height="384"
         id="rect1739058" />
    </clipPath>
    <clipPath
       id="clipPath1739064">
      <rect
         width="384"
         height="384"
         id="rect1739062" />
    </clipPath>
    <clipPath
       id="clipPath1739068">
      <rect
         width="384"
         height="384"
         id="rect1739066" />
    </clipPath>
    <clipPath
       id="clipPath1739072">
      <rect
         width="384"
         height="384"
         id="rect1739070" />
    </clipPath>
    <clipPath
       id="clipPath1739076">
      <rect
         width="384"
         height="384"
         id="rect1739074" />
    </clipPath>
    <clipPath
       id="clipPath1739080">
      <rect
         width="384"
         height="384"
         id="rect1739078" />
    </clipPath>
    <clipPath
       id="clipPath1739084">
      <rect
         width="384"
         height="384"
         id="rect1739082" />
    </clipPath>
    <clipPath
       id="clipPath1739088">
      <rect
         width="384"
         height="384"
         id="rect1739086" />
    </clipPath>
    <clipPath
       id="clipPath1739092">
      <rect
         width="384"
         height="384"
         id="rect1739090" />
    </clipPath>
    <clipPath
       id="clipPath1739096">
      <rect
         width="384"
         height="384"
         id="rect1739094" />
    </clipPath>
    <clipPath
       id="clipPath1739100">
      <rect
         width="384"
         height="384"
         id="rect1739098" />
    </clipPath>
    <clipPath
       id="clipPath1739104">
      <rect
         width="384"
         height="384"
         id="rect1739102" />
    </clipPath>
    <clipPath
       id="clipPath1739108">
      <rect
         width="384"
         height="384"
         id="rect1739106" />
    </clipPath>
    <clipPath
       id="clipPath1739112">
      <rect
         width="384"
         height="384"
         id="rect1739110" />
    </clipPath>
    <clipPath
       id="clipPath1739116">
      <rect
         width="384"
         height="384"
         id="rect1739114" />
    </clipPath>
    <clipPath
       id="clipPath1739120">
      <rect
         width="384"
         height="384"
         id="rect1739118" />
    </clipPath>
    <clipPath
       id="clipPath1739124">
      <rect
         width="384"
         height="384"
         id="rect1739122" />
    </clipPath>
    <clipPath
       id="clipPath1739128">
      <rect
         width="384"
         height="384"
         id="rect1739126" />
    </clipPath>
    <clipPath
       id="clipPath1739132">
      <rect
         width="384"
         height="384"
         id="rect1739130" />
    </clipPath>
    <clipPath
       id="clipPath1739136">
      <rect
         width="384"
         height="384"
         id="rect1739134" />
    </clipPath>
    <clipPath
       id="clipPath1739140">
      <rect
         width="384"
         height="384"
         id="rect1739138" />
    </clipPath>
    <clipPath
       id="clipPath1739144">
      <rect
         width="384"
         height="384"
         id="rect1739142" />
    </clipPath>
    <clipPath
       id="clipPath1739148">
      <rect
         width="384"
         height="384"
         id="rect1739146" />
    </clipPath>
    <clipPath
       id="clipPath1739152">
      <rect
         width="384"
         height="384"
         id="rect1739150" />
    </clipPath>
    <clipPath
       id="clipPath1739156">
      <rect
         width="384"
         height="384"
         id="rect1739154" />
    </clipPath>
    <clipPath
       id="clipPath1739160">
      <rect
         width="384"
         height="384"
         id="rect1739158" />
    </clipPath>
    <clipPath
       id="clipPath1739164">
      <rect
         width="384"
         height="384"
         id="rect1739162" />
    </clipPath>
    <clipPath
       id="clipPath1739168">
      <rect
         width="384"
         height="384"
         id="rect1739166" />
    </clipPath>
    <clipPath
       id="clipPath1739172">
      <rect
         width="384"
         height="384"
         id="rect1739170" />
    </clipPath>
    <clipPath
       id="clipPath1739176">
      <rect
         width="384"
         height="384"
         id="rect1739174" />
    </clipPath>
    <clipPath
       id="clipPath1739180">
      <rect
         width="384"
         height="384"
         id="rect1739178" />
    </clipPath>
    <clipPath
       id="clipPath1739184">
      <rect
         width="384"
         height="384"
         id="rect1739182" />
    </clipPath>
    <clipPath
       id="clipPath1739188">
      <rect
         width="384"
         height="384"
         id="rect1739186" />
    </clipPath>
    <clipPath
       id="clipPath1739192">
      <rect
         width="384"
         height="384"
         id="rect1739190" />
    </clipPath>
    <clipPath
       id="clipPath1739196">
      <rect
         width="384"
         height="384"
         id="rect1739194" />
    </clipPath>
    <clipPath
       id="clipPath1739200">
      <rect
         width="384"
         height="384"
         id="rect1739198" />
    </clipPath>
    <clipPath
       id="clipPath1739204">
      <rect
         width="384"
         height="384"
         id="rect1739202" />
    </clipPath>
    <clipPath
       id="c">
      <path
         d="m111 119h177v23h-177z"
         id="path1739206" />
    </clipPath>
    <clipPath
       id="clipPath1739211">
      <path
         d="m368.64 199.88c0-93.234-75.602-168.75-168.75-168.75-93.152 0-168.75 75.516-168.75 168.75s75.598 168.75 168.75 168.75c93.148 0 168.75-75.516 168.75-168.75z"
         id="path1739209" />
    </clipPath>
    <clipPath
       id="b">
      <path
         d="m177 130h45v89h-45z"
         id="path1739213" />
    </clipPath>
    <clipPath
       id="clipPath1739218">
      <path
         d="m368.64 199.88c0-93.234-75.602-168.75-168.75-168.75-93.152 0-168.75 75.516-168.75 168.75s75.598 168.75 168.75 168.75c93.148 0 168.75-75.516 168.75-168.75z"
         id="path1739216" />
    </clipPath>
    <clipPath
       id="a">
      <path
         d="m111 207h177v89h-177z"
         id="path1739220" />
    </clipPath>
    <clipPath
       id="clipPath1739225">
      <path
         d="m368.64 199.88c0-93.234-75.602-168.75-168.75-168.75-93.152 0-168.75 75.516-168.75 168.75s75.598 168.75 168.75 168.75c93.148 0 168.75-75.516 168.75-168.75z"
         id="path1739223" />
    </clipPath>
    <clipPath
       id="d">
      <rect
         width="384"
         height="384"
         id="rect1739227" />
    </clipPath>
    <g
       clip-path="url(#d)"
       id="g1739236">
      <g
         clip-path="url(#c)"
         id="g1739230" />
      <g
         clip-path="url(#b)"
         id="g1739232" />
      <g
         clip-path="url(#a)"
         id="g1739234" />
    </g>
    <clipPath
       id="clipPath1739240">
      <rect
         width="384"
         height="384"
         id="rect1739238" />
    </clipPath>
    <clipPath
       id="clipPath1739244">
      <rect
         width="384"
         height="384"
         id="rect1739242" />
    </clipPath>
    <clipPath
       id="clipPath1739248">
      <rect
         width="384"
         height="384"
         id="rect1739246" />
    </clipPath>
    <clipPath
       id="clipPath1739252">
      <rect
         width="384"
         height="384"
         id="rect1739250" />
    </clipPath>
    <clipPath
       id="clipPath1739256">
      <rect
         width="384"
         height="384"
         id="rect1739254" />
    </clipPath>
    <clipPath
       id="clipPath1739260">
      <rect
         width="384"
         height="384"
         id="rect1739258" />
    </clipPath>
    <clipPath
       id="clipPath1739264">
      <rect
         width="384"
         height="384"
         id="rect1739262" />
    </clipPath>
    <clipPath
       id="clipPath1739268">
      <rect
         width="384"
         height="384"
         id="rect1739266" />
    </clipPath>
    <clipPath
       id="clipPath1739272">
      <rect
         width="384"
         height="384"
         id="rect1739270" />
    </clipPath>
    <clipPath
       id="clipPath1739276">
      <rect
         width="384"
         height="384"
         id="rect1739274" />
    </clipPath>
    <clipPath
       id="clipPath1739280">
      <rect
         width="384"
         height="384"
         id="rect1739278" />
    </clipPath>
  </defs>
  <path
     d="m360 343.2v-302.39c0-9.2773-7.5234-16.797-16.801-16.797h-302.39c-9.2773 0-16.797 7.5195-16.797 16.797v302.39c0 9.2773 7.5195 16.801 16.797 16.801h302.39c9.2773 0 16.801-7.5234 16.801-16.801z"
     style="fill:#272a34"
     id="path1739284" />
  <path
     d="m132.02 31.5c-11.879 0.0195-23.758 0.0937-35.66 0.23437-101.74 113.83 1.1562 185.97 83.637 203.77-87.297-56.711-13.254-160.69 60-203.86-36.063 0.17188-71.984-0.19531-107.98-0.14062zm71.977 132c87.297 56.711 13.254 153.19-60 196.36 47.961-0.23046 95.664 0.48046 143.64-0.0937 101.74-113.83-1.1562-178.47-83.637-196.27zm-30.152 0.0352c-5.207 0.26562-9.5664 2.0352-12.68 5.1562-9.9766 10.391-4.4258 32.316 12.449 49.191s38.801 22.426 49.191 12.449c8.5078-8.4961 6.3828-25.473-5.168-41.227-11.547-15.758-29.578-26.285-43.793-25.57z"
     style="fill-rule:evenodd;opacity:.3"
     id="path1739286" />
  <path
     d="m 132.02,24 c -11.879,0.01953 -23.758,0.09375 -35.66,0.23438 -93.4921538,104.60204 -14.182084,173.99954 63.29476,198.37635 6.83498,2.15051 -2.70371,-8.94709 3.98283,-7.50408 -6.26383,-4.06919 4.6624,4.51599 0,0 C 103.32157,156.68482 171.9992,64.216797 239.997,24.14438 203.935,24.31626 168.013,23.94907 132.017,24.00376 Z m 89.36292,145.9077 c 6.72924,4.37153 -4.88613,-4.88377 0,0 58.50065,58.47229 -9.77866,150.11003 -77.38592,189.9523 47.961,-0.23046 95.664,0.48047 143.64,-0.0937 92.34531,-103.31892 16.10184,-172.29168 -60.44309,-197.45897 -7.78725,-2.56038 7.61629,1.64366 0,0 z M 173.845,156.0352 c -5.207,0.26562 -9.5664,2.0352 -12.68,5.1562 -9.9766,10.391 -4.4258,32.316 12.449,49.191 16.8748,16.875 38.801,22.426 49.191,12.449 8.5078,-8.4961 6.3828,-25.473 -5.168,-41.227 -11.547,-15.758 -29.578,-26.285 -43.793,-25.57 z"
     style="fill:#fd3535;fill-rule:evenodd"
     id="path1739288"
     sodipodi:nodetypes="ccscsccccsccsccccscccc" />
  <path
     transform="scale(.75)"
     d="m32.01 447.6v10c0 12.37 10.027 22.4 22.396 22.4h403.19c12.37 0 22.4-10.031 22.4-22.4v-10c0 12.37-10.031 22.4-22.4 22.4h-403.19c-12.37 0-22.396-10.031-22.396-22.4z"
     style="opacity:.3;stroke-width:1.3333"
     id="path1739290" />
  <path
     transform="scale(.75)"
     d="m54.406 32.01c-12.37 0-22.396 10.027-22.396 22.396v10c0-12.37 10.027-22.396 22.396-22.396h403.19c12.37 0 22.4 10.027 22.4 22.396v-10c0-12.37-10.031-22.396-22.4-22.396h-403.19z"
     style="fill:#fff;opacity:.1;stroke-width:1.3333"
     id="path1739292" />
</svg>
