<?xml version="1.0" encoding="UTF-8" standalone="no"?>
<svg
   width="512"
   height="512"
   version="1.1"
   viewBox="0 0 384 384"
   id="svg1563907"
   sodipodi:docname="galleta.svg"
   inkscape:version="1.1.2 (0a00cf5339, 2022-02-04)"
   xmlns:inkscape="http://www.inkscape.org/namespaces/inkscape"
   xmlns:sodipodi="http://sodipodi.sourceforge.net/DTD/sodipodi-0.dtd"
   xmlns="http://www.w3.org/2000/svg"
   xmlns:svg="http://www.w3.org/2000/svg">
  <defs
     id="defs1563911" />
  <sodipodi:namedview
     id="namedview1563909"
     pagecolor="#ffffff"
     bordercolor="#666666"
     borderopacity="1.0"
     inkscape:pageshadow="2"
     inkscape:pageopacity="0.0"
     inkscape:pagecheckerboard="0"
     showgrid="false"
     inkscape:zoom="1.6152344"
     inkscape:cx="255.69045"
     inkscape:cy="256"
     inkscape:window-width="1920"
     inkscape:window-height="1051"
     inkscape:window-x="0"
     inkscape:window-y="29"
     inkscape:window-maximized="1"
     inkscape:current-layer="svg1563907" />
  <path
     d="m 259.51,23.25 c 0.007,7.506675 -1.45527,3.798085 -2.24392,5.662547 C 239.24072,71.526642 200.16882,101.93303 153.95,108.859 c 1.1536,6.991 1.7505,14.062 1.7761,21.145 -0.035,69.84316 -54.11328,127.19055 -122.995446,132.63321 -3.132139,0.24749 3.189667,-0.0291 0,0 1.438137,2.84959 -6.533877,6.07181 -4.949429,8.83053 30.661174,53.38497 88.249965,89.28026 154.684875,89.28026 98.763,0 178.28,-79.164 178.28,-177.49 0,-68.98453 -39.23269,-128.369809 -96.69381,-157.755928 C 262.54924,24.7334 259.5165,30.756675 259.5061,23.258 Z"
     fill="#b48964"
     stroke-width="0.9375"
     id="path1563775"
     sodipodi:nodetypes="csccscsssscc" />
  <path
     transform="scale(0.75)"
     d="m 206.61,144.93 c -0.44432,0.07 -0.88671,0.1442 -1.332,0.21094 1.2816,7.7671 2.0396,15.61 2.2793,23.473 0.0524,-1.754 0.087,-3.513 0.0879,-5.2793 -0.0223,-6.1498 -0.37219,-12.293 -1.0352,-18.404 z m 274.33,94.244 c -2.5666,128.85 -107.58,231.82 -237.64,231.82 -89.139,0 -166.629442,-38.98374 -207.309442,-110.90574 7.350872,-0.42106 25.117349,2.86116 25.117349,2.86116 1.593991,3.15849 -26.846559,-5.93632 -25.117349,-2.86116 40.604142,72.20883 117.959182,120.90855 207.304242,120.90855 131.68,0 237.71,-105.55 237.71,-236.65 0,-1.7291 -0.0257,-3.452 -0.0625,-5.1719 z"
     opacity="0.3"
     stroke-width="1.25"
     id="path1563777"
     sodipodi:nodetypes="cccccccsccssscc" />
  <g
     fill="#493525"
     id="g1563831">
    <path
       d="m231.66 154.63c0.5408 4.445-1.9745 9.9017-6.8963 10.319-6.4125 0.89546-12.898-2.6191-16.755-7.5947-2.5847-3.2871-1.9056-8.2406 1.5137-10.64 5.8519-5.2007 16.363-5.085 21.018 1.643 1.1944 1.8309 1.6046 4.1415 1.1197 6.2728z"
       id="path1563779" />
    <path
       d="m239.26 257.38c1.2516 10.287-4.5698 22.916-15.961 23.883-14.841 2.0724-29.85-6.0615-38.776-17.577-5.982-7.6077-4.4103-19.072 3.5032-24.626 13.544-12.036 37.869-11.769 48.642 3.8024 2.7642 4.2373 3.7136 9.5849 2.5914 14.518z"
       id="path1563781" />
    <path
       d="m317.39 189.52c0.5408 4.445-1.9745 9.9017-6.8963 10.319-6.4125 0.89546-12.898-2.6191-16.755-7.5947-2.5847-3.2871-1.9056-8.2405 1.5137-10.64 5.8519-5.2007 16.363-5.085 21.018 1.643 1.1944 1.8309 1.6046 4.1415 1.1197 6.2728z"
       id="path1563783" />
    <path
       d="m292.81 128.25c1.0276 8.4462-3.7519 18.815-13.104 19.608-12.185 1.7015-24.507-4.9767-31.836-14.431-4.9114-6.246-3.621-15.658 2.8762-20.218 11.12-9.882 31.091-9.6622 39.936 3.1219 2.2695 3.4789 3.049 7.8694 2.1276 11.919z"
       id="path1563785" />
    <path
       d="m152.72 283.89c0.34608 2.8445-1.2636 6.3365-4.4132 6.6037-4.1036 0.57303-8.2537-1.6761-10.722-4.8602-1.6541-2.1036-1.2195-5.2734 0.96866-6.8092 3.7449-3.3281 10.471-3.2541 13.45 1.0514 0.76432 1.1716 1.0268 2.6503 0.71654 4.0142z"
       id="path1563787" />
    <path
       d="m181.88 232.79c0.35374 2.9076-1.2916 6.4768-4.5109 6.75-4.1945 0.58573-8.4365-1.7132-10.959-4.9678-1.6907-2.1502-1.2465-5.3902 0.99013-6.96 3.8278-3.4018 10.703-3.3262 13.748 1.0747 0.78123 1.1976 1.0496 2.709 0.7324 4.1032z"
       id="path1563789" />
    <path
       d="m268.89 211.75c0.65303 5.3675-2.3843 11.957-8.3275 12.461-7.7433 1.0813-15.574-3.1626-20.232-9.1708-3.1211-3.9693-2.3011-9.9507 1.8278-12.849 7.0664-6.28 19.758-6.1403 25.379 1.9839 1.4422 2.2108 1.9376 5.001 1.3521 7.5747z"
       id="path1563791" />
    <path
       d="m302.92 271.81c0.47589 3.83-1.7375 8.5318-6.0686 8.8916-5.6429 0.77156-11.35-2.2567-14.744-6.5439-2.2745-2.8323-1.6769-7.1004 1.332-9.1683 5.1496-4.4811 14.399-4.3814 18.495 1.4156 1.051 1.5776 1.412 3.5685 0.9853 5.405z"
       id="path1563793" />
    <path
       d="m270.84 319.66c0.6057 5.2138-2.2115 11.614-7.724 12.104-7.1821 1.0503-14.446-3.072-18.765-8.9082-2.8949-3.8556-2.1343-9.6657 1.6954-12.481 6.5543-6.1001 18.326-5.9644 23.54 1.9271 1.3377 2.1475 1.7972 4.8577 1.2541 7.3577z"
       id="path1563795" />
    <path
       d="m213.69 324.84c0.4759 3.9838-1.7375 8.8742-6.0686 9.2485-5.6429 0.80255-11.35-2.3473-14.744-6.8066-2.2745-2.946-1.6769-7.3855 1.332-9.5363 5.1496-4.661 14.399-4.5573 18.495 1.4725 1.051 1.6409 1.412 3.7117 0.9853 5.6219z"
       id="path1563797" />
    <path
       d="m109.22 326.67c0.41099 3.378-1.5006 7.5249-5.2409 7.8423-4.8732 0.68051-9.8016-1.9904-12.733-5.7717-1.9643-2.4981-1.4482-6.2625 1.1503-8.0863 4.4472-3.9523 12.435-3.8644 15.972 1.2486 0.90767 1.3914 1.2194 3.1474 0.85092 4.7671z"
       id="path1563799" />
    <path
       d="m98.494 286.38c0.5408 4.445-1.9745 9.9017-6.8963 10.319-6.4125 0.89546-12.898-2.6191-16.755-7.5947-2.5847-3.2871-1.9056-8.2406 1.5137-10.64 5.8519-5.2007 16.363-5.085 21.018 1.643 1.1944 1.8308 1.6046 4.1415 1.1197 6.2728z"
       id="path1563801" />
    <path
       d="m292.85 72.083c0.89776 7.3792-3.278 16.438-11.449 17.131-10.645 1.4866-21.411-4.348-27.814-12.608-4.2909-5.457-3.1635-13.68 2.5129-17.664 9.7149-8.6337 27.164-8.4416 34.891 2.7275 1.9828 3.0394 2.6638 6.8753 1.8588 10.414z"
       id="path1563803" />
    <path
       d="m192.53 124.33c0.2041 1.6776-0.7452 3.7369-2.6027 3.8945-2.4201 0.33795-4.8676-0.98844-6.3232-2.8662-0.97547-1.2406-0.71918-3.11 0.57127-4.0157 2.2085-1.9628 6.1753-1.9191 7.9321 0.62006 0.45075 0.69097 0.60557 1.563 0.42257 2.3674z"
       id="path1563805" />
    <path
       d="m181.85 139.59c0.20409 1.6776-0.7452 3.7369-2.6027 3.8945-2.4201 0.33795-4.8676-0.98845-6.3232-2.8663-0.97548-1.2406-0.71919-3.11 0.57126-4.0157 2.2085-1.9628 6.1753-1.9191 7.9321 0.62006 0.45075 0.69097 0.60558 1.563 0.42258 2.3674z"
       id="path1563807" />
    <path
       d="m196.36 138.02c0.13919 1.3701-0.50821 3.052-1.775 3.1807-1.6505 0.27601-3.3196-0.80726-4.3124-2.3409-0.66525-1.0132-0.49047-2.5399 0.3896-3.2796 1.5062-1.603 4.2114-1.5673 5.4095 0.5064 0.3074 0.56432 0.41299 1.2765 0.28818 1.9334z"
       id="path1563809" />
    <path
       d="m187.96 169.23c0.32366 2.6604-1.1818 5.9262-4.1275 6.1762-3.8379 0.53593-7.7192-1.5675-10.028-4.5455-1.547-1.9674-1.1405-4.932 0.90594-6.3683 3.5024-3.1126 9.7931-3.0434 12.579 0.98331 0.71482 1.0958 0.96035 2.4787 0.67014 3.7543z"
       id="path1563811" />
    <path
       d="m171.03 193.42c0.32366 2.6604-1.1818 5.9262-4.1275 6.1762-3.8379 0.53594-7.7192-1.5675-10.028-4.5454-1.547-1.9674-1.1405-4.932 0.90594-6.3683 3.5024-3.1126 9.7931-3.0434 12.579 0.98332 0.71482 1.0958 0.96035 2.4787 0.67014 3.7543z"
       id="path1563813" />
    <path
       d="m194.05 190.94c0.22073 2.1727-0.80595 4.8399-2.8148 5.0441-2.6174 0.4377-5.2644-1.2802-6.8387-3.7123-1.055-1.6067-0.77781-4.028 0.61784-5.201 2.3886-2.5421 6.6787-2.4855 8.5787 0.80308 0.4875 0.89492 0.65494 2.0244 0.45702 3.0662z"
       id="path1563815" />
    <g
       stroke-width="1.432"
       id="g1563829">
      <path
         d="m150.28 53.954c-0.38179 2.3897-2.5019 4.8491-5.1208 4.3322-3.4645-0.49087-6.3093-3.2833-7.571-6.4429-0.85256-2.0929 0.23868-4.5647 2.3726-5.3015 3.8151-1.8292 9.2578-0.20199 10.673 3.9869 0.34745 1.1291 0.21607 2.3905-0.35358 3.4254z"
         id="path1563817" />
      <path
         d="m129.55 70.739c-0.3818 2.3897-2.5019 4.8491-5.1208 4.3322-3.4645-0.49087-6.3093-3.2834-7.5709-6.443-0.85257-2.0929 0.23866-4.5647 2.3726-5.3015 3.8151-1.8292 9.2578-0.20199 10.673 3.9869 0.34745 1.1291 0.21607 2.3905-0.35357 3.4254z"
         id="path1563819" />
      <path
         d="m150.14 74.31c-0.34965 1.9408-1.9051 4-3.6996 3.6767-2.3808-0.2721-4.2502-2.4225-5.0108-4.9255-0.5154-1.6574 0.32827-3.6897 1.8318-4.3601 2.7064-1.6114 6.4157-0.49358 7.2456 2.8339 0.20017 0.89816 0.0642 1.9201-0.36711 2.775z"
         id="path1563821" />
      <path
         d="m126.25 113.95c-0.60546 3.7896-3.9677 7.6899-8.1209 6.8704-5.4942-0.77845-10.005-5.2068-12.007-10.218-1.3521-3.319 0.37852-7.2389 3.7626-8.4074 6.0503-2.9006 14.681-0.32031 16.925 6.3226 0.551 1.7906 0.34265 3.791-0.56069 5.4321z"
         id="path1563823" />
      <path
         d="m93.391 140.56c-0.60546 3.7896-3.9677 7.6899-8.1209 6.8704-5.4942-0.77844-10.005-5.2068-12.007-10.218-1.3521-3.319 0.37853-7.2389 3.7626-8.4074 6.0503-2.9006 14.681-0.32031 16.925 6.3226 0.551 1.7906 0.34265 3.791-0.5607 5.4321z"
         id="path1563825" />
      <path
         d="m126.06 146.24c-0.55447 3.0777-3.0212 6.3432-5.8669 5.8307-3.7755-0.4315-6.7402-3.8417-7.9463-7.8111-0.8174-2.6282 0.52062-5.8514 2.905-6.9146 4.2919-2.5554 10.174-0.78272 11.49 4.4942 0.31748 1.4243 0.10181 3.0451-0.58221 4.4008z"
         id="path1563827" />
    </g>
  </g>
  <path
     transform="scale(0.75)"
     d="m 346.022,41.0089 c -1.68811,4.561838 -3.55552,-0.981125 -5.58932,3.381673 C 315.37706,98.138642 264.76549,136.23299 205.28,145.14 c 0.53643,3.251 0.97698,6.5159 1.332,9.7891 63.727,-10.04 117.08,-53.593 139.41,-113.93 v 0.0098 c 78.439,37.355 132.95,116.01 134.92,208.17 0.032,-1.6063 0.0625,-3.2139 0.0625,-4.8281 0,-90.95274 -51.14879,-169.388043 -126.36356,-209.0204 -2.83836,-1.495595 -8.62144,15.6668 -8.61894,5.6687 v 0 z M 207.56,178.62 c -2.70722,90.65849 -218.105676,120.31928 -145.514476,174.0272 17.271497,12.77864 3.376509,10.26312 -0.937617,10.30222 19.094746,14.78204 24.812706,2.34221 0,0 C 156.42991,359.31182 207.6052,278.9332 207.6552,183.3372 c -0.006,-1.5745 -0.0399,-3.1474 -0.0879,-4.7207 z"
     fill="#ffffff"
     opacity="0.2"
     stroke-width="1.25"
     id="path1563833"
     sodipodi:nodetypes="cscccccssccccsccccc" />
  <g
     fill="#493525"
     id="g1563887">
    <path
       d="m231.66 159.13c0.5408 4.445-1.9745 9.9017-6.8963 10.319-6.4125 0.89546-12.898-2.6191-16.755-7.5947-2.5847-3.2871-1.9056-8.2406 1.5137-10.64 5.8519-5.2007 16.363-5.085 21.018 1.643 1.1944 1.8309 1.6046 4.1415 1.1197 6.2728z"
       opacity=".3"
       id="path1563835" />
    <path
       d="m239.26 261.88c1.2516 10.287-4.5698 22.916-15.961 23.883-14.841 2.0724-29.85-6.0615-38.776-17.577-5.982-7.6077-4.4103-19.072 3.5032-24.626 13.544-12.036 37.869-11.769 48.642 3.8024 2.7642 4.2373 3.7136 9.5849 2.5914 14.518z"
       opacity=".3"
       id="path1563837" />
    <path
       d="m317.39 194.02c0.5408 4.445-1.9745 9.9017-6.8963 10.319-6.4125 0.89546-12.898-2.6191-16.755-7.5947-2.5847-3.2871-1.9056-8.2405 1.5137-10.64 5.8519-5.2007 16.363-5.085 21.018 1.643 1.1944 1.8309 1.6046 4.1415 1.1197 6.2728z"
       opacity=".3"
       id="path1563839" />
    <path
       d="m292.81 132.75c1.0276 8.4462-3.7519 18.815-13.104 19.608-12.185 1.7015-24.507-4.9767-31.836-14.431-4.9114-6.246-3.621-15.658 2.8762-20.218 11.12-9.882 31.091-9.6622 39.936 3.1219 2.2695 3.4789 3.049 7.8694 2.1276 11.919z"
       opacity=".3"
       id="path1563841" />
    <path
       d="m152.72 288.39c0.34608 2.8445-1.2636 6.3365-4.4132 6.6037-4.1036 0.57303-8.2537-1.6761-10.722-4.8602-1.6541-2.1036-1.2195-5.2734 0.96866-6.8092 3.7449-3.3281 10.471-3.2541 13.45 1.0514 0.76432 1.1716 1.0268 2.6503 0.71654 4.0142z"
       opacity=".3"
       id="path1563843" />
    <path
       d="m181.88 237.29c0.35374 2.9076-1.2916 6.4768-4.5109 6.75-4.1945 0.58573-8.4365-1.7132-10.959-4.9678-1.6907-2.1502-1.2465-5.3902 0.99013-6.96 3.8278-3.4018 10.703-3.3262 13.748 1.0747 0.78123 1.1976 1.0496 2.709 0.7324 4.1032z"
       opacity=".3"
       id="path1563845" />
    <path
       d="m268.89 216.25c0.65303 5.3675-2.3843 11.957-8.3275 12.461-7.7433 1.0813-15.574-3.1626-20.232-9.1708-3.1211-3.9693-2.3011-9.9507 1.8278-12.849 7.0664-6.28 19.758-6.1403 25.379 1.9839 1.4422 2.2108 1.9376 5.001 1.3521 7.5747z"
       opacity=".3"
       id="path1563847" />
    <path
       d="m302.92 276.31c0.47589 3.83-1.7375 8.5318-6.0686 8.8916-5.6429 0.77156-11.35-2.2567-14.744-6.5439-2.2745-2.8323-1.6769-7.1004 1.332-9.1683 5.1496-4.4811 14.399-4.3814 18.495 1.4156 1.051 1.5776 1.412 3.5685 0.9853 5.405z"
       opacity=".3"
       id="path1563849" />
    <path
       d="m270.84 324.16c0.6057 5.2138-2.2115 11.614-7.724 12.104-7.1821 1.0503-14.446-3.072-18.765-8.9082-2.8949-3.8556-2.1343-9.6657 1.6954-12.481 6.5543-6.1001 18.326-5.9644 23.54 1.9271 1.3377 2.1475 1.7972 4.8577 1.2541 7.3577z"
       opacity=".3"
       id="path1563851" />
    <path
       d="m213.69 329.34c0.4759 3.9838-1.7375 8.8742-6.0686 9.2485-5.6429 0.80255-11.35-2.3473-14.744-6.8066-2.2745-2.946-1.6769-7.3855 1.332-9.5363 5.1496-4.661 14.399-4.5573 18.495 1.4725 1.051 1.6409 1.412 3.7117 0.9853 5.6219z"
       opacity=".3"
       id="path1563853" />
    <path
       d="m109.22 331.17c0.41099 3.378-1.5006 7.5249-5.2409 7.8423-4.8732 0.68051-9.8016-1.9904-12.733-5.7717-1.9643-2.4981-1.4482-6.2625 1.1503-8.0863 4.4472-3.9523 12.435-3.8644 15.972 1.2486 0.90767 1.3914 1.2194 3.1474 0.85092 4.7671z"
       opacity=".3"
       id="path1563855" />
    <path
       d="m98.494 290.88c0.5408 4.445-1.9745 9.9017-6.8963 10.319-6.4125 0.89546-12.898-2.6191-16.755-7.5947-2.5847-3.2871-1.9056-8.2406 1.5137-10.64 5.8519-5.2007 16.363-5.085 21.018 1.643 1.1944 1.8308 1.6046 4.1415 1.1197 6.2728z"
       opacity=".3"
       id="path1563857" />
    <path
       d="m292.85 76.583c0.89776 7.3792-3.278 16.438-11.449 17.131-10.645 1.4866-21.411-4.348-27.814-12.608-4.2909-5.457-3.1635-13.68 2.5129-17.664 9.7149-8.6337 27.164-8.4416 34.891 2.7275 1.9828 3.0394 2.6638 6.8753 1.8588 10.414z"
       opacity=".3"
       id="path1563859" />
    <path
       d="m192.53 128.83c0.2041 1.6776-0.7452 3.7369-2.6027 3.8945-2.4201 0.33795-4.8676-0.98844-6.3232-2.8662-0.97547-1.2406-0.71918-3.11 0.57127-4.0157 2.2085-1.9628 6.1753-1.9191 7.9321 0.62006 0.45075 0.69097 0.60557 1.563 0.42257 2.3674z"
       opacity=".3"
       id="path1563861" />
    <path
       d="m181.85 144.09c0.20409 1.6776-0.7452 3.7369-2.6027 3.8945-2.4201 0.33795-4.8676-0.98845-6.3232-2.8663-0.97548-1.2406-0.71919-3.11 0.57126-4.0157 2.2085-1.9628 6.1753-1.9191 7.9321 0.62006 0.45075 0.69097 0.60558 1.563 0.42258 2.3674z"
       opacity=".3"
       id="path1563863" />
    <path
       d="m196.36 142.52c0.13919 1.3701-0.50821 3.052-1.775 3.1807-1.6505 0.27601-3.3196-0.80726-4.3124-2.3409-0.66525-1.0132-0.49047-2.5399 0.3896-3.2796 1.5062-1.603 4.2114-1.5673 5.4095 0.5064 0.3074 0.56432 0.41299 1.2765 0.28818 1.9334z"
       opacity=".3"
       id="path1563865" />
    <path
       d="m187.96 173.73c0.32366 2.6604-1.1818 5.9262-4.1275 6.1762-3.8379 0.53593-7.7192-1.5675-10.028-4.5455-1.547-1.9674-1.1405-4.932 0.90594-6.3683 3.5024-3.1126 9.7931-3.0434 12.579 0.98331 0.71482 1.0958 0.96035 2.4787 0.67014 3.7543z"
       opacity=".3"
       id="path1563867" />
    <path
       d="m171.03 197.92c0.32366 2.6604-1.1818 5.9262-4.1275 6.1762-3.8379 0.53594-7.7192-1.5675-10.028-4.5454-1.547-1.9674-1.1405-4.932 0.90594-6.3683 3.5024-3.1126 9.7931-3.0434 12.579 0.98332 0.71482 1.0958 0.96035 2.4787 0.67014 3.7543z"
       opacity=".3"
       id="path1563869" />
    <path
       d="m194.05 195.44c0.22073 2.1727-0.80595 4.8399-2.8148 5.0441-2.6174 0.4377-5.2644-1.2802-6.8387-3.7123-1.055-1.6067-0.77781-4.028 0.61784-5.201 2.3886-2.5421 6.6787-2.4855 8.5787 0.80308 0.4875 0.89492 0.65494 2.0244 0.45702 3.0662z"
       opacity=".3"
       id="path1563871" />
    <g
       stroke-width="1.432"
       id="g1563885">
      <path
         d="m148.5 60.148c-0.38179 2.3897-2.5019 4.8491-5.1208 4.3322-3.4645-0.49087-6.3093-3.2833-7.571-6.4429-0.85255-2.0929 0.23868-4.5647 2.3726-5.3015 3.8151-1.8292 9.2578-0.20199 10.673 3.9869 0.34745 1.1291 0.21606 2.3905-0.35358 3.4254z"
         opacity=".3"
         id="path1563873" />
      <path
         d="m127.77 76.933c-0.3818 2.3897-2.5019 4.8491-5.1208 4.3322-3.4645-0.49086-6.3093-3.2834-7.5709-6.443-0.85257-2.0929 0.23866-4.5647 2.3726-5.3015 3.8151-1.8292 9.2578-0.20199 10.673 3.9869 0.34745 1.1291 0.21607 2.3905-0.35357 3.4254z"
         opacity=".3"
         id="path1563875" />
      <path
         d="m148.36 80.504c-0.34966 1.9408-1.9051 4-3.6996 3.6767-2.3808-0.2721-4.2502-2.4224-5.0108-4.9255-0.51539-1.6574 0.32827-3.6897 1.8318-4.3601 2.7064-1.6114 6.4157-0.49358 7.2456 2.8339 0.20017 0.89816 0.0642 1.9201-0.36711 2.775z"
         opacity=".3"
         id="path1563877" />
      <path
         d="m124.47 120.14c-0.60546 3.7896-3.9677 7.6899-8.1209 6.8704-5.4942-0.77846-10.005-5.2068-12.007-10.218-1.3521-3.319 0.37853-7.2389 3.7626-8.4074 6.0503-2.9006 14.681-0.32031 16.925 6.3226 0.55099 1.7906 0.34264 3.791-0.5607 5.4321z"
         opacity=".3"
         id="path1563879" />
      <path
         d="m91.614 146.75c-0.60546 3.7896-3.9677 7.6899-8.1209 6.8704-5.4942-0.77843-10.005-5.2068-12.007-10.218-1.3521-3.319 0.37853-7.2389 3.7626-8.4074 6.0503-2.9006 14.681-0.32033 16.925 6.3226 0.551 1.7906 0.34265 3.791-0.5607 5.4321z"
         opacity=".3"
         id="path1563881" />
      <path
         d="m124.28 152.43c-0.55448 3.0777-3.0212 6.3432-5.8669 5.8307-3.7755-0.43151-6.7402-3.8417-7.9463-7.8111-0.8174-2.6282 0.52062-5.8514 2.905-6.9146 4.2919-2.5554 10.174-0.78272 11.49 4.4942 0.31748 1.4243 0.10181 3.0451-0.58221 4.4008z"
         opacity=".3"
         id="path1563883" />
    </g>
  </g>
  <g
     id="g1563895">
    <circle
       cx="150.1"
       cy="155.39"
       r="91.405"
       fill="#fff"
       opacity=".2"
       id="circle1563889" />
    <path
       d="m257.7 238.95h-13.822l-4.9027-4.7276c17.148-19.944 27.468-45.836 27.468-74.005 0-62.805-50.908-113.71-113.72-113.71-62.805 0-113.71 50.908-113.71 113.71 0 62.81 50.908 113.72 113.71 113.72 28.168 0 54.061-10.325 74.005-27.468l4.7276 4.8971v13.816l87.47 87.301 26.067-26.061zm-104.97 0c-43.56 0-78.726-35.166-78.726-78.732 0-43.56 35.166-78.726 78.726-78.726 43.566 0 78.732 35.166 78.732 78.726 0 43.566-35.166 78.732-78.732 78.732z"
       fill="#198388"
       stroke-width="1.446"
       id="path1563891" />
    <path
       d="m257.7 231.45h-13.822l-4.9027-4.7276c17.148-19.944 27.468-45.836 27.468-74.005 0-62.805-50.908-113.71-113.72-113.71-62.805 0-113.71 50.908-113.71 113.71 0 62.81 50.908 113.72 113.71 113.72 28.168 0 54.061-10.325 74.005-27.468l4.7276 4.8971v13.816l87.47 87.301 26.067-26.061zm-104.97 0c-43.56 0-78.726-35.166-78.726-78.732 0-43.56 35.166-78.726 78.726-78.726 43.566 0 78.732 35.166 78.732 78.726 0 43.566-35.166 78.732-78.732 78.732z"
       fill="#23bac2"
       stroke-width="1.446"
       id="path1563893" />
  </g>
  <g
     fill="#fff"
     id="g1563905">
    <ellipse
       cx="153.95"
       cy="108.86"
       rx="1.0075"
       ry=".1615"
       opacity=".2"
       id="ellipse1563897" />
    <ellipse
       cx="153.95"
       cy="108.86"
       rx="1.009"
       ry="7.3378"
       opacity=".2"
       id="ellipse1563899" />
    <ellipse
       cx="175.19"
       cy="122.46"
       rx="19.394"
       ry="18.736"
       opacity=".784"
       id="ellipse1563901" />
    <ellipse
       cx="199.95"
       cy="146.85"
       rx="9.1662"
       ry="8.5472"
       opacity=".784"
       id="ellipse1563903" />
  </g>
</svg>
