<?xml version="1.0" encoding="UTF-8" standalone="no"?>
<svg
   width="512"
   height="512"
   version="1.1"
   viewBox="0 0 384 384"
   id="svg1426"
   sodipodi:docname="gda-browser-5.0.svg"
   inkscape:version="1.1.2 (0a00cf5339, 2022-02-04)"
   xmlns:inkscape="http://www.inkscape.org/namespaces/inkscape"
   xmlns:sodipodi="http://sodipodi.sourceforge.net/DTD/sodipodi-0.dtd"
   xmlns="http://www.w3.org/2000/svg"
   xmlns:svg="http://www.w3.org/2000/svg">
  <defs
     id="defs1430" />
  <sodipodi:namedview
     id="namedview1428"
     pagecolor="#ffffff"
     bordercolor="#666666"
     borderopacity="1.0"
     inkscape:pageshadow="2"
     inkscape:pageopacity="0.0"
     inkscape:pagecheckerboard="0"
     showgrid="false"
     inkscape:zoom="1.6152344"
     inkscape:cx="255.69045"
     inkscape:cy="256"
     inkscape:window-width="1920"
     inkscape:window-height="1051"
     inkscape:window-x="0"
     inkscape:window-y="29"
     inkscape:window-maximized="1"
     inkscape:current-layer="svg1426" />
  <path
     d="m187.03 28.124c-9.4897 0.04565-18.31 0.40068-25.131 1.1057-77.546 8.0594-126.2 41.845-110.09 76.445 11.762 25.253 62.538 46.932 118.21 50.471 86.173 5.4778 162.07-22.803 166.07-61.032v-6.5733c-1.5621-15.251-13.75-28.408-36.651-39.557-16.778-8.171-31.731-12.878-54.236-17.087-13.176-2.4599-37.29-3.87-58.171-3.7735zm149.06 95.465c-22.85 38.998-121.7 58.962-205.19 42.159-38.724-7.7906-71.292-21.409-82.663-39.131-0.1166-0.18766-0.22316-0.33475-0.33983-0.51227v50.684c15.571 22.712 64.571 41.012 115.52 45.511 75.203 6.6443 150.64-13.902 172.68-45.714zm0 66.037c-0.17751 0.29925-0.34995 0.5985-0.52749 0.90789-21.18 37.533-120.27 58.014-199.96 42.635-39.536-7.6283-75.567-22.93-87.705-41.246v52.612c1.7702 2.318 4.0677 4.6764 7.0754 7.6283 18.213 17.879 62.684 32.11 104.4 36.3 74.128 7.4457 154.66-12.609 176.73-44.604zm0 66.367c-13.872 26.826-70.035 45.906-133.5 48.372-68.072 2.6374-136.22-17.042-154.68-46.779v52.845c9.6622 12.213 33.049 24.609 55.428 32.572 12.026 4.2757 31.335 8.6934 48.615 11.128 20.541 2.886 72.327 1.8412 91.92-1.8614 43.218-8.1609 78.433-22.885 92.234-41.92z"
     fill="#fff"
     opacity=".2"
     stroke="#000"
     stroke-width="9.7382"
     id="path1412" />
  <path
     d="m187.03 28.17c-9.4897 0.04565-18.31 0.40068-25.131 1.1057-77.546 8.0594-126.2 41.845-110.09 76.445 11.762 25.253 62.538 46.932 118.21 50.471 86.173 5.4778 162.07-22.803 166.07-61.032v-6.5733c-1.5621-15.251-13.75-28.408-36.651-39.557-16.778-8.171-31.731-12.878-54.236-17.087-13.176-2.4599-37.29-3.87-58.171-3.7735zm149.06 95.465c-22.85 38.998-121.7 58.962-205.19 42.159-38.724-7.7906-71.292-21.409-82.663-39.131-0.11665-0.18766-0.22318-0.33474-0.33983-0.51227v50.684c15.571 22.712 64.571 41.012 115.52 45.511 75.203 6.6444 150.64-13.902 172.68-45.714zm0 66.037c-0.17752 0.29925-0.34996 0.5985-0.52749 0.90789-21.18 37.532-120.27 58.014-199.96 42.635-39.536-7.6283-75.567-22.93-87.705-41.246v52.612c1.7702 2.318 4.0677 4.6764 7.0754 7.6283 18.213 17.879 62.684 32.11 104.4 36.3 74.128 7.4457 154.66-12.609 176.73-44.604zm0 66.367c-13.872 26.826-70.035 45.906-133.5 48.372-68.072 2.6374-136.22-17.042-154.68-46.779v52.845c9.6622 12.213 33.049 24.609 55.426 32.572 12.026 4.2757 31.335 8.6934 48.615 11.128 20.541 2.8859 72.327 1.8412 91.92-1.8614 43.218-8.1609 78.433-22.885 92.234-41.92z"
     fill="#fff"
     stroke-width="1.2984"
     id="path1414" />
  <path
     d="m187.04 28.17c-9.4897 0.0457-18.309 0.40006-25.132 1.1051-71.241 7.4042-118.09 36.521-112.75 68.036 4.6766-27.6 48.917-51.664 112.75-58.298 6.8218-0.70501 15.642-1.0593 25.132-1.1051 20.882-0.09637 44.994 1.3137 58.17 3.7736 22.504 4.2097 37.457 8.9165 54.235 17.088 22.089 10.753 34.208 23.377 36.441 37.945 0.081-0.51653 0.15475-1.0336 0.20922-1.5539v-6.5733c-1.5622-15.251-13.749-28.407-36.65-39.556-16.778-8.171-31.731-12.878-54.235-17.088-13.177-2.4599-37.29-3.87-58.17-3.7736zm149.05 95.465c-22.85 38.999-121.7 58.961-205.19 42.158-38.725-7.7906-71.294-21.409-82.665-39.13-0.1166-0.18764-0.22189-0.3341-0.33855-0.51163v9.7382c0.11664 0.17752 0.22195 0.32397 0.33855 0.51164 11.371 17.722 43.94 31.34 82.665 39.13 83.496 16.803 182.34-3.1593 205.19-42.158zm0 66.037c-0.17752 0.29925-0.34933 0.59786-0.52685 0.90726-21.181 37.533-120.27 58.014-199.97 42.635-39.536-7.6284-75.568-22.93-87.705-41.245v9.7382c12.138 18.315 48.169 33.616 87.705 41.245 79.697 15.379 178.78-5.1024 199.97-42.635 0.17752-0.30939 0.34933-0.608 0.52685-0.90725zm0 66.366c-13.872 26.826-70.033 45.907-133.51 48.372-68.071 2.6374-136.23-17.041-154.68-46.778v9.7382c18.462 29.737 86.615 49.415 154.68 46.778 63.476-2.465 119.63-21.546 133.51-48.372z"
     fill="#050505"
     opacity=".1"
     stroke-width="1.2984"
     id="path1416" />
  <path
     d="m384 294c0 49.706-40.294 90-90 90s-90-40.294-90-90 40.294-90 90-90 90 40.294 90 90z"
     opacity=".3"
     stroke-width=".97425"
     id="path1418" />
  <path
     d="m384 286.5c0 49.706-40.294 90-90 90s-90-40.294-90-90 40.294-90 90-90 90 40.294 90 90z"
     fill="#4aaee6"
     stroke-width=".97425"
     id="path1420" />
  <path
     d="m287 249-2.2283 11.635c-2.7476 0.76001-5.3613 1.9034-7.7906 3.2818l-10.012-6.5535-9.7008 9.6697 6.5174 9.9983c-1.3772 2.4217-2.4159 4.9609-3.1799 7.704l-11.61 2.2973v13.936l11.61 2.2939c0.75732 2.7464 1.8028 5.4444 3.1799 7.8695l-6.5174 9.8351 9.7008 9.8352 10.012-6.7192c2.4293 1.3715 5.043 2.5184 7.7906 3.2784l2.2283 11.638h13.99l2.2283-11.638c2.7476-0.76003 5.3647-1.9 7.7906-3.2784l10.016 6.7192 9.7009-9.8352-6.5207-9.8351c1.3772-2.4217 2.4193-5.1232 3.1832-7.8695l11.607-2.2939v-13.936l-11.607-2.2973c-0.76065-2.743-1.8061-5.2822-3.1832-7.704l6.5207-9.9983-9.7009-9.6697-10.016 6.5535c-2.426-1.3715-5.043-2.5219-7.7906-3.2818l-2.2283-11.635zm6.9999 29.174c8.431 0 15.263 7.044 15.263 15.736 0 8.6952-6.8323 15.736-15.263 15.736-8.434 0-15.267-7.0405-15.267-15.736 0-8.6922 6.8323-15.736 15.267-15.736z"
     opacity=".3"
     stroke-width=".871"
     id="path1422" />
  <path
     d="m 287,241.5 -2.2283,11.635 c -2.7476,0.76001 -5.3613,1.9034 -7.7906,3.2818 l -7.24756,-4.744 -5.53336,0.95054 v 0 l -4.572,4.55734 -0.19771,5.6693 v 0 l 4.35523,6.68132 c -1.3772,2.4217 -2.4159,4.9609 -3.1799,7.704 l -6.95169,1.37555 -4.65831,4.17253 v 0 6.57242 0 l 4.04384,4.91178 7.56616,1.49492 c 0.7573,2.7464 1.8028,5.4444 3.1799,7.8695 l -4.57269,6.90043 1.27201,6.19595 v 0 l 6.32615,1.67754 2.96882,3.00995 v 0 l 7.20111,-4.83277 c 2.4293,1.3715 5.043,2.5184 7.7906,3.2784 l 1.44878,7.56673 3.96553,4.07127 v 0 h 7.71408 v 0 l 3.86668,-4.05692 1.45153,-7.58108 c 2.7476,-0.76002 5.3646,-1.9 7.7906,-3.2784 l 6.80324,4.56393 5.42058,-0.0831 v 0 l 5.4623,-5.53792 -0.25097,-5.50044 v 0 L 324.2051,303.632 c 1.3772,-2.4217 2.4192,-5.1232 3.1832,-7.8695 l 8.26778,-1.63397 3.33922,-4.26634 v 0 -6.56159 l -3.98783,-4.55729 v 0 l -7.61917,-1.50801 c -0.76065,-2.743 -1.8061,-5.2822 -3.1832,-7.704 l 4.80804,-7.37224 -1.15445,-5.48394 v 0 l -4.41618,-4.40198 v 0 l -5.531,-0.37274 -6.90261,4.5164 c -2.426,-1.3715 -5.043,-2.5219 -7.7906,-3.2818 l -1.50702,-7.86888 v 0 L 298.29952,241.5 Z m 6.9999,29.174 c 8.431,0 15.263,7.044 15.263,15.736 0,8.6952 -6.8323,15.736 -15.263,15.736 -8.434,0 -15.267,-7.0405 -15.267,-15.736 0,-8.6922 6.8323,-15.736 15.267,-15.736 z"
     fill="#ffffff"
     stroke-width="0.871"
     id="path1424"
     sodipodi:nodetypes="cccccccccccccccccccccccccccccccccccccccccccccccccccccccccccccccsssss" />
</svg>
