<?xml version="1.0" encoding="UTF-8" standalone="no"?>
<svg
   width="512"
   height="512"
   version="1.1"
   viewBox="0 0 384 384"
   id="svg180055"
   sodipodi:docname="guake-prefs.svg"
   inkscape:version="1.1.2 (0a00cf5339, 2022-02-04)"
   xmlns:inkscape="http://www.inkscape.org/namespaces/inkscape"
   xmlns:sodipodi="http://sodipodi.sourceforge.net/DTD/sodipodi-0.dtd"
   xmlns:xlink="http://www.w3.org/1999/xlink"
   xmlns="http://www.w3.org/2000/svg"
   xmlns:svg="http://www.w3.org/2000/svg">
  <sodipodi:namedview
     id="namedview180057"
     pagecolor="#ffffff"
     bordercolor="#666666"
     borderopacity="1.0"
     inkscape:pageshadow="2"
     inkscape:pageopacity="0.0"
     inkscape:pagecheckerboard="0"
     showgrid="false"
     inkscape:zoom="1.6152344"
     inkscape:cx="255.69045"
     inkscape:cy="256"
     inkscape:window-width="1920"
     inkscape:window-height="1051"
     inkscape:window-x="0"
     inkscape:window-y="29"
     inkscape:window-maximized="1"
     inkscape:current-layer="g180053" />
  <defs
     id="defs180035">
    <filter
       id="alpha"
       width="1"
       height="1"
       x="0"
       y="0"
       filterUnits="objectBoundingBox">
      <feColorMatrix
         in="SourceGraphic"
         type="matrix"
         values="0 0 0 0 1 0 0 0 0 1 0 0 0 0 1 0 0 0 1 0"
         id="feColorMatrix179988" />
    </filter>
    <mask
       id="mask0">
      <g
         filter="url(#alpha)"
         id="g179993">
        <rect
           width="384"
           height="384"
           x="0"
           y="0"
           style="fill:rgb(0%,0%,0%);fill-opacity:0.2"
           id="rect179991" />
      </g>
    </mask>
    <clipPath
       id="clip1">
      <rect
         width="384"
         height="384"
         x="0"
         y="0"
         id="rect179996" />
    </clipPath>
    <g
       id="surface5"
       clip-path="url(#clip1)">
      <path
         style="fill:rgb(0%,0%,0%)"
         d="M 24 312 L 24 324 C 24 333.972656 32.027344 342 42 342 L 342 342 C 351.972656 342 360 333.972656 360 324 L 360 312 C 360 321.972656 351.972656 330 342 330 L 42 330 C 32.027344 330 24 321.972656 24 312 Z M 24 312"
         id="path179999" />
    </g>
    <mask
       id="mask1">
      <g
         filter="url(#alpha)"
         id="g180004">
        <rect
           width="384"
           height="384"
           x="0"
           y="0"
           style="fill:rgb(0%,0%,0%);fill-opacity:0.2"
           id="rect180002" />
      </g>
    </mask>
    <clipPath
       id="clip2">
      <rect
         width="384"
         height="384"
         x="0"
         y="0"
         id="rect180007" />
    </clipPath>
    <g
       id="surface8"
       clip-path="url(#clip2)">
      <path
         style="fill:rgb(100.000%,100.000%,100.000%)"
         d="M 42 48 C 32.027344 48 24 56.027344 24 66 L 24 72 C 24 62.027344 32.027344 54 42 54 L 342 54 C 351.972656 54 360 62.027344 360 72 L 360 66 C 360 56.027344 351.972656 48 342 48 Z M 42 48"
         id="path180010" />
    </g>
    <mask
       id="mask2">
      <g
         filter="url(#alpha)"
         id="g180015">
        <rect
           width="384"
           height="384"
           x="0"
           y="0"
           style="fill:rgb(0%,0%,0%);fill-opacity:0.2"
           id="rect180013" />
      </g>
    </mask>
    <clipPath
       id="clip3">
      <rect
         width="384"
         height="384"
         x="0"
         y="0"
         id="rect180018" />
    </clipPath>
    <g
       id="surface11"
       clip-path="url(#clip3)">
      <path
         style="fill:rgb(0%,0%,0%)"
         d="M 72 90 L 72 102 L 66 102 C 56.027344 102 48 110.027344 48 120 C 48 129.972656 56.027344 138 66 138 L 72 138 L 72 150 L 49.101562 150 C 51.574219 156.984375 58.148438 162 66 162 L 72 162 L 72 174 L 84 174 L 84 162 L 90 162 C 99.972656 162 108 153.972656 108 144 C 108 134.027344 99.972656 126 90 126 L 84 126 L 84 114 L 106.898438 114 C 104.425781 107.015625 97.851562 102 90.003906 102 L 84.003906 102 L 84.003906 90 Z M 66 114 L 72 114 L 72 126 L 66 126 C 62.675781 126 60 123.324219 60 120 C 60 116.675781 62.675781 114 66 114 Z M 84 138 L 90 138 C 93.324219 138 96 140.675781 96 144 C 96 147.324219 93.320312 150.152344 90 150 L 84 150 Z M 132 162 L 132 174 L 204 174 L 204 162 Z M 132 162"
         id="path180021" />
    </g>
    <mask
       id="mask3">
      <g
         filter="url(#alpha)"
         id="g180026">
        <rect
           width="384"
           height="384"
           x="0"
           y="0"
           style="fill:rgb(0%,0%,0%);fill-opacity:0.2"
           id="rect180024" />
      </g>
    </mask>
    <clipPath
       id="clip4">
      <rect
         width="384"
         height="384"
         x="0"
         y="0"
         id="rect180029" />
    </clipPath>
    <g
       id="surface14"
       clip-path="url(#clip4)">
      <path
         style="fill:rgb(0%,0%,0%)"
         d="M 383.746094 275.089844 C 381.046875 326.011719 338.996094 365.9375 288 366 C 237.664062 366 195.875 327.117188 192.253906 276.910156 C 192.121094 278.605469 192.039062 280.300781 192 282 C 192 335.019531 234.980469 378 288 378 C 341.019531 378 384 335.019531 384 282 C 384 279.695312 383.914062 277.386719 383.746094 275.089844 Z M 383.746094 275.089844"
         id="path180032" />
    </g>
  </defs>
  <g
     id="g180053">
    <use
       mask="url(#mask0)"
       xlink:href="#surface5"
       id="use180037" />
    <path
       style="fill:rgb(70.196%,70.196%,70.196%)"
       d="M 42 48 L 342 48 C 351.941406 48 360 56.058594 360 66 L 360 318 C 360 327.941406 351.941406 336 342 336 L 42 336 C 32.058594 336 24 327.941406 24 318 L 24 66 C 24 56.058594 32.058594 48 42 48 Z M 42 48"
       id="path180039" />
    <use
       mask="url(#mask1)"
       xlink:href="#surface8"
       id="use180041" />
    <use
       mask="url(#mask2)"
       xlink:href="#surface11"
       id="use180043" />
    <path
       style="fill:rgb(100.000%,100.000%,100.000%)"
       d="M 72 84 L 72 96 L 66 96 C 56.027344 96 48 104.027344 48 114 C 48 123.972656 56.027344 132 66 132 L 72 132 L 72 144 L 49.101562 144 C 51.574219 150.984375 58.148438 156 66 156 L 72 156 L 72 168 L 84 168 L 84 156 L 90 156 C 99.972656 156 108 147.972656 108 138 C 108 128.027344 99.972656 120 90 120 L 84 120 L 84 108 L 106.898438 108 C 104.425781 101.015625 97.851562 96 90.003906 96 L 84.003906 96 L 84.003906 84 Z M 66 108 L 72 108 L 72 120 L 66 120 C 62.675781 120 60 117.324219 60 114 C 60 110.675781 62.675781 108 66 108 Z M 84 132 L 90 132 C 93.324219 132 96 134.675781 96 138 C 96 141.324219 93.320312 144.152344 90 144 L 84 144 Z M 132 156 L 132 168 L 204 168 L 204 156 Z M 132 156"
       id="path180045" />
    <use
       mask="url(#mask3)"
       xlink:href="#surface14"
       id="use180047" />
    <path
       style="fill:rgb(54.901%,25.882%,67.058%)"
       d="M 384 276 C 384 329.019531 341.019531 372 288 372 C 234.980469 372 192 329.019531 192 276 C 192 222.980469 234.980469 180 288 180 C 341.019531 180 384 222.980469 384 276 Z M 384 276"
       id="path180049" />
    <path
       style="fill:#ffffff"
       d="m 280.62611,227.99609 -4.97268,4.14354 -0.71202,8.5049 c -4.00782,1.48438 -7.73438,3.64063 -11.02344,6.375 l -7.93728,-3.74059 -5.1746,1.13928 v 0 l -8.58254,14.86858 1.56175,5.43781 v 0 l 7.07407,4.91211 c -0.37109,2.10156 -0.5625,4.23047 -0.57421,6.36328 0,2.14062 0.18359,4.27734 0.54687,6.38672 l -7.24721,5.02734 v 0 l -0.64615,6.54398 7.55732,13.09001 5.37155,1.72313 v 0 l 8.02308,-3.77509 c 3.29688,2.72266 7.03516,4.86328 11.05079,6.33203 l 0.679,8.12806 v 0 L 279.07102,324 h 18.01899 v 0 l 3.24019,-3.94414 0.72839,-8.70039 c 4.00782,-1.48438 7.73438,-3.64063 11.01953,-6.375 l 8.19989,3.86024 v 0 l 5.37407,-2.0559 7.83037,-13.56297 v 0 l -1.02736,-5.77988 -7.31837,-5.08259 c 0.37109,-2.09765 0.5664,-4.22656 0.57812,-6.35937 0,-2.14063 -0.18359,-4.27734 -0.55078,-6.39063 l 7.05303,-4.89264 0.91723,-6.54547 v 0 l -7.19194,-12.45714 v 0 l -5.71,-2.53639 -8.12301,3.82618 c -3.30078,-2.72266 -7.03515,-4.86719 -11.05468,-6.33594 l -0.73239,-8.79946 -4.84259,-3.87242 v 0 h -14.8536 z M 288,262.28516 c 7.57422,0 13.71484,6.14062 13.71484,13.71875 0,7.57421 -6.14062,13.71484 -13.71484,13.71484 -7.57422,0 -13.71484,-6.14063 -13.71484,-13.71484 0,-7.57813 6.14062,-13.71875 13.71484,-13.71875 z"
       id="path180051"
       sodipodi:nodetypes="ccccccccccccccccccccccccccccccccccccccccccccccccccccsssss" />
  </g>
</svg>
