<?xml version="1.0" encoding="UTF-8" standalone="no"?>
<svg
   width="32"
   height="32"
   version="1.1"
   id="svg749322"
   sodipodi:docname="info.bibletime.BibleTime.svg"
   inkscape:version="1.1.2 (0a00cf5339, 2022-02-04)"
   xmlns:inkscape="http://www.inkscape.org/namespaces/inkscape"
   xmlns:sodipodi="http://sodipodi.sourceforge.net/DTD/sodipodi-0.dtd"
   xmlns="http://www.w3.org/2000/svg"
   xmlns:svg="http://www.w3.org/2000/svg">
  <defs
     id="defs749326" />
  <sodipodi:namedview
     id="namedview749324"
     pagecolor="#ffffff"
     bordercolor="#666666"
     borderopacity="1.0"
     inkscape:pageshadow="2"
     inkscape:pageopacity="0.0"
     inkscape:pagecheckerboard="0"
     showgrid="false"
     inkscape:zoom="25.84375"
     inkscape:cx="15.980653"
     inkscape:cy="16"
     inkscape:window-width="1920"
     inkscape:window-height="1051"
     inkscape:window-x="0"
     inkscape:window-y="29"
     inkscape:window-maximized="1"
     inkscape:current-layer="svg749322" />
  <rect
     style="opacity:0.2"
     width="22"
     height="28"
     x="5"
     y="3"
     rx="1.5"
     ry="1.5"
     id="rect749304" />
  <rect
     style="fill:#3d65c2"
     width="22"
     height="28"
     x="5"
     y="2"
     rx="1.5"
     ry="1.5"
     id="rect749306" />
  <path
     style="opacity:0.2"
     d="M 6.5 2 C 5.669 2 5 2.669 5 3.5 L 5 28.5 C 5 29.331 5.669 30 6.5 30 L 9 30 L 9 2 L 6.5 2 z"
     id="path749308" />
  <path
     style="opacity:0.2"
     d="M 16,7 V 12 H 11 V 16 H 16 V 27 H 20 V 16 H 25 V 12 H 20 V 7 Z"
     id="path749310" />
  <path
     style="fill:#ffd972"
     d="M 16 6 L 16 11 L 11 11 L 11 15 L 16 15 L 16 26 L 20 26 L 20 15 L 25 15 L 25 11 L 20 11 L 20 6 L 16 6 z"
     id="path749312" />
  <circle
     style="opacity:0.2"
     cx="24"
     cy="24"
     r="8"
     id="circle749314" />
  <circle
     style="fill:#ff982d"
     cx="24"
     cy="23"
     r="8"
     id="circle749316" />
  <path
     style="fill:#ffffff"
     d="m 24,18 c -2.761,0 -5,2.239 -5,5 0,2.761 2.239,5 5,5 2.761,0 5,-2.239 5,-5 0,-2.761 -2.239,-5 -5,-5 z m 0,1 c 2.209,0 4,1.791 4,4 0,2.209 -1.791,4 -4,4 -2.209,0 -4,-1.791 -4,-4 0,-2.209 1.791,-4 4,-4 z m -1,1.493307 v 0 3.064189 L 23.338904,24 v 0 h 3.24606 v 0 L 27,23.788217 V 23.317339 L 26.614056,23 v 0 H 24 v -2.634095 0 L 23.69125,20 h -0.312604 z"
     id="path749318"
     sodipodi:nodetypes="ssssssssssccccccccccccccccc" />
  <path
     style="opacity:0.1;fill:#ffffff"
     d="M 6.5 2 C 5.669 2 5 2.669 5 3.5 L 5 4.5 C 5 3.669 5.669 3 6.5 3 L 25.5 3 C 26.331 3 27 3.669 27 4.5 L 27 3.5 C 27 2.669 26.331 2 25.5 2 L 6.5 2 z"
     id="path749320" />
</svg>
