<?xml version="1.0" encoding="UTF-8" standalone="no"?>
<svg
   width="32"
   height="32"
   version="1.1"
   id="svg781629"
   sodipodi:docname="itch.svg"
   inkscape:version="1.1.2 (0a00cf5339, 2022-02-04)"
   xmlns:inkscape="http://www.inkscape.org/namespaces/inkscape"
   xmlns:sodipodi="http://sodipodi.sourceforge.net/DTD/sodipodi-0.dtd"
   xmlns="http://www.w3.org/2000/svg"
   xmlns:svg="http://www.w3.org/2000/svg">
  <defs
     id="defs781633" />
  <sodipodi:namedview
     id="namedview781631"
     pagecolor="#ffffff"
     bordercolor="#666666"
     borderopacity="1.0"
     inkscape:pageshadow="2"
     inkscape:pageopacity="0.0"
     inkscape:pagecheckerboard="0"
     showgrid="false"
     inkscape:zoom="25.84375"
     inkscape:cx="15.980653"
     inkscape:cy="16"
     inkscape:window-width="1920"
     inkscape:window-height="1051"
     inkscape:window-x="0"
     inkscape:window-y="29"
     inkscape:window-maximized="1"
     inkscape:current-layer="g781627" />
  <g
     transform="translate(0 -1020.4)"
     id="g781627">
    <rect
       fill="#fa5c5c"
       width="28"
       height="28"
       x="-1050.4"
       y="-30"
       rx="1.4"
       ry="1.4"
       transform="matrix(0,-1,-1,0,0,0)"
       id="rect781617" />
    <path
       opacity=".2"
       d="m10.91 1029.4a4.5242 8.2784 17.882 0 0 -0.33203 0 4.5242 8.2784 17.882 0 0 -5.9844 6.9317 4.5242 8.2784 17.882 0 0 2.0449 8.9922 4.5242 8.2784 17.882 0 0 4.9121 -2.9297h9a8.2784 4.5242 72.118 0 0 4.9102 2.9297 8.2784 4.5242 72.118 0 0 2.0469 -8.9922 8.2784 4.5242 72.118 0 0 -6.7695 -6.8672 8.2784 4.5242 72.118 0 0 -2.3828 2.9297h-4.6113a4.5242 8.2784 17.882 0 0 -2.3828 -2.9297 4.5242 8.2784 17.882 0 0 -0.45117 -0.066zm3.09 5h4v3h1l-3 3-3-3h1v-3z"
       id="path781619" />
    <path
       fill="#ffffff"
       transform="translate(0,1020.4)"
       d="m 10.91,8.0039 c -0.109178,-0.00602 -0.219914,-0.00536 -0.332,0.002 C 8.2691449,8.1533153 5.7430346,11.079563 4.5938,14.938 3.2892264,19.317203 4.2047683,23.343098 6.6387,23.93 8.1830882,24.298003 10.046397,23.186611 11.551,21 h 9 c 1.50387,2.185314 3.366065,3.296563 4.91,2.93 2.435174,-0.585114 3.351784,-4.611569 2.047,-8.992 C 26.203643,10.557744 23.172251,7.4826054 20.738,8.0703 19.607275,8.3466772 18.754005,9.3957024 18.355,11 H 13.744 C 13.344995,9.3957024 12.491725,8.3466772 11.361,8.0703 11.214313,8.0349402 11.063792,8.0127793 10.91,8.0039 Z M 14,13 h 4 v 3 h 0.555266 l 0.05329,0.391445 v 0 L 16,19 13.430407,16.430407 13.476033,16 v 0 H 14 Z"
       id="path781621"
       sodipodi:nodetypes="ccccccccccccccccccccccccc" />
    <path
       fill="#fff"
       opacity=".2"
       transform="translate(0 1020.4)"
       d="m3.4004 2c-0.7756 0-1.4004 0.6248-1.4004 1.4004v1c0-0.7756 0.6248-1.4004 1.4004-1.4004h25.2c0.775 0 1.4 0.6248 1.4 1.4004v-1c0-0.7756-0.625-1.4004-1.4-1.4004h-25.2z"
       id="path781623" />
    <path
       opacity=".2"
       d="m2 1049v1c0 0.7756 0.62479 1.4004 1.4004 1.4004h25.199c0.7756 0 1.4004-0.6248 1.4004-1.4004v-1c0 0.7756-0.62479 1.4004-1.4004 1.4004h-25.199c-0.7752 0-1.4-0.7-1.4-1.4z"
       id="path781625" />
  </g>
</svg>
