<?xml version="1.0" encoding="UTF-8" standalone="no"?>
<svg
   width="32"
   height="32"
   version="1.1"
   id="svg2670840"
   sodipodi:docname="mist.svg"
   inkscape:version="1.1.2 (0a00cf5339, 2022-02-04)"
   xmlns:inkscape="http://www.inkscape.org/namespaces/inkscape"
   xmlns:sodipodi="http://sodipodi.sourceforge.net/DTD/sodipodi-0.dtd"
   xmlns="http://www.w3.org/2000/svg"
   xmlns:svg="http://www.w3.org/2000/svg">
  <defs
     id="defs2670844" />
  <sodipodi:namedview
     id="namedview2670842"
     pagecolor="#ffffff"
     bordercolor="#666666"
     borderopacity="1.0"
     inkscape:pageshadow="2"
     inkscape:pageopacity="0.0"
     inkscape:pagecheckerboard="0"
     showgrid="false"
     inkscape:zoom="25.84375"
     inkscape:cx="15.980653"
     inkscape:cy="16"
     inkscape:window-width="1920"
     inkscape:window-height="1051"
     inkscape:window-x="0"
     inkscape:window-y="29"
     inkscape:window-maximized="1"
     inkscape:current-layer="svg2670840" />
  <path
     style="opacity:0.2"
     d="M 16,3 A 14,14 0 0 0 2,17 14,14 0 0 0 16,31 14,14 0 0 0 30,17 14,14 0 0 0 16,3 Z"
     id="path2670826" />
  <path
     style="fill:#234780"
     d="M 16,2 A 14,14 0 0 0 2,16 14,14 0 0 0 16,30 14,14 0 0 0 30,16 14,14 0 0 0 16,2 Z"
     id="path2670828" />
  <path
     style="opacity:0.2"
     d="m 16,6 7,11 -7,4 -7,-4 z"
     id="path2670830" />
  <path
     style="fill:#63bfd7"
     d="m 15.602903,5.62401 0.795871,0.00264 6.356369,9.9885795 -0.12135,0.594036 v 0 L 16,20 9.3702943,16.211597 v 0 l -0.099733,-0.636765 z"
     id="path2670832"
     sodipodi:nodetypes="ccccccccccc" />
  <path
     style="opacity:0.2"
     d="m 16,27.5 7,-9 -7,4 -7,-4 z"
     id="path2670834" />
  <path
     style="fill:#63bfd7"
     d="m 15.705687,26.121597 0.600505,-0.01527 5.93889,-7.635715 v 0 L 21.948158,18.101053 16,21.5 10.303279,18.244731 9.852136,18.595603 v 0 z"
     id="path2670836"
     sodipodi:nodetypes="ccccccccccc" />
  <path
     style="fill:#ffffff;opacity:0.1"
     d="M 16 2 A 14 14 0 0 0 2 16 A 14 14 0 0 0 2.0214844 16.414062 A 14 14 0 0 1 16 3 A 14 14 0 0 1 29.978516 16.585938 A 14 14 0 0 0 30 16 A 14 14 0 0 0 16 2 z"
     id="path2670838" />
</svg>
