<?xml version="1.0" encoding="UTF-8" standalone="no"?>
<svg
   width="512"
   height="512"
   version="1.1"
   viewBox="0 0 384 384"
   id="svg2634595"
   sodipodi:docname="net.poedit.Poedit.svg"
   inkscape:version="1.1.2 (0a00cf5339, 2022-02-04)"
   xmlns:inkscape="http://www.inkscape.org/namespaces/inkscape"
   xmlns:sodipodi="http://sodipodi.sourceforge.net/DTD/sodipodi-0.dtd"
   xmlns="http://www.w3.org/2000/svg"
   xmlns:svg="http://www.w3.org/2000/svg">
  <sodipodi:namedview
     id="namedview2634597"
     pagecolor="#ffffff"
     bordercolor="#666666"
     borderopacity="1.0"
     inkscape:pageshadow="2"
     inkscape:pageopacity="0.0"
     inkscape:pagecheckerboard="0"
     showgrid="false"
     inkscape:zoom="1.6152344"
     inkscape:cx="255.69045"
     inkscape:cy="256"
     inkscape:window-width="1920"
     inkscape:window-height="1051"
     inkscape:window-x="0"
     inkscape:window-y="29"
     inkscape:window-maximized="1"
     inkscape:current-layer="g2634593" />
  <defs
     id="defs2634575">
    <clipPath
       id="clipPath2634289">
      <rect
         width="384"
         height="384"
         id="rect2634287" />
    </clipPath>
    <clipPath
       id="clipPath2634293">
      <rect
         width="384"
         height="384"
         id="rect2634291" />
    </clipPath>
    <clipPath
       id="clipPath2634297">
      <rect
         width="384"
         height="384"
         id="rect2634295" />
    </clipPath>
    <clipPath
       id="clipPath2634301">
      <rect
         width="384"
         height="384"
         id="rect2634299" />
    </clipPath>
    <clipPath
       id="clipPath2634305">
      <rect
         width="384"
         height="384"
         id="rect2634303" />
    </clipPath>
    <clipPath
       id="clipPath2634309">
      <rect
         width="384"
         height="384"
         id="rect2634307" />
    </clipPath>
    <clipPath
       id="clipPath2634313">
      <rect
         width="384"
         height="384"
         id="rect2634311" />
    </clipPath>
    <clipPath
       id="clipPath2634317">
      <rect
         width="384"
         height="384"
         id="rect2634315" />
    </clipPath>
    <clipPath
       id="clipPath2634321">
      <rect
         width="384"
         height="384"
         id="rect2634319" />
    </clipPath>
    <clipPath
       id="clipPath2634325">
      <rect
         width="384"
         height="384"
         id="rect2634323" />
    </clipPath>
    <clipPath
       id="clipPath2634329">
      <rect
         width="384"
         height="384"
         id="rect2634327" />
    </clipPath>
    <clipPath
       id="clipPath2634333">
      <rect
         width="384"
         height="384"
         id="rect2634331" />
    </clipPath>
    <clipPath
       id="clipPath2634337">
      <rect
         width="384"
         height="384"
         id="rect2634335" />
    </clipPath>
    <clipPath
       id="clipPath2634341">
      <rect
         width="384"
         height="384"
         id="rect2634339" />
    </clipPath>
    <clipPath
       id="clipPath2634345">
      <rect
         width="384"
         height="384"
         id="rect2634343" />
    </clipPath>
    <clipPath
       id="clipPath2634349">
      <rect
         width="384"
         height="384"
         id="rect2634347" />
    </clipPath>
    <clipPath
       id="clipPath2634353">
      <rect
         width="384"
         height="384"
         id="rect2634351" />
    </clipPath>
    <clipPath
       id="clipPath2634357">
      <rect
         width="384"
         height="384"
         id="rect2634355" />
    </clipPath>
    <clipPath
       id="clipPath2634361">
      <rect
         width="384"
         height="384"
         id="rect2634359" />
    </clipPath>
    <clipPath
       id="clipPath2634365">
      <rect
         width="384"
         height="384"
         id="rect2634363" />
    </clipPath>
    <clipPath
       id="clipPath2634369">
      <rect
         width="384"
         height="384"
         id="rect2634367" />
    </clipPath>
    <clipPath
       id="clipPath2634373">
      <rect
         width="384"
         height="384"
         id="rect2634371" />
    </clipPath>
    <clipPath
       id="clipPath2634377">
      <rect
         width="384"
         height="384"
         id="rect2634375" />
    </clipPath>
    <clipPath
       id="clipPath2634381">
      <rect
         width="384"
         height="384"
         id="rect2634379" />
    </clipPath>
    <clipPath
       id="clipPath2634385">
      <rect
         width="384"
         height="384"
         id="rect2634383" />
    </clipPath>
    <clipPath
       id="clipPath2634389">
      <rect
         width="384"
         height="384"
         id="rect2634387" />
    </clipPath>
    <clipPath
       id="clipPath2634393">
      <rect
         width="384"
         height="384"
         id="rect2634391" />
    </clipPath>
    <clipPath
       id="clipPath2634397">
      <rect
         width="384"
         height="384"
         id="rect2634395" />
    </clipPath>
    <clipPath
       id="clipPath2634401">
      <rect
         width="384"
         height="384"
         id="rect2634399" />
    </clipPath>
    <clipPath
       id="clipPath2634405">
      <rect
         width="384"
         height="384"
         id="rect2634403" />
    </clipPath>
    <clipPath
       id="clipPath2634409">
      <rect
         width="384"
         height="384"
         id="rect2634407" />
    </clipPath>
    <clipPath
       id="clipPath2634413">
      <rect
         width="384"
         height="384"
         id="rect2634411" />
    </clipPath>
    <clipPath
       id="clipPath2634417">
      <rect
         width="384"
         height="384"
         id="rect2634415" />
    </clipPath>
    <clipPath
       id="clipPath2634421">
      <rect
         width="384"
         height="384"
         id="rect2634419" />
    </clipPath>
    <clipPath
       id="clipPath2634425">
      <rect
         width="384"
         height="384"
         id="rect2634423" />
    </clipPath>
    <clipPath
       id="clipPath2634429">
      <rect
         width="384"
         height="384"
         id="rect2634427" />
    </clipPath>
    <clipPath
       id="clipPath2634433">
      <rect
         width="384"
         height="384"
         id="rect2634431" />
    </clipPath>
    <clipPath
       id="clipPath2634437">
      <rect
         width="384"
         height="384"
         id="rect2634435" />
    </clipPath>
    <clipPath
       id="clipPath2634441">
      <rect
         width="384"
         height="384"
         id="rect2634439" />
    </clipPath>
    <clipPath
       id="clipPath2634445">
      <rect
         width="384"
         height="384"
         id="rect2634443" />
    </clipPath>
    <clipPath
       id="clipPath2634449">
      <rect
         width="384"
         height="384"
         id="rect2634447" />
    </clipPath>
    <clipPath
       id="clipPath2634453">
      <rect
         width="384"
         height="384"
         id="rect2634451" />
    </clipPath>
    <clipPath
       id="clipPath2634457">
      <rect
         width="384"
         height="384"
         id="rect2634455" />
    </clipPath>
    <clipPath
       id="clipPath2634461">
      <rect
         width="384"
         height="384"
         id="rect2634459" />
    </clipPath>
    <clipPath
       id="clipPath2634465">
      <rect
         width="384"
         height="384"
         id="rect2634463" />
    </clipPath>
    <clipPath
       id="clipPath2634469">
      <rect
         width="384"
         height="384"
         id="rect2634467" />
    </clipPath>
    <clipPath
       id="clipPath2634473">
      <rect
         width="384"
         height="384"
         id="rect2634471" />
    </clipPath>
    <clipPath
       id="clipPath2634477">
      <rect
         width="384"
         height="384"
         id="rect2634475" />
    </clipPath>
    <clipPath
       id="clipPath2634481">
      <rect
         width="384"
         height="384"
         id="rect2634479" />
    </clipPath>
    <clipPath
       id="clipPath2634485">
      <rect
         width="384"
         height="384"
         id="rect2634483" />
    </clipPath>
    <clipPath
       id="clipPath2634489">
      <rect
         width="384"
         height="384"
         id="rect2634487" />
    </clipPath>
    <clipPath
       id="clipPath2634493">
      <rect
         width="384"
         height="384"
         id="rect2634491" />
    </clipPath>
    <clipPath
       id="clipPath2634497">
      <rect
         width="384"
         height="384"
         id="rect2634495" />
    </clipPath>
    <clipPath
       id="c">
      <path
         d="m111 119h177v23h-177z"
         id="path2634499" />
    </clipPath>
    <clipPath
       id="clipPath2634504">
      <path
         d="m368.64 199.88c0-93.234-75.602-168.75-168.75-168.75-93.152 0-168.75 75.516-168.75 168.75s75.598 168.75 168.75 168.75c93.148 0 168.75-75.516 168.75-168.75z"
         id="path2634502" />
    </clipPath>
    <clipPath
       id="b">
      <path
         d="m177 130h45v89h-45z"
         id="path2634506" />
    </clipPath>
    <clipPath
       id="clipPath2634511">
      <path
         d="m368.64 199.88c0-93.234-75.602-168.75-168.75-168.75-93.152 0-168.75 75.516-168.75 168.75s75.598 168.75 168.75 168.75c93.148 0 168.75-75.516 168.75-168.75z"
         id="path2634509" />
    </clipPath>
    <clipPath
       id="a">
      <path
         d="m111 207h177v89h-177z"
         id="path2634513" />
    </clipPath>
    <clipPath
       id="clipPath2634518">
      <path
         d="m368.64 199.88c0-93.234-75.602-168.75-168.75-168.75-93.152 0-168.75 75.516-168.75 168.75s75.598 168.75 168.75 168.75c93.148 0 168.75-75.516 168.75-168.75z"
         id="path2634516" />
    </clipPath>
    <clipPath
       id="d">
      <rect
         width="384"
         height="384"
         id="rect2634520" />
    </clipPath>
    <g
       clip-path="url(#d)"
       id="g2634529">
      <g
         clip-path="url(#c)"
         id="g2634523" />
      <g
         clip-path="url(#b)"
         id="g2634525" />
      <g
         clip-path="url(#a)"
         id="g2634527" />
    </g>
    <clipPath
       id="clipPath2634533">
      <rect
         width="384"
         height="384"
         id="rect2634531" />
    </clipPath>
    <clipPath
       id="clipPath2634537">
      <rect
         width="384"
         height="384"
         id="rect2634535" />
    </clipPath>
    <clipPath
       id="clipPath2634541">
      <rect
         width="384"
         height="384"
         id="rect2634539" />
    </clipPath>
    <clipPath
       id="clipPath2634545">
      <rect
         width="384"
         height="384"
         id="rect2634543" />
    </clipPath>
    <clipPath
       id="clipPath2634549">
      <rect
         width="384"
         height="384"
         id="rect2634547" />
    </clipPath>
    <clipPath
       id="clipPath2634553">
      <rect
         width="384"
         height="384"
         id="rect2634551" />
    </clipPath>
    <clipPath
       id="clipPath2634557">
      <rect
         width="384"
         height="384"
         id="rect2634555" />
    </clipPath>
    <clipPath
       id="clipPath2634561">
      <rect
         width="384"
         height="384"
         id="rect2634559" />
    </clipPath>
    <clipPath
       id="clipPath2634565">
      <rect
         width="384"
         height="384"
         id="rect2634563" />
    </clipPath>
    <clipPath
       id="clipPath2634569">
      <rect
         width="384"
         height="384"
         id="rect2634567" />
    </clipPath>
    <clipPath
       id="clipPath2634573">
      <rect
         width="384"
         height="384"
         id="rect2634571" />
    </clipPath>
  </defs>
  <path
     d="m360 343.2v-302.4c0-9.2773-7.5234-16.801-16.801-16.801h-302.4c-9.2773 0-16.801 7.5234-16.801 16.801v302.4c0 9.2773 7.5234 16.801 16.801 16.801h302.4c9.2773 0 16.801-7.5234 16.801-16.801z"
     fill="#aa7a50"
     id="path2634577" />
  <path
     d="m324 315.5v-231.99c0-8.8398-7.3867-16.004-16.5-16.004h-231c-9.1133 0-16.5 7.1641-16.5 16.004v231.99c0 8.8398 7.3867 16.004 16.5 16.004h231c9.1133 0 16.5-7.1641 16.5-16.004z"
     opacity=".3"
     id="path2634579" />
  <path
     d="m324 308v-231.99c0-8.8398-7.3867-16.004-16.5-16.004h-231c-9.1133 0-16.5 7.1641-16.5 16.004v231.99c0 8.8398 7.3867 16.004 16.5 16.004h231c9.1133 0 16.5-7.1641 16.5-16.004z"
     fill="#fff"
     id="path2634581" />
  <g
     id="g2634593">
    <path
       d="M 144.35,71.992 C 131.678,79.7732 98.979,89.738 77.998,95.828 l 0.65625,1.8516 c 9.9805,-0.99609 24.234,-2.4102 34.242,-4.1016 v 14.719 h -34.758 l 0.84375,12.422 h 29.086 c -4.16676,17.13292 -12.901128,25.99006 -23.320182,37.66059 -2.073777,2.32287 2.184524,-2.63321 0,0 l 3.957809,3.2434 c 2.804469,-2.03208 -2.753887,1.98588 0,0 9.363543,-6.75222 18.123793,-13.56491 24.166573,-22.66539 v 41.043 h 3.1875 c 8.4922,0 16.395,-3.2773 16.547,-4.2891 v -41.816 c 6.332,5.7031 7.543,12.375 8.7188,19.477 2.1562,1.8125 4.4961,2.6719 6.6562,2.6719 4.4883,0 8.3203,-3.25 8.3203,-7.7812 0,-6.1328 -2.2109,-11.801 -23.695,-16.617 v -10.926 h 28.125 c 4.5039,0 12.668,-10.312 13.828,-12.141 l -30.211,-12.586 -5.3906,12.281 h -6.3516 v -18.094 c 7.5078,-1.707 14.512,-3.4023 20.18,-5.1094 3.2891,0.08203 21.562,-1.0781 21.562,-1.0781 z"
       fill="#72a2f4"
       id="path2634583"
       sodipodi:nodetypes="ccccccccsccsccscccssccscccccccc" />
    <path
       d="m180 84.367v95.633c15.656 0 17.453-5.75 17.676-5.9531v-5.5781h30.254v8.8359c13.188 0 17.836-3.8281 17.836-4.1016v-75.242c3.4961-0.69531 6.1758-1.8203 7.1719-3.1172l-13.266-10.383-13.383 11.531h-27.77zm17.676 24.047h30.254v48.055h-30.254z"
       fill="#ae7ac4"
       id="path2634585" />
    <path
       d="m180 216v90h18v-36h18.914c4.2774 20.949 22.703 35.996 44.086 36 24.852 0 45-20.148 45-45s-20.148-45-45-45c-21.363 0.0234-39.766 15.066-44.039 36h-18.961v-36zm81 18c14.91 0 27 12.09 27 27s-12.09 27-27 27-27-12.09-27-27 12.09-27 27-27z"
       fill="#5b739d"
       id="path2634587" />
    <path
       transform="scale(.75)"
       d="m32 447.6v10c0 12.37 10.031 22.4 22.4 22.4h403.2c12.37 0 22.4-10.031 22.4-22.4v-10c0 12.37-10.031 22.4-22.4 22.4h-403.2c-12.37 0-22.4-10.031-22.4-22.4z"
       fill="#070503"
       opacity=".3"
       stroke-width="1.3333"
       id="path2634589" />
    <path
       transform="scale(.75)"
       d="m54.4 32c-12.37 0-22.4 10.031-22.4 22.4v10c0-12.37 10.031-22.4 22.4-22.4h403.2c12.37 0 22.4 10.031 22.4 22.4v-10c0-12.37-10.031-22.4-22.4-22.4h-403.2z"
       fill="#fff"
       opacity=".3"
       stroke-width="1.3333"
       id="path2634591" />
  </g>
</svg>
