<?xml version="1.0" encoding="UTF-8" standalone="no"?>
<svg
   width="512"
   height="512"
   version="1.1"
   viewBox="0 0 384 384"
   id="svg50689"
   sodipodi:docname="notification-gsm-disconnected.svg"
   inkscape:version="1.1.2 (0a00cf5339, 2022-02-04)"
   xmlns:inkscape="http://www.inkscape.org/namespaces/inkscape"
   xmlns:sodipodi="http://sodipodi.sourceforge.net/DTD/sodipodi-0.dtd"
   xmlns="http://www.w3.org/2000/svg"
   xmlns:svg="http://www.w3.org/2000/svg">
  <sodipodi:namedview
     id="namedview50691"
     pagecolor="#ffffff"
     bordercolor="#666666"
     borderopacity="1.0"
     inkscape:pageshadow="2"
     inkscape:pageopacity="0.0"
     inkscape:pagecheckerboard="0"
     showgrid="false"
     inkscape:zoom="1.6152344"
     inkscape:cx="255.69045"
     inkscape:cy="256"
     inkscape:window-width="1920"
     inkscape:window-height="1051"
     inkscape:window-x="0"
     inkscape:window-y="29"
     inkscape:window-maximized="1"
     inkscape:current-layer="svg50689" />
  <defs
     id="defs50661">
    <clipPath
       id="clipPath50647">
      <rect
         width="36"
         height="36"
         id="rect50645" />
    </clipPath>
    <clipPath
       id="clipPath50651">
      <rect
         width="36"
         height="36"
         id="rect50649" />
    </clipPath>
    <clipPath
       id="clipPath50655">
      <rect
         width="36"
         height="36"
         id="rect50653" />
    </clipPath>
    <clipPath
       id="clipPath50659">
      <rect
         width="36"
         height="36"
         id="rect50657" />
    </clipPath>
  </defs>
  <g
     stroke-width="11.371"
     id="g50671">
    <path
       d="m64.077 35.649h255.85v119.4h-255.85z"
       fill="#b3b3b3"
       id="path50663" />
    <path
       d="m38.492 137.99h307.02c9.4166 0 17.056 7.6399 17.056 17.056v170.56c0 9.4166-7.6399 17.056-17.056 17.056h-307.02c-9.4166 0-17.056-7.6399-17.056-17.056v-170.56c0-9.4166 7.6399-17.056 17.056-17.056z"
       fill="#fff"
       stroke="#000"
       id="path50665" />
    <path
       d="m157.89 290.47h68.226v34.113h-68.226z"
       opacity=".3"
       id="path50667" />
    <path
       d="m157.89 282.97h68.226v34.113h-68.226z"
       id="path50669" />
  </g>
  <g
     fill="#fff"
     id="g50679">
    <path
       transform="scale(.75)"
       d="m85.436 47.533v20h341.13v-20h-341.13z"
       opacity=".3"
       stroke-width="15.161"
       id="path50673" />
    <path
       transform="scale(.75)"
       d="m21 424.15v10c0 16.656 13.667 30.32 30.322 30.32h409.36c16.656 0 30.322-13.665 30.322-30.32v-10c0 16.656-13.667 30.32-30.322 30.32h-409.36c-16.656 0-30.322-13.665-30.322-30.32z"
       color="#000000"
       color-rendering="auto"
       dominant-baseline="auto"
       image-rendering="auto"
       opacity=".3"
       shape-rendering="auto"
       solid-color="#000000"
       style="font-feature-settings:normal;font-variant-alternates:normal;font-variant-caps:normal;font-variant-ligatures:normal;font-variant-numeric:normal;font-variant-position:normal;isolation:auto;mix-blend-mode:normal;shape-padding:0;text-decoration-color:#000000;text-decoration-line:none;text-decoration-style:solid;text-indent:0;text-orientation:mixed;text-transform:none;white-space:normal"
       id="path50675" />
    <path
       transform="scale(.75)"
       d="m51.322 176.4c-16.656 0-30.322 13.667-30.322 30.322v10c0-16.656 13.667-30.322 30.322-30.322h409.36c16.656 0 30.322 13.667 30.322 30.322v-10c0-16.656-13.667-30.322-30.322-30.322h-409.36z"
       color="#000000"
       color-rendering="auto"
       dominant-baseline="auto"
       image-rendering="auto"
       opacity=".3"
       shape-rendering="auto"
       solid-color="#000000"
       style="font-feature-settings:normal;font-variant-alternates:normal;font-variant-caps:normal;font-variant-ligatures:normal;font-variant-numeric:normal;font-variant-position:normal;isolation:auto;mix-blend-mode:normal;shape-padding:0;text-decoration-color:#000000;text-decoration-line:none;text-decoration-style:solid;text-indent:0;text-orientation:mixed;text-transform:none;white-space:normal"
       id="path50677" />
  </g>
  <path
     d="m384 294c0-49.706-40.292-90.002-90-90.002-49.706 0-90 40.296-90 90.002 0 49.706 40.292 89.998 90 89.998 49.706 0 90-40.291 90-89.998z"
     opacity=".3"
     stroke-width="1.103"
     id="path50681" />
  <path
     d="m384 286.5c0-49.706-40.292-90.002-90-90.002-49.706 0-90 40.296-90 90.002 0 49.706 40.292 89.998 90 89.998 49.706 0 90-40.291 90-89.998z"
     fill="#d41717"
     stroke-width="1.103"
     id="path50683" />
  <path
     d="m264.75 253.07-11.675 11.675 29.253 29.254-29.253 29.253 11.675 11.676 29.254-29.254 29.253 29.254 11.676-11.676-29.254-29.253 29.254-29.254-11.676-11.675-29.253 29.253z"
     opacity=".3"
     stroke-width="11.029"
     id="path50685" />
  <path
     d="m 262.20032,248.11968 v 0 l -6.32103,6.32103 v 0 l 0.51173,6.12042 25.93698,25.93787 -25.61462,25.61462 v 0 l -0.5802,6.69682 5.41429,5.41475 v 0 l 6.7216,-0.31626 25.73493,-25.73493 25.91249,25.91337 v 0 l 5.77634,0.9048 6.1894,-6.1894 -0.91306,-7.01446 v 0 L 305.679,286.499 l 25.69791,-25.69791 -0.004,-7.11594 v 0 l -4.25913,-4.25876 -7.02728,-0.68583 v 0 L 294.004,274.823 268.31759,249.13747 Z"
     fill="#ffffff"
     stroke-width="11.029"
     id="path50687"
     sodipodi:nodetypes="ccccccccccccccccccccccccccccc" />
</svg>
