<?xml version="1.0" encoding="UTF-8" standalone="no"?>
<svg
   width="512"
   height="512"
   version="1.1"
   viewBox="0 0 384 384"
   id="svg62629"
   sodipodi:docname="notification-network-wireless-disconnected.svg"
   inkscape:version="1.1.2 (0a00cf5339, 2022-02-04)"
   xmlns:inkscape="http://www.inkscape.org/namespaces/inkscape"
   xmlns:sodipodi="http://sodipodi.sourceforge.net/DTD/sodipodi-0.dtd"
   xmlns="http://www.w3.org/2000/svg"
   xmlns:svg="http://www.w3.org/2000/svg">
  <defs
     id="defs62633" />
  <sodipodi:namedview
     id="namedview62631"
     pagecolor="#ffffff"
     bordercolor="#666666"
     borderopacity="1.0"
     inkscape:pageshadow="2"
     inkscape:pageopacity="0.0"
     inkscape:pagecheckerboard="0"
     showgrid="false"
     inkscape:zoom="1.6152344"
     inkscape:cx="255.69045"
     inkscape:cy="256"
     inkscape:window-width="1920"
     inkscape:window-height="1051"
     inkscape:window-x="0"
     inkscape:window-y="29"
     inkscape:window-maximized="1"
     inkscape:current-layer="svg62629" />
  <g
     transform="translate(.15705 -14.205)"
     id="g62619">
    <path
       d="m13.863 159.69c98.297-98.297 257.67-98.297 355.96 0l-177.98 177.98z"
       opacity=".3"
       id="path62605" />
    <path
       d="m13.863 152.19c98.297-98.297 257.67-98.297 355.96 0l-177.98 177.98z"
       fill="#4a4a4a"
       opacity=".2"
       stroke="#000"
       stroke-width="7.5"
       id="path62607" />
    <path
       d="m13.863 152.19c98.297-98.297 257.67-98.297 355.96 0l-177.98 177.98z"
       fill="#4a4a4a"
       id="path62609" />
    <path
       d="m37.023 175.36c81.983-86.649 225.49-86.981 309.64 0l-154.82 154.82z"
       opacity=".3"
       id="path62611" />
    <path
       d="m41.523 179.86c83.02-83.02 217.62-83.02 300.64 0l-150.32 150.32z"
       fill="#e6e6e6"
       id="path62613" />
    <path
       d="m72.516 210.85c63.418-66.8 175.24-65.376 238.66 0l-119.33 119.33z"
       opacity=".3"
       id="path62615" />
    <path
       d="m77.016 215.35c63.418-63.418 166.24-63.418 229.66 0l-114.83 114.83z"
       fill="#fff"
       id="path62617" />
  </g>
  <path
     d="m384 294c0 49.706-40.294 90-90 90s-90-40.294-90-90 40.294-90 90-90 90 40.294 90 90z"
     fill-rule="evenodd"
     opacity=".3"
     stroke-width=".9375"
     id="path62621" />
  <path
     d="m384 286.5c0 49.706-40.294 90-90 90s-90-40.294-90-90 40.294-90 90-90 90 40.294 90 90z"
     fill="#d41717"
     fill-rule="evenodd"
     stroke-width=".9375"
     id="path62623" />
  <path
     d="m264.75 253.07-11.675 11.675 29.253 29.254-29.253 29.253 11.675 11.676 29.254-29.254 29.253 29.254 11.676-11.676-29.254-29.253 29.254-29.254-11.676-11.675-29.253 29.253z"
     opacity=".3"
     stroke-width="11.029"
     id="path62625" />
  <path
     d="m 267.50404,248.32395 -5.78612,0.27813 -6.02171,6.02171 0.75949,6.00203 v 0 l 25.8723,25.87318 -29.253,29.253 11.675,11.676 29.254,-29.254 29.253,29.254 11.676,-11.676 -29.254,-29.253 26.37015,-26.37015 0.39598,-5.37151 v 0 l -5.98436,-5.98385 v 0 l -6.63448,0.22722 L 294.004,274.823 Z"
     fill="#ffffff"
     stroke-width="11.029"
     id="path62627"
     sodipodi:nodetypes="ccccccccccccccccccccc" />
</svg>
