<?xml version="1.0" encoding="UTF-8" standalone="no"?>
<svg
   width="512"
   height="512"
   version="1.1"
   viewBox="0 0 384 384"
   id="svg21996"
   sodipodi:docname="PlayOnLinux.svg"
   inkscape:version="1.1.2 (0a00cf5339, 2022-02-04)"
   xmlns:inkscape="http://www.inkscape.org/namespaces/inkscape"
   xmlns:sodipodi="http://sodipodi.sourceforge.net/DTD/sodipodi-0.dtd"
   xmlns="http://www.w3.org/2000/svg"
   xmlns:svg="http://www.w3.org/2000/svg">
  <defs
     id="defs22000" />
  <sodipodi:namedview
     id="namedview21998"
     pagecolor="#ffffff"
     bordercolor="#666666"
     borderopacity="1.0"
     inkscape:pageshadow="2"
     inkscape:pageopacity="0.0"
     inkscape:pagecheckerboard="0"
     showgrid="false"
     inkscape:zoom="1.6152344"
     inkscape:cx="255.69045"
     inkscape:cy="256"
     inkscape:window-width="1920"
     inkscape:window-height="1051"
     inkscape:window-x="0"
     inkscape:window-y="29"
     inkscape:window-maximized="1"
     inkscape:current-layer="svg21996" />
  <path
     d="m240.28 31.699c-58.105-33.566-58.453 43.707-58.453 43.707l10.188 116.57 106.01-49.496s66.777-38.941 8.6719-72.508c-17.949-10.348-31.125-10.594-40.855-5.9336-0.85938-10.695-7.6055-22.004-25.559-32.398"
     fill="#17a185"
     id="path21984" />
  <path
     d="m192.01 191.98 49.488 106.03s38.934 66.785 72.445 8.6719c10.344-17.953 10.551-31.129 5.9336-40.863 10.746-0.85937 22.051-7.6094 32.445-25.559 33.512-58.117-43.75-58.465-43.75-58.465l-116.51 10.188"
     fill="#ffc72e"
     id="path21986" />
  <path
     d="m192.01 191.98-106.06 49.496s-66.723 38.941-8.668 72.457c17.949 10.348 31.172 10.555 40.855 5.9336 0.85547 10.746 7.6055 22.055 25.555 32.453 58.105 33.516 58.457-43.758 58.457-43.758l-10.137-116.53"
     fill="#357af0"
     id="path21988" />
  <path
     d="m 186.09584,179.3027 v 0 L 142.522,85.9 c 0,0 -38.934,-66.73 -72.5,-8.668 -10.344,17.949 -10.551,31.18 -5.9297,40.863 -10.695,0.85547 -22,7.6055 -32.395,25.559 -33.562,58.113 43.699,58.465 43.699,58.465 l 102.43053,-8.91247 0.36502,-5.0949"
     fill="#d41717"
     id="path21990"
     sodipodi:nodetypes="ccccccccc" />
  <path
     transform="scale(0.75)"
     d="m 242.75,94.133 c -0.3,3.9588 -0.31445,6.4082 -0.31445,6.4082 l 12.508,143.14 1.0742,2.3008 h 0.0684 l 9.81631,-4.62887 5.16237,7.5663 L 397.3612,189.971 c 0,0 48.032,-28.008 42.842,-60.615 -4.2894,28.131 -42.842,50.615 -42.842,50.615 l -131.45874,61.38213 -9.88126,4.61387 -0.50252,-5.74926 -0.63392,-7.25265 z m 23.15246,147.22013 -11.0177,-8.38804 1.20139,13.01691 z M 81.888,134.843 c -0.49039,4.7094 -0.29758,9.04 0.45117,13.02 1.0455,-0.16895 2.0874,-0.30763 3.125,-0.39062 -1.8078,-3.7883 -3.0555,-7.9869 -3.5762,-12.629 z m -50.549,86.133 c -5.7202,48.176 69.197,48.527 69.197,48.527 l 137.05314,-18.68749 v 0 l -8.40209,-2.50457 v 0 0 L 100.5369,259.5035 c 0,0 -64.159,-0.30238 -69.197,-38.527 z m 224.74715,25.006 c -9.08421,3.47893 -11.13798,7.41404 -18.49701,4.83351 1.57697,0.60716 10.59248,3.74199 20.43999,7.12956 10.52635,3.6211 22.00336,7.53099 26.36187,8.9511 8.29647,2.70319 -10.07582,-3.91925 -6.53463,-2.82139 l -14.46834,7.69044 58.6192,125.59194 c 0,0 51.911,89.047 96.594,11.562 9.747,-16.917 12.738,-30.649 11.484,-41.832 -0.95109,9.1183 -4.4647,19.648 -11.484,31.832 -44.682,77.484 -96.594,-11.562 -96.594,-11.562 l -53.03824,-113.6346 v 0 0 0 0 l 2.09584,-24.80313 z M 480.679,280.958 c -0.98397,8.3018 -4.3422,18.011 -10.906,29.395 -13.859,23.932 -28.932,32.932 -43.26,34.078 1.403,2.958 2.4682,6.1576 3.1191,9.6133 13.383,-2.1506 27.283,-11.489 40.141,-33.691 9.4047,-16.31 12.25,-29.195 10.906,-39.395 z m -408.88,91.615 c -2.2293,14.608 4.7783,30.732 31.248,46.014 23.932,13.797 41.561,14.074 54.473,7.9121 1.1406,14.328 10.142,29.405 34.074,43.27 77.474,44.687 77.941,-58.344 77.941,-58.344 l -0.32422,-3.7188 c -1.581,21.468 -11.756,90.052 -77.617,52.062 -23.932,-13.865 -32.934,-28.941 -34.074,-43.27 -12.911,6.1614 -30.54,5.8848 -54.473,-7.9121 -20.551,-11.864 -29.373,-24.237 -31.248,-36.014 z"
     opacity="0.3"
     stroke-width="1.3333"
     id="path21992"
     sodipodi:nodetypes="ccccccccccccccccccccccccccccccccccccsscccccccccccccccccccccccccscccccc" />
  <path
     transform="scale(0.75)"
     d="m 284.82,31.012 c -42.083,1.0629 -42.391,69.529 -42.391,69.529 l 0.31445,3.5918 c 1.3161,-17.366 8.1913,-64.04 44.111,-63.121 9.1546,0.23428 20.196,3.5597 33.512,11.252 v -0.08203 c 23.938,13.859 32.932,28.937 34.078,43.197 12.974,-6.2135 30.54,-5.8848 54.473,7.9121 20.571,11.884 29.403,24.273 31.279,36.061 2.2287,-14.617 -4.7887,-30.757 -31.279,-46.061 -23.932,-13.797 -41.499,-14.126 -54.473,-7.9121 -1.1458,-14.26 -10.141,-29.338 -34.078,-43.197 v 0.08203 c -13.316,-7.6923 -24.357,-11.018 -33.512,-11.252 -0.68919,-0.01764 -1.3672,-0.01687 -2.0352,0 z m -149.81,40.33 c -0.4786,-0.0091 -0.95827,-0.0085 -1.4395,0.0039 -13.003,0.33509 -26.92,8.6537 -40.207,31.637 -9.7451,16.91 -12.736,30.676 -11.482,41.855 0.95041,-9.127 4.463,-19.675 11.482,-31.855 13.287,-22.983 27.204,-31.302 40.207,-31.637 30.796,-0.79364 56.459,43.195 56.459,43.195 l 52.04325,111.5539 -0.42038,36.58496 18.84399,-7.08706 17.36001,-1.51792 -20.78626,4.17572 -67.04054,-153.71325 c 0,0 -24.868,-42.624 -55.02,-43.199 z m -52.678,86.516 c -13.322,2.1529 -27.215,11.492 -40.066,33.688 -9.4287,16.326 -12.279,29.222 -10.934,39.426 0.98648,-8.3082 4.3513,-18.029 10.934,-29.426 13.859,-23.938 28.931,-32.937 43.191,-34.078 -1.4074,-2.9493 -2.4737,-6.1479 -3.125,-9.6094 z m 329.1,84.537 -134.47292,11.81721 -4.70312,0.4133 -3.28697,19.09705 -2.28825,-2.39175 -6.84454,-7.15411 0.66016,1.416 17.36001,-1.51792 133.56999,-11.67908 c 0,0 64.197,0.3011 69.238,38.559 5.714,-48.209 -69.238,-48.559 -69.238,-48.559 z m -150.93564,23.1977 -3.42625,2.6578 -1.06021,-2.2711 h 0.0684 l 0.78906,-0.0684 -0.0293,-0.33399 -0.82813,0.38672 z m -18.84399,7.08706 v 0 l 27.54852,145.02194 c 0.27876,-3.7852 0.32422,-6.2812 0.32422,-6.2812 L 258.32968,282.72923 257.07011,268.2505 Z m 0,0 v 0 l -4.54993,-15.07105 -122.50455,64.36479 c 0,0 -47.993,28.014 -42.805,60.596 4.2898,-28.11 42.805,-50.596 42.805,-50.596 z m 187.96752,91.36064 c -1.0426,0.16755 -2.0836,0.3039 -3.1191,0.38672 1.8054,3.8064 3.052,8.0118 3.5723,12.652 0.49167,-4.7137 0.29841,-9.0494 -0.45312,-13.039 z"
     fill="#ffffff"
     opacity="0.3"
     stroke-width="1.3333"
     id="path21994"
     sodipodi:nodetypes="cccccccccccccsccccccccccccccccccccccccccccccccccccccccccccccccccccccccccccccc" />
</svg>
