<?xml version="1.0" encoding="UTF-8" standalone="no"?>
<svg
   width="512"
   height="512"
   version="1.1"
   viewBox="0 0 384 384"
   id="svg1890706"
   sodipodi:docname="org.stellarium.Stellarium.svg"
   inkscape:version="1.1.2 (0a00cf5339, 2022-02-04)"
   xmlns:inkscape="http://www.inkscape.org/namespaces/inkscape"
   xmlns:sodipodi="http://sodipodi.sourceforge.net/DTD/sodipodi-0.dtd"
   xmlns="http://www.w3.org/2000/svg"
   xmlns:svg="http://www.w3.org/2000/svg">
  <sodipodi:namedview
     id="namedview1890708"
     pagecolor="#ffffff"
     bordercolor="#666666"
     borderopacity="1.0"
     inkscape:pageshadow="2"
     inkscape:pageopacity="0.0"
     inkscape:pagecheckerboard="0"
     showgrid="false"
     inkscape:zoom="1.6152344"
     inkscape:cx="255.69045"
     inkscape:cy="256"
     inkscape:window-width="1920"
     inkscape:window-height="1051"
     inkscape:window-x="0"
     inkscape:window-y="29"
     inkscape:window-maximized="1"
     inkscape:current-layer="g1890704" />
  <defs
     id="defs1890674">
    <clipPath
       id="clipPath1890668">
      <rect
         width="384"
         height="384"
         id="rect1890666" />
    </clipPath>
    <clipPath
       id="clipPath1890672">
      <rect
         width="384"
         height="384"
         id="rect1890670" />
    </clipPath>
  </defs>
  <path
     d="m192 26.25c-78.019 0-143.67 52.942-162.99 124.86-0.16295 0.60657-0.286 1.2251-0.39111 1.8486-3.5475 13.718-5.357 27.842-5.3731 42.038 0 93.199 75.551 168.75 168.75 168.75 43.365 0 85.057-16.743 116.43-46.685-0.0216-1e-3 -0.0414-2e-3 -0.063-3e-3 0.54941-0.49444 1.0875-0.98434 1.6055-1.4561 12.463-12.248 22.907-26.338 31.012-41.728 1.9507-3.3736 3.7526-6.9132 5.3965-10.626 9.2403-20.87 14.372-43.961 14.372-68.253 0-93.199-75.551-168.75-168.75-168.75z"
     fill="#1b0d22"
     opacity=".3"
     id="path1890676" />
  <path
     d="m360.75 188.23c0 24.292-5.1322 47.382-14.372 68.253-26.21 59.197-92.595 74.377-161.5 74.377-93.195 0-147.38-45.476-147.38-138.67 0-15.181-12.242-33.854-8.483-47.845 19.316-71.921 84.967-124.86 162.99-124.86 93.199 0 168.75 75.551 168.75 168.75z"
     fill="#6e3387"
     id="path1890678" />
  <path
     d="m259.73 182.17c-56.588 0-102.46 45.873-102.46 102.46 0 27.824 11.096 53.053 29.098 71.517 1.8696 0.0613 3.7434 0.104 5.6279 0.104 43.365 0 85.058-16.743 116.43-46.685-0.0261-9.9e-4 -0.0501-3e-3 -0.0762-4e-3 0.55176-0.49655 1.0926-0.98815 1.6128-1.4619 12.461-12.247 22.904-26.333 31.009-41.72 1.9527-3.3764 3.757-6.9186 5.4023-10.635 2.1917-4.9506 4.1436-10.03 5.8594-15.217-16.484-34.513-51.709-58.358-92.503-58.358z"
     fill="#fd7070"
     id="path1890680" />
  <path
     transform="scale(.75)"
     d="m346.3 242.9c-75.441 0.00529-136.6 61.161-136.6 136.61 0 1.6824 0.04129 3.3539 0.10156 5.0215 2.6443-73.121 62.742-131.58 136.51-131.58 52.759 0 98.522 29.911 121.28 73.699 0.71232-1.9656 1.4038-3.941 2.0625-5.9316-21.975-46.018-68.938-77.815-123.33-77.818h-0.00977z"
     fill="#fff"
     opacity=".3"
     stroke-width="1.3333"
     id="path1890682" />
  <path
     d="m112.99 248.5 52.758 71.78s27.497-1.44 59.067 10.876c25.873-7.4236 62.697-1.5106 81.88-19.352 1.0123-0.94169 2.2169-2.005 3.2724-2.9663 17.335-17.037 30.789-37.62 39.433-60.338z"
     fill="#c5456e"
     id="path1890684" />
  <path
     d="m34.256 132.6c-5.2774 16.527-7.9729 33.767-7.9926 51.118 0 93.199 75.551 168.75 168.75 168.75 43.365 0 85.058-16.742 116.43-46.684-19.183-1.0005-33.132-1.5302-69.559-1.5302-17.143 0-62.41 11.524-79.282-20.619-13.125-25.449-36.957-45.817-56.509-50.906-16.609-4.2847-21.172-20.348-22.51-39.633-1.6087-20.36-17.951-20.89-28.396-34.014-8.1573-10.649-12.87-22.185-20.929-26.481z"
     id="path1890686" />
  <path
     d="m31.243 137.12c-5.2774 16.527-7.9729 33.767-7.9926 51.118 0 93.199 75.551 168.75 168.75 168.75 43.365 0 85.058-16.742 116.43-46.684-19.183-1.0005-33.132-1.5302-69.559-1.5302-17.143 0-62.41 11.524-79.282-20.619-13.125-25.449-36.957-45.817-56.509-50.906-16.609-4.2847-21.172-20.348-22.51-39.633-1.6087-20.36-17.951-20.89-28.396-34.014-8.1573-10.649-12.87-22.185-20.929-26.481z"
     fill="#333"
     id="path1890688" />
  <path
     transform="scale(.75)"
     d="m256 25.979c-104.02 0-191.56 70.589-217.31 166.48-0.21727 0.80876-0.38133 1.6335-0.52148 2.4648-4.7299 18.291-7.1427 37.122-7.1641 56.051 0 2.2906 0.045313 4.5697 0.11328 6.8438 0.27136-17.864 2.6681-35.617 7.1348-52.891 0.14015-0.83133 0.30422-1.6561 0.52148-2.4648 25.755-95.895 113.29-166.48 217.31-166.48 121.88 0 221.12 96.914 224.88 217.89 0.01215-0.96386 0.03906-1.9239 0.03906-2.8906 0-124.27-100.73-225-225-225z"
     fill="#fff"
     opacity=".3"
     stroke-width="1.3333"
     id="path1890690" />
  <path
     d="m265.67 79.064c-4.2687-2.9784-8.8191-5.2265-13.491-6.872 15.554 18.807 17.38 46.224 2.7006 67.263-14.678 21.037-41.04 28.786-64.061 20.68 3.1567 3.8165 6.838 7.3102 11.107 10.289 25.307 17.657 59.895 11.498 77.551-13.807 17.657-25.307 11.5-59.894-13.807-77.551z"
     opacity=".5"
     stroke-width=".35705"
     id="path1890692" />
  <g
     fill="#fff"
     id="g1890704">
    <path
       d="m 265.67,71.564 c -4.2687,-2.9784 -2.98694,3.343816 -7.65884,1.698316 2.22861,2.694707 -1.65677,-3.004141 0,0 9.90625,17.962477 9.44454,40.668194 -3.13156,58.692684 -12.6651,18.15204 -34.02931,26.41074 -54.44014,23.12699 -3.24395,-0.5219 3.15704,1.11163 0,0 3.1567,3.8165 -2.78286,4.86321 1.48614,7.84201 25.307,17.657 59.895,11.498 77.551,-13.807 17.657,-25.307 11.5,-59.894 -13.807,-77.551 z"
       stroke-width="0.35705"
       id="path1890694"
       sodipodi:nodetypes="ccsssccccc" />
    <path
       d="m152.64 92.045-4.6833-3.1272-5.2311 2.0851 1.5269-5.4204-3.5996-4.3308 5.627-0.22282 3.0065-4.7617 1.9508 5.2827 5.4577 1.3879-4.4214 3.4877z"
       opacity=".5"
       style="paint-order:stroke markers fill"
       id="path1890696" />
    <path
       d="m184.4 77.286-4.6833-3.1272-5.2311 2.0851 1.5269-5.4204-3.5996-4.3308 5.627-0.22282 3.0065-4.7617 1.9508 5.2827 5.4577 1.3879-4.4214 3.4877z"
       opacity=".5"
       style="paint-order:stroke markers fill"
       id="path1890698" />
    <path
       d="m 197.20277,125.02869 -3.28993,0.98944 -6.51184,-4.34823 -6.77851,2.70195 v 0 l -3.04726,-3.08754 1.90137,-6.74961 -5.29155,-6.36638 v 0 l 1.82552,-3.06632 7.80323,-0.309 4.23146,-6.701992 v 0 l 3.6459,0.429815 2.72774,7.387177 7.20845,1.83304 v 0 l 1.41682,3.54257 -6.40807,5.05489 z"
       opacity="0.5"
       style="paint-order:stroke markers fill"
       id="path1890700"
       sodipodi:nodetypes="ccccccccccccccccccccc" />
    <path
       d="m150.54 139.28-2.3077-1.5409-2.5776 1.0274 0.75238-2.6709-1.7737-2.134 2.7727-0.1098 1.4814-2.3463 0.96123 2.603 2.6892 0.68387-2.1786 1.7186z"
       opacity=".5"
       style="paint-order:stroke markers fill"
       id="path1890702" />
  </g>
</svg>
