<?xml version="1.0" encoding="UTF-8" standalone="no"?>
<svg
   width="512"
   height="512"
   version="1.1"
   viewBox="0 0 384 384"
   id="svg1513238"
   sodipodi:docname="org.netsurf_browser.NetSurf.svg"
   inkscape:version="1.1.2 (0a00cf5339, 2022-02-04)"
   xmlns:inkscape="http://www.inkscape.org/namespaces/inkscape"
   xmlns:sodipodi="http://sodipodi.sourceforge.net/DTD/sodipodi-0.dtd"
   xmlns:xlink="http://www.w3.org/1999/xlink"
   xmlns="http://www.w3.org/2000/svg"
   xmlns:svg="http://www.w3.org/2000/svg">
  <sodipodi:namedview
     id="namedview1513240"
     pagecolor="#ffffff"
     bordercolor="#666666"
     borderopacity="1.0"
     inkscape:pageshadow="2"
     inkscape:pageopacity="0.0"
     inkscape:pagecheckerboard="0"
     showgrid="false"
     inkscape:zoom="1.6152344"
     inkscape:cx="255.69045"
     inkscape:cy="256"
     inkscape:window-width="1920"
     inkscape:window-height="1051"
     inkscape:window-x="0"
     inkscape:window-y="29"
     inkscape:window-maximized="1"
     inkscape:current-layer="g1513236" />
  <defs
     id="defs1513216">
    <filter
       id="alpha"
       width="1"
       height="1"
       x="0"
       y="0"
       filterUnits="objectBoundingBox">
      <feColorMatrix
         in="SourceGraphic"
         type="matrix"
         values="0 0 0 0 1 0 0 0 0 1 0 0 0 0 1 0 0 0 1 0"
         id="feColorMatrix1513158" />
    </filter>
    <mask
       id="mask0">
      <g
         filter="url(#alpha)"
         id="g1513163">
        <rect
           width="384"
           height="384"
           x="0"
           y="0"
           style="fill:rgb(0%,0%,0%);fill-opacity:0.2"
           id="rect1513161" />
      </g>
    </mask>
    <clipPath
       id="clip1">
      <rect
         width="384"
         height="384"
         x="0"
         y="0"
         id="rect1513166" />
    </clipPath>
    <g
       id="surface5"
       clip-path="url(#clip1)">
      <path
         style="fill:rgb(0%,0%,0%)"
         d="M 276 52.507812 C 195.648438 6.117188 92.898438 33.648438 46.507812 114 C 0.117188 194.351562 27.648438 297.101562 108 343.492188 C 188.351562 389.882812 291.101562 362.351562 337.492188 282 C 383.882812 201.648438 356.351562 98.898438 276 52.507812 Z M 276 52.507812"
         id="path1513169" />
    </g>
    <mask
       id="mask1">
      <g
         filter="url(#alpha)"
         id="g1513174">
        <rect
           width="384"
           height="384"
           x="0"
           y="0"
           style="fill:rgb(0%,0%,0%);fill-opacity:0.2"
           id="rect1513172" />
      </g>
    </mask>
    <clipPath
       id="clip2">
      <rect
         width="384"
         height="384"
         x="0"
         y="0"
         id="rect1513177" />
    </clipPath>
    <g
       id="surface8"
       clip-path="url(#clip2)">
      <path
         style="fill:rgb(100.000%,100.000%,100.000%)"
         d="M 195.960938 24.046875 C 134.539062 22.59375 77.21875 54.789062 46.5 108 C 31.566406 134.058594 23.886719 163.644531 24.269531 193.675781 C 24.921875 165.679688 32.566406 138.289062 46.5 114 C 77.21875 60.789062 134.539062 28.59375 195.960938 30.046875 C 224.101562 30.707031 251.621094 38.429688 276 52.5 C 327.753906 82.535156 359.625 137.832031 359.671875 197.671875 C 359.691406 198.15625 359.707031 198.640625 359.71875 199.125 C 362.402344 136.632812 330.144531 77.824219 276 46.5 C 251.621094 32.429688 224.101562 24.707031 195.960938 24.046875 Z M 195.960938 24.046875"
         id="path1513180" />
    </g>
    <mask
       id="mask2">
      <g
         filter="url(#alpha)"
         id="g1513185">
        <rect
           width="384"
           height="384"
           x="0"
           y="0"
           style="fill:rgb(0%,0%,0%);fill-opacity:0.2"
           id="rect1513183" />
      </g>
    </mask>
    <clipPath
       id="clip3">
      <rect
         width="384"
         height="384"
         x="0"
         y="0"
         id="rect1513188" />
    </clipPath>
    <g
       id="surface11"
       clip-path="url(#clip3)">
      <path
         style="fill:rgb(0%,0%,0%)"
         d="M 276.90625 90.050781 L 266.222656 122.914062 L 300 130.191406 L 269.210938 145.875 L 287.949219 174.90625 L 255.085938 164.222656 L 247.808594 198 L 232.125 167.210938 L 203.09375 185.949219 L 213.777344 153.085938 L 180 145.808594 L 210.789062 130.125 L 192.050781 101.09375 L 224.914062 111.777344 L 232.191406 78 L 247.875 108.789062 Z M 276.90625 90.050781"
         id="path1513191" />
    </g>
    <mask
       id="mask3">
      <g
         filter="url(#alpha)"
         id="g1513196">
        <rect
           width="384"
           height="384"
           x="0"
           y="0"
           style="fill:rgb(0%,0%,0%);fill-opacity:0.2"
           id="rect1513194" />
      </g>
    </mask>
    <clipPath
       id="clip4">
      <rect
         width="384"
         height="384"
         x="0"
         y="0"
         id="rect1513199" />
    </clipPath>
    <g
       id="surface14"
       clip-path="url(#clip4)">
      <path
         style="fill:none;stroke-width:3;stroke-linecap:round;stroke-linejoin:round;stroke:rgb(0%,0%,0%)"
         d="M 17.5 7.485026 C 11.5 29.485026 19.192057 45.940755 34.5 61.485026"
         transform="matrix(6,0,0,6,0,0)"
         id="path1513202" />
    </g>
    <mask
       id="mask4">
      <g
         filter="url(#alpha)"
         id="g1513207">
        <rect
           width="384"
           height="384"
           x="0"
           y="0"
           style="fill:rgb(0%,0%,0%);fill-opacity:0.2"
           id="rect1513205" />
      </g>
    </mask>
    <clipPath
       id="clip5">
      <rect
         width="384"
         height="384"
         x="0"
         y="0"
         id="rect1513210" />
    </clipPath>
    <g
       id="surface17"
       clip-path="url(#clip5)">
      <path
         style="fill:none;stroke-width:3;stroke-linecap:round;stroke-linejoin:round;stroke:rgb(0%,0%,0%)"
         d="M 59.5 32.485026 C 43.738281 48.166667 26.5 51.485026 6.5 45.485026"
         transform="matrix(6,0,0,6,0,0)"
         id="path1513213" />
    </g>
  </defs>
  <g
     id="g1513236">
    <use
       mask="url(#mask0)"
       xlink:href="#surface5"
       id="use1513218" />
    <path
       style="fill:rgb(29.019%,68.235%,90.196%)"
       d="M 276 46.507812 C 195.648438 0.117188 92.898438 27.648438 46.507812 108 C 0.117188 188.351562 27.648438 291.101562 108 337.492188 C 188.351562 383.882812 291.101562 356.351562 337.492188 276 C 383.882812 195.648438 356.351562 92.898438 276 46.507812 Z M 276 46.507812"
       id="path1513220" />
    <use
       mask="url(#mask1)"
       xlink:href="#surface8"
       id="use1513222" />
    <use
       mask="url(#mask2)"
       xlink:href="#surface11"
       id="use1513224" />
    <path
       style="fill:#ffffff"
       d="m 268.13917,89.709508 5.68272,3.828907 -6.40085,19.689355 v 0 l 4.11937,4.832 18.41075,3.96661 v 0 l -0.33704,7.45548 -16.85888,8.58771 v 0 l -0.79685,6.06206 11.77101,18.23685 v 0 l -2.5148,4.3484 -22.08206,-7.1787 -4.82615,2.30272 v 0 l -4.49666,20.87096 v 0 l -6.13446,1.17386 -9.73989,-19.12075 -1.81038,2.44597 -4.47909,-3.10897 -16.8044,10.84644 v 0 l -5.0274,-3.36715 6.44496,-19.82502 v 0 l -2.34308,-5.50223 -19.06412,-4.10738 v 0 l -0.40942,-7.6573 15.69334,-7.99401 v 0 l 1.6084,-7.08775 -11.34474,-17.57643 v 0 l 5.18811,-3.637057 18.79799,6.111077 v 0 L 225.875,101.31722 230.07992,81.800323 232.19141,78 l 4.94584,3.709377 7.9964,15.698036 6.79533,2.764997 v 0 z"
       id="path1513226"
       sodipodi:nodetypes="ccccccccccccccccccccccccccccccccccccccccccccccccc" />
    <use
       mask="url(#mask3)"
       xlink:href="#surface14"
       id="use1513228" />
    <path
       style="fill:none;stroke-width:3;stroke-linecap:round;stroke-linejoin:round;stroke:rgb(29.803%,29.803%,29.803%)"
       d="M 17.5 6.5 C 11.5 28.5 19.192057 44.95638 34.5 60.5"
       transform="matrix(6,0,0,6,0,0)"
       id="path1513230" />
    <use
       mask="url(#mask4)"
       xlink:href="#surface17"
       id="use1513232" />
    <path
       style="fill:none;stroke-width:3;stroke-linecap:round;stroke-linejoin:round;stroke:rgb(29.803%,29.803%,29.803%)"
       d="M 59.5 31.5 C 43.738281 47.181641 26.5 50.5 6.5 44.5"
       transform="matrix(6,0,0,6,0,0)"
       id="path1513234" />
  </g>
</svg>
