<?xml version="1.0" encoding="UTF-8" standalone="no"?>
<svg
   width="32"
   height="32"
   version="1.1"
   id="svg1144730"
   sodipodi:docname="applications-accessories.svg"
   inkscape:version="1.1.2 (0a00cf5339, 2022-02-04)"
   xmlns:inkscape="http://www.inkscape.org/namespaces/inkscape"
   xmlns:sodipodi="http://sodipodi.sourceforge.net/DTD/sodipodi-0.dtd"
   xmlns="http://www.w3.org/2000/svg"
   xmlns:svg="http://www.w3.org/2000/svg">
  <defs
     id="defs1144734" />
  <sodipodi:namedview
     id="namedview1144732"
     pagecolor="#ffffff"
     bordercolor="#666666"
     borderopacity="1.0"
     inkscape:pageshadow="2"
     inkscape:pageopacity="0.0"
     inkscape:pagecheckerboard="0"
     showgrid="false"
     inkscape:zoom="25.84375"
     inkscape:cx="15.980653"
     inkscape:cy="16"
     inkscape:window-width="1920"
     inkscape:window-height="1051"
     inkscape:window-x="0"
     inkscape:window-y="29"
     inkscape:window-maximized="1"
     inkscape:current-layer="svg1144730" />
  <path
     style="opacity:0.2"
     d="m 2,3.00004 v 22 c 0,2 2,2 2,2 h 25.005144 l 0.183611,-0.695353 v 0 z m 5,10.87109 9.48242,8.12891 H 7 Z"
     id="path1144704"
     sodipodi:nodetypes="csccccccccc" />
  <path
     style="fill:#009688"
     d="m 2,2.7360855 v 0 21.2639545 c 0,2 2,2 2,2 h 24.955586 l 0.07787,-0.828465 v 0 L 2.8358199,2.716457 Z M 7.5745595,13.363678 v 0 L 16.48242,21.00004 H 7 v -7.350707 z"
     id="path1144706"
     sodipodi:nodetypes="ccscccccccccccc" />
  <path
     style="opacity:0.2;fill:#ffffff"
     d="m 2,3.00004 v 0 l 26.83398,23 H 30 L 3.0050126,2.8614794 Z m 5,18 v 1 h 9.48242 l -1.16601,-1 z"
     id="path1144708"
     sodipodi:nodetypes="ccccccccccc" />
  <path
     style="opacity:0.2;fill-rule:evenodd"
     d="m 14.05566,11.99997 c 0.52496,0.019 1.00169,0.31134 1.25684,0.7705 l 7.5,13.5 0.143552,2.855343 v 0 L 22.115076,29.285581 20.1875,27.72947 14,16.59079 v -4.58496 c 0.019,0 0.0366,-0.006 0.0557,-0.006 z"
     id="path1144710"
     sodipodi:nodetypes="ccccccccccc" />
  <path
     style="fill:#a2a2a2;fill-rule:evenodd"
     d="m 14.05566,10.99997 c 0.52496,0.019 1.00169,0.31134 1.25684,0.7705 l 7.5,13.5 0.149273,2.969135 c -0.01264,0.235672 -0.413707,-2.60862 0,0 L 22.479654,28.5799 20.1875,26.72947 14,15.59079 v -4.58496 c 0.019,0 0.0366,-0.006 0.0557,-0.006 z"
     id="path1144712"
     sodipodi:nodetypes="ccccccccccc" />
  <path
     style="opacity:0.2"
     d="m 13.94434,11.99997 c -0.52496,0.019 -1.00169,0.31134 -1.25684,0.77051 l -7.5,13.5 -0.1414528,2.813583 0.84331,0.197936 v 0 L 7.8125,27.72946 8.86719,25.83396 c 1.603561,0.76374 3.356665,1.161989 5.13281,1.16601 6.627417,0 12,-5.372583 12,-12 h -3 c 0,4.970563 -4.029437,9 -9,9 -1.266273,-0.0054 -2.517157,-0.277924 -3.6709,-0.7998 L 14,16.59079 v -4.58495 c -0.019,0 -0.0366,-0.006 -0.0557,-0.006 z"
     id="path1144714"
     sodipodi:nodetypes="ccccccccccccccccc" />
  <path
     style="fill:#e4e4e4"
     d="m 13.94434,10.99997 c -0.52496,0.019 -1.00169,0.31134 -1.25684,0.77051 l -7.5,13.5 -0.1504125,2.991797 0.4388536,0.353469 v 0 L 7.8125,26.72946 8.86719,24.83396 c 1.603561,0.76374 3.356665,1.161989 5.13281,1.16601 6.627417,0 12,-5.372583 12,-12 h -3 c 0,4.970563 -4.029437,9 -9,9 -1.266273,-0.0054 -2.517157,-0.277924 -3.6709,-0.7998 L 14,15.59079 v -4.58495 c -0.019,0 -0.0366,-0.006 -0.0557,-0.006 z"
     id="path1144716"
     sodipodi:nodetypes="ccccccccccccccccc" />
  <path
     style="opacity:0.2"
     d="m 12,5.99997 v 3 h -1 c -2,0 -2,2 -2,2 v 5 c 0,0 2.5,2.50002 3.5,3.50003 0.8992,0.69992 2.39217,0.75609 3.16496,-0.16495 L 19,15.99997 v -5 c 0,0 0,-2 -2,-2 h -1 v -3 z"
     id="path1144718" />
  <path
     style="opacity:0.2;fill:#ffffff"
     d="m 13.94336,10.99997 c -0.52419,0.0197 -1.00103,0.31288 -1.25586,0.77148 l -7.5,13.5 L 5.0356035,28.291978 5,28.99997 l 0.0527,-0.043 0.13477,-2.68555 7.5,-13.5 c 0.25483,-0.4586 0.73167,-0.75183 1.25586,-0.77148 h 0.002 c 0.0184,3.8e-4 0.0363,0.006 0.0547,0.006 v -1 c -0.0183,0 -0.0363,-0.005 -0.0547,-0.006 h -0.002 z m 9.05664,3 c 0,4.970563 -4.029437,9 -9,9 -1.101114,-0.0079 -2.191438,-0.217712 -3.2168,-0.61914 l -0.45508,0.82031 c 1.154117,0.521677 2.405346,0.793886 3.67188,0.79883 4.970563,0 9,-4.029437 9,-9 h 2.95312 c 0.02954,-0.332536 0.04518,-0.666159 0.0469,-1 h -3 z"
     id="path1144720"
     sodipodi:nodetypes="ccccccccccccccccccccccccc" />
  <path
     style="fill:#4f4f4f"
     d="m 12,4.99997 v 3 h -1 c -2,0 -2,2 -2,2 v 5 c 0,0 2.5,2.50002 3.5,3.50003 0.8992,0.69992 2.39217,0.75609 3.16496,-0.16495 L 19,14.99997 v -5 c 0,0 0,-2 -2,-2 h -1 v -3 z"
     id="path1144722" />
  <circle
     style="opacity:0.2"
     cx="14"
     cy="13"
     r="2"
     id="circle1144724" />
  <circle
     style="fill:#ffffff"
     cx="14"
     cy="12"
     r="2"
     id="circle1144726" />
  <path
     style="opacity:0.1;fill:#ffffff"
     d="m 12,4.99997 v 1 h 4 v -1 z m -1,3 c -2,0 -2,2 -2,2 v 1 c 0,0 0,-2 2,-2 h 1 v -1 z m 5,0 v 1 h 1 c 2,0 2,2 2,2 v -1 c 0,0 0,-2 -2,-2 z"
     id="path1144728" />
</svg>
