<?xml version="1.0" encoding="UTF-8" standalone="no"?>
<svg
   width="512"
   height="512"
   version="1.1"
   id="svg133797"
   sodipodi:docname="rest.insomnia.Insomnia.svg"
   inkscape:version="1.1.2 (0a00cf5339, 2022-02-04)"
   xmlns:inkscape="http://www.inkscape.org/namespaces/inkscape"
   xmlns:sodipodi="http://sodipodi.sourceforge.net/DTD/sodipodi-0.dtd"
   xmlns="http://www.w3.org/2000/svg"
   xmlns:svg="http://www.w3.org/2000/svg">
  <sodipodi:namedview
     id="namedview133799"
     pagecolor="#ffffff"
     bordercolor="#666666"
     borderopacity="1.0"
     inkscape:pageshadow="2"
     inkscape:pageopacity="0.0"
     inkscape:pagecheckerboard="0"
     showgrid="false"
     inkscape:zoom="1.6152344"
     inkscape:cx="255.69045"
     inkscape:cy="256"
     inkscape:window-width="1920"
     inkscape:window-height="1051"
     inkscape:window-x="0"
     inkscape:window-y="29"
     inkscape:window-maximized="1"
     inkscape:current-layer="g133793" />
  <defs
     id="defs133781">
    <linearGradient
       id="a"
       x1="159.47"
       x2="495.66"
       y1="156.03"
       y2="525.9"
       gradientTransform="matrix(1.1084 0 0 1.1084 -27.74 -27.74)"
       gradientUnits="userSpaceOnUse">
      <stop
         stop-color="#367bf0"
         offset="0"
         id="stop133776" />
      <stop
         stop-color="#b8174c"
         offset="1"
         id="stop133778" />
    </linearGradient>
  </defs>
  <g
     id="g133795">
    <path
       d="m256 31a225 225 0 0 0-225 225 225 225 0 0 0 225 225 225 225 0 0 0 225-225 225 225 0 0 0-225-225z"
       stroke-width="8.0357"
       id="path133783" />
    <path
       d="m246 71.781a177.33 174.22 0 0 0-52.078 7.8572 88.665 87.109 0 0 1 52.078 79.252 88.665 87.109 0 0 1-88.665 87.109 88.665 87.109 0 0 1-80.762-51.381 177.33 174.22 0 0 0-7.903 51.381 177.33 174.22 0 0 0 177.33 174.22 177.33 174.22 0 0 0 177.33-174.22 177.33 174.22 0 0 0-177.33-174.22z"
       fill="#fff"
       opacity=".1"
       stroke-width="7.9894"
       id="path133785" />
    <g
       stroke-width="8.828"
       id="g133793">
      <path
         d="m 256,63.495 c -10.82711,0.03474 -21.61759,0.951 -32.26177,2.732247 -1.51831,0.254082 -3.03365,0.525763 -4.54569,0.814996 -6.99316,1.337697 -1.40083,9.879633 -8.22154,11.963457 6.37844,2.838784 -0.17326,-0.531415 5.31465,3.455298 1.212,0.880463 2.40081,1.786683 3.56579,2.717674 22.50609,17.985738 36.11587,45.216218 36.14856,74.568228 0,53.15851 -43.86311,96.252 -97.971,96.252 -33.05593,-0.0372 -63.460361,-16.40259 -81.405473,-42.85641 -2.966399,-4.37292 2.241184,4.89608 0,0 -1.791138,5.69518 -11.143417,-2.45547 -12.386867,3.36426 -2.771565,12.97178 -4.175387,26.20584 -4.17916,39.49215 0,106.31481 87.72533,192.5 195.94,192.5 108.21467,0 195.94,-86.18519 195.94,-192.5 0,-106.31481 -87.72533,-192.5 -195.94,-192.5 z"
         fill="url(#a)"
         id="path133787"
         sodipodi:nodetypes="csscssccscscsscc" />
      <path
         d="m60.312 251c-0.10669 1.6655-0.19133 3.3323-0.25391 5 3.82e-4 106.32 87.726 192.5 195.94 192.5 108.22-4.1e-4 195.94-86.187 195.94-192.5-0.0552-1.3816-0.12549-2.7625-0.21094-4.1426-3.221 103.94-89.883 186.58-195.73 186.65-106.16-0.10036-192.93-83.242-195.69-187.5z"
         opacity=".3"
         id="path133789" />
      <path
         d="m 256,63.496 c -19.515,0.06243 -26.394,9.8167 -45.029,15.5097 4.3358,1.9731 -3.9972,-2.5728 0,0 14.742,-3.5437 29.853,-5.3927 45.029,-5.5098 106.51,0.08882 193.44,83.746 195.73,188.36 0.10056,-1.9513 0.17089,-3.904 0.21094,-5.8574 -3.8e-4,-106.32 -87.726,-192.5 -195.94,-192.5 z"
         fill="#ffffff"
         opacity="0.1"
         id="path133791"
         sodipodi:nodetypes="cccccccc" />
    </g>
  </g>
</svg>
