<?xml version="1.0" encoding="UTF-8" standalone="no"?>
<svg
   width="512"
   height="512"
   version="1.1"
   viewBox="0 0 384 384"
   id="svg2246933"
   sodipodi:docname="sepolicy.svg"
   inkscape:version="1.1.2 (0a00cf5339, 2022-02-04)"
   xmlns:inkscape="http://www.inkscape.org/namespaces/inkscape"
   xmlns:sodipodi="http://sodipodi.sourceforge.net/DTD/sodipodi-0.dtd"
   xmlns="http://www.w3.org/2000/svg"
   xmlns:svg="http://www.w3.org/2000/svg">
  <defs
     id="defs2246937" />
  <sodipodi:namedview
     id="namedview2246935"
     pagecolor="#ffffff"
     bordercolor="#666666"
     borderopacity="1.0"
     inkscape:pageshadow="2"
     inkscape:pageopacity="0.0"
     inkscape:pagecheckerboard="0"
     showgrid="false"
     inkscape:zoom="1.6152344"
     inkscape:cx="255.69045"
     inkscape:cy="256"
     inkscape:window-width="1920"
     inkscape:window-height="1051"
     inkscape:window-x="0"
     inkscape:window-y="29"
     inkscape:window-maximized="1"
     inkscape:current-layer="svg2246933" />
  <path
     d="m360 192c0 92.785-75.215 168-168 168s-168-75.215-168-168 75.215-168 168-168 168 75.215 168 168z"
     fill="#191919"
     id="path2246913" />
  <path
     d="m138 133.5v12h36v12h-48v36h-12v-36h-12v84h12v-36h12v36l24 24h78l12-12h18v12h12l12-11.996v-72l-12-12.004h-12v12l-10.5 4e-3 -24-24h-37.5v-12l36-4e-3v-12zm0 36h78l24 24h30v48h-36l-12 12h-64.5l-19.5-20.398z"
     id="path2246915" />
  <path
     transform="scale(.75)"
     d="m32.062 251c-0.036438 1.6631-0.0625 3.3282-0.0625 5 0 123.71 100.29 224 224 224s224-100.29 224-224c0-1.6718-0.02606-3.3369-0.0625-5-2.66 121.4-101.9 219-223.94 219s-221.28-97.597-223.94-219z"
     stroke-width="1.3333"
     id="path2246917" />
  <g
     transform="translate(-.0016875)"
     id="g2246921">
    <path
       d="m 138,128.63826 v 0 6.54289 L 141.87072,138 v 0 H 174 v 12 h -48 v 36 H 114 V 152.78313 L 111.25417,150 v 0 h -6.05132 v 0 L 102,154.70191 v 75.12004 0 L 105.99856,234 h 5.08143 v 0 L 114,229.98748 V 198 h 12 v 36 l 24,24 h 78 l 12,-12 h 18 v 12 h 12 l 12,-11.996 v -72 L 270,162 h -12 v 12 l -10.5,0.004 -24,-24 H 186 v -12 L 218.83431,138 222,134.49982 v 0 -5.10084 0 L 218.262,126 H 141.45335 Z M 138,162 h 78 l 24,24 h 30 v 48 h -36 l -12,12 H 157.5 L 138,225.602 Z"
       fill="#ffc72e"
       id="path2246919"
       sodipodi:nodetypes="cccccccccccccccccccccccccccccccccccccccccccccccccccccccccc" />
  </g>
  <path
     d="m368.37 283.39c0 51.02-41.359 92.379-92.379 92.379s-92.379-41.359-92.379-92.379 41.359-92.379 92.379-92.379 92.379 41.359 92.379 92.379z"
     opacity=".3"
     id="path2246923" />
  <path
     d="m368.37 275.89c0 51.02-41.359 92.379-92.379 92.379s-92.379-41.359-92.379-92.379 41.359-92.379 92.379-92.379 92.379 41.359 92.379 92.379z"
     fill="#fff"
     id="path2246925" />
  <path
     d="m267.84 232.51-2.5977 13.156c-3.2031 0.85937-6.25 2.1523-9.082 3.7109l-11.672-7.4102-11.309 10.934 7.5977 11.305c-1.6055 2.7383-2.8164 5.6094-3.707 8.7109l-13.535 2.5976v15.758l13.535 2.5938c0.88281 3.1055 2.1016 6.1562 3.707 8.8984l-7.5977 11.121 11.309 11.121 11.672-7.5976c2.832 1.5508 5.8789 2.8476 9.082 3.707l2.5977 13.16h16.309l2.5977-13.16c3.2031-0.85938 6.2539-2.1484 9.082-3.707l11.676 7.5976 11.309-11.121-7.6016-11.121c1.6055-2.7383 2.8203-5.793 3.7109-8.8984l13.531-2.5938v-15.758l-13.531-2.5976c-0.88673-3.1016-2.1055-5.9727-3.7109-8.7109l7.6016-11.305-11.309-10.934-11.676 7.4102c-2.8281-1.5508-5.8789-2.8516-9.082-3.7109l-2.5977-13.156zm8.1602 32.988c9.8281 0 17.793 7.9648 17.793 17.793 0 9.832-7.9648 17.793-17.793 17.793-9.832 0-17.797-7.9609-17.797-17.793 0-9.8281 7.9648-17.793 17.797-17.793z"
     opacity=".3"
     id="path2246927" />
  <path
     d="m 267.34016,227.54145 v 0 L 265.2423,238.166 c -3.2031,0.85937 -6.25,2.1523 -9.082,3.7109 l -8.2665,-5.24815 -5.96913,0.31657 v 0 l -5.9888,5.79022 -0.47923,6.05374 v 0 l 5.32036,7.91642 c -1.6055,2.7383 -2.8164,5.6094 -3.707,8.7109 l -13.535,2.5976 v 15.758 l 13.535,2.5938 c 0.88281,3.1055 2.1016,6.1562 3.707,8.8984 l -7.5977,11.121 11.309,11.121 11.672,-7.5976 c 2.832,1.5508 5.8789,2.8476 9.082,3.707 l 1.84928,9.36847 4.9877,3.79153 v 0 l 8.74216,0 v 0 l 4.05922,-3.70658 1.86604,-9.45342 c 3.2031,-0.85938 6.2539,-2.1484 9.082,-3.707 l 8.21023,5.34242 5.52169,0.23343 v 0 l 5.91025,-5.81199 0.99368,-6.72402 v 0 l -5.25245,-7.68424 c 1.6055,-2.7383 2.8203,-5.793 3.7109,-8.8984 l 10.21483,-1.95811 v 0 l 3.31617,-3.63503 v -8.50702 0 l -3.17711,-4.86156 -10.35389,-1.98768 c -0.88673,-3.1016 -2.1055,-5.9727 -3.7109,-8.7109 l 7.6016,-11.305 -11.309,-10.934 -11.676,7.4102 c -2.8281,-1.5508 -5.8789,-2.8516 -9.082,-3.7109 l -1.78067,-9.01817 v 0 L 280.82744,225.01 h -8.28536 z m 8.66004,30.45655 c 9.8281,0 17.793,7.9648 17.793,17.793 0,9.832 -7.9648,17.793 -17.793,17.793 -9.832,0 -17.797,-7.9609 -17.797,-17.793 0,-9.8281 7.9648,-17.793 17.797,-17.793 z"
     id="path2246929"
     sodipodi:nodetypes="cccccccccccccccccccccccccccccccccccccccccccccccccccccsssss" />
  <path
     transform="scale(.75)"
     d="m256 32c-123.71 0-224 100.29-224 224 0 1.6718 0.026062 3.3369 0.0625 5 2.66-121.4 101.9-219 223.94-219s221.28 97.597 223.94 219c0.03644-1.6631 0.0625-3.3282 0.0625-5 0-123.71-100.29-224-224-224z"
     fill="#fff"
     opacity=".1"
     stroke-width="1.3333"
     id="path2246931" />
</svg>
