<?xml version="1.0" encoding="UTF-8" standalone="no"?>
<svg
   width="512"
   height="512"
   version="1.1"
   viewBox="0 0 384 384"
   id="svg1797871"
   sodipodi:docname="simplenote.svg"
   inkscape:version="1.1.2 (0a00cf5339, 2022-02-04)"
   xmlns:inkscape="http://www.inkscape.org/namespaces/inkscape"
   xmlns:sodipodi="http://sodipodi.sourceforge.net/DTD/sodipodi-0.dtd"
   xmlns="http://www.w3.org/2000/svg"
   xmlns:svg="http://www.w3.org/2000/svg">
  <sodipodi:namedview
     id="namedview1797873"
     pagecolor="#ffffff"
     bordercolor="#666666"
     borderopacity="1.0"
     inkscape:pageshadow="2"
     inkscape:pageopacity="0.0"
     inkscape:pagecheckerboard="0"
     showgrid="false"
     inkscape:zoom="1.6152344"
     inkscape:cx="255.69045"
     inkscape:cy="256"
     inkscape:window-width="1920"
     inkscape:window-height="1051"
     inkscape:window-x="0"
     inkscape:window-y="29"
     inkscape:window-maximized="1"
     inkscape:current-layer="svg1797871" />
  <defs
     id="defs1797859">
    <clipPath
       id="clipPath1797853">
      <rect
         width="384"
         height="384"
         id="rect1797851" />
    </clipPath>
    <clipPath
       id="clipPath1797857">
      <rect
         width="384"
         height="384"
         id="rect1797855" />
    </clipPath>
  </defs>
  <path
     d="m359.99 192c0-92.781-75.215-168-167.99-168-92.781 0-168 75.215-168 168 0 92.777 75.215 167.99 168 167.99 92.777 0 167.99-75.215 167.99-167.99z"
     fill="#fff"
     id="path1797861" />
  <path
     d="m201.04 85.507c-1.269 0.0239-2.3945 0.13233-3.9902 0.25343-29.301 0-53.055 22.29-53.055 49.786 0.0274 18.867 11.356 35.719 28.598 44.121 0 0 19.05 8.1919 27.476 12.438 12.207 5.7266 25.645 10.796 38.442 18.132 6.3984 3.6719 12.859 7.9536 18.668 14.571 5.8047 6.6172 10.601 16.531 10.601 26.902 0 20.121-7.75 35.458-17.684 49.786v5e-3c38.578-20.641 61.837-57.899 61.896-99.574-0.0859-57.394-45.625-107.59-106.1-116.16-2.168-0.2168-3.5811-0.27735-4.8501-0.25342zm-67.147 11.996c-38.578 20.637-61.832 57.903-61.894 99.571 0.082 57.395 45.629 107.59 106.1 116.17 4.3359 0.42969 5.648 0.23828 8.8433 0 29.297 0 53.051-22.29 53.051-49.786-0.0274-18.871-11.354-35.723-28.597-44.121 0 0-19.048-8.1948-27.478-12.441-12.207-5.7266-25.644-10.793-38.44-18.133-6.3984-3.668-12.859-7.9536-18.668-14.571-5.8047-6.6172-10.603-16.531-10.603-26.902 0-20.121 7.75-35.458 17.684-49.786z"
     opacity=".1"
     id="path1797863" />
  <path
     d="m 201.04,78.007 c -1.269,0.02393 -2.3945,0.13233 -3.9902,0.25342 -29.301,0 -53.055,22.29 -53.055,49.786 0.0274,18.867 11.356,35.719 28.598,44.121 0,0 19.05,8.1919 27.476,12.438 12.207,5.7266 25.645,10.796 38.442,18.132 6.3984,3.6719 12.859,7.9536 18.668,14.571 5.8047,6.6172 10.601,16.531 10.601,26.902 0,11.3377 -2.46066,21.15645 -6.3862,30.13164 -3.04111,6.95306 4.33643,-6.25452 0,0 l 7.72345,7.18919 c 6.83606,-3.65761 -5.83016,4.63322 0,0 27.07129,-21.51353 42.8262,-52.81285 42.87475,-87.10383 -0.0859,-57.395 -45.625,-107.59 -106.1,-116.17 -2.168,-0.2168 -3.5811,-0.27735 -4.8501,-0.25342 z m -76.00203,26.51485 c -5.77045,3.08685 -2.34302,-7.973076 -7.40143,-4.18303 C 88.877279,121.8869 72.051726,154.13865 71.999,189.574 c 0.08203,57.395 45.629,107.59 106.1,116.17 4.3359,0.42969 5.648,0.23828 8.8433,0 29.297,0 53.051,-22.29 53.051,-49.786 -0.0274,-18.871 -11.354,-35.723 -28.597,-44.121 0,0 -19.048,-8.1948 -27.478,-12.441 -12.207,-5.7266 -25.644,-10.793 -38.44,-18.133 -6.3984,-3.668 -12.859,-7.9536 -18.668,-14.571 -5.8047,-6.6172 -10.603,-16.531 -10.603,-26.902 0,-13.53864 3.50875,-24.91136 8.83067,-35.26815 2.58747,-5.035379 -3.24979,4.68724 0,0 z"
     fill="#4aaee6"
     id="path1797865"
     sodipodi:nodetypes="cccccccssccscccccsccccccccsscc" />
  <path
     transform="scale(.75)"
     d="m256.01 32.016c-123.71 0-223.99 100.29-223.99 223.99 0 1.6717 0.026062 3.3371 0.0625 5 2.66-121.4 101.9-218.99 223.93-218.99 122.03 0 221.27 97.596 223.93 218.99 0.03644-1.6629 0.0625-3.3283 0.0625-5 0-123.71-100.29-223.99-223.99-223.99z"
     opacity=".1"
     stroke-width="1.3333"
     id="path1797867" />
  <path
     transform="scale(.75)"
     d="m32.078 251.01c-0.036438 1.663-0.0625 3.3283-0.0625 5 0 123.7 100.29 223.99 223.99 223.99 123.7 0 223.99-100.29 223.99-223.99 0-1.6717-0.02606-3.337-0.0625-5-2.66 121.39-101.9 218.99-223.93 218.99-122.04 0-221.27-97.597-223.93-218.99z"
     opacity=".3"
     stroke-width="1.3333"
     id="path1797869" />
</svg>
