<?xml version="1.0" encoding="UTF-8" standalone="no"?>
<svg
   width="512"
   height="512"
   version="1.1"
   viewBox="0 0 384 384"
   id="svg154727"
   sodipodi:docname="slingscold.svg"
   inkscape:version="1.1.2 (0a00cf5339, 2022-02-04)"
   xmlns:inkscape="http://www.inkscape.org/namespaces/inkscape"
   xmlns:sodipodi="http://sodipodi.sourceforge.net/DTD/sodipodi-0.dtd"
   xmlns="http://www.w3.org/2000/svg"
   xmlns:svg="http://www.w3.org/2000/svg">
  <sodipodi:namedview
     id="namedview154729"
     pagecolor="#ffffff"
     bordercolor="#666666"
     borderopacity="1.0"
     inkscape:pageshadow="2"
     inkscape:pageopacity="0.0"
     inkscape:pagecheckerboard="0"
     showgrid="false"
     inkscape:zoom="1.6152344"
     inkscape:cx="255.69045"
     inkscape:cy="256"
     inkscape:window-width="1920"
     inkscape:window-height="1051"
     inkscape:window-x="0"
     inkscape:window-y="29"
     inkscape:window-maximized="1"
     inkscape:current-layer="svg154727" />
  <defs
     id="defs154715">
    <clipPath
       id="clipPath154704">
      <rect
         width="384"
         height="384"
         id="rect154702" />
    </clipPath>
    <clipPath
       id="clipPath154708">
      <rect
         width="384"
         height="384"
         id="rect154706" />
    </clipPath>
    <linearGradient
       id="a"
       x1="-32.793"
       x2="477.48"
       y1="489.82"
       y2="-144.1"
       gradientUnits="userSpaceOnUse">
      <stop
         stop-color="#e5e5e5"
         offset="0"
         id="stop154710" />
      <stop
         stop-color="#fff"
         offset="1"
         id="stop154712" />
    </linearGradient>
  </defs>
  <path
     d="m360 192c0-92.785-75.215-168-168-168-92.785 0-168 75.215-168 168 0 92.785 75.215 168 168 168 92.785 0 168-75.215 168-168z"
     fill="url(#a)"
     id="path154717" />
  <path
     d="m287.99 103.51s-28.793-0.80859-57.566 13.594c-8.7969 3.9961-18.391 10.391-26.387 18.387-12.926 12.93-33.012 36.73-48.828 55.969h-35.121l-15.992 23.984 27.121 7.332c0.0781 0.96875 0.33594 2.3359 1.0859 4.1836l-4.2109 9.2656s-1.6016 3.1992 10.391 15.992c12.793 12.801 16.793 11.191 16.793 11.191l9.9375-4.5078c1.4883 0.46483 2.5898 0.62109 3.3086 0.62109l7.5391 27.875 23.988-15.992v-36.195c19.371-15.664 43.145-35.348 55.969-47.754 7.9922-7.9961 14.391-17.59 19.18-26.387 13.582-28.773 12.793-57.559 12.793-57.559zm-55.969 71.957c-8.8008 0-15.992-7.1953-15.992-15.988 0-8.8047 7.1914-15.992 15.992-15.992 8.7969 0 15.992 7.1875 15.992 15.992 0 8.793-7.2031 15.988-15.992 15.988zm-83.949 95.945c1.5976 0.80859 2.3984 1.5976 3.9961 2.3984-1.5976 1.6016-3.1992 4-4.8047 5.5976-18.398 18.391-51.164 15.992-51.164 15.992s-2.3984-32.789 15.992-51.164c1.5976-1.6055 3.9961-3.1914 5.5976-4.8047 0.79687 1.5976 1.5898 2.3984 2.3984 3.9961-11.992 15.184-10.395 38.379-10.395 38.379s23.18 1.5976 38.379-10.395z"
     opacity=".3"
     id="path154719" />
  <path
     d="m 287.81879,102.5971 c 0,0 -2.47971,-6.664545 -6.97663,-6.365908 -10.32349,0.685577 -30.37568,3.337358 -50.41816,13.369808 -8.7969,3.9961 -18.391,10.391 -26.387,18.387 -12.926,12.93 -33.012,36.73 -48.828,55.969 h -35.121 l -12.47561,18.7103 1.39269,6.60084 v 0 L 131.217,215.273 c 0.0781,0.96875 0.33594,2.3359 1.0859,4.1836 l -4.2109,9.2656 c 0,0 -1.6016,3.1992 10.391,15.992 12.793,12.801 16.793,11.191 16.793,11.191 l 9.9375,-4.5078 c 1.4883,0.46484 2.5898,0.62109 3.3086,0.62109 l 5.84783,21.62172 v 0 l 6.61518,2.97067 19.06409,-12.70939 v -36.195 c 19.371,-15.664 43.145,-35.348 55.969,-47.754 7.9922,-7.9961 14.391,-17.59 19.18,-26.387 9.63362,-20.4085 12.03724,-40.82355 12.62059,-50.96839 0.23909,-4.157898 -6.97663,-6.365908 -6.97663,-6.365908 z M 232.021,167.964 c -8.8008,0 -15.992,-7.1953 -15.992,-15.988 0,-8.8047 7.1914,-15.992 15.992,-15.992 8.7969,0 15.992,7.1875 15.992,15.992 0,8.793 -7.2031,15.988 -15.992,15.988 z m -83.949,95.945 c 1.5976,0.80859 2.3984,1.5976 3.9961,2.3984 -1.5976,1.6016 -3.1992,4 -4.8047,5.5976 -14.01432,14.00899 -36.36544,15.95492 -46.22099,16.08691 -3.082811,0.0413 0,0 0,0 0,0 -5.093798,-2.15636 -5.02985,-5.53515 0.191089,-10.09653 2.299635,-31.95609 16.07884,-45.72376 1.5977,-1.6055 3.9961,-3.1914 5.5977,-4.8047 0.79687,1.5977 1.5898,2.3984 2.3984,3.9961 -11.992,15.184 -10.395,38.379 -10.395,38.379 0,0 23.18,1.5977 38.379,-10.395 z"
     fill="#4a4a4a"
     id="path154721"
     sodipodi:nodetypes="cscccccccccccccccccccccsccssssscccscscccccc" />
  <path
     transform="scale(.75)"
     d="m32.062 251c-0.036438 1.6631-0.0625 3.3282-0.0625 5 0 123.71 100.29 224 224 224 123.71 0 224-100.29 224-224 0-1.6718-0.02606-3.3369-0.0625-5-2.66 121.4-101.9 219-223.94 219-122.04 0-221.28-97.597-223.94-219z"
     opacity=".3"
     stroke-width="1.3333"
     id="path154723" />
  <path
     transform="scale(.75)"
     d="m256 32c-123.71 0-224 100.29-224 224 0 1.6718 0.026062 3.3369 0.0625 5 2.66-121.4 101.9-219 223.94-219 122.04 0 221.28 97.597 223.94 219 0.03644-1.6631 0.0625-3.3282 0.0625-5 0-123.71-100.29-224-224-224z"
     fill="#fff"
     opacity=".3"
     stroke-width="1.3333"
     id="path154725" />
</svg>
