<?xml version="1.0" encoding="UTF-8" standalone="no"?>
<svg
   width="32"
   height="32"
   version="1"
   id="svg290095"
   sodipodi:docname="sound-juicer.svg"
   inkscape:version="1.1.2 (0a00cf5339, 2022-02-04)"
   xmlns:inkscape="http://www.inkscape.org/namespaces/inkscape"
   xmlns:sodipodi="http://sodipodi.sourceforge.net/DTD/sodipodi-0.dtd"
   xmlns="http://www.w3.org/2000/svg"
   xmlns:svg="http://www.w3.org/2000/svg">
  <defs
     id="defs290099" />
  <sodipodi:namedview
     id="namedview290097"
     pagecolor="#ffffff"
     bordercolor="#666666"
     borderopacity="1.0"
     inkscape:pageshadow="2"
     inkscape:pageopacity="0.0"
     inkscape:pagecheckerboard="0"
     showgrid="false"
     inkscape:zoom="25.84375"
     inkscape:cx="15.980653"
     inkscape:cy="16"
     inkscape:window-width="1920"
     inkscape:window-height="1051"
     inkscape:window-x="0"
     inkscape:window-y="29"
     inkscape:window-maximized="1"
     inkscape:current-layer="svg290095" />
  <path
     fill="#858585"
     d="m16 8.5a7.5 7.5 0 0 0 -7.5 7.5 7.5 7.5 0 0 0 7.5 7.5 7.5 7.5 0 0 0 7.5 -7.5 7.5 7.5 0 0 0 -7.5 -7.5zm0 4.5c1.6569 0 3 1.3431 3 3s-1.3431 3-3 3-3-1.3431-3-3 1.3431-3 3-3z"
     id="path290083" />
  <path
     fill="#e4e4e4"
     d="m16 1c-8.31 0-15 6.69-15 15s6.69 15 15 15 15-6.69 15-15-6.69-15-15-15zm0 9a6 6 0 0 1 6 6 6 6 0 0 1 -6 6 6 6 0 0 1 -6 -6 6 6 0 0 1 6 -6z"
     id="path290085" />
  <path
     fill="#fff"
     opacity=".4"
     d="m16 1c8.3024 0 14.986 6.69 14.986 15 0 0.1259-0.006 0.24986-0.0087 0.375-0.198-8.1346-6.8-14.625-14.977-14.625-8.176 0-14.779 6.4904-14.978 14.625-0.0019-0.125-0.0077-0.249-0.0077-0.375 0-8.31 6.6839-15 14.986-15zm2.959 15.375c0.01566 0.12413 0.03806 0.24662 0.03806 0.375 0 1.6569-1.3419 3-2.9973 3-1.6553 0-2.9973-1.3431-2.9973-3 0-0.12838 0.0224-0.25087 0.03806-0.375 0.18614 1.4779 1.4321 2.625 2.9592 2.625s2.7731-1.1471 2.9592-2.625z"
     id="path290087" />
  <path
     opacity=".2"
     d="m1.0254 16.5c-0.0055 0.168-0.0254 0.331-0.0254 0.5 0 8.31 6.69 15 15 15s15-6.69 15-15c0-0.169-0.02-0.332-0.025-0.5-0.265 8.074-6.834 14.5-14.975 14.5-8.1411 0-14.71-6.426-14.975-14.5z"
     id="path290089" />
  <path
     fill="#ff9f26"
     d="m 26.248742,15.52736 c -0.130618,0.182852 -0.63088,-0.137318 -0.802244,0.09127 -2.172027,2.897295 -7.210659,9.231695 -4.814598,13.010374 2.0003,3.1538 8.7994,3.17 10.776,0 2.410036,-3.862802 -3.190912,-10.253217 -5.159158,-13.10164 -0.13309,-0.192607 0.09627,0.15834 0,0 z"
     id="path290091"
     sodipodi:nodetypes="csccscc" />
  <path
     opacity=".2"
     d="m20.035 26.806c-0.08635 1.0216 0.06543 1.9861 0.5957 2.8223 2.0003 3.1538 8.8003 3.17 10.777 0 0.49829-0.79885 0.64836-1.7066 0.56445-2.668-0.0639 0.59108-0.24291 1.1525-0.56445 1.668-1.9771 3.17-8.777 3.1538-10.777 0-0.35322-0.55698-0.53262-1.1734-0.5957-1.8223z"
     id="path290093" />
</svg>
