<?xml version="1.0" encoding="UTF-8" standalone="no"?>
<svg
   width="512"
   height="512"
   version="1.1"
   viewBox="0 0 384 384"
   id="svg398990"
   sodipodi:docname="stock_dialog-question.svg"
   inkscape:version="1.1.2 (0a00cf5339, 2022-02-04)"
   xmlns:inkscape="http://www.inkscape.org/namespaces/inkscape"
   xmlns:sodipodi="http://sodipodi.sourceforge.net/DTD/sodipodi-0.dtd"
   xmlns="http://www.w3.org/2000/svg"
   xmlns:svg="http://www.w3.org/2000/svg">
  <sodipodi:namedview
     id="namedview398992"
     pagecolor="#ffffff"
     bordercolor="#666666"
     borderopacity="1.0"
     inkscape:pageshadow="2"
     inkscape:pageopacity="0.0"
     inkscape:pagecheckerboard="0"
     showgrid="false"
     inkscape:zoom="1.6152344"
     inkscape:cx="255.69045"
     inkscape:cy="256"
     inkscape:window-width="1920"
     inkscape:window-height="1051"
     inkscape:window-x="0"
     inkscape:window-y="29"
     inkscape:window-maximized="1"
     inkscape:current-layer="svg398990" />
  <defs
     id="defs398978">
    <clipPath
       id="clipPath398968">
      <rect
         width="36"
         height="36"
         id="rect398966" />
    </clipPath>
    <clipPath
       id="clipPath398972">
      <rect
         width="36"
         height="36"
         id="rect398970" />
    </clipPath>
    <clipPath
       id="clipPath398976">
      <rect
         width="36"
         height="36"
         id="rect398974" />
    </clipPath>
  </defs>
  <path
     d="m191.56 23.246c-7.9986 0.13185-15.602 3.3401-21.271 8.9654l-138.04 138.09c-11.998 11.998-11.998 31.423 0 43.421l138.04 138.04c11.998 11.998 31.423 11.998 43.421 0l138.04-138.04c11.998-11.998 11.998-31.423 0-43.421l-138.04-138.09c-5.8891-5.8451-13.844-9.0973-22.15-8.9654z"
     fill="#0aa15c"
     fill-rule="evenodd"
     stroke-width="11.251"
     id="path398980" />
  <path
     d="m208.88 317.63h-33.752v-33.752h33.752zm34.939-130.79-15.206 15.514c-12.13 12.349-19.733 22.458-19.733 47.772h-33.752v-8.438c0-18.546 7.603-35.422 19.733-47.772l20.919-21.271c6.2846-6.0648 9.9762-14.503 9.9762-23.776 0-18.546-15.206-33.752-33.752-33.752s-33.752 15.206-33.752 33.752h-33.752c0-37.312 30.192-67.504 67.504-67.504 37.312 0 67.504 30.192 67.504 67.504 0 14.854-6.0648 28.347-15.689 37.971z"
     opacity=".3"
     stroke-width="11.251"
     id="path398982" />
  <path
     d="m 204.75173,310.13 v 0 h -23.62778 l -5.99595,-5.10423 v 0 -23.26757 0 l 5.88656,-5.3802 h 23.07851 l 4.78693,4.36697 v 0 24.69151 z M 243.819,179.34 228.613,194.854 c -11.1752,11.37696 -18.50802,20.85268 -19.59318,42.06841 -0.0927,1.81266 -4.7123,3.71102 -4.7123,5.70359 v 0 h -24.31877 l -4.86075,-4.90006 v 0 -3.53794 c 0,-18.546 7.603,-35.422 19.733,-47.772 l 20.919,-21.271 c 6.2846,-6.0648 9.9762,-14.503 9.9762,-23.776 0,-18.546 -15.206,-33.752 -33.752,-33.752 -16.80703,0 -30.87105,12.4881 -33.36071,28.63297 -0.2576,1.67046 -6.01047,3.38006 -6.01047,5.11903 v 0 h -22.99924 l -4.97554,-4.66148 c 0,-1.56695 -0.10479,1.54013 0,0 2.3904,-35.13316 31.60091,-62.84252 67.34596,-62.84252 37.312,0 67.504,30.192 67.504,67.504 0,14.854 -6.0648,28.347 -15.689,37.971 z"
     fill="#ffffff"
     stroke-width="11.251"
     id="path398984"
     sodipodi:nodetypes="cccccccccccccccscccccsccsssccccssscc" />
  <path
     transform="scale(.75)"
     d="m31.316 251.01c-1.4789 12.072 2.4075 24.673 11.682 33.947l184.05 184.05c15.997 15.997 41.897 15.997 57.895 0l184.05-184.05c9.2741-9.2741 13.161-21.876 11.682-33.947-1.0721 8.751-4.9586 17.224-11.682 23.947l-184.05 184.05c-15.997 15.997-41.897 15.997-57.895 0l-184.05-184.05c-6.723-6.723-10.61-15.196-11.682-23.947z"
     fill="#040404"
     fill-rule="evenodd"
     opacity=".3"
     stroke-width="15.001"
     id="path398986" />
  <path
     transform="scale(.75)"
     d="m255.41 30.996c-10.665 0.17579-20.802 4.4526-28.361 11.953l-184.05 184.11c-9.2741 9.2741-13.161 21.876-11.682 33.947 1.0721-8.751 4.9586-17.224 11.682-23.947l184.05-184.11c7.5591-7.5005 17.697-11.777 28.361-11.953 11.075-0.1758 21.681 4.1597 29.533 11.953l184.05 184.11c6.723 6.723 10.61 15.196 11.682 23.947 1.479-12.072-2.4075-24.673-11.682-33.947l-184.05-184.11c-7.8521-7.7935-18.458-12.129-29.533-11.953z"
     fill="#fff"
     fill-rule="evenodd"
     opacity=".3"
     stroke-width="15.001"
     id="path398988" />
</svg>
