<?xml version="1.0" encoding="UTF-8" standalone="no"?>
<svg
   width="32"
   height="32"
   version="1"
   id="svg370328"
   sodipodi:docname="synaptic.svg"
   inkscape:version="1.1.2 (0a00cf5339, 2022-02-04)"
   xmlns:inkscape="http://www.inkscape.org/namespaces/inkscape"
   xmlns:sodipodi="http://sodipodi.sourceforge.net/DTD/sodipodi-0.dtd"
   xmlns="http://www.w3.org/2000/svg"
   xmlns:svg="http://www.w3.org/2000/svg">
  <defs
     id="defs370332" />
  <sodipodi:namedview
     id="namedview370330"
     pagecolor="#ffffff"
     bordercolor="#666666"
     borderopacity="1.0"
     inkscape:pageshadow="2"
     inkscape:pageopacity="0.0"
     inkscape:pagecheckerboard="0"
     showgrid="false"
     inkscape:zoom="25.84375"
     inkscape:cx="15.980653"
     inkscape:cy="16"
     inkscape:window-width="1920"
     inkscape:window-height="1051"
     inkscape:window-x="0"
     inkscape:window-y="29"
     inkscape:window-maximized="1"
     inkscape:current-layer="svg370328" />
  <circle
     style="opacity:0.2"
     cx="16.5"
     cy="16.5"
     r="14.5"
     id="circle370314" />
  <circle
     style="fill:#dc587f"
     cx="16.5"
     cy="15.5"
     r="14.5"
     id="circle370316" />
  <path
     style="opacity:0.2"
     d="M 16.5,4.9999992 A 10.5,10.5 0 0 0 6,15.5 10.5,10.5 0 0 0 6.1215817,17 H 6.8247068 9.1596684 23.847657 A 7.5000003,7.5000003 0 0 1 16.5,23 7.5000003,7.5000003 0 0 1 10.508789,20 H 7.0268558 A 10.5,10.5 0 0 0 16.5,26 10.5,10.5 0 0 0 27.000001,15.5 10.5,10.5 0 0 0 26.878419,14 H 25.574708 23.840332 9.1523439 A 7.5000003,7.5000003 0 0 1 16.5,7.9999993 7.5000003,7.5000003 0 0 1 22.491212,10.999999 h 3.481933 A 10.5,10.5 0 0 0 16.5,4.9999992 Z"
     id="path370318" />
  <path
     style="opacity:0.2"
     d="m 15,11 v 6 h -3 l 4.5,5 4.5,-5 h -3 v -6 z"
     id="path370320" />
  <rect
     style="fill:#ffffff"
     width="3"
     height="7"
     x="15"
     y="10"
     id="rect370322" />
  <path
     style="fill:#ffffff"
     transform="matrix(0.62403773,-0.23112508,0.36028835,0.40032039,5.762021,2.9620779)"
     d="m -5.5038484,29.39107 v 0 l 8.8624177,5.11672 v 0 l -0.5420244,1.297358 -9.4220962,5.43985 1e-7,-10.798098 z"
     id="path370324"
     sodipodi:nodetypes="cccccccc" />
  <path
     style="opacity:0.2;fill:#ffffff"
     d="M 16.5 1 A 14.5 14.5 0 0 0 2 15.5 A 14.5 14.5 0 0 0 2.0214844 16.080078 A 14.5 14.5 0 0 1 16.5 2 A 14.5 14.5 0 0 1 30.978516 15.919922 A 14.5 14.5 0 0 0 31 15.5 A 14.5 14.5 0 0 0 16.5 1 z"
     id="path370326" />
</svg>
