<?xml version="1.0" encoding="UTF-8" standalone="no"?>
<svg
   width="32"
   height="32"
   version="1"
   id="svg103122"
   sodipodi:docname="timeshift.svg"
   inkscape:version="1.1.2 (0a00cf5339, 2022-02-04)"
   xmlns:inkscape="http://www.inkscape.org/namespaces/inkscape"
   xmlns:sodipodi="http://sodipodi.sourceforge.net/DTD/sodipodi-0.dtd"
   xmlns="http://www.w3.org/2000/svg"
   xmlns:svg="http://www.w3.org/2000/svg">
  <defs
     id="defs103126" />
  <sodipodi:namedview
     id="namedview103124"
     pagecolor="#ffffff"
     bordercolor="#666666"
     borderopacity="1.0"
     inkscape:pageshadow="2"
     inkscape:pageopacity="0.0"
     inkscape:pagecheckerboard="0"
     showgrid="false"
     inkscape:zoom="25.84375"
     inkscape:cx="15.980653"
     inkscape:cy="16"
     inkscape:window-width="1920"
     inkscape:window-height="1051"
     inkscape:window-x="0"
     inkscape:window-y="29"
     inkscape:window-maximized="1"
     inkscape:current-layer="svg103122" />
  <circle
     style="opacity:0.2"
     cx="16"
     cy="17"
     r="14"
     id="circle103112" />
  <circle
     style="fill:#d44e41"
     cx="16"
     cy="16"
     r="14"
     id="circle103114" />
  <path
     style="opacity:0.2"
     d="m 16.703434,23.55791 c -1.959636,-0.659737 -2.986593,-0.554632 -3.792038,-0.530759 -0.855739,0.06898 -1.683874,0.315108 -2.522996,0.572411 -0.459837,0.125093 -0.460445,0.118593 -0.0308,-0.329668 1.322257,-1.079649 2.857762,-1.962936 4.390863,-2.251895 1.113051,0 1.849516,-0.831734 1.611529,-1.522344 C 15.46621,18.137745 13,16.365152 13,15.882086 c 0,-0.404334 0.756676,-1.430965 1.745793,-2.405679 0.437673,-0.431298 1.026539,-0.776249 0.890021,-0.893569 -0.284471,-0.244458 -3.012586,-0.582839 -4.287432,-0.582839 -1.018231,0 -1.915764,0.509547 -1.915764,1.137034 0,0.174082 0.1248491,0.65754 0.5221941,1.074351 l 0.7224449,0.757838 c -0.477859,0.508523 -0.6819978,1.059743 -1.5038881,1.059743 -1.178787,0 -1.178787,-0.890532 -1.1725522,-1.756743 0.166447,-2.121147 3.6362403,-4.5474343 6.9181053,-4.242999 2.07581,0.192907 3.89537,0.470965 5.882581,0.609787 1.10559,0.0509 1.798691,-0.207924 2.835611,-0.5744 0.751417,-0.265574 0.272216,0.588854 -0.852686,1.520363 -1.353011,1.120402 -2.153536,1.601414 -4.320678,1.415026 -1.620939,-0.139411 -2.064429,-0.04273 -2.435778,0.88029 -0.294691,0.732487 0.426723,1.430601 1.957444,2.921295 0.754821,0.73508 1.019818,1.209873 1.014584,1.674468 -0.0047,0.415767 -0.205723,0.823365 -0.791588,1.402029 -0.516551,0.510203 -1.212015,1.017722 -1.138136,1.127818 0.231793,0.34543 1.766479,0.9941 2.60293,0.9941 0.440881,0 1.672708,-0.124593 2.167589,-0.357124 0.837094,-0.393327 1.19241,-0.38978 1.19241,0.01191 0,0.31809 -3.034564,2.348888 -4.541453,2.34521 -0.274117,-6.99e-4 -1.078823,-0.20322 -1.788318,-0.442085 z"
     id="path103116" />
  <path
     style="fill:#3f3f3f"
     d="m 16.703434,22.557911 c -1.959636,-0.659737 -2.986593,-0.554632 -3.792038,-0.530759 -0.72666,0.05857 -1.433416,0.244887 -2.143897,0.45731 -0.126205,0.03773 -0.252527,0.07629 -0.379099,0.115101 -0.0308,-0.329668 -0.116643,-0.15386 0.313002,-0.602121 0.113086,-0.09234 -0.11607,0.08922 0,0 1.241085,-0.953935 2.645078,-1.715196 4.047061,-1.979442 1.113051,0 1.849516,-0.831734 1.611529,-1.522344 C 15.46621,17.137746 13,15.365153 13,14.882087 c 0,-0.404334 0.756676,-1.430965 1.745793,-2.405679 0.437673,-0.431298 1.026539,-0.776249 0.890021,-0.893569 C 15.351343,11.338381 12.623228,11 11.348382,11 c -1.018231,0 -1.915764,0.509547 -1.915764,1.137034 0,0.174082 0.1248491,0.65754 0.5221941,1.074351 l 0.5099609,0.534945 v 0 c -0.08516,0.09062 0.05086,0.405492 -0.02195,0.495464 -0.335795,0.414908 -0.5940241,0.787172 -1.2694491,0.787172 -1.178787,0 -1.178787,-0.890532 -1.1725522,-1.756743 0.166447,-2.121147 3.6362403,-4.5474343 6.9181053,-4.2429988 2.07581,0.1929067 3.89537,0.4709649 5.882581,0.6097869 1.10559,0.0509 1.798691,-0.207924 2.835611,-0.5744006 C 24.388531,8.799037 23.90933,9.6534651 22.784428,10.584974 21.431417,11.705376 20.630892,12.186388 18.46375,12 c -1.620939,-0.139411 -2.064429,-0.04273 -2.435778,0.88029 -0.294691,0.732487 0.426723,1.430601 1.957444,2.921295 0.754821,0.73508 1.019818,1.209873 1.014584,1.674468 -0.0047,0.415767 -0.205723,0.823365 -0.791588,1.402029 -0.516551,0.510203 -1.212015,1.017722 -1.138136,1.127818 0.231793,0.34543 1.766479,0.9941 2.60293,0.9941 0.440881,0 1.672708,-0.124593 2.167589,-0.357124 0.837094,-0.393327 1.19241,-0.38978 1.19241,0.01191 0,0.31809 -3.034564,2.348888 -4.541453,2.34521 -0.274117,-6.99e-4 -1.078823,-0.20322 -1.788318,-0.442085 z"
     id="path103118"
     sodipodi:nodetypes="ccsccsccsscsssccsscccssssscssssscc" />
  <path
     style="opacity:0.2;fill:#ffffff"
     d="M 16 2 A 14 14 0 0 0 2 16 A 14 14 0 0 0 2.0214844 16.585938 A 14 14 0 0 1 16 3 A 14 14 0 0 1 29.978516 16.414062 A 14 14 0 0 0 30 16 A 14 14 0 0 0 16 2 z"
     id="path103120" />
</svg>
