<?xml version="1.0" encoding="UTF-8" standalone="no"?>
<svg
   width="32"
   height="32"
   version="1.1"
   id="svg14973"
   sodipodi:docname="ue4editor.svg"
   inkscape:version="1.1.2 (0a00cf5339, 2022-02-04)"
   xmlns:inkscape="http://www.inkscape.org/namespaces/inkscape"
   xmlns:sodipodi="http://sodipodi.sourceforge.net/DTD/sodipodi-0.dtd"
   xmlns="http://www.w3.org/2000/svg"
   xmlns:svg="http://www.w3.org/2000/svg">
  <defs
     id="defs14977" />
  <sodipodi:namedview
     id="namedview14975"
     pagecolor="#ffffff"
     bordercolor="#666666"
     borderopacity="1.0"
     inkscape:pageshadow="2"
     inkscape:pageopacity="0.0"
     inkscape:pagecheckerboard="0"
     showgrid="false"
     inkscape:zoom="25.84375"
     inkscape:cx="15.980653"
     inkscape:cy="16"
     inkscape:window-width="1920"
     inkscape:window-height="1051"
     inkscape:window-x="0"
     inkscape:window-y="29"
     inkscape:window-maximized="1"
     inkscape:current-layer="svg14973" />
  <path
     style="opacity:.2"
     d="m16 3a14 14 0 0 0 -14 14 14 14 0 0 0 14 14 14 14 0 0 0 14 -14 14 14 0 0 0 -14 -14z"
     id="path14963" />
  <path
     style="fill:#243a85"
     d="m16 2a14 14 0 0 0 -14 14 14 14 0 0 0 14 14 14 14 0 0 0 14 -14 14 14 0 0 0 -14 -14z"
     id="path14965" />
  <path
     style="opacity:.2"
     d="m15.944568 26.07706c-2.320106-0.302349-4.539745-0.985317-5.875154-2.13696-0.3785021-0.326416-1.1354093-1.118318-1.069414-1.1402 0.216209 0.04178 0.6686225 0.24194 1.109983 0.253848 0.44136 0.01191 0.673477-0.453748 0.890017-0.809361v-3.731565c0-4.115278 0.0942-4.045275-0.196803-4.299379-0.35345-0.308636-1.397568-0.212441-2.1016392 0.259113-1.0739547 0.719287-2.353837 2.314783-3.2626185 3.973136-0.1613877 0.294502-0.3070896 0.54828-0.3237826 0.563951-0.016694 0.01567-0.019851-0.30416-0.00699-0.710739 0.035393-1.121153 0.2436795-1.905119 0.8136667-3.062547 0.519825-1.055569 0.7820731-1.337722 1.8915563-2.546355 1.840684-2.005182 3.6577353-3.3906754 5.4553103-4.1596583 0.42475-0.1817046 1.740954-0.5308414 1.831609-0.5308414 0.01459 0-0.620043 0.3704772-0.768618 0.4789954-0.8906 0.6504834-1.198407 1.103029-1.327691 1.8952963-0.09564 0.586078 0.23649 1.298591 0.494692 1.587957 0.13377 0.149915 0.183097 0.175769 0.369292 0.193562 0.255345-0.026744 0.869193-0.133228 1.132016-0.155312v9.299923c0 0.7 0.298598 0.744154 0.9944 0.744154 0.70698 0 1.30672-0.532456 2.0056-0.985688v-7.833464l-0.248438-0.896948c-0.102412-0.369744-0.379013-0.813294-0.751562-1.327977 0.715791 0.01329 1.173682 0.870345 1.8 1.1 1.824929-1.444923 3.116391-2.6181193 5.2-3.1-0.907761 1.437529-1.029625 2.051303-2.000029 3.45v8.369767c0.0989 0.118515 0.619433 0.268587 0.862058 0.290466 1.647457-0.233663 2.044126-1.160841 3.137971-2.110233 0.03223 0.03205-0.849337 1.694618-1.221397 2.252271-1.133743 1.699276-2.766049 2.760462-4.275206 3.720018-0.283021 0.179951-0.286198 0.180804-0.384699 0.103422-0.712591-0.324644-1.118698-0.50075-1.948698-1.129711-0.809772 0.771209-1.203782 1.334804-2.049284 2.153982-0.02678-0.0035-0.106016-0.0138-0.176099-0.02293z"
     id="path14967" />
  <path
     style="fill:#ffffff"
     d="M 15.944568,25.07706 C 13.624462,24.774711 11.404824,24.091742 10.069414,22.9401 9.9140292,22.806098 9.6948712,22.593647 9.4950543,22.388227 c -0.2869172,-0.294963 0.4950543,0.588327 0,0 0.216209,0.04178 0.1735682,-0.346387 0.6149287,-0.334479 C 10.551343,22.065658 10.78346,21.6 11,21.244387 v -3.731565 c 0,-4.115278 0.0942,-4.045275 -0.196803,-4.299379 -0.35345,-0.308636 -1.397568,-0.212441 -2.1016392,0.259113 -1.0739547,0.719287 -2.353837,2.314783 -3.2626185,3.973136 -0.1613877,0.294502 -0.1287152,-0.0021 -0.1454082,0.01362 -0.016694,0.01567 -0.1982254,0.246175 -0.1853644,-0.160404 0.035393,-1.121153 0.2436795,-1.905119 0.8136667,-3.062547 0.519825,-1.055569 0.7820731,-1.337722 1.8915563,-2.546355 1.840684,-2.0051815 3.6577373,-3.3906711 5.4553103,-4.1596583 0.15939,-0.068186 0.444312,-0.1599488 0.742898,-0.2479924 0.497101,-0.1465792 -0.815286,0.3117157 0.03761,0.00712 0,0 0.43106,0.080513 0.28248,0.1890308 -0.09856,0.071985 -0.189976,0.1415451 -0.274807,0.2094103 -0.681733,0.5453937 -0.937907,0.9812936 -1.052884,1.6858864 -0.09564,0.5860782 0.23649,1.298591 0.494692,1.587957 0.13377,0.149915 0.183097,0.175769 0.369292,0.193562 0.130669,-0.01368 0.355215,-0.04825 0.578562,-0.0817 0.213111,-0.03192 0.425129,0.410098 0.553459,0.399315 v 0 8.826999 c 0,0.7 0.298598,0.744154 0.9944,0.744154 0.70698,0 1.30672,-0.532456 2.0056,-0.985688 v -7.833468 l -0.248438,-0.896948 c -0.0521,-0.188089 -0.14927,-0.395278 -0.28122,-0.621214 -0.127436,-0.218207 0.442035,-0.152684 0.259002,-0.405547 0.272687,0.0051 -0.2214,-0.168635 0,0 0.359766,0.274025 0.682939,0.656618 1.070656,0.798784 1.621465,-1.2838263 2.821785,-2.3531385 4.530788,-2.9136245 0.214449,-0.070331 0.05891,0.4936162 0.291215,0.4398905 -0.143482,0.2272181 0.110667,-0.1924101 0,0 -0.589487,1.0249013 -0.805012,1.646117 -1.622032,2.823734 v 8.369767 c 0.0989,0.118515 0.619433,0.268587 0.862058,0.290466 1.205083,-0.17092 1.740914,-0.712915 2.369905,-1.363244 0.230897,-0.23873 -0.0025,0.470031 0.291196,0.215101 -0.768066,0.746989 0.271001,-0.503182 0,0 -0.259099,0.481083 -0.562674,1.017615 -0.744527,1.290181 -1.13374,1.699278 -2.766049,2.760462 -4.275206,3.720018 -0.283021,0.179951 -0.286198,0.180804 -0.384699,0.103422 C 19.406107,23.751068 19,23.574962 18.17,22.946001 c -0.809772,0.771209 -1.203782,1.334804 -2.049284,2.153982 -0.02678,-0.0035 -0.106016,-0.0138 -0.176099,-0.02293 z"
     id="path14969"
     sodipodi:nodetypes="csscscssssscssssscssscsccssccsscscscscccscsssccccc" />
  <path
     style="opacity:.1;fill:#ffffff"
     d="m16 2a14 14 0 0 0 -14 14 14 14 0 0 0 0.0214844 0.414062 14 14 0 0 1 13.978516 -13.414062 14 14 0 0 1 13.978516 13.585938 14 14 0 0 0 0.021484 -0.585938 14 14 0 0 0 -14 -14z"
     id="path14971" />
</svg>
