<?xml version="1.0" encoding="UTF-8" standalone="no"?>
<svg
   viewBox="0 0 5.1625 5.1625"
   height="19.512"
   width="19.512"
   version="1.1"
   id="svg8"
   sodipodi:docname="blender-symbolic.svg"
   inkscape:version="1.1.2 (0a00cf5339, 2022-02-04)"
   xmlns:inkscape="http://www.inkscape.org/namespaces/inkscape"
   xmlns:sodipodi="http://sodipodi.sourceforge.net/DTD/sodipodi-0.dtd"
   xmlns="http://www.w3.org/2000/svg"
   xmlns:svg="http://www.w3.org/2000/svg">
  <defs
     id="defs12" />
  <sodipodi:namedview
     id="namedview10"
     pagecolor="#ffffff"
     bordercolor="#666666"
     borderopacity="1.0"
     inkscape:pageshadow="2"
     inkscape:pageopacity="0.0"
     inkscape:pagecheckerboard="0"
     showgrid="false"
     inkscape:zoom="38.745389"
     inkscape:cx="9.7559996"
     inkscape:cy="9.7559996"
     inkscape:window-width="1854"
     inkscape:window-height="966"
     inkscape:window-x="0"
     inkscape:window-y="29"
     inkscape:window-maximized="1"
     inkscape:current-layer="g6" />
  <g
     fill="#5c616c"
     id="g6">
    <path
       d="M2.6911 2.842c.009-.172.094-.3237.221-.4312.125-.1056.2927-.1702.476-.1702.1831 0 .351.0645.4758.1702.127.1075.2114.2593.221.4312.01.177-.0613.3415-.186.4631-.127.124-.3083.2019-.5109.2019s-.3839-.078-.511-.2019c-.1247-.1217-.1957-.2861-.1858-.463"
       id="path2" />
    <path
       d="M 1.5811,3.1903 C 1.5821,3.2575 1.6038,3.3884 1.636,3.4908 1.7037,3.7072 1.8187,3.9074 1.9787,4.084 2.1460597,4.2678717 2.3502543,4.4144503 2.578,4.5142 2.8259628,4.6235462 3.0942013,4.6793611 3.3652,4.678 3.6362995,4.6783347 3.9044378,4.6216406 4.1522,4.5116 4.3854,4.4072 4.5872,4.2611 4.7512,4.0794 4.9109,3.9024 5.0257,3.7016 5.0935,3.4851 5.1272594,3.3773173 5.1488275,3.2660891 5.1578,3.1535 5.1665687,3.0436151 5.1630132,2.9330941 5.1472,2.824 5.1170502,2.6116419 5.0426448,2.407981 4.9288,2.2262 4.8231611,2.0571953 4.6882127,1.9083966 4.5303,1.7868 l 3e-4,-2e-4 L 2.918,0.5483 2.914,0.5453 C 2.8081,0.4641 2.6301,0.4643 2.5138,0.5458 2.3961,0.6282 2.3828,0.7642 2.4874,0.8502 l -3e-4,3e-4 0.609437,0.4958868 -0.029005,0.051403 v 0 L 1.1094,1.3997 h -0.003 c -0.1693,0 -0.332,0.1115 -0.3645,0.2518 -0.033,0.1432 0.0823,0.262 0.2582,0.2627 v 5e-4 l 0.9611203,-0.00185 0.012997,0.049648 v 0 L 0.1848,3.3359 0.1778,3.3409 C 0.003,3.4749 -0.0537,3.6976 0.0564,3.8386 0.1684,3.982 0.406,3.9822 0.5829,3.8393 L 1.5948,3.0112 c 0,0 -0.0146,0.1119 -0.0136,0.179 z M 4.1815,3.5645 C 3.973,3.7772 3.6813,3.8975 3.3651,3.8981 3.0491,3.8989 2.7571,3.7794 2.5485,3.5671 2.4499254,3.4682025 2.3738599,3.3491923 2.3255,3.2182 2.2801391,3.0936068 2.2626286,2.9605878 2.2742,2.8285 2.2853631,2.6996305 2.3235234,2.5745531 2.3862,2.4614 2.4492436,2.3481139 2.5334312,2.2479714 2.6342,2.1664 2.8368,2.0011 3.0947,1.9118 3.3649,1.9114 c 0.2701,-3e-4 0.528,0.0883 0.7306,0.2529 0.1007895,0.081182 0.1850201,0.1809958 0.2481,0.294 0.062589,0.1131182 0.1007447,0.2381116 0.112,0.3669 0.011549,0.1320873 -0.00596,0.2651014 -0.0513,0.3897 -0.048358,0.1311517 -0.124341,0.2503774 -0.2228,0.3496"
       id="path4"
       sodipodi:nodetypes="ccccccccccccccccccccccscccccccccccccccccccccccccc" />
  </g>
</svg>
