<?xml version="1.0" encoding="UTF-8" standalone="no"?>
<svg
   width="16"
   height="16"
   version="1.1"
   id="svg4"
   sodipodi:docname="org.gnome.Cheese-symbolic.svg"
   inkscape:version="1.1.2 (0a00cf5339, 2022-02-04)"
   xmlns:inkscape="http://www.inkscape.org/namespaces/inkscape"
   xmlns:sodipodi="http://sodipodi.sourceforge.net/DTD/sodipodi-0.dtd"
   xmlns="http://www.w3.org/2000/svg"
   xmlns:svg="http://www.w3.org/2000/svg">
  <defs
     id="defs8" />
  <sodipodi:namedview
     id="namedview6"
     pagecolor="#ffffff"
     bordercolor="#666666"
     borderopacity="1.0"
     inkscape:pageshadow="2"
     inkscape:pageopacity="0.0"
     inkscape:pagecheckerboard="0"
     showgrid="false"
     inkscape:zoom="51.6875"
     inkscape:cx="8"
     inkscape:cy="12.643289"
     inkscape:window-width="759"
     inkscape:window-height="849"
     inkscape:window-x="765"
     inkscape:window-y="31"
     inkscape:window-maximized="1"
     inkscape:current-layer="svg4" />
  <path
     style="fill:#5c616c"
     d="M 3,0 C 1,0 1,2 1,2 v 12 c 0,2 2,2 2,2 H 8 V 14 H 3 V 2 h 10 v 4 h 2 V 2 C 15,0 13,0 13,0 Z M 5,5 C 4.446,5 4,5.45 4,6 4,6.55 4.446,7 5,7 5.554,7 6,6.55 6,6 6,5.45 5.554,5 5,5 Z m 6,0 c -0.553,0 -1,0.45 -1,1 h 2 C 12,5.45 11.553,5 11,5 Z m 1.5,2 C 10.567,7 9,8.57 9,10.5 9,12.43 10.567,14 12.5,14 14.433,14 16,12.43 16,10.5 16,8.57 14.433,7 12.5,7 Z m 0,2 C 13.33,9 14,9.67 14,10.5 14,11.33 13.33,12 12.5,12 11.67,12 11,11.33 11,10.5 11,9.67 11.67,9 12.5,9 Z M 5.0421487,9.9621051 v 0 L 4.4668,10.539 C 5.4038,11.479 6.674,12 8,12 V 11.269443 L 7.754652,10.992488 c -0.082074,0 0.081456,0.005 0,0 C 6.8504639,10.937052 5.9907843,10.576515 5.318719,9.9680805 5.2693828,9.9234154 5.0894062,10.009419 5.0421487,9.9621051 Z m 5.1375503,4.1747129 c -0.02706,0.106695 -0.2291318,0.07311 -0.2474162,0.17268 C 9.7397804,15.357791 10,16 10,16 h 5 c 0,0 0.335,-1 0,-2 -0.18,0.16 -1.566,1 -2.5,1 -0.813375,0 -1.832271,-0.523283 -2.320301,-0.863182 -0.07238,-0.05041 -0.06772,0.309498 0,0 z"
     id="path2"
     sodipodi:nodetypes="scsccccccccscsssssssccsssssssssssccccccssccscccssc" />
</svg>
