<?xml version="1.0" encoding="UTF-8" standalone="no"?>
<svg
   width="16"
   height="16"
   version="1"
   id="svg4"
   sodipodi:docname="com.github.bilelmoussaoui.Authenticator-symbolic.svg"
   inkscape:version="1.1.2 (0a00cf5339, 2022-02-04)"
   xmlns:inkscape="http://www.inkscape.org/namespaces/inkscape"
   xmlns:sodipodi="http://sodipodi.sourceforge.net/DTD/sodipodi-0.dtd"
   xmlns="http://www.w3.org/2000/svg"
   xmlns:svg="http://www.w3.org/2000/svg">
  <defs
     id="defs8" />
  <sodipodi:namedview
     id="namedview6"
     pagecolor="#ffffff"
     bordercolor="#666666"
     borderopacity="1.0"
     inkscape:pageshadow="2"
     inkscape:pageopacity="0.0"
     inkscape:pagecheckerboard="0"
     showgrid="false"
     inkscape:zoom="51.6875"
     inkscape:cx="8"
     inkscape:cy="7.980653"
     inkscape:window-width="759"
     inkscape:window-height="849"
     inkscape:window-x="765"
     inkscape:window-y="31"
     inkscape:window-maximized="1"
     inkscape:current-layer="svg4" />
  <path
     style="fill:#5c616c"
     d="M 8,0 C 4.8995789,0 4.1791235,2.4508372 4.0371094,5.4960938 2.7893308,6.5940337 2,8.1996741 2,10 c 0,3.324 2.676,6 6,6 3.324,0 6,-2.676 6,-6 C 14,8.1996741 13.210669,6.5940337 11.962891,5.4960938 11.820772,2.4507208 11.100324,0 8,0 Z m 0,2 c 0.9998477,0 1.5677804,0.5862137 1.8267722,2.0565163 0.013676,0.07764 -0.011971,-0.082614 0,0 C 9.7387565,4.0279053 9.6883417,4.2415602 9.5986417,4.2168345 9.0898981,4.0766004 8.5546825,4 8,4 7.4450769,4 6.9096375,4.0766668 6.4006961,4.2170171 c -0.089475,0.024675 0.087799,-0.028541 0,0 C 6.4144265,4.1222581 6.1633359,4.110658 6.1793127,4.0224349 6.4410508,2.5771317 7.0079083,2 8,2 Z m 0,4 c 2.216,0 4,1.784 4,4 0,2.216 -1.784,4 -4,4 C 5.784,14 4,12.216 4,10 4,7.784 5.784,6 8,6 Z m 2.120536,1.6434151 v 0 L 9.4140625,7.8789062 8.9205543,8.042093 v 0 c 0,0 -0.4094532,0.023533 -0.4959327,0.00469 -0.6585982,-0.1435086 -1.3532388,0.054342 -1.8386841,0.5391555 -0.7808469,0.781014 -0.7808469,2.0471105 0,2.8281245 0.781014,0.780847 2.047111,0.780847 2.828125,0 0.4988106,-0.499461 0.6938485,-1.22037 0.5258708,-1.8956309 -0.016724,-0.067231 0.02398,0.066062 0,0 l 0.025533,-0.461847 0.1556273,-0.4706466 0.228933,-0.6867992 z"
     id="path2"
     sodipodi:nodetypes="scssscssscssscssssssscccccscccsccccc" />
</svg>
