<?xml version="1.0" encoding="UTF-8" standalone="no"?>
<svg
   width="16"
   height="16"
   version="1.1"
   id="svg687679"
   sodipodi:docname="deja-dup-symbolic.svg"
   inkscape:version="1.1.2 (0a00cf5339, 2022-02-04)"
   xmlns:inkscape="http://www.inkscape.org/namespaces/inkscape"
   xmlns:sodipodi="http://sodipodi.sourceforge.net/DTD/sodipodi-0.dtd"
   xmlns="http://www.w3.org/2000/svg"
   xmlns:svg="http://www.w3.org/2000/svg">
  <defs
     id="defs687683" />
  <sodipodi:namedview
     id="namedview687681"
     pagecolor="#ffffff"
     bordercolor="#666666"
     borderopacity="1.0"
     inkscape:pageshadow="2"
     inkscape:pageopacity="0.0"
     inkscape:pagecheckerboard="0"
     showgrid="false"
     inkscape:zoom="51.6875"
     inkscape:cx="7.9903265"
     inkscape:cy="8"
     inkscape:window-width="1920"
     inkscape:window-height="1051"
     inkscape:window-x="0"
     inkscape:window-y="29"
     inkscape:window-maximized="1"
     inkscape:current-layer="svg687679" />
  <path
     style="fill:#5c616c"
     d="M 3,1 C 3,1 1,1 1,3 v 10 c 0,0 0,2 2,2 h 10 c 0,0 2,0 2,-2 V 3 C 15,1 13,1 13,1 Z m 5,3 c 2.209139,0 4,1.790861 4,4 -6.01e-4,1.514418 -0.85641,2.898639 -2.2109,3.576 L 8.9798474,9.9595754 9.0776963,9.6851284 c 0.063292,-0.031649 -0.058791,0.037587 0,0 C 9.648335,9.3202998 10.000097,8.6868526 10,8 10,6.8954305 9.1045695,6 8,6 6.8954305,6 6,6.8954305 6,8 c 5.841e-4,0.6798934 0.3458876,1.3071675 0.9068069,1.6731197 0.063528,0.041446 -0.068872,-0.034439 0,0 L 7.0318173,9.9344407 6.2129,11.572 C 4.8589199,10.895842 4.0024927,9.5134217 4,8 4,5.790861 5.790861,4 8,4 Z"
     id="path687677"
     sodipodi:nodetypes="cscscssccsccccscscsccccs" />
</svg>
