<?xml version="1.0" encoding="UTF-8" standalone="no"?>
<svg
   width="16"
   height="16"
   version="1.1"
   id="svg660328"
   sodipodi:docname="org.gnome.eog-symbolic.svg"
   inkscape:version="1.1.2 (0a00cf5339, 2022-02-04)"
   xmlns:inkscape="http://www.inkscape.org/namespaces/inkscape"
   xmlns:sodipodi="http://sodipodi.sourceforge.net/DTD/sodipodi-0.dtd"
   xmlns="http://www.w3.org/2000/svg"
   xmlns:svg="http://www.w3.org/2000/svg">
  <defs
     id="defs660332" />
  <sodipodi:namedview
     id="namedview660330"
     pagecolor="#ffffff"
     bordercolor="#666666"
     borderopacity="1.0"
     inkscape:pageshadow="2"
     inkscape:pageopacity="0.0"
     inkscape:pagecheckerboard="0"
     showgrid="false"
     inkscape:zoom="51.6875"
     inkscape:cx="7.9903265"
     inkscape:cy="8"
     inkscape:window-width="1920"
     inkscape:window-height="1051"
     inkscape:window-x="0"
     inkscape:window-y="29"
     inkscape:window-maximized="1"
     inkscape:current-layer="svg660328" />
  <path
     style="fill:#5c616c"
     d="m 1.1991845,0.99999975 c -0.6648,0 -1.199219,0.51968225 -1.199219,1.16601565 V 13.833984 c 0,0.05989 0.0048,0.118383 0.01367,0.175782 0.0013,0.0084 0.0024,0.01702 0.0039,0.02539 0.01036,0.05848 0.02602,0.114824 0.04492,0.169921 0.01828,0.05329 0.04077,0.104792 0.06641,0.154297 0.0034,0.0065 0.0063,0.01312 0.0098,0.01953 0.02724,0.05024 0.05953,0.09706 0.09375,0.142578 0.002,0.0026 0.0039,0.0052 0.0059,0.0078 0.03566,0.04662 0.07293,0.09197 0.115235,0.132812 0.04398,0.04246 0.09223,0.07981 0.142578,0.115235 0.04992,0.03513 0.10284,0.06633 0.158203,0.09375 0.11038,0.05467 0.230277,0.09399 0.357422,0.113281 0.06126,0.0093 0.123459,0.01564 0.1875,0.01564 h 12.4003905 1.201172 c 0.6648,0 1.199219,-0.519682 1.199219,-1.166016 V 2.1660154 c 0,-0.6463334 -0.534419,-1.16601565 -1.199219,-1.16601565 z m 3.300781,2.00000005 c 1.380708,0 2.5,1.1192916 2.5,2.5 0,1.380708 -1.119292,2.5 -2.5,2.5 -1.380708,0 -2.5,-1.119292 -2.5,-2.5 0,-1.3807084 1.119292,-2.5 2.5,-2.5 z m 4.5527186,4.4231229 v 0 L 12.829051,13.765438 12.753944,14 v 0 H 1.1991845 c -0.143006,0 -0.199219,-0.07172 -0.199219,-0.166016 v -0.788424 0 L 1.1234599,12.681129 2.722674,10.347614 v 0 l 0.49819,0.03928 1.6889416,2.513596 0.4260044,-0.03661 v 0 L 8.564111,7.4004701 Z"
     id="path660326"
     sodipodi:nodetypes="sssscsccccscscscsssssssssscccccssccccccccccc" />
</svg>
