<?xml version="1.0" encoding="UTF-8" standalone="no"?>
<svg
   width="16"
   height="16"
   version="1.1"
   viewBox="0 0 16 16"
   id="svg1075366"
   sodipodi:docname="fusion-icon-symbolic.svg"
   inkscape:version="1.1.2 (0a00cf5339, 2022-02-04)"
   xmlns:inkscape="http://www.inkscape.org/namespaces/inkscape"
   xmlns:sodipodi="http://sodipodi.sourceforge.net/DTD/sodipodi-0.dtd"
   xmlns="http://www.w3.org/2000/svg"
   xmlns:svg="http://www.w3.org/2000/svg">
  <defs
     id="defs1075370" />
  <sodipodi:namedview
     id="namedview1075368"
     pagecolor="#ffffff"
     bordercolor="#666666"
     borderopacity="1.0"
     inkscape:pageshadow="2"
     inkscape:pageopacity="0.0"
     inkscape:pagecheckerboard="0"
     showgrid="false"
     inkscape:zoom="51.6875"
     inkscape:cx="7.9903265"
     inkscape:cy="8.0096735"
     inkscape:window-width="1854"
     inkscape:window-height="966"
     inkscape:window-x="0"
     inkscape:window-y="29"
     inkscape:window-maximized="1"
     inkscape:current-layer="svg1075366" />
  <path
     style="fill:#5c616c"
     d="M 1,0 C 0,0 0,1 0,1 v 14 c 0,1 1,1 1,1 h 14 c 1,0 1,-1 1,-1 V 1 C 16,0 15,0 15,0 Z M 2,2 H 14 V 14 H 11 L 7.0890951,8.1336426 7.1623869,8 V 8 H 10.313183 V 8 L 10.3023,7.5639372 3.4212994,3.2633121 3,3.5173626 v 0 7.8030984 0 l 0.3864919,0.13845 2.0043745,-2.8061239 0.1803006,0.00378 v 0 L 8,14 H 2 Z"
     id="path1075364"
     sodipodi:nodetypes="scscscscscccccccccccccccccccccc" />
</svg>
