<?xml version="1.0" encoding="UTF-8" standalone="no"?>
<svg
   width="16"
   height="16"
   version="1.1"
   id="svg4"
   sodipodi:docname="inkscape-symbolic.svg"
   inkscape:version="1.1.2 (0a00cf5339, 2022-02-04)"
   xmlns:inkscape="http://www.inkscape.org/namespaces/inkscape"
   xmlns:sodipodi="http://sodipodi.sourceforge.net/DTD/sodipodi-0.dtd"
   xmlns="http://www.w3.org/2000/svg"
   xmlns:svg="http://www.w3.org/2000/svg">
  <defs
     id="defs8" />
  <sodipodi:namedview
     id="namedview6"
     pagecolor="#ffffff"
     bordercolor="#666666"
     borderopacity="1.0"
     inkscape:pageshadow="2"
     inkscape:pageopacity="0.0"
     inkscape:pagecheckerboard="0"
     showgrid="false"
     inkscape:zoom="47.25"
     inkscape:cx="8.994709"
     inkscape:cy="8"
     inkscape:window-width="1880"
     inkscape:window-height="966"
     inkscape:window-x="0"
     inkscape:window-y="29"
     inkscape:window-maximized="1"
     inkscape:current-layer="svg4" />
  <path
     style="fill:#5c616c"
     d="M 8,0 C 7.55,0 7.1,0.17 6.76,0.53 L 0.57,6.91 C 0.23,7.26 0.05,7.72 0.04,8.18 v 0.03 c 0,1.37 3.65,0.04 3.98,1.71 0.18,0.91 -1.99,0.49 -1.99,1.4 0,1.07 3.07,0.34 3.95,1.21 0.36,0.88 -1.18,0.74 -0.9,1.56 0.51,0.53 1.67,0.23 1.89,1.09 0.26,0.98 1.92,0.81 2.89,0.09 0.52,-0.53 -0.79,-0.77 -0.28,-1.31 0.52,-0.53 3.06,-0.42 3.08,-1.58 -0.24,-0.73 -1.2,-0.85 -1.21,-1.71 -0.05,-0.73 0.78,-0.52 3.42,-1.24 1.05,-0.5 1.09,-0.76 1.09,-1.22 V 8.18 C 15.95,7.72 15.74,7.26 15.4,6.91 L 9.24,0.53 C 8.89,0.17 8.45,0 8,0 Z m 0.12,1.34 c 0.47,0 1.75,1.58 2.89,2.77 0.33,0.43 -0.12,0.87 -0.12,0.87 L 8.6588302,3.7570575 8.3850226,3.825111 v 0 L 7.5636441,4.9331971 7.3201057,4.919514 v 0 L 6.6251705,3.873375 6.4385054,3.9783183 v 0 L 6.0233925,5.5942936 v 0 L 5.7590138,5.7654083 4.4798574,4.9979144 v 0 L 4.410824,4.7489513 4.74,4.33 7.32,1.68 C 7.51,1.48 7.67,1.34 8.12,1.34 Z m 7.09,9.58 c -0.13,-0.01 -0.25,0 -0.34,0.03 -0.17,0.05 -0.97,0.08 -0.9,0.68 0.72,0.31 1.82,0.55 1.95,-0.06 0.1,-0.45 -0.33,-0.64 -0.71,-0.65 z M 2.87,12.94 C 2.8,12.95 2.75,12.97 2.69,13 c -0.55,0.21 -0.92,0.65 -0.41,0.84 0.51,0.19 0.86,-0.01 1.31,-0.25 0.45,-0.24 0.43,-0.28 0.4,-0.37 -0.06,0.01 -0.47,-0.24 -0.9,-0.28 -0.07,-0.01 -0.15,-0.01 -0.22,0 z"
     id="path2"
     sodipodi:nodetypes="scccscsccccccccscccsscccccccccccccccccccscccccscssccs" />
</svg>
