<?xml version="1.0" encoding="UTF-8" standalone="no"?>
<svg
   width="16"
   height="16"
   version="1.1"
   id="svg6"
   sodipodi:docname="mail-mailbox-symbolic.svg"
   inkscape:version="1.1.2 (0a00cf5339, 2022-02-04)"
   xmlns:inkscape="http://www.inkscape.org/namespaces/inkscape"
   xmlns:sodipodi="http://sodipodi.sourceforge.net/DTD/sodipodi-0.dtd"
   xmlns="http://www.w3.org/2000/svg"
   xmlns:svg="http://www.w3.org/2000/svg">
  <defs
     id="defs10" />
  <sodipodi:namedview
     id="namedview8"
     pagecolor="#ffffff"
     bordercolor="#666666"
     borderopacity="1.0"
     inkscape:pageshadow="2"
     inkscape:pageopacity="0.0"
     inkscape:pagecheckerboard="0"
     showgrid="false"
     inkscape:zoom="47.25"
     inkscape:cx="8"
     inkscape:cy="8"
     inkscape:window-width="1854"
     inkscape:window-height="966"
     inkscape:window-x="0"
     inkscape:window-y="29"
     inkscape:window-maximized="1"
     inkscape:current-layer="svg6" />
  <path
     style="fill:#5c616c"
     d="m 4,4.1742531 v 0 4.6346868 0 L 4.2587813,9 H 11.813988 L 12,8.7877333 v 0 -4.5922729 L 11.792434,4 V 4 H 4.1737635 Z M 5,5 8,6.5 11,5 V 6 L 8,7.5 5,6 Z"
     id="path2"
     sodipodi:nodetypes="cccccccccccccccccccc" />
  <path
     style="fill:#5c616c"
     d="M 2,1 C 1,1 1,2 1,2 v 12 c 0,0 0,1 1,1 h 12 c 1,0 1,-1 1,-1 V 2 C 15,2 15,1 14,1 Z M 3,3.1582464 3.2002509,3 H 12.829412 L 13,3.1582464 v 0 6.6667009 0 L 12.787502,10 h -2.603221 v 0 c 0,0.05398 -0.1863932,0.107443 -0.1905402,0.160317 C 9.9127629,11.192793 9.0559249,12 8,12 6.9382116,12 6.0777274,11.183803 6.0049821,10.143096 6.001679,10.095842 5.8034707,10.048125 5.8034707,10 v 0 H 3.1792961 L 3,9.8037406 v 0 z"
     id="path4"
     sodipodi:nodetypes="sccssccssccccccccccsssccccccc" />
</svg>
