<?xml version="1.0" encoding="UTF-8" standalone="no"?>
<svg
   width="16"
   height="16"
   version="1.1"
   id="svg730560"
   sodipodi:docname="multimedia-photo-manager-symbolic.svg"
   inkscape:version="1.1.2 (0a00cf5339, 2022-02-04)"
   xmlns:inkscape="http://www.inkscape.org/namespaces/inkscape"
   xmlns:sodipodi="http://sodipodi.sourceforge.net/DTD/sodipodi-0.dtd"
   xmlns="http://www.w3.org/2000/svg"
   xmlns:svg="http://www.w3.org/2000/svg">
  <defs
     id="defs730564" />
  <sodipodi:namedview
     id="namedview730562"
     pagecolor="#ffffff"
     bordercolor="#666666"
     borderopacity="1.0"
     inkscape:pageshadow="2"
     inkscape:pageopacity="0.0"
     inkscape:pagecheckerboard="0"
     showgrid="false"
     inkscape:zoom="51.6875"
     inkscape:cx="7.9903265"
     inkscape:cy="8"
     inkscape:window-width="1920"
     inkscape:window-height="1051"
     inkscape:window-x="0"
     inkscape:window-y="29"
     inkscape:window-maximized="1"
     inkscape:current-layer="svg730560" />
  <path
     style="fill:#5c616c"
     d="M 8,7 7,8 H 5 C 4.5292,8 4,8.54 4,9 V 15 C 4,15.45 4.5325,16 5,16 H 15 C 15.47,16 16,15.45 16,15 V 9 C 16,8.54 15.47,8 15,8 H 13 L 12,7 Z M 10,9 C 11.66,9 13,10.34 13,12 13,13.65 11.66,15 10,15 8.34,15 7,13.65 7,12 7,10.34 8.34,9 10,9 Z M 10,10 C 8.9,10 8,10.89 8,12 8,13.1 8.9,14 10,14 11.11,14 12,13.1 12,12 12,10.89 11.11,10 10,10 Z"
     id="path730556" />
  <path
     style="fill:#5c616c"
     d="M 1,0 C 0,0 0,1 0,1 v 10 c 0,1 1,1 1,1 H 3 V 10 H 2 V 7.5 L 4.2664111,4.8347005 4.7141456,4.8053123 v 0 l 1.743668,1.9974413 v 0 L 6.8114081,6.8167595 7.62,6 h 4.83 l 1,1 H 14 V 1 C 14,0 13,0 13,0 Z"
     id="path730558"
     sodipodi:nodetypes="scscccccccccccccccscs" />
</svg>
