<?xml version="1.0" encoding="UTF-8" standalone="no"?>
<svg
   width="16"
   height="16"
   version="1.1"
   id="svg6"
   sodipodi:docname="org.gnome.Calendar-symbolic.svg"
   inkscape:version="1.1.2 (0a00cf5339, 2022-02-04)"
   xmlns:inkscape="http://www.inkscape.org/namespaces/inkscape"
   xmlns:sodipodi="http://sodipodi.sourceforge.net/DTD/sodipodi-0.dtd"
   xmlns="http://www.w3.org/2000/svg"
   xmlns:svg="http://www.w3.org/2000/svg">
  <defs
     id="defs10" />
  <sodipodi:namedview
     id="namedview8"
     pagecolor="#ffffff"
     bordercolor="#666666"
     borderopacity="1.0"
     inkscape:pageshadow="2"
     inkscape:pageopacity="0.0"
     inkscape:pagecheckerboard="0"
     showgrid="false"
     inkscape:zoom="51.6875"
     inkscape:cx="10.727932"
     inkscape:cy="12.643289"
     inkscape:window-width="759"
     inkscape:window-height="849"
     inkscape:window-x="765"
     inkscape:window-y="31"
     inkscape:window-maximized="1"
     inkscape:current-layer="svg6" />
  <path
     style="opacity:0.35;fill:#5c616c"
     d="M 12,0 V 11 L 7.3178345,15.682166 7.5431943,16 v 0 H 14 c 1.11,0 2,-0.892 2,-2 V 2 C 16,0.892 15.11,0 14,0 Z"
     id="path2"
     sodipodi:nodetypes="cccccssssc" />
  <path
     style="fill:#5c616c"
     d="M 2,0 C 0.89,0 0,0.892 0,2 v 12 c 0,1.108 0.89,2 2,2 h 3.5887373 v 0 L 6,15.52451 V 13 c 0,0 0,-2 2,-2 h 2.391433 v 0 L 11,10.433188 V 0 Z M 2,2 H 3.5 C 4.33,2 5,2.669 5,3.5 5,3.887 4.85,4.235 4.61,4.5 4.85,4.765 5,5.113 5,5.5 5,6.331 4.33,7 3.5,7 H 2 V 6 H 3.5 C 3.78,6 4,5.777 4,5.5 4,5.223 3.78,5 3.5,5 H 2 V 4 H 3.5 C 3.78,4 4,3.777 4,3.5 4,3.223 3.78,3 3.5,3 H 2 Z M 6.5,2 H 8 V 7 H 7 V 3 H 6 Z"
     id="path4"
     sodipodi:nodetypes="ssssccccsccccscsscssccsssccsssccccccccc" />
</svg>
