<?xml version="1.0" encoding="UTF-8" standalone="no"?>
<svg
   width="16"
   height="16"
   version="1.1"
   id="svg1011985"
   sodipodi:docname="org.gnome.Evince-symbolic.svg"
   inkscape:version="1.1.2 (0a00cf5339, 2022-02-04)"
   xmlns:inkscape="http://www.inkscape.org/namespaces/inkscape"
   xmlns:sodipodi="http://sodipodi.sourceforge.net/DTD/sodipodi-0.dtd"
   xmlns="http://www.w3.org/2000/svg"
   xmlns:svg="http://www.w3.org/2000/svg">
  <defs
     id="defs1011989" />
  <sodipodi:namedview
     id="namedview1011987"
     pagecolor="#ffffff"
     bordercolor="#666666"
     borderopacity="1.0"
     inkscape:pageshadow="2"
     inkscape:pageopacity="0.0"
     inkscape:pagecheckerboard="0"
     showgrid="false"
     inkscape:zoom="51.6875"
     inkscape:cx="7.9903265"
     inkscape:cy="8"
     inkscape:window-width="1920"
     inkscape:window-height="1051"
     inkscape:window-x="0"
     inkscape:window-y="29"
     inkscape:window-maximized="1"
     inkscape:current-layer="svg1011985" />
  <path
     style="fill:#5c616c"
     d="M 3,1 C 2,1 2,2 2,2 v 7.7603938 0 l 0.3185074,0.1027075 c 0.3165074,-0.3788988 -0.1100284,0.1248931 0,0 C 3.6882079,8.308356 5.770895,7 9,7 c 1.99207,0 3.547137,0.5001647 4.771701,1.2462276 0.07741,0.047163 -0.0748,-0.049064 0,0 L 14,8.0477075 V 5 L 10,1 Z M 2,13.756 V 15 c 0,1 1,1 1,1 H 4.6836 C 3.5478,15.405 2.6748,14.608 2,13.756 Z"
     id="path1011981"
     sodipodi:nodetypes="sccccsssccccscsccc" />
  <path
     style="fill:#5c616c"
     d="m 9,8 c -3.8261815,0 -5.6805832,1.8299581 -6.8454008,3.739436 -0.052916,0.08675 0.024323,0.391616 -0.025867,0.478525 0.041976,0.07268 -0.043869,-0.07259 0,0 C 3.2919512,14.142729 5.1453711,16 9,16 c 3.842493,0 5.696359,-1.845594 6.860261,-3.763862 0.04771,-0.07863 -0.01131,-0.336856 0.03417,-0.415609 -0.03456,-0.05984 0.03583,0.05979 0,0 C 14.732663,9.8821072 12.880317,8 9,8 Z m 0,1.5 c 1.380712,0 2.5,1.119288 2.5,2.5 0,1.380712 -1.119288,2.5 -2.5,2.5 C 7.6192881,14.5 6.5,13.380712 6.5,12 6.5,10.619288 7.6192881,9.5 9,9.5 Z M 9,11 c -0.5522847,0 -1,0.447715 -1,1 0,0.552285 0.4477153,1 1,1 0.5522847,0 1,-0.447715 1,-1 0,-0.552285 -0.4477153,-1 -1,-1 z"
     id="path1011983"
     sodipodi:nodetypes="sscssscssssssssssss" />
</svg>
