<?xml version="1.0" encoding="UTF-8" standalone="no"?>
<svg
   width="16"
   height="16"
   version="1"
   id="svg4"
   sodipodi:docname="org.gnome.SystemMonitor-symbolic.svg"
   inkscape:version="1.1.2 (0a00cf5339, 2022-02-04)"
   xmlns:inkscape="http://www.inkscape.org/namespaces/inkscape"
   xmlns:sodipodi="http://sodipodi.sourceforge.net/DTD/sodipodi-0.dtd"
   xmlns="http://www.w3.org/2000/svg"
   xmlns:svg="http://www.w3.org/2000/svg">
  <defs
     id="defs8" />
  <sodipodi:namedview
     id="namedview6"
     pagecolor="#ffffff"
     bordercolor="#666666"
     borderopacity="1.0"
     inkscape:pageshadow="2"
     inkscape:pageopacity="0.0"
     inkscape:pagecheckerboard="0"
     showgrid="false"
     inkscape:zoom="47.125"
     inkscape:cx="7.9893899"
     inkscape:cy="8"
     inkscape:window-width="1880"
     inkscape:window-height="966"
     inkscape:window-x="0"
     inkscape:window-y="29"
     inkscape:window-maximized="1"
     inkscape:current-layer="svg4" />
  <path
     style="fill:#5c616c"
     d="M 4.8007812,0 C 2.1415811,0 0,2.1415811 0,4.8007812 V 7 H 1.78125 L 3.5058594,3.5527344 C 3.9258828,2.7139015 5.165665,2.8628827 5.375,3.7773438 l 0.6436339,2.8134601 0.2948747,0.036854 v 0 L 7.8457031,1.703125 c 0.1367743,-0.439648 0.5560411,-0.72910333 1.015625,-0.7011719 0.4588639,0.028467 0.839211,0.366106 0.921875,0.8183594 l 1.3608289,7.482722 0.265356,0.1171857 v 0 l 0.88944,-1.853814 C 12.46534,7.2204117 12.815242,7.0002996 13.199219,7 H 16 V 4.8007812 C 16,2.1415811 13.858419,0 11.199219,0 Z m 3.5831954,6.7029841 v 0 L 6.9550781,11.296875 C 6.6512772,12.271952 5.2533986,12.218188 5.0253906,11.222656 L 4.1429044,7.3633202 3.8621578,7.3127938 v 0 L 3.2949219,8.4472656 C 3.1254806,8.7860466 2.7791819,9.0000259 2.4003906,9 H 0 v 2.199219 C 0,13.858419 2.1415811,16 4.8007812,16 H 11.199219 C 13.858419,16 16,13.858419 16,11.199219 V 9 h -2.169922 l -2.128906,4.433594 C 11.281098,14.305672 9.9907291,14.13184 9.8164062,13.179688 L 8.6434189,6.7273561 Z"
     id="path2"
     sodipodi:nodetypes="ssccccccccccccccccsssccccccccccsssscccccc" />
</svg>
