<?xml version="1.0" encoding="UTF-8" standalone="no"?>
<svg
   width="16"
   height="16"
   version="1.1"
   id="svg6"
   sodipodi:docname="password-manager-symbolic.svg"
   inkscape:version="1.1.2 (0a00cf5339, 2022-02-04)"
   xmlns:inkscape="http://www.inkscape.org/namespaces/inkscape"
   xmlns:sodipodi="http://sodipodi.sourceforge.net/DTD/sodipodi-0.dtd"
   xmlns="http://www.w3.org/2000/svg"
   xmlns:svg="http://www.w3.org/2000/svg">
  <defs
     id="defs10" />
  <sodipodi:namedview
     id="namedview8"
     pagecolor="#ffffff"
     bordercolor="#666666"
     borderopacity="1.0"
     inkscape:pageshadow="2"
     inkscape:pageopacity="0.0"
     inkscape:pagecheckerboard="0"
     showgrid="false"
     inkscape:zoom="51.6875"
     inkscape:cx="8"
     inkscape:cy="6.452237"
     inkscape:window-width="759"
     inkscape:window-height="849"
     inkscape:window-x="765"
     inkscape:window-y="31"
     inkscape:window-maximized="1"
     inkscape:current-layer="svg6" />
  <path
     style="fill:#5c616c"
     d="M 4.5,1 C 2.01,1 0,3.02 0,5.5 0,7.99 2.01,10 4.5,10 6.3412805,10 7.994732,8.8730258 8.6776505,7.16515 c 0.021779,-0.054465 -0.019779,0.055629 0,0 L 8.9572249,7 H 11.741163 V 7 L 12,7.1990322 V 9 h 3 v -1.7929835 0 L 15.202856,7 H 16 V 4 H 8.9664284 V 4 C 8.9419318,3.9314858 8.6894536,3.863836 8.6618992,3.7970842 7.9695683,2.1198808 6.3272754,1.0096172 4.5,1 Z m 0,3 C 5.33,4 6,4.68 6,5.5 6,6.33 5.33,7 4.5,7 3.67,7 3,6.33 3,5.5 3,4.68 3.67,4 4.5,4 Z"
     id="path2"
     sodipodi:nodetypes="csssccccccccccccccscsssss" />
  <path
     style="opacity:0.35;fill:#5c616c"
     d="m 9.1298058,8.319903 c -0.035623,0.064122 0.037831,-0.062472 0,0 -0.4470845,0.7382851 -1.0465975,1.3596062 -1.7567557,1.82218 -0.07319,0.04767 0.040205,0.280248 -0.03529,0.324504 v 0 l 1.2262229,1.218559 0.00759,0.362024 v 0 L 7.33,13.28 l 2.12,2.12 1.204807,-1.204807 0.407187,-0.02046 v 0 L 11.57,14.69 13.7,12.57 9.3874013,8.2767403 Z"
     id="path4"
     sodipodi:nodetypes="csscccccccccccccc" />
</svg>
