<?xml version="1.0" encoding="UTF-8" standalone="no"?>
<svg
   width="16"
   height="16"
   version="1"
   id="svg4"
   sodipodi:docname="preferences-desktop-default-applications-symbolic.svg"
   inkscape:version="1.1.2 (0a00cf5339, 2022-02-04)"
   xmlns:inkscape="http://www.inkscape.org/namespaces/inkscape"
   xmlns:sodipodi="http://sodipodi.sourceforge.net/DTD/sodipodi-0.dtd"
   xmlns="http://www.w3.org/2000/svg"
   xmlns:svg="http://www.w3.org/2000/svg">
  <defs
     id="defs8" />
  <sodipodi:namedview
     id="namedview6"
     pagecolor="#ffffff"
     bordercolor="#666666"
     borderopacity="1.0"
     inkscape:pageshadow="2"
     inkscape:pageopacity="0.0"
     inkscape:pagecheckerboard="0"
     showgrid="false"
     inkscape:zoom="47.125"
     inkscape:cx="7.9893899"
     inkscape:cy="8"
     inkscape:window-width="1880"
     inkscape:window-height="966"
     inkscape:window-x="0"
     inkscape:window-y="29"
     inkscape:window-maximized="1"
     inkscape:current-layer="svg4" />
  <path
     style="fill:#5c616c"
     d="M 8.0000052,-3.6842898e-4 C 7.2787922,0.01030757 6.7648232,0.45986477 6.5234422,1.2047097 l 0.0078,-0.033203 -1.132813,3.828125 h -3.820312 c -0.0083,-1.384e-4 -0.01706,-1.384e-4 -0.02539,0 -0.456347,0.015321 -0.86829201,0.2359995 -1.15820301,0.6015625 -0.626992,0.7454257 -0.493451,1.9186794 0.302734,2.4746094 l 3.00390601,2.2734374 -1.166015,3.552735 c -0.0013,0.0042 -0.0027,0.0075 -0.0039,0.01172 -0.178155,0.606147 -0.01063,1.231012 0.4375,1.658204 0.0032,0.0031 0.0084,0.0068 0.01172,0.0098 0.538506,0.49582 1.294204,0.558837 1.902343,0.148438 0.01157,-0.0078 0.024,-0.01701 0.03516,-0.02539 l 3.082036,-2.304725 3.0820298,2.304687 c 0.01115,0.0084 0.02359,0.01763 0.03516,0.02539 0.608138,0.410399 1.363837,0.347383 1.902343,-0.148438 0.0033,-0.003 0.0085,-0.0067 0.01172,-0.0098 0.448126,-0.427191 0.615655,-1.052057 0.4375,-1.658204 -0.0012,-0.0042 -0.0026,-0.0076 -0.0039,-0.01172 l -1.166026,-3.552697 3.003906,-2.2734374 c 0.796185,-0.55593 0.929727,-1.7291837 0.302735,-2.4746094 -0.289911,-0.365563 -0.701857,-0.5862423 -1.158203,-0.6015625 -0.0083,-1.383e-4 -0.01706,-1.383e-4 -0.02539,0 h -3.820314 l -1.1328108,-3.828125 0.0078,0.033203 C 9.2351732,0.45986477 8.7212102,0.01030807 7.9999982,-3.6832898e-4 Z M 7.1914112,4.9996316 h 1.609375 L 11.199223,11.999632 H 9.7832082 l -0.552735,-1.986328 h -2.460937 l -0.552735,1.986328 h -1.416015 z m 0.7139942,1.2522705 v 0 L 7.1893681,8.6935727 7.3468416,8.9996316 v 0 h 1.3787586 v 0 L 8.8527593,8.7815118 8.0994327,6.2618727 Z"
     id="path2"
     sodipodi:nodetypes="ccccccccccccccccccccccccccccccccccccccccccccccccccc" />
</svg>
