<?xml version="1.0" encoding="UTF-8" standalone="no"?>
<svg
   width="16"
   height="16"
   version="1"
   id="svg4"
   sodipodi:docname="preferences-desktop-screensaver-symbolic.svg"
   inkscape:version="1.1.2 (0a00cf5339, 2022-02-04)"
   xmlns:inkscape="http://www.inkscape.org/namespaces/inkscape"
   xmlns:sodipodi="http://sodipodi.sourceforge.net/DTD/sodipodi-0.dtd"
   xmlns="http://www.w3.org/2000/svg"
   xmlns:svg="http://www.w3.org/2000/svg">
  <defs
     id="defs8" />
  <sodipodi:namedview
     id="namedview6"
     pagecolor="#ffffff"
     bordercolor="#666666"
     borderopacity="1.0"
     inkscape:pageshadow="2"
     inkscape:pageopacity="0.0"
     inkscape:pagecheckerboard="0"
     showgrid="false"
     inkscape:zoom="146.19433"
     inkscape:cx="8.0030465"
     inkscape:cy="6.2211716"
     inkscape:window-width="1920"
     inkscape:window-height="1051"
     inkscape:window-x="0"
     inkscape:window-y="29"
     inkscape:window-maximized="1"
     inkscape:current-layer="svg4" />
  <path
     style="fill:#5c616c"
     d="m 7.437148,2.0324905 v 0 L 7.0898438,3.0878906 6.1448891,3.3998613 v 0 l 0.00609,0.1866615 0.9388691,0.3099616 0.3117522,0.9473635 v 0 L 7.5911168,4.8199631 7.8964844,3.8964844 8.8677603,3.5758239 8.9065571,3.4921875 8.869563,3.4091462 7.8964844,3.0878906 7.5588729,2.0669013 Z m 3.054087,0.9041531 v 0 L 10.345698,3.3789062 9.9407827,3.5134468 9.9402154,3.6497695 v 0 l 0.4054826,0.1334336 0.136949,0.4161656 v 0 L 10.614785,4.1901388 10.75,3.7832031 11.168515,3.6454808 v 0 L 11.151625,3.5123534 10.75,3.3789062 10.598817,2.923903 Z M 3.433751,3.0484374 v 0 L 2.8378906,4.8515625 1.1114905,5.42096 1.0870938,5.618143 v 0 l 1.7507968,0.5791226 0.5527674,1.672722 0.2404334,0.00511 v 0 l 0.5544555,-1.677832 1.723394,-0.5695124 v 0 L 5.9032238,5.4175403 4.1855469,4.8515625 3.6009184,3.0824258 Z m 8.917409,2.0146617 c 0.05042,0.061091 -0.142575,0.060462 -0.09548,0.1242476 0.531823,0.7202239 0.847831,1.6082124 0.847831,2.5724189 0,2.3990004 -1.94465,4.3437504 -4.3437504,4.3437504 -0.9494849,0 -1.8250464,-0.306433 -2.5393091,-0.823624 -0.075313,-0.05453 -0.069885,0.184295 -0.1415086,0.125188 0.023405,0.09977 -0.029195,-0.09734 0,0 C 6.7049266,13.492197 8.6395402,15 10.931641,15 13.730541,15 16,12.73054 16,9.9316406 16,7.6197518 14.466178,5.6716579 12.35116,5.0630991 c -0.07978,-0.022957 0.08139,0.019092 0,0 z"
     id="path2"
     sodipodi:nodetypes="ccccccccccccccccccccccccccccccccccccccccccccccccccccsssscssssc" />
</svg>
