<?xml version="1.0" encoding="UTF-8" standalone="no"?>
<svg
   width="16"
   height="16"
   version="1.1"
   id="svg6"
   sodipodi:docname="preferences-desktop-display-symbolic.svg"
   inkscape:version="1.1.2 (0a00cf5339, 2022-02-04)"
   xmlns:inkscape="http://www.inkscape.org/namespaces/inkscape"
   xmlns:sodipodi="http://sodipodi.sourceforge.net/DTD/sodipodi-0.dtd"
   xmlns="http://www.w3.org/2000/svg"
   xmlns:svg="http://www.w3.org/2000/svg">
  <defs
     id="defs10" />
  <sodipodi:namedview
     id="namedview8"
     pagecolor="#ffffff"
     bordercolor="#666666"
     borderopacity="1.0"
     inkscape:pageshadow="2"
     inkscape:pageopacity="0.0"
     inkscape:pagecheckerboard="0"
     showgrid="false"
     inkscape:zoom="51.6875"
     inkscape:cx="7.9903265"
     inkscape:cy="8.0096735"
     inkscape:window-width="1880"
     inkscape:window-height="966"
     inkscape:window-x="0"
     inkscape:window-y="29"
     inkscape:window-maximized="1"
     inkscape:current-layer="svg6" />
  <path
     style="fill:#5c616c"
     d="M 0,3 V 3.3321623 9.7551957 L 0.2168943,10 v 0 H 11.337477 l 0.08735,-0.3355193 v 0 L 0.31148808,3.1817013 0,3.3321623 Z M 2,6.2920979 2.2445048,6.1630032 4.6866191,7.7910794 4.6668103,8 V 8 H 2.2098665 V 8 L 2,7.7046542 Z"
     id="path2"
     sodipodi:nodetypes="cccccccccccccccccccc" />
  <path
     style="fill:#5c616c"
     d="M 2,0 C 0,0 0,2 0,2 H 14 V 11 H 0 C 0,11 0,13 2,13 H 14 C 14,13 16,13 16,11 V 2 C 16,2 16,0 14,0 Z M 4,14 C 4,14 3,14 3,15 V 16 H 13 V 15 C 13,14 12,14 12,14 Z"
     id="path4" />
</svg>
