<?xml version="1.0" encoding="UTF-8" standalone="no"?>
<svg
   width="16"
   height="16"
   version="1.1"
   id="svg951428"
   sodipodi:docname="preferences-system-notifications-symbolic.svg"
   inkscape:version="1.1.2 (0a00cf5339, 2022-02-04)"
   xmlns:inkscape="http://www.inkscape.org/namespaces/inkscape"
   xmlns:sodipodi="http://sodipodi.sourceforge.net/DTD/sodipodi-0.dtd"
   xmlns="http://www.w3.org/2000/svg"
   xmlns:svg="http://www.w3.org/2000/svg">
  <defs
     id="defs951432" />
  <sodipodi:namedview
     id="namedview951430"
     pagecolor="#ffffff"
     bordercolor="#666666"
     borderopacity="1.0"
     inkscape:pageshadow="2"
     inkscape:pageopacity="0.0"
     inkscape:pagecheckerboard="0"
     showgrid="false"
     inkscape:zoom="51.6875"
     inkscape:cx="7.9903265"
     inkscape:cy="8.0096735"
     inkscape:window-width="1880"
     inkscape:window-height="966"
     inkscape:window-x="0"
     inkscape:window-y="29"
     inkscape:window-maximized="1"
     inkscape:current-layer="svg951428" />
  <path
     style="opacity:0.35;fill:#5c616c"
     d="m 7.8077402,3.2634931 c 0.031399,0.086808 -0.02699,-0.088854 0,0 C 7.9268809,3.6557205 8,4.0678895 8,4.5 8,6.97 5.97,9 3.5,9 2.6650835,9 1.8946447,8.766268 1.2248623,8.3639252 c -0.076277,-0.04582 0.073613,0.050098 0,0 L 1,8.5433159 V 12 c 0,0.55 0.45,1 1,1 h 7 l 1.696629,1.696629 0.598415,0.0083 v 0 L 13,13 h 1 c 0.55,0 1,-0.45 1,-1 V 4 C 15,3.45 14.55,3 14,3 H 8.0414218 Z"
     id="path951424"
     sodipodi:nodetypes="cssssccsscccccsssscc" />
  <path
     style="fill:#5c616c"
     d="M 3.5,1 C 1.57,1 0,2.57 0,4.5 0,6.43 1.57,8 3.5,8 5.43,8 7,6.43 7,4.5 7,2.57 5.43,1 3.5,1 Z M 3,2.1519479 3.1577898,2 H 3.8543033 L 4,2.1519479 v 0 2.6894085 L 3.8154545,5 V 5 H 3.138366 V 5 L 3,4.8025838 Z M 3,6.2148461 3.1772148,6 H 3.8348795 L 4,6.1954601 v 0 0.6385727 L 3.8154545,7 V 7 H 3.1772148 V 7 L 3,6.872512 Z"
     id="path951426"
     sodipodi:nodetypes="ssssscccccccccccccccccccccccc" />
</svg>
