<?xml version="1.0" encoding="UTF-8" standalone="no"?>
<svg
   width="16"
   height="16"
   version="1.1"
   id="svg4"
   sodipodi:docname="preferences-system-details-symbolic.svg"
   inkscape:version="1.1.2 (0a00cf5339, 2022-02-04)"
   xmlns:inkscape="http://www.inkscape.org/namespaces/inkscape"
   xmlns:sodipodi="http://sodipodi.sourceforge.net/DTD/sodipodi-0.dtd"
   xmlns="http://www.w3.org/2000/svg"
   xmlns:svg="http://www.w3.org/2000/svg">
  <defs
     id="defs8" />
  <sodipodi:namedview
     id="namedview6"
     pagecolor="#ffffff"
     bordercolor="#666666"
     borderopacity="1.0"
     inkscape:pageshadow="2"
     inkscape:pageopacity="0.0"
     inkscape:pagecheckerboard="0"
     showgrid="false"
     inkscape:zoom="47.25"
     inkscape:cx="8"
     inkscape:cy="8"
     inkscape:window-width="1854"
     inkscape:window-height="966"
     inkscape:window-x="0"
     inkscape:window-y="29"
     inkscape:window-maximized="1"
     inkscape:current-layer="svg4" />
  <path
     style="fill:#5c616c"
     d="M 12.6875,2 3.3125,2.00195 C 2.5744364,2.0019531 2,2.5753948 2,3.3144531 V 12.6875 C 2,13.425563 2.5744364,14 3.3125,14 h 9.375 C 13.425563,14 14,13.425563 14,12.6875 V 3.3125 C 14,2.5744364 13.425563,2 12.6875,2 Z M 7,4.3435879 7.3697142,4 H 8.6815024 V 4 L 9,4.3435879 v 1.31194 L 8.6605464,6 V 6 H 7.3062492 V 6 L 7,5.6555279 Z M 7,7.3909654 7.3906689,7 H 8.6605464 L 9,7.3276658 v 0 4.2960182 0 L 8.6605464,12 H 7.4331778 L 7,11.58127 v 0 z"
     id="path2"
     sodipodi:nodetypes="ccsssssscccccccccccccccccccccccccc" />
</svg>
