<?xml version="1.0" encoding="UTF-8" standalone="no"?>
<svg
   width="16"
   height="16"
   version="1.1"
   id="svg6"
   sodipodi:docname="shotwell-symbolic.svg"
   inkscape:version="1.1.2 (0a00cf5339, 2022-02-04)"
   xmlns:inkscape="http://www.inkscape.org/namespaces/inkscape"
   xmlns:sodipodi="http://sodipodi.sourceforge.net/DTD/sodipodi-0.dtd"
   xmlns="http://www.w3.org/2000/svg"
   xmlns:svg="http://www.w3.org/2000/svg">
  <defs
     id="defs10" />
  <sodipodi:namedview
     id="namedview8"
     pagecolor="#ffffff"
     bordercolor="#666666"
     borderopacity="1.0"
     inkscape:pageshadow="2"
     inkscape:pageopacity="0.0"
     inkscape:pagecheckerboard="0"
     showgrid="false"
     inkscape:zoom="47.25"
     inkscape:cx="8"
     inkscape:cy="8"
     inkscape:window-width="1880"
     inkscape:window-height="966"
     inkscape:window-x="0"
     inkscape:window-y="29"
     inkscape:window-maximized="1"
     inkscape:current-layer="svg6" />
  <path
     style="fill:#5c616c"
     d="M 8,7 7,8 H 5 C 4.5292,8 4,8.54 4,9 V 15 C 4,15.45 4.5325,16 5,16 H 15 C 15.47,16 16,15.45 16,15 V 9 C 16,8.54 15.47,8 15,8 H 13 L 12,7 Z M 10,9 C 11.66,9 13,10.34 13,12 13,13.65 11.66,15 10,15 8.34,15 7,13.65 7,12 7,10.34 8.34,9 10,9 Z M 10,10 C 8.9,10 8,10.89 8,12 8,13.1 8.9,14 10,14 11.11,14 12,13.1 12,12 12,10.89 11.11,10 10,10 Z"
     id="path2" />
  <path
     style="fill:#5c616c"
     d="M 1,0 C 0,0 0,1 0,1 v 10 c 0,1 1,1 1,1 H 3 V 10 H 2.2054605 v 0 L 2,9.7825327 V 7.7508409 L 2.1641541,7.3069548 v 0 L 4.2548468,4.8483002 v 0 l 0.5047658,0.0091 1.6757887,1.9196829 0.3892585,0.026295 v 0 L 7.4877827,6.1335529 v 0 L 7.8352193,6 H 12.45 l 1,1 H 14 V 1 C 14,0 13,0 13,0 Z"
     id="path4"
     sodipodi:nodetypes="scscccccccccccccccccccccscs" />
</svg>
