<?xml version="1.0" encoding="UTF-8" standalone="no"?>
<svg
   width="16"
   height="16"
   version="1.1"
   id="svg4"
   sodipodi:docname="utilities-tweak-tool-symbolic.svg"
   inkscape:version="1.1.2 (0a00cf5339, 2022-02-04)"
   xmlns:inkscape="http://www.inkscape.org/namespaces/inkscape"
   xmlns:sodipodi="http://sodipodi.sourceforge.net/DTD/sodipodi-0.dtd"
   xmlns="http://www.w3.org/2000/svg"
   xmlns:svg="http://www.w3.org/2000/svg">
  <defs
     id="defs8" />
  <sodipodi:namedview
     id="namedview6"
     pagecolor="#ffffff"
     bordercolor="#666666"
     borderopacity="1.0"
     inkscape:pageshadow="2"
     inkscape:pageopacity="0.0"
     inkscape:pagecheckerboard="0"
     showgrid="false"
     inkscape:zoom="47.25"
     inkscape:cx="10.656085"
     inkscape:cy="10.529101"
     inkscape:window-width="759"
     inkscape:window-height="849"
     inkscape:window-x="765"
     inkscape:window-y="31"
     inkscape:window-maximized="1"
     inkscape:current-layer="svg4" />
  <path
     d="m 7.5996093,-2e-7 c -0.8864,0 -1.599609,0.7132094 -1.599609,1.5996094 V 2.0611617 L 5.7386966,2.4492036 c -0.2613037,0.099594 0.086235,-0.035191 0,0 C 5.2299608,2.6568083 4.752131,2.933323 4.3186352,3.2709875 c -0.071635,0.055799 0.069153,-0.059104 0,0 L 3.8628463,3.3023425 3.4570313,3.0683592 c -0.767645,-0.4432 -1.742347,-0.1817077 -2.185547,0.5859375 L 0.87109426,4.3457029 c -0.4432,0.7676452 -0.181708,1.7423469 0.58593704,2.1855469 l 0.5281834,0.3054552 0.09399,0.2178548 c -0.026265,0.1483101 0.00813,-0.049532 0,0 -0.051303,0.3124842 -0.077799,0.628618 -0.079204,0.94544 0.00128,0.2873049 0.023183,0.5740438 0.065512,0.8580084 0.011748,0.07881 -0.1761948,0.2737992 -0.1613056,0.3521346 v 0 l -0.447175,0.258607 C 0.68938626,9.91195 0.4278943,10.886652 0.87109426,11.654297 l 0.40039004,0.691406 c 0.4432,0.767645 1.417902,1.029138 2.185547,0.585938 l 0.486226,-0.280572 v 0 c 0.047202,0.04015 0.2552498,-0.01293 0.3036087,0.02569 0.4433848,0.354113 0.9345992,0.643406 1.4588586,0.859384 0.096992,0.03996 -0.099161,-0.03488 0,0 L 6.0000003,13.3192 v -1.699395 0 C 5.9404462,11.58515 5.8818459,11.374537 5.8242529,11.33701 4.7304493,10.624301 4.0000003,9.40295 4.0000003,7.9999998 c 0.00168,-1.339461 0.6753262,-2.5662806 1.758675,-3.2999129 0.078333,-0.053046 0.1588074,0.1144214 0.241325,0.066676 v 0 1.9756138 L 6.2049994,7.153749 v 0 l 1.5544255,1.1658191 0.4781858,0.00222 v 0 L 9.8196413,7.1352688 v 0 L 10,6.7070881 V 4.8303843 l 0.228593,-0.1408079 c 0.07805,0.045176 -0.07432,-0.049918 0,0 1.091475,0.7331606 1.77073,1.9647768 1.771407,3.3104234 0,1.415757 -0.743846,2.6465842 -1.854297,3.3564002 -0.0479,0.03062 0,0 0,0 L 10,11.687776 v 1.619796 l 0.3501,0.201143 c 0.11823,-0.04166 -0.115117,0.04885 0,0 0.496261,-0.210613 0.962128,-0.48726 1.384881,-0.822629 0.05322,-0.04222 -0.05183,0.04407 0,0 l 0.357155,-0.01438 0.450833,0.25994 c 0.767644,0.4432 1.742347,0.181707 2.185547,-0.585938 l 0.40039,-0.691406 c 0.4432,-0.767645 0.181707,-1.742347 -0.585937,-2.1855472 L 14.071052,9.1958392 v 0 C 14.086766,9.1131628 13.924212,8.9281117 13.936427,8.84491 13.977487,8.5652258 13.998745,8.2828871 14,7.9999998 c -0.0011,-0.2486981 -0.01765,-0.4969721 -0.04955,-0.7433896 -0.0079,-0.061143 -0.01677,-0.1221713 -0.02657,-0.1830636 -0.009,-0.055886 0.404121,-0.4179805 0.187384,-0.2926386 v 0 l 0.431701,-0.2496582 c 0.767644,-0.4432 1.029137,-1.4179017 0.585937,-2.1855469 L 14.728516,3.6542967 C 14.285316,2.8866515 13.310613,2.6251592 12.542969,3.0683592 l -0.400758,0.2312526 v 0 c -0.07716,-0.065642 -0.401628,0.012542 -0.481852,-0.04899 -0.410084,-0.3145295 -0.859049,-0.5747256 -1.335702,-0.7741554 -0.106869,-0.044714 0.324657,0.1249045 0,0 L 10,2.0554593 V 1.5996092 C 10,0.7132092 9.2867903,-2e-7 8.4003903,-2e-7 Z m 0.400391,10.1992192 c -0.554,0 -1,0.357581 -1,0.800781 v 3.199219 c 0,0.4432 0.446,0.800781 1,0.800781 0.554,0 1,-0.357581 1,-0.800781 V 11 c 0,-0.4432 -0.446,-0.800781 -1,-0.800781 z"
     style="fill:#5c616c"
     id="path2"
     sodipodi:nodetypes="ssccssccccccccscsccccccccssccccscscccccccccccccscsccccssccccccccscssccccccccssccssssssssss" />
</svg>
