<?xml version="1.0" encoding="UTF-8" standalone="no"?>
<svg
   width="24"
   height="24"
   viewBox="0 0 24 24"
   fill="#3d89c9"
   version="1.1"
   id="svg4"
   sodipodi:docname="checkbox.svg"
   inkscape:version="1.1.2 (0a00cf5339, 2022-02-04)"
   xmlns:inkscape="http://www.inkscape.org/namespaces/inkscape"
   xmlns:sodipodi="http://sodipodi.sourceforge.net/DTD/sodipodi-0.dtd"
   xmlns="http://www.w3.org/2000/svg"
   xmlns:svg="http://www.w3.org/2000/svg">
  <defs
     id="defs8" />
  <sodipodi:namedview
     id="namedview6"
     pagecolor="#505050"
     bordercolor="#ffffff"
     borderopacity="1"
     inkscape:pageshadow="0"
     inkscape:pageopacity="0"
     inkscape:pagecheckerboard="1"
     showgrid="false"
     inkscape:zoom="34.625"
     inkscape:cx="11.98556"
     inkscape:cy="11.942238"
     inkscape:window-width="1920"
     inkscape:window-height="1051"
     inkscape:window-x="0"
     inkscape:window-y="29"
     inkscape:window-maximized="1"
     inkscape:current-layer="svg4" />
  <path
     d="M 19,3 H 5 C 3.89,3 3,3.9 3,5 v 14 c 0,1.1 0.89,2 2,2 h 14 c 1.11,0 2,-0.9 2,-2 V 5 C 21,3.9 20.11,3 19,3 Z M 9.5983904,16.59839 v 0 L 5.4345932,12.434593 v 0 l -0.064386,-0.8048 0.679037,-0.679037 v 0 l 0.7242408,0.0017 2.8371867,2.829284 0.8063104,-0.02874 v 0 l 6.743426,-6.7434262 v 0 l 0.833699,-0.022619 0.647514,0.6521062 -0.0139,0.7331945 v 0 l -8.19399,8.1939901 z"
     id="path2"
     sodipodi:nodetypes="sssssssssccccccccccccccccccc" />
</svg>
