<?xml version="1.0" encoding="UTF-8" standalone="no"?>
<svg
   width="24"
   height="24"
   viewBox="0 0 24 24"
   fill="#cccccc"
   fill-opacity=".87"
   version="1.1"
   id="svg4"
   sodipodi:docname="key-layout.svg"
   inkscape:version="1.1.2 (0a00cf5339, 2022-02-04)"
   xmlns:inkscape="http://www.inkscape.org/namespaces/inkscape"
   xmlns:sodipodi="http://sodipodi.sourceforge.net/DTD/sodipodi-0.dtd"
   xmlns="http://www.w3.org/2000/svg"
   xmlns:svg="http://www.w3.org/2000/svg">
  <defs
     id="defs8" />
  <sodipodi:namedview
     id="namedview6"
     pagecolor="#ffffff"
     bordercolor="#666666"
     borderopacity="1.0"
     inkscape:pageshadow="2"
     inkscape:pageopacity="0.0"
     inkscape:pagecheckerboard="0"
     showgrid="false"
     inkscape:zoom="32.375"
     inkscape:cx="12"
     inkscape:cy="12"
     inkscape:window-width="1920"
     inkscape:window-height="1051"
     inkscape:window-x="0"
     inkscape:window-y="29"
     inkscape:window-maximized="1"
     inkscape:current-layer="svg4" />
  <path
     d="M 11.99,2 C 6.47,2 2,6.48 2,12 2,17.52 6.47,22 11.99,22 17.52,22 22,17.52 22,12 22,6.48 17.52,2 11.99,2 Z m 6.439126,6 V 8 H 15.97 C 15.699958,6.9451499 15.330218,5.9259065 14.860779,4.966308 c -0.08685,-0.1775281 0.09367,0.1732932 0,0 0.230091,0.078781 0.184555,-0.3585816 0.404442,-0.2600195 1.351457,0.6057761 2.500592,1.574825 3.329365,2.7800279 C 18.709299,7.6531323 18.327001,7.8244726 18.429126,8 Z M 12.277359,4.4563216 c 0.09482,0.137092 -0.09006,-0.1404408 0,0 0.629767,0.9820256 1.141751,2.0448234 1.515561,3.1731 C 13.833591,7.7521792 13.334235,7.8757119 13.371608,8 v 0 h -2.808377 v 0 c 0.043,-0.1430091 -0.385025,-0.2850181 -0.337662,-0.4259969 0.364326,-1.0844329 0.856475,-2.1079133 1.458236,-3.0567845 0.102263,-0.1612499 0.485049,0.095977 0.593554,-0.060897 z M 4.26,14 C 4.1,13.36 4,12.69 4,12 4,11.31 4.1,10.64 4.26,10 h 3.38 c -0.08,0.66 -0.14,1.32 -0.14,2 0,0.68 0.06,1.34 0.14,2 z M 5.4497872,16.580338 5.6321395,16 H 8.03 c 0.2557689,0.999097 0.6009761,1.966252 1.0356217,2.881041 0.1091522,0.22973 -0.42013,0.204125 -0.2996967,0.426926 -0.2192394,-0.07507 0.2099973,0.09281 0,0 -1.3409384,-0.592671 -2.4844892,-1.538584 -3.3161378,-2.727629 -0.1311714,-0.187542 0.1152036,0.199206 0,0 z M 8.03,8 H 5.4836869 V 8 C 5.5606839,7.8668593 5.2376608,7.7362274 5.3218572,7.6082333 6.1928877,6.2841057 7.4419896,5.2422865 8.9206372,4.6255887 c 0.1604803,-0.066931 -0.1656981,0.056734 0,0 -0.095769,0.1771728 0.3013915,0.1710497 0.212756,0.3526456 C 8.6667209,5.93435 8.2989232,6.9495188 8.03,8 Z m 4.305796,11.451786 C 12.219239,19.28327 11.770436,19.620405 11.66109,19.446845 11.069807,18.508333 10.585557,17.497288 10.225855,16.426847 10.178387,16.285589 10.3637,16.143296 10.32061,16 v 0 h 3.195726 v 0 c -0.04897,0.162858 0.292868,0.324418 0.238249,0.484637 -0.358262,1.050928 -0.83675,2.044147 -1.418789,2.967149 -0.108378,0.171866 0.11545,-0.166916 0,0 z M 14.34,14 H 9.66 C 9.57,13.34 9.5,12.68 9.5,12 c 0,-0.68 0.07,-1.35 0.16,-2 h 4.68 c 0.09,0.65 0.16,1.32 0.16,2 0,0.68 -0.07,1.34 -0.16,2 z m 0.834253,5.333805 C 15.295289,19.109888 14.826375,19.108504 14.936017,18.877591 15.369892,17.963821 15.714553,16.997841 15.97,16 h 2.95 c -0.856452,1.472027 -2.166573,2.649568 -3.745747,3.333805 -0.190927,0.08273 0.198466,-0.06795 0,0 z M 16.36,14 c 0.08,-0.66 0.14,-1.32 0.14,-2 0,-0.68 -0.06,-1.34 -0.14,-2 h 3.38 c 0.16,0.64 0.26,1.31 0.26,2 0,0.69 -0.1,1.36 -0.26,2 z"
     id="path2"
     sodipodi:nodetypes="ssssscccscssccssccccssccsccscccccscssccccsscsccssccccsscccsccsccsccsccsccscc" />
</svg>
