<?xml version="1.0" encoding="UTF-8" standalone="no"?>
<svg
   width="16"
   height="16"
   version="1.1"
   id="svg906220"
   sodipodi:docname="folder-templates-symbolic.svg"
   inkscape:version="1.1.2 (0a00cf5339, 2022-02-04)"
   xmlns:inkscape="http://www.inkscape.org/namespaces/inkscape"
   xmlns:sodipodi="http://sodipodi.sourceforge.net/DTD/sodipodi-0.dtd"
   xmlns="http://www.w3.org/2000/svg"
   xmlns:svg="http://www.w3.org/2000/svg">
  <defs
     id="defs906224" />
  <sodipodi:namedview
     id="namedview906222"
     pagecolor="#ffffff"
     bordercolor="#666666"
     borderopacity="1.0"
     inkscape:pageshadow="2"
     inkscape:pageopacity="0.0"
     inkscape:pagecheckerboard="0"
     showgrid="false"
     inkscape:zoom="51.6875"
     inkscape:cx="8.0096735"
     inkscape:cy="8"
     inkscape:window-width="1920"
     inkscape:window-height="1051"
     inkscape:window-x="0"
     inkscape:window-y="29"
     inkscape:window-maximized="1"
     inkscape:current-layer="svg906220" />
  <path
     style="fill:#5c616c"
     d="M 7,0 V 2 H 6 C 5.45,2 5,2.45 5,3 v 3.8148221 l 0.1049982,0.2901761 v 0 L 5.54,7.54 2.2149397,13.351542 2.1217817,13.658046 v 0 l -0.1010741,1.943733 0.2631259,0.170547 v 0 l 1.4434151,-1.157819 0.22505,-0.259672 v 0 l 0.5651985,-0.996948 0.2374876,-0.05293 c 0.054762,0.02559 -0.055224,-0.02438 0,0 C 5.7787892,13.75693 6.880392,14 8,14 c 1.1124817,0 2.207187,-0.239986 3.225457,-0.686438 0.0618,-0.0271 -0.06123,0.02861 0,0 l 0.239623,0.01359 0.587653,1.036555 0.206741,0.240147 v 0 l 1.456822,1.168574 0.264175,-0.147981 v 0 l -0.102515,-1.971452 -0.112317,-0.334612 v 0 l -0.578504,-1.006747 0.03741,-0.256671 c 0.124541,-0.105033 -0.04111,0.03539 0,0 C 14.987749,10.536961 16,8.3257776 16,6 h -2 c 0,1.5843023 -0.628505,3.1048432 -1.746422,4.22258 -0.05341,0.0534 -0.198061,-0.05112 -0.253695,4.07e-4 v 0 L 10.46,7.54 10.888817,7.1111826 v 0 L 11,6.8189705 V 3 C 11,2.45 10.55,2 10,2 H 9 V 0 Z M 8,4 C 8.55,4 9,4.45 9,5 9,5.55 8.55,6 8,6 7.45,6 7,5.55 7,5 7,4.45 7.45,4 8,4 Z M 6.9209746,9.1561079 c 0.041757,0.020547 0.1725394,-0.1153649 0.2143221,-0.095722 0.549337,0.2582563 1.1032038,0.4210347 1.7211558,0.031745 0.044181,-0.027833 -0.044858,0.033643 0,0 l 0.2157503,0.052014 1.2325592,2.1613191 v 0 c -0.06185,0.02685 -0.01885,0.237252 -0.08146,0.262103 C 9.5164772,11.848103 8.7624579,12 8,12 7.2219501,12 6.4526876,11.841827 5.7333993,11.550194 c -0.048027,-0.01947 0.075207,-0.131877 -0.068192,-0.192072 v 0 z"
     id="path906218"
     sodipodi:nodetypes="ccsscccccccccccccccssscccccccccccccsccsccccccsscccssssscssccccsssccc" />
</svg>
