<?xml version="1.0" encoding="UTF-8" standalone="no"?>
<svg
   width="16"
   height="16"
   version="1.1"
   id="svg4"
   sodipodi:docname="folder-saved-search-symbolic.svg"
   inkscape:version="1.1.2 (0a00cf5339, 2022-02-04)"
   xmlns:inkscape="http://www.inkscape.org/namespaces/inkscape"
   xmlns:sodipodi="http://sodipodi.sourceforge.net/DTD/sodipodi-0.dtd"
   xmlns="http://www.w3.org/2000/svg"
   xmlns:svg="http://www.w3.org/2000/svg">
  <defs
     id="defs8" />
  <sodipodi:namedview
     id="namedview6"
     pagecolor="#ffffff"
     bordercolor="#666666"
     borderopacity="1.0"
     inkscape:pageshadow="2"
     inkscape:pageopacity="0.0"
     inkscape:pagecheckerboard="0"
     showgrid="false"
     inkscape:zoom="51.6875"
     inkscape:cx="7.9903265"
     inkscape:cy="8"
     inkscape:window-width="1916"
     inkscape:window-height="1015"
     inkscape:window-x="0"
     inkscape:window-y="29"
     inkscape:window-maximized="1"
     inkscape:current-layer="svg4" />
  <path
     style="fill:#5c616c"
     d="M 6.5,1 C 3.4624339,1 1,3.4624339 1,6.5 1,9.5375661 3.4624339,12 6.5,12 c 1.0539474,-9.5e-5 2.0843795,-0.302982 2.9693746,-0.870759 0.049742,-0.03191 -0.048801,0.03358 0,0 L 9.7223847,11.13619 13.279,14.693 c 0.188559,0.196161 0.448909,0.307017 0.721,0.307 0.552285,0 1,-0.447715 1,-1 -1.9e-5,-0.270113 -0.109309,-0.528731 -0.303,-0.717 l -3.538871,-3.5385813 -0.04084,-0.266197 c 0.03079,-0.044628 -0.0294,0.045419 0,0 C 11.690952,8.5919001 11.998035,7.5580593 12,6.5 12,3.4624339 9.5375661,1 6.5,1 Z m 0,2 C 8.4329966,3 10,4.5670034 10,6.5 10,8.4329966 8.4329966,10 6.5,10 4.5670034,10 3,8.4329966 3,6.5 3,4.5670034 4.5670034,3 6.5,3 Z"
     id="path2"
     sodipodi:nodetypes="sscsccccccccscssssss" />
</svg>
