<?xml version="1.0" encoding="UTF-8" standalone="no"?>
<svg
   width="16"
   height="16"
   version="1.1"
   id="svg979743"
   sodipodi:docname="mail-outbox-symbolic.svg"
   inkscape:version="1.1.2 (0a00cf5339, 2022-02-04)"
   xmlns:inkscape="http://www.inkscape.org/namespaces/inkscape"
   xmlns:sodipodi="http://sodipodi.sourceforge.net/DTD/sodipodi-0.dtd"
   xmlns="http://www.w3.org/2000/svg"
   xmlns:svg="http://www.w3.org/2000/svg">
  <defs
     id="defs979747" />
  <sodipodi:namedview
     id="namedview979745"
     pagecolor="#ffffff"
     bordercolor="#666666"
     borderopacity="1.0"
     inkscape:pageshadow="2"
     inkscape:pageopacity="0.0"
     inkscape:pagecheckerboard="0"
     showgrid="false"
     inkscape:zoom="51.6875"
     inkscape:cx="7.9903265"
     inkscape:cy="8"
     inkscape:window-width="1920"
     inkscape:window-height="1051"
     inkscape:window-x="0"
     inkscape:window-y="29"
     inkscape:window-maximized="1"
     inkscape:current-layer="svg979743" />
  <path
     style="fill:#5c616c"
     d="M 2,1 C 1,1 1,2 1,2 v 12 c 0,0 0,1 1,1 h 12 c 1,0 1,-1 1,-1 V 2 C 15,2 15,1 14,1 H 8.8337612 l -0.148523,0.2469842 v 0 L 10,3 h 2.678441 V 3 L 13,3.3180234 13,9.7331316 v 0 L 12.765564,10 H 10.20517 l -0.2134569,0.184642 c 0,0.06228 0.00549,-0.06078 0,0 C 9.8994361,11.20707 9.0477207,12 8,12 6.938985,12 6.0789809,11.186819 6.0051423,10.145612 6.0017333,10.097541 5.7894982,10.048985 5.7894982,10 v 0 H 3.2605261 v 0 L 3,9.7166575 v -6.4802786 0 L 3.2170496,3 H 6 L 7.2995227,1.2673031 v 0 L 7.1546181,1 Z"
     id="path979739"
     sodipodi:nodetypes="sccssccsccccccccccccsssccccccccccccs" />
  <path
     style="fill:#5c616c"
     d="M 6,9 V 7.1698617 L 5.8527445,7 V 7 H 4.4237762 V 7 L 4.293786,6.6327675 7.7930128,2.258734 v 0 L 8.21862,2.2732751 11.702632,6.6282898 11.559163,7 V 7 H 10.126424 L 10,7.1239201 v 0 V 9 Z"
     id="path979741"
     sodipodi:nodetypes="cccccccccccccccccc" />
</svg>
