<?xml version="1.0" encoding="UTF-8" standalone="no"?>
<svg
   width="16"
   height="16"
   version="1.1"
   id="svg1056766"
   sodipodi:docname="mail-inbox-symbolic.svg"
   inkscape:version="1.1.2 (0a00cf5339, 2022-02-04)"
   xmlns:inkscape="http://www.inkscape.org/namespaces/inkscape"
   xmlns:sodipodi="http://sodipodi.sourceforge.net/DTD/sodipodi-0.dtd"
   xmlns="http://www.w3.org/2000/svg"
   xmlns:svg="http://www.w3.org/2000/svg">
  <defs
     id="defs1056770" />
  <sodipodi:namedview
     id="namedview1056768"
     pagecolor="#ffffff"
     bordercolor="#666666"
     borderopacity="1.0"
     inkscape:pageshadow="2"
     inkscape:pageopacity="0.0"
     inkscape:pagecheckerboard="0"
     showgrid="false"
     inkscape:zoom="51.6875"
     inkscape:cx="7.9903265"
     inkscape:cy="8"
     inkscape:window-width="1920"
     inkscape:window-height="1051"
     inkscape:window-x="0"
     inkscape:window-y="29"
     inkscape:window-maximized="1"
     inkscape:current-layer="svg1056766" />
  <path
     style="fill:#5c616c"
     d="M 2,1 C 1,1 1,2 1,2 v 12 c 0,0 0,1 1,1 h 12 c 1,0 1,-1 1,-1 V 2 C 15,2 15,1 14,1 H 11.259163 L 11,1.2769786 v 0 1.3849979 L 11.275499,3 v 0 h 1.41001 V 3 L 13,3.2193233 V 9.7454915 L 12.741562,10 v 0 h -2.532781 l -0.2228077,0.239813 c 0,0.0812 0.00926,-0.07859 0,0 C 9.8686062,11.235453 9.0287976,12 8,12 6.9539058,12 6.1032088,11.20953 6.0087222,10.189402 6.00295,10.127082 5.8409152,10.189402 5.832193,10 v 0 H 3.2509258 v 0 L 3,9.7151508 v -6.4788327 0 L 3.2216466,3 H 4.8250949 V 3 L 5,2.8132191 V 1.2994132 L 4.7949455,1 v 0 z"
     id="path1056762"
     sodipodi:nodetypes="sccssccsccccccccccccccsssccccccccccccccs" />
  <path
     style="fill:#5c616c"
     d="M 6,1 V 4.8094015 L 5.8109531,5 V 5 L 4.4882517,5 4.2862858,5.3578572 v 0 l 3.4655056,4.3318821 v 0 l 0.4989166,-0.00312 3.455219,-4.3190234 v 0 L 11.537733,5 h -1.38517 V 5 L 10,4.8323991 V 1 Z"
     id="path1056764"
     sodipodi:nodetypes="cccccccccccccccccc" />
</svg>
