<?xml version="1.0" encoding="UTF-8" standalone="no"?>
<svg
   width="16"
   height="16"
   version="1.1"
   id="svg2329433"
   sodipodi:docname="mail-archive-symbolic.svg"
   inkscape:version="1.1.2 (0a00cf5339, 2022-02-04)"
   xmlns:inkscape="http://www.inkscape.org/namespaces/inkscape"
   xmlns:sodipodi="http://sodipodi.sourceforge.net/DTD/sodipodi-0.dtd"
   xmlns="http://www.w3.org/2000/svg"
   xmlns:svg="http://www.w3.org/2000/svg">
  <defs
     id="defs2329437" />
  <sodipodi:namedview
     id="namedview2329435"
     pagecolor="#ffffff"
     bordercolor="#666666"
     borderopacity="1.0"
     inkscape:pageshadow="2"
     inkscape:pageopacity="0.0"
     inkscape:pagecheckerboard="0"
     showgrid="false"
     inkscape:zoom="51.6875"
     inkscape:cx="7.9903265"
     inkscape:cy="8"
     inkscape:window-width="1920"
     inkscape:window-height="1051"
     inkscape:window-x="0"
     inkscape:window-y="29"
     inkscape:window-maximized="1"
     inkscape:current-layer="svg2329433" />
  <path
     style="fill:#5c616c"
     d="M 4,0 V 1 H 12 V 0 Z M 4,2 V 3 H 12 V 2 Z M 4,4 V 9 H 12 V 4 Z M 5,5 8,6.5 11,5 V 6 L 8,7.5 5,6 Z"
     id="path2329429" />
  <path
     style="fill:#5c616c"
     d="M 2,1 C 1,1 1,2 1,2 v 12 c 0,0 0,1 1,1 h 12 c 1,0 1,-1 1,-1 V 2 C 15,2 15,1 14,1 H 13 V 9.8063986 L 12.863737,10 v 0 h -2.698146 v 0 c 0,0.05309 -0.1676269,0.105675 -0.1716253,0.157684 C 9.9143631,11.193098 9.056911,12 8,12 6.9629861,12 6.1179919,11.223193 6.0113532,10.215914 6.0038479,10.145021 5.8412289,10.072986 5.8412289,10 v 0 h -2.675022 v 0 L 3,9.7776106 3,1 Z"
     id="path2329431"
     sodipodi:nodetypes="sccssccsccccccsssccccccs" />
</svg>
