<?xml version="1.0" encoding="UTF-8" standalone="no"?>
<svg
   width="16"
   height="16"
   version="1.1"
   id="svg4"
   sodipodi:docname="user-trash-symbolic.svg"
   inkscape:version="1.1.2 (0a00cf5339, 2022-02-04)"
   xmlns:inkscape="http://www.inkscape.org/namespaces/inkscape"
   xmlns:sodipodi="http://sodipodi.sourceforge.net/DTD/sodipodi-0.dtd"
   xmlns="http://www.w3.org/2000/svg"
   xmlns:svg="http://www.w3.org/2000/svg">
  <defs
     id="defs8" />
  <sodipodi:namedview
     id="namedview6"
     pagecolor="#ffffff"
     bordercolor="#666666"
     borderopacity="1.0"
     inkscape:pageshadow="2"
     inkscape:pageopacity="0.0"
     inkscape:pagecheckerboard="0"
     showgrid="false"
     inkscape:zoom="51.6875"
     inkscape:cx="7.9903265"
     inkscape:cy="8.0096735"
     inkscape:window-width="1108"
     inkscape:window-height="884"
     inkscape:window-x="168"
     inkscape:window-y="31"
     inkscape:window-maximized="1"
     inkscape:current-layer="svg4" />
  <path
     style="fill:#5c616c"
     d="M 6,1 C 5,1 5,2 5,2 H 2 C 2,2 1,2 1,3 V 3.7765526 L 1.3029835,4 V 4 H 13.74837 V 4 L 14,3.7152089 V 3 C 14,2 13,2 13,2 H 10 C 10,2 10,1 9,1 Z M 2,5.2906047 v 0 V 14 c 0,0.52 0.48,1 1,1 h 9 c 0.52,0 1,-0.48 1,-1 v -8.787897 0 L 12.828033,5 H 2.2588812 Z"
     id="path2"
     sodipodi:nodetypes="sccsccccccsccssccssssccccc" />
</svg>
