<?xml version="1.0" encoding="UTF-8" standalone="no"?>
<svg
   width="16"
   height="16"
   version="1.1"
   id="svg640239"
   sodipodi:docname="workspaces-symbolic.svg"
   inkscape:version="1.1.2 (0a00cf5339, 2022-02-04)"
   xmlns:inkscape="http://www.inkscape.org/namespaces/inkscape"
   xmlns:sodipodi="http://sodipodi.sourceforge.net/DTD/sodipodi-0.dtd"
   xmlns="http://www.w3.org/2000/svg"
   xmlns:svg="http://www.w3.org/2000/svg">
  <defs
     id="defs640243" />
  <sodipodi:namedview
     id="namedview640241"
     pagecolor="#ffffff"
     bordercolor="#666666"
     borderopacity="1.0"
     inkscape:pageshadow="2"
     inkscape:pageopacity="0.0"
     inkscape:pagecheckerboard="0"
     showgrid="false"
     inkscape:zoom="51.6875"
     inkscape:cx="7.9903265"
     inkscape:cy="8"
     inkscape:window-width="1920"
     inkscape:window-height="1051"
     inkscape:window-x="0"
     inkscape:window-y="29"
     inkscape:window-maximized="1"
     inkscape:current-layer="svg640239" />
  <path
     style="fill:#5c616c"
     d="M 3,0 C 1.338,0 0,1.338 0,3 v 10 c 0,1.662 1.338,3 3,3 h 10 c 1.662,0 3,-1.338 3,-3 V 3 C 16,1.338 14.662,0 13,0 Z m 0,2 h 10 c 0.588594,0 1,0.4114055 1,1 v 8.569566 L 13.675947,12 v 0 H 2.2771206 v 0 L 2,11.624047 V 3 C 2,2.4114055 2.4114055,2 3,2 Z m 0.2150079,11 v 0 H 4.7574453 L 5,13.19921 v 0 1.57406 0 L 4.772566,15 H 3.2103731 v 0 L 3,14.792645 v -1.529738 z m 4.0108166,0 v 0 h 1.5906927 v 0 L 9,13.190799 v 1.555003 L 8.8045635,15 v 0 H 7.2353693 v 0 L 7,14.769593 v -1.57059 z m 3.9508445,0 v 0 h 1.597283 v 0 L 13,13.244167 v 1.532891 L 12.803681,15 v 0 h -1.61564 L 11,14.768993 v 0 -1.591969 z"
     id="path640237"
     sodipodi:nodetypes="ssssssssssssccccccssccccccccccccccccccccccccccccccccccccccc" />
</svg>
