<?xml version="1.0" encoding="UTF-8" standalone="no"?>
<svg
   width="32"
   height="32"
   viewBox="0 0 32 32"
   version="1.1"
   id="svg12"
   sodipodi:docname="close-prelight.svg"
   inkscape:version="1.1.2 (0a00cf5339, 2022-02-04)"
   xmlns:inkscape="http://www.inkscape.org/namespaces/inkscape"
   xmlns:sodipodi="http://sodipodi.sourceforge.net/DTD/sodipodi-0.dtd"
   xmlns="http://www.w3.org/2000/svg"
   xmlns:svg="http://www.w3.org/2000/svg">
  <defs
     id="defs16" />
  <sodipodi:namedview
     id="namedview14"
     pagecolor="#ffffff"
     bordercolor="#666666"
     borderopacity="1.0"
     inkscape:pageshadow="2"
     inkscape:pageopacity="0.0"
     inkscape:pagecheckerboard="0"
     showgrid="false"
     inkscape:zoom="48.5625"
     inkscape:cx="16.010296"
     inkscape:cy="16.010296"
     inkscape:window-width="1920"
     inkscape:window-height="1051"
     inkscape:window-x="0"
     inkscape:window-y="29"
     inkscape:window-maximized="1"
     inkscape:current-layer="g10" />
  <rect
     width="32"
     height="32"
     fill="#09090a"
     id="rect2" />
  <rect
     width="32"
     height="1"
     fill="#cccccc"
     fill-opacity=".1"
     id="rect4" />
  <g
     fill="#cccccc"
     id="g10">
    <circle
       cx="16"
       cy="16"
       r="12"
       opacity=".08"
       id="circle6" />
    <path
       d="m 20.602455,12.807545 0.04912,-0.745973 -0.633709,-0.633709 -0.427863,-0.06224 -0.411886,0.04626 -2.942572,2.942572 v 0 l -0.466248,0.0048 -2.972596,-2.972596 -0.675362,-0.09803 v 0 l -0.824013,0.824013 v 0 l 0.146113,0.740759 2.866545,2.866545 -0.0156,0.575633 v 0 l -2.906685,2.906685 0.02304,0.798441 v 0 l 0.60329,0.60329 0.837163,-0.04522 v 0 l 2.837548,-2.837548 v 0 l 0.638742,0.01622 2.83946,2.83949 0.851411,-0.0053 v 0 l 0.663611,-0.663611 v 0 l -0.06037,-0.696445 -2.880835,-2.880835 v 0 l -0.02595,-0.635563 z"
       opacity="0.6"
       id="path8"
       sodipodi:nodetypes="cccccccccccccccccccccccccccccccccccc" />
  </g>
</svg>
