<?xml version="1.0" encoding="UTF-8" standalone="no"?>
<svg
   width="16"
   height="16"
   version="1.1"
   id="svg4"
   sodipodi:docname="application-x-appliance-symbolic.svg"
   inkscape:version="1.1.2 (0a00cf5339, 2022-02-04)"
   xmlns:inkscape="http://www.inkscape.org/namespaces/inkscape"
   xmlns:sodipodi="http://sodipodi.sourceforge.net/DTD/sodipodi-0.dtd"
   xmlns="http://www.w3.org/2000/svg"
   xmlns:svg="http://www.w3.org/2000/svg">
  <defs
     id="defs8" />
  <sodipodi:namedview
     id="namedview6"
     pagecolor="#ffffff"
     bordercolor="#666666"
     borderopacity="1.0"
     inkscape:pageshadow="2"
     inkscape:pageopacity="0.0"
     inkscape:pagecheckerboard="0"
     showgrid="false"
     inkscape:zoom="47.125"
     inkscape:cx="7.9893899"
     inkscape:cy="8"
     inkscape:window-width="1880"
     inkscape:window-height="966"
     inkscape:window-x="0"
     inkscape:window-y="29"
     inkscape:window-maximized="1"
     inkscape:current-layer="svg4" />
  <path
     style="fill:#5c616c"
     d="M 2,-2e-7 C 0.89543048,-2.2760911e-7 -4.9990724e-8,0.89543028 -4.9990724e-8,1.9999998 -1.3264605e-4,2.7146636 0.38108297,3.3750898 0.99999995,3.7324217 V 12.267578 C 0.38108293,12.62491 -1.3268178e-4,13.285336 -4.9990724e-8,14 -4.9990724e-8,15.10457 0.89543048,16 2,16 c 0.7146638,1.33e-4 1.37509,-0.381083 1.7324219,-1 h 8.5351561 c 0.357332,0.618917 1.017758,1.000133 1.732422,1 1.104569,0 2,-0.895431 2,-2 -0.0013,-0.713268 -0.38229,-1.371883 -1,-1.728516 V 3.7324217 c 0.618917,-0.3573319 1.000133,-1.0177581 1,-1.7324219 0,-1.1045695 -0.895431,-2 -2,-2 -0.714664,-1.3263179e-4 -1.37509,0.38108298 -1.732422,1 H 3.7285156 C 3.3718822,0.38229011 2.7132679,0.00126122 2,-2e-7 Z m 1.7324219,3 h 0.3461836 7.9785375 0.210435 c 0.01151,0.01514 -0.45603,-0.044922 -0.210435,0 l 0.05063,0.2381935 -0.931995,0.9239159 C 10.966317,4.0559165 10.734845,4.00039 10.5,3.9999998 9.8679683,4.0041833 9.3063709,4.404097 9.0957031,5.0000002 H 7.0704809 6.9101562 c 0.1603247,0 -0.044754,-0.1140094 -0.071756,-0.1680339 C 6.5857331,4.3264368 6.070493,4.000108 5.5,3.9999998 5.2769075,4.000422 5.0567174,4.0511324 4.8554688,4.1484373 L 3.997592,3.2905606 4.0786055,2.9999998 c 0.3579024,-0.013672 -0.3500693,0.00457 -0.3461836,0 z m -0.732422,1.0367191 0.354089,0.024401 0.7943486,0.7943484 v 0.002 C 4.0506376,5.062806 3.9999006,5.2877859 4,5.5156752 4.00473,6.1539674 4.4045407,6.7208911 5,6.9336432 v 2.16211 C 4.404097,9.3064211 4.0041835,9.8680185 4,10.50005 c 6.2e-6,0.223722 0.050056,0.44461 0.1464844,0.646484 l -0.871298,0.871298 -0.2615145,0.261515 C 3.2751864,12.017832 3.2797584,12.020432 3.2751864,12.017832 L 2.9999999,11.951792 V 4.0367189 3.7324217 c 0,0.3042972 -0.00454,0.308226 0,0.3042972 z M 13,4.0579824 v 0 7.8938096 l 0.01367,-0.01172 c -0.259962,-0.234572 0,-0.315785 -0.01367,0.01172 l -0.259962,0.08121 -0.886522,-0.886522 C 11.949944,10.94461 11.999994,10.723722 12,10.5 11.999109,9.8650978 11.598592,9.2995239 11,9.0878902 v -2.183593 c 0.595903,-0.210668 0.995817,-0.7722654 1,-1.404297 -2.62e-4,-0.2121631 -0.04553,-0.4218571 -0.132812,-0.615235 l 0.915524,-0.9076317 z m -6.1342465,2.0614525 0.226033,-0.1194347 2.0039166,0 C 9.2470999,6.4212666 9.5787337,6.7529004 10,6.9042972 v 2.191406 C 9.5787337,9.2471 9.2470999,9.5787337 9.0957031,10 H 6.9121094 C 6.7609991,9.5740851 6.4259148,9.2390006 6,9.0878902 v -2.154297 c 0.3884034,-0.140726 0.7004503,-0.4361271 0.8657535,-0.8141583 0.017036,-0.03896 -0.013842,0.040637 0,0 z M 6.9042994,11 H 7.049784 8.8741283 v 0 c 0.021621,0.06116 0.2685125,0.12025 0.2972225,0.177063 C 9.4223857,11.673821 9.9328334,11.996246 10.5,12 c 0.223722,-6e-6 0.44461,-0.05006 0.646484,-0.146484 l 0.907482,0.907481 -0.124048,0.239001 c -0.349379,0.01367 -0.213611,-0.239001 0,0 v 0 H 3.9726886 l 0.027785,-0.271959 c 0.244173,0 0.244173,0 -0.00781,-0.01367 v 0 l 0.860852,-0.860855 C 5.05539,11.949942 5.2762778,11.999992 5.5,11.999998 6.0778678,11.996158 6.5968562,11.661536 6.8425802,11.148757 6.865612,11.100694 7.0317302,11.051068 7.049784,11 Z"
     id="path2"
     sodipodi:nodetypes="ccccccccccccccccccccccccccccsccccccccccccccccccccccccccccccccccccccccccccscccccsccccccccccccscc" />
</svg>
