<?xml version="1.0" encoding="UTF-8" standalone="no"?>
<svg
   width="16"
   height="16"
   version="1.1"
   id="svg20070"
   sodipodi:docname="package-x-generic-symbolic.svg"
   inkscape:version="1.1.2 (0a00cf5339, 2022-02-04)"
   xmlns:inkscape="http://www.inkscape.org/namespaces/inkscape"
   xmlns:sodipodi="http://sodipodi.sourceforge.net/DTD/sodipodi-0.dtd"
   xmlns="http://www.w3.org/2000/svg"
   xmlns:svg="http://www.w3.org/2000/svg">
  <defs
     id="defs20074" />
  <sodipodi:namedview
     id="namedview20072"
     pagecolor="#ffffff"
     bordercolor="#666666"
     borderopacity="1.0"
     inkscape:pageshadow="2"
     inkscape:pageopacity="0.0"
     inkscape:pagecheckerboard="0"
     showgrid="false"
     inkscape:zoom="51.6875"
     inkscape:cx="8.0096735"
     inkscape:cy="8"
     inkscape:window-width="1920"
     inkscape:window-height="1051"
     inkscape:window-x="0"
     inkscape:window-y="29"
     inkscape:window-maximized="1"
     inkscape:current-layer="svg20070" />
  <path
     style="fill:#5c616c"
     d="m 7.8397462,0.08012689 v 0 L 1.1254175,3.4372912 v 0 L 1,3.7255771 v 8.5444659 l 0.1762054,0.31806 v 0 l 6.653808,3.326904 0.3449101,-0.0025 v 0 L 14.821702,12.589149 14.808596,12.5 15,12.250262 15,3.7015013 14.835093,3.4175466 v 0 L 8.2110894,0.10554468 Z M 8.1962796,2.3481398 v 0 L 12.76033,4.6301649 v 0 L 13,4.9893883 v 6.0370937 l -0.162883,0.304959 v 0 l -4.5267893,2.263395 v 0 L 8,13.347643 V 7.1376563 L 7.84083,6.9283735 v 0 L 3.32857,4.8978565 3.2844799,4.6077601 v 0 L 7.7674683,2.3662658 Z"
     id="path20068"
     sodipodi:nodetypes="cccccccccccccccccccccccccccccccccccccc" />
</svg>
