<?xml version="1.0" encoding="UTF-8" standalone="no"?>
<svg
   width="16"
   height="16"
   version="1.1"
   id="svg451995"
   sodipodi:docname="playlist-symbolic.svg"
   inkscape:version="1.1.2 (0a00cf5339, 2022-02-04)"
   xmlns:inkscape="http://www.inkscape.org/namespaces/inkscape"
   xmlns:sodipodi="http://sodipodi.sourceforge.net/DTD/sodipodi-0.dtd"
   xmlns="http://www.w3.org/2000/svg"
   xmlns:svg="http://www.w3.org/2000/svg">
  <defs
     id="defs451999" />
  <sodipodi:namedview
     id="namedview451997"
     pagecolor="#ffffff"
     bordercolor="#666666"
     borderopacity="1.0"
     inkscape:pageshadow="2"
     inkscape:pageopacity="0.0"
     inkscape:pagecheckerboard="0"
     showgrid="false"
     inkscape:zoom="146.19433"
     inkscape:cx="13.146885"
     inkscape:cy="10.191914"
     inkscape:window-width="1050"
     inkscape:window-height="836"
     inkscape:window-x="315"
     inkscape:window-y="31"
     inkscape:window-maximized="1"
     inkscape:current-layer="svg451995" />
  <path
     style="fill:#5c616c"
     d="M 3,3 V 5 H 13 V 3 Z M 3,7 V 9 H 9 V 7 Z M 3,11 V 13 H 7 V 11 Z"
     id="path451991" />
  <path
     style="fill:#5c616c"
     d="M 10.348667,7 10,7.2917737 v 3.5618833 l -0.2144207,0.178204 c -0.066712,-0.02224 0.075062,0.01564 0,0 C 9.6918681,11.012332 9.5943925,11 9.5,11 8.67,11 8,11.67 8,12.5 8,13.33 8.67,14 9.5,14 10.33,14 11,13.33 11,12.5 V 9.1993593 L 11.201684,9 v 0 h 2.615549 V 9 L 14,9.1473665 v 1.7845815 l -0.114264,0.123758 c -0.0365,-0.01217 0.03948,0.01055 0,0 C 13.762984,11.0229 13.628629,11 13.5,11 12.67,11 12,11.67 12,12.5 12,13.33 12.67,14 13.5,14 14.33,14 15,13.33 15,12.5 V 7.2984514 L 14.693685,7 v 0 z"
     id="path451993"
     sodipodi:nodetypes="ccccsssssccccccccssssscccc" />
</svg>
