<?xml version="1.0" encoding="UTF-8" standalone="no"?>
<svg
   width="16"
   height="16"
   version="1.1"
   id="svg508622"
   sodipodi:docname="text-html-symbolic.svg"
   inkscape:version="1.1.2 (0a00cf5339, 2022-02-04)"
   xmlns:inkscape="http://www.inkscape.org/namespaces/inkscape"
   xmlns:sodipodi="http://sodipodi.sourceforge.net/DTD/sodipodi-0.dtd"
   xmlns="http://www.w3.org/2000/svg"
   xmlns:svg="http://www.w3.org/2000/svg">
  <defs
     id="defs508626" />
  <sodipodi:namedview
     id="namedview508624"
     pagecolor="#ffffff"
     bordercolor="#666666"
     borderopacity="1.0"
     inkscape:pageshadow="2"
     inkscape:pageopacity="0.0"
     inkscape:pagecheckerboard="0"
     showgrid="false"
     inkscape:zoom="51.6875"
     inkscape:cx="7.9903265"
     inkscape:cy="8"
     inkscape:window-width="1920"
     inkscape:window-height="1051"
     inkscape:window-x="0"
     inkscape:window-y="29"
     inkscape:window-maximized="1"
     inkscape:current-layer="svg508622" />
  <path
     style="fill:#5c616c"
     d="M 8,1 C 4.13,1 1,4.13 1,8 c 0,3.87 3.13,7 7,7 3.87,0 7,-3.13 7,-7 C 15,4.13 11.87,1 8,1 Z M 7.5,2.94 c 0.07,-0.01 -0.07,0 0,0 C 7.51,2.97 7.67,3.08 7.59,3.25 7.11,4.31 7.08,5.55 7.53,6.22 7.61,6.34 7.5441852,6.3293922 7.5441852,6.3493922 7.5441852,6.3593922 7.6,6.5 7.5,6.5 7.27,6.5 7.05,6.36 6.59,6 6.39,5.84 6.13,5.71 6.03,5.69 5.87,5.66 5.83,5.67 5.63,5.87 c -0.2,0.2 -0.25,0.3 -0.25,0.47 0,0.67 0.78,1.19 2.25,1.5 1.98,0.42 2.47,0.8 2.53,1.85 0.07,1.31 -0.63,2.3 -2.16,3.06 -0.18,0.09 -0.3,0.13 -0.37,0.16 -0.04,-0.01 0.04,0 0,0 C 7.62,12.87 7.5,12.77 7.5,12.59 7.5,11.9 7.23,11.18 6.81,10.78 6.7,10.67 6.39,10.45 6.13,10.28 5.86,10.12 5.59,9.93 5.53,9.84 5.43,9.71 5.42,9.63 5.5,9.37 5.64,8.92 5.8,8.66 6.13,8.37 6.29,8.22 6.46,8.1 6.5,8.09 6.54,8.09 6.29,8.01 5.91,7.94 5.53,7.86 4.97,7.7 4.69,7.59 4.16,7.4 3.46,7.01 3.19,6.72 L 3.16,6.69 C 3.54,5.15 4.63,3.89 6.06,3.28 6.36,3.15 6.67,3.07 7,3 7.16,2.97 7.33,2.95 7.5,2.94 Z m 4.69,2.34 c 0.110333,0.1460838 0.06354,0.067315 0.110333,0.1460838 C 12.479172,5.7271184 12.776961,6.4074746 12.88,6.78 c 0.16,0.61 0.15,1.65 0,2.25 -0.06,0.23 -0.36,0.13 -0.38,0.16 -0.03,0.03 0.11,0.18 0,0 C 12.4,9 12.06,8.61 11.78,8.31 10.98,7.46 10.85,7.02 11.19,6.34 11.316694,6.0866111 11.759975,5.594394 12.014849,5.3807599 12.101967,5.3077374 12.300333,5.4260838 12.19,5.28 Z"
     id="path508620"
     sodipodi:nodetypes="sssssccccssccsscccccsccccccccccccccscccccssc" />
</svg>
