<?xml version="1.0" encoding="UTF-8" standalone="no"?>
<svg
   width="16"
   height="16"
   version="1.1"
   id="svg527703"
   sodipodi:docname="video-x-generic-symbolic.svg"
   inkscape:version="1.1.2 (0a00cf5339, 2022-02-04)"
   xmlns:inkscape="http://www.inkscape.org/namespaces/inkscape"
   xmlns:sodipodi="http://sodipodi.sourceforge.net/DTD/sodipodi-0.dtd"
   xmlns="http://www.w3.org/2000/svg"
   xmlns:svg="http://www.w3.org/2000/svg">
  <defs
     id="defs527707" />
  <sodipodi:namedview
     id="namedview527705"
     pagecolor="#ffffff"
     bordercolor="#666666"
     borderopacity="1.0"
     inkscape:pageshadow="2"
     inkscape:pageopacity="0.0"
     inkscape:pagecheckerboard="0"
     showgrid="false"
     inkscape:zoom="51.6875"
     inkscape:cx="12.962515"
     inkscape:cy="8"
     inkscape:window-width="822"
     inkscape:window-height="841"
     inkscape:window-x="543"
     inkscape:window-y="31"
     inkscape:window-maximized="1"
     inkscape:current-layer="svg527703" />
  <path
     style="fill:#5c616c"
     d="m 2,3 h 9 c 1,0 1,1 1,1 v 8 c 0,1 -1,1 -1,1 H 2 C 2,13 1,13 1,12 V 4 C 1,4 1,3 2,3 Z m 14,2.1323396 v 0 L 15.854567,5.1100896 16,5.4119334 V 10.998724 L 15.858822,11.287688 16,11.426894 15.858822,11.287688 v 0 l -0.396985,0.02892 -0.135361,0.0099 v 0 l 0.135361,-0.0099 -0.297998,-0.152775 -2.664849,-2.6648448 v 0 l -0.156992,-0.3244876 -0.01355,-0.3292412 -0.0053,-0.1280409 0.0053,0.1280409 0.183027,-0.2928012 2.663057,-2.3301739 0.210348,-0.1840547 -0.210348,0.1840547 0.462984,-0.1454036 0.217051,0.033207 z"
     id="path527701"
     sodipodi:nodetypes="sscsccscsccccccccccccccccccccccccccc" />
</svg>
