<?xml version="1.0" encoding="UTF-8" standalone="no"?>
<svg
   width="16"
   height="16"
   version="1.1"
   id="svg2051578"
   sodipodi:docname="x-office-presentation-symbolic.svg"
   inkscape:version="1.1.2 (0a00cf5339, 2022-02-04)"
   xmlns:inkscape="http://www.inkscape.org/namespaces/inkscape"
   xmlns:sodipodi="http://sodipodi.sourceforge.net/DTD/sodipodi-0.dtd"
   xmlns="http://www.w3.org/2000/svg"
   xmlns:svg="http://www.w3.org/2000/svg">
  <defs
     id="defs2051582" />
  <sodipodi:namedview
     id="namedview2051580"
     pagecolor="#ffffff"
     bordercolor="#666666"
     borderopacity="1.0"
     inkscape:pageshadow="2"
     inkscape:pageopacity="0.0"
     inkscape:pagecheckerboard="0"
     showgrid="false"
     inkscape:zoom="51.6875"
     inkscape:cx="8.0096735"
     inkscape:cy="9.547763"
     inkscape:window-width="680"
     inkscape:window-height="841"
     inkscape:window-x="685"
     inkscape:window-y="31"
     inkscape:window-maximized="1"
     inkscape:current-layer="svg2051578" />
  <path
     style="fill:#5c616c"
     d="M 7.4922,9.9922 C 7.2160551,9.9965019 6.9956862,10.223855 7,10.5 v 1.914186 l -0.1886069,0.477206 v 0 L 5.1992,14.1 c -0.5333331,0.401066 0.068267,1.201066 0.6016,0.8 l 1.5521932,-1.164693 0.2660031,-0.02102 v 0 L 9.1992,14.9 c 0.5333331,0.401067 1.134933,-0.398933 0.6016,-0.8 L 8.187783,12.890775 v 0 L 8,12.404343 V 10.5 C 8.0044095,10.217743 7.7744565,9.9877905 7.4922,9.9922 Z"
     id="path2051572"
     sodipodi:nodetypes="ccccccccccccccccc" />
  <path
     style="fill:#5c616c"
     d="M 2,2 H 14 C 14.554,2 15,2.446 15,3 15,3.554 14.554,4 14,4 H 2 C 1.446,4 1,3.554 1,3 1,2.446 1.446,2 2,2 Z"
     id="path2051574" />
  <path
     style="fill:#5c616c"
     d="m 2,3 v 7.729902 L 2.2103034,11 v 0 H 13.731756 v 0 L 14,10.719043 V 3 Z m 6,1.1640105 c 0.051842,0 0.1032242,-0.162038 0.1540743,-0.158164 0.988385,0.075301 1.7759067,0.869016 1.8415032,1.860084 C 9.9985103,5.9102414 9.8706946,5.9549467 9.8706946,6 V 6 H 8.1408139 V 6 L 8,5.7912205 Z M 7,5.109016 v 0 1.6862442 L 7.2008897,7 V 7 H 8.8324304 L 8.996517,7.1190212 c 0,0.039958 0.00231,-0.039378 0,0 C 8.9349412,8.1681828 8.0646113,9 7,9 5.8954305,9 5,8.1045695 5,7 5,5.9449035 5.8170153,5.0806311 6.8529014,5.0053273 6.9014736,5.0017963 6.950527,5.109016 7,5.109016 Z"
     id="path2051576"
     sodipodi:nodetypes="ccccccccccssccccccccccccccssssc" />
</svg>
