<?xml version="1.0" encoding="UTF-8" standalone="no"?>
<svg
   width="24"
   height="24"
   viewBox="0 0 24 24"
   fill="#cccccc"
   version="1.1"
   id="svg6"
   sodipodi:docname="sheet_style_close_focused.svg"
   inkscape:version="1.1.2 (0a00cf5339, 2022-02-04)"
   xmlns:inkscape="http://www.inkscape.org/namespaces/inkscape"
   xmlns:sodipodi="http://sodipodi.sourceforge.net/DTD/sodipodi-0.dtd"
   xmlns="http://www.w3.org/2000/svg"
   xmlns:svg="http://www.w3.org/2000/svg">
  <defs
     id="defs10" />
  <sodipodi:namedview
     id="namedview8"
     pagecolor="#000000"
     bordercolor="#666666"
     borderopacity="1.0"
     inkscape:pageshadow="2"
     inkscape:pageopacity="0"
     inkscape:pagecheckerboard="0"
     showgrid="false"
     inkscape:zoom="64.75"
     inkscape:cx="12.007722"
     inkscape:cy="15.714286"
     inkscape:window-width="1920"
     inkscape:window-height="1051"
     inkscape:window-x="0"
     inkscape:window-y="29"
     inkscape:window-maximized="1"
     inkscape:current-layer="svg6" />
  <circle
     cx="12"
     cy="12"
     r="10"
     opacity="0"
     id="circle2" />
  <path
     d="m 16.726185,8.41 0.03297,-0.2408415 -0.829983,-0.8299839 -0.322824,-0.028487 -0.437444,0.1104055 -2.750014,2.7500149 -0.771286,0.0665 v 0 L 8.7192466,7.3092466 v 0 L 8.1298718,7.2801282 7.3007107,8.1092893 v 0 l 0.034774,0.6361952 2.8473193,2.8473195 0.0042,0.810236 v 0 l -2.8075702,2.807531 -0.044774,0.714088 v 0 l 0.8237489,0.823749 0.583382,-0.0802 v 0 l 2.9090727,-2.909073 v 0 l 0.82402,0.125746 2.733158,2.733158 0.726973,0.03694 v 0 l 0.752704,-0.752704 v 0 l -0.05261,-0.677174 -2.915881,-2.915881 v 0 l 0.05336,-0.671817 2.842244,-2.8422443 z"
     opacity="0.6"
     id="path4"
     sodipodi:nodetypes="ccccccccccccccccccccccccccccccccccccc" />
</svg>
