<?xml version="1.0" encoding="UTF-8" standalone="no"?>
<svg
   width="24"
   height="24"
   viewBox="0 0 24 24"
   fill="#cccccc"
   version="1.1"
   id="svg6"
   sodipodi:docname="close_dash_disabled.svg"
   inkscape:version="1.1.2 (0a00cf5339, 2022-02-04)"
   xmlns:inkscape="http://www.inkscape.org/namespaces/inkscape"
   xmlns:sodipodi="http://sodipodi.sourceforge.net/DTD/sodipodi-0.dtd"
   xmlns="http://www.w3.org/2000/svg"
   xmlns:svg="http://www.w3.org/2000/svg">
  <defs
     id="defs10" />
  <sodipodi:namedview
     id="namedview8"
     pagecolor="#000000"
     bordercolor="#666666"
     borderopacity="1.0"
     inkscape:pageshadow="2"
     inkscape:pageopacity="0"
     inkscape:pagecheckerboard="0"
     showgrid="false"
     inkscape:zoom="90.509668"
     inkscape:cx="13.296922"
     inkscape:cy="9.6067085"
     inkscape:window-width="1920"
     inkscape:window-height="1051"
     inkscape:window-x="0"
     inkscape:window-y="29"
     inkscape:window-maximized="1"
     inkscape:current-layer="svg6" />
  <circle
     cx="12"
     cy="12"
     r="10"
     opacity="0"
     id="circle2" />
  <path
     d="m 16.712781,8.6972191 0.04495,-0.5294894 -0.8193,-0.8193 -0.34843,0.02581 -0.397338,0.023098 -2.869228,2.8692283 v 0 L 11.709133,10.299133 8.6925719,7.2825719 8.1731797,7.2368203 v 0 l -0.8656923,0.8656923 -0.066279,0.358942 0.032947,0.2227009 3.0526295,3.0526295 -0.03309,0.559517 v 0 l -3.0365745,3.036574 0.050075,0.246075 -0.015918,0.30233 0.8781691,0.878169 0.2736951,0.0012 0.2771531,-0.07096 2.9843813,-2.984381 v 0 l 0.593568,0.0029 3.027557,3.027557 0.48448,0.04391 v 0 l 0.980812,-0.980812 v 0 l 0.0031,-0.414677 L 13.759063,12.349063 13.572062,12 13.704989,11.705011 Z"
     opacity="0.3"
     id="path4"
     sodipodi:nodetypes="ccccccccccccccccccccccccccccccccccccc" />
</svg>
