<?xml version="1.0" encoding="UTF-8" standalone="no"?>
<svg
   width="32"
   height="32"
   viewBox="0 0 32 32"
   version="1.1"
   id="svg12"
   sodipodi:docname="close-active.svg"
   inkscape:version="1.1.2 (0a00cf5339, 2022-02-04)"
   xmlns:inkscape="http://www.inkscape.org/namespaces/inkscape"
   xmlns:sodipodi="http://sodipodi.sourceforge.net/DTD/sodipodi-0.dtd"
   xmlns="http://www.w3.org/2000/svg"
   xmlns:svg="http://www.w3.org/2000/svg">
  <defs
     id="defs16" />
  <sodipodi:namedview
     id="namedview14"
     pagecolor="#ffffff"
     bordercolor="#666666"
     borderopacity="1.0"
     inkscape:pageshadow="2"
     inkscape:pageopacity="0.0"
     inkscape:pagecheckerboard="0"
     showgrid="false"
     inkscape:zoom="68.677746"
     inkscape:cx="17.320021"
     inkscape:cy="20.392341"
     inkscape:window-width="1920"
     inkscape:window-height="1051"
     inkscape:window-x="0"
     inkscape:window-y="29"
     inkscape:window-maximized="1"
     inkscape:current-layer="g10" />
  <rect
     width="32"
     height="32"
     fill="#09090a"
     id="rect2" />
  <rect
     width="32"
     height="1"
     fill="#cccccc"
     fill-opacity=".1"
     id="rect4" />
  <g
     fill="#cccccc"
     id="g10">
    <circle
       cx="16"
       cy="16"
       r="12"
       opacity="0"
       id="circle6" />
    <path
       d="m 20.623007,12.786993 0.09238,-0.661608 -0.701005,-0.701005 v 0 l -0.89654,0.04778 -2.626032,2.626032 v 0 l -0.91001,0.07361 -2.839059,-2.839059 v 0 l -0.719545,0.05407 -0.632054,0.632054 -0.04499,0.737287 v 0 l 2.892855,2.892855 v 0 l -0.05322,0.755216 -2.826285,2.826285 -0.07001,0.648987 v 0 l 0.750929,0.750929 0.442677,0.02878 0.372488,-0.104784 2.796068,-2.796068 v 0 l 0.775054,0.07836 2.824081,2.824081 0.631232,0.04719 v 0 l 0.802006,-0.802013 v 0 l 0.01045,-0.6215 -2.742653,-2.742653 -0.114127,-0.969513 v 0 z"
       opacity="0.6"
       id="path8"
       sodipodi:nodetypes="cccccccccccccccccccccccccccccccccccc" />
  </g>
</svg>
