<?xml version="1.0" encoding="UTF-8" standalone="no"?>
<svg
   width="16"
   height="16"
   version="1.1"
   id="svg2295736"
   sodipodi:docname="audio-card-symbolic.svg"
   inkscape:version="1.1.2 (0a00cf5339, 2022-02-04)"
   xmlns:inkscape="http://www.inkscape.org/namespaces/inkscape"
   xmlns:sodipodi="http://sodipodi.sourceforge.net/DTD/sodipodi-0.dtd"
   xmlns="http://www.w3.org/2000/svg"
   xmlns:svg="http://www.w3.org/2000/svg">
  <defs
     id="defs2295740" />
  <sodipodi:namedview
     id="namedview2295738"
     pagecolor="#ffffff"
     bordercolor="#666666"
     borderopacity="1.0"
     inkscape:pageshadow="2"
     inkscape:pageopacity="0.0"
     inkscape:pagecheckerboard="0"
     showgrid="false"
     inkscape:zoom="51.6875"
     inkscape:cx="7.9903265"
     inkscape:cy="8"
     inkscape:window-width="1920"
     inkscape:window-height="1051"
     inkscape:window-x="0"
     inkscape:window-y="29"
     inkscape:window-maximized="1"
     inkscape:current-layer="svg2295736" />
  <path
     style="fill:#5c616c"
     d="M 3,1 C 1,1 1,3 1,3 v 9 c 0,2 2,2 2,2 h 10 c 2,0 2,-2 2,-2 V 3 C 15,3 15,1 13,1 Z M 6,4.2457407 6.2639199,4 H 10.751436 L 11,4.2495997 v 0 V 9.5 C 11,10.33 10.33,11 9.5,11 8.67,11 8,10.33 8,9.5 8,8.67 8.67,8 9.5,8 9.67,8 9.85,8.04 10,8.09 V 6.236386 L 9.8594766,6 V 6 H 7.1796733 V 6 L 7,6.2085782 V 9.5 C 7,10.33 6.33,11 5.5,11 4.67,11 4,10.33 4,9.5 4,8.67 4.67,8 5.5,8 5.67,8 5.85,8.04 6,8.09 Z"
     id="path2295734"
     sodipodi:nodetypes="scscsccsscccccsssscccccccssssccc" />
</svg>
