<?xml version="1.0" encoding="UTF-8" standalone="no"?>
<svg
   width="16"
   height="16"
   version="1.1"
   id="svg2765396"
   sodipodi:docname="audio-headphones-symbolic.svg"
   inkscape:version="1.1.2 (0a00cf5339, 2022-02-04)"
   xmlns:inkscape="http://www.inkscape.org/namespaces/inkscape"
   xmlns:sodipodi="http://sodipodi.sourceforge.net/DTD/sodipodi-0.dtd"
   xmlns="http://www.w3.org/2000/svg"
   xmlns:svg="http://www.w3.org/2000/svg">
  <defs
     id="defs2765400" />
  <sodipodi:namedview
     id="namedview2765398"
     pagecolor="#ffffff"
     bordercolor="#666666"
     borderopacity="1.0"
     inkscape:pageshadow="2"
     inkscape:pageopacity="0.0"
     inkscape:pagecheckerboard="0"
     showgrid="false"
     inkscape:zoom="51.6875"
     inkscape:cx="7.9903265"
     inkscape:cy="8"
     inkscape:window-width="1920"
     inkscape:window-height="1051"
     inkscape:window-x="0"
     inkscape:window-y="29"
     inkscape:window-maximized="1"
     inkscape:current-layer="svg2765396" />
  <path
     style="fill:#5c616c"
     d="M 8,2 C 4.68,2 2,4.68 2,8 v 4 c 0,0 0,2 2,2 H 5.8577324 L 6,13.75356 v 0 -4.5353107 L 5.816176,9 V 9 H 4.1437401 V 9 L 4,8.8000538 V 8 C 4,5.78 5.78,4 8,4 c 2.22,0 4,1.78 4,4 V 8.7909483 L 11.828706,9 V 9 H 10.19677 L 10,9.253317 v 0 4.533823 0 L 10.194349,14 H 12 c 0,0 2,0 2,-2 V 8 C 14,4.68 11.32,2 8,2 Z"
     id="path2765394"
     sodipodi:nodetypes="sscscccccccccsssccccccccccsss" />
</svg>
