<?xml version="1.0" encoding="UTF-8" standalone="no"?>
<svg
   width="16"
   height="16"
   version="1.1"
   id="svg1615460"
   sodipodi:docname="camera-web-symbolic.svg"
   inkscape:version="1.1.2 (0a00cf5339, 2022-02-04)"
   xmlns:inkscape="http://www.inkscape.org/namespaces/inkscape"
   xmlns:sodipodi="http://sodipodi.sourceforge.net/DTD/sodipodi-0.dtd"
   xmlns="http://www.w3.org/2000/svg"
   xmlns:svg="http://www.w3.org/2000/svg">
  <defs
     id="defs1615464" />
  <sodipodi:namedview
     id="namedview1615462"
     pagecolor="#ffffff"
     bordercolor="#666666"
     borderopacity="1.0"
     inkscape:pageshadow="2"
     inkscape:pageopacity="0.0"
     inkscape:pagecheckerboard="0"
     showgrid="false"
     inkscape:zoom="51.6875"
     inkscape:cx="7.9903265"
     inkscape:cy="8"
     inkscape:window-width="1920"
     inkscape:window-height="1051"
     inkscape:window-x="0"
     inkscape:window-y="29"
     inkscape:window-maximized="1"
     inkscape:current-layer="svg1615460" />
  <path
     style="fill:#5c616c"
     d="M 7.90625,7.8624652e-5 C 4.0769179,0.05136891 0.99965654,3.170403 1,7.0000786 c 1.806e-4,2.6413934 1.4863045,5.0508874 3.8305065,6.2408804 0.065596,0.0333 -0.1157991,0.150078 -0.048873,0.181445 -0.083379,0.02785 0.081598,-0.02842 0,0 C 3.8142765,13.759369 3,14.132726 3,14.44539 v 0.777344 c 0,0.430889 0.3723178,0.777344 0.8339844,0.777344 H 12.166016 C 12.627683,16.000078 13,15.653623 13,15.222734 V 14.44539 c 0,-0.313243 -0.817296,-0.687405 -1.787012,-1.024859 -0.07985,-0.02779 0.0563,-0.161634 -0.02524,-0.18887 0.07314,-0.03428 -0.07155,0.03658 0,0 C 13.521406,12.038447 14.99982,9.6346111 15,7.0000786 15,3.1340854 11.865993,7.8624652e-5 8,7.8624652e-5 c -0.03125,-2.09265742e-4 -0.0625,-2.09265742e-4 -0.09375,0 z M 7.939453,3.0000786 c 0.020182,-1.527e-4 0.040365,-1.527e-4 0.060547,0 2.209139,0 4,1.790861 4,4 0,2.2091392 -1.790861,4.0000004 -4,4.0000004 -2.2091392,0 -4.0000002,-1.7908612 -4,-4.0000004 -2.504e-4,-2.1857083 1.7539951,-3.9669155 3.939453,-4 z m 0.011719,2 C 6.865717,5.0265868 5.9996764,5.9143 6,7.0000786 c 0,1.1045695 0.8954305,2 2,2 1.1045695,0 2,-0.8954305 2,-2 0,-1.1045695 -0.8954305,-2 -2,-2 -0.016275,-1.987e-4 -0.032553,-1.987e-4 -0.048828,0 z"
     id="path1615458"
     sodipodi:nodetypes="ccscsssssssscscccccssccccsscc" />
</svg>
