<?xml version="1.0" encoding="UTF-8" standalone="no"?>
<svg
   width="16"
   height="16"
   version="1.1"
   id="svg2487809"
   sodipodi:docname="audio-card-usb-symbolic.svg"
   inkscape:version="1.1.2 (0a00cf5339, 2022-02-04)"
   xmlns:inkscape="http://www.inkscape.org/namespaces/inkscape"
   xmlns:sodipodi="http://sodipodi.sourceforge.net/DTD/sodipodi-0.dtd"
   xmlns="http://www.w3.org/2000/svg"
   xmlns:svg="http://www.w3.org/2000/svg">
  <defs
     id="defs2487813" />
  <sodipodi:namedview
     id="namedview2487811"
     pagecolor="#ffffff"
     bordercolor="#666666"
     borderopacity="1.0"
     inkscape:pageshadow="2"
     inkscape:pageopacity="0.0"
     inkscape:pagecheckerboard="0"
     showgrid="false"
     inkscape:zoom="51.6875"
     inkscape:cx="7.9903265"
     inkscape:cy="8"
     inkscape:window-width="1920"
     inkscape:window-height="1051"
     inkscape:window-x="0"
     inkscape:window-y="29"
     inkscape:window-maximized="1"
     inkscape:current-layer="svg2487809" />
  <path
     style="fill:#5c616c"
     d="m 7.7863115,0.34190161 v 0 L 5.756964,3.5888576 v 0 L 5.9414688,4 H 6.8027911 V 4 L 7,4.141203 7,9 H 4.1630942 L 4,8.8492457 v 0 V 7.7305 C 4.62,7.3705 5,6.71 5,6 5,4.9 4.1,4 3,4 1.9,4 1,4.9 1,6 1,6.71 1.38,7.3705 2,7.7305 V 9 c 0,2 2,2 2,2 h 3 v 1.27 C 6.38,12.63 6,13.29 6,14 c 0,1.1 0.9,2 2,2 1.1,0 2,-0.9 2,-2 0,-0.71 -0.38,-1.37 -1,-1.73 V 11 h 3 c 0,0 2,0 2,-2 V 8 c 0.554,0 1,-0.446 1,-1 V 5 C 15,4.446 14.554,4 14,4 h -2 c -0.554,0 -1,0.446 -1,1 v 2 c 0,0.554 0.446,1 1,1 V 8.8804331 L 11.867598,9 V 9 H 9 V 4.1735311 L 9.12705,4 v 0 h 0.974631 V 4 L 10.272813,3.6365007 8.217639,0.34822247 Z"
     id="path2487807"
     sodipodi:nodetypes="cccccccccccccssscscccssscccscssssssccccccccccccc" />
</svg>
