<?xml version="1.0" encoding="UTF-8" standalone="no"?>
<svg
   width="16"
   height="16"
   version="1.1"
   id="svg3592428"
   sodipodi:docname="laptop-symbolic.svg"
   inkscape:version="1.1.2 (0a00cf5339, 2022-02-04)"
   xmlns:inkscape="http://www.inkscape.org/namespaces/inkscape"
   xmlns:sodipodi="http://sodipodi.sourceforge.net/DTD/sodipodi-0.dtd"
   xmlns="http://www.w3.org/2000/svg"
   xmlns:svg="http://www.w3.org/2000/svg">
  <defs
     id="defs3592432" />
  <sodipodi:namedview
     id="namedview3592430"
     pagecolor="#ffffff"
     bordercolor="#666666"
     borderopacity="1.0"
     inkscape:pageshadow="2"
     inkscape:pageopacity="0.0"
     inkscape:pagecheckerboard="0"
     showgrid="false"
     inkscape:zoom="51.6875"
     inkscape:cx="7.9903265"
     inkscape:cy="8"
     inkscape:window-width="1920"
     inkscape:window-height="1051"
     inkscape:window-x="0"
     inkscape:window-y="29"
     inkscape:window-maximized="1"
     inkscape:current-layer="svg3592428" />
  <path
     style="fill:#5c616c"
     class="ColorScheme-Text"
     d="M 2,2 C 1.446,2 1,2.446 1,3 v 9 c 0,0.554 0.446,1 1,1 H 0 v 1 c 0,0.554 0.892,1 2,1 h 12 c 1.108,0 2,-0.446 2,-1 v -1 h -2 c 0.554,0 1,-0.446 1,-1 V 3 C 15,2.446 14.554,2 14,2 Z M 3,4.3086587 3.3142642,4 H 12.693307 V 4 L 13,4.3633462 v 7.2421658 0 L 12.695109,12 3.3160461,12 v 0 L 3,11.626149 Z M 6,13.1964 6.2122223,13 H 9.7504192 L 10,13.184809 v 0 0.570621 L 9.8005876,14 v 0 H 6.1664419 v 0 L 6,13.806304 Z"
     id="path3592426"
     sodipodi:nodetypes="sssccssssccsssscccccccccccccccccccccccccc" />
</svg>
