<?xml version="1.0" encoding="UTF-8" standalone="no"?>
<svg
   width="16"
   height="16"
   version="1.1"
   id="svg3159027"
   sodipodi:docname="multimedia-player-symbolic.svg"
   inkscape:version="1.1.2 (0a00cf5339, 2022-02-04)"
   xmlns:inkscape="http://www.inkscape.org/namespaces/inkscape"
   xmlns:sodipodi="http://sodipodi.sourceforge.net/DTD/sodipodi-0.dtd"
   xmlns="http://www.w3.org/2000/svg"
   xmlns:svg="http://www.w3.org/2000/svg">
  <defs
     id="defs3159031" />
  <sodipodi:namedview
     id="namedview3159029"
     pagecolor="#ffffff"
     bordercolor="#666666"
     borderopacity="1.0"
     inkscape:pageshadow="2"
     inkscape:pageopacity="0.0"
     inkscape:pagecheckerboard="0"
     showgrid="false"
     inkscape:zoom="51.6875"
     inkscape:cx="7.9903265"
     inkscape:cy="8"
     inkscape:window-width="1920"
     inkscape:window-height="1051"
     inkscape:window-x="0"
     inkscape:window-y="29"
     inkscape:window-maximized="1"
     inkscape:current-layer="svg3159027" />
  <path
     style="fill:#5c616c"
     d="M 4,0 C 2.892,0 2,0.892 2,2 v 12 c 0,1.108 0.892,2 2,2 h 8 c 1.108,0 2,-0.892 2,-2 V 2 C 14,0.892 13.108,0 12,0 Z M 4,2.262886 4.3202015,2 H 11.713665 L 12,2.2739836 v 0 7.4452376 L 11.684319,10 v 0 H 4.2888535 v 0 L 4,9.6708925 Z M 8,11.75 c 0.6903559,0 1.25,0.559644 1.25,1.25 0,0.690356 -0.5596441,1.25 -1.25,1.25 -0.6903559,0 -1.25,-0.559644 -1.25,-1.25 0,-0.690356 0.5596441,-1.25 1.25,-1.25 z"
     id="path3159025"
     sodipodi:nodetypes="ssssssssscccccccccccccsssss" />
</svg>
