<?xml version="1.0" encoding="UTF-8" standalone="no"?>
<svg
   width="16"
   height="16"
   version="1.1"
   id="svg2187448"
   sodipodi:docname="org.gnome.Shell.Extensions.GSConnect-symbolic.svg"
   inkscape:version="1.1.2 (0a00cf5339, 2022-02-04)"
   xmlns:inkscape="http://www.inkscape.org/namespaces/inkscape"
   xmlns:sodipodi="http://sodipodi.sourceforge.net/DTD/sodipodi-0.dtd"
   xmlns="http://www.w3.org/2000/svg"
   xmlns:svg="http://www.w3.org/2000/svg">
  <defs
     id="defs2187452" />
  <sodipodi:namedview
     id="namedview2187450"
     pagecolor="#ffffff"
     bordercolor="#666666"
     borderopacity="1.0"
     inkscape:pageshadow="2"
     inkscape:pageopacity="0.0"
     inkscape:pagecheckerboard="0"
     showgrid="false"
     inkscape:zoom="51.6875"
     inkscape:cx="7.9903265"
     inkscape:cy="8"
     inkscape:window-width="1920"
     inkscape:window-height="1051"
     inkscape:window-x="0"
     inkscape:window-y="29"
     inkscape:window-maximized="1"
     inkscape:current-layer="svg2187448" />
  <path
     style="fill:#5c616c"
     d="M 4,1 C 3,1 3,2 3,2 v 12 c 0,0 0,1 1,1 h 8 c 1,0 1,-1 1,-1 V 2 C 13,2 13,1 12,1 Z M 5,4.2928944 5.3187065,4 H 10.725627 V 4 L 11,4.3225974 v 7.2710506 0 L 10.553703,12 H 5.3769319 v 0 L 5,11.578307 Z M 7.5,13 h 1 C 8.5,13 9,13 9,13.5 9,14 8.5,14 8.5,14 h -1 C 7.5,14 7,14 7,13.5 7,13 7.5,13 7.5,13 Z"
     id="path2187446"
     sodipodi:nodetypes="sccssccsscccccccccccccccsccsc" />
</svg>
