<?xml version="1.0" encoding="UTF-8" standalone="no"?>
<svg
   width="16"
   height="16"
   version="1.1"
   id="svg2017359"
   sodipodi:docname="nvidia-ram-symbolic.svg"
   inkscape:version="1.1.2 (0a00cf5339, 2022-02-04)"
   xmlns:inkscape="http://www.inkscape.org/namespaces/inkscape"
   xmlns:sodipodi="http://sodipodi.sourceforge.net/DTD/sodipodi-0.dtd"
   xmlns="http://www.w3.org/2000/svg"
   xmlns:svg="http://www.w3.org/2000/svg">
  <defs
     id="defs2017363" />
  <sodipodi:namedview
     id="namedview2017361"
     pagecolor="#ffffff"
     bordercolor="#666666"
     borderopacity="1.0"
     inkscape:pageshadow="2"
     inkscape:pageopacity="0.0"
     inkscape:pagecheckerboard="0"
     showgrid="false"
     inkscape:zoom="51.6875"
     inkscape:cx="7.9903265"
     inkscape:cy="8"
     inkscape:window-width="1920"
     inkscape:window-height="1051"
     inkscape:window-x="0"
     inkscape:window-y="29"
     inkscape:window-maximized="1"
     inkscape:current-layer="svg2017359" />
  <path
     style="fill:#5c616c"
     d="m 2e-4,13 c 0,0.554 0.446,1 1,1 h 1 1 1 1 0.8401326 v 0 L 6.0002,13.795163 V 12.212647 L 5.8098077,12 v 0 H 4.0002 h -1 -1 -2 z m 0,-2 h 1 8 0.9998 4 1 1 V 9 8.1575265 L 15.86661,7.991181 c -0.13339,-0.00882 0.04364,0.00582 0,0 C 15.377389,7.9259705 15,7.5070573 15,7 c -2.38e-4,-0.5252944 0.405994,-0.9612294 0.93,-0.998 0.02332,-0.00121 -0.02335,1.218e-4 0,0 L 16,5.8163484 V 5 4.5 4 C 16,3.446 15.554,3 15,3 H 14.5 14 1.9999 h -0.5 -0.5 c -0.554,0 -1,0.446 -1,1 V 4.5 5 5.8615265 L 0.0999,6.006 c 0.1,0.006 -0.03321216,-0.00367 0,0 0.51072923,0.051174 0.89977768,0.4807136 0.9003,0.994 0,0.5069534 -0.3739691,0.9585156 -0.86630929,0.9911409 L 2e-4,8.1627388 v 0 V 9 9.9999 Z M 3.2705173,9 3.0002,8.7422229 v -3.4746548 0 L 3.2445669,5 H 4.7326864 V 5 L 5.0002,5.2747931 v 3.4522595 0 L 4.7696363,9 Z M 7.0002,8.7287624 v 0 -3.5099256 0 L 7.2508065,5 H 8.7881851 V 5 L 9.0002,5.2368058 v 3.5018734 0 L 8.7978858,9 H 7.2241666 Z m 1,5.0722186 L 8.1888462,14 H 9.0002 10 h 1 1 1 1 1 c 0.554,0 1,-0.446 1,-1 V 12 H 14 13 12 11 9.0002 8.1778218 L 8.0002,12.217887 v 0 z M 11,8.7406595 v 0 -3.4837917 0 L 11.232365,5 h 1.511133 V 5 L 13,5.2663518 V 8.6931055 L 12.738836,9 v 0 h -1.478718 z"
     id="path2017357"
     sodipodi:nodetypes="ssccccccccccccccsccccccccccsccccccssccccssccccccscccccccccccccccccccccccccccccccccccccccsscccccccccccccccccccccc" />
</svg>
