<?xml version="1.0" encoding="UTF-8" standalone="no"?>
<svg
   width="16"
   height="16"
   version="1.1"
   id="svg2704257"
   sodipodi:docname="scanner-symbolic.svg"
   inkscape:version="1.1.2 (0a00cf5339, 2022-02-04)"
   xmlns:inkscape="http://www.inkscape.org/namespaces/inkscape"
   xmlns:sodipodi="http://sodipodi.sourceforge.net/DTD/sodipodi-0.dtd"
   xmlns="http://www.w3.org/2000/svg"
   xmlns:svg="http://www.w3.org/2000/svg">
  <defs
     id="defs2704261" />
  <sodipodi:namedview
     id="namedview2704259"
     pagecolor="#ffffff"
     bordercolor="#666666"
     borderopacity="1.0"
     inkscape:pageshadow="2"
     inkscape:pageopacity="0.0"
     inkscape:pagecheckerboard="0"
     showgrid="false"
     inkscape:zoom="51.6875"
     inkscape:cx="8.0096735"
     inkscape:cy="8"
     inkscape:window-width="1916"
     inkscape:window-height="1015"
     inkscape:window-x="0"
     inkscape:window-y="29"
     inkscape:window-maximized="1"
     inkscape:current-layer="svg2704257" />
  <path
     style="fill:#5c616c"
     d="M 3,1 C 3,1 2.01,1 2,2 V 5.8493525 L 1.8459039,6 V 6 H 0 V 8 H 16 V 6 H 14.136728 V 6 L 14,5.8356128 V 2 C 14.01,1 13,1 13,1 Z M 4.2563022,3 V 3 H 11.643738 V 3 L 12,3.3796419 V 5.8566165 L 11.848773,6 V 6 H 4.1663097 L 4,5.8513074 v 0 -2.5301677 z M 2,9 v 5 c 0,0 0,1 1,1 h 10 c 1,0 1,-1 1,-1 V 9 h -2 v 3.720308 0 L 11.780338,13 H 4.2402911 v 0 L 4,12.704451 V 9 Z"
     id="path2704255"
     sodipodi:nodetypes="ccccccccccccccccccccccccccccccssccccccccccc" />
</svg>
