<?xml version="1.0" encoding="UTF-8" standalone="no"?>
<svg
   width="16"
   height="16"
   version="1.1"
   id="svg1565635"
   sodipodi:docname="sim-card-symbolic.svg"
   inkscape:version="1.1.2 (0a00cf5339, 2022-02-04)"
   xmlns:inkscape="http://www.inkscape.org/namespaces/inkscape"
   xmlns:sodipodi="http://sodipodi.sourceforge.net/DTD/sodipodi-0.dtd"
   xmlns="http://www.w3.org/2000/svg"
   xmlns:svg="http://www.w3.org/2000/svg">
  <defs
     id="defs1565639" />
  <sodipodi:namedview
     id="namedview1565637"
     pagecolor="#ffffff"
     bordercolor="#666666"
     borderopacity="1.0"
     inkscape:pageshadow="2"
     inkscape:pageopacity="0.0"
     inkscape:pagecheckerboard="0"
     showgrid="false"
     inkscape:zoom="51.6875"
     inkscape:cx="7.9903265"
     inkscape:cy="8"
     inkscape:window-width="1920"
     inkscape:window-height="1051"
     inkscape:window-x="0"
     inkscape:window-y="29"
     inkscape:window-maximized="1"
     inkscape:current-layer="svg1565635" />
  <path
     style="fill:#5c616c"
     d="M 15,4 C 15,2 13,2 13,2 H 3 C 1,2 1,4 1,4 v 8 c 0,0 0,2 2,2 h 9.819347 l 0.308021,-0.127368 v 0 L 14.878139,12.121861 15,11.734042 v 0 z m -4,6 v 1 c 0,1 -1,1 -1,1 H 9 V 10 Z M 11,5 V 6 H 9 V 4 h 1 c 0,0 1,0 1,1 z m 0,2 V 9 H 9 V 7 Z M 8,4 v 8 H 6 V 4 Z m -3,6 v 2 H 4 C 3,12 3,11 3,11 V 10 Z M 5,4 V 6 H 3 V 5 C 3,4 4,4 4,4 Z M 5,7 V 9 H 3 V 7 Z"
     id="path1565633"
     sodipodi:nodetypes="scsccsccccccscsccccsccccsccccccccccccsccccccsccccccc" />
</svg>
