<?xml version="1.0" encoding="UTF-8" standalone="no"?>
<svg
   width="16"
   height="16"
   version="1.1"
   id="svg830223"
   sodipodi:docname="tv-symbolic.svg"
   inkscape:version="1.1.2 (0a00cf5339, 2022-02-04)"
   xmlns:inkscape="http://www.inkscape.org/namespaces/inkscape"
   xmlns:sodipodi="http://sodipodi.sourceforge.net/DTD/sodipodi-0.dtd"
   xmlns="http://www.w3.org/2000/svg"
   xmlns:svg="http://www.w3.org/2000/svg">
  <defs
     id="defs830227" />
  <sodipodi:namedview
     id="namedview830225"
     pagecolor="#ffffff"
     bordercolor="#666666"
     borderopacity="1.0"
     inkscape:pageshadow="2"
     inkscape:pageopacity="0.0"
     inkscape:pagecheckerboard="0"
     showgrid="false"
     inkscape:zoom="51.6875"
     inkscape:cx="7.9903265"
     inkscape:cy="8"
     inkscape:window-width="1920"
     inkscape:window-height="1051"
     inkscape:window-x="0"
     inkscape:window-y="29"
     inkscape:window-maximized="1"
     inkscape:current-layer="svg830223" />
  <path
     style="fill:#5c616c"
     d="M 2,0 C 0,0 0,2 0,2 v 9 c 0,0 0,2 2,2 h 12 c 0,0 2,0 2,-2 V 2 C 16,2 16,0 14,0 Z M 5,3.434924 5.3231279,3.1615639 11.565689,6.2828444 v 0 l 0.0089,0.4298614 L 5.3898541,9.8050729 5,9.4944949 v 0 z M 4,14 c 0,0 -1,0 -1,1 v 1 h 10 v -1 c 0,-1 -1,-1 -1,-1 z"
     id="path830221"
     sodipodi:nodetypes="sccscscsscccccccccccsccscc" />
</svg>
