<?xml version="1.0" encoding="UTF-8" standalone="no"?>
<svg
   width="24"
   height="24"
   viewBox="0 0 24 24"
   fill="#38b7ab"
   version="1.1"
   id="svg4"
   sodipodi:docname="checkbox.svg"
   inkscape:version="1.1.2 (0a00cf5339, 2022-02-04)"
   xmlns:inkscape="http://www.inkscape.org/namespaces/inkscape"
   xmlns:sodipodi="http://sodipodi.sourceforge.net/DTD/sodipodi-0.dtd"
   xmlns="http://www.w3.org/2000/svg"
   xmlns:svg="http://www.w3.org/2000/svg">
  <defs
     id="defs8" />
  <sodipodi:namedview
     id="namedview6"
     pagecolor="#ffffff"
     bordercolor="#666666"
     borderopacity="1.0"
     inkscape:pageshadow="2"
     inkscape:pageopacity="0.0"
     inkscape:pagecheckerboard="0"
     showgrid="false"
     inkscape:zoom="34.958333"
     inkscape:cx="12"
     inkscape:cy="12"
     inkscape:window-width="1920"
     inkscape:window-height="1051"
     inkscape:window-x="0"
     inkscape:window-y="29"
     inkscape:window-maximized="1"
     inkscape:current-layer="svg4" />
  <path
     d="M 19,3 H 5 C 3.89,3 3,3.9 3,5 v 14 c 0,1.1 0.89,2 2,2 h 14 c 1.11,0 2,-0.9 2,-2 V 5 C 21,3.9 20.11,3 19,3 Z m -8.155495,13.155495 -0.629166,0.314772 -0.3984632,-0.0037 v 0 L 9.1924268,16.192427 5.6326192,12.632619 v 0 0 L 5.4118476,12.17197 5.4279634,11.757984 v 0 L 5.6317503,11.36825 5.8612166,11.138783 v 0 l 0.3965817,-0.152197 0.3028439,0.0044 0.535257,0.283005 v 0 0 l 1.9421358,1.936726 0.6263859,0.330114 v 0 l 0.5771121,-0.0011 0.709492,-0.320725 v 0 0 L 16.982822,7.18718 v 0 l 0.449375,-0.2016865 0.521902,-0.038812 v 0 l 0.491327,0.4948116 v 0 l 0.206189,0.3444112 0.04637,0.51611 v 0 l -7.853481,7.8534808 z"
     id="path2"
     sodipodi:nodetypes="sssssssssccccccccccccccccccccccccccccccccccccccc" />
</svg>
