<?xml version="1.0" encoding="UTF-8" standalone="no"?>
<svg
   width="48"
   height="48"
   viewBox="0 0 48 48"
   fill="#cccccc"
   fill-opacity=".38"
   version="1.1"
   id="svg4"
   sodipodi:docname="no-events.svg"
   inkscape:version="1.1.2 (0a00cf5339, 2022-02-04)"
   xmlns:inkscape="http://www.inkscape.org/namespaces/inkscape"
   xmlns:sodipodi="http://sodipodi.sourceforge.net/DTD/sodipodi-0.dtd"
   xmlns="http://www.w3.org/2000/svg"
   xmlns:svg="http://www.w3.org/2000/svg">
  <defs
     id="defs8" />
  <sodipodi:namedview
     id="namedview6"
     pagecolor="#000000"
     bordercolor="#666666"
     borderopacity="1.0"
     inkscape:pageshadow="2"
     inkscape:pageopacity="0"
     inkscape:pagecheckerboard="0"
     showgrid="false"
     inkscape:zoom="17.479167"
     inkscape:cx="24"
     inkscape:cy="24"
     inkscape:window-width="1920"
     inkscape:window-height="1051"
     inkscape:window-x="0"
     inkscape:window-y="29"
     inkscape:window-maximized="1"
     inkscape:current-layer="svg4" />
  <path
     d="M 34,24 H 24.59744 24 V 24.75851 34 H 34 Z M 32,2 V 5.4545081 L 31.421181,6 V 6 H 16.633774 V 6 L 16,5.4577276 V 2 H 12 V 5.3567188 L 11.274984,6 V 6 H 10 C 7.79,6 6.02,7.79 6.02,10 L 6,38 c 0,2.21 1.79,4 4,4 h 28 c 2.21,0 4,-1.79 4,-4 V 10 C 42,7.79 40.21,6 38,6 H 36.496699 V 6 L 36,5.6132402 V 2 Z m 4.713719,36 v 0 H 11.364254 v 0 L 10,36.69729 v -19.152465 0 L 11.348544,16 h 25.486434 v 0 L 38,17.539833 v 18.910424 z"
     id="path2"
     sodipodi:nodetypes="cccccccccccccccccccsccssssscccccccccccccccccc" />
</svg>
