<?xml version="1.0" encoding="UTF-8" standalone="no"?>
<svg
   width="48"
   height="48"
   viewBox="0 0 48 48"
   fill="#cccccc"
   fill-opacity=".38"
   version="1.1"
   id="svg4"
   sodipodi:docname="no-notifications.svg"
   inkscape:version="1.1.2 (0a00cf5339, 2022-02-04)"
   xmlns:inkscape="http://www.inkscape.org/namespaces/inkscape"
   xmlns:sodipodi="http://sodipodi.sourceforge.net/DTD/sodipodi-0.dtd"
   xmlns="http://www.w3.org/2000/svg"
   xmlns:svg="http://www.w3.org/2000/svg">
  <defs
     id="defs8" />
  <sodipodi:namedview
     id="namedview6"
     pagecolor="#000000"
     bordercolor="#666666"
     borderopacity="1.0"
     inkscape:pageshadow="2"
     inkscape:pageopacity="0"
     inkscape:pagecheckerboard="0"
     showgrid="false"
     inkscape:zoom="17.479167"
     inkscape:cx="24"
     inkscape:cy="24"
     inkscape:window-width="1920"
     inkscape:window-height="1051"
     inkscape:window-x="0"
     inkscape:window-y="29"
     inkscape:window-maximized="1"
     inkscape:current-layer="svg4" />
  <path
     d="m 24,44 c 1.923821,0 3.529373,-1.356431 3.912928,-3.165565 0.05706,-0.269119 0,0.286179 0,0 L 27.343552,40 l -6.71536,0 v 0 c 0,0.214729 -0.611293,0.425493 -0.578753,0.631036 C 20.351807,42.540943 22.004729,44 24,44 Z M 36,31.344175 v 0 V 22 C 36,15.85 32.73,10.72 27,9.36 V 8 C 27,6.34 25.66,5 24,5 22.34,5 21,6.34 21,8 V 9.36 C 15.27,10.72 12,15.85 12,22 v 9.419722 l -0.460875,1.041153 v 0 L 8,36 v 2 H 40 V 36 L 36.356599,32.356599 Z M 31.396005,34 v 0 H 16.947153 v 0 L 16,33.063385 V 22 c 0,-4.97 3.03,-9 8,-9 4.97,0 8,4.03 8,9 v 11.23558 z"
     id="path2"
     sodipodi:nodetypes="ssccccssccscssscsccccccccccccccssscc" />
</svg>
