<?xml version="1.0" encoding="UTF-8" standalone="no"?>
<svg
   width="16"
   height="16"
   version="1.1"
   id="svg4"
   sodipodi:docname="airplane-mode-symbolic.svg"
   inkscape:version="1.1.2 (0a00cf5339, 2022-02-04)"
   xmlns:inkscape="http://www.inkscape.org/namespaces/inkscape"
   xmlns:sodipodi="http://sodipodi.sourceforge.net/DTD/sodipodi-0.dtd"
   xmlns="http://www.w3.org/2000/svg"
   xmlns:svg="http://www.w3.org/2000/svg">
  <defs
     id="defs8" />
  <sodipodi:namedview
     id="namedview6"
     pagecolor="#ffffff"
     bordercolor="#666666"
     borderopacity="1.0"
     inkscape:pageshadow="2"
     inkscape:pageopacity="0.0"
     inkscape:pagecheckerboard="0"
     showgrid="false"
     inkscape:zoom="48.5625"
     inkscape:cx="8"
     inkscape:cy="8"
     inkscape:window-width="1920"
     inkscape:window-height="1051"
     inkscape:window-x="0"
     inkscape:window-y="29"
     inkscape:window-maximized="1"
     inkscape:current-layer="svg4" />
  <path
     style="fill:#5c616c"
     d="M 6.5,1 C 5.7,1 5.72,1.03 5.97,2.03 L 7.4966866,6.7137237 7.3475394,7 V 7 L 3.09,7 1.87,5.22 C 1.73,5.01 1.75,5 1.53,5 H 1.31 C 0.88003,5 1.03,5.43 1.03,5.43 L 1.31,8 1.03,10.56 c 0,0 -0.13997,0.44 0.25,0.44 h 0.25 c 0.21,0 0.2,-0.01 0.34,-0.22 L 3.09,9 h 4.2686787 l 0.1614877,0.2125182 v 0 L 5.97,13.93 C 5.7,14.98 5.7,15 6.5,15 6.93,15 6.93,14.98 7.22,14.5 L 10.9,9 H 14 C 14.55,9 15,8.55 15,8 15,7.44 14.55,7 14,7 H 10.9 L 7.22,1.5 C 6.95,1.04 6.93,1 6.56,1 Z"
     id="path2"
     sodipodi:nodetypes="sccccccsscccssccccccsccsssccss" />
</svg>
