<?xml version="1.0" encoding="UTF-8" standalone="no"?>
<svg
   width="16"
   height="16"
   version="1.1"
   id="svg19574"
   sodipodi:docname="arch-error-symbolic.svg"
   inkscape:version="1.1.2 (0a00cf5339, 2022-02-04)"
   xmlns:inkscape="http://www.inkscape.org/namespaces/inkscape"
   xmlns:sodipodi="http://sodipodi.sourceforge.net/DTD/sodipodi-0.dtd"
   xmlns="http://www.w3.org/2000/svg"
   xmlns:svg="http://www.w3.org/2000/svg">
  <defs
     id="defs19578" />
  <sodipodi:namedview
     id="namedview19576"
     pagecolor="#ffffff"
     bordercolor="#666666"
     borderopacity="1.0"
     inkscape:pageshadow="2"
     inkscape:pageopacity="0.0"
     inkscape:pagecheckerboard="0"
     showgrid="false"
     inkscape:zoom="51.6875"
     inkscape:cx="7.9903265"
     inkscape:cy="8"
     inkscape:window-width="1920"
     inkscape:window-height="1051"
     inkscape:window-x="0"
     inkscape:window-y="29"
     inkscape:window-maximized="1"
     inkscape:current-layer="svg19574" />
  <path
     style="fill:#dd4747"
     class="error"
     d="M 8.2040115,1.1861351 C 8.1422982,1.2444669 7.8750297,1.1161489 7.8103653,1.1734293 6.0953415,2.6926142 3.3903317,3.8342053 2.2381889,4.1834106 2.1491206,4.2104065 2.0706732,4.4339287 2.0013406,4.4512619 c 0,0.066992 -8.93e-4,-0.067177 0,0 C 2.063765,9.1471936 4.3028888,14.260578 8,15 c 3.701852,-0.74037 5.941975,-5.8659282 5.998889,-10.566802 7.4e-4,-0.061141 0,0.060987 0,0 C 13.945825,4.419932 13.887747,4.2205817 13.822961,4.2016291 12.711184,3.8763903 9.9509488,2.7264967 8.2040115,1.1861351 c -0.069672,-0.061433 0.06628,0.062648 0,0 z M 5,5 h 1 l 2,2 2,-2 h 1 v 1 l -2,2 2,2 v 1 H 10 L 8,9 6,11 H 5 V 10 L 7,8 5,6 Z"
     id="path19572"
     sodipodi:nodetypes="csscscscsscccccccccccccccccc" />
</svg>
