<?xml version="1.0" encoding="UTF-8" standalone="no"?>
<svg
   width="16"
   height="16"
   version="1.1"
   id="svg31332"
   sodipodi:docname="arch-unknown-symbolic.svg"
   inkscape:version="1.1.2 (0a00cf5339, 2022-02-04)"
   xmlns:inkscape="http://www.inkscape.org/namespaces/inkscape"
   xmlns:sodipodi="http://sodipodi.sourceforge.net/DTD/sodipodi-0.dtd"
   xmlns="http://www.w3.org/2000/svg"
   xmlns:svg="http://www.w3.org/2000/svg">
  <defs
     id="defs31336" />
  <sodipodi:namedview
     id="namedview31334"
     pagecolor="#ffffff"
     bordercolor="#666666"
     borderopacity="1.0"
     inkscape:pageshadow="2"
     inkscape:pageopacity="0.0"
     inkscape:pagecheckerboard="0"
     showgrid="false"
     inkscape:zoom="51.6875"
     inkscape:cx="8.0096735"
     inkscape:cy="8"
     inkscape:window-width="1920"
     inkscape:window-height="1051"
     inkscape:window-x="0"
     inkscape:window-y="29"
     inkscape:window-maximized="1"
     inkscape:current-layer="svg31332" />
  <path
     style="fill:#5c616c"
     d="M 8.2065324,1.188357 C 8.1652172,1.2274084 7.8740197,1.1164555 7.8740197,1.1164555 8.2065324,1.188357 7.7557348,1.2214044 7.7557348,1.2214044 6.0596713,2.7262464 3.4006159,3.8284171 2.2527077,4.1789932 2.1577733,4.2079865 2.0758691,4.5223593 2.0027902,4.540629 c 0,0.096683 -0.00186,-0.097055 0,0 C 2.0922161,9.2118565 4.3263289,14.265266 8,15 c 3.700811,-0.740162 5.940715,-5.8630457 5.99884,-10.5628358 7.73e-4,-0.062467 -0.0012,0.1871641 0,0 C 13.753356,4.3683593 13.846527,4.2091908 13.754516,4.1811952 12.602084,3.8305539 9.9187533,2.696898 8.2065324,1.188357 c -0.070551,-0.062159 0.067079,0.063403 0,0 z M 8,5 C 8.6179,5.0016 9.2202,5.194 9.7246,5.5508 L 9.9161646,5.1676707 v 0 L 10.094811,5.1896227 11,7 H 9.1845762 V 7 L 9.080875,6.83822 9.2695,6.4609 C 8.9126,6.1647 8.4638,6.0018 8,6 6.8954,6 6,6.8954 6,8 H 5 C 5,6.3431 6.3431,5 8,5 Z m 2,3 h 1 C 11,9.6569 9.6569,11 8,11 7.3821,10.998 6.7798,10.806 6.2754,10.449 L 6.0882896,10.823357 5.8848899,10.76978 v 0 L 5,9 h 1.8293259 l 0.059587,0.2222161 v 0 L 6.7305,9.5391 C 7.0874,9.8353 7.5362,9.9982 8,10 9.1046,10 10,9.1046 10,8 Z"
     id="path31330"
     sodipodi:nodetypes="ccsscscscssccccccccccccccccccccccccccccc" />
</svg>
