<?xml version="1.0" encoding="UTF-8" standalone="no"?>
<svg
   width="16"
   height="16"
   version="1.1"
   id="svg849839"
   sodipodi:docname="arch-uptodate-symbolic.svg"
   inkscape:version="1.1.2 (0a00cf5339, 2022-02-04)"
   xmlns:inkscape="http://www.inkscape.org/namespaces/inkscape"
   xmlns:sodipodi="http://sodipodi.sourceforge.net/DTD/sodipodi-0.dtd"
   xmlns="http://www.w3.org/2000/svg"
   xmlns:svg="http://www.w3.org/2000/svg">
  <defs
     id="defs849843" />
  <sodipodi:namedview
     id="namedview849841"
     pagecolor="#ffffff"
     bordercolor="#666666"
     borderopacity="1.0"
     inkscape:pageshadow="2"
     inkscape:pageopacity="0.0"
     inkscape:pagecheckerboard="0"
     showgrid="false"
     inkscape:zoom="51.6875"
     inkscape:cx="8.0096735"
     inkscape:cy="8"
     inkscape:window-width="1920"
     inkscape:window-height="1051"
     inkscape:window-x="0"
     inkscape:window-y="29"
     inkscape:window-maximized="1"
     inkscape:current-layer="svg849839" />
  <path
     style="fill:#5c616c"
     d="M 8.256465,1.2320064 C 8.1723778,1.3114861 7.8289596,1.1580041 7.7394853,1.2355169 6.068644,2.6829897 3.5186331,3.7777144 2.3347352,4.1534393 2.2060572,4.1942769 2.0962114,4.5121587 2.0026936,4.5355381 c 0,0.094993 -0.00179,-0.095353 0,0 C 2.090593,9.2081842 4.3249943,14.264999 8,15 c 3.675675,-0.735135 5.910221,-5.7936583 5.997354,-10.4670154 0.0018,-0.094499 -0.0026,0.2829846 0,0 C 13.897311,4.5079737 13.778144,4.1897194 13.638093,4.1447665 12.441764,3.7607761 9.9145716,2.6702371 8.256465,1.2320064 c -0.088049,-0.076373 0.082818,0.07828 0,0 z m 2.958133,4.982592 v 0 l 0.54793,0.5479295 v 0 l 0.04758,0.4273627 -3.5845945,3.5845954 v 0 L 7.7328954,10.732895 5.1892748,8.1892748 v 0 L 5.1899715,7.8100285 5.8179396,7.1820604 v 0 L 6.197578,7.197578 7.81616,8.81616 v 0 L 8.1665399,8.83346 10.77383,6.2261698 Z"
     id="path849837"
     sodipodi:nodetypes="csscscscsscccccccccccccccccccc" />
</svg>
