<?xml version="1.0" encoding="UTF-8" standalone="no"?>
<svg
   width="16"
   height="16"
   version="1.1"
   id="svg4"
   sodipodi:docname="blueberry-tray-disabled-symbolic.svg"
   inkscape:version="1.1.2 (0a00cf5339, 2022-02-04)"
   xmlns:inkscape="http://www.inkscape.org/namespaces/inkscape"
   xmlns:sodipodi="http://sodipodi.sourceforge.net/DTD/sodipodi-0.dtd"
   xmlns="http://www.w3.org/2000/svg"
   xmlns:svg="http://www.w3.org/2000/svg">
  <defs
     id="defs8" />
  <sodipodi:namedview
     id="namedview6"
     pagecolor="#ffffff"
     bordercolor="#666666"
     borderopacity="1.0"
     inkscape:pageshadow="2"
     inkscape:pageopacity="0.0"
     inkscape:pagecheckerboard="0"
     showgrid="false"
     inkscape:zoom="51.6875"
     inkscape:cx="7.9613059"
     inkscape:cy="9.5574365"
     inkscape:window-width="1067"
     inkscape:window-height="716"
     inkscape:window-x="504"
     inkscape:window-y="31"
     inkscape:window-maximized="1"
     inkscape:current-layer="svg4" />
  <path
     style="opacity:0.35;fill:#5c616c"
     d="M 6.9257812,0.00277202 C 6.8010596,0.01192356 6.6791607,0.04329201 6.5664062,0.09738139 6.2204118,0.26389301 6.0002998,0.61379527 6,0.99777202 V 3.0270689 L 7.8061589,4.4346028 8,4.2932545 v 0 -0.863593 L 8.3033631,3.3225433 v 0 l 1.8114699,1.4494725 0.05014,0.3871471 v 0 L 9.6229798,5.5812134 9.618737,5.8485956 v 0 l 1.457435,1.1355045 1.537109,-1.1972656 C 13.123813,5.390218 13.129556,4.620714 12.625,4.216522 l -5,-3.99999998 C 7.4274184,0.05918304 7.1776215,-0.01647642 6.9257812,0.00277202 Z M 2.2324219,2.1208189 1,3.6969908 6,7.5973814 V 8.3981626 L 2.3867188,11.20871 c -0.435458,0.338893 -0.5141219,0.966456 -0.1757813,1.402343 0.338893,0.435458 0.9664565,0.514122 1.4023437,0.175781 L 5.7480072,11.127269 6,11.255182 v 0 3.74259 c -3.499e-4,0.838869 0.970049,1.305407 1.625,0.78125 l 4.2389,-3.390365 v 0 l 0.325871,0.0298 1.577807,1.22971 L 15,12.071991 Z m 6.0598853,7.2592807 v 0 l 1.7920408,1.3967604 0.0332,0.444845 v 0 l -1.865021,1.492017 v 0 L 8,12.451721 v -2.8960699 0 z"
     id="path2"
     sodipodi:nodetypes="cccccccccccccccccccccccccccccccccccccccccccccccccc" />
</svg>
