<?xml version="1.0" encoding="UTF-8" standalone="no"?>
<svg
   width="16"
   height="16"
   version="1.1"
   id="svg4"
   sodipodi:docname="blueberry-tray-active-symbolic.svg"
   inkscape:version="1.1.2 (0a00cf5339, 2022-02-04)"
   xmlns:inkscape="http://www.inkscape.org/namespaces/inkscape"
   xmlns:sodipodi="http://sodipodi.sourceforge.net/DTD/sodipodi-0.dtd"
   xmlns="http://www.w3.org/2000/svg"
   xmlns:svg="http://www.w3.org/2000/svg">
  <defs
     id="defs8" />
  <sodipodi:namedview
     id="namedview6"
     pagecolor="#ffffff"
     bordercolor="#666666"
     borderopacity="1.0"
     inkscape:pageshadow="2"
     inkscape:pageopacity="0.0"
     inkscape:pagecheckerboard="0"
     showgrid="false"
     inkscape:zoom="51.6875"
     inkscape:cx="7.3325272"
     inkscape:cy="10.321644"
     inkscape:window-width="966"
     inkscape:window-height="699"
     inkscape:window-x="459"
     inkscape:window-y="31"
     inkscape:window-maximized="1"
     inkscape:current-layer="svg4" />
  <path
     style="fill:#5c616c"
     d="M 6.5664062,0.09960937 C 6.2204118,0.26612099 6.0002998,0.61602325 6,1 v 3.7644291 0 L 5.7460783,4.8690039 3.6132813,3.2109375 C 3.177394,2.8725963 2.5498304,2.9512603 2.2109375,3.3867188 1.8725964,3.8226061 1.9512604,4.4501696 2.3867188,4.7890625 L 6,7.5996094 V 8.4003906 L 2.3867188,11.210938 c -0.435458,0.338893 -0.5141219,0.966456 -0.1757813,1.402343 0.3388927,0.435459 0.9664563,0.514123 1.4023438,0.175782 L 5.7406624,11.135207 6,11.299553 v 0 V 15 c -3.499e-4,0.838869 0.970049,1.305407 1.625,0.78125 l 5,-4 c 0.504555,-0.404192 0.498812,-1.173696 -0.01172,-1.570312 0,0 -1.795652,-1.3970306 -2.6934781,-2.0955459 -0.049439,-0.038464 0,0 0,0 L 9.9423835,7.8670393 12.613281,5.7890625 C 13.123813,5.392446 13.129556,4.622942 12.625,4.21875 l -5,-4 C 7.3244054,-0.02122611 6.9128221,-0.0675482 6.5664062,0.09960937 Z M 8,3.5618299 8.361345,3.3711664 l 1.750293,1.400521 v 0 l -0.01756,0.44467 -1.8147893,1.4116778 v 0 L 8,6.429103 v 0 z m 0.3266871,5.8470088 v 0 l 1.7351179,1.3497043 0.01597,0.496865 v 0 l -1.7351876,1.388434 v 0 L 8,12.490568 v -2.9291686 0 z"
     id="path2"
     sodipodi:nodetypes="ccccccccccccccccccccscccccccccccccccccccccccccccc" />
</svg>
