<?xml version="1.0" encoding="UTF-8" standalone="no"?>
<svg
   width="16"
   height="16"
   version="1.1"
   id="svg87944"
   sodipodi:docname="call-incoming-symbolic.svg"
   inkscape:version="1.1.2 (0a00cf5339, 2022-02-04)"
   xmlns:inkscape="http://www.inkscape.org/namespaces/inkscape"
   xmlns:sodipodi="http://sodipodi.sourceforge.net/DTD/sodipodi-0.dtd"
   xmlns="http://www.w3.org/2000/svg"
   xmlns:svg="http://www.w3.org/2000/svg">
  <defs
     id="defs87948" />
  <sodipodi:namedview
     id="namedview87946"
     pagecolor="#ffffff"
     bordercolor="#666666"
     borderopacity="1.0"
     inkscape:pageshadow="2"
     inkscape:pageopacity="0.0"
     inkscape:pagecheckerboard="0"
     showgrid="false"
     inkscape:zoom="51.6875"
     inkscape:cx="7.9613059"
     inkscape:cy="4.904474"
     inkscape:window-width="839"
     inkscape:window-height="679"
     inkscape:window-x="844"
     inkscape:window-y="31"
     inkscape:window-maximized="1"
     inkscape:current-layer="svg87944" />
  <path
     style="fill:#5c616c"
     d="M 14.923828,0.00195313 C 14.700572,0.01443805 14.470816,0.11226805 14.265625,0.32617188 L 10.230232,4.3689555 v 0 L 10,4.3188175 V 3.0214844 C 10.007768,2.4037181 9.4479376,1.9023364 8.8378906,2 H 8.3215158 V 2 L 8,2.300734 v 0.7207504 l 0.00538,4.5689732 0.3263367,0.4058922 v 0 L 12.978516,8 h 0.641463 V 8 L 14,7.6497612 V 7.171875 C 14.104658,6.5581424 13.601045,5.9911409 12.978516,6 H 11.744188 L 11.619137,5.781654 v 0 l 4.054691,-4.047279 c 0.763942,-0.7328244 0.04734,-1.7770109 -0.75,-1.73242187 z M 3.5,2 C 2.1192881,2 1,3.1192881 1,4.5 V 5 c 0,5.505 4.496,10 10,10 h 0.5 C 12.880712,15 14,13.880712 14,12.5 V 11 c 0,-0.554 -0.445,-1 -1,-1 h -3 c -0.553,0 -1,0.446 -1,1 v 0.710938 C 6.7324622,11.041028 4.9589725,9.2675379 4.2890625,7 h 0.7128906 c 0.554,0 1,-0.446 1,-1 V 3 c 0,-0.554 -0.446,-1 -1,-1 z"
     id="path87942"
     sodipodi:nodetypes="scccccccccccccccccccccccsssssssssssccsssss" />
</svg>
