<?xml version="1.0" encoding="UTF-8" standalone="no"?>
<svg
   width="16"
   height="16"
   version="1.1"
   id="svg117784"
   sodipodi:docname="call-outgoing-symbolic.svg"
   inkscape:version="1.1.2 (0a00cf5339, 2022-02-04)"
   xmlns:inkscape="http://www.inkscape.org/namespaces/inkscape"
   xmlns:sodipodi="http://sodipodi.sourceforge.net/DTD/sodipodi-0.dtd"
   xmlns="http://www.w3.org/2000/svg"
   xmlns:svg="http://www.w3.org/2000/svg">
  <defs
     id="defs117788" />
  <sodipodi:namedview
     id="namedview117786"
     pagecolor="#ffffff"
     bordercolor="#666666"
     borderopacity="1.0"
     inkscape:pageshadow="2"
     inkscape:pageopacity="0.0"
     inkscape:pagecheckerboard="0"
     showgrid="false"
     inkscape:zoom="51.6875"
     inkscape:cx="7.9903265"
     inkscape:cy="8"
     inkscape:window-width="1920"
     inkscape:window-height="1051"
     inkscape:window-x="0"
     inkscape:window-y="29"
     inkscape:window-maximized="1"
     inkscape:current-layer="svg117784" />
  <path
     style="fill:#5c616c"
     d="M 10.427541,0 10,0.32784721 V 0.828125 C 9.895342,1.4418576 10.398955,2.0088591 11.021484,2 h 1.411113 v 0 l 0.02983,0.1369325 -4.1362541,4.1286925 c -0.763942,0.7328244 -0.04734,1.7770109 0.75,1.7324219 C 9.2994279,7.9855619 9.529184,7.887732 9.734375,7.6738281 L 13.889,3.5115942 14,3.6020744 v 0 1.3764412 C 13.9922,5.5962819 14.552062,6.0976636 15.162109,6 h 0.485582 V 6 L 16,5.6339981 V 4.9785156 L 15.994647,0.43317497 15.583659,0.0035838 v 0 L 11.021484,0 Z M 3.5,2 C 2.1192881,2 1,3.1192881 1,4.5 V 5 c 0,5.505 4.496,10 10,10 h 0.5 C 12.880712,15 14,13.880712 14,12.5 V 11 c 0,-0.554 -0.445,-1 -1,-1 h -3 c -0.553,0 -1,0.446 -1,1 v 0.710938 C 6.7324622,11.041028 4.9589725,9.2675379 4.2890625,7 h 0.7128906 c 0.554,0 1,-0.446 1,-1 V 3 c 0,-0.554 -0.446,-1 -1,-1 z"
     id="path117782"
     sodipodi:nodetypes="ccccccccsccccccccccccccccssssssssssccsssss" />
</svg>
