<?xml version="1.0" encoding="UTF-8" standalone="no"?>
<svg
   width="16"
   height="16"
   version="1.1"
   id="svg4"
   sodipodi:docname="checkbox-checked-symbolic.svg"
   inkscape:version="1.1.2 (0a00cf5339, 2022-02-04)"
   xmlns:inkscape="http://www.inkscape.org/namespaces/inkscape"
   xmlns:sodipodi="http://sodipodi.sourceforge.net/DTD/sodipodi-0.dtd"
   xmlns="http://www.w3.org/2000/svg"
   xmlns:svg="http://www.w3.org/2000/svg">
  <defs
     id="defs8" />
  <sodipodi:namedview
     id="namedview6"
     pagecolor="#ffffff"
     bordercolor="#666666"
     borderopacity="1.0"
     inkscape:pageshadow="2"
     inkscape:pageopacity="0.0"
     inkscape:pagecheckerboard="0"
     showgrid="false"
     inkscape:zoom="51.6875"
     inkscape:cx="7.9516324"
     inkscape:cy="6.4619105"
     inkscape:window-width="1308"
     inkscape:window-height="860"
     inkscape:window-x="223"
     inkscape:window-y="31"
     inkscape:window-maximized="1"
     inkscape:current-layer="svg4" />
  <path
     style="fill:#5c616c"
     d="M 2.6660156,0 C 1.1860156,0 0,1.1860156 0,2.6660156 V 13.333984 C 0,14.813984 1.1860156,16 2.6660156,16 H 13.333984 C 14.813984,16 16,14.813984 16,13.333984 v -7.1976136 0 L 15.799246,6.0288794 14.163954,7.6641705 14,8.0993142 v 0 4.7014668 C 14,13.460782 13.460781,14 12.800781,14 H 3.1992188 C 2.5392187,14 2,13.460782 2,12.800781 V 3.1992188 C 2,2.5392187 2.5392187,2 3.1992188,2 h 9.6015622 c 0.294798,0 0.563356,0.1093176 0.771736,0.2879459 0.05825,0.049935 0.254426,-0.00131 0.302531,0.058586 0.04605,-0.037731 -0.04898,0.033308 0,0 C 14.204449,2.1225116 14.596264,2.0000611 15,2 c 0.275784,4.17e-5 0.545477,0.057989 0.793823,0.1659152 0.05825,0.025313 -0.171021,-0.084085 0,0 C 15.776936,2.0570595 15.924584,2.0345241 15.895126,1.930547 15.578359,0.81246165 14.558031,0 13.333984,0 Z M 15,3 c -0.265201,4.01e-5 -0.519526,0.1054233 -0.707031,0.2929688 L 8.109375,9.4765625 5.8007812,6.4003906 C 5.4697454,5.9579302 4.842592,5.8678371 4.4003906,6.1992188 3.9579302,6.5302546 3.8678371,7.157408 4.1992188,7.5996094 l 3,3.9999996 c 0.3650792,0.487395 1.0773236,0.538138 1.5078124,0.107422 L 15.707031,4.7070312 c 0.390424,-0.390507 0.390424,-1.0235554 0,-1.4140624 C 15.519526,3.1054233 15.265201,3.0000401 15,3 Z"
     id="path2"
     sodipodi:nodetypes="ssssssccccccsssssssscscscssscccccccccsc" />
</svg>
