<?xml version="1.0" encoding="UTF-8" standalone="no"?>
<svg
   width="16"
   height="16"
   version="1.1"
   id="svg19135"
   sodipodi:docname="daytime-sunset-symbolic.svg"
   inkscape:version="1.1.2 (0a00cf5339, 2022-02-04)"
   xmlns:inkscape="http://www.inkscape.org/namespaces/inkscape"
   xmlns:sodipodi="http://sodipodi.sourceforge.net/DTD/sodipodi-0.dtd"
   xmlns="http://www.w3.org/2000/svg"
   xmlns:svg="http://www.w3.org/2000/svg">
  <defs
     id="defs19139" />
  <sodipodi:namedview
     id="namedview19137"
     pagecolor="#ffffff"
     bordercolor="#666666"
     borderopacity="1.0"
     inkscape:pageshadow="2"
     inkscape:pageopacity="0.0"
     inkscape:pagecheckerboard="0"
     showgrid="false"
     inkscape:zoom="51.6875"
     inkscape:cx="8.0096735"
     inkscape:cy="8"
     inkscape:window-width="1920"
     inkscape:window-height="1051"
     inkscape:window-x="0"
     inkscape:window-y="29"
     inkscape:window-maximized="1"
     inkscape:current-layer="svg19135" />
  <path
     style="fill:#5c616c"
     d="m 7.8878326,0.23090774 v 0 L 7.5,1.0293 C 7.67,1.0193 7.83,1 8,1 8.17,1 8.33,1.0193 8.5,1.0293 L 8.1209821,0.24905372 Z M 8,2 C 4.69,2 2,4.68 2,8 H 14 C 14,4.68 11.31,2 8,2 Z M 2.4230889,2.5781211 v 0 L 2.7207,3.4297 c 0.22,-0.25 0.4688,-0.4988 0.7188,-0.7188 L 2.6630218,2.448873 Z M 13.4191,2.4211447 v 0 L 12.561,2.7109 c 0.25,0.22 0.498,0.4688 0.718,0.7188 L 13.577872,2.5747367 Z M 1.0293,7.5 0.39408688,7.8085656 0.41528586,8 V 8 H 1 C 1,7.83 1.0193,7.66 1.0293,7.5 Z m 13.9417,0 C 14.981,7.66 15,7.83 15,8 h 0.632753 v 0 l 0.0071,-0.1749782 z"
     id="path19129"
     sodipodi:nodetypes="cccscccsccscccccccccccccccccccccccc" />
  <path
     style="fill:#5c616c"
     d="M 1,9 H 15 C 15.554,9 16,9.446 16,10 16,10.554 15.554,11 15,11 H 1 C 0.446,11 0,10.554 0,10 0,9.446 0.446,9 1,9 Z"
     id="path19131" />
  <path
     style="fill:#5c616c"
     d="m 7.8413593,15.788479 0.3235241,-0.0083 2.6064936,-3.475325 v 0 L 10.629997,12 H 5.2980098 v 0 l -0.069862,0.304197 z"
     id="path19133"
     sodipodi:nodetypes="cccccccccc" />
</svg>
