<?xml version="1.0" encoding="UTF-8" standalone="no"?>
<svg
   width="16"
   height="16"
   version="1.1"
   id="svg22664"
   sodipodi:docname="daytime-sunrise-symbolic.svg"
   inkscape:version="1.1.2 (0a00cf5339, 2022-02-04)"
   xmlns:inkscape="http://www.inkscape.org/namespaces/inkscape"
   xmlns:sodipodi="http://sodipodi.sourceforge.net/DTD/sodipodi-0.dtd"
   xmlns="http://www.w3.org/2000/svg"
   xmlns:svg="http://www.w3.org/2000/svg">
  <defs
     id="defs22668" />
  <sodipodi:namedview
     id="namedview22666"
     pagecolor="#ffffff"
     bordercolor="#666666"
     borderopacity="1.0"
     inkscape:pageshadow="2"
     inkscape:pageopacity="0.0"
     inkscape:pagecheckerboard="0"
     showgrid="false"
     inkscape:zoom="51.6875"
     inkscape:cx="8.0096735"
     inkscape:cy="8"
     inkscape:window-width="1920"
     inkscape:window-height="1051"
     inkscape:window-x="0"
     inkscape:window-y="29"
     inkscape:window-maximized="1"
     inkscape:current-layer="svg22664" />
  <path
     style="fill:#5c616c"
     d="M 14.971,12.5 C 14.981,12.66 15,12.83 15,13 h 0.678925 v 0 l 0.0033,-0.154387 z M 1.0293,12.5 0.31931826,12.844886 0.33258507,13 v 0 H 1 C 1,12.83 1.0193,12.66 1.0293,12.5 Z M 13.594192,7.5280523 13.487058,7.3981973 12.561,7.7109 c 0.25,0.22 0.498,0.4688 0.718,0.7188 z M 2.4362527,7.6157878 v 0 L 2.7207,8.4297 c 0.22,-0.25 0.4688,-0.4988 0.7188,-0.7188 L 2.5647317,7.4157045 Z M 8,7 C 4.69,7 2,9.68 2,13 H 14 C 14,9.68 11.31,7 8,7 Z M 8.1114775,5.2294876 7.8933071,5.219638 7.5,6.0293 C 7.67,6.0193 7.83,6 8,6 8.17,6 8.33,6.0193 8.5,6.0293 Z"
     id="path22658"
     sodipodi:nodetypes="ccccccccccccccccccccccccsccscccsccc" />
  <path
     style="fill:#5c616c"
     d="M 1,14 H 15 C 15.554,14 16,14.446 16,15 16,15.554 15.554,16 15,16 H 1 C 0.446,16 0,15.554 0,15 0,14.446 0.446,14 1,14 Z"
     id="path22660" />
  <path
     style="fill:#5c616c"
     d="m 8.1715495,0.22873262 v 0 L 10.804601,3.7394683 10.690105,4 V 4 H 5.3720975 V 4 L 5.2516714,3.6644381 7.8545945,0.19387394 Z"
     id="path22662"
     sodipodi:nodetypes="cccccccccc" />
</svg>
