<?xml version="1.0" encoding="UTF-8" standalone="no"?>
<svg
   width="16"
   height="16"
   version="1.1"
   id="svg133751"
   sodipodi:docname="dialog-error-symbolic.svg"
   inkscape:version="1.1.2 (0a00cf5339, 2022-02-04)"
   xmlns:inkscape="http://www.inkscape.org/namespaces/inkscape"
   xmlns:sodipodi="http://sodipodi.sourceforge.net/DTD/sodipodi-0.dtd"
   xmlns="http://www.w3.org/2000/svg"
   xmlns:svg="http://www.w3.org/2000/svg">
  <defs
     id="defs133755" />
  <sodipodi:namedview
     id="namedview133753"
     pagecolor="#ffffff"
     bordercolor="#666666"
     borderopacity="1.0"
     inkscape:pageshadow="2"
     inkscape:pageopacity="0.0"
     inkscape:pagecheckerboard="0"
     showgrid="false"
     inkscape:zoom="51.6875"
     inkscape:cx="7.9903265"
     inkscape:cy="8"
     inkscape:window-width="1920"
     inkscape:window-height="1051"
     inkscape:window-x="0"
     inkscape:window-y="29"
     inkscape:window-maximized="1"
     inkscape:current-layer="svg133751" />
  <path
     style="fill:#dd4747"
     class="error"
     d="M 8,1 C 4.13,1 1,4.13 1,8 c 0,3.86 3.13,7 7,7 3.87,0 7,-3.14 7,-7 C 15,4.13 11.87,1 8,1 Z M 7.3140091,3 V 3 H 8.7168677 L 9,3.3258265 v 0 5.2880345 L 8.6326047,9 V 9 H 7.3389853 V 9 L 7,8.6425273 V 3.2903738 Z M 7,11.283058 7.2861848,11 h 1.4232448 v 0 L 9,11.320126 v 1.282301 0 L 8.7200596,13 h -1.472132 v 0 L 7,12.692516 Z"
     id="path133749"
     sodipodi:nodetypes="ssssscccccccccccccccccccccccccc" />
</svg>
