<?xml version="1.0" encoding="UTF-8" standalone="no"?>
<svg
   width="16"
   height="16"
   version="1.1"
   id="svg2271728"
   sodipodi:docname="display-brightness-low-symbolic.svg"
   inkscape:version="1.1.2 (0a00cf5339, 2022-02-04)"
   xmlns:inkscape="http://www.inkscape.org/namespaces/inkscape"
   xmlns:sodipodi="http://sodipodi.sourceforge.net/DTD/sodipodi-0.dtd"
   xmlns="http://www.w3.org/2000/svg"
   xmlns:svg="http://www.w3.org/2000/svg">
  <defs
     id="defs2271732" />
  <sodipodi:namedview
     id="namedview2271730"
     pagecolor="#ffffff"
     bordercolor="#666666"
     borderopacity="1.0"
     inkscape:pageshadow="2"
     inkscape:pageopacity="0.0"
     inkscape:pagecheckerboard="0"
     showgrid="false"
     inkscape:zoom="51.6875"
     inkscape:cx="7.9903265"
     inkscape:cy="8"
     inkscape:window-width="1920"
     inkscape:window-height="1051"
     inkscape:window-x="0"
     inkscape:window-y="29"
     inkscape:window-maximized="1"
     inkscape:current-layer="svg2271728" />
  <path
     style="fill:#5c616c"
     d="M 8,5 C 6.34,5 5,6.34 5,8 5,9.66 6.34,11 8,11 Z"
     id="path2271724" />
  <path
     style="opacity:0.35;fill:#5c616c"
     d="m 7.8261203,0.90171121 v 0 L 5.8105,3 H 3.2809182 L 3,3.3178498 v 0 V 5.8105 L 0.94742782,7.7822048 1.4187096,8.2714714 0.88540352,8.1604907 3,10.221 v 2.457243 L 3.3142642,13 v 0 H 5.8105 l 1.9607233,2.040872 0.4623688,-0.0016 v 0 L 10.221,13 h 2.516247 v 0 L 13,12.628029 V 10.221 l 2.090922,-2.0377082 v 0 L 15.0522,7.8009656 13,6 v -2.6963021 0 L 12.676381,3 H 10.221 L 8.1880175,0.91365286 Z M 8,4 c 2.21,0 4,1.79 4,4 0,2.21 -1.79,4 -4,4 C 5.79,12 4,10.21 4,8 4,5.79 5.79,4 8,4 Z"
     id="path2271726"
     sodipodi:nodetypes="cccccccccccccccccccccccccccccccccsssss" />
</svg>
