<?xml version="1.0" encoding="UTF-8" standalone="no"?>
<svg
   width="16"
   height="16"
   version="1.1"
   id="svg1970523"
   sodipodi:docname="display-brightness-symbolic.svg"
   inkscape:version="1.1.2 (0a00cf5339, 2022-02-04)"
   xmlns:inkscape="http://www.inkscape.org/namespaces/inkscape"
   xmlns:sodipodi="http://sodipodi.sourceforge.net/DTD/sodipodi-0.dtd"
   xmlns="http://www.w3.org/2000/svg"
   xmlns:svg="http://www.w3.org/2000/svg">
  <defs
     id="defs1970527" />
  <sodipodi:namedview
     id="namedview1970525"
     pagecolor="#ffffff"
     bordercolor="#666666"
     borderopacity="1.0"
     inkscape:pageshadow="2"
     inkscape:pageopacity="0.0"
     inkscape:pagecheckerboard="0"
     showgrid="false"
     inkscape:zoom="51.6875"
     inkscape:cx="7.9903265"
     inkscape:cy="8"
     inkscape:window-width="1920"
     inkscape:window-height="1051"
     inkscape:window-x="0"
     inkscape:window-y="29"
     inkscape:window-maximized="1"
     inkscape:current-layer="svg1970523" />
  <path
     style="fill:#5c616c"
     d="M 8.1766765,0.90231411 7.8509928,0.87611853 5.8105,3.0003 H 3.2850405 L 3,3.2118733 v 0 V 5.8108 L 0.90247653,7.8256851 0.87374475,8.14941 v 0 L 3,10.221 v 2.578326 L 3.2774831,13 v 0 H 5.8105 l 2.0258679,2.108679 0.346907,-0.01774 v 0 L 10.221,13 h 2.536501 v 0 L 13,12.688181 V 10.221 l 2.121178,-2.0669149 v 0 L 15.061795,7.8096855 13,6.0003 v -2.7491741 0 L 12.708784,3.0003 H 10.221 Z M 8,4.0003 c 2.21,0 4,1.79 4,4 C 12,10.21 10.21,12 8,12 5.79,12 4,10.21 4,8.0003 c 0,-2.21 1.79,-4 4,-4 z m 0,1 c -1.6569,0 -3,1.3431 -3,3 C 5,9.6572 6.3431,11 8,11 Z"
     id="path1970521"
     sodipodi:nodetypes="cccccccccccccccccccccccccccccccccssssscscc" />
</svg>
