<?xml version="1.0" encoding="UTF-8" standalone="no"?>
<svg
   width="16"
   height="16"
   version="1.1"
   id="svg835773"
   sodipodi:docname="mail-replied-symbolic.svg"
   inkscape:version="1.1.2 (0a00cf5339, 2022-02-04)"
   xmlns:inkscape="http://www.inkscape.org/namespaces/inkscape"
   xmlns:sodipodi="http://sodipodi.sourceforge.net/DTD/sodipodi-0.dtd"
   xmlns="http://www.w3.org/2000/svg"
   xmlns:svg="http://www.w3.org/2000/svg">
  <defs
     id="defs835777" />
  <sodipodi:namedview
     id="namedview835775"
     pagecolor="#ffffff"
     bordercolor="#666666"
     borderopacity="1.0"
     inkscape:pageshadow="2"
     inkscape:pageopacity="0.0"
     inkscape:pagecheckerboard="0"
     showgrid="false"
     inkscape:zoom="51.6875"
     inkscape:cx="7.9613059"
     inkscape:cy="6.452237"
     inkscape:window-width="1077"
     inkscape:window-height="859"
     inkscape:window-x="439"
     inkscape:window-y="31"
     inkscape:window-maximized="1"
     inkscape:current-layer="svg835773" />
  <path
     style="fill:#5c616c"
     d="M 6.3544835,1.946896 6.6735411,1.9048217 7,2.0882797 V 3.7255053 L 7.1974368,4 V 4 H 9.5 c 3,0 5,2.13 5,5.25 0,2.484006 -2.336676,3.945716 -3.438141,4.496752 -0.339659,0.169923 0,0 0,0 0,0 -0.434095,0.07219 -0.253038,-0.219377 C 11.320443,12.703472 12.257604,10.997128 11.94,10 11.57,8.87 10.36,8 9,8 H 7.2650712 L 7,8.223536 v 0 1.6633345 L 6.6799317,10.075385 6.5214743,10.168713 6.6799317,10.075385 6.2482088,9.9795291 1.1050948,6.4189118 v 0 L 0.95246717,6.1420471 0.95150255,5.8625985 0.95089931,5.6878389 v 0 L 1.1523646,5.548363 6.3544835,1.946896 Z"
     id="path835771"
     sodipodi:nodetypes="ccccccssscscscccccccccccccccccc" />
</svg>
