<?xml version="1.0" encoding="UTF-8" standalone="no"?>
<svg
   width="16"
   height="16"
   version="1.1"
   id="svg5356308"
   sodipodi:docname="media-playlist-shuffle-symbolic-rtl.svg"
   inkscape:version="1.1.2 (0a00cf5339, 2022-02-04)"
   xmlns:inkscape="http://www.inkscape.org/namespaces/inkscape"
   xmlns:sodipodi="http://sodipodi.sourceforge.net/DTD/sodipodi-0.dtd"
   xmlns="http://www.w3.org/2000/svg"
   xmlns:svg="http://www.w3.org/2000/svg">
  <defs
     id="defs5356312" />
  <sodipodi:namedview
     id="namedview5356310"
     pagecolor="#ffffff"
     bordercolor="#666666"
     borderopacity="1.0"
     inkscape:pageshadow="2"
     inkscape:pageopacity="0.0"
     inkscape:pagecheckerboard="0"
     showgrid="false"
     inkscape:zoom="51.6875"
     inkscape:cx="7.9903265"
     inkscape:cy="8"
     inkscape:window-width="1920"
     inkscape:window-height="1051"
     inkscape:window-x="0"
     inkscape:window-y="29"
     inkscape:window-maximized="1"
     inkscape:current-layer="svg5356308" />
  <path
     style="fill:#5c616c"
     d="M 3,13 V 11 H 7 C 7.554,11 8,10.55 8,10 V 6 C 8,4.34 9.338,3 11,3 H 15 V 5 H 11 C 10.446,5 10,5.45 10,6 V 10 C 10,11.66 8.662,13 7,13 Z"
     id="path5356300" />
  <path
     style="fill:#5c616c"
     d="M 3,3 V 5 H 6.623 C 6.792,4.2702 7.1462,3.6156 7.625,3.0664 7.4231,3.0238 7.2149,3 7,3 Z M 11.377,11 C 11.208,11.73 10.854,12.384 10.375,12.934 10.577,12.976 10.785,13 11,13 H 15 V 11 Z"
     id="path5356302" />
  <path
     style="fill:#5c616c"
     d="m 4,1.3142361 v 0 5.3448456 0 L 3.6877834,6.7658376 0.22134522,4.1660089 v 0 L 0.26334407,3.8024919 3.6857811,1.2356642 Z"
     id="path5356304"
     sodipodi:nodetypes="cccccccccc" />
  <path
     style="fill:#5c616c"
     d="M 3.6954389,9.2284208 4,9.3866361 v 5.2315229 0 l -0.2967885,0.15925 -3.46898727,-2.601741 v 0 l 0.009137,-0.358189 z"
     id="path5356306"
     sodipodi:nodetypes="cccccccccc" />
</svg>
