<?xml version="1.0" encoding="UTF-8" standalone="no"?>
<svg
   width="16"
   height="16"
   version="1.1"
   id="svg7525"
   sodipodi:docname="media-playlist-repeat-song-symbolic.svg"
   inkscape:version="1.1.2 (0a00cf5339, 2022-02-04)"
   xmlns:inkscape="http://www.inkscape.org/namespaces/inkscape"
   xmlns:sodipodi="http://sodipodi.sourceforge.net/DTD/sodipodi-0.dtd"
   xmlns="http://www.w3.org/2000/svg"
   xmlns:svg="http://www.w3.org/2000/svg">
  <defs
     id="defs7529" />
  <sodipodi:namedview
     id="namedview7527"
     pagecolor="#ffffff"
     bordercolor="#666666"
     borderopacity="1.0"
     inkscape:pageshadow="2"
     inkscape:pageopacity="0.0"
     inkscape:pagecheckerboard="0"
     showgrid="false"
     inkscape:zoom="51.6875"
     inkscape:cx="7.9903265"
     inkscape:cy="8"
     inkscape:window-width="1920"
     inkscape:window-height="1051"
     inkscape:window-x="0"
     inkscape:window-y="29"
     inkscape:window-maximized="1"
     inkscape:current-layer="svg7525" />
  <path
     style="fill:#5c616c"
     d="M 11.5,8 C 9.57,8 8,9.57 8,11.5 8,13.43 9.57,15 11.5,15 13.43,15 15,13.43 15,11.5 15,9.57 13.43,8 11.5,8 Z M 11,9 H 12 V 14 H 11 V 10.5 H 10 V 10 C 11,10 11,9 11,9 Z"
     id="path7521" />
  <path
     style="fill:#5c616c"
     d="m 6,1.4973992 v 0 V 3 H 4 C 2.338,3 1,4.338 1,6 v 4 c 0,1.662 1.338,3 3,3 H 7.2637 C 7.0912126,12.518614 7.0020357,12.011351 7,11.5 7.0011075,11.332883 7.0115236,11.165958 7.0312,11 H 4 C 3.446,11 3,10.554 3,10 V 6 C 3,5.446 3.446,5 4,5 h 2 v 1.4046718 l 0.4708981,0.2421546 v 0 L 9.6569773,4.257267 v 0 L 9.6336976,3.7252732 6.3843554,1.2882666 Z M 11,3 v 2 h 1 c 0.554,0 1,0.446 1,1 v 1.2637 c 0.784124,0.276261 1.476389,0.7643428 2,1.4101 V 6 C 15,4.338 13.662,3 12,3 Z"
     id="path7523"
     sodipodi:nodetypes="cccsssscccsssscccccccccccssccssc" />
</svg>
