<?xml version="1.0" encoding="UTF-8" standalone="no"?>
<svg
   width="16"
   height="16"
   version="1.1"
   id="svg28350"
   sodipodi:docname="media-playlist-no-repeat-symbolic.svg"
   inkscape:version="1.1.2 (0a00cf5339, 2022-02-04)"
   xmlns:inkscape="http://www.inkscape.org/namespaces/inkscape"
   xmlns:sodipodi="http://sodipodi.sourceforge.net/DTD/sodipodi-0.dtd"
   xmlns="http://www.w3.org/2000/svg"
   xmlns:svg="http://www.w3.org/2000/svg">
  <defs
     id="defs28354" />
  <sodipodi:namedview
     id="namedview28352"
     pagecolor="#ffffff"
     bordercolor="#666666"
     borderopacity="1.0"
     inkscape:pageshadow="2"
     inkscape:pageopacity="0.0"
     inkscape:pagecheckerboard="0"
     showgrid="false"
     inkscape:zoom="51.6875"
     inkscape:cx="7.9903265"
     inkscape:cy="8"
     inkscape:window-width="1920"
     inkscape:window-height="1051"
     inkscape:window-x="0"
     inkscape:window-y="29"
     inkscape:window-maximized="1"
     inkscape:current-layer="svg28350" />
  <path
     style="opacity:0.35;fill:#5c616c"
     d="M 6.3404703,1.2553527 6,1.4314316 V 3 H 4 C 2.338,3 1,4.338 1,6 v 4 c 0,1.662 1.338,3 3,3 h 8 c 1.662,0 3,-1.338 3,-3 V 6 C 15,4.338 13.662,3 12,3 h -1 v 2 h 1 c 0.554,0 1,0.446 1,1 v 4 c 0,0.554 -0.446,1 -1,1 H 4 C 3.446,11 3,10.554 3,10 V 6 C 3,5.446 3.446,5 4,5 h 2 v 1.552657 0 l 0.3994766,0.1477356 3.301045,-2.4757838 v 0 l -0.034985,-0.475456 z"
     id="path28348"
     sodipodi:nodetypes="cccssssssssccsssssssscccccccc" />
</svg>
