<?xml version="1.0" encoding="UTF-8" standalone="no"?>
<svg
   width="16"
   height="16"
   version="1.1"
   id="svg71"
   sodipodi:docname="media-playlist-shuffle-rtl-symbolic.svg"
   inkscape:version="1.1.2 (0a00cf5339, 2022-02-04)"
   xmlns:inkscape="http://www.inkscape.org/namespaces/inkscape"
   xmlns:sodipodi="http://sodipodi.sourceforge.net/DTD/sodipodi-0.dtd"
   xmlns="http://www.w3.org/2000/svg"
   xmlns:svg="http://www.w3.org/2000/svg">
  <defs
     id="defs75" />
  <sodipodi:namedview
     id="namedview73"
     pagecolor="#ffffff"
     bordercolor="#666666"
     borderopacity="1.0"
     inkscape:pageshadow="2"
     inkscape:pageopacity="0.0"
     inkscape:pagecheckerboard="0"
     showgrid="false"
     inkscape:zoom="51.6875"
     inkscape:cx="7.9903265"
     inkscape:cy="8"
     inkscape:window-width="1920"
     inkscape:window-height="1051"
     inkscape:window-x="0"
     inkscape:window-y="29"
     inkscape:window-maximized="1"
     inkscape:current-layer="svg71" />
  <path
     style="fill:#5c616c"
     d="M 3,13 V 11 H 7 C 7.554,11 8,10.55 8,10 V 6 C 8,4.34 9.338,3 11,3 H 15 V 5 H 11 C 10.446,5 10,5.45 10,6 V 10 C 10,11.66 8.662,13 7,13 Z"
     id="path63" />
  <path
     style="fill:#5c616c"
     d="M 3,3 V 5 H 6.623 C 6.792,4.2702 7.1462,3.6156 7.625,3.0664 7.4231,3.0238 7.2149,3 7,3 Z M 11.377,11 C 11.208,11.73 10.854,12.384 10.375,12.934 10.577,12.976 10.785,13 11,13 H 15 V 11 Z"
     id="path65" />
  <path
     style="fill:#5c616c"
     d="M 3.6303491,1.2772382 4,1.4641296 v 5.0676187 0 L 3.5961181,6.6970886 0.26741158,4.2005587 v 0 l 0.0134939,-0.4112378 z"
     id="path67"
     sodipodi:nodetypes="ccccccccc" />
  <path
     style="fill:#5c616c"
     d="M 3.6145108,9.2891169 4,9.4740615 v 5.0535235 0 l -0.3699125,0.194981 -3.3488921,-2.511669 0.0470613,-0.45709 v 0 z"
     id="path69"
     sodipodi:nodetypes="cccccccccc" />
</svg>
