<?xml version="1.0" encoding="UTF-8" standalone="no"?>
<svg
   width="16"
   height="16"
   version="1.1"
   id="svg5457108"
   sodipodi:docname="media-playlist-shuffle-symbolic.svg"
   inkscape:version="1.1.2 (0a00cf5339, 2022-02-04)"
   xmlns:inkscape="http://www.inkscape.org/namespaces/inkscape"
   xmlns:sodipodi="http://sodipodi.sourceforge.net/DTD/sodipodi-0.dtd"
   xmlns="http://www.w3.org/2000/svg"
   xmlns:svg="http://www.w3.org/2000/svg">
  <defs
     id="defs5457112" />
  <sodipodi:namedview
     id="namedview5457110"
     pagecolor="#ffffff"
     bordercolor="#666666"
     borderopacity="1.0"
     inkscape:pageshadow="2"
     inkscape:pageopacity="0.0"
     inkscape:pagecheckerboard="0"
     showgrid="false"
     inkscape:zoom="51.6875"
     inkscape:cx="7.9903265"
     inkscape:cy="8"
     inkscape:window-width="1920"
     inkscape:window-height="1051"
     inkscape:window-x="0"
     inkscape:window-y="29"
     inkscape:window-maximized="1"
     inkscape:current-layer="svg5457108" />
  <path
     style="fill:#5c616c"
     d="M 13,13 V 11 H 9 C 8.446,11 8,10.55 8,10 V 6 C 8,4.34 6.662,3 5,3 H 1 V 5 H 5 C 5.554,5 6,5.45 6,6 V 10 C 6,11.66 7.338,13 9,13 Z"
     id="path5457100" />
  <path
     style="fill:#5c616c"
     d="M 13,3 V 5 H 9.377 C 9.208,4.2702 8.8538,3.6156 8.375,3.0664 8.5769,3.0238 8.7851,3 9,3 Z M 4.623,11 C 4.792,11.73 5.146,12.384 5.625,12.934 5.423,12.976 5.215,13 5,13 H 1 V 11 Z"
     id="path5457102" />
  <path
     style="fill:#5c616c"
     d="m 12,1.3421517 v 0 5.2305461 l 0.311121,0.1939616 v 0 l 3.455234,-2.5914255 -1.37e-4,-0.3505706 v 0 L 12.349274,1.2619557 Z"
     id="path5457104"
     sodipodi:nodetypes="cccccccccc" />
  <path
     style="fill:#5c616c"
     d="M 12.331665,9.2487485 12,9.3965788 v 5.1507122 l 0.33483,0.201587 v 0 l 3.421572,-2.566179 -0.01953,-0.380043 v 0 z"
     id="path5457106"
     sodipodi:nodetypes="cccccccccc" />
</svg>
