<?xml version="1.0" encoding="UTF-8" standalone="no"?>
<svg
   width="16"
   height="16"
   version="1.1"
   id="svg4"
   sodipodi:docname="microphone-disabled-symbolic.svg"
   inkscape:version="1.1.2 (0a00cf5339, 2022-02-04)"
   xmlns:inkscape="http://www.inkscape.org/namespaces/inkscape"
   xmlns:sodipodi="http://sodipodi.sourceforge.net/DTD/sodipodi-0.dtd"
   xmlns="http://www.w3.org/2000/svg"
   xmlns:svg="http://www.w3.org/2000/svg">
  <defs
     id="defs8" />
  <sodipodi:namedview
     id="namedview6"
     pagecolor="#ffffff"
     bordercolor="#666666"
     borderopacity="1.0"
     inkscape:pageshadow="2"
     inkscape:pageopacity="0.0"
     inkscape:pagecheckerboard="0"
     showgrid="false"
     inkscape:zoom="48.5625"
     inkscape:cx="8"
     inkscape:cy="8"
     inkscape:window-width="1920"
     inkscape:window-height="1051"
     inkscape:window-x="0"
     inkscape:window-y="29"
     inkscape:window-maximized="1"
     inkscape:current-layer="svg4" />
  <path
     style="opacity:0.35;fill:#5c616c"
     d="M 8,0 C 6.7306498,0 5.6639801,0.78890342 5.2282388,1.9009599 c -0.031187,0.079592 0.125402,0.345383 0.1008361,0.428115 v 0 L 10.523854,7.5238541 10.73088,7.7308804 11,7.6131794 v 0 V 3 C 11,1.34 9.66,0 8,0 Z M 2.5,1 1,2.5 5,6.5 V 8 c 0,1.66 1.34,3 3,3 0.4396571,0 0.8488731,-0.1057 1.2226562,-0.277344 l 0.7480469,0.748047 C 9.3918436,11.803497 8.7243353,12 8,12 5.77,12 4,10.23 4,8 V 7 H 2 v 1 c 0,2.97 2.16,5.430156 5,5.910156 V 16 h 2 v -2.089844 c 0.8892692,-0.14978 1.702183,-0.504247 2.410156,-1 L 13.5,15 15,13.5 Z M 12,7 v 1 c 0,0.2398777 -0.03126,0.4696437 -0.07741,0.6941167 -0.01287,0.062625 0.150815,0.150815 0,0 l 0.109079,0.3375577 1.212823,1.2128226 0.33538,-0.100807 c 0.04605,-0.100527 -0.041,0.103144 0,0 C 13.844264,9.4785489 14,8.7599542 14,8 V 7 Z"
     id="path2"
     sodipodi:nodetypes="ssccccccsscccssccssccscccccccccssccccsscc" />
</svg>
