<?xml version="1.0" encoding="UTF-8" standalone="no"?>
<svg
   width="16"
   height="16"
   version="1.1"
   id="svg5300365"
   sodipodi:docname="mpi-symbolic.svg"
   inkscape:version="1.1.2 (0a00cf5339, 2022-02-04)"
   xmlns:inkscape="http://www.inkscape.org/namespaces/inkscape"
   xmlns:sodipodi="http://sodipodi.sourceforge.net/DTD/sodipodi-0.dtd"
   xmlns="http://www.w3.org/2000/svg"
   xmlns:svg="http://www.w3.org/2000/svg">
  <defs
     id="defs5300369" />
  <sodipodi:namedview
     id="namedview5300367"
     pagecolor="#ffffff"
     bordercolor="#666666"
     borderopacity="1.0"
     inkscape:pageshadow="2"
     inkscape:pageopacity="0.0"
     inkscape:pagecheckerboard="0"
     showgrid="false"
     inkscape:zoom="51.6875"
     inkscape:cx="7.9903265"
     inkscape:cy="8"
     inkscape:window-width="1920"
     inkscape:window-height="1051"
     inkscape:window-x="0"
     inkscape:window-y="29"
     inkscape:window-maximized="1"
     inkscape:current-layer="svg5300365" />
  <path
     style="fill:#5c616c"
     d="M 5.326362,1 5,1.260813 V 2 9.19 C 4.68,9.07 4.36,9 4,9 2.34,9 1,10.34 1,12 c 0,1.66 1.34,3 3,3 1.66,0 3,-1.34 3,-3 V 5.2756693 L 7.2679525,5 V 5 H 12.798313 V 5 L 13,5.17322 V 9.19 C 12.68,9.07 12.36,9 12,9 c -1.66,0 -3,1.34 -3,3 0,1.66 1.34,3 3,3 1.66,0 3,-1.34 3,-3 v -10.7505027 0 L 14.768861,1 H 14 Z"
     id="path5300363"
     sodipodi:nodetypes="ccccsssscccccccsssscccccc" />
</svg>
