<?xml version="1.0" encoding="UTF-8" standalone="no"?>
<svg
   width="16"
   height="16"
   version="1.1"
   id="svg25463"
   sodipodi:docname="my-caffeine-on-symbolic.svg"
   inkscape:version="1.1.2 (0a00cf5339, 2022-02-04)"
   xmlns:inkscape="http://www.inkscape.org/namespaces/inkscape"
   xmlns:sodipodi="http://sodipodi.sourceforge.net/DTD/sodipodi-0.dtd"
   xmlns="http://www.w3.org/2000/svg"
   xmlns:svg="http://www.w3.org/2000/svg">
  <defs
     id="defs25467" />
  <sodipodi:namedview
     id="namedview25465"
     pagecolor="#ffffff"
     bordercolor="#666666"
     borderopacity="1.0"
     inkscape:pageshadow="2"
     inkscape:pageopacity="0.0"
     inkscape:pagecheckerboard="0"
     showgrid="false"
     inkscape:zoom="51.6875"
     inkscape:cx="8.0096735"
     inkscape:cy="8"
     inkscape:window-width="1920"
     inkscape:window-height="1051"
     inkscape:window-x="0"
     inkscape:window-y="29"
     inkscape:window-maximized="1"
     inkscape:current-layer="svg25463" />
  <path
     style="fill:#5c616c"
     d="m 6.936348,0.31944635 c -0.09095,0.11428803 0.080426,-0.0990322 0,0 C 6.0456476,1.4162031 5.798804,1.6428793 6.1621,2.45 c 0.3266276,0.7276583 1.1237537,0.7107261 0.9141252,2.0938579 -0.020841,0.137507 0.2375296,-0.050824 0.1953363,0.1164663 0.099836,-0.1172394 -0.092162,0.109609 0,0 C 7.8868933,3.9285082 8.2793059,3.3401553 7.7559,2.54 7.2064491,1.6963479 6.880044,1.5534897 7.0972396,0.42695824 7.1220441,0.29830462 6.8968864,0.47626788 6.936348,0.31944635 Z m 3.16781,0.0707539 C 10.009697,0.50894387 10.009768,0.22867664 9.9266601,0.33099665 9.0439173,1.4178062 8.8000829,1.6457206 9.1621,2.45 c 0.3276816,0.7300064 1.128903,0.710609 0.912064,2.1072917 -0.02079,0.133915 0.208699,-0.023727 0.167875,0.1381336 0.08924,-0.104764 -0.0833,0.09857 0,0 C 10.874372,3.9472083 11.287925,3.3529079 10.756,2.54 10.200811,1.687258 9.8730876,1.5504926 10.104158,0.39020021 c 0.02365,-0.11872847 -0.0357,0.14202626 0,4e-8 z m 3.007963,-0.0397203 C 13.029356,0.4545018 13.031839,0.20128242 12.957793,0.29258667 12.04952,1.4125642 11.79585,1.6363328 12.162,2.45 c 0.330031,0.7354443 1.140936,0.7102785 0.906834,2.1387401 -0.02055,0.1253873 0.201582,-0.031925 0.163898,0.1173597 0.08606,-0.1009859 -0.0806,0.095202 0,0 C 13.870421,3.9528503 14.290452,3.35677 13.756,2.54 13.194538,1.6776239 12.865375,1.5474937 13.112121,0.35047988 c 0.02221,-0.10774526 -0.03179,0.12634535 0,7e-8 z M 4,6 C 1.7909,6 0,7.79 0,10 0,12.21 1.7909,14 4,14 4.2425,14 4.4843,13.98 4.7227,13.93 5.462,15.48 6.958,16 10,16 c 5.9529,0 5.99963,-1.968723 5.999997,-9.8127059 3e-6,-0.062063 -0.210732,0 0,0 L 15.789268,6 Z M 4,8 H 4.0078 C 4.0194,9.6 4.06,10.94 4.2031,11.99 4.1357,11.99 4.0679,12 4,12 2.8954,12 2,11.1 2,10 2,8.9 2.8954,8 4,8 Z"
     id="path25461"
     sodipodi:nodetypes="cscscscsccscscscsccscscscscssscssccssccsss" />
</svg>
