<?xml version="1.0" encoding="UTF-8" standalone="no"?>
<svg
   width="16"
   height="16"
   version="1.1"
   id="svg4"
   sodipodi:docname="night-light-disabled-symbolic.svg"
   inkscape:version="1.1.2 (0a00cf5339, 2022-02-04)"
   xmlns:inkscape="http://www.inkscape.org/namespaces/inkscape"
   xmlns:sodipodi="http://sodipodi.sourceforge.net/DTD/sodipodi-0.dtd"
   xmlns="http://www.w3.org/2000/svg"
   xmlns:svg="http://www.w3.org/2000/svg">
  <defs
     id="defs8" />
  <sodipodi:namedview
     id="namedview6"
     pagecolor="#ffffff"
     bordercolor="#666666"
     borderopacity="1.0"
     inkscape:pageshadow="2"
     inkscape:pageopacity="0.0"
     inkscape:pagecheckerboard="0"
     showgrid="false"
     inkscape:zoom="51.6875"
     inkscape:cx="12.130593"
     inkscape:cy="12.633615"
     inkscape:window-width="460"
     inkscape:window-height="884"
     inkscape:window-x="465"
     inkscape:window-y="31"
     inkscape:window-maximized="1"
     inkscape:current-layer="svg4" />
  <path
     style="opacity:0.35;fill:#5c616c"
     d="m 1,8 c 0,3.866 3.134,7 7,7 1.7746636,0 3.404533,-0.750311 4.682509,-1.965816 0.108404,-0.103105 -0.162601,-0.109589 -0.05939,-0.219215 -0.129172,0.03292 0.122886,-0.03283 0,0 C 12.253219,12.913792 11.900838,13 11.5,13 7.9101,13 5,10.09 5,6.5 5,4.437922 5.9631203,2.5088763 7.5836543,1.2885236 c 0.1343232,-0.1011528 -0.1431825,0.091087 0,0 -0.1888059,0 0.040554,-0.2811235 -0.1443417,-0.266599 C 3.8191717,1.3063059 1,4.3218584 1,8 Z"
     id="path2"
     sodipodi:nodetypes="ssscsssscss" />
</svg>
