<?xml version="1.0" encoding="UTF-8" standalone="no"?>
<svg
   width="16"
   height="16"
   version="1.1"
   id="svg8"
   sodipodi:docname="num-lock-symbolic.svg"
   inkscape:version="1.1.2 (0a00cf5339, 2022-02-04)"
   xmlns:inkscape="http://www.inkscape.org/namespaces/inkscape"
   xmlns:sodipodi="http://sodipodi.sourceforge.net/DTD/sodipodi-0.dtd"
   xmlns="http://www.w3.org/2000/svg"
   xmlns:svg="http://www.w3.org/2000/svg">
  <defs
     id="defs12" />
  <sodipodi:namedview
     id="namedview10"
     pagecolor="#ffffff"
     bordercolor="#666666"
     borderopacity="1.0"
     inkscape:pageshadow="2"
     inkscape:pageopacity="0.0"
     inkscape:pagecheckerboard="0"
     showgrid="false"
     inkscape:zoom="51.6875"
     inkscape:cx="17.315599"
     inkscape:cy="14.162031"
     inkscape:window-width="460"
     inkscape:window-height="884"
     inkscape:window-x="465"
     inkscape:window-y="31"
     inkscape:window-maximized="1"
     inkscape:current-layer="g6" />
  <g
     id="g6">
    <path
       style="fill:#5c616c"
       d="M 3.0004,0 C 1.981231,-1.8760181e-4 1.1249088,0.76603168 1.0122,1.779 l -0.99998,9 C -0.11938236,11.963943 0.80823061,13.000181 2.0004,13 H 14 c 1.192097,7.4e-5 2.119594,-1.036129 1.988,-2.221 l -1,-9 C 14.8753,0.76610763 14.019093,-8.5680008e-5 13,0 Z M 8.7239484,2.0690181 9,2.353606 V 4 8.7596133 L 9.2355818,9 V 9 H 11 v 2 H 5.0003 V 9 H 6.7755855 V 9 L 7,8.7737799 v -4.1118105 0 L 6.82036,4.5449167 5.3346155,4.9164086 v 0 L 5.0003,4.7203896 l 0,-1.466922 0.2339301,-0.3119545 v 0 z"
       id="path2"
       sodipodi:nodetypes="ccccccccccccccccccccccccccccccccc" />
    <path
       style="fill:#5c616c"
       d="m 5.2738e-4,13.480829 v 0 V 13.75 C 5.2738e-4,14.962 1.0386,16 2.2504,16 H 13.75 C 14.962,16 16,14.962 16,13.75 v -0.262397 l -0.184053,-0.128856 c -0.05938,0.05414 0.06328,-0.04963 0,0 C 15.312273,13.753764 14.688495,14 14,14 H 2.0004 C 1.3443221,14 0.74629552,13.776174 0.25563928,13.412982 0.16700099,13.34737 0.08186677,13.55504 5.2738e-4,13.480829 Z"
       id="path4"
       sodipodi:nodetypes="ccssssccssssc" />
  </g>
</svg>
