<?xml version="1.0" encoding="UTF-8" standalone="no"?>
<svg
   width="16"
   height="16"
   version="1.1"
   id="svg8"
   sodipodi:docname="numlock-disabled-symbolic.svg"
   inkscape:version="1.1.2 (0a00cf5339, 2022-02-04)"
   xmlns:inkscape="http://www.inkscape.org/namespaces/inkscape"
   xmlns:sodipodi="http://sodipodi.sourceforge.net/DTD/sodipodi-0.dtd"
   xmlns="http://www.w3.org/2000/svg"
   xmlns:svg="http://www.w3.org/2000/svg">
  <defs
     id="defs12" />
  <sodipodi:namedview
     id="namedview10"
     pagecolor="#ffffff"
     bordercolor="#666666"
     borderopacity="1.0"
     inkscape:pageshadow="2"
     inkscape:pageopacity="0.0"
     inkscape:pagecheckerboard="0"
     showgrid="false"
     inkscape:zoom="51.6875"
     inkscape:cx="6.9649335"
     inkscape:cy="8.0096735"
     inkscape:window-width="460"
     inkscape:window-height="884"
     inkscape:window-x="465"
     inkscape:window-y="31"
     inkscape:window-maximized="1"
     inkscape:current-layer="g6" />
  <g
     style="opacity:.35"
     id="g6">
    <path
       style="fill:#5c616c"
       d="M 3.0004,0 C 1.981231,-1.8760181e-4 1.1249088,0.76603168 1.0122,1.779 l -0.99998,9 C -0.11938236,11.963943 0.80823061,13.000181 2.0004,13 H 14 c 1.192097,7.4e-5 2.119594,-1.036129 1.988,-2.221 l -1,-9 C 14.8753,0.76610763 14.019093,-8.5680008e-5 13,0 Z M 8.7579781,2.06051 9,2.3267771 V 4 8.7967664 L 9.158496,9 V 9 H 11 v 2 H 5.0003 V 9 H 6.7952631 V 9 L 7,8.7296599 7,4.6983455 v 0 L 6.7812249,4.554702 5.2584872,4.9354435 v 0 L 5.0003,4.7823305 v -1.5684707 0 L 5.2598146,2.9351165 Z"
       id="path2"
       sodipodi:nodetypes="ccccccccccccccccccccccccccccccccc" />
    <path
       style="fill:#5c616c"
       d="M 0.25858887,13.415162 5.2738e-4,13.535705 V 13.75 C 5.2738e-4,14.962 1.0386,16 2.2504,16 H 13.75 C 14.962,16 16,14.962 16,13.75 v -0.196574 0 C 15.910411,13.6351 15.816256,13.361442 15.717913,13.43264 15.232272,13.784234 14.64449,14 14,14 H 2.0004 c -0.6547638,0 -1.2517086,-0.22293 -1.74181113,-0.584838 -0.0896996,-0.06624 0.0822412,0.07503 0,0 z"
       id="path4"
       sodipodi:nodetypes="ccssssccssssc" />
  </g>
</svg>
