<?xml version="1.0" encoding="UTF-8" standalone="no"?>
<svg
   width="16"
   height="16"
   version="1"
   id="svg4"
   sodipodi:docname="prime-indicator-intel-symbolic.svg"
   inkscape:version="1.1.2 (0a00cf5339, 2022-02-04)"
   xmlns:inkscape="http://www.inkscape.org/namespaces/inkscape"
   xmlns:sodipodi="http://sodipodi.sourceforge.net/DTD/sodipodi-0.dtd"
   xmlns="http://www.w3.org/2000/svg"
   xmlns:svg="http://www.w3.org/2000/svg">
  <defs
     id="defs8" />
  <sodipodi:namedview
     id="namedview6"
     pagecolor="#ffffff"
     bordercolor="#666666"
     borderopacity="1.0"
     inkscape:pageshadow="2"
     inkscape:pageopacity="0.0"
     inkscape:pagecheckerboard="0"
     showgrid="false"
     inkscape:zoom="51.6875"
     inkscape:cx="8"
     inkscape:cy="8"
     inkscape:window-width="1822"
     inkscape:window-height="928"
     inkscape:window-x="0"
     inkscape:window-y="35"
     inkscape:window-maximized="1"
     inkscape:current-layer="svg4" />
  <path
     style="fill:#5c616c"
     d="M 1.7773438,1 C 0.79245483,1 0,1.7805 0,2.75 v 10.5 C 0,14.2195 0.79245483,15 1.7773438,15 H 14.222656 C 15.207545,15 16,14.2195 16,13.25 V 2.75 C 16,1.7805 15.207545,1 14.222656,1 Z M 1,5.125 H 1.8886719 V 6 H 1 Z M 14,6 h 0.888672 v 5 C 14.124228,10.93167 14,10.661016 14,10.166016 Z M 7,6.0507812 H 7.8886719 V 7.125 H 8.7773438 V 8 H 7.8886719 v 1.25 c 0,0.22575 0.048173,0.875 0.2890625,0.875 H 8.7773438 V 11 H 7.8886719 C 7.0611163,11 7,9.9759531 7,9.4238281 Z M 1,7 h 0.8886719 v 4 C 1.1243163,10.934402 1,10.27597 1,9.8007812 Z M 2.6660156,7 H 4.8886719 C 5.7754274,6.99072 6.2226562,7.6929102 6.2226562,8.1992188 V 11 H 5.3339844 V 8.1992188 c 0,-0.2111953 -0.2989032,-0.3984376 -0.5957032,-0.3984376 H 3.5546875 V 11 H 2.6660156 Z m 9.1972654,0 h 0.002 c 1.072,9.6e-4 1.689454,0.8439971 1.689454,1.9511719 v 0.4492187 h -2.368 l -0.140453,0.1732538 c 0.0055,0.060107 -0.0149,-0.055232 0,0 0.09633,0.3571613 0.387519,0.6021366 0.846343,0.6021366 0.365853,0 0.581551,-0.08111 0.789095,-0.246464 0.0461,-0.036725 -0.04685,0.04507 0,0 l 0.286565,0.01545 0.335043,0.312847 v 0 c -0.04265,0.04078 0.05067,0.206995 0.0072,0.244249 -0.362959,0.311366 -0.766026,0.496184 -1.425758,0.496184 C 10.921211,10.998047 10,10.486107 10,8.9941406 10,7.7199296 10.803726,7.0008 11.863281,7 Z m -0.08789,0.8007812 c -0.490335,1.072e-4 -0.887965,0.3575372 -0.888672,0.7988282 h 1.779297 C 12.665309,8.1576315 12.266488,7.7999175 11.775391,7.8007812 Z"
     id="path2"
     sodipodi:nodetypes="sssssssssccccccccscccccccssccssccccscccsccssccccssscccsssccccsssscccc" />
</svg>
