<?xml version="1.0" encoding="UTF-8" standalone="no"?>
<svg
   width="16"
   height="16"
   version="1.1"
   id="svg4714047"
   sodipodi:docname="printer-error-symbolic.svg"
   inkscape:version="1.1.2 (0a00cf5339, 2022-02-04)"
   xmlns:inkscape="http://www.inkscape.org/namespaces/inkscape"
   xmlns:sodipodi="http://sodipodi.sourceforge.net/DTD/sodipodi-0.dtd"
   xmlns="http://www.w3.org/2000/svg"
   xmlns:svg="http://www.w3.org/2000/svg">
  <defs
     id="defs4714051" />
  <sodipodi:namedview
     id="namedview4714049"
     pagecolor="#ffffff"
     bordercolor="#666666"
     borderopacity="1.0"
     inkscape:pageshadow="2"
     inkscape:pageopacity="0.0"
     inkscape:pagecheckerboard="0"
     showgrid="false"
     inkscape:zoom="51.6875"
     inkscape:cx="7.9903265"
     inkscape:cy="8"
     inkscape:window-width="1920"
     inkscape:window-height="1051"
     inkscape:window-x="0"
     inkscape:window-y="29"
     inkscape:window-maximized="1"
     inkscape:current-layer="svg4714047" />
  <path
     style="fill:#5c616c"
     d="m 4,1 v 2 h 8 V 1 Z M 2,4 C 1.5,4 1,4.5 1,5 v 4 c 0,0.5 0.5,1 1,1 H 3 V 8 h 7 V 6 h 4 v 3.7936985 l 0.186287,0.1838969 c 0,-0.2063015 -0.06145,0.014612 0,0 C 14.617047,9.8751604 15,9.4375802 15,9 V 5 C 15,4.5 14.5,4 14,4 Z m 2,5 v 5 h 6 V 9 Z"
     id="path4714043"
     sodipodi:nodetypes="cccccsssscccccccsssssccccc" />
  <path
     style="fill:#dd4747"
     class="error"
     d="M 11.272557,7 11,7.3113227 V 11.01 L 11.25,13 h 1.5 L 13,11 v -3.7657608 0 L 12.773244,7 Z M 11,14.265662 v 0 1.475563 0 L 11.327268,16 h 1.360806 v 0 L 13,15.705891 v -1.443304 0 L 12.766473,14 h -1.490048 z"
     id="path4714045"
     sodipodi:nodetypes="cccccccccccccccccccccccc" />
</svg>
