<?xml version="1.0" encoding="UTF-8" standalone="no"?>
<svg
   width="16"
   height="16"
   version="1.1"
   id="svg827961"
   sodipodi:docname="screen-shared-symbolic.svg"
   inkscape:version="1.1.2 (0a00cf5339, 2022-02-04)"
   xmlns:inkscape="http://www.inkscape.org/namespaces/inkscape"
   xmlns:sodipodi="http://sodipodi.sourceforge.net/DTD/sodipodi-0.dtd"
   xmlns="http://www.w3.org/2000/svg"
   xmlns:svg="http://www.w3.org/2000/svg">
  <defs
     id="defs827965" />
  <sodipodi:namedview
     id="namedview827963"
     pagecolor="#ffffff"
     bordercolor="#666666"
     borderopacity="1.0"
     inkscape:pageshadow="2"
     inkscape:pageopacity="0.0"
     inkscape:pagecheckerboard="0"
     showgrid="false"
     inkscape:zoom="51.6875"
     inkscape:cx="7.9903265"
     inkscape:cy="8.0096735"
     inkscape:window-width="1880"
     inkscape:window-height="966"
     inkscape:window-x="0"
     inkscape:window-y="29"
     inkscape:window-maximized="1"
     inkscape:current-layer="svg827961" />
  <path
     style="fill:#5c616c"
     d="M 1,1 C 0,1 0,2 0,2 v 10 c 0,1 1,1 1,1 h 5 c 0,0 -1,0 -1,1 v 1 h 6 v -1 c 0,-1 -1,-1 -1,-1 h 5 c 1,0 1,-1 1,-1 V 2 c 0,0 0,-1 -1,-1 z m 8,2.3903209 0.2809484,-0.1879777 3.3379766,2.4040601 0.03715,0.5219893 v 0 L 9.4253663,8.4536182 v 0 L 9,8.2656817 V 7 H 7.5351562 C 6.6675626,6.8920326 5.8843414,7.7162528 5.6464844,8.4394531 5.4465609,9.06433 6.0200728,10.12469 6.3528394,10.663762 c 0.1273401,0.206287 -0.1830522,0.153599 -0.1830522,0.153599 0,0 0.2414621,0.122604 0,0 C 5.4461506,10.449929 4,9.5205334 4,7.9609375 4,5.9641375 5.2862725,5 7.2148438,5 H 9 Z"
     id="path827959"
     sodipodi:nodetypes="scsccsccscsccsscccccccccccscssscc" />
</svg>
