<?xml version="1.0" encoding="UTF-8" standalone="no"?>
<svg
   width="16"
   height="16"
   version="1.1"
   id="svg1756325"
   sodipodi:docname="software-update-available-symbolic.svg"
   inkscape:version="1.1.2 (0a00cf5339, 2022-02-04)"
   xmlns:inkscape="http://www.inkscape.org/namespaces/inkscape"
   xmlns:sodipodi="http://sodipodi.sourceforge.net/DTD/sodipodi-0.dtd"
   xmlns="http://www.w3.org/2000/svg"
   xmlns:svg="http://www.w3.org/2000/svg">
  <defs
     id="defs1756329" />
  <sodipodi:namedview
     id="namedview1756327"
     pagecolor="#ffffff"
     bordercolor="#666666"
     borderopacity="1.0"
     inkscape:pageshadow="2"
     inkscape:pageopacity="0.0"
     inkscape:pagecheckerboard="0"
     showgrid="false"
     inkscape:zoom="51.6875"
     inkscape:cx="8.0096735"
     inkscape:cy="8"
     inkscape:window-width="1920"
     inkscape:window-height="1051"
     inkscape:window-x="0"
     inkscape:window-y="29"
     inkscape:window-maximized="1"
     inkscape:current-layer="svg1756325" />
  <path
     style="fill:#5c616c"
     d="M 5.81,3 H 3.2132 L 3,3.2632379 v 0 V 5.81 l -2.11424235,2.0307854 -0.009094,0.3117552 v 0 L 3,10.22 v 2.517142 L 3.2523357,13 v 0 H 5.81 l 2.0405867,2.124446 0.3420559,-0.0423 v 0 L 10.22,13 h 2.560131 L 13,12.808715 v 0 V 10.22 l 2.135877,-2.0796697 v 0 L 15.095413,7.8226997 13,5.81 V 3.2248993 L 12.758719,3 V 3 H 10.22 L 8.0002421,0.72267876 m -0.161753,3.67604804 0.3322861,0.014267 2.1391828,3.2943415 v 0 L 10.216414,8 H 9.2061539 L 9,8.1858881 v 0 V 12 H 7 V 8.1866734 L 6.8396218,8 V 8 H 5.7688275 L 5.6656165,7.7449506 v 0 z"
     id="path1756323"
     sodipodi:nodetypes="cccccccccccccccccccccccccccccccccccccccccccccccc" />
</svg>
