<?xml version="1.0" encoding="UTF-8" standalone="no"?>
<svg
   width="16"
   height="16"
   version="1.1"
   id="svg2228891"
   sodipodi:docname="task-due-symbolic.svg"
   inkscape:version="1.1.2 (0a00cf5339, 2022-02-04)"
   xmlns:inkscape="http://www.inkscape.org/namespaces/inkscape"
   xmlns:sodipodi="http://sodipodi.sourceforge.net/DTD/sodipodi-0.dtd"
   xmlns="http://www.w3.org/2000/svg"
   xmlns:svg="http://www.w3.org/2000/svg">
  <defs
     id="defs2228895" />
  <sodipodi:namedview
     id="namedview2228893"
     pagecolor="#ffffff"
     bordercolor="#666666"
     borderopacity="1.0"
     inkscape:pageshadow="2"
     inkscape:pageopacity="0.0"
     inkscape:pagecheckerboard="0"
     showgrid="false"
     inkscape:zoom="51.6875"
     inkscape:cx="7.9903265"
     inkscape:cy="8"
     inkscape:window-width="1920"
     inkscape:window-height="1051"
     inkscape:window-x="0"
     inkscape:window-y="29"
     inkscape:window-maximized="1"
     inkscape:current-layer="svg2228891" />
  <path
     style="fill:#5c616c"
     d="M 8,0 A 2,2 0 0 0 6,2 H 2 C 1.446,2 1,2.446 1,3 V 14 C 1,14.554 1.446,15 2,15 H 11 V 12 H 4 V 11 H 11 V 9 H 4 V 8 H 11 V 6 H 4 V 5 H 12 V 6 H 15 V 3 C 15,2.446 14.554,2 14,2 H 10 A 2,2 0 0 0 8,0 Z M 8,1 A 1,1 0 0 1 9,2 1,1 0 0 1 8,3 1,1 0 0 1 7,2 1,1 0 0 1 8,1 Z"
     id="path2228887" />
  <path
     style="fill:#dd4747"
     class="error"
     d="M 12.331802,7 12,7.2622891 V 11 L 12.220016,12.76013 12.441432,13 v 0 h 1.085728 v 0 L 13.77383,12.809358 14,11 v -3.5925196 0 L 13.683405,7 Z M 12.309746,14 12,14.280871 v 1.442875 0 L 12.250668,16 h 1.471639 v 0 L 14,15.719364 14,14.320518 v 0 L 13.69505,14 Z"
     id="path2228889"
     sodipodi:nodetypes="cccccccccccccccccccccccccccc" />
</svg>
