<?xml version="1.0" encoding="UTF-8" standalone="no"?>
<svg
   width="16"
   height="16"
   version="1.1"
   id="svg12220"
   sodipodi:docname="thunderbolt-acquiring-symbolic.svg"
   inkscape:version="1.1.2 (0a00cf5339, 2022-02-04)"
   xmlns:inkscape="http://www.inkscape.org/namespaces/inkscape"
   xmlns:sodipodi="http://sodipodi.sourceforge.net/DTD/sodipodi-0.dtd"
   xmlns="http://www.w3.org/2000/svg"
   xmlns:svg="http://www.w3.org/2000/svg">
  <defs
     id="defs12224" />
  <sodipodi:namedview
     id="namedview12222"
     pagecolor="#ffffff"
     bordercolor="#666666"
     borderopacity="1.0"
     inkscape:pageshadow="2"
     inkscape:pageopacity="0.0"
     inkscape:pagecheckerboard="0"
     showgrid="false"
     inkscape:zoom="51.6875"
     inkscape:cx="8.0096735"
     inkscape:cy="8"
     inkscape:window-width="1920"
     inkscape:window-height="1051"
     inkscape:window-x="0"
     inkscape:window-y="29"
     inkscape:window-maximized="1"
     inkscape:current-layer="svg12220" />
  <path
     style="opacity:0.35;fill:#5c616c"
     d="m 6.8240129,0.1030579 c -0.072636,0.008644 0.072028,-0.0105778 0,0 -2.138669,0.31407737 -4.0035138,1.4747601 -5.2400285,3.1313171 -0.00139,0.00186 -0.00252,0.00399 -0.00391,0.00586 C 1.4490271,3.4161262 1.327456,3.5985392 1.2109375,3.7851562 1.1918512,3.8156275 1.1729706,3.8462272 1.1542969,3.8769531 1.0515454,4.0465745 0.95543124,4.2208727 0.86523438,4.3984375 0.83927863,4.4502434 0.81388651,4.5023298 0.7890625,4.5546875 0.71901784,4.7003609 0.65506547,4.8495601 0.59375,5 h 3.9621727 l 0.342235,-0.2264005 v 0 L 6.959091,0.25388289 Z M 10.714844,0.484375 10.627412,0.65171136 8.468954,4.7827998 8.597021,5 v 0 h 6.807276 C 15.395297,4.977501 15.390117,4.954079 15.380857,4.931641 15.361077,4.887187 15.340897,4.842914 15.320307,4.7988285 15.207799,4.5396662 15.07901,4.285683 14.9375,4.0371094 14.900693,3.9701657 14.862929,3.9037526 14.824219,3.8378906 14.458401,3.2370608 14.007874,2.6728574 13.462891,2.1679688 c -0.0046,-0.00456 -0.0091,-0.00912 -0.01367,-0.013672 -0.0037,-0.00337 -0.008,-0.0064 -0.01172,-0.00977 C 12.86649,1.6201511 12.196716,1.1584716 11.423828,0.78320312 v -0.003906 C 11.237209,0.69093477 11.047256,0.60983895 10.854398,0.53618735 10.808046,0.51848573 10.627412,0.65171136 10.714844,0.484375 Z M 0.58789062,11 c 0.0743743,0.181841 0.15462691,0.361227 0.2421875,0.537109 0.0303249,0.0618 0.0618924,0.122711 0.09375,0.183594 0.10584228,0.205391 0.22053318,0.4061 0.34374998,0.601563 0.4326016,0.673816 0.9639137,1.278866 1.5761719,1.794922 l 0.00391,0.0039 c 0.3437376,0.287981 0.7110024,0.546485 1.0978858,0.772824 0.04909,0.02872 0.1166065,-0.153902 0.1663197,-0.126224 v 0 l 0.3065684,-3.568491 v 0 L 4.2645221,11 Z m 4.21303348,0.163051 v 0 l 0.6829886,0.813684 0.2167307,-0.0209 v 0 L 6.1003066,11.155123 5.9613047,11 v 0 H 4.8621075 Z m 3.50796,0.0063 v 0 l -1.0546336,1.454933 v 0 c 0.2360325,-0.02227 0.074577,0.226986 0.1020812,0.248806 l 1.4149827,0.147575 v 0 l 0.023024,0.203456 -2.7084658,2.315958 0.039966,0.228595 c 0.078123,0.02175 -0.078677,-0.01935 0,0 C 6.738958,15.919434 7.3680533,15.997151 8,16 c 3.331519,4.65e-4 6.223685,-2.046595 7.417969,-5 H 8.5921913 Z"
     id="path12210"
     sodipodi:nodetypes="cscccccccccccccccccccccccccccscccccccsccccccccccccccccccccccccccscccc" />
  <g
     id="g12218">
    <path
       style="fill:#5c616c"
       d="M 5,8 A 2,2 0 0 1 3,10 2,2 0 0 1 1,8 2,2 0 0 1 3,6 2,2 0 0 1 5,8 Z"
       id="path12212" />
    <path
       style="fill:#5c616c"
       d="M 10,8 A 2,2 0 0 1 8,10 2,2 0 0 1 6,8 2,2 0 0 1 8,6 2,2 0 0 1 10,8 Z"
       id="path12214" />
    <path
       style="fill:#5c616c"
       d="m 15,8 a 2,2 0 0 1 -2,2 2,2 0 0 1 -2,-2 2,2 0 0 1 2,-2 2,2 0 0 1 2,2 z"
       id="path12216" />
  </g>
</svg>
