<?xml version="1.0" encoding="UTF-8" standalone="no"?>
<svg
   width="16"
   height="16"
   version="1.1"
   id="svg4"
   sodipodi:docname="touch-disabled-symbolic.svg"
   inkscape:version="1.1.2 (0a00cf5339, 2022-02-04)"
   xmlns:inkscape="http://www.inkscape.org/namespaces/inkscape"
   xmlns:sodipodi="http://sodipodi.sourceforge.net/DTD/sodipodi-0.dtd"
   xmlns="http://www.w3.org/2000/svg"
   xmlns:svg="http://www.w3.org/2000/svg">
  <defs
     id="defs8" />
  <sodipodi:namedview
     id="namedview6"
     pagecolor="#ffffff"
     bordercolor="#666666"
     borderopacity="1.0"
     inkscape:pageshadow="2"
     inkscape:pageopacity="0.0"
     inkscape:pagecheckerboard="0"
     showgrid="false"
     inkscape:zoom="51.6875"
     inkscape:cx="5.5912938"
     inkscape:cy="3.3276904"
     inkscape:window-width="460"
     inkscape:window-height="884"
     inkscape:window-x="465"
     inkscape:window-y="31"
     inkscape:window-maximized="1"
     inkscape:current-layer="svg4" />
  <path
     style="opacity:0.35;fill:#5c616c"
     d="M 8.0722656,0 C 7.1091942,-0.00485773 6.156227,0.18900997 5.2728203,0.56863716 c -0.061334,0.0263572 0.059629,0.23557216 -0.00101,0.26371586 v 0 L 5.6894531,1.25 6.6445312,2.2050781 C 7.9503646,1.8312813 9.352231,2.0047517 10.527344,2.6855469 12.058916,3.5810604 13.000119,5.2211024 13,6.9941406 c 6.4e-4,0.00261 0.0013,0.00521 0.002,0.00781 -6.67e-4,0.00325 -0.0013,0.00651 -0.002,0.00977 v 0.9980468 c 0,1.3297375 2,1.3297375 2,0 v -0.9980468 -0.00195 -0.00195 -0.00195 -0.00195 -0.00195 V 7 v -0.00195 -0.00195 -0.00195 C 14.998387,4.5122561 13.681591,2.21678 11.539062,0.9609375 10.487118,0.34401318 9.2919657,0.01273708 8.0722656,0 Z M 2.5,0.5 1,2 2.25,3.25 C 2.1751985,3.3108109 2.1100515,3.3818803 2.0566406,3.4609375 1.3954742,4.488962 1.0325799,5.6693803 1.0058594,6.8789062 1.0032516,6.8996731 1.0012975,6.9205167 1,6.9414062 V 12 c 0,1.332197 2,1.332197 2,0 V 7.0292969 C 3,6.2538453 3.196108,5.4927105 3.5648747,4.8078416 c 0.028154,-0.052286 -0.030156,0.05137 0,0 l 0.2356724,-0.00729 0.5568748,0.5568748 C 4.1282623,5.8591159 4,6.4154466 4,7 c -5.7e-6,0.00195 -5.7e-6,0.00391 0,0.00586 -5.8e-6,0.00195 -5.8e-6,0.00391 0,0.00586 v 0.9980468 c 0,1.3297375 2,1.3297375 2,0 v -0.7827148 -0.215332 -0.00195 -0.00195 -0.00195 l 0.1718645,0.1676225 v 0 0 L 7,8 v 3.998047 c 0,0 -4.687e-4,0.593361 0.1445312,1.316406 0.145,0.724043 0.4124376,1.646845 1.1484376,2.380859 0.94251,0.972031 2.3886592,-0.470123 1.4140624,-1.410156 C 9.4420314,14.021867 9.2104688,13.448367 9.1054688,12.925781 9.0004687,12.402196 9,11.998047 9,11.998047 v -1.727847 0 L 9.1807261,10.180726 10,11 v 0.998047 c 0,0 0.0098,0.439805 0.175781,0.939453 0.230877,0.664883 0.613302,1.267269 1.117188,1.759766 0.56448,0.578766 1.509142,0.276288 1.687354,-0.448261 0.01853,-0.07535 -6.64e-4,0.08397 0,0 L 13.192725,14.192725 13.5,14.5 15,13 13.355469,11.355469 9.4335938,7.4335938 8.7402344,6.7402344 8.5,6.5 7.5,5.5 3.9472656,1.9472656 Z M 8,3 c -0.1773007,0 0.1714094,-0.02272 0,0 l -0.2314292,0.3291177 1.4736167,1.4736167 1.0000005,1 0.240234,0.2402344 0.693359,0.6933593 L 11.639442,7.199989 12,7.1219888 v 0 -0.11027 -0.00195 -0.00195 -0.00195 -0.00195 -0.00195 V 7 C 12,4.8029404 10.197,3 8,3 Z M 4.984375,9.9902344 C 4.4333004,9.998779 3.9930465,10.450389 4,11 v 2.992188 c 0,1.329737 2,1.329737 2,0 V 11 C 6.0071093,10.438185 5.5476845,9.9814106 4.984375,9.9902344 Z"
     id="path2"
     sodipodi:nodetypes="csccccccccsscccccccccsccccccccssssccccccssccccccccccccccccccccccscccccccccccscccccccccccccccssccsscc" />
</svg>
