<?xml version="1.0" encoding="UTF-8" standalone="no"?>
<svg
   width="16"
   height="16"
   version="1.1"
   id="svg1485325"
   sodipodi:docname="touchpad-disabled-symbolic.svg"
   inkscape:version="1.1.2 (0a00cf5339, 2022-02-04)"
   xmlns:inkscape="http://www.inkscape.org/namespaces/inkscape"
   xmlns:sodipodi="http://sodipodi.sourceforge.net/DTD/sodipodi-0.dtd"
   xmlns="http://www.w3.org/2000/svg"
   xmlns:svg="http://www.w3.org/2000/svg">
  <defs
     id="defs1485329" />
  <sodipodi:namedview
     id="namedview1485327"
     pagecolor="#ffffff"
     bordercolor="#666666"
     borderopacity="1.0"
     inkscape:pageshadow="2"
     inkscape:pageopacity="0.0"
     inkscape:pagecheckerboard="0"
     showgrid="false"
     inkscape:zoom="51.6875"
     inkscape:cx="7.9903265"
     inkscape:cy="8"
     inkscape:window-width="1920"
     inkscape:window-height="1051"
     inkscape:window-x="0"
     inkscape:window-y="29"
     inkscape:window-maximized="1"
     inkscape:current-layer="svg1485325" />
  <path
     style="fill:#5c616c"
     d="M 11,11 V 12 C 11,12.27 11.1,12.53 11.28,12.72 L 12.06,13.5 11.28,14.28 C 11.1,14.46 11,14.72 11,15 V 16 H 12 C 12.28,16 12.54,15.9 12.72,15.72 L 13.5,14.93 14.28,15.72 C 14.46,15.9 14.72,16 15,16 H 16 V 15 C 16,14.72 15.9,14.46 15.72,14.28 L 14.94,13.5 15.72,12.72 C 15.9,12.53 16,12.27 16,12 V 11 H 15 C 14.72,11 14.46,11.1 14.28,11.28 L 13.5,12.06 12.72,11.28 C 12.54,11.1 12.28,11 12,11 Z"
     id="path1485321" />
  <path
     style="opacity:0.35;fill:#5c616c"
     d="M 1,1 C 0,1 0,2 0,2 v 11 c 0,0 0,1 1,1 h 9 V 12 H 9.2764026 v 0 L 9,11.688167 V 10.22246 L 9.2722708,10 v 0 H 15.679468 16 V 2 C 16,1 15,1 15,1 Z M 2,3.4060983 2.5084702,3 H 13.586974 V 3 L 14,3.3830829 v 5.2816657 0 L 13.644841,9 H 2.4082185 V 9 L 2,8.5544868 Z M 2.238384,10 v 0 H 6.7306116 L 7,10.233515 v 0 1.52603 L 6.6877137,12 v 0 h -4.42625 v 0 L 2,11.711967 v -1.419315 z"
     id="path1485323"
     sodipodi:nodetypes="sccsccccccccccscscccccccccccccccccccccccccc" />
</svg>
