<?xml version="1.0" encoding="UTF-8" standalone="no"?>
<svg
   width="16"
   height="16"
   version="1.1"
   id="svg3998131"
   sodipodi:docname="user-away-symbolic.svg"
   inkscape:version="1.1.2 (0a00cf5339, 2022-02-04)"
   xmlns:inkscape="http://www.inkscape.org/namespaces/inkscape"
   xmlns:sodipodi="http://sodipodi.sourceforge.net/DTD/sodipodi-0.dtd"
   xmlns="http://www.w3.org/2000/svg"
   xmlns:svg="http://www.w3.org/2000/svg">
  <defs
     id="defs3998135" />
  <sodipodi:namedview
     id="namedview3998133"
     pagecolor="#ffffff"
     bordercolor="#666666"
     borderopacity="1.0"
     inkscape:pageshadow="2"
     inkscape:pageopacity="0.0"
     inkscape:pagecheckerboard="0"
     showgrid="false"
     inkscape:zoom="51.6875"
     inkscape:cx="7.9903265"
     inkscape:cy="8"
     inkscape:window-width="1920"
     inkscape:window-height="1051"
     inkscape:window-x="0"
     inkscape:window-y="29"
     inkscape:window-maximized="1"
     inkscape:current-layer="svg3998131" />
  <path
     style="opacity:0.35;fill:#5c616c"
     d="M 8,2 C 6.34,2 5,3.34 5,5 5,6.65 6.34,8 8,8 9.66,8 11,6.65 11,5 11,3.34 9.66,2 8,2 Z m 0,8 c -6,0 -6,4 -6,4 v 1 h 6.5267368 l 0.1082055,-0.197843 c -0.1250577,-0.197844 0.039893,0.0669 0,0 C 8.2205594,14.107219 8.0004474,13.311989 8,12.5 c 4.121e-4,-0.796669 0.2122839,-1.577442 0.6119369,-2.263281 0.040744,-0.06992 -0.134199,-0.01013 -0.00614,-0.216849 -0.04469,-0.0037 0.044819,0.003 0,0 C 8.4099266,10.006623 8.2115859,10 8,10 Z"
     id="path3998127"
     sodipodi:nodetypes="ssssssccccscscss" />
  <path
     style="fill:#5c616c"
     d="M 12.5,9 C 10.57,9 9,10.57 9,12.5 9,14.43 10.57,16 12.5,16 14.43,16 16,14.43 16,12.5 16,10.57 14.43,9 12.5,9 Z m -0.324637,1 v 0 h 0.587341 L 13,10.227178 v 0 1.60765 0 L 13.170002,12 h 1.546519 L 15,12.283598 v 0 0.473245 L 14.744018,13 v 0 H 12.204797 L 12,12.747429 v 0 -2.527295 z"
     id="path3998129"
     sodipodi:nodetypes="sssssccccccccccccccccccc" />
</svg>
