<?xml version="1.0" encoding="UTF-8" standalone="no"?>
<svg
   width="16"
   height="16"
   version="1.1"
   id="svg3828145"
   sodipodi:docname="view-wrapped-symbolic.svg"
   inkscape:version="1.1.2 (0a00cf5339, 2022-02-04)"
   xmlns:inkscape="http://www.inkscape.org/namespaces/inkscape"
   xmlns:sodipodi="http://sodipodi.sourceforge.net/DTD/sodipodi-0.dtd"
   xmlns="http://www.w3.org/2000/svg"
   xmlns:svg="http://www.w3.org/2000/svg">
  <defs
     id="defs3828149" />
  <sodipodi:namedview
     id="namedview3828147"
     pagecolor="#ffffff"
     bordercolor="#666666"
     borderopacity="1.0"
     inkscape:pageshadow="2"
     inkscape:pageopacity="0.0"
     inkscape:pagecheckerboard="0"
     showgrid="false"
     inkscape:zoom="51.6875"
     inkscape:cx="7.9903265"
     inkscape:cy="8"
     inkscape:window-width="1920"
     inkscape:window-height="1051"
     inkscape:window-x="0"
     inkscape:window-y="29"
     inkscape:window-maximized="1"
     inkscape:current-layer="svg3828145" />
  <path
     style="fill:#5c616c"
     d="m 10,1 c 1.662,0 3,1.338 3,3 V 5.859819 L 13.105089,6 v 0 h 1.460928 l 0.12908,0.4065368 v 0 l -2.502066,3.3360879 v 0 L 11.801725,9.7356333 9.3341462,6.4455283 9.4890228,6 V 6 H 10.851766 V 6 L 11,5.8266058 V 4 C 11,3.446 10.554,3 10,3 H 6 C 5.446,3 5,3.446 5,4 v 8 c 0,0.554 0.446,1 1,1 h 3 v 2 H 6 C 4.338,15 3,13.662 3,12 V 4 C 3,2.338 4.338,1 6,1 Z"
     id="path3828143"
     sodipodi:nodetypes="sscccccccccccccccssssssccsssss" />
</svg>
