<?xml version="1.0" encoding="UTF-8" standalone="no"?>
<svg
   width="16"
   height="16"
   version="1.1"
   id="svg3237946"
   sodipodi:docname="weather-clear-symbolic.svg"
   inkscape:version="1.1.2 (0a00cf5339, 2022-02-04)"
   xmlns:inkscape="http://www.inkscape.org/namespaces/inkscape"
   xmlns:sodipodi="http://sodipodi.sourceforge.net/DTD/sodipodi-0.dtd"
   xmlns="http://www.w3.org/2000/svg"
   xmlns:svg="http://www.w3.org/2000/svg">
  <defs
     id="defs3237950" />
  <sodipodi:namedview
     id="namedview3237948"
     pagecolor="#ffffff"
     bordercolor="#666666"
     borderopacity="1.0"
     inkscape:pageshadow="2"
     inkscape:pageopacity="0.0"
     inkscape:pagecheckerboard="0"
     showgrid="false"
     inkscape:zoom="51.6875"
     inkscape:cx="7.9903265"
     inkscape:cy="8"
     inkscape:window-width="1920"
     inkscape:window-height="1051"
     inkscape:window-x="0"
     inkscape:window-y="29"
     inkscape:window-maximized="1"
     inkscape:current-layer="svg3237946" />
  <path
     style="fill:#5c616c"
     d="M 7.3996195,-6.4999999e-8 6.9999991,0.3466481 V 1.710123 l 0.184039,0.3472561 c 0,-0.375814 -0.061474,0.00856 0,0 C 7.4543315,2.0197232 7.7269512,2.0005426 7.9999991,2 c 0.3352579,0.00196 0.6697621,0.032007 1,0.08984 V 0.36418224 L 8.6424317,-6.4999999e-8 v 0 z M 3.2547531,1.8406917 2.8446326,1.8428664 1.8319121,2.855587 v 0 l 0.018687,0.2040756 0.020663,0.2256628 1.0742468,1.0742474 v 0 c 0.053327,-0.0748 0.2760911,0.019468 0.3326991,-0.052687 C 3.5833036,3.9179993 3.9353093,3.568274 4.326225,3.2656886 4.3928,3.2141567 4.2661707,2.9696594 4.3349633,2.9209014 v 0 z m 9.9476789,0.049241 -0.554521,0.048093 -0.899016,0.8990152 -0.0037,0.4825063 c 0.09288,0.066219 -0.08879,-0.071259 0,0 0.345781,0.2775236 0.659743,0.5925278 0.936122,0.9392327 0.07027,0.088154 -0.06532,-0.092158 0,0 l 0.434537,0.039415 0.996765,-0.9967649 v 0 l 0.03023,-0.4710727 z M 7.9999991,3 c -2.7614237,0 -5,2.2385763 -5,5 0,2.761424 2.2385763,5 5,5 2.7614239,0 4.9999999,-2.238576 4.9999999,-5 0,-2.7614237 -2.238576,-4.9999999 -4.9999999,-5 z m -8,4.2993737 v 0 1.3357485 L 0.30520707,9 V 9 H 1.7850559 L 2.0503175,8.7635964 c -0.013446,-0.078582 0.010298,0.079005 0,0 C 2.017323,8.5104749 2.0005047,8.2554248 1.9999961,8 2.0015568,7.7324222 2.021015,7.4653245 2.0582103,7.2004927 2.0676183,7.1335072 1.8250549,7.0666667 1.8367298,7 V 7 H 0.37149996 Z M 14.277556,7 c 0.0285,0.1665442 -0.313559,0.3341446 -0.299222,0.5023513 0.0141,0.165439 0.02134,0.3314646 0.02167,0.4976487 -0.0011,0.1881904 -0.01107,0.3761433 -0.02981,0.5632375 C 13.955544,8.7094483 14.264417,8.8551346 14.239049,9 v 0 h 1.420165 l 0.340787,-0.4748881 v 0 -1.1383034 L 15.599354,7 V 7 Z M 3.3062863,11.725633 2.9424619,11.643474 1.8785511,12.707386 v 0 l -0.026026,0.45764 0.9185456,0.918546 0.5030889,0.05633 v 0 l 1.0853144,-1.085314 -0.08916,-0.361719 c -0.087478,-0.06236 0.083848,0.06684 0,0 C 3.913213,12.4082 3.5897717,12.083683 3.3062863,11.725633 c -0.065868,-0.08319 0.061475,0.08673 0,0 z m 9.3857607,0.0051 c -0.06262,0.08784 0.06713,-0.08418 0,0 -0.259965,0.325963 -0.553137,0.623865 -0.874714,0.888916 -0.112156,0.09244 0.05447,0.463122 -0.0644,0.547369 v 0 l 0.967612,0.967612 v 0 l 0.467566,-0.01023 0.93124,-0.93124 -0.0021,-0.489965 v 0 l -1.008774,-1.008775 z m -5.6920479,2.179393 v 0.385915 1.357325 L 7.3045009,16 v 0 h 1.3609042 l 0.334594,-0.39091 v 0 -1.380799 L 8.7909814,13.946048 c 0,0.314229 0.069835,-0.0094 0,0 -0.2621064,0.03539 -0.5263433,0.05343 -0.7909823,0.05395 -0.265277,-0.0016 -0.5300822,-0.0207 -0.7926753,-0.05726 -0.069273,-0.0096 -0.1383917,0.365404 -0.2073247,0.353333 z"
     id="path3237944"
     sodipodi:nodetypes="ccccscccccccccccccccsscccccccsscccccccssssscccccccscscccccscsccccccccccccccccccccssccssccccccccccccccccccccscscc" />
</svg>
