<?xml version="1.0" encoding="UTF-8" standalone="no"?>
<svg
   width="16"
   height="16"
   version="1.1"
   id="svg3744669"
   sodipodi:docname="weather-clear-night-symbolic.svg"
   inkscape:version="1.1.2 (0a00cf5339, 2022-02-04)"
   xmlns:inkscape="http://www.inkscape.org/namespaces/inkscape"
   xmlns:sodipodi="http://sodipodi.sourceforge.net/DTD/sodipodi-0.dtd"
   xmlns="http://www.w3.org/2000/svg"
   xmlns:svg="http://www.w3.org/2000/svg">
  <defs
     id="defs3744673" />
  <sodipodi:namedview
     id="namedview3744671"
     pagecolor="#ffffff"
     bordercolor="#666666"
     borderopacity="1.0"
     inkscape:pageshadow="2"
     inkscape:pageopacity="0.0"
     inkscape:pagecheckerboard="0"
     showgrid="false"
     inkscape:zoom="51.6875"
     inkscape:cx="7.9903265"
     inkscape:cy="8"
     inkscape:window-width="1920"
     inkscape:window-height="1051"
     inkscape:window-x="0"
     inkscape:window-y="29"
     inkscape:window-maximized="1"
     inkscape:current-layer="svg3744669" />
  <path
     style="fill:#5c616c"
     d="m 1,8 c 0,3.866 3.134,7 7,7 1.7042541,0 3.274976,-0.691955 4.528749,-1.823355 0.162544,-0.146679 -0.15149,0.1609 0,0 -0.217319,0.05538 0.04893,-0.347192 -0.155264,-0.297269 C 12.09096,12.948448 11.809968,13 11.5,13 7.9101,13 5,10.09 5,6.5 5,4.429207 5.9712784,2.4925731 7.6042363,1.2730888 c 0.1279109,-0.095523 -0.135882,0.086443 0,0 -0.1758524,0 0.045638,-0.2666693 -0.1268382,-0.254053 C 3.8389637,1.2851804 1,4.3089698 1,8 Z"
     id="path3744667"
     sodipodi:nodetypes="ssscsssscss" />
</svg>
