<?xml version="1.0" encoding="UTF-8" standalone="no"?>
<svg
   width="16"
   height="16"
   version="1.1"
   id="svg9298"
   sodipodi:docname="weather-showers-scattered-symbolic.svg"
   inkscape:version="1.1.2 (0a00cf5339, 2022-02-04)"
   xmlns:inkscape="http://www.inkscape.org/namespaces/inkscape"
   xmlns:sodipodi="http://sodipodi.sourceforge.net/DTD/sodipodi-0.dtd"
   xmlns="http://www.w3.org/2000/svg"
   xmlns:svg="http://www.w3.org/2000/svg">
  <defs
     id="defs9302" />
  <sodipodi:namedview
     id="namedview9300"
     pagecolor="#ffffff"
     bordercolor="#666666"
     borderopacity="1.0"
     inkscape:pageshadow="2"
     inkscape:pageopacity="0.0"
     inkscape:pagecheckerboard="0"
     showgrid="false"
     inkscape:zoom="51.6875"
     inkscape:cx="7.9903265"
     inkscape:cy="8"
     inkscape:window-width="1920"
     inkscape:window-height="1051"
     inkscape:window-x="0"
     inkscape:window-y="29"
     inkscape:window-maximized="1"
     inkscape:current-layer="svg9298" />
  <path
     style="fill:#5c616c"
     d="M 8,0 C 5.93,0 4.17,1.27 3.41,3.06 1.48,3.35 0,4.99 0,7 0,7.73 0.2,8.41 0.54,9 H 0.52 c 0.56,0.97 1.52,1.68 2.65,1.91 L 5.3280576,8.7519424 v 0 l 0.3583425,0.014458 1.3961963,1.3961959 0.2308226,0.0046 c -0.1074131,-0.6108203 -0.02215,0.05373 0,0 C 7.4892911,9.7405809 7.7291496,9.3508505 8.04,9.04 l 2.287449,-2.2874492 v 0 L 10.701964,6.7819643 12.96,9.04 c 0.399696,0.3996959 0.708621,0.9066666 0.881799,1.475936 0.01746,0.0574 0.03355,0.11544 0.0482,0.174064 h 0.02 v 0 L 13.92,10.68 14.06337,10.61153 13.94,10.67 c 0.04157,-0.01874 0.0827,-0.03824 0.12337,-0.05847 C 15.21627,10.037966 16,8.8716145 16,7.5 16,5.7 14.65,4.23 12.91,4.03 12.45,1.74 10.43,0 8,0 Z"
     id="path9294"
     sodipodi:nodetypes="scsccccccccsscccssccccccsscs" />
  <path
     style="fill:#5c616c"
     d="m 10.655675,8.1556749 -0.319049,0.0077 L 8.75,9.75 C 8.3,10.2 8,10.81 8,11.5 8,12.87 9.13,14 10.5,14 11.87,14 13,12.87 13,11.5 13,10.81 12.7,10.2 12.25,9.75 Z M 5.4684713,10.152051 5.3068296,10.19317 3.75,11.75 C 3.3,12.2 3,12.81 3,13.5 3,14.87 4.13,16 5.5,16 6.87,16 8,14.87 8,13.5 8,12.81 7.7,12.2 7.25,11.75 L 5.6954696,10.19547 Z"
     id="path9296"
     sodipodi:nodetypes="ccssssscsccsssscs" />
</svg>
