<?xml version="1.0" encoding="UTF-8" standalone="no"?>
<svg
   width="16"
   height="16"
   version="1.1"
   id="svg3199114"
   sodipodi:docname="weather-few-clouds-night-symbolic.svg"
   inkscape:version="1.1.2 (0a00cf5339, 2022-02-04)"
   xmlns:inkscape="http://www.inkscape.org/namespaces/inkscape"
   xmlns:sodipodi="http://sodipodi.sourceforge.net/DTD/sodipodi-0.dtd"
   xmlns="http://www.w3.org/2000/svg"
   xmlns:svg="http://www.w3.org/2000/svg">
  <defs
     id="defs3199118" />
  <sodipodi:namedview
     id="namedview3199116"
     pagecolor="#ffffff"
     bordercolor="#666666"
     borderopacity="1.0"
     inkscape:pageshadow="2"
     inkscape:pageopacity="0.0"
     inkscape:pagecheckerboard="0"
     showgrid="false"
     inkscape:zoom="51.6875"
     inkscape:cx="7.9903265"
     inkscape:cy="8"
     inkscape:window-width="1920"
     inkscape:window-height="1051"
     inkscape:window-x="0"
     inkscape:window-y="29"
     inkscape:window-maximized="1"
     inkscape:current-layer="svg3199114" />
  <path
     style="fill:#5c616c"
     d="M 13.5,16 C 14.88,16 16,14.88 16,13.5 16,12.23 15.04,11.19 13.81,11.03 13.41,9.86 12.31,9 11,9 9.69,9 8.6,9.86 8.19,11.03 6.96,11.19 6,12.23 6,13.5 6,14.88 7.12,16 8.5,16"
     id="path3199110" />
  <path
     style="fill:#5c616c"
     d="M 7.5640782,1.3033431 C 7.3387355,1.3032852 7.5519078,1.010432 7.3322087,1.0310008 3.7637197,1.3650925 1,4.3582118 1,8 c 0,2.736484 1.5731379,5.100002 3.8616931,6.250527 0.087408,0.04394 0.087444,-0.325081 0.1768916,-0.284724 -0.035581,-0.134862 0.02224,0.139416 0,0 C 5.0143199,13.813696 5,13.658617 5,13.5 c 0,-1.105535 0.5657469,-2.012894 1.3980351,-2.609307 0.064341,-0.04611 -0.072619,-0.335605 -0.00523,-0.377943 -0.069562,-0.08007 0.2028945,0.24525 0,0 C 5.4960622,9.4288074 5,8.0159088 5,6.5 5.0012876,4.4462495 5.9555637,2.5244591 7.5640782,1.3033431 c 0.1403897,-0.1065779 -0.1501586,0.095525 0,0 z"
     id="path3199112"
     sodipodi:nodetypes="cssscssscscsc" />
</svg>
