<?xml version="1.0" encoding="UTF-8" standalone="no"?>
<svg
   width="16"
   height="16"
   viewBox="0 0 16 16"
   version="1.1"
   id="svg5300"
   sodipodi:docname="error.svg"
   inkscape:version="1.1.2 (0a00cf5339, 2022-02-04)"
   xmlns:inkscape="http://www.inkscape.org/namespaces/inkscape"
   xmlns:sodipodi="http://sodipodi.sourceforge.net/DTD/sodipodi-0.dtd"
   xmlns="http://www.w3.org/2000/svg"
   xmlns:svg="http://www.w3.org/2000/svg">
  <sodipodi:namedview
     id="namedview5302"
     pagecolor="#505050"
     bordercolor="#ffffff"
     borderopacity="1"
     inkscape:pageshadow="0"
     inkscape:pageopacity="0"
     inkscape:pagecheckerboard="1"
     showgrid="false"
     inkscape:zoom="47.25"
     inkscape:cx="8"
     inkscape:cy="8"
     inkscape:window-width="1912"
     inkscape:window-height="966"
     inkscape:window-x="0"
     inkscape:window-y="29"
     inkscape:window-maximized="1"
     inkscape:current-layer="svg5300" />
  <defs
     id="defs5296">
    <style
       id="current-color-scheme"
       type="text/css">
   .ColorScheme-Text { color:#eeeeec; } .ColorScheme-Highlight { color:#367bf0; } .ColorScheme-NeutralText { color:#ffcc44; } .ColorScheme-PositiveText { color:#3db47e; } .ColorScheme-NegativeText { color:#dd4747; }
  </style>
  </defs>
  <path
     style="fill:currentColor"
     class="ColorScheme-Text"
     d="M 8,1 C 4.137,1 1,4.137 1,8 c 0,3.863 3.137,7 7,7 3.863,0 7,-3.137 7,-7 C 15,4.137 11.863,1 8,1 Z m 0,2 c 0.9292138,0 1.7921228,0.2389881 2.536619,0.6787999 0.07226,0.042687 -0.06998,-0.046435 0,0 l 0.07754,0.2695395 -6.6029745,6.6029736 v 0 C 3.9600206,10.474202 3.7124226,10.594366 3.6658124,10.514495 3.2342852,9.7750353 3,8.9200258 3,8 3,5.2407 5.2408,3 8,3 Z m 3.977639,2.4598605 c 0.04819,0.072631 0.304247,-0.063347 0.348401,0.011735 C 12.762765,6.2142352 13,7.0742001 13,8 c 0,2.7592 -2.2408,5 -5,5 -0.9324287,0 -1.7980931,-0.240645 -2.5443427,-0.683372 -0.069606,-0.04129 0.067485,0.04478 0,0 l -0.048979,-0.285806 z"
     id="path5298"
     sodipodi:nodetypes="sssssssccccssscsssscccc" />
</svg>
