<?xml version="1.0" encoding="UTF-8" standalone="no"?>
<svg
   width="16"
   height="16"
   viewBox="0 0 16 16"
   version="1.1"
   id="svg7"
   sodipodi:docname="adjustlevels.svg"
   inkscape:version="1.1.2 (0a00cf5339, 2022-02-04)"
   xmlns:inkscape="http://www.inkscape.org/namespaces/inkscape"
   xmlns:sodipodi="http://sodipodi.sourceforge.net/DTD/sodipodi-0.dtd"
   xmlns="http://www.w3.org/2000/svg"
   xmlns:svg="http://www.w3.org/2000/svg">
  <sodipodi:namedview
     id="namedview9"
     pagecolor="#000000"
     bordercolor="#666666"
     borderopacity="1.0"
     inkscape:pageshadow="2"
     inkscape:pageopacity="0"
     inkscape:pagecheckerboard="0"
     showgrid="false"
     inkscape:zoom="103.375"
     inkscape:cx="8"
     inkscape:cy="11.090689"
     inkscape:window-width="1920"
     inkscape:window-height="1051"
     inkscape:window-x="0"
     inkscape:window-y="29"
     inkscape:window-maximized="1"
     inkscape:current-layer="svg7" />
  <defs
     id="defs3">
    <style
       id="current-color-scheme"
       type="text/css">
   .ColorScheme-Text { color:#eeeeec; } .ColorScheme-Highlight { color:#367bf0; } .ColorScheme-NeutralText { color:#ffcc44; } .ColorScheme-PositiveText { color:#3db47e; } .ColorScheme-NegativeText { color:#dd4747; }
  </style>
  </defs>
  <path
     style="fill:currentColor"
     class="ColorScheme-Text"
     d="M 11,2 C 9.8035243,2.0016788 8.7301535,2.7129649 8.2560818,3.7966364 8.2270274,3.8630514 7.9726389,3.9308652 7.9481961,4 V 4 H 1 V 6 H 7.9933412 V 6 C 8.02367,6.0857828 8.2381199,6.1695313 8.2755077,6.2510973 8.760198,7.3085067 9.8204652,7.9991132 11,8 c 1.195733,-0.00168 2.268514,-0.7120821 2.743035,-1.7946188 0.02939,-0.067059 -0.02469,0.069835 0,0 L 14.044927,6 H 15 V 4 H 14.007508 V 4 C 13.988355,3.9458278 13.786417,3.892467 13.764419,3.8399547 13.299982,2.7313114 12.213063,2.000912 11,2 Z M 6,8 C 4.7929191,8.0016937 3.7111351,8.7256299 3.2436173,9.8255399 3.2193238,9.8826943 2.9687599,9.9408639 2.9478522,10 v 0 H 1 v 2 h 2.0003829 l 0.2328472,0.154416 c 0.018469,0.05224 -0.021117,-0.05069 0,0 C 3.6963417,13.266215 4.7848851,13.999086 6,14 c 1.2216235,-0.0017 2.3149128,-0.743178 2.7730119,-1.865457 0.018067,-0.04426 -0.01606,0.04542 0,0 L 8.9797012,12 H 15 V 10 H 9.0613286 v 0 C 9.0375007,9.9326045 8.7762729,9.8664646 8.7480601,9.8016523 8.2748307,8.7145191 7.1990375,8.0009015 6,8 Z"
     id="path5"
     sodipodi:nodetypes="csccccccscsccccccsccsccccccscsccccccsc" />
</svg>
