<?xml version="1.0" encoding="UTF-8" standalone="no"?>
<svg
   width="16"
   height="16"
   version="1.1"
   id="svg7"
   sodipodi:docname="albumfolder-importimages.svg"
   inkscape:version="1.1.2 (0a00cf5339, 2022-02-04)"
   xmlns:inkscape="http://www.inkscape.org/namespaces/inkscape"
   xmlns:sodipodi="http://sodipodi.sourceforge.net/DTD/sodipodi-0.dtd"
   xmlns="http://www.w3.org/2000/svg"
   xmlns:svg="http://www.w3.org/2000/svg">
  <sodipodi:namedview
     id="namedview9"
     pagecolor="#000000"
     bordercolor="#666666"
     borderopacity="1.0"
     inkscape:pageshadow="2"
     inkscape:pageopacity="0"
     inkscape:pagecheckerboard="0"
     showgrid="false"
     inkscape:zoom="51.6875"
     inkscape:cx="8.241838"
     inkscape:cy="8"
     inkscape:window-width="1920"
     inkscape:window-height="1051"
     inkscape:window-x="0"
     inkscape:window-y="29"
     inkscape:window-maximized="1"
     inkscape:current-layer="svg7" />
  <defs
     id="defs3">
    <style
       id="current-color-scheme"
       type="text/css">
   .ColorScheme-Text { color:#eeeeec; } .ColorScheme-Highlight { color:#367bf0; } .ColorScheme-NeutralText { color:#ffcc44; } .ColorScheme-PositiveText { color:#3db47e; } .ColorScheme-NegativeText { color:#dd4747; }
  </style>
  </defs>
  <path
     style="fill:currentColor"
     class="ColorScheme-Text"
     d="M 3,1 C 3,1 2,1 2,2 v 9 3 c 0,1 1,1 1,1 h 10 c 0,0 1,0 1,-1 v -4 h -2 v 2.718686 L 11.747296,13 v 0 H 4.3119285 v 0 L 4,12.673225 v -9.3793316 0 L 4.3294346,3 H 11.772242 L 12,3.2908999 v 0 V 6 h 2 V 2 C 14,1 13,1 13,1 Z m 7.631558,4.2456278 v 0 L 6.8784616,7.7476923 6.8505507,8.2337005 v 0 l 3.7287903,2.4858605 v 0 L 11,10.54796 V 9 h 4 V 7 H 11 V 5.4490115 Z"
     id="path5"
     sodipodi:nodetypes="cscsccsccccccccccccccccscccccccccccccccc" />
</svg>
