<?xml version="1.0" encoding="UTF-8" standalone="no"?>
<svg
   width="16"
   height="16"
   version="1.1"
   id="svg7"
   sodipodi:docname="automated-tasks.svg"
   inkscape:version="1.1.2 (0a00cf5339, 2022-02-04)"
   xmlns:inkscape="http://www.inkscape.org/namespaces/inkscape"
   xmlns:sodipodi="http://sodipodi.sourceforge.net/DTD/sodipodi-0.dtd"
   xmlns="http://www.w3.org/2000/svg"
   xmlns:svg="http://www.w3.org/2000/svg">
  <sodipodi:namedview
     id="namedview9"
     pagecolor="#000000"
     bordercolor="#666666"
     borderopacity="1.0"
     inkscape:pageshadow="2"
     inkscape:pageopacity="0"
     inkscape:pagecheckerboard="0"
     showgrid="false"
     inkscape:zoom="47.25"
     inkscape:cx="8"
     inkscape:cy="8.010582"
     inkscape:window-width="1920"
     inkscape:window-height="1051"
     inkscape:window-x="0"
     inkscape:window-y="29"
     inkscape:window-maximized="1"
     inkscape:current-layer="svg7" />
  <defs
     id="defs3">
    <style
       id="current-color-scheme"
       type="text/css">
   .ColorScheme-Text { color:#eeeeec; } .ColorScheme-Highlight { color:#367bf0; } .ColorScheme-NeutralText { color:#ffcc44; } .ColorScheme-PositiveText { color:#3db47e; } .ColorScheme-NegativeText { color:#dd4747; }
  </style>
  </defs>
  <path
     style="fill:currentColor"
     class="ColorScheme-Text"
     d="M 8,0 C 8.554,0 9,0.446 9,1 9,1.554 8.554,2 8,2 7.446,2 7,1.554 7,1 7,0.446 7.446,0 8,0 Z M 2.5,2 C 1.669,2 1,2.669 1,3.5 v 7 C 1,11.331 1.669,12 2.5,12 h 4.3405878 v 0 L 7,12.194987 v 0.634923 0 L 6.7979833,13 H 4.2505981 v 0 L 4,13.276841 V 15 h 8 v -1.682736 0 L 11.694072,13 H 9.1683614 v 0 L 9,12.851118 V 12.194987 L 9.2109659,12 v 0 H 13.5 c 0.831,0 1.5,-0.669 1.5,-1.5 v -7 C 15,2.669 14.331,2 13.5,2 Z M 4,4 h 8 c 0,0 2,0 2,1 0,1 -2,1 -2,1 H 4 C 4,6 2,6 2,5 2,4 4,4 4,4 Z"
     id="path5"
     sodipodi:nodetypes="sssssssssccccccccccccccccccccsssssccsccsc" />
</svg>
