<?xml version="1.0" encoding="UTF-8" standalone="no"?>
<svg
   width="16"
   height="16"
   version="1.1"
   id="svg546"
   sodipodi:docname="blueman-plugin.svg"
   inkscape:version="1.1.2 (0a00cf5339, 2022-02-04)"
   xmlns:inkscape="http://www.inkscape.org/namespaces/inkscape"
   xmlns:sodipodi="http://sodipodi.sourceforge.net/DTD/sodipodi-0.dtd"
   xmlns="http://www.w3.org/2000/svg"
   xmlns:svg="http://www.w3.org/2000/svg">
  <sodipodi:namedview
     id="namedview548"
     pagecolor="#505050"
     bordercolor="#ffffff"
     borderopacity="1"
     inkscape:pageshadow="0"
     inkscape:pageopacity="0"
     inkscape:pagecheckerboard="1"
     showgrid="false"
     inkscape:zoom="47.25"
     inkscape:cx="8"
     inkscape:cy="8"
     inkscape:window-width="1912"
     inkscape:window-height="966"
     inkscape:window-x="0"
     inkscape:window-y="29"
     inkscape:window-maximized="1"
     inkscape:current-layer="svg546" />
  <defs
     id="defs542">
    <style
       id="current-color-scheme"
       type="text/css">
   .ColorScheme-Text { color:#eeeeec; } .ColorScheme-Highlight { color:#367bf0; } .ColorScheme-NeutralText { color:#ffcc44; } .ColorScheme-PositiveText { color:#3db47e; } .ColorScheme-NegativeText { color:#dd4747; }
  </style>
  </defs>
  <path
     style="fill:currentColor"
     class="ColorScheme-Text"
     d="M 6.5,1 C 6.5,1 5,1 5,2.5 V 3.8355842 L 4.8301802,4 V 4 H 2 C 1,4 1,5 1,5 V 7.7720482 L 1.253312,8 V 8 H 2.5 C 4,8 4,9.5 4,9.5 4,9.5 4,11 2.5,11 H 1.2107076 v 0 L 1,11.200508 V 14 c 0,1 1,1 1,1 H 4.8301802 L 5,14.755889 v 0 V 14 c 0,-2 1.5,-2 1.5,-2 0,0 1.5,0 1.5,2 v 0.734682 L 8.1946485,15 v 0 H 11 c 1,0 1,-1 1,-1 V 11.158095 L 12.194468,11 v 0 L 13.5,11 C 15,11 15,9.5 15,9.5 15,9.5 15,8 13.5,8 H 12.173474 V 8 L 12,7.8144622 V 5 C 12,4 11,4 11,4 H 8.1946485 V 4 L 8,3.8355842 V 2.5 C 8,1 6.5,1 6.5,1 Z"
     id="path544"
     sodipodi:nodetypes="cscccsccccscscccsccccscscccsccccscscccsccccsc" />
</svg>
