<?xml version="1.0" encoding="UTF-8" standalone="no"?>
<svg
   width="16"
   height="16"
   version="1.1"
   id="svg11"
   sodipodi:docname="boundingbox_bottom_left.svg"
   inkscape:version="1.1.2 (0a00cf5339, 2022-02-04)"
   xmlns:inkscape="http://www.inkscape.org/namespaces/inkscape"
   xmlns:sodipodi="http://sodipodi.sourceforge.net/DTD/sodipodi-0.dtd"
   xmlns="http://www.w3.org/2000/svg"
   xmlns:svg="http://www.w3.org/2000/svg">
  <sodipodi:namedview
     id="namedview13"
     pagecolor="#000000"
     bordercolor="#666666"
     borderopacity="1.0"
     inkscape:pageshadow="2"
     inkscape:pageopacity="0"
     inkscape:pagecheckerboard="0"
     showgrid="false"
     inkscape:zoom="51.6875"
     inkscape:cx="14.781137"
     inkscape:cy="8"
     inkscape:window-width="1920"
     inkscape:window-height="1051"
     inkscape:window-x="0"
     inkscape:window-y="29"
     inkscape:window-maximized="1"
     inkscape:current-layer="svg11" />
  <defs
     id="defs3">
    <style
       id="current-color-scheme"
       type="text/css">
   .ColorScheme-Text { color:#eeeeec; } .ColorScheme-Highlight { color:#367bf0; } .ColorScheme-NeutralText { color:#ffcc44; } .ColorScheme-PositiveText { color:#3db47e; } .ColorScheme-NegativeText { color:#dd4747; }
  </style>
  </defs>
  <path
     style="fill:currentColor;opacity:.35"
     class="ColorScheme-Text"
     d="M 10,11 A 5,5 0 0 1 5,16 5,5 0 0 1 0,11 5,5 0 0 1 5,6 5,5 0 0 1 10,11 Z"
     id="path5" />
  <path
     style="opacity:0.7;fill:currentColor"
     class="ColorScheme-Text"
     d="M 5,6 A 5,5 0 0 0 0,11 5,5 0 0 0 5,16 5,5 0 0 0 10,11 5,5 0 0 0 5,6 Z M 5,7 A 4,4 0 0 1 9,11 4,4 0 0 1 5,15 4,4 0 0 1 1,11 4,4 0 0 1 5,7 Z"
     id="path7" />
  <path
     style="fill:currentColor"
     class="ColorScheme-Text"
     d="M 4,0 V 11.699161 L 4.308922,12 v 0 H 16 V 10 H 6.2431623 v 0 L 6,9.745534 V 0 Z"
     id="path9"
     sodipodi:nodetypes="ccccccccccc" />
</svg>
