<?xml version="1.0" encoding="UTF-8" standalone="no"?>
<svg
   width="16"
   height="16"
   version="1.1"
   id="svg11"
   sodipodi:docname="boundingbox_top_right.svg"
   inkscape:version="1.1.2 (0a00cf5339, 2022-02-04)"
   xmlns:inkscape="http://www.inkscape.org/namespaces/inkscape"
   xmlns:sodipodi="http://sodipodi.sourceforge.net/DTD/sodipodi-0.dtd"
   xmlns="http://www.w3.org/2000/svg"
   xmlns:svg="http://www.w3.org/2000/svg">
  <sodipodi:namedview
     id="namedview13"
     pagecolor="#000000"
     bordercolor="#666666"
     borderopacity="1.0"
     inkscape:pageshadow="2"
     inkscape:pageopacity="0"
     inkscape:pagecheckerboard="0"
     showgrid="false"
     inkscape:zoom="51.6875"
     inkscape:cx="7.9903265"
     inkscape:cy="8"
     inkscape:window-width="1920"
     inkscape:window-height="1051"
     inkscape:window-x="0"
     inkscape:window-y="29"
     inkscape:window-maximized="1"
     inkscape:current-layer="svg11" />
  <defs
     id="defs3">
    <style
       id="current-color-scheme"
       type="text/css">
   .ColorScheme-Text { color:#eeeeec; } .ColorScheme-Highlight { color:#367bf0; } .ColorScheme-NeutralText { color:#ffcc44; } .ColorScheme-PositiveText { color:#3db47e; } .ColorScheme-NegativeText { color:#dd4747; }
  </style>
  </defs>
  <path
     style="fill:currentColor;opacity:.35"
     class="ColorScheme-Text"
     d="M 16,5 A 5,5 0 0 1 11,10 5,5 0 0 1 6,5 5,5 0 0 1 11,0 5,5 0 0 1 16,5 Z"
     id="path5" />
  <path
     style="opacity:0.7;fill:currentColor"
     class="ColorScheme-Text"
     d="M 11,0 A 5,5 0 0 0 6,5 5,5 0 0 0 11,10 5,5 0 0 0 16,5 5,5 0 0 0 11,0 Z M 11,1 A 4,4 0 0 1 15,5 4,4 0 0 1 11,9 4,4 0 0 1 7,5 4,4 0 0 1 11,1 Z"
     id="path7" />
  <path
     style="fill:currentColor"
     class="ColorScheme-Text"
     d="M 12,16 V 4.3535723 L 11.627794,4 V 4 H 0 V 6 H 9.6148341 L 10,6.2968815 v 0 V 16 Z"
     id="path9"
     sodipodi:nodetypes="ccccccccccc" />
</svg>
