<?xml version="1.0" encoding="UTF-8" standalone="no"?>
<svg
   width="16"
   height="16"
   version="1.1"
   id="svg7"
   sodipodi:docname="cloud-download.svg"
   inkscape:version="1.1.2 (0a00cf5339, 2022-02-04)"
   xmlns:inkscape="http://www.inkscape.org/namespaces/inkscape"
   xmlns:sodipodi="http://sodipodi.sourceforge.net/DTD/sodipodi-0.dtd"
   xmlns="http://www.w3.org/2000/svg"
   xmlns:svg="http://www.w3.org/2000/svg">
  <sodipodi:namedview
     id="namedview9"
     pagecolor="#000000"
     bordercolor="#666666"
     borderopacity="1.0"
     inkscape:pageshadow="2"
     inkscape:pageopacity="0"
     inkscape:pagecheckerboard="0"
     showgrid="false"
     inkscape:zoom="51.6875"
     inkscape:cx="1.2188634"
     inkscape:cy="7.980653"
     inkscape:window-width="1920"
     inkscape:window-height="1051"
     inkscape:window-x="0"
     inkscape:window-y="29"
     inkscape:window-maximized="1"
     inkscape:current-layer="svg7" />
  <defs
     id="defs3">
    <style
       id="current-color-scheme"
       type="text/css">
   .ColorScheme-Text { color:#eeeeec; } .ColorScheme-Highlight { color:#367bf0; } .ColorScheme-NeutralText { color:#ffcc44; } .ColorScheme-PositiveText { color:#3db47e; } .ColorScheme-NegativeText { color:#dd4747; }
  </style>
  </defs>
  <path
     style="fill:currentColor"
     class="ColorScheme-Text"
     d="m 7,5 h 2 v 2.833355 0 L 9.1740608,8 h 1.4142572 v 0 l 0.127444,0.3316108 -2.4862417,2.9006152 v 0 L 7.7492991,11.207516 5.33472,8.3905066 5.4800625,8 V 8 H 6.7867492 V 8 L 7,7.7910511 Z M 8,2 C 5.93,2 4.17,3.27 3.41,5.06 1.48,5.35 0,7 0,9 c 0,2.21 1.79,4 4,4 h 8.5 C 14.43,13 16,11.43 16,9.5 16,7.7 14.65,6.23 12.91,6.03 12.45,3.74 10.43,2 8,2 Z"
     id="path5"
     sodipodi:nodetypes="ccccccccccccccccccscsssscs" />
</svg>
