<?xml version="1.0" encoding="UTF-8" standalone="no"?>
<svg
   width="16"
   height="16"
   version="1.1"
   id="svg201783"
   sodipodi:docname="color-fill.svg"
   inkscape:version="1.1.2 (0a00cf5339, 2022-02-04)"
   xmlns:inkscape="http://www.inkscape.org/namespaces/inkscape"
   xmlns:sodipodi="http://sodipodi.sourceforge.net/DTD/sodipodi-0.dtd"
   xmlns="http://www.w3.org/2000/svg"
   xmlns:svg="http://www.w3.org/2000/svg">
  <sodipodi:namedview
     id="namedview201785"
     pagecolor="#000000"
     bordercolor="#666666"
     borderopacity="1.0"
     inkscape:pageshadow="2"
     inkscape:pageopacity="0"
     inkscape:pagecheckerboard="0"
     showgrid="false"
     inkscape:zoom="103.375"
     inkscape:cx="12.14994"
     inkscape:cy="4.5126965"
     inkscape:window-width="1920"
     inkscape:window-height="1051"
     inkscape:window-x="0"
     inkscape:window-y="29"
     inkscape:window-maximized="1"
     inkscape:current-layer="svg201783" />
  <defs
     id="defs201779">
    <style
       id="current-color-scheme"
       type="text/css">
   .ColorScheme-Text { color:#eeeeec; } .ColorScheme-Highlight { color:#367bf0; } .ColorScheme-NeutralText { color:#ffcc44; } .ColorScheme-PositiveText { color:#3db47e; } .ColorScheme-NegativeText { color:#dd4747; }
  </style>
  </defs>
  <path
     style="fill:currentColor"
     class="ColorScheme-Text"
     d="m 1.2098036,2.4196073 v 0 L 3,6 v 8 c 0,1 1,1 1,1 h 8 c 0,0 1,0 1,-1 v -2.875867 l 0.126484,-0.126751 c 0.04237,0 -0.04195,0.0017 0,0 C 14.724807,10.931104 16,9.6145302 16,8 16,6.3809761 14.717699,5.0615695 13.113131,5.0020933 c -0.03754,-0.00139 0.03788,0 0,0 L 13,4.8947556 V 2.1359167 L 12.860178,2 V 2 H 1.3775128 Z M 13.135522,7.0091134 c 0.04596,0 -0.04432,-0.00601 0,0 C 13.623498,7.0752792 14,7.4936863 14,8 c 0,0.5059315 -0.375934,0.9240891 -0.863373,0.9907362 -0.04467,0.00611 0.04634,0 0,0 L 13,8.8912792 V 7.0919067 Z"
     id="path201781"
     sodipodi:nodetypes="cccsccsccsssccccccccssscccc" />
</svg>
