<?xml version="1.0" encoding="UTF-8" standalone="no"?>
<svg
   width="16"
   height="16"
   version="1.1"
   id="svg9"
   sodipodi:docname="connector-ignore.svg"
   inkscape:version="1.1.2 (0a00cf5339, 2022-02-04)"
   xmlns:inkscape="http://www.inkscape.org/namespaces/inkscape"
   xmlns:sodipodi="http://sodipodi.sourceforge.net/DTD/sodipodi-0.dtd"
   xmlns="http://www.w3.org/2000/svg"
   xmlns:svg="http://www.w3.org/2000/svg">
  <sodipodi:namedview
     id="namedview11"
     pagecolor="#000000"
     bordercolor="#666666"
     borderopacity="1.0"
     inkscape:pageshadow="2"
     inkscape:pageopacity="0"
     inkscape:pagecheckerboard="0"
     showgrid="false"
     inkscape:zoom="51.6875"
     inkscape:cx="8.0096735"
     inkscape:cy="8"
     inkscape:window-width="1920"
     inkscape:window-height="1051"
     inkscape:window-x="0"
     inkscape:window-y="29"
     inkscape:window-maximized="1"
     inkscape:current-layer="svg9" />
  <defs
     id="defs3">
    <style
       id="current-color-scheme"
       type="text/css">
   .ColorScheme-Text { color:#eeeeec; } .ColorScheme-Highlight { color:#367bf0; } .ColorScheme-NeutralText { color:#ffcc44; } .ColorScheme-PositiveText { color:#3db47e; } .ColorScheme-NegativeText { color:#dd4747; }
  </style>
  </defs>
  <path
     style="fill:currentColor"
     class="ColorScheme-Text"
     d="M 5.584,3 H 5 V 4 L 5.9184889,5.5268562 6.0748618,5.7868038 5.4459799,6.4945747 6.4121263,6.3474578 v 0 L 6.6677339,6.7723688 6.2156282,6.7102038 6.9397557,7.2245661 7.881274,8.7897055 7.6471697,9.2391176 8.2208459,9.3541953 8.2269021,9.8496966 8.7120468,10.170746 8.8368282,10.378178 10.414,13 H 11 V 12 L 10.054229,10.428371 9.9237263,10.21151 10.079172,9.5422123 9.4499,9.4241323 v 0 0 L 9.3719749,9.0102239 9.0353018,8.7351765 8.2104887,7.3645491 8.1372749,7.2428866 8.3169096,6.7851029 7.8058964,6.6922207 8.0466982,6.2920598 7.2500416,5.7685329 Z"
     id="path5"
     sodipodi:nodetypes="ccccccccccccccccccccccccccccccccccc" />
  <path
     style="fill:currentColor"
     class="ColorScheme-Text"
     d="m 3,6 v 4 H 13 V 6 Z M 4,7 H 8.3061022 12 V 9 H 9.412551 4 Z m 7,5 h 4 c 0,0 1,0 1,1 v 1 c 0,0 0,1 -1,1 h -4 c 0,0 -1,0 -1,-1 v -1 c 0,0 0,-1 1,-1 z M 1,1 H 5 C 5,1 6,1 6,2 V 3 C 6,3 6,4 5,4 H 1 C 1,4 0,4 0,3 V 2 C 0,2 0,1 1,1 Z"
     id="path7"
     sodipodi:nodetypes="ccccccccccccscscscscsscscscscs" />
</svg>
