<?xml version="1.0" encoding="UTF-8" standalone="no"?>
<svg
   width="16"
   height="16"
   version="1.1"
   id="svg7"
   sodipodi:docname="debug-run.svg"
   inkscape:version="1.1.2 (0a00cf5339, 2022-02-04)"
   xmlns:inkscape="http://www.inkscape.org/namespaces/inkscape"
   xmlns:sodipodi="http://sodipodi.sourceforge.net/DTD/sodipodi-0.dtd"
   xmlns="http://www.w3.org/2000/svg"
   xmlns:svg="http://www.w3.org/2000/svg">
  <sodipodi:namedview
     id="namedview9"
     pagecolor="#000000"
     bordercolor="#666666"
     borderopacity="1.0"
     inkscape:pageshadow="2"
     inkscape:pageopacity="0"
     inkscape:pagecheckerboard="0"
     showgrid="false"
     inkscape:zoom="66.821591"
     inkscape:cx="8.0063942"
     inkscape:cy="9.1961295"
     inkscape:window-width="1920"
     inkscape:window-height="1051"
     inkscape:window-x="0"
     inkscape:window-y="29"
     inkscape:window-maximized="1"
     inkscape:current-layer="svg7" />
  <defs
     id="defs3">
    <style
       id="current-color-scheme"
       type="text/css">
   .ColorScheme-Text { color:#eeeeec; } .ColorScheme-Highlight { color:#367bf0; } .ColorScheme-NeutralText { color:#ffcc44; } .ColorScheme-PositiveText { color:#3db47e; } .ColorScheme-NegativeText { color:#dd4747; }
  </style>
  </defs>
  <path
     style="fill:currentColor"
     class="ColorScheme-Text"
     d="M 3,1 C 1,1 1,3 1,3 V 14.586555 L 1.4014989,15 v 0 H 8 V 13 H 3.3909118 v 0 L 3,12.618483 V 5.3804802 L 3.4119053,5 V 5 H 12.681633 L 13,5.3171807 v 0 V 8 h 2 V 3 C 15,1 13,1 13,1 Z m 9,8.5286923 v 0 1.3147597 0 L 11.832888,11 H 9 v 2 h 2.842135 v 0 L 12,13.163935 v 1.338114 0 l 0.399245,0.09871 2.370465,-2.370465 v 0 l -0.0062,-0.466779 -2.423001,-2.4230014 z"
     id="path5"
     sodipodi:nodetypes="scccccccccccccccccscscccccccccccccccccc" />
</svg>
