<?xml version="1.0" encoding="UTF-8" standalone="no"?>
<svg
   width="16"
   height="16"
   version="1.1"
   id="svg7"
   sodipodi:docname="debug-step-instruction.svg"
   inkscape:version="1.1.2 (0a00cf5339, 2022-02-04)"
   xmlns:inkscape="http://www.inkscape.org/namespaces/inkscape"
   xmlns:sodipodi="http://sodipodi.sourceforge.net/DTD/sodipodi-0.dtd"
   xmlns="http://www.w3.org/2000/svg"
   xmlns:svg="http://www.w3.org/2000/svg">
  <sodipodi:namedview
     id="namedview9"
     pagecolor="#000000"
     bordercolor="#666666"
     borderopacity="1.0"
     inkscape:pageshadow="2"
     inkscape:pageopacity="0"
     inkscape:pagecheckerboard="0"
     showgrid="false"
     inkscape:zoom="47.25"
     inkscape:cx="8"
     inkscape:cy="8"
     inkscape:window-width="1786"
     inkscape:window-height="966"
     inkscape:window-x="42"
     inkscape:window-y="29"
     inkscape:window-maximized="0"
     inkscape:current-layer="svg7" />
  <defs
     id="defs3">
    <style
       id="current-color-scheme"
       type="text/css">
   .ColorScheme-Text { color:#eeeeec; } .ColorScheme-Highlight { color:#367bf0; } .ColorScheme-NeutralText { color:#ffcc44; } .ColorScheme-PositiveText { color:#3db47e; } .ColorScheme-NegativeText { color:#dd4747; }
  </style>
  </defs>
  <path
     style="fill:currentColor"
     class="ColorScheme-Text"
     d="M 3,1 C 1,1 1,3 1,3 V 14.586555 L 1.4439859,15 v 0 H 14.522743 L 15,14.523255 v 0 V 3 C 15,1 13,1 13,1 H 11 V 4.6822568 L 11.263359,5 v 0 h 1.523859 l 0.212888,0.2111449 v 0 l 0.0037,7.4497611 v 0 L 12.681633,13 H 3.2852118 v 0 L 3,12.681823 V 5.2960134 L 3.3062053,5 V 5 H 4.7449725 V 5 L 5,4.7455564 V 1 Z m 3.1932537,0.2898805 v 0 l 1.6149553,2.422433 v 0 L 8.2041426,3.6937861 9.75078,1.37383 v 0 L 9.5919299,1 H 6.3960258 Z M 6.4277,6 C 5.3622,6 4.9238,6.3523 4.9238,7.2539 4.9238,7.2539 4.8994,7.8413 4.8926,8 4.8464,8.3689 4.7172,8.6777 4.3145,8.6777 H 4 v 0.6446 h 0.3145 c 0.5885,0 0.6093,0.6442 0.6093,1.2007 -0.005,0.174 0.0136,0.369 0.0176,0.477 0.0833,0.712 0.5291,1 1.4863,1 V 11.408 C 5.9782,11.408 5.8292,11.29 5.7656,11 5.7319,10.884 5.7284,10.486 5.7148,10.295 5.7148,9.8795 5.5928,9.2602 4.9941,9.0039 5.4672,8.8013 5.6363,8.3756 5.6895,8 5.7134,7.8959 5.708,7.7777 5.7148,7.6973 5.7148,6.831 5.7175,6.5918 6.4277,6.5918 Z M 7.5,6 v 1 h 1 V 6 Z m 2.0723,0 v 0.5918 c 0.7107,0 0.7267,0.2391 0.7267,1.1055 0.007,0.0804 0.002,0.1986 0.025,0.3027 0.053,0.3756 0.224,0.8013 0.697,1.0039 -0.598,0.2564 -0.722,0.8756 -0.722,1.2911 -0.014,0.191 -0.017,0.589 -0.051,0.705 -0.063,0.29 -0.226,0.408 -0.6757,0.408 V 12 c 0.9577,0 1.4187,-0.288 1.5017,-1 0.004,-0.108 0.023,-0.303 0.018,-0.477 0,-0.5565 0.019,-1.2007 0.607,-1.2007 H 12 V 8.6777 H 11.699 C 11.296,8.6777 11.169,8.3689 11.123,8 11.116,7.8413 11.092,7.2539 11.092,7.2539 11.092,6.3522 10.638,6 9.5723,6 Z M 7.5,8 v 4 h 1 V 8 Z"
     id="path5"
     sodipodi:nodetypes="scccccccscccccccccccccccccccccscccccccccccccsccscccccccccccccccccccccccccccsccscccccccc" />
</svg>
