<?xml version="1.0" encoding="UTF-8" standalone="no"?>
<svg
   width="16"
   height="16"
   version="1.1"
   id="svg9"
   sodipodi:docname="xfce-wm-close.svg"
   inkscape:version="1.1.2 (0a00cf5339, 2022-02-04)"
   xmlns:inkscape="http://www.inkscape.org/namespaces/inkscape"
   xmlns:sodipodi="http://sodipodi.sourceforge.net/DTD/sodipodi-0.dtd"
   xmlns="http://www.w3.org/2000/svg"
   xmlns:svg="http://www.w3.org/2000/svg">
  <sodipodi:namedview
     id="namedview11"
     pagecolor="#000000"
     bordercolor="#666666"
     borderopacity="1.0"
     inkscape:pageshadow="2"
     inkscape:pageopacity="0"
     inkscape:pagecheckerboard="0"
     showgrid="false"
     inkscape:zoom="51.6875"
     inkscape:cx="8.0096735"
     inkscape:cy="8"
     inkscape:window-width="1920"
     inkscape:window-height="1051"
     inkscape:window-x="0"
     inkscape:window-y="29"
     inkscape:window-maximized="1"
     inkscape:current-layer="svg9" />
  <defs
     id="defs3">
    <style
       id="current-color-scheme"
       type="text/css">
   .ColorScheme-Text { color:#eeeeec; } .ColorScheme-Highlight { color:#367bf0; } .ColorScheme-NeutralText { color:#ffcc44; } .ColorScheme-PositiveText { color:#3db47e; } .ColorScheme-NegativeText { color:#dd4747; }
  </style>
  </defs>
  <path
     style="fill:currentColor"
     class="ColorScheme-Text"
     d="M 5,4 C 4.4477,4 4,4.4477 4,5 4,5.2652 4.1055,5.5195 4.293,5.707 L 6.3984699,7.8124699 6.5040585,8.2983228 7.8103825,9.0623369 7.4432323,9.2444471 8.2944467,9.5779969 10.293,11.707 C 10.48,11.895 10.735,12 11,12 c 0.552,0 1,-0.448 1,-1 0,-0.265 -0.105,-0.52 -0.293,-0.707 L 9.3338157,7.8530878 9.816293,7.5513277 C 10.593869,6.2051155 8.7171055,6.8891291 8.3258814,6.425055 L 7.8499607,6.4359607 5.707,4.293 C 5.5195,4.1055 5.2652,4 5,4 Z"
     id="path5"
     sodipodi:nodetypes="sssccccccsscccccss" />
  <path
     style="fill:currentColor"
     class="ColorScheme-Text"
     d="M 5,12 C 4.4477,12 4,11.552 4,11 4,10.735 4.1055,10.48 4.293,10.293 l 6,-6 C 10.48,4.105 10.735,4 11,4 c 0.552,0 1,0.448 1,1 0,0.265 -0.105,0.52 -0.293,0.707 L 9.5729181,7.8410819 9.5426901,8.2861116 8.3495028,9.2161138 v 0 0 L 8.0058358,9.4152775 7.7781123,9.547249 v 0 L 5.707,11.707 C 5.5195,11.895 5.2652,12 5,12 Z"
     id="path7"
     sodipodi:nodetypes="ssccssccccccccccs" />
</svg>
