<?xml version="1.0" encoding="UTF-8" standalone="no"?>
<svg
   width="16"
   height="16"
   version="1.1"
   id="svg9"
   sodipodi:docname="dialog-geometry.svg"
   inkscape:version="1.1.2 (0a00cf5339, 2022-02-04)"
   xmlns:inkscape="http://www.inkscape.org/namespaces/inkscape"
   xmlns:sodipodi="http://sodipodi.sourceforge.net/DTD/sodipodi-0.dtd"
   xmlns="http://www.w3.org/2000/svg"
   xmlns:svg="http://www.w3.org/2000/svg">
  <sodipodi:namedview
     id="namedview11"
     pagecolor="#ffffff"
     bordercolor="#666666"
     borderopacity="1.0"
     inkscape:pageshadow="2"
     inkscape:pageopacity="0.0"
     inkscape:pagecheckerboard="0"
     showgrid="false"
     inkscape:zoom="47.125"
     inkscape:cx="7.9893899"
     inkscape:cy="8"
     inkscape:window-width="1880"
     inkscape:window-height="966"
     inkscape:window-x="0"
     inkscape:window-y="29"
     inkscape:window-maximized="1"
     inkscape:current-layer="svg9" />
  <defs
     id="defs3">
    <style
       id="current-color-scheme"
       type="text/css">
   .ColorScheme-Text { color:#eeeeec; } .ColorScheme-Highlight { color:#367bf0; } .ColorScheme-NeutralText { color:#ffcc44; } .ColorScheme-PositiveText { color:#3db47e; } .ColorScheme-NegativeText { color:#dd4747; }
  </style>
  </defs>
  <path
     style="fill:currentColor"
     class="ColorScheme-Text"
     d="M 8,9 C 7,9 7,10 7,10 H 2.5 C 2.5,10 2,10 2,10.5 2,11 2.5,11 2.5,11 H 7 C 7,11 7,12 8,12 9,12 9,11 9,11 H 13.5 C 13.5,11 14,11 14,10.5 14,10 13.5,10 13.5,10 H 9 C 9,10 9,9 8,9 Z M 8,2 C 8,2 9,2 9,3 V 4 H 7 V 3 C 7,2 8,2 8,2 Z M 0,0 V 16 H 16 V 0 Z M 1,1 H 15 V 15 H 1 Z"
     id="path5" />
  <path
     style="fill:currentColor"
     class="ColorScheme-Text"
     d="M 8,3 C 6.8954305,3 6,3.8954305 6,5 6,6.1045695 6.8954305,7 8,7 9.1045695,7 10,6.1045695 10,5 10,3.8954305 9.1045695,3 8,3 Z M 8,4 C 8.5522847,4 9,4.4477153 9,5 9,5.5522847 8.5522847,6 8,6 7.4477153,6 7,5.5522847 7,5 7,4.4477153 7.4477153,4 8,4 Z M 6,5 5,6 4,9 v 4 L 4.7353159,13.735316 5,13.670569 v 0 V 11 L 6,7 6.5859,6.4141 C 6.2108134,6.0390737 6.0000602,5.5304099 6,5 Z m 4,0 C 9.9999398,5.5304099 9.7891866,6.0390737 9.4141,6.4141 L 10,7 l 1,4 v 2.670569 0 l 0.268946,0.06048 L 12,13 V 9 L 11,6 Z"
     id="path7"
     sodipodi:nodetypes="sssssssssscccccccccccccccccccccc" />
</svg>
