<?xml version="1.0" encoding="UTF-8" standalone="no"?>
<svg
   width="16"
   height="16"
   version="1.1"
   viewBox="0 0 16 16"
   id="svg7"
   sodipodi:docname="dialog-fill-and-stroke.svg"
   inkscape:version="1.1.2 (0a00cf5339, 2022-02-04)"
   xmlns:inkscape="http://www.inkscape.org/namespaces/inkscape"
   xmlns:sodipodi="http://sodipodi.sourceforge.net/DTD/sodipodi-0.dtd"
   xmlns="http://www.w3.org/2000/svg"
   xmlns:svg="http://www.w3.org/2000/svg">
  <sodipodi:namedview
     id="namedview9"
     pagecolor="#ffffff"
     bordercolor="#666666"
     borderopacity="1.0"
     inkscape:pageshadow="2"
     inkscape:pageopacity="0.0"
     inkscape:pagecheckerboard="0"
     showgrid="false"
     inkscape:zoom="47.25"
     inkscape:cx="8"
     inkscape:cy="8"
     inkscape:window-width="1880"
     inkscape:window-height="966"
     inkscape:window-x="0"
     inkscape:window-y="29"
     inkscape:window-maximized="1"
     inkscape:current-layer="svg7" />
  <defs
     id="defs3">
    <style
       id="current-color-scheme"
       type="text/css">
   .ColorScheme-Text { color:#eeeeec; } .ColorScheme-Highlight { color:#367bf0; } .ColorScheme-NeutralText { color:#ffcc44; } .ColorScheme-PositiveText { color:#3db47e; } .ColorScheme-NegativeText { color:#dd4747; }
  </style>
  </defs>
  <path
     style="fill:currentColor"
     class="ColorScheme-Text"
     d="m 14.726356,1.1260626 c -0.139027,0.3299999 0.155008,-0.099992 0,0 C 13.535991,1.8939369 8.7849844,5.9685674 6.8828125,8.1171875 7.4414213,8.2598092 7.9945975,8.5388413 8.3867188,9.0761719 8.4910496,9.2191385 8.5750299,9.3872587 8.65625,9.5566406 10.680569,7.3448328 14.116284,2.6299278 14.857067,1.3358593 14.965802,1.1459102 14.456618,1.2462658 14.726356,1.1260626 Z M 6.1503906,9 C 5.120145,9.0306611 4.135565,9.8674859 3.4511719,11.628906 c -0.5574707,1.43301 -1.4259348,2.254192 -1.9779694,2.5907 -0.2234474,0.136208 0.078151,0.01418 0,0 0.1396731,0.05425 -0.1664405,0.295418 0.022506,0.358952 1.6879121,0.567564 5.1201516,1.230879 6.3343694,-2.916449 0.3291075,-0.782704 0.1456669,-1.455857 -0.25,-1.9980465 C 7.2706834,9.2400934 6.7483789,9.0555723 6.1503906,9 Z"
     id="path5"
     sodipodi:nodetypes="cscscscccscscsc" />
</svg>
