<?xml version="1.0" encoding="UTF-8" standalone="no"?>
<svg
   width="16"
   height="16"
   version="1.1"
   id="svg7"
   sodipodi:docname="dialog-tile-clones.svg"
   inkscape:version="1.1.2 (0a00cf5339, 2022-02-04)"
   xmlns:inkscape="http://www.inkscape.org/namespaces/inkscape"
   xmlns:sodipodi="http://sodipodi.sourceforge.net/DTD/sodipodi-0.dtd"
   xmlns="http://www.w3.org/2000/svg"
   xmlns:svg="http://www.w3.org/2000/svg">
  <sodipodi:namedview
     id="namedview9"
     pagecolor="#000000"
     bordercolor="#666666"
     borderopacity="1.0"
     inkscape:pageshadow="2"
     inkscape:pageopacity="0"
     inkscape:pagecheckerboard="0"
     showgrid="false"
     inkscape:zoom="51.6875"
     inkscape:cx="7.9903265"
     inkscape:cy="8"
     inkscape:window-width="1920"
     inkscape:window-height="1051"
     inkscape:window-x="0"
     inkscape:window-y="29"
     inkscape:window-maximized="1"
     inkscape:current-layer="svg7" />
  <defs
     id="defs3">
    <style
       id="current-color-scheme"
       type="text/css">
   .ColorScheme-Text { color:#eeeeec; } .ColorScheme-Highlight { color:#367bf0; } .ColorScheme-NeutralText { color:#ffcc44; } .ColorScheme-PositiveText { color:#3db47e; } .ColorScheme-NegativeText { color:#dd4747; }
  </style>
  </defs>
  <path
     style="fill:currentColor"
     class="ColorScheme-Text"
     d="M 1,1 V 7 H 7 V 1 Z m 8,0 v 6 h 6 V 1 Z M 1,9 v 6 H 7 V 9 Z m 11,0 c -2,0 -2,1 -2,1 v 1.826617 L 9.857573,12 v 0 H 9 v 3 h 6 v -3 h -0.880569 v 0 L 14,11.857018 V 10 c 0,0 0,-1 -2,-1 z m 0,1 c 1,0 1,0.5 1,0.5 v 1.343568 L 12.789717,12 v 0 h -1.644161 v 0 L 11,11.863384 11,10.5 c 0,0 0,-0.5 1,-0.5 z"
     id="path5"
     sodipodi:nodetypes="cccccccccccccccsccccccccccccssccccccccs" />
</svg>
