<?xml version="1.0" encoding="UTF-8" standalone="no"?>
<svg
   width="16"
   height="16"
   version="1.1"
   id="svg9"
   sodipodi:docname="dialog-icon-preview.svg"
   inkscape:version="1.1.2 (0a00cf5339, 2022-02-04)"
   xmlns:inkscape="http://www.inkscape.org/namespaces/inkscape"
   xmlns:sodipodi="http://sodipodi.sourceforge.net/DTD/sodipodi-0.dtd"
   xmlns="http://www.w3.org/2000/svg"
   xmlns:svg="http://www.w3.org/2000/svg">
  <sodipodi:namedview
     id="namedview11"
     pagecolor="#000000"
     bordercolor="#666666"
     borderopacity="1.0"
     inkscape:pageshadow="2"
     inkscape:pageopacity="0"
     inkscape:pagecheckerboard="0"
     showgrid="false"
     inkscape:zoom="47.25"
     inkscape:cx="8"
     inkscape:cy="8"
     inkscape:window-width="1912"
     inkscape:window-height="966"
     inkscape:window-x="0"
     inkscape:window-y="29"
     inkscape:window-maximized="1"
     inkscape:current-layer="svg9" />
  <defs
     id="defs3">
    <style
       id="current-color-scheme"
       type="text/css">
   .ColorScheme-Text { color:#eeeeec; } .ColorScheme-Highlight { color:#367bf0; } .ColorScheme-NeutralText { color:#ffcc44; } .ColorScheme-PositiveText { color:#3db47e; } .ColorScheme-NegativeText { color:#dd4747; }
  </style>
  </defs>
  <path
     style="fill:currentColor"
     class="ColorScheme-Text"
     d="M 3,0 C 3,0 2,0 2,1 v 12 c 0,1 1,1 1,1 h 5.4910223 v 0 C 8.2672129,13.915249 8.7555651,13.809824 8.55381,13.686088 7.4772057,13.025807 6.75,11.844114 6.75,10.5 c 0,-2.0556 1.6944,-3.75 3.75,-3.75 1.342692,0 2.523307,0.7256684 3.183991,1.8003957 C 13.808633,8.7531499 13.914771,8.2451993 14,8.4702717 v 0 -4.2536046 L 13.872807,4 13.851049,3.8510487 10.168672,0.16867227 v 0 L 9.7821038,0 Z"
     id="path5"
     sodipodi:nodetypes="csscccssssccccccccc" />
  <path
     style="fill:currentColor"
     class="ColorScheme-Text"
     d="M 11.5,12.5 13.778,14.778 C 13.778,14.778 14.278,15.278 14.778,14.778 15.278,14.278 14.778,13.778 14.778,13.778 L 12.5,11.5 Z M 7.75,10.5 C 7.75,12 9,13.25 10.5,13.25 12,13.25 13.25,12 13.25,10.5 13.25,9 12,7.75 10.5,7.75 9,7.75 7.75,9 7.75,10.5 Z M 10.5,8.75 C 11.5,8.75 12.25,9.5 12.25,10.5 12.25,11.5 11.5,12.25 10.5,12.25 9.5,12.25 8.75,11.5 8.75,10.5 8.75,9.5 9.5,8.75 10.5,8.75 Z"
     id="path7" />
</svg>
