<?xml version="1.0" encoding="UTF-8" standalone="no"?>
<svg
   width="16"
   height="16"
   version="1.1"
   id="svg7"
   sodipodi:docname="dialog-transform.svg"
   inkscape:version="1.1.2 (0a00cf5339, 2022-02-04)"
   xmlns:inkscape="http://www.inkscape.org/namespaces/inkscape"
   xmlns:sodipodi="http://sodipodi.sourceforge.net/DTD/sodipodi-0.dtd"
   xmlns="http://www.w3.org/2000/svg"
   xmlns:svg="http://www.w3.org/2000/svg">
  <sodipodi:namedview
     id="namedview9"
     pagecolor="#000000"
     bordercolor="#666666"
     borderopacity="1.0"
     inkscape:pageshadow="2"
     inkscape:pageopacity="0"
     inkscape:pagecheckerboard="0"
     showgrid="false"
     inkscape:zoom="51.6875"
     inkscape:cx="8"
     inkscape:cy="8"
     inkscape:window-width="1141"
     inkscape:window-height="1043"
     inkscape:window-x="665"
     inkscape:window-y="32"
     inkscape:window-maximized="1"
     inkscape:current-layer="svg7" />
  <defs
     id="defs3">
    <style
       id="current-color-scheme"
       type="text/css">
   .ColorScheme-Text { color:#eeeeec; } .ColorScheme-Highlight { color:#367bf0; } .ColorScheme-NeutralText { color:#ffcc44; } .ColorScheme-PositiveText { color:#3db47e; } .ColorScheme-NegativeText { color:#dd4747; }
  </style>
  </defs>
  <path
     style="fill:currentColor"
     class="ColorScheme-Text"
     d="M 2,2 C 1,2 1,3 1,3 V 7 H 3 V 4 H 6 V 2 Z m 8,0 v 2 h 3 v 3 h 2 V 3 C 15,2 14,2 14,2 Z M 8.1936288,3.3872577 7.8023782,3.3952435 6.192144,6.6157119 6.4327317,7 V 7 H 9.66069 V 7 L 9.8075518,6.6151035 Z M 6.188423,9.3768459 v 0 l 1.5944745,3.1889491 0.4219752,0.02446 v 0 L 9.8235646,9.3528709 9.6385325,9 V 9 H 6.4201769 Z M 1,9 v 4 c 0,1 1,1 1,1 H 6 V 12 H 3 V 9 Z m 12,0 v 3 h -3 v 2 h 4 c 0,0 1,0 1,-1 V 9 Z"
     id="path5"
     sodipodi:nodetypes="sccccccscccccscccccccccccccccccccccccscccccccccccscc" />
</svg>
