<?xml version="1.0" encoding="UTF-8" standalone="no"?>
<svg
   width="16"
   height="16"
   version="1.1"
   id="svg7"
   sodipodi:docname="draw-path.svg"
   inkscape:version="1.1.2 (0a00cf5339, 2022-02-04)"
   xmlns:inkscape="http://www.inkscape.org/namespaces/inkscape"
   xmlns:sodipodi="http://sodipodi.sourceforge.net/DTD/sodipodi-0.dtd"
   xmlns="http://www.w3.org/2000/svg"
   xmlns:svg="http://www.w3.org/2000/svg">
  <sodipodi:namedview
     id="namedview9"
     pagecolor="#000000"
     bordercolor="#666666"
     borderopacity="1.0"
     inkscape:pageshadow="2"
     inkscape:pageopacity="0"
     inkscape:pagecheckerboard="0"
     showgrid="false"
     inkscape:zoom="47.25"
     inkscape:cx="8"
     inkscape:cy="8"
     inkscape:window-width="1912"
     inkscape:window-height="966"
     inkscape:window-x="0"
     inkscape:window-y="29"
     inkscape:window-maximized="1"
     inkscape:current-layer="svg7" />
  <defs
     id="defs3">
    <style
       id="current-color-scheme"
       type="text/css">
   .ColorScheme-Text { color:#eeeeec; } .ColorScheme-Highlight { color:#367bf0; } .ColorScheme-NeutralText { color:#ffcc44; } .ColorScheme-PositiveText { color:#3db47e; } .ColorScheme-NegativeText { color:#dd4747; }
  </style>
  </defs>
  <path
     style="fill:currentColor"
     class="ColorScheme-Text"
     d="m 12.145,1.0117 c -0.118,0.0235 -0.243,0.086 -0.368,0.211 l -1.573636,1.5739015 v 0 l 0.0208,0.4275583 2.592578,2.5925778 0.386448,-0.019958 v 0 L 14.777,4.2227 c 0.5,-0.5 0,-1 0,-1 l -2,-2 c 0,0 -0.281,-0.28129 -0.632,-0.211 z M 9.2136147,4.2136147 8.7219164,4.2780836 1.1455446,11.854455 v 0 L 1,12.2374 v 2.412776 L 1.253312,15 v 0 H 15 V 13 H 6.2268454 l -0.028634,-0.198211 v 0 l 5.5977248,-5.5977249 0.03145,-0.3766764 v 0 z"
     id="path5"
     sodipodi:nodetypes="cccccccccccccccccccccccccccccc" />
</svg>
