<?xml version="1.0" encoding="UTF-8" standalone="no"?>
<svg
   width="16"
   height="16"
   version="1.1"
   id="svg7"
   sodipodi:docname="draw-geometry-inactive.svg"
   inkscape:version="1.1.2 (0a00cf5339, 2022-02-04)"
   xmlns:inkscape="http://www.inkscape.org/namespaces/inkscape"
   xmlns:sodipodi="http://sodipodi.sourceforge.net/DTD/sodipodi-0.dtd"
   xmlns="http://www.w3.org/2000/svg"
   xmlns:svg="http://www.w3.org/2000/svg">
  <sodipodi:namedview
     id="namedview9"
     pagecolor="#ffffff"
     bordercolor="#666666"
     borderopacity="1.0"
     inkscape:pageshadow="2"
     inkscape:pageopacity="0.0"
     inkscape:pagecheckerboard="0"
     showgrid="false"
     inkscape:zoom="47.125"
     inkscape:cx="7.9893899"
     inkscape:cy="8"
     inkscape:window-width="1880"
     inkscape:window-height="966"
     inkscape:window-x="0"
     inkscape:window-y="29"
     inkscape:window-maximized="1"
     inkscape:current-layer="svg7" />
  <defs
     id="defs3">
    <style
       id="current-color-scheme"
       type="text/css">
   .ColorScheme-Text { color:#eeeeec; } .ColorScheme-Highlight { color:#367bf0; } .ColorScheme-NeutralText { color:#ffcc44; } .ColorScheme-PositiveText { color:#3db47e; } .ColorScheme-NegativeText { color:#dd4747; }
  </style>
  </defs>
  <path
     style="fill:currentColor"
     class="ColorScheme-Text"
     d="m 3.223,4.223 3.6026117,3.6026117 0.037639,0.3111375 v 0 L 3.223,11.777 c 0,0 -0.501,0.501 -10e-4,1.001 0.5,0.5 1.0007,-0.001 1.0007,-0.001 L 7.8419895,9.1579979 v 0 L 8.1835737,9.1835737 11.777,12.777 c 0,0 0.501,0.501 1.001,0.001 0.5,-0.5 -0.001,-1.001 -0.001,-1.001 L 9.1835594,8.1835594 v 0 L 9.1683203,7.8316708 12.777,4.2228 c 0,0 0.501,-0.5008 0.001,-1.0008 -0.5,-0.5 -1.001,8e-4 -1.001,8e-4 L 8.1469476,6.8530446 v 0 L 7.867963,6.867963 4.222,3.222 c 7e-4,8e-4 -0.5,-0.5 -1,0 -0.5,0.5 10e-4,1.001 10e-4,1.001 z"
     id="path5"
     sodipodi:nodetypes="cccccscccccscccccscccccsc" />
</svg>
