<?xml version="1.0" encoding="UTF-8" standalone="no"?>
<svg
   width="16"
   height="16"
   viewBox="0 0 16 16"
   version="1.1"
   id="svg7"
   sodipodi:docname="draw-bezier-curves.svg"
   inkscape:version="1.1.2 (0a00cf5339, 2022-02-04)"
   xmlns:inkscape="http://www.inkscape.org/namespaces/inkscape"
   xmlns:sodipodi="http://sodipodi.sourceforge.net/DTD/sodipodi-0.dtd"
   xmlns="http://www.w3.org/2000/svg"
   xmlns:svg="http://www.w3.org/2000/svg">
  <sodipodi:namedview
     id="namedview9"
     pagecolor="#000000"
     bordercolor="#666666"
     borderopacity="1.0"
     inkscape:pageshadow="2"
     inkscape:pageopacity="0"
     inkscape:pagecheckerboard="0"
     showgrid="false"
     inkscape:zoom="51.6875"
     inkscape:cx="7.9903265"
     inkscape:cy="8"
     inkscape:window-width="1920"
     inkscape:window-height="1051"
     inkscape:window-x="0"
     inkscape:window-y="29"
     inkscape:window-maximized="1"
     inkscape:current-layer="svg7" />
  <defs
     id="defs3">
    <style
       id="current-color-scheme"
       type="text/css">
   .ColorScheme-Text { color:#eeeeec; } .ColorScheme-Highlight { color:#367bf0; } .ColorScheme-NeutralText { color:#ffcc44; } .ColorScheme-PositiveText { color:#3db47e; } .ColorScheme-NegativeText { color:#dd4747; }
  </style>
  </defs>
  <path
     style="fill:currentColor"
     class="ColorScheme-Text"
     d="m 12.5,1 c -1.187796,2.327e-4 -2.211441,0.8362024 -2.449,2 H 2 V 4 C 3.8552,4.9588 5.1651,6.4795 5.3574,7.3027 5.566,8.1952 5.3336,9.2146 4.709,10.312 4.3388759,10.107416 3.9229023,10.000068 3.5,10 2.1192881,10 1,11.119288 1,12.5 1,13.880712 2.1192881,15 3.5,15 4.687871,14.999862 5.7116258,14.163871 5.9492,13 H 9 v 1 1 h 5 V 10 H 9 v 1 1 H 5.9453 C 5.8723243,11.640132 5.7209714,11.300757 5.502,11.006 6.3543,9.6604 6.7108,8.381 6.4258,7.1406 6.1590874,5.9798828 5.4005479,5.0508219 4.3108791,4.2426199 4.2002121,4.1605387 4.4858432,4.0797041 4.3685136,4 V 4 H 10.055 C 10.292257,5.1623271 11.313707,5.9978691 12.5,6 13.880712,6 15,4.8807119 15,3.5 15,2.1192881 13.880712,1 12.5,1 Z"
     id="path5"
     sodipodi:nodetypes="cccccccscccccccccccccsccccsc" />
</svg>
