<?xml version="1.0" encoding="UTF-8" standalone="no"?>
<svg
   width="16"
   height="16"
   version="1.1"
   id="svg717289"
   sodipodi:docname="draw-geometry-set-bounding-box.svg"
   inkscape:version="1.1.2 (0a00cf5339, 2022-02-04)"
   xmlns:inkscape="http://www.inkscape.org/namespaces/inkscape"
   xmlns:sodipodi="http://sodipodi.sourceforge.net/DTD/sodipodi-0.dtd"
   xmlns="http://www.w3.org/2000/svg"
   xmlns:svg="http://www.w3.org/2000/svg">
  <sodipodi:namedview
     id="namedview717291"
     pagecolor="#000000"
     bordercolor="#666666"
     borderopacity="1.0"
     inkscape:pageshadow="2"
     inkscape:pageopacity="0"
     inkscape:pagecheckerboard="0"
     showgrid="false"
     inkscape:zoom="51.6875"
     inkscape:cx="7.9903265"
     inkscape:cy="8"
     inkscape:window-width="1920"
     inkscape:window-height="1051"
     inkscape:window-x="0"
     inkscape:window-y="29"
     inkscape:window-maximized="1"
     inkscape:current-layer="svg717289" />
  <defs
     id="defs717285">
    <style
       id="current-color-scheme"
       type="text/css">
   .ColorScheme-Text { color:#eeeeec; } .ColorScheme-Highlight { color:#367bf0; } .ColorScheme-NeutralText { color:#ffcc44; } .ColorScheme-PositiveText { color:#3db47e; } .ColorScheme-NegativeText { color:#dd4747; }
  </style>
  </defs>
  <path
     style="fill:currentColor"
     class="ColorScheme-Text"
     d="m 0,5.3668988 v 0 5.2018692 l 0.2761015,0.224156 v 0 L 3.7377912,8.1966566 3.7573506,7.8180129 v 0 L 0.27001852,5.2025139 Z m 16,0.016711 v 0 5.2839018 l -0.23345,0.157401 v 0 L 12.289247,8.2169352 v 0 L 12.29704,7.77722 15.720186,5.2098602 Z M 7,13 h 2 v 1 H 7 Z M 7,2 H 9 V 3 H 7 Z M 3,14 v -4 h 1 v 3 h 2 v 1 z m 10,0 v -4 h -1 v 3 h -2 v 1 z M 13,2 V 6 H 12 V 3 H 10 V 2 Z M 3,2 V 6 H 4 V 3 H 6 V 2 Z"
     id="path717287"
     sodipodi:nodetypes="cccccccccccccccccccccccccccccccccccccccccccccccccccccccccc" />
</svg>
