<?xml version="1.0" encoding="UTF-8" standalone="no"?>
<svg
   width="16"
   height="16"
   viewBox="0 0 16 16"
   version="1.1"
   id="svg7"
   sodipodi:docname="draw-watercolor.svg"
   inkscape:version="1.1.2 (0a00cf5339, 2022-02-04)"
   xmlns:inkscape="http://www.inkscape.org/namespaces/inkscape"
   xmlns:sodipodi="http://sodipodi.sourceforge.net/DTD/sodipodi-0.dtd"
   xmlns="http://www.w3.org/2000/svg"
   xmlns:svg="http://www.w3.org/2000/svg">
  <sodipodi:namedview
     id="namedview9"
     pagecolor="#000000"
     bordercolor="#666666"
     borderopacity="1.0"
     inkscape:pageshadow="2"
     inkscape:pageopacity="0"
     inkscape:pagecheckerboard="0"
     showgrid="false"
     inkscape:zoom="47.25"
     inkscape:cx="8"
     inkscape:cy="8"
     inkscape:window-width="1912"
     inkscape:window-height="966"
     inkscape:window-x="0"
     inkscape:window-y="29"
     inkscape:window-maximized="1"
     inkscape:current-layer="svg7" />
  <defs
     id="defs3">
    <style
       id="current-color-scheme"
       type="text/css">
   .ColorScheme-Text { color:#eeeeec; } .ColorScheme-Highlight { color:#367bf0; } .ColorScheme-NeutralText { color:#ffcc44; } .ColorScheme-PositiveText { color:#3db47e; } .ColorScheme-NegativeText { color:#dd4747; }
  </style>
  </defs>
  <path
     style="fill:currentColor"
     class="ColorScheme-Text"
     d="M 14.574,1.0059 C 13.51835,0.87527108 10.76911,2.7589871 8.0605,5.4688 6.8521306,6.6778986 5.7641723,7.9413567 4.9609,9.0684 5.9024,9.3683 6.6357,10.101 6.9355,11.043 8.0618201,10.239774 9.3245128,9.1518397 10.533,7.9434 13.606105,4.8692691 15.544952,1.8228352 14.865,1.1367 14.794768,1.065563 14.697412,1.021803 14.574,1.0059 Z M 13.110929,9.3227705 C 13.078449,9.4293945 12.930976,9.2119723 12.891028,9.3160261 12.452533,10.45819 11.603932,11.444393 11.219,12.25 11.072,12.511 11,12.808 11,13.125 11,14.164 11.892,15 13,15 c 1.108,0 2,-0.836 2,-1.875 0,-0.317 -0.103,-0.614 -0.25,-0.875 -0.384174,-0.804021 -1.204256,-1.787928 -1.639071,-2.9272295 -0.04055,-0.1062454 0.03318,0.1089283 0,0 z M 4.5,10.33 v 0.002 c -3.3112413,0.887438 -1.1402783,2.918811 -3.1195018,4.417359 -0.1127667,0.08538 0.1844743,0.16028 0.042982,0.241891 0.1441273,0 -0.1381926,0.0058 0,0 C 4.6410718,14.856694 6.25,13.199901 6.25,12.08 6.25,11.498 6.3094,10.427 4.5,10.33 Z"
     id="path5"
     sodipodi:nodetypes="ccccccccscssscscccscssc" />
</svg>
