<?xml version="1.0" encoding="UTF-8" standalone="no"?>
<svg
   width="16"
   height="16"
   version="1.1"
   id="svg551537"
   sodipodi:docname="earthquake.svg"
   inkscape:version="1.1.2 (0a00cf5339, 2022-02-04)"
   xmlns:inkscape="http://www.inkscape.org/namespaces/inkscape"
   xmlns:sodipodi="http://sodipodi.sourceforge.net/DTD/sodipodi-0.dtd"
   xmlns="http://www.w3.org/2000/svg"
   xmlns:svg="http://www.w3.org/2000/svg">
  <sodipodi:namedview
     id="namedview551539"
     pagecolor="#000000"
     bordercolor="#666666"
     borderopacity="1.0"
     inkscape:pageshadow="2"
     inkscape:pageopacity="0"
     inkscape:pagecheckerboard="0"
     showgrid="false"
     inkscape:zoom="51.6875"
     inkscape:cx="8"
     inkscape:cy="8.0096735"
     inkscape:window-width="1880"
     inkscape:window-height="966"
     inkscape:window-x="0"
     inkscape:window-y="29"
     inkscape:window-maximized="1"
     inkscape:current-layer="svg551537" />
  <defs
     id="defs551533">
    <style
       id="current-color-scheme"
       type="text/css">
   .ColorScheme-Text { color:#eeeeec; } .ColorScheme-Highlight { color:#367bf0; } .ColorScheme-NeutralText { color:#ffcc44; } .ColorScheme-PositiveText { color:#3db47e; } .ColorScheme-NegativeText { color:#dd4747; }
  </style>
  </defs>
  <path
     style="fill:currentColor"
     class="ColorScheme-Text"
     d="m 8.4278278,1.0121671 -0.1878418,0.3262493 2.949682,7.7570285 0.346374,0.078234 v 0 L 14.977,7.4532 C 14.700377,3.9614475 11.892401,1.2231663 8.4278278,1.0121671 c -0.1049244,-0.00639 0.1060767,0.0017 0,0 z m -1.0401397,0.00399 c -0.07422,0.00424 0.073582,-0.00653 0,0 C 3.9744267,1.3190637 1.2670897,4.0717591 1.0254,7.5118 L 3.9498173,5.4223885 4.3263019,5.53557 v 0 l 2.127621,4.2547292 0.2721427,-0.053463 v 0 L 7.5827965,1.2631284 Z M 8.2334258,4.784912 v 0 l -0.8496761,8.392872 v 0 L 7.0605991,13.238768 3.9431501,7.0035148 3.6152797,6.8885156 v 0 L 1.0449,8.7247 C 1.4158,12.288 4.4174,14.996 8,15 c 3.641,-0.003 6.672,-2.797 6.971,-6.4257 l -3.959482,1.979461 v 0 l -0.36876,-0.08538 -2.1674666,-5.6953856 z"
     id="path551535"
     sodipodi:nodetypes="ccccccsccsccccccccccccccccccccccccc" />
</svg>
