<?xml version="1.0" encoding="UTF-8" standalone="no"?>
<svg
   width="16"
   height="16"
   viewBox="0 0 16 16"
   version="1.1"
   id="svg802761"
   sodipodi:docname="edit-node.svg"
   inkscape:version="1.1.2 (0a00cf5339, 2022-02-04)"
   xmlns:inkscape="http://www.inkscape.org/namespaces/inkscape"
   xmlns:sodipodi="http://sodipodi.sourceforge.net/DTD/sodipodi-0.dtd"
   xmlns="http://www.w3.org/2000/svg"
   xmlns:svg="http://www.w3.org/2000/svg">
  <sodipodi:namedview
     id="namedview802763"
     pagecolor="#000000"
     bordercolor="#666666"
     borderopacity="1.0"
     inkscape:pageshadow="2"
     inkscape:pageopacity="0"
     inkscape:pagecheckerboard="0"
     showgrid="false"
     inkscape:zoom="51.6875"
     inkscape:cx="7.9903265"
     inkscape:cy="8"
     inkscape:window-width="1920"
     inkscape:window-height="1051"
     inkscape:window-x="0"
     inkscape:window-y="29"
     inkscape:window-maximized="1"
     inkscape:current-layer="svg802761" />
  <defs
     id="defs802757">
    <style
       id="current-color-scheme"
       type="text/css">
   .ColorScheme-Text { color:#eeeeec; } .ColorScheme-Highlight { color:#367bf0; } .ColorScheme-NeutralText { color:#ffcc44; } .ColorScheme-PositiveText { color:#3db47e; } .ColorScheme-NegativeText { color:#dd4747; }
  </style>
  </defs>
  <path
     style="fill:currentColor"
     class="ColorScheme-Text"
     d="M 3.5,1 C 2.1192881,1 1,2.1192881 1,3.5 1.0001377,4.687871 1.8361288,5.7116258 3,5.9492 V 6 10 H 1 v 5 H 6 V 10 H 4 V 6 5.9453 C 4.9804991,5.7454042 5.7473408,4.9800968 5.9492,4 H 6 10 v 2 h 5 V 1 H 10 V 3 H 6 5.9453 C 5.7080202,1.8375627 4.6864055,1.0019886 3.5,1 Z M 8,7.4302449 v 0 5.4330491 l 0.1378399,0.193845 v 0 L 9.2695,12.5 l 1.318888,1.291761 v 0 L 10.78196,13.750099 10.641,11.9 11.857799,11.429934 v 0 l -0.0063,-0.217386 -3.5900483,-3.9266158 z"
     id="path802759"
     sodipodi:nodetypes="cccccccccccccccccccccccccccccccccccccc" />
</svg>
