<?xml version="1.0" encoding="UTF-8" standalone="no"?>
<svg
   width="16"
   height="16"
   viewBox="0 0 16 16"
   version="1.1"
   id="svg7"
   sodipodi:docname="exchange-positions-zorder.svg"
   inkscape:version="1.1.2 (0a00cf5339, 2022-02-04)"
   xmlns:inkscape="http://www.inkscape.org/namespaces/inkscape"
   xmlns:sodipodi="http://sodipodi.sourceforge.net/DTD/sodipodi-0.dtd"
   xmlns="http://www.w3.org/2000/svg"
   xmlns:svg="http://www.w3.org/2000/svg">
  <sodipodi:namedview
     id="namedview9"
     pagecolor="#000000"
     bordercolor="#666666"
     borderopacity="1.0"
     inkscape:pageshadow="2"
     inkscape:pageopacity="0"
     inkscape:pagecheckerboard="0"
     showgrid="false"
     inkscape:zoom="47.25"
     inkscape:cx="8"
     inkscape:cy="8.010582"
     inkscape:window-width="1920"
     inkscape:window-height="1051"
     inkscape:window-x="0"
     inkscape:window-y="29"
     inkscape:window-maximized="1"
     inkscape:current-layer="svg7" />
  <defs
     id="defs3">
    <style
       id="current-color-scheme"
       type="text/css">
   .ColorScheme-Text { color:#eeeeec; } .ColorScheme-Highlight { color:#367bf0; } .ColorScheme-NeutralText { color:#ffcc44; } .ColorScheme-PositiveText { color:#3db47e; } .ColorScheme-NegativeText { color:#dd4747; }
  </style>
  </defs>
  <path
     style="fill:currentColor"
     class="ColorScheme-Text"
     d="M 0,0 V 7 H 8 V 0 Z m 9,1.4413155 v 0 V 5 h 1 V 2.6697992 l 0.236563,-0.2250554 c 0.236562,0.089244 -0.07796,-0.03129 0,0 C 12.497994,3.3524495 13.995167,5.546381 14,8 h 1 C 14.997104,4.6436055 12.616589,1.7805298 9.3557473,1.1387297 9.2382839,1.1156105 9.1196781,1.4585892 9,1.4413155 Z M 1,8 c 0.0029,3.361591 2.3915739,6.228717 5.6602883,6.86448 C 6.7725086,14.886307 6.8857661,14.56147 7,14.577966 v 0 V 11 H 6 v 2.34959 l -0.2711721,0.19204 c -0.091564,-0.03241 0.089202,0.03648 0,0 C 3.4867572,12.624643 2.005001,10.440888 2,8 Z m 9.207,1.207 H 9.793 L 8,11 v 1.131687 0 l 0.2385135,0.0438 L 9.282041,11.131959 9.5,11.228835 v 0 L 9.5,15 h 1 v -3.742159 l 0.233561,-0.11028 v 0 l 1.021756,1.021756 v 0 L 12,12.110481 V 11 Z M 13.5,10 v 3.823596 0 L 13.282978,13.868978 12.208961,12.794961 12,12.893531 v 0 V 14 l 1.793,1.793 h 0.414 v 0 L 16,14 v -1.085262 0 L 15.816644,12.769356 14.709579,13.876421 14.5,13.737093 v 0 L 14.5,10 Z"
     id="path5"
     sodipodi:nodetypes="cccccccccccsccsccsccccccsccccccccccccccccccccccccccccccccccccccccc" />
</svg>
