<?xml version="1.0" encoding="UTF-8" standalone="no"?>
<svg
   width="16"
   height="16"
   viewBox="0 0 16 16"
   version="1.1"
   id="svg7"
   sodipodi:docname="exchange-positions.svg"
   inkscape:version="1.1.2 (0a00cf5339, 2022-02-04)"
   xmlns:inkscape="http://www.inkscape.org/namespaces/inkscape"
   xmlns:sodipodi="http://sodipodi.sourceforge.net/DTD/sodipodi-0.dtd"
   xmlns="http://www.w3.org/2000/svg"
   xmlns:svg="http://www.w3.org/2000/svg">
  <sodipodi:namedview
     id="namedview9"
     pagecolor="#000000"
     bordercolor="#666666"
     borderopacity="1.0"
     inkscape:pageshadow="2"
     inkscape:pageopacity="0"
     inkscape:pagecheckerboard="0"
     showgrid="false"
     inkscape:zoom="51.6875"
     inkscape:cx="8.0096735"
     inkscape:cy="8"
     inkscape:window-width="1920"
     inkscape:window-height="1051"
     inkscape:window-x="0"
     inkscape:window-y="29"
     inkscape:window-maximized="1"
     inkscape:current-layer="svg7" />
  <defs
     id="defs3">
    <style
       id="current-color-scheme"
       type="text/css">
   .ColorScheme-Text { color:#eeeeec; } .ColorScheme-Highlight { color:#367bf0; } .ColorScheme-NeutralText { color:#ffcc44; } .ColorScheme-PositiveText { color:#3db47e; } .ColorScheme-NegativeText { color:#dd4747; }
  </style>
  </defs>
  <path
     style="fill:currentColor"
     class="ColorScheme-Text"
     d="M 0,0 V 7 H 8 V 0 Z m 9,1.3714955 v 0 V 5 h 1 v -2.3670163 0 C 10.127663,2.6781194 10.253075,2.4497654 10.376112,2.5027791 12.559364,3.4434858 13.995077,5.5973043 14,8 h 1 C 14.997106,4.6452058 12.618486,1.7832834 9.3603717,1.1396742 9.2413963,1.1161717 9.1212481,1.3889979 9,1.3714955 Z M 1,8 c 0.00291,3.376926 2.4130003,6.254455 5.7042235,6.872773 0.097827,0.01838 -0.099344,-0.01434 0,0 L 7,14.554325 V 11 H 6 v 2.343429 l -0.3105778,0.18157 c -0.1050741,-0.03715 0.101955,0.04251 0,0 C 3.4694116,12.599444 2.0049717,10.426655 2,8 Z m 7,1 v 7 h 8 V 9 Z"
     id="path5"
     sodipodi:nodetypes="cccccccccccsccsccsccccccsccccccc" />
</svg>
