<?xml version="1.0" encoding="UTF-8" standalone="no"?>
<svg
   width="16"
   height="16"
   version="1.1"
   id="svg7"
   sodipodi:docname="fcitx-handwriting-inactive.svg"
   inkscape:version="1.1.2 (0a00cf5339, 2022-02-04)"
   xmlns:inkscape="http://www.inkscape.org/namespaces/inkscape"
   xmlns:sodipodi="http://sodipodi.sourceforge.net/DTD/sodipodi-0.dtd"
   xmlns="http://www.w3.org/2000/svg"
   xmlns:svg="http://www.w3.org/2000/svg">
  <sodipodi:namedview
     id="namedview9"
     pagecolor="#090909"
     bordercolor="#666666"
     borderopacity="1.0"
     inkscape:pageshadow="2"
     inkscape:pageopacity="0"
     inkscape:pagecheckerboard="0"
     showgrid="false"
     inkscape:zoom="47.25"
     inkscape:cx="8"
     inkscape:cy="8"
     inkscape:window-width="1880"
     inkscape:window-height="966"
     inkscape:window-x="0"
     inkscape:window-y="29"
     inkscape:window-maximized="1"
     inkscape:current-layer="svg7" />
  <defs
     id="defs3">
    <style
       id="current-color-scheme"
       type="text/css">
   .ColorScheme-Text { color:#eeeeec; } .ColorScheme-Highlight { color:#367bf0; } .ColorScheme-NeutralText { color:#ffcc44; } .ColorScheme-PositiveText { color:#3db47e; } .ColorScheme-NegativeText { color:#dd4747; }
  </style>
  </defs>
  <path
     style="opacity:0.35;fill:currentColor"
     class="ColorScheme-Text"
     d="M 2,0 C 2,0 0,0 0,2 v 12 c 0,2 2,2 2,2 h 12 c 0,0 2,0 2,-2 V 2 C 16,0 14,0 14,0 Z m 9.611,2 c 0.182,0 0.363,0.0709 0.508,0.2109 l 1.67,1.67 c 0.28,0.28 0.28,0.7297 0,1.0097 L 12.381,6.2891 9.7109,3.6094 11.109,2.2109 C 11.249,2.0709 11.43,2 11.611,2 Z M 8.75,4.5703 11.42,7.25 4.8588502,13.811053 4.385604,14 v 0 L 2.2267098,14 2,13.740203 v 0 -2.158933 0 L 2.1943344,11.125674 8.58592,4.7343728 Z"
     id="path5"
     sodipodi:nodetypes="cssccssccscsccccsccccccccccccc" />
</svg>
