<?xml version="1.0" encoding="UTF-8" standalone="no"?>
<svg
   width="16"
   height="16"
   version="1.1"
   id="svg7"
   sodipodi:docname="fcitx-rime-deploy.svg"
   inkscape:version="1.1.2 (0a00cf5339, 2022-02-04)"
   xmlns:inkscape="http://www.inkscape.org/namespaces/inkscape"
   xmlns:sodipodi="http://sodipodi.sourceforge.net/DTD/sodipodi-0.dtd"
   xmlns="http://www.w3.org/2000/svg"
   xmlns:svg="http://www.w3.org/2000/svg">
  <sodipodi:namedview
     id="namedview9"
     pagecolor="#000000"
     bordercolor="#666666"
     borderopacity="1.0"
     inkscape:pageshadow="2"
     inkscape:pageopacity="0"
     inkscape:pagecheckerboard="0"
     showgrid="false"
     inkscape:zoom="47.25"
     inkscape:cx="8"
     inkscape:cy="8"
     inkscape:window-width="1880"
     inkscape:window-height="966"
     inkscape:window-x="0"
     inkscape:window-y="29"
     inkscape:window-maximized="1"
     inkscape:current-layer="svg7" />
  <defs
     id="defs3">
    <style
       id="current-color-scheme"
       type="text/css">
   .ColorScheme-Text { color:#eeeeec; } .ColorScheme-Highlight { color:#367bf0; } .ColorScheme-NeutralText { color:#ffcc44; } .ColorScheme-PositiveText { color:#3db47e; } .ColorScheme-NegativeText { color:#dd4747; }
  </style>
  </defs>
  <path
     style="fill:currentColor"
     class="ColorScheme-Text"
     d="M 8,0 C 3.5817,0 0,3.5817 0,8 c 0,4.418 3.5817,8 8,8 4.418,0 8,-3.582 8,-8 C 16,3.5817 12.418,0 8,0 Z M 7.3118033,2.2078689 v 0 l 2.388415,1.5922766 v 0 l 0.024461,0.3834013 -2.4660519,1.6440347 v 0 L 7,5.6346423 V 5.1738 C 5.8021,5.5973 5.001,6.7295 5,8 c 0.0011,0.9447702 0.4467273,1.8285092 1.1933946,2.391403 0.066015,0.04977 -0.070622,-0.04457 0,0 L 6.2303539,10.64496 5.4453,11.168 c -0.2305755,0.153874 -0.3704878,0.37986 -0.4214304,0.621344 -0.013947,0.06611 6.448e-4,-0.06727 0,0 -0.07861,-0.05891 -0.177072,0.08075 -0.2515941,0.01777 C 3.6550624,10.862877 3.0032811,9.4724804 3,8 3.0003,5.6242 4.6722,3.5767 7,3.1016 V 2.3751954 Z M 10.978757,4.197719 c 0.07043,0.052765 0.158473,-0.080706 0.22562,-0.024654 C 12.335718,5.1174719 12.996224,6.5173004 13,8 c 0,2.376 -1.672,4.423 -4,4.898 v 0.778583 0 L 8.6743289,13.782886 6.2861274,12.190752 v 0 L 6.3208789,11.786081 8.6943693,10.203754 9,10.290536 v 0 V 10.826 C 10.198,10.403 10.999,9.2705 11,8 10.999058,7.0312656 10.530402,6.1266976 9.7492106,5.5662201 c -0.048034,-0.034463 0.050361,0.031796 0,0 L 9.8057965,5.3308403 10.555,4.832 c 0.234164,-0.1564822 0.375076,-0.3876298 0.423757,-0.634281 0.01223,-0.061974 -6.02e-4,0.062993 0,0 z"
     id="path5"
     sodipodi:nodetypes="sssssccccccccccscccscscccccscccccccccccccscccsc" />
</svg>
