<?xml version="1.0" encoding="UTF-8" standalone="no"?>
<svg
   width="16"
   height="16"
   viewBox="0 0 16 16"
   version="1.1"
   id="svg7"
   sodipodi:docname="filename-and-amarok.svg"
   inkscape:version="1.1.2 (0a00cf5339, 2022-02-04)"
   xmlns:inkscape="http://www.inkscape.org/namespaces/inkscape"
   xmlns:sodipodi="http://sodipodi.sourceforge.net/DTD/sodipodi-0.dtd"
   xmlns="http://www.w3.org/2000/svg"
   xmlns:svg="http://www.w3.org/2000/svg">
  <sodipodi:namedview
     id="namedview9"
     pagecolor="#000000"
     bordercolor="#666666"
     borderopacity="1.0"
     inkscape:pageshadow="2"
     inkscape:pageopacity="0"
     inkscape:pagecheckerboard="0"
     showgrid="false"
     inkscape:zoom="146.19433"
     inkscape:cx="9.5215733"
     inkscape:cy="10.735711"
     inkscape:window-width="1920"
     inkscape:window-height="1051"
     inkscape:window-x="0"
     inkscape:window-y="29"
     inkscape:window-maximized="1"
     inkscape:current-layer="svg7" />
  <defs
     id="defs3">
    <style
       id="current-color-scheme"
       type="text/css">
   .ColorScheme-Text { color:#eeeeec; } .ColorScheme-Highlight { color:#367bf0; } .ColorScheme-NeutralText { color:#ffcc44; } .ColorScheme-PositiveText { color:#3db47e; } .ColorScheme-NegativeText { color:#dd4747; }
  </style>
  </defs>
  <path
     style="fill:currentColor"
     class="ColorScheme-Text"
     d="m 7.2792969,1.0507812 c -1.1178,0 -2.1522782,0.2925057 -2.9550781,0.9160157 -0.80478,0.62368 -1.2695313,1.5764656 -1.2695313,2.5722656 0,0.91979 0.4235406,1.7848625 1.0253906,2.6015625 -0.24211,0.16584 -0.4774112,0.3465569 -0.7070312,0.5605469 -0.2794,0.26021 -0.5240663,0.5444056 -0.7226563,0.8535156 -6.575e-4,0.00195 -0.00131,0.0039 -0.00195,0.00586 -0.20359,0.32163 -0.3556431,0.6785662 -0.4707031,1.0664062 -6.684e-4,0.00325 -0.00132,0.00651 -0.00195,0.00977 -0.11563,0.4072703 -0.1699218,0.8348603 -0.1699218,1.2753903 0,0.5513 0.1474019,1.098144 0.4199218,1.589844 0.00193,0.0033 0.00389,0.0065 0.00586,0.0098 0.27063,0.47508 0.6375282,0.89642 1.0800782,1.24414 0.45013,0.35367 0.9764437,0.624136 1.5585937,0.822266 0.00455,0.0013 0.00911,0.0026 0.013672,0.0039 0.60056,0.19557 1.2306,0.292969 1.875,0.292969 1.1651,0 2.2743187,-0.397581 3.3242186,-0.988281 l 0.75,0.794922 c 0.366792,0.389115 0.989454,0.433037 1.412109,0.09961 l 0.97461,-0.771484 c 0.451371,-0.356691 0.497707,-1.001835 0.101562,-1.414063 L 12.748054,11.79105 c 0.4006,-0.47929 0.812159,-0.931458 1.167969,-1.523438 0.270143,-0.4487794 0.127109,-1.0209136 -0.326172,-1.3046875 L 12.630859,8.3632812 C 12.134868,8.0531251 11.467604,8.2091786 11.177734,8.703125 10.987794,9.027805 10.765617,9.25395 10.560547,9.53125 L 8.9160156,7.8242188 c 0.21463,-0.1228701 0.4042025,-0.2387475 0.5703125,-0.3671876 0.12924,-0.1 0.2772125,-0.2170587 0.4453125,-0.3554687 6.52e-4,-6.502e-4 0.0013,-0.0013 0.00195,-0.00195 C 10.151364,6.9193094 10.34125,6.7294031 10.5,6.5019531 c 0.0039,-0.00452 0.0079,-0.00908 0.01172,-0.013672 0.10422,-0.1556 0.203874,-0.32354 0.302734,-0.5 0.1449,-0.25233 0.249564,-0.5264237 0.308594,-0.8085937 0.0411,-0.19644 0.05145,-0.3999956 0.06055,-0.6035156 0.01177,-0.059891 0.01766,-0.1207028 0.01758,-0.1816407 0,-0.97937 -0.399312,-1.9224781 -1.169922,-2.5175781 C 9.28806,1.3030031 8.3238969,1.0507812 7.2792969,1.0507812 Z m 1.9375,1.5957032 0.00586,0.00781 c -9.999e-4,-10e-4 -0.00291,-8.632e-4 -0.00391,-0.00195 -0.002,-10e-4 -3.531e-4,-0.00386 -0.00195,-0.00586 z m -1.9199219,1.3125 c 0.37084,0 0.4761656,0.074679 0.5097656,0.1054687 0.00194,0.00196 0.0039,0.00391 0.00586,0.00586 0.0372,0.0333 0.089844,0.075674 0.089844,0.3652344 0,0.11698 -0.019047,0.2112368 -0.060547,0.3105469 -0.00198,0.00389 -0.00393,0.0078 -0.00586,0.011719 -0.0506,0.12563 -0.1041069,0.2091981 -0.1542969,0.2675781 -0.00397,0.00582 -0.00788,0.011679 -0.011719,0.017578 -0.0421,0.0513 -0.1524181,0.1570799 -0.3300781,0.28125 C 7.2638185,5.3768357 7.1952429,5.4217801 7.130129,5.4630976 7.0650923,5.5043661 7.0075217,5.4428275 6.9454185,5.4808899 6.9055025,5.4248733 6.86133,5.4679186 6.8217176,5.4119869 6.5675538,5.0531134 6.3359375,4.7029599 6.3359375,4.4511719 c 0,-0.17332 -0.010507,-0.1605638 0.1582031,-0.2773438 0.20017,-0.13856 0.4277244,-0.2148437 0.8027344,-0.2148437 z M 6.1956263,9.5567693 v 0 l 1.6990698,1.8029507 0.00817,0.176809 c -0.038617,0.01304 0.039133,-0.01631 0,0 -0.297798,0.124131 -0.6079475,0.324799 -0.8911437,0.324799 -0.56149,0 -0.9189988,-0.126964 -1.2304688,-0.371094 -0.31584,-0.25253 -0.3847656,-0.410131 -0.3847656,-0.707031 0,-0.43064 0.097511,-0.691432 0.2753906,-0.9140624 0.00131,-0.0026 0.00262,-0.0052 0.00391,-0.00781 0.078224,-0.099147 0.2427536,-0.2013177 0.377525,-0.3034585 0.028904,-0.021906 -0.025021,0.021872 0,0 z"
     id="path5"
     sodipodi:nodetypes="scsccccccscccccsccccccccccccccccccccccsccccsccscccccscsscsccccsscsccscc" />
</svg>
