<?xml version="1.0" encoding="UTF-8" standalone="no"?>
<svg
   width="16"
   height="16"
   version="1.1"
   id="svg9"
   sodipodi:docname="folder-open-recent.svg"
   inkscape:version="1.1.2 (0a00cf5339, 2022-02-04)"
   xmlns:inkscape="http://www.inkscape.org/namespaces/inkscape"
   xmlns:sodipodi="http://sodipodi.sourceforge.net/DTD/sodipodi-0.dtd"
   xmlns="http://www.w3.org/2000/svg"
   xmlns:svg="http://www.w3.org/2000/svg">
  <sodipodi:namedview
     id="namedview11"
     pagecolor="#000000"
     bordercolor="#666666"
     borderopacity="1.0"
     inkscape:pageshadow="2"
     inkscape:pageopacity="0"
     inkscape:pagecheckerboard="0"
     showgrid="false"
     inkscape:zoom="47.25"
     inkscape:cx="8"
     inkscape:cy="8"
     inkscape:window-width="1880"
     inkscape:window-height="966"
     inkscape:window-x="0"
     inkscape:window-y="29"
     inkscape:window-maximized="1"
     inkscape:current-layer="svg9" />
  <defs
     id="defs3">
    <style
       id="current-color-scheme"
       type="text/css">
   .ColorScheme-Text { color:#eeeeec; } .ColorScheme-Highlight { color:#367bf0; } .ColorScheme-NeutralText { color:#ffcc44; } .ColorScheme-PositiveText { color:#3db47e; } .ColorScheme-NegativeText { color:#dd4747; }
  </style>
  </defs>
  <path
     style="opacity:0.35;fill:currentColor"
     class="ColorScheme-Text"
     d="M 2,1 C 2,1 1,1 1,2 V 5 C 1,4 2,4 2,4 h 4.7770208 l 0.3995917,0.1766125 v 0 L 8.8590979,5.8590979 9.2109375,6 V 6 H 14 c 0,0 0.549435,0 0.83378,0.4072627 C 14.933043,6.5494351 15,6.0953119 15,6.354073 v 0 V 4 C 15,3 14,3 14,3 H 9.2109375 L 8.8564766,2.8564766 v 0 L 7.1317757,1.1317757 6.7345236,1 v 0 z"
     id="path5"
     sodipodi:nodetypes="cscccccccccsccscccccccc" />
  <path
     style="fill:currentColor"
     class="ColorScheme-Text"
     d="M 2,5 C 2,5 1,5 1,6 v 1.454586 l 0.2130786,0.1728302 c 0.069893,-0.046836 -0.072129,0.04269 0,0 C 1.9042417,7.2183454 2.6937963,7.0009047 3.5,7 5.9852814,7 8,9.0147186 8,11.5 c -3.869e-4,0.817694 -0.2235371,1.61841 -0.6435253,2.31684 -0.037208,0.06188 0.04028,-0.06021 0,0 L 7.4964503,14 H 14 c 0,0 1,0 1,-1 V 8 C 15,7 14,7 14,7 H 9.2109375 L 8.8458943,6.8458943 v 0 L 7.1631854,5.1631854 v 0 L 6.7345236,5 Z M 3.5,8 C 1.5670034,7.9999999 -5.5228477e-8,9.5670034 0,11.5 -5.5228477e-8,13.432997 1.5670034,15 3.5,15 5.4329966,15 7.0000001,13.432997 7,11.5 7.0000001,9.5670034 5.4329966,7.9999999 3.5,8 Z M 3,9.295737 3.2424097,9 H 3.7930618 V 9 L 4,9.2745303 v 1.4603887 0 L 4.2793589,11 h 1.481962 L 6,11.263808 v 0 0.46559 L 5.7188236,12 v 0 H 4 3.2217675 v 0 L 3,11.771811 Z"
     id="path7"
     sodipodi:nodetypes="csccsccscccssccccccccsssssccccccccccccccccccc" />
</svg>
