<?xml version="1.0" encoding="UTF-8" standalone="no"?>
<svg
   width="16"
   height="16"
   version="1.1"
   id="svg634833"
   sodipodi:docname="font-select.svg"
   inkscape:version="1.1.2 (0a00cf5339, 2022-02-04)"
   xmlns:inkscape="http://www.inkscape.org/namespaces/inkscape"
   xmlns:sodipodi="http://sodipodi.sourceforge.net/DTD/sodipodi-0.dtd"
   xmlns="http://www.w3.org/2000/svg"
   xmlns:svg="http://www.w3.org/2000/svg">
  <sodipodi:namedview
     id="namedview634835"
     pagecolor="#000000"
     bordercolor="#666666"
     borderopacity="1.0"
     inkscape:pageshadow="2"
     inkscape:pageopacity="0"
     inkscape:pagecheckerboard="0"
     showgrid="false"
     inkscape:zoom="51.6875"
     inkscape:cx="7.9903265"
     inkscape:cy="8"
     inkscape:window-width="1920"
     inkscape:window-height="1051"
     inkscape:window-x="0"
     inkscape:window-y="29"
     inkscape:window-maximized="1"
     inkscape:current-layer="svg634833" />
  <defs
     id="defs634829">
    <style
       id="current-color-scheme"
       type="text/css">
   .ColorScheme-Text { color:#eeeeec; } .ColorScheme-Highlight { color:#367bf0; } .ColorScheme-NeutralText { color:#ffcc44; } .ColorScheme-PositiveText { color:#3db47e; } .ColorScheme-NegativeText { color:#dd4747; }
  </style>
  </defs>
  <path
     style="fill:currentColor"
     class="ColorScheme-Text"
     d="M 6,5 H 9 V 6 H 7 C 7,6 5,6 5,8.5 5,11 7,11 7,11 h 4 V 5 C 11,5 11,3 9,3 H 6 Z M 0,5.3914185 v 0 5.1054005 l 0.36083056,0.232558 v 0 L 3.7114879,8.2163841 v 0 L 3.7071575,7.7803681 0.30918673,5.23189 Z m 16,0.010096 -0.44081,-0.070907 -3.245507,2.4341301 v 0 l -0.04459,0.4370812 3.423577,2.5676833 v 0 L 16,10.51443 Z M 8,8 H 9 V 9 H 8 C 8,9 7,9 7,8.5 7,8 8,8 8,8 Z"
     id="path634831"
     sodipodi:nodetypes="ccccscccsccccccccccccccccccccccccccsc" />
</svg>
