<?xml version="1.0" encoding="UTF-8" standalone="no"?>
<svg
   width="16"
   height="16"
   version="1.1"
   id="svg2672682"
   sodipodi:docname="format-text-direction-vertical.svg"
   inkscape:version="1.1.2 (0a00cf5339, 2022-02-04)"
   xmlns:inkscape="http://www.inkscape.org/namespaces/inkscape"
   xmlns:sodipodi="http://sodipodi.sourceforge.net/DTD/sodipodi-0.dtd"
   xmlns="http://www.w3.org/2000/svg"
   xmlns:svg="http://www.w3.org/2000/svg">
  <sodipodi:namedview
     id="namedview2672684"
     pagecolor="#000000"
     bordercolor="#666666"
     borderopacity="1.0"
     inkscape:pageshadow="2"
     inkscape:pageopacity="0"
     inkscape:pagecheckerboard="0"
     showgrid="false"
     inkscape:zoom="51.6875"
     inkscape:cx="7.9903265"
     inkscape:cy="8"
     inkscape:window-width="1920"
     inkscape:window-height="1051"
     inkscape:window-x="0"
     inkscape:window-y="29"
     inkscape:window-maximized="1"
     inkscape:current-layer="svg2672682" />
  <defs
     id="defs2672678">
    <style
       id="current-color-scheme"
       type="text/css">
   .ColorScheme-Text { color:#eeeeec; } .ColorScheme-Highlight { color:#367bf0; } .ColorScheme-NeutralText { color:#ffcc44; } .ColorScheme-PositiveText { color:#3db47e; } .ColorScheme-NegativeText { color:#dd4747; }
  </style>
  </defs>
  <path
     style="fill:currentColor"
     class="ColorScheme-Text"
     d="m 10,2 v 9 h 1 V 2 Z m 3,0 v 9 h 1 V 2 Z M 2,10 v 1 h 1 v -1 z m 3,0 v 1 h 1 v -1 z m -2.7764527,2.335321 v 0 l 1.5460552,2.319083 v 0 L 4.232825,14.650762 5.7589332,12.3616 5.6225781,12 v 0 H 2.4148997 Z M 10.408827,12 l -0.185321,0.335259 1.543908,2.315861 0.418011,0.07074 c 0.06181,-0.1856 -0.06181,-0.0961 0,0 L 13.744902,12.382647 13.600729,12 v 0 z M 3.5469,2 1,9 H 2 L 2.7285,7 h 2.543 L 6,9 H 7 L 4.4531,2 Z M 4,3.5 4.9082,6 H 3.0918 Z"
     id="path2672680"
     sodipodi:nodetypes="cccccccccccccccccccccccccccccccccccccccccccccccccccc" />
</svg>
