<?xml version="1.0" encoding="UTF-8" standalone="no"?>
<svg
   width="16"
   height="16"
   version="1.1"
   id="svg7"
   sodipodi:docname="format-text-direction-rtl.svg"
   inkscape:version="1.1.2 (0a00cf5339, 2022-02-04)"
   xmlns:inkscape="http://www.inkscape.org/namespaces/inkscape"
   xmlns:sodipodi="http://sodipodi.sourceforge.net/DTD/sodipodi-0.dtd"
   xmlns="http://www.w3.org/2000/svg"
   xmlns:svg="http://www.w3.org/2000/svg">
  <sodipodi:namedview
     id="namedview9"
     pagecolor="#000000"
     bordercolor="#666666"
     borderopacity="1.0"
     inkscape:pageshadow="2"
     inkscape:pageopacity="0"
     inkscape:pagecheckerboard="0"
     showgrid="false"
     inkscape:zoom="51.6875"
     inkscape:cx="8"
     inkscape:cy="8"
     inkscape:window-width="1209"
     inkscape:window-height="1043"
     inkscape:window-x="674"
     inkscape:window-y="32"
     inkscape:window-maximized="1"
     inkscape:current-layer="svg7" />
  <defs
     id="defs3">
    <style
       id="current-color-scheme"
       type="text/css">
   .ColorScheme-Text { color:#eeeeec; } .ColorScheme-Highlight { color:#367bf0; } .ColorScheme-NeutralText { color:#ffcc44; } .ColorScheme-PositiveText { color:#3db47e; } .ColorScheme-NegativeText { color:#dd4747; }
  </style>
  </defs>
  <path
     style="fill:currentColor"
     class="ColorScheme-Text"
     d="M 3.6957775,9.2281669 4,9.382594 V 11 h 11 v 2 H 4 v 1.557794 0 L 3.6711809,14.753386 0.24864457,12.186483 v 0 l 0.0365334,-0.400366 z M 6,0 v 2 h 6 c 0,0 1,0 1,1 V 4 H 8 C 5,4 5,7 5,7 c 0,0 0,3 3,3 h 7 V 3 C 15,0 12,0 12,0 Z m 2,6 h 5 V 8 H 8 C 7,8 7,7 7,7 7,7 7,6 8,6 Z"
     id="path5"
     sodipodi:nodetypes="cccccccccccccccccscscscsccsccsc" />
</svg>
