<?xml version="1.0" encoding="UTF-8" standalone="no"?>
<svg
   width="16"
   height="16"
   version="1.1"
   id="svg93194"
   sodipodi:docname="format-fill-color.svg"
   inkscape:version="1.1.2 (0a00cf5339, 2022-02-04)"
   xmlns:inkscape="http://www.inkscape.org/namespaces/inkscape"
   xmlns:sodipodi="http://sodipodi.sourceforge.net/DTD/sodipodi-0.dtd"
   xmlns="http://www.w3.org/2000/svg"
   xmlns:svg="http://www.w3.org/2000/svg">
  <sodipodi:namedview
     id="namedview93196"
     pagecolor="#000000"
     bordercolor="#666666"
     borderopacity="1.0"
     inkscape:pageshadow="2"
     inkscape:pageopacity="0"
     inkscape:pagecheckerboard="0"
     showgrid="false"
     inkscape:zoom="51.6875"
     inkscape:cx="8.0096735"
     inkscape:cy="8"
     inkscape:window-width="1920"
     inkscape:window-height="1051"
     inkscape:window-x="0"
     inkscape:window-y="29"
     inkscape:window-maximized="1"
     inkscape:current-layer="svg93194" />
  <defs
     id="defs93190">
    <style
       id="current-color-scheme"
       type="text/css">
   .ColorScheme-Text { color:#eeeeec; } .ColorScheme-Highlight { color:#367bf0; } .ColorScheme-NeutralText { color:#ffcc44; } .ColorScheme-PositiveText { color:#3db47e; } .ColorScheme-NegativeText { color:#dd4747; }
  </style>
  </defs>
  <path
     style="fill:currentColor"
     class="ColorScheme-Text"
     d="m 1.2178351,2.4356702 v 0 L 3,6 v 8 c 0,1 1,1 1,1 h 8 c 0,0 1,0 1,-1 v -3 c 1.657,0 3,-1.3431 3,-3 0,-1.6569 -1.343,-3 -3,-3 v -2.7096333 0 L 12.760833,2 H 1.3819505 Z M 13.203409,7.0207181 c 0.06969,0 -0.06568,-0.013582 0,0 C 13.657981,7.1147137 14,7.5174292 14,8 c 0,0.4662404 -0.319262,0.8579388 -0.750838,0.9686876 -0.07966,0.020442 0.08601,0 0,0 L 13,8.8162834 V 7.1886348 Z"
     id="path93192"
     sodipodi:nodetypes="cccsccscscccccccssscccc" />
</svg>
