<?xml version="1.0" encoding="UTF-8" standalone="no"?>
<svg
   width="16"
   height="16"
   version="1.1"
   id="svg530716"
   sodipodi:docname="format-align-vertical-center.svg"
   inkscape:version="1.1.2 (0a00cf5339, 2022-02-04)"
   xmlns:inkscape="http://www.inkscape.org/namespaces/inkscape"
   xmlns:sodipodi="http://sodipodi.sourceforge.net/DTD/sodipodi-0.dtd"
   xmlns="http://www.w3.org/2000/svg"
   xmlns:svg="http://www.w3.org/2000/svg">
  <sodipodi:namedview
     id="namedview530718"
     pagecolor="#000000"
     bordercolor="#666666"
     borderopacity="1.0"
     inkscape:pageshadow="2"
     inkscape:pageopacity="0"
     inkscape:pagecheckerboard="0"
     showgrid="false"
     inkscape:zoom="51.6875"
     inkscape:cx="7.9903265"
     inkscape:cy="8.0096735"
     inkscape:window-width="1880"
     inkscape:window-height="966"
     inkscape:window-x="0"
     inkscape:window-y="29"
     inkscape:window-maximized="1"
     inkscape:current-layer="svg530716" />
  <defs
     id="defs530712">
    <style
       id="current-color-scheme"
       type="text/css">
   .ColorScheme-Text { color:#eeeeec; } .ColorScheme-Highlight { color:#367bf0; } .ColorScheme-NeutralText { color:#ffcc44; } .ColorScheme-PositiveText { color:#3db47e; } .ColorScheme-NegativeText { color:#dd4747; }
  </style>
  </defs>
  <path
     style="fill:currentColor"
     class="ColorScheme-Text"
     d="M 7,16 V 11.886578 L 6.7760708,11.723929 v 0 l -3.3798002,3.3798 -0.3212613,-0.02872 v 0 L 2.1669467,14.166947 2.1607797,13.83922 v 0 L 7.812441,8.187559 8.2082959,8.2082959 v 0 l 5.6149021,5.6149021 v 0 l 0.04724,0.306364 -0.986624,0.986624 -0.276387,-0.0088 v 0 L 9.2682943,11.768294 9,11.805163 v 0 V 16 Z M 7,0 V 4.1644327 L 6.78473,4.28473 v 0 L 3.4177341,0.91773406 3.25,0.88767908 3.1054283,0.89457169 2.1550556,1.8449444 v 0 l 0.2181867,-0.032853 5.4206265,5.781609 0.4419218,0.00356 v 0 L 13.863483,2.136517 v 0 L 13.829259,1.8292588 12.929285,0.92928454 12.60844,0.89156038 v 0 L 9.2425007,4.2574993 v 0 L 9,4.128562 V 0 Z"
     id="path530714"
     sodipodi:nodetypes="cccccccccccccccccccccccccccccccccccccccccccccccc" />
</svg>
