<?xml version="1.0" encoding="UTF-8" standalone="no"?>
<svg
   width="16"
   height="16"
   version="1.1"
   id="svg2538706"
   sodipodi:docname="format-text-uppercase.svg"
   inkscape:version="1.1.2 (0a00cf5339, 2022-02-04)"
   xmlns:inkscape="http://www.inkscape.org/namespaces/inkscape"
   xmlns:sodipodi="http://sodipodi.sourceforge.net/DTD/sodipodi-0.dtd"
   xmlns="http://www.w3.org/2000/svg"
   xmlns:svg="http://www.w3.org/2000/svg">
  <sodipodi:namedview
     id="namedview2538708"
     pagecolor="#000000"
     bordercolor="#666666"
     borderopacity="1.0"
     inkscape:pageshadow="2"
     inkscape:pageopacity="0"
     inkscape:pagecheckerboard="0"
     showgrid="false"
     inkscape:zoom="51.6875"
     inkscape:cx="8.0096735"
     inkscape:cy="8.0096735"
     inkscape:window-width="1745"
     inkscape:window-height="966"
     inkscape:window-x="0"
     inkscape:window-y="29"
     inkscape:window-maximized="1"
     inkscape:current-layer="svg2538706" />
  <defs
     id="defs2538702">
    <style
       id="current-color-scheme"
       type="text/css">
   .ColorScheme-Text { color:#eeeeec; } .ColorScheme-Highlight { color:#367bf0; } .ColorScheme-NeutralText { color:#ffcc44; } .ColorScheme-PositiveText { color:#3db47e; } .ColorScheme-NegativeText { color:#dd4747; }
  </style>
  </defs>
  <path
     style="fill:currentColor"
     class="ColorScheme-Text"
     d="m 4,6 -3,8 h 1 l 0.7695,-2 h 3.461 L 7,14 H 8 L 5,6 Z M 4.3911256,7.7831689 4.6084072,7.7819538 5.7588945,10.774229 5.5180575,11 v 0 H 3.3704478 v 0 L 3.2601202,10.724775 Z M 9,6 v 8 h 3.5 C 15,14 15,11.5 15,11.5 15,11.5 15,9.9176 13.561,9.2422 13.561,9.2422 14,8.775 14,8 14,8 14,6 12,6 Z m 1,1 h 2 c 1,0 1,1 1,1 0,0 0,1 -1,1 h -2 z m 0,3 h 2.5 c 1.5,0 1.5,1.5 1.5,1.5 0,0 0,1.5 -1.5,1.5 H 10 Z M 11.673386,2.2080635 11.326111,2.2086663 9.3186033,4.617676 9.3767547,5 v 0 h 4.3509983 l 0.02198,-0.300321 v 0 z"
     id="path2538704"
     sodipodi:nodetypes="cccccccccccccccccccccscccsccscscccscsccccccccccc" />
</svg>
