<?xml version="1.0" encoding="UTF-8" standalone="no"?>
<svg
   width="16"
   height="16"
   version="1.1"
   id="svg2777635"
   sodipodi:docname="format-text-direction-r2l.svg"
   inkscape:version="1.1.2 (0a00cf5339, 2022-02-04)"
   xmlns:inkscape="http://www.inkscape.org/namespaces/inkscape"
   xmlns:sodipodi="http://sodipodi.sourceforge.net/DTD/sodipodi-0.dtd"
   xmlns="http://www.w3.org/2000/svg"
   xmlns:svg="http://www.w3.org/2000/svg">
  <sodipodi:namedview
     id="namedview2777637"
     pagecolor="#000000"
     bordercolor="#666666"
     borderopacity="1.0"
     inkscape:pageshadow="2"
     inkscape:pageopacity="0"
     inkscape:pagecheckerboard="0"
     showgrid="false"
     inkscape:zoom="51.6875"
     inkscape:cx="7.9903265"
     inkscape:cy="8"
     inkscape:window-width="1920"
     inkscape:window-height="1051"
     inkscape:window-x="0"
     inkscape:window-y="29"
     inkscape:window-maximized="1"
     inkscape:current-layer="svg2777635" />
  <defs
     id="defs2777631">
    <style
       id="current-color-scheme"
       type="text/css">
   .ColorScheme-Text { color:#eeeeec; } .ColorScheme-Highlight { color:#367bf0; } .ColorScheme-NeutralText { color:#ffcc44; } .ColorScheme-PositiveText { color:#3db47e; } .ColorScheme-NegativeText { color:#dd4747; }
  </style>
  </defs>
  <path
     style="fill:currentColor"
     class="ColorScheme-Text"
     d="M 11.547,3 9,10 h 1 l 0.728,-2 h 2.543 L 14,10 h 1 L 12.453,3 Z M 12,4.5 12.908,7 H 11.092 Z M 9,3 V 4 H 5 V 3 Z M 2.5557699,3.2961534 3,3.4928978 V 6.4917181 L 2.6088239,6.7392159 v 0 L 0.38539847,5.2569323 v 0 L 0.43091422,4.7127239 Z M 8,6 V 7 H 5 V 6 Z M 7,9 v 1 H 5 V 9 Z M 3,9.5205869 v 0 2.9592721 l -0.3736544,0.271038 v 0 L 0.31510205,11.210068 v 0 L 0.39333378,10.737777 2.5763213,9.2824525 Z M 15,12 v 1 H 5 v -1 z"
     id="path2777633"
     sodipodi:nodetypes="ccccccccccccccccccccccccccccccccccccccccccccccccccccc" />
</svg>
