<?xml version="1.0" encoding="UTF-8" standalone="no"?>
<svg
   width="16"
   height="16"
   version="1.1"
   id="svg2603454"
   sodipodi:docname="format-text-direction-vertical-lr.svg"
   inkscape:version="1.1.2 (0a00cf5339, 2022-02-04)"
   xmlns:inkscape="http://www.inkscape.org/namespaces/inkscape"
   xmlns:sodipodi="http://sodipodi.sourceforge.net/DTD/sodipodi-0.dtd"
   xmlns="http://www.w3.org/2000/svg"
   xmlns:svg="http://www.w3.org/2000/svg">
  <sodipodi:namedview
     id="namedview2603456"
     pagecolor="#000000"
     bordercolor="#666666"
     borderopacity="1.0"
     inkscape:pageshadow="2"
     inkscape:pageopacity="0"
     inkscape:pagecheckerboard="0"
     showgrid="false"
     inkscape:zoom="51.6875"
     inkscape:cx="7.9903265"
     inkscape:cy="8"
     inkscape:window-width="1920"
     inkscape:window-height="1051"
     inkscape:window-x="0"
     inkscape:window-y="29"
     inkscape:window-maximized="1"
     inkscape:current-layer="svg2603454" />
  <defs
     id="defs2603450">
    <style
       id="current-color-scheme"
       type="text/css">
   .ColorScheme-Text { color:#eeeeec; } .ColorScheme-Highlight { color:#367bf0; } .ColorScheme-NeutralText { color:#ffcc44; } .ColorScheme-PositiveText { color:#3db47e; } .ColorScheme-NegativeText { color:#dd4747; }
  </style>
  </defs>
  <path
     style="fill:currentColor"
     class="ColorScheme-Text"
     d="m 1,2 v 9 H 2 V 2 Z m 3,0 v 9 H 5 V 2 Z m 5,8 v 1 h 1 v -1 z m 3,0 v 1 h 1 v -1 z m -2.5389491,2 -0.2132238,0.371741 1.5357299,2.303595 v 0 l 0.422766,0.01518 1.530591,-2.295887 v 0 L 12.522077,12 Z m -8.0621611,0 -0.1852452,0.320467 1.5480634,2.322095 0.4591799,0.02611 v 0 L 4.7461637,12.380754 4.6340524,12 v 0 z M 10.547,2 8,9 H 9 L 9.728,7 h 2.543 L 13,9 h 1 L 11.453,2 Z M 11,3.5 11.908,6 h -1.816 z"
     id="path2603452"
     sodipodi:nodetypes="ccccccccccccccccccccccccccccccccccccccccccccccccccccc" />
</svg>
