<?xml version="1.0" encoding="UTF-8" standalone="no"?>
<svg
   width="16"
   height="16"
   version="1.1"
   id="svg7"
   sodipodi:docname="format-text-direction-ltr.svg"
   inkscape:version="1.1.2 (0a00cf5339, 2022-02-04)"
   xmlns:inkscape="http://www.inkscape.org/namespaces/inkscape"
   xmlns:sodipodi="http://sodipodi.sourceforge.net/DTD/sodipodi-0.dtd"
   xmlns="http://www.w3.org/2000/svg"
   xmlns:svg="http://www.w3.org/2000/svg">
  <sodipodi:namedview
     id="namedview9"
     pagecolor="#000000"
     bordercolor="#666666"
     borderopacity="1.0"
     inkscape:pageshadow="2"
     inkscape:pageopacity="0"
     inkscape:pagecheckerboard="0"
     showgrid="false"
     inkscape:zoom="51.6875"
     inkscape:cx="8"
     inkscape:cy="8"
     inkscape:window-width="1089"
     inkscape:window-height="1043"
     inkscape:window-x="794"
     inkscape:window-y="32"
     inkscape:window-maximized="1"
     inkscape:current-layer="svg7" />
  <defs
     id="defs3">
    <style
       id="current-color-scheme"
       type="text/css">
   .ColorScheme-Text { color:#eeeeec; } .ColorScheme-Highlight { color:#367bf0; } .ColorScheme-NeutralText { color:#ffcc44; } .ColorScheme-PositiveText { color:#3db47e; } .ColorScheme-NegativeText { color:#dd4747; }
  </style>
  </defs>
  <path
     style="fill:currentColor"
     class="ColorScheme-Text"
     d="M 2,0 V 2 H 8 C 8,2 9,2 9,3 V 4 H 4 C 1,4 1,7 1,7 c 0,0 0,3 3,3 h 7 V 3 C 11,0 8,0 8,0 Z M 4,6 H 9 V 8 H 4 C 3,8 3,7 3,7 3,7 3,6 4,6 Z m 8,3.3928863 v 0 V 11 H 1 v 2 h 11 v 1.581031 0 l 0.333347,0.168958 3.426059,-2.569543 v 0 l -0.04677,-0.395965 -3.433524,-2.5751435 z"
     id="path5"
     sodipodi:nodetypes="cccscscscsccsccscscccccccccccccc" />
</svg>
