<?xml version="1.0" encoding="UTF-8" standalone="no"?>
<svg
   width="16"
   height="16"
   viewBox="0 0 16 16"
   version="1.1"
   id="svg7"
   sodipodi:docname="draw-brush.svg"
   inkscape:version="1.1.2 (0a00cf5339, 2022-02-04)"
   xmlns:inkscape="http://www.inkscape.org/namespaces/inkscape"
   xmlns:sodipodi="http://sodipodi.sourceforge.net/DTD/sodipodi-0.dtd"
   xmlns="http://www.w3.org/2000/svg"
   xmlns:svg="http://www.w3.org/2000/svg">
  <sodipodi:namedview
     id="namedview9"
     pagecolor="#ffffff"
     bordercolor="#666666"
     borderopacity="1.0"
     inkscape:pageshadow="2"
     inkscape:pageopacity="0.0"
     inkscape:pagecheckerboard="0"
     showgrid="false"
     inkscape:zoom="47.25"
     inkscape:cx="8"
     inkscape:cy="8"
     inkscape:window-width="1880"
     inkscape:window-height="966"
     inkscape:window-x="0"
     inkscape:window-y="29"
     inkscape:window-maximized="1"
     inkscape:current-layer="svg7" />
  <defs
     id="defs3">
    <style
       id="current-color-scheme"
       type="text/css">
   .ColorScheme-Text { color:#eeeeec; } .ColorScheme-Highlight { color:#367bf0; } .ColorScheme-NeutralText { color:#ffcc44; } .ColorScheme-PositiveText { color:#3db47e; } .ColorScheme-NegativeText { color:#dd4747; }
  </style>
  </defs>
  <path
     style="fill:currentColor"
     class="ColorScheme-Text"
     d="M 14.574219,1.0058594 C 13.520146,0.87298937 10.770478,2.75775 8.0605469,5.46875 6.8520776,6.67795 5.8032796,7.8729 5,9 c 0.9414561,0.29995 1.7002076,1.0582 2,2 1.1266713,-0.80351 2.3243336,-1.8477406 3.533203,-3.0566406 3.074522,-3.0758 5.01306,-6.1228407 4.330078,-6.8066406 -0.0702,-0.0707 -0.165975,-0.1150694 -0.289062,-0.1308594 z M 4.5,10.330078 v 0.002 c -3.2890385,0.881735 -1.1690692,2.892164 -3.0803971,4.387308 -0.1224843,0.09581 0.2255118,0.177897 0.067433,0.269046 0.1662954,0 -0.158395,0.0077 0,0 C 4.662182,14.83484 6.25,13.192675 6.25,12.080078 c 0,-0.58228 0.059355,-1.6531 -1.75,-1.75 z"
     id="path5"
     sodipodi:nodetypes="cccccccccscssc" />
</svg>
