<?xml version="1.0" encoding="UTF-8" standalone="no"?>
<svg
   width="16"
   height="16"
   viewBox="0 0 16 16"
   version="1.1"
   id="svg895130"
   sodipodi:docname="go-jump-declaration.svg"
   inkscape:version="1.1.2 (0a00cf5339, 2022-02-04)"
   xmlns:inkscape="http://www.inkscape.org/namespaces/inkscape"
   xmlns:sodipodi="http://sodipodi.sourceforge.net/DTD/sodipodi-0.dtd"
   xmlns="http://www.w3.org/2000/svg"
   xmlns:svg="http://www.w3.org/2000/svg">
  <sodipodi:namedview
     id="namedview895132"
     pagecolor="#000000"
     bordercolor="#666666"
     borderopacity="1.0"
     inkscape:pageshadow="2"
     inkscape:pageopacity="0"
     inkscape:pagecheckerboard="0"
     showgrid="false"
     inkscape:zoom="51.6875"
     inkscape:cx="8.0096735"
     inkscape:cy="8"
     inkscape:window-width="1920"
     inkscape:window-height="1051"
     inkscape:window-x="0"
     inkscape:window-y="29"
     inkscape:window-maximized="1"
     inkscape:current-layer="svg895130" />
  <defs
     id="defs895126">
    <style
       id="current-color-scheme"
       type="text/css">
   .ColorScheme-Text { color:#eeeeec; } .ColorScheme-Highlight { color:#367bf0; } .ColorScheme-NeutralText { color:#ffcc44; } .ColorScheme-PositiveText { color:#3db47e; } .ColorScheme-NegativeText { color:#dd4747; }
  </style>
  </defs>
  <path
     style="fill:currentColor"
     class="ColorScheme-Text"
     d="M 1,1.0039062 V 15.003906 H 3 V 7.0039062 h 6 v -5 H 3.1388325 v 0 L 3,1.8635738 V 1.0039062 Z m 11.836318,1.1636821 v 0 L 12,3.0039062 11.146335,3.8575709 v 0 l 0.0038,0.2964871 1.700551,1.7005517 L 13,5.8420939 v 0 -0.8483618 0 c 0.07471,0.112929 0.145868,-0.04658 0.213249,0.071304 C 13.708636,5.9317182 14,6.9287746 14,8.0039062 14,11.327823 11.323917,13.003906 8,13.003906 v 1 c 3.877903,0 7,-2.122097 7,-5.9999998 C 15,6.094854 14.231969,4.3799623 13,3.1210938 V 2.2448013 Z"
     id="path895128"
     sodipodi:nodetypes="ccccccccccccccccccccccssccsccc" />
</svg>
