<?xml version="1.0" encoding="UTF-8" standalone="no"?>
<svg
   width="16"
   height="16"
   version="1.1"
   id="svg818526"
   sodipodi:docname="go-previous-context.svg"
   inkscape:version="1.1.2 (0a00cf5339, 2022-02-04)"
   xmlns:inkscape="http://www.inkscape.org/namespaces/inkscape"
   xmlns:sodipodi="http://sodipodi.sourceforge.net/DTD/sodipodi-0.dtd"
   xmlns="http://www.w3.org/2000/svg"
   xmlns:svg="http://www.w3.org/2000/svg">
  <sodipodi:namedview
     id="namedview818528"
     pagecolor="#000000"
     bordercolor="#666666"
     borderopacity="1.0"
     inkscape:pageshadow="2"
     inkscape:pageopacity="0"
     inkscape:pagecheckerboard="0"
     showgrid="false"
     inkscape:zoom="51.6875"
     inkscape:cx="8.0096735"
     inkscape:cy="8"
     inkscape:window-width="1920"
     inkscape:window-height="1051"
     inkscape:window-x="0"
     inkscape:window-y="29"
     inkscape:window-maximized="1"
     inkscape:current-layer="svg818526" />
  <defs
     id="defs818522">
    <style
       id="current-color-scheme"
       type="text/css">
   .ColorScheme-Text { color:#eeeeec; } .ColorScheme-Highlight { color:#367bf0; } .ColorScheme-NeutralText { color:#ffcc44; } .ColorScheme-PositiveText { color:#3db47e; } .ColorScheme-NegativeText { color:#dd4747; }
  </style>
  </defs>
  <path
     style="fill:currentColor"
     class="ColorScheme-Text"
     d="m 15.824616,2.413948 v 0 11.050439 L 15.437781,14 v 0 H 5.988414 L 5.70564,13.881024 v 0 L 0,8.1753839 v 0 L 0.044079,7.7805368 5.687699,2.136917 v 0 L 5.9991692,2 h 9.5048058 z m -4,1.586052 h -1 v 1 h 1 c 1,0 1,1 1,1 v 1 c 0,0 0,0.5784 0.375,1 -0.375,0.4216 -0.375,1 -0.375,1 v 1 c 0,0 0,1 -1,1 h -1 v 1 h 1 c 2,0 2,-2 2,-2 V 9 c 0,-0.5 0.5,-0.5 0.5,-0.5 h 0.5 v -1 h -0.5 c 0,0 -0.5,0 -0.5,-0.5 V 6 c 0,0 0,-2 -2,-2 z m -2,0 h -1 c -2,0 -2,2 -2,2 v 1 c 0,0.5 -0.5,0.5 -0.5,0.5 h -0.5 v 1 h 0.5 c 0,0 0.5,0 0.5,0.5 v 1 c 0,0 0,2 2,2 h 1 v -1 h -1 c -1,0 -1,-1 -1,-1 V 9 c 0,0 0,-0.5784 -0.375,-1 0.375,-0.4216 0.375,-1 0.375,-1 V 6 c 0,0 0,-1 1,-1 h 1 z"
     id="path818524"
     sodipodi:nodetypes="ccccccccccccccccsccscccccsccscsccccscscscsccccscsccscccccscc" />
</svg>
