<?xml version="1.0" encoding="UTF-8" standalone="no"?>
<svg
   width="16"
   height="16"
   version="1.1"
   id="svg72359"
   sodipodi:docname="group-edit.svg"
   inkscape:version="1.1.2 (0a00cf5339, 2022-02-04)"
   xmlns:inkscape="http://www.inkscape.org/namespaces/inkscape"
   xmlns:sodipodi="http://sodipodi.sourceforge.net/DTD/sodipodi-0.dtd"
   xmlns="http://www.w3.org/2000/svg"
   xmlns:svg="http://www.w3.org/2000/svg">
  <sodipodi:namedview
     id="namedview72361"
     pagecolor="#000000"
     bordercolor="#666666"
     borderopacity="1.0"
     inkscape:pageshadow="2"
     inkscape:pageopacity="0"
     inkscape:pagecheckerboard="0"
     showgrid="false"
     inkscape:zoom="51.6875"
     inkscape:cx="8.0096735"
     inkscape:cy="8"
     inkscape:window-width="1920"
     inkscape:window-height="1051"
     inkscape:window-x="0"
     inkscape:window-y="29"
     inkscape:window-maximized="1"
     inkscape:current-layer="svg72359" />
  <defs
     id="defs72353">
    <style
       id="current-color-scheme"
       type="text/css">
   .ColorScheme-Text { color:#eeeeec; } .ColorScheme-Highlight { color:#367bf0; } .ColorScheme-NeutralText { color:#ffcc44; } .ColorScheme-PositiveText { color:#3db47e; } .ColorScheme-NegativeText { color:#dd4747; }
  </style>
  </defs>
  <path
     style="fill:currentColor"
     class="ColorScheme-Text"
     d="M 2,2 C 2,2 1,2 1,3 v 11 c 0,0 0,1 1,1 H 8.7878191 L 9,14.819115 v 0 -1.979578 L 9.1461469,12.43985 v 0 l 4.5517441,-4.5518342 0.144697,-0.1447004 -0.144697,0.1447004 0.386637,-0.1104896 0.124737,0.017638 0.44556,0.4455607 L 15,8.3342843 v 0 0 V 5 C 15,4 14,4 14,4 H 9 L 7,2 Z"
     id="path72355"
     sodipodi:nodetypes="cscscccccccccccccccscccc" />
  <path
     style="fill:currentColor"
     class="ColorScheme-Text"
     d="M 14.162667,9.1626673 13.871896,9.1281045 10.123267,12.876733 10,13.176099 v 0 1.589868 l 0.238289,0.23051 v 0 L 12,15 15.777432,11.222568 v 0 l 0.04177,-0.40337 z"
     id="path72357"
     sodipodi:nodetypes="ccccccccccccc" />
</svg>
