<?xml version="1.0" encoding="UTF-8" standalone="no"?>
<svg
   viewBox="0 0 22 22"
   version="1.1"
   id="svg6"
   sodipodi:docname="gtk-goto-last-ltr.svg"
   inkscape:version="1.1.2 (0a00cf5339, 2022-02-04)"
   xmlns:inkscape="http://www.inkscape.org/namespaces/inkscape"
   xmlns:sodipodi="http://sodipodi.sourceforge.net/DTD/sodipodi-0.dtd"
   xmlns="http://www.w3.org/2000/svg"
   xmlns:svg="http://www.w3.org/2000/svg">
  <sodipodi:namedview
     id="namedview8"
     pagecolor="#000000"
     bordercolor="#666666"
     borderopacity="1.0"
     inkscape:pageshadow="2"
     inkscape:pageopacity="0"
     inkscape:pagecheckerboard="0"
     showgrid="false"
     inkscape:zoom="37.590909"
     inkscape:cx="11.013301"
     inkscape:cy="11"
     inkscape:window-width="1920"
     inkscape:window-height="1051"
     inkscape:window-x="0"
     inkscape:window-y="29"
     inkscape:window-maximized="1"
     inkscape:current-layer="svg6" />
  <defs
     id="defs3051">
    <style
       type="text/css"
       id="current-color-scheme">
     .ColorScheme-Text {
       color:#f2f2f2;
     }
     </style>
  </defs>
  <path
     style="fill:currentColor;fill-opacity:1;stroke:none"
     d="m 4.500038,4.1251423 c 0.001,0.28675 0.1139,0.57299 0.33612,0.79102 l 5.852422,5.7386967 -0.0017,0.657952 v 0 l -5.807204,5.777171 c -0.44097,0.43901 -0.43851,1.14811 0.006,1.58399 0.44441,0.43599 1.16406,0.43357 1.60548,-0.006 l 6.93793,-6.9043 c 0.22058,-0.21952 0.3312,-0.50618 0.33019,-0.79297 -0.001,-0.28664 -0.1139,-0.57296 -0.33612,-0.79101 L 6.433798,3.3261723 c -0.44462,-0.43578 -1.16226,-0.43335 -1.6035,0.006 -0.22048,0.21952 -0.33127,0.50622 -0.33019,0.79297 z m 11.1177,0.11914 0.0336,13.5390597 c 0.002,0.39067 0.14404,0.7589 0.37961,0.98633 0.23577,0.22756 0.54249,0.29155 0.81856,0.16992 l 0.0217,-0.01 c 0.37905,-0.16703 0.63092,-0.63894 0.62874,-1.17383 l -0.0316,-13.5390597 c -0.002,-0.39047 -0.14365,-0.75824 -0.37962,-0.98633 -0.23579,-0.22766 -0.54241,-0.2916 -0.81856,-0.16992 l -0.0217,0.01 c -0.37921,0.16703 -0.6329,0.63894 -0.63073,1.17383 z"
     class="ColorScheme-Text"
     id="path4"
     sodipodi:nodetypes="cccccccccccccccccccccccccc" />
</svg>
