<?xml version="1.0" encoding="UTF-8" standalone="no"?>
<svg
   width="16"
   height="16"
   version="1.1"
   id="svg55"
   sodipodi:docname="document-save-as.svg"
   inkscape:version="1.1.2 (0a00cf5339, 2022-02-04)"
   xmlns:inkscape="http://www.inkscape.org/namespaces/inkscape"
   xmlns:sodipodi="http://sodipodi.sourceforge.net/DTD/sodipodi-0.dtd"
   xmlns="http://www.w3.org/2000/svg"
   xmlns:svg="http://www.w3.org/2000/svg">
  <sodipodi:namedview
     id="namedview57"
     pagecolor="#000000"
     bordercolor="#666666"
     borderopacity="1.0"
     inkscape:pageshadow="2"
     inkscape:pageopacity="0"
     inkscape:pagecheckerboard="0"
     showgrid="false"
     inkscape:zoom="52.5625"
     inkscape:cx="7.9904875"
     inkscape:cy="8"
     inkscape:window-width="1920"
     inkscape:window-height="1051"
     inkscape:window-x="0"
     inkscape:window-y="29"
     inkscape:window-maximized="1"
     inkscape:current-layer="svg55" />
  <defs
     id="defs51">
    <style
       id="current-color-scheme"
       type="text/css">
   .ColorScheme-Text { color:#ffffff; } .ColorScheme-Highlight { color:#4285f4; } .ColorScheme-NeutralText { color:#ff9800; } .ColorScheme-PositiveText { color:#4caf50; } .ColorScheme-NegativeText { color:#f44336; }
  </style>
  </defs>
  <path
     style="fill:currentColor"
     class="ColorScheme-Text"
     d="M 2,1 C 1.45,1 1,1.45 1,2 v 12 c 0,0.55 0.45,1 1,1 H 8 V 13 H 3 V 3 h 1 v 5 h 4 4 V 3 h 1 v 5 h 2 V 3 L 13,1 Z M 6,3 H 8 V 7 H 6 Z m 3.875,6 c 0,0 -0.875,2e-7 -0.875,1 v 5 c 0,1 0.875,1 0.875,1 h 5.25 c 0,0 0.875,0 0.875,-1 V 10 C 16,9.0000002 15.125,9 15.125,9 Z m 2.326932,1.034395 v 0 l 0.579886,0.0027 v 0 L 12.998435,10.218041 13,11 v 0 3 0 l 0.0016,0.740091 -0.175361,0.213126 v 0 l -0.630735,0.0208 v 0 L 12.020869,14.772189 12,14 v 0 -3 0 l -0.01091,-0.792549 z"
     id="path53"
     sodipodi:nodetypes="ssssccccccccccccccsccccccssccssccccccccccccccccccccccc" />
</svg>
