<?xml version="1.0" encoding="UTF-8" standalone="no"?>
<svg
   width="16"
   height="16"
   version="1.1"
   viewBox="0 0 16 16"
   id="svg72008"
   sodipodi:docname="akonadi-phone-home.svg"
   inkscape:version="1.1.2 (0a00cf5339, 2022-02-04)"
   xmlns:inkscape="http://www.inkscape.org/namespaces/inkscape"
   xmlns:sodipodi="http://sodipodi.sourceforge.net/DTD/sodipodi-0.dtd"
   xmlns="http://www.w3.org/2000/svg"
   xmlns:svg="http://www.w3.org/2000/svg">
  <sodipodi:namedview
     id="namedview72010"
     pagecolor="#000000"
     bordercolor="#666666"
     borderopacity="1.0"
     inkscape:pageshadow="2"
     inkscape:pageopacity="0"
     inkscape:pagecheckerboard="true"
     showgrid="false"
     inkscape:zoom="51.6875"
     inkscape:cx="7.9903265"
     inkscape:cy="8"
     inkscape:window-width="1920"
     inkscape:window-height="1051"
     inkscape:window-x="0"
     inkscape:window-y="29"
     inkscape:window-maximized="1"
     inkscape:current-layer="svg72008" />
  <defs
     id="defs72004">
    <style
       id="current-color-scheme"
       type="text/css">
   .ColorScheme-Text { color:#ffffff; } .ColorScheme-Highlight { color:#4285f4; } .ColorScheme-NeutralText { color:#ff9800; } .ColorScheme-PositiveText { color:#4caf50; } .ColorScheme-NegativeText { color:#f44336; }
  </style>
  </defs>
  <path
     style="fill:currentColor"
     class="ColorScheme-Text"
     d="M 8.3239636,1.3316436 7.7147232,1.2958731 0.52637949,8.7512203 0.5814839,9.077289 0.62426902,9.3304609 v 0 l 2.12514768,0.076377 v 0 L 3,9.7221095 v 4.8487725 0 l 0.2802018,0.427901 3.4867926,-0.01514 v 0 l 0.3411613,-0.431877 0.012837,-3.104059 0.3256431,-0.377102 v 0 l 1.2342362,-0.0017 v 0 l 0.2675951,0.329821 0.00268,3.118529 0.390407,0.51142 v 0 l 3.2984079,-0.02585 0.360647,-0.399873 v 0 L 13.008,9.7839309 13.31598,9.3160295 v 0 l 2.05517,-0.096549 0.107406,-0.1103435 -0.107406,0.1103435 0.107406,-0.1103435 -0.03371,-0.4878122 v 0 z"
     id="path72006"
     sodipodi:nodetypes="ccccccccccccccccccccccccccccccccccccc" />
</svg>
