<?xml version="1.0" encoding="UTF-8" standalone="no"?>
<svg
   width="16"
   height="16"
   version="1.1"
   viewBox="0 0 16 16"
   id="svg2415205"
   sodipodi:docname="gtk-color-picker.svg"
   inkscape:version="1.1.2 (0a00cf5339, 2022-02-04)"
   xmlns:inkscape="http://www.inkscape.org/namespaces/inkscape"
   xmlns:sodipodi="http://sodipodi.sourceforge.net/DTD/sodipodi-0.dtd"
   xmlns="http://www.w3.org/2000/svg"
   xmlns:svg="http://www.w3.org/2000/svg">
  <sodipodi:namedview
     id="namedview2415207"
     pagecolor="#000000"
     bordercolor="#666666"
     borderopacity="1.0"
     inkscape:pageshadow="2"
     inkscape:pageopacity="0"
     inkscape:pagecheckerboard="0"
     showgrid="false"
     inkscape:zoom="51.6875"
     inkscape:cx="7.9903265"
     inkscape:cy="8.0096735"
     inkscape:window-width="1880"
     inkscape:window-height="966"
     inkscape:window-x="0"
     inkscape:window-y="29"
     inkscape:window-maximized="1"
     inkscape:current-layer="svg2415205" />
  <defs
     id="defs2415201">
    <style
       id="current-color-scheme"
       type="text/css">
   .ColorScheme-Text { color:#eeeeec; } .ColorScheme-Highlight { color:#367bf0; } .ColorScheme-NeutralText { color:#ffcc44; } .ColorScheme-PositiveText { color:#3db47e; } .ColorScheme-NegativeText { color:#dd4747; }
  </style>
  </defs>
  <path
     style="fill:currentColor"
     class="ColorScheme-Text"
     d="m 13.456086,1.0006868 c -0.38886,0.011288 -0.758096,0.1736868 -1.029397,0.4526607 l -2.250863,2.252604 -0.2114378,-0.00874 v 0 0 L 8.3689247,2.1005035 7.9300506,2.0726891 v 0 L 6.9576625,3.0458296 v 0 l 0.00384,0.4713891 1.199434,1.200362 -7.0738187,7.0792913 -0.087118,0.220103 v 0 2.690833 0 0 l 0.2619421,0.292193 v 0 h 2.6908309 l 0.2766544,-0.114037 v 0 l 7.0450388,-7.0504911 1.223373,1.2226605 v 0 l 0.437694,-0.00711 1.000958,-1.0017321 v 0 L 13.896053,7.6321406 12.31438,6.0508386 v 0 L 12.28744,5.8305449 14.543971,3.5722677 C 15.521581,2.6194252 14.82011,0.96132714 13.456086,1.0006868 Z M 8.9973154,5.5468049 10.408838,6.9594183 3.5325442,13.841031 2.1210229,12.428418 Z"
     id="path2415203"
     sodipodi:nodetypes="ccccccccccccccccccccccccccccccccccccccccc" />
</svg>
