<?xml version="1.0" encoding="UTF-8" standalone="no"?>
<svg
   width="16"
   height="16"
   viewBox="0 0 16 16"
   version="1.1"
   id="svg7"
   sodipodi:docname="help-donate.svg"
   inkscape:version="1.1.2 (0a00cf5339, 2022-02-04)"
   xmlns:inkscape="http://www.inkscape.org/namespaces/inkscape"
   xmlns:sodipodi="http://sodipodi.sourceforge.net/DTD/sodipodi-0.dtd"
   xmlns="http://www.w3.org/2000/svg"
   xmlns:svg="http://www.w3.org/2000/svg">
  <sodipodi:namedview
     id="namedview9"
     pagecolor="#000000"
     bordercolor="#666666"
     borderopacity="1.0"
     inkscape:pageshadow="2"
     inkscape:pageopacity="0"
     inkscape:pagecheckerboard="0"
     showgrid="false"
     inkscape:zoom="51.6875"
     inkscape:cx="7.9903265"
     inkscape:cy="8"
     inkscape:window-width="1920"
     inkscape:window-height="1051"
     inkscape:window-x="0"
     inkscape:window-y="29"
     inkscape:window-maximized="1"
     inkscape:current-layer="svg7" />
  <defs
     id="defs3">
    <style
       id="current-color-scheme"
       type="text/css">
   .ColorScheme-Text { color:#eeeeec; } .ColorScheme-Highlight { color:#367bf0; } .ColorScheme-NeutralText { color:#ffcc44; } .ColorScheme-PositiveText { color:#3db47e; } .ColorScheme-NegativeText { color:#dd4747; }
  </style>
  </defs>
  <path
     style="fill:currentColor"
     class="ColorScheme-Text"
     d="M 6,0.0390625 V 1.171875 c -0.9772,0.1418 -1.8092906,0.3971281 -2.4628906,0.7988281 -1.0105,0.6149 -1.515625,1.5580782 -1.515625,2.8300781 C 2.0168844,6.9960812 3.579,7.7194656 6,8.3847656 v 4.7666484 l -0.2403495,0.20335 c -0.080574,-0.0068 0.079676,0.008 0,0 C 4.6796861,13.246251 3.6773626,13.023011 2.6230469,12.572266 L 2,13.929688 c 0.5645,0.301 1.3272625,0.562156 2.2890625,0.785156 C 4.8332625,14.836844 5.4003,14.91475 6,14.96875 v 1.070312 h 3 v -1.117187 c 1.997,-0.285 3.979984,-1.203453 3.958984,-3.689453 C 12.888984,9.4037218 11.756,8.7248594 9,7.7558594 V 3.0185258 L 9.2472997,2.8384693 c 0.080886,0.010808 -0.083963,-0.01307 0,0 0.8536973,0.1328864 1.8638233,0.3911275 2.9773093,0.9466869 L 13,2.2421875 C 12.449,1.9466875 11.168516,1.4757813 10.353516,1.3007812 9.9195152,1.2081812 9.467,1.1451625 9,1.1015625 v -1.0625 z M 5.808447,2.8328745 6,3.0747053 V 6.5399257 L 5.8327535,6.7359924 c -0.055984,-0.01982 0.055479,0.020775 0,0 C 4.6723018,6.3014501 3.644478,5.6536564 3.6757812,4.6054688 3.6190938,3.6150547 4.578891,3.069512 5.808447,2.8328745 c 0.063173,-0.012158 -0.064496,0.010546 0,0 z m 3.5147701,6.5355914 c 0.1096858,0.038411 -0.1056208,-0.040629 0,0 1.1279049,0.4338745 1.9946889,1.0050951 1.9736579,1.9459871 -0.03533,1.264571 -0.935434,1.783103 -1.970568,1.992921 C 9.2187234,13.32918 9.1096814,13.028996 9,13.044624 v 0 L 9,9.524688 Z"
     id="path5"
     sodipodi:nodetypes="cccccccscccccccccccsccccccccccscsccscscccc" />
</svg>
