<?xml version="1.0" encoding="UTF-8" standalone="no"?>
<svg
   width="16"
   height="16"
   version="1.1"
   id="svg7"
   sodipodi:docname="hint.svg"
   inkscape:version="1.1.2 (0a00cf5339, 2022-02-04)"
   xmlns:inkscape="http://www.inkscape.org/namespaces/inkscape"
   xmlns:sodipodi="http://sodipodi.sourceforge.net/DTD/sodipodi-0.dtd"
   xmlns="http://www.w3.org/2000/svg"
   xmlns:svg="http://www.w3.org/2000/svg">
  <sodipodi:namedview
     id="namedview9"
     pagecolor="#ffffff"
     bordercolor="#666666"
     borderopacity="1.0"
     inkscape:pageshadow="2"
     inkscape:pageopacity="0.0"
     inkscape:pagecheckerboard="0"
     showgrid="false"
     inkscape:zoom="47.125"
     inkscape:cx="8"
     inkscape:cy="8"
     inkscape:window-width="1745"
     inkscape:window-height="966"
     inkscape:window-x="0"
     inkscape:window-y="29"
     inkscape:window-maximized="1"
     inkscape:current-layer="svg7" />
  <defs
     id="defs3">
    <style
       id="current-color-scheme"
       type="text/css">
   .ColorScheme-Text { color:#eeeeec; } .ColorScheme-Highlight { color:#367bf0; } .ColorScheme-NeutralText { color:#ffcc44; } .ColorScheme-PositiveText { color:#3db47e; } .ColorScheme-NegativeText { color:#dd4747; }
  </style>
  </defs>
  <path
     style="fill:currentColor"
     class="ColorScheme-Text"
     d="M 13.75,1 9.2203408,5.2586039 9.2633879,5.4866121 5.518273,9.231727 5.2665059,9.2379125 1,13.75 2.25,15 6.7999711,10.450029 10.502813,6.7471872 10.765996,6.8364132 15,2.25 Z M 8,3 C 2,3 0,8 0,8 c 0,0 2,5 8,5 6,0 8,-5 8,-5 0,0 -2,-5 -8,-5 z m 0,2 c 0.4345504,0 0.8475215,0.092392 1.2203408,0.2586039 0.6281327,0.2800365 1.9897112,1.2675752 1.4112722,1.6347593 -0.171177,0.1086609 0.10606,-0.1241964 0.134383,-0.05695 C 10.916699,7.1942194 11,7.5873817 11,8 11,9.6568542 9.6568542,11 8,11 7.5635408,11 7.1488508,10.90679 6.7747484,10.739201 c -0.057746,-0.02587 0.2333505,0 0.063083,-0.08286 C 6.2395054,10.365185 5.5424976,9.846377 5.2665059,9.2379125 5.0953229,8.8605142 5,8.4413891 5,8 5,6.3431458 6.3431458,5 8,5 Z"
     id="path5"
     sodipodi:nodetypes="ccccccccccccscscssssssssssss" />
</svg>
