<?xml version="1.0" encoding="UTF-8" standalone="no"?>
<svg
   width="16"
   height="16"
   viewBox="0 0 16 16"
   version="1.1"
   id="svg946308"
   sodipodi:docname="im-gadugadu.svg"
   inkscape:version="1.1.2 (0a00cf5339, 2022-02-04)"
   xmlns:inkscape="http://www.inkscape.org/namespaces/inkscape"
   xmlns:sodipodi="http://sodipodi.sourceforge.net/DTD/sodipodi-0.dtd"
   xmlns="http://www.w3.org/2000/svg"
   xmlns:svg="http://www.w3.org/2000/svg">
  <sodipodi:namedview
     id="namedview946310"
     pagecolor="#000000"
     bordercolor="#666666"
     borderopacity="1.0"
     inkscape:pageshadow="2"
     inkscape:pageopacity="0"
     inkscape:pagecheckerboard="0"
     showgrid="false"
     inkscape:zoom="51.6875"
     inkscape:cx="7.9903265"
     inkscape:cy="8"
     inkscape:window-width="1920"
     inkscape:window-height="1051"
     inkscape:window-x="0"
     inkscape:window-y="29"
     inkscape:window-maximized="1"
     inkscape:current-layer="svg946308" />
  <defs
     id="defs946304">
    <style
       id="current-color-scheme"
       type="text/css">
   .ColorScheme-Text { color:#eeeeec; } .ColorScheme-Highlight { color:#367bf0; } .ColorScheme-NeutralText { color:#ffcc44; } .ColorScheme-PositiveText { color:#3db47e; } .ColorScheme-NegativeText { color:#dd4747; }
  </style>
  </defs>
  <path
     style="fill:currentColor"
     class="ColorScheme-Text"
     d="M 8.1969443,0.55360574 7.8039923,0.55097291 6.8848,3.1348 C 6.3321,3.2613 5.8178,3.4804 5.3516,3.7734 L 2.8278319,2.5738592 v 0 L 2.5657722,2.8108174 3.7734,5.3516 C 3.4804,5.8178 3.2613,6.3321 3.1348,6.8848 L 0.37558942,7.8663847 v 0 L 0.41717218,8.1484083 3.1348,9.1152 c 0.1265,0.5527 0.3456,1.0668 0.6386,1.5328 l -1.2209467,2.568976 0.1420907,0.272258 v 0 L 5.3535,12.225 c 0.4659,0.292 0.9791,0.514 1.5313,0.64 l 0.9553397,2.685608 0.300489,0.05406 v 0 L 9.1152,12.865 c 0.5522,-0.126 1.0658,-0.348 1.5308,-0.64 l 2.579059,1.226124 0.23967,-0.197449 v 0 L 12.225,10.646 c 0.292,-0.465 0.514,-0.9786 0.64,-1.5308 l 2.669116,-0.9494732 v 0 L 15.420227,7.79376 12.865,6.8848 C 12.739,6.3326 12.517,5.8194 12.225,5.3535 l 1.171731,-2.4644016 v 0 L 13.213275,2.5542122 10.648,3.7734 C 10.182,3.4804 9.6679,3.2613 9.1152,3.1348 Z M 6,6 C 6.5522847,6 7,6.4477153 7,7 7,7.5522847 6.5522847,8 6,8 5.4477153,8 5,7.5522847 5,7 5,6.4477153 5.4477153,6 6,6 Z m 4,0 c 0.552285,0 1,0.4477153 1,1 0,0.5522847 -0.447715,1 -1,1 C 9.4477153,8 9,7.5522847 9,7 9,6.4477153 9.4477153,6 10,6 Z m 0.498,3.4961 c 0.479882,-0.00695 0.693015,0.600481 0.314,0.8949 0,0 -1.2948,1.105 -2.81,1.109 C 6.4916,11.504 5.1934,10.426 5.1934,10.426 4.6341033,10.021649 5.276529,9.1947308 5.8066,9.6367 5.8066,9.6367 7.01,10.503 8,10.5 8.9852,10.498 10.189,9.6094 10.189,9.6094 10.27627,9.537849 10.385166,9.4979181 10.498,9.4961 Z"
     id="path946306"
     sodipodi:nodetypes="ccccccccccccccccccccccccccccccccccccccccsssssssssscccccccc" />
</svg>
