<?xml version="1.0" encoding="UTF-8" standalone="no"?>
<svg
   width="16"
   height="16"
   version="1.1"
   id="svg815483"
   sodipodi:docname="im-invisible-user.svg"
   inkscape:version="1.1.2 (0a00cf5339, 2022-02-04)"
   xmlns:inkscape="http://www.inkscape.org/namespaces/inkscape"
   xmlns:sodipodi="http://sodipodi.sourceforge.net/DTD/sodipodi-0.dtd"
   xmlns="http://www.w3.org/2000/svg"
   xmlns:svg="http://www.w3.org/2000/svg">
  <sodipodi:namedview
     id="namedview815485"
     pagecolor="#000000"
     bordercolor="#666666"
     borderopacity="1.0"
     inkscape:pageshadow="2"
     inkscape:pageopacity="0"
     inkscape:pagecheckerboard="0"
     showgrid="false"
     inkscape:zoom="51.6875"
     inkscape:cx="7.9903265"
     inkscape:cy="8"
     inkscape:window-width="1920"
     inkscape:window-height="1051"
     inkscape:window-x="0"
     inkscape:window-y="29"
     inkscape:window-maximized="1"
     inkscape:current-layer="svg815483" />
  <defs
     id="defs815477">
    <style
       id="current-color-scheme"
       type="text/css">
   .ColorScheme-Text { color:#eeeeec; } .ColorScheme-Highlight { color:#367bf0; } .ColorScheme-NeutralText { color:#ffcc44; } .ColorScheme-PositiveText { color:#3db47e; } .ColorScheme-NegativeText { color:#dd4747; }
  </style>
  </defs>
  <path
     style="opacity:0.35;fill:currentColor"
     class="ColorScheme-Text"
     d="m 14.085878,10.414122 0.34439,0.01615 0.429648,0.429648 v 0 l -0.0044,0.284535 -2.70864,2.70864 -0.282455,0.01136 v 0 L 10.19442,12.19442 10.155262,11.844738 v 0 l 0.408737,-0.408737 v 0 l 0.405243,0.03324 L 12,12.5 Z M 12.5,9 C 10.567003,9 9,10.567003 9,12.5 9,14.432997 10.567003,16 12.5,16 14.432997,16 16,14.432997 16,12.5 16,10.567003 14.432997,9 12.5,9 Z"
     id="path815479"
     sodipodi:nodetypes="cccccccccccccccccsssss" />
  <path
     style="fill:currentColor"
     class="ColorScheme-Text"
     d="M 8,9 C 3.568,9 0,12.122 0,16 H 10 C 8.741,15 8,13.574 8,12 8,10.937 8.362,9.8505 9,9 Z M 8,0 A 4,4 0 0 0 4,4 4,4 0 0 0 8,8 4,4 0 0 0 12,4 4,4 0 0 0 8,0 Z"
     id="path815481" />
</svg>
