<?xml version="1.0" encoding="UTF-8" standalone="no"?>
<svg
   width="16"
   height="16"
   version="1.1"
   id="svg1015467"
   sodipodi:docname="im-twitter.svg"
   inkscape:version="1.1.2 (0a00cf5339, 2022-02-04)"
   xmlns:inkscape="http://www.inkscape.org/namespaces/inkscape"
   xmlns:sodipodi="http://sodipodi.sourceforge.net/DTD/sodipodi-0.dtd"
   xmlns="http://www.w3.org/2000/svg"
   xmlns:svg="http://www.w3.org/2000/svg">
  <sodipodi:namedview
     id="namedview1015469"
     pagecolor="#000000"
     bordercolor="#666666"
     borderopacity="1.0"
     inkscape:pageshadow="2"
     inkscape:pageopacity="0"
     inkscape:pagecheckerboard="0"
     showgrid="false"
     inkscape:zoom="51.6875"
     inkscape:cx="7.9903265"
     inkscape:cy="8"
     inkscape:window-width="1920"
     inkscape:window-height="1051"
     inkscape:window-x="0"
     inkscape:window-y="29"
     inkscape:window-maximized="1"
     inkscape:current-layer="svg1015467" />
  <defs
     id="defs1015463">
    <style
       id="current-color-scheme"
       type="text/css">
   .ColorScheme-Text { color:#eeeeec; } .ColorScheme-Highlight { color:#367bf0; } .ColorScheme-NeutralText { color:#ffcc44; } .ColorScheme-PositiveText { color:#3db47e; } .ColorScheme-NegativeText { color:#dd4747; }
  </style>
  </defs>
  <path
     style="fill:currentColor"
     class="ColorScheme-Text"
     d="M 11.078,1 C 9.2653,1 7.7949,2.5814 7.7949,4.5332 c 0,0.277 0.086,0.8066 0.086,0.8066 C 5.1526,5.1924 2.7324,3.7846 1.1133,1.6465 0.83072,2.1685 0.66992,2.7761 0.66992,3.4238 0.66992,4.65 1.2481,5.7315 2.1289,6.3652 1.5908,6.3469 1.0851,6.1885 0.64258,5.9238 v 0.043 c 0,1.7123 1.13112,3.1417 2.63282,3.4668 -0.2755,0.0808 -0.5659,0.123 -0.8652,0.123 -0.2116,0 -0.4168,-0.0213 -0.6172,-0.0625 0.4177,1.4039 1.6299,2.4249 3.0664,2.4529 -1.1235,0.948 -2.5383,1.514 -4.0762,1.514 -0.26495,0 0.038513,0.344711 -0.21829701,0.311711 0.18403738,0.127057 -0.11887647,-0.154835 0.0735917,-0.04153 C 1.9653797,14.512293 3.4121478,15 5.0312,15 11.069,15 14.371,9.6139 14.371,4.9434 c 0,-0.1533 -0.008,-0.4571 -0.008,-0.4571 0.476578,-0.3698302 1.147679,-1.1990776 1.461879,-1.6018633 0.109061,-0.1398087 -0.09406,-0.1286178 -0.09406,-0.1286178 0,0 0.164598,-0.05925 0,0 C 15.333013,2.8990154 14.584668,3.1524939 14.115,3.2129 14.601248,2.8992055 15.132758,2.0298621 15.394508,1.563218 15.49773,1.3791966 15.287225,1.3947863 15.287225,1.3947863 c 0,0 0.167115,-0.082276 0,0 C 14.85704,1.606581 14.013001,2.0010459 13.475,2.1152 12.876,1.4283 12.022,1 11.078,1 Z"
     id="path1015465"
     sodipodi:nodetypes="ssccsccscsccscssscscscscscs" />
</svg>
