<?xml version="1.0" encoding="UTF-8" standalone="no"?>
<svg
   width="16"
   height="16"
   version="1.1"
   id="svg7"
   sodipodi:docname="im-user-busy.svg"
   inkscape:version="1.1.2 (0a00cf5339, 2022-02-04)"
   xmlns:inkscape="http://www.inkscape.org/namespaces/inkscape"
   xmlns:sodipodi="http://sodipodi.sourceforge.net/DTD/sodipodi-0.dtd"
   xmlns="http://www.w3.org/2000/svg"
   xmlns:svg="http://www.w3.org/2000/svg">
  <sodipodi:namedview
     id="namedview9"
     pagecolor="#000000"
     bordercolor="#666666"
     borderopacity="1.0"
     inkscape:pageshadow="2"
     inkscape:pageopacity="0"
     inkscape:pagecheckerboard="0"
     showgrid="false"
     inkscape:zoom="47.25"
     inkscape:cx="8"
     inkscape:cy="8"
     inkscape:window-width="1880"
     inkscape:window-height="966"
     inkscape:window-x="0"
     inkscape:window-y="29"
     inkscape:window-maximized="1"
     inkscape:current-layer="svg7" />
  <defs
     id="defs3">
    <style
       id="current-color-scheme"
       type="text/css">
   .ColorScheme-Text { color:#eeeeec; } .ColorScheme-Highlight { color:#367bf0; } .ColorScheme-NeutralText { color:#ffcc44; } .ColorScheme-PositiveText { color:#3db47e; } .ColorScheme-NegativeText { color:#dd4747; }
  </style>
  </defs>
  <path
     style="fill:currentColor"
     class="ColorScheme-Text"
     d="M 8,9 C 3.568,9 0,12.122 0,16 h 9.5915967 l 0.1437856,-0.22325 c -0.090936,-0.07223 0.085448,0.07657 0,0 C 8.6378224,14.793231 8,13.460312 8,12 8,11.036571 8.2973595,10.053838 8.8280522,9.2449963 8.8828994,9.1614024 8.6642709,9.0796659 8.724032,9 V 9 Z M 8,0 C 5.790861,0 4,1.790861 4,4 4,6.209139 5.790861,8 8,8 10.209139,8 12,6.209139 12,4 12,1.790861 10.209139,0 8,0 Z M 12,10.26933 12.258037,10 h 0.465655 L 13,10.311743 v 0 1.396769 L 13.253095,12 v 0 h 1.438856 L 15,12.258608 v 0 0.423175 L 14.691951,13 v 0 h -2.433914 v 0 L 12,12.681783 Z M 12.5,9 C 10.567003,9 9,10.567003 9,12.5 9,14.432997 10.567003,16 12.5,16 14.432997,16 16,14.432997 16,12.5 16,10.567003 14.432997,9 12.5,9 Z"
     id="path5"
     sodipodi:nodetypes="scccsssccsssssscccccccccccccccccccsssss" />
</svg>
