<?xml version="1.0" encoding="UTF-8" standalone="no"?>
<svg
   width="16"
   height="16"
   version="1.1"
   id="svg7"
   sodipodi:docname="im-yahoo.svg"
   inkscape:version="1.1.2 (0a00cf5339, 2022-02-04)"
   xmlns:inkscape="http://www.inkscape.org/namespaces/inkscape"
   xmlns:sodipodi="http://sodipodi.sourceforge.net/DTD/sodipodi-0.dtd"
   xmlns="http://www.w3.org/2000/svg"
   xmlns:svg="http://www.w3.org/2000/svg">
  <sodipodi:namedview
     id="namedview9"
     pagecolor="#000000"
     bordercolor="#666666"
     borderopacity="1.0"
     inkscape:pageshadow="2"
     inkscape:pageopacity="0"
     inkscape:pagecheckerboard="0"
     showgrid="false"
     inkscape:zoom="51.6875"
     inkscape:cx="8.0096735"
     inkscape:cy="8"
     inkscape:window-width="1920"
     inkscape:window-height="1051"
     inkscape:window-x="0"
     inkscape:window-y="29"
     inkscape:window-maximized="1"
     inkscape:current-layer="svg7" />
  <defs
     id="defs3">
    <style
       id="current-color-scheme"
       type="text/css">
   .ColorScheme-Text { color:#eeeeec; } .ColorScheme-Highlight { color:#367bf0; } .ColorScheme-NeutralText { color:#ffcc44; } .ColorScheme-PositiveText { color:#3db47e; } .ColorScheme-NegativeText { color:#dd4747; }
  </style>
  </defs>
  <path
     style="fill:currentColor"
     class="ColorScheme-Text"
     d="m 12.287672,0.19516394 v 0 L 9.4171868,6.7605596 9.6379362,7 V 7 H 12.421631 V 7 L 12.852298,6.734306 15.663372,0.3121389 15.542094,0 v 0 h -2.96052 z M 6.9,4 5.1339758,8.3569677 v 0 L 4.8678475,8.3571187 3.125,4 H 0 l 3.3609142,7.820801 v 0 L 3.3583853,12.365623 2.2285,15 H 5.3008 L 9.9453,4.0078 Z M 10,8 c -1.1046,0 -2,0.8954 -2,2 0,1.105 0.8954,2 2,2 1.105,0 2,-0.895 2,-2 0,-1.1046 -0.895,-2 -2,-2 z"
     id="path5"
     sodipodi:nodetypes="ccccccccccccccccccccccccccsssss" />
</svg>
