<?xml version="1.0" encoding="UTF-8" standalone="no"?>
<svg
   width="16"
   height="16"
   version="1.1"
   id="svg1973944"
   sodipodi:docname="insert-link.svg"
   inkscape:version="1.1.2 (0a00cf5339, 2022-02-04)"
   xmlns:inkscape="http://www.inkscape.org/namespaces/inkscape"
   xmlns:sodipodi="http://sodipodi.sourceforge.net/DTD/sodipodi-0.dtd"
   xmlns="http://www.w3.org/2000/svg"
   xmlns:svg="http://www.w3.org/2000/svg">
  <sodipodi:namedview
     id="namedview1973946"
     pagecolor="#000000"
     bordercolor="#666666"
     borderopacity="1.0"
     inkscape:pageshadow="2"
     inkscape:pageopacity="0"
     inkscape:pagecheckerboard="0"
     showgrid="false"
     inkscape:zoom="51.6875"
     inkscape:cx="7.9903265"
     inkscape:cy="8"
     inkscape:window-width="1920"
     inkscape:window-height="1051"
     inkscape:window-x="0"
     inkscape:window-y="29"
     inkscape:window-maximized="1"
     inkscape:current-layer="svg1973944" />
  <defs
     id="defs1973940">
    <style
       id="current-color-scheme"
       type="text/css">
   .ColorScheme-Text { color:#eeeeec; } .ColorScheme-Highlight { color:#367bf0; } .ColorScheme-NeutralText { color:#ffcc44; } .ColorScheme-PositiveText { color:#3db47e; } .ColorScheme-NegativeText { color:#dd4747; }
  </style>
  </defs>
  <path
     style="fill:currentColor"
     class="ColorScheme-Text"
     d="M 5,0 C 2.23,0 0,2.23 0,5 0,7.77 2.23,10 5,10 H 7 V 8 H 5 C 3.338,8 2,6.662 2,5 2,3.338 3.338,2 5,2 H 7 V 0 Z m 4,0 v 2 h 2 c 1.662,0 3,1.338 3,3 0,1.662 -1.338,3 -3,3 H 9 v 2 h 2 C 13.77,10 16,7.77 16,5 16,2.23 13.77,0 11,0 Z M 5,4 v 2 h 6 V 4 Z m 0.2991817,8.398909 v 0 l 2.4705947,3.294126 v 0 L 8.260157,15.653124 10.750978,12.332029 10.596256,12 v 0 H 5.4595075 Z"
     id="path1973942"
     sodipodi:nodetypes="sssccsssccsccsssccssscccccccccccccccc" />
</svg>
