<?xml version="1.0" encoding="UTF-8" standalone="no"?>
<svg
   width="16"
   height="16"
   version="1.1"
   id="svg67573"
   sodipodi:docname="kdenlive-show-audiothumb.svg"
   inkscape:version="1.1.2 (0a00cf5339, 2022-02-04)"
   xmlns:inkscape="http://www.inkscape.org/namespaces/inkscape"
   xmlns:sodipodi="http://sodipodi.sourceforge.net/DTD/sodipodi-0.dtd"
   xmlns="http://www.w3.org/2000/svg"
   xmlns:svg="http://www.w3.org/2000/svg">
  <sodipodi:namedview
     id="namedview67575"
     pagecolor="#000000"
     bordercolor="#666666"
     borderopacity="1.0"
     inkscape:pageshadow="2"
     inkscape:pageopacity="0"
     inkscape:pagecheckerboard="0"
     showgrid="false"
     inkscape:zoom="51.6875"
     inkscape:cx="7.9903265"
     inkscape:cy="8"
     inkscape:window-width="1920"
     inkscape:window-height="1051"
     inkscape:window-x="0"
     inkscape:window-y="29"
     inkscape:window-maximized="1"
     inkscape:current-layer="svg67573" />
  <defs
     id="defs67569">
    <style
       id="current-color-scheme"
       type="text/css">
   .ColorScheme-Text { color:#eeeeec; } .ColorScheme-Highlight { color:#367bf0; } .ColorScheme-NeutralText { color:#ffcc44; } .ColorScheme-PositiveText { color:#3db47e; } .ColorScheme-NegativeText { color:#dd4747; }
  </style>
  </defs>
  <path
     style="fill:currentColor"
     class="ColorScheme-Text"
     d="m 6,3.4409634 v 0 3.7006075 0 L 5.8865945,7.2029006 4.0055591,5.7731282 3.7695,5.9462176 v 0 V 7.3887 L 0,7.2012 V 8.7988 L 3.7695,8.6113 v 1.454227 l 0.232663,0.163657 v 0 L 5.870861,8.809041 v 0 L 6,8.8565906 v 3.6378154 l 0.2661387,0.17786 v 0 L 9.4687,8.7285 v 0.918622 l 0.1859926,0.100531 v 0 L 11.676,8.2148 v 2.968123 l 0.188927,0.152601 v 0 L 13.748,8.5898 v 0.7015309 0 l 0.18169,0.1217571 1.916701,-1.3082425 v 0 L 15.826122,7.8813199 13.980111,6.6213269 13.748,6.7120209 v 0 V 7.4102 L 11.929958,4.7590349 11.676,4.8246999 v 0 V 7.7852 L 9.6408581,6.2418556 9.4687,6.3372677 v 0 V 7.2715 L 6.30689,3.3779169 Z"
     id="path67571"
     sodipodi:nodetypes="cccccccccccccccccccccccccccccccccccccccccccccccccc" />
</svg>
