<?xml version="1.0" encoding="UTF-8" standalone="no"?>
<svg
   width="16"
   height="16"
   version="1.1"
   id="svg993582"
   sodipodi:docname="im-irc.svg"
   inkscape:version="1.1.2 (0a00cf5339, 2022-02-04)"
   xmlns:inkscape="http://www.inkscape.org/namespaces/inkscape"
   xmlns:sodipodi="http://sodipodi.sourceforge.net/DTD/sodipodi-0.dtd"
   xmlns="http://www.w3.org/2000/svg"
   xmlns:svg="http://www.w3.org/2000/svg">
  <sodipodi:namedview
     id="namedview993584"
     pagecolor="#000000"
     bordercolor="#666666"
     borderopacity="1.0"
     inkscape:pageshadow="2"
     inkscape:pageopacity="0"
     inkscape:pagecheckerboard="0"
     showgrid="false"
     inkscape:zoom="51.6875"
     inkscape:cx="7.9903265"
     inkscape:cy="8"
     inkscape:window-width="1920"
     inkscape:window-height="1051"
     inkscape:window-x="0"
     inkscape:window-y="29"
     inkscape:window-maximized="1"
     inkscape:current-layer="svg993582" />
  <defs
     id="defs993576">
    <style
       id="current-color-scheme"
       type="text/css">
   .ColorScheme-Text { color:#eeeeec; } .ColorScheme-Highlight { color:#367bf0; } .ColorScheme-NeutralText { color:#ffcc44; } .ColorScheme-PositiveText { color:#3db47e; } .ColorScheme-NegativeText { color:#dd4747; }
  </style>
  </defs>
  <path
     style="fill:currentColor"
     class="ColorScheme-Text"
     d="M 5,6 C 5,6 4,6 4,7 v 5 c 0,1 1,1 1,1 h 4 l 1.216466,1.621954 0.542898,0.03223 v 0 L 12,13 h 1 c 0,0 1,0 1,-1 V 7 C 14,6 13,6 13,6 Z"
     id="path993578"
     sodipodi:nodetypes="csscccccccsscc" />
  <path
     style="fill:currentColor;opacity:.35"
     class="ColorScheme-Text"
     d="M 3 2 C 3 2 2 2 2 3 L 2 8 C 2 9 3 9 3 9 L 3 6 C 3 5 4 5 4 5 L 12 5 L 12 3 C 12 2 11 2 11 2 L 3 2 z"
     id="path993580" />
</svg>
