<?xml version="1.0" encoding="UTF-8" standalone="no"?>
<svg
   width="16"
   height="16"
   version="1.1"
   id="svg1073465"
   sodipodi:docname="kmouth-phresebook-new.svg"
   inkscape:version="1.1.2 (0a00cf5339, 2022-02-04)"
   xmlns:inkscape="http://www.inkscape.org/namespaces/inkscape"
   xmlns:sodipodi="http://sodipodi.sourceforge.net/DTD/sodipodi-0.dtd"
   xmlns="http://www.w3.org/2000/svg"
   xmlns:svg="http://www.w3.org/2000/svg">
  <sodipodi:namedview
     id="namedview1073467"
     pagecolor="#000000"
     bordercolor="#666666"
     borderopacity="1.0"
     inkscape:pageshadow="2"
     inkscape:pageopacity="0"
     inkscape:pagecheckerboard="0"
     showgrid="false"
     inkscape:zoom="51.6875"
     inkscape:cx="7.9903265"
     inkscape:cy="8"
     inkscape:window-width="1920"
     inkscape:window-height="1051"
     inkscape:window-x="0"
     inkscape:window-y="29"
     inkscape:window-maximized="1"
     inkscape:current-layer="svg1073465" />
  <defs
     id="defs1073459">
    <style
       id="current-color-scheme"
       type="text/css">
   .ColorScheme-Text { color:#eeeeec; } .ColorScheme-Highlight { color:#367bf0; } .ColorScheme-NeutralText { color:#ffcc44; } .ColorScheme-PositiveText { color:#3db47e; } .ColorScheme-NegativeText { color:#dd4747; }
  </style>
  </defs>
  <path
     style="opacity:.35;fill:currentColor"
     class="ColorScheme-Text"
     d="M 3.5,2 C 3.5,2 2,2 2,3.5 V 7.5 C 2,9 3,9 3,9 V 6.5 C 3,5 4.5,5 4.5,5 H 12 V 3.5 C 12,2 10.5,2 10.5,2 Z"
     id="path1073461" />
  <path
     style="fill:currentColor"
     class="ColorScheme-Text"
     d="m 12.5,6 c 0,0 1.5,0 1.5,1.5 v 4 C 14,13 12.5,13 12.5,13 H 12 l -1.237757,1.650342 v 0 L 10.19992,14.599893 9,13 H 5.5 C 5.5,13 4,13 4,11.5 v -4 C 4,6 5.5,6 5.5,6 Z M 10,7 H 9 V 9 H 7 v 1 h 2 v 2 h 1 v -2 h 2 V 9 h -2 z"
     id="path1073463"
     sodipodi:nodetypes="csscccccccssccccccccccccccc" />
</svg>
