<?xml version="1.0" encoding="UTF-8" standalone="no"?>
<svg
   width="16"
   height="16"
   version="1.1"
   id="svg87401"
   sodipodi:docname="kr_setjumpback.svg"
   inkscape:version="1.1.2 (0a00cf5339, 2022-02-04)"
   xmlns:inkscape="http://www.inkscape.org/namespaces/inkscape"
   xmlns:sodipodi="http://sodipodi.sourceforge.net/DTD/sodipodi-0.dtd"
   xmlns="http://www.w3.org/2000/svg"
   xmlns:svg="http://www.w3.org/2000/svg">
  <sodipodi:namedview
     id="namedview87403"
     pagecolor="#000000"
     bordercolor="#666666"
     borderopacity="1.0"
     inkscape:pageshadow="2"
     inkscape:pageopacity="0"
     inkscape:pagecheckerboard="0"
     showgrid="false"
     inkscape:zoom="51.6875"
     inkscape:cx="7.9903265"
     inkscape:cy="8"
     inkscape:window-width="1920"
     inkscape:window-height="1051"
     inkscape:window-x="0"
     inkscape:window-y="29"
     inkscape:window-maximized="1"
     inkscape:current-layer="svg87401" />
  <defs
     id="defs87397">
    <style
       id="current-color-scheme"
       type="text/css">
   .ColorScheme-Text { color:#eeeeec; } .ColorScheme-Highlight { color:#367bf0; } .ColorScheme-NeutralText { color:#ffcc44; } .ColorScheme-PositiveText { color:#3db47e; } .ColorScheme-NegativeText { color:#dd4747; }
  </style>
  </defs>
  <path
     style="fill:currentColor"
     class="ColorScheme-Text"
     d="m 5,2 -3.4396428,0.8599107 -0.00387,0.2513866 v 0 L 6,4 9.6013791,3.0996552 v 0 L 9.5461543,2.9092309 Z M 13,2.3031807 12.843294,2.1567058 12,3 11,4 12.800736,5.8007361 13,5.7579672 v 0 -0.8504714 0 c 0.03471,0.052462 0.06865,-0.087222 0.1018,-0.033675 C 13.664664,5.7829715 14,6.8465365 14,8 c 0,3.324 -2.676,5 -6,5 v 1 c 3.878,0 7,-2.122 7,-6 C 15,6.0909 14.232,4.3761 13,3.1172 Z M 1,4 V 9 L 4.8576157,9.9644039 5,9.8247678 v 0 V 5 Z m 8.7357917,0.066052 v 0 L 6,5 V 9.8131849 L 6.207084,9.948229 v 0 L 9.8404436,9.0398891 v 0 L 10,8.8234878 V 4.2532172 Z"
     id="path87399"
     sodipodi:nodetypes="ccccccccccccccccccssccscccccccccccccccccccc" />
</svg>
