<?xml version="1.0" encoding="UTF-8" standalone="no"?>
<svg
   width="16"
   height="16"
   version="1.1"
   id="svg7"
   sodipodi:docname="kr_syncbrowse_off.svg"
   inkscape:version="1.1.2 (0a00cf5339, 2022-02-04)"
   xmlns:inkscape="http://www.inkscape.org/namespaces/inkscape"
   xmlns:sodipodi="http://sodipodi.sourceforge.net/DTD/sodipodi-0.dtd"
   xmlns="http://www.w3.org/2000/svg"
   xmlns:svg="http://www.w3.org/2000/svg">
  <sodipodi:namedview
     id="namedview9"
     pagecolor="#000000"
     bordercolor="#666666"
     borderopacity="1.0"
     inkscape:pageshadow="2"
     inkscape:pageopacity="0"
     inkscape:pagecheckerboard="0"
     showgrid="false"
     inkscape:zoom="47.25"
     inkscape:cx="8"
     inkscape:cy="8"
     inkscape:window-width="1880"
     inkscape:window-height="966"
     inkscape:window-x="0"
     inkscape:window-y="29"
     inkscape:window-maximized="1"
     inkscape:current-layer="svg7" />
  <defs
     id="defs3">
    <style
       id="current-color-scheme"
       type="text/css">
   .ColorScheme-Text { color:#eeeeec; } .ColorScheme-Highlight { color:#367bf0; } .ColorScheme-NeutralText { color:#ffcc44; } .ColorScheme-PositiveText { color:#3db47e; } .ColorScheme-NegativeText { color:#dd4747; }
  </style>
  </defs>
  <path
     style="opacity:0.35;fill:currentColor"
     class="ColorScheme-Text"
     d="M 2,1 C 2,1 1,1 1,2 v 11 c 0,0 0,1 1,1 h 12 c 0,0 1,0 1,-1 V 4 C 15,3 14,3 14,3 H 9.2953262 V 3 L 8.8035776,2.8035776 7.2376333,1.2376333 6.7132743,1 v 0 z m 9.5,6.2852518 0.277545,-0.071146 1.159613,0.894559 0.03172,0.3288224 v 0 l -1.185428,0.9158249 v 0 L 11.5,9.1900228 V 8.7148 c -0.92,0 -1.666,0.7662 -1.666,1.7132 0,0.947 0.746,1.715 1.666,1.715 0.92,0 1.666,-0.768 1.666,-1.715 0,-0.237 0.188,-0.428 0.418,-0.428 0.23,0 0.416,0.192 0.416,0.428 v 0.043 C 13.976,11.871 12.867,13 11.5,13 10.119,13 9,11.848 9,10.428 9,9 10.119,7.8574 11.5,7.8574 Z"
     id="path5"
     sodipodi:nodetypes="cscscsscccccccccccccccccssssscssccc" />
</svg>
