<?xml version="1.0" encoding="UTF-8" standalone="no"?>
<svg
   width="16"
   height="16"
   viewBox="0 0 16 16"
   version="1.1"
   id="svg7"
   sodipodi:docname="kstars_fitsviewer.svg"
   inkscape:version="1.1.2 (0a00cf5339, 2022-02-04)"
   xmlns:inkscape="http://www.inkscape.org/namespaces/inkscape"
   xmlns:sodipodi="http://sodipodi.sourceforge.net/DTD/sodipodi-0.dtd"
   xmlns="http://www.w3.org/2000/svg"
   xmlns:svg="http://www.w3.org/2000/svg">
  <sodipodi:namedview
     id="namedview9"
     pagecolor="#000000"
     bordercolor="#666666"
     borderopacity="1.0"
     inkscape:pageshadow="2"
     inkscape:pageopacity="0"
     inkscape:pagecheckerboard="0"
     showgrid="false"
     inkscape:zoom="47.25"
     inkscape:cx="8"
     inkscape:cy="8"
     inkscape:window-width="1880"
     inkscape:window-height="966"
     inkscape:window-x="0"
     inkscape:window-y="29"
     inkscape:window-maximized="1"
     inkscape:current-layer="svg7" />
  <defs
     id="defs3">
    <style
       id="current-color-scheme"
       type="text/css">
   .ColorScheme-Text { color:#eeeeec; } .ColorScheme-Highlight { color:#367bf0; } .ColorScheme-NeutralText { color:#ffcc44; } .ColorScheme-PositiveText { color:#3db47e; } .ColorScheme-NegativeText { color:#dd4747; }
  </style>
  </defs>
  <path
     style="fill:currentColor"
     class="ColorScheme-Text"
     d="M 6,2 C 2.134,2 0,4.679875 0,7.984375 c 0,2.527795 1.2486491,4.561997 3.5660207,5.378669 0.7121405,0.250968 -0.9087718,0 0,0 -0.9085406,0 0.7448911,0.14744 0.092401,-0.258264 C 1.9971716,12.071852 1.1660156,9.961657 1.1660156,7.984375 1.1659901,5.230475 2.7783,2.9960938 6,2.9960938 c 1.2535886,0 2.4024242,0.3516305 3.3499381,0.9306329 0.1530665,0.093535 -0.1576349,0.073138 -0.015483,0.1780171 -0.1505273,-0.045807 0.1549639,0.034078 0,0 C 8.900786,4.0093765 8.4519159,3.9602369 8,3.9589844 5.2386,3.9589844 3,5.712 3,7.875 V 7.88477 C 3.00102,7.99077 3.00754,8.0975294 3.019531,8.2031294 3.2124813,11.433425 6.2585,14.001953 10,14.001953 c 3.866,0 6,-2.741847 6,-6.1230468 C 16,5.304481 14.762949,3.2434534 12.466273,2.4064102 11.74645,2.1440646 12.996435,2.1712876 12.073897,2.1712876 c 0.877641,0 -0.438051,0.057548 0.200662,0.4446633 1.705915,1.0339324 2.559425,3.2108869 2.559425,5.2610022 C 14.83401,10.694653 13.2217,12.978516 10,12.978516 c -1.4510734,0 -2.7754109,-0.466075 -3.795263,-1.233622 -0.1556243,-0.117124 0.1408128,0.130578 0,0 0.1589694,0.06269 -0.1232609,-0.253325 0.042521,-0.204489 C 6.806279,11.705081 7.399872,11.790245 8,11.791016 c 2.705,0 4.916888,-1.688641 4.992188,-3.806641 H 13 C 13,7.965375 12.9963,7.944781 12.9961,7.925781 12.997494,7.9087812 12.9988,7.892 13,7.875 12.9983,7.7414 12.98786,7.6073094 12.96875,7.4746094 12.66616,4.4086094 9.6652,2 6,2 Z"
     id="path5"
     sodipodi:nodetypes="ssscscsscscsccssscscsscsccccccs" />
</svg>
