<?xml version="1.0" encoding="UTF-8" standalone="no"?>
<svg
   width="16"
   height="16"
   viewBox="0 0 16 16"
   version="1.1"
   id="svg7"
   sodipodi:docname="kstars_hgrid.svg"
   inkscape:version="1.1.2 (0a00cf5339, 2022-02-04)"
   xmlns:inkscape="http://www.inkscape.org/namespaces/inkscape"
   xmlns:sodipodi="http://sodipodi.sourceforge.net/DTD/sodipodi-0.dtd"
   xmlns="http://www.w3.org/2000/svg"
   xmlns:svg="http://www.w3.org/2000/svg">
  <sodipodi:namedview
     id="namedview9"
     pagecolor="#000000"
     bordercolor="#666666"
     borderopacity="1.0"
     inkscape:pageshadow="2"
     inkscape:pageopacity="0"
     inkscape:pagecheckerboard="0"
     showgrid="false"
     inkscape:zoom="51.6875"
     inkscape:cx="14.781137"
     inkscape:cy="8"
     inkscape:window-width="1920"
     inkscape:window-height="1051"
     inkscape:window-x="0"
     inkscape:window-y="29"
     inkscape:window-maximized="1"
     inkscape:current-layer="svg7" />
  <defs
     id="defs3">
    <style
       id="current-color-scheme"
       type="text/css">
   .ColorScheme-Text { color:#eeeeec; } .ColorScheme-Highlight { color:#367bf0; } .ColorScheme-NeutralText { color:#ffcc44; } .ColorScheme-PositiveText { color:#3db47e; } .ColorScheme-NegativeText { color:#dd4747; }
  </style>
  </defs>
  <path
     style="fill:currentColor"
     class="ColorScheme-Text"
     d="M 4.0292969,0 3.4259215,1.5520156 3.0276992,1.7159462 c -0.099699,-0.03 0.099278,0.031767 0,0 C 1.98891,1.3835565 0.97401307,0.95423668 0,0.42382812 V 1.8125 c 0.85330465,0.4254172 1.7287897,0.7902384 2.6244643,1.0794502 0.083338,0.02691 0.09326,0.2425754 0.1769454,0.2681637 v 0 L 1.4823291,6.5552377 1.1931565,6.72894 c -0.062757,-0.028617 0.062383,0.029679 0,0 C 0.78904027,6.536676 0.39250921,6.3230217 0,6.0996094 v 1.4082031 c 0.24477042,0.1261234 0.48912009,0.2540449 0.73676612,0.3723366 0.064711,0.03091 0.0373769,0.2987053 0.10260434,0.3280965 v 0 L 0,10.369141 v 3.417968 l 0.0546875,-0.140625 c 2.3068,1.1254 4.7957406,1.744588 7.3066406,1.867188 L 7.3632812,16 H 8.5996094 V 15.535156 C 11.129609,15.494156 13.651,14.947625 16,13.890625 V 10.1875 l -0.603626,-1.5595089 0.05214,-0.2774346 c 0.04635,-0.017631 -0.04568,0.019383 0,0 C 15.633413,8.2720927 15.813958,8.1821021 16,8.1035156 V 6.7578125 c -0.310125,0.1423122 -0.619997,0.2847513 -0.935599,0.4120788 -0.06806,0.027457 0.06865,-0.025898 0,0 L 14.760506,6.9955049 13.357631,3.3844328 v 0 c 0.06695,-0.017969 0.03987,-0.2781717 0.106667,-0.2968969 C 14.325339,2.84616 15.173145,2.5420703 16,2.1777344 V 0.8046875 c -0.934894,0.4494753 -1.89825,0.8193122 -2.884015,1.0961488 -0.100281,0.028162 0.100739,-0.026223 0,0 L 12.732037,1.770645 12.042969,0 h -1.337891 l 0.784382,2.0132468 -0.160661,0.2878136 c -0.08498,0.015705 0.08514,-0.01443 0,0 C 10.556608,2.4319278 9.7778117,2.5104161 8.9968946,2.5373496 8.8567134,2.5421844 8.9362632,2.5231732 8.8248222,2.4379381 L 8.5754825,2.2472319 8.5703125,0 H 7.3222656 l 0.00696,2.2425789 -0.2314404,0.259576 c -0.07745,-0.00466 0.07741,0.00562 0,0 C 6.3216306,2.445794 5.5478103,2.3409647 4.78329,2.1817113 c -0.081518,-0.01698 0.081298,0.018225 0,0 L 4.6314027,1.8915221 5.3671875,0 Z M 3.9978032,3.5164379 C 3.911622,3.7379538 4.2110266,3.324284 4.2746373,3.3384371 c 0.9349537,0.2080241 1.882612,0.3401883 2.8344762,0.4037831 0.074282,0.00496 -0.074329,-0.00413 0,0 l 0.2235258,0.2516125 0.01034,4.0462524 -0.3345802,0.2735116 c -0.1118569,-0.00834 0.1117052,0.010461 0,0 C 5.5741726,8.1792867 4.1537665,7.8700431 2.781735,7.3828656 c -0.084331,-0.029944 0.083958,0.031289 0,0 L 2.6416462,7.0022383 Z m 7.8643888,-0.052305 0.264682,0.1860704 1.450564,3.7255854 -0.218468,0.3664541 c -0.107973,0.032306 0.108439,-0.03023 0,0 -1.479076,0.4123269 -3.000115,0.631201 -4.5245421,0.6475179 -0.082822,8.865e-4 0.082836,3.107e-4 0,0 L 8.5855346,8.1531089 8.5786159,4.0745681 8.8391235,3.780659 c 0.087013,-9.072e-4 -0.086984,0.00209 0,0 C 9.852263,3.7563 10.863008,3.6515272 11.862192,3.4641329 c 0.05965,-0.011187 -0.05957,0.011777 0,0 z M 1.9497462,8.780058 c 0.09189,0.034237 0.3143243,-0.2670211 0.4066298,-0.2342815 1.5565285,0.5520823 3.1708197,0.8914067 4.7998263,1.0201452 0.063796,0.00504 0.1283237,0.2936883 0.1921626,0.2980842 v 0 l 0.010435,4.1810751 -0.3959877,0.204933 c -0.1322779,-0.007 0.1320886,0.01 0,0 C 4.8520281,14.090857 2.7686649,13.548544 0.81698394,12.62722 0.71420765,12.578703 0.7366786,12.208387 0.63464788,12.157768 v 0 z m 12.1850198,0.024629 0.08549,0.2193639 1.32156,3.3909806 -0.11332,0.367723 c 0,0 0.07284,-0.03253 0,0 -2.092465,0.934547 -4.328531,1.437992 -6.5782903,1.509793 -0.084818,0.0027 0.08485,-0.0015 0,0 L 8.5950784,13.925116 8.5882668,9.850523 8.5878931,9.9683225 c 0.083743,2.506e-4 0.167483,-0.3414358 0.2512151,-0.3423193 1.7141928,-0.018088 3.4249678,-0.2736296 5.0833858,-0.7579822 0.07085,-0.020694 0.227104,0.1775587 0.297764,0.1560304 z"
     id="path5"
     sodipodi:nodetypes="cccsccsccccsccscccccccccccccsccsccccsccsccccccssscccccsscccccssccccsscccsccccssccccsscssccccssccccccccssccccsscc" />
</svg>
