<?xml version="1.0" encoding="UTF-8" standalone="no"?>
<svg
   width="16"
   height="16"
   viewBox="0 0 16 16"
   version="1.1"
   id="svg1879492"
   sodipodi:docname="labplot-format-text-symbol.svg"
   inkscape:version="1.1.2 (0a00cf5339, 2022-02-04)"
   xmlns:inkscape="http://www.inkscape.org/namespaces/inkscape"
   xmlns:sodipodi="http://sodipodi.sourceforge.net/DTD/sodipodi-0.dtd"
   xmlns="http://www.w3.org/2000/svg"
   xmlns:svg="http://www.w3.org/2000/svg">
  <sodipodi:namedview
     id="namedview1879494"
     pagecolor="#000000"
     bordercolor="#666666"
     borderopacity="1.0"
     inkscape:pageshadow="2"
     inkscape:pageopacity="0"
     inkscape:pagecheckerboard="0"
     showgrid="false"
     inkscape:zoom="51.6875"
     inkscape:cx="8.0096735"
     inkscape:cy="8.0096735"
     inkscape:window-width="1745"
     inkscape:window-height="966"
     inkscape:window-x="0"
     inkscape:window-y="29"
     inkscape:window-maximized="1"
     inkscape:current-layer="svg1879492" />
  <defs
     id="defs1879488">
    <style
       id="current-color-scheme"
       type="text/css">
   .ColorScheme-Text { color:#eeeeec; } .ColorScheme-Highlight { color:#367bf0; } .ColorScheme-NeutralText { color:#ffcc44; } .ColorScheme-PositiveText { color:#3db47e; } .ColorScheme-NegativeText { color:#dd4747; }
  </style>
  </defs>
  <path
     style="fill:currentColor"
     class="ColorScheme-Text"
     d="m 5.375,0.98046875 c 0,0 -4.0563569,2.318e-5 -4.357377,3.90584945 -0.0116,0.1505092 0.1608003,-0.028594 0.1608003,0.1337387 0.060975,-0.1219438 -0.058255,0.1019515 0,0 C 1.9551577,3.6606907 2.5648357,4.001814 5,4 4.989539,13.57 2.752175,12.960531 2.75,14.488281 c 1.31325,1.008075 3.36495,0.44935 3.515625,-1.53125 L 7,3.9726562 10,3.9609375 9.75,13.011719 c 0,2.625 3.50005,2.625 4.375,0 l 0.600006,-1.800018 v 0 c -0.111713,0.223416 -0.0156,-0.228492 -0.175112,0.01059 -0.03164,0.04742 -0.02539,-0.04052 -0.05847,0.0069 -1.106568,1.586524 -2.980295,3.123117 -2.915245,0.860645 L 12,3.9746094 15,3.9648438 V 0.98046875 Z"
     id="path1879490"
     sodipodi:nodetypes="cscscccccccccssccccc" />
</svg>
