<?xml version="1.0" encoding="UTF-8" standalone="no"?>
<svg
   width="16"
   height="16"
   viewBox="0 0 16 16"
   version="1.1"
   id="svg7"
   sodipodi:docname="labplot-shift-left-x.svg"
   inkscape:version="1.1.2 (0a00cf5339, 2022-02-04)"
   xmlns:inkscape="http://www.inkscape.org/namespaces/inkscape"
   xmlns:sodipodi="http://sodipodi.sourceforge.net/DTD/sodipodi-0.dtd"
   xmlns="http://www.w3.org/2000/svg"
   xmlns:svg="http://www.w3.org/2000/svg">
  <sodipodi:namedview
     id="namedview9"
     pagecolor="#222222"
     bordercolor="#666666"
     borderopacity="1.0"
     inkscape:pageshadow="2"
     inkscape:pageopacity="0"
     inkscape:pagecheckerboard="0"
     showgrid="false"
     inkscape:zoom="47.25"
     inkscape:cx="8"
     inkscape:cy="8"
     inkscape:window-width="1880"
     inkscape:window-height="966"
     inkscape:window-x="0"
     inkscape:window-y="29"
     inkscape:window-maximized="1"
     inkscape:current-layer="svg7" />
  <defs
     id="defs3">
    <style
       id="current-color-scheme"
       type="text/css">
   .ColorScheme-Text { color:#eeeeec; } .ColorScheme-Highlight { color:#367bf0; } .ColorScheme-NeutralText { color:#ffcc44; } .ColorScheme-PositiveText { color:#3db47e; } .ColorScheme-NegativeText { color:#dd4747; }
  </style>
  </defs>
  <path
     style="fill:currentColor"
     class="ColorScheme-Text"
     d="m 4.8031523,0.39369549 v 0 L 3.169354,3.661292 3.3905449,4 V 4 H 6.6288856 L 6.8008342,3.6016684 v 0 L 5.2050882,0.4101764 Z M 9,6.4385793 v 0 3.090113 L 9.4417561,9.779122 v 0 L 12.548391,8.2258045 v 0 L 12.526783,7.7633916 9.4371474,6.2185737 Z M 5,7 C 4.446,7 4,7.446 4,8 4,8.554 4.446,9 5,9 5.554,9 6,8.554 6,8 6,7.446 5.554,7 5,7 Z m -1.630096,5 -0.1587278,0.422352 1.5958501,3.191701 0.3603852,0.05112 v 0 l 1.6380146,-3.276029 v 0 L 6.565139,12 Z"
     id="path5"
     sodipodi:nodetypes="ccccccccccccccccccccsssssccccccccc" />
</svg>
