<?xml version="1.0" encoding="UTF-8" standalone="no"?>
<svg
   width="16"
   height="16"
   version="1.1"
   id="svg7"
   sodipodi:docname="labplot-xy-equation-curve.svg"
   inkscape:version="1.1.2 (0a00cf5339, 2022-02-04)"
   xmlns:inkscape="http://www.inkscape.org/namespaces/inkscape"
   xmlns:sodipodi="http://sodipodi.sourceforge.net/DTD/sodipodi-0.dtd"
   xmlns="http://www.w3.org/2000/svg"
   xmlns:svg="http://www.w3.org/2000/svg">
  <sodipodi:namedview
     id="namedview9"
     pagecolor="#000000"
     bordercolor="#666666"
     borderopacity="1.0"
     inkscape:pageshadow="2"
     inkscape:pageopacity="0"
     inkscape:pagecheckerboard="0"
     showgrid="false"
     inkscape:zoom="47.25"
     inkscape:cx="8"
     inkscape:cy="8"
     inkscape:window-width="1880"
     inkscape:window-height="966"
     inkscape:window-x="0"
     inkscape:window-y="29"
     inkscape:window-maximized="1"
     inkscape:current-layer="svg7" />
  <defs
     id="defs3">
    <style
       id="current-color-scheme"
       type="text/css">
   .ColorScheme-Text { color:#eeeeec; } .ColorScheme-Highlight { color:#367bf0; } .ColorScheme-NeutralText { color:#ffcc44; } .ColorScheme-PositiveText { color:#3db47e; } .ColorScheme-NegativeText { color:#dd4747; }
  </style>
  </defs>
  <path
     style="fill:currentColor"
     class="ColorScheme-Text"
     d="M 8,1 C 7.0694,1 6.2704,1.4954 5.5547,2.1445 4.839,2.7936 4.1768,3.6209 3.4941,4.4277 2.6496,5.5947 0.4955,7.1652 0,7.4297 V 8.5 c 1.272,0 1.3661,0.7918 2.3984,1.852 0,0 2.4406,2.854 3.1563,3.503 C 6.2704,14.505 7.0695,15 8,15 c 0.9306,0 1.7296,-0.495 2.445,-1.145 0.716,-0.649 1.378,-1.476 2.061,-2.283 C 13.871,9.9587 14.271,8.5 16,8.5 v -1 c -0.784,0 -1.174,-0.7891 -1.174,-0.7891 l -2.32,-2.2832 c 0,0 -1.345,-1.6341 -2.061,-2.2832 C 9.7296,1.4954 8.9305,1 8,1 Z m 0.1328,1.2852 c 0.5694,0 1.0126,0.0319 1.6406,0.6015 0.494089,0.4485058 1.667713,1.8117577 2.144692,2.3714788 C 12.04698,5.4094254 11.959,5.6621 11.959,5.6621 v 0 c -0.234,0.2648 -0.414,0.5914 -0.58,0.9688 -0.332,0.7547 -0.836,2.664 -0.836,2.664 l -0.6303484,2.467464 v 0 L 9.6874586,11.832289 7.7109,3.7871 c 0,0 -0.2586,-0.9626 -0.3828,-1.2949 -0.0407,-0.1088 0.0453,0.0907 0,0 0.2724,-0.1308 0.5397,-0.207 0.8047,-0.207 z M 6.3363224,3.2046512 6.5126162,3.2549283 6.7422,4.0371 7.6094,7.8164 c 0,0 0.6236,2.7746 0.9258,3.8356 0.1511,0.531 0.4492,1.321 0.4492,1.321 0,0 0.1523,0.319 0.2578,0.455 v 0 C 9.162851,13.485667 9.1524564,13.604664 9.0743283,13.652857 8.7067225,13.879611 8.3516608,14 8,14 7.4306,14 6.8546,13.683 6.2266,13.113 5.5985,12.544 4.2559,10.928 4.2559,10.928 L 4.1816,10.564 v 0 C 4.4189,10.254 4.7539,9.4453 4.7539,9.4453 5.0715,8.5854 5.5215,6.4629 5.5215,6.4629 L 6.168,3.6406 C 6.21298,3.4938346 6.2804153,3.3306146 6.3363224,3.2046512 c 0.05521,-0.124392 0,0 0,0 z M 4.9961,4.2031 4.543,6.2598 c 0,0 -0.4488,2.0857 -0.7266,2.8379 -0.075205,0.2035175 -0.1543281,0.3851374 -0.2331164,0.5377916 -0.065264,0.1264502 0.062386,-0.082683 0,0 L 3.2695,9.8145 2.9727,8.6895 2.5801,7.4355 c -0.0587,-0.1368 0.0822,0.1196 0,0 C 2.6441832,7.3799077 2.5101614,6.9290631 2.5934435,6.8477472 3.4027209,6.0575756 4.9961,4.2031 4.9961,4.2031 Z m 7.7969,2.0547 c 0.05598,0.059001 0.112445,0.1174488 0.16941,0.1752772 0.389767,0.3956771 0.802857,0.7623467 1.24259,1.0786228 0.159996,0.1477522 0.325634,0.291047 0.501577,0.4241203 0.05829,0.044085 -0.06072,-0.041632 0,0 -0.06732,0.036111 0.04443,0.2023351 -0.0216,0.2412242 C 13.549402,8.8458035 12.601046,9.912266 11.742,10.928 c -0.143304,0.169359 -0.28362,0.335187 -0.422506,0.498476 -0.127637,0.150063 0.126429,-0.146542 0,0 0.0371,-0.141693 -0.3062,0.156565 -0.268734,0.0064 0.146305,-0.586265 0.29685,-1.231512 0.46324,-1.893808 0.234,-0.9355 0.497,-1.8599 0.781,-2.5059 0.142,-0.323 0.292,-0.5748 0.412,-0.7109 0.058,-0.0656 0.064,-0.0536 0.086,-0.0645 z M 1.654797,7.891747 v 0 l 0.1151679,0.3290019 -0.087477,0.2050109 v 0 L 1.1768359,8.1182379 v 0 L 1.1446131,7.9162855 1.4313037,7.7683128 Z"
     id="path5"
     sodipodi:nodetypes="sscccccscccccccsscsccccccccccsccccccccsscccccccsccccscccccsccscscscscscsccccccccccccc" />
</svg>
