<?xml version="1.0" encoding="UTF-8" standalone="no"?>
<svg
   width="16"
   height="16"
   viewBox="0 0 16 16"
   version="1.1"
   id="svg7"
   sodipodi:docname="layer-bottom.svg"
   inkscape:version="1.1.2 (0a00cf5339, 2022-02-04)"
   xmlns:inkscape="http://www.inkscape.org/namespaces/inkscape"
   xmlns:sodipodi="http://sodipodi.sourceforge.net/DTD/sodipodi-0.dtd"
   xmlns="http://www.w3.org/2000/svg"
   xmlns:svg="http://www.w3.org/2000/svg">
  <sodipodi:namedview
     id="namedview9"
     pagecolor="#000000"
     bordercolor="#666666"
     borderopacity="1.0"
     inkscape:pageshadow="2"
     inkscape:pageopacity="0"
     inkscape:pagecheckerboard="0"
     showgrid="false"
     inkscape:zoom="47.25"
     inkscape:cx="8"
     inkscape:cy="8"
     inkscape:window-width="1880"
     inkscape:window-height="966"
     inkscape:window-x="0"
     inkscape:window-y="29"
     inkscape:window-maximized="1"
     inkscape:current-layer="svg7" />
  <defs
     id="defs3">
    <style
       id="current-color-scheme"
       type="text/css">
   .ColorScheme-Text { color:#eeeeec; } .ColorScheme-Highlight { color:#367bf0; } .ColorScheme-NeutralText { color:#ffcc44; } .ColorScheme-PositiveText { color:#3db47e; } .ColorScheme-NegativeText { color:#dd4747; }
  </style>
  </defs>
  <path
     style="fill:currentColor"
     class="ColorScheme-Text"
     d="M 11,1 8.1921999,4.7437335 8.2796263,5 V 5 H 12 L 14.777675,1.2964337 14.713201,1 V 1 Z M 3,3 v 7.713712 l -0.2076362,0.06901 v 0 L 1.8304965,9.77619 1.5399547,9.8429073 v 0 L 1,11 l 2.7664084,2.766408 0.4927475,-0.02556 v 0 L 7,11 6.4691958,9.8625162 v 0 L 6.1633413,9.7826384 5.2431041,10.745607 5,10.671298 v 0 V 3 Z M 11,6 8.2101125,9.71985 8.2796263,10 v 0 H 12 l 2.775164,-3.7002191 v 0 L 14.628813,6 Z M 9,11 6.1810561,14.758592 6.2688673,15 v 0 H 12 L 14.820709,11.239055 14.649455,11 v 0 z"
     id="path5"
     sodipodi:nodetypes="ccccccccccccccccccccccccccccccccccccccccccccccc" />
</svg>
