<?xml version="1.0" encoding="UTF-8" standalone="no"?>
<svg
   width="16"
   height="16"
   viewBox="0 0 16 16"
   version="1.1"
   id="svg7"
   sodipodi:docname="layer-top.svg"
   inkscape:version="1.1.2 (0a00cf5339, 2022-02-04)"
   xmlns:inkscape="http://www.inkscape.org/namespaces/inkscape"
   xmlns:sodipodi="http://sodipodi.sourceforge.net/DTD/sodipodi-0.dtd"
   xmlns="http://www.w3.org/2000/svg"
   xmlns:svg="http://www.w3.org/2000/svg">
  <sodipodi:namedview
     id="namedview9"
     pagecolor="#000000"
     bordercolor="#666666"
     borderopacity="1.0"
     inkscape:pageshadow="2"
     inkscape:pageopacity="0"
     inkscape:pagecheckerboard="0"
     showgrid="false"
     inkscape:zoom="47.25"
     inkscape:cx="8"
     inkscape:cy="8"
     inkscape:window-width="1880"
     inkscape:window-height="966"
     inkscape:window-x="0"
     inkscape:window-y="29"
     inkscape:window-maximized="1"
     inkscape:current-layer="svg7" />
  <defs
     id="defs3">
    <style
       id="current-color-scheme"
       type="text/css">
   .ColorScheme-Text { color:#eeeeec; } .ColorScheme-Highlight { color:#367bf0; } .ColorScheme-NeutralText { color:#ffcc44; } .ColorScheme-PositiveText { color:#3db47e; } .ColorScheme-NegativeText { color:#dd4747; }
  </style>
  </defs>
  <path
     style="fill:currentColor"
     class="ColorScheme-Text"
     d="M 4,1 1.2919279,4.6107629 v 0 L 1.464783,5 H 7 L 9.7159101,1.3787866 v 0 L 9.507208,1 Z m 7.761733,1.2382674 v 0 L 9,5 9.5041999,6.0804284 9.8986245,6.1526023 v 0 L 10.818825,5.1896015 11,5.2535594 v 0 V 13 h 2 V 5.2959734 l 0.206429,-0.079943 v 0 l 0.899017,0.9408318 0.380061,-0.054377 v 0 L 15,5 12.242734,2.2427344 Z M 4,6 1.3021873,9.5970835 1.4222858,10 v 0 H 5 L 7.737596,6.3498721 v 0 L 7.580839,6 Z M 4,11 1.2920884,14.610549 1.4222858,15 v 0 H 5 l 2.7121973,-3.616263 v 0 L 7.475201,11 Z"
     id="path5"
     sodipodi:nodetypes="ccccccccccccccccccccccccccccccccccccccccccccccc" />
</svg>
