<?xml version="1.0" encoding="UTF-8" standalone="no"?>
<svg
   width="16"
   height="16"
   version="1.1"
   id="svg7"
   sodipodi:docname="mail-message-new-list.svg"
   inkscape:version="1.1.2 (0a00cf5339, 2022-02-04)"
   xmlns:inkscape="http://www.inkscape.org/namespaces/inkscape"
   xmlns:sodipodi="http://sodipodi.sourceforge.net/DTD/sodipodi-0.dtd"
   xmlns="http://www.w3.org/2000/svg"
   xmlns:svg="http://www.w3.org/2000/svg">
  <sodipodi:namedview
     id="namedview9"
     pagecolor="#000000"
     bordercolor="#666666"
     borderopacity="1.0"
     inkscape:pageshadow="2"
     inkscape:pageopacity="0"
     inkscape:pagecheckerboard="0"
     showgrid="false"
     inkscape:zoom="51.6875"
     inkscape:cx="7.9903265"
     inkscape:cy="8"
     inkscape:window-width="1920"
     inkscape:window-height="1051"
     inkscape:window-x="0"
     inkscape:window-y="29"
     inkscape:window-maximized="1"
     inkscape:current-layer="svg7" />
  <defs
     id="defs3">
    <style
       id="current-color-scheme"
       type="text/css">
   .ColorScheme-Text { color:#eeeeec; } .ColorScheme-Highlight { color:#367bf0; } .ColorScheme-NeutralText { color:#ffcc44; } .ColorScheme-PositiveText { color:#3db47e; } .ColorScheme-NegativeText { color:#dd4747; }
  </style>
  </defs>
  <path
     style="fill:currentColor"
     class="ColorScheme-Text"
     d="M 2,2 C 0,2 0,4 0,4 v 8 c 0,0 0,2 2,2 h 8 V 9 c 0,0 0,-1 1,-1 h 5 V 4 c 0,0 0,-2 -2,-2 z m 0,2.5108402 0.4341667,-0.2937568 5.277945,2.6389725 0.5550314,0.010372 v 0 L 13.61834,4.1908299 14,4.4234001 v 0 V 6 L 8.2877135,8.8561433 v 0 L 7.712236,8.856118 2,6 Z M 11,9 v 1 h 5 V 9 Z m 0,2 v 1 h 5 v -1 z m 0,2 v 1 h 5 v -1 z"
     id="path5"
     sodipodi:nodetypes="sccsccsccsscccccccccccccccccccccccccccccc" />
</svg>
