<?xml version="1.0" encoding="UTF-8" standalone="no"?>
<svg
   width="16"
   height="16"
   version="1.1"
   id="svg7"
   sodipodi:docname="mail-mark-notjunk.svg"
   inkscape:version="1.1.2 (0a00cf5339, 2022-02-04)"
   xmlns:inkscape="http://www.inkscape.org/namespaces/inkscape"
   xmlns:sodipodi="http://sodipodi.sourceforge.net/DTD/sodipodi-0.dtd"
   xmlns="http://www.w3.org/2000/svg"
   xmlns:svg="http://www.w3.org/2000/svg">
  <sodipodi:namedview
     id="namedview9"
     pagecolor="#000000"
     bordercolor="#666666"
     borderopacity="1.0"
     inkscape:pageshadow="2"
     inkscape:pageopacity="0"
     inkscape:pagecheckerboard="0"
     showgrid="false"
     inkscape:zoom="47.25"
     inkscape:cx="8"
     inkscape:cy="8"
     inkscape:window-width="1880"
     inkscape:window-height="966"
     inkscape:window-x="0"
     inkscape:window-y="29"
     inkscape:window-maximized="1"
     inkscape:current-layer="svg7" />
  <defs
     id="defs3">
    <style
       id="current-color-scheme"
       type="text/css">
   .ColorScheme-Text { color:#eeeeec; } .ColorScheme-Highlight { color:#367bf0; } .ColorScheme-NeutralText { color:#ffcc44; } .ColorScheme-PositiveText { color:#3db47e; } .ColorScheme-NegativeText { color:#dd4747; }
  </style>
  </defs>
  <path
     style="opacity:0.35;fill:currentColor"
     class="ColorScheme-Text"
     d="M 5.2319194,1 4.8517487,1.1482513 1.1690848,4.8309152 v 0 L 1,5.1899388 v 5.4813592 l 0.1845522,0.513254 v 0 L 4.7929707,14.792971 5.3169152,15 v 0 h 5.3541278 l 0.550953,-0.221996 v 0 l 3.629625,-3.629625 v 0 L 15,10.734919 v -5.4601523 0 L 14.803666,4.8036664 11.19529,1.1952896 v 0 L 10.713542,1 Z M 7,4.2378743 7.2845672,4 H 8.7665305 V 4 L 9,4.3223806 V 7 L 8.75,9 H 7.25 L 7,7 Z M 8,9.75 c 0.6903559,0 1.25,0.559644 1.25,1.25 0,0.690356 -0.5596441,1.25 -1.25,1.25 C 7.3096441,12.25 6.75,11.690356 6.75,11 6.75,10.309644 7.3096441,9.75 8,9.75 Z"
     id="path5"
     sodipodi:nodetypes="ccccccccccccccccccccccccccccccccccscsss" />
</svg>
