<?xml version="1.0" encoding="UTF-8" standalone="no"?>
<svg
   width="16"
   height="16"
   version="1.1"
   id="svg7"
   sodipodi:docname="rabbitvcs-bug.svg"
   inkscape:version="1.1.2 (0a00cf5339, 2022-02-04)"
   xmlns:inkscape="http://www.inkscape.org/namespaces/inkscape"
   xmlns:sodipodi="http://sodipodi.sourceforge.net/DTD/sodipodi-0.dtd"
   xmlns="http://www.w3.org/2000/svg"
   xmlns:svg="http://www.w3.org/2000/svg">
  <sodipodi:namedview
     id="namedview9"
     pagecolor="#000000"
     bordercolor="#666666"
     borderopacity="1.0"
     inkscape:pageshadow="2"
     inkscape:pageopacity="0"
     inkscape:pagecheckerboard="0"
     showgrid="false"
     inkscape:zoom="47.25"
     inkscape:cx="8"
     inkscape:cy="8"
     inkscape:window-width="1880"
     inkscape:window-height="966"
     inkscape:window-x="0"
     inkscape:window-y="29"
     inkscape:window-maximized="1"
     inkscape:current-layer="svg7" />
  <defs
     id="defs3">
    <style
       id="current-color-scheme"
       type="text/css">
   .ColorScheme-Text { color:#eeeeec; } .ColorScheme-Highlight { color:#367bf0; } .ColorScheme-NeutralText { color:#ffcc44; } .ColorScheme-PositiveText { color:#3db47e; } .ColorScheme-NegativeText { color:#dd4747; }
  </style>
  </defs>
  <path
     style="fill:currentColor"
     class="ColorScheme-Text"
     d="M 5.2531674,1 4.8305629,1.1694371 1.1478149,4.8521851 1,5.1478459 v 0 5.5022451 l 0.1633243,0.513233 v 0 L 4.8670557,14.867056 5.1894208,15 v 0 h 5.5872612 l 0.339659,-0.116341 v 0 L 14.830394,11.169606 15,10.692506 v 0 -5.4601532 0 L 14.824612,4.8246121 11.121003,1.121003 v 0 L 10.776682,1 Z M 7,4.2799666 7.3270658,4 H 8.7452812 V 4 L 9,4.2378743 V 7 L 8.7763794,8.7889644 8.5546475,9 V 9 H 7.4327037 V 9 L 7.2182546,8.746037 7,7 Z M 8,9.75 c 0.6903559,0 1.25,0.559644 1.25,1.25 0,0.690356 -0.5596441,1.25 -1.25,1.25 C 7.3096441,12.25 6.75,11.690356 6.75,11 6.75,10.309644 7.3096441,9.75 8,9.75 Z"
     id="path5"
     sodipodi:nodetypes="cccccccccccccccccccccccccccccccccccccccsssss" />
</svg>
