<?xml version="1.0" encoding="UTF-8" standalone="no"?>
<svg
   width="16"
   height="16"
   version="1.1"
   id="svg232663"
   sodipodi:docname="mail-signed-part.svg"
   inkscape:version="1.1.2 (0a00cf5339, 2022-02-04)"
   xmlns:inkscape="http://www.inkscape.org/namespaces/inkscape"
   xmlns:sodipodi="http://sodipodi.sourceforge.net/DTD/sodipodi-0.dtd"
   xmlns="http://www.w3.org/2000/svg"
   xmlns:svg="http://www.w3.org/2000/svg">
  <sodipodi:namedview
     id="namedview232665"
     pagecolor="#000000"
     bordercolor="#666666"
     borderopacity="1.0"
     inkscape:pageshadow="2"
     inkscape:pageopacity="0"
     inkscape:pagecheckerboard="0"
     showgrid="false"
     inkscape:zoom="51.6875"
     inkscape:cx="8.0096735"
     inkscape:cy="8"
     inkscape:window-width="1920"
     inkscape:window-height="1051"
     inkscape:window-x="0"
     inkscape:window-y="29"
     inkscape:window-maximized="1"
     inkscape:current-layer="svg232663" />
  <defs
     id="defs232659">
    <style
       id="current-color-scheme"
       type="text/css">
   .ColorScheme-Text { color:#eeeeec; } .ColorScheme-Highlight { color:#367bf0; } .ColorScheme-NeutralText { color:#ffcc44; } .ColorScheme-PositiveText { color:#3db47e; } .ColorScheme-NegativeText { color:#dd4747; }
  </style>
  </defs>
  <path
     style="fill:currentColor"
     class="ColorScheme-Text"
     d="m 13.75452,8.2454803 v 0 L 10.116336,11.883664 10,12.207377 v 0 1.521475 L 10.272996,14 v 0 H 12 l 3.833669,-3.833669 v 0 L 15.766423,9.7664227 14.229185,8.2291852 Z M 2,2 C 0,2 0,4 0,4 v 8 c 0,0 0,2 2,2 h 6.7234828 v 0 L 9,13.734923 V 12 c 0,-0.265 0.293,-0.707 0.293,-0.707 l 4,-4 C 13.477,7.1093 13.74,7.0043 14,7 c 0.271,-0.0042 0.516,0.1015 0.707,0.293 l 1.085033,1.0849492 v 0 L 16,8.1484564 V 4 C 16,4 16,2 14,2 Z M 2,4.4037507 2.4642042,4.2321021 7.7795536,6.8897768 8.2829684,6.8585158 v 0 L 13.667775,4.1661123 v 0 L 14,4.3887321 V 6 L 8.1964319,8.901784 v 0 L 7.7781878,8.8890939 2,6 Z"
     id="path232661"
     sodipodi:nodetypes="ccccccccccccccsccscccsccccccccssccccccccccccccc" />
</svg>
