<?xml version="1.0" encoding="UTF-8" standalone="no"?>
<svg
   width="16"
   height="16"
   version="1.1"
   id="svg174443"
   sodipodi:docname="mail-flagged.svg"
   inkscape:version="1.1.2 (0a00cf5339, 2022-02-04)"
   xmlns:inkscape="http://www.inkscape.org/namespaces/inkscape"
   xmlns:sodipodi="http://sodipodi.sourceforge.net/DTD/sodipodi-0.dtd"
   xmlns="http://www.w3.org/2000/svg"
   xmlns:svg="http://www.w3.org/2000/svg">
  <sodipodi:namedview
     id="namedview174445"
     pagecolor="#000000"
     bordercolor="#666666"
     borderopacity="1.0"
     inkscape:pageshadow="2"
     inkscape:pageopacity="0"
     inkscape:pagecheckerboard="0"
     showgrid="false"
     inkscape:zoom="51.6875"
     inkscape:cx="8.0096735"
     inkscape:cy="8"
     inkscape:window-width="1920"
     inkscape:window-height="1051"
     inkscape:window-x="0"
     inkscape:window-y="29"
     inkscape:window-maximized="1"
     inkscape:current-layer="svg174443" />
  <defs
     id="defs174439">
    <style
       id="current-color-scheme"
       type="text/css">
   .ColorScheme-Text { color:#eeeeec; } .ColorScheme-Highlight { color:#367bf0; } .ColorScheme-NeutralText { color:#ffcc44; } .ColorScheme-PositiveText { color:#3db47e; } .ColorScheme-NegativeText { color:#dd4747; }
  </style>
  </defs>
  <path
     style="fill:currentColor"
     class="ColorScheme-Text"
     d="m 11,8 v 6 h 1 v -2 l 3.659961,-0.91499 v 0 L 15.650158,10.737618 12,8 Z M 2,2 C 0,2 0,4 0,4 v 8 c 0,0 0,2 2,2 h 8 v -5.7473384 0 L 9.7301622,8.1349189 8.2989438,8.8505281 v 0 L 7.678244,8.839122 2,6 V 4.3193224 L 2.2874093,4.1437047 v 0 l 5.5123231,2.7561615 v 0 L 8.2824878,6.8587561 13.742793,4.1286036 14,4.2964221 v 0 V 6 L 12.343307,6.8283464 12.334,7 V 7 L 16,9.75 V 4 c 0,0 0,-2 -2,-2 z"
     id="path174441"
     sodipodi:nodetypes="cccccccccsccscccccccccccccccccccccccss" />
</svg>
