<?xml version="1.0" encoding="UTF-8" standalone="no"?>
<svg
   width="16"
   height="16"
   version="1.1"
   id="svg7"
   sodipodi:docname="mail-move.svg"
   inkscape:version="1.1.2 (0a00cf5339, 2022-02-04)"
   xmlns:inkscape="http://www.inkscape.org/namespaces/inkscape"
   xmlns:sodipodi="http://sodipodi.sourceforge.net/DTD/sodipodi-0.dtd"
   xmlns="http://www.w3.org/2000/svg"
   xmlns:svg="http://www.w3.org/2000/svg">
  <sodipodi:namedview
     id="namedview9"
     pagecolor="#ffffff"
     bordercolor="#666666"
     borderopacity="1.0"
     inkscape:pageshadow="2"
     inkscape:pageopacity="0.0"
     inkscape:pagecheckerboard="0"
     showgrid="false"
     inkscape:zoom="47.25"
     inkscape:cx="8"
     inkscape:cy="8"
     inkscape:window-width="1880"
     inkscape:window-height="966"
     inkscape:window-x="0"
     inkscape:window-y="29"
     inkscape:window-maximized="1"
     inkscape:current-layer="svg7" />
  <defs
     id="defs3">
    <style
       id="current-color-scheme"
       type="text/css">
   .ColorScheme-Text { color:#eeeeec; } .ColorScheme-Highlight { color:#367bf0; } .ColorScheme-NeutralText { color:#ffcc44; } .ColorScheme-PositiveText { color:#3db47e; } .ColorScheme-NegativeText { color:#dd4747; }
  </style>
  </defs>
  <path
     style="fill:currentColor"
     class="ColorScheme-Text"
     d="M 2,2 C 0,2 0,4 0,4 v 8 c 0,0 0,2 2,2 h 12 c 2,0 2,-2 2,-2 V 4 c 0,0 0,-2 -2,-2 z m 5.7561746,2.2438254 0.5236219,0.035971 3.4283925,3.4283922 0.01638,0.5672374 v 0 l -3.4494343,3.449439 v 0 l -0.4929101,0.05736 -1.0474821,-1.047482 -0.023395,-0.446091 v 0 L 8,9 H 4 V 7 h 3.7502235 v 0 l 0.087821,-0.1619557 -1.08998,-1.08998 v 0 L 6.7299201,5.2700799 Z"
     id="path5"
     sodipodi:nodetypes="sccssccssccccccccccccccccccccc" />
</svg>
