<?xml version="1.0" encoding="UTF-8" standalone="no"?>
<svg
   width="16"
   height="16"
   version="1.1"
   id="svg759279"
   sodipodi:docname="stock_mail-reply.svg"
   inkscape:version="1.1.2 (0a00cf5339, 2022-02-04)"
   xmlns:inkscape="http://www.inkscape.org/namespaces/inkscape"
   xmlns:sodipodi="http://sodipodi.sourceforge.net/DTD/sodipodi-0.dtd"
   xmlns="http://www.w3.org/2000/svg"
   xmlns:svg="http://www.w3.org/2000/svg">
  <sodipodi:namedview
     id="namedview759281"
     pagecolor="#000000"
     bordercolor="#666666"
     borderopacity="1.0"
     inkscape:pageshadow="2"
     inkscape:pageopacity="0"
     inkscape:pagecheckerboard="0"
     showgrid="false"
     inkscape:zoom="51.6875"
     inkscape:cx="8.0096735"
     inkscape:cy="8"
     inkscape:window-width="1920"
     inkscape:window-height="1051"
     inkscape:window-x="0"
     inkscape:window-y="29"
     inkscape:window-maximized="1"
     inkscape:current-layer="svg759279" />
  <defs
     id="defs759275">
    <style
       id="current-color-scheme"
       type="text/css">
   .ColorScheme-Text { color:#eeeeec; } .ColorScheme-Highlight { color:#367bf0; } .ColorScheme-NeutralText { color:#ffcc44; } .ColorScheme-PositiveText { color:#3db47e; } .ColorScheme-NegativeText { color:#dd4747; }
  </style>
  </defs>
  <path
     style="fill:currentColor"
     class="ColorScheme-Text"
     d="m 7.6234863,1.7606635 0.3765138,0.2946466 v 1.7286984 l 0.2364437,0.2159916 v 0 H 10.5 c 3,0 5,2.0000001 5,5.0000002 0,2.8324407 -2.476149,4.3029997 -3.532032,4.8013187 -0.286133,0.135039 -0.202861,-0.215109 -0.202861,-0.215109 0,0 -0.157532,0.256014 0,0 C 12.195822,12.886229 13,11.451861 13,10.5 13,9.2000001 11.5,8.0000003 10,8.0000003 H 8.2992674 v 0 L 8.0000001,8.305951 v 1.6428143 0 L 7.5411107,10.182307 1.8668973,6.2540061 v 0 L 1.905426,5.7193206 Z"
     id="path759277"
     sodipodi:nodetypes="cccccssscssscccccccccc" />
</svg>
