<?xml version="1.0" encoding="UTF-8" standalone="no"?>
<svg
   width="16"
   height="16"
   version="1.1"
   id="svg7"
   sodipodi:docname="media-random-albums-amarok.svg"
   inkscape:version="1.1.2 (0a00cf5339, 2022-02-04)"
   xmlns:inkscape="http://www.inkscape.org/namespaces/inkscape"
   xmlns:sodipodi="http://sodipodi.sourceforge.net/DTD/sodipodi-0.dtd"
   xmlns="http://www.w3.org/2000/svg"
   xmlns:svg="http://www.w3.org/2000/svg">
  <sodipodi:namedview
     id="namedview9"
     pagecolor="#000000"
     bordercolor="#666666"
     borderopacity="1.0"
     inkscape:pageshadow="2"
     inkscape:pageopacity="0"
     inkscape:pagecheckerboard="0"
     showgrid="false"
     inkscape:zoom="47.25"
     inkscape:cx="8"
     inkscape:cy="8"
     inkscape:window-width="1880"
     inkscape:window-height="966"
     inkscape:window-x="0"
     inkscape:window-y="29"
     inkscape:window-maximized="1"
     inkscape:current-layer="svg7" />
  <defs
     id="defs3">
    <style
       id="current-color-scheme"
       type="text/css">
   .ColorScheme-Text { color:#eeeeec; } .ColorScheme-Highlight { color:#367bf0; } .ColorScheme-NeutralText { color:#ffcc44; } .ColorScheme-PositiveText { color:#3db47e; } .ColorScheme-NegativeText { color:#dd4747; }
  </style>
  </defs>
  <path
     style="fill:currentColor"
     class="ColorScheme-Text"
     d="m 2,6 v 4 H 3 V 9 h 1 v 1 H 5 V 6 Z M 3,7 H 4 V 8 H 3 Z M 1,3 v 2 h 4.5 l 0.8647303,1.7294607 0.2839671,-0.026855 v 0 L 7.5,5 6.5,3 Z m 10,6.5495773 v 0 V 11 H 10.5 L 9.6323813,9.2647626 9.5,9.2114271 9.3788225,9.2423549 8.5,11 l 1,2 H 11 v 1.438427 l 0.519384,0.172035 v 0 L 14.671879,12.246091 14.428706,12 14.551189,11.663392 11.449593,9.3371951 Z m 0,-8.1264464 v 0 V 3 H 9.5 l -4,8 H 1 v 2 h 5.5 l 4,-8 H 11 v 1.4597866 l 0.414406,0.2294087 v 0 L 14.654867,4.2588497 14.703727,4 14.585221,3.6889155 11.37833,1.2837472 Z"
     id="path5"
     sodipodi:nodetypes="ccccccccccccccccccccccccccccccccccccccccccccccccccccccccccc" />
</svg>
