<?xml version="1.0" encoding="UTF-8" standalone="no"?>
<svg
   width="16"
   height="16"
   version="1.1"
   id="svg9"
   sodipodi:docname="mesh-gradient-fit.svg"
   inkscape:version="1.1.2 (0a00cf5339, 2022-02-04)"
   xmlns:inkscape="http://www.inkscape.org/namespaces/inkscape"
   xmlns:sodipodi="http://sodipodi.sourceforge.net/DTD/sodipodi-0.dtd"
   xmlns="http://www.w3.org/2000/svg"
   xmlns:svg="http://www.w3.org/2000/svg">
  <sodipodi:namedview
     id="namedview11"
     pagecolor="#000000"
     bordercolor="#666666"
     borderopacity="1.0"
     inkscape:pageshadow="2"
     inkscape:pageopacity="0"
     inkscape:pagecheckerboard="0"
     showgrid="false"
     inkscape:zoom="47.25"
     inkscape:cx="8"
     inkscape:cy="8"
     inkscape:window-width="1880"
     inkscape:window-height="966"
     inkscape:window-x="0"
     inkscape:window-y="29"
     inkscape:window-maximized="1"
     inkscape:current-layer="svg9" />
  <defs
     id="defs3">
    <style
       id="current-color-scheme"
       type="text/css">
   .ColorScheme-Text { color:#eeeeec; } .ColorScheme-Highlight { color:#367bf0; } .ColorScheme-NeutralText { color:#ffcc44; } .ColorScheme-PositiveText { color:#3db47e; } .ColorScheme-NegativeText { color:#dd4747; }
  </style>
  </defs>
  <path
     style="fill:currentColor"
     class="ColorScheme-Text"
     d="M 0,0 V 16 H 16 V 0 Z M 1,1.35951 1.3591451,1 H 14.670705 V 1 L 15,1.380717 15,14.523255 14.649455,15 v 0 H 1.464783 L 1,14.565348 v 0 z"
     id="path5"
     sodipodi:nodetypes="cccccccccccccccccc" />
  <path
     style="fill:currentColor"
     class="ColorScheme-Text"
     d="m 2.1975271,1.8956619 c 0.066625,-0.035875 -0.065065,0.033691 0,0 6.2128453,-3.2170623 5.3885415,3.4178842 11.5904079,0.2161929 0.06979,-0.03603 -0.07159,0.038549 0,0 0.02584,0.047988 0.263172,-0.016287 0.287876,0.03089 3.282239,6.2681086 -3.389346,5.4263433 -0.194422,11.6320842 0.03812,0.07405 -0.09272,0.239329 -0.05175,0.315405 -0.05737,0.03089 0.05621,-0.02927 0,0 C 7.5827326,17.34306 8.4241578,10.67223 2.1986777,13.895066 c -0.06544,0.03388 0.067018,-0.03609 0,0 C 2.1546504,13.813301 1.913607,13.837657 1.872861,13.758236 -1.291503,7.5903402 5.3127146,8.4000028 2.1069182,2.2025125 2.0724228,2.1358255 2.2343186,1.963989 2.1975271,1.8956619 Z"
     id="path7"
     sodipodi:nodetypes="csscsscsscssc" />
</svg>
