<?xml version="1.0" encoding="UTF-8" standalone="no"?>
<svg
   width="16"
   height="16"
   viewBox="0 0 16 16"
   version="1.1"
   id="svg7"
   sodipodi:docname="object-order-lower-calligra.svg"
   inkscape:version="1.1.2 (0a00cf5339, 2022-02-04)"
   xmlns:inkscape="http://www.inkscape.org/namespaces/inkscape"
   xmlns:sodipodi="http://sodipodi.sourceforge.net/DTD/sodipodi-0.dtd"
   xmlns="http://www.w3.org/2000/svg"
   xmlns:svg="http://www.w3.org/2000/svg">
  <sodipodi:namedview
     id="namedview9"
     pagecolor="#000000"
     bordercolor="#666666"
     borderopacity="1.0"
     inkscape:pageshadow="2"
     inkscape:pageopacity="0"
     inkscape:pagecheckerboard="0"
     showgrid="false"
     inkscape:zoom="47.25"
     inkscape:cx="8"
     inkscape:cy="8"
     inkscape:window-width="1880"
     inkscape:window-height="966"
     inkscape:window-x="0"
     inkscape:window-y="29"
     inkscape:window-maximized="1"
     inkscape:current-layer="svg7" />
  <defs
     id="defs3">
    <style
       id="current-color-scheme"
       type="text/css">
   .ColorScheme-Text { color:#eeeeec; } .ColorScheme-Highlight { color:#367bf0; } .ColorScheme-NeutralText { color:#ffcc44; } .ColorScheme-PositiveText { color:#3db47e; } .ColorScheme-NegativeText { color:#dd4747; }
  </style>
  </defs>
  <path
     style="fill:currentColor"
     class="ColorScheme-Text"
     d="m 3,1 v 5.6715346 0 L 2.760704,6.7495922 1.8313539,5.7770873 1.5317377,5.8605159 v 0 L 1,7 3.7665693,9.7665693 4.2380707,9.7619293 v 0 L 7,7 6.4974657,5.923097 v 0 L 6.1011775,5.8476888 5.1910831,6.8000439 v 0 L 5,6.6927419 V 1 Z M 11,1 8.2811902,4.6250798 8.4277615,5 V 5 H 12 l 2.767495,-3.6899938 v 0 L 14.565065,1 Z M 11,6 8.2634412,9.648745 8.4702588,10 v 0 H 12 L 14.757335,6.3235528 14.565065,6 v 0 z m -2,5 -2.6716257,3.562168 v 0 L 6.4595011,15 H 12 L 14.675921,11.432106 14.459429,11 v 0 z"
     id="path5"
     sodipodi:nodetypes="ccccccccccccccccccccccccccccccccccccccccccccccc" />
</svg>
