<?xml version="1.0" encoding="UTF-8" standalone="no"?>
<svg
   width="16"
   height="16"
   version="1.1"
   id="svg7"
   sodipodi:docname="office-chart-polar-stacked.svg"
   inkscape:version="1.1.2 (0a00cf5339, 2022-02-04)"
   xmlns:inkscape="http://www.inkscape.org/namespaces/inkscape"
   xmlns:sodipodi="http://sodipodi.sourceforge.net/DTD/sodipodi-0.dtd"
   xmlns="http://www.w3.org/2000/svg"
   xmlns:svg="http://www.w3.org/2000/svg">
  <sodipodi:namedview
     id="namedview9"
     pagecolor="#1c1c1c"
     bordercolor="#666666"
     borderopacity="1.0"
     inkscape:pageshadow="2"
     inkscape:pageopacity="0"
     inkscape:pagecheckerboard="0"
     showgrid="false"
     inkscape:zoom="47.25"
     inkscape:cx="8"
     inkscape:cy="8"
     inkscape:window-width="1880"
     inkscape:window-height="966"
     inkscape:window-x="0"
     inkscape:window-y="29"
     inkscape:window-maximized="1"
     inkscape:current-layer="svg7" />
  <defs
     id="defs3">
    <style
       id="current-color-scheme"
       type="text/css">
   .ColorScheme-Text { color:#eeeeec; } .ColorScheme-Highlight { color:#367bf0; } .ColorScheme-NeutralText { color:#ffcc44; } .ColorScheme-PositiveText { color:#3db47e; } .ColorScheme-NegativeText { color:#dd4747; }
  </style>
  </defs>
  <path
     style="fill:currentColor"
     class="ColorScheme-Text"
     d="M 8,1 C 4.1340068,1 1,4.1340068 1,8 c 0,3.865993 3.1340068,7 7,7 3.865993,0 7,-3.134007 7,-7 C 15,4.1340068 11.865993,1 8,1 Z m 0.3262963,2.011036 c 0.1090966,1.277e-4 -0.1083793,-0.00721 0,0 0.8138589,0.05416 1.6028153,0.3066203 2.2966907,0.7355466 0.08212,0.050763 0.01307,0.3181982 0.09241,0.3738683 v 0 L 9.1464844,6.3632812 c 0.4854,0.3409001 0.79455,0.8796032 0.84375,1.4707032 L 12.705041,7.5891056 13,7.7932549 v 0 V 8 c 0,2.687812 -2.121871,4.880931 -4.7815685,4.995312 -0.072422,0.0031 0.073188,0 0,0 L 8,12.702991 V 10 C 7.4696,9.9999 6.9609375,9.7891625 6.5859375,9.4140625 L 4.6559529,11.344047 v 0 C 4.5965244,11.284676 4.3495873,11.41312 4.293483,11.35114 3.4641493,10.434951 3.0012176,9.2415119 3,8 3.0002778,6.9118835 3.3554062,5.8560948 4.007644,4.9910542 c 0.0522,-0.06923 -0.055976,0.066706 0,0 L 4.3408885,4.9304773 6.46875,6.7148438 C 6.84835,6.2620437 7.4091,6.0004 8,6 V 3.2006603 Z"
     id="path5"
     sodipodi:nodetypes="ssssscsscccccccssccccccscscccccc" />
</svg>
