<?xml version="1.0" encoding="UTF-8" standalone="no"?>
<svg
   width="16"
   height="16"
   version="1.1"
   id="svg9"
   sodipodi:docname="office-chart-area-stacked.svg"
   inkscape:version="1.1.2 (0a00cf5339, 2022-02-04)"
   xmlns:inkscape="http://www.inkscape.org/namespaces/inkscape"
   xmlns:sodipodi="http://sodipodi.sourceforge.net/DTD/sodipodi-0.dtd"
   xmlns="http://www.w3.org/2000/svg"
   xmlns:svg="http://www.w3.org/2000/svg">
  <sodipodi:namedview
     id="namedview11"
     pagecolor="#000000"
     bordercolor="#666666"
     borderopacity="1.0"
     inkscape:pageshadow="2"
     inkscape:pageopacity="0"
     inkscape:pagecheckerboard="0"
     showgrid="false"
     inkscape:zoom="47.25"
     inkscape:cx="8"
     inkscape:cy="8"
     inkscape:window-width="1880"
     inkscape:window-height="966"
     inkscape:window-x="0"
     inkscape:window-y="29"
     inkscape:window-maximized="1"
     inkscape:current-layer="svg9" />
  <defs
     id="defs3">
    <style
       id="current-color-scheme"
       type="text/css">
   .ColorScheme-Text { color:#eeeeec; } .ColorScheme-Highlight { color:#367bf0; } .ColorScheme-NeutralText { color:#ffcc44; } .ColorScheme-PositiveText { color:#3db47e; } .ColorScheme-NegativeText { color:#dd4747; }
  </style>
  </defs>
  <path
     style="fill:currentColor"
     class="ColorScheme-Text"
     d="M 1,2 V 4.9960938 5.0058594 15 H 14 V 13 H 3 V 6 5.0058594 4.9960938 3 2 Z m 7.7983511,1.6774056 c 0.00309,0.4072969 0.1310541,-0.1313225 0,0 C 7.9128795,4.5646966 4.46875,8.0058594 4.46875,8.0058594 H 3.0078125 v 1 h 1.875 L 8.8066955,5.0819764 9.1666069,5.04356 v 0 l 1.6931511,1.6931512 0.497888,0.050209 v 0 0 0 l 2.609185,-2.6091854 c 0.003,0.005 -0.707031,-0.7070313 -0.707031,-0.7070313 l -1.921144,1.9211436 v 0 L 10.89026,5.3513873 9.2178002,3.680464 9.007,3.878 v 0 z M 7.5996094,9 l -2,2 h -2.59375 v 1 h 3 v -0.0078 l 0.00781,0.0078 2,-2 h 1.5917969 l 2.0000007,2 h 2.40039 v -1 h -1.986328 l -2,-2 H 8.6054688 Z"
     id="path5"
     sodipodi:nodetypes="ccccccccccccccsccccccccccccccccccccccccccccccccccccc" />
  <path
     style="fill:currentColor;opacity:0.5"
     class="ColorScheme-Text"
     d="M 13.46,3.67 11.14,6.001 11.136,5.997 11.13,6.001 9.007,3.878 4.884,8.001 l -1.875,0 0,5 11,0 0,-8.778 z"
     id="path7" />
</svg>
