<?xml version="1.0" encoding="UTF-8" standalone="no"?>
<svg
   width="16"
   height="16"
   version="1.1"
   id="svg9"
   sodipodi:docname="osd-rotate-flip.svg"
   inkscape:version="1.1.2 (0a00cf5339, 2022-02-04)"
   xmlns:inkscape="http://www.inkscape.org/namespaces/inkscape"
   xmlns:sodipodi="http://sodipodi.sourceforge.net/DTD/sodipodi-0.dtd"
   xmlns="http://www.w3.org/2000/svg"
   xmlns:svg="http://www.w3.org/2000/svg">
  <sodipodi:namedview
     id="namedview11"
     pagecolor="#000000"
     bordercolor="#666666"
     borderopacity="1.0"
     inkscape:pageshadow="2"
     inkscape:pageopacity="0"
     inkscape:pagecheckerboard="0"
     showgrid="false"
     inkscape:zoom="47.25"
     inkscape:cx="8"
     inkscape:cy="8"
     inkscape:window-width="1880"
     inkscape:window-height="966"
     inkscape:window-x="0"
     inkscape:window-y="29"
     inkscape:window-maximized="1"
     inkscape:current-layer="svg9" />
  <defs
     id="defs3">
    <style
       id="current-color-scheme"
       type="text/css">
   .ColorScheme-Text { color:#eeeeec; } .ColorScheme-Highlight { color:#367bf0; } .ColorScheme-NeutralText { color:#ffcc44; } .ColorScheme-PositiveText { color:#3db47e; } .ColorScheme-NegativeText { color:#dd4747; }
  </style>
  </defs>
  <path
     style="fill:currentColor"
     class="ColorScheme-Text"
     d="M 12.5,8 C 10.567003,8 9,9.5670034 9,11.5 9,13.432997 10.567003,15 12.5,15 14.432997,15 16,13.432997 16,11.5 16,9.5670034 14.432997,8 12.5,8 Z m 0.253021,1.3373615 v 0 L 13.25,10 l 0.595199,0.793598 v 0 L 13.71875,11 H 13 v 1 h 0.739392 v 0 l 0.09361,0.222657 L 13.25,13 l -0.585173,0.780231 -0.318184,0.01529 v 0 L 11.75,13 11.185894,12.247859 v 0 L 11.347974,12 H 12 v -1 h -0.715164 v 0 L 11.194121,10.741171 11.75,10 12.309187,9.2544167 Z"
     id="path5"
     sodipodi:nodetypes="sssssccccccccccccccccccccccccccc" />
  <path
     style="fill:currentColor"
     class="ColorScheme-Text"
     d="M 2.4003906,3 C 1.6247906,3 1,3.6363058 1,4.4277344 V 11.572266 C 1,12.363694 1.6247906,13 2.4003906,13 h 5.6461033 l 0.1561215,-0.193456 c -0.023133,-0.06404 0.020172,0.06491 0,0 C 8.0712268,12.383737 8.0028435,11.943486 8,11.5 8,9.0147186 10.014719,7 12.5,7 c 0.802996,-1.416e-4 1.589762,0.2145543 2.27949,0.6195929 0.07468,0.043852 0.148212,-0.1287837 0.22051,-0.0805 v 0 -3.1113585 C 15,3.6363058 14.375209,3 13.599609,3 Z"
     id="path7"
     sodipodi:nodetypes="ssssccsccsccsss" />
</svg>
