<?xml version="1.0" encoding="UTF-8" standalone="no"?>
<svg
   width="16"
   height="16"
   version="1.1"
   id="svg180349"
   sodipodi:docname="osd-shutd-screen.svg"
   inkscape:version="1.1.2 (0a00cf5339, 2022-02-04)"
   xmlns:inkscape="http://www.inkscape.org/namespaces/inkscape"
   xmlns:sodipodi="http://sodipodi.sourceforge.net/DTD/sodipodi-0.dtd"
   xmlns="http://www.w3.org/2000/svg"
   xmlns:svg="http://www.w3.org/2000/svg">
  <sodipodi:namedview
     id="namedview180351"
     pagecolor="#000000"
     bordercolor="#666666"
     borderopacity="1.0"
     inkscape:pageshadow="2"
     inkscape:pageopacity="0"
     inkscape:pagecheckerboard="0"
     showgrid="false"
     inkscape:zoom="51.6875"
     inkscape:cx="7.9903265"
     inkscape:cy="8"
     inkscape:window-width="1920"
     inkscape:window-height="1051"
     inkscape:window-x="0"
     inkscape:window-y="29"
     inkscape:window-maximized="1"
     inkscape:current-layer="svg180349" />
  <defs
     id="defs180343">
    <style
       id="current-color-scheme"
       type="text/css">
   .ColorScheme-Text { color:#eeeeec; } .ColorScheme-Highlight { color:#367bf0; } .ColorScheme-NeutralText { color:#ffcc44; } .ColorScheme-PositiveText { color:#3db47e; } .ColorScheme-NegativeText { color:#dd4747; }
  </style>
  </defs>
  <path
     style="fill:currentColor"
     class="ColorScheme-Text"
     d="M 2,7 C 1.446,7 1,7.446 1,8 v 5 c 0,0.554 0.446,1 1,1 h 8 c 0.554,0 1,-0.446 1,-1 V 8 C 11,7.446 10.554,7 10,7 Z m 7.8707444,1.9189919 v 0 l 0.3340616,0.2093657 0.058,0.3948787 v 0 L 8.3477204,12.587038 v 0 l -0.5142997,0.0957 -1.8292409,-1.096069 v 0 l -0.098089,-0.430156 0.2181862,-0.363644 0.3706036,-0.07997 v 0 l 1.1360503,0.683317 v 0 l 0.3267747,-0.07157 1.4301798,-2.2889299 z"
     id="path180345"
     sodipodi:nodetypes="sssssssssccccccccccccccccccc" />
  <path
     style="fill:currentColor;opacity:0.35"
     class="ColorScheme-Text"
     d="M 6,2 C 5.446,2 5,2.446 5,3 v 3 h 5 c 1.090702,0 2,0.9092983 2,2 v 1 h 2 c 0.554,0 1,-0.446 1,-1 V 3 C 15,2.446 14.554,2 14,2 Z"
     id="path180347" />
</svg>
