<?xml version="1.0" encoding="UTF-8" standalone="no"?>
<svg
   width="16"
   height="16"
   version="1.1"
   id="svg7"
   sodipodi:docname="osd-rotate-ccw.svg"
   inkscape:version="1.1.2 (0a00cf5339, 2022-02-04)"
   xmlns:inkscape="http://www.inkscape.org/namespaces/inkscape"
   xmlns:sodipodi="http://sodipodi.sourceforge.net/DTD/sodipodi-0.dtd"
   xmlns="http://www.w3.org/2000/svg"
   xmlns:svg="http://www.w3.org/2000/svg">
  <sodipodi:namedview
     id="namedview9"
     pagecolor="#000000"
     bordercolor="#666666"
     borderopacity="1.0"
     inkscape:pageshadow="2"
     inkscape:pageopacity="0"
     inkscape:pagecheckerboard="0"
     showgrid="false"
     inkscape:zoom="133.64318"
     inkscape:cx="8.0063942"
     inkscape:cy="8.6012619"
     inkscape:window-width="1920"
     inkscape:window-height="1051"
     inkscape:window-x="0"
     inkscape:window-y="29"
     inkscape:window-maximized="1"
     inkscape:current-layer="svg7" />
  <defs
     id="defs3">
    <style
       id="current-color-scheme"
       type="text/css">
   .ColorScheme-Text { color:#eeeeec; } .ColorScheme-Highlight { color:#367bf0; } .ColorScheme-NeutralText { color:#ffcc44; } .ColorScheme-PositiveText { color:#3db47e; } .ColorScheme-NegativeText { color:#dd4747; }
  </style>
  </defs>
  <path
     style="fill:currentColor"
     class="ColorScheme-Text"
     d="M 2.4003906,3 C 1.6247906,3 1,3.6363058 1,4.4277344 V 11.572266 C 1,12.363694 1.6247906,13 2.4003906,13 H 7.136432 l 0.1774688,-0.270904 c 0,0 0.03395,0.09123 0,0 C 7.1082734,12.176505 7.001733,11.591142 7,11 7,8.2385763 9.2385763,6 12,6 12.964551,6.0005022 13.905755,6.2799162 14.711653,6.8008501 14.809845,6.8643215 14.906028,6.6433739 15,6.7139486 v 0 -2.2862142 C 15,3.6363058 14.375209,3 13.599609,3 Z M 12,7 c -2.209139,0 -4,1.790861 -4,4 0,2.209139 1.790861,4 4,4 2.209139,0 4,-1.790861 4,-4 0,-2.209139 -1.790861,-4 -4,-4 z m 0,1 c 1.656854,0 3,1.343146 3,3 0,1.656854 -1.343146,3 -3,3 v -1 c 1.10457,0 2,-0.89543 2,-2 0,-1.104569 -0.89543,-2 -2,-2 -0.759561,0.00357 -1.449115,0.4367596 -1.783593,1.11383 -0.01135,0.02298 0.02993,0.09845 0.01941,0.121985 v 0 L 10.692399,10.692399 10.607298,11 v 0 H 10 9.2740769 v 0 L 9,10.713712 V 9.295737 L 9.1898555,9.1898555 v 0 l 0.1983141,0.1983141 0.097466,-0.01729 c 0.014444,-0.023756 -0.01504,0.023261 0,0 C 10.036333,8.5191624 10.981998,8.0016159 12,8 Z"
     id="path5"
     sodipodi:nodetypes="ssssccsccsccsssssssscsccscsccccccccccccccsc" />
</svg>
