<?xml version="1.0" encoding="UTF-8" standalone="no"?>
<svg
   width="16"
   height="16"
   version="1.1"
   id="svg179087"
   sodipodi:docname="output_win.svg"
   inkscape:version="1.1.2 (0a00cf5339, 2022-02-04)"
   xmlns:inkscape="http://www.inkscape.org/namespaces/inkscape"
   xmlns:sodipodi="http://sodipodi.sourceforge.net/DTD/sodipodi-0.dtd"
   xmlns="http://www.w3.org/2000/svg"
   xmlns:svg="http://www.w3.org/2000/svg">
  <sodipodi:namedview
     id="namedview179089"
     pagecolor="#000000"
     bordercolor="#666666"
     borderopacity="1.0"
     inkscape:pageshadow="2"
     inkscape:pageopacity="0"
     inkscape:pagecheckerboard="0"
     showgrid="false"
     inkscape:zoom="51.6875"
     inkscape:cx="8.0096735"
     inkscape:cy="8"
     inkscape:window-width="1920"
     inkscape:window-height="1051"
     inkscape:window-x="0"
     inkscape:window-y="29"
     inkscape:window-maximized="1"
     inkscape:current-layer="svg179087" />
  <defs
     id="defs179083">
    <style
       id="current-color-scheme"
       type="text/css">
   .ColorScheme-Text { color:#eeeeec; } .ColorScheme-Highlight { color:#367bf0; } .ColorScheme-NeutralText { color:#ffcc44; } .ColorScheme-PositiveText { color:#3db47e; } .ColorScheme-NegativeText { color:#dd4747; }
  </style>
  </defs>
  <path
     style="fill:currentColor"
     class="ColorScheme-Text"
     d="M 3,2 C 3,2 1,2 1,4 v 6 c 0,2 2,2 2,2 h 1 l 1.5504094,2.325614 0.4134708,0.06301 0.4380188,0.0085 L 8,12 h 5 c 0,0 2,0 2,-2 V 4 C 15,2 13,2 13,2 Z m 0,2 h 10 v 6 H 7.136505 v 0 l -0.3126936,0.158814 -0.5874859,0.881229 v 0 L 5.7528536,11.023811 5.1418963,10.107376 4.867328,10 v 0 H 3 Z M 4,5 V 6 H 7 V 5 Z m 0,2 v 1 h 6 V 7 Z"
     id="path179085"
     sodipodi:nodetypes="csscccccccsscccccccccccccccccccccccccc" />
</svg>
