<?xml version="1.0" encoding="UTF-8" standalone="no"?>
<svg
   width="16"
   height="16"
   version="1.1"
   id="svg187670"
   sodipodi:docname="path-simplify.svg"
   inkscape:version="1.1.2 (0a00cf5339, 2022-02-04)"
   xmlns:inkscape="http://www.inkscape.org/namespaces/inkscape"
   xmlns:sodipodi="http://sodipodi.sourceforge.net/DTD/sodipodi-0.dtd"
   xmlns="http://www.w3.org/2000/svg"
   xmlns:svg="http://www.w3.org/2000/svg">
  <sodipodi:namedview
     id="namedview187672"
     pagecolor="#000000"
     bordercolor="#666666"
     borderopacity="1.0"
     inkscape:pageshadow="2"
     inkscape:pageopacity="0"
     inkscape:pagecheckerboard="0"
     showgrid="false"
     inkscape:zoom="51.6875"
     inkscape:cx="7.9903265"
     inkscape:cy="8"
     inkscape:window-width="1920"
     inkscape:window-height="1051"
     inkscape:window-x="0"
     inkscape:window-y="29"
     inkscape:window-maximized="1"
     inkscape:current-layer="svg187670" />
  <defs
     id="defs187666">
    <style
       id="current-color-scheme"
       type="text/css">
   .ColorScheme-Text { color:#eeeeec; } .ColorScheme-Highlight { color:#367bf0; } .ColorScheme-NeutralText { color:#ffcc44; } .ColorScheme-PositiveText { color:#3db47e; } .ColorScheme-NegativeText { color:#dd4747; }
  </style>
  </defs>
  <path
     style="fill:currentColor"
     class="ColorScheme-Text"
     d="m 8.2441893,10.674414 v 0 L 10.734171,7.3544392 10.533144,7 V 7 L 5.4440738,7 5.2373604,7.3164805 v 0 L 7.7615892,10.682119 Z M 11,2 C 9.6667,2 8.5527,2.6055 7.5527,3.1055 6.5527,3.6055 5.6667,4 5,4 4.1667,4 3.578,3.7958 3.1973,3.6055 2.8165,3.4151 2.707,3.293 2.707,3.293 1.7646,2.3074 0.39526,3.8093 1.293,4.707 c 0,0 0.3905,0.3779 1.0097,0.6875 C 2.922,5.7042 3.8333,6 5,6 6.3333,6 7.4473,5.3945 8.4473,4.8945 9.4473,4.3945 10.333,4 11,4 c 0.833,0 1.422,0.2042 1.803,0.3945 0.38,0.1904 0.49,0.3125 0.49,0.3125 0.871,0.9118 2.335,-0.4928 1.414,-1.414 0,0 -0.39,-0.3779 -1.01,-0.6875 C 13.078,2.2958 12.167,2 11,2 Z M 2,12 h 12 c 1,0 1,1 1,1 0,0 0,1 -1,1 H 2 C 1,14 1,13 1,13 1,13 1,12 2,12 Z"
     id="path187668"
     sodipodi:nodetypes="ccccccccccsssccccsssccccssscsscs" />
</svg>
