<?xml version="1.0" encoding="UTF-8" standalone="no"?>
<svg
   width="16"
   height="16"
   version="1.1"
   id="svg141305"
   sodipodi:docname="path-effect-parameter-next.svg"
   inkscape:version="1.1.2 (0a00cf5339, 2022-02-04)"
   xmlns:inkscape="http://www.inkscape.org/namespaces/inkscape"
   xmlns:sodipodi="http://sodipodi.sourceforge.net/DTD/sodipodi-0.dtd"
   xmlns="http://www.w3.org/2000/svg"
   xmlns:svg="http://www.w3.org/2000/svg">
  <sodipodi:namedview
     id="namedview141307"
     pagecolor="#000000"
     bordercolor="#666666"
     borderopacity="1.0"
     inkscape:pageshadow="2"
     inkscape:pageopacity="0"
     inkscape:pagecheckerboard="0"
     showgrid="false"
     inkscape:zoom="51.6875"
     inkscape:cx="7.9903265"
     inkscape:cy="8"
     inkscape:window-width="1920"
     inkscape:window-height="1051"
     inkscape:window-x="0"
     inkscape:window-y="29"
     inkscape:window-maximized="1"
     inkscape:current-layer="svg141305" />
  <defs
     id="defs141299">
    <style
       id="current-color-scheme"
       type="text/css">
   .ColorScheme-Text { color:#eeeeec; } .ColorScheme-Highlight { color:#367bf0; } .ColorScheme-NeutralText { color:#ffcc44; } .ColorScheme-PositiveText { color:#3db47e; } .ColorScheme-NegativeText { color:#dd4747; }
  </style>
  </defs>
  <path
     style="fill:currentColor"
     class="ColorScheme-Text"
     d="M 13,1.5 C 9.4048,1.5 6.5065,2.5365 4.5215,4.5215 2.5365,6.5065 1.5,9.4048 1.5,13 H 2.5 C 2.5,9.5952 3.4635,6.9935 5.2285,5.2285 6.9935,3.4635 9.5952,2.5 13,2.5 Z"
     id="path141301" />
  <path
     style="fill:currentColor"
     class="ColorScheme-Text"
     d="M 0.29492,5.0957 C 0.10068246,5.5384081 2.6573898e-4,6.0165554 0,6.5 0,8.4329966 1.5670034,10 3.5,10 5.1215328,9.9981753 6.5294872,8.8827946 6.9023,7.3047 6.183315,7.7587958 5.3503778,7.9998736 4.5,8 2.6312306,7.9989611 0.95758543,6.8430336 0.29492,5.0957 Z M 6,0.50195 C 5.3710341,0.97367408 5.0006134,1.713793 5,2.5 5,3.8807119 6.1192881,5 7.5,5 8.2855205,4.9987739 9.0247881,4.6284179 9.4961,4 7.5653877,3.9978489 6.0010745,2.4326632 6,0.50195 Z M 4,14 c 0,1.104569 -0.8954305,2 -2,2 -1.1045695,0 -2,-0.895431 -2,-2 0,-1.104569 0.8954305,-2 2,-2 1.1045695,0 2,0.895431 2,2 z M 16,2 c 0,1.1045695 -0.895431,2 -2,2 -1.104569,0 -2,-0.8954305 -2,-2 0,-1.1045695 0.895431,-2 2,-2 1.104569,0 2,0.8954305 2,2 z m -0.808565,5 v 0 h 0.667494 V 7 L 16,7.1581423 V 15.781813 L 15.842666,16 v 0 h -0.669268 v 0 L 15,15.826028 V 12.399782 L 14.86085,12.232311 15,10.611038 v 0 -3.4603592 z M 9,7.489187 9.3825055,7.2458964 14.816579,10.739229 15,10.611038 16,11.5 14.86085,12.232311 9.4232555,15.727907 9,15.507474 v 0 z"
     id="path141303"
     sodipodi:nodetypes="cccccccccccssssssssssccccccccccccccccccccccccccc" />
</svg>
