<?xml version="1.0" encoding="UTF-8" standalone="no"?>
<svg
   width="16"
   height="16"
   version="1.1"
   id="svg7"
   sodipodi:docname="project-development-close-all.svg"
   inkscape:version="1.1.2 (0a00cf5339, 2022-02-04)"
   xmlns:inkscape="http://www.inkscape.org/namespaces/inkscape"
   xmlns:sodipodi="http://sodipodi.sourceforge.net/DTD/sodipodi-0.dtd"
   xmlns="http://www.w3.org/2000/svg"
   xmlns:svg="http://www.w3.org/2000/svg">
  <sodipodi:namedview
     id="namedview9"
     pagecolor="#000000"
     bordercolor="#666666"
     borderopacity="1.0"
     inkscape:pageshadow="2"
     inkscape:pageopacity="0"
     inkscape:pagecheckerboard="0"
     showgrid="false"
     inkscape:zoom="51.6875"
     inkscape:cx="7.9903265"
     inkscape:cy="12.643289"
     inkscape:window-width="1920"
     inkscape:window-height="1051"
     inkscape:window-x="0"
     inkscape:window-y="29"
     inkscape:window-maximized="1"
     inkscape:current-layer="svg7" />
  <defs
     id="defs3">
    <style
       id="current-color-scheme"
       type="text/css">
   .ColorScheme-Text { color:#eeeeec; } .ColorScheme-Highlight { color:#367bf0; } .ColorScheme-NeutralText { color:#ffcc44; } .ColorScheme-PositiveText { color:#3db47e; } .ColorScheme-NegativeText { color:#dd4747; }
  </style>
  </defs>
  <path
     style="fill:currentColor"
     class="ColorScheme-Text"
     d="M 2,1 C 2,1 1,1 1,2 v 12 c 0,1 1,1 1,1 H 9 V 13 H 3 V 6 h 10 v 3 h 2 V 2 C 15,1 14,1 14,1 Z m 8,9.419526 v 0 V 11.414 L 11.586,13 10,14.586 v 0.90335 L 10.432687,16 v 0 H 11.414 L 13,14.414 14.586,16 h 1.005492 v 0 L 16,15.504895 V 14.586 L 14.414,13 16,11.414 v -1.023425 0 L 15.5108,10 H 14.586 L 13,11.586 11.414,10 h -0.985101 z"
     id="path5"
     sodipodi:nodetypes="cssccccccccsccccccccccccccccccccccccccc" />
</svg>
