<?xml version="1.0" encoding="UTF-8" standalone="no"?>
<svg
   width="16"
   height="16"
   version="1.1"
   viewBox="0 0 16 16"
   id="svg7"
   sodipodi:docname="query-free-busy.svg"
   inkscape:version="1.1.2 (0a00cf5339, 2022-02-04)"
   xmlns:inkscape="http://www.inkscape.org/namespaces/inkscape"
   xmlns:sodipodi="http://sodipodi.sourceforge.net/DTD/sodipodi-0.dtd"
   xmlns="http://www.w3.org/2000/svg"
   xmlns:svg="http://www.w3.org/2000/svg">
  <sodipodi:namedview
     id="namedview9"
     pagecolor="#000000"
     bordercolor="#666666"
     borderopacity="1.0"
     inkscape:pageshadow="2"
     inkscape:pageopacity="0"
     inkscape:pagecheckerboard="0"
     showgrid="false"
     inkscape:zoom="47.25"
     inkscape:cx="8"
     inkscape:cy="8"
     inkscape:window-width="1880"
     inkscape:window-height="966"
     inkscape:window-x="0"
     inkscape:window-y="29"
     inkscape:window-maximized="1"
     inkscape:current-layer="svg7" />
  <defs
     id="defs3">
    <style
       id="current-color-scheme"
       type="text/css">
   .ColorScheme-Text { color:#eeeeec; } .ColorScheme-Highlight { color:#367bf0; } .ColorScheme-NeutralText { color:#ffcc44; } .ColorScheme-PositiveText { color:#3db47e; } .ColorScheme-NegativeText { color:#dd4747; }
  </style>
  </defs>
  <path
     style="fill:currentColor"
     class="ColorScheme-Text"
     d="M 8,0 C 5.7909,-5.5e-6 4,1.7909 4,4 c 1.66e-5,2.2091 1.7909,4 4,4 2.2091,6e-6 4,-1.7909 4,-4 C 12,1.7909 10.209,0 8,0 Z M 8,8.9863281 C 3.972,8.9911281 0.5035,12.004 0,16 h 9.4222121 v 0 c -0.099764,-0.07977 0.09446,-0.163519 0.0016,-0.251014 C 8.5539963,14.92938 8,13.781226 8,12.5 8,11.250019 8.5281239,10.11654 9.3620435,9.299243 9.4641292,9.1991923 9.2059854,9.0969747 9.3168284,9.0067668 c -0.1220114,-0.0024 0.120316,0.0022 0,0 C 8.7089068,8.9956647 8.1563552,8.9874968 8,8.9863281 Z M 12.5,9 C 10.567003,9 9,10.567003 9,12.5 9,14.432997 10.567003,16 12.5,16 14.432997,16 16,14.432997 16,12.5 16,10.567003 14.432997,9 12.5,9 Z M 12,10 h 1 v 1 H 12 Z M 12,12.258608 12.258037,12 H 12.78744 L 13,12.279815 v 0 2.476074 0 L 12.766191,15 h -0.529403 v 0 L 12,14.713476 Z"
     id="path5"
     sodipodi:nodetypes="cccscccccssscscsssssccccccccccccccccc" />
</svg>
