<?xml version="1.0" encoding="UTF-8" standalone="no"?>
<svg
   width="16"
   height="16"
   version="1.1"
   id="svg74074"
   sodipodi:docname="replay-play.svg"
   inkscape:version="1.1.2 (0a00cf5339, 2022-02-04)"
   xmlns:inkscape="http://www.inkscape.org/namespaces/inkscape"
   xmlns:sodipodi="http://sodipodi.sourceforge.net/DTD/sodipodi-0.dtd"
   xmlns="http://www.w3.org/2000/svg"
   xmlns:svg="http://www.w3.org/2000/svg">
  <sodipodi:namedview
     id="namedview74076"
     pagecolor="#000000"
     bordercolor="#666666"
     borderopacity="1.0"
     inkscape:pageshadow="2"
     inkscape:pageopacity="0"
     inkscape:pagecheckerboard="0"
     showgrid="false"
     inkscape:zoom="51.6875"
     inkscape:cx="7.9903265"
     inkscape:cy="8"
     inkscape:window-width="1920"
     inkscape:window-height="1051"
     inkscape:window-x="0"
     inkscape:window-y="29"
     inkscape:window-maximized="1"
     inkscape:current-layer="svg74074" />
  <defs
     id="defs74070">
    <style
       id="current-color-scheme"
       type="text/css">
   .ColorScheme-Text { color:#eeeeec; } .ColorScheme-Highlight { color:#367bf0; } .ColorScheme-NeutralText { color:#ffcc44; } .ColorScheme-PositiveText { color:#3db47e; } .ColorScheme-NegativeText { color:#dd4747; }
  </style>
  </defs>
  <path
     style="fill:currentColor"
     class="ColorScheme-Text"
     d="M 8,0 C 3.581722,0 0,3.581722 0,8 c 0,4.418278 3.581722,8 8,8 0.501907,-0.0057 1.0021596,-0.05871 1.4941406,-0.158203 C 8.9325328,15.334394 8.5079796,14.693534 8.2597656,13.978516 8.1733429,13.987558 8.0867339,13.994721 8,14 4.6862915,14 2,11.313708 2,8 2,4.6862915 4.6862915,2 8,2 c 3.313708,0 6,2.6862915 6,6 -0.0047,0.084112 -0.01125,0.1681152 -0.01953,0.2519531 0.71452,0.2490618 1.354699,0.6742802 1.861328,1.2363281 C 15.940923,8.9982211 15.993889,8.4999474 16,8 16,3.581722 12.418278,0 8,0 Z M 8,4 C 5.790861,4 4,5.790861 4,8 c 0,2.209139 1.790861,4 4,4 0.011724,-0.0013 0.023443,-0.0026 0.035156,-0.0039 C 8.2725964,9.9147875 9.9147875,8.2725964 11.996094,8.0351562 11.997448,8.0234433 11.99875,8.0117244 12,8 12,5.790861 10.209139,4 8,4 Z m 4.5,5 C 10.567003,9 9,10.567003 9,12.5 9,14.432997 10.567003,16 12.5,16 14.432997,16 16,14.432997 16,12.5 16,10.567003 14.432997,9 12.5,9 Z M 11,10.518935 11.431739,10.269837 13,11.25 l 1.604926,1.003078 0.02552,0.477893 v 0 L 13,13.75 11.445806,14.721371 v 0 L 11,14.382632 V 12.5 Z"
     id="path74072"
     sodipodi:nodetypes="ssccccssccccsssccccssssssccccccccccccc" />
</svg>
