<?xml version="1.0" encoding="UTF-8" standalone="no"?>
<svg
   width="16"
   height="16"
   version="1.1"
   id="svg8480"
   sodipodi:docname="reply-all-rtl.svg"
   inkscape:version="1.1.2 (0a00cf5339, 2022-02-04)"
   xmlns:inkscape="http://www.inkscape.org/namespaces/inkscape"
   xmlns:sodipodi="http://sodipodi.sourceforge.net/DTD/sodipodi-0.dtd"
   xmlns="http://www.w3.org/2000/svg"
   xmlns:svg="http://www.w3.org/2000/svg">
  <sodipodi:namedview
     id="namedview8482"
     pagecolor="#000000"
     bordercolor="#666666"
     borderopacity="1.0"
     inkscape:pageshadow="2"
     inkscape:pageopacity="0"
     inkscape:pagecheckerboard="0"
     showgrid="false"
     inkscape:zoom="51.6875"
     inkscape:cx="8.0096735"
     inkscape:cy="8"
     inkscape:window-width="1920"
     inkscape:window-height="1051"
     inkscape:window-x="0"
     inkscape:window-y="29"
     inkscape:window-maximized="1"
     inkscape:current-layer="svg8480" />
  <defs
     id="defs8476">
    <style
       id="current-color-scheme"
       type="text/css">
   .ColorScheme-Text { color:#eeeeec; } .ColorScheme-Highlight { color:#367bf0; } .ColorScheme-NeutralText { color:#ffcc44; } .ColorScheme-PositiveText { color:#3db47e; } .ColorScheme-NegativeText { color:#dd4747; }
  </style>
  </defs>
  <path
     style="fill:currentColor"
     class="ColorScheme-Text"
     d="M 9.5,1.9198997 9.8395795,1.7350935 15.601976,5.7244448 15.67956,6.221843 v 0 L 9.9119912,10.214775 9.5,10.103562 v 0 V 9.1152 l 4.269177,-2.9554087 7.74e-4,-0.3190466 v 0 L 9.5,2.8848 Z M 6,1.9586723 v 0 1.8172119 L 5.7427189,4 V 4 H 5 C 2,4 0,6 0,9 c 0,2.700335 2.2505591,4.162863 3.3754192,4.72521 0.3747671,0.187355 0,0 0,0 0,0 0.4968634,0.08747 0.3159635,-0.210147 C 3.2523293,12.792728 2.5,11.420665 2.5,10.5 2.5,9.2 4,8 5.5,8 H 5.7346832 L 5.8452237,8.159632 6,8.2449684 v 1.8198216 0 l 0.4591685,0.117324 5.7455235,-3.9776702 v 0 L 12.158225,5.7633868 6.4493753,1.811106 Z"
     id="path8478"
     sodipodi:nodetypes="ccccccccccccccccccccssscsscsccccccccc" />
</svg>
