<?xml version="1.0" encoding="UTF-8" standalone="no"?>
<svg
   width="16"
   height="16"
   version="1.1"
   id="svg9"
   sodipodi:docname="replay-record-error.svg"
   inkscape:version="1.1.2 (0a00cf5339, 2022-02-04)"
   xmlns:inkscape="http://www.inkscape.org/namespaces/inkscape"
   xmlns:sodipodi="http://sodipodi.sourceforge.net/DTD/sodipodi-0.dtd"
   xmlns="http://www.w3.org/2000/svg"
   xmlns:svg="http://www.w3.org/2000/svg">
  <sodipodi:namedview
     id="namedview11"
     pagecolor="#ffffff"
     bordercolor="#666666"
     borderopacity="1.0"
     inkscape:pageshadow="2"
     inkscape:pageopacity="0.0"
     inkscape:pagecheckerboard="0"
     showgrid="false"
     inkscape:zoom="47.25"
     inkscape:cx="8"
     inkscape:cy="8"
     inkscape:window-width="1880"
     inkscape:window-height="966"
     inkscape:window-x="0"
     inkscape:window-y="29"
     inkscape:window-maximized="1"
     inkscape:current-layer="svg9" />
  <defs
     id="defs3">
    <style
       id="current-color-scheme"
       type="text/css">
   .ColorScheme-Text { color:#eeeeec; } .ColorScheme-Highlight { color:#367bf0; } .ColorScheme-NeutralText { color:#ffcc44; } .ColorScheme-PositiveText { color:#3db47e; } .ColorScheme-NegativeText { color:#dd4747; }
  </style>
  </defs>
  <path
     style="fill:currentColor"
     class="ColorScheme-NegativeText"
     d="M 12.5,9 C 10.567003,9 9,10.567003 9,12.5 9,14.432997 10.567003,16 12.5,16 14.432997,16 16,14.432997 16,12.5 16,10.567003 14.432997,9 12.5,9 Z M 10,12.301022 10.311026,12 h 4.402175 L 15,12.279815 v 0 0.423176 0 L 14.755699,13 h -4.486564 v 0 L 10,12.681783 Z"
     id="path5"
     sodipodi:nodetypes="sssssccccccccccccc" />
  <path
     style="fill:currentColor"
     class="ColorScheme-Text"
     d="M 8 0 C 3.581722 0 0 3.581722 0 8 C 0 12.418278 3.581722 16 8 16 C 8.501907 15.9943 9.0021596 15.94129 9.4941406 15.841797 C 8.9325328 15.334394 8.5079796 14.693534 8.2597656 13.978516 C 8.1733429 13.987558 8.0867339 13.994721 8 14 C 4.6862915 14 2 11.313708 2 8 C 2 4.6862915 4.6862915 2 8 2 C 11.313708 2 14 4.6862915 14 8 C 13.9953 8.084112 13.988749 8.1681152 13.980469 8.2519531 C 14.694989 8.5010149 15.335168 8.9262333 15.841797 9.4882812 C 15.940921 8.9982213 15.993889 8.4999474 16 8 C 16 3.581722 12.418278 0 8 0 z M 8 4 C 5.790861 4 4 5.790861 4 8 C 4 10.209139 5.790861 12 8 12 L 8.0351562 11.996094 C 8.2725968 9.9147749 9.9147869 8.2725964 11.996094 8.0351562 C 11.997448 8.0234435 11.99875 8.0117244 12 8 C 12 5.790861 10.209139 4 8 4 z"
     id="path7" />
</svg>
