<?xml version="1.0" encoding="UTF-8" standalone="no"?>
<svg
   width="16"
   height="16"
   version="1.1"
   id="svg7"
   sodipodi:docname="star-off.svg"
   inkscape:version="1.1.2 (0a00cf5339, 2022-02-04)"
   xmlns:inkscape="http://www.inkscape.org/namespaces/inkscape"
   xmlns:sodipodi="http://sodipodi.sourceforge.net/DTD/sodipodi-0.dtd"
   xmlns="http://www.w3.org/2000/svg"
   xmlns:svg="http://www.w3.org/2000/svg">
  <sodipodi:namedview
     id="namedview9"
     pagecolor="#000000"
     bordercolor="#666666"
     borderopacity="1.0"
     inkscape:pageshadow="2"
     inkscape:pageopacity="0"
     inkscape:pagecheckerboard="0"
     showgrid="false"
     inkscape:zoom="51.6875"
     inkscape:cx="7.9903265"
     inkscape:cy="8"
     inkscape:window-width="1070"
     inkscape:window-height="1043"
     inkscape:window-x="375"
     inkscape:window-y="32"
     inkscape:window-maximized="1"
     inkscape:current-layer="svg7" />
  <defs
     id="defs3">
    <style
       id="current-color-scheme"
       type="text/css">.ColorScheme-Text {
        color:#dedede;
      }</style>
  </defs>
  <path
     d="M 7.9595,1 C 7.577034,1.0160386 7.2372847,1.2490095 7.0845,1.6 L 5.5965,5 h -3.846 c -0.92,0.001 -1.35,1.137 -0.664,1.748 l 2.994,2.652 -1.521,4.264 c -0.315,0.887 0.658,1.679 1.462,1.19 l 3.979,-2.432 3.978,2.432 c 0.804833,0.49175 1.780542,-0.301889 1.463,-1.19 L 11.9205,9.4 14.9145,6.748 C 15.602737,6.1373289 15.170603,4.9997228 14.2505,5 h -3.846 L 9.0005,1.791 8.9165,1.6 C 8.8784401,1.5133525 8.828273,1.4325464 8.7675,1.36 L 8.7565,1.346 C 8.6965762,1.2776234 8.6276074,1.2177383 8.5515,1.168 8.5508343,1.1673324 8.5501676,1.1666657 8.5495,1.166 L 8.5375,1.16 C 8.4634975,1.1120017 8.3834698,1.0740054 8.2995,1.047 L 8.2805,1.04 C 8.1895332,1.013468 8.0952571,1 8.0005,1 7.9868348,0.9997198 7.9731652,0.9997198 7.9595,1 Z M 8.0005,2.3687822 8.2126662,2.4847999 9.0005,4.285 9.7505,6 h 3.89917 V 6 L 13.773701,6.4225804 10.7505,9.102 l 1.548217,4.333238 v 0 L 11.992798,13.689839 8.8715,11.783 8.0005,11.25 4.0699696,13.651991 v 0 L 3.7344681,13.345157 5.2505,9.102 2.1327925,6.3388204 2.3147342,6 V 6 L 6.2505,6 7.7882681,2.4851016 Z"
     class="ColorScheme-Text"
     fill="currentColor"
     opacity="0.3"
     id="path5"
     sodipodi:nodetypes="ccccccccccccccccccccccccccccccccccccccccccccccccc" />
</svg>
