<?xml version="1.0" encoding="UTF-8" standalone="no"?>
<svg
   width="16"
   height="16"
   viewBox="0 0 16 16"
   version="1.1"
   id="svg7"
   sodipodi:docname="rime-im.svg"
   inkscape:version="1.1.2 (0a00cf5339, 2022-02-04)"
   xmlns:inkscape="http://www.inkscape.org/namespaces/inkscape"
   xmlns:sodipodi="http://sodipodi.sourceforge.net/DTD/sodipodi-0.dtd"
   xmlns="http://www.w3.org/2000/svg"
   xmlns:svg="http://www.w3.org/2000/svg">
  <sodipodi:namedview
     id="namedview9"
     pagecolor="#ffffff"
     bordercolor="#666666"
     borderopacity="1.0"
     inkscape:pageshadow="2"
     inkscape:pageopacity="0.0"
     inkscape:pagecheckerboard="0"
     showgrid="false"
     inkscape:zoom="47.125"
     inkscape:cx="8"
     inkscape:cy="8"
     inkscape:window-width="1745"
     inkscape:window-height="966"
     inkscape:window-x="0"
     inkscape:window-y="29"
     inkscape:window-maximized="1"
     inkscape:current-layer="svg7" />
  <defs
     id="defs3">
    <style
       id="current-color-scheme"
       type="text/css">
   .ColorScheme-Text { color:#eeeeec; } .ColorScheme-Highlight { color:#367bf0; } .ColorScheme-NeutralText { color:#ffcc44; } .ColorScheme-PositiveText { color:#3db47e; } .ColorScheme-NegativeText { color:#dd4747; }
  </style>
  </defs>
  <path
     style="fill:currentColor"
     class="ColorScheme-Text"
     d="M 8.109375,0 C 5.9472315,-0.03112474 3.8645749,0.81433806 2.3359375,2.34375 c -3.12338875,3.1240561 -3.12338875,8.188444 0,11.3125 3.1240561,3.123389 8.1884445,3.123389 11.3125005,0 3.123389,-3.124056 3.123389,-8.1884439 0,-11.3125 C 12.177226,0.87176138 10.190301,0.03103121 8.109375,0 Z m -0.21875,1 c 1.7174539,-0.0218723 3.383005,0.5884592 4.679687,1.7148438 L 11.166016,4.1191406 C 9.6674116,2.7357474 7.9234073,1.7904346 6.2911744,1.4637815 c -0.1845975,-0.036943 0.1812215,0.020856 0,0 C 6.4670514,1.4035141 6.0960662,1.2635195 6.2757592,1.2175305 6.8031306,1.08256 7.3450703,1.0094092 7.890625,1 Z M 4.8632812,2.3066406 C 6.5343146,2.2118167 8.6564832,3.1684228 10.457031,4.828125 L 7.9921875,7.2929688 3.4414062,2.7421875 C 3.8344212,2.488213 4.3154596,2.340862 4.8632812,2.3066406 Z m 8.4199218,1.109375 c 1.505761,1.7434246 2.05038,4.1062499 1.482433,6.3165238 -0.04256,0.1656392 0.05512,-0.1636009 0,0 C 14.745263,9.5651333 14.571461,9.8901378 14.537427,9.7199121 14.209877,8.0816246 13.259198,6.331486 11.869141,4.8300781 Z M 2.7324219,3.4472656 7.2851562,8 4.8183594,10.466797 C 2.5636291,8.0170999 1.6907348,5.0796634 2.7324219,3.4472656 Z m 8.4335941,2.0859375 c 2.25473,2.4496971 3.127624,5.3871329 2.085937,7.0195309 L 8.6992188,8 Z M 1.4424779,6.257539 c 0.019473,0.1600121 -0.031962,-0.1626045 0,0 0.3233041,1.6447672 1.2763199,3.4040845 2.6727565,4.912383 L 2.7011719,12.583984 C 1.1984906,10.844125 0.65302373,8.4873965 1.2152682,6.2810237 1.2586417,6.1108161 1.3858509,6.4256048 1.4424779,6.257539 Z M 7.9921875,8.7070312 12.542969,13.257812 C 10.910378,14.297003 7.9755036,13.424384 5.5273438,11.171875 Z M 4.8183594,11.880859 c 1.4952736,1.380319 3.2348575,2.324502 4.8639567,2.653172 0.1882824,0.03799 -0.184783,-0.02127 0,0 -0.1896835,0.06426 0.1789043,0.209047 -0.013473,0.256422 -2.1932522,0.540117 -4.528638,-0.01072 -6.2547803,-1.505297 z"
     id="path5"
     sodipodi:nodetypes="cccccccccscscccccccscscccccccccccsccsccccccscscc" />
</svg>
