<?xml version="1.0" encoding="UTF-8" standalone="no"?>
<svg
   width="16"
   height="16"
   version="1.1"
   id="svg47791"
   sodipodi:docname="seahorse-sign-ok.svg"
   inkscape:version="1.1.2 (0a00cf5339, 2022-02-04)"
   xmlns:inkscape="http://www.inkscape.org/namespaces/inkscape"
   xmlns:sodipodi="http://sodipodi.sourceforge.net/DTD/sodipodi-0.dtd"
   xmlns="http://www.w3.org/2000/svg"
   xmlns:svg="http://www.w3.org/2000/svg">
  <sodipodi:namedview
     id="namedview47793"
     pagecolor="#000000"
     bordercolor="#666666"
     borderopacity="1.0"
     inkscape:pageshadow="2"
     inkscape:pageopacity="0"
     inkscape:pagecheckerboard="0"
     showgrid="false"
     inkscape:zoom="51.6875"
     inkscape:cx="8.0096735"
     inkscape:cy="8"
     inkscape:window-width="1920"
     inkscape:window-height="1051"
     inkscape:window-x="0"
     inkscape:window-y="29"
     inkscape:window-maximized="1"
     inkscape:current-layer="svg47791" />
  <defs
     id="defs47783">
    <style
       id="current-color-scheme"
       type="text/css">
   .ColorScheme-Text { color:#eeeeec; } .ColorScheme-Highlight { color:#367bf0; } .ColorScheme-NeutralText { color:#ffcc44; } .ColorScheme-PositiveText { color:#3db47e; } .ColorScheme-NegativeText { color:#dd4747; }
  </style>
  </defs>
  <path
     style="fill:currentColor"
     class="ColorScheme-Text"
     d="M 5,11 4.7018143,11.988504 5,12.333598 5,15.604149 v 0 L 5.4621317,15.691912 8,14 v -2.704958 0 L 7.7926688,11 Z"
     id="path47785"
     sodipodi:nodetypes="ccccccccccc" />
  <path
     style="fill:currentColor"
     class="ColorScheme-Text"
     d="M 8,1 C 4.6863,1 2,3.6863 2,7 c 0,3.314 2.6863,6 6,6 v 0 -1.757141 l -0.090228,-0.148148 v 0 c 0,0 -0.055997,-0.09669 -0.128367,-0.100583 C 5.6739576,10.880623 4,9.1357575 4,7 4,4.7909 5.7909,3 8,3 10.209,3 12,4.7909 12,7 12,8.0266339 11.604998,9.0089701 10.905801,9.7481663 10.823075,9.8356242 11.09517,9.9196786 11.004079,10 v 0 H 13.195 C 13.722,9.088 14,8.0533 14,7 14,3.6863 11.314,1 8,1 Z M 7.9492,4 C 6.3122,4.0277 4.9998,5.3628 5,7 5,8.6569 6.3431,10 8,10 9.6569,10 11,8.6569 11,7 11,5.3431 9.6569,4 8,4 7.9831,3.9999 7.9661,3.9999 7.9492,4 Z"
     id="path47787"
     sodipodi:nodetypes="ssscccsssssscccssccsscc" />
  <path
     style="fill:currentColor"
     class="ColorScheme-Text"
     d="m 14.776736,10.223264 v 0 l -2.598277,2.598277 -0.365375,-0.0085 v 0 l -1.601003,-1.601003 v 0 l -0.4448512,0.02069 -0.5245824,0.524583 -0.022676,0.462618 v 0 l 2.575309,2.575309 0.422171,-0.01273 v 0 l 3.547291,-3.547291 0.01127,-0.459244 v 0 l -0.532816,-0.532816 z"
     id="path47789"
     sodipodi:nodetypes="ccccccccccccccccccc" />
</svg>
