<?xml version="1.0" encoding="UTF-8" standalone="no"?>
<svg
   width="16"
   height="16"
   version="1.1"
   id="svg9"
   sodipodi:docname="seahorse-sign.svg"
   inkscape:version="1.1.2 (0a00cf5339, 2022-02-04)"
   xmlns:inkscape="http://www.inkscape.org/namespaces/inkscape"
   xmlns:sodipodi="http://sodipodi.sourceforge.net/DTD/sodipodi-0.dtd"
   xmlns="http://www.w3.org/2000/svg"
   xmlns:svg="http://www.w3.org/2000/svg">
  <sodipodi:namedview
     id="namedview11"
     pagecolor="#000000"
     bordercolor="#666666"
     borderopacity="1.0"
     inkscape:pageshadow="2"
     inkscape:pageopacity="0"
     inkscape:pagecheckerboard="0"
     showgrid="false"
     inkscape:zoom="51.6875"
     inkscape:cx="7.9903265"
     inkscape:cy="12.643289"
     inkscape:window-width="1920"
     inkscape:window-height="1051"
     inkscape:window-x="0"
     inkscape:window-y="29"
     inkscape:window-maximized="1"
     inkscape:current-layer="svg9" />
  <defs
     id="defs3">
    <style
       id="current-color-scheme"
       type="text/css">
   .ColorScheme-Text { color:#eeeeec; } .ColorScheme-Highlight { color:#367bf0; } .ColorScheme-NeutralText { color:#ffcc44; } .ColorScheme-PositiveText { color:#3db47e; } .ColorScheme-NegativeText { color:#dd4747; }
  </style>
  </defs>
  <path
     style="fill:currentColor"
     class="ColorScheme-Text"
     d="M 5,11 4.6513648,11.542702 5,12.338152 v 3.163004 l 0.4246543,0.215741 v 0 0 l 2.3394616,-1.559641 v 0 l 0.518262,0.031 2.2006661,1.467111 L 11,15.552867 v 0 0 -3.228618 L 11.44399,11.685752 11,11"
     id="path5"
     sodipodi:nodetypes="ccccccccccccccccc" />
  <path
     style="fill:currentColor"
     class="ColorScheme-Text"
     d="M 11,7 A 3,3 0 0 1 8,10 3,3 0 0 1 5,7 3,3 0 0 1 8,4 3,3 0 0 1 11,7 M 8,1 A 6,6 0 0 0 2,7 6,6 0 0 0 8,13 6,6 0 0 0 14,7 6,6 0 0 0 8,1 Z M 8,3 A 4,4 0 0 1 12,7 4,4 0 0 1 8,11 4,4 0 0 1 4,7 4,4 0 0 1 8,3 Z"
     id="path7" />
</svg>
