<?xml version="1.0" encoding="UTF-8" standalone="no"?>
<svg
   width="16"
   height="16"
   viewBox="0 0 16 16"
   version="1.1"
   id="svg7"
   sodipodi:docname="selection-move-to-layer-below.svg"
   inkscape:version="1.1.2 (0a00cf5339, 2022-02-04)"
   xmlns:inkscape="http://www.inkscape.org/namespaces/inkscape"
   xmlns:sodipodi="http://sodipodi.sourceforge.net/DTD/sodipodi-0.dtd"
   xmlns="http://www.w3.org/2000/svg"
   xmlns:svg="http://www.w3.org/2000/svg">
  <sodipodi:namedview
     id="namedview9"
     pagecolor="#000000"
     bordercolor="#666666"
     borderopacity="1.0"
     inkscape:pageshadow="2"
     inkscape:pageopacity="0"
     inkscape:pagecheckerboard="0"
     showgrid="false"
     inkscape:zoom="47.25"
     inkscape:cx="8"
     inkscape:cy="8"
     inkscape:window-width="1880"
     inkscape:window-height="966"
     inkscape:window-x="0"
     inkscape:window-y="29"
     inkscape:window-maximized="1"
     inkscape:current-layer="svg7" />
  <defs
     id="defs3">
    <style
       id="current-color-scheme"
       type="text/css">
   .ColorScheme-Text { color:#eeeeec; } .ColorScheme-Highlight { color:#367bf0; } .ColorScheme-NeutralText { color:#ffcc44; } .ColorScheme-PositiveText { color:#3db47e; } .ColorScheme-NegativeText { color:#dd4747; }
  </style>
  </defs>
  <path
     style="fill:currentColor"
     class="ColorScheme-Text"
     d="m 1.286558,1.3820773 c 0.2821343,0.3128999 -0.081181,-0.1131033 0,0 L 4,5 h 8 v 3.8089399 l -0.166075,0.044649 v 0 L 10.810596,7.7588639 10.523887,7.732416 v 0 l -0.381776,0.3999558 0.06796,0.3759817 v 0 L 12.3125,10.78125 h 0.375 v 0 l 2.145155,-2.319086 -0.02492,-0.3823357 v 0 L 14.518055,7.7763551 14.13901,7.8127743 v 0 l -0.970877,1.0386128 v 0 L 13,8.7665266 V 5 L 10,1 H 1.464783 Z m -0.020519,9.9726407 v 0 L 4,15 h 8.618056 l 0.112028,-0.359888 v 0 L 10,11 H 1.4860323 Z"
     id="path5"
     sodipodi:nodetypes="cccccccccccccccccccccccccccccccccccccc" />
</svg>
