<?xml version="1.0" encoding="UTF-8" standalone="no"?>
<svg
   version="1.1"
   viewBox="0 0 16 16"
   id="svg10"
   sodipodi:docname="semi-starred.svg"
   inkscape:version="1.1.2 (0a00cf5339, 2022-02-04)"
   xmlns:inkscape="http://www.inkscape.org/namespaces/inkscape"
   xmlns:sodipodi="http://sodipodi.sourceforge.net/DTD/sodipodi-0.dtd"
   xmlns="http://www.w3.org/2000/svg"
   xmlns:svg="http://www.w3.org/2000/svg">
  <defs
     id="defs14" />
  <sodipodi:namedview
     id="namedview12"
     pagecolor="#000000"
     bordercolor="#666666"
     borderopacity="1.0"
     inkscape:pageshadow="2"
     inkscape:pageopacity="0"
     inkscape:pagecheckerboard="0"
     showgrid="false"
     inkscape:zoom="47.25"
     inkscape:cx="8"
     inkscape:cy="8"
     inkscape:window-width="1880"
     inkscape:window-height="966"
     inkscape:window-x="0"
     inkscape:window-y="29"
     inkscape:window-maximized="1"
     inkscape:current-layer="g8" />
  <g
     id="g8">
    <path
       class="warning"
       d="M 7.959,1 C 7.57667,1.016107 7.23701,1.24886 7.084,1.59961 L 5.5957,5.00001 H 1.75 c -0.91921,0.00104 -1.3507,1.137 -0.66406,1.748 l 2.9941,2.6523 -1.5215,4.2637 c -0.31475,0.88725 0.65851,1.6786 1.4629,1.1895 l 3.9785,-2.4316 c 1,-0.68347 1,-0.50198 1,-1.584 V 4.28521 1.87111 1.791032 L 8.915956,1.599622 c -0.15922,-0.364 -0.51871,-0.59933 -0.91602,-0.59961 -0.013672,-2.803e-4 -0.027348,-2.803e-4 -0.04102,0 z M 8,2.5236442 8.00002,11.25 3.8257171,13.800963 3.9522974,13.723596 3.6342335,13.624325 5.25002,9.1016 2.1689759,6.3712667 2.353597,6 V 6 H 6.25002 L 7.8089909,2.4366379 Z"
       fill="#f9c440"
       id="path2"
       sodipodi:nodetypes="cccccccccsccccccccccccccccccc" />
    <path
       class="warning"
       d="M 8,2.5236442 7.796813,2.4644275 6.25,6 H 2.2904563 1.75 L 2.1679312,6.3703587 5.25,9.1016 3.6839788,13.485028 v 0 L 3.9522974,13.723596 8,11.25 Z"
       fill="#f9c440"
       opacity="0.3"
       id="path4"
       sodipodi:nodetypes="ccccccccccccc" />
    <path
       d="M 8,1 C 8.096602,1.0000689 8.19145,1.014685 8.28125,1.041016 8.1899293,1.0140308 8.0952241,1.0002195 8,1 Z M 8.29883,1.046875 C 8.386577,1.074384 8.46855,1.114262 8.54492,1.164065 8.4686194,1.1139595 8.3858214,1.0745305 8.29883,1.046875 Z m 0.25,0.11914 c 0.0765,0.050377 0.14658,0.10981 0.20703,0.17969 C 8.6954206,1.2765939 8.625757,1.2161299 8.54883,1.166015 Z m 0.21875,0.19336 C 8.82716,1.430812 8.87754,1.511635 8.91602,1.599605 8.8781453,1.5129137 8.8281677,1.4320317 8.76758,1.359375 Z M 9,1.791015 v 0.080078 2.4141 l 0.75,1.7148 h 4.05314 v 0 L 13.916071,6.2959115 10.75,9.101593 l 1.587153,4.442578 -0.236811,0.211682 v 0 L 8.8711,11.783193 c -0.12587,0.17341 -0.37459,0.29932 -0.87109,0.63867 l 3.9785,2.4316 c 0.804403,0.489162 1.77769,-0.302229 1.4629,-1.1895 l -1.5215,-4.2637 2.9941,-2.6523 c 0.686548,-0.6111104 0.255072,-1.7468828 -0.66406,-1.748 h -3.8457 l -1.4043,-3.209 z"
       fill="#dedede"
       opacity="0.75"
       id="path6"
       sodipodi:nodetypes="ccccccccccccccccccccccccccccccccc" />
  </g>
</svg>
