<?xml version="1.0" encoding="UTF-8" standalone="no"?>
<svg
   width="16"
   height="16"
   version="1.1"
   id="svg7"
   sodipodi:docname="snap-nodes-smooth.svg"
   inkscape:version="1.1.2 (0a00cf5339, 2022-02-04)"
   xmlns:inkscape="http://www.inkscape.org/namespaces/inkscape"
   xmlns:sodipodi="http://sodipodi.sourceforge.net/DTD/sodipodi-0.dtd"
   xmlns="http://www.w3.org/2000/svg"
   xmlns:svg="http://www.w3.org/2000/svg">
  <sodipodi:namedview
     id="namedview9"
     pagecolor="#000000"
     bordercolor="#666666"
     borderopacity="1.0"
     inkscape:pageshadow="2"
     inkscape:pageopacity="0"
     inkscape:pagecheckerboard="0"
     showgrid="false"
     inkscape:zoom="51.6875"
     inkscape:cx="7.9903265"
     inkscape:cy="8"
     inkscape:window-width="1920"
     inkscape:window-height="1051"
     inkscape:window-x="0"
     inkscape:window-y="29"
     inkscape:window-maximized="1"
     inkscape:current-layer="svg7" />
  <defs
     id="defs3">
    <style
       id="current-color-scheme"
       type="text/css">
   .ColorScheme-Text { color:#eeeeec; } .ColorScheme-Highlight { color:#367bf0; } .ColorScheme-NeutralText { color:#ffcc44; } .ColorScheme-PositiveText { color:#3db47e; } .ColorScheme-NegativeText { color:#dd4747; }
  </style>
  </defs>
  <path
     style="fill:currentColor"
     class="ColorScheme-Text"
     d="m 1.0195312,1.5 c -0.016949,-2.101e-4 -0.0338982,4.418e-4 -0.0507812,0.00195 -0.6127345,0.03054 -0.64254377,0.9248181 -0.0332031,0.9960938 0,0 2.66250622,0.3768456 5.06640622,1.5097656 v 1.9941406 h 2.8066407 c 0.49604,0.57783 0.8491118,1.2366875 0.9824218,1.9921875 0.2489804,1.4109 -0.2323675,3.2612124 -2.1796875,5.6953124 -0.2620785,0.327476 -0.028809,0.812675 0.390625,0.8125 3.6189999,0 5.5703559,-1.33459 6.5351559,-2.712891 0.9648,-1.378299 0.964844,-2.7871089 0.964844,-2.7871089 0.0096,-0.6761613 -1.009563,-0.6761613 -1,0 0,0 4.4e-5,1.0911909 -0.785156,2.2128909 -0.657183,0.938831 -2.059278,1.789277 -4.4300437,2.070526 -0.1016116,0.01206 -0.045391,-0.215722 -0.1505795,-0.205796 0.054351,-0.07995 -0.052054,0.07924 0,0 1.3189402,-2.007844 1.8984852,-3.788382 1.6392172,-5.2573084 -0.2186,-1.2387 -0.8965279,-2.240175 -1.7734379,-3.046875 V 3.0019531 H 6.203125 C 3.670125,1.8505531 1.0683594,1.5058594 1.0683594,1.5058594 1.0521893,1.5031066 1.0358935,1.5011511 1.0195312,1.5 Z"
     id="path5"
     sodipodi:nodetypes="cccccccccscccscscccccc" />
</svg>
