<?xml version="1.0" encoding="UTF-8" standalone="no"?>
<svg
   width="16"
   height="16"
   version="1.1"
   id="svg7"
   sodipodi:docname="snap-nodes-intersection.svg"
   inkscape:version="1.1.2 (0a00cf5339, 2022-02-04)"
   xmlns:inkscape="http://www.inkscape.org/namespaces/inkscape"
   xmlns:sodipodi="http://sodipodi.sourceforge.net/DTD/sodipodi-0.dtd"
   xmlns="http://www.w3.org/2000/svg"
   xmlns:svg="http://www.w3.org/2000/svg">
  <sodipodi:namedview
     id="namedview9"
     pagecolor="#000000"
     bordercolor="#666666"
     borderopacity="1.0"
     inkscape:pageshadow="2"
     inkscape:pageopacity="0"
     inkscape:pagecheckerboard="0"
     showgrid="false"
     inkscape:zoom="51.6875"
     inkscape:cx="7.9903265"
     inkscape:cy="8"
     inkscape:window-width="1920"
     inkscape:window-height="1051"
     inkscape:window-x="0"
     inkscape:window-y="29"
     inkscape:window-maximized="1"
     inkscape:current-layer="svg7" />
  <defs
     id="defs3">
    <style
       id="current-color-scheme"
       type="text/css">
   .ColorScheme-Text { color:#eeeeec; } .ColorScheme-Highlight { color:#367bf0; } .ColorScheme-NeutralText { color:#ffcc44; } .ColorScheme-PositiveText { color:#3db47e; } .ColorScheme-NegativeText { color:#dd4747; }
  </style>
  </defs>
  <path
     style="fill:currentColor"
     class="ColorScheme-Text"
     d="m 14.990234,0.49414062 c -0.12976,0.003612 -0.25303,0.0575428 -0.34375,0.15039063 L 8.7910156,6.5 H 6.5 V 7.90625 L 0.86328125,9.5175781 C 0.18451267,9.6780519 0.47515112,10.699439 1.1367188,10.478516 L 5.789623,9.1488622 5.9116317,9.3793839 v 0 L 0.64648438,14.644531 c -0.49083252,0.471254 0.23577705,1.197864 0.70703122,0.707031 L 7.2050781,9.5 H 9.5 V 8.0898438 l 5.636719,-1.6113282 c 0.56814,-0.1548299 0.448136,-0.9931921 -0.140625,-0.9824218 -0.04504,0.00115 -0.08971,0.00837 -0.132813,0.021484 L 10.211097,6.8470259 10.057425,6.6476531 v 0 l 5.296091,-5.2960906 c 0.32527,-0.3180038 0.09144,-0.86989329 -0.363282,-0.85742188 z"
     id="path5"
     sodipodi:nodetypes="ccccccccccccccccccccccc" />
</svg>
