<?xml version="1.0" encoding="UTF-8" standalone="no"?>
<svg
   width="16"
   height="16"
   version="1.1"
   viewBox="0 0 16 16"
   id="svg7"
   sodipodi:docname="stock_xfburn.svg"
   inkscape:version="1.1.2 (0a00cf5339, 2022-02-04)"
   xmlns:inkscape="http://www.inkscape.org/namespaces/inkscape"
   xmlns:sodipodi="http://sodipodi.sourceforge.net/DTD/sodipodi-0.dtd"
   xmlns="http://www.w3.org/2000/svg"
   xmlns:svg="http://www.w3.org/2000/svg">
  <sodipodi:namedview
     id="namedview9"
     pagecolor="#000000"
     bordercolor="#666666"
     borderopacity="1.0"
     inkscape:pageshadow="2"
     inkscape:pageopacity="0"
     inkscape:pagecheckerboard="0"
     showgrid="false"
     inkscape:zoom="47.25"
     inkscape:cx="8"
     inkscape:cy="8"
     inkscape:window-width="1880"
     inkscape:window-height="966"
     inkscape:window-x="0"
     inkscape:window-y="29"
     inkscape:window-maximized="1"
     inkscape:current-layer="svg7" />
  <defs
     id="defs3">
    <style
       id="current-color-scheme"
       type="text/css">
   .ColorScheme-Text { color:#eeeeec; } .ColorScheme-Highlight { color:#367bf0; } .ColorScheme-NeutralText { color:#ffcc44; } .ColorScheme-PositiveText { color:#3db47e; } .ColorScheme-NegativeText { color:#dd4747; }
  </style>
  </defs>
  <path
     style="fill:currentColor"
     class="ColorScheme-Text"
     d="M 8,-8.4999999e-8 C 3.581722,-1.1261423e-7 -4.1715728e-8,3.5817219 -5.0000001e-8,7.9999999 -1.0522847e-7,12.418278 3.5817219,16 8,16 12.418278,16 16,12.418278 16,7.9999999 16,3.5817219 12.418278,-8.5e-8 8,-8.4999999e-8 Z M 9.1824928,2.0626596 c 0,0.1148676 0.3641958,0.07526 0.367649,0.186244 0.168711,5.4222004 4.3633092,6.2803042 3.2662642,9.4776584 -0.51913,1.513057 -1.647522,2.730507 -3.5096088,3.132124 C 8.8796983,14.950803 7.4049676,15.050847 7.908203,15 c 1.3985942,-0.141314 1.4066942,-0.141274 1.3985942,-0.141314 0.5693594,-0.0032 -0.3874657,0.0099 -0.014034,-0.207348 0.5067597,-0.294809 0.8409158,-0.753535 1.0236438,-1.286104 0.544795,-1.587672 -1.5209482,-2.023521 -1.632079,-4.6851047 -0.00306,-0.073305 -0.2169382,-0.05817 -0.2169382,-0.1349229 -0.071781,0.028712 0.069746,-0.03135 0,0 -1.917558,0.8619194 -3.0591856,2.6937406 -3.0591856,4.0016686 0,0.70658 0.2988011,1.341868 0.7769187,1.788255 0.3146799,0.293795 -0.7208923,0.112277 -0.2849252,0.208884 -0.502988,-0.06006 0.4449736,0.198487 0,0 -1.7078378,-0.761806 -2.9001976,-2.459662 -2.9001976,-4.452217 0,-2.6299686 2.3094195,-6.3174109 6.1824927,-8.0291374 0.1193326,-0.05274 -0.1222795,0.0489 0,0 z"
     id="path5"
     sodipodi:nodetypes="ssssscscsscscscssscsssc" />
</svg>
