<?xml version="1.0" encoding="UTF-8" standalone="no"?>
<svg
   width="16"
   height="16"
   version="1.1"
   id="svg7451"
   sodipodi:docname="stock_mail-reply-to-all.svg"
   inkscape:version="1.1.2 (0a00cf5339, 2022-02-04)"
   xmlns:inkscape="http://www.inkscape.org/namespaces/inkscape"
   xmlns:sodipodi="http://sodipodi.sourceforge.net/DTD/sodipodi-0.dtd"
   xmlns="http://www.w3.org/2000/svg"
   xmlns:svg="http://www.w3.org/2000/svg">
  <sodipodi:namedview
     id="namedview7453"
     pagecolor="#000000"
     bordercolor="#666666"
     borderopacity="1.0"
     inkscape:pageshadow="2"
     inkscape:pageopacity="0"
     inkscape:pagecheckerboard="0"
     showgrid="false"
     inkscape:zoom="51.6875"
     inkscape:cx="8.0096735"
     inkscape:cy="8"
     inkscape:window-width="1920"
     inkscape:window-height="1051"
     inkscape:window-x="0"
     inkscape:window-y="29"
     inkscape:window-maximized="1"
     inkscape:current-layer="svg7451" />
  <defs
     id="defs7447">
    <style
       id="current-color-scheme"
       type="text/css">
   .ColorScheme-Text { color:#eeeeec; } .ColorScheme-Highlight { color:#367bf0; } .ColorScheme-NeutralText { color:#ffcc44; } .ColorScheme-PositiveText { color:#3db47e; } .ColorScheme-NegativeText { color:#dd4747; }
  </style>
  </defs>
  <path
     style="fill:currentColor"
     class="ColorScheme-Text"
     d="m 6.1697451,1.728638 v 0 L 0.3982767,5.72427 0.3608826,6.2498418 v 0 L 6.1232791,10.239193 6.5,10.084176 v 0 V 9.1152 L 2.2542563,6.1760132 v 0 L 2.2916511,5.7980996 6.5,2.8848 V 1.9005134 Z M 10,1.9586723 v 0 1.6933402 L 10.294764,4 V 4 H 11 c 3,0 5,2 5,5 0,2.757939 -2.347601,4.224697 -3.445836,4.759972 -0.335316,0.163431 -0.250414,-0.236906 -0.250414,-0.236906 0,0 -0.178319,0.292969 0,0 C 12.742085,12.802902 13.5,11.424077 13.5,10.5 13.5,9.2 12,8 10.5,8 H 10.218986 V 8 L 10,8.2497898 v 1.7956122 l -0.3845969,0.188339 v 0 L 3.849106,6.2416887 v 0 L 3.8549997,5.754231 9.6268496,1.7583349 Z"
     id="path7449"
     sodipodi:nodetypes="ccccccccccccccccccccssscsssccccccccccc" />
</svg>
