<?xml version="1.0" encoding="UTF-8" standalone="no"?>
<svg
   width="16"
   height="16"
   viewBox="0 0 16 16"
   version="1.1"
   id="svg8738"
   sodipodi:docname="vmware-settings.svg"
   inkscape:version="1.1.2 (0a00cf5339, 2022-02-04)"
   xmlns:inkscape="http://www.inkscape.org/namespaces/inkscape"
   xmlns:sodipodi="http://sodipodi.sourceforge.net/DTD/sodipodi-0.dtd"
   xmlns="http://www.w3.org/2000/svg"
   xmlns:svg="http://www.w3.org/2000/svg">
  <sodipodi:namedview
     id="namedview8740"
     pagecolor="#323232"
     bordercolor="#666666"
     borderopacity="1.0"
     inkscape:pageshadow="2"
     inkscape:pageopacity="0"
     inkscape:pagecheckerboard="0"
     showgrid="false"
     inkscape:zoom="51.6875"
     inkscape:cx="7.9903265"
     inkscape:cy="8"
     inkscape:window-width="1920"
     inkscape:window-height="1051"
     inkscape:window-x="0"
     inkscape:window-y="29"
     inkscape:window-maximized="1"
     inkscape:current-layer="svg8738" />
  <defs
     id="defs8734">
    <style
       id="current-color-scheme"
       type="text/css">
   .ColorScheme-Text { color:#eeeeec; } .ColorScheme-Highlight { color:#367bf0; } .ColorScheme-NeutralText { color:#ffcc44; } .ColorScheme-PositiveText { color:#3db47e; } .ColorScheme-NegativeText { color:#dd4747; }
  </style>
  </defs>
  <path
     style="fill:currentColor"
     class="ColorScheme-Text"
     d="m 6.2244165,1.3057064 v 0 L 6.0957031,2.84375 C 5.5110767,3.0603026 4.9675242,3.374678 4.4882812,3.7734375 L 3.1469876,3.1418727 v 0 L 2.6105189,3.3342351 1.2457503,5.6982092 1.3669079,6.2270302 v 0 L 2.5839844,7.0722656 C 2.5298047,7.378579 2.5017091,7.6889366 2.5,8 c 1.978e-4,0.312257 0.026987,0.62393 0.080078,0.9316406 L 1.3167373,9.8080121 1.216819,10.251678 v 0 l 1.4229568,2.464764 0.556476,0.118515 v 0 L 4.484375,12.228516 c 0.4808526,0.397064 1.0257299,0.70946 1.6113281,0.923828 l 0.1236142,1.520293 0.4681886,0.329316 v 0 h 2.6930429 l 0.3973836,-0.380452 v 0 l 0.1224582,-1.463298 c 0.5846264,-0.216552 1.1281784,-0.530928 1.6074214,-0.929687 l 1.31042,0.617027 0.505164,-0.07012 v 0 l 1.426335,-2.470617 v 0 L 14.65174,9.7905861 13.412109,8.9296875 c 0.05418,-0.3063134 0.08228,-0.616671 0.08399,-0.9277344 -1.98e-4,-0.312257 -0.02699,-0.62393 -0.08008,-0.9316406 l 1.242401,-0.8618459 v 0 L 14.780512,5.7524188 13.370494,3.3100659 v 0 L 12.815117,3.1598049 11.511719,3.7734375 C 11.030866,3.3763737 10.485989,3.0639774 9.9003906,2.8496094 L 9.7810157,1.3814531 9.352297,1 V 1 H 6.5253151 Z M 8,6 c 1.1045695,0 2,0.8954305 2,2 0,1.1045695 -0.8954305,2 -2,2 C 6.8954305,10 6,9.1045695 6,8 6,6.8954305 6.8954305,6 8,6 Z"
     id="path8736"
     sodipodi:nodetypes="cccccccccccccccccccccccccccccccccccccccccccccccccccsssss" />
</svg>
