<?xml version="1.0" encoding="UTF-8" standalone="no"?>
<svg
   viewBox="0 0 16 16"
   version="1.1"
   id="svg132375"
   sodipodi:docname="document-cleanup.svg"
   inkscape:version="1.1.2 (0a00cf5339, 2022-02-04)"
   xmlns:inkscape="http://www.inkscape.org/namespaces/inkscape"
   xmlns:sodipodi="http://sodipodi.sourceforge.net/DTD/sodipodi-0.dtd"
   xmlns="http://www.w3.org/2000/svg"
   xmlns:svg="http://www.w3.org/2000/svg">
  <sodipodi:namedview
     id="namedview132377"
     pagecolor="#ffffff"
     bordercolor="#666666"
     borderopacity="1.0"
     inkscape:pageshadow="2"
     inkscape:pageopacity="0.0"
     inkscape:pagecheckerboard="0"
     showgrid="false"
     inkscape:zoom="51.6875"
     inkscape:cx="7.9903265"
     inkscape:cy="8"
     inkscape:window-width="1920"
     inkscape:window-height="1051"
     inkscape:window-x="0"
     inkscape:window-y="29"
     inkscape:window-maximized="1"
     inkscape:current-layer="svg132375" />
  <defs
     id="defs3051">
    <style
       type="text/css"
       id="current-color-scheme">
      .ColorScheme-Text {
        color:#dedede;
      }
      .ColorScheme-NegativeText {
        color:#da4453;
      }
      </style>
  </defs>
  <path
     style="fill:currentColor;fill-opacity:1;stroke:none"
     class="ColorScheme-NegativeText"
     d="M 8,2 C 4.6862915,2 2,4.6862915 2,8 c 0,3.313708 2.6862915,6 6,6 3.313708,0 6,-2.686292 6,-6 C 14,4.6862915 11.313708,2 8,2 Z M 5.818984,5.111954 v 0 l 2.0547587,2.0547587 0.2512461,0.00127 v 0 l 2.0061402,-2.0061404 0.288423,-0.035259 v 0 l 0.4683,0.4683001 v 0 l -0.0065,0.2307897 -2.0825409,2.0825405 v 0 l 0.051339,0.2349153 2.0253909,2.0253907 v 0 l -0.0083,0.257208 -0.469196,0.469196 -0.221702,-0.01155 v 0 L 8.1254511,8.8324811 7.8916682,8.8153618 v 0 L 5.822314,10.884716 v 0 L 5.5721215,10.865092 5.1317863,10.424756 5.0970481,10.195922 v 0 l 2.0615566,-2.0615566 0.03049,-0.2382406 v 0 L 5.1229696,5.8299996 v 0 L 5.1034064,5.6036236 5.5773291,5.1297009 Z"
     id="path132373"
     sodipodi:nodetypes="sssssccccccccccccccccccccccccccccccccccccc" />
</svg>
