<?xml version="1.0" encoding="UTF-8" standalone="no"?>
<svg
   width="16"
   height="16"
   version="1.1"
   id="svg7"
   sodipodi:docname="stock_xfburn-data-copy.svg"
   inkscape:version="1.1.2 (0a00cf5339, 2022-02-04)"
   xmlns:inkscape="http://www.inkscape.org/namespaces/inkscape"
   xmlns:sodipodi="http://sodipodi.sourceforge.net/DTD/sodipodi-0.dtd"
   xmlns="http://www.w3.org/2000/svg"
   xmlns:svg="http://www.w3.org/2000/svg">
  <sodipodi:namedview
     id="namedview9"
     pagecolor="#000000"
     bordercolor="#666666"
     borderopacity="1.0"
     inkscape:pageshadow="2"
     inkscape:pageopacity="0"
     inkscape:pagecheckerboard="0"
     showgrid="false"
     inkscape:zoom="51.6875"
     inkscape:cx="7.9903265"
     inkscape:cy="6.452237"
     inkscape:window-width="1920"
     inkscape:window-height="1051"
     inkscape:window-x="0"
     inkscape:window-y="29"
     inkscape:window-maximized="1"
     inkscape:current-layer="svg7" />
  <defs
     id="defs3">
    <style
       id="current-color-scheme"
       type="text/css">
   .ColorScheme-Text { color:#eeeeec; } .ColorScheme-Highlight { color:#367bf0; } .ColorScheme-NeutralText { color:#ffcc44; } .ColorScheme-PositiveText { color:#3db47e; } .ColorScheme-NegativeText { color:#dd4747; }
  </style>
  </defs>
  <path
     style="fill:currentColor"
     class="ColorScheme-Text"
     d="M 9,1 C 7.4939914,1.0023087 6.0512995,1.5704471 4.9518533,2.5796443 4.813152,2.7069602 5.1831195,2.6593362 5.055906,2.8004406 c 0.5032059,-0.1819594 -0.1708087,0.053994 0,0 C 5.6699887,2.6063248 6.3225378,2.5 7,2.5 c 3.584,0 6.5,2.9161 6.5,6.5 0,0.7127987 -0.117909,1.39795 -0.331415,2.039667 -0.04586,0.137833 0.21135,-0.02431 0.156892,0.10936 0.106376,-0.09598 -0.09857,0.102585 0,0 C 14.39355,10.03748 14.997253,8.5525177 15,7 15,3.6863 12.314,1 9,1 Z M 7,3 C 3.6862915,3 1,5.6862915 1,9 c 0,3.313708 2.6862915,6 6,6 3.313708,0 6,-2.686292 6,-6 C 13,5.6862915 10.313708,3 7,3 Z M 7,7 C 8.1045695,7 9,7.8954305 9,9 9,10.104569 8.1045695,11 7,11 5.8954305,11 5,10.104569 5,9 5,7.8954305 5.8954305,7 7,7 Z"
     id="path5"
     sodipodi:nodetypes="cscsssscsccssssssssss" />
</svg>
