<?xml version="1.0" encoding="UTF-8" standalone="no"?>
<svg
   width="16"
   height="16"
   version="1.1"
   id="svg9"
   sodipodi:docname="stock_print-preview.svg"
   inkscape:version="1.1.2 (0a00cf5339, 2022-02-04)"
   xmlns:inkscape="http://www.inkscape.org/namespaces/inkscape"
   xmlns:sodipodi="http://sodipodi.sourceforge.net/DTD/sodipodi-0.dtd"
   xmlns="http://www.w3.org/2000/svg"
   xmlns:svg="http://www.w3.org/2000/svg">
  <sodipodi:namedview
     id="namedview11"
     pagecolor="#000000"
     bordercolor="#666666"
     borderopacity="1.0"
     inkscape:pageshadow="2"
     inkscape:pageopacity="0"
     inkscape:pagecheckerboard="0"
     showgrid="false"
     inkscape:zoom="146.19433"
     inkscape:cx="13.700942"
     inkscape:cy="12.644129"
     inkscape:window-width="1920"
     inkscape:window-height="1051"
     inkscape:window-x="0"
     inkscape:window-y="29"
     inkscape:window-maximized="1"
     inkscape:current-layer="svg9" />
  <defs
     id="defs3">
    <style
       id="current-color-scheme"
       type="text/css">
   .ColorScheme-Text { color:#eeeeec; } .ColorScheme-Highlight { color:#367bf0; } .ColorScheme-NeutralText { color:#ffcc44; } .ColorScheme-PositiveText { color:#3db47e; } .ColorScheme-NegativeText { color:#dd4747; }
  </style>
  </defs>
  <path
     style="fill:currentColor"
     class="ColorScheme-Text"
     d="m 4,1 v 2 h 8 V 1 Z M 2,4 C 2,4 1,4 1,5 v 4 c 0,1 1,1 1,1 H 3 V 8 H 7.7324 C 8.4209,7.2393 9.4045,6.75 10.5,6.75 c 1.875,0 3.435,1.4133 3.697,3.2207 C 14.488,9.9143 15,9.72 15,9 V 5 C 15,4 14,4 14,4 Z m 2,5 v 5 h 4.7996606 v 0 C 8.6541155,13.945023 8.908341,13.881293 8.7717423,13.809462 7.5765643,13.180973 6.75,11.9323 6.75,10.5 6.75,9.9672 6.8678,9.461 7.0723,9 Z"
     id="path5"
     sodipodi:nodetypes="ccccccssccccscssccccccsscc" />
  <path
     style="fill:currentColor"
     class="ColorScheme-Text"
     d="M 11.5,12.5 11.928434,12.928434 13.778,14.778 c 0,0 0.5,0.5 1,0 0.5,-0.5 0,-1 0,-1 L 12.991214,11.991214 12.84464,11.84464 12.5,11.5 Z m -3.75,-2 c 0,1.5 1.25,2.75 2.75,2.75 0.469372,0 0.914265,-0.122394 1.304039,-0.336544 0.04794,-0.02634 0.176264,0.03771 0.222479,0.0087 0.36223,-0.227753 0.671323,-0.539737 0.877051,-0.92573 0.02479,-0.04652 -0.0074,-0.152629 0.01612,-0.199346 0.01907,-0.03786 0.03777,-0.07571 0.05615,-0.113437 C 13.151207,11.323634 13.25,10.921697 13.25,10.5 13.25,9 12,7.75 10.5,7.75 9,7.75 7.75,9 7.75,10.5 Z M 10.5,8.75 c 1,0 1.75,0.75 1.75,1.75 0,1 -0.75,1.75 -1.75,1.75 -1,0 -1.75,-0.75 -1.75,-1.75 0,-1 0.75,-1.75 1.75,-1.75 z"
     id="path7"
     sodipodi:nodetypes="cccscccccsssssssssssssss" />
</svg>
