<?xml version="1.0" encoding="UTF-8" standalone="no"?>
<svg
   width="16"
   height="16"
   version="1.1"
   id="svg7"
   sodipodi:docname="symbol-fit.svg"
   inkscape:version="1.1.2 (0a00cf5339, 2022-02-04)"
   xmlns:inkscape="http://www.inkscape.org/namespaces/inkscape"
   xmlns:sodipodi="http://sodipodi.sourceforge.net/DTD/sodipodi-0.dtd"
   xmlns="http://www.w3.org/2000/svg"
   xmlns:svg="http://www.w3.org/2000/svg">
  <sodipodi:namedview
     id="namedview9"
     pagecolor="#000000"
     bordercolor="#666666"
     borderopacity="1.0"
     inkscape:pageshadow="2"
     inkscape:pageopacity="0"
     inkscape:pagecheckerboard="0"
     showgrid="false"
     inkscape:zoom="47.25"
     inkscape:cx="8"
     inkscape:cy="8"
     inkscape:window-width="1880"
     inkscape:window-height="966"
     inkscape:window-x="0"
     inkscape:window-y="29"
     inkscape:window-maximized="1"
     inkscape:current-layer="svg7" />
  <defs
     id="defs3">
    <style
       id="current-color-scheme"
       type="text/css">
   .ColorScheme-Text { color:#eeeeec; } .ColorScheme-Highlight { color:#367bf0; } .ColorScheme-NeutralText { color:#ffcc44; } .ColorScheme-PositiveText { color:#3db47e; } .ColorScheme-NegativeText { color:#dd4747; }
  </style>
  </defs>
  <path
     style="fill:currentColor"
     class="ColorScheme-Text"
     d="m 7.7890012,2.3164982 0.4247922,0.00419 1.5725308,2.3587963 v 0 L 9.6340319,5 H 6.3538011 L 6.2033943,4.6949086 v 0 z m 0.04691,11.4373678 0.3603748,-0.04829 1.5922539,-2.38838 v 0 L 9.5283952,11 H 6.4175483 l -0.1770315,0.360775 v 0 z M 11,6.354073 v 0 3.2591256 0 l 0.326941,0.1688408 2.324914,-1.5499424 0.0093,-0.4579705 v 0 L 11.292202,6.1948014 Z M 5,6.417694 v 0 3.1955046 L 4.6940574,9.7960382 v 0 L 2.251936,8.1679573 v 0 l 0.0251,-0.3526476 2.427263,-1.6181753 z M 0,0 V 16 H 16 V 0 Z M 1,1 H 15 V 15 H 1 Z"
     id="path5"
     sodipodi:nodetypes="ccccccccccccccccccccccccccccccccccccccccccccccccc" />
</svg>
