<?xml version="1.0" encoding="UTF-8" standalone="no"?>
<svg
   width="16"
   height="16"
   version="1.1"
   id="svg11"
   sodipodi:docname="symbol-add.svg"
   inkscape:version="1.1.2 (0a00cf5339, 2022-02-04)"
   xmlns:inkscape="http://www.inkscape.org/namespaces/inkscape"
   xmlns:sodipodi="http://sodipodi.sourceforge.net/DTD/sodipodi-0.dtd"
   xmlns="http://www.w3.org/2000/svg"
   xmlns:svg="http://www.w3.org/2000/svg">
  <sodipodi:namedview
     id="namedview13"
     pagecolor="#000000"
     bordercolor="#666666"
     borderopacity="1.0"
     inkscape:pageshadow="2"
     inkscape:pageopacity="0"
     inkscape:pagecheckerboard="0"
     showgrid="false"
     inkscape:zoom="51.6875"
     inkscape:cx="8.0096735"
     inkscape:cy="8"
     inkscape:window-width="1920"
     inkscape:window-height="1051"
     inkscape:window-x="0"
     inkscape:window-y="29"
     inkscape:window-maximized="1"
     inkscape:current-layer="svg11" />
  <defs
     id="defs3">
    <style
       id="current-color-scheme"
       type="text/css">
   .ColorScheme-Text { color:#eeeeec; } .ColorScheme-Highlight { color:#367bf0; } .ColorScheme-NeutralText { color:#ffcc44; } .ColorScheme-PositiveText { color:#3db47e; } .ColorScheme-NegativeText { color:#dd4747; }
  </style>
  </defs>
  <path
     style="opacity:.35;fill:currentColor"
     class="ColorScheme-Text"
     d="M 15,10 A 5,5 0 0 1 10,15 5,5 0 0 1 5,10 5,5 0 0 1 10,5 5,5 0 0 1 15,10 Z"
     id="path5" />
  <path
     style="fill:currentColor"
     class="ColorScheme-Text"
     d="m 10,5 c -2.7614237,0 -5,2.2385763 -5,5 0,2.761424 2.2385763,5 5,5 2.761424,0 5,-2.238576 5,-5 0,-2.7614237 -2.238576,-5 -5,-5 z m 0,1 c 0.326928,0 0.451566,0.4835241 0.755724,0.5575178 0.09438,0.022961 0.380585,-0.3950331 0.472214,-0.3655087 C 12.836335,6.7102633 14,8.2192374 14,10 14,12.209139 12.209139,14 10,14 8.1928314,14 6.6655714,12.801569 6.1696102,11.156096 6.1172435,10.982357 6.8567893,10.956358 6.8283018,10.773536 6.7967769,10.571219 6,10.211158 6,10 6,9.7636903 6.4683147,9.3608371 6.5054759,9.1268919 6.5328556,8.954525 6.1208475,8.9496267 6.1673281,8.7822512 6.5257343,7.4916398 7.4384673,6.3961771 8.6970299,6.2170139 8.845752,6.1958425 9.0273523,6.4313225 9.1447444,6.4060216 9.4760135,6.3346251 9.663173,6 10,6 Z"
     id="path7"
     sodipodi:nodetypes="ssssssssssssssssss" />
  <path
     style="fill:currentColor"
     class="ColorScheme-Text"
     d="M 10.219587,0.29278303 9.7598827,0.32015644 7.3420424,3.5439435 7.4398546,4 V 4 H 8.824723 L 9,4.2057364 v 0 4.5117383 L 8.7038973,9 V 9 H 2 v 2 h 8.768894 v 0 L 11,10.771887 v -6.5787325 0 L 11.213507,4 h 1.476643 l 0.03538,-0.3659549 v 0 z"
     id="path9"
     sodipodi:nodetypes="ccccccccccccccccccccccc" />
</svg>
