<?xml version="1.0" encoding="UTF-8" standalone="no"?>
<svg
   width="16"
   height="16"
   version="1.1"
   id="svg7"
   sodipodi:docname="symbol-smaller.svg"
   inkscape:version="1.1.2 (0a00cf5339, 2022-02-04)"
   xmlns:inkscape="http://www.inkscape.org/namespaces/inkscape"
   xmlns:sodipodi="http://sodipodi.sourceforge.net/DTD/sodipodi-0.dtd"
   xmlns="http://www.w3.org/2000/svg"
   xmlns:svg="http://www.w3.org/2000/svg">
  <sodipodi:namedview
     id="namedview9"
     pagecolor="#090909"
     bordercolor="#666666"
     borderopacity="1.0"
     inkscape:pageshadow="2"
     inkscape:pageopacity="0"
     inkscape:pagecheckerboard="0"
     showgrid="false"
     inkscape:zoom="51.6875"
     inkscape:cx="8"
     inkscape:cy="8"
     inkscape:window-width="1067"
     inkscape:window-height="1043"
     inkscape:window-x="666"
     inkscape:window-y="32"
     inkscape:window-maximized="1"
     inkscape:current-layer="svg7" />
  <defs
     id="defs3">
    <style
       id="current-color-scheme"
       type="text/css">
   .ColorScheme-Text { color:#eeeeec; } .ColorScheme-Highlight { color:#367bf0; } .ColorScheme-NeutralText { color:#ffcc44; } .ColorScheme-PositiveText { color:#3db47e; } .ColorScheme-NegativeText { color:#dd4747; }
  </style>
  </defs>
  <path
     style="fill:currentColor"
     class="ColorScheme-Text"
     d="M 8,4 C 5.790861,4 4,5.790861 4,8 c 0,2.209139 1.790861,4 4,4 2.209139,0 4,-1.790861 4,-4 C 12,5.790861 10.209139,4 8,4 Z m 0,1 c 1.6568542,0 3,1.3431458 3,3 0,1.6568542 -1.3431458,3 -3,3 C 6.3431458,11 5,9.6568542 5,8 5,6.3431458 6.3431458,5 8,5 Z m 8,1.4254164 v 0 3.1604325 l -0.305043,0.2107892 v 0 L 13.324795,8.21653 l -0.005,-0.429738 v 0 L 15.639557,6.2402956 Z M 7.7978804,2.6968205 8.2090138,2.6864793 9.757389,0.36391646 9.5532539,0 V 0 H 6.437108 V 0 L 6.2329952,0.34949277 Z M 7.7839,13.32415 l 0.4425886,0.01558 1.5190047,2.278507 v 0 L 9.6090514,16 H 6.4343235 v 0 L 6.2450813,15.632378 Z M 0.31518598,6.210124 0,6.4422647 v 3.1640058 l 0.36110967,0.1529897 v 0 L 2.7331338,8.1779108 2.7097713,7.8065142 v 0 z"
     id="path5"
     sodipodi:nodetypes="sssssssssscccccccccccccccccccccccccccccccccccccccc" />
</svg>
