<?xml version="1.0" encoding="UTF-8" standalone="no"?>
<svg
   width="16"
   height="16"
   viewBox="0 0 16 16"
   version="1.1"
   id="svg7"
   sodipodi:docname="taxes-finances.svg"
   inkscape:version="1.1.2 (0a00cf5339, 2022-02-04)"
   xmlns:inkscape="http://www.inkscape.org/namespaces/inkscape"
   xmlns:sodipodi="http://sodipodi.sourceforge.net/DTD/sodipodi-0.dtd"
   xmlns="http://www.w3.org/2000/svg"
   xmlns:svg="http://www.w3.org/2000/svg">
  <sodipodi:namedview
     id="namedview9"
     pagecolor="#000000"
     bordercolor="#666666"
     borderopacity="1.0"
     inkscape:pageshadow="2"
     inkscape:pageopacity="0"
     inkscape:pagecheckerboard="0"
     showgrid="false"
     inkscape:zoom="51.6875"
     inkscape:cx="7.9903265"
     inkscape:cy="11.869407"
     inkscape:window-width="1920"
     inkscape:window-height="1051"
     inkscape:window-x="0"
     inkscape:window-y="29"
     inkscape:window-maximized="1"
     inkscape:current-layer="svg7" />
  <defs
     id="defs3">
    <style
       id="current-color-scheme"
       type="text/css">
   .ColorScheme-Text { color:#eeeeec; } .ColorScheme-Highlight { color:#367bf0; } .ColorScheme-NeutralText { color:#ffcc44; } .ColorScheme-PositiveText { color:#3db47e; } .ColorScheme-NegativeText { color:#dd4747; }
  </style>
  </defs>
  <path
     style="fill:currentColor"
     class="ColorScheme-Text"
     d="M 5.8031784,0.01868576 V 1.1514983 c -0.9772,0.1418 -1.8092906,0.3971281 -2.4628906,0.7988281 -1.0105,0.6149 -1.515625,1.5580782 -1.515625,2.8300781 -0.0046,2.1953 1.5575156,2.9186844 3.9785156,3.5839844 v 4.6445441 l -0.3223172,0.31698 c -0.1082538,-0.0091 0.1066664,0.01134 0,0 C 4.4320233,13.214412 3.4538194,12.99121 2.4262253,12.551889 l -0.5124666,1.116503 v 0 c 0.093559,0.04989 0.081984,0.339599 0.1864394,0.387305 0.5257857,0.240133 1.1896499,0.45273 1.9920428,0.63877 0.5442,0.122 1.1112375,0.199906 1.7109375,0.253906 v 1.070312 h 3 v -1.117187 c 1.9969996,-0.285 3.9799836,-1.203453 3.9589836,-3.689453 -0.07,-1.8286999 -1.202984,-2.5075623 -3.9589836,-3.4765623 V 2.9864769 L 9.0522076,2.818362 c 0.081442,0.010882 -0.084561,-0.013176 0,0 0.8533318,0.1329659 1.8628454,0.3912332 2.9755794,0.9464175 l 0.67427,-1.3417452 -0.109544,-0.3063355 c -0.06165,-0.033062 0.07824,0.036793 0,0 C 11.971474,1.8246415 10.880509,1.4358249 10.156694,1.2804045 9.7226936,1.1878045 9.2701784,1.1247858 8.8031784,1.0811858 V 0.01868576 Z M 5.6225536,2.810404 5.8031784,3.0591334 V 6.418545 l -0.270061,0.257864 c -0.090694,-0.032109 0.089204,0.034647 0,0 C 4.4154808,6.2423201 3.4485842,5.6022112 3.4789596,4.5850921 3.4221043,3.5917457 4.3877617,3.0459088 5.6225536,2.810404 c 0.059609,-0.011369 -0.060779,0.00994 0,0 z m 3.1806248,6.7597916 c 0.106028,0.03713 0.2103973,-0.2653641 0.312643,-0.226167 1.1330566,0.4343711 2.0053276,1.0062174 1.9842316,1.9500474 -0.03598,1.287978 -0.969052,1.802043 -2.028182,2.004257 -0.088829,0.01696 0,-0.223539 -0.2686926,-0.178968 v 0 z"
     id="path5"
     sodipodi:nodetypes="cccccccscccscccccccccscccsccccccccscsccscscccc" />
</svg>
