<?xml version="1.0" encoding="UTF-8" standalone="no"?>
<svg
   width="16"
   height="16"
   version="1.1"
   id="svg7"
   sodipodi:docname="text-orientation-sideways.svg"
   inkscape:version="1.1.2 (0a00cf5339, 2022-02-04)"
   xmlns:inkscape="http://www.inkscape.org/namespaces/inkscape"
   xmlns:sodipodi="http://sodipodi.sourceforge.net/DTD/sodipodi-0.dtd"
   xmlns="http://www.w3.org/2000/svg"
   xmlns:svg="http://www.w3.org/2000/svg">
  <sodipodi:namedview
     id="namedview9"
     pagecolor="#000000"
     bordercolor="#666666"
     borderopacity="1.0"
     inkscape:pageshadow="2"
     inkscape:pageopacity="0"
     inkscape:pagecheckerboard="0"
     showgrid="false"
     inkscape:zoom="133.64318"
     inkscape:cx="8.0063942"
     inkscape:cy="4.7103039"
     inkscape:window-width="1920"
     inkscape:window-height="1051"
     inkscape:window-x="0"
     inkscape:window-y="29"
     inkscape:window-maximized="1"
     inkscape:current-layer="svg7" />
  <defs
     id="defs3">
    <style
       id="current-color-scheme"
       type="text/css">
   .ColorScheme-Text { color:#eeeeec; } .ColorScheme-Highlight { color:#367bf0; } .ColorScheme-NeutralText { color:#ffcc44; } .ColorScheme-PositiveText { color:#3db47e; } .ColorScheme-NegativeText { color:#dd4747; }
  </style>
  </defs>
  <path
     style="fill:currentColor"
     class="ColorScheme-Text"
     d="m 2,2 v 9.834112 L 1.8529846,12 v 0 H 0.53347181 l -0.2426067,0.38782 v 0 l 2.41526519,3.220354 0.5795576,0.01091 v 0 L 5.7186277,12.375163 5.5494391,12 v 0 H 4.1539938 v 0 L 4,11.824455 V 2 Z m 5,9 v 1 H 8.8274875 L 9,12.115217 v 0 2.771469 L 8.8660478,15 v 0 H 7 v 1 h 5 c 2,0 2,-2.5 2,-2.5 0,0 0,-2.5 -2,-2.5 z M 10,12.159431 10.193916,12 H 11.5 c 1.5,0 1.5,1.5 1.5,1.5 0,0 0,1.5 -1.5,1.5 H 10.183329 L 10,14.86866 v 0 z M 13,3.5 C 13,3.5 13,3 12.5,3 12,3 12,3.5 12,3.5 v 2.8495635 0 L 11.896696,6.376035 10.75,5 H 10 V 1.5 C 10,1.5 10,1 9.5,1 9,1 9,1.5 9,1.5 V 5 H 7 V 3.5 C 7,3.5 7,3 6.5,3 6,3 6,3.5 6,3.5 V 5 C 6,5 6,6 7,6 H 9 V 9.5 C 9,9.5 9,10 9.5,10 10,10 10,9.5 10,9.5 V 6 h 0.25 c 0,0 1.25,2 1.75,2 1,0 1,-1 1,-1 z m 3,1 C 16,4 15.5,4 15.5,4 H 15 V 1.5 C 15,1 14.5,1 14.5,1 h -1 C 13.5,1 13,1 13,1.5 13,2 13.5,2 13.5,2 H 14 V 9 H 13.5 C 13.5,9 13,9 13,9.5 13,10 13.5,10 13.5,10 h 1 c 0,0 0.5,0 0.5,-0.5 V 5 h 0.5 c 0,0 0.5,0 0.5,-0.5 z"
     id="path5"
     sodipodi:nodetypes="ccccccccccccccccccccccccccccscscccscsccccccscccccccsccccsccsccscccsccsccsccsccccsccsccs" />
</svg>
