<?xml version="1.0" encoding="UTF-8" standalone="no"?>
<svg
   width="16"
   height="16"
   version="1.1"
   id="svg7"
   sodipodi:docname="text-remove-from-path.svg"
   inkscape:version="1.1.2 (0a00cf5339, 2022-02-04)"
   xmlns:inkscape="http://www.inkscape.org/namespaces/inkscape"
   xmlns:sodipodi="http://sodipodi.sourceforge.net/DTD/sodipodi-0.dtd"
   xmlns="http://www.w3.org/2000/svg"
   xmlns:svg="http://www.w3.org/2000/svg">
  <sodipodi:namedview
     id="namedview9"
     pagecolor="#000000"
     bordercolor="#666666"
     borderopacity="1.0"
     inkscape:pageshadow="2"
     inkscape:pageopacity="0"
     inkscape:pagecheckerboard="0"
     showgrid="false"
     inkscape:zoom="146.19433"
     inkscape:cx="7.9893661"
     inkscape:cy="4.5316396"
     inkscape:window-width="1920"
     inkscape:window-height="1051"
     inkscape:window-x="0"
     inkscape:window-y="29"
     inkscape:window-maximized="1"
     inkscape:current-layer="svg7" />
  <defs
     id="defs3">
    <style
       id="current-color-scheme"
       type="text/css">
   .ColorScheme-Text { color:#eeeeec; } .ColorScheme-Highlight { color:#367bf0; } .ColorScheme-NeutralText { color:#ffcc44; } .ColorScheme-PositiveText { color:#3db47e; } .ColorScheme-NegativeText { color:#dd4747; }
  </style>
  </defs>
  <path
     style="fill:currentColor"
     class="ColorScheme-Text"
     d="M 10.383004,10 10,10.440971 V 11.414 L 11.586,13 10,14.586 v 0.968654 L 10.415787,16 v 0 H 11.414 L 13,14.414 14.586,16 h 0.847582 v 0 L 16,15.479545 V 14.586 L 14.414,13 16,11.414 V 10.454645 L 15.590023,10 v 0 H 14.586 L 13,11.586 11.414,10 Z M 7,9 C 3.122,9 0,12.122 0,16 H 1 C 1,12.676 3.676,10 7,10 H 9 V 9 Z M 9,0 V 5.5 8 h 1 V 7.6694719 l 0.121706,-0.085493 c 0.03979,0.029929 -0.04132,-0.027383 0,0 C 10.529478,7.8541995 11.008639,7.9994762 11.5,8 12.880712,8 14,6.8807119 14,5.5 14,4.1192881 12.880712,3 11.5,3 c -0.497002,0.00103 -0.981367,0.1501481 -1.391869,0.4267789 -0.03665,0.024696 0.03543,-0.026714 0,0 L 10,3.3729004 V 0 Z m 2.5,4 C 12.328427,4 13,4.6715729 13,5.5 13,6.3284271 12.328427,7 11.5,7 10.671573,7 10,6.3284271 10,5.5 10,4.6715729 10.671573,4 11.5,4 Z M 4.5,3 C 3.1192881,3 2,4.1192881 2,5.5 2,6.8807119 3.1192881,8 4.5,8 4.997643,7.9989663 5.4826171,7.8494669 5.8934577,7.5721498 c 0.0361,-0.024368 -0.034914,0.026327 0,0 L 6,7.6392002 V 8 H 7 V 5.5 3 H 6 v 0.3998448 0 C 5.9715242,3.3784286 5.9426415,3.459814 5.9133745,3.4396982 5.4981337,3.1542954 5.0055234,3.0005389 4.5,3 Z m 0,1 C 5.3284271,4 6,4.6715729 6,5.5 6,6.3284271 5.3284271,7 4.5,7 3.6715729,7 3,6.3284271 3,5.5 3,4.6715729 3.6715729,4 4.5,4 Z"
     id="path5"
     sodipodi:nodetypes="cccccccccccccccccccccccccsccsccsccccccscscsccccssssscscscccccccccscsssss" />
</svg>
