<?xml version="1.0" encoding="UTF-8" standalone="no"?>
<svg
   width="16"
   height="16"
   version="1.1"
   id="svg7"
   sodipodi:docname="text-orientation-auto.svg"
   inkscape:version="1.1.2 (0a00cf5339, 2022-02-04)"
   xmlns:inkscape="http://www.inkscape.org/namespaces/inkscape"
   xmlns:sodipodi="http://sodipodi.sourceforge.net/DTD/sodipodi-0.dtd"
   xmlns="http://www.w3.org/2000/svg"
   xmlns:svg="http://www.w3.org/2000/svg">
  <sodipodi:namedview
     id="namedview9"
     pagecolor="#000000"
     bordercolor="#666666"
     borderopacity="1.0"
     inkscape:pageshadow="2"
     inkscape:pageopacity="0"
     inkscape:pagecheckerboard="0"
     showgrid="false"
     inkscape:zoom="189"
     inkscape:cx="2.8465608"
     inkscape:cy="13.716931"
     inkscape:window-width="1920"
     inkscape:window-height="1051"
     inkscape:window-x="0"
     inkscape:window-y="29"
     inkscape:window-maximized="1"
     inkscape:current-layer="svg7" />
  <defs
     id="defs3">
    <style
       id="current-color-scheme"
       type="text/css">
   .ColorScheme-Text { color:#eeeeec; } .ColorScheme-Highlight { color:#367bf0; } .ColorScheme-NeutralText { color:#ffcc44; } .ColorScheme-PositiveText { color:#3db47e; } .ColorScheme-NegativeText { color:#dd4747; }
  </style>
  </defs>
  <path
     style="fill:currentColor"
     class="ColorScheme-Text"
     d="M 2,1 V 11.893128 L 1.8893245,12 v 0 H 0.57597036 L 0.3339543,12.445272 v 0 l 2.3976553,3.196874 v 0 l 0.574497,-0.05029 2.3999668,-3.199956 v 0 L 5.5281898,12 H 4.1086607 v 0 L 4,11.891911 V 1 Z m 5,10 v 1 h 1.8800036 v 0 L 9,12.13677 v 2.727057 L 8.851702,15 v 0 H 7 v 1 h 5 c 2,0 2,-2.5 2,-2.5 0,0 0,-2.5 -2,-2.5 z M 10,12.100834 10.142047,12 H 11.5 c 1.5,0 1.5,1.5 1.5,1.5 0,0 0,1.5 -1.5,1.5 H 10.185887 L 10.091296,14.943027 10,14.85217 Z M 8.5,3 C 8.5,3 8,3 8,3.5 8,4 8.5,4 8.5,4 h 2.84839 v 0 l 0.03923,0.093649 L 10,5.25 V 6 H 6.5 C 6.5,6 6,6 6,6.5 6,7 6.5,7 6.5,7 H 10 V 9 H 8.5 C 8.5,9 8,9 8,9.5 8,10 8.5,10 8.5,10 H 10 c 0,0 1,0 1,-1 V 7 h 3.5 C 14.5,7 15,7 15,6.5 15,6 14.5,6 14.5,6 H 11 V 5.75 C 11,5.75 13,4.5 13,4 13,3 12,3 12,3 Z m 1,-3 C 9,0 9,0.5 9,0.5 V 1 H 6.5 C 6,1 6,1.5 6,1.5 v 1 C 6,2.5 6,3 6.5,3 7,3 7,2.5 7,2.5 V 2 h 7 V 2.5 C 14,2.5 14,3 14.5,3 15,3 15,2.5 15,2.5 v -1 C 15,1.5 15,1 14.5,1 H 10 V 0.5 C 10,0.5 10,0 9.5,0 Z"
     id="path5"
     sodipodi:nodetypes="ccccccccccccccccccccccccccccscscccscsccccccscccccccsccccsccsccscccsccsccsccsccccsccsccs" />
</svg>
