<?xml version="1.0" encoding="UTF-8" standalone="no"?>
<svg
   width="16"
   height="16"
   version="1.1"
   id="svg9"
   sodipodi:docname="text-unkern.svg"
   inkscape:version="1.1.2 (0a00cf5339, 2022-02-04)"
   xmlns:inkscape="http://www.inkscape.org/namespaces/inkscape"
   xmlns:sodipodi="http://sodipodi.sourceforge.net/DTD/sodipodi-0.dtd"
   xmlns="http://www.w3.org/2000/svg"
   xmlns:svg="http://www.w3.org/2000/svg">
  <sodipodi:namedview
     id="namedview11"
     pagecolor="#000000"
     bordercolor="#666666"
     borderopacity="1.0"
     inkscape:pageshadow="2"
     inkscape:pageopacity="0"
     inkscape:pagecheckerboard="0"
     showgrid="false"
     inkscape:zoom="47.25"
     inkscape:cx="8"
     inkscape:cy="8"
     inkscape:window-width="1880"
     inkscape:window-height="966"
     inkscape:window-x="0"
     inkscape:window-y="29"
     inkscape:window-maximized="1"
     inkscape:current-layer="svg9" />
  <defs
     id="defs3">
    <style
       id="current-color-scheme"
       type="text/css">
   .ColorScheme-Text { color:#eeeeec; } .ColorScheme-Highlight { color:#367bf0; } .ColorScheme-NeutralText { color:#ffcc44; } .ColorScheme-PositiveText { color:#3db47e; } .ColorScheme-NegativeText { color:#dd4747; }
  </style>
  </defs>
  <path
     style="fill:currentColor"
     class="ColorScheme-Text"
     d="m 8,5 h 1 v 8 H 8 Z M 1,5 h 1 v 8 H 1 Z M 10.311026,10 10,10.375043 V 11.414 L 11.586,13 10,14.586 v 0.974148 L 10.396022,16 v 0 H 11.414 L 13,14.414 14.586,16 h 0.994765 v 0 L 16,15.581354 V 14.586 L 14.414,13 16,11.414 v -0.996543 0 L 15.623264,10 H 14.586 L 13,11.586 11.414,10 Z M 1,1 v 2.4124091 l 0.4414986,0.1460923 v 0 L 2,3 H 4 V 9 L 3.3886732,9.6113268 3.4542927,10 v 0 H 6.565139 v 0 L 6.652874,9.652874 6,9 V 3 H 8 L 8.6420608,3.6420608 9,3.5605365 v 0 V 1 Z"
     id="path5"
     sodipodi:nodetypes="cccccccccccccccccccccccccccccccccccccccccccccccccccccccc" />
  <path
     style="opacity:.35;fill:currentColor"
     class="ColorScheme-Text"
     d="M 3,12 H 7 V 13 H 3 Z"
     id="path7" />
</svg>
