<?xml version="1.0" encoding="UTF-8" standalone="no"?>
<svg
   width="16"
   height="16"
   version="1.1"
   id="svg7"
   sodipodi:docname="text-orientation-upright.svg"
   inkscape:version="1.1.2 (0a00cf5339, 2022-02-04)"
   xmlns:inkscape="http://www.inkscape.org/namespaces/inkscape"
   xmlns:sodipodi="http://sodipodi.sourceforge.net/DTD/sodipodi-0.dtd"
   xmlns="http://www.w3.org/2000/svg"
   xmlns:svg="http://www.w3.org/2000/svg">
  <sodipodi:namedview
     id="namedview9"
     pagecolor="#000000"
     bordercolor="#666666"
     borderopacity="1.0"
     inkscape:pageshadow="2"
     inkscape:pageopacity="0"
     inkscape:pagecheckerboard="0"
     showgrid="false"
     inkscape:zoom="133.64318"
     inkscape:cx="7.9989116"
     inkscape:cy="14.886655"
     inkscape:window-width="1920"
     inkscape:window-height="1051"
     inkscape:window-x="0"
     inkscape:window-y="29"
     inkscape:window-maximized="1"
     inkscape:current-layer="svg7" />
  <defs
     id="defs3">
    <style
       id="current-color-scheme"
       type="text/css">
   .ColorScheme-Text { color:#eeeeec; } .ColorScheme-Highlight { color:#367bf0; } .ColorScheme-NeutralText { color:#ffcc44; } .ColorScheme-PositiveText { color:#3db47e; } .ColorScheme-NegativeText { color:#dd4747; }
  </style>
  </defs>
  <path
     style="fill:currentColor"
     class="ColorScheme-Text"
     d="m 2,2 v 9.87729 L 1.8689876,12 v 0 H 0.53347181 l -0.2222477,0.414965 v 0 l 2.46331969,3.284427 v 0 l 0.4909395,-0.05337 2.4125814,-3.216775 v 0 L 5.5281898,12 H 4.1363245 v 0 L 4,11.862965 V 2 Z M 8,16 H 9 V 14.136906 L 9.1541439,14 v 0 h 2.7129891 v 0 L 12,14.093151 V 16 h 1 v -4 c 0,-2 -2.5,-2 -2.5,-2 0,0 -2.5,0 -2.5,2 z M 9.1335,13 9,12.88396 V 12.5 C 9,11 10.5,11 10.5,11 c 0,0 1.5,0 1.5,1.5 v 0.377312 L 11.873085,13 v 0 z M 8.5,3 C 8.5,3 8,3 8,3.5 8,4 8.5,4 8.5,4 h 3 L 10,5.25 V 6 H 6.5 C 6.5,6 6,6 6,6.5 6,7 6.5,7 6.5,7 H 10 V 8 H 8.5 C 8.5,8 8,8 8,8.5 8,9 8.5,9 8.5,9 H 10 c 0,0 1,0 1,-1 V 7 h 3.5 C 14.5,7 15,7 15,6.5 15,6 14.5,6 14.5,6 H 11 V 5.75 C 11,5.75 13,4.5 13,4 13,3 12,3 12,3 Z m 1,-3 C 9,0 9,0.5 9,0.5 V 1 H 6.5 C 6,1 6,1.5 6,1.5 v 1 C 6,2.5 6,3 6.5,3 7,3 7,2.5 7,2.5 V 2 h 7 V 2.5 C 14,2.5 14,3 14.5,3 15,3 15,2.5 15,2.5 v -1 C 15,1.5 15,1 14.5,1 H 10 V 0.5 C 10,0.5 10,0 9.5,0 Z"
     id="path5"
     sodipodi:nodetypes="ccccccccccccccccccccccccccccscscccscsccccccscccccsccccsccsccscccsccsccsccsccccsccsccs" />
</svg>
