<?xml version="1.0" encoding="UTF-8" standalone="no"?>
<svg
   width="16"
   height="16"
   version="1.1"
   id="svg7"
   sodipodi:docname="tools-media-optical-burn.svg"
   inkscape:version="1.1.2 (0a00cf5339, 2022-02-04)"
   xmlns:inkscape="http://www.inkscape.org/namespaces/inkscape"
   xmlns:sodipodi="http://sodipodi.sourceforge.net/DTD/sodipodi-0.dtd"
   xmlns="http://www.w3.org/2000/svg"
   xmlns:svg="http://www.w3.org/2000/svg">
  <sodipodi:namedview
     id="namedview9"
     pagecolor="#ffffff"
     bordercolor="#666666"
     borderopacity="1.0"
     inkscape:pageshadow="2"
     inkscape:pageopacity="0.0"
     inkscape:pagecheckerboard="0"
     showgrid="false"
     inkscape:zoom="47.25"
     inkscape:cx="8"
     inkscape:cy="8"
     inkscape:window-width="1880"
     inkscape:window-height="966"
     inkscape:window-x="0"
     inkscape:window-y="29"
     inkscape:window-maximized="1"
     inkscape:current-layer="svg7" />
  <defs
     id="defs3">
    <style
       id="current-color-scheme"
       type="text/css">
   .ColorScheme-Text { color:#eeeeec; } .ColorScheme-Highlight { color:#367bf0; } .ColorScheme-NeutralText { color:#ffcc44; } .ColorScheme-PositiveText { color:#3db47e; } .ColorScheme-NegativeText { color:#dd4747; }
  </style>
  </defs>
  <path
     style="fill:currentColor"
     class="ColorScheme-Text"
     d="m 9.248665,1.1149849 c -0.084662,0.037628 0.082896,-0.039022 0,0 C 4.9254527,3.150068 3,7.051738 3,9.75 c 0,2.09705 1.1962689,4.048725 3.0692801,4.857298 0.5831916,0.251762 -0.4592688,-0.194785 0.2394587,-0.194785 -0.6836515,0 0.4328632,0.366265 0,0 C 5.7363915,13.928223 5.4121,13.190353 5.4121,12.375 c 0,-1.391052 1.1302755,-3.3343105 3.028031,-4.2625768 0.080421,-0.039337 -0.083149,0.035572 0,0 0,0.073291 0.2466266,0.032657 0.2490739,0.1030007 C 8.7890364,11.084898 10.8686,11.546754 10.322,13.25 c -0.124765,0.389251 -0.3249692,0.743184 -0.5951256,1.029303 -0.080159,0.08489 0,0 -0.2588077,0.235924 -0.3630052,0.330908 1.0240093,-0.05632 0.4359529,-0.05632 0.5620884,0 -0.285365,0.10268 -0.285365,0.10268 0.096862,0.02982 0.1913341,-0.06625 0.285365,-0.10268 C 11.648303,13.783156 13,12.355524 13,10.5 13,8.0426871 9.58836,6.0684452 9.5014823,1.2535164 9.4999731,1.1698739 9.2481323,1.2003592 9.248665,1.1149849 Z"
     id="path5"
     sodipodi:nodetypes="cssscssscscsscssssc" />
</svg>
