<?xml version="1.0" encoding="UTF-8" standalone="no"?>
<svg
   width="16"
   height="16"
   viewBox="0 0 16 16"
   version="1.1"
   id="svg7"
   sodipodi:docname="transform-move.svg"
   inkscape:version="1.1.2 (0a00cf5339, 2022-02-04)"
   xmlns:inkscape="http://www.inkscape.org/namespaces/inkscape"
   xmlns:sodipodi="http://sodipodi.sourceforge.net/DTD/sodipodi-0.dtd"
   xmlns="http://www.w3.org/2000/svg"
   xmlns:svg="http://www.w3.org/2000/svg">
  <sodipodi:namedview
     id="namedview9"
     pagecolor="#000000"
     bordercolor="#666666"
     borderopacity="1.0"
     inkscape:pageshadow="2"
     inkscape:pageopacity="0"
     inkscape:pagecheckerboard="0"
     showgrid="false"
     inkscape:zoom="47.25"
     inkscape:cx="8"
     inkscape:cy="8"
     inkscape:window-width="1880"
     inkscape:window-height="966"
     inkscape:window-x="0"
     inkscape:window-y="29"
     inkscape:window-maximized="1"
     inkscape:current-layer="svg7" />
  <defs
     id="defs3">
    <style
       id="current-color-scheme"
       type="text/css">
   .ColorScheme-Text { color:#eeeeec; } .ColorScheme-Highlight { color:#367bf0; } .ColorScheme-NeutralText { color:#ffcc44; } .ColorScheme-PositiveText { color:#3db47e; } .ColorScheme-NegativeText { color:#dd4747; }
  </style>
  </defs>
  <path
     style="fill:currentColor"
     class="ColorScheme-Text"
     d="m 7.8192527,1.271121 v 0 L 6.2336851,3.6494723 v 0 L 6.4594391,4 H 9.6552812 V 4 L 9.7660468,3.6490702 8.2096556,1.3144835 Z m -4.155245,4.9528739 v 0 L 1.3148018,7.7901321 v 0 l -0.063741,0.377242 2.4321271,1.621418 v 0 L 4,9.6344052 V 6.354073 Z M 8,6 C 6.8954,6 6,6.8954 6,8 6,9.1046 6.8954,10 8,10 9.1046,10 10,9.1046 10,8 10,6.8954 9.1046,6 8,6 Z m 4,0.396487 v 0 3.1742983 l 0.342675,0.2007645 v 0 l 2.329837,-1.5532245 v 0 L 14.637772,7.7585148 12.356991,6.2379941 Z m -5.7912471,5.916642 v 0 l 1.6278597,2.44179 v 0 l 0.3687594,-0.06298 1.5854201,-2.37813 v 0 L 9.5921418,12 H 6.501937 Z"
     id="path5"
     sodipodi:nodetypes="ccccccccccccccccccccssssscccccccccccccccccccc" />
</svg>
