<?xml version="1.0" encoding="UTF-8" standalone="no"?>
<svg
   width="16"
   height="16"
   version="1.1"
   id="svg225691"
   sodipodi:docname="udiskie-detach.svg"
   inkscape:version="1.1.2 (0a00cf5339, 2022-02-04)"
   xmlns:inkscape="http://www.inkscape.org/namespaces/inkscape"
   xmlns:sodipodi="http://sodipodi.sourceforge.net/DTD/sodipodi-0.dtd"
   xmlns="http://www.w3.org/2000/svg"
   xmlns:svg="http://www.w3.org/2000/svg">
  <sodipodi:namedview
     id="namedview225693"
     pagecolor="#000000"
     bordercolor="#666666"
     borderopacity="1.0"
     inkscape:pageshadow="2"
     inkscape:pageopacity="0"
     inkscape:pagecheckerboard="0"
     showgrid="false"
     inkscape:zoom="51.6875"
     inkscape:cx="8.0096735"
     inkscape:cy="14.964933"
     inkscape:window-width="1920"
     inkscape:window-height="1051"
     inkscape:window-x="0"
     inkscape:window-y="29"
     inkscape:window-maximized="1"
     inkscape:current-layer="svg225691" />
  <defs
     id="defs225687">
    <style
       id="current-color-scheme"
       type="text/css">
   .ColorScheme-Text { color:#eeeeec; } .ColorScheme-Highlight { color:#367bf0; } .ColorScheme-NeutralText { color:#ffcc44; } .ColorScheme-PositiveText { color:#3db47e; } .ColorScheme-NegativeText { color:#dd4747; }
  </style>
  </defs>
  <path
     style="fill:currentColor"
     class="ColorScheme-Text"
     d="M 8,0.8059885 7.5665309,0.72244843 2.3373224,9.437796 2.5964175,10 v 0 h 5.1506752 v 0 L 8,10.317731 v 4.711471 0 L 8.4932337,15.177944 13.678907,6.535155 13.494889,6 V 6 H 8.2769706 V 6 L 8,5.7181277 Z M 2.154422,11.245274 2,11.308296 V 12 c 0,0.28 0.099297,0.540703 0.2792969,0.720703 L 3.0605469,13.5 2.2792969,14.279297 C 2.0992969,14.459297 2,14.72 2,15 v 0.705375 L 2.3360024,15.826042 2.4121566,16 H 3 c 0.28,0 0.5407031,-0.0993 0.7207031,-0.279297 L 4.5,14.939453 5.2792969,15.720703 C 5.4592969,15.900703 5.72,16 6,16 H 6.5969489 L 6.7752596,15.846667 7,15.737178 V 15 C 7,14.72 6.9007031,14.459297 6.7207031,14.279297 L 5.9394531,13.5 6.7207031,12.720703 C 6.9007031,12.540703 7,12.28 7,12 V 11.443973 L 6.9107549,11.171832 6.6814352,11 H 6 C 5.72,11 5.4592969,11.0993 5.2792969,11.279297 L 4.5,12.060547 3.7207031,11.279297 C 3.5407031,11.099297 3.28,11 3,11 H 2.3563579 Z"
     id="path225689"
     sodipodi:nodetypes="ccccccccccccccccccsccsccccsccsccccsccsccccsccsccccs" />
</svg>
