<?xml version="1.0" encoding="UTF-8" standalone="no"?>
<svg
   width="16"
   height="16"
   version="1.1"
   id="svg7"
   sodipodi:docname="udiskie-mount.svg"
   inkscape:version="1.1.2 (0a00cf5339, 2022-02-04)"
   xmlns:inkscape="http://www.inkscape.org/namespaces/inkscape"
   xmlns:sodipodi="http://sodipodi.sourceforge.net/DTD/sodipodi-0.dtd"
   xmlns="http://www.w3.org/2000/svg"
   xmlns:svg="http://www.w3.org/2000/svg">
  <sodipodi:namedview
     id="namedview9"
     pagecolor="#000000"
     bordercolor="#666666"
     borderopacity="1.0"
     inkscape:pageshadow="2"
     inkscape:pageopacity="0"
     inkscape:pagecheckerboard="0"
     showgrid="false"
     inkscape:zoom="47.25"
     inkscape:cx="8"
     inkscape:cy="8.010582"
     inkscape:window-width="1920"
     inkscape:window-height="1051"
     inkscape:window-x="0"
     inkscape:window-y="29"
     inkscape:window-maximized="1"
     inkscape:current-layer="svg7" />
  <defs
     id="defs3">
    <style
       id="current-color-scheme"
       type="text/css">
   .ColorScheme-Text { color:#eeeeec; } .ColorScheme-Highlight { color:#367bf0; } .ColorScheme-NeutralText { color:#ffcc44; } .ColorScheme-PositiveText { color:#3db47e; } .ColorScheme-NegativeText { color:#dd4747; }
  </style>
  </defs>
  <path
     style="fill:currentColor"
     class="ColorScheme-Text"
     d="M 8,1 C 4.1340068,1 1,4.1340068 1,8 0.9995084,8.3345854 1.0230061,8.6687754 1.0703125,9 H 4 V 8 C 3.9999742,7.6212087 4.2139535,7.27491 4.5527344,7.1054688 4.8913081,6.9360476 5.2965256,6.9723357 5.5996094,7.1992188 L 6.0605469,7.5449219 C 6.2712948,6.6429777 7.073769,6.003746 8,6 9.1045695,6 10,6.8954305 10,8 9.9990286,8.7199993 9.6111276,9.383907 8.984375,9.7382812 l 0.6152344,0.4609378 c 0.5346346,0.4 0.5346346,1.201562 0,1.601562 L 5.8164062,14.638672 C 6.5205037,14.87415 7.2575795,14.996117 8,15 11.865993,15 15,11.865993 15,8 15,4.1340068 11.865993,1 8,1 Z M 5,8.4281787 v 0 1.3760192 L 4.7313885,10 v 0 H 0 v 2 h 4.7352004 v 0 L 5,12.256663 v 1.271793 0 c 0.1298419,-0.08411 0.2739742,0.288982 0.4294684,0.179124 0.8763066,-0.619117 2.1134731,-1.600449 3.1873719,-2.4179 0.1304418,-0.09929 -0.1246849,0.09351 0,0 L 8.5877354,10.690802 5.3842646,8.2881985 Z"
     id="path5"
     sodipodi:nodetypes="sccccccccccccccssccccccccccccsscccc" />
</svg>
