<?xml version="1.0" encoding="UTF-8" standalone="no"?>
<svg
   width="16"
   height="16"
   version="1.1"
   id="svg109678"
   sodipodi:docname="view-presentation.svg"
   inkscape:version="1.1.2 (0a00cf5339, 2022-02-04)"
   xmlns:inkscape="http://www.inkscape.org/namespaces/inkscape"
   xmlns:sodipodi="http://sodipodi.sourceforge.net/DTD/sodipodi-0.dtd"
   xmlns="http://www.w3.org/2000/svg"
   xmlns:svg="http://www.w3.org/2000/svg">
  <sodipodi:namedview
     id="namedview109680"
     pagecolor="#000000"
     bordercolor="#666666"
     borderopacity="1.0"
     inkscape:pageshadow="2"
     inkscape:pageopacity="0"
     inkscape:pagecheckerboard="0"
     showgrid="false"
     inkscape:zoom="51.6875"
     inkscape:cx="7.9903265"
     inkscape:cy="8"
     inkscape:window-width="1920"
     inkscape:window-height="1051"
     inkscape:window-x="0"
     inkscape:window-y="29"
     inkscape:window-maximized="1"
     inkscape:current-layer="svg109678" />
  <defs
     id="defs109674">
    <style
       id="current-color-scheme"
       type="text/css">
   .ColorScheme-Text { color:#eeeeec; } .ColorScheme-Highlight { color:#367bf0; } .ColorScheme-NeutralText { color:#ffcc44; } .ColorScheme-PositiveText { color:#3db47e; } .ColorScheme-NegativeText { color:#dd4747; }
  </style>
  </defs>
  <path
     style="fill:currentColor"
     class="ColorScheme-Text"
     d="M 2,0 C 0,0 0,2 0,2 v 9 c 0,0 0,2 2,2 h 12 c 0,0 2,0 2,-2 V 2 c 0,0 0,-2 -2,-2 z m 3,2.4390446 0.3792677,-0.1861995 5.2409013,3.4939345 -0.01681,0.5176453 v 0 L 5.4171266,9.7219156 5,9.5088375 v 0 z M 4,14 c 0,0 -1,0 -1,1 v 1 h 10 v -1 c 0,-1 -1,-1 -1,-1 z"
     id="path109676"
     sodipodi:nodetypes="sccscscsscccccccccccsccscc" />
</svg>
