<?xml version="1.0" encoding="UTF-8" standalone="no"?>
<svg
   width="16"
   height="16"
   version="1.1"
   id="svg7"
   sodipodi:docname="view-pages-facing-first-centered.svg"
   inkscape:version="1.1.2 (0a00cf5339, 2022-02-04)"
   xmlns:inkscape="http://www.inkscape.org/namespaces/inkscape"
   xmlns:sodipodi="http://sodipodi.sourceforge.net/DTD/sodipodi-0.dtd"
   xmlns="http://www.w3.org/2000/svg"
   xmlns:svg="http://www.w3.org/2000/svg">
  <sodipodi:namedview
     id="namedview9"
     pagecolor="#000000"
     bordercolor="#666666"
     borderopacity="1.0"
     inkscape:pageshadow="2"
     inkscape:pageopacity="0"
     inkscape:pagecheckerboard="0"
     showgrid="false"
     inkscape:zoom="47.25"
     inkscape:cx="8"
     inkscape:cy="8"
     inkscape:window-width="1912"
     inkscape:window-height="966"
     inkscape:window-x="0"
     inkscape:window-y="29"
     inkscape:window-maximized="1"
     inkscape:current-layer="svg7" />
  <defs
     id="defs3">
    <style
       id="current-color-scheme"
       type="text/css">
   .ColorScheme-Text { color:#eeeeec; } .ColorScheme-Highlight { color:#367bf0; } .ColorScheme-NeutralText { color:#ffcc44; } .ColorScheme-PositiveText { color:#3db47e; } .ColorScheme-NegativeText { color:#dd4747; }
  </style>
  </defs>
  <path
     style="fill:currentColor"
     class="ColorScheme-Text"
     d="M 6.6660156,0 4,2.8574219 V 9.2851562 C 4,9.2851562 3.9993486,10 4.6660156,10 H 11.333984 C 11.333984,10 12,9.9994422 12,9.2851562 V 0.71484375 C 12,5.5795e-4 11.333984,0 11.333984,0 Z M 7.2788771,2.1622598 7.6871073,2 h 2.074003 V 2 L 10,2.2906888 V 7.6872203 L 9.7611103,8 V 8 H 6.2478389 V 8 L 6,7.6027134 V 3.9412977 L 6.1758449,3.4862031 v 0 z M 2.6660156,6 0,8.8574219 V 15.285156 C 0,15.285156 -6.5137e-4,16 0.66601562,16 H 7.3339844 C 7.3339844,16 8,15.999442 8,15.285156 8,15.285156 7.9993486,16 8.6660156,16 H 15.333984 C 15.333984,16 16,15.999442 16,15.285156 V 6.7148438 C 16,6.000558 15.333984,6 15.333984,6 H 13 v 2 h 0.84552 L 14,8.1952234 v 0 5.4601516 L 13.760931,14 v 0 H 10.353242 L 10,13.655375 v 0 V 11 H 8 6 v 2.612962 L 5.7186867,14 v 0 H 2.3116152 L 2,13.612962 v 0 -3.9156964 L 3,8.4960938 V 6 Z"
     id="path5"
     sodipodi:nodetypes="cccscsscccccccccccccccccccccsccscsscccccccccccccccccccccccc" />
</svg>
