<?xml version="1.0" encoding="UTF-8" standalone="no"?>
<svg
   width="16"
   height="16"
   version="1.1"
   id="svg7"
   sodipodi:docname="view-pages-overview.svg"
   inkscape:version="1.1.2 (0a00cf5339, 2022-02-04)"
   xmlns:inkscape="http://www.inkscape.org/namespaces/inkscape"
   xmlns:sodipodi="http://sodipodi.sourceforge.net/DTD/sodipodi-0.dtd"
   xmlns="http://www.w3.org/2000/svg"
   xmlns:svg="http://www.w3.org/2000/svg">
  <sodipodi:namedview
     id="namedview9"
     pagecolor="#000000"
     bordercolor="#666666"
     borderopacity="1.0"
     inkscape:pageshadow="2"
     inkscape:pageopacity="0"
     inkscape:pagecheckerboard="0"
     showgrid="false"
     inkscape:zoom="47.25"
     inkscape:cx="8"
     inkscape:cy="8"
     inkscape:window-width="1912"
     inkscape:window-height="966"
     inkscape:window-x="0"
     inkscape:window-y="29"
     inkscape:window-maximized="1"
     inkscape:current-layer="svg7" />
  <defs
     id="defs3">
    <style
       id="current-color-scheme"
       type="text/css">
   .ColorScheme-Text { color:#eeeeec; } .ColorScheme-Highlight { color:#367bf0; } .ColorScheme-NeutralText { color:#ffcc44; } .ColorScheme-PositiveText { color:#3db47e; } .ColorScheme-NegativeText { color:#dd4747; }
  </style>
  </defs>
  <path
     style="fill:currentColor"
     class="ColorScheme-Text"
     d="M 14.333984,0 C 14.333984,0 15,5.5785e-4 15,0.71484375 V 9.2851562 C 15,9.9994422 14.333984,10 14.333984,10 H 13 V 8 3.7148438 2.2270679 L 12.766224,2 V 2 H 11.333984 10.414063 7.8007812 L 9.6660156,0 Z m -3,3 C 11.333984,3 12,3.0005579 12,3.7148438 V 12.285156 C 12,12.999442 11.333984,13 11.333984,13 H 10 v -2 -4.2851562 -1.482491 0 L 9.6975136,5 H 8.3339844 7.4140625 4.800781 L 6.6660156,3 Z M 8.3339844,6 C 8.3339844,6 9,6.000558 9,6.7148438 V 15.285156 C 9,15.999442 8.3339844,16 8.3339844,16 H 1.666016 C 0.999349,16 1,15.285156 1,15.285156 V 8.8574219 L 3.666016,6 Z M 7,8.237638 6.7979833,8 H 4.5757921 V 8 L 4.3012014,8.135464 3.0972798,9.5805029 v 0 L 3,9.8670402 V 13.718997 L 3.2637184,14 v 0 L 6.7133931,14 7,13.676583 v 0 z"
     id="path5"
     sodipodi:nodetypes="csscccccccccccccsscccccccccccccsscsccccccccccccccccccc" />
</svg>
