<?xml version="1.0" encoding="UTF-8" standalone="no"?>
<svg
   width="16"
   height="16"
   version="1.1"
   id="svg7"
   sodipodi:docname="view-certificate-import.svg"
   inkscape:version="1.1.2 (0a00cf5339, 2022-02-04)"
   xmlns:inkscape="http://www.inkscape.org/namespaces/inkscape"
   xmlns:sodipodi="http://sodipodi.sourceforge.net/DTD/sodipodi-0.dtd"
   xmlns="http://www.w3.org/2000/svg"
   xmlns:svg="http://www.w3.org/2000/svg">
  <sodipodi:namedview
     id="namedview9"
     pagecolor="#000000"
     bordercolor="#666666"
     borderopacity="1.0"
     inkscape:pageshadow="2"
     inkscape:pageopacity="0"
     inkscape:pagecheckerboard="0"
     showgrid="false"
     inkscape:zoom="133.64318"
     inkscape:cx="7.9989116"
     inkscape:cy="13.487407"
     inkscape:window-width="1920"
     inkscape:window-height="1051"
     inkscape:window-x="0"
     inkscape:window-y="29"
     inkscape:window-maximized="1"
     inkscape:current-layer="svg7" />
  <defs
     id="defs3">
    <style
       id="current-color-scheme"
       type="text/css">
   .ColorScheme-Text { color:#eeeeec; } .ColorScheme-Highlight { color:#367bf0; } .ColorScheme-NeutralText { color:#ffcc44; } .ColorScheme-PositiveText { color:#3db47e; } .ColorScheme-NegativeText { color:#dd4747; }
  </style>
  </defs>
  <path
     style="fill:currentColor"
     class="ColorScheme-Text"
     d="m 13,10.353836 -0.341205,-0.0695 -2.310748,1.925622 -0.04562,0.542058 v 0 L 12.614925,14.679104 13,14.586555 v 0 -0.486377 0 L 13.129459,14 H 16 v -3 h -2.917993 v 0 L 13,10.902957 Z M 0,1 V 15 H 9 V 10 9 h 6 1 V 1 Z m 9,2 h 6 V 4 H 9 Z M 3.5,4 C 3.5,4 5,4 5,5.5 V 7 h 1 v 3 H 1 V 7 H 2 V 5.5 C 2,4 3.5,4 3.5,4 Z m 0,1 C 3.5,5 3,5 3,5.5 V 7 H 4 V 5.5 C 4,5 3.5,5 3.5,5 Z M 9,6 h 6 V 7 H 9 Z"
     id="path5"
     sodipodi:nodetypes="cccccccccccccccccccccccccccccccscsccccccsscsccsccccc" />
</svg>
