<?xml version="1.0" encoding="UTF-8" standalone="no"?>
<svg
   width="16"
   height="16"
   version="1.1"
   id="svg7"
   sodipodi:docname="view-left-close.svg"
   inkscape:version="1.1.2 (0a00cf5339, 2022-02-04)"
   xmlns:inkscape="http://www.inkscape.org/namespaces/inkscape"
   xmlns:sodipodi="http://sodipodi.sourceforge.net/DTD/sodipodi-0.dtd"
   xmlns="http://www.w3.org/2000/svg"
   xmlns:svg="http://www.w3.org/2000/svg">
  <sodipodi:namedview
     id="namedview9"
     pagecolor="#000000"
     bordercolor="#666666"
     borderopacity="1.0"
     inkscape:pageshadow="2"
     inkscape:pageopacity="0"
     inkscape:pagecheckerboard="0"
     showgrid="false"
     inkscape:zoom="146.19433"
     inkscape:cx="7.9962063"
     inkscape:cy="7.9996264"
     inkscape:window-width="1920"
     inkscape:window-height="1051"
     inkscape:window-x="0"
     inkscape:window-y="29"
     inkscape:window-maximized="1"
     inkscape:current-layer="svg7" />
  <defs
     id="defs3">
    <style
       id="current-color-scheme"
       type="text/css">
   .ColorScheme-Text { color:#eeeeec; } .ColorScheme-Highlight { color:#367bf0; } .ColorScheme-NeutralText { color:#ffcc44; } .ColorScheme-PositiveText { color:#3db47e; } .ColorScheme-NegativeText { color:#dd4747; }
  </style>
  </defs>
  <path
     style="fill:currentColor"
     class="ColorScheme-Text"
     d="M 0,1 V 15 H 16 V 1 Z m 9,2 h 5 V 13 H 9 Z M 1,5.4180969 1.415672,5 H 2.4141 l 1.4947398,1.4947398 0.1861815,-0.00386 v 0 L 5.5859,5 H 6.5744502 V 5 L 7,5.4886361 V 6.4141 l -1.5184503,1.5184503 0.010182,0.1450815 v 0 L 7,9.5859 v 1.024852 L 6.5612164,11 v 0 H 5.5859 L 4.0958647,9.5099647 v 0 L 3.9016055,9.5124945 2.4141,11 H 1.4629024 v 0 L 1,10.564376 V 9.5859 L 2.4987207,8.0871793 2.4808728,7.8949728 v 0 L 1,6.4141 Z"
     id="path5"
     sodipodi:nodetypes="cccccccccccccccccccccccccccccccccccccccccc" />
</svg>
