<?xml version="1.0" encoding="UTF-8" standalone="no"?>
<svg
   width="16"
   height="16"
   viewBox="0 0 16 16"
   version="1.1"
   id="svg25204"
   sodipodi:docname="view-media-visualization.svg"
   inkscape:version="1.1.2 (0a00cf5339, 2022-02-04)"
   xmlns:inkscape="http://www.inkscape.org/namespaces/inkscape"
   xmlns:sodipodi="http://sodipodi.sourceforge.net/DTD/sodipodi-0.dtd"
   xmlns="http://www.w3.org/2000/svg"
   xmlns:svg="http://www.w3.org/2000/svg">
  <sodipodi:namedview
     id="namedview25206"
     pagecolor="#000000"
     bordercolor="#666666"
     borderopacity="1.0"
     inkscape:pageshadow="2"
     inkscape:pageopacity="0"
     inkscape:pagecheckerboard="0"
     showgrid="false"
     inkscape:zoom="51.6875"
     inkscape:cx="7.9903265"
     inkscape:cy="8"
     inkscape:window-width="1920"
     inkscape:window-height="1051"
     inkscape:window-x="0"
     inkscape:window-y="29"
     inkscape:window-maximized="1"
     inkscape:current-layer="svg25204" />
  <defs
     id="defs25200">
    <style
       id="current-color-scheme"
       type="text/css">
   .ColorScheme-Text { color:#eeeeec; } .ColorScheme-Highlight { color:#367bf0; } .ColorScheme-NeutralText { color:#ffcc44; } .ColorScheme-PositiveText { color:#3db47e; } .ColorScheme-NegativeText { color:#dd4747; }
  </style>
  </defs>
  <path
     style="fill:currentColor"
     class="ColorScheme-Text"
     d="M 2,2 C 1,2 1,3 1,3 v 10 c 0,1 1,1 1,1 h 12 c 0,0 1,0 1,-1 V 3 C 15,2 14,2 14,2 Z m 3.248537,4.857969 0.5524881,0.045314 2.790555,3.1591189 v 0 l 0.5041973,-0.02485 1.5609136,-1.5150045 0.567507,0.014149 v 0 L 12.871996,10.184496 13,10.478643 v 0 1.317336 L 12.82889,12 v 0 l -9.5423297,0 v 0 L 3,11.770775 v -2.0630896 0 L 3.1693766,9.3009825 Z"
     id="path25202"
     sodipodi:nodetypes="scsccsscscccccccccccccccccccccc" />
</svg>
