<?xml version="1.0" encoding="UTF-8" standalone="no"?>
<svg
   width="16"
   height="16"
   version="1.1"
   id="svg7"
   sodipodi:docname="view-currency-list.svg"
   inkscape:version="1.1.2 (0a00cf5339, 2022-02-04)"
   xmlns:inkscape="http://www.inkscape.org/namespaces/inkscape"
   xmlns:sodipodi="http://sodipodi.sourceforge.net/DTD/sodipodi-0.dtd"
   xmlns="http://www.w3.org/2000/svg"
   xmlns:svg="http://www.w3.org/2000/svg">
  <sodipodi:namedview
     id="namedview9"
     pagecolor="#000000"
     bordercolor="#666666"
     borderopacity="1.0"
     inkscape:pageshadow="2"
     inkscape:pageopacity="0"
     inkscape:pagecheckerboard="0"
     showgrid="false"
     inkscape:zoom="51.6875"
     inkscape:cx="7.9903265"
     inkscape:cy="8"
     inkscape:window-width="1920"
     inkscape:window-height="1051"
     inkscape:window-x="0"
     inkscape:window-y="29"
     inkscape:window-maximized="1"
     inkscape:current-layer="svg7" />
  <defs
     id="defs3">
    <style
       id="current-color-scheme"
       type="text/css">
   .ColorScheme-Text { color:#eeeeec; } .ColorScheme-Highlight { color:#367bf0; } .ColorScheme-NeutralText { color:#ffcc44; } .ColorScheme-PositiveText { color:#3db47e; } .ColorScheme-NegativeText { color:#dd4747; }
  </style>
  </defs>
  <path
     style="fill:currentColor"
     class="ColorScheme-Text"
     d="M 9.8574219,1.4863281 8.1425781,2.5136719 11,7.2773438 V 8 H 9 v 1 h 2 v 1 H 9 v 1 h 2 v 4 h 2 v -4 h 2 V 10 H 13 V 9 h 2 V 8 H 13 V 7.2773438 L 15.857422,2.5136719 14.142578,1.4863281 12.17821,4.7596784 v 0 L 11.808368,4.7373116 Z M 5.5,2 C 3.416809,2.0036725 1.6076883,4.0721624 1.1269531,7 H 0 V 8 H 1.015625 C 1.0059746,8.1663151 1.0007624,8.3331054 1,8.5 1.001412,8.6669309 1.0072757,8.8337212 1.0175781,9 H 0 v 1 H 1.1269531 C 1.6076883,12.927838 3.416809,14.996327 5.5,15 7.0352217,14.999552 8.4643578,13.868612 9.2910156,12 H 7.0683594 C 6.6240477,12.644479 6.070621,12.995971 5.5,12.996094 4.4423924,12.994008 3.4999378,11.794236 3.1464844,10 H 6 V 9 H 3.0195312 C 3.0077844,8.832822 3.0012637,8.6645883 3,8.4960938 3.0001284,8.3303374 3.0053447,8.1647204 3.015625,8 H 8 V 7 H 3.1445312 C 3.4967614,5.2014674 4.4405495,3.9978637 5.5,3.9960938 6.0724878,3.9968214 6.6274943,4.3511981 7.0722656,5 H 9.2871094 C 8.4611991,3.1330747 7.0338341,2.0023719 5.5,2 Z"
     id="path5"
     sodipodi:nodetypes="ccccccccccccccccccccccccccccccccccccccccccccccccccccccc" />
</svg>
