<?xml version="1.0" encoding="UTF-8" standalone="no"?>
<svg
   width="16"
   height="16"
   version="1.1"
   id="svg320326"
   sodipodi:docname="vm-snapshot-autoprotect-keep.svg"
   inkscape:version="1.1.2 (0a00cf5339, 2022-02-04)"
   xmlns:inkscape="http://www.inkscape.org/namespaces/inkscape"
   xmlns:sodipodi="http://sodipodi.sourceforge.net/DTD/sodipodi-0.dtd"
   xmlns="http://www.w3.org/2000/svg"
   xmlns:svg="http://www.w3.org/2000/svg">
  <sodipodi:namedview
     id="namedview320328"
     pagecolor="#000000"
     bordercolor="#666666"
     borderopacity="1.0"
     inkscape:pageshadow="2"
     inkscape:pageopacity="0"
     inkscape:pagecheckerboard="0"
     showgrid="false"
     inkscape:zoom="51.6875"
     inkscape:cx="7.9903265"
     inkscape:cy="8"
     inkscape:window-width="1920"
     inkscape:window-height="1051"
     inkscape:window-x="0"
     inkscape:window-y="29"
     inkscape:window-maximized="1"
     inkscape:current-layer="svg320326" />
  <defs
     id="defs320322">
    <style
       id="current-color-scheme"
       type="text/css">
   .ColorScheme-Text { color:#eeeeec; } .ColorScheme-Highlight { color:#367bf0; } .ColorScheme-NeutralText { color:#ffcc44; } .ColorScheme-PositiveText { color:#3db47e; } .ColorScheme-NegativeText { color:#dd4747; }
  </style>
  </defs>
  <path
     style="fill:currentColor"
     class="ColorScheme-Text"
     d="M 4.5,0 C 3.132132,0 2,1.1321324 2,2.5 V 5.0507812 C 0.866938,5.2861798 0,6.3031158 0,7.5 v 6 C 0,14.867868 1.132132,16 2.5,16 h 6 C 8.8380221,16 9.161266,15.929448 9.4570312,15.804688 8.9198203,15.308688 8.5115598,14.689262 8.2675781,14 H 2.5 C 2.205537,14 2,13.794463 2,13.5 v -6 C 2,7.2055368 2.205537,7 2.5,7 H 5 7 8.5 C 8.7944632,7 9,7.2055368 9,7.5 V 9.6855469 C 9.5225815,9.0368957 10.214946,8.5460202 11,8.2675781 V 7.5 C 11,6.5194817 10.418271,5.6600923 9.5849822,5.2520001 9.2557951,5.0907851 9.8709745,5 9.4836252,5 V 5 L 9.0533024,5.081494 13.5,5 C 12.119288,5 11,3.8807119 11,2.5 V 3 H 7.5 C 6.3031158,3 5.2861799,3.8669384 5.0507812,5 H 4 V 2.5 C 4,2.2055368 4.2055368,2 4.5,2 h 6 C 10.794463,2 11,2.2055368 11,2.5 11.002603,1.7168877 11.37201,0.98024302 11.998047,0.50976562 11.578517,0.19161463 11.060152,0 10.5,0 Z m 9,5 C 13.794463,5 14,5.2055368 14,5.5 v 2.7578125 c 0.784592,0.2773595 1.476907,0.7668481 2,1.4140625 V 5.5 C 16,4.9398478 15.808385,4.4214831 15.490234,4.0019531 15.019757,4.6279902 14.283112,4.9973969 13.5,5 Z m 0,-4 C 12.671573,1 12,1.6715729 12,2.5 12,3.3284271 12.671573,4 13.5,4 14.328427,4 15,3.3284271 15,2.5 15,1.6715729 14.328427,1 13.5,1 Z m -1,8 C 10.567003,9 9,10.567003 9,12.5 9,14.432997 10.567003,16 12.5,16 14.432997,16 16,14.432997 16,12.5 16,10.567003 14.432997,9 12.5,9 Z m 0,1 c 1.380712,0 2.5,1.119288 2.5,2.5 0,1.380712 -1.119288,2.5 -2.5,2.5 -0.168147,-0.002 -0.335662,-0.02099 -0.5,-0.05664 v -0.778371 -0.250926 c 0.160578,0.05683 0.329663,0.08589 0.5,0.08594 0.828427,0 1.5,-0.671573 1.5,-1.5 0,-0.828427 -0.671573,-1.5 -1.5,-1.5 -0.583916,0 -1.089497,0.333808 -1.337227,0.82089 -0.02932,0.05766 0.0218,-0.06165 0,0 l 0.10046,0.17911 h 0.452043 v 0 l 0.0218,0.262926 -1.510463,1.510463 v 0 L 10,13.58383 V 12.5 12 12 c 0.01801,-1.182042 1.290548,-2 2.5,-2 z"
     id="path320324"
     sodipodi:nodetypes="sscssssccssssccssccssccccccsccsssccsscsccsccsssssssssssscccccssscccccccccccs" />
</svg>
