<?xml version="1.0" encoding="UTF-8" standalone="no"?>
<svg
   width="16"
   height="16"
   version="1.1"
   viewBox="0 0 16 16"
   id="svg7"
   sodipodi:docname="vmware-view-console.svg"
   inkscape:version="1.1.2 (0a00cf5339, 2022-02-04)"
   xmlns:inkscape="http://www.inkscape.org/namespaces/inkscape"
   xmlns:sodipodi="http://sodipodi.sourceforge.net/DTD/sodipodi-0.dtd"
   xmlns="http://www.w3.org/2000/svg"
   xmlns:svg="http://www.w3.org/2000/svg">
  <sodipodi:namedview
     id="namedview9"
     pagecolor="#000000"
     bordercolor="#666666"
     borderopacity="1.0"
     inkscape:pageshadow="2"
     inkscape:pageopacity="0"
     inkscape:pagecheckerboard="0"
     showgrid="false"
     inkscape:zoom="146.19433"
     inkscape:cx="2.2435891"
     inkscape:cy="5.2635421"
     inkscape:window-width="1920"
     inkscape:window-height="1051"
     inkscape:window-x="0"
     inkscape:window-y="29"
     inkscape:window-maximized="1"
     inkscape:current-layer="svg7" />
  <defs
     id="defs3">
    <style
       id="current-color-scheme"
       type="text/css">
   .ColorScheme-Text { color:#eeeeec; } .ColorScheme-Highlight { color:#367bf0; } .ColorScheme-NeutralText { color:#ffcc44; } .ColorScheme-PositiveText { color:#3db47e; } .ColorScheme-NegativeText { color:#dd4747; }
  </style>
  </defs>
  <path
     style="fill:currentColor"
     class="ColorScheme-Text"
     d="M 2,1 C 0.89200005,1 4.9999999e-8,1.892 4.9999999e-8,3 V 13 C 4.9999999e-8,14.108 0.89200005,15 2,15 h 12 c 1.108,0 2,-0.892 2,-2 V 3 C 16,1.892 15.108,1 14,1 Z M 4,3 H 4.9999999 V 3.9322302 L 5.0844684,4 V 4 H 5.4999999 C 6.1175785,4 6.640813,4.3727393 6.8706403,4.9043346 6.8841942,4.9356852 6.8161912,4.9675883 6.8276634,5 v 0 l -1.7783939,0 -0.04927,0.056159 v 0 0.8722041 L 5.0616257,6 c 0,0 -0.020542,0 0,0 0.1461247,0 0.4383742,0 0.4383742,0 0.831,0 1.5,0.669 1.5,1.5 0,0.831 -0.669,1.5 -1.5,1.5 H 5.0555837 l -0.055584,0.060834 v 0 V 10 H 4 V 9.0684983 L 3.9393213,9 V 9 H 3.5 C 2.878202,9 2.3523445,8.622381 2.1248973,8.0852401 2.113045,8.0572497 2.1988558,8.028826 2.1886528,8 V 8 H 3.9391811 V 8 L 4,7.9333205 V 7.0436903 L 3.9385269,7 V 7 H 3.5 C 2.669,7 2,6.331 2,5.5 2,4.669 2.669,4 3.5,4 H 3.9269681 V 4 L 4,3.9346346 Z M 3.5,5 C 3.223,5 3,5.223 3,5.5 3,5.777 3.223,6 3.5,6 H 3.9219749 V 6 L 4,5.9277053 V 5.0719918 L 3.9318077,5 v 0 z m 1.4999999,2.0622103 v 0 0.8643598 L 5.0853253,8 v 0 h 0.4146746 c 0.2767,0.0129 0.5,-0.223 0.5,-0.5 0,-0.277 -0.223,-0.5 -0.5,-0.5 H 5.0569575 Z M 7.9999999,9 H 12 v 1 H 7.9999999 Z"
     id="path5"
     sodipodi:nodetypes="ssssssssscccccsscccccccssssccccccccssccccccccsssccccsssccccccsccccccssccccccc" />
</svg>
