<?xml version="1.0" encoding="UTF-8" standalone="no"?>
<svg
   width="16"
   height="16"
   version="1.1"
   id="svg7"
   sodipodi:docname="vmware-vcenter.svg"
   inkscape:version="1.1.2 (0a00cf5339, 2022-02-04)"
   xmlns:inkscape="http://www.inkscape.org/namespaces/inkscape"
   xmlns:sodipodi="http://sodipodi.sourceforge.net/DTD/sodipodi-0.dtd"
   xmlns="http://www.w3.org/2000/svg"
   xmlns:svg="http://www.w3.org/2000/svg">
  <sodipodi:namedview
     id="namedview9"
     pagecolor="#000000"
     bordercolor="#666666"
     borderopacity="1.0"
     inkscape:pageshadow="2"
     inkscape:pageopacity="0"
     inkscape:pagecheckerboard="0"
     showgrid="false"
     inkscape:zoom="51.6875"
     inkscape:cx="8"
     inkscape:cy="8.019347"
     inkscape:window-width="1203"
     inkscape:window-height="1043"
     inkscape:window-x="574"
     inkscape:window-y="32"
     inkscape:window-maximized="1"
     inkscape:current-layer="svg7" />
  <defs
     id="defs3">
    <style
       id="current-color-scheme"
       type="text/css">
   .ColorScheme-Text { color:#eeeeec; } .ColorScheme-Highlight { color:#367bf0; } .ColorScheme-NeutralText { color:#ffcc44; } .ColorScheme-PositiveText { color:#3db47e; } .ColorScheme-NegativeText { color:#dd4747; }
  </style>
  </defs>
  <path
     style="fill:currentColor"
     class="ColorScheme-Text"
     d="M 6.6660156,0 C 5.205981,0 4,1.205981 4,2.6660156 V 4 H 2.6660156 C 1.205981,4 0,5.205981 0,6.6660156 V 13.333984 C 0,14.794019 1.205981,16 2.6660156,16 H 9.3339844 C 10.794019,16 12,14.794019 12,13.333984 V 12 h 1.333984 C 14.794019,12 16,10.794019 16,9.3339844 V 2.6660156 C 16,1.205981 14.794019,0 13.333984,0 Z M 6,2.3153258 6.3424393,2 H 13.701451 V 2 L 14,2.3692068 v 7.2281306 0 L 13.604708,10 h -3.36535 v 0 L 10,10.321287 v 3.296128 0 L 9.6628675,14 H 2.3802654 v 0 L 2,13.632386 V 6.4338016 6.434 L 2.464584,6 H 5.7267751 V 6 L 6,5.6505748 Z m 1,1.0191008 v 0 3.3027302 L 6.71081,7 V 7 H 3.4020048 L 3,7.3438173 v 0 5.3202347 L 3.2899753,13 v 0 H 8.705567 v 0 L 9,12.616151 v -3.2475925 0 L 9.36834,9 h 3.203779 V 9 L 13,8.62485 13,3.3771173 v 0 L 12.591802,3 H 7.3315022 Z"
     id="path5"
     sodipodi:nodetypes="sscsssssscsssssccccccccccccccccccccccccccccccccccccccccccccccccc" />
</svg>
