<?xml version="1.0" encoding="UTF-8" standalone="no"?>
<svg
   width="16"
   height="16"
   version="1.1"
   id="svg282806"
   sodipodi:docname="vmware-autoprotect-keep.svg"
   inkscape:version="1.1.2 (0a00cf5339, 2022-02-04)"
   xmlns:inkscape="http://www.inkscape.org/namespaces/inkscape"
   xmlns:sodipodi="http://sodipodi.sourceforge.net/DTD/sodipodi-0.dtd"
   xmlns="http://www.w3.org/2000/svg"
   xmlns:svg="http://www.w3.org/2000/svg">
  <sodipodi:namedview
     id="namedview282808"
     pagecolor="#000000"
     bordercolor="#666666"
     borderopacity="1.0"
     inkscape:pageshadow="2"
     inkscape:pageopacity="0"
     inkscape:pagecheckerboard="0"
     showgrid="false"
     inkscape:zoom="51.6875"
     inkscape:cx="7.9903265"
     inkscape:cy="8.0096735"
     inkscape:window-width="1880"
     inkscape:window-height="966"
     inkscape:window-x="0"
     inkscape:window-y="29"
     inkscape:window-maximized="1"
     inkscape:current-layer="svg282806" />
  <defs
     id="defs282802">
    <style
       id="current-color-scheme"
       type="text/css">
   .ColorScheme-Text { color:#eeeeec; } .ColorScheme-Highlight { color:#367bf0; } .ColorScheme-NeutralText { color:#ffcc44; } .ColorScheme-PositiveText { color:#3db47e; } .ColorScheme-NegativeText { color:#dd4747; }
  </style>
  </defs>
  <path
     style="fill:currentColor"
     class="ColorScheme-Text"
     d="M 4.5,0 C 3.132132,0 2,1.1321324 2,2.5 V 5.0507812 C 0.866938,5.2861798 0,6.3031158 0,7.5 v 6 C 0,14.867868 1.132132,16 2.5,16 h 6 C 8.8380221,16 9.161266,15.929448 9.4570312,15.804688 8.9198201,15.30869 8.5115598,14.689262 8.2675781,14 H 2.5 C 2.205537,14 2,13.794463 2,13.5 v -6 C 2,7.2055368 2.205537,7 2.5,7 H 5 7 8.5 C 8.7944632,7 9,7.2055368 9,7.5 V 9.6855469 C 9.5225815,9.0368957 10.214946,8.5460202 11,8.2675781 V 7.5 C 11,6.4261776 10.302291,5.4976336 9.3405507,5.1480444 c -0.2633538,-0.095728 0.8405503,0.1480445 0,0 L 9.3538038,5 H 13.5 C 13.794463,5 14,5.2055368 14,5.5 v 2.7578125 c 0.784592,0.2773595 1.476907,0.7668481 2,1.4140625 V 5.5 C 16,4.1321324 14.867868,3 13.5,3 H 13 V 2.5 C 13,1.1321324 11.867868,0 10.5,0 Z m 0,2 h 6 C 10.794463,2 11,2.2055368 11,2.5 V 3 H 7.5 C 6.3031158,3 5.2861799,3.8669384 5.0507812,5 H 4 V 2.5 C 4,2.2055368 4.2055368,2 4.5,2 Z m 8,7 C 10.567003,9 9,10.567003 9,12.5 9,14.432997 10.567003,16 12.5,16 14.432997,16 16,14.432997 16,12.5 16,10.567003 14.432997,9 12.5,9 Z m 0,1 c 1.380712,0 2.5,1.119288 2.5,2.5 0,1.380712 -1.119288,2.5 -2.5,2.5 -0.168147,-0.002 -0.335662,-0.02099 -0.5,-0.05664 v -1.029297 c 0.160578,0.05683 0.329663,0.08589 0.5,0.08594 0.828427,0 1.5,-0.671573 1.5,-1.5 0,-0.828427 -0.671573,-1.5 -1.5,-1.5 -0.596468,0 -1.111196,0.348314 -1.352844,0.852514 -0.02292,0.04781 0.129707,0.09703 0.111866,0.147486 v 0 h 0.430641 0.125319 -0.125319 l 0.0104,0.299906 v 0 l -1.486275,1.486275 v 0 L 10,13.59079 V 12.5 12 12 c 0.09614,-1.180291 1.290548,-2 2.5,-2 z"
     id="path282804"
     sodipodi:nodetypes="sscssssccssssccssccssccssccsscsssssscsccsssssssssccccssscccccccccccccs" />
</svg>
