<?xml version="1.0" encoding="UTF-8" standalone="no"?>
<svg
   width="16"
   height="16"
   version="1.1"
   id="svg7829"
   sodipodi:docname="wallet-open.svg"
   inkscape:version="1.1.2 (0a00cf5339, 2022-02-04)"
   xmlns:inkscape="http://www.inkscape.org/namespaces/inkscape"
   xmlns:sodipodi="http://sodipodi.sourceforge.net/DTD/sodipodi-0.dtd"
   xmlns="http://www.w3.org/2000/svg"
   xmlns:svg="http://www.w3.org/2000/svg">
  <sodipodi:namedview
     id="namedview7831"
     pagecolor="#505050"
     bordercolor="#ffffff"
     borderopacity="1"
     inkscape:pageshadow="0"
     inkscape:pageopacity="0"
     inkscape:pagecheckerboard="1"
     showgrid="false"
     inkscape:zoom="47.25"
     inkscape:cx="8"
     inkscape:cy="8"
     inkscape:window-width="1912"
     inkscape:window-height="966"
     inkscape:window-x="0"
     inkscape:window-y="29"
     inkscape:window-maximized="1"
     inkscape:current-layer="svg7829" />
  <defs
     id="defs7825">
    <style
       id="current-color-scheme"
       type="text/css">
   .ColorScheme-Text { color:#eeeeec; } .ColorScheme-Highlight { color:#367bf0; } .ColorScheme-NeutralText { color:#ffcc44; } .ColorScheme-PositiveText { color:#3db47e; } .ColorScheme-NegativeText { color:#dd4747; }
  </style>
  </defs>
  <path
     style="fill:currentColor"
     class="ColorScheme-Text"
     d="M 4.75,1 C 3,1 3,2.75 3,2.75 v 10.5 c 0,0 0,1.75 1.75,1.75 h 6.5 C 13,15 13,13.25 13,13.25 V 2.75 C 13,2.75 13,1 11.25,1 Z M 7,2.2906888 7.306142,2 H 8.7873974 L 9,2.3331028 v 0 7.2800958 L 8.6602028,10 v 0 H 7.284531 v 0 L 7,9.6344052 Z M 7,11.306222 7.348129,11 H 8.744793 L 9,11.285015 v 0 1.354676 L 8.6602028,13 v 0 H 7.3271355 v 0 L 7,12.597276 Z"
     id="path7827"
     sodipodi:nodetypes="sccssccsscccccccccccccccccccccccccc" />
</svg>
