<?xml version="1.0" encoding="UTF-8" standalone="no"?>
<svg
   width="16"
   height="16"
   version="1.1"
   id="svg7"
   sodipodi:docname="widget-alternatives.svg"
   inkscape:version="1.1.2 (0a00cf5339, 2022-02-04)"
   xmlns:inkscape="http://www.inkscape.org/namespaces/inkscape"
   xmlns:sodipodi="http://sodipodi.sourceforge.net/DTD/sodipodi-0.dtd"
   xmlns="http://www.w3.org/2000/svg"
   xmlns:svg="http://www.w3.org/2000/svg">
  <sodipodi:namedview
     id="namedview9"
     pagecolor="#000000"
     bordercolor="#666666"
     borderopacity="1.0"
     inkscape:pageshadow="2"
     inkscape:pageopacity="0"
     inkscape:pagecheckerboard="0"
     showgrid="false"
     inkscape:zoom="51.6875"
     inkscape:cx="8.0096735"
     inkscape:cy="7.980653"
     inkscape:window-width="1920"
     inkscape:window-height="1051"
     inkscape:window-x="0"
     inkscape:window-y="29"
     inkscape:window-maximized="1"
     inkscape:current-layer="svg7" />
  <defs
     id="defs3">
    <style
       id="current-color-scheme"
       type="text/css">
   .ColorScheme-Text { color:#eeeeec; } .ColorScheme-Highlight { color:#367bf0; } .ColorScheme-NeutralText { color:#ffcc44; } .ColorScheme-PositiveText { color:#3db47e; } .ColorScheme-NegativeText { color:#dd4747; }
  </style>
  </defs>
  <path
     style="fill:currentColor"
     class="ColorScheme-Text"
     d="M 10.374957,1.2249742 10,1.4611654 V 2.7504458 L 9.7942252,3 V 3 H 6 V 5 H 9.819604 L 10,5.2404156 v 0 1.3053488 0 L 10.404985,6.7570088 12.5,5.5 14.704827,4.1771039 14.640106,3.7840633 v 0 L 12.5,2.5 Z M 1,2 V 6 H 5 V 2 Z m 4.6000215,7.2399871 v 0 L 3.5,10.5 1.3554371,11.786738 v 0 L 1.3664242,12.219855 3.5,13.5 5.5953029,14.757182 6,14.614013 v 0 -1.404816 0 L 6.2169858,13 H 10 V 11 H 6.1731822 v 0 L 6,10.80605 6,9.3977254 Z M 11,10 v 4 h 4 v -4 z"
     id="path5"
     sodipodi:nodetypes="ccccccccccccccccccccccccccccccccccccccccccccccccc" />
</svg>
