<?xml version="1.0" encoding="UTF-8" standalone="no"?>
<svg
   width="16"
   height="16"
   version="1.1"
   id="svg190"
   sodipodi:docname="window-pin.svg"
   inkscape:version="1.1.2 (0a00cf5339, 2022-02-04)"
   xmlns:inkscape="http://www.inkscape.org/namespaces/inkscape"
   xmlns:sodipodi="http://sodipodi.sourceforge.net/DTD/sodipodi-0.dtd"
   xmlns="http://www.w3.org/2000/svg"
   xmlns:svg="http://www.w3.org/2000/svg">
  <sodipodi:namedview
     id="namedview192"
     pagecolor="#505050"
     bordercolor="#ffffff"
     borderopacity="1"
     inkscape:pageshadow="0"
     inkscape:pageopacity="0"
     inkscape:pagecheckerboard="1"
     showgrid="false"
     inkscape:zoom="47.25"
     inkscape:cx="8"
     inkscape:cy="8.010582"
     inkscape:window-width="1920"
     inkscape:window-height="1051"
     inkscape:window-x="0"
     inkscape:window-y="29"
     inkscape:window-maximized="1"
     inkscape:current-layer="svg190" />
  <defs
     id="defs186">
    <style
       id="current-color-scheme"
       type="text/css">
   .ColorScheme-Text { color:#eeeeec; } .ColorScheme-Highlight { color:#367bf0; } .ColorScheme-NeutralText { color:#ffcc44; } .ColorScheme-PositiveText { color:#3db47e; } .ColorScheme-NegativeText { color:#dd4747; }
  </style>
  </defs>
  <path
     style="fill:currentColor"
     class="ColorScheme-Text"
     d="m 4.0214839,0.02121422 c -1.3451066,-0.01912521 -1.3451066,2.01912518 0,1.99999998 H 4.855421 v 0 l 0.1445789,0.1552284 v 2.8447716 c 0,1.2472339 -1.4957276,1.9158344 -2.7581543,1.9925468 -0.08175,0.00497 -0.1625217,0.2279214 -0.2418455,0.2279214 v 0 1.7795318 h 4.8378931 v 0 l 0.1621067,0.2755652 v 5.7244346 l 0.8252503,0.845057 0.3132054,-0.0032 v 0 L 8.9999999,15.021214 V 9.2844794 L 9.1645146,9.0212142 v 0 H 14 v -1.7880793 0 c -0.078,0 -0.157591,-0.214328 -0.238303,-0.2191383 C 12.492703,6.938366 10.947585,6.2686993 11,5.0212142 V 2.1660189 l 0.155263,-0.1448047 v 0 h 0.823253 c 1.345107,0.019125 1.345107,-2.01912519 0,-1.99999998 z"
     id="path188"
     sodipodi:nodetypes="cccccsscccccccccccccccccsccccccc" />
</svg>
