<?xml version="1.0" encoding="UTF-8" standalone="no"?>
<svg
   width="16"
   height="16"
   version="1.1"
   id="svg3299"
   sodipodi:docname="zoom-select-x.svg"
   inkscape:version="1.1.2 (0a00cf5339, 2022-02-04)"
   xmlns:inkscape="http://www.inkscape.org/namespaces/inkscape"
   xmlns:sodipodi="http://sodipodi.sourceforge.net/DTD/sodipodi-0.dtd"
   xmlns="http://www.w3.org/2000/svg"
   xmlns:svg="http://www.w3.org/2000/svg">
  <sodipodi:namedview
     id="namedview3301"
     pagecolor="#000000"
     bordercolor="#666666"
     borderopacity="1.0"
     inkscape:pageshadow="2"
     inkscape:pageopacity="0"
     inkscape:pagecheckerboard="0"
     showgrid="false"
     inkscape:zoom="51.6875"
     inkscape:cx="7.9903265"
     inkscape:cy="8"
     inkscape:window-width="1912"
     inkscape:window-height="1043"
     inkscape:window-x="3"
     inkscape:window-y="32"
     inkscape:window-maximized="1"
     inkscape:current-layer="svg3299" />
  <defs
     id="defs3295">
    <style
       id="current-color-scheme"
       type="text/css">
   .ColorScheme-Text { color:#eeeeec; } .ColorScheme-Highlight { color:#367bf0; } .ColorScheme-NeutralText { color:#ffcc44; } .ColorScheme-PositiveText { color:#3db47e; } .ColorScheme-NegativeText { color:#dd4747; }
  </style>
  </defs>
  <path
     style="fill:currentColor"
     class="ColorScheme-Text"
     d="m 12,9 v 3 H 9 v 2 h 4 c 1,0 1,-1 1,-1 V 9 Z M 2,9 v 4 c 0,0 0,1 1,1 H 7 V 12 H 4 V 9 Z M 9,2 v 2 h 3 v 3 h 2 V 3 C 14,3 14,2 13,2 Z M 3,2 C 2,2 2,3 2,3 V 7 H 4 V 4 H 7 V 2 Z m 7,4.4151241 v 0 3.1663132 0 l 0.358281,0.060282 1.421827,-1.4218271 v 0 L 11.766833,7.766833 10.322155,6.3221546 Z M 5.6830021,6.3169979 v 0 L 4.2239847,7.7760153 4.21256,8.21256 v 0 L 5.6809971,9.6809971 6,9.5433088 v 0 -3.1297281 z M 7,5 v 6 H 9 V 5 Z"
     id="path3297"
     sodipodi:nodetypes="ccccscccccscccccccccccscsccccccsccccccccccccccccccccccccc" />
</svg>
