<?xml version="1.0" encoding="UTF-8" standalone="no"?>
<svg
   width="16"
   height="16"
   version="1.1"
   id="svg2234002"
   sodipodi:docname="zoom-fit-height.svg"
   inkscape:version="1.1.2 (0a00cf5339, 2022-02-04)"
   xmlns:inkscape="http://www.inkscape.org/namespaces/inkscape"
   xmlns:sodipodi="http://sodipodi.sourceforge.net/DTD/sodipodi-0.dtd"
   xmlns="http://www.w3.org/2000/svg"
   xmlns:svg="http://www.w3.org/2000/svg">
  <sodipodi:namedview
     id="namedview2234004"
     pagecolor="#000000"
     bordercolor="#666666"
     borderopacity="1.0"
     inkscape:pageshadow="2"
     inkscape:pageopacity="0"
     inkscape:pagecheckerboard="0"
     showgrid="false"
     inkscape:zoom="51.6875"
     inkscape:cx="7.9903265"
     inkscape:cy="8.0096735"
     inkscape:window-width="1912"
     inkscape:window-height="966"
     inkscape:window-x="0"
     inkscape:window-y="29"
     inkscape:window-maximized="1"
     inkscape:current-layer="svg2234002" />
  <defs
     id="defs2233998">
    <style
       id="current-color-scheme"
       type="text/css">
   .ColorScheme-Text { color:#eeeeec; } .ColorScheme-Highlight { color:#367bf0; } .ColorScheme-NeutralText { color:#ffcc44; } .ColorScheme-PositiveText { color:#3db47e; } .ColorScheme-NegativeText { color:#dd4747; }
  </style>
  </defs>
  <path
     style="fill:currentColor"
     class="ColorScheme-Text"
     d="m 12,9 v 2.728486 L 11.786306,12 v 0 H 9 v 2 h 4 c 1,0 1,-1 1,-1 V 9 Z M 2,9 v 4 c 0,0 0,1 1,1 H 7 V 12 H 4.2409075 v 0 L 4,11.767259 V 9 Z M 9,2 v 2 h 2.786306 L 12,4.2027831 v 0 V 7 h 2 V 3 C 14,3 14,2 13,2 Z M 3,2 C 2,2 2,3 2,3 v 4 h 2 v -2.7778303 0 L 4.2409075,4 H 7 V 2 Z m 3.2832569,8.283257 v 0 l 1.5329096,1.53291 v 0 L 8.1724082,11.827592 9.6801811,10.319819 9.6347137,10 v 0 H 6.406942 Z M 5,7 v 2 h 6 V 7 Z M 7.7393744,4.2606256 v 0 L 6.2606831,5.7393169 6.3912556,6 V 6 H 9.5657922 L 9.7118293,5.7118293 v 0 l -1.441145,-1.441145 z"
     id="path2234000"
     sodipodi:nodetypes="ccccccscccccscccccccccccccccscsccccccccsccccccccccccccccccccccccc" />
</svg>
