<?xml version="1.0" encoding="UTF-8" standalone="no"?>
<svg
   width="512"
   height="512"
   version="1.1"
   viewBox="0 0 384 384"
   id="svg272510"
   sodipodi:docname="all-video-downloader.svg"
   inkscape:version="1.1.2 (0a00cf5339, 2022-02-04)"
   xmlns:inkscape="http://www.inkscape.org/namespaces/inkscape"
   xmlns:sodipodi="http://sodipodi.sourceforge.net/DTD/sodipodi-0.dtd"
   xmlns="http://www.w3.org/2000/svg"
   xmlns:svg="http://www.w3.org/2000/svg">
  <defs
     id="defs272514" />
  <sodipodi:namedview
     id="namedview272512"
     pagecolor="#ffffff"
     bordercolor="#666666"
     borderopacity="1.0"
     inkscape:pageshadow="2"
     inkscape:pageopacity="0.0"
     inkscape:pagecheckerboard="0"
     showgrid="false"
     inkscape:zoom="1.6152344"
     inkscape:cx="255.69045"
     inkscape:cy="256"
     inkscape:window-width="1920"
     inkscape:window-height="1051"
     inkscape:window-x="0"
     inkscape:window-y="29"
     inkscape:window-maximized="1"
     inkscape:current-layer="g272508" />
  <g
     transform="matrix(.97067 0 0 .97067 5.6891 6.8359)"
     id="g272508">
    <path
       d="m365.4 190.43c0 95.832-77.688 173.52-173.52 173.52s-173.52-77.684-173.52-173.52 77.688-173.52 173.52-173.52c95.828 0 173.52 77.684 173.52 173.52z"
       fill="#e32e2e"
       id="path272490" />
    <path
       d="m253.04 130.12c6.5195 14.258 21.605 38.852 8.4375 50.566-22.293-84.527-91.258-102.3-91.258-102.3 6.5195 43.59-9.7773 91.711-38.848 127.33-1.0195-17.383-15.906-33.785-25.098-46.465-2.0274 31.203-12.086 57.16-18.633 88.297 13.117-0.54688 26.238-0.29297 39.355-4.043 27.855-7.7617 54.793-18.723 83.562-18.266 11.871 0.45704 25.57 5.4805 31.508 15.984 0.67187 1.1328 1.2109 2.2969 1.6289 3.4805 21.41 1.2969 38.375 19.066 38.375 40.797 0 20.086-40.461 58.004-70.75 77.488 2.7344-0.98828 12.707-0.30468 36.262-11.719 23.555-11.418 40.902-26.027 52.07-39.297 66.43-78.934-29.871-169.64-46.613-181.85"
       fill="#941111"
       id="path272492" />
    <path
       d="m 253.04,130.12 c 1.58653,3.4697 2.86008,7.52444 3.68925,11.84281 2.57813,13.42704 0.8602,29.40281 -9.10335,38.26619 -16.29623,-61.80049 -50.14084,-87.676698 -67.16219,-97.123692 -6.25943,-3.474038 -9.41241,4.170421 -9.41241,4.170421 0.44101,2.948599 -0.11715,-2.980891 0,0 1.61481,41.086501 -26.42308,84.766481 -53.5304,117.973271 -0.78849,-13.44422 -1.61677,-23.66373 -6.1803,-35.29962 -1.33698,-3.40899 -4.63939,4.29033 -6.71052,0.52149 -0.24824,3.82186 0.82486,-3.67166 0,0 -5.989611,26.66145 -25.326206,49.91162 -31.07018,77.71913 -8.8516,42.844 24.613,90.043 65.434,105.07 9.2344,3.3984 29.766,7.7852 38.422,9.6602 -22.781,-17.422 -59.578,-49.926 -59.578,-78.113 0,-29.348 19.113,-42.684 42.684,-42.684 14.199,0 26.738,6.9609 34.5,17.621 7.7656,-10.66 20.309,-17.621 34.504,-17.621 23.574,0 42.688,19.113 42.688,42.684 0,26.852 -37.941,60.242 -60.734,78.113 4.8242,-1.7539 13.844,-3.9024 25.91,-10.793 130.92033,-74.77212 59.15337,-178.32977 26.41359,-212.18984 -4.56377,-4.71993 -4.68186,3.77004 -7.07424,2.02545"
       fill="#ffffff"
       id="path272494"
       sodipodi:nodetypes="cscscscscscccsscssccsc" />
    <path
       d="m230.33 240.92c23.844 0 43.172 19.332 43.172 43.168 0 26.797-39.082 60.664-62.184 78.895-9.2226 2.0039-23.766 2.3203-33.836 0-23.051-17.648-60.113-50.445-60.113-78.895 0-29.676 19.332-43.168 43.172-43.168 14.359 0 27.043 7.043 34.895 17.824 7.8516-10.781 20.539-17.824 34.895-17.824"
       fill="#e32e2e"
       id="path272496" />
    <path
       d="m274.9 272.23c0 40.113-35.719 72.629-79.777 72.629-44.055 0-79.773-32.516-79.773-72.629s35.719-72.633 79.773-72.633c44.059 0 79.777 32.52 79.777 72.633z"
       fill="#e32e2e"
       id="path272498" />
    <path
       d="m195.95 349.2c2.6992 0 5.2617-1.1523 7.1523-3.0273l33.84-32.738c1.875-1.7695 2.957-4.2969 3.0234-6.875 0.14063-4.0938-2.1836-7.7578-6.0508-9.3555-3.8516-1.5977-8.375-0.73828-11.277 2.1992l-17.883 17.332v-73.176h-17.605v73.176l-17.883-17.332c-3.9531-3.8477-10.332-3.8477-14.305 0-3.957 3.8516-3.957 10.18 0 14.031l33.836 32.738c1.9102 1.875 4.4727 3.0273 7.1524 3.0273z"
       opacity=".3"
       id="path272500" />
    <path
       d="m 195.95,341.7 c 2.6992,0 5.2617,-1.1523 7.1523,-3.0273 l 33.84,-32.738 c 1.875,-1.7695 2.957,-4.2969 3.0234,-6.875 0.14063,-4.0938 -2.1836,-7.7578 -6.0508,-9.3555 -3.8516,-1.5977 -8.375,-0.73828 -11.277,2.1992 l -17.883,17.332 v -68.31437 l -3.17231,-4.86163 v 0 l -10.75978,0 -3.67291,4.44604 v 0 68.72996 l -17.883,-17.332 c -3.9531,-3.8477 -10.332,-3.8477 -14.305,0 -3.957,3.8516 -3.957,10.18 0,14.031 l 33.836,32.738 c 1.9102,1.875 4.4727,3.0273 7.1524,3.0273 z"
       fill="#ffffff"
       id="path272502"
       sodipodi:nodetypes="cccccccccccccccccccc" />
    <path
       d="m18.527 186.75c-0.02645 1.2472-0.04687 2.4964-0.04687 3.75 0 95.836 77.688 173.52 173.52 173.52 95.832-1e-5 173.52-77.688 173.52-173.52 0-1.2536-0.0204-2.5028-0.0469-3.75-1.9964 94.099-78.895 169.77-173.47 169.77-94.578 0-171.48-75.666-173.47-169.77z"
       opacity=".3"
       id="path272504" />
    <path
       d="m192 16.98c-95.832 0-173.52 77.684-173.52 173.52 0 1.2536 0.02042 2.5028 0.04687 3.75 1.9958-94.104 78.894-169.77 173.47-169.77 94.575 0 171.48 75.666 173.47 169.77 0.0265-1.2476 0.0469-2.4961 0.0469-3.75-3e-5 -95.836-77.692-173.52-173.52-173.52z"
       fill="#fff"
       opacity=".3"
       id="path272506" />
  </g>
</svg>
