<?xml version="1.0" encoding="UTF-8" standalone="no"?>
<svg
   width="32"
   height="32"
   version="1.1"
   id="svg1248922"
   sodipodi:docname="astromenace.svg"
   inkscape:version="1.1.2 (0a00cf5339, 2022-02-04)"
   xmlns:inkscape="http://www.inkscape.org/namespaces/inkscape"
   xmlns:sodipodi="http://sodipodi.sourceforge.net/DTD/sodipodi-0.dtd"
   xmlns="http://www.w3.org/2000/svg"
   xmlns:svg="http://www.w3.org/2000/svg">
  <defs
     id="defs1248926" />
  <sodipodi:namedview
     id="namedview1248924"
     pagecolor="#ffffff"
     bordercolor="#666666"
     borderopacity="1.0"
     inkscape:pageshadow="2"
     inkscape:pageopacity="0.0"
     inkscape:pagecheckerboard="0"
     showgrid="false"
     inkscape:zoom="25.84375"
     inkscape:cx="15.980653"
     inkscape:cy="16"
     inkscape:window-width="1920"
     inkscape:window-height="1051"
     inkscape:window-x="0"
     inkscape:window-y="29"
     inkscape:window-maximized="1"
     inkscape:current-layer="svg1248922" />
  <rect
     style="opacity:0.2"
     width="28"
     height="28"
     x="2"
     y="3"
     rx="1.4"
     ry="1.4"
     id="rect1248906" />
  <rect
     style="fill:#345784"
     width="28"
     height="28"
     x="2"
     y="2"
     rx="1.4"
     ry="1.4"
     id="rect1248908" />
  <path
     style="opacity:0.2"
     d="m 16.876143,9.0008197 c -0.07298,0.00241 -0.148406,0.0098 -0.229687,0.020755 -0.914164,0.1232144 -1.165089,0.3470361 -1.724023,1.5343123 -0.376999,0.800807 -0.565602,0.898598 -1.051367,1.004288 -2.270899,-1.6740676 -2.270899,0.881294 -2.717969,1.58965 -0.612812,-0.544097 -1.4086638,-1.720648 -2.1956451,-2.378392 -0.7036085,-0.588062 -1.4001267,-0.9443502 -1.9524022,-0.5732 -0.4376408,0.31054 -0.809472,0.97682 -0.9447267,2.505534 -0.184779,2.088454 0.00193,3.264213 1.3125004,4.993795 1.481984,1.955797 3.6899906,3.912297 7.1859366,6.368293 C 16.073,25.129648 17.341965,26 17.379268,26 c 0.209681,0 -2.026639,-2.939631 -3.381054,-4.443833 -2.024185,-2.248037 -2.397704,-3.047432 -2.441447,-4.057005 -0.0395,-0.912116 0.346379,-1.516324 0.863712,-1.516324 0.187983,0 1.03879,0.646194 1.976954,1.723023 0.781823,0.854909 1.295868,2.05718 1.920165,2.937175 1.322034,1.670465 2.855183,1.883518 3.424804,0.475928 0.551795,-1.369656 0.191643,-3.775084 -1.069774,-5.451169 -0.141919,-0.612973 0.126352,-0.706234 0.746484,-0.705589 0.78439,7.79e-4 2.274064,0.539692 3.169141,1.324174 1.106114,0.969443 1.29251,0.964881 2.523828,3.436136 0.726834,1.458756 1.447739,2.819289 1.602344,3.022968 0.275336,0.362746 0.281122,0.360739 0.285742,-0.09269 -0.232346,-3.775768 -1.52736,-7.369369 -4.327149,-9.948317 C 22.199419,12.285555 20.80971,11.26369 19.584542,10.434136 17.799503,9.225492 17.386989,8.9837518 16.876143,9.0008197 Z"
     id="path1248910" />
  <path
     style="fill:#8d8069"
     d="m 16.876143,8.0008197 c -0.07298,0.00241 -0.148406,0.0098 -0.229687,0.020755 -0.914164,0.1232144 -1.165089,0.3470361 -1.724023,1.5343122 -0.376999,0.8008071 -0.565602,0.8985981 -1.051367,1.0042881 -2.270899,-1.6740676 -2.270899,0.881294 -2.717969,1.58965 C 10.540285,11.605728 9.7444332,10.429177 8.9574519,9.7714333 8.2538434,9.1833707 7.5573252,8.8270828 7.0050497,9.1982327 6.5674089,9.5087728 6.1955777,10.175053 6.060323,11.703767 c -0.184779,2.088454 0.00193,3.264213 1.3125004,4.993795 1.481984,1.955797 3.6899896,3.912299 7.1859366,6.368293 1.170198,0.822095 1.456628,1.007269 1.907955,1.242924 0.132691,0.06928 0.01626,-0.272524 -0.171459,-0.368258 -0.467484,-0.23841 0,0 0.414989,0.180846 0.853586,0.371981 -1.719625,-2.463042 -2.712031,-3.5652 -2.024182,-2.24804 -2.397704,-3.047432 -2.441447,-4.057005 -0.0395,-0.912116 0.346379,-1.516324 0.863712,-1.516324 0.187983,0 1.03879,0.646194 1.976954,1.723023 0.781823,0.854909 1.295868,2.05718 1.920165,2.937175 1.322034,1.670465 2.855183,1.883518 3.424804,0.475928 0.551795,-1.369656 0.191643,-3.775084 -1.069774,-5.451169 -0.141919,-0.612973 0.126352,-0.706234 0.746484,-0.705589 0.78439,7.79e-4 2.274064,0.539692 3.169141,1.324174 1.106114,0.969443 1.29251,0.964881 2.523828,3.436136 0.726834,1.458756 1.447739,2.819289 1.602344,3.022968 0.275336,0.362746 0.253239,-0.538837 0.285742,-0.09269 -0.0092,-0.149017 -0.02,-0.297749 -0.0325,-0.446147 -0.304406,-3.611695 -1.605355,-7.025004 -4.294646,-9.50217 C 22.199419,11.285555 20.80971,10.26369 19.584542,9.4341358 17.799503,8.225492 17.386989,7.9837518 16.876143,8.0008197 Z"
     id="path1248912"
     sodipodi:nodetypes="ccsccscssssssscscccccssccscsc" />
  <ellipse
     style="opacity:0.2"
     cx="1.037"
     cy="25.497"
     rx="1.419"
     ry="2.058"
     transform="matrix(0.41803286,-0.90843191,0.66935843,0.74293963,0,0)"
     id="ellipse1248914" />
  <ellipse
     style="fill:#ffffff"
     cx="1.766"
     cy="25.041"
     rx="1.419"
     ry="2.058"
     transform="matrix(0.41803286,-0.90843191,0.66935843,0.74293963,0,0)"
     id="ellipse1248916" />
  <path
     style="fill:#ffffff;opacity:0.1"
     d="M 3.4003906 2 C 2.6247906 2 2 2.6247906 2 3.4003906 L 2 4.4003906 C 2 3.6247906 2.6247906 3 3.4003906 3 L 28.599609 3 C 29.375209 3 30 3.6247906 30 4.4003906 L 30 3.4003906 C 30 2.6247906 29.375209 2 28.599609 2 L 3.4003906 2 z"
     id="path1248918" />
  <path
     style="opacity:0.1;fill:#ffffff"
     d="m 16.876953,8 c -0.07298,0.00241 -0.149188,0.010529 -0.230469,0.021484 -0.914164,0.1232144 -1.165675,0.3478801 -1.724609,1.5351562 -0.376999,0.8008078 -0.565016,0.8982168 -1.050781,1.0039068 -2.270899,-1.6740681 -2.27168,0.881488 -2.71875,1.589844 C 10.539532,11.606294 9.7440126,10.429228 8.9570312,9.7714844 8.2534227,9.1834218 7.5581349,8.8261157 7.0058594,9.1972656 6.5682186,9.5078057 6.1958016,10.174411 6.0605469,11.703125 c -0.059403,0.671396 -0.073631,1.243923 -0.03125,1.775391 0.00945,-0.255144 0.00599,-0.489879 0.03125,-0.775391 0.1352547,-1.528714 0.5076717,-2.195319 0.9453125,-2.505859 0.5522755,-0.3711506 1.2475634,-0.01384 1.9511718,0.574218 0.7869813,0.657744 1.5825008,1.83481 2.1953128,2.378907 0.44707,-0.708356 0.447851,-3.2639117 2.71875,-1.589844 0.485765,-0.10569 0.673782,-0.203099 1.050781,-1.003906 C 15.480809,9.3693644 15.73232,9.1446988 16.646484,9.0214844 16.727765,9.0105294 16.803973,9.00241 16.876953,9 c 0.510846,-0.017068 0.921992,0.2249497 2.707031,1.433594 1.225168,0.829554 2.616245,1.852562 3.089844,2.271484 2.635008,2.427164 3.923882,5.754505 4.261719,9.285156 0.05276,0.01822 0.06182,-0.08 0.06445,-0.33789 -0.232343,-3.775768 -1.52638,-7.368318 -4.326169,-9.947266 C 22.200229,11.286156 20.809152,10.263148 19.583984,9.4335938 17.798945,8.2249499 17.387799,7.9829321 16.876953,8 Z m 2.03125,7.029297 c -0.231226,0.07787 -0.327379,0.245405 -0.236328,0.638672 0.76168,1.012068 1.188907,2.288051 1.291016,3.443359 0.116995,-1.243114 -0.237795,-2.812796 -1.054688,-4.082031 z m -7.296875,1.822265 c -0.04322,0.192071 -0.06509,0.408257 -0.05469,0.648438 0.04374,1.009573 0.417221,1.808604 2.441406,4.056641 0.627434,0.696823 1.434266,1.692342 2.109375,2.570312 0.126483,-0.251086 0.159688,1.219332 0.126483,-0.251086 -0.01217,-0.53893 1.543576,0.631362 0.35468,-0.116278 -1.036681,-0.65192 -1.807387,-2.333189 -2.590536,-3.202948 -1.784466,-1.981813 -2.262967,-2.838442 -2.386719,-3.705079 z"
     id="path1248920"
     sodipodi:nodetypes="ccsccscscscscccscsccccscccccccscssscc" />
</svg>
