<?xml version="1.0" encoding="UTF-8" standalone="no"?>
<svg
   width="512"
   height="512"
   version="1.1"
   viewBox="0 0 384 384"
   id="svg9502"
   sodipodi:docname="cdbaby.svg"
   inkscape:version="1.1.2 (0a00cf5339, 2022-02-04)"
   xmlns:inkscape="http://www.inkscape.org/namespaces/inkscape"
   xmlns:sodipodi="http://sodipodi.sourceforge.net/DTD/sodipodi-0.dtd"
   xmlns="http://www.w3.org/2000/svg"
   xmlns:svg="http://www.w3.org/2000/svg">
  <sodipodi:namedview
     id="namedview9504"
     pagecolor="#ffffff"
     bordercolor="#666666"
     borderopacity="1.0"
     inkscape:pageshadow="2"
     inkscape:pageopacity="0.0"
     inkscape:pagecheckerboard="0"
     showgrid="false"
     inkscape:zoom="1.6152344"
     inkscape:cx="255.69045"
     inkscape:cy="256"
     inkscape:window-width="1920"
     inkscape:window-height="1051"
     inkscape:window-x="0"
     inkscape:window-y="29"
     inkscape:window-maximized="1"
     inkscape:current-layer="svg9502" />
  <defs
     id="defs9490">
    <clipPath
       id="clipPath9216">
      <rect
         width="384"
         height="384"
         id="rect9214" />
    </clipPath>
    <clipPath
       id="clipPath9220">
      <rect
         width="384"
         height="384"
         id="rect9218" />
    </clipPath>
    <clipPath
       id="clipPath9224">
      <rect
         width="384"
         height="384"
         id="rect9222" />
    </clipPath>
    <clipPath
       id="clipPath9228">
      <rect
         width="384"
         height="384"
         id="rect9226" />
    </clipPath>
    <clipPath
       id="clipPath9232">
      <rect
         width="384"
         height="384"
         id="rect9230" />
    </clipPath>
    <clipPath
       id="clipPath9236">
      <rect
         width="384"
         height="384"
         id="rect9234" />
    </clipPath>
    <clipPath
       id="clipPath9240">
      <rect
         width="384"
         height="384"
         id="rect9238" />
    </clipPath>
    <clipPath
       id="clipPath9244">
      <rect
         width="384"
         height="384"
         id="rect9242" />
    </clipPath>
    <clipPath
       id="clipPath9248">
      <rect
         width="384"
         height="384"
         id="rect9246" />
    </clipPath>
    <clipPath
       id="clipPath9252">
      <rect
         width="384"
         height="384"
         id="rect9250" />
    </clipPath>
    <clipPath
       id="clipPath9256">
      <rect
         width="384"
         height="384"
         id="rect9254" />
    </clipPath>
    <clipPath
       id="clipPath9260">
      <rect
         width="384"
         height="384"
         id="rect9258" />
    </clipPath>
    <clipPath
       id="clipPath9264">
      <rect
         width="384"
         height="384"
         id="rect9262" />
    </clipPath>
    <clipPath
       id="clipPath9268">
      <rect
         width="384"
         height="384"
         id="rect9266" />
    </clipPath>
    <clipPath
       id="clipPath9272">
      <rect
         width="384"
         height="384"
         id="rect9270" />
    </clipPath>
    <clipPath
       id="clipPath9276">
      <rect
         width="384"
         height="384"
         id="rect9274" />
    </clipPath>
    <clipPath
       id="clipPath9280">
      <rect
         width="384"
         height="384"
         id="rect9278" />
    </clipPath>
    <clipPath
       id="clipPath9284">
      <rect
         width="384"
         height="384"
         id="rect9282" />
    </clipPath>
    <clipPath
       id="clipPath9288">
      <rect
         width="384"
         height="384"
         id="rect9286" />
    </clipPath>
    <clipPath
       id="clipPath9292">
      <rect
         width="384"
         height="384"
         id="rect9290" />
    </clipPath>
    <clipPath
       id="clipPath9296">
      <rect
         width="384"
         height="384"
         id="rect9294" />
    </clipPath>
    <clipPath
       id="clipPath9300">
      <rect
         width="384"
         height="384"
         id="rect9298" />
    </clipPath>
    <clipPath
       id="clipPath9304">
      <rect
         width="384"
         height="384"
         id="rect9302" />
    </clipPath>
    <clipPath
       id="clipPath9308">
      <rect
         width="384"
         height="384"
         id="rect9306" />
    </clipPath>
    <clipPath
       id="clipPath9312">
      <rect
         width="384"
         height="384"
         id="rect9310" />
    </clipPath>
    <clipPath
       id="clipPath9316">
      <rect
         width="384"
         height="384"
         id="rect9314" />
    </clipPath>
    <clipPath
       id="clipPath9320">
      <rect
         width="384"
         height="384"
         id="rect9318" />
    </clipPath>
    <clipPath
       id="clipPath9324">
      <rect
         width="384"
         height="384"
         id="rect9322" />
    </clipPath>
    <clipPath
       id="clipPath9328">
      <rect
         width="384"
         height="384"
         id="rect9326" />
    </clipPath>
    <clipPath
       id="clipPath9332">
      <rect
         width="384"
         height="384"
         id="rect9330" />
    </clipPath>
    <clipPath
       id="clipPath9336">
      <rect
         width="384"
         height="384"
         id="rect9334" />
    </clipPath>
    <clipPath
       id="clipPath9340">
      <rect
         width="384"
         height="384"
         id="rect9338" />
    </clipPath>
    <clipPath
       id="clipPath9344">
      <rect
         width="384"
         height="384"
         id="rect9342" />
    </clipPath>
    <clipPath
       id="clipPath9348">
      <rect
         width="384"
         height="384"
         id="rect9346" />
    </clipPath>
    <clipPath
       id="clipPath9352">
      <rect
         width="384"
         height="384"
         id="rect9350" />
    </clipPath>
    <clipPath
       id="clipPath9356">
      <rect
         width="384"
         height="384"
         id="rect9354" />
    </clipPath>
    <clipPath
       id="clipPath9360">
      <rect
         width="384"
         height="384"
         id="rect9358" />
    </clipPath>
    <clipPath
       id="clipPath9364">
      <rect
         width="384"
         height="384"
         id="rect9362" />
    </clipPath>
    <clipPath
       id="clipPath9368">
      <rect
         width="384"
         height="384"
         id="rect9366" />
    </clipPath>
    <clipPath
       id="clipPath9372">
      <rect
         width="384"
         height="384"
         id="rect9370" />
    </clipPath>
    <clipPath
       id="clipPath9376">
      <rect
         width="384"
         height="384"
         id="rect9374" />
    </clipPath>
    <clipPath
       id="clipPath9380">
      <rect
         width="384"
         height="384"
         id="rect9378" />
    </clipPath>
    <clipPath
       id="clipPath9384">
      <rect
         width="384"
         height="384"
         id="rect9382" />
    </clipPath>
    <clipPath
       id="clipPath9388">
      <rect
         width="384"
         height="384"
         id="rect9386" />
    </clipPath>
    <clipPath
       id="clipPath9392">
      <rect
         width="384"
         height="384"
         id="rect9390" />
    </clipPath>
    <clipPath
       id="clipPath9396">
      <rect
         width="384"
         height="384"
         id="rect9394" />
    </clipPath>
    <clipPath
       id="clipPath9400">
      <rect
         width="384"
         height="384"
         id="rect9398" />
    </clipPath>
    <clipPath
       id="clipPath9404">
      <rect
         width="384"
         height="384"
         id="rect9402" />
    </clipPath>
    <clipPath
       id="clipPath9408">
      <rect
         width="384"
         height="384"
         id="rect9406" />
    </clipPath>
    <clipPath
       id="clipPath9412">
      <rect
         width="384"
         height="384"
         id="rect9410" />
    </clipPath>
    <clipPath
       id="c">
      <path
         d="m111 119h177v23h-177z"
         id="path9414" />
    </clipPath>
    <clipPath
       id="clipPath9419">
      <path
         d="m368.64 199.88c0-93.234-75.602-168.75-168.75-168.75-93.152 0-168.75 75.516-168.75 168.75s75.598 168.75 168.75 168.75c93.148 0 168.75-75.516 168.75-168.75z"
         id="path9417" />
    </clipPath>
    <clipPath
       id="b">
      <path
         d="m177 130h45v89h-45z"
         id="path9421" />
    </clipPath>
    <clipPath
       id="clipPath9426">
      <path
         d="m368.64 199.88c0-93.234-75.602-168.75-168.75-168.75-93.152 0-168.75 75.516-168.75 168.75s75.598 168.75 168.75 168.75c93.148 0 168.75-75.516 168.75-168.75z"
         id="path9424" />
    </clipPath>
    <clipPath
       id="a">
      <path
         d="m111 207h177v89h-177z"
         id="path9428" />
    </clipPath>
    <clipPath
       id="clipPath9433">
      <path
         d="m368.64 199.88c0-93.234-75.602-168.75-168.75-168.75-93.152 0-168.75 75.516-168.75 168.75s75.598 168.75 168.75 168.75c93.148 0 168.75-75.516 168.75-168.75z"
         id="path9431" />
    </clipPath>
    <clipPath
       id="d">
      <rect
         width="384"
         height="384"
         id="rect9435" />
    </clipPath>
    <g
       clip-path="url(#d)"
       id="g9444">
      <g
         clip-path="url(#c)"
         id="g9438" />
      <g
         clip-path="url(#b)"
         id="g9440" />
      <g
         clip-path="url(#a)"
         id="g9442" />
    </g>
    <clipPath
       id="clipPath9448">
      <rect
         width="384"
         height="384"
         id="rect9446" />
    </clipPath>
    <clipPath
       id="clipPath9452">
      <rect
         width="384"
         height="384"
         id="rect9450" />
    </clipPath>
    <clipPath
       id="clipPath9456">
      <rect
         width="384"
         height="384"
         id="rect9454" />
    </clipPath>
    <clipPath
       id="clipPath9460">
      <rect
         width="384"
         height="384"
         id="rect9458" />
    </clipPath>
    <clipPath
       id="clipPath9464">
      <rect
         width="384"
         height="384"
         id="rect9462" />
    </clipPath>
    <clipPath
       id="clipPath9468">
      <rect
         width="384"
         height="384"
         id="rect9466" />
    </clipPath>
    <clipPath
       id="clipPath9472">
      <rect
         width="384"
         height="384"
         id="rect9470" />
    </clipPath>
    <clipPath
       id="clipPath9476">
      <rect
         width="384"
         height="384"
         id="rect9474" />
    </clipPath>
    <clipPath
       id="clipPath9480">
      <rect
         width="384"
         height="384"
         id="rect9478" />
    </clipPath>
    <clipPath
       id="clipPath9484">
      <rect
         width="384"
         height="384"
         id="rect9482" />
    </clipPath>
    <clipPath
       id="clipPath9488">
      <rect
         width="384"
         height="384"
         id="rect9486" />
    </clipPath>
  </defs>
  <path
     d="m360 343.2v-302.39c0-9.2773-7.5234-16.797-16.801-16.797h-302.39c-9.2773 0-16.797 7.5195-16.797 16.797v302.39c0 9.2773 7.5195 16.801 16.797 16.801h302.39c9.2773 0 16.801-7.5234 16.801-16.801z"
     fill="#272a34"
     id="path9492" />
  <path
     d="m84 48.004v156l132-78-65.996-39zm144 84v120l48-29.996 48-30zm-108 72v144l59.996-36 60-36-60-36z"
     id="path9494" />
  <path
     d="M 91.3933,44.872503 84,48.790746 v 136.573264 0 l 8.846309,5.91263 115.697051,-68.36644 -1.58645,-9.75017 v 0 L 150.004,79.504 Z M 228,132.004 v 2.51288 100.2058 l 9.03985,4.13216 v 0 L 276,214.508 315.91976,189.55815 v 0 l -0.82982,-10.61931 -79.45519,-49.6628 z m -108,72 v 3.01779 122.86723 0 l 9.54899,4.8852 50.44701,-30.27022 50.97529,-30.58518 -0.10732,-10.89404 v 0 L 179.996,232.504 128.41427,201.5529 Z"
     fill="#ffffff"
     id="path9496"
     sodipodi:nodetypes="ccccccccccccccccccccccccccccccccc" />
  <path
     transform="scale(.75)"
     d="m32.01 447.6v10c0 12.37 10.027 22.4 22.396 22.4h403.19c12.37 0 22.4-10.031 22.4-22.4v-10c0 12.37-10.031 22.4-22.4 22.4h-403.19c-12.37 0-22.396-10.031-22.396-22.4z"
     opacity=".5"
     stroke-width="1.3333"
     id="path9498" />
  <path
     transform="scale(.75)"
     d="m54.406 32.01c-12.37 0-22.396 10.027-22.396 22.396v10c0-12.37 10.027-22.396 22.396-22.396h403.19c12.37 0 22.4 10.027 22.4 22.396v-10c0-12.37-10.031-22.396-22.4-22.396h-403.19z"
     fill="#fff"
     opacity=".1"
     stroke-width="1.3333"
     id="path9500" />
</svg>
