<?xml version="1.0" encoding="UTF-8" standalone="no"?>
<svg
   width="512"
   height="512"
   version="1.1"
   viewBox="0 0 384 384"
   id="svg132830"
   sodipodi:docname="clamav.svg"
   inkscape:version="1.1.2 (0a00cf5339, 2022-02-04)"
   xmlns:inkscape="http://www.inkscape.org/namespaces/inkscape"
   xmlns:sodipodi="http://sodipodi.sourceforge.net/DTD/sodipodi-0.dtd"
   xmlns="http://www.w3.org/2000/svg"
   xmlns:svg="http://www.w3.org/2000/svg">
  <sodipodi:namedview
     id="namedview132832"
     pagecolor="#ffffff"
     bordercolor="#666666"
     borderopacity="1.0"
     inkscape:pageshadow="2"
     inkscape:pageopacity="0.0"
     inkscape:pagecheckerboard="0"
     showgrid="false"
     inkscape:zoom="1.6152344"
     inkscape:cx="255.69045"
     inkscape:cy="256"
     inkscape:window-width="1920"
     inkscape:window-height="1051"
     inkscape:window-x="0"
     inkscape:window-y="29"
     inkscape:window-maximized="1"
     inkscape:current-layer="svg132830" />
  <defs
     id="defs132812">
    <clipPath
       id="clipPath132802">
      <rect
         width="384"
         height="384"
         id="rect132800" />
    </clipPath>
    <clipPath
       id="clipPath132806">
      <rect
         width="384"
         height="384"
         id="rect132804" />
    </clipPath>
    <clipPath
       id="clipPath132810">
      <rect
         width="384"
         height="384"
         id="rect132808" />
    </clipPath>
  </defs>
  <path
     d="m 311.40164,40.208661 c -0.92556,5.702478 -3.38859,-4.905972 -5.06601,0.555382 C 299.83639,61.924316 287.8422,81.000049 271.504,95.863 248.738,80.808 221.453,72 192.004,72 162.543,72 135.219,80.8164 112.457,95.883 95.288139,80.299902 82.898612,65.382525 76.629353,44.629466 75.45424,40.739505 72.740424,49.252837 72.0042,44.91 c -1.1211,6.6445 0.0469,-6.738 0,0 0.03125,24.043 6.9258,47.547 19.828,67.613 -27.008,26.148 -43.824,62.738 -43.824,103.48 0,79.777 64.223,144 144,144 79.773,0 144,-64.223 144,-144 0,-40.727 -16.812,-77.305 -43.801,-103.45 12.898,-20.078 19.781,-43.594 19.801,-67.641 -0.004,-7.0078 1.09585,3.168 -0.0682,-3.734 z"
     fill="#fd4747"
     id="path132814"
     sodipodi:nodetypes="cscscscccssscccc" />
  <path
     d="m90.899 211.5c-14.199 22.957-5.77 52.309 18.828 65.555 24.602 13.262 56.067 5.4023 70.274-17.555zm202.2 0-89.101 48c14.207 22.957 45.671 30.816 70.273 17.555 24.602-13.246 33.031-42.598 18.828-65.555z"
     opacity=".3"
     id="path132816" />
  <path
     d="m180 252c-14.207 22.957-45.672 30.816-70.273 17.555-24.598-13.246-33.027-42.598-18.828-65.555z"
     fill="#fff"
     id="path132818" />
  <path
     d="m 132.65,226.5 v 1.5 c -2.18536,11.16394 1.1087,24.16712 10.09357,38.4171 1.66279,2.63718 3.52049,5.31707 5.57443,8.0359 0.15235,-0.0351 -11.6059,-15.9781 -5.57443,-8.0359 -1.65863,-3.16595 3.21269,1.5165 2.51185,-1.79766 -2.01267,-9.51769 -0.23726,-19.48421 4.39852,-28.96714 l -17.004,-9.1484 z"
     fill="#0f2b5c"
     id="path132820"
     sodipodi:nodetypes="ccsccsccc" />
  <path
     d="m204 252c14.207 22.957 45.672 30.816 70.273 17.555 24.602-13.246 33.031-42.598 18.828-65.555z"
     fill="#fff"
     id="path132822" />
  <path
     d="m 251.35,226.5 v 1.5 c 2.19317,11.20381 -1.13229,24.26002 -10.19004,38.56981 -1.63809,2.58791 -3.46365,5.21682 -5.47796,7.88319 5.47796,-7.88319 5.62639,-7.84419 5.47796,-7.88319 1.43272,-2.73476 -3.44148,2.24999 -2.7274,-0.59936 2.48666,-9.92227 0.76913,-20.38548 -4.0865,-30.31815 z"
     fill="#0f2b5c"
     id="path132824"
     sodipodi:nodetypes="ccsccscc" />
  <path
     transform="scale(0.75)"
     d="m 415.92,54.904 c -0.92891,30.305 -10.018,59.793 -26.316,85.164 1.2833,1.2432 2.5446,2.509 3.793,3.7871 14.748,-25.353 22.585,-54.36 22.609,-83.975 -9.5e-4,-1.6594 -0.0361,-3.3188 -0.0859,-4.9766 z M 96.1,55.3415 c -0.05154,1.5121 -0.0944,4.5385 -0.0944,4.5385 0.03842,29.609 7.88449,58.6006 22.63779,83.9386 1.2492,-1.2783 2.5108,-2.5438 3.7949,-3.7871 -16.225,-25.233 -25.319999,-54.545 -26.337999,-84.689 z m -32.029,227.66 c -0.04226,1.6619 -0.06445,3.3293 -0.06445,5.002 0,106.37 85.630003,192 192.000003,192 106.36,0 192,-85.63 192,-192 0,-1.6604 -0.0228,-3.3151 -0.0645,-4.9648 -2.6521,104.02 -87.255,186.96 -191.94,186.96 -104.7,0 -189.300003,-82.961 -191.940003,-187 z"
     fill="#0c0c0c"
     opacity="0.3"
     stroke-width="1.3333"
     id="path132826"
     sodipodi:nodetypes="sccccscccccccssscscc" />
  <path
     transform="scale(0.75)"
     d="M 403.37342,73.813426 C 418.03939,103.53239 389.74552,102.76474 361.998,127.818 331.644,107.745 295.264,96 255.998,96 216.717,96 180.284,107.755 149.938,127.844 122.756,103.172 126.69941,132.32137 120.48041,95.639369 118.98561,104.49877 96.0627,50.897 96.0002,59.881 c 0.0024,1.8234 0.03824,3.6429 0.09961,5.4609 -0.09421,-5.4619 -1.243,7.367 0,0 0.788106,4.648693 4.01261,-13.027971 5.17924,-8.495167 8.03903,31.234732 24.92075,59.452707 48.65886,80.997167 30.349,-20.089 66.781,-31.844 106.06,-31.844 39.266,0 75.646,11.745 106,31.818 23.93591,-21.77516 40.88002,-50.3331 48.79507,-81.90706 1.14748,-4.577416 2.1052,-9.218222 2.86693,-13.91094 l 0.004,0.0059 c 0.64919,3.849539 1.16133,7.720705 1.53828,11.605748 0.36418,3.753461 0.60216,7.519874 0.71562,11.292252 0.0513,-1.6725 2.3385,29.5518 2.3398,27.875 -0.005,-9.3437 0.75452,2.940048 -0.79752,-6.262952 l -2.2579,-32.9043 z M 118.64,153.82 C 84.859,188.388 64.003,235.621 64.003,288 c 0,1.6712 0.02243,3.3373 0.06445,4.998 1.3302,-52.307 23.466,-99.176 58.367,-132.97 -1.314,-2.0435 -2.5749,-4.1176 -3.7949,-6.2129 z m 274.75,0.0371 c -1.2189,2.0954 -2.4801,4.1692 -3.793,6.2129 34.884,33.794 57.017,80.661 58.338,132.97 0.0426,-1.6731 0.0645,-3.3514 0.0645,-5.0352 0,-52.366 -20.852,-99.582 -54.609,-134.14 z"
     fill="#ffffff"
     opacity="0.3"
     stroke-width="1.3333"
     id="path132828"
     sodipodi:nodetypes="ccscccccscscsccsccccccscccccccscc" />
</svg>
