<?xml version="1.0" encoding="UTF-8" standalone="no"?>
<svg
   width="32"
   height="32"
   version="1"
   id="svg550626"
   sodipodi:docname="Encryptr.svg"
   inkscape:version="1.1.2 (0a00cf5339, 2022-02-04)"
   xmlns:inkscape="http://www.inkscape.org/namespaces/inkscape"
   xmlns:sodipodi="http://sodipodi.sourceforge.net/DTD/sodipodi-0.dtd"
   xmlns="http://www.w3.org/2000/svg"
   xmlns:svg="http://www.w3.org/2000/svg">
  <defs
     id="defs550630" />
  <sodipodi:namedview
     id="namedview550628"
     pagecolor="#ffffff"
     bordercolor="#666666"
     borderopacity="1.0"
     inkscape:pageshadow="2"
     inkscape:pageopacity="0.0"
     inkscape:pagecheckerboard="0"
     showgrid="false"
     inkscape:zoom="25.84375"
     inkscape:cx="15.980653"
     inkscape:cy="16"
     inkscape:window-width="1920"
     inkscape:window-height="1051"
     inkscape:window-x="0"
     inkscape:window-y="29"
     inkscape:window-maximized="1"
     inkscape:current-layer="svg550626" />
  <rect
     fill="#c41f5b"
     width="28"
     height="28"
     x="2"
     y="2"
     rx="1.4"
     ry="1.4"
     id="rect550608" />
  <path
     opacity=".2"
     d="m8 5v16l8 8 8-8h-8l8-8h-8l8-8h-16z"
     id="path550610" />
  <path
     fill="#ffffff"
     d="m 22.788949,20 v 0 H 16 v 8 l 0.43853,-0.43853 6.554803,-6.554803 z"
     id="path550612"
     sodipodi:nodetypes="ccccccc" />
  <path
     fill="#ffffff"
     d="m 22.820908,12 v 0 H 16 v 8 l 7.130853,-7.130853 z"
     id="path550614"
     sodipodi:nodetypes="cccccc" />
  <path
     fill="#ea7aa2"
     d="M 22.764165,4 V 4 H 16 v 8 l 7.090502,-7.0905021 z"
     id="path550616"
     sodipodi:nodetypes="cccccc" />
  <path
     fill="#e0e0e0"
     d="m 8.2190877,20 v 0 H 16 v 8 L 8.3806397,20.38064 Z"
     id="path550618"
     sodipodi:nodetypes="cccccc" />
  <rect
     fill="#e0e0e0"
     width="8"
     height="16"
     x="8"
     y="4"
     id="rect550620"
     ry="0.88538909" />
  <path
     fill="#fff"
     opacity=".2"
     d="m3.4004 2c-0.7756 0-1.4004 0.6248-1.4004 1.4004v1c0-0.7756 0.6248-1.4004 1.4004-1.4004h25.2c0.775 0 1.4 0.6248 1.4 1.4004v-1c0-0.7756-0.625-1.4004-1.4-1.4004h-25.2z"
     id="path550622" />
  <path
     opacity=".2"
     d="m2 28.6v1c0 0.775 0.6248 1.4 1.4004 1.4h25.2c0.775 0 1.4-0.625 1.4-1.4v-1c0 0.775-0.625 1.4-1.4 1.4h-25.2c-0.7752 0-1.4-0.625-1.4-1.4z"
     id="path550624" />
</svg>
