<?xml version="1.0" encoding="UTF-8" standalone="no"?>
<svg
   width="512"
   height="512"
   version="1.1"
   viewBox="0 0 384 384"
   id="svg1533931"
   sodipodi:docname="ffmulticonverter.svg"
   inkscape:version="1.1.2 (0a00cf5339, 2022-02-04)"
   xmlns:inkscape="http://www.inkscape.org/namespaces/inkscape"
   xmlns:sodipodi="http://sodipodi.sourceforge.net/DTD/sodipodi-0.dtd"
   xmlns="http://www.w3.org/2000/svg"
   xmlns:svg="http://www.w3.org/2000/svg">
  <defs
     id="defs1533935" />
  <sodipodi:namedview
     id="namedview1533933"
     pagecolor="#ffffff"
     bordercolor="#666666"
     borderopacity="1.0"
     inkscape:pageshadow="2"
     inkscape:pageopacity="0.0"
     inkscape:pagecheckerboard="0"
     showgrid="false"
     inkscape:zoom="1.6152344"
     inkscape:cx="255.69045"
     inkscape:cy="256"
     inkscape:window-width="1920"
     inkscape:window-height="1051"
     inkscape:window-x="0"
     inkscape:window-y="29"
     inkscape:window-maximized="1"
     inkscape:current-layer="svg1533931" />
  <path
     d="m192 24c92.781 0 168 75.215 168 168 0 92.781-75.215 168-168 168-92.781 0-168-75.215-168-168 0-92.781 75.215-168 168-168z"
     fill="#333"
     id="path1533919" />
  <path
     d="m204.61 91.504c-73.512 18.934-184.15 92.601-72.371 192-49.672-63.035-60.306-83.996 48.249-83.996-105.57-21.203-12.25-63.504 36.18-72zm47.817 23.941c49.676 63.035 60.305 83.996-48.246 83.996 105.56 21.207 12.249 63.508-36.185 72l12.063 36c73.512-18.934 184.14-92.605 72.368-192z"
     opacity=".3"
     id="path1533921" />
  <path
     d="m 180.06,299.94 c 70.27818,-18.10109 174.47868,-86.22929 85.84877,-179.03453 -4.07827,-4.2704 2.73942,5.96562 -2.17752,1.59319 4.04082,5.1275 -3.48097,-4.58207 0,0 36.57183,48.1403 39.86425,66.80548 -40.14035,69.17389 -5.99521,0.17748 6.95174,0 0,0 7.46151,1.49902 -5.48049,3.36688 0.0798,5.0573 73.10322,22.22433 -10.66331,59.31441 -55.67375,67.20615 z"
     fill="#fd4747"
     id="path1533923"
     sodipodi:nodetypes="cscsscscc" />
  <path
     d="m 204.61,84.004 c -70.08102,18.05031 -173.903399,85.84471 -86.59488,178.25368 4.27439,4.52409 -5.21699,-4.63914 0,0 -4.48779,-5.69512 5.56697,2.69953 1.77563,-2.32427 -35.918388,-47.59445 -37.93002,-65.7614 44.22628,-67.74075 5.15512,-0.1242 -5.83033,0 0,0 -5.91576,-1.18814 5.26498,-2.62719 0.55539,-3.93816 -79.335752,-22.08414 6.38042,-60.22658 52.09658,-68.2465 z"
     fill="#ffffff"
     id="path1533925"
     sodipodi:nodetypes="cscsscscc" />
  <path
     transform="scale(.75)"
     d="m32.062 250.99c-0.036438 1.663-0.0625 3.3283-0.0625 5 0 123.71 100.29 224 223.99 224 123.71 0 224-100.29 224-224 0-1.6717-0.02801-3.337-0.06445-5-2.66 121.4-101.9 219-223.93 219-122.04 0-221.27-97.598-223.93-219z"
     opacity=".3"
     stroke-width="1.3333"
     id="path1533927" />
  <path
     transform="scale(.75)"
     d="m255.99 32c-123.71 0-223.99 100.29-223.99 223.99 0 1.6717 0.026062 3.337 0.0625 5 2.66-121.4 101.9-218.99 223.93-218.99 122.04 0 221.27 97.596 223.93 218.99 0.03644-1.663 0.06445-3.3283 0.06445-5 0-123.71-100.29-223.99-224-223.99z"
     fill="#fff"
     opacity=".3"
     stroke-width="1.3333"
     style="opacity:.1"
     id="path1533929" />
</svg>
