<?xml version="1.0" encoding="UTF-8" standalone="no"?>
<svg
   width="32"
   height="32"
   version="1"
   id="svg113456"
   sodipodi:docname="gda-control-center.svg"
   inkscape:version="1.1.2 (0a00cf5339, 2022-02-04)"
   xmlns:inkscape="http://www.inkscape.org/namespaces/inkscape"
   xmlns:sodipodi="http://sodipodi.sourceforge.net/DTD/sodipodi-0.dtd"
   xmlns="http://www.w3.org/2000/svg"
   xmlns:svg="http://www.w3.org/2000/svg">
  <defs
     id="defs113460" />
  <sodipodi:namedview
     id="namedview113458"
     pagecolor="#ffffff"
     bordercolor="#666666"
     borderopacity="1.0"
     inkscape:pageshadow="2"
     inkscape:pageopacity="0.0"
     inkscape:pagecheckerboard="0"
     showgrid="false"
     inkscape:zoom="25.84375"
     inkscape:cx="15.980653"
     inkscape:cy="16"
     inkscape:window-width="1920"
     inkscape:window-height="1051"
     inkscape:window-x="0"
     inkscape:window-y="29"
     inkscape:window-maximized="1"
     inkscape:current-layer="svg113456" />
  <rect
     fill="#959595"
     width="28"
     height="28"
     x="2"
     y="2"
     rx="1.5"
     ry="1.5"
     id="rect113440" />
  <path
     opacity=".1"
     d="m16 11c-2.0974 0-3.8893 0.69009-4.6317 1.6667-0.06232 0.08199-0.11759 0.16549-0.16462 0.2513-0.0447 0.08155-0.08291 0.16412-0.113 0.2487a5 2.6667 0 0 0 -0.02093 0.07813c-0.01714 0.05732-0.03586 0.1147-0.04604 0.17318a5 2.6667 0 0 0 -0.024 0.248c0.000275 0.08665 0.0091 0.17319 0.02512 0.25911a5 2.6667 0 0 0 0.06836 0.25 5 2.6667 0 0 0 0.11579 0.2487 5 2.6667 0 0 0 0.15904 0.24219 5 2.6667 0 0 0 4.6317 1.6667 5 2.6667 0 0 0 4.6317 -1.6667 5 2.6667 0 0 0 0.0015 -0.0026 5 2.6667 0 0 0 0.13532 -0.20573c0.0079-0.01352 0.01758-0.02679 0.02511-0.04036a5 2.6667 0 0 0 0.08231 -0.17708c0.01166-0.0279 0.02631-0.05525 0.03628-0.08333a5 2.6667 0 0 0 0.04046 -0.14844c0.0096-0.0391 0.02013-0.07786 0.02651-0.11719a5 2.6667 0 0 0 0.02089 -0.22526 5 2.6667 0 0 0 -0.02651 -0.26562c-0.046-0.26-0.165-0.506-0.34-0.736-0.743-0.977-2.535-1.667-4.632-1.667zm-4.6317 5a5 2.6667 0 0 0 -0.3683 1 5 2.6667 0 0 0 5 2.6667 5 2.6667 0 0 0 5 -2.667 5 2.6667 0 0 0 -0.368 -1 5 2.6667 0 0 1 -4.632 1.667 5 2.6667 0 0 1 -4.632 -1.667zm0 3.3333a5 2.6667 0 0 0 -0.3683 1 5 2.6667 0 0 0 5 2.667 5 2.6667 0 0 0 5 -2.6667 5 2.6667 0 0 0 -0.3683 -1 5 2.6667 0 0 1 -4.632 1.667 5 2.6667 0 0 1 -4.632 -1.667z"
     id="path113442" />
  <path
     fill="#fff"
     opacity=".1"
     d="m3.5 2c-0.831 0-1.5 0.669-1.5 1.5v1c0-0.831 0.669-1.5 1.5-1.5h25c0.831 0 1.5 0.669 1.5 1.5v-1c0-0.831-0.669-1.5-1.5-1.5h-25z"
     id="path113444" />
  <path
     opacity=".2"
     d="m2 28.5v1c0 0.831 0.669 1.5 1.5 1.5h25c0.831 0 1.5-0.669 1.5-1.5v-1c0 0.831-0.669 1.5-1.5 1.5h-25c-0.831 0-1.5-0.669-1.5-1.5z"
     id="path113446" />
  <path
     fill="#4d4d4d"
     d="m16 10c-2.0974 0-3.8893 0.69009-4.6317 1.6667-0.06232 0.08199-0.11759 0.16549-0.16462 0.2513-0.0447 0.08155-0.08291 0.16412-0.113 0.2487a5 2.6667 0 0 0 -0.02093 0.07813c-0.01714 0.05732-0.03586 0.1147-0.04604 0.17318a5 2.6667 0 0 0 -0.024 0.249c0.000275 0.08665 0.0091 0.17319 0.02512 0.25911a5 2.6667 0 0 0 0.06836 0.25 5 2.6667 0 0 0 0.11579 0.2487 5 2.6667 0 0 0 0.15904 0.24219 5 2.6667 0 0 0 4.6317 1.6667 5 2.6667 0 0 0 4.6317 -1.6667 5 2.6667 0 0 0 0.0015 -0.0026 5 2.6667 0 0 0 0.13532 -0.20573c0.0079-0.01352 0.01758-0.02679 0.02511-0.04036a5 2.6667 0 0 0 0.08231 -0.17708c0.01166-0.0279 0.02631-0.05525 0.03628-0.08333a5 2.6667 0 0 0 0.04046 -0.14844c0.0096-0.0391 0.02013-0.07786 0.02651-0.11719a5 2.6667 0 0 0 0.02089 -0.22526 5 2.6667 0 0 0 -0.02651 -0.26562c-0.046-0.26-0.165-0.506-0.34-0.736-0.743-0.977-2.535-1.667-4.632-1.667zm-4.6317 5a5 2.6667 0 0 0 -0.368 1 5 2.6667 0 0 0 5 2.6667 5 2.6667 0 0 0 5 -2.667 5 2.6667 0 0 0 -0.368 -1 5 2.6667 0 0 1 -4.632 1.667 5 2.6667 0 0 1 -4.632 -1.667zm0 3.3333a5 2.6667 0 0 0 -0.3683 1 5 2.6667 0 0 0 5 2.667 5 2.6667 0 0 0 5 -2.6667 5 2.6667 0 0 0 -0.3683 -1 5 2.6667 0 0 1 -4.632 1.667 5 2.6667 0 0 1 -4.632 -1.667z"
     id="path113448" />
  <circle
     fill="#cc5e55"
     cx="24"
     cy="23"
     r="8"
     id="circle113450" />
  <path
     fill="#ffffff"
     d="m 23,19 -0.02451,0.292827 -0.06369,0.760773 c -0.33407,0.123749 -0.644669,0.303395 -0.91852,0.53126 l -0.542819,-0.255597 -0.612607,0.147369 v 0 l -0.666341,1.15417 0.140728,0.427321 v 0 L 20.9051,22.46986 c -0.03096,0.175035 -0.04702,0.352381 -0.048,0.53013 9.4e-5,0.178432 0.01538,0.356532 0.0457,0.53237 l -0.63723,0.442039 v 0 l -0.07046,0.435791 0.616069,1.067093 0.493619,0.262004 v 0 L 21.99097,25.41624 c 0.274771,0.226891 0.586126,0.405403 0.92075,0.5279 l 0.05419,0.648677 0.45657,0.407123 v 0 h 1.252749 v 0 l 0.352153,-0.328046 0.06074,-0.725554 c 0.334077,-0.123747 0.644683,-0.303393 0.91854,-0.53126 l 0.630441,0.296859 0.495903,-0.138275 v 0 l 0.677279,-1.173115 -0.111496,-0.451022 v 0 L 27.09482,23.53008 c 0.03096,-0.175035 0.04702,-0.352381 0.048,-0.53013 -9.4e-5,-0.178432 -0.01538,-0.356532 -0.0457,-0.53237 l 0.485999,-0.337132 0.182498,-0.608584 v 0 l -0.608506,-1.053993 v 0 L 26.615225,20.298268 26.00895,20.5837 c -0.274839,-0.226951 -0.586281,-0.405498 -0.921,-0.528 l -0.0588,-0.705561 -0.413822,-0.350439 v 0 h -1.285822 l -0.354022,0.293127 z m 1,2.8572 c 0.631284,-5.5e-5 1.143055,0.511716 1.143,1.143 5.5e-5,0.631284 -0.511716,1.143055 -1.143,1.143 -0.631284,5.5e-5 -1.143055,-0.511716 -1.143,-1.143 -5.5e-5,-0.631284 0.511716,-1.143055 1.143,-1.143 z"
     id="path113452"
     sodipodi:nodetypes="ccccccccccccccccccccccccccccccccccccccccccccccccccccccccc" />
  <path
     fill-rule="evenodd"
     opacity=".2"
     d="m31.979 23.424a8 8 0 0 1 -7.979 7.576 8 8 0 0 1 -7.979 -7.424 8 8 0 0 0 -0.021 0.424 8 8 0 0 0 8 8 8 8 0 0 0 8 -8 8 8 0 0 0 -0.021 -0.576z"
     id="path113454" />
</svg>
