<?xml version="1.0" encoding="UTF-8" standalone="no"?>
<svg
   width="512"
   height="512"
   version="1.1"
   id="svg1582007"
   sodipodi:docname="io.elementary.feedback.svg"
   inkscape:version="1.1.2 (0a00cf5339, 2022-02-04)"
   xmlns:inkscape="http://www.inkscape.org/namespaces/inkscape"
   xmlns:sodipodi="http://sodipodi.sourceforge.net/DTD/sodipodi-0.dtd"
   xmlns="http://www.w3.org/2000/svg"
   xmlns:svg="http://www.w3.org/2000/svg">
  <defs
     id="defs1582011" />
  <sodipodi:namedview
     id="namedview1582009"
     pagecolor="#ffffff"
     bordercolor="#666666"
     borderopacity="1.0"
     inkscape:pageshadow="2"
     inkscape:pageopacity="0.0"
     inkscape:pagecheckerboard="0"
     showgrid="false"
     inkscape:zoom="1.6152344"
     inkscape:cx="255.69045"
     inkscape:cy="256"
     inkscape:window-width="1920"
     inkscape:window-height="1051"
     inkscape:window-x="0"
     inkscape:window-y="29"
     inkscape:window-maximized="1"
     inkscape:current-layer="g1582005" />
  <g
     stroke-width="7.7586"
     id="g1582005">
    <path
       d="m 256,446.47 c 124.27,0 225,-83.305 225,-201.14 C 481,127.5 380.27,42.65 256,42.64 c -124.27,0 -225,84.861 -225,202.69 0,64.526 30.204,117.61 77.937,153.84 2.857,2.1686 8.3773,26.12544 -10.125503,40.15944 -4.5562,3.4515 4.689273,12.64372 10.381773,12.04982 21.765,-2.2718 35.41123,5.99484 57.57023,-20.61516 27.359,10.186 57.532,15.71 89.237,15.71 z"
       fill="#24aa6e"
       fill-rule="evenodd"
       id="path1581987"
       sodipodi:nodetypes="cscssccccc" />
    <rect
       x="139.62"
       y="176.78"
       width="232.76"
       height="23.276"
       rx="10.583"
       opacity=".3"
       id="rect1581989" />
    <rect
       x="139.62"
       y="166.78"
       width="232.76"
       height="23.276"
       rx="10.583"
       fill="#fff"
       id="rect1581991" />
    <rect
       x="139.62"
       y="238.84"
       width="232.76"
       height="23.276"
       rx="10.583"
       opacity=".3"
       id="rect1581993" />
    <rect
       x="139.62"
       y="228.84"
       width="232.76"
       height="23.276"
       rx="10.583"
       fill="#fff"
       id="rect1581995" />
    <rect
       x="139.62"
       y="300.91"
       width="232.76"
       height="23.276"
       rx="10.583"
       opacity=".3"
       id="rect1581997" />
    <rect
       x="139.62"
       y="290.91"
       width="232.76"
       height="23.276"
       rx="10.583"
       fill="#fff"
       id="rect1581999" />
    <path
       d="m31.07 240.13c-0.043702 1.7258-0.070312 3.4569-0.070312 5.1973 0 64.526 30.205 117.61 77.938 153.84 0.04235 0.03214 0.07504 0.10399 0.11328 0.15429 0.72417-5.5936 0.68691-9.5469-0.11328-10.154-46.542-35.327-76.405-86.681-77.867-149.04zm449.86 0.19726c-2.8067 115.19-102.43 196.14-224.93 196.14-31.705 0-61.877-5.5247-89.236-15.711-22.159 26.61-54.12 36.295-75.885 38.566-1.2435 0.12974-2.3443-0.12158-3.2754-0.60742-0.26593 0.21825-0.52579 0.45064-0.79688 0.65625-4.5562 3.4515-1.6202 10.545 4.0723 9.9512 21.765-2.2718 53.726-11.956 75.885-38.566 27.359 10.186 57.531 15.711 89.236 15.711 124.27 0 225-83.306 225-201.14 0-1.6743-0.0279-3.3392-0.06836-5z"
       fill="#1c2b18"
       fill-rule="evenodd"
       opacity=".3"
       id="path1582001" />
    <path
       d="m 256,42.639 c -124.27,0 -225,84.86 -225,202.69 0,1.6099 0.03291,3.2072 0.07031,4.8027 2.9151,-115.12 102.499998,-197.49 224.929998,-197.49 122.5,0.01056 222.12,82.468 224.93,197.69 0.0405,-1.6604 0.0684,-3.3256 0.0684,-5 0,-117.83 -100.73,-202.68 -225,-202.69 z m -146.95,366.68 c -1.8614,14.378 7.76841,20.73029 -5.55219,30.83429 -3.561002,2.6975 20.59134,-3.45258 5.69546,11.22597 43.09913,-42.20644 2.36061,-38.76646 -0.14339,-42.05946 z"
       fill="#ffffff"
       fill-rule="evenodd"
       opacity="0.2"
       id="path1582003"
       sodipodi:nodetypes="cscccsccccccc" />
  </g>
</svg>
