<?xml version="1.0" encoding="UTF-8" standalone="no"?>
<svg
   width="512"
   height="512"
   version="1.1"
   viewBox="0 0 384 384"
   id="svg43795"
   sodipodi:docname="io.github.jliljebl.Flowblade.svg"
   inkscape:version="1.1.2 (0a00cf5339, 2022-02-04)"
   xmlns:inkscape="http://www.inkscape.org/namespaces/inkscape"
   xmlns:sodipodi="http://sodipodi.sourceforge.net/DTD/sodipodi-0.dtd"
   xmlns="http://www.w3.org/2000/svg"
   xmlns:svg="http://www.w3.org/2000/svg">
  <defs
     id="defs43799" />
  <sodipodi:namedview
     id="namedview43797"
     pagecolor="#ffffff"
     bordercolor="#666666"
     borderopacity="1.0"
     inkscape:pageshadow="2"
     inkscape:pageopacity="0.0"
     inkscape:pagecheckerboard="0"
     showgrid="false"
     inkscape:zoom="1.6152344"
     inkscape:cx="255.69045"
     inkscape:cy="256"
     inkscape:window-width="1920"
     inkscape:window-height="1051"
     inkscape:window-x="0"
     inkscape:window-y="29"
     inkscape:window-maximized="1"
     inkscape:current-layer="svg43795" />
  <path
     d="m360 343.2v-302.4c0-9.2773-7.5234-16.801-16.801-16.801h-302.4c-9.2773 0-16.801 7.5234-16.801 16.801v302.4c0 9.2773 7.5234 16.801 16.801 16.801h302.4c9.2773 0 16.801-7.5234 16.801-16.801z"
     fill="#2d303b"
     id="path43779" />
  <path
     d="m192 79.5h84s-53.852 11.484-60 31.43c-4.6328 15.039 27.223 27.438 24 42.855-3.8633 18.488-44.168 18.648-48 37.145-3.6289 17.504 39.016 30.941 36 48.57-3.1758 18.574-47.656 21.148-48 40-0.32813 18.191 48 40 48 40h-120z"
     fill="#292929"
     opacity=".3"
     id="path43781" />
  <path
     d="m 192,72 h 62.81652 v 0 c 0,0 12.52454,1.846529 1.75453,5.344742 C 240.48238,82.570511 219.68273,91.482108 216,103.43 c -4.6328,15.039 27.223,27.438 24,42.855 -3.8633,18.488 -44.168,18.648 -48,37.145 -3.6289,17.504 39.016,30.941 36,48.57 -3.1758,18.574 -47.656,21.148 -48,40 -0.21505,11.92226 20.46973,25.3986 34.75149,33.27086 7.50937,4.13924 0,0 0,0 L 211.03777,312 h -98.27293 l -3.0949,-4.77127 v 0 z"
     fill="#ffffff"
     id="path43783"
     sodipodi:nodetypes="cccscccccscccccc" />
  <path
     d="m48 55.5v36h36v-36zm252 0v36h36v-36zm-252 84v36h36v-36zm252 0v36h36v-36zm-252 84v36h36v-36zm252 0v36h36v-36zm-252 84v36h36v-36zm252 0v36h36v-36z"
     opacity=".3"
     id="path43785" />
  <g
     fill="#fff"
     id="g43793">
    <path
       d="m48 48v36h36v-36zm252 0v36h36v-36zm-252 84v36h36v-36zm252 0v36h36v-36zm-252 84v36h36v-36zm252 0v36h36v-36zm-252 84v36h36v-36zm252 0v36h36v-36z"
       id="path43787" />
    <path
       transform="scale(.75)"
       d="m32 447.6v10c0 12.37 10.031 22.4 22.4 22.4h403.2c12.37 0 22.4-10.031 22.4-22.4v-10c0 12.37-10.031 22.4-22.4 22.4h-403.2c-12.37 0-22.4-10.031-22.4-22.4z"
       fill="#000"
       opacity=".3"
       stroke-width="1.3333"
       id="path43789" />
    <path
       transform="scale(.75)"
       d="m54.4 32c-12.37 0-22.4 10.031-22.4 22.4v10c0-12.37 10.031-22.4 22.4-22.4h403.2c12.37 0 22.4 10.031 22.4 22.4v-10c0-12.37-10.031-22.4-22.4-22.4h-403.2z"
       opacity=".1"
       stroke-width="1.3333"
       id="path43791" />
  </g>
</svg>
