<?xml version="1.0" encoding="UTF-8" standalone="no"?>
<svg
   width="512"
   height="512"
   version="1.1"
   viewBox="0 0 384 384"
   id="svg165375"
   sodipodi:docname="io.github.wereturtle.ghostwriter.svg"
   inkscape:version="1.1.2 (0a00cf5339, 2022-02-04)"
   xmlns:inkscape="http://www.inkscape.org/namespaces/inkscape"
   xmlns:sodipodi="http://sodipodi.sourceforge.net/DTD/sodipodi-0.dtd"
   xmlns:xlink="http://www.w3.org/1999/xlink"
   xmlns="http://www.w3.org/2000/svg"
   xmlns:svg="http://www.w3.org/2000/svg">
  <sodipodi:namedview
     id="namedview165377"
     pagecolor="#ffffff"
     bordercolor="#666666"
     borderopacity="1.0"
     inkscape:pageshadow="2"
     inkscape:pageopacity="0.0"
     inkscape:pagecheckerboard="0"
     showgrid="false"
     inkscape:zoom="1.6152344"
     inkscape:cx="255.69045"
     inkscape:cy="256"
     inkscape:window-width="1920"
     inkscape:window-height="1051"
     inkscape:window-x="0"
     inkscape:window-y="29"
     inkscape:window-maximized="1"
     inkscape:current-layer="svg165375" />
  <defs
     id="defs165353">
    <filter
       id="alpha"
       x="0"
       y="0"
       width="1"
       height="1">
      <feColorMatrix
         in="SourceGraphic"
         values="0 0 0 0 1 0 0 0 0 1 0 0 0 0 1 0 0 0 1 0"
         id="feColorMatrix165327" />
    </filter>
    <clipPath
       id="clipPath165332">
      <rect
         width="384"
         height="384"
         id="rect165330" />
    </clipPath>
    <clipPath
       id="clipPath165336">
      <rect
         width="384"
         height="384"
         id="rect165334" />
    </clipPath>
    <clipPath
       id="clipPath165340">
      <rect
         width="384"
         height="384"
         id="rect165338" />
    </clipPath>
    <mask
       id="b">
      <g
         filter="url(#alpha)"
         id="g165344">
        <rect
           width="384"
           height="384"
           fill-opacity=".2"
           id="rect165342" />
      </g>
    </mask>
    <clipPath
       id="c">
      <rect
         width="384"
         height="384"
         id="rect165347" />
    </clipPath>
    <g
       id="a"
       clip-path="url(#c)">
      <path
         d="m192 24c-52.176 0.042969-100.88 28.168-129.77 74.953-4.4922-1.9414-9.332-2.9453-14.227-2.9531-19.883 0-36 16.117-36 36 0.015625 0.96875 0.070312 1.9414 0.16406 2.9062 1.6055-18.602 17.164-32.891 35.836-32.906 4.8945 0.007812 9.7344 1.0117 14.227 2.9531 28.898-46.785 77.598-74.91 129.77-74.953 52.18 0.046875 100.88 28.184 129.77 74.977 4.4922-1.9492 9.332-2.9609 14.227-2.9766 18.684 0.011719 34.254 14.312 35.848 32.93 0.089844-0.97266 0.14062-1.9531 0.15234-2.9297 0-19.883-16.117-36-36-36-4.8945 0.015625-9.7344 1.0273-14.227 2.9766-28.891-46.793-77.594-74.93-129.77-74.977zm155.27 154.12c-0.39453 0.14844-0.79297 0.28906-1.1953 0.42188 0.21094 1.9336 0.39062 3.8711 0.53906 5.8125 0.21875-0.074219 0.4375-0.15234 0.65625-0.23438 0.33594 3.9453 0.54297 7.8984 0.62109 11.859 0.050781-1.3281 0.085938-2.6562 0.10547-3.9844-0.0625-4.6328-0.30859-9.2617-0.72656-13.875zm-310.48 0.023438c-0.44141 4.6016-0.70703 9.2227-0.79688 13.852 0.039062 1.0938 0.089844 2.1875 0.15234 3.2812 0.10156-3.7188 0.31641-7.4297 0.64453-11.133 0.19531 0.066406 0.39062 0.13281 0.58594 0.19922 0.17188-1.9375 0.375-3.8711 0.60938-5.8008-0.40234-0.125-0.80078-0.25781-1.1953-0.39844zm292.71 115.38c-0.23047 3.0156-0.23437 6.0469-0.11719 9.0703 0.039063-1.0234 0.039063-2.0508 0.11719-3.0703 1.293 15.664 7.7266 30.508 21.961 38.684 3.0508-0.76562 6.4688-1.5781 8.5312-2.2148-20.301-6.5547-28.965-23.957-30.492-42.469z"
         fill="#fff"
         fill-rule="evenodd"
         id="path165350" />
    </g>
  </defs>
  <g
     fill-rule="evenodd"
     id="g165361"
     transform="translate(-0.0045,-0.006672)">
    <path
       d="m 192,31.5 c -54.174,0 -101.89,29.743 -129.86,74.887 -4.3421,-1.857 -9.1216,-2.8872 -14.143,-2.8872 -19.883,0 -36,16.117 -36,36 0,16.333 10.879,30.116 25.784,34.521 -1.1739,8.3089 -1.7842,16.817 -1.7842,25.479 0,92.785 69.844,168 156,168 4.7019,0 9.3522,-0.23663 13.948,-0.67529 l -0.0381,0.0308 c 74.316,-3.9141 131.83,-16.465 154.09,-23.356 -30.035,-9.7017 -35.029,-43.222 -28.427,-68.905 10.505,-22.6 16.427,-48.101 16.427,-75.095 0,-8.6621 -0.61029,-17.171 -1.7842,-25.479 14.905,-4.4043 25.784,-18.188 25.784,-34.521 0,-19.883 -16.117,-36 -36,-36 -5.0214,0 -9.801,1.0302 -14.143,2.8872 -27.967,-45.145 -75.683,-74.887 -129.86,-74.887 z"
       fill="#303030"
       opacity="0.3"
       id="path165355" />
    <path
       d="M 192,24 C 137.826,24 90.11,53.743 62.14,98.887 57.7979,97.03 53.0184,95.9998 47.997,95.9998 c -19.883,0 -36,16.117 -36,36 0,16.333 10.879,30.116 25.784,34.521 -1.1739,8.3089 -1.7842,16.817 -1.7842,25.479 0,92.785 69.844,168 156,168 4.7019,0 9.3522,-0.23663 13.948,-0.67529 l -0.0381,0.0308 c 74.316,-3.9141 131.83,-16.465 154.09,-23.356 -1.62624,-0.5253 -3.17907,-1.12042 -4.66062,-1.78035 -25.88118,-11.52827 -30.01092,-42.83225 -23.76638,-67.12465 10.505,-22.6 16.427,-48.101 16.427,-75.095 0,-8.6621 -0.61029,-17.171 -1.7842,-25.479 14.905,-4.4043 25.784,-18.188 25.784,-34.521 0,-19.883 -16.117,-36 -36,-36 -5.0214,0 -9.801,1.0302 -14.143,2.8872 -27.967,-45.145 -75.683,-74.887 -129.86,-74.887 z"
       fill="#ffffff"
       opacity="0.2"
       stroke="#000000"
       stroke-width="7.5"
       id="path165357"
       sodipodi:nodetypes="ccsscsscccscscssccc" />
    <path
       d="M 192,24 C 137.826,24 90.11,53.743 62.14,98.887 57.7979,97.03 53.0184,95.9998 47.997,95.9998 c -19.883,0 -36,16.117 -36,36 0,14.69894 8.811079,27.33259 21.438175,32.92412 1.403736,0.6216 2.136974,6.89902 3.628167,7.33972 -4.345825,-1.59688 0.20925,-1.92438 0,0 -0.703898,6.47344 -1.066542,13.05908 -1.066542,19.73616 0,92.785 69.844,168 156,168 4.7019,0 9.3522,-0.23663 13.948,-0.67529 l -0.0381,0.0308 c 63.4785,-3.34331 114.69816,-12.98808 142.15953,-20.0245 4.6884,-1.20131 -3.24617,1.00491 0,0 -4.14554,-1.33906 4.11644,-6.46338 0.88963,-8.62672 -20.15183,-13.51036 -23.07693,-41.47164 -17.38616,-63.60978 10.505,-22.6 16.427,-48.101 16.427,-75.095 0,-7.57353 -0.46654,-15.02994 -1.36842,-22.33736 -0.12963,-1.05032 0.41578,3.14164 0,0 1.55261,-0.45878 2.64575,-4.16098 4.10324,-4.81559 12.5344,-5.62962 21.26498,-18.21541 21.26498,-32.84705 0,-19.883 -16.117,-36 -36,-36 -5.0214,0 -9.801,1.0302 -14.143,2.8872 -27.967,-45.145 -75.683,-74.887 -129.86,-74.887 z"
       fill="#ffffff"
       id="path165359"
       sodipodi:nodetypes="ccssscsssccscscsscsssccc" />
  </g>
  <g
     fill-rule="evenodd"
     id="g165371">
    <path
       d="m167.05 157.81c4.543-26.281-7.4648-50.406-26.816-53.887-19.355-3.4805-38.727 15.004-43.27 41.281-4.543 26.277 7.4648 50.402 26.816 53.887 19.355 3.4805 38.727-15.004 43.27-41.281z"
       opacity=".3"
       id="path165363" />
    <path
       d="m167.05 150.31c4.543-26.281-7.4648-50.406-26.816-53.887-19.355-3.4805-38.727 15.004-43.27 41.281-4.543 26.277 7.4648 50.402 26.816 53.887 19.355 3.4805 38.727-15.004 43.27-41.281z"
       id="path165365" />
    <path
       d="m287.03 145.23c-4.5625-26.281-23.949-44.777-43.297-41.312-19.348 3.4648-31.336 27.582-26.773 53.863 4.5625 26.281 23.945 44.777 43.297 41.312 19.348-3.4648 31.336-27.582 26.773-53.863z"
       opacity=".3"
       id="path165367" />
    <path
       d="m287.03 137.73c-4.5625-26.281-23.949-44.777-43.297-41.313-19.348 3.4648-31.336 27.582-26.773 53.863s23.945 44.777 43.297 41.312c19.348-3.4648 31.336-27.582 26.773-53.863z"
       id="path165369" />
  </g>
  <use
     width="100%"
     height="100%"
     mask="url(#b)"
     xlink:href="#a"
     id="use165373" />
</svg>
