<?xml version="1.0" encoding="UTF-8" standalone="no"?>
<svg
   width="512"
   height="512"
   version="1.1"
   viewBox="0 0 384 384"
   id="svg850065"
   sodipodi:docname="kipi-expoblending.svg"
   inkscape:version="1.1.2 (0a00cf5339, 2022-02-04)"
   xmlns:inkscape="http://www.inkscape.org/namespaces/inkscape"
   xmlns:sodipodi="http://sodipodi.sourceforge.net/DTD/sodipodi-0.dtd"
   xmlns="http://www.w3.org/2000/svg"
   xmlns:svg="http://www.w3.org/2000/svg">
  <sodipodi:namedview
     id="namedview850067"
     pagecolor="#ffffff"
     bordercolor="#666666"
     borderopacity="1.0"
     inkscape:pageshadow="2"
     inkscape:pageopacity="0.0"
     inkscape:pagecheckerboard="0"
     showgrid="false"
     inkscape:zoom="1.6152344"
     inkscape:cx="255.69045"
     inkscape:cy="256"
     inkscape:window-width="1920"
     inkscape:window-height="1051"
     inkscape:window-x="0"
     inkscape:window-y="29"
     inkscape:window-maximized="1"
     inkscape:current-layer="svg850065" />
  <defs
     id="defs850029">
    <clipPath
       id="clipPath850015">
      <rect
         width="384"
         height="384"
         id="rect850013" />
    </clipPath>
    <clipPath
       id="clipPath850019">
      <rect
         width="384"
         height="384"
         id="rect850017" />
    </clipPath>
    <clipPath
       id="clipPath850023">
      <rect
         width="384"
         height="384"
         id="rect850021" />
    </clipPath>
    <clipPath
       id="clipPath850027">
      <rect
         width="384"
         height="384"
         id="rect850025" />
    </clipPath>
  </defs>
  <g
     transform="translate(0 .005)"
     id="g850059">
    <g
       transform="translate(0,7.5e-4)"
       id="g850053">
      <path
         d="m39.785 47.799c-15.237 0-27.729 12.1-27.729 27.124v234.15c0 15.024 12.491 27.124 27.729 27.124h304.43c15.237 0 27.729-12.1 27.729-27.124v-234.15c0-15.024-12.491-27.124-27.729-27.124zm0 7.4208h304.43c11.395 0 20.342 8.7882 20.342 19.703v234.15c0 10.915-8.947 19.703-20.342 19.703h-304.43c-11.395 0-20.342-8.7882-20.342-19.703v-234.15c0-10.915 8.947-19.703 20.342-19.703z"
         color="#000000"
         color-rendering="auto"
         dominant-baseline="auto"
         image-rendering="auto"
         opacity=".2"
         shape-rendering="auto"
         solid-color="#000000"
         style="font-feature-settings:normal;font-variant-alternates:normal;font-variant-caps:normal;font-variant-ligatures:normal;font-variant-numeric:normal;font-variant-position:normal;isolation:auto;mix-blend-mode:normal;shape-padding:0;text-decoration-color:#000000;text-decoration-line:none;text-decoration-style:solid;text-indent:0;text-orientation:mixed;text-transform:none;white-space:normal"
         id="path850031" />
      <path
         d="m39.785 47.797c-13.316 0-24.035 10.719-24.035 24.031v240.34c0 13.312 10.719 24.031 24.035 24.031h304.43c13.316 0 24.035-10.719 24.035-24.031v-240.34c0-13.312-10.719-24.031-24.035-24.031z"
         fill="#fff"
         id="path850033" />
      <path
         d="m39.785 47.797c-13.316 0-24.035 10.719-24.035 24.031v8.0117c0-13.312 10.719-24.031 24.035-24.031h304.43c13.316 0 24.035 10.719 24.035 24.031v-8.0117c0-13.312-10.719-24.031-24.035-24.031z"
         fill="#fff"
         fill-opacity=".2"
         id="path850035" />
      <path
         d="m47.797 79.836h288.41v224.32h-288.41z"
         fill="#353a4a"
         id="path850037" />
      <path
         d="m117.79 79.84 9 224.32h30.434l91.637-91.637 16.02-16.023-16.02-16.023-100.64-100.64z"
         opacity=".3"
         id="path850039" />
      <path
         d="m47.797 79.84v224.32h94.523l112.16-112.16-112.16-112.16z"
         fill="#ffc72e"
         id="path850041" />
      <path
         d="m52.297 79.84 9 224.32h30.434l91.637-91.637 16.02-16.023-16.02-16.023-100.64-100.64z"
         opacity=".3"
         id="path850043" />
      <path
         d="m47.797 79.84v224.32h30.434l96.137-96.137 16.02-16.023-16.02-16.023-96.137-96.137z"
         fill="#21b8c2"
         id="path850045" />
      <path
         d="m336.2 193.61-110.55 110.55h110.55z"
         fill="#fd4747"
         fill-opacity=".99608"
         id="path850047" />
      <path
         transform="scale(.75)"
         d="m21 406.23v10c0 17.75 14.292 32.043 32.047 32.043h405.91c17.755 0 32.047-14.293 32.047-32.043v-10c0 17.75-14.292 32.043-32.047 32.043h-405.91c-17.755 0-32.047-14.293-32.047-32.043z"
         opacity=".3"
         stroke-width="1.3333"
         id="path850049" />
      <path
         transform="scale(.75)"
         d="m53.049 63.725c-17.755 0-32.047 14.291-32.047 32.041v10c0-17.75 14.292-32.041 32.047-32.041h405.91c17.755 0 32.047 14.291 32.047 32.041v-10c0-17.75-14.292-32.041-32.047-32.041z"
         opacity=".1"
         stroke-width="1.3333"
         id="path850051" />
    </g>
    <path
       d="m384 293.83c0-49.797-40.293-90.165-90-90.165s-90 40.368-90 90.165 40.293 90.165 90 90.165 90-40.368 90-90.165z"
       fill="#09162c"
       opacity=".3"
       stroke-width=".96204"
       id="path850055" />
    <path
       d="m384 286.33c0-49.797-40.293-90.165-90-90.165s-90 40.368-90 90.165 40.293 90.165 90 90.165 90-40.368 90-90.165z"
       fill="#8a3fab"
       stroke-width=".96204"
       id="path850057" />
  </g>
  <path
     d="m293.73 350.08-41.921-56.213h28.106v-56.212h28.106v56.212h28.106z"
     opacity=".3"
     stroke-width="1.1711"
     id="path850061" />
  <path
     d="m 290.93677,338.83448 v 0 l -33.45024,-44.85433 2.01653,-7.61315 v 0 H 279.915 v -56.212 h 28.106 v 56.212 h 21.41622 v 0 l 2.18242,5.97618 -35.086,46.51955 z"
     fill="#ffffff"
     stroke-width="1.1711"
     id="path850063"
     sodipodi:nodetypes="cccccccccccccc" />
</svg>
