<?xml version="1.0" encoding="UTF-8" standalone="no"?>
<svg
   width="512"
   height="512"
   version="1.1"
   viewBox="0 0 384 384"
   id="svg714909"
   sodipodi:docname="lutris_xonotic.svg"
   inkscape:version="1.1.2 (0a00cf5339, 2022-02-04)"
   xmlns:inkscape="http://www.inkscape.org/namespaces/inkscape"
   xmlns:sodipodi="http://sodipodi.sourceforge.net/DTD/sodipodi-0.dtd"
   xmlns="http://www.w3.org/2000/svg"
   xmlns:svg="http://www.w3.org/2000/svg">
  <sodipodi:namedview
     id="namedview714911"
     pagecolor="#ffffff"
     bordercolor="#666666"
     borderopacity="1.0"
     inkscape:pageshadow="2"
     inkscape:pageopacity="0.0"
     inkscape:pagecheckerboard="0"
     showgrid="false"
     inkscape:zoom="1.6152344"
     inkscape:cx="255.69045"
     inkscape:cy="256"
     inkscape:window-width="1920"
     inkscape:window-height="1051"
     inkscape:window-x="0"
     inkscape:window-y="29"
     inkscape:window-maximized="1"
     inkscape:current-layer="svg714909" />
  <defs
     id="defs714891">
    <clipPath
       id="c">
      <path
         d="m111 119h177v23h-177z"
         id="path714877" />
    </clipPath>
    <clipPath
       id="b">
      <path
         d="m177 130h45v89h-45z"
         id="path714880" />
    </clipPath>
    <clipPath
       id="a">
      <path
         d="m111 207h177v89h-177z"
         id="path714883" />
    </clipPath>
    <clipPath
       id="d">
      <rect
         width="384"
         height="384"
         id="rect714886" />
    </clipPath>
    <g
       clip-path="url(#d)"
       id="g714889" />
  </defs>
  <path
     d="m360 199.5c0-92.785-75.215-168-168-168s-168 75.215-168 168 75.215 168 168 168 168-75.215 168-168z"
     opacity=".3"
     id="path714893" />
  <path
     d="m360 192c0-92.785-75.215-168-168-168s-168 75.215-168 168 75.215 168 168 168 168-75.215 168-168z"
     fill="#272a34"
     id="path714895" />
  <path
     d="m126.37 67.543c-53.355 23.961-90.371 76.207-90.371 136.92 0 83.41 69.848 151.04 156.01 151.04 86.148 0 155.99-67.645 155.99-151.04 0-59.965-36.121-111.7-88.402-135.97l-1.6328 1.5664c41.281 22.434 66.039 65.113 66.039 114.22 0 65.938-49.215 126.11-114.67 135.23l-17.316 24-17.34-24c-65.457-9.1211-114.67-69.289-114.67-135.23 0-49.613 25.367-92.652 67.336-114.88-0.28125-0.59375-0.68751-1.2578-0.97657-1.8945"
     opacity=".3"
     id="path714897" />
  <path
     d="m254.12 127.87c-5.8203 0.30078-12.273 1.6484-19.527 3.7734l-6.2773-3.8398-120.03 72.016c18.305-7.0195 33.609-10.34 42.992-11.109l-30.992 35.121 24.078-13.203c-9.8633 27.484-21.473 53.254-48.082 65.008-0.14844 0.34374-0.15625 0.7461-0.28125 1.1016 20.262 22.688 47.711 38.758 78.957 43.109l17.113 23.656 0.65625-0.1875 16.91-23.465c32.945-4.5938 61.75-22.121 82.262-46.793-1.0547-0.21484-2.1367-0.42187-3.5742-0.38281-37.906 0.32031-68.359-5.8359-72.02-47.234-0.98439-5.2461-1.8242-38.973 54.016-55.633-5.6289-3.625-24.367-3.8789-37.703-3.9141-0.57423-4.9336 0.62499-23.707 43.703-26.094-6.7578-6.5039-12.496-12.437-22.207-11.93zm-35.984 14.582c2.7617 1.1133 3.1172 2.8008 3.6133 4.6172-4.8164 0.92968-11.598 3.1016-13.48 0.63281-0.86328-0.84766 5.0273-3.9883 9.918-5.1797z"
     fill="#170000"
     opacity=".3"
     id="path714899" />
  <path
     d="m 254.12,120.37 c -5.8203,0.30078 -12.273,1.6484 -19.527,3.7734 l -6.2773,-3.8398 -99.74994,59.8483 1.78096,4.98163 c 8.00983,-3.07156 -6.61596,1.7512 0,0 8.5036,-2.25083 15.65376,-3.49043 20.93098,-3.92293 l -21.54777,24.41854 1.93065,4.46513 v 0 l 12.70312,-6.96567 c -9.8633,27.484 -21.473,53.254 -48.082,65.008 -0.14844,0.34375 -0.15625,0.7461 -0.28125,1.1016 20.262,22.688 47.711,38.758 78.957,43.109 l 17.113,23.656 0.65625,-0.1875 16.91,-23.465 c 32.945,-4.5938 61.75,-22.121 82.262,-46.793 -1.0547,-0.21485 -2.1367,-0.42188 -3.5742,-0.38282 -37.906,0.32032 -68.359,-5.8359 -72.02,-47.234 -0.94689,-5.04632 -1.76003,-36.44552 47.87994,-53.65792 1.96523,-0.68143 -2.83623,-3.56245 -0.70972,-4.1969 -1.48392,-0.95564 2.96689,0.54483 0,0 -8.28733,-1.52185 -21.03692,-1.66636 -30.85722,-1.69228 -0.5488,-4.71519 0.5223,-22.07193 38.22455,-25.68326 1.7464,-0.16728 0.31354,-3.42671 2.2206,-3.53238 -1.10596,-1.06441 1.07323,1.00811 0,0 -5.48455,-5.15176 -10.82743,-9.23239 -18.94915,-8.80836 z m -35.984,14.582 c 2.7617,1.1133 3.1172,2.8008 3.6133,4.6172 -4.8164,0.92968 -11.598,3.1016 -13.48,0.63281 -0.86328,-0.84766 5.0274,-3.9883 9.918,-5.1797 z"
     fill="#fd4747"
     id="path714901"
     sodipodi:nodetypes="cccccsccccccccccccccscscscsccccccc" />
  <path
     d="m323.97 174.86c-1.2645 64.919-50.04 123.64-114.64 132.64l-17.316 24-17.341-24c-64.59-9.0003-113.36-67.705-114.64-132.61-0.0082 0.6284-0.0293 1.2532-0.0293 1.8838 0 65.938 49.214 126.11 114.67 135.23l17.341 24 17.316-24c65.457-9.1211 114.67-69.29 114.67-135.23 0-0.64176-0.0224-1.2779-0.0308-1.9175z"
     opacity=".3"
     stroke-width=".75"
     id="path714903" />
  <path
     d="m 105.94078,71.093855 c -7.1168,3.196056 6.48633,-4.155504 0,0 C 63.798767,98.092385 35.999,144.34825 35.999,196.963 c 0,83.41 69.848,151.04 156.01,151.04 86.148,0 155.99,-67.645 155.99,-151.04 0,-51.77845 -26.9316,-97.420654 -67.94382,-124.543058 -6.48434,-4.288253 7.13752,3.313394 0,0 v 0 c 7.15717,3.88954 -8.2733,-1.472904 -2.15239,3.561741 29.18313,24.004059 46.10041,60.204747 46.10041,100.797717 0,65.938 -49.215,126.11 -114.67,135.23 L 192.014,331.5 174.6772,312.0094 c -65.457,-9.1211 -114.67,-69.289 -114.67,-135.23 0,-41.5755 17.813654,-78.534484 48.283,-102.498887 5.89043,-4.632873 -9.148565,0.414367 -2.34942,-3.186658 -0.28125,-0.59375 0.28906,0.6367 0,0"
     fill="#357aef"
     id="path714905"
     sodipodi:nodetypes="csssssccsscccsscc" />
  <path
     transform="scale(.75)"
     d="m256 32c-123.71 0-224 100.29-224 224 0 1.6718 0.026062 3.3369 0.0625 5 2.66-121.4 101.9-219 223.94-219s221.28 97.597 223.94 219c0.03644-1.6631 0.0625-3.3282 0.0625-5 0-123.71-100.29-224-224-224z"
     fill="#fff"
     opacity=".1"
     stroke-width="1.3333"
     id="path714907" />
</svg>
