<?xml version="1.0" encoding="UTF-8" standalone="no"?>
<svg
   width="384pt"
   height="384pt"
   version="1.1"
   viewBox="0 0 384 384"
   id="svg28122"
   sodipodi:docname="network-wireless-disconnected.svg"
   inkscape:version="1.1.2 (0a00cf5339, 2022-02-04)"
   xmlns:inkscape="http://www.inkscape.org/namespaces/inkscape"
   xmlns:sodipodi="http://sodipodi.sourceforge.net/DTD/sodipodi-0.dtd"
   xmlns="http://www.w3.org/2000/svg"
   xmlns:svg="http://www.w3.org/2000/svg">
  <defs
     id="defs28126" />
  <sodipodi:namedview
     id="namedview28124"
     pagecolor="#ffffff"
     bordercolor="#666666"
     borderopacity="1.0"
     inkscape:pageshadow="2"
     inkscape:pageopacity="0.0"
     inkscape:pagecheckerboard="0"
     inkscape:document-units="pt"
     showgrid="false"
     inkscape:zoom="1.6152344"
     inkscape:cx="256.30955"
     inkscape:cy="256"
     inkscape:window-width="1920"
     inkscape:window-height="1051"
     inkscape:window-x="0"
     inkscape:window-y="29"
     inkscape:window-maximized="1"
     inkscape:current-layer="svg28122" />
  <g
     transform="translate(.15705 -14.205)"
     id="g28116">
    <path
       d="m13.863 159.69c98.297-98.297 257.67-98.297 355.96 0l-177.98 177.98z"
       opacity=".3"
       id="path28106" />
    <path
       d="m13.863 152.19c98.297-98.297 257.67-98.297 355.96 0l-177.98 177.98z"
       fill="#4a4a4a"
       opacity=".2"
       stroke="#000"
       stroke-width="7.5"
       id="path28108" />
    <path
       d="m13.863 152.19c98.297-98.297 257.67-98.297 355.96 0l-177.98 177.98z"
       fill="#4a4a4a"
       id="path28110" />
    <path
       d="m37.023 175.36c81.983-86.649 225.49-86.981 309.64 0l-154.82 154.82z"
       opacity=".3"
       id="path28112" />
    <path
       d="m41.523 179.86c83.02-83.02 217.62-83.02 300.64 0l-150.32 150.32z"
       fill="#fff"
       id="path28114" />
  </g>
  <path
     d="m165.14 172.5-10.746 10.75 27.062 27.062-27.062 27.061 10.648 10.652 27.064-27.062 27.062 27.062 10.746-10.75-27.062-27.062 27.062-27.062-1.2441-1.2422-9.4023-9.4082-27.066 27.062z"
     color="#000000"
     color-rendering="auto"
     dominant-baseline="auto"
     image-rendering="auto"
     opacity=".3"
     shape-rendering="auto"
     solid-color="#000000"
     style="font-feature-settings:normal;font-variant-alternates:normal;font-variant-caps:normal;font-variant-ligatures:normal;font-variant-numeric:normal;font-variant-position:normal;isolation:auto;mix-blend-mode:normal;shape-padding:0;text-decoration-color:#000000;text-decoration-line:none;text-decoration-style:solid;text-indent:0;text-orientation:mixed;text-transform:none;white-space:normal"
     id="path28118" />
  <path
     d="m 162.44468,167.69632 v 0 l -5.2742,5.27616 v 0 l 0.73151,6.28551 23.55401,23.55401 -23.13735,23.13649 -0.32456,7.52595 v 0 l 4.64897,4.65072 v 0 l 5.72458,-0.92556 23.73836,-23.7366 24.57234,24.57234 5.57599,-0.59782 v 0 l 4.80865,-4.81044 -0.14223,-5.84533 v 0 L 202.852,202.713 227.07238,178.49262 v 0 l 1.59752,-4.08382 -6.16606,-6.16993 v 0 l -6.71591,0.24088 -23.58633,23.58285 -23.73719,-23.73807 z"
     color="#000000"
     color-rendering="auto"
     dominant-baseline="auto"
     image-rendering="auto"
     shape-rendering="auto"
     solid-color="#000000"
     style="font-variant-ligatures:normal;font-variant-position:normal;font-variant-caps:normal;font-variant-numeric:normal;font-variant-alternates:normal;font-feature-settings:normal;text-indent:0;text-decoration-line:none;text-decoration-style:solid;text-decoration-color:#000000;text-transform:none;text-orientation:mixed;white-space:normal;shape-padding:0;isolation:auto;mix-blend-mode:normal"
     id="path28120"
     sodipodi:nodetypes="ccccccccccccccccccccccccccccc" />
</svg>
