<?xml version="1.0" encoding="UTF-8" standalone="no"?>
<svg
   width="32"
   height="32"
   version="1.1"
   id="svg1190633"
   sodipodi:docname="nikto.svg"
   inkscape:version="1.1.2 (0a00cf5339, 2022-02-04)"
   xmlns:inkscape="http://www.inkscape.org/namespaces/inkscape"
   xmlns:sodipodi="http://sodipodi.sourceforge.net/DTD/sodipodi-0.dtd"
   xmlns="http://www.w3.org/2000/svg"
   xmlns:svg="http://www.w3.org/2000/svg">
  <defs
     id="defs1190637" />
  <sodipodi:namedview
     id="namedview1190635"
     pagecolor="#ffffff"
     bordercolor="#666666"
     borderopacity="1.0"
     inkscape:pageshadow="2"
     inkscape:pageopacity="0.0"
     inkscape:pagecheckerboard="0"
     showgrid="false"
     inkscape:zoom="25.84375"
     inkscape:cx="15.980653"
     inkscape:cy="16"
     inkscape:window-width="1920"
     inkscape:window-height="1051"
     inkscape:window-x="0"
     inkscape:window-y="29"
     inkscape:window-maximized="1"
     inkscape:current-layer="svg1190633" />
  <path
     d="m16 31s11.000001-6 11-14c0-7.0000001-2-14-11-14s-11 6.9999999-11 14c-1e-6 8 11 14 11 14z"
     style="opacity:.2"
     id="path1190617" />
  <path
     d="m16 30s11.000001-6 11-14c0-7.0000001-2-14-11-14s-11 6.9999999-11 14c-1e-6 8 11 14 11 14z"
     style="fill:#a3b8c5"
     id="path1190619" />
  <path
     d="m 16,27 c -1.016323,8.03e-4 -1.963132,0.516109 -2.515625,1.369141 0.877284,0.619524 1.623006,1.091591 2.069603,1.364642 0.283118,0.173099 0.884159,0.0048 0.884159,0.0048 0,0 -0.278255,0.170008 0,0 0.445675,-0.272297 1.195021,-0.746277 2.077488,-1.369461 C 17.963132,27.516109 17.016323,27.000803 16,27 Z"
     style="opacity:0.2"
     id="path1190621"
     sodipodi:nodetypes="ccscscc" />
  <path
     d="m7 17s4 0 5 1c2 2 3 5 3 5s-4 0-6-2-2-4-2-4z"
     style="opacity:.1"
     id="path1190623" />
  <path
     d="m7 16s4 0 5 1c2 2 3 5 3 5s-4 0-6-2-2-4-2-4z"
     style="fill:#044465"
     id="path1190625" />
  <path
     d="m25 17s-4 0-5 1c-2 2-3 5-3 5s4 0 6-2 2-4 2-4z"
     style="opacity:.1"
     id="path1190627" />
  <path
     d="m25 16s-4 0-5 1c-2 2-3 5-3 5s4 0 6-2 2-4 2-4z"
     style="fill:#044465"
     id="path1190629" />
  <path
     d="M 16 2 C 7 2 5 8.9999999 5 16 C 5 16.106305 5.0098389 16.210817 5.0136719 16.316406 C 5.1449654 9.5518103 7.2934089 3 16 3 C 24.706591 3 26.855035 9.5518103 26.986328 16.316406 C 26.990161 16.210817 27 16.106305 27 16 C 27 8.9999999 25 2 16 2 z "
     style="fill:#ffffff;opacity:.2"
     id="path1190631" />
</svg>
