<?xml version="1.0" encoding="UTF-8" standalone="no"?>
<svg
   width="512"
   height="512"
   version="1.1"
   viewBox="0 0 384 384"
   id="svg573752"
   sodipodi:docname="notification-display-brightness-full.svg"
   inkscape:version="1.1.2 (0a00cf5339, 2022-02-04)"
   xmlns:inkscape="http://www.inkscape.org/namespaces/inkscape"
   xmlns:sodipodi="http://sodipodi.sourceforge.net/DTD/sodipodi-0.dtd"
   xmlns="http://www.w3.org/2000/svg"
   xmlns:svg="http://www.w3.org/2000/svg">
  <sodipodi:namedview
     id="namedview573754"
     pagecolor="#ffffff"
     bordercolor="#666666"
     borderopacity="1.0"
     inkscape:pageshadow="2"
     inkscape:pageopacity="0.0"
     inkscape:pagecheckerboard="0"
     showgrid="false"
     inkscape:zoom="1.6152344"
     inkscape:cx="255.69045"
     inkscape:cy="256"
     inkscape:window-width="1920"
     inkscape:window-height="1051"
     inkscape:window-x="0"
     inkscape:window-y="29"
     inkscape:window-maximized="1"
     inkscape:current-layer="g573750" />
  <defs
     id="defs573726">
    <clipPath
       id="clipPath573715">
      <rect
         width="36"
         height="36"
         id="rect573713" />
    </clipPath>
    <clipPath
       id="clipPath573719">
      <rect
         width="384"
         height="384"
         id="rect573717" />
    </clipPath>
    <linearGradient
       id="a"
       x1="24.161"
       x2="470.92"
       y1="255.65"
       y2="-4.7024"
       gradientTransform="translate(-.021237 -.011297)"
       gradientUnits="userSpaceOnUse">
      <stop
         stop-color="#367bf0"
         offset="0"
         id="stop573721" />
      <stop
         stop-color="#b7164b"
         stop-opacity=".99608"
         offset="1"
         id="stop573723" />
    </linearGradient>
  </defs>
  <g
     transform="translate(-.003 -.00015)"
     id="g573744">
    <path
       d="m158.18 263.77h67.652v54.723h-67.652z"
       fill="#262833"
       id="path573728" />
    <path
       d="m158.07 264.17h67.852v54.168z"
       fill="#171717"
       id="path573730" />
    <path
       d="m23.996 55.281h336.01c4.5391 0 8.2188 3.4648 8.2188 7.7422v193.58c0 4.2774-3.6797 7.7461-8.2188 7.7461h-336.01c-4.5352 0-8.2148-3.4688-8.2148-7.7461v-193.58c0-4.2773 3.6797-7.7422 8.2148-7.7422z"
       id="path573732" />
    <path
       d="m132.2 317.36h119.6c2.5781 0 4.6641 1.9688 4.6641 4.3984v2.5664c0 2.4258-2.0859 4.3945-4.6641 4.3945h-119.6c-2.5781 0-4.6641-1.9688-4.6641-4.3945v-2.5664c0-2.4297 2.0859-4.3984 4.6641-4.3984z"
       fill="#171717"
       id="path573734" />
    <path
       d="m23.996 59.781h336.01c4.5391 0 8.2187 3.4648 8.2187 7.7422v193.58c0 4.2774-3.6797 7.7461-8.2187 7.7461h-336.01c-4.5352 0-8.2148-3.4688-8.2148-7.7461v-193.58c0-4.2773 3.6797-7.7422 8.2148-7.7422z"
       opacity=".3"
       id="path573736" />
    <rect
       x="24.14"
       y="63.993"
       width="335.73"
       height="191.64"
       rx="3.7555"
       ry="3.7555"
       fill="url(#a)"
       id="rect573738" />
    <path
       d="m223.32 233.3h-14.855v15.797h14.855zm-22.281 0h-14.855v15.797h14.855zm-22.285 0h-14.855v15.797h14.855z"
       fill="#060606"
       opacity=".3"
       id="path573740" />
    <path
       d="m220.32 230.3h-14.855v15.797h14.855zm-22.281 0h-14.855v15.797h14.855zm-22.285 0h-14.855v15.797h14.855z"
       fill="#fff"
       id="path573742" />
  </g>
  <path
     d="m191.96 81.101 1e-3 1e-3c7.0659 6.9709 13.827 14.907 20.974 21.842h26.902v26.902c6.9366 7.1468 14.87 13.906 21.842 20.972-6.9709 7.0643-14.906 14.093-21.842 21.262v26.612h-26.902c-7.1468 6.9366-13.909 14.87-20.974 21.842-7.0643-6.9709-14.093-14.906-21.262-21.842h-26.612v-26.622c-6.9366-7.1672-14.871-14.189-21.842-21.252 6.9709-7.0643 14.906-13.825 21.842-20.972v-26.902h26.612c7.1672-6.9382 14.193-14.873 21.261-21.844zm0.14942 29.323v76.598c21.153 0 38.3-17.146 38.3-38.298 0-21.153-17.147-38.3-38.3-38.3z"
     opacity=".3"
     stroke-width=".39895"
     id="path573746" />
  <g
     transform="matrix(.39895 0 0 .39895 115.44 66.718)"
     id="g573750">
    <path
       d="m 189.47625,27.992038 v 0 c 0,0 9.46019,-3.570837 12.99386,0.120052 13.93911,14.559306 27.61479,30.024219 41.90589,43.89171 h 47.32789 v 0 L 311.807,90.715212 V 139.4348 c 13.50934,13.9188 28.52671,27.25142 42.75091,40.81354 4.08285,3.89282 -3.89774,-3.94992 0,0 -3.46526,3.51166 4.97256,18.77432 1.35562,22.28247 -14.62091,14.18117 -30.16773,28.36161 -44.10653,42.76699 v 47.69571 l -15.50571,19.00829 v 0 H 244.376 c -13.79369,13.3879 -27.01642,28.25684 -40.45296,42.36712 -4.01363,4.21489 4.0727,-4.0198 0,0 -3.68407,-3.63538 -19.48338,5.00652 -23.16378,1.20626 C 166.75032,341.11 152.73942,325.7713 138.509,312.0018 H 89.769383 v 0 L 71.805,295.74436 V 245.2718 C 58.043732,231.05306 42.715154,217.06297 28.257582,203.069 c -3.80919,-3.68705 3.643666,3.69183 0,0 3.723157,-3.77302 -3.645574,-18.57773 0.249391,-22.29844 C 42.891319,167.02974 58.122832,153.53167 71.805,139.4348 V 89.037307 L 86.004114,72.0038 v 0 H 138.509 c 13.53872,-13.10614 26.87638,-27.630988 40.20903,-41.471318 4.35891,-4.524892 -4.36469,4.305063 0,0 z"
       fill="#ffffff"
       id="path573748"
       sodipodi:nodetypes="csscccccscscccccscscccccscscccccscc" />
  </g>
</svg>
