<?xml version="1.0" encoding="UTF-8" standalone="no"?>
<svg
   width="512"
   height="512"
   version="1.1"
   viewBox="0 0 384 384"
   id="svg937953"
   sodipodi:docname="csd-print-notifications.svg"
   inkscape:version="1.1.2 (0a00cf5339, 2022-02-04)"
   xmlns:inkscape="http://www.inkscape.org/namespaces/inkscape"
   xmlns:sodipodi="http://sodipodi.sourceforge.net/DTD/sodipodi-0.dtd"
   xmlns="http://www.w3.org/2000/svg"
   xmlns:svg="http://www.w3.org/2000/svg">
  <sodipodi:namedview
     id="namedview937955"
     pagecolor="#ffffff"
     bordercolor="#666666"
     borderopacity="1.0"
     inkscape:pageshadow="2"
     inkscape:pageopacity="0.0"
     inkscape:pagecheckerboard="0"
     showgrid="false"
     inkscape:zoom="1.6152344"
     inkscape:cx="255.69045"
     inkscape:cy="256"
     inkscape:window-width="1920"
     inkscape:window-height="1051"
     inkscape:window-x="0"
     inkscape:window-y="29"
     inkscape:window-maximized="1"
     inkscape:current-layer="svg937953" />
  <defs
     id="defs937939">
    <clipPath
       id="a">
      <path
         d="m110 117h173v173h-173z"
         id="path937917" />
    </clipPath>
    <clipPath
       id="clipPath937922">
      <path
         d="m361.66 196.5c0 91.25-73.992 165.16-165.16 165.16s-165.16-73.91-165.16-165.16 73.992-165.16 165.16-165.16 165.16 73.91 165.16 165.16z"
         id="path937920" />
    </clipPath>
    <clipPath
       id="b">
      <rect
         width="384"
         height="384"
         id="rect937924" />
    </clipPath>
    <g
       clip-path="url(#b)"
       id="g937929">
      <g
         clip-path="url(#a)"
         id="g937927" />
    </g>
    <clipPath
       id="clipPath937933">
      <rect
         width="384"
         height="384"
         id="rect937931" />
    </clipPath>
    <clipPath
       id="clipPath937937">
      <rect
         width="384"
         height="384"
         id="rect937935" />
    </clipPath>
  </defs>
  <path
     d="m192 26.84c91.219 0 165.16 73.941 165.16 165.16s-73.941 165.16-165.16 165.16-165.16-73.941-165.16-165.16 73.941-165.16 165.16-165.16z"
     fill="#d41717"
     id="path937941" />
  <g
     id="g937949">
    <path
       d="m 116.26,120.51 c -5.8086,0 -10.434,4.6289 -10.434,10.434 v 113.77 c 0,5.8086 4.6328,12.535 10.434,12.227 h 32.652 v 20.12369 0 l 18.03939,0.74907 L 191.998,256.941 h 75.738 c 5.8086,0 10.434,-6.4258 10.434,-12.227 v -113.77 c 0,-5.8086 -4.6328,-10.434 -10.434,-10.434 m -82.918,28.723 h 14.359 v 28.723 l 21.543,-14.359 7.1797,10.77 -21.539,14.363 21.539,14.359 -7.1797,10.773 -21.543,-14.363 v 28.723 h -14.359 l -0.0586,-28.937 -21.484,14.582 -7.1797,-10.77 21.539,-14.363 -21.539,-14.359 7.1797,-10.773 21.543,14.363"
       opacity="0.3"
       id="path937943"
       sodipodi:nodetypes="cssccccccsssccccccccccccccccccc" />
    <path
       transform="scale(.75)"
       d="m35.85 251c-0.037059 1.6629-0.0625 3.3282-0.0625 5 0 121.62 98.588 220.21 220.21 220.21s220.21-98.588 220.21-220.21c0-1.6718-0.02544-3.3371-0.0625-5-2.659 119.31-100.2 215.21-220.15 215.21s-217.49-95.898-220.15-215.21z"
       opacity=".3"
       stroke-width="1.3333"
       id="path937945" />
    <path
       transform="scale(.75)"
       d="m256 35.787c-121.63 0-220.21 98.588-220.21 220.21 0 1.6718 0.025441 3.3371 0.0625 5 2.659-119.31 100.2-215.21 220.15-215.21 119.95 0 217.49 95.898 220.15 215.21 0.03706-1.6629 0.0625-3.3282 0.0625-5 0-121.62-98.588-220.21-220.21-220.21z"
       fill="#fff"
       opacity=".3"
       stroke-width="1.3333"
       id="path937947" />
  </g>
  <path
     d="m 116.26,113.01 c -5.8086,0 -10.434,4.6289 -10.434,10.434 v 113.77 c 0,5.8086 4.6328,12.535 10.434,12.227 h 32.652 v 21.29072 0 l 17.12865,0.341 L 191.998,249.441 h 75.738 c 5.8086,0 10.434,-6.4258 10.434,-12.227 v -113.77 c 0,-5.8086 -4.6328,-10.434 -10.434,-10.434 m -82.918,28.723 h 14.359 v 28.723 l 21.543,-14.359 7.1797,10.77 -21.539,14.363 21.539,14.359 -7.1797,10.773 -21.543,-14.363 v 28.723 h -14.359 l -0.0586,-28.938 -21.484,14.582 -7.1797,-10.77 21.539,-14.363 -21.539,-14.359 7.1797,-10.773 21.543,14.363"
     fill="#ffffff"
     id="path937951"
     sodipodi:nodetypes="cssccccccsssccccccccccccccccccc" />
</svg>
