<?xml version="1.0" encoding="UTF-8" standalone="no"?>
<svg
   width="512"
   height="512"
   version="1.1"
   viewBox="0 0 384 384"
   id="svg50590"
   sodipodi:docname="org.kde.kdenlive.svg"
   inkscape:version="1.1.2 (0a00cf5339, 2022-02-04)"
   xmlns:inkscape="http://www.inkscape.org/namespaces/inkscape"
   xmlns:sodipodi="http://sodipodi.sourceforge.net/DTD/sodipodi-0.dtd"
   xmlns:xlink="http://www.w3.org/1999/xlink"
   xmlns="http://www.w3.org/2000/svg"
   xmlns:svg="http://www.w3.org/2000/svg">
  <sodipodi:namedview
     id="namedview50592"
     pagecolor="#ffffff"
     bordercolor="#666666"
     borderopacity="1.0"
     inkscape:pageshadow="2"
     inkscape:pageopacity="0.0"
     inkscape:pagecheckerboard="0"
     showgrid="false"
     inkscape:zoom="1.6152344"
     inkscape:cx="255.69045"
     inkscape:cy="256"
     inkscape:window-width="1920"
     inkscape:window-height="1051"
     inkscape:window-x="0"
     inkscape:window-y="29"
     inkscape:window-maximized="1"
     inkscape:current-layer="svg50590" />
  <defs
     id="defs50566">
    <filter
       id="alpha"
       x="0"
       y="0"
       width="1"
       height="1">
      <feColorMatrix
         in="SourceGraphic"
         values="0 0 0 0 1 0 0 0 0 1 0 0 0 0 1 0 0 0 1 0"
         id="feColorMatrix50515" />
    </filter>
    <clipPath
       id="clipPath50520">
      <rect
         width="384"
         height="384"
         id="rect50518" />
    </clipPath>
    <clipPath
       id="clipPath50524">
      <rect
         width="384"
         height="384"
         id="rect50522" />
    </clipPath>
    <clipPath
       id="clipPath50528">
      <rect
         width="384"
         height="384"
         id="rect50526" />
    </clipPath>
    <mask
       id="d">
      <g
         filter="url(#alpha)"
         id="g50532">
        <rect
           width="384"
           height="384"
           fill-opacity=".4"
           id="rect50530" />
      </g>
    </mask>
    <linearGradient
       id="f"
       x1="21.262"
       x2="34.74"
       y1="4.028"
       y2="17.506"
       gradientTransform="matrix(8.9998 0 0 8.9998 -23.999 -19.5)"
       gradientUnits="userSpaceOnUse">
      <stop
         offset="0"
         id="stop50535" />
      <stop
         stop-opacity="0"
         offset="1"
         id="stop50537" />
    </linearGradient>
    <clipPath
       id="h">
      <rect
         width="384"
         height="384"
         id="rect50540" />
    </clipPath>
    <g
       id="b"
       clip-path="url(#h)">
      <path
         d="m245.84 16.691-60.293 5.1172-24.871 14.43 31.148 52.012 180.17 180.19v-125.93l-99.016-99.016h-47.23z"
         fill="url(#f)"
         id="path50543" />
    </g>
    <mask
       id="c">
      <g
         filter="url(#alpha)"
         id="g50548">
        <rect
           width="384"
           height="384"
           fill-opacity=".4"
           id="rect50546" />
      </g>
    </mask>
    <linearGradient
       id="e"
       x1="32.266"
       x2="42.889"
       y1="20.126"
       y2="30.749"
       gradientTransform="matrix(8.9998 0 0 8.9998 -32.999 -19.5)"
       gradientUnits="userSpaceOnUse">
      <stop
         offset="0"
         id="stop50551" />
      <stop
         stop-opacity="0"
         offset="1"
         id="stop50553" />
    </linearGradient>
    <clipPath
       id="g">
      <rect
         width="384"
         height="384"
         id="rect50556" />
    </clipPath>
    <g
       id="a"
       clip-path="url(#g)">
      <path
         d="m261.29 154.15-16.223 55.035-5.1328 65.336 74.969 74.969h57.094v-130.64l-30.129-30.129z"
         fill="url(#e)"
         id="path50559" />
    </g>
    <clipPath
       id="clipPath50564">
      <rect
         width="384"
         height="384"
         id="rect50562" />
    </clipPath>
  </defs>
  <path
     d="m12 43.5h359.99v305.99h-359.99z"
     fill="#353a4a"
     id="path50568" />
  <path
     transform="scale(.75)"
     d="m16 445.99v20h479.99v-20h-479.99z"
     opacity=".3"
     stroke-width="1.3333"
     id="path50570" />
  <path
     d="m183 25.5 0.35157 341.99h17.648v-341.99z"
     fill="#d41717"
     id="path50572" />
  <path
     d="m138 89.996v18h27v-18zm-27 36v18h54v-18zm-44.996 36v18h98.996v-18zm-36 36v18h135v-18zm36 35.996v18h98.996v-18zm44.996 36v18h54v-18z"
     fill-rule="evenodd"
     opacity=".3"
     id="path50574" />
  <path
     d="m138 97.496v18h27v-18zm-27 36v18h54v-18zm-44.996 36v18h98.996v-18zm-36 36v18h135v-18zm36 35.996v18h98.996v-18zm44.996 36v18h54v-18z"
     fill="#4aaee6"
     fill-rule="evenodd"
     id="path50576" />
  <use
     width="100%"
     height="100%"
     mask="url(#d)"
     xlink:href="#b"
     id="use50578" />
  <path
     d="m245.99 24h-108l27 36 27 35.996 27-35.996z"
     opacity=".3"
     id="path50580" />
  <path
     d="M 239.54911,25.087856 237.01899,16.5 h -90.83868 l -2.1336,8.075607 v 0 L 164.99,52.5 186.96522,81.797031 v 0 L 197.43779,81.233093 218.99,52.5 Z"
     fill="#d41717"
     id="path50582"
     sodipodi:nodetypes="cccccccccccc" />
  <use
     width="100%"
     height="100%"
     mask="url(#c)"
     xlink:href="#a"
     id="use50584" />
  <path
     d="m246.32 123.01c-4.418 0.26953-9.1758 4.6406-9.1641 9.4844l-0.16407 143.01c0 6.457 8.4492 12.078 13.281 8.2422l91.07-71.75c4.8633-3.7891 4.8516-12.676 0-16.484l-90.902-71.258c-1.2109-0.94922-2.6445-1.3281-4.1172-1.2422z"
     opacity=".3"
     id="path50586" />
  <path
     d="m246.32 115.51c-4.418 0.26953-9.1758 4.6406-9.1641 9.4844l-0.16407 143.01c0 6.457 8.4492 12.078 13.281 8.2422l91.07-71.75c4.8633-3.7891 4.8516-12.676 0-16.484l-90.902-71.258c-1.2109-0.94922-2.6445-1.3281-4.1172-1.2422z"
     fill="#357af0"
     id="path50588" />
</svg>
