<?xml version="1.0" encoding="UTF-8" standalone="no"?>
<svg
   width="512"
   height="512"
   version="1.1"
   viewBox="0 0 384 384"
   id="svg480823"
   sodipodi:docname="org.kde.ktorrent.svg"
   inkscape:version="1.1.2 (0a00cf5339, 2022-02-04)"
   xmlns:inkscape="http://www.inkscape.org/namespaces/inkscape"
   xmlns:sodipodi="http://sodipodi.sourceforge.net/DTD/sodipodi-0.dtd"
   xmlns:xlink="http://www.w3.org/1999/xlink"
   xmlns="http://www.w3.org/2000/svg"
   xmlns:svg="http://www.w3.org/2000/svg">
  <sodipodi:namedview
     id="namedview480825"
     pagecolor="#ffffff"
     bordercolor="#666666"
     borderopacity="1.0"
     inkscape:pageshadow="2"
     inkscape:pageopacity="0.0"
     inkscape:pagecheckerboard="0"
     showgrid="false"
     inkscape:zoom="1.6152344"
     inkscape:cx="255.69045"
     inkscape:cy="256"
     inkscape:window-width="1786"
     inkscape:window-height="1037"
     inkscape:window-x="33"
     inkscape:window-y="43"
     inkscape:window-maximized="0"
     inkscape:current-layer="g480821" />
  <defs
     id="defs480813">
    <filter
       id="alpha"
       width="1"
       height="1"
       x="0"
       y="0"
       filterUnits="objectBoundingBox">
      <feColorMatrix
         in="SourceGraphic"
         type="matrix"
         values="0 0 0 0 1 0 0 0 0 1 0 0 0 0 1 0 0 0 1 0"
         id="feColorMatrix480788" />
    </filter>
    <mask
       id="mask0">
      <g
         filter="url(#alpha)"
         id="g480793">
        <rect
           width="384"
           height="384"
           x="0"
           y="0"
           style="fill:rgb(0%,0%,0%);fill-opacity:0.2"
           id="rect480791" />
      </g>
    </mask>
    <clipPath
       id="clip1">
      <rect
         width="384"
         height="384"
         x="0"
         y="0"
         id="rect480796" />
    </clipPath>
    <g
       id="surface5"
       clip-path="url(#clip1)">
      <path
         style="fill:rgb(0%,0%,0%)"
         d="M 137.316406 30.007812 C 130.117188 30.007812 120.914062 37.613281 120.003906 46.953125 L 120.003906 174.007812 L 48.003906 174.007812 L 192 318.003906 L 335.996094 174.007812 L 263.996094 174.007812 L 263.996094 46.953125 C 263.996094 37.570312 253.882812 30.011719 246.683594 30.011719 L 137.316406 30.011719 Z M 40.808594 330 C 31.503906 330 24.003906 338.027344 24.003906 348 C 24.003906 357.972656 31.503906 366 40.808594 366 L 343.199219 366 C 352.5 366 360 357.972656 360 348 C 360 338.027344 352.5 330 343.199219 330 Z M 40.808594 330"
         id="path480799" />
    </g>
    <mask
       id="mask1">
      <g
         filter="url(#alpha)"
         id="g480804">
        <rect
           width="384"
           height="384"
           x="0"
           y="0"
           style="fill:rgb(0%,0%,0%);fill-opacity:0.2"
           id="rect480802" />
      </g>
    </mask>
    <clipPath
       id="clip2">
      <rect
         width="384"
         height="384"
         x="0"
         y="0"
         id="rect480807" />
    </clipPath>
    <g
       id="surface8"
       clip-path="url(#clip2)">
      <path
         style="fill:rgb(100.000%,100.000%,100.000%)"
         d="M 137.320312 24.011719 C 130.121094 24.011719 120.910156 31.613281 120 40.957031 L 120 46.957031 C 120.910156 37.613281 130.121094 30.011719 137.320312 30.011719 L 246.679688 30.011719 C 253.878906 30.011719 264 37.570312 264 46.957031 L 264 40.957031 C 264 31.570312 253.878906 24.011719 246.679688 24.011719 Z M 48 168 L 54 174 L 120 174 L 120 168 Z M 264 168 L 264 174 L 330 174 L 336 168 Z M 40.804688 324 C 31.496094 324 24 332.027344 24 342 C 24 343.046875 24.105469 344.0625 24.28125 345.046875 C 25.597656 336.5 32.445312 330 40.804688 330 L 343.195312 330 C 351.550781 330 358.402344 336.5 359.71875 345.046875 C 359.894531 344.0625 360 343.046875 360 342 C 360 332.027344 352.496094 324 343.195312 324 Z M 40.804688 324"
         id="path480810" />
    </g>
  </defs>
  <g
     id="g480821">
    <use
       mask="url(#mask0)"
       xlink:href="#surface5"
       id="use480815" />
    <path
       style="fill:#4aaee6"
       d="m 137.31641,24.011719 c -7.19922,0 -16.40235,7.601562 -17.3125,16.941406 V 168.00781 l -57.656504,0 v 0 L 59.897495,179.9014 186.66644,306.67035 v 0 l 10.68724,-0.0201 126.53308,-126.53309 -2.92593,-12.10933 v 0 H 263.99609 V 40.953125 c 0,-9.382813 -10.11328,-16.941406 -17.3125,-16.941406 z M 40.808594,324 c -9.304688,0 -16.804688,8.02734 -16.804688,18 0,9.97266 7.5,18 16.804688,18 H 343.19922 C 352.5,360 360,351.97266 360,342 c 0,-9.97266 -7.5,-18 -16.80078,-18 z"
       id="path480817"
       sodipodi:nodetypes="sccccccccccccssssssssss" />
    <use
       mask="url(#mask1)"
       xlink:href="#surface8"
       id="use480819" />
  </g>
</svg>
