<?xml version="1.0" encoding="UTF-8" standalone="no"?>
<svg
   width="32"
   height="32"
   version="1"
   id="svg1326709"
   sodipodi:docname="org.freefilesync.FreeFileSync.svg"
   inkscape:version="1.1.2 (0a00cf5339, 2022-02-04)"
   xmlns:inkscape="http://www.inkscape.org/namespaces/inkscape"
   xmlns:sodipodi="http://sodipodi.sourceforge.net/DTD/sodipodi-0.dtd"
   xmlns="http://www.w3.org/2000/svg"
   xmlns:svg="http://www.w3.org/2000/svg">
  <defs
     id="defs1326713" />
  <sodipodi:namedview
     id="namedview1326711"
     pagecolor="#ffffff"
     bordercolor="#666666"
     borderopacity="1.0"
     inkscape:pageshadow="2"
     inkscape:pageopacity="0.0"
     inkscape:pagecheckerboard="0"
     showgrid="false"
     inkscape:zoom="25.84375"
     inkscape:cx="15.980653"
     inkscape:cy="16"
     inkscape:window-width="1920"
     inkscape:window-height="1051"
     inkscape:window-x="0"
     inkscape:window-y="29"
     inkscape:window-maximized="1"
     inkscape:current-layer="svg1326709" />
  <rect
     fill="#5db43e"
     width="26"
     height="26"
     x="-29"
     y="-29"
     rx="13"
     ry="13"
     transform="matrix(0,-1,-1,0,0,0)"
     id="rect1326699" />
  <path
     fill="#fff"
     opacity=".2"
     d="m16 3c-7.202 0-13 5.798-13 13 0 0.169 0.0191 0.333 0.0254 0.5 0.2633-6.9663 5.9416-12.5 12.975-12.5 7.033 0 12.711 5.5337 12.975 12.5 0.006-0.167 0.025-0.331 0.025-0.5 0-7.202-5.798-13-13-13z"
     id="path1326701" />
  <path
     style="opacity:0.1"
     d="m16.017 9.0001c1.7532 0.0037 3.531 0.52833 4.9196 1.5668 0.97624 1.0798-0.88389 2.2362-1.7217 1.1833-2.522-1.4652-6.0788-0.94934-7.9763 1.2413-1.0095 1.0871-1.5784 2.5377-1.5717 3.994h1.6667c-0.8892 1.28-1.778 2.56-2.6669 3.84l-2.6667-3.84h1.6667c-0.053013-3.4772 2.5514-6.7845 6.048-7.6851 0.7502-0.19742 1.5231-0.308 2.302-0.30025zm7.3167 4.1607c0.888 1.28 1.777 2.561 2.666 3.841h-1.6667c0.04725 3.5187-2.6237 6.8634-6.1816 7.7164-2.4008 0.64371-5.1155 0.174-7.0886-1.2988-1.0067-1.0978 0.87926-2.2431 1.7248-1.1806 2.4435 1.4235 5.8653 0.97198 7.7941-1.0611 1.117-1.105 1.7598-2.6358 1.7513-4.176h-1.6667l2.6667-3.8406z"
     id="path1326703" />
  <path
     opacity=".2"
     d="m3.0254 16.5c-0.0063 0.167-0.0254 0.331-0.0254 0.5 0 7.202 5.798 13 13 13s13-5.798 13-13c0-0.169-0.019-0.333-0.025-0.5-0.264 6.966-5.942 12.5-12.975 12.5s-12.711-5.534-12.975-12.5z"
     id="path1326705" />
  <path
     style="fill:#3f3f3f"
     d="m 16.017,8.0003 c 1.7532,0.0037 3.531,0.52833 4.9196,1.5668 0.97624,1.0798 -0.88389,2.2362 -1.7217,1.1833 -2.522,-1.4652 -6.0788,-0.94934 -7.9763,1.2413 -1.0095,1.0871 -1.5784,2.5377 -1.5717,3.994 h 1.11781 v 0 c -0.147411,0.212198 0.254078,0.424396 0.106687,0.636594 -0.670632,0.965501 -1.3410833,1.931002 -2.0115686,2.896503 L 8.6667,19.8257 8.4372904,19.495354 6.4783797,16.674558 6.6147975,15.9857 v 0 H 7.6667 c -0.053013,-3.4772 2.5514,-6.7845 6.048,-7.6851 0.7502,-0.19742 1.5231,-0.308 2.302,-0.30025 z m 7.3167,4.1607 c 0.731227,1.054021 1.463132,2.10872 2.195157,3.16298 0.156944,0.22603 -0.245633,0.452041 -0.08868,0.67802 v 0 H 24.333 c 0.04725,3.5187 -2.6237,6.8634 -6.1816,7.7164 -2.4008,0.64371 -5.1155,0.174 -7.0886,-1.2988 -1.0067,-1.0978 0.87926,-2.2431 1.7248,-1.1806 2.4435,1.4235 5.8653,0.97198 7.7941,-1.0611 1.117,-1.105 1.7598,-2.6358 1.7513,-4.176 h -1.03323 v 0 L 21.19555,15.23967 23.333,12.1613 Z"
     id="path1326707"
     sodipodi:nodetypes="cccccccssccccccccccsccccccccccccc" />
</svg>
