<?xml version="1.0" encoding="UTF-8" standalone="no"?>
<svg
   width="32"
   height="32"
   version="1"
   id="svg1434008"
   sodipodi:docname="org.kde.kig.svg"
   inkscape:version="1.1.2 (0a00cf5339, 2022-02-04)"
   xmlns:inkscape="http://www.inkscape.org/namespaces/inkscape"
   xmlns:sodipodi="http://sodipodi.sourceforge.net/DTD/sodipodi-0.dtd"
   xmlns="http://www.w3.org/2000/svg"
   xmlns:svg="http://www.w3.org/2000/svg">
  <defs
     id="defs1434012" />
  <sodipodi:namedview
     id="namedview1434010"
     pagecolor="#ffffff"
     bordercolor="#666666"
     borderopacity="1.0"
     inkscape:pageshadow="2"
     inkscape:pageopacity="0.0"
     inkscape:pagecheckerboard="0"
     showgrid="false"
     inkscape:zoom="25.84375"
     inkscape:cx="15.980653"
     inkscape:cy="16"
     inkscape:window-width="1920"
     inkscape:window-height="1051"
     inkscape:window-x="0"
     inkscape:window-y="29"
     inkscape:window-maximized="1"
     inkscape:current-layer="svg1434008" />
  <rect
     fill="#d9974e"
     width="28"
     height="28"
     x="2"
     y="2"
     rx="1.5"
     ry="1.5"
     id="rect1434000" />
  <path
     fill="#fff"
     opacity=".1"
     d="m3.5 2c-0.831 0-1.5 0.669-1.5 1.5v1c0-0.831 0.669-1.5 1.5-1.5h25c0.831 0 1.5 0.669 1.5 1.5v-1c0-0.831-0.669-1.5-1.5-1.5h-25z"
     id="path1434002" />
  <path
     opacity=".2"
     d="m2 28.5v1c0 0.831 0.669 1.5 1.5 1.5h25c0.831 0 1.5-0.669 1.5-1.5v-1c0 0.831-0.669 1.5-1.5 1.5h-25c-0.831 0-1.5-0.669-1.5-1.5z"
     id="path1434004" />
  <path
     fill="#4d4d4d"
     d="m 13,6 c -3.8659932,0 -7,3.1340068 -7,7 0.00313,3.477304 2.5583603,6.425144 6,6.9219 v 5.342596 l 0.529677,0.735404 v 0 H 25.398112 L 26,25.193284 v 0 -12.639977 L 25.391338,11.9999 v 0 H 19.92 C 19.423347,8.5589733 16.476582,6.0039745 13,5.9999 Z m 0,1 c 2.927071,9.659e-4 5.426255,2.1138692 5.9141,5 H 12.654309 L 12.0001,12.576525 v 0 l 0,6.333475 c -2.8846041,-0.487586 -4.9970353,-2.984479 -5,-5.91 0,-3.3137085 2.6862915,-6 6,-6 z M 13,13.597062 13.400095,13 H 19 c 0,3.313708 -2.686292,6 -6,6 z M 20,13 h 4.489273 v 0 L 25,13.481631 V 24.481413 L 24.490369,25 v 0 H 13.578534 L 13,24.355719 v 0 V 20 c 3.865993,0 7,-3.134007 7,-7 z"
     id="path1434006"
     sodipodi:nodetypes="cccccccccccccccccccccccccccccccccccccccccc" />
</svg>
