<?xml version="1.0" encoding="UTF-8" standalone="no"?>
<svg
   width="512"
   height="512"
   version="1.1"
   viewBox="0 0 384 384"
   id="svg579967"
   sodipodi:docname="postr.svg"
   inkscape:version="1.1.2 (0a00cf5339, 2022-02-04)"
   xmlns:inkscape="http://www.inkscape.org/namespaces/inkscape"
   xmlns:sodipodi="http://sodipodi.sourceforge.net/DTD/sodipodi-0.dtd"
   xmlns:xlink="http://www.w3.org/1999/xlink"
   xmlns="http://www.w3.org/2000/svg"
   xmlns:svg="http://www.w3.org/2000/svg">
  <sodipodi:namedview
     id="namedview579969"
     pagecolor="#ffffff"
     bordercolor="#666666"
     borderopacity="1.0"
     inkscape:pageshadow="2"
     inkscape:pageopacity="0.0"
     inkscape:pagecheckerboard="0"
     showgrid="false"
     inkscape:zoom="1.6152344"
     inkscape:cx="255.69045"
     inkscape:cy="256"
     inkscape:window-width="1920"
     inkscape:window-height="1051"
     inkscape:window-x="0"
     inkscape:window-y="29"
     inkscape:window-maximized="1"
     inkscape:current-layer="g579965" />
  <defs
     id="defs579935">
    <filter
       id="alpha"
       x="0"
       y="0"
       width="1"
       height="1">
      <feColorMatrix
         in="SourceGraphic"
         values="0 0 0 0 1 0 0 0 0 1 0 0 0 0 1 0 0 0 1 0"
         id="feColorMatrix579887" />
    </filter>
    <clipPath
       id="clipPath579892">
      <rect
         width="384"
         height="384"
         id="rect579890" />
    </clipPath>
    <mask
       id="f">
      <g
         filter="url(#alpha)"
         id="g579896">
        <rect
           width="384"
           height="384"
           fill-opacity=".2"
           id="rect579894" />
      </g>
    </mask>
    <clipPath
       id="g">
      <rect
         width="384"
         height="384"
         id="rect579899" />
    </clipPath>
    <g
       id="e"
       clip-path="url(#g)">
      <path
         d="m40.805 24c-9.3086 0-16.805 7.4961-16.805 16.805v6c0-9.3086 7.4961-16.805 16.805-16.805h302.39c9.3086 0 16.805 7.4961 16.805 16.805v-6c0-9.3086-7.4961-16.805-16.805-16.805z"
         fill="#fff"
         id="path579902" />
    </g>
    <clipPath
       id="clipPath579907">
      <rect
         width="384"
         height="384"
         id="rect579905" />
    </clipPath>
    <clipPath
       id="c">
      <path
         d="m111 119h177v23h-177z"
         id="path579909" />
    </clipPath>
    <clipPath
       id="b">
      <path
         d="m177 130h45v89h-45z"
         id="path579912" />
    </clipPath>
    <clipPath
       id="a">
      <path
         d="m111 207h177v89h-177z"
         id="path579915" />
    </clipPath>
    <clipPath
       id="d">
      <rect
         width="384"
         height="384"
         id="rect579918" />
    </clipPath>
    <g
       clip-path="url(#d)"
       id="g579921" />
    <clipPath
       id="clipPath579925">
      <rect
         width="384"
         height="384"
         id="rect579923" />
    </clipPath>
    <clipPath
       id="clipPath579929">
      <rect
         width="384"
         height="384"
         id="rect579927" />
    </clipPath>
    <clipPath
       id="clipPath579933">
      <rect
         width="384"
         height="384"
         id="rect579931" />
    </clipPath>
  </defs>
  <path
     d="m40.126 23.25h303.75c9.3501 0 16.876 7.5256 16.876 16.876v277.59l-15.985 23.762c-5.2185 7.7571-8.2633 8.4399-16.876 12.081l-17.017 7.1921h-270.75c-9.3502 0-16.876-7.5256-16.876-16.876v-303.75c0-9.3502 7.5256-16.876 16.876-16.876z"
     fill="#fff"
     opacity=".2"
     stroke="#000"
     stroke-width="7.5"
     id="path579937" />
  <path
     d="m40.126 23.25h303.75c9.3501 0 16.876 7.5256 16.876 16.876v277.59l-15.985 23.762c-5.2185 7.7571-8.2633 8.4398-16.876 12.081l-17.017 7.1921h-270.75c-9.3501 0-16.876-7.5256-16.876-16.876v-303.75c0-9.3501 7.5256-16.876 16.876-16.876z"
     fill="#fff"
     stroke-width="1.0045"
     id="path579939" />
  <path
     transform="scale(.75)"
     d="m156 178c-46.391 0-84 37.609-84 84 0 46.391 37.609 84 84 84 46.391 0 84-37.609 84-84 0-46.391-37.609-84-84-84zm200 0c-46.391 0-84 37.609-84 84 0 46.391 37.609 84 84 84 46.391 0 84-37.609 84-84 0-46.391-37.609-84-84-84z"
     fill="#030205"
     opacity=".3"
     stroke-width="1.3333"
     id="path579941" />
  <path
     d="m180 189c0 34.793-28.207 63-63 63-34.793 0-63-28.207-63-63s28.207-63 63-63c34.793 0 63 28.207 63 63z"
     fill="#357aef"
     id="path579943" />
  <path
     d="m330 189c0 34.793-28.207 63-63 63s-63-28.207-63-63 28.207-63 63-63 63 28.207 63 63z"
     fill="#cc5b80"
     id="path579945" />
  <use
     width="100%"
     height="100%"
     mask="url(#f)"
     xlink:href="#e"
     id="use579947" />
  <path
     transform="scale(.75)"
     d="m481 413.62-21.312 31.684c-6.958 10.343-11.019 11.253-22.502 16.107l-22.689 9.5898h-360.99c-12.467 0-22.502-10.035-22.502-22.502v10c0 12.467 10.035 22.502 22.502 22.502h360.99l22.689-9.5898c11.483-4.8549 15.544-5.7646 22.502-16.107l21.312-31.684v-10z"
     opacity=".3"
     stroke-width="1.3393"
     id="path579949" />
  <path
     transform="scale(.75)"
     d="m53.502 31c-12.467 0-22.502 10.035-22.502 22.502v10c0-12.467 10.035-22.502 22.502-22.502h405c12.467 0 22.502 10.035 22.502 22.502v-10c0-12.467-10.035-22.502-22.502-22.502h-405z"
     opacity=".1"
     stroke-width="1.3393"
     id="path579951" />
  <g
     transform="translate(197.95 -245.25)"
     id="g579957">
    <path
       transform="scale(.75)"
       d="m102.4 40c-12.411 0-22.4 9.9889-22.4 22.4v10c0-12.411 9.9889-22.4 22.4-22.4h307.2c12.417 0 22.4 9.9889 22.4 22.4v-10c0-12.411-9.9837-22.4-22.4-22.4z"
       fill="#fff"
       opacity=".2"
       stroke-width="1.3333"
       id="path579953" />
    <path
       d="m186.05 539.25c0 49.706-40.294 90-90 90s-90-40.294-90-90 40.294-90 90-90 90 40.294 90 90z"
       fill-rule="evenodd"
       opacity=".3"
       stroke-width=".9375"
       id="path579955" />
  </g>
  <g
     id="g579965">
    <path
       d="m384 286.5c0 49.706-40.294 90-90 90s-90-40.294-90-90 40.294-90 90-90 90 40.294 90 90z"
       fill="#8a3fab"
       fill-rule="evenodd"
       stroke-width=".9375"
       id="path579959" />
    <path
       d="m282.14 265.38c-6.2344 6.8711-14.812 16.285-19.066 20.914-10.504 11.438-12.707 14.297-11.398 14.789 0.57812 0.21484 6.5352 0.48438 13.234 0.59766l12.188 0.20703 0.39453 16.332 0.39062 16.336 8.0586 0.39844c4.4336 0.21875 11.684 0.21875 16.117 0l8.0586-0.39844 0.39063-16.336 0.39453-16.332 12.188-0.20703c6.6992-0.11328 12.656-0.3828 13.234-0.59766 1.3086-0.49218-0.89454-3.3516-11.398-14.789-4.2539-4.6289-12.832-14.043-19.066-20.914-6.2344-6.8711-11.57-12.496-11.859-12.496s-5.625 5.625-11.859 12.496z"
       opacity=".3"
       id="path579961" />
    <path
       d="m 282.14,257.88 c -6.2344,6.8711 -14.812,16.285 -19.066,20.914 -10.504,11.438 -12.707,14.297 -11.398,14.789 0.57812,0.21484 6.5352,0.48438 13.234,0.59766 l 12.188,0.20703 0.39453,16.332 0.39062,16.336 8.0586,0.39844 c 4.4336,0.21875 11.684,0.21875 16.117,0 l 8.0586,-0.39844 0.39063,-16.336 0.39453,-16.332 12.188,-0.20703 c 4.12391,-0.0697 7.96649,-0.19867 10.44622,-0.33762 1.54853,-0.0868 0,0 2.78778,-0.26004 0.92003,-0.34603 0.10421,-1.86219 -4.11159,-6.70683 -1.78053,-2.04613 -4.16754,-4.68598 -7.28641,-8.08217 -4.2539,-4.6289 -12.832,-14.043 -19.066,-20.914 -6.2344,-6.8711 -11.57,-12.496 -11.859,-12.496 -0.289,0 -5.625,5.625 -11.859,12.496 z"
       fill="#ffffff"
       id="path579963"
       sodipodi:nodetypes="cccccccccccccscsccscc" />
  </g>
</svg>
