<?xml version="1.0" encoding="UTF-8" standalone="no"?>
<svg
   width="384pt"
   height="384pt"
   version="1.1"
   viewBox="0 0 384 384"
   id="svg67055"
   sodipodi:docname="smartphonedisconnected.svg"
   inkscape:version="1.1.2 (0a00cf5339, 2022-02-04)"
   xmlns:inkscape="http://www.inkscape.org/namespaces/inkscape"
   xmlns:sodipodi="http://sodipodi.sourceforge.net/DTD/sodipodi-0.dtd"
   xmlns="http://www.w3.org/2000/svg"
   xmlns:svg="http://www.w3.org/2000/svg">
  <defs
     id="defs67059" />
  <sodipodi:namedview
     id="namedview67057"
     pagecolor="#ffffff"
     bordercolor="#666666"
     borderopacity="1.0"
     inkscape:pageshadow="2"
     inkscape:pageopacity="0.0"
     inkscape:pagecheckerboard="0"
     inkscape:document-units="pt"
     showgrid="false"
     inkscape:zoom="1.6152344"
     inkscape:cx="256.30955"
     inkscape:cy="256"
     inkscape:window-width="1920"
     inkscape:window-height="1051"
     inkscape:window-x="0"
     inkscape:window-y="29"
     inkscape:window-maximized="1"
     inkscape:current-layer="svg67055" />
  <g
     fill-rule="evenodd"
     id="g67037">
    <path
       d="m93.119 35.62 0.0482 311.67c14.677 16.598 179.07 19.447 197.71-0.90021l-0.59878-309.87c-18.446-17.579-183.59-17.373-197.16-0.8962z"
       fill="#fff"
       opacity=".2"
       stroke="#000"
       stroke-width="7.5"
       id="path67029" />
    <path
       d="m93.119 35.62 0.04823 311.67c14.677 16.598 179.07 19.447 197.71-0.90022l-0.59881-309.87c-18.446-17.579-183.59-17.373-197.16-0.8962z"
       fill="#fff"
       stroke-width="1.0288"
       id="path67031" />
    <path
       d="m96.885 40.887v298.02h189.37v-298.02z"
       id="path67033" />
    <path
       d="m281.62 50.13c0 2.6364-2.134 4.7704-4.7664 4.7704-2.6323 0-4.7663-2.134-4.7663-4.7704 0-2.6323 2.134-4.7663 4.7663-4.7663 2.6324 0 4.7664 2.134 4.7664 4.7663z"
       fill="#fff"
       stroke-width="1.0288"
       id="path67035" />
  </g>
  <g
     fill-rule="evenodd"
     id="g67045">
    <path
       d="m168.33 23.568c15.979-0.46619 31.873-0.58273 47.531 0.24515l-7.9694 6.0966-31.668-0.1286z"
       stroke-width="1.0288"
       id="path67039" />
    <path
       transform="scale(.75)"
       d="m253.16 31.062c-60.384-0.11496-119.96 5.4471-129 16.432v5.998c18.102-21.968 238.29-22.242 262.88 1.1973l0.7871 407.18c0.00366-0.00397 0.00808-0.00773 0.01172-0.01171l-0.79882-413.16c-12.298-11.72-73.493-17.512-133.88-17.627z"
       opacity=".1"
       stroke-width="1.3718"
       id="path67041" />
    <path
       transform="scale(.75)"
       d="m387.83 455.87c-24.911 27.117-244.04 23.315-263.6 1.1875v6c19.569 22.13 238.76 25.931 263.62-1.1992l-0.01172-5.9883z"
       opacity=".3"
       stroke-width="1.3718"
       id="path67043" />
  </g>
  <path
     d="m384 294c0-49.706-40.292-90.002-90-90.002-49.706 0-90 40.296-90 90.002s40.292 89.998 90 89.998c49.706 0 90-40.291 90-89.998z"
     opacity=".3"
     stroke-width="1.103"
     id="path67047" />
  <path
     d="m384 286.5c0-49.706-40.292-90.002-90-90.002-49.706 0-90 40.296-90 90.002s40.292 89.998 90 89.998c49.706 0 90-40.291 90-89.998z"
     fill="#d41717"
     stroke-width="1.103"
     id="path67049" />
  <path
     d="m264.75 253.07-11.675 11.675 29.253 29.254-29.253 29.253 11.675 11.676 29.254-29.254 29.253 29.254 11.676-11.676-29.254-29.253 29.254-29.254-11.676-11.675-29.253 29.253z"
     opacity=".3"
     stroke-width="11.029"
     id="path67051" />
  <path
     d="m 262.06719,248.25281 v 0 l -6.09644,6.09644 v 0 l 0.3945,6.18612 25.96275,25.96363 -25.80487,25.80487 v 0 l 0.36442,7.26101 4.662,4.6624 6.87468,-0.47351 v 0 L 294.004,298.174 l 25.96197,25.96286 6.05768,0.52449 v 0 l 6.07571,-6.07571 -0.65714,-6.3243 v 0 L 305.679,286.499 l 26.5954,-26.5954 -0.17118,-5.48814 v 0 l -6.1897,-6.18916 v 0 l -6.23163,0.91881 L 294.004,274.823 267.73919,248.55908 Z"
     fill="#ffffff"
     stroke-width="11.029"
     id="path67053"
     sodipodi:nodetypes="ccccccccccccccccccccccccccccc" />
</svg>
