<?xml version="1.0" encoding="UTF-8" standalone="no"?>
<svg
   width="512"
   height="512"
   version="1.1"
   viewBox="0 0 384 384"
   id="svg369096"
   sodipodi:docname="task-attention.svg"
   inkscape:version="1.1.2 (0a00cf5339, 2022-02-04)"
   xmlns:inkscape="http://www.inkscape.org/namespaces/inkscape"
   xmlns:sodipodi="http://sodipodi.sourceforge.net/DTD/sodipodi-0.dtd"
   xmlns="http://www.w3.org/2000/svg"
   xmlns:svg="http://www.w3.org/2000/svg">
  <defs
     id="defs369100" />
  <sodipodi:namedview
     id="namedview369098"
     pagecolor="#ffffff"
     bordercolor="#666666"
     borderopacity="1.0"
     inkscape:pageshadow="2"
     inkscape:pageopacity="0.0"
     inkscape:pagecheckerboard="0"
     showgrid="false"
     inkscape:zoom="1.6152344"
     inkscape:cx="255.69045"
     inkscape:cy="256"
     inkscape:window-width="1920"
     inkscape:window-height="1051"
     inkscape:window-x="0"
     inkscape:window-y="29"
     inkscape:window-maximized="1"
     inkscape:current-layer="g369090" />
  <g
     stroke-width="11.25"
     id="g369090">
    <path
       d="m360.75 192c0-93.208-75.542-168.75-168.75-168.75s-168.75 75.542-168.75 168.75 75.542 168.75 168.75 168.75 168.75-75.542 168.75-168.75z"
       fill="#ffc730"
       id="path369084" />
    <path
       d="m175.12 89.812h33.75v151.92h-33.75zm0 185.67h33.75v33.706h-33.75z"
       opacity=".3"
       id="path369086" />
    <path
       d="m 181.11763,82.312 v 0 h 22.55776 l 5.19461,6.414128 v 0 138.434602 l -5.31319,7.07127 v 0 h -22.16473 v 0 L 175.12,227.32499 V 89.201396 Z M 175.12,274.53466 180.6921,267.982 h 23.47406 v 0 l 4.70384,5.26442 v 22.65576 l -4.55848,5.78582 v 0 h -24.15128 v 0 L 175.12,294.01559 Z"
       fill="#0f0f0f"
       id="path369088"
       sodipodi:nodetypes="cccccccccccccccccccccccccc" />
  </g>
  <path
     transform="scale(.75)"
     d="m31.064 251c-0.036254 1.6628-0.064453 3.3285-0.064453 5 0 124.28 100.72 225 225 225s225-100.72 225-225c0-1.6715-0.0282-3.3372-0.06445-5-2.6592 121.97-102.33 220-224.94 220s-222.28-98.033-224.94-220z"
     opacity=".3"
     stroke-width="15"
     id="path369092" />
  <path
     transform="scale(.75)"
     d="m256 31c-124.28 0-225 100.72-225 225 0 1.6715 0.028199 3.3372 0.064453 5 2.6592-121.97 102.33-220 224.94-220s222.28 98.033 224.94 220c0.03625-1.6628 0.06445-3.3285 0.06445-5 0-124.28-100.72-225-225-225z"
     fill="#fff"
     opacity=".3"
     stroke-width="15"
     id="path369094" />
</svg>
