<?xml version="1.0" encoding="UTF-8" standalone="no"?>
<svg
   width="32"
   height="32"
   version="1.1"
   id="svg335981"
   sodipodi:docname="system-installer.svg"
   inkscape:version="1.1.2 (0a00cf5339, 2022-02-04)"
   xmlns:inkscape="http://www.inkscape.org/namespaces/inkscape"
   xmlns:sodipodi="http://sodipodi.sourceforge.net/DTD/sodipodi-0.dtd"
   xmlns="http://www.w3.org/2000/svg"
   xmlns:svg="http://www.w3.org/2000/svg">
  <defs
     id="defs335985" />
  <sodipodi:namedview
     id="namedview335983"
     pagecolor="#ffffff"
     bordercolor="#666666"
     borderopacity="1.0"
     inkscape:pageshadow="2"
     inkscape:pageopacity="0.0"
     inkscape:pagecheckerboard="0"
     showgrid="false"
     inkscape:zoom="25.84375"
     inkscape:cx="15.980653"
     inkscape:cy="16"
     inkscape:window-width="1920"
     inkscape:window-height="1051"
     inkscape:window-x="0"
     inkscape:window-y="29"
     inkscape:window-maximized="1"
     inkscape:current-layer="svg335981" />
  <rect
     style="opacity:0.2"
     width="28"
     height="9"
     x="2"
     y="22"
     rx="1.4"
     ry="1.4"
     id="rect335943" />
  <path
     style="fill:#e4e4e4"
     d="m 9.125,2 h 13.75 C 25.16025,2 27,3.8732 27,6.2 v 17.5 c 0,2.3268 -1.83975,4.2 -4.125,4.2 H 9.125 C 6.83975,27.9 5,26.0268 5,23.7 V 6.2 C 5,3.8732 6.83975,2 9.125,2 Z"
     id="path335945" />
  <path
     style="opacity:0.1"
     transform="matrix(1.1386697,0,0,0.6402614,-2.2187151,-2.7009139)"
     d="m 10.950248,26.084524 5.049752,0 5.049752,0 -2.524876,4.373214 L 16,34.830952 13.475124,30.457738 Z"
     id="path335947" />
  <path
     style="fill:#4caf50"
     transform="matrix(1.1386697,0,0,0.6402614,-2.2187151,-3.7009139)"
     d="m 11.706593,27.394552 0.123573,-1.310028 H 16 20.280208 v 0 l 0.03416,1.27372 -1.789494,3.099494 L 16,34.830952 13.475124,30.457738 Z"
     id="path335949"
     sodipodi:nodetypes="ccccccccccc" />
  <rect
     style="opacity:0.8;fill:#4caf50"
     width="3"
     height="3"
     x="13"
     y="4"
     id="rect335951" />
  <rect
     style="opacity:0.2;fill:#4caf50"
     width="3"
     height="3"
     x="16"
     y="4"
     id="rect335953" />
  <rect
     style="opacity:0.4;fill:#4caf50"
     width="3"
     height="3"
     x="13"
     y="7"
     id="rect335955" />
  <rect
     style="opacity:0.9;fill:#4caf50"
     width="3"
     height="3"
     x="16"
     y="7"
     id="rect335957" />
  <rect
     style="fill:#4caf50"
     width="3"
     height="3"
     x="13"
     y="10"
     id="rect335959" />
  <rect
     style="opacity:0.6;fill:#4caf50"
     width="3"
     height="3"
     x="16"
     y="10"
     id="rect335961" />
  <rect
     style="fill:#4caf50"
     width="28"
     height="9"
     x="2"
     y="21"
     rx="1.4"
     ry="1.4"
     id="rect335963" />
  <rect
     style="opacity:0.2"
     width="11.2"
     height="1"
     x="6"
     y="26"
     id="rect335965" />
  <path
     style="opacity:0.3"
     d="M 25.5 23 A 2.5 2.5 0 0 0 23.056641 25 L 17 25 L 17 26 L 23.056641 26 A 2.5 2.5 0 0 0 25.5 28 A 2.5 2.5 0 0 0 28 25.5 A 2.5 2.5 0 0 0 25.5 23 z"
     id="path335967" />
  <circle
     style="opacity:0.2"
     cx="6.5"
     cy="26.5"
     r="2.5"
     id="circle335969" />
  <circle
     style="fill:#ffffff"
     cx="6.5"
     cy="25.5"
     r="2.5"
     id="circle335971" />
  <rect
     style="fill:#ffffff"
     width="11.2"
     height="1"
     x="6"
     y="25"
     id="rect335973" />
  <circle
     style="opacity:0.2"
     cx="16.5"
     cy="26.5"
     r="2.5"
     id="circle335975" />
  <circle
     style="fill:#ffffff"
     cx="16.5"
     cy="25.5"
     r="2.5"
     id="circle335977" />
  <path
     style="fill:#ffffff;opacity:0.2"
     d="M 9.125 2 C 6.83975 2 5 3.8724188 5 6.1992188 L 5 7.1992188 C 5 4.8724187 6.83975 3 9.125 3 L 22.875 3 C 25.16025 3 27 4.8724187 27 7.1992188 L 27 6.1992188 C 27 3.8724187 25.16025 2 22.875 2 L 9.125 2 z"
     id="path335979" />
</svg>
