<?xml version="1.0" encoding="UTF-8" standalone="no"?>
<svg
   width="32"
   height="32"
   version="1"
   id="svg96488"
   sodipodi:docname="upload-pictures.svg"
   inkscape:version="1.1.2 (0a00cf5339, 2022-02-04)"
   xmlns:inkscape="http://www.inkscape.org/namespaces/inkscape"
   xmlns:sodipodi="http://sodipodi.sourceforge.net/DTD/sodipodi-0.dtd"
   xmlns="http://www.w3.org/2000/svg"
   xmlns:svg="http://www.w3.org/2000/svg">
  <defs
     id="defs96492" />
  <sodipodi:namedview
     id="namedview96490"
     pagecolor="#ffffff"
     bordercolor="#666666"
     borderopacity="1.0"
     inkscape:pageshadow="2"
     inkscape:pageopacity="0.0"
     inkscape:pagecheckerboard="0"
     showgrid="false"
     inkscape:zoom="25.84375"
     inkscape:cx="15.980653"
     inkscape:cy="16"
     inkscape:window-width="1920"
     inkscape:window-height="1051"
     inkscape:window-x="0"
     inkscape:window-y="29"
     inkscape:window-maximized="1"
     inkscape:current-layer="svg96488" />
  <path
     fill="#ff766a"
     d="m3.5 4c-0.831 0-1.5 0.669-1.5 1.5v16.5h28v-16.5c0-0.831-0.669-1.5-1.5-1.5h-25zm26.094 23.5c-0.253 0.253-0.612 0.405-1 0.406l-25.094 0.094h25c0.44 0 0.82-0.2 1.094-0.5z"
     id="path96466" />
  <path
     fill="#fff"
     opacity=".2"
     d="m3.5001 4c-0.831 0-1.5 0.669-1.5 1.5v1c0-0.831 0.669-1.5 1.5-1.5h25c0.831 0 1.5 0.669 1.5 1.5v-1c0-0.831-0.669-1.5-1.5-1.5h-25z"
     id="path96468" />
  <path
     fill-rule="evenodd"
     opacity=".2"
     d="m22 10c2.2091 0 4 1.7909 4 4s-1.7909 4-4 4-4-1.7909-4-4 1.7909-4 4-4z"
     id="path96470" />
  <path
     fill="#fffee4"
     fill-rule="evenodd"
     d="m22 9c2.2091 0 4 1.7909 4 4s-1.7909 4-4 4-4-1.7909-4-4 1.7909-4 4-4z"
     id="path96472" />
  <path
     fill="#d22f7a"
     d="m2.0001 22v4.5s0 1.506 1.5 1.5l25.1-0.1c0.7756-0.003 1.4-0.6244 1.4-1.4v-4.5z"
     id="path96474" />
  <path
     d="m2.0001 22v-0.8s2.0192-1.3333 2.5868-1.4496c0.56768-0.11632 1.2381-0.0217 1.9271 0.1084 0.68899 0.1296 1.7176 0.30488 2.0386 0.31584 0.32104 0.0112 0.90198-0.028 1.577-0.0688 0.675-0.04 1.7926-0.0768 2.1412-0.0728 0.34861 0 1.2189 0.048 2.1465 0.10463 0.92767 0.0568 2.2018 0.15169 2.4909 0.17824 0.2891 0.0264 0.62891 0.0752 1.0146 0.12841 0.38563 0.0528 1.0533 0.13255 1.2894 0.15448 0.23617 0.0215 0.78372 0.0969 1.419 0.15536 0.6353 0.0584 1.652 0.0784 1.9456 0.0568 0.29361-0.0217 0.90903-0.23904 1.5949-0.43944 0.68582-0.20032 1.4421-0.38376 2.0173-0.3384 0.57523 0.0455 3.8111 1.1668 3.8111 1.1668v0.8h-24.6z"
     id="path96476" />
  <path
     opacity=".2"
     d="m2.0001 26.5v1s0 1.506 1.5 1.5l25.1-0.09961c0.775-0.003 1.4-0.624 1.4-1.4v-1c0 0.7756-0.62479 1.3974-1.4004 1.4004l-25.1 0.1 25.094-0.094c0.3878-0.0015 0.74695-0.15358 1-0.40625-0.2739 0.29978-0.65381 0.5-1.0938 0.5h-25c-1.5 0.006-1.5-1.5-1.5-1.5zm1.5 2.5h25c0.43994 0 0.81985-0.20022 1.0938-0.5-0.25305 0.25267-0.6122 0.40475-1 0.40625l-25.094 0.094z"
     id="path96478" />
  <circle
     opacity=".2"
     cx="24.5"
     cy="24.5"
     r="7.5"
     id="circle96480" />
  <circle
     fill="#7bbe4d"
     cx="24.5"
     cy="23.5"
     r="7.5"
     id="circle96482" />
  <rect
     fill="#fff"
     width="3"
     height="7"
     x="23"
     y="21"
     rx=".444"
     ry=".453"
     id="rect96484" />
  <path
     fill="#ffffff"
     transform="matrix(0.52605,0,0,0.43388,5.4186,8.7283)"
     d="m 36.875965,24.718364 v 0 L 39.5997,29.436 41.780363,33.21301 41.662374,35.198 v 0 H 36.273 l -5.314588,-10e-7 v 0 l -0.26531,-1.859355 2.253198,-3.902645 2.683208,-4.647441 z"
     id="path96486"
     sodipodi:nodetypes="ccccccccccccc" />
</svg>
