<?xml version="1.0" encoding="UTF-8" standalone="no"?>
<svg
   width="512"
   height="512"
   version="1.1"
   viewBox="0 0 384 384"
   id="svg1125901"
   sodipodi:docname="wunderlist.svg"
   inkscape:version="1.1.2 (0a00cf5339, 2022-02-04)"
   xmlns:inkscape="http://www.inkscape.org/namespaces/inkscape"
   xmlns:sodipodi="http://sodipodi.sourceforge.net/DTD/sodipodi-0.dtd"
   xmlns="http://www.w3.org/2000/svg"
   xmlns:svg="http://www.w3.org/2000/svg">
  <sodipodi:namedview
     id="namedview1125903"
     pagecolor="#ffffff"
     bordercolor="#666666"
     borderopacity="1.0"
     inkscape:pageshadow="2"
     inkscape:pageopacity="0.0"
     inkscape:pagecheckerboard="0"
     showgrid="false"
     inkscape:zoom="1.6152344"
     inkscape:cx="255.69045"
     inkscape:cy="256"
     inkscape:window-width="1920"
     inkscape:window-height="1051"
     inkscape:window-x="0"
     inkscape:window-y="29"
     inkscape:window-maximized="1"
     inkscape:current-layer="svg1125901" />
  <defs
     id="defs1125879">
    <clipPath
       id="clipPath1125865">
      <rect
         width="384"
         height="384"
         id="rect1125863" />
    </clipPath>
    <clipPath
       id="clipPath1125869">
      <rect
         width="384"
         height="384"
         id="rect1125867" />
    </clipPath>
    <clipPath
       id="clipPath1125873">
      <rect
         width="384"
         height="384"
         id="rect1125871" />
    </clipPath>
    <clipPath
       id="clipPath1125877">
      <rect
         width="384"
         height="384"
         id="rect1125875" />
    </clipPath>
  </defs>
  <path
     d="m360 343.2v-302.4c0-9.2773-7.5234-16.801-16.801-16.801h-302.4c-9.2773 0-16.801 7.5234-16.801 16.801v302.4c0 9.2773 7.5234 16.801 16.801 16.801h302.4c9.2773 0 16.801-7.5234 16.801-16.801z"
     fill="#fda34a"
     id="path1125881" />
  <path
     d="m64.078 67.508c-2.2617 0-4.0781 1.8164-4.0781 4.0742v255.84c0 2.2578 1.8164 4.0742 4.0781 4.0742h255.86c2.2539 0 4.0664-1.8125 4.0664-4.0781v-255.84c0-2.2617-1.8125-4.0781-4.0781-4.0781z"
     opacity=".3"
     id="path1125883" />
  <path
     d="m64.078 60.008c-2.2617 0-4.0781 1.8164-4.0781 4.0742v255.84c0 2.2578 1.8164 4.0742 4.0781 4.0742h255.86c2.2539 0 4.0664-1.8125 4.0664-4.0781v-255.84c0-2.2617-1.8125-4.0781-4.0781-4.0781z"
     fill="#fff"
     id="path1125885" />
  <path
     d="m 108,67.5 v 266.18295 0 l 15.17217,1.14683 L 191.996,295.5 l 68.13792,38.93596 15.86208,-0.13905 v 0 V 67.5 Z"
     opacity="0.3"
     id="path1125887"
     sodipodi:nodetypes="cccccccccc" />
  <path
     d="m 108,60 v 269.18606 0 l 10.64349,0.73166 L 191.996,288 l 73.59989,42.05708 10.40011,-1.50275 v 0 V 60 Z"
     fill="#e32e2e"
     id="path1125889"
     sodipodi:nodetypes="cccccccccc" />
  <path
     d="m 192,127.5 18,34.5 33.97226,4.85272 2.66155,6.51819 v 0 L 222.008,198 221.89974,236.94128 192.0039,222 163.66262,236.16749 162.0078,198 142.10978,166.55629 174.0038,162 Z"
     fill="#ffffff"
     id="path1125891"
     sodipodi:nodetypes="ccccccccccccc" />
  <path
     d="m 192,127.5 18,42 42.004,6 -29.996,30 6.0039,41.996 -36.008,-17.996 -36,17.996 1.24871,-8.73445 0.71867,-5.02694 4.03652,-28.23461 -30.004,-30 42,-6 z"
     fill="#272727"
     opacity="0.3"
     id="path1125893"
     sodipodi:nodetypes="ccccccccccccc" />
  <path
     d="m 192,127.5 3.32763,0.26448 L 210,162 243.97226,166.85272 222.008,198 l 4.5289,31.67871 -4.63716,7.26257 v 0 L 192.0039,222 163.66262,236.16749 v 0 L 157.31419,230.83078 162.0078,198 138.98433,174.9796 v 0 l 3.12545,-8.42331 L 174.0038,162 188.89721,127.24138 Z"
     fill="#ffffff"
     id="path1125895"
     sodipodi:nodetypes="ccccccccccccccccccc" />
  <path
     transform="scale(.75)"
     d="m32 447.6v10c0 12.37 10.031 22.4 22.4 22.4h403.2c12.37 0 22.4-10.031 22.4-22.4v-10c0 12.37-10.031 22.4-22.4 22.4h-403.2c-12.37 0-22.4-10.031-22.4-22.4z"
     fill="#120900"
     opacity=".3"
     stroke-width="1.3333"
     id="path1125897" />
  <path
     transform="scale(.75)"
     d="m54.4 32c-12.37 0-22.4 10.031-22.4 22.4v10c0-12.37 10.031-22.4 22.4-22.4h403.2c12.37 0 22.4 10.031 22.4 22.4v-10c0-12.37-10.031-22.4-22.4-22.4h-403.2z"
     fill="#fff"
     opacity=".3"
     stroke-width="1.3333"
     id="path1125899" />
</svg>
