<?xml version="1.0" encoding="UTF-8" standalone="no"?>
<svg
   width="22"
   height="22"
   version="1"
   id="svg2668842"
   sodipodi:docname="drive-harddisk-system.svg"
   inkscape:version="1.1.2 (0a00cf5339, 2022-02-04)"
   xmlns:inkscape="http://www.inkscape.org/namespaces/inkscape"
   xmlns:sodipodi="http://sodipodi.sourceforge.net/DTD/sodipodi-0.dtd"
   xmlns="http://www.w3.org/2000/svg"
   xmlns:svg="http://www.w3.org/2000/svg">
  <defs
     id="defs2668846" />
  <sodipodi:namedview
     id="namedview2668844"
     pagecolor="#ffffff"
     bordercolor="#666666"
     borderopacity="1.0"
     inkscape:pageshadow="2"
     inkscape:pageopacity="0.0"
     inkscape:pagecheckerboard="0"
     showgrid="false"
     inkscape:zoom="37.590909"
     inkscape:cx="11.013301"
     inkscape:cy="11"
     inkscape:window-width="1920"
     inkscape:window-height="1051"
     inkscape:window-x="0"
     inkscape:window-y="29"
     inkscape:window-maximized="1"
     inkscape:current-layer="svg2668842" />
  <rect
     style="opacity:0.2"
     width="20"
     height="16"
     x="-21.5"
     y="-19"
     rx="1"
     ry="1"
     transform="matrix(0,-1,-1,0,0,0)"
     id="rect2668834" />
  <rect
     style="fill:#8e8e8e"
     width="20"
     height="16"
     x="-21"
     y="-19"
     rx="1"
     ry="1"
     transform="matrix(0,-1,-1,0,0,0)"
     id="rect2668836" />
  <path
     style="opacity:0.5"
     d="M 11,4 C 8.2386,4 6,6.2386 6,9 v 4.606651 L 6.358909,14 v 0 L 11,14 c 2.761,0 5,-2.239 5,-5 0,-2.7614 -2.239,-5 -5,-5 z m 0,2 c 1.657,0 3,1.3432 3,3 0,1.657 -1.343,3 -3,3 C 9.343,12 8,10.657 8,9 8,7.3432 9.343,6 11,6 Z"
     id="path2668838"
     sodipodi:nodetypes="sscccssssssss" />
  <path
     style="opacity:0.2;fill:#ffffff"
     d="M 4,1 C 3.446,1 3,1.446 3,2 V 2.5 C 3,1.946 3.446,1.5 4,1.5 H 18 C 18.554,1.5 19,1.946 19,2.5 V 2 C 19,1.446 18.554,1 18,1 Z"
     id="path2668840" />
</svg>
