<?xml version="1.0" encoding="UTF-8" standalone="no"?>
<svg
   width="512"
   height="512"
   version="1.1"
   viewBox="0 0 384 384"
   id="svg3669"
   sodipodi:docname="zynaddsubfx.svg"
   inkscape:version="1.1.2 (0a00cf5339, 2022-02-04)"
   xmlns:inkscape="http://www.inkscape.org/namespaces/inkscape"
   xmlns:sodipodi="http://sodipodi.sourceforge.net/DTD/sodipodi-0.dtd"
   xmlns="http://www.w3.org/2000/svg"
   xmlns:svg="http://www.w3.org/2000/svg">
  <sodipodi:namedview
     id="namedview3671"
     pagecolor="#ffffff"
     bordercolor="#666666"
     borderopacity="1.0"
     inkscape:pageshadow="2"
     inkscape:pageopacity="0.0"
     inkscape:pagecheckerboard="0"
     showgrid="false"
     inkscape:zoom="1.6152344"
     inkscape:cx="255.69045"
     inkscape:cy="256"
     inkscape:window-width="1920"
     inkscape:window-height="1051"
     inkscape:window-x="0"
     inkscape:window-y="29"
     inkscape:window-maximized="1"
     inkscape:current-layer="svg3669" />
  <defs
     id="defs3651">
    <linearGradient
       id="a"
       x1="174.1"
       x2="263.59"
       y1="252.2"
       y2="141.56"
       gradientUnits="userSpaceOnUse">
      <stop
         stop-color="#4cc7cc"
         offset="0"
         id="stop3646" />
      <stop
         stop-color="#439dcf"
         offset="1"
         id="stop3648" />
    </linearGradient>
  </defs>
  <path
     d="m72.332 36c-20.797-0.14062-39.32 13.125-45.879 32.859-6.5625 19.734 0.33203 41.449 17.074 53.789l52.031 38.344-63.492 95.246c-9.4805 14.223-10.684 32.406-3.1641 47.754 7.5195 15.344 22.633 25.535 39.68 26.754l240 17.133c21.531 1.5312 41.434-11.492 48.652-31.832 7.2148-20.344-0.0312-43-17.715-55.379l-56.578-39.605 66.211-80.953c11.156-13.641 13.938-32.301 7.25-48.602-6.6875-16.305-21.77-27.633-39.289-29.516l-240-25.711c-1.5898-0.17188-3.1836-0.26562-4.7812-0.28125z"
     fill="#0f2b5c"
     id="path3653" />
  <path
     d="m72 91.496 162.86 120 77.145-94.289zm68.571 96.004-68.571 102.86 240 17.145z"
     opacity=".3"
     id="path3655" />
  <path
     d="m 72,282.86 68.56897,-95.36369 154.94831,100.96588 -2.62736,10.17303 v 0 z"
     fill="url(#a)"
     id="path3657"
     sodipodi:nodetypes="cccccc" />
  <path
     d="M 83.90925,92.76825 85.022205,85.391275 312,109.711 l -72.99466,89.21633 -9.28047,1.2924 v 0 L 82.51767,91.746222 Z"
     fill="url(#a)"
     id="path3659"
     sodipodi:nodetypes="cccccccc" />
  <g
     stroke-width="1.3333"
     id="g3667">
    <path
       transform="scale(.75)"
       d="m32.197 106.99c-1.7053 21.683 7.7584 43.212 25.84 56.539l69.374 51.127 4.4707-6.7051-73.845-54.422c-15.291-11.27-24.417-28.405-25.84-46.539zm447.6 34.314c-1.0045 12.79-5.8421 25.218-14.256 35.506l-93.488 114.3 5.2012 3.6406 88.287-107.94c10.598-12.958 15.522-29.312 14.256-45.506zm-447.59 230.85c-0.87927 11.235 1.1988 22.693 6.3281 33.162 10.026 20.458 30.177 34.047 52.906 35.672l320 22.844c28.708 2.0417 55.246-15.322 64.871-42.441 3.0756-8.6723 4.1713-17.66 3.4805-26.414-0.43035 5.5052-1.5677 11.021-3.4805 16.414-9.625 27.12-36.163 44.483-64.871 42.441l-320-22.844c-22.729-1.625-42.88-15.214-52.906-35.672-3.6116-7.3714-5.707-15.233-6.3281-23.162z"
       style="opacity:.3"
       id="path3661" />
    <path
       transform="scale(.75)"
       d="m96.443 48c-27.729-0.18749-52.427 17.5-61.172 43.812-2.7564 8.2889-3.7285 16.84-3.0742 25.18 0.40003-5.0863 1.4117-10.18 3.0742-15.18 8.7448-26.313 33.443-44 61.172-43.812 2.1302 0.02084 4.2552 0.14584 6.375 0.375l320 34.281c23.359 2.5104 43.47 17.614 52.387 39.354 2.564 6.2497 4.077 12.761 4.5879 19.297 0.7714-9.8215-0.71479-19.856-4.5879-29.297-8.9167-21.74-29.027-36.843-52.387-39.354l-320-34.281c-2.1198-0.22916-4.2448-0.35416-6.375-0.375zm30.968 166.65-84.656 127c-8.0872 12.133-11.65 26.427-10.547 40.51 0.83939-10.725 4.3732-21.248 10.547-30.51l89.126-133.7-4.4707-3.2949zm249.84 80.099-5.2012 6.3594 80.645 56.446c16.04 11.228 25.632 28.799 27.102 47.426 1.734-22.182-8.2115-44.202-27.102-57.426l-75.443-52.805z"
       style="fill:#edf3fc;opacity:.1"
       id="path3663" />
    <path
       transform="scale(0.75)"
       d="m 96,111.99 15.879,11.701 296.6,31.779 v 0 l -4.44163,-10.47521 -284.52395,-30.48585 -7.63383,-0.81794 -1.85603,8.6373 z m 91.4253,138.00508 -5.04299,-2.42666 -80.69374,121.03886 0.67473,8.9878 v 0 l 85.062,-127.6 208.50224,145.94961 4.15776,2.91039 -1.57081,-11.09995 v 0 L 394.19426,384.73095 196.30039,246.20438 187.428,250 Z"
       fill="#ffffff"
       opacity="0.3"
       id="path3665"
       sodipodi:nodetypes="ccccccccccccccccccccccc" />
  </g>
</svg>
