<?xml version="1.0" encoding="UTF-8" standalone="no"?>
<svg
   width="16"
   height="16"
   version="1.1"
   id="svg1126640"
   sodipodi:docname="call-stop-symbolic.svg"
   inkscape:version="1.1.2 (0a00cf5339, 2022-02-04)"
   xmlns:inkscape="http://www.inkscape.org/namespaces/inkscape"
   xmlns:sodipodi="http://sodipodi.sourceforge.net/DTD/sodipodi-0.dtd"
   xmlns="http://www.w3.org/2000/svg"
   xmlns:svg="http://www.w3.org/2000/svg">
  <defs
     id="defs1126644" />
  <sodipodi:namedview
     id="namedview1126642"
     pagecolor="#ffffff"
     bordercolor="#666666"
     borderopacity="1.0"
     inkscape:pageshadow="2"
     inkscape:pageopacity="0.0"
     inkscape:pagecheckerboard="0"
     showgrid="false"
     inkscape:zoom="51.6875"
     inkscape:cx="7.9903265"
     inkscape:cy="8"
     inkscape:window-width="1920"
     inkscape:window-height="1051"
     inkscape:window-x="0"
     inkscape:window-y="29"
     inkscape:window-maximized="1"
     inkscape:current-layer="svg1126640" />
  <path
     style="fill:#5c616c"
     d="m 4.7614542,11.261454 v 0 L 7.5,14 c 0,0 0.5,0.5 1,0 L 11.226769,11.273231 11.084381,11 v 0 H 4.8956472 Z"
     id="path1126636"
     sodipodi:nodetypes="cccsccccc" />
  <path
     style="fill:#dd4747"
     class="error"
     d="M 8.14,2.0141 C 5.47,1.9741 2.89,3.0211 0.99,4.9141 L 0.29,5.6151 C -0.1,6.0031 -0.1,6.6291 0.29,7.0181 L 2.39,9.1191 C 2.78,9.5071 3.41,9.5071 3.8,9.1191 L 5,7.9161 V 5.6581 5.6581 L 5.2,5.5761 C 6.98,4.7911 9.02,4.7941 10.801,5.5861 L 11.001,5.6591 V 5.6591 7.9161 L 12.211,9.1191 C 12.59,9.5081 13.221,9.5081 13.61,9.1191 L 15.711,7.0181 C 16.1,6.6301 16.1,6.0041 15.711,5.6161 L 15.01,4.9141 C 13.18,3.0921 10.721,2.0511 8.14,2.0141 Z"
     id="path1126638" />
</svg>
