<?xml version="1.0" encoding="UTF-8" standalone="no"?>
<svg
   width="16"
   height="16"
   version="1.1"
   viewBox="0 0 16 16"
   id="svg4"
   sodipodi:docname="category-search-symbolic.svg"
   inkscape:version="1.1.2 (0a00cf5339, 2022-02-04)"
   xmlns:inkscape="http://www.inkscape.org/namespaces/inkscape"
   xmlns:sodipodi="http://sodipodi.sourceforge.net/DTD/sodipodi-0.dtd"
   xmlns="http://www.w3.org/2000/svg"
   xmlns:svg="http://www.w3.org/2000/svg">
  <defs
     id="defs8" />
  <sodipodi:namedview
     id="namedview6"
     pagecolor="#ffffff"
     bordercolor="#666666"
     borderopacity="1.0"
     inkscape:pageshadow="2"
     inkscape:pageopacity="0.0"
     inkscape:pagecheckerboard="0"
     showgrid="false"
     inkscape:zoom="51.6875"
     inkscape:cx="7.9903265"
     inkscape:cy="8"
     inkscape:window-width="1920"
     inkscape:window-height="1051"
     inkscape:window-x="0"
     inkscape:window-y="29"
     inkscape:window-maximized="1"
     inkscape:current-layer="svg4" />
  <path
     style="fill:#5c616c"
     d="M 8,3 C 5.790861,3 4,4.790861 4,7 c 0,2.209139 1.790861,4 4,4 0.7776779,-0.0015 1.5366941,-0.229725 2.184942,-0.654674 0.04969,-0.03258 -0.04835,0.03487 0,0 l 0.314125,0.03805 2.860308,2.384205 c 1.027444,0.901978 2.352444,-0.685598 1.28125,-1.535156 L 11.761184,8.8338164 11.688142,8.5374368 c 0.02698,-0.056639 -0.02423,0.057709 0,0 C 11.892315,8.0511396 11.998543,7.5286539 12,7 12,4.790861 10.209139,3 8,3 Z m -7,0.00391 v 2 h 2 v -2 z M 8,5 C 9.1045695,5 10,5.8954305 10,7 9.9992851,7.1139647 9.9888304,7.2276598 9.96875,7.3398438 9.8468392,8.0431973 9.3592923,8.6282535 8.6894531,8.875 c -0.062748,0.023374 -0.1266308,0.043582 -0.1914062,0.060547 -0.059297,0.015112 -0.1192555,0.027495 -0.1796875,0.037109 -0.030505,0.00461 -0.061112,0.00852 -0.091797,0.011719 -0.03829,0.00502 -0.076718,0.00893 -0.1152344,0.011719 -0.0026,5.1e-6 -0.00521,5.1e-6 -0.00781,0 C 8.0690499,8.9982894 8.0345331,8.9995919 8,9 6.8954305,9 6,8.1045695 6,7 5.9999398,6.9334726 6.003199,6.8669837 6.0097656,6.8007812 6.1121134,5.7784004 6.9725091,4.9999069 8,5 Z M 1,7.0039062 v 2 h 2 v -2 z m 0,3.9999998 v 2 h 2 v -2 z"
     id="path2"
     sodipodi:nodetypes="sscsccccccscscccccccccccccccccccccccccccc" />
</svg>
