<?xml version="1.0" encoding="UTF-8" standalone="no"?>
<svg
   width="16"
   height="16"
   version="1.1"
   id="svg1147698"
   sodipodi:docname="color-select-symbolic.svg"
   inkscape:version="1.1.2 (0a00cf5339, 2022-02-04)"
   xmlns:inkscape="http://www.inkscape.org/namespaces/inkscape"
   xmlns:sodipodi="http://sodipodi.sourceforge.net/DTD/sodipodi-0.dtd"
   xmlns="http://www.w3.org/2000/svg"
   xmlns:svg="http://www.w3.org/2000/svg">
  <defs
     id="defs1147702" />
  <sodipodi:namedview
     id="namedview1147700"
     pagecolor="#ffffff"
     bordercolor="#666666"
     borderopacity="1.0"
     inkscape:pageshadow="2"
     inkscape:pageopacity="0.0"
     inkscape:pagecheckerboard="0"
     showgrid="false"
     inkscape:zoom="51.6875"
     inkscape:cx="7.9903265"
     inkscape:cy="8"
     inkscape:window-width="1920"
     inkscape:window-height="1051"
     inkscape:window-x="0"
     inkscape:window-y="29"
     inkscape:window-maximized="1"
     inkscape:current-layer="svg1147698" />
  <path
     style="fill:#5c616c"
     d="m 13.5,1 c -0.397965,-4.767e-5 -0.779638,0.1580534 -1.061,0.4395 l -2.266519,2.4135949 -0.3023288,0.016687 v 0 L 8.2673099,2.2672569 7.7821917,2.2178083 v 0 l -1.0314835,1.0314835 0.055309,0.5567256 v 0 L 8,5 1,12 v 2.648238 L 1.2742806,15 v 0 H 4 l 7,-7 1.341651,1.341651 v 0 l 0.343117,-0.026419 1.139582,-1.1395823 v 0 L 13.800785,7.8007544 12.125333,6.1250496 v 0 L 12.129772,5.8986687 14.566,3.5605 14.562,3.5566 C 14.841821,3.2760725 14.999281,2.8962256 15,2.5 15,1.6715729 14.328427,1 13.5,1 Z M 9,6 10,7 3,14 2,13 Z"
     id="path1147696"
     sodipodi:nodetypes="cccccccccccccccccccccccccccccccccccc" />
</svg>
