<?xml version="1.0" encoding="UTF-8" standalone="no"?>
<svg
   width="16"
   height="16"
   version="1.1"
   id="svg1283709"
   sodipodi:docname="document-save-as-symbolic.svg"
   inkscape:version="1.1.2 (0a00cf5339, 2022-02-04)"
   xmlns:inkscape="http://www.inkscape.org/namespaces/inkscape"
   xmlns:sodipodi="http://sodipodi.sourceforge.net/DTD/sodipodi-0.dtd"
   xmlns="http://www.w3.org/2000/svg"
   xmlns:svg="http://www.w3.org/2000/svg">
  <defs
     id="defs1283713" />
  <sodipodi:namedview
     id="namedview1283711"
     pagecolor="#ffffff"
     bordercolor="#666666"
     borderopacity="1.0"
     inkscape:pageshadow="2"
     inkscape:pageopacity="0.0"
     inkscape:pagecheckerboard="0"
     showgrid="false"
     inkscape:zoom="51.6875"
     inkscape:cx="8.0096735"
     inkscape:cy="8"
     inkscape:window-width="1920"
     inkscape:window-height="1051"
     inkscape:window-x="0"
     inkscape:window-y="29"
     inkscape:window-maximized="1"
     inkscape:current-layer="svg1283709" />
  <path
     style="fill:#444444"
     d="M 2,1 C 1.45,1 1,1.45 1,2 v 12 c 0,0.55 0.45,1 1,1 H 8 V 13 H 3 V 3 h 1 v 5 h 4 4 V 3 h 1 v 5 h 2 V 3 L 13,1 Z M 6,3 H 8 V 7 H 6 Z m 3.875,6 c 0,0 -0.875,2e-7 -0.875,1 v 5 c 0,1 0.875,1 0.875,1 h 5.25 c 0,0 0.875,0 0.875,-1 V 10 C 16,9.0000002 15.125,9 15.125,9 Z m 2.088401,1.39489 -0.03648,-0.4429641 c 1.443256,0.015118 1.111009,0.035879 1.673714,0.050997 L 13.004907,9.983934 v 0 l 0.03322,1.122872 0.72307,0.0735 v 0 l -0.72307,-0.0735 0.06903,2.885077 v 0 0 0 l 0.03038,0.439435 v 0 l -0.02286,0.547031 -1.112833,-0.02577 v 0 0 0 L 12,14 v 0 0 -2.830486 L 11.144809,11.142124 12,11.169514 v 0 z"
     id="path1283707"
     sodipodi:nodetypes="ssssccccccccccccccsccccccssccsscccccccccccccccccccccccccccccc" />
</svg>
