<?xml version="1.0" encoding="UTF-8" standalone="no"?>
<svg
   width="16"
   height="16"
   version="1.1"
   id="svg12"
   sodipodi:docname="document-print-preview-symbolic.svg"
   inkscape:version="1.1.2 (0a00cf5339, 2022-02-04)"
   xmlns:inkscape="http://www.inkscape.org/namespaces/inkscape"
   xmlns:sodipodi="http://sodipodi.sourceforge.net/DTD/sodipodi-0.dtd"
   xmlns="http://www.w3.org/2000/svg"
   xmlns:svg="http://www.w3.org/2000/svg">
  <defs
     id="defs16" />
  <sodipodi:namedview
     id="namedview14"
     pagecolor="#ffffff"
     bordercolor="#666666"
     borderopacity="1.0"
     inkscape:pageshadow="2"
     inkscape:pageopacity="0.0"
     inkscape:pagecheckerboard="0"
     showgrid="false"
     inkscape:zoom="47.125"
     inkscape:cx="7.9893899"
     inkscape:cy="8"
     inkscape:window-width="1880"
     inkscape:window-height="966"
     inkscape:window-x="0"
     inkscape:window-y="29"
     inkscape:window-maximized="1"
     inkscape:current-layer="svg12" />
  <path
     style="fill:#5c616c"
     d="M 2 4 C 1.5 4 1 4.5 1 5 L 1 9 C 1 9.5 1.5 10 2 10 L 3 10 L 3 8 L 7.7324 8 C 8.4204 7.2397 9.4025 6.75 10.5 6.75 C 12.373 6.75 13.927 8.1529 14.195 9.9551 C 14.621 9.8475 15 9.4336 15 9 L 15 5 C 15 4.5 14.5 4 14 4 L 2 4 z"
     id="path2" />
  <path
     style="fill:#5c616c"
     d="M 4,1 V 3 H 12 V 1 Z"
     id="path4" />
  <path
     style="fill:#5c616c"
     d="m 4,9 v 5 h 4.619682 l 0.012558,-0.266374 c -0.1950699,-0.07365 0.1784935,0.103415 0,0 C 7.5117668,13.084447 6.75,11.879278 6.75,10.5 6.75,9.9672 6.8668,9.4606 7.0703,9 Z"
     id="path6"
     sodipodi:nodetypes="ccccsscc" />
  <path
     style="fill:#5c616c"
     d="M 10.5,7.7498 A 2.75,2.75 0 0 0 7.75,10.5 2.75,2.75 0 0 0 10.5,13.25 2.75,2.75 0 0 0 13.25,10.5 2.75,2.75 0 0 0 10.5,7.7498 Z M 10.5,8.75 A 1.75,1.75 0 0 1 12.25,10.5 1.75,1.75 0 0 1 10.5,12.25 1.75,1.75 0 0 1 8.75,10.5 1.75,1.75 0 0 1 10.5,8.75 Z"
     id="path8" />
  <path
     style="fill:#5c616c"
     d="M 17.6,-0.75 H 20.6 C 21.154,-0.75 21.6,-0.4155 21.6,0 21.6,0.4155 21.154,0.75 20.6,0.75 H 17.6 C 17.046,0.75 16.6,0.4155 16.6,0 16.6,-0.4155 17.046,-0.75 17.6,-0.75 Z"
     transform="rotate(45)"
     id="path10" />
</svg>
