<?xml version="1.0" encoding="UTF-8" standalone="no"?>
<svg
   width="16"
   height="16"
   version="1.1"
   id="svg1407800"
   sodipodi:docname="document-page-setup-symbolic.svg"
   inkscape:version="1.1.2 (0a00cf5339, 2022-02-04)"
   xmlns:inkscape="http://www.inkscape.org/namespaces/inkscape"
   xmlns:sodipodi="http://sodipodi.sourceforge.net/DTD/sodipodi-0.dtd"
   xmlns="http://www.w3.org/2000/svg"
   xmlns:svg="http://www.w3.org/2000/svg">
  <defs
     id="defs1407804" />
  <sodipodi:namedview
     id="namedview1407802"
     pagecolor="#ffffff"
     bordercolor="#666666"
     borderopacity="1.0"
     inkscape:pageshadow="2"
     inkscape:pageopacity="0.0"
     inkscape:pagecheckerboard="0"
     showgrid="false"
     inkscape:zoom="51.6875"
     inkscape:cx="8"
     inkscape:cy="8.0096735"
     inkscape:window-width="1880"
     inkscape:window-height="966"
     inkscape:window-x="0"
     inkscape:window-y="29"
     inkscape:window-maximized="1"
     inkscape:current-layer="svg1407800" />
  <path
     style="fill:#5c616c"
     d="m 0,5.5758542 v 0 5.9477028 0 L 0.44919041,12 H 11.306612 v 0 L 11.381446,11.639177 0.48754008,5.2843984 Z M 2,8.3043368 2.2364291,8.1576194 4.6518969,9.7679313 4.6475412,10 v 0 H 2.2288911 v 0 L 2,9.7744648 Z"
     id="path1407796"
     sodipodi:nodetypes="cccccccccccccccccccc" />
  <path
     style="fill:#5c616c"
     d="M 3,1 C 3,1 2,1 2,2 V 4.75 L 4,5.9 V 3 H 12 V 13 H 2 V 14 C 2,15 3,15 3,15 H 13 C 13,15 14,15 14,14 V 2 C 14,1 13,1 13,1 Z"
     id="path1407798" />
</svg>
