<?xml version="1.0" encoding="UTF-8" standalone="no"?>
<svg
   width="16"
   height="16"
   version="1.1"
   id="svg6"
   sodipodi:docname="document-export-symbolic.svg"
   inkscape:version="1.1.2 (0a00cf5339, 2022-02-04)"
   xmlns:inkscape="http://www.inkscape.org/namespaces/inkscape"
   xmlns:sodipodi="http://sodipodi.sourceforge.net/DTD/sodipodi-0.dtd"
   xmlns="http://www.w3.org/2000/svg"
   xmlns:svg="http://www.w3.org/2000/svg">
  <defs
     id="defs10" />
  <sodipodi:namedview
     id="namedview8"
     pagecolor="#ffffff"
     bordercolor="#666666"
     borderopacity="1.0"
     inkscape:pageshadow="2"
     inkscape:pageopacity="0.0"
     inkscape:pagecheckerboard="0"
     showgrid="false"
     inkscape:zoom="47.25"
     inkscape:cx="8"
     inkscape:cy="8"
     inkscape:window-width="1854"
     inkscape:window-height="966"
     inkscape:window-x="0"
     inkscape:window-y="29"
     inkscape:window-maximized="1"
     inkscape:current-layer="svg6" />
  <path
     style="fill:#5c616c"
     d="M 3,15 C 3,15 2,15 2,14 V 11 2 C 2,1 3,1 3,1 h 10 c 0,0 1,0 1,1 V 6.25 L 12,5 V 3.2218676 L 11.834943,3.01 v 0 H 4.1737635 L 4,3.1794537 v 0 9.6083653 L 4.1947196,13 v 0 h 7.6192684 v 0 L 12,12.851118 V 11 L 14,9.75 V 14 c 0,0 0,1 -1,1 z"
     id="path2"
     sodipodi:nodetypes="cscsccscccccccccccccccccsc" />
  <path
     style="fill:#5c616c"
     d="M 10.455034,10.696644 10,10.480757 V 9 H 6 V 7 h 4 v -1.4501856 0 l 0.449717,-0.2500034 3.633576,2.4223846 v 0 l 0.05904,0.5162478 z"
     id="path4"
     sodipodi:nodetypes="ccccccccccccc" />
</svg>
