<?xml version="1.0" encoding="UTF-8" standalone="no"?>
<svg
   width="16"
   height="16"
   version="1.1"
   id="svg6"
   sodipodi:docname="edit-find-replace-symbolic.svg"
   inkscape:version="1.1.2 (0a00cf5339, 2022-02-04)"
   xmlns:inkscape="http://www.inkscape.org/namespaces/inkscape"
   xmlns:sodipodi="http://sodipodi.sourceforge.net/DTD/sodipodi-0.dtd"
   xmlns="http://www.w3.org/2000/svg"
   xmlns:svg="http://www.w3.org/2000/svg">
  <defs
     id="defs10" />
  <sodipodi:namedview
     id="namedview8"
     pagecolor="#ffffff"
     bordercolor="#666666"
     borderopacity="1.0"
     inkscape:pageshadow="2"
     inkscape:pageopacity="0.0"
     inkscape:pagecheckerboard="0"
     showgrid="false"
     inkscape:zoom="189"
     inkscape:cx="8.005291"
     inkscape:cy="10.753968"
     inkscape:window-width="1920"
     inkscape:window-height="1051"
     inkscape:window-x="0"
     inkscape:window-y="29"
     inkscape:window-maximized="1"
     inkscape:current-layer="svg6" />
  <path
     style="fill:#5c616c"
     d="M 6.5,1 C 3.4624339,1 1,3.4624339 1,6.5 1.0026434,7.713286 1.4064004,8.8916487 2.1484,9.8516 L 3.5781,8.4219 C 3.2019182,7.851436 3.0009547,7.1833308 3,6.5 3,4.5670034 4.5670034,3 6.5,3 7.1833308,3.0009547 7.851436,3.2019182 8.4219,3.5781 L 9.8535,2.1465 C 8.8927893,1.4047838 7.7137155,1.0016801 6.5,1 Z m 4.939083,7.5612315 v 0 l -2.8252217,2.8253895 5.192e-4,0.185785 c 0.1011198,-0.03497 -0.09876,0.04074 0,0 0.2923117,-0.120585 0.5737552,-0.266185 0.8411787,-0.435215 0.054471,-0.03443 0.10836,0.01148 0.1616408,-0.02488 L 9.7793782,11.193187 13.279,14.693 c 0.188559,0.196161 0.448909,0.307017 0.721,0.307 0.552285,0 1,-0.447715 1,-1 -1.9e-5,-0.270113 -0.109309,-0.528731 -0.303,-0.717 L 11.098935,9.6852288 v 0 c 0.02369,-0.034644 -0.02497,-0.1414746 -0.0021,-0.1766272 0.187952,-0.2888587 0.348271,-0.5946401 0.478905,-0.9132776 0.03717,-0.090665 -0.16898,0.058561 -0.136664,-0.034092 z"
     id="path2"
     sodipodi:nodetypes="cccccccccccccssccccccccssc" />
  <path
     style="fill:#5c616c"
     d="m 2,11.539177 v 0 2.094992 L 2.3536655,14 v 0 h 2.0739539 l 0.3781464,-0.135766 v 0 L 11.42,7.25 8.75,4.57 2.1519382,11.168062 Z M 13.79,4.89 c 0.28,-0.28 0.28,-0.73 0,-1.01 L 12.12,2.21 c -0.29,-0.28 -0.73,-0.28 -1.01,0 l -1.4,1.4 2.67,2.68 z"
     id="path4"
     sodipodi:nodetypes="cccccccccccccscsccc" />
</svg>
