<?xml version="1.0" encoding="UTF-8" standalone="no"?>
<svg
   width="16"
   height="16"
   version="1.1"
   id="svg4"
   sodipodi:docname="edit-find-symbolic.svg"
   inkscape:version="1.1.2 (0a00cf5339, 2022-02-04)"
   xmlns:inkscape="http://www.inkscape.org/namespaces/inkscape"
   xmlns:sodipodi="http://sodipodi.sourceforge.net/DTD/sodipodi-0.dtd"
   xmlns="http://www.w3.org/2000/svg"
   xmlns:svg="http://www.w3.org/2000/svg">
  <defs
     id="defs8" />
  <sodipodi:namedview
     id="namedview6"
     pagecolor="#ffffff"
     bordercolor="#666666"
     borderopacity="1.0"
     inkscape:pageshadow="2"
     inkscape:pageopacity="0.0"
     inkscape:pagecheckerboard="0"
     showgrid="false"
     inkscape:zoom="103.375"
     inkscape:cx="8"
     inkscape:cy="9.5429262"
     inkscape:window-width="1920"
     inkscape:window-height="1051"
     inkscape:window-x="0"
     inkscape:window-y="29"
     inkscape:window-maximized="1"
     inkscape:current-layer="svg4" />
  <path
     style="fill:#5c616c"
     d="M 6.5,1 C 3.4624339,1 1,3.4624339 1,6.5 1,9.5375661 3.4624339,12 6.5,12 c 1.0569281,-9.6e-5 2.0902077,-0.304697 2.9768797,-0.875583 0.047195,-0.03039 -0.046346,0.03189 0,0 l 0.26564,0.03191 L 13.279,14.693 c 0.188559,0.196161 0.448909,0.307017 0.721,0.307 0.552285,0 1,-0.447715 1,-1 -1.9e-5,-0.270113 -0.109309,-0.528731 -0.303,-0.717 L 11.160173,9.7464619 v 0 c 0.0398,-0.057687 -0.05473,-0.2492111 -0.01726,-0.3082123 C 11.700093,8.5608884 11.998064,7.542193 12,6.5 12,3.4624339 9.5375661,1 6.5,1 Z m 0,2 C 8.4329966,3 10,4.5670034 10,6.5 10,8.4329966 8.4329966,10 6.5,10 4.5670034,10 3,8.4329966 3,6.5 3,4.5670034 4.5670034,3 6.5,3 Z"
     id="path2"
     sodipodi:nodetypes="sscsccccccccscssssss" />
</svg>
