<?xml version="1.0" encoding="UTF-8" standalone="no"?>
<svg
   width="16"
   height="16"
   version="1.1"
   id="svg4"
   sodipodi:docname="edit-cut-symbolic.svg"
   inkscape:version="1.1.2 (0a00cf5339, 2022-02-04)"
   xmlns:inkscape="http://www.inkscape.org/namespaces/inkscape"
   xmlns:sodipodi="http://sodipodi.sourceforge.net/DTD/sodipodi-0.dtd"
   xmlns="http://www.w3.org/2000/svg"
   xmlns:svg="http://www.w3.org/2000/svg">
  <defs
     id="defs8" />
  <sodipodi:namedview
     id="namedview6"
     pagecolor="#ffffff"
     bordercolor="#666666"
     borderopacity="1.0"
     inkscape:pageshadow="2"
     inkscape:pageopacity="0.0"
     inkscape:pagecheckerboard="0"
     showgrid="false"
     inkscape:zoom="146.19433"
     inkscape:cx="7.9962063"
     inkscape:cy="6.9051927"
     inkscape:window-width="1920"
     inkscape:window-height="1051"
     inkscape:window-x="0"
     inkscape:window-y="29"
     inkscape:window-maximized="1"
     inkscape:current-layer="svg4" />
  <path
     style="fill:#5c616c"
     d="M 4.5,2 C 3.12,2 2,3.12 2,4.5 2,5.88 3.12,7 4.5,7 4.8944373,7 5.2581427,6.892438 5.5843816,6.7311888 c 0.045956,-0.022715 -0.04445,0.024694 0,0 l 0.2666716,0.051216 1.7091245,1.5963396 v 0 l 0.00954,0.2336016 -1.7019622,1.5896498 v 0 c -0.072741,-0.04041 -0.2952782,0.05963 -0.3720198,0.02478 C 5.1926783,10.089139 4.8590733,10 4.5,10 3.12,10 2,11.12 2,12.5 2,13.88 3.12,15 4.5,15 5.88,15 7,13.88 7,12.5 c 0,-0.189803 -0.02724,-0.365986 -0.064861,-0.545409 -0.00797,-0.038 0.00874,0.03845 0,0 l 0.1073146,-0.243296 1.8580032,-1.805418 0.2968442,0.032067 v 0 L 13.5,14 h 1.313286 L 15,13.823036 v 0 V 13 L 6.9829309,5.2306772 v 0 C 6.9908189,5.1975476 6.9255271,5.0934919 6.9327996,5.0598646 6.9716253,4.8803367 7,4.6937152 7,4.5 7,3.12 5.88,2 4.5,2 Z m 0,1.5 c 0.55,0 1,0.45 1,1 0,0.55 -0.45,1 -1,1 -0.55,0 -1,-0.45 -1,-1 0,-0.55 0.45,-1 1,-1 z M 13.5,3 9.56,6.72 10.88,8 15,4 V 3.2994085 L 14.82236,3 v 0 z m -9,8.5 c 0.55,0 1,0.45 1,1 0,0.55 -0.45,1 -1,1 -0.55,0 -1,-0.45 -1,-1 0,-0.55 0.45,-1 1,-1 z"
     id="path2"
     sodipodi:nodetypes="sssscccccccssssssccccccccccccssssssssccccccccsssss" />
</svg>
