<?xml version="1.0" encoding="UTF-8" standalone="no"?>
<svg
   width="16"
   height="16"
   version="1.1"
   id="svg1439392"
   sodipodi:docname="font-select-symbolic.svg"
   inkscape:version="1.1.2 (0a00cf5339, 2022-02-04)"
   xmlns:inkscape="http://www.inkscape.org/namespaces/inkscape"
   xmlns:sodipodi="http://sodipodi.sourceforge.net/DTD/sodipodi-0.dtd"
   xmlns="http://www.w3.org/2000/svg"
   xmlns:svg="http://www.w3.org/2000/svg">
  <defs
     id="defs1439396" />
  <sodipodi:namedview
     id="namedview1439394"
     pagecolor="#ffffff"
     bordercolor="#666666"
     borderopacity="1.0"
     inkscape:pageshadow="2"
     inkscape:pageopacity="0.0"
     inkscape:pagecheckerboard="0"
     showgrid="false"
     inkscape:zoom="51.6875"
     inkscape:cx="7.9903265"
     inkscape:cy="8"
     inkscape:window-width="1920"
     inkscape:window-height="1051"
     inkscape:window-x="0"
     inkscape:window-y="29"
     inkscape:window-maximized="1"
     inkscape:current-layer="svg1439392" />
  <path
     style="fill:#5c616c"
     d="m 16,5.3896868 v 0 5.1260312 l -0.244565,0.300858 v 0 L 12.293812,8.2203591 v 0 l 0.03009,-0.4632867 3.37413,-2.5305972 z"
     id="path1439386"
     sodipodi:nodetypes="cccccccccc" />
  <path
     style="fill:#5c616c"
     d="M 11,5 C 11,4 10,3.01 9,3 H 6 V 5 H 9 V 6 H 8 C 6,6 5,7.5 5,8.5 5,9.5 6,11 8,11 H 11 M 8,8 H 9 V 9 H 8 C 7,9 7,8.62 7,8.5 7,8.38 7,8 8,8 Z"
     id="path1439388" />
  <path
     style="fill:#5c616c"
     d="M 0.26765691,5.2007427 0,5.3710377 v 5.2229173 0 L 0.34735811,10.739481 3.793859,8.1546057 3.7468807,7.8101605 v 0 z"
     id="path1439390"
     sodipodi:nodetypes="cccccccccc" />
</svg>
