<?xml version="1.0" encoding="UTF-8" standalone="no"?>
<svg
   width="16"
   height="16"
   version="1.1"
   id="svg6"
   sodipodi:docname="format-text-underline-symbolic.svg"
   inkscape:version="1.1.2 (0a00cf5339, 2022-02-04)"
   xmlns:inkscape="http://www.inkscape.org/namespaces/inkscape"
   xmlns:sodipodi="http://sodipodi.sourceforge.net/DTD/sodipodi-0.dtd"
   xmlns="http://www.w3.org/2000/svg"
   xmlns:svg="http://www.w3.org/2000/svg">
  <defs
     id="defs10" />
  <sodipodi:namedview
     id="namedview8"
     pagecolor="#ffffff"
     bordercolor="#666666"
     borderopacity="1.0"
     inkscape:pageshadow="2"
     inkscape:pageopacity="0.0"
     inkscape:pagecheckerboard="0"
     showgrid="false"
     inkscape:zoom="103.375"
     inkscape:cx="8"
     inkscape:cy="12.706167"
     inkscape:window-width="1920"
     inkscape:window-height="1051"
     inkscape:window-x="0"
     inkscape:window-y="29"
     inkscape:window-maximized="1"
     inkscape:current-layer="svg6" />
  <path
     style="fill:#5c616c"
     d="M 13,5 C 13,3.37 11.68,2 10,2 H 4 v 2 h 6 c 0.43,0 1,0.61 1,1 v 0.8570033 0 L 10.85719,6 H 6 C 5.08,6 4.26,6.38 3.75,6.97 3.24,7.55 3,8.28 3,9 3,9.72 3.27,10.45 3.78,11.03 4.29,11.61 5.09,12 6,12 h 6.854243 l 0.204916,-0.186193 M 6,8 h 4.874888 L 11,8.1359494 v 0 1.7183875 L 10.847617,10 v 0 H 6 C 5.6,10 5.43,9.89 5.28,9.72 5.13,9.55 5,9.28 5,9 5,8.72 5.1,8.45 5.25,8.28 5.4,8.12 5.58,8 6,8 Z"
     id="path2"
     sodipodi:nodetypes="csccsscccscsssccsccccccssscs" />
  <path
     style="fill:#5c616c"
     d="M 2,13 V 15 H 14 V 13 Z"
     id="path4" />
</svg>
