<?xml version="1.0" encoding="UTF-8" standalone="no"?>
<svg
   width="16"
   height="16"
   version="1.1"
   id="svg1141589"
   sodipodi:docname="ymuse-home-symbolic.svg"
   inkscape:version="1.1.2 (0a00cf5339, 2022-02-04)"
   xmlns:inkscape="http://www.inkscape.org/namespaces/inkscape"
   xmlns:sodipodi="http://sodipodi.sourceforge.net/DTD/sodipodi-0.dtd"
   xmlns="http://www.w3.org/2000/svg"
   xmlns:svg="http://www.w3.org/2000/svg">
  <defs
     id="defs1141593" />
  <sodipodi:namedview
     id="namedview1141591"
     pagecolor="#ffffff"
     bordercolor="#666666"
     borderopacity="1.0"
     inkscape:pageshadow="2"
     inkscape:pageopacity="0.0"
     inkscape:pagecheckerboard="0"
     showgrid="false"
     inkscape:zoom="51.6875"
     inkscape:cx="8.0096735"
     inkscape:cy="8"
     inkscape:window-width="1920"
     inkscape:window-height="1051"
     inkscape:window-x="0"
     inkscape:window-y="29"
     inkscape:window-maximized="1"
     inkscape:current-layer="svg1141589" />
  <path
     style="fill:#5c616c"
     d="m 1.7924405,8.0151322 v 0 0 L 2.8054831,8.0024375 3,8.2823151 v 0 5.4348269 l 0.2434945,0.281786 v 0 l 4.1010295,-0.01806 v 0 l 0.2012145,-0.314737 0.024797,-3.428119 v 0 l 0.183116,-0.222479 1.4351018,-0.030176 0.2239466,0.235492 v 0 l 0.00549,3.447316 0.1583559,0.296893 v 0 l 4.2169592,0.03331 v 0 L 14,13.748066 v -5.5142673 0 l 0.22247,-0.2346401 1.019366,-0.00386 0.227992,-8.627e-4 -0.227992,8.627e-4 0.0289,-0.6574341 v 0 L 8.8217589,1.301188 8.1840044,1.2930184 v 0 L 1.6998994,7.305641 v 0 z"
     id="path1141587"
     sodipodi:nodetypes="cccccccccccccccccccccccccccccccccccccc" />
</svg>
