<?xml version="1.0" encoding="UTF-8" standalone="no"?>
<svg
   viewBox="0 0 22 22"
   version="1.1"
   id="svg6"
   sodipodi:docname="go-top-symbolic.svg"
   inkscape:version="1.1.2 (0a00cf5339, 2022-02-04)"
   xmlns:inkscape="http://www.inkscape.org/namespaces/inkscape"
   xmlns:sodipodi="http://sodipodi.sourceforge.net/DTD/sodipodi-0.dtd"
   xmlns="http://www.w3.org/2000/svg"
   xmlns:svg="http://www.w3.org/2000/svg">
  <sodipodi:namedview
     id="namedview8"
     pagecolor="#000000"
     bordercolor="#666666"
     borderopacity="1.0"
     inkscape:pageshadow="2"
     inkscape:pageopacity="0"
     inkscape:pagecheckerboard="0"
     showgrid="false"
     inkscape:zoom="37.590909"
     inkscape:cx="11.013301"
     inkscape:cy="11"
     inkscape:window-width="1920"
     inkscape:window-height="1051"
     inkscape:window-x="0"
     inkscape:window-y="29"
     inkscape:window-maximized="1"
     inkscape:current-layer="svg6" />
  <defs
     id="defs3051">
    <style
       type="text/css"
       id="current-color-scheme">
     .ColorScheme-Text {
       color:#f2f2f2;
     }
     </style>
  </defs>
  <path
     style="fill:currentColor;fill-opacity:1;stroke:none"
     d="m 17.874858,17.499962 c -0.28675,-0.001 -0.57299,-0.1139 -0.79102,-0.33612 l -5.782943,-5.897544 v 0 l -0.504868,-0.06256 -5.8860093,5.916608 c -0.43901,0.44097 -1.14811,0.43851 -1.58399,-0.006 -0.43599,-0.44441 -0.43357,-1.16406 0.006,-1.60548 l 6.9043003,-6.93793 c 0.21952,-0.22058 0.50618,-0.3312 0.79297,-0.33019 0.28664,0.001 0.57296,0.1139 0.79101,0.33612 l 6.85352,6.98934 c 0.43578,0.44462 0.43335,1.16226 -0.006,1.6035 -0.21952,0.22048 -0.50622,0.33127 -0.79297,0.33019 z m -0.11914,-11.1177 -13.5390603,-0.0336 c -0.39067,-0.002 -0.7589,-0.14404 -0.98633,-0.37961 -0.22756,-0.23577 -0.29155,-0.54249 -0.16992,-0.81856 l 0.01,-0.0217 c 0.16703,-0.37905 0.63894,-0.63092 1.17383,-0.62874 l 13.5390603,0.0316 c 0.39047,0.002 0.75824,0.14365 0.98633,0.37962 0.22766,0.23579 0.2916,0.54241 0.16992,0.81856 l -0.01,0.0217 c -0.16703,0.37921 -0.63894,0.6329 -1.17383,0.63073 z"
     class="ColorScheme-Text"
     id="path4"
     sodipodi:nodetypes="cccccccccccccccccccccccccc" />
</svg>
