<?xml version="1.0" encoding="UTF-8" standalone="no"?>
<svg
   width="16"
   height="16"
   version="1.1"
   id="svg6"
   sodipodi:docname="image-red-eye-symbolic.svg"
   inkscape:version="1.1.2 (0a00cf5339, 2022-02-04)"
   xmlns:inkscape="http://www.inkscape.org/namespaces/inkscape"
   xmlns:sodipodi="http://sodipodi.sourceforge.net/DTD/sodipodi-0.dtd"
   xmlns="http://www.w3.org/2000/svg"
   xmlns:svg="http://www.w3.org/2000/svg">
  <defs
     id="defs10" />
  <sodipodi:namedview
     id="namedview8"
     pagecolor="#ffffff"
     bordercolor="#666666"
     borderopacity="1.0"
     inkscape:pageshadow="2"
     inkscape:pageopacity="0.0"
     inkscape:pagecheckerboard="0"
     showgrid="false"
     inkscape:zoom="51.6875"
     inkscape:cx="7.9903265"
     inkscape:cy="8"
     inkscape:window-width="1920"
     inkscape:window-height="1051"
     inkscape:window-x="0"
     inkscape:window-y="29"
     inkscape:window-maximized="1"
     inkscape:current-layer="svg6" />
  <path
     style="fill:#5c616c"
     d="M 8,3 C 7.6070859,3 7.2323091,3.029161 6.874079,3.073578 c -0.089245,0.011066 0.087216,-0.012744 0,0 L 6.8266885,3.3266885 8.5625,5.0625 c 1.2113899,0.2297483 2.158853,1.1772908 2.3885,2.3887 l 3.164,3.1638 C 15.46,9.3291 16,8 16,8 16,8 14,3 8,3 Z M 4.2715,3.7715 C 1.1494,5.162 0,8 0,8 c 0,0 2,5 8,5 1.8188,0 3.267,-0.468 4.398,-1.102 L 10.355,9.8555 C 10.002931,10.302792 10.092801,9.3472423 9.0777202,10.60979 8.8638595,10.875788 8.349618,10.999726 8,11 6.3431458,11 5,9.6568542 5,8 4.9998385,7.6858186 4.9146028,7.1643342 5.3889036,6.8328546 5.9517779,6.4394726 5.6673566,6.0172902 6.1426,5.6426 Z"
     id="path2"
     sodipodi:nodetypes="ssccccccsccsccsccscc" />
  <path
     style="fill:#5c616c"
     d="M 2.5,1 15,13.5 13.5,15 8.991718,10.631025 2.9840633,4.8090088 2.7611325,4.2611325 1,2.5 Z"
     id="path4"
     sodipodi:nodetypes="cccccccc" />
</svg>
