<?xml version="1.0" encoding="UTF-8" standalone="no"?>
<svg
   width="16"
   height="16"
   version="1.1"
   id="svg1339217"
   sodipodi:docname="image-resize-symbolic.svg"
   inkscape:version="1.1.2 (0a00cf5339, 2022-02-04)"
   xmlns:inkscape="http://www.inkscape.org/namespaces/inkscape"
   xmlns:sodipodi="http://sodipodi.sourceforge.net/DTD/sodipodi-0.dtd"
   xmlns="http://www.w3.org/2000/svg"
   xmlns:svg="http://www.w3.org/2000/svg">
  <defs
     id="defs1339221" />
  <sodipodi:namedview
     id="namedview1339219"
     pagecolor="#ffffff"
     bordercolor="#666666"
     borderopacity="1.0"
     inkscape:pageshadow="2"
     inkscape:pageopacity="0.0"
     inkscape:pagecheckerboard="0"
     showgrid="false"
     inkscape:zoom="51.6875"
     inkscape:cx="7.9903265"
     inkscape:cy="8"
     inkscape:window-width="1920"
     inkscape:window-height="1051"
     inkscape:window-x="0"
     inkscape:window-y="29"
     inkscape:window-maximized="1"
     inkscape:current-layer="svg1339217" />
  <path
     style="fill:#5c616c"
     d="M 2,2 C 1,2 1,3 1,3 V 7 H 3 V 4 H 6 V 2 Z m 8,0 v 2 h 3 v 3 h 2 V 3 C 15,2 14,2 14,2 Z M 7.8206691,3.3586618 v 0 L 6.1521983,6.6956035 v 0 L 6.3424263,7 H 9.7048136 L 9.823928,6.647856 v 0 L 8.1797416,3.3594832 Z M 6.13692,9.2738399 v 0 l 1.7279325,3.4558651 v 0 l 0.2839551,-0.02732 1.7191692,-3.4383386 v 0 L 9.7562632,9 H 6.3194469 Z M 1,9 v 4 c 0,1 1,1 1,1 H 6 V 12 H 3 V 9 Z m 12,0 v 3 h -3 v 2 h 4 c 0,0 1,0 1,-1 V 9 Z"
     id="path1339215"
     sodipodi:nodetypes="sccccccscccccscccccccccccccccccccccccscccccccccccscc" />
</svg>
