<?xml version="1.0" encoding="UTF-8" standalone="no"?>
<svg
   width="16"
   height="16"
   version="1.1"
   id="svg10"
   sodipodi:docname="image-filter-symbolic.svg"
   inkscape:version="1.1.2 (0a00cf5339, 2022-02-04)"
   xmlns:inkscape="http://www.inkscape.org/namespaces/inkscape"
   xmlns:sodipodi="http://sodipodi.sourceforge.net/DTD/sodipodi-0.dtd"
   xmlns="http://www.w3.org/2000/svg"
   xmlns:svg="http://www.w3.org/2000/svg">
  <defs
     id="defs14" />
  <sodipodi:namedview
     id="namedview12"
     pagecolor="#ffffff"
     bordercolor="#666666"
     borderopacity="1.0"
     inkscape:pageshadow="2"
     inkscape:pageopacity="0.0"
     inkscape:pagecheckerboard="0"
     showgrid="false"
     inkscape:zoom="47.125"
     inkscape:cx="7.9893899"
     inkscape:cy="8"
     inkscape:window-width="1880"
     inkscape:window-height="966"
     inkscape:window-x="0"
     inkscape:window-y="29"
     inkscape:window-maximized="1"
     inkscape:current-layer="svg10" />
  <path
     style="opacity:.35;fill:#5c616c"
     d="M 1.5,14.5 C 2.07,11.8 2.76,9.15 8,8 13.22,7.04 13.09,4.35 14,2 V 14.5 Z"
     id="path2" />
  <path
     style="fill:#5c616c"
     d="M 13.47,1 C 13.206,1 13,1.2638 13,1.5333 c 0.02,1.1821 -0.04,2.3 -0.69,3.22 -0.64,0.93 -1.91,1.74 -4.44,2.25 C 5.7246799,7.4370963 4.263648,8.23792 3.266113,9.2289908 2.9988973,9.4944749 2.9980817,8.6920845 2.7511381,9.0449414 1.8124438,7.9210351 1.28,13.003 1,14.353 l 1,0.21 c 0.28,-1.35 0.59,-2.74 1.41,-3.9 0.81,-1.1597 2.12,-2.1497 4.65,-2.6597 2.68,-0.54 4.23,-1.49 5.06,-2.69 C 13.96,4.1233 14,2.7433 14,1.5033 14.002,1.2019 13.769,1 13.47,1 Z"
     id="path4"
     sodipodi:nodetypes="scccscccccccs" />
  <path
     style="fill:#5c616c"
     d="M 1,1 H 3 V 15 H 1 Z"
     id="path6" />
  <path
     style="fill:#5c616c"
     d="M 13,-15 H 15 V -1 H 13 Z"
     transform="rotate(90)"
     id="path8" />
</svg>
