<?xml version="1.0" encoding="UTF-8" standalone="no"?>
<svg
   width="16"
   height="16"
   version="1.1"
   id="svg1212403"
   sodipodi:docname="image-straighten-symbolic.svg"
   inkscape:version="1.1.2 (0a00cf5339, 2022-02-04)"
   xmlns:inkscape="http://www.inkscape.org/namespaces/inkscape"
   xmlns:sodipodi="http://sodipodi.sourceforge.net/DTD/sodipodi-0.dtd"
   xmlns="http://www.w3.org/2000/svg"
   xmlns:svg="http://www.w3.org/2000/svg">
  <defs
     id="defs1212407" />
  <sodipodi:namedview
     id="namedview1212405"
     pagecolor="#ffffff"
     bordercolor="#666666"
     borderopacity="1.0"
     inkscape:pageshadow="2"
     inkscape:pageopacity="0.0"
     inkscape:pagecheckerboard="0"
     showgrid="false"
     inkscape:zoom="51.6875"
     inkscape:cx="7.9903265"
     inkscape:cy="8"
     inkscape:window-width="1920"
     inkscape:window-height="1051"
     inkscape:window-x="0"
     inkscape:window-y="29"
     inkscape:window-maximized="1"
     inkscape:current-layer="svg1212403" />
  <path
     style="fill:#5c616c"
     d="M 1,8 V 9 H 2 V 8 Z M 3,8 V 9 H 4 V 8 Z M 5,8 V 9 H 6 V 8 Z M 7,8 V 9 H 8 V 8 Z M 9,8 V 9 H 10 V 8 Z M 11,8 V 9 H 12 V 8 Z M 13,8 V 9 H 14 V 8 Z M 15,8 V 9 H 16 V 8 Z"
     id="path1212399" />
  <path
     style="fill:#5c616c"
     d="M 12.963,0.99422 C 12.868,0.99595 12.807,1.0079 12.807,1.0079 L 1.0078,3.1935 C 0.02451,3.3757 0.20508,4.3595 0.20508,4.3595 L 0.69531,7.0001 H 3.8065 l 0.9216353,-1.6041863 0.495811,-0.08092 v 0 L 7.3769,7.0001 h 2.3007 l 0.725877,-1.0192637 v 0 L 10.799993,5.9010104 12.398,7.0001 h 2.538 L 13.973,1.8087 C 13.835,1.0712 13.248,0.98905 12.963,0.99422 Z M 1.2519,10 2.0292,14.191 c 0.1822,0.983 1.1641,0.801 1.1641,0.801 L 14.992,12.807 c 0,0 0.985,-0.183 0.803,-1.166 L 15.49,10 h -2.035 l 0.19,1.021 L 3.8124,12.844 3.2851,10 Z"
     id="path1212401"
     sodipodi:nodetypes="ccccccccccccccccccccccccccccc" />
</svg>
