<?xml version="1.0" encoding="UTF-8" standalone="no"?>
<svg
   width="16"
   height="16"
   version="1.1"
   id="svg4"
   sodipodi:docname="keyboard-layout-filled-symbolic.svg"
   inkscape:version="1.1.2 (0a00cf5339, 2022-02-04)"
   xmlns:inkscape="http://www.inkscape.org/namespaces/inkscape"
   xmlns:sodipodi="http://sodipodi.sourceforge.net/DTD/sodipodi-0.dtd"
   xmlns="http://www.w3.org/2000/svg"
   xmlns:svg="http://www.w3.org/2000/svg">
  <defs
     id="defs8" />
  <sodipodi:namedview
     id="namedview6"
     pagecolor="#ffffff"
     bordercolor="#666666"
     borderopacity="1.0"
     inkscape:pageshadow="2"
     inkscape:pageopacity="0.0"
     inkscape:pagecheckerboard="0"
     showgrid="false"
     inkscape:zoom="47.25"
     inkscape:cx="8"
     inkscape:cy="8"
     inkscape:window-width="1854"
     inkscape:window-height="966"
     inkscape:window-x="0"
     inkscape:window-y="29"
     inkscape:window-maximized="1"
     inkscape:current-layer="svg4" />
  <path
     style="fill:#5c616c"
     d="M 8,0 C 3.581722,0 0,3.581722 0,8 c 0,4.418278 3.581722,8 8,8 4.418278,0 8,-3.581722 8,-8 C 16,3.581722 12.418278,0 8,0 Z m 2.518172,2.8224154 c 0.132824,0.055524 0.04977,-0.2438677 0.177586,-0.1793059 0.980511,0.4952524 1.807792,1.2511186 2.389553,2.1863756 C 13.120267,4.8856816 12.965685,4.9425258 12.998848,5 V 5 H 11.503906 C 11.262861,4.2682732 10.931111,3.5417329 10.518172,2.8224154 c -0.06892,-0.1200459 0.07339,0.1196341 0,0 z M 5.3459709,2.6249464 C 5.2838637,2.7262542 5.5707297,2.6695612 5.5118198,2.7711611 5.0850282,3.5072344 4.7428831,4.2508378 4.4960938,5 H 2.8105469 c 0.5938317,-1.0268001 1.4771202,-1.8520055 2.535424,-2.3750536 0.1138192,-0.056253 -0.1177257,0.049138 0,0 z m 2.5020406,0.1950153 c 0.060082,0.081686 0.270732,-0.047368 0.3279808,0.034015 C 8.6366632,3.5088521 9.005858,4.1540352 9.2876644,4.7912968 9.3184697,4.8609584 9.2030008,4.9305254 9.231723,5 V 5 H 6.861403 V 5 C 6.8965005,4.9151045 6.6947932,4.8300712 6.7330031,4.7448957 7.0170632,4.1116832 7.3873985,3.4706166 7.8480115,2.8199617 c 0.049614,-0.070084 -0.051713,0.070308 0,0 z M 2.0898438,7 H 4.0566406 C 4.0198242,7.3377506 3.9990328,7.6764232 4,8.015625 4.0009374,8.3442824 4.0184324,8.6731038 4.0546875,9 h -1.96875 C 2.0294128,8.6696518 2.0006665,8.3351485 2,8 2.0019567,7.664742 2.0320098,7.3302378 2.0898438,7 Z M 6.0761719,7 H 9.9238281 C 9.970018,7.3380323 10.000956,7.6745387 10,8.0097656 9.9990623,8.3386173 9.9661846,8.6686041 9.9199219,9 H 6.0800781 C 6.0338154,8.6686041 6.0009377,8.3386173 6,8.0097656 5.9990441,7.6745387 6.029982,7.3380323 6.0761719,7 Z m 5.8671871,0 h 1.970703 c 0.05653,0.3303481 0.08527,0.6648515 0.08594,1 -0.002,0.335258 -0.03201,0.6697622 -0.08984,1 H 11.945312 C 11.981567,8.6731038 11.999063,8.3442824 12,8.015625 12.000967,7.6764232 11.980176,7.3377506 11.943359,7 Z M 2.8125,11 H 4.5 c 0.2469896,0.74755 0.5890381,1.487289 1.012918,2.219756 0.061683,0.106589 -0.2539615,0.0396 -0.1888535,0.145878 -0.1286576,-0.05354 0.1239875,0.06202 0,0 C 4.2760646,12.841391 3.4015201,12.020033 2.8125,11 Z M 6.7082991,11.181592 6.8194935,11 h 2.285301 v 0 c -0.078485,0.183973 0.2128174,0.122586 0.1858613,0.183973 -0.2822976,0.642879 -0.6518549,1.292743 -1.1125501,1.951768 -0.057925,0.08286 0.060815,-0.08316 0,0 -0.062219,-0.08508 -0.3010272,0.07903 -0.3602219,-0.0057 -0.459398,-0.657873 -0.8279733,-1.30662 -1.1095847,-1.948409 -0.026587,-0.06059 0.02504,0.06047 0,0 z M 11.5,11 h 1.689453 c -0.584024,1.009073 -1.447608,1.823235 -2.481992,2.347103 -0.133446,0.06758 0.138897,-0.05772 0,0 0.06876,-0.112331 -0.272985,-0.03678 -0.208036,-0.149444 C 10.917513,12.472392 11.255477,11.740085 11.5,11 Z"
     id="path2"
     sodipodi:nodetypes="ssssscsscccsccsccsccssccccsscccsccccccsccsccccccscccscscccccsscsscccscsc" />
</svg>
