<?xml version="1.0" encoding="UTF-8" standalone="no"?>
<svg
   width="16"
   height="16"
   version="1.1"
   id="svg1842852"
   sodipodi:docname="mail-reply-all-symbolic.svg"
   inkscape:version="1.1.2 (0a00cf5339, 2022-02-04)"
   xmlns:inkscape="http://www.inkscape.org/namespaces/inkscape"
   xmlns:sodipodi="http://sodipodi.sourceforge.net/DTD/sodipodi-0.dtd"
   xmlns="http://www.w3.org/2000/svg"
   xmlns:svg="http://www.w3.org/2000/svg">
  <defs
     id="defs1842856" />
  <sodipodi:namedview
     id="namedview1842854"
     pagecolor="#ffffff"
     bordercolor="#666666"
     borderopacity="1.0"
     inkscape:pageshadow="2"
     inkscape:pageopacity="0.0"
     inkscape:pagecheckerboard="0"
     showgrid="false"
     inkscape:zoom="51.6875"
     inkscape:cx="8.0096735"
     inkscape:cy="8"
     inkscape:window-width="1920"
     inkscape:window-height="1051"
     inkscape:window-x="0"
     inkscape:window-y="29"
     inkscape:window-maximized="1"
     inkscape:current-layer="svg1842852" />
  <path
     style="fill:#5c616c"
     d="M 8.6097095,1.7702011 9,1.9780586 V 3.7002065 L 9.2411377,4 V 4 H 11 c 3,0 5,2.13 5,5.25 0,2.403147 -2.187026,3.84947 -3.326773,4.440041 -0.40164,0.208114 -0.255688,-0.340771 -0.255688,-0.340771 0,0 -0.236482,0.394153 0,0 C 12.941055,12.47671 13.7362,10.929932 13.44,10 13.07,8.87 11.86,8 10.5,8 H 9.2534835 L 9,8.1946371 v 0 1.7541282 L 8.5370566,10.179501 v 0 L 2.8179529,6.2201212 v 0 l 0.068406,-0.4876004 z"
     id="path1842848"
     sodipodi:nodetypes="cccccssscscscccccccccc" />
  <path
     style="fill:#5c616c"
     d="M 6.5,1.823262 6.2139856,1.69801 0.32373894,5.775873 0.26359359,6.1824879 v 0 L 6.1676016,10.269878 6.5,10.084176 v 0 V 9.4609 L 1.6989749,6.1377265 1.7815144,5.8051414 v 0 L 6.5,2.5391 Z"
     id="path1842850"
     sodipodi:nodetypes="cccccccccccccc" />
</svg>
