<?xml version="1.0" encoding="UTF-8" standalone="no"?>
<svg
   width="16"
   height="16"
   version="1.1"
   id="svg4"
   sodipodi:docname="mail-spam-symbolic.svg"
   inkscape:version="1.1.2 (0a00cf5339, 2022-02-04)"
   xmlns:inkscape="http://www.inkscape.org/namespaces/inkscape"
   xmlns:sodipodi="http://sodipodi.sourceforge.net/DTD/sodipodi-0.dtd"
   xmlns="http://www.w3.org/2000/svg"
   xmlns:svg="http://www.w3.org/2000/svg">
  <defs
     id="defs8" />
  <sodipodi:namedview
     id="namedview6"
     pagecolor="#ffffff"
     bordercolor="#666666"
     borderopacity="1.0"
     inkscape:pageshadow="2"
     inkscape:pageopacity="0.0"
     inkscape:pagecheckerboard="0"
     showgrid="false"
     inkscape:zoom="47.25"
     inkscape:cx="8"
     inkscape:cy="8"
     inkscape:window-width="1854"
     inkscape:window-height="966"
     inkscape:window-x="0"
     inkscape:window-y="29"
     inkscape:window-maximized="1"
     inkscape:current-layer="svg4" />
  <path
     style="fill:#5c616c"
     d="m 4.8303686,1.1696314 v 0 L 1.1901655,4.8098345 1,5.2323528 v 0 5.4813592 0 L 1.1950083,11.195008 4.814178,14.814178 5.2322953,15 v 0 h 5.4812517 l 0.423946,-0.137493 v 0 l 3.70341,-3.70341 v 0 L 15,10.777333 15,5.2747667 v 0 L 14.824665,4.824665 11.152731,1.1527308 v 0 L 10.81892,1 H 5.3167137 Z M 7.2846964,4 V 4 H 8.7240113 L 9,4.3011739 v 0 V 7 L 8.7665837,8.8673304 8.5755286,9 V 9 H 7.4331778 V 9 L 7.2211538,8.7692306 7,7 V 4.2799666 Z M 8,9.75 c 0.69,0 1.25,0.56 1.25,1.25 0,0.69 -0.56,1.25 -1.25,1.25 C 7.31,12.25 6.75,11.69 6.75,11 6.75,10.31 7.31,9.75 8,9.75 Z"
     id="path2"
     sodipodi:nodetypes="ccccccccccccccccccccccccccccccccccccccccsssss" />
</svg>
