<?xml version="1.0" encoding="UTF-8" standalone="no"?>
<svg
   width="16"
   height="16"
   version="1.1"
   id="svg1830415"
   sodipodi:docname="mail-reply-all-symbolic-rtl.svg"
   inkscape:version="1.1.2 (0a00cf5339, 2022-02-04)"
   xmlns:inkscape="http://www.inkscape.org/namespaces/inkscape"
   xmlns:sodipodi="http://sodipodi.sourceforge.net/DTD/sodipodi-0.dtd"
   xmlns="http://www.w3.org/2000/svg"
   xmlns:svg="http://www.w3.org/2000/svg">
  <defs
     id="defs1830419" />
  <sodipodi:namedview
     id="namedview1830417"
     pagecolor="#ffffff"
     bordercolor="#666666"
     borderopacity="1.0"
     inkscape:pageshadow="2"
     inkscape:pageopacity="0.0"
     inkscape:pagecheckerboard="0"
     showgrid="false"
     inkscape:zoom="51.6875"
     inkscape:cx="8.0096735"
     inkscape:cy="8"
     inkscape:window-width="1920"
     inkscape:window-height="1051"
     inkscape:window-x="0"
     inkscape:window-y="29"
     inkscape:window-maximized="1"
     inkscape:current-layer="svg1830415" />
  <path
     style="fill:#5c616c"
     d="m 7,2.0746964 v 0 1.6493131 L 6.737986,4 V 4 H 5 C 2,4 0,6.13 0,9.25 c 0,2.430507 2.2371076,3.882279 3.3652891,4.45988 0.3803887,0.194749 0,0 0,0 0,0 0.4872687,0.08118 0.2847065,-0.249255 C 3.1311709,12.614284 2.2507421,10.970926 2.56,10 2.93,8.87 4.14,8 5.5,8 H 6.7437202 L 7,8.223484 v 0 1.6865081 l 0.5215442,0.2289389 v 0 L 13.121232,6.2622242 v 0 L 13.083112,5.7113829 7.4924939,1.8409571 Z"
     id="path1830411"
     sodipodi:nodetypes="cccccssscscsccccccccccc" />
  <path
     style="fill:#5c616c"
     d="m 9.7693807,1.6864943 v 0 l 5.9173273,4.0966114 v 0 l -0.02912,0.4539525 -5.810861,4.0229038 v 0 L 9.5,10.06479 V 9.4609 l 4.690735,-3.2468329 0.02912,-0.4079753 v 0 L 9.5,2.5391 V 1.823262 Z"
     id="path1830413"
     sodipodi:nodetypes="ccccccccccccccc" />
</svg>
