<?xml version="1.0" encoding="UTF-8" standalone="no"?>
<svg
   width="16"
   height="16"
   version="1.1"
   id="svg611669"
   sodipodi:docname="mark-location-symbolic.svg"
   inkscape:version="1.1.2 (0a00cf5339, 2022-02-04)"
   xmlns:inkscape="http://www.inkscape.org/namespaces/inkscape"
   xmlns:sodipodi="http://sodipodi.sourceforge.net/DTD/sodipodi-0.dtd"
   xmlns="http://www.w3.org/2000/svg"
   xmlns:svg="http://www.w3.org/2000/svg">
  <defs
     id="defs611673" />
  <sodipodi:namedview
     id="namedview611671"
     pagecolor="#ffffff"
     bordercolor="#666666"
     borderopacity="1.0"
     inkscape:pageshadow="2"
     inkscape:pageopacity="0.0"
     inkscape:pagecheckerboard="0"
     showgrid="false"
     inkscape:zoom="51.6875"
     inkscape:cx="7.9903265"
     inkscape:cy="8"
     inkscape:window-width="1920"
     inkscape:window-height="1051"
     inkscape:window-x="0"
     inkscape:window-y="29"
     inkscape:window-maximized="1"
     inkscape:current-layer="svg611669" />
  <path
     style="fill:#5c616c"
     d="M 8,1 C 5.2386,1 3,3.2386 3,6 c 0,3.9222907 3.7986084,7.844581 4.773938,8.787023 0.1436551,0.138811 0.4515837,5.22e-4 0.4515837,5.22e-4 0,0 -0.1433214,0.138475 0,0 C 9.1999879,13.846031 13,9.9230153 13,6 13,3.2386 10.761,1 8,1 Z M 8,4 C 9.1045695,4 10,4.8954305 10,6 10,7.1045695 9.1045695,8 8,8 6.8954305,8 6,7.1045695 6,6 6,4.8954305 6.8954305,4 8,4 Z"
     id="path611667"
     sodipodi:nodetypes="ssscssssssss" />
</svg>
