<?xml version="1.0" encoding="UTF-8" standalone="no"?>
<svg
   width="16"
   height="16"
   version="1.1"
   id="svg4"
   sodipodi:docname="object-rotate-right-symbolic.svg"
   inkscape:version="1.1.2 (0a00cf5339, 2022-02-04)"
   xmlns:inkscape="http://www.inkscape.org/namespaces/inkscape"
   xmlns:sodipodi="http://sodipodi.sourceforge.net/DTD/sodipodi-0.dtd"
   xmlns="http://www.w3.org/2000/svg"
   xmlns:svg="http://www.w3.org/2000/svg">
  <defs
     id="defs8" />
  <sodipodi:namedview
     id="namedview6"
     pagecolor="#ffffff"
     bordercolor="#666666"
     borderopacity="1.0"
     inkscape:pageshadow="2"
     inkscape:pageopacity="0.0"
     inkscape:pagecheckerboard="0"
     showgrid="false"
     inkscape:zoom="47.25"
     inkscape:cx="8"
     inkscape:cy="8.010582"
     inkscape:window-width="1920"
     inkscape:window-height="1051"
     inkscape:window-x="0"
     inkscape:window-y="29"
     inkscape:window-maximized="1"
     inkscape:current-layer="svg4" />
  <path
     style="fill:#5c616c"
     d="m 8,0.5340447 v 0 1.1635264 L 7.8068981,2.0030485 c -0.064611,0 0.064119,-0.00203 0,0 C 4.5825578,2.1049935 2,4.7509024 2,8 c 0,3.313708 2.6862915,6 6,6 3.313708,0 6,-2.686292 6,-6 h -2 c 0,2.209139 -1.790861,4 -4,4 C 5.790861,12 4,10.209139 4,8 4,5.882215 5.6458094,4.1488294 7.7281809,4.0090903 c 0.089826,-0.00603 -0.091354,0 0,0 L 8,4.2043631 v 1.1761171 l 0.4934754,0.1965409 v 0 L 11.207127,3.2510343 v 0 L 11.093482,2.6515557 8.4372142,0.37475499 Z"
     id="path2"
     sodipodi:nodetypes="ccccsssccssscccccccccc" />
</svg>
