<?xml version="1.0" encoding="UTF-8" standalone="no"?>
<svg
   width="16"
   height="16"
   version="1.1"
   id="svg4"
   sodipodi:docname="object-rotate-left-symbolic.svg"
   inkscape:version="1.1.2 (0a00cf5339, 2022-02-04)"
   xmlns:inkscape="http://www.inkscape.org/namespaces/inkscape"
   xmlns:sodipodi="http://sodipodi.sourceforge.net/DTD/sodipodi-0.dtd"
   xmlns="http://www.w3.org/2000/svg"
   xmlns:svg="http://www.w3.org/2000/svg">
  <defs
     id="defs8" />
  <sodipodi:namedview
     id="namedview6"
     pagecolor="#ffffff"
     bordercolor="#666666"
     borderopacity="1.0"
     inkscape:pageshadow="2"
     inkscape:pageopacity="0.0"
     inkscape:pagecheckerboard="0"
     showgrid="false"
     inkscape:zoom="47.25"
     inkscape:cx="8"
     inkscape:cy="8.010582"
     inkscape:window-width="1920"
     inkscape:window-height="1051"
     inkscape:window-x="0"
     inkscape:window-y="29"
     inkscape:window-maximized="1"
     inkscape:current-layer="svg4" />
  <path
     style="fill:#5c616c"
     d="m 7.6272945,0.31946181 v 0 L 4.821117,2.7247568 4.7788823,3.239042 v 0 l 2.8339072,2.4290632 v 0 L 8,5.4228942 v -1.2297861 0 c 0.1035415,0 0.2061641,-0.189174 0.3077265,-0.1814471 C 10.373079,4.1687928 12,5.8944025 12,8 12,10.209139 10.209139,12 8,12 5.790861,12 4,10.209139 4,8 H 2 c 0,3.313708 2.6862915,6 6,6 3.313708,0 6,-2.686292 6,-6 0,-3.2170733 -2.5319,-5.8427898 -5.7117463,-5.9931975 -0.095517,-0.00452 0.096635,0 0,0 L 8,1.7526474 V 0.57645864 Z"
     id="path2"
     sodipodi:nodetypes="ccccccccccsssccssscccc" />
</svg>
