<?xml version="1.0" encoding="UTF-8" standalone="no"?>
<svg
   width="16"
   height="16"
   version="1.1"
   id="svg1887019"
   sodipodi:docname="system-run-symbolic.svg"
   inkscape:version="1.1.2 (0a00cf5339, 2022-02-04)"
   xmlns:inkscape="http://www.inkscape.org/namespaces/inkscape"
   xmlns:sodipodi="http://sodipodi.sourceforge.net/DTD/sodipodi-0.dtd"
   xmlns="http://www.w3.org/2000/svg"
   xmlns:svg="http://www.w3.org/2000/svg">
  <defs
     id="defs1887023" />
  <sodipodi:namedview
     id="namedview1887021"
     pagecolor="#ffffff"
     bordercolor="#666666"
     borderopacity="1.0"
     inkscape:pageshadow="2"
     inkscape:pageopacity="0.0"
     inkscape:pagecheckerboard="0"
     showgrid="false"
     inkscape:zoom="51.6875"
     inkscape:cx="7.9903265"
     inkscape:cy="8"
     inkscape:window-width="1920"
     inkscape:window-height="1051"
     inkscape:window-x="0"
     inkscape:window-y="29"
     inkscape:window-maximized="1"
     inkscape:current-layer="svg1887019" />
  <path
     style="fill:#5c616c"
     d="m 7.7403294,6.2285104 v 0 L 7.65,7.31 C 7.2317657,7.4644741 6.8428781,7.6890144 6.5,7.974 L 5.5810866,7.5428764 5.1206718,7.7215964 v 0 l -0.9059798,1.5691571 0.050677,0.434424 v 0 L 5.14,10.331 c -0.038666,0.218575 -0.058738,0.440035 -0.06,0.662 0.00104,0.223302 0.021108,0.446109 0.06,0.666 l -0.8587324,0.592447 -0.051312,0.471237 v 0 l 0.9532754,1.651073 0.3772861,0.08023 v 0 L 6.5,14.014 c 0.3431706,0.283567 0.7320413,0.506745 1.15,0.66 l 0.085438,1.024475 0.2504536,0.294525 v 0 h 2.0171508 l 0.27697,-0.239599 v 0 L 10.37,14.676 c 0.418234,-0.154474 0.807122,-0.379014 1.15,-0.664 l 0.986499,0.467551 0.337817,-0.136187 v 0 l 0.985496,-1.706878 -0.04815,-0.350157 v 0 L 12.88,11.656 c 0.03872,-0.218904 0.05879,-0.4407 0.06,-0.663 -0.0011,-0.222968 -0.02116,-0.445438 -0.06,-0.665 l 0.902059,-0.6281006 0.04666,-0.3512803 v 0 L 12.847157,7.648556 v 0 L 12.459349,7.5293745 11.52,7.973 C 11.176829,7.6894327 10.787959,7.4662548 10.37,7.313 L 10.278607,6.2162805 10.016896,5.993 v 0 H 8.0827882 Z M 9.01,9.565 c 0.7893064,-7.736e-4 1.429669,0.638693 1.43,1.428 2.21e-4,0.789697 -0.6403031,1.429774 -1.43,1.429 -0.7896969,7.74e-4 -1.4302215,-0.639303 -1.43,-1.429 3.311e-4,-0.789307 0.6406936,-1.4287736 1.43,-1.428 z"
     id="path1887015"
     sodipodi:nodetypes="cccccccccccccccccccccccccccccccccccccccccccccccccccccccc" />
  <path
     style="fill:#5c616c"
     d="M 6.9494058,6.4018044 7.0592127,5.9868081 6.85,5.545 C 7.021462,5.3396934 7.1567271,5.1066994 7.25,4.856 l 0.5602549,-0.046806 v 0 L 8.04,4.4515332 V 3.5961926 L 7.7928212,3.2683496 v 0 L 7.25,3.223 C 7.2036909,3.0977352 7.1468196,2.9766328 7.08,2.861 7.0128281,2.7449927 6.9358825,2.6349269 6.85,2.532 L 7.0865816,2.033787 v 0 L 6.9563214,1.6811854 6.1549775,1.2188716 5.7366888,1.2877903 v 0 L 5.44,1.717 C 5.1751674,1.6720777 4.9046047,1.6727541 4.64,1.719 L 4.3551631,1.30567 3.9502742,1.2043033 v 0 L 3.0488645,1.6371344 3.0024424,2.0531212 v 0 L 3.23,2.533 C 3.0584403,2.7386088 2.9231709,2.9719484 2.83,3.223 L 2.3005741,3.2672305 2.04,3.6109302 v 0 0.932479 L 2.2402533,4.80573 v 0 L 2.83,4.855 C 2.8762569,4.9806075 2.9331292,5.1020464 3,5.218 3.06722,5.333662 3.1441645,5.4433916 3.23,5.546 L 2.9887951,6.0539492 3.1049922,6.386034 v 0 L 3.951174,6.8742158 4.32579,6.8158588 v 0 L 4.64,6.362 c 0.2648326,0.044922 0.5353953,0.044246 0.8,-0.002 l 0.3120123,0.4527645 v 0 l 0.3655436,0.068953 z M 5.47,4.782 C 5.0601621,5.0180528 4.5365775,4.8775352 4.3,4.468 4.0625931,4.0589858 4.2013153,3.5349737 4.61,3.297 5.0198379,3.0609472 5.5434225,3.2014648 5.78,3.611 6.0174069,4.0200142 5.8786847,4.5440263 5.47,4.782 Z"
     id="path1887017"
     sodipodi:nodetypes="cccccccccccccccccccccccccccccccccccccccccccccccccccccccc" />
</svg>
