<?xml version="1.0" encoding="UTF-8" standalone="no"?>
<svg
   width="16"
   height="16"
   version="1.1"
   id="svg6"
   sodipodi:docname="tool-text-symbolic.svg"
   inkscape:version="1.1.2 (0a00cf5339, 2022-02-04)"
   xmlns:inkscape="http://www.inkscape.org/namespaces/inkscape"
   xmlns:sodipodi="http://sodipodi.sourceforge.net/DTD/sodipodi-0.dtd"
   xmlns="http://www.w3.org/2000/svg"
   xmlns:svg="http://www.w3.org/2000/svg">
  <defs
     id="defs10" />
  <sodipodi:namedview
     id="namedview8"
     pagecolor="#ffffff"
     bordercolor="#666666"
     borderopacity="1.0"
     inkscape:pageshadow="2"
     inkscape:pageopacity="0.0"
     inkscape:pagecheckerboard="0"
     showgrid="false"
     inkscape:zoom="206.75"
     inkscape:cx="7.9903265"
     inkscape:cy="13.1052"
     inkscape:window-width="1920"
     inkscape:window-height="1051"
     inkscape:window-x="0"
     inkscape:window-y="29"
     inkscape:window-maximized="1"
     inkscape:current-layer="svg6" />
  <path
     style="fill:#5c616c"
     d="M 8,3 V 13.866258 L 8.1861107,14 v 0 H 11.666 C 13.513,14 15,12.487 15,10.5 15,8.5133 13.513,7 11.666,7 H 10.12628 V 7 L 10,6.881993 V 3 Z m 3.334,6 C 12.257,9 13,9.6648 13,10.5 13,11.336 12.257,12 11.334,12 H 10.204058 L 10,11.787299 v 0 -2.6100393 0 L 10.139312,9 Z"
     id="path2"
     sodipodi:nodetypes="ccccssscccccsssccccccs" />
  <path
     style="fill:#5c616c"
     d="M 2,6 V 8 H 4.9210815 L 5,8.0556306 v 0 0.8607782 L 4.9207951,9 V 9 H 4 C 2.338,9 1,10.115 1,11.5 1,12.885 2.338,14 4,14 h 2.7794161 v 0 L 7,13.708841 V 8 C 7,6.892 6.108,6 5,6 Z m 1.5,5 H 4.9412847 L 5,11.076584 v 0 0.854049 0 L 4.9204284,12 H 3.5 C 3.223,12 3,11.777 3,11.5 3,11.223 3.223,11 3.5,11 Z"
     id="path4"
     sodipodi:nodetypes="ccccccccssscccsscsccccccsss" />
</svg>
