<?xml version="1.0" encoding="UTF-8" standalone="no"?>
<svg
   width="16"
   height="16"
   version="1.1"
   id="svg1687449"
   sodipodi:docname="view-sort-descending-symbolic.svg"
   inkscape:version="1.1.2 (0a00cf5339, 2022-02-04)"
   xmlns:inkscape="http://www.inkscape.org/namespaces/inkscape"
   xmlns:sodipodi="http://sodipodi.sourceforge.net/DTD/sodipodi-0.dtd"
   xmlns="http://www.w3.org/2000/svg"
   xmlns:svg="http://www.w3.org/2000/svg">
  <defs
     id="defs1687453" />
  <sodipodi:namedview
     id="namedview1687451"
     pagecolor="#ffffff"
     bordercolor="#666666"
     borderopacity="1.0"
     inkscape:pageshadow="2"
     inkscape:pageopacity="0.0"
     inkscape:pagecheckerboard="0"
     showgrid="false"
     inkscape:zoom="51.6875"
     inkscape:cx="8.0096735"
     inkscape:cy="8"
     inkscape:window-width="1920"
     inkscape:window-height="1051"
     inkscape:window-x="0"
     inkscape:window-y="29"
     inkscape:window-maximized="1"
     inkscape:current-layer="svg1687449" />
  <path
     style="fill:#5c616c"
     d="M 8,13 V 9.1969621 L 7.8230426,9 V 9 H 5.4319087 V 9 L 5.3163245,8.5571457 9.7340074,2.3723896 10.233801,2.3273216 v 0 L 14.691777,8.5684883 14.592801,9 V 9 H 12.15911 V 9 L 12,9.1864337 V 13 Z"
     id="path1687441"
     sodipodi:nodetypes="cccccccccccccccccc" />
  <path
     style="fill:#5c616c"
     d="M 4,3.5 A 1.5,1.5 0 0 1 2.5,5 1.5,1.5 0 0 1 1,3.5 1.5,1.5 0 0 1 2.5,2 1.5,1.5 0 0 1 4,3.5 Z"
     id="path1687443" />
  <path
     style="fill:#5c616c"
     d="M 4,7.5 A 1.5,1.5 0 0 1 2.5,9 1.5,1.5 0 0 1 1,7.5 1.5,1.5 0 0 1 2.5,6 1.5,1.5 0 0 1 4,7.5 Z"
     id="path1687445" />
  <path
     style="fill:#5c616c"
     d="M 4,11.5 A 1.5,1.5 0 0 1 2.5,13 1.5,1.5 0 0 1 1,11.5 1.5,1.5 0 0 1 2.5,10 1.5,1.5 0 0 1 4,11.5 Z"
     id="path1687447" />
</svg>
