<?xml version="1.0" encoding="UTF-8" standalone="no"?>
<svg
   width="16"
   height="16"
   version="1.1"
   id="svg4"
   sodipodi:docname="view-pin-symbolic.svg"
   inkscape:version="1.1.2 (0a00cf5339, 2022-02-04)"
   xmlns:inkscape="http://www.inkscape.org/namespaces/inkscape"
   xmlns:sodipodi="http://sodipodi.sourceforge.net/DTD/sodipodi-0.dtd"
   xmlns="http://www.w3.org/2000/svg"
   xmlns:svg="http://www.w3.org/2000/svg">
  <defs
     id="defs8" />
  <sodipodi:namedview
     id="namedview6"
     pagecolor="#ffffff"
     bordercolor="#666666"
     borderopacity="1.0"
     inkscape:pageshadow="2"
     inkscape:pageopacity="0.0"
     inkscape:pagecheckerboard="0"
     showgrid="false"
     inkscape:zoom="189"
     inkscape:cx="8.010582"
     inkscape:cy="6.7328042"
     inkscape:window-width="1920"
     inkscape:window-height="1051"
     inkscape:window-x="0"
     inkscape:window-y="29"
     inkscape:window-maximized="1"
     inkscape:current-layer="svg4" />
  <path
     style="fill:#5c616c"
     d="M 8.5254,0.13284 8.4961,0.16213 C 8.0959,0.56226 7.8721,1.0932 7.8691,1.6563 7.8663,2.1787 8.0531,2.672 8.3965,3.0566 L 5.1277483,6.3253517 v 0 C 5.1017256,6.3021167 5.0040571,6.3507561 4.9770638,6.3289823 4.6051114,6.0289511 4.1433468,5.8684895 3.6562,5.8711 3.0932,5.8741 2.5622,6.0959 2.1621,6.4961 L 2.1328,6.5254 C 1.9575,6.7006 1.9554,6.9848 2.1289,7.1582 l 2.4887335,2.4869076 0.00749,0.1946051 v 0 L 0.53479672,13.931715 0.36241666,14.221936 v 0 l -0.29429993,1.443874 0.15930751,0.287779 v 0 L 1.7400334,15.64491 v 0 l 0.2961823,-0.148272 4.1218161,-4.119816 v 0 L 6.3361133,11.36328 8.8418,13.871 C 8.9285,13.958 9.044,14.001 9.1582,14 9.2724,13.999 9.3871,13.955 9.4746,13.867 l 0.0293,-0.029 c 0.4002,-0.4 0.6221,-0.931 0.6251,-1.494 0.0028,-0.490789 -0.1618628,-0.95516 -0.4657718,-1.328655 -0.019946,-0.02451 0.024839,-0.113964 0.0037,-0.137676 v 0 L 12.943,7.6016 c 0.385,0.3432 0.878,0.5301 1.401,0.5273 0.563,-0.003 1.094,-0.2248 1.494,-0.625 L 15.867,7.4746 C 15.955,7.3871 15.999,7.2724 16,7.1582 16.001,7.044 15.958,6.9285 15.871,6.8418 L 9.1582,0.12893 C 9.0715,0.04219 8.9561,0 8.8418,0 8.7275,0 8.613,0.04517 8.5254,0.13284 Z"
     id="path2"
     sodipodi:nodetypes="ccccccsccccccccccccccccccccscccsccccccsccsc" />
</svg>
