<?xml version="1.0" encoding="UTF-8" standalone="no"?>
<svg
   width="16"
   height="16"
   version="1.1"
   viewBox="0 0 16 16"
   id="svg4"
   sodipodi:docname="xapp-search-wrap-symbolic.svg"
   inkscape:version="1.1.2 (0a00cf5339, 2022-02-04)"
   xmlns:inkscape="http://www.inkscape.org/namespaces/inkscape"
   xmlns:sodipodi="http://sodipodi.sourceforge.net/DTD/sodipodi-0.dtd"
   xmlns="http://www.w3.org/2000/svg"
   xmlns:svg="http://www.w3.org/2000/svg">
  <defs
     id="defs8" />
  <sodipodi:namedview
     id="namedview6"
     pagecolor="#ffffff"
     bordercolor="#666666"
     borderopacity="1.0"
     inkscape:pageshadow="2"
     inkscape:pageopacity="0.0"
     inkscape:pagecheckerboard="0"
     showgrid="false"
     inkscape:zoom="47.25"
     inkscape:cx="8"
     inkscape:cy="8"
     inkscape:window-width="1880"
     inkscape:window-height="966"
     inkscape:window-x="0"
     inkscape:window-y="29"
     inkscape:window-maximized="1"
     inkscape:current-layer="svg4" />
  <path
     style="fill:#5c616c"
     d="M 14.697183,5.4320877 14.522567,5 H 13.021249 V 2.9316406 C 13.021249,1.8619406 12.08218,1 10.91578,1 H 5.1267183 c -1.166,0 -2.105469,0.8619406 -2.105469,1.9316406 V 13.068359 c 0,1.07 0.939469,1.931641 2.105469,1.931641 H 10.91578 c 1.1664,0 2.105469,-0.861641 2.105469,-1.931641 V 11 h -2 v 1.998047 C 11.012249,12.996047 10.99498,13 10.91578,13 H 5.1267183 c -0.079,0 -0.096469,-0.004 -0.105469,-0.002 V 3.0039062 C 5.0302493,3.0049063 5.0477183,3 5.1267183,3 H 10.91578 c 0.0792,0 0.09657,0.00491 0.105469,0.00391 V 5 H 9.6128459 V 5 L 9.3431066,5.4291431 11.722933,8.6022447 12.279482,8.6556893 12.021249,9 12.279482,8.6556893 Z"
     id="path2"
     sodipodi:nodetypes="cccsssssssscccssccsscccccccccc" />
</svg>
