<?xml version="1.0" encoding="UTF-8" standalone="no"?>
<svg
   width="16"
   height="16"
   version="1.1"
   id="svg4"
   sodipodi:docname="xapp-text-case-symbolic.svg"
   inkscape:version="1.1.2 (0a00cf5339, 2022-02-04)"
   xmlns:inkscape="http://www.inkscape.org/namespaces/inkscape"
   xmlns:sodipodi="http://sodipodi.sourceforge.net/DTD/sodipodi-0.dtd"
   xmlns="http://www.w3.org/2000/svg"
   xmlns:svg="http://www.w3.org/2000/svg">
  <defs
     id="defs8" />
  <sodipodi:namedview
     id="namedview6"
     pagecolor="#ffffff"
     bordercolor="#666666"
     borderopacity="1.0"
     inkscape:pageshadow="2"
     inkscape:pageopacity="0.0"
     inkscape:pagecheckerboard="0"
     showgrid="false"
     inkscape:zoom="133.28963"
     inkscape:cx="16.01775"
     inkscape:cy="10.994854"
     inkscape:window-width="1920"
     inkscape:window-height="1051"
     inkscape:window-x="0"
     inkscape:window-y="29"
     inkscape:window-maximized="1"
     inkscape:current-layer="svg4" />
  <path
     style="fill:#5c616c"
     d="M 4.7890625,2 1,13 h 1.90625 l 0.6796875,-2 h 3.8300781 l 0.6875,2 H 10 L 6.2109375,2 Z M 5.3650641,5.8377649 5.6401383,5.8644764 6.6000246,8.7488793 6.3917544,9 V 9 H 4.5881069 V 9 L 4.4088076,8.7160024 Z M 11.5,8 v 1 h 3 C 14.715,9 15,9.305 15,9.5 V 9.9439554 L 14.960736,9.9646717 14.936616,10 H 12.5 c -0.46,0 -0.87,0.189375 -1.125,0.484375 C 11.12,10.774375 11,11.14 11,11.5 c 0,0.36 0.135625,0.725625 0.390625,1.015625 C 11.645625,12.805625 12.045,13 12.5,13 h 3.408883 L 15.957753,12.95775 16,12.863516 V 9.5 C 16,8.685 15.34,8 14.5,8 Z m 1,3 h 2.436493 l 0.03359,0.04701 L 15,11.091059 v 0.837418 L 14.936385,12 v 0 H 12.5 C 12.3,12 12.215625,11.944375 12.140625,11.859375 12.065625,11.774375 12,11.64 12,11.5 12,11.36 12.05,11.225625 12.125,11.140625 12.2,11.060625 12.29,11 12.5,11 Z"
     id="path2"
     sodipodi:nodetypes="ccccccccccccccccccsccscsccscsscsccssccscccccsssc" />
</svg>
