<?xml version="1.0" encoding="UTF-8" standalone="no"?>
<svg
   width="16"
   height="16"
   version="1.1"
   id="svg6"
   sodipodi:docname="xfsm-switch-symbolic.svg"
   inkscape:version="1.1.2 (0a00cf5339, 2022-02-04)"
   xmlns:inkscape="http://www.inkscape.org/namespaces/inkscape"
   xmlns:sodipodi="http://sodipodi.sourceforge.net/DTD/sodipodi-0.dtd"
   xmlns="http://www.w3.org/2000/svg"
   xmlns:svg="http://www.w3.org/2000/svg">
  <defs
     id="defs10" />
  <sodipodi:namedview
     id="namedview8"
     pagecolor="#ffffff"
     bordercolor="#666666"
     borderopacity="1.0"
     inkscape:pageshadow="2"
     inkscape:pageopacity="0.0"
     inkscape:pagecheckerboard="0"
     showgrid="false"
     inkscape:zoom="103.375"
     inkscape:cx="10.437727"
     inkscape:cy="8.5465538"
     inkscape:window-width="1920"
     inkscape:window-height="1051"
     inkscape:window-x="0"
     inkscape:window-y="29"
     inkscape:window-maximized="1"
     inkscape:current-layer="svg6" />
  <path
     style="fill:#5c616c"
     d="M 10 2 C 8.34 2 7 3.34 7 5 C 7 6.65 8.34 8 10 8 C 11.66 8 13 6.65 13 5 C 13 3.34 11.66 2 10 2 z M 10 10 C 4.723 10 4 14 4 14 L 4 15 L 16 15 L 16 14 C 16 14 16 10 10 10 z"
     id="path2" />
  <path
     style="opacity:0.35;fill:#5c616c"
     d="m 5,3.9492188 c -1.43,0 -2.5898438,1.1314843 -2.5898438,2.5214843 C 2.4101562,7.8707031 3.57,9 5,9 5.879057,9 6.6482718,8.5709735 7.1162741,7.9221468 c 0.021798,-0.03022 -0.020017,-0.125271 4.546e-4,-0.1564233 -0.021225,-0.021225 0.020746,0.021677 0,0 C 6.4239185,7.0418395 6,6.0680177 6,5 6,4.7582596 6.02242,4.5235654 6.060724,4.2966213 c 0.00606,-0.035918 -0.019354,0.1071682 0,0 C 6.0245264,4.2801728 6.0073234,4.1572747 5.9704069,4.1423037 5.670669,4.0207485 5.3472338,3.9492188 5,3.9492188 Z M 4.9887233,9.9661582 C -0.0112767,9.9661582 0,13 0,13 v 0.870878 L 0.12041927,14 v 0 H 2.8937027 v 0 c 0,0 0.1065675,-0.03926 0.1117314,-0.110658 C 3.0304351,13.543673 3.1701399,12.44469 3.9492188,11.400391 4.2666581,10.971419 4.7103793,10.556535 5.2657785,10.194716 5.3577395,10.134806 5.2441055,10.00454 5.2441055,10.00454 5.1412606,9.99883 5.0713712,9.973977 4.9673757,9.970277 4.8893577,9.967487 5.0744511,9.966157 4.9887237,9.966157 Z"
     id="path4"
     sodipodi:nodetypes="sssscssscsssccccccscscsss" />
</svg>
