<?xml version="1.0" encoding="UTF-8" standalone="no"?>
<svg
   width="16"
   height="16"
   version="1.1"
   id="svg1516631"
   sodipodi:docname="ymuse-sort-symbolic.svg"
   inkscape:version="1.1.2 (0a00cf5339, 2022-02-04)"
   xmlns:inkscape="http://www.inkscape.org/namespaces/inkscape"
   xmlns:sodipodi="http://sodipodi.sourceforge.net/DTD/sodipodi-0.dtd"
   xmlns="http://www.w3.org/2000/svg"
   xmlns:svg="http://www.w3.org/2000/svg">
  <defs
     id="defs1516635" />
  <sodipodi:namedview
     id="namedview1516633"
     pagecolor="#ffffff"
     bordercolor="#666666"
     borderopacity="1.0"
     inkscape:pageshadow="2"
     inkscape:pageopacity="0.0"
     inkscape:pagecheckerboard="0"
     showgrid="false"
     inkscape:zoom="51.6875"
     inkscape:cx="8.0096735"
     inkscape:cy="8"
     inkscape:window-width="1920"
     inkscape:window-height="1051"
     inkscape:window-x="0"
     inkscape:window-y="29"
     inkscape:window-maximized="1"
     inkscape:current-layer="svg1516631" />
  <path
     style="fill:#5c616c"
     d="M 8,2 V 5.7982359 L 7.7877258,6 v 0 h -2.31995 l -0.136073,0.464384 v 0 l 4.3978028,6.156924 0.5076054,0.04674 v 0 L 14.673114,6.4576403 14.463833,6 V 6 H 12.170191 V 6 L 12,5.8383051 V 2 Z"
     id="path1516623"
     sodipodi:nodetypes="cccccccccccccccccc" />
  <path
     style="fill:#5c616c"
     d="M 4,3.5 A 1.5,1.5 0 0 1 2.5,5 1.5,1.5 0 0 1 1,3.5 1.5,1.5 0 0 1 2.5,2 1.5,1.5 0 0 1 4,3.5 Z"
     id="path1516625" />
  <path
     style="fill:#5c616c"
     d="M 4,7.5 A 1.5,1.5 0 0 1 2.5,9 1.5,1.5 0 0 1 1,7.5 1.5,1.5 0 0 1 2.5,6 1.5,1.5 0 0 1 4,7.5 Z"
     id="path1516627" />
  <path
     style="fill:#5c616c"
     d="M 4,11.5 A 1.5,1.5 0 0 1 2.5,13 1.5,1.5 0 0 1 1,11.5 1.5,1.5 0 0 1 2.5,10 1.5,1.5 0 0 1 4,11.5 Z"
     id="path1516629" />
</svg>
