<?xml version="1.0" encoding="UTF-8" standalone="no"?>
<svg
   width="16"
   height="16"
   version="1.1"
   id="svg4"
   sodipodi:docname="ymuse-delete-symbolic.svg"
   inkscape:version="1.1.2 (0a00cf5339, 2022-02-04)"
   xmlns:inkscape="http://www.inkscape.org/namespaces/inkscape"
   xmlns:sodipodi="http://sodipodi.sourceforge.net/DTD/sodipodi-0.dtd"
   xmlns="http://www.w3.org/2000/svg"
   xmlns:svg="http://www.w3.org/2000/svg">
  <defs
     id="defs8" />
  <sodipodi:namedview
     id="namedview6"
     pagecolor="#ffffff"
     bordercolor="#666666"
     borderopacity="1.0"
     inkscape:pageshadow="2"
     inkscape:pageopacity="0.0"
     inkscape:pagecheckerboard="0"
     showgrid="false"
     inkscape:zoom="51.6875"
     inkscape:cx="7.9903265"
     inkscape:cy="8"
     inkscape:window-width="1920"
     inkscape:window-height="1051"
     inkscape:window-x="0"
     inkscape:window-y="29"
     inkscape:window-maximized="1"
     inkscape:current-layer="svg4" />
  <path
     style="fill:#5c616c"
     d="M 3,1 C 3,1 2,1 2,2 v 9 3 c 0,1 1,1 1,1 H 8 V 13 H 4.1431249 v 0 L 4,12.804147 V 3.2127749 L 4.198424,3.0097656 v 0 H 11.80558 L 12,3.2217499 v 0 V 9 h 2 V 2 C 14,1 13,1 13,1 Z m 6,9.22842 v 0 V 11 c 0,0.28 0.1090625,0.530937 0.2890625,0.710938 L 10.589844,13 9.2890625,14.289062 C 9.1090625,14.469062 9,14.72 9,15 v 0.666326 L 9.3283269,16 v 0 H 10 c 0.28,0 0.530937,-0.109063 0.710938,-0.289062 L 12,14.410156 13.289062,15.710938 C 13.469062,15.890937 13.72,16 14,16 h 0.647712 v 0 L 15,15.776451 V 15 c 0,-0.28 -0.109063,-0.530937 -0.289062,-0.710938 L 13.410156,13 14.710938,11.710938 C 14.890937,11.530938 15,11.28 15,11 V 10.253565 L 14.726227,10 v 0 H 14 c -0.28,0 -0.530937,0.109063 -0.710938,0.289062 L 12,11.589844 10.710938,10.289062 C 10.530937,10.109063 10.28,10 10,10 H 9.2969411 Z"
     id="path2"
     sodipodi:nodetypes="cscsccccccccccccccsccccscccscccscccscccscccscccscccscc" />
</svg>
