<?xml version="1.0" encoding="UTF-8" standalone="no"?>
<svg
   width="18"
   height="18"
   version="1.1"
   id="svg11"
   sodipodi:docname="boundingbox_bottom_left.svg"
   inkscape:version="1.1.2 (0a00cf5339, 2022-02-04)"
   xmlns:inkscape="http://www.inkscape.org/namespaces/inkscape"
   xmlns:sodipodi="http://sodipodi.sourceforge.net/DTD/sodipodi-0.dtd"
   xmlns="http://www.w3.org/2000/svg"
   xmlns:svg="http://www.w3.org/2000/svg">
  <sodipodi:namedview
     id="namedview13"
     pagecolor="#000000"
     bordercolor="#666666"
     borderopacity="1.0"
     inkscape:pageshadow="2"
     inkscape:pageopacity="0"
     inkscape:pagecheckerboard="0"
     showgrid="false"
     inkscape:zoom="41.888889"
     inkscape:cx="8.9880637"
     inkscape:cy="9"
     inkscape:window-width="1770"
     inkscape:window-height="966"
     inkscape:window-x="0"
     inkscape:window-y="29"
     inkscape:window-maximized="1"
     inkscape:current-layer="svg11" />
  <defs
     id="defs3">
    <style
       id="current-color-scheme"
       type="text/css">
   .ColorScheme-Text { color:#eeeeec; } .ColorScheme-Highlight { color:#367bf0; } .ColorScheme-NeutralText { color:#ffcc44; } .ColorScheme-PositiveText { color:#3db47e; } .ColorScheme-NegativeText { color:#dd4747; }
  </style>
  </defs>
  <path
     style="opacity:.35;fill:currentColor"
     class="ColorScheme-Text"
     d="M 10,13 A 5,5 0 0 1 5,18 5,5 0 0 1 0,13 5,5 0 0 1 5,8 5,5 0 0 1 10,13 Z"
     id="path5" />
  <path
     style="opacity:0.7;fill:currentColor"
     class="ColorScheme-Text"
     d="M 5,8 A 5,5 0 0 0 0,13 5,5 0 0 0 5,18 5,5 0 0 0 10,13 5,5 0 0 0 5,8 Z M 5,9 A 4,4 0 0 1 9,13 4,4 0 0 1 5,17 4,4 0 0 1 1,13 4,4 0 0 1 5,9 Z"
     id="path7" />
  <path
     style="fill:currentColor"
     class="ColorScheme-Text"
     d="M 4,0 V 13.684253 L 4.4217727,14 v 0 H 18 V 12 H 6.3076517 v 0 L 6,11.679227 V 0 Z"
     id="path9"
     sodipodi:nodetypes="ccccccccccc" />
</svg>
