<?xml version="1.0" encoding="UTF-8" standalone="no"?>
<svg
   width="18"
   height="18"
   version="1.1"
   id="svg11"
   sodipodi:docname="connector-ignore.svg"
   inkscape:version="1.1.2 (0a00cf5339, 2022-02-04)"
   xmlns:inkscape="http://www.inkscape.org/namespaces/inkscape"
   xmlns:sodipodi="http://sodipodi.sourceforge.net/DTD/sodipodi-0.dtd"
   xmlns="http://www.w3.org/2000/svg"
   xmlns:svg="http://www.w3.org/2000/svg">
  <sodipodi:namedview
     id="namedview13"
     pagecolor="#000000"
     bordercolor="#666666"
     borderopacity="1.0"
     inkscape:pageshadow="2"
     inkscape:pageopacity="0"
     inkscape:pagecheckerboard="0"
     showgrid="false"
     inkscape:zoom="64.975256"
     inkscape:cx="16.637102"
     inkscape:cy="8.9957321"
     inkscape:window-width="1920"
     inkscape:window-height="1051"
     inkscape:window-x="0"
     inkscape:window-y="29"
     inkscape:window-maximized="1"
     inkscape:current-layer="g9" />
  <defs
     id="defs3">
    <style
       id="current-color-scheme"
       type="text/css">
   .ColorScheme-Text { color:#eeeeec; } .ColorScheme-Highlight { color:#367bf0; } .ColorScheme-NeutralText { color:#ffcc44; } .ColorScheme-PositiveText { color:#3db47e; } .ColorScheme-NegativeText { color:#dd4747; }
  </style>
  </defs>
  <g
     transform="translate(1,1)"
     id="g9">
    <path
       style="fill:currentColor"
       class="ColorScheme-Text"
       d="M 5.584,3 H 5 V 4 L 6.0476379,5.7415481 5.9861049,6.0693493 6.3288379,6.2090028 7.8789466,8.7858366 7.6886158,9.1645611 8.0991296,9.1518593 10.414,13 H 11 V 12 L 8.1045252,7.1884651 8.2534741,6.7727146 7.8531875,6.7708065 Z"
       id="path5"
       sodipodi:nodetypes="cccccccccccccccc" />
    <path
       style="fill:currentColor"
       class="ColorScheme-Text"
       d="M 3,6 V 10 H 13 V 6 Z M 4,7 H 12 V 9 H 4 Z M 11,12 H 15 C 15,12 16,12 16,13 V 14 C 16,14 16,15 15,15 H 11 C 11,15 10,15 10,14 V 13 C 10,13 10,12 11,12 Z M 1,1 H 5 C 5,1 6,1 6,2 V 3 C 6,3 6,4 5,4 H 1 C 1,4 0,4 0,3 V 2 C 0,2 0,1 1,1 Z"
       id="path7" />
  </g>
</svg>
