<?xml version="1.0" encoding="UTF-8" standalone="no"?>
<svg
   width="16"
   height="16"
   version="1.1"
   id="svg7"
   sodipodi:docname="draw-star.svg"
   inkscape:version="1.1.2 (0a00cf5339, 2022-02-04)"
   xmlns:inkscape="http://www.inkscape.org/namespaces/inkscape"
   xmlns:sodipodi="http://sodipodi.sourceforge.net/DTD/sodipodi-0.dtd"
   xmlns="http://www.w3.org/2000/svg"
   xmlns:svg="http://www.w3.org/2000/svg">
  <sodipodi:namedview
     id="namedview9"
     pagecolor="#000000"
     bordercolor="#666666"
     borderopacity="1.0"
     inkscape:pageshadow="2"
     inkscape:pageopacity="0"
     inkscape:pagecheckerboard="0"
     showgrid="false"
     inkscape:zoom="47.125"
     inkscape:cx="7.9893899"
     inkscape:cy="8"
     inkscape:window-width="1770"
     inkscape:window-height="966"
     inkscape:window-x="0"
     inkscape:window-y="29"
     inkscape:window-maximized="1"
     inkscape:current-layer="svg7" />
  <defs
     id="defs3">
    <style
       id="current-color-scheme"
       type="text/css">.ColorScheme-Text { color:#dedede; }</style>
  </defs>
  <path
     d="M 8.002,0.36523 C 7.7944103,0.36435061 7.6078657,0.49182175 7.53325,0.68554 l -1.8711,4.8535 -5.1875,0.27344 C 0.01492695,5.8336536 -0.17451549,6.4121424 0.18363,6.70115 l 4.0352,3.2832 -1.334,5.0215 c -0.1191468,0.443075 0.3714343,0.799286 0.75586,0.54883 l 4.3594,-2.8242 4.3594,2.8242 c 0.384426,0.250456 0.875007,-0.105755 0.75586,-0.54883 l -1.334,-5.0215 4.0352,-3.2832 C 16.174695,6.4121424 15.985253,5.8336536 15.52553,5.81248 L 10.33803,5.53904 8.46693,0.68554 C 8.3928275,0.49315558 8.2082511,0.36596849 8.00209,0.36523 Z m 0.1796219,2.3614301 v 0 L 9.5215469,6.20113 c 0.070552,0.1840489 0.2426398,0.3094819 0.43945,0.32031 l 3.5159191,0.1857394 0.236874,0.4132513 v 0 L 10.900397,9.4121 c -0.152416,0.1239552 -0.218129,0.3256735 -0.16797,0.51562 l 0.916396,3.452549 v 0 L 11.258265,13.650062 8.2715269,11.71482 c -0.165229,-0.106819 -0.377741,-0.106819 -0.54297,0 l -2.8764223,1.863763 v 0 L 4.3970334,13.207818 5.2676569,9.92772 C 5.3178154,9.7377735 5.252103,9.5360552 5.0996869,9.4121 L 2.3249361,7.1519073 v 0 L 2.5273628,6.7069578 6.0390869,6.52144 C 6.2358971,6.5106119 6.4079853,6.3851789 6.4785369,6.20113 L 7.8195961,2.7237418 Z"
     style="fill:currentColor"
     class="ColorScheme-Text"
     id="path5"
     sodipodi:nodetypes="scccccccccccccccsscccccccccccccccccccccccccc" />
</svg>
