<?xml version="1.0" encoding="UTF-8" standalone="no"?>
<svg
   width="18"
   height="18"
   version="1.1"
   id="svg9"
   sodipodi:docname="draw-path.svg"
   inkscape:version="1.1.2 (0a00cf5339, 2022-02-04)"
   xmlns:inkscape="http://www.inkscape.org/namespaces/inkscape"
   xmlns:sodipodi="http://sodipodi.sourceforge.net/DTD/sodipodi-0.dtd"
   xmlns="http://www.w3.org/2000/svg"
   xmlns:svg="http://www.w3.org/2000/svg">
  <sodipodi:namedview
     id="namedview11"
     pagecolor="#000000"
     bordercolor="#666666"
     borderopacity="1.0"
     inkscape:pageshadow="2"
     inkscape:pageopacity="0"
     inkscape:pagecheckerboard="0"
     showgrid="false"
     inkscape:zoom="41.888889"
     inkscape:cx="8.9880637"
     inkscape:cy="9"
     inkscape:window-width="1770"
     inkscape:window-height="966"
     inkscape:window-x="0"
     inkscape:window-y="29"
     inkscape:window-maximized="1"
     inkscape:current-layer="g7" />
  <defs
     id="defs3">
    <style
       id="current-color-scheme"
       type="text/css">
   .ColorScheme-Text { color:#eeeeec; } .ColorScheme-Highlight { color:#367bf0; } .ColorScheme-NeutralText { color:#ffcc44; } .ColorScheme-PositiveText { color:#3db47e; } .ColorScheme-NegativeText { color:#dd4747; }
  </style>
  </defs>
  <g
     transform="translate(1,1)"
     id="g7">
    <path
       style="fill:currentColor"
       class="ColorScheme-Text"
       d="m 12.145,1.0117 c -0.118,0.0235 -0.243,0.086 -0.368,0.211 L 10.176162,2.8238085 10.15654,3.15654 v 0 l 2.661635,2.6616347 0.345942,0.017681 v 0 L 14.777,4.2227 c 0.5,-0.5 0,-1 0,-1 l -2,-2 c 0,0 -0.281,-0.28129 -0.632,-0.211 z M 9.1922077,4.1922077 8.8033511,4.1966489 1.164328,11.835672 1,12.25476 v 0 2.339196 0 L 1.4643267,15 H 15 V 13 H 6.3579403 v 0 L 6.265244,12.734756 11.80359,7.19641 v 0 l 0.03862,-0.3541987 z"
       id="path5"
       sodipodi:nodetypes="ccccccccccccccccccccccccccccc" />
  </g>
</svg>
