<?xml version="1.0" encoding="UTF-8" standalone="no"?>
<svg
   width="18"
   height="18"
   version="1.1"
   id="svg9"
   sodipodi:docname="draw-geometry-line-perpendicular.svg"
   inkscape:version="1.1.2 (0a00cf5339, 2022-02-04)"
   xmlns:inkscape="http://www.inkscape.org/namespaces/inkscape"
   xmlns:sodipodi="http://sodipodi.sourceforge.net/DTD/sodipodi-0.dtd"
   xmlns="http://www.w3.org/2000/svg"
   xmlns:svg="http://www.w3.org/2000/svg">
  <sodipodi:namedview
     id="namedview11"
     pagecolor="#ffffff"
     bordercolor="#666666"
     borderopacity="1.0"
     inkscape:pageshadow="2"
     inkscape:pageopacity="0.0"
     inkscape:pagecheckerboard="0"
     showgrid="false"
     inkscape:zoom="41.888889"
     inkscape:cx="9"
     inkscape:cy="9"
     inkscape:window-width="1745"
     inkscape:window-height="966"
     inkscape:window-x="0"
     inkscape:window-y="29"
     inkscape:window-maximized="1"
     inkscape:current-layer="g7" />
  <defs
     id="defs3">
    <style
       id="current-color-scheme"
       type="text/css">
   .ColorScheme-Text { color:#eeeeec; } .ColorScheme-Highlight { color:#367bf0; } .ColorScheme-NeutralText { color:#ffcc44; } .ColorScheme-PositiveText { color:#3db47e; } .ColorScheme-NegativeText { color:#dd4747; }
  </style>
  </defs>
  <g
     transform="translate(1,1)"
     id="g7">
    <path
       style="fill:currentColor"
       class="ColorScheme-Text"
       d="M 2.7422,1 C 2.1033,1 1.7663,1.7601 2.1855,2.2422 l 5.044366,6.0074717 -0.059859,0.296802 v 0 L 4.3164,10.639 c -0.8152,0.595 0.1123,1.779 0.8867,1.211 L 8.1383764,9.6958359 v 0 L 8.4863022,9.7449896 12.67,14.727 c 0.613,0.766 1.781,-0.249 1.148,-0.965 L 9.6938849,8.8500893 v 0 L 9.7293514,8.5298536 12.686,6.3613 C 13.265,5.9498 12.99,5 12.268,5 12.099,5 11.934,5.0501 11.799,5.1523 L 8.7644339,7.3780688 v 0 L 8.4511155,7.3710246 3.334,1.2773 C 3.1895,1.0992 2.9721,1 2.7422,1 Z"
       id="path5"
       sodipodi:nodetypes="scccccccccccccccscccccs" />
  </g>
</svg>
