<?xml version="1.0" encoding="UTF-8" standalone="no"?>
<svg
   width="18"
   height="18"
   version="1.1"
   id="svg9"
   sodipodi:docname="format-text-direction-r2l.svg"
   inkscape:version="1.1.2 (0a00cf5339, 2022-02-04)"
   xmlns:inkscape="http://www.inkscape.org/namespaces/inkscape"
   xmlns:sodipodi="http://sodipodi.sourceforge.net/DTD/sodipodi-0.dtd"
   xmlns="http://www.w3.org/2000/svg"
   xmlns:svg="http://www.w3.org/2000/svg">
  <sodipodi:namedview
     id="namedview11"
     pagecolor="#000000"
     bordercolor="#666666"
     borderopacity="1.0"
     inkscape:pageshadow="2"
     inkscape:pageopacity="0"
     inkscape:pagecheckerboard="0"
     showgrid="false"
     inkscape:zoom="41.888889"
     inkscape:cx="9"
     inkscape:cy="9"
     inkscape:window-width="1745"
     inkscape:window-height="966"
     inkscape:window-x="0"
     inkscape:window-y="29"
     inkscape:window-maximized="1"
     inkscape:current-layer="g7" />
  <defs
     id="defs3">
    <style
       id="current-color-scheme"
       type="text/css">
   .ColorScheme-Text { color:#eeeeec; } .ColorScheme-Highlight { color:#367bf0; } .ColorScheme-NeutralText { color:#ffcc44; } .ColorScheme-PositiveText { color:#3db47e; } .ColorScheme-NegativeText { color:#dd4747; }
  </style>
  </defs>
  <g
     transform="translate(1,1)"
     id="g7">
    <path
       style="fill:currentColor"
       class="ColorScheme-Text"
       d="M 11.547,3 9,10 h 1 l 0.728,-2 h 2.543 L 14,10 h 1 L 12.453,3 Z m 0.57478,1.8352984 v 0 L 12.822898,6.7656872 12.636475,7 V 7 H 11.370919 V 7 L 11.165354,6.7980353 11.897173,4.7831128 Z M 9,3 V 4 H 5 V 3 Z M 3,3.5413087 v 0 2.9125783 0 L 2.538576,6.692384 0.46175553,5.307837 v 0 L 0.43649403,4.709004 2.6123438,3.2584374 Z M 8,6 V 7 H 5 V 6 Z M 7,9 v 1 H 5 V 9 Z M 3,9.5331887 v 0 2.8647363 0 L 2.5237107,12.682474 0.33099064,11.22066 v 0 L 0.37418019,10.750547 2.5886117,9.2742589 Z M 15,12 v 1 H 5 v -1 z"
       id="path5"
       sodipodi:nodetypes="ccccccccccccccccccccccccccccccccccccccccccccccccccccccccccc" />
  </g>
</svg>
