<?xml version="1.0" encoding="UTF-8" standalone="no"?>
<svg
   width="18"
   height="18"
   version="1.1"
   id="svg9"
   sodipodi:docname="format-text-direction-horizontal.svg"
   inkscape:version="1.1.2 (0a00cf5339, 2022-02-04)"
   xmlns:inkscape="http://www.inkscape.org/namespaces/inkscape"
   xmlns:sodipodi="http://sodipodi.sourceforge.net/DTD/sodipodi-0.dtd"
   xmlns="http://www.w3.org/2000/svg"
   xmlns:svg="http://www.w3.org/2000/svg">
  <sodipodi:namedview
     id="namedview11"
     pagecolor="#000000"
     bordercolor="#666666"
     borderopacity="1.0"
     inkscape:pageshadow="2"
     inkscape:pageopacity="0"
     inkscape:pagecheckerboard="0"
     showgrid="false"
     inkscape:zoom="41.888889"
     inkscape:cx="9"
     inkscape:cy="9"
     inkscape:window-width="1745"
     inkscape:window-height="966"
     inkscape:window-x="0"
     inkscape:window-y="29"
     inkscape:window-maximized="1"
     inkscape:current-layer="g7" />
  <defs
     id="defs3">
    <style
       id="current-color-scheme"
       type="text/css">
   .ColorScheme-Text { color:#eeeeec; } .ColorScheme-Highlight { color:#367bf0; } .ColorScheme-NeutralText { color:#ffcc44; } .ColorScheme-PositiveText { color:#3db47e; } .ColorScheme-NegativeText { color:#dd4747; }
  </style>
  </defs>
  <g
     transform="translate(1,1)"
     id="g7">
    <path
       style="fill:currentColor"
       class="ColorScheme-Text"
       d="M 3.547,3 1,10 H 2 L 2.728,8 H 5.271 L 6,10 H 7 L 4.453,3 Z M 3.8975272,4.7821387 4.1089025,4.7998416 4.8050852,6.7166443 4.6153556,7 V 7 H 3.3974731 V 7 L 3.1985298,6.706691 Z M 7,3 v 1 h 4 V 3 Z m 6,0.5413087 v 0 2.8408153 l 0.479291,0.2983484 v 0 l 2.121261,-1.4141741 0.01979,-0.5194046 v 0 L 13.432928,3.2886184 Z M 8,6 v 1 h 3 V 6 Z m 1,3 v 1 h 2 V 9 Z m 4,0.4853457 v 0 2.8886583 l 0.516517,0.281651 v 0 l 2.10439,-1.402926 v 0 L 15.550441,10.700294 13.346678,9.2311185 Z M 1,12 v 1 h 10 v -1 z"
       id="path5"
       sodipodi:nodetypes="ccccccccccccccccccccccccccccccccccccccccccccccccccccccccccc" />
  </g>
</svg>
