<?xml version="1.0" encoding="UTF-8" standalone="no"?>
<svg
   width="18"
   height="18"
   version="1.1"
   id="svg9"
   sodipodi:docname="grid-axonometric.svg"
   inkscape:version="1.1.2 (0a00cf5339, 2022-02-04)"
   xmlns:inkscape="http://www.inkscape.org/namespaces/inkscape"
   xmlns:sodipodi="http://sodipodi.sourceforge.net/DTD/sodipodi-0.dtd"
   xmlns="http://www.w3.org/2000/svg"
   xmlns:svg="http://www.w3.org/2000/svg">
  <sodipodi:namedview
     id="namedview11"
     pagecolor="#000000"
     bordercolor="#666666"
     borderopacity="1.0"
     inkscape:pageshadow="2"
     inkscape:pageopacity="0"
     inkscape:pagecheckerboard="0"
     showgrid="false"
     inkscape:zoom="41.888889"
     inkscape:cx="9"
     inkscape:cy="9.0119363"
     inkscape:window-width="1920"
     inkscape:window-height="1051"
     inkscape:window-x="0"
     inkscape:window-y="29"
     inkscape:window-maximized="1"
     inkscape:current-layer="g7" />
  <defs
     id="defs3">
    <style
       id="current-color-scheme"
       type="text/css">
   .ColorScheme-Text { color:#eeeeec; } .ColorScheme-Highlight { color:#367bf0; } .ColorScheme-NeutralText { color:#ffcc44; } .ColorScheme-PositiveText { color:#3db47e; } .ColorScheme-NegativeText { color:#dd4747; }
  </style>
  </defs>
  <g
     transform="translate(1,1)"
     id="g7">
    <path
       style="fill:currentColor"
       class="ColorScheme-Text"
       d="M 7,0 6.5,0.5 7,1 4.7422612,3.2577388 v 0 L 4.2946154,3.2946154 2,1 C 2,1 1.5,0.5 1,1 0.5,1.5 1,2 1,2 l 2.2965063,2.2965063 -0.017739,0.4247265 v 0 L 1,7 0.5,6.5 0,7 V 9 L 0.5,9.5 1,9 3.2910226,11.291023 2.9731793,11.5 3.2909188,11.709081 1,14 c 0,0 -0.5,0.5 0,1 0.5,0.5 1,0 1,0 L 4.5,12.5 7,15 6.5,15.5 7,16 H 9 L 9.5,15.5 9,15 11.321277,12.678723 v 0 L 11.72861,12.72861 14,15 c 0,0 0.5,0.5 1,0 0.5,-0.5 0,-1 0,-1 l -2.314561,-2.314561 v 0 L 12.663913,11.336087 15,9 15.5,9.5 16,9 V 7 L 15.5,6.5 15,7 12.5,4.5 15,2 c 0,0 0.5,-0.5 0,-1 -0.5,-0.5 -1,0 -1,0 l -2.325707,2.3257075 v 0 L 11.307017,3.3070169 9,1 9.5,0.5 9,0 Z M 7.8523509,2.1476491 8.2003663,2.2003661 10.3249,4.3248994 10.3166,4.6833705 v 0 L 8.1801364,6.8198636 v 0 L 7.8366167,6.8366167 5.6405673,4.6405673 v 0 L 5.6563023,4.3436977 Z M 11.68573,5.6857297 v 0 l 2.160315,2.1603154 0.03045,0.277461 v 0 l -2.21997,2.2199699 v 0 l -0.322616,-0.0096 -2.1721617,-2.1721617 -0.00547,-0.3180275 v 0 L 11.328558,5.6714423 Z m -7.3661633,-0.0053 0.3567845,-0.00408 2.1484205,2.1484205 v 0 L 6.8910034,8.1089966 4.6352501,10.36475 v 0 L 4.3248843,10.324884 2.1643617,8.1643617 2.0992415,7.9007585 v 0 z m 3.8780287,3.5171621 v 0 l 2.1125396,2.1125392 v 0 l -0.02643,0.406164 -2.1364614,2.136461 -0.2774621,0.01702 v 0 l -2.18427,-2.18427 -0.014655,-0.35636 v 0 L 7.8312998,9.1687002 Z"
       id="path5"
       sodipodi:nodetypes="cccccccsccccccccccccccsccccccccccccsccccccccccccscccccccccccccccccccccccccccccccccccccccccccccccccccccccccc" />
  </g>
</svg>
