<?xml version="1.0" encoding="UTF-8" standalone="no"?>
<svg
   width="18"
   height="18"
   version="1.1"
   id="svg9"
   sodipodi:docname="node-delete-segment.svg"
   inkscape:version="1.1.2 (0a00cf5339, 2022-02-04)"
   xmlns:inkscape="http://www.inkscape.org/namespaces/inkscape"
   xmlns:sodipodi="http://sodipodi.sourceforge.net/DTD/sodipodi-0.dtd"
   xmlns="http://www.w3.org/2000/svg"
   xmlns:svg="http://www.w3.org/2000/svg">
  <sodipodi:namedview
     id="namedview11"
     pagecolor="#000000"
     bordercolor="#666666"
     borderopacity="1.0"
     inkscape:pageshadow="2"
     inkscape:pageopacity="0"
     inkscape:pagecheckerboard="0"
     showgrid="false"
     inkscape:zoom="41.888889"
     inkscape:cx="8.9880637"
     inkscape:cy="9"
     inkscape:window-width="1770"
     inkscape:window-height="966"
     inkscape:window-x="0"
     inkscape:window-y="29"
     inkscape:window-maximized="1"
     inkscape:current-layer="g7" />
  <defs
     id="defs3">
    <style
       id="current-color-scheme"
       type="text/css">
   .ColorScheme-Text { color:#eeeeec; } .ColorScheme-Highlight { color:#367bf0; } .ColorScheme-NeutralText { color:#ffcc44; } .ColorScheme-PositiveText { color:#3db47e; } .ColorScheme-NegativeText { color:#dd4747; }
  </style>
  </defs>
  <g
     transform="translate(1,1)"
     id="g7">
    <path
       style="fill:currentColor"
       class="ColorScheme-Text"
       d="M 1,0 V 2 H 0.5 C 0,2 0,2.5 0,2.5 0,2.5 0,3 0.5,3 H 1 V 5 H 5 V 3 h 5 v 2 h 4 V 3 h 0.5 C 15,3 15,2.5 15,2.5 15,2.5 15,2 14.5,2 H 14 V 0 H 10 V 2 H 5 V 0 Z M 7,5 V 7 H 5.6177736 L 5.4014178,7.4817013 v 0 l 1.7218591,2.0662309 v 0 L 7.9053366,9.5135961 9.5820221,7.5015735 v 0 L 9.2702527,7 H 8 V 5 Z m -6,6 v 2 H 0.5 C 0,13 0,13.5 0,13.5 0,13.5 0,14 0.5,14 H 1 v 2 h 4 v -5 z m 9,0 v 5 h 4 v -2 h 0.5 C 15,14 15,13.5 15,13.5 15,13.5 15,13 14.5,13 H 14 v -2 z"
       id="path5"
       sodipodi:nodetypes="ccscsccccccccscscccccccccccccccccccccccscscccccccccscsccc" />
  </g>
</svg>
