<?xml version="1.0" encoding="UTF-8" standalone="no"?>
<svg
   width="18"
   height="18"
   version="1.1"
   id="svg9"
   sodipodi:docname="object-hidden.svg"
   inkscape:version="1.1.2 (0a00cf5339, 2022-02-04)"
   xmlns:inkscape="http://www.inkscape.org/namespaces/inkscape"
   xmlns:sodipodi="http://sodipodi.sourceforge.net/DTD/sodipodi-0.dtd"
   xmlns="http://www.w3.org/2000/svg"
   xmlns:svg="http://www.w3.org/2000/svg">
  <sodipodi:namedview
     id="namedview11"
     pagecolor="#000000"
     bordercolor="#666666"
     borderopacity="1.0"
     inkscape:pageshadow="2"
     inkscape:pageopacity="0"
     inkscape:pagecheckerboard="0"
     showgrid="false"
     inkscape:zoom="41.888889"
     inkscape:cx="8.9880637"
     inkscape:cy="9"
     inkscape:window-width="1770"
     inkscape:window-height="966"
     inkscape:window-x="0"
     inkscape:window-y="29"
     inkscape:window-maximized="1"
     inkscape:current-layer="g7" />
  <defs
     id="defs3">
    <style
       id="current-color-scheme"
       type="text/css">
   .ColorScheme-Text { color:#eeeeec; } .ColorScheme-Highlight { color:#367bf0; } .ColorScheme-NeutralText { color:#ffcc44; } .ColorScheme-PositiveText { color:#3db47e; } .ColorScheme-NegativeText { color:#dd4747; }
  </style>
  </defs>
  <g
     transform="translate(1,1)"
     id="g7">
    <path
       style="fill:currentColor"
       class="ColorScheme-Text"
       d="M 8,3 C 2.9215812,3 0.70875546,6.5819913 0.1487993,7.6823566 0.047184,7.88204 0.13876317,8.2978383 0.13876317,8.2978383 c 0,0 -0.09468965,-0.1876545 0,0 C 0.68193836,9.3742945 2.890687,13 8,13 c 5.04276,0 7.260028,-3.5318644 7.83916,-4.6588123 0.109934,-0.2139225 0.01891,-0.6452984 0.01891,-0.6452984 0,0 0.09688,0.1914692 0,0 C 15.30951,6.6116987 13.099434,3 8,3 Z m 0,2 c 1.6568542,0 3,1.3431458 3,3 0,1.6568542 -1.3431458,3 -3,3 C 6.3431458,11 5,9.6568542 5,8 5,6.3431458 6.3431458,5 8,5 Z M 8,7 C 7.4477153,7 7,7.4477153 7,8 7,8.5522847 7.4477153,9 8,9 8.5522847,9 9,8.5522847 9,8 9,7.4477153 8.5522847,7 8,7 Z"
       id="path5"
       sodipodi:nodetypes="sscssscssssssssssss" />
  </g>
</svg>
