<?xml version="1.0" encoding="UTF-8" standalone="no"?>
<svg
   width="18"
   height="18"
   version="1.1"
   id="svg11"
   sodipodi:docname="path-reverse.svg"
   inkscape:version="1.1.2 (0a00cf5339, 2022-02-04)"
   xmlns:inkscape="http://www.inkscape.org/namespaces/inkscape"
   xmlns:sodipodi="http://sodipodi.sourceforge.net/DTD/sodipodi-0.dtd"
   xmlns="http://www.w3.org/2000/svg"
   xmlns:svg="http://www.w3.org/2000/svg">
  <sodipodi:namedview
     id="namedview13"
     pagecolor="#000000"
     bordercolor="#666666"
     borderopacity="1.0"
     inkscape:pageshadow="2"
     inkscape:pageopacity="0"
     inkscape:pagecheckerboard="0"
     showgrid="false"
     inkscape:zoom="41.888889"
     inkscape:cx="8.9880637"
     inkscape:cy="9"
     inkscape:window-width="1770"
     inkscape:window-height="966"
     inkscape:window-x="0"
     inkscape:window-y="29"
     inkscape:window-maximized="1"
     inkscape:current-layer="g9" />
  <defs
     id="defs3">
    <style
       id="current-color-scheme"
       type="text/css">
   .ColorScheme-Text { color:#eeeeec; } .ColorScheme-Highlight { color:#367bf0; } .ColorScheme-NeutralText { color:#ffcc44; } .ColorScheme-PositiveText { color:#3db47e; } .ColorScheme-NegativeText { color:#dd4747; }
  </style>
  </defs>
  <g
     transform="translate(1,1)"
     id="g9">
    <path
       style="fill:currentColor"
       class="ColorScheme-Text"
       d="M 14,1.5 V 3 C 14,8 9,8 9,8 H 6 C 6,8 0,8 0,14 V 15.5 C 0,15.5 0,16 0.5,16 1,16 1,15.5 1,15.5 V 14 C 1,9 6,9 6,9 H 9 C 9,9 15,9 15,3 V 1.5 C 15,1.5 15,1 14.5,1 14,1 14,1.5 14,1.5 Z"
       id="path5" />
    <path
       style="fill:currentColor"
       class="ColorScheme-Text"
       d="m 11.511435,11.305353 v 0 l -3.0682751,1.917672 v 0 l 0.013505,0.562391 3.0897778,1.931111 L 12,15.525068 v 0 V 14 h 3 V 13 H 12 V 11.633899 Z M 3.3640098,1.2275061 3,1.4884416 V 3 H 0 v 1 h 3 v 1.4988546 0 L 3.6057721,5.6213925 6.5153083,3.8029323 6.5375041,3.2109401 v 0 z M 5,6 h 5 v 5 H 5 Z"
       id="path7"
       sodipodi:nodetypes="cccccccccccccccccccccccccccccccc" />
  </g>
</svg>
