<?xml version="1.0" encoding="UTF-8" standalone="no"?>
<svg
   width="18"
   height="18"
   version="1.1"
   id="svg11"
   sodipodi:docname="path-effect-parameter-next.svg"
   inkscape:version="1.1.2 (0a00cf5339, 2022-02-04)"
   xmlns:inkscape="http://www.inkscape.org/namespaces/inkscape"
   xmlns:sodipodi="http://sodipodi.sourceforge.net/DTD/sodipodi-0.dtd"
   xmlns="http://www.w3.org/2000/svg"
   xmlns:svg="http://www.w3.org/2000/svg">
  <sodipodi:namedview
     id="namedview13"
     pagecolor="#000000"
     bordercolor="#666666"
     borderopacity="1.0"
     inkscape:pageshadow="2"
     inkscape:pageopacity="0"
     inkscape:pagecheckerboard="0"
     showgrid="false"
     inkscape:zoom="41.888889"
     inkscape:cx="8.9880637"
     inkscape:cy="9"
     inkscape:window-width="1770"
     inkscape:window-height="966"
     inkscape:window-x="0"
     inkscape:window-y="29"
     inkscape:window-maximized="1"
     inkscape:current-layer="g9" />
  <defs
     id="defs3">
    <style
       id="current-color-scheme"
       type="text/css">
   .ColorScheme-Text { color:#eeeeec; } .ColorScheme-Highlight { color:#367bf0; } .ColorScheme-NeutralText { color:#ffcc44; } .ColorScheme-PositiveText { color:#3db47e; } .ColorScheme-NegativeText { color:#dd4747; }
  </style>
  </defs>
  <g
     transform="translate(1,1)"
     id="g9">
    <path
       style="fill:currentColor"
       class="ColorScheme-Text"
       d="M 13,1.5 C 9.4048,1.5 6.5065,2.5365 4.5215,4.5215 2.5365,6.5065 1.5,9.4048 1.5,13 H 2.5 C 2.5,9.5952 3.4635,6.9935 5.2285,5.2285 6.9935,3.4635 9.5952,2.5 13,2.5 Z"
       id="path5" />
    <path
       style="fill:currentColor"
       class="ColorScheme-Text"
       d="m 0.16714312,5.4332468 c -0.0484665,0.1104652 0.0366854,-0.1144099 0,0 C 0.05680569,5.777354 1.9943138e-4,6.1371852 0,6.5 0,8.4329966 1.5670034,10 3.5,10 4.9947508,9.998318 6.3080155,9.0504028 6.796262,7.6660602 6.8376742,7.5486428 6.5623837,7.4280857 6.5915326,7.3047 6.5014662,7.361584 6.7203791,7.4151253 6.626926,7.465269 5.9743592,7.8154138 5.243852,7.9998894 4.5,8 2.7485883,7.9990263 1.1685629,6.9836622 0.43152422,5.4177581 0.38213711,5.3128308 0.20875814,5.5429784 0.16714312,5.4332468 Z M 5.7626773,0.70422334 c -0.083783,0.0628372 0.074344,-0.0718366 0,0 C 5.2789105,1.1716705 5.0005317,1.8185216 5,2.5 5,3.8807119 6.1192881,5 7.5,5 c 0.705007,-0.0011 1.3727567,-0.2995392 1.8429693,-0.81502 0.0537,-0.058869 -0.095757,-0.1264445 -0.047448,-0.1908555 -0.067322,-7.5e-5 0.06638,0.00383 0,0 C 7.555544,3.8938609 6.1565151,2.5227414 6.0122679,0.7951095 6.0041976,0.69845224 5.7627322,0.80295237 5.7626773,0.70422334 Z M 4,14 c 0,1.104569 -0.8954305,2 -2,2 -1.1045695,0 -2,-0.895431 -2,-2 0,-1.104569 0.8954305,-2 2,-2 1.1045695,0 2,0.895431 2,2 z M 16,2 c 0,1.1045695 -0.895431,2 -2,2 -1.104569,0 -2,-0.8954305 -2,-2 0,-1.1045695 0.895431,-2 2,-2 1.104569,0 2,0.8954305 2,2 z m -1,5 h 1 v 9 h -1 v -3.578154 0 0 -1.838303 0 0 z M 9,7.6713274 9.5687437,7.365621 14.749887,10.696356 15,10.583543 16,11.5 15,12.421846 14.786078,12.280379 v 0 l -5.1967422,3.340762 v 0 L 9,15.214818 Z"
       id="path7"
       sodipodi:nodetypes="csccscscsccsccscsscssssssssssccccccccccccccccccccccc" />
  </g>
</svg>
