<?xml version="1.0" encoding="UTF-8" standalone="no"?>
<svg
   width="18"
   height="18"
   version="1.1"
   id="svg110"
   sodipodi:docname="selection-make-bitmap-copy.svg"
   inkscape:version="1.1.2 (0a00cf5339, 2022-02-04)"
   xmlns:inkscape="http://www.inkscape.org/namespaces/inkscape"
   xmlns:sodipodi="http://sodipodi.sourceforge.net/DTD/sodipodi-0.dtd"
   xmlns="http://www.w3.org/2000/svg"
   xmlns:svg="http://www.w3.org/2000/svg">
  <sodipodi:namedview
     id="namedview112"
     pagecolor="#2d2d2d"
     bordercolor="#666666"
     borderopacity="1.0"
     inkscape:pageshadow="2"
     inkscape:pageopacity="0"
     inkscape:pagecheckerboard="0"
     showgrid="false"
     inkscape:zoom="41.888889"
     inkscape:cx="8.9880637"
     inkscape:cy="9"
     inkscape:window-width="1770"
     inkscape:window-height="966"
     inkscape:window-x="0"
     inkscape:window-y="29"
     inkscape:window-maximized="1"
     inkscape:current-layer="g108" />
  <defs
     id="defs104">
    <style
       id="current-color-scheme"
       type="text/css">
   .ColorScheme-Text { color:#eeeeec; } .ColorScheme-Highlight { color:#367bf0; } .ColorScheme-NeutralText { color:#ffcc44; } .ColorScheme-PositiveText { color:#3db47e; } .ColorScheme-NegativeText { color:#dd4747; }
  </style>
  </defs>
  <g
     transform="translate(1,1)"
     id="g108">
    <path
       style="fill:currentColor"
       class="ColorScheme-Text"
       d="M 2,2 C 1,2 1,3 1,3 v 10 c 0,1 1,1 1,1 h 12 c 0,0 1,0 1,-1 V 3 C 15,2 14,2 14,2 Z m 3.8063466,4.9093075 v 0 l 2.7904727,3.1590255 0.4797996,-0.01218 v 0 L 10.711616,8.4692401 v 0 l 0.511321,0.066197 1.635201,1.6352009 v 0 L 13,10.488221 v 1.169598 L 12.684177,12 v 0 l -9.3339714,0 v 0 L 3,11.562498 v -1.8143823 0 L 3.1898258,9.2769547 5.1652819,6.9557938 Z"
       id="path106"
       sodipodi:nodetypes="scsccsscscccccccccccccccccccccc" />
  </g>
</svg>
