<?xml version="1.0" encoding="UTF-8" standalone="no"?>
<svg
   width="18"
   height="18"
   version="1.1"
   id="svg9"
   sodipodi:docname="snap-nodes-path.svg"
   inkscape:version="1.1.2 (0a00cf5339, 2022-02-04)"
   xmlns:inkscape="http://www.inkscape.org/namespaces/inkscape"
   xmlns:sodipodi="http://sodipodi.sourceforge.net/DTD/sodipodi-0.dtd"
   xmlns="http://www.w3.org/2000/svg"
   xmlns:svg="http://www.w3.org/2000/svg">
  <sodipodi:namedview
     id="namedview11"
     pagecolor="#000000"
     bordercolor="#666666"
     borderopacity="1.0"
     inkscape:pageshadow="2"
     inkscape:pageopacity="0"
     inkscape:pagecheckerboard="0"
     showgrid="false"
     inkscape:zoom="45.944444"
     inkscape:cx="16.628779"
     inkscape:cy="9"
     inkscape:window-width="1920"
     inkscape:window-height="1051"
     inkscape:window-x="0"
     inkscape:window-y="29"
     inkscape:window-maximized="1"
     inkscape:current-layer="g7" />
  <defs
     id="defs3">
    <style
       id="current-color-scheme"
       type="text/css">
   .ColorScheme-Text { color:#eeeeec; } .ColorScheme-Highlight { color:#367bf0; } .ColorScheme-NeutralText { color:#ffcc44; } .ColorScheme-PositiveText { color:#3db47e; } .ColorScheme-NegativeText { color:#dd4747; }
  </style>
  </defs>
  <g
     transform="translate(1,1)"
     id="g7">
    <path
       style="fill:currentColor"
       class="ColorScheme-Text"
       d="M 1.0058594,1.4941406 1.0195312,1.5 C 0.37682684,1.4700579 0.29855614,2.4204885 0.9375,2.4960938 c 0,0 3.6861281,0.5151443 6.2988281,2.1777343 1.3064,0.83131 2.3077407,1.9094125 2.5566407,3.3203125 0.2489802,1.4109 -0.2323675,3.2612124 -2.1796876,5.6953124 -0.2566378,0.323774 -0.03219,0.801445 0.3808594,0.810547 3.6190004,0 5.5703564,-1.334591 6.5351564,-2.712891 0.96,-1.38 0.958984,-2.7910152 0.958984,-2.7910152 0.0096,-0.6761613 -1.009563,-0.6761613 -1,0 0,0 4.4e-5,1.0911902 -0.785156,2.2128902 -0.652787,0.932551 -2.040552,1.777896 -4.3825961,2.064807 -0.1168291,0.01431 0.1216055,-0.01147 0,0 C 9.3820418,13.183311 9.084449,13.131984 9.1430184,13.042398 10.447448,11.047189 11.019638,9.2756451 10.761719,7.8144531 10.448199,6.0378531 9.2014125,4.7428187 7.7578125,3.8242188 4.8705125,1.9868188 1.0546875,1.5 1.0546875,1.5 c -0.01617,-0.00275 -0.032466,-0.00471 -0.048828,-0.00586 z"
       id="path5"
       sodipodi:nodetypes="cccccccccccscscccc" />
  </g>
</svg>
