<?xml version="1.0" encoding="UTF-8" standalone="no"?>
<svg
   width="18"
   height="18"
   version="1.1"
   id="svg9"
   sodipodi:docname="snap-nodes-cusp.svg"
   inkscape:version="1.1.2 (0a00cf5339, 2022-02-04)"
   xmlns:inkscape="http://www.inkscape.org/namespaces/inkscape"
   xmlns:sodipodi="http://sodipodi.sourceforge.net/DTD/sodipodi-0.dtd"
   xmlns="http://www.w3.org/2000/svg"
   xmlns:svg="http://www.w3.org/2000/svg">
  <sodipodi:namedview
     id="namedview11"
     pagecolor="#000000"
     bordercolor="#666666"
     borderopacity="1.0"
     inkscape:pageshadow="2"
     inkscape:pageopacity="0"
     inkscape:pagecheckerboard="0"
     showgrid="false"
     inkscape:zoom="45.944444"
     inkscape:cx="16.628779"
     inkscape:cy="12.482467"
     inkscape:window-width="1920"
     inkscape:window-height="1051"
     inkscape:window-x="0"
     inkscape:window-y="29"
     inkscape:window-maximized="1"
     inkscape:current-layer="g7" />
  <defs
     id="defs3">
    <style
       id="current-color-scheme"
       type="text/css">
   .ColorScheme-Text { color:#eeeeec; } .ColorScheme-Highlight { color:#367bf0; } .ColorScheme-NeutralText { color:#ffcc44; } .ColorScheme-PositiveText { color:#3db47e; } .ColorScheme-NegativeText { color:#dd4747; }
  </style>
  </defs>
  <g
     transform="translate(1,1)"
     id="g7">
    <path
       style="fill:currentColor"
       class="ColorScheme-Text"
       d="m 1.0195312,1.5 c -0.016949,-2.101e-4 -0.0338982,4.418e-4 -0.0507812,0.00195 -0.6127345,0.03054 -0.64254377,0.9248181 -0.0332031,0.9960938 0,0 3.68612812,0.5131412 6.29882812,2.1757812 1.3064,0.83132 2.3077406,1.9094125 2.5566406,3.3203125 C 10.015866,9.2682406 9.6331,10.904753 8.125,13.001953 H 7.0019531 v 3 h 2.9999999 v -1.667969 c 2.3593,-0.3912 3.767556,-1.448421 4.535156,-2.544922 0.9648,-1.378299 0.964844,-2.7871089 0.964844,-2.7871089 0.0096,-0.6761613 -1.009563,-0.6761613 -1,0 0,0 4.4e-5,1.0911909 -0.785156,2.2128909 -0.58758,0.8394 -1.776444,1.604484 -3.714844,1.958984 V 13.001953 H 9.5334138 v 0 C 9.5942015,12.908296 9.2996612,12.815134 9.3572331,12.722476 10.51384,10.861001 11.019062,9.2029403 10.775391,7.8222656 10.461871,6.0456656 9.2132313,4.7487781 7.7695312,3.8300781 4.8822313,1.9926781 1.0683594,1.5058594 1.0683594,1.5058594 1.0521893,1.5031066 1.0358935,1.5011511 1.0195312,1.5 Z"
       id="path5"
       sodipodi:nodetypes="ccccccccccccccccccscccc" />
  </g>
</svg>
