<?xml version="1.0" encoding="UTF-8" standalone="no"?>
<svg
   width="18"
   height="18"
   version="1.1"
   id="svg13"
   sodipodi:docname="symbol-add.svg"
   inkscape:version="1.1.2 (0a00cf5339, 2022-02-04)"
   xmlns:inkscape="http://www.inkscape.org/namespaces/inkscape"
   xmlns:sodipodi="http://sodipodi.sourceforge.net/DTD/sodipodi-0.dtd"
   xmlns="http://www.w3.org/2000/svg"
   xmlns:svg="http://www.w3.org/2000/svg">
  <sodipodi:namedview
     id="namedview15"
     pagecolor="#434343"
     bordercolor="#666666"
     borderopacity="1.0"
     inkscape:pageshadow="2"
     inkscape:pageopacity="0"
     inkscape:pagecheckerboard="0"
     showgrid="false"
     inkscape:zoom="41.888889"
     inkscape:cx="9.0119363"
     inkscape:cy="9"
     inkscape:window-width="1770"
     inkscape:window-height="966"
     inkscape:window-x="0"
     inkscape:window-y="29"
     inkscape:window-maximized="1"
     inkscape:current-layer="g11" />
  <defs
     id="defs3">
    <style
       id="current-color-scheme"
       type="text/css">
   .ColorScheme-Text { color:#eeeeec; } .ColorScheme-Highlight { color:#367bf0; } .ColorScheme-NeutralText { color:#ffcc44; } .ColorScheme-PositiveText { color:#3db47e; } .ColorScheme-NegativeText { color:#dd4747; }
  </style>
  </defs>
  <g
     transform="translate(1,1)"
     id="g11">
    <path
       style="opacity:.35;fill:currentColor"
       class="ColorScheme-Text"
       d="M 15,10 A 5,5 0 0 1 10,15 5,5 0 0 1 5,10 5,5 0 0 1 10,5 5,5 0 0 1 15,10 Z"
       id="path5" />
    <path
       style="fill:currentColor"
       class="ColorScheme-Text"
       d="m 10,5 c -2.7614237,0 -5,2.2385763 -5,5 0,2.761424 2.2385763,5 5,5 2.761424,0 5,-2.238576 5,-5 0,-2.7614237 -2.238576,-5 -5,-5 z m 0,1 c 2.209139,0 4,1.790861 4,4 0,2.209139 -1.790861,4 -4,4 C 7.790861,14 6,12.209139 6,10 6,8.2122961 7.1727541,6.6985037 8.7908908,6.185994 9.172352,6.0651744 9.5785649,6 10,6 Z"
       id="path7"
       sodipodi:nodetypes="sssssssssss" />
    <path
       style="fill:currentColor"
       class="ColorScheme-Text"
       d="M 10.305606,0.40747526 9.6473212,0.47023842 7.3442647,3.5409804 7.5036526,4 V 4 H 9 v 4.7216823 0 L 8.6970912,9 H 2 v 2 h 8.77446 v 0 L 11,10.726708 V 4 h 1.516544 l 0.143894,-0.4527487 v 0 z"
       id="path9"
       sodipodi:nodetypes="ccccccccccccccccccc" />
  </g>
</svg>
