<?xml version="1.0" encoding="UTF-8" standalone="no"?>
<svg
   width="18"
   height="18"
   version="1.1"
   id="svg9"
   sodipodi:docname="text_vert_kern.svg"
   inkscape:version="1.1.2 (0a00cf5339, 2022-02-04)"
   xmlns:inkscape="http://www.inkscape.org/namespaces/inkscape"
   xmlns:sodipodi="http://sodipodi.sourceforge.net/DTD/sodipodi-0.dtd"
   xmlns="http://www.w3.org/2000/svg"
   xmlns:svg="http://www.w3.org/2000/svg">
  <sodipodi:namedview
     id="namedview11"
     pagecolor="#ffffff"
     bordercolor="#666666"
     borderopacity="1.0"
     inkscape:pageshadow="2"
     inkscape:pageopacity="0.0"
     inkscape:pagecheckerboard="0"
     showgrid="false"
     inkscape:zoom="41.888889"
     inkscape:cx="9"
     inkscape:cy="9"
     inkscape:window-width="1745"
     inkscape:window-height="966"
     inkscape:window-x="0"
     inkscape:window-y="29"
     inkscape:window-maximized="1"
     inkscape:current-layer="g7" />
  <defs
     id="defs3">
    <style
       id="current-color-scheme"
       type="text/css">
   .ColorScheme-Text { color:#eeeeec; } .ColorScheme-Highlight { color:#367bf0; } .ColorScheme-NeutralText { color:#ffcc44; } .ColorScheme-PositiveText { color:#3db47e; } .ColorScheme-NegativeText { color:#dd4747; }
  </style>
  </defs>
  <g
     transform="translate(1,1)"
     id="g7">
    <path
       style="fill:currentColor"
       class="ColorScheme-Text"
       d="m 0,9 v 1 h 7 v 6 h 9 V 15 H 8 V 9 Z M 12,5 9,13 h 1 l 0.77,-2 h 3.46 L 15,13 h 1 L 13,5 Z m 0.662053,1.9213861 v 0 L 13.710375,9.6473338 13.567049,10 v 0 h -2.028957 v 0 L 11.271319,9.6949362 12.336179,6.9259835 Z M 3,0 0,8 H 1 L 1.7695,6 h 3.461 L 6,8 H 7 L 4,0 Z m 0.6575709,1.9098224 v 0 l 1.099182,2.858837 v 0 L 4.5912017,5 H 2.5145715 V 5 L 2.2716178,4.6948708 3.3406612,1.9144206 Z"
       id="path5"
       sodipodi:nodetypes="ccccccccccccccccccccccccccccccccccccccccccccccc" />
  </g>
</svg>
