<?xml version="1.0" encoding="UTF-8" standalone="no"?>
<svg
   width="16"
   height="16"
   version="1.1"
   id="svg4"
   sodipodi:docname="applications-games-symbolic.svg"
   inkscape:version="1.1.2 (0a00cf5339, 2022-02-04)"
   xmlns:inkscape="http://www.inkscape.org/namespaces/inkscape"
   xmlns:sodipodi="http://sodipodi.sourceforge.net/DTD/sodipodi-0.dtd"
   xmlns="http://www.w3.org/2000/svg"
   xmlns:svg="http://www.w3.org/2000/svg">
  <defs
     id="defs8" />
  <sodipodi:namedview
     id="namedview6"
     pagecolor="#ffffff"
     bordercolor="#666666"
     borderopacity="1.0"
     inkscape:pageshadow="2"
     inkscape:pageopacity="0.0"
     inkscape:pagecheckerboard="0"
     showgrid="false"
     inkscape:zoom="146.19433"
     inkscape:cx="4.0083635"
     inkscape:cy="8.0030465"
     inkscape:window-width="714"
     inkscape:window-height="836"
     inkscape:window-x="720"
     inkscape:window-y="31"
     inkscape:window-maximized="1"
     inkscape:current-layer="svg4" />
  <path
     style="fill:#5c616c"
     d="M 12.236,1.994 C 11.995,1.9952 11.773,2.0708 11.564,2.2186 11.037,2.5949 9.9387,2.9983 8,2.9999 6.0613,2.9999 4.9627,2.5949 4.4355,2.2186 4.2272,2.0708 4.0275,1.9988 3.7852,1.9999 3.5428,2.0009 3.2634,2.0658 2.9785,2.2186 1.9411,2.7651 0.98745,4.5547 0.46875,6.8749 0.02659,8.8458 -0.13665,11.541 0.12695,12.625 0.35653,13.557 0.75324,13.969 1.459,13.969 2.5049,13.951 3.819,12.786 4.6523,11.219 5.255,10.351 6.6529,9.9562 8,9.9999 c 1.347,-0.047 2.745,0.3511 3.348,1.2191 0.833,1.567 2.147,2.732 3.193,2.75 0.706,0 1.102,-0.412 1.332,-1.344 0.264,-1.084 0.1,-3.7792 -0.342,-5.7501 C 15.013,4.5547 14.059,2.7651 13.021,2.2186 12.737,2.0664 12.477,1.9929 12.236,1.994 Z M 4.0332,4.9999 h 0.9922 v 0.874054 0 L 5.1577652,5.9999 H 6.0156 v 1 H 5.1325845 L 5.0254,7.1272626 v 0 V 7.9999 H 4.0332 V 7.1162765 L 3.9568632,6.9999 v 0 H 3.041 v -1 h 0.8663242 v 0 L 4.0332,5.8781479 Z m 7.4378,0 c 0.274,0 0.496,0.2239 0.496,0.5 0,0.2762 -0.222,0.5 -0.496,0.5 -0.274,0 -0.494,-0.2238 -0.494,-0.5 0,-0.2761 0.22,-0.5 0.494,-0.5 z m -0.991,1 c 0.274,0 0.497,0.2239 0.497,0.5 0,0.2762 -0.223,0.5 -0.497,0.5 -0.273,0 -0.4956,-0.2238 -0.4956,-0.5 0,-0.2761 0.2226,-0.5 0.4956,-0.5 z m 1.983,0 c 0.274,0 0.496,0.2239 0.496,0.5 0,0.2762 -0.222,0.5 -0.496,0.5 -0.274,0 -0.496,-0.2238 -0.496,-0.5 0,-0.2761 0.222,-0.5 0.496,-0.5 z m -0.992,1 c 0.274,0 0.496,0.2239 0.496,0.5 0,0.2762 -0.222,0.5 -0.496,0.5 -0.274,0 -0.494,-0.2238 -0.494,-0.5 0,-0.2761 0.22,-0.5 0.494,-0.5 z"
     id="path2"
     sodipodi:nodetypes="ccccccccccccccccccccccccccccccccccccccssssssssssssssssssss" />
</svg>
