<?xml version="1.0" encoding="UTF-8" standalone="no"?>
<svg
   width="16"
   height="16"
   version="1.1"
   id="svg4"
   sodipodi:docname="emoji-recent-symbolic.svg"
   inkscape:version="1.1.2 (0a00cf5339, 2022-02-04)"
   xmlns:inkscape="http://www.inkscape.org/namespaces/inkscape"
   xmlns:sodipodi="http://sodipodi.sourceforge.net/DTD/sodipodi-0.dtd"
   xmlns="http://www.w3.org/2000/svg"
   xmlns:svg="http://www.w3.org/2000/svg">
  <defs
     id="defs8" />
  <sodipodi:namedview
     id="namedview6"
     pagecolor="#ffffff"
     bordercolor="#666666"
     borderopacity="1.0"
     inkscape:pageshadow="2"
     inkscape:pageopacity="0.0"
     inkscape:pagecheckerboard="0"
     showgrid="false"
     inkscape:zoom="51.6875"
     inkscape:cx="7.9903265"
     inkscape:cy="7.9903265"
     inkscape:window-width="714"
     inkscape:window-height="836"
     inkscape:window-x="720"
     inkscape:window-y="31"
     inkscape:window-maximized="1"
     inkscape:current-layer="svg4" />
  <path
     style="fill:#5c616c"
     d="M 8.5,0 C 4.3591237,0.00303876 1.0030388,3.3591237 1,7.5 c 0.00304,4.140876 3.3591237,7.496961 7.5,7.5 4.140876,-0.003 7.496961,-3.359124 7.5,-7.5 C 15.996961,3.3591237 12.640876,0.00303876 8.5,0 Z m 0,2 c 3.038823,-0.00304 5.503038,2.4611765 5.5,5.5 0.003,3.038823 -2.461177,5.503038 -5.5,5.5 C 5.4611765,13.003038 2.9969623,10.538823 3,7.5 2.9969623,4.4611765 5.4611765,1.9969623 8.5,2 Z m 3.029297,2 c -0.03396,-0.0016 -0.068,3.654e-4 -0.101563,0.00586 -0.09629,0.025544 -0.182745,0.080003 -0.248046,0.15625 L 8.7698771,6.6095731 v 0 L 8.3241274,6.5942672 6.9160156,5.1660156 C 6.6070469,4.6465322 5.7259258,5.5428888 6.2382812,5.8554688 l 1.9765626,2.0078124 c 0.1906161,0.1832294 0.4890713,0.1832294 0.6796874,0 L 11.859375,4.8515625 C 12.156867,4.5419246 11.954869,4.0207933 11.529297,4 Z"
     id="path2"
     sodipodi:nodetypes="cccccccccccccccccccccc" />
</svg>
