<?xml version="1.0" encoding="UTF-8" standalone="no"?>
<svg
   width="16"
   height="16"
   version="1.1"
   id="svg809584"
   sodipodi:docname="emoji-travel-symbolic.svg"
   inkscape:version="1.1.2 (0a00cf5339, 2022-02-04)"
   xmlns:inkscape="http://www.inkscape.org/namespaces/inkscape"
   xmlns:sodipodi="http://sodipodi.sourceforge.net/DTD/sodipodi-0.dtd"
   xmlns="http://www.w3.org/2000/svg"
   xmlns:svg="http://www.w3.org/2000/svg">
  <defs
     id="defs809588" />
  <sodipodi:namedview
     id="namedview809586"
     pagecolor="#ffffff"
     bordercolor="#666666"
     borderopacity="1.0"
     inkscape:pageshadow="2"
     inkscape:pageopacity="0.0"
     inkscape:pagecheckerboard="0"
     showgrid="false"
     inkscape:zoom="51.6875"
     inkscape:cx="9.7702539"
     inkscape:cy="8.0096735"
     inkscape:window-width="714"
     inkscape:window-height="836"
     inkscape:window-x="720"
     inkscape:window-y="31"
     inkscape:window-maximized="1"
     inkscape:current-layer="svg809584" />
  <path
     style="fill:#5c616c"
     d="M 3,1 C 2.5410295,1.0001268 2.1410708,1.3126718 2.03,1.758 l -1,4 C 1.0101652,5.8371408 1.0000903,5.9184116 1,6 V 6.04 C 0.436,6.134 0,6.601 0,7.193 v 4.614 c 0,0.592 0.436,1.059 1,1.154 V 14.5 C 1,14.777 1.223,15 1.5,15 h 2 C 3.777,15 4,14.777 4,14.5 V 13 h 8 v 1.5 c 0,0.277 0.223,0.5 0.5,0.5 h 2 c 0.277,0 0.5,-0.223 0.5,-0.5 v -1.54 c 0.564,-0.094 1,-0.561 1,-1.153 V 7.193 C 16,6.601 15.564,6.134 15,6.039 V 6 c -9e-5,-0.081588 -0.01017,-0.1628592 -0.03,-0.242 l -1,-4 C 13.858929,1.3126718 13.45897,1.0001268 13,1 Z M 3.7371664,3.1753343 3.9361893,3 h 8.1278457 l 0.194252,0.1571486 v 0 l 0.620709,2.4828329 v 0 L 12.614859,6 V 6 6 H 3.3886908 3.1646647 3.3886908 L 3.1397577,5.564969 v 0 z M 3.5,8 C 4.3284271,8 5,8.6715729 5,9.5 5,10.328427 4.3284271,11 3.5,11 2.6715729,11 2,10.328427 2,9.5 2,8.6715729 2.6715729,8 3.5,8 Z m 9,0 C 13.328427,8 14,8.6715729 14,9.5 14,10.328427 13.328427,11 12.5,11 11.671573,11 11,10.328427 11,9.5 11,8.6715729 11.671573,8 12.5,8 Z"
     id="path809582"
     sodipodi:nodetypes="cccccsscssssccsssscssccccccccccccccccccccccssssssssss" />
</svg>
