<?xml version="1.0" encoding="UTF-8" standalone="no"?>
<svg
   width="16"
   height="16"
   version="1.1"
   id="svg833351"
   sodipodi:docname="emoji-activities-symbolic.svg"
   inkscape:version="1.1.2 (0a00cf5339, 2022-02-04)"
   xmlns:inkscape="http://www.inkscape.org/namespaces/inkscape"
   xmlns:sodipodi="http://sodipodi.sourceforge.net/DTD/sodipodi-0.dtd"
   xmlns="http://www.w3.org/2000/svg"
   xmlns:svg="http://www.w3.org/2000/svg">
  <defs
     id="defs833355" />
  <sodipodi:namedview
     id="namedview833353"
     pagecolor="#ffffff"
     bordercolor="#666666"
     borderopacity="1.0"
     inkscape:pageshadow="2"
     inkscape:pageopacity="0.0"
     inkscape:pagecheckerboard="0"
     showgrid="false"
     inkscape:zoom="51.6875"
     inkscape:cx="7.9903265"
     inkscape:cy="8"
     inkscape:window-width="1920"
     inkscape:window-height="1051"
     inkscape:window-x="0"
     inkscape:window-y="29"
     inkscape:window-maximized="1"
     inkscape:current-layer="svg833351" />
  <path
     style="fill:#5c616c"
     d="M 7.9999998,0 C 3.5940002,0 1.5e-7,3.594 1.5e-7,8 c 0,4.406 3.59399995,8 7.99999965,8 C 12.406,16 16,12.406 16,8 16,3.594 12.406,0 7.9999998,0 Z m 0,2 c 0.038,0 0.031481,0.2461791 0.069481,0.2471791 -0.016524,0.080278 0.012496,-0.080486 0,0 C 7.8207828,3.8490527 8.3657118,5.4787902 9.5409999,6.61 10.665494,7.6840798 12.221806,8.1704795 13.74974,7.936607 13.831264,7.9241285 13.916607,8.1778459 13.9979,8.1612463 13.9979,8.1972463 14,7.963 14,8 c 0,0.053923 -7.03e-4,0.1076747 -0.0021,0.1612463 -0.08331,3.1945277 -2.635223,5.7490257 -5.8286842,5.8364407 -0.056209,0.0015 -0.1561627,0.05738 -0.169216,0.0023 -0.06633,-0.279844 0.039,10e-4 0,0 C 8.018821,13.90888 7.920035,13.811566 7.93367,13.720156 8.1604811,12.199601 7.6737003,10.652564 6.6040001,9.534 5.7227082,8.6165789 4.5245246,8.0700641 3.2540001,8.006 2.9254561,7.9909506 2.5964508,8.008416 2.2717679,8.0580128 2.1828215,8.0715997 2.0926421,7.7471975 2.0044428,7.7655994 c 0,-0.036 -0.00444,0.2704006 -0.00444,0.2344006 0,-0.078506 0.00149,-0.1566482 0.00444,-0.2344006 C 2.1242633,4.6106663 4.653147,2.0975876 7.8146823,2.0027748 7.8762195,2.0009293 7.9379964,2 7.9999998,2 Z m 1.0564843,0.3936397 c 0.078354,0.014599 0.2126728,-0.2579354 0.2898948,-0.2403542 2.2003631,0.5009578 3.9287731,2.2000738 4.4717631,4.3832792 0.02905,0.1167964 -0.02215,-0.1194576 0,0 -0.07295,0.017001 -0.06925,0.3863259 -0.142522,0.3991274 C 12.431183,7.1530983 11.151447,6.7681305 10.232,5.889 9.2882555,4.9819002 8.8543513,3.6745313 9.0564841,2.3936397 c 0.015216,-0.096424 -0.022479,0.095942 0,0 z M 3.2050001,9.004 c 2.3826034,0.1207679 4.1035302,2.281482 3.7413289,4.595363 -0.015338,0.09798 -0.2500572,0.152052 -0.2729744,0.250443 -0.072359,-0.01345 0.071397,0.016 0,0 -2.2445823,-0.503013 -4.0014395,-2.252074 -4.5159297,-4.4917551 -0.019222,-0.083679 0.015715,0.085009 0,0 C 2.2205319,9.3436611 2.2313944,9.0776031 2.29481,9.0660307 2.5971743,9.0108538 2.9024538,8.988294 3.2050001,9.004 Z"
     id="path833349"
     sodipodi:nodetypes="sssssscscscsssscsccscsssscsscscsccscsscsc" />
</svg>
