<?xml version="1.0" encoding="UTF-8" standalone="no"?>
<svg
   width="16"
   height="16"
   version="1.1"
   id="svg6"
   sodipodi:docname="emoji-objects-symbolic.svg"
   inkscape:version="1.1.2 (0a00cf5339, 2022-02-04)"
   xmlns:inkscape="http://www.inkscape.org/namespaces/inkscape"
   xmlns:sodipodi="http://sodipodi.sourceforge.net/DTD/sodipodi-0.dtd"
   xmlns="http://www.w3.org/2000/svg"
   xmlns:svg="http://www.w3.org/2000/svg">
  <defs
     id="defs10" />
  <sodipodi:namedview
     id="namedview8"
     pagecolor="#ffffff"
     bordercolor="#666666"
     borderopacity="1.0"
     inkscape:pageshadow="2"
     inkscape:pageopacity="0.0"
     inkscape:pagecheckerboard="0"
     showgrid="false"
     inkscape:zoom="51.6875"
     inkscape:cx="7.9516324"
     inkscape:cy="12.652963"
     inkscape:window-width="714"
     inkscape:window-height="836"
     inkscape:window-x="720"
     inkscape:window-y="31"
     inkscape:window-maximized="1"
     inkscape:current-layer="svg6" />
  <path
     style="fill:#5c616c"
     d="M 7.9960938,0 C 5.1550474,0.00585174 2.7057432,1.9982023 2.1230469,4.7773438 1.5937587,7.3113437 2.8119047,9.8125156 4.9960938,11.103516 l 0.00195,0.898437 C 4.9991251,12.554025 5.4476269,13.000778 6,13 h 4.001953 c 0.551611,-2.99e-4 0.998923,-0.446738 1,-0.998047 l 0.0039,-0.900391 C 13.190048,9.8085625 14.407241,7.3044844 13.876953,4.7714844 13.291745,1.9923131 10.839644,0.00211971 7.9980469,0 Z m 0,2 C 9.8971288,2 11.527804,3.3216406 11.916016,5.1816406 12.308479,7.0356215 11.342034,8.9097417 9.6035156,9.6660156 9.2392219,9.8243342 9.0031419,10.183053 9.0019531,10.580078 v 0.126105 L 8.7601222,11 v 0 H 7.2402556 v 0 L 6.9980469,10.796311 v -0.21428 C 6.996858,10.185006 6.760778,9.8262873 6.3964844,9.6679688 4.657275,8.9121462 3.6893978,7.0384145 4.0800781,5.1835938 4.4633034,3.3275707 6.0999322,1.9970445 7.9960938,2 Z M 6,14.209007 v 0 V 15 c 0,0.554 0.446,1 1,1 h 2 c 0.554,0 1,-0.446 1,-1 v -0.799697 0 L 9.7993264,14 H 6.3196689 Z"
     id="path2"
     sodipodi:nodetypes="cccccccccscccccccccccccccccssssccccc" />
  <path
     opacity="0.35"
     style="fill:#5c616c"
     d="M 6.9998468,6.0003943 C 6.5505012,5.999484 6.3291271,6.5460697 6.6526575,6.8576254 l 0.9976707,0.9967804 c 0.1947951,0.1945625 0.5105581,0.1945625 0.7053532,0 L 9.3533522,6.8576254 C 9.8244024,6.3878099 9.1190491,5.6820893 8.6479989,6.1519048 L 8.1761325,6.6233501 7.8719362,6.6661666 v 0 L 7.3580107,6.1519048 C 7.2638178,6.0548152 7.1341838,6.0001297 6.9988492,6.0003943 Z"
     id="path4"
     sodipodi:nodetypes="cccccccccccc" />
</svg>
