<?xml version="1.0" encoding="UTF-8" standalone="no"?>
<svg
   width="16"
   height="16"
   version="1.1"
   id="svg4"
   sodipodi:docname="slideshow-symbolic.svg"
   inkscape:version="1.1.2 (0a00cf5339, 2022-02-04)"
   xmlns:inkscape="http://www.inkscape.org/namespaces/inkscape"
   xmlns:sodipodi="http://sodipodi.sourceforge.net/DTD/sodipodi-0.dtd"
   xmlns="http://www.w3.org/2000/svg"
   xmlns:svg="http://www.w3.org/2000/svg">
  <defs
     id="defs8" />
  <sodipodi:namedview
     id="namedview6"
     pagecolor="#ffffff"
     bordercolor="#666666"
     borderopacity="1.0"
     inkscape:pageshadow="2"
     inkscape:pageopacity="0.0"
     inkscape:pagecheckerboard="0"
     showgrid="false"
     inkscape:zoom="146.19433"
     inkscape:cx="7.9962063"
     inkscape:cy="4.7163253"
     inkscape:window-width="1920"
     inkscape:window-height="1051"
     inkscape:window-x="0"
     inkscape:window-y="29"
     inkscape:window-maximized="1"
     inkscape:current-layer="svg4" />
  <path
     style="fill:#5c616c"
     d="M 7.5,1 C 3.91,1 1,3.91 1,7.5 1,11.09 3.91,14 7.5,14 11.09,14 14,11.09 14,7.5 14,3.91 11.09,1 7.5,1 Z m 0,1 C 10.54,2 13,4.46 13,7.5 13,10.54 10.54,13 7.5,13 4.46,13 2,10.54 2,7.5 2,4.46 4.46,2 7.5,2 Z M 7.1171173,4.0987812 7,4.2348893 v 2.606792 L 6.8731129,7 V 7 H 5.0291747 L 4.75,7.2340685 v 0 0.5451018 l 0.235064,0.2266324 c 0.075636,0.00233 -0.080947,-0.00156 0,0 C 5.8153305,8.0217734 6.904996,8 7.8450224,8 V 8 L 8,7.8141308 V 4.2508849 L 7.80511,4 V 4 H 7.2296673 Z"
     id="path2"
     sodipodi:nodetypes="ssssssssssccccccccccscccccccc" />
</svg>
