<?xml version="1.0" encoding="UTF-8" standalone="no"?>
<svg
   width="16"
   height="16"
   version="1.1"
   id="svg83"
   sodipodi:docname="emblem-photos-symbolic.svg"
   inkscape:version="1.1.2 (0a00cf5339, 2022-02-04)"
   xmlns:inkscape="http://www.inkscape.org/namespaces/inkscape"
   xmlns:sodipodi="http://sodipodi.sourceforge.net/DTD/sodipodi-0.dtd"
   xmlns="http://www.w3.org/2000/svg"
   xmlns:svg="http://www.w3.org/2000/svg">
  <defs
     id="defs87" />
  <sodipodi:namedview
     id="namedview85"
     pagecolor="#ffffff"
     bordercolor="#666666"
     borderopacity="1.0"
     inkscape:pageshadow="2"
     inkscape:pageopacity="0.0"
     inkscape:pagecheckerboard="0"
     showgrid="false"
     inkscape:zoom="51.6875"
     inkscape:cx="7.9903265"
     inkscape:cy="8"
     inkscape:window-width="1920"
     inkscape:window-height="1051"
     inkscape:window-x="0"
     inkscape:window-y="29"
     inkscape:window-maximized="1"
     inkscape:current-layer="svg83" />
  <path
     style="fill:#5c616c"
     d="M 2,2 C 1,2 1,3 1,3 v 10 c 0,1 1,1 1,1 h 12 c 0,0 1,0 1,-1 V 3 C 15,2 14,2 14,2 Z m 3.2613939,4.8496463 0.5184097,0.037352 2.879427,3.2621909 v 0 l 0.3358298,-0.009 1.6874916,-1.6399568 0.509112,0.00269 v 0 l 1.667097,1.6751893 v 0 L 13,10.519407 v 1.272655 0 L 12.792019,12 H 3.2016855 v 0 L 3,11.812663 V 9.7142273 L 3.1284223,9.349489 v 0 z"
     id="path81"
     sodipodi:nodetypes="scsccsscscccccccccccccccccccccc" />
</svg>
