<?xml version="1.0" encoding="UTF-8" standalone="no"?>
<svg
   width="16"
   height="16"
   version="1.1"
   id="svg5786"
   sodipodi:docname="emblem-favorite-symbolic.svg"
   inkscape:version="1.1.2 (0a00cf5339, 2022-02-04)"
   xmlns:inkscape="http://www.inkscape.org/namespaces/inkscape"
   xmlns:sodipodi="http://sodipodi.sourceforge.net/DTD/sodipodi-0.dtd"
   xmlns="http://www.w3.org/2000/svg"
   xmlns:svg="http://www.w3.org/2000/svg">
  <defs
     id="defs5790" />
  <sodipodi:namedview
     id="namedview5788"
     pagecolor="#ffffff"
     bordercolor="#666666"
     borderopacity="1.0"
     inkscape:pageshadow="2"
     inkscape:pageopacity="0.0"
     inkscape:pagecheckerboard="0"
     showgrid="false"
     inkscape:zoom="51.6875"
     inkscape:cx="7.9903265"
     inkscape:cy="8"
     inkscape:window-width="1920"
     inkscape:window-height="1051"
     inkscape:window-x="0"
     inkscape:window-y="29"
     inkscape:window-maximized="1"
     inkscape:current-layer="svg5786" />
  <path
     style="fill:#5c616c"
     d="M 4.78,2 C 2.7,2 1,3.67 1,5.75 1,6.83 1.46,7.81 2.19,8.5 L 7.5246698,13.62949 7.9188363,13.789588 8.300561,13.635918 13.81,8.5 C 14.54,7.81 15,6.83 15,5.75 15,3.67 13.3,2 11.22,2 9.9220999,2 8.7857523,2.6462104 8.1085555,3.641033 c -0.037619,0.055263 0.034734,-0.057364 0,0 C 8.0689076,3.575554 7.9187917,3.6803772 7.8753946,3.6176446 7.196378,2.6360939 6.0677007,2 4.78,2 Z"
     id="path5784"
     sodipodi:nodetypes="sscccccssscss" />
</svg>
