<?xml version="1.0" encoding="UTF-8" standalone="no"?>
<svg
   width="16"
   height="16"
   version="1.1"
   id="svg2810596"
   sodipodi:docname="audio-headset-symbolic.svg"
   inkscape:version="1.1.2 (0a00cf5339, 2022-02-04)"
   xmlns:inkscape="http://www.inkscape.org/namespaces/inkscape"
   xmlns:sodipodi="http://sodipodi.sourceforge.net/DTD/sodipodi-0.dtd"
   xmlns="http://www.w3.org/2000/svg"
   xmlns:svg="http://www.w3.org/2000/svg">
  <defs
     id="defs2810600" />
  <sodipodi:namedview
     id="namedview2810598"
     pagecolor="#ffffff"
     bordercolor="#666666"
     borderopacity="1.0"
     inkscape:pageshadow="2"
     inkscape:pageopacity="0.0"
     inkscape:pagecheckerboard="0"
     showgrid="false"
     inkscape:zoom="51.6875"
     inkscape:cx="7.9903265"
     inkscape:cy="8"
     inkscape:window-width="1920"
     inkscape:window-height="1051"
     inkscape:window-x="0"
     inkscape:window-y="29"
     inkscape:window-maximized="1"
     inkscape:current-layer="svg2810596" />
  <path
     style="fill:#5c616c"
     d="M 8,0 C 4.68,0 2,2.68 2,6 v 4 c 0,0 0,2 2,2 h 1.7379211 v 0 L 6,11.728667 V 7.2109647 L 5.8298065,7 V 7 H 4.1542839 V 7 L 4,6.806098 V 6 C 4,3.78 5.78,2 8,2 c 2.22,0 4,1.78 4,4 v 0.8194812 0 L 11.83875,7 10.266844,7 10,7.2051714 v 0 4.4941386 L 10.218098,12 v 0 h 2.661996 l 0.115311,0.167959 c 0,0.05637 0.003,-0.05559 0,0 -0.08291,1.510902 -1.27769,2.719732 -2.782512,2.824647 -0.07031,0.0049 0.212893,-0.0074 0,0 L 10,14.799449 v -0.58958 0 L 9.8625468,14 H 6.191098 L 6,14.175162 v 0 1.649095 0 L 6.1541091,16 H 10 c 2.22,0 4,-1.78 4,-4 V 6 C 14,2.68 11.32,0 8,0 Z"
     id="path2810594"
     sodipodi:nodetypes="sscscccccccccssscccccccccccsscccccccccccssss" />
</svg>
