<?xml version="1.0" encoding="UTF-8" standalone="no"?>
<svg
   width="16"
   height="16"
   version="1.1"
   id="svg1603549"
   sodipodi:docname="auth-sim-symbolic.svg"
   inkscape:version="1.1.2 (0a00cf5339, 2022-02-04)"
   xmlns:inkscape="http://www.inkscape.org/namespaces/inkscape"
   xmlns:sodipodi="http://sodipodi.sourceforge.net/DTD/sodipodi-0.dtd"
   xmlns="http://www.w3.org/2000/svg"
   xmlns:svg="http://www.w3.org/2000/svg">
  <defs
     id="defs1603553" />
  <sodipodi:namedview
     id="namedview1603551"
     pagecolor="#ffffff"
     bordercolor="#666666"
     borderopacity="1.0"
     inkscape:pageshadow="2"
     inkscape:pageopacity="0.0"
     inkscape:pagecheckerboard="0"
     showgrid="false"
     inkscape:zoom="51.6875"
     inkscape:cx="7.9903265"
     inkscape:cy="8"
     inkscape:window-width="1920"
     inkscape:window-height="1051"
     inkscape:window-x="0"
     inkscape:window-y="29"
     inkscape:window-maximized="1"
     inkscape:current-layer="svg1603549" />
  <path
     style="fill:#5c616c"
     d="M 4,0 C 2,0 2,2 2,2 v 12 c 0,2 2,2 2,2 h 8 c 0,0 2,0 2,-2 v -10.8062427 0 L 13.874165,2.8741648 11.157721,0.15772149 v 0 L 10.820867,0 Z m 1,6 0.998,0.006 v 2 h -2 L 4,7 C 4,7 4,6 5,6 Z m 6,0 c 1,0 1,1 1,1 l -0.002,1.002 h -2 v -2 z M 6.998,6.006 h 2 v 2 h -2 z m -3,2.996 h 8 V 11 H 12 v 2 c 0,1 -1,1 -1,1 L 9.998,13.998 10,11.002 H 3.998 Z m 6.002,2 h 1.998 V 11 H 10 Z m -6.002,1 h 2 v 2 L 5,14 C 4,14 4,13 4,13 Z m 3,0 h 2 v 2 h -2 z"
     id="path1603547"
     sodipodi:nodetypes="scsccsccccccscccccccccccccccccccccsccccccccccccccccccccc" />
</svg>
