<?xml version="1.0" encoding="UTF-8" standalone="no"?>
<svg
   width="16"
   height="16"
   version="1.1"
   id="svg1548480"
   sodipodi:docname="computer-symbolic.svg"
   inkscape:version="1.1.2 (0a00cf5339, 2022-02-04)"
   xmlns:inkscape="http://www.inkscape.org/namespaces/inkscape"
   xmlns:sodipodi="http://sodipodi.sourceforge.net/DTD/sodipodi-0.dtd"
   xmlns="http://www.w3.org/2000/svg"
   xmlns:svg="http://www.w3.org/2000/svg">
  <defs
     id="defs1548484" />
  <sodipodi:namedview
     id="namedview1548482"
     pagecolor="#ffffff"
     bordercolor="#666666"
     borderopacity="1.0"
     inkscape:pageshadow="2"
     inkscape:pageopacity="0.0"
     inkscape:pagecheckerboard="0"
     showgrid="false"
     inkscape:zoom="51.6875"
     inkscape:cx="8.0096735"
     inkscape:cy="8"
     inkscape:window-width="1920"
     inkscape:window-height="1051"
     inkscape:window-x="0"
     inkscape:window-y="29"
     inkscape:window-maximized="1"
     inkscape:current-layer="svg1548480" />
  <path
     style="fill:#5c616c"
     d="m 15,1 c 1,0 1,1 1,1 v 10 c 0,0 0,1 -1,1 H 10.416164 5.494254 1 C 1,13 0,13 0,12 V 2 C 0,2 0,1 1,1 Z M 13.64985,3 V 3 H 2.3298396 L 2,3.341713 v 0 7.231676 L 2.3062639,11 v 0 H 13.64729 L 14,10.699894 v 0 -7.3963809 z M 11,14 v 1 H 5 V 14 C 5,13.438724 5.3150307,13.192479 5.5914537,13.084445 5.8075212,13 5.494254,13 5.494254,13 h 4.92191 c 0,0 -0.222686,0 -0.0059,0.0851 C 10.686245,13.193478 11,13.439862 11,14 Z"
     id="path1548478"
     sodipodi:nodetypes="sccscccscsscccccccccccccsccssccss" />
</svg>
