<?xml version="1.0" encoding="UTF-8" standalone="no"?>
<svg
   width="16"
   height="16"
   version="1.1"
   id="svg3146948"
   sodipodi:docname="drive-harddisk-symbolic.svg"
   inkscape:version="1.1.2 (0a00cf5339, 2022-02-04)"
   xmlns:inkscape="http://www.inkscape.org/namespaces/inkscape"
   xmlns:sodipodi="http://sodipodi.sourceforge.net/DTD/sodipodi-0.dtd"
   xmlns="http://www.w3.org/2000/svg"
   xmlns:svg="http://www.w3.org/2000/svg">
  <defs
     id="defs3146952" />
  <sodipodi:namedview
     id="namedview3146950"
     pagecolor="#ffffff"
     bordercolor="#666666"
     borderopacity="1.0"
     inkscape:pageshadow="2"
     inkscape:pageopacity="0.0"
     inkscape:pagecheckerboard="0"
     showgrid="false"
     inkscape:zoom="51.6875"
     inkscape:cx="7.9903265"
     inkscape:cy="8"
     inkscape:window-width="1920"
     inkscape:window-height="1051"
     inkscape:window-x="0"
     inkscape:window-y="29"
     inkscape:window-maximized="1"
     inkscape:current-layer="svg3146948" />
  <path
     style="fill:#5c616c"
     d="M 3,1 C 2,1 2,2 2,2 v 12 c 0,0 0,1 1,1 h 10 c 0,0 1,0 1,-1 V 2 c 0,0 0,-1 -1,-1 z m 5,2 c 2.21,0 4,1.79 4,4 0,2.21 -1.79,4 -4,4 H 4.2130689 v 0 L 4,10.741797 V 7 C 4,4.79 5.79,3 8,3 Z M 8,5 C 6.9,5 6,5.9 6,7 6,8.1 6.9,9 8,9 9.1,9 10,8.1 10,7 10,5.9 9.1,5 8,5 Z"
     id="path3146946"
     sodipodi:nodetypes="sccscscssssscccsssssss" />
</svg>
