<?xml version="1.0" encoding="UTF-8" standalone="no"?>
<svg
   width="16"
   height="16"
   version="1.1"
   id="svg4"
   sodipodi:docname="input-gaming-symbolic.svg"
   inkscape:version="1.1.2 (0a00cf5339, 2022-02-04)"
   xmlns:inkscape="http://www.inkscape.org/namespaces/inkscape"
   xmlns:sodipodi="http://sodipodi.sourceforge.net/DTD/sodipodi-0.dtd"
   xmlns="http://www.w3.org/2000/svg"
   xmlns:svg="http://www.w3.org/2000/svg">
  <defs
     id="defs8" />
  <sodipodi:namedview
     id="namedview6"
     pagecolor="#ffffff"
     bordercolor="#666666"
     borderopacity="1.0"
     inkscape:pageshadow="2"
     inkscape:pageopacity="0.0"
     inkscape:pagecheckerboard="0"
     showgrid="false"
     inkscape:zoom="51.6875"
     inkscape:cx="7.9903265"
     inkscape:cy="8"
     inkscape:window-width="1916"
     inkscape:window-height="1015"
     inkscape:window-x="0"
     inkscape:window-y="29"
     inkscape:window-maximized="1"
     inkscape:current-layer="svg4" />
  <path
     style="fill:#5c616c"
     d="M 7,1 C 6.45,1 6,1.44 6,2 v 2.8510967 0 l 0.1448144,0.2937177 1.6702832,1.6702832 0.3673177,0.00249 v 0 L 9.8695147,5.1304853 v 0 L 10,4.7991912 V 2 C 10,1.44 9.55,1 9,1 Z M 2,6 C 1.45,6 1,6.45 1,7 v 2 c 0,0.55 0.45,1.01 1,1 h 2.7650322 v 0 L 5.1307968,9.8692032 6.8708777,8.1291223 6.8656453,7.8656453 v 0 L 5.1118816,6.1118816 v 0 L 4.8440535,6 Z m 8.872267,0.1277334 v 0 l -1.7123068,1.7123064 -0.00584,0.3140817 v 0 L 10.83741,9.83741 v 0 L 11.198321,10 H 14 c 0.55,0 1,-0.45 1,-1 V 7 C 15,6.45 14.55,6 14,6 h -2.8189 z m -3.0535864,3.053586 v 0 L 6.1306752,10.869325 6,11.193384 v 0 V 14 c 0,0.55 0.45,1 1,1 h 2 c 0.55,0 1,-0.45 1,-1 V 11.189635 L 9.8665705,10.866571 v 0 L 8.2188893,9.2188893 Z"
     id="path2"
     sodipodi:nodetypes="sscccccccccssssssccccccccccsccccccccsssscccccccssssccccc" />
</svg>
