<?xml version="1.0" encoding="UTF-8" standalone="no"?>
<svg
   width="16"
   height="16"
   version="1.1"
   id="svg3422449"
   sodipodi:docname="media-zip-symbolic.svg"
   inkscape:version="1.1.2 (0a00cf5339, 2022-02-04)"
   xmlns:inkscape="http://www.inkscape.org/namespaces/inkscape"
   xmlns:sodipodi="http://sodipodi.sourceforge.net/DTD/sodipodi-0.dtd"
   xmlns="http://www.w3.org/2000/svg"
   xmlns:svg="http://www.w3.org/2000/svg">
  <defs
     id="defs3422453" />
  <sodipodi:namedview
     id="namedview3422451"
     pagecolor="#ffffff"
     bordercolor="#666666"
     borderopacity="1.0"
     inkscape:pageshadow="2"
     inkscape:pageopacity="0.0"
     inkscape:pagecheckerboard="0"
     showgrid="false"
     inkscape:zoom="51.6875"
     inkscape:cx="7.9903265"
     inkscape:cy="8"
     inkscape:window-width="1920"
     inkscape:window-height="1051"
     inkscape:window-x="0"
     inkscape:window-y="29"
     inkscape:window-maximized="1"
     inkscape:current-layer="svg3422449" />
  <path
     style="fill:#5c616c"
     d="M 3,1 C 3,1 1,1 1,3 v 11 c 0,1 1,1 1,1 h 12 c 1,0 1,-1 1,-1 V 3 C 15,3 15,1 13,1 Z M 3.193233,3 V 3 L 3.8187349,3 V 3 L 4,3.1948703 V 5.7036942 L 4.2535178,6 V 6 H 11.787008 L 12,5.7596292 v 0 -2.5535686 L 12.148563,3 v 0 h 0.708335 V 3 L 13,3.1822972 13,12.580638 v 0 L 12.665912,13 H 3.2884839 v 0 L 3,12.580216 V 3.2066622 Z"
     id="path3422447"
     sodipodi:nodetypes="csscsccscccccccccccccccccccccccccc" />
</svg>
