<?xml version="1.0" encoding="UTF-8" standalone="no"?>
<svg
   width="16"
   height="16"
   version="1.1"
   id="svg4"
   sodipodi:docname="network-wired-symbolic.svg"
   inkscape:version="1.1.2 (0a00cf5339, 2022-02-04)"
   xmlns:inkscape="http://www.inkscape.org/namespaces/inkscape"
   xmlns:sodipodi="http://sodipodi.sourceforge.net/DTD/sodipodi-0.dtd"
   xmlns="http://www.w3.org/2000/svg"
   xmlns:svg="http://www.w3.org/2000/svg">
  <defs
     id="defs8" />
  <sodipodi:namedview
     id="namedview6"
     pagecolor="#ffffff"
     bordercolor="#666666"
     borderopacity="1.0"
     inkscape:pageshadow="2"
     inkscape:pageopacity="0.0"
     inkscape:pagecheckerboard="0"
     showgrid="false"
     inkscape:zoom="51.6875"
     inkscape:cx="7.9903265"
     inkscape:cy="8"
     inkscape:window-width="1916"
     inkscape:window-height="1015"
     inkscape:window-x="0"
     inkscape:window-y="29"
     inkscape:window-maximized="1"
     inkscape:current-layer="svg4" />
  <path
     style="fill:#5c616c"
     d="M 1,1 C 1,1 0,1 0,2 v 10 c 0,1 1,1 1,1 h 2 l 1,1 h 7 l 1,-1 h 2 c 0,0 1,0.13 1,-1 V 2 C 15,1 14,1 14,1 Z M 2,3.1990971 2.1536746,3 H 3 V 5 H 4 V 3 H 5 V 5 H 6 V 3 H 7 V 5 H 8 V 3 h 1 v 2 h 1 V 3 h 1 v 2 h 1 V 3 h 0.789027 V 3 L 13,3.1909853 v 7.5451177 0 L 12.786639,11 H 11 l -1,1 H 5 L 4,11 H 2.2321172 v 0 L 2,10.724311 Z"
     id="path2"
     sodipodi:nodetypes="cssccccccssccccccccccccccccccccccccccccccccccccccc" />
</svg>
