<?xml version="1.0" encoding="UTF-8" standalone="no"?>
<svg
   width="16"
   height="16"
   version="1.1"
   id="svg1503433"
   sodipodi:docname="pda-symbolic.svg"
   inkscape:version="1.1.2 (0a00cf5339, 2022-02-04)"
   xmlns:inkscape="http://www.inkscape.org/namespaces/inkscape"
   xmlns:sodipodi="http://sodipodi.sourceforge.net/DTD/sodipodi-0.dtd"
   xmlns="http://www.w3.org/2000/svg"
   xmlns:svg="http://www.w3.org/2000/svg">
  <defs
     id="defs1503437" />
  <sodipodi:namedview
     id="namedview1503435"
     pagecolor="#ffffff"
     bordercolor="#666666"
     borderopacity="1.0"
     inkscape:pageshadow="2"
     inkscape:pageopacity="0.0"
     inkscape:pagecheckerboard="0"
     showgrid="false"
     inkscape:zoom="51.6875"
     inkscape:cx="11.879081"
     inkscape:cy="3.3470375"
     inkscape:window-width="714"
     inkscape:window-height="836"
     inkscape:window-x="720"
     inkscape:window-y="31"
     inkscape:window-maximized="1"
     inkscape:current-layer="svg1503433" />
  <path
     style="fill:#5c616c"
     d="M 4.1601562,0 C 2.3582952,0 1,1.338 1,3 v 10 c 0,1.662 1.356342,3 3.1582031,3 H 11.746094 C 13.548958,16 15,14.662 15,13 v -6.2064119 0 L 14.745918,6.7756469 13.0959,9.1491592 13,9.5088245 v 0 V 13 c 0,0.554 -0.463164,1 -1.064453,1 H 4.0019531 C 3.4016668,14 3,13.554 3,13 V 3 C 3,2.446 3.4026178,2 4.0039062,2 H 11.54713 l 0.211857,-0.1049516 v 0 l 1.097189,-1.45211505 -0.07418,-0.27154033 c -0.07252,-0.0286143 0.07407,0.0237823 0,0 C 12.448034,0.06416965 12.099603,0.0063004 11.748047,0 Z M 14.15623,1.1623287 v 0 L 8.1318418,10.789316 v 0 L 8.2073288,11 h 0.4977493 l 7.1015609,-8.6948965 -0.06442,-0.394823 v 0 L 14.489873,1.1423062 Z"
     id="path1503431"
     sodipodi:nodetypes="ssssssccccccsssssscccccscsccccccccccc" />
</svg>
