<?xml version="1.0" encoding="UTF-8" standalone="no"?>
<svg
   width="16"
   height="16"
   version="1.1"
   id="svg4143025"
   sodipodi:docname="printer-symbolic.svg"
   inkscape:version="1.1.2 (0a00cf5339, 2022-02-04)"
   xmlns:inkscape="http://www.inkscape.org/namespaces/inkscape"
   xmlns:sodipodi="http://sodipodi.sourceforge.net/DTD/sodipodi-0.dtd"
   xmlns="http://www.w3.org/2000/svg"
   xmlns:svg="http://www.w3.org/2000/svg">
  <defs
     id="defs4143029" />
  <sodipodi:namedview
     id="namedview4143027"
     pagecolor="#ffffff"
     bordercolor="#666666"
     borderopacity="1.0"
     inkscape:pageshadow="2"
     inkscape:pageopacity="0.0"
     inkscape:pagecheckerboard="0"
     showgrid="false"
     inkscape:zoom="51.6875"
     inkscape:cx="7.9903265"
     inkscape:cy="8"
     inkscape:window-width="1920"
     inkscape:window-height="1051"
     inkscape:window-x="0"
     inkscape:window-y="29"
     inkscape:window-maximized="1"
     inkscape:current-layer="svg4143025" />
  <path
     style="fill:#5c616c"
     d="M 4.3036543,1 4,1.2372669 V 2.7469664 L 4.1321642,3 H 4.2661339 V 3 H 11.747747 L 12,2.7330017 v 0 -1.4637825 0 L 11.713058,1 Z M 2,4 C 1.5,4 1,4.5 1,5 v 4 c 0,0.5 0.5,1 1,1 H 3 V 8 h 10 v 2 h 1 c 0.5,0 1,-0.5 1,-1 V 5 C 15,4.5 14.5,4 14,4 Z m 2,5.2598235 v 0 4.4633185 L 4.2471671,14 v 0 H 11.797215 L 12,13.731965 v 0 -4.4804134 0 L 11.775355,9 H 4.2364474 Z"
     id="path4143023"
     sodipodi:nodetypes="ccccccccccccccssssccccsssssccccccccccccc" />
</svg>
