<?xml version="1.0" encoding="UTF-8" standalone="no"?>
<svg
   width="16"
   height="16"
   version="1.1"
   id="svg2938929"
   sodipodi:docname="printer-network-symbolic.svg"
   inkscape:version="1.1.2 (0a00cf5339, 2022-02-04)"
   xmlns:inkscape="http://www.inkscape.org/namespaces/inkscape"
   xmlns:sodipodi="http://sodipodi.sourceforge.net/DTD/sodipodi-0.dtd"
   xmlns="http://www.w3.org/2000/svg"
   xmlns:svg="http://www.w3.org/2000/svg">
  <defs
     id="defs2938933" />
  <sodipodi:namedview
     id="namedview2938931"
     pagecolor="#ffffff"
     bordercolor="#666666"
     borderopacity="1.0"
     inkscape:pageshadow="2"
     inkscape:pageopacity="0.0"
     inkscape:pagecheckerboard="0"
     showgrid="false"
     inkscape:zoom="51.6875"
     inkscape:cx="7.9903265"
     inkscape:cy="8"
     inkscape:window-width="1920"
     inkscape:window-height="1051"
     inkscape:window-x="0"
     inkscape:window-y="29"
     inkscape:window-maximized="1"
     inkscape:current-layer="svg2938929" />
  <path
     style="fill:#5c616c"
     d="m 1,10 v 3 c 0,0 0,1 1,1 h 4.8158914 v 0 L 7,14.183049 V 16 h 2 v -1.837343 0 L 9.1610242,14 14,14 c 1,0 1,-1 1,-1 v -3 z m 2,1 h 1 v 1 H 3 Z"
     id="path2938923"
     sodipodi:nodetypes="ccsccccccccscccccccc" />
  <path
     style="fill:#5c616c"
     d="M 2,5 C 1.5,5 1,5.5 1,6 V 9 H 15 V 6 C 15,5.5 14.5,5 14,5 Z"
     id="path2938925" />
  <path
     style="fill:#5c616c"
     d="m 4,1.2433713 v 0 2.4714955 L 4.2865414,4 V 4 H 11.739153 L 12,3.6968045 v 0 -2.4772893 0 C 11.901738,1.2195152 11.802421,1 11.702164,1 9.2236696,1 6.1711731,1 4.3082737,1 4.2014969,1 4.0986283,1.2433713 4,1.2433713 Z"
     id="path2938927"
     sodipodi:nodetypes="ccccccccccssc" />
</svg>
