<?xml version="1.0" encoding="UTF-8" standalone="no"?>
<svg
   width="16"
   height="16"
   version="1.1"
   id="svg2323395"
   sodipodi:docname="video-joined-displays-symbolic.svg"
   inkscape:version="1.1.2 (0a00cf5339, 2022-02-04)"
   xmlns:inkscape="http://www.inkscape.org/namespaces/inkscape"
   xmlns:sodipodi="http://sodipodi.sourceforge.net/DTD/sodipodi-0.dtd"
   xmlns="http://www.w3.org/2000/svg"
   xmlns:svg="http://www.w3.org/2000/svg">
  <defs
     id="defs2323399" />
  <sodipodi:namedview
     id="namedview2323397"
     pagecolor="#ffffff"
     bordercolor="#666666"
     borderopacity="1.0"
     inkscape:pageshadow="2"
     inkscape:pageopacity="0.0"
     inkscape:pagecheckerboard="0"
     showgrid="false"
     inkscape:zoom="51.6875"
     inkscape:cx="8"
     inkscape:cy="8.0096735"
     inkscape:window-width="1880"
     inkscape:window-height="966"
     inkscape:window-x="0"
     inkscape:window-y="29"
     inkscape:window-maximized="1"
     inkscape:current-layer="svg2323395" />
  <path
     style="fill:#5c616c"
     d="M 6.625,4 C 6,4 6,4.6660156 6,4.6660156 V 6 H 0.4375 C 0,6 0,6.5 0,6.5 v 5 C 0,12 0.4375,12 0.4375,12 h 2.7781644 v 0 c -0.2625933,0 0.078911,0.02115 -0.033816,0.103048 -0.09869,0.0717 -0.1821058,0.192726 -0.1821058,0.396952 V 13 H 5 V 12.5 C 5,12.283162 4.9059628,12.160122 4.7994517,12.090335 4.6910619,12.019317 4.8506535,12.003448 4.8023837,12 v 0 H 6.5625 C 6.5751,12 6.585772,11.9989 6.597656,11.998 6.6033215,11.998268 6.625,12 6.625,12 h 2.6073191 v 0 c -0.07304,0.0039 0.134636,0.02382 -0.021919,0.122184 C 9.0934465,12.195663 9,12.312923 9,12.5 V 13 h 4 v -0.5 c 0,-0.178036 -0.08463,-0.292841 -0.193617,-0.366854 -0.158829,-0.107864 0.07568,0.0041 0,0 L 12.830879,12 H 15.375 C 16,12 16,11.333984 16,11.333984 V 4.6660156 C 16,4.6660156 16,4 15.375,4 Z M 8,6.2692892 8.2966861,6 H 13.74201 L 14,6.2691557 v 0 3.4263174 L 13.690313,10 v 0 H 8.28601 v 0 L 8,9.6761497 Z M 2.2208082,8 V 8 H 5.8271225 L 6,8.1852824 v 0 1.5580151 L 5.8280069,10 v 0 H 2.1949464 v 0 L 2,9.8317337 V 8.1865919 Z"
     id="path2323393"
     sodipodi:nodetypes="sccscscccssccssccsccccssccssccsccssccccccccccccccccccccccccc" />
</svg>
