<?xml version="1.0" encoding="UTF-8" standalone="no"?>
<svg
   width="16"
   height="16"
   version="1.1"
   id="svg4"
   sodipodi:docname="video-single-display-symbolic.svg"
   inkscape:version="1.1.2 (0a00cf5339, 2022-02-04)"
   xmlns:inkscape="http://www.inkscape.org/namespaces/inkscape"
   xmlns:sodipodi="http://sodipodi.sourceforge.net/DTD/sodipodi-0.dtd"
   xmlns="http://www.w3.org/2000/svg"
   xmlns:svg="http://www.w3.org/2000/svg">
  <defs
     id="defs8" />
  <sodipodi:namedview
     id="namedview6"
     pagecolor="#ffffff"
     bordercolor="#666666"
     borderopacity="1.0"
     inkscape:pageshadow="2"
     inkscape:pageopacity="0.0"
     inkscape:pagecheckerboard="0"
     showgrid="false"
     inkscape:zoom="103.375"
     inkscape:cx="7.9661427"
     inkscape:cy="14.200726"
     inkscape:window-width="963"
     inkscape:window-height="836"
     inkscape:window-x="471"
     inkscape:window-y="31"
     inkscape:window-maximized="1"
     inkscape:current-layer="svg4" />
  <path
     style="fill:#5c616c"
     d="M 1,1 C 0,1 0,2 0,2 v 10 c 0,1 1,1 1,1 h 4.5557851 l 0.030244,0.08658 c 0,0 0.2182601,-0.08658 0,0 C 5.3109259,13.195711 5,13.442393 5,14 v 1 h 6 V 14 C 11,13.460086 10.708493,13.211679 10.440256,13.097391 10.211679,13 10.480381,13 10.480381,13 v 0 L 15,13 c 1,0 1,-1 1,-1 V 2 c 0,0 0,-1 -1,-1 z m 6,3 h 2 v 6 H 7 V 6 H 6 V 5 h 1 z"
     id="path2"
     sodipodi:nodetypes="scscccssccssccsccssccccccccc" />
</svg>
