<?xml version="1.0" encoding="UTF-8" standalone="no"?>
<svg
   width="16"
   height="16"
   version="1.1"
   viewBox="0 0 12 12"
   id="svg72327"
   sodipodi:docname="package-install.svg"
   inkscape:version="1.1.2 (0a00cf5339, 2022-02-04)"
   xmlns:inkscape="http://www.inkscape.org/namespaces/inkscape"
   xmlns:sodipodi="http://sodipodi.sourceforge.net/DTD/sodipodi-0.dtd"
   xmlns="http://www.w3.org/2000/svg"
   xmlns:svg="http://www.w3.org/2000/svg">
  <defs
     id="defs72331" />
  <sodipodi:namedview
     id="namedview72329"
     pagecolor="#ffffff"
     bordercolor="#666666"
     borderopacity="1.0"
     inkscape:pageshadow="2"
     inkscape:pageopacity="0.0"
     inkscape:pagecheckerboard="0"
     showgrid="false"
     inkscape:zoom="51.6875"
     inkscape:cx="7.9903265"
     inkscape:cy="8"
     inkscape:window-width="1920"
     inkscape:window-height="1051"
     inkscape:window-x="0"
     inkscape:window-y="29"
     inkscape:window-maximized="1"
     inkscape:current-layer="g72325" />
  <g
     transform="matrix(.33333 0 0 .33333 0 -.002604)"
     id="g72325">
    <path
       d="m36 34.195v-32.398c0-0.99609-0.80469-1.8008-1.8008-1.8008h-32.398c-0.99609 0-1.8008 0.80469-1.8008 1.8008v32.398c0 0.99219 0.80469 1.8008 1.8008 1.8008h32.398c0.99609 0 1.8008-0.80859 1.8008-1.8008z"
       fill="#0ca15e"
       id="path72321" />
    <path
       d="M 29.601181,8.4851033 28.348375,8.5886649 16.822364,20.11196 l -1.047023,0.0036 v 0 l -5.130568,-5.130568 v 0 l -1.4066769,-0.01632 -1.8425187,1.840261 0.00893,1.299097 v 0 l 8.3596175,8.359618 1.052433,0.01267 v 0 L 19.4767,23.8169 31.499278,11.800933 l 0.1712,-1.243929 v 0 z"
       fill="#ffffff"
       id="path72323"
       sodipodi:nodetypes="cccccccccccccccccccc" />
  </g>
</svg>
