<?xml version="1.0" encoding="UTF-8" standalone="no"?>
<svg
   width="16"
   height="16"
   version="1.1"
   viewBox="0 0 12 12"
   id="svg1304595"
   sodipodi:docname="package-installed-outdated.svg"
   inkscape:version="1.1.2 (0a00cf5339, 2022-02-04)"
   xmlns:inkscape="http://www.inkscape.org/namespaces/inkscape"
   xmlns:sodipodi="http://sodipodi.sourceforge.net/DTD/sodipodi-0.dtd"
   xmlns="http://www.w3.org/2000/svg"
   xmlns:svg="http://www.w3.org/2000/svg">
  <defs
     id="defs1304599" />
  <sodipodi:namedview
     id="namedview1304597"
     pagecolor="#ffffff"
     bordercolor="#666666"
     borderopacity="1.0"
     inkscape:pageshadow="2"
     inkscape:pageopacity="0.0"
     inkscape:pagecheckerboard="0"
     showgrid="false"
     inkscape:zoom="51.6875"
     inkscape:cx="7.9903265"
     inkscape:cy="8"
     inkscape:window-width="1920"
     inkscape:window-height="1051"
     inkscape:window-x="0"
     inkscape:window-y="29"
     inkscape:window-maximized="1"
     inkscape:current-layer="g1304593" />
  <g
     transform="matrix(.33333 0 0 .33333 6e-8 .0013021)"
     id="g1304593">
    <path
       d="m36 34.195v-32.398c0-0.99609-0.80469-1.8008-1.8008-1.8008h-32.398c-0.99609 0-1.8008 0.80469-1.8008 1.8008v32.398c0 0.99219 0.80469 1.8008 1.8008 1.8008h32.398c0.99609 0 1.8008-0.80859 1.8008-1.8008z"
       fill="#357af0"
       id="path1304589" />
    <path
       d="M 16.604569,6.7499164 15.75,7.727723 l 0,13.803814 0.847188,0.96405 v 0 l 2.68585,-0.01399 v 0 L 20.25,21.537023 V 7.7377702 L 19.435386,6.7496397 v 0 z M 15.75,25.620569 v 0 2.832365 0 l 0.813114,0.797166 h 2.878513 L 20.25,28.478621 v 0 -3.010661 L 19.552509,24.754 v 0 l -3.158342,0 z"
       fill="#ffffff"
       id="path1304591"
       sodipodi:nodetypes="cccccccccccccccccccccccccc" />
  </g>
</svg>
