<?xml version="1.0" encoding="UTF-8" standalone="no"?>
<svg
   width="24"
   height="24"
   version="1"
   id="svg1488298"
   sodipodi:docname="emblem-favorite.svg"
   inkscape:version="1.1.2 (0a00cf5339, 2022-02-04)"
   xmlns:inkscape="http://www.inkscape.org/namespaces/inkscape"
   xmlns:sodipodi="http://sodipodi.sourceforge.net/DTD/sodipodi-0.dtd"
   xmlns="http://www.w3.org/2000/svg"
   xmlns:svg="http://www.w3.org/2000/svg">
  <defs
     id="defs1488302" />
  <sodipodi:namedview
     id="namedview1488300"
     pagecolor="#ffffff"
     bordercolor="#666666"
     borderopacity="1.0"
     inkscape:pageshadow="2"
     inkscape:pageopacity="0.0"
     inkscape:pagecheckerboard="0"
     showgrid="false"
     inkscape:zoom="34.458333"
     inkscape:cx="12.01451"
     inkscape:cy="12"
     inkscape:window-width="1920"
     inkscape:window-height="1051"
     inkscape:window-x="0"
     inkscape:window-y="29"
     inkscape:window-maximized="1"
     inkscape:current-layer="svg1488298" />
  <circle
     style="fill:#4c4f5c"
     cx="12"
     cy="12"
     r="10"
     id="circle1488294" />
  <path
     style="fill:#ffffff"
     d="M 14.538213,7 C 13.535495,7 12.643223,7.278651 12.010961,8.053917 11.378535,7.278651 10.464859,7 9.462113,7 7.550099,7 6.000085,8.7638495 6.000085,10.939732 c 0,0.58462 0.090758,1.147219 0.249708,1.684458 0,0 0.144131,0.484744 0.2718125,0.75159 1.1544238,2.699067 3.9108475,4.647491 5.0121545,5.343787 0.290833,0.183877 0,0 0,0 0,0 0.605181,0.203949 0.840775,0.05749 1.031522,-0.641238 3.915922,-2.623855 5.10386,-5.40128 0,0 0.188286,-0.454596 0.271812,-0.751591 0.151772,-0.539722 0.249708,-1.099838 0.249708,-1.684458 C 17.999915,8.7638495 16.449901,7 14.537887,7 Z"
     id="path1488296"
     sodipodi:nodetypes="ccssccscsccscc" />
</svg>
