<?xml version="1.0" encoding="UTF-8" standalone="no"?>
<svg
   width="16"
   height="16"
   version="1.1"
   id="svg6"
   sodipodi:docname="emblem-web.svg"
   inkscape:version="1.1.2 (0a00cf5339, 2022-02-04)"
   xmlns:inkscape="http://www.inkscape.org/namespaces/inkscape"
   xmlns:sodipodi="http://sodipodi.sourceforge.net/DTD/sodipodi-0.dtd"
   xmlns="http://www.w3.org/2000/svg"
   xmlns:svg="http://www.w3.org/2000/svg">
  <defs
     id="defs10" />
  <sodipodi:namedview
     id="namedview8"
     pagecolor="#ffffff"
     bordercolor="#666666"
     borderopacity="1.0"
     inkscape:pageshadow="2"
     inkscape:pageopacity="0.0"
     inkscape:pagecheckerboard="0"
     showgrid="false"
     inkscape:zoom="188"
     inkscape:cx="8.1835106"
     inkscape:cy="10.973404"
     inkscape:window-width="1872"
     inkscape:window-height="925"
     inkscape:window-x="0"
     inkscape:window-y="35"
     inkscape:window-maximized="1"
     inkscape:current-layer="svg6" />
  <circle
     style="fill:#455a64"
     cx="8"
     cy="8"
     r="7"
     id="circle2" />
  <path
     style="fill:#ffffff;fill-rule:evenodd"
     d="M 5.5018194,3.668805 C 3.6689408,4.721888 2.7605595,6.756747 3.0543737,8.716201 c 0.013453,0.100525 0.032143,0.200666 0.051963,0.30073 0.00442,0.02053 0.00769,0.04106 0.012343,0.06158 0.1049557,0.496906 0.2839364,0.985875 0.5525532,1.448877 1.3739043,2.368137 4.4341205,3.176833 6.8243461,1.803526 1.81559,-1.04315 2.726078,-3.049197 2.4584,-4.991421 -6.5e-5,-5e-4 -1.37e-4,-9.64e-4 -7.8e-5,-0.0016 C 12.937391,7.203064 12.911721,7.069059 12.883771,6.93504 12.779164,6.433412 12.597138,5.93948 12.326138,5.47237 10.952538,3.104759 7.8915213,2.295822 5.5017926,3.668844 Z m 0.076905,0.849366 0.060683,0.1045967 0.7777087,1.3405013 C 5.9949605,6.186537 5.5740894,6.370433 5.1687112,6.512057 5.1496502,6.352983 5.1359792,6.197087 5.1338112,6.04903 5.1250176,5.4502995 5.2491622,4.9744361 5.4770076,4.6469398 5.5089147,4.6010776 5.6035133,4.6627407 5.6394075,4.6227677 Z M 6.2658609,4.2799621 c 0.10661,-0.04129 0.016629,-0.1220851 0.05236,-0.1347651 0.4079551,-0.04595 0.8991501,0.08075 1.4347751,0.398954 0.1254043,0.0745 0.2518046,0.16233 0.3783164,0.256162 C 7.8080624,5.079716 7.4391899,5.352455 7.035426,5.606426 L 6.2658609,4.2799621 Z M 4.4434784,5.596835 c -0.00757,0.075007 -0.013925,0.1505418 -0.018146,0.2269471 -0.00433,0.078435 -0.00641,0.1577883 -0.00523,0.2384299 0.00311,0.211928 0.023471,0.431746 0.054603,0.655358 C 4.2629699,6.76902 4.0607749,6.80573 3.8668467,6.831255 3.9607063,6.4979182 4.0964175,6.1767214 4.2701961,5.8740211 4.324304,5.779772 4.3639574,5.9142531 4.425332,5.8237821 Z M 7.825176,3.776849 c 0.055612,-0.00801 0.1082177,-0.014717 0.1586313,-0.020473 0.1381449,-0.015772 0.2598306,-0.024385 0.3818173,-0.032927 0.2311696,0.01926 0.4599986,0.05652 0.6841621,0.112355 C 8.9329289,3.989804 8.8016439,4.145801 8.6531582,4.302443 8.4776617,4.167213 8.3004109,4.0421734 8.1212274,3.935708 8.0736639,3.9074472 8.025832,3.880744 7.9778267,3.8551096 c -0.050737,-0.027093 0.056994,-0.073451 0.00598,-0.098733 z M 9.7227721,4.066425 C 10.426723,4.372173 11.051833,4.867154 11.514564,5.53228 L 10.349123,6.201885 C 10.00104,5.654196 9.6084121,5.172583 9.1915499,4.769263 9.3951788,4.55218 9.5773463,4.332672 9.7326285,4.112632 c -0.002,-0.01667 -0.00614,-0.03127 -0.00989,-0.04622 z M 3.7306419,7.563512 c 0.281594,-0.02522 0.5778829,-0.07718 0.882844,-0.149505 0.1426946,0.557054 0.3643653,1.131825 0.6647135,1.701422 L 4.1170109,9.782591 C 3.7784333,9.069856 3.6571908,8.305062 3.7306737,7.56351 Z M 8.6785682,5.266063 C 9.0508853,5.624759 9.4095821,6.059685 9.7294864,6.557919 L 8.1227802,7.481054 7.3910467,6.219798 C 7.8671252,5.922701 8.3002202,5.601305 8.6785563,5.266057 Z M 5.3015837,7.21829 C 5.7821802,7.056949 6.2773677,6.840938 6.7726399,6.576711 L 7.5036746,7.836762 5.8975898,8.759541 C 5.6258141,8.238308 5.4277359,7.715423 5.3016187,7.218279 Z M 4.4725541,10.395981 5.6337423,9.728819 c 0.3550179,0.558572 0.7562839,1.049183 1.1824555,1.457449 C 6.6053513,11.407325 6.4169516,11.631134 6.255857,11.855564 5.5557123,11.5501 4.9336798,11.057428 4.4725223,10.396012 Z M 6.2533512,9.372821 7.859436,8.450043 8.6154867,9.753213 C 8.1419342,10.045391 7.7095164,10.361106 7.3311335,10.691566 6.9490992,10.32787 6.5810356,9.88321 6.2533302,9.372821 Z M 8.4784235,8.094403 10.085129,7.171268 c 0.282165,0.541208 0.486227,1.084501 0.611526,1.59863 C 10.219542,8.927899 9.7275785,9.139196 9.2351642,9.398791 L 8.4784145,8.094416 Z m 2.2262835,-1.279115 1.16544,-0.669605 c 0.349081,0.736682 0.46544,1.52891 0.375395,2.293237 -0.0023,-0.0012 -0.0036,-0.0034 -0.006,-0.0046 -0.273,0.02415 -0.559441,0.07273 -0.854601,0.141264 C 11.242944,8.000338 11.015433,7.404749 10.704601,6.81527 Z m -1.7334246,3.551195 0.7371408,1.270575 v 0 c -0.047109,0.0098 -0.019608,0.147804 -0.069217,0.1525 C 9.2368205,11.827645 8.7545293,11.698513 8.2303099,11.3871 8.115611,11.318958 8.000371,11.239669 7.8846574,11.15529 8.2069592,10.881172 8.5721378,10.614834 8.9712603,10.366487 Z M 9.5909688,10.012047 C 10.007655,9.794116 10.422609,9.614501 10.822048,9.476409 c 0.01503,0.139125 0.02558,0.275363 0.02751,0.405829 0.0091,0.621466 -0.125908,1.109607 -0.370742,1.437756 -0.02411,0.03231 0.0262,-0.02918 0,0 l -0.13173,-0.0047 -0.7560939,-1.303241 z m -2.2337603,1.637149 c 0.1666682,0.126889 0.3349139,0.245435 0.5048028,0.346369 0.071432,0.04244 0.1433727,0.08161 0.2156492,0.118303 0.062871,0.03192 -0.1292989,0.07175 -0.066033,0.100415 -0.08519,0.0058 0.084974,-7.62e-4 0,0 -0.3522356,0.0032 -0.701768,-0.0366 -1.0415817,-0.118276 0.11637,-0.147794 0.2424479,-0.297129 0.3871464,-0.446818 z M 11.516328,9.273941 c 0.201213,-0.04805 0.392997,-0.08086 0.578025,-0.105326 -0.101573,0.3366614 -0.24514,0.6602593 -0.428237,0.964135 -0.03927,0.06517 0.04288,-0.06329 0,0 0.0062,-0.06593 -0.11187,0.06044 -0.10824,-0.0065 0.0046,-0.08464 0.0067,-0.1702657 0.0055,-0.257258 -0.0028,-0.192672 -0.021,-0.392555 -0.047,-0.595025 z"
     id="path4"
     sodipodi:nodetypes="ccccsscccscccccccsccccsccccccscccscccscccssccscccccsccccccccccccccccccccccccccccccccccccccccccccccscccccccsccccccscscccccscsccc" />
</svg>
