<?xml version="1.0" encoding="UTF-8" standalone="no"?>
<svg
   width="24"
   height="24"
   version="1.1"
   id="svg12"
   sodipodi:docname="Nextcloud_error_shared.svg"
   inkscape:version="1.1.2 (0a00cf5339, 2022-02-04)"
   xmlns:inkscape="http://www.inkscape.org/namespaces/inkscape"
   xmlns:sodipodi="http://sodipodi.sourceforge.net/DTD/sodipodi-0.dtd"
   xmlns="http://www.w3.org/2000/svg"
   xmlns:svg="http://www.w3.org/2000/svg">
  <defs
     id="defs16" />
  <sodipodi:namedview
     id="namedview14"
     pagecolor="#ffffff"
     bordercolor="#666666"
     borderopacity="1.0"
     inkscape:pageshadow="2"
     inkscape:pageopacity="0.0"
     inkscape:pagecheckerboard="0"
     showgrid="false"
     inkscape:zoom="89.095454"
     inkscape:cx="12.003979"
     inkscape:cy="19.035764"
     inkscape:window-width="1872"
     inkscape:window-height="925"
     inkscape:window-x="0"
     inkscape:window-y="35"
     inkscape:window-maximized="1"
     inkscape:current-layer="svg12" />
  <rect
     style="fill:#4c4f5c"
     width="12"
     height="10"
     x="7"
     y="14"
     id="rect2" />
  <circle
     style="fill:#4c4f5c"
     cx="7"
     cy="19"
     r="5"
     id="circle4" />
  <path
     style="fill:#ffffff"
     d="M 9.5,15 A 1.5,1.5 0 0 0 8,16.5 1.5,1.5 0 0 0 8.0195312,16.736328 L 5.578125,17.957031 a 1.5,1.5 0 0 1 -0.00195,-0.002 A 1.5,1.5 0 0 0 4.5,17.5 1.5,1.5 0 0 0 3,19 1.5,1.5 0 0 0 4.5,20.5 1.5,1.5 0 0 0 5.5761719,20.041016 l 2.4433593,1.222656 A 1.5,1.5 0 0 0 8,21.5 1.5,1.5 0 0 0 9.5,23 1.5,1.5 0 0 0 11,21.5 1.5,1.5 0 0 0 9.5,20 1.5,1.5 0 0 0 8.4238281,20.458984 L 5.9804688,19.236328 A 1.5,1.5 0 0 0 6,19 1.5,1.5 0 0 0 5.9804688,18.761719 L 8.421875,17.541016 A 1.5,1.5 0 0 0 9.5,18 1.5,1.5 0 0 0 11,16.5 1.5,1.5 0 0 0 9.5,15 Z"
     id="path6" />
  <circle
     style="fill:#fd3535"
     cx="19"
     cy="19"
     r="5"
     id="circle8" />
  <path
     style="fill:#ffffff"
     d="m 17.15336,16.19336 v 0 l 1.708222,1.708222 0.298031,-0.0212 v 0 l 1.582329,-1.582329 v 0 l 0.514965,-0.08115 0.476267,0.476267 6.35e-4,0.533017 v 0 l -1.619978,1.619977 -8.82e-4,0.30678 v 0 l 1.564282,1.564282 0.09623,0.549313 v 0 l -0.444369,0.444364 -0.564234,0.01395 v 0 L 19.15294,20.11294 18.879385,20.080615 v 0 l -1.653477,1.653477 v 0 l -0.485006,0.04681 -0.571731,-0.571731 v 0 l 0.04897,-0.387307 1.678714,-1.678714 0.01024,-0.276056 v 0 L 16.25702,17.21702 v 0 l 0.06362,-0.577663 0.413249,-0.413249 z"
     id="path10"
     sodipodi:nodetypes="ccccccccccccccccccccccccccccccccccccc" />
</svg>
