<?xml version="1.0" encoding="UTF-8" standalone="no"?>
<svg
   width="24"
   height="24"
   version="1.1"
   id="svg4243"
   sodipodi:docname="vcs-update-required.svg"
   inkscape:version="1.1.2 (0a00cf5339, 2022-02-04)"
   xmlns:inkscape="http://www.inkscape.org/namespaces/inkscape"
   xmlns:sodipodi="http://sodipodi.sourceforge.net/DTD/sodipodi-0.dtd"
   xmlns="http://www.w3.org/2000/svg"
   xmlns:svg="http://www.w3.org/2000/svg">
  <defs
     id="defs4247" />
  <sodipodi:namedview
     id="namedview4245"
     pagecolor="#000000"
     bordercolor="#666666"
     borderopacity="1.0"
     inkscape:pageshadow="2"
     inkscape:pageopacity="0"
     inkscape:pagecheckerboard="0"
     showgrid="false"
     inkscape:zoom="34.458333"
     inkscape:cx="12.01451"
     inkscape:cy="11.97098"
     inkscape:window-width="1507"
     inkscape:window-height="980"
     inkscape:window-x="205"
     inkscape:window-y="49"
     inkscape:window-maximized="1"
     inkscape:current-layer="svg4243" />
  <circle
     style="fill:#2b62c0"
     cx="12"
     cy="12"
     r="10"
     id="circle4239" />
  <path
     style="fill:#ffffff"
     d="m 12,3.7073911 v 0 0 l 0,5.578784 v 0 l 0.716616,0.2121937 v 0 0 l 3.679458,-2.5756201 v 0 0 l 0.0582,-0.8047551 v 0 L 12.779361,3.5455524 v 0 z M 12,5 c -3.8659932,0 -7,3.1340068 -7,7 0,3.865993 3.1340068,7 7,7 3.865993,0 7,-3.134007 7,-7 h -3 c 0,2.209139 -1.790861,4 -4,4 C 9.790861,16 8,14.209139 8,12 8,9.790861 9.790861,8 12,8 Z"
     id="path4241"
     sodipodi:nodetypes="cccccccccccccccccssccsscc" />
</svg>
