<?xml version="1.0" encoding="UTF-8" standalone="no"?>
<svg
   width="24"
   height="24"
   version="1.1"
   id="svg2170194"
   sodipodi:docname="vcs-conflicting.svg"
   inkscape:version="1.1.2 (0a00cf5339, 2022-02-04)"
   xmlns:inkscape="http://www.inkscape.org/namespaces/inkscape"
   xmlns:sodipodi="http://sodipodi.sourceforge.net/DTD/sodipodi-0.dtd"
   xmlns="http://www.w3.org/2000/svg"
   xmlns:svg="http://www.w3.org/2000/svg">
  <defs
     id="defs2170198" />
  <sodipodi:namedview
     id="namedview2170196"
     pagecolor="#000000"
     bordercolor="#666666"
     borderopacity="1.0"
     inkscape:pageshadow="2"
     inkscape:pageopacity="0"
     inkscape:pagecheckerboard="0"
     showgrid="false"
     inkscape:zoom="34.458333"
     inkscape:cx="12"
     inkscape:cy="9.9250303"
     inkscape:window-width="1872"
     inkscape:window-height="925"
     inkscape:window-x="0"
     inkscape:window-y="35"
     inkscape:window-maximized="1"
     inkscape:current-layer="svg2170194" />
  <circle
     style="fill:#fd3535"
     cx="12"
     cy="12"
     r="10"
     id="circle2170190" />
  <path
     style="fill:#ffffff"
     d="m 7.6254821,6.3745179 0.7613047,0.012269 3.3134962,3.3134957 0.561841,0.037593 v 0 l 3.313754,-3.3137537 0.809472,-0.038772 v 0 l 1.269267,1.2692672 0.08463,0.6061394 v 0 l -3.462762,3.4627585 0.0069,0.559832 v 0 l 3.374525,3.374525 v 0 l 0.01987,0.664384 -1.326531,1.326531 v 0 l -0.750493,-0.04803 -3.332129,-3.332129 -0.516852,-0.0204 v 0 l -3.334606,3.334606 -0.7808839,0.05345 v 0 L 6.3877573,16.387757 v 0 l 0.00416,-0.77967 3.4034764,-3.40348 v 0 L 9.7585627,11.758563 6.4341281,8.4341281 6.3655061,7.6344939 v 0 z"
     id="path2170192"
     sodipodi:nodetypes="cccccccccccccccccccccccccccccccccccc" />
</svg>
