<?xml version="1.0" encoding="UTF-8" standalone="no"?>
<svg
   width="16"
   height="16"
   version="1.1"
   id="svg4"
   sodipodi:docname="eye-not-looking-symbolic.svg"
   inkscape:version="1.1.2 (0a00cf5339, 2022-02-04)"
   xmlns:inkscape="http://www.inkscape.org/namespaces/inkscape"
   xmlns:sodipodi="http://sodipodi.sourceforge.net/DTD/sodipodi-0.dtd"
   xmlns="http://www.w3.org/2000/svg"
   xmlns:svg="http://www.w3.org/2000/svg">
  <defs
     id="defs8" />
  <sodipodi:namedview
     id="namedview6"
     pagecolor="#ffffff"
     bordercolor="#666666"
     borderopacity="1.0"
     inkscape:pageshadow="2"
     inkscape:pageopacity="0.0"
     inkscape:pagecheckerboard="0"
     showgrid="false"
     inkscape:zoom="52.4375"
     inkscape:cx="8"
     inkscape:cy="8"
     inkscape:window-width="1920"
     inkscape:window-height="1051"
     inkscape:window-x="0"
     inkscape:window-y="29"
     inkscape:window-maximized="1"
     inkscape:current-layer="svg4" />
  <path
     d="M 8,2 C 4.5213777,2 1.4162373,4.2408913 0.128137,7.6400053 0.08319201,7.7586087 0.1414557,8.1660971 0.10099647,8.2874748 c 0.0322328,0.096699 -0.03508781,-0.094944 0,0 C 1.372197,11.7272 4.4966985,14 8,14 c 3.513386,0 6.645788,-2.285904 7.909935,-5.7422579 0.03116,-0.085208 -0.03691,-0.4507608 -0.008,-0.537375 -0.03135,-0.094037 0.03405,0.092378 0,0 C 14.63255,4.276255 11.505963,2 8,2 Z m 0,2 c 5.333331,0 5.333331,8 0,8 C 2.666669,12 2.666669,4 8,4 Z m 0,2 c -2.6666655,0 -2.6666655,4 0,4 2.666666,0 2.666666,-4 0,-4 z"
     id="path2"
     sodipodi:nodetypes="sscssscssssssss" />
</svg>
