<?xml version="1.0" encoding="UTF-8" standalone="no"?>
<svg
   width="16"
   height="16"
   version="1.1"
   id="svg4"
   sodipodi:docname="eye-open-negative-filled-symbolic.svg"
   inkscape:version="1.1.2 (0a00cf5339, 2022-02-04)"
   xmlns:inkscape="http://www.inkscape.org/namespaces/inkscape"
   xmlns:sodipodi="http://sodipodi.sourceforge.net/DTD/sodipodi-0.dtd"
   xmlns="http://www.w3.org/2000/svg"
   xmlns:svg="http://www.w3.org/2000/svg">
  <defs
     id="defs8" />
  <sodipodi:namedview
     id="namedview6"
     pagecolor="#ffffff"
     bordercolor="#666666"
     borderopacity="1.0"
     inkscape:pageshadow="2"
     inkscape:pageopacity="0.0"
     inkscape:pagecheckerboard="0"
     showgrid="false"
     inkscape:zoom="148.31565"
     inkscape:cx="8.0099438"
     inkscape:cy="4.1903873"
     inkscape:window-width="1920"
     inkscape:window-height="1051"
     inkscape:window-x="0"
     inkscape:window-y="29"
     inkscape:window-maximized="1"
     inkscape:current-layer="svg4" />
  <path
     d="M 2.27,1 1,2.27 2.524038,3.794038 2.4626083,4.1803031 c -0.080453,0.068779 0.077799,-0.071409 0,0 -1.0522606,0.965842 -1.85925884,2.1685898 -2.35406187,3.5083399 -0.0380372,0.1029912 -2.0525e-4,0.4203346 -0.0345222,0.5248996 0.07402423,0.2135426 -0.02545878,-0.070699 0,0 C 1.3275532,11.694595 4.4716595,14 8,14 c 1.2716901,0 2.498348,-0.306219 3.603048,-0.850278 0.05934,-0.02923 -0.05862,0.03059 0,0 l 0.296054,0.02877 L 13.73,15 15,13.73 Z M 8,2 C 7.5395182,2 6.9842459,2.090786 6.536896,2.1686719 6.465017,2.1811859 6.595726,2.1669219 6.524287,2.1814509 6.459109,2.1947039 6.4071139,2.2696559 6.3857597,2.3597066 l -0.039808,0.1678699 v 0 0 L 7.82,4.01 c 2.339808,-0.1014988 4.265881,1.8199555 4.17,4.16 l 2.300972,2.300972 0.456963,-0.05274 c 0.07426,-0.09581 -0.071,0.0987 0,0 C 15.269726,9.6928369 15.700722,8.8890327 16,8 14.8,4.4 11.6,2 8,2 Z M 4.4573129,6.1208733 4.7769439,6.0569439 6.1,7.38 C 5.5900344,8.9398624 7.0721695,10.416139 8.63,9.9 l 1.2380098,1.246319 -0.045676,0.427161 c -0.098826,0.06265 0.09957,-0.05305 0,0 C 6.3684283,13.41386 2.55441,9.5706462 4.4573129,6.1208733 c 0.044421,-0.080531 -0.050729,0.080025 0,0 z"
     id="path2"
     sodipodi:nodetypes="ccccsscssscccccsssscccccccscsccccccssc" />
</svg>
