<?xml version="1.0" encoding="UTF-8" standalone="no"?>
<svg
   width="16"
   height="16"
   version="1.1"
   id="svg4"
   sodipodi:docname="keyboard-hide-symbolic.svg"
   inkscape:version="1.1.2 (0a00cf5339, 2022-02-04)"
   xmlns:inkscape="http://www.inkscape.org/namespaces/inkscape"
   xmlns:sodipodi="http://sodipodi.sourceforge.net/DTD/sodipodi-0.dtd"
   xmlns="http://www.w3.org/2000/svg"
   xmlns:svg="http://www.w3.org/2000/svg">
  <defs
     id="defs8" />
  <sodipodi:namedview
     id="namedview6"
     pagecolor="#ffffff"
     bordercolor="#666666"
     borderopacity="1.0"
     inkscape:pageshadow="2"
     inkscape:pageopacity="0.0"
     inkscape:pagecheckerboard="0"
     showgrid="false"
     inkscape:zoom="52.4375"
     inkscape:cx="8"
     inkscape:cy="8"
     inkscape:window-width="1920"
     inkscape:window-height="1051"
     inkscape:window-x="0"
     inkscape:window-y="29"
     inkscape:window-maximized="1"
     inkscape:current-layer="svg4" />
  <path
     d="M 2,0 C 0.8954305,0 0,0.8954305 0,2 v 8 c 0,1.1 0.9,2 2,2 h 11 c 1.104569,0 2,-0.895431 2,-2 V 2 C 15,0.8954305 14.104569,0 13,0 Z M 2,2 H 4 V 4 H 2 Z M 5,2 H 7 V 4 H 5 Z m 3,0 h 2 V 4 H 8 Z m 3,0 h 2 V 4 H 11 Z M 2,5 H 4 V 7 H 2 Z M 5,5 H 7 V 7 H 5 Z m 3,0 h 2 V 7 H 8 Z m 3,0 h 2 V 7 H 11 Z M 3,8 h 9 v 2 H 3 Z m 4.8727064,7.627294 v 0 L 10.000313,13.499687 9.828139,13 v 0 H 5.2331074 v 0 l -0.2097275,0.52338 2.182346,2.182346 z"
     id="path2"
     sodipodi:nodetypes="sssssssssccccccccccccccccccccccccccccccccccccccccccccccccccccccc" />
</svg>
