<?xml version="1.0" encoding="UTF-8" standalone="no"?>
<svg
   width="20"
   height="20"
   id="svg2"
   version="1.1"
   sodipodi:docname="pointer-secondary-click-symbolic.svg"
   inkscape:version="1.1.2 (0a00cf5339, 2022-02-04)"
   xmlns:inkscape="http://www.inkscape.org/namespaces/inkscape"
   xmlns:sodipodi="http://sodipodi.sourceforge.net/DTD/sodipodi-0.dtd"
   xmlns="http://www.w3.org/2000/svg"
   xmlns:svg="http://www.w3.org/2000/svg">
  <defs
     id="defs8" />
  <sodipodi:namedview
     id="namedview6"
     pagecolor="#ffffff"
     bordercolor="#666666"
     borderopacity="1.0"
     inkscape:pageshadow="2"
     inkscape:pageopacity="0.0"
     inkscape:pagecheckerboard="0"
     showgrid="false"
     inkscape:zoom="41.95"
     inkscape:cx="10"
     inkscape:cy="13.814064"
     inkscape:window-width="1920"
     inkscape:window-height="1051"
     inkscape:window-x="0"
     inkscape:window-y="29"
     inkscape:window-maximized="1"
     inkscape:current-layer="g5847" />
  <g
     id="layer1"
     style="display:inline;stroke-width:1.5;stroke-miterlimit:4;stroke-dasharray:none;stroke:#000000;stroke-opacity:1">
    <g
       transform="matrix(-1,0,0,1,42,-0.75)"
       id="g5847"
       style="stroke-width:1.5;stroke-miterlimit:4;stroke-dasharray:none;stroke:#000000;stroke-opacity:1">
      <path
         style="color:#000000;shape-padding:0;clip-rule:nonzero;display:block;overflow:visible;visibility:visible;opacity:1;solid-color:#000000;solid-opacity:1;fill:#464646;fill-opacity:1;fill-rule:nonzero;stroke:none;stroke-width:1.5;stroke-linecap:butt;stroke-linejoin:miter;stroke-miterlimit:10;stroke-dasharray:none;stroke-dashoffset:0;stroke-opacity:1;marker:none;enable-background:accumulate"
         d="m 26.427149,1.0499526 -0.57168,0.3526616 V 19.385926 l 0.10499,0.3272 0.312376,0.108349 v 0 0 0 0 l 0.356434,-0.0377 v 0 l 3.274646,-3.196284 0.321972,0.06137 c 0.04232,0.084 -0.04188,-0.08425 0,0 0.564035,1.13482 1.091463,2.290484 1.693431,3.403709 1.141947,1.476279 3.975266,0.389006 3.846009,-1.473608 -0.09413,-0.822519 -0.594755,-1.521423 -0.899969,-2.277599 L 34.087057,14.63427 v 0 l 0.224175,-0.253411 h 4.075209 v 0 l 0.250852,-0.625371 z m 1.312142,3.5311137 v 0 l 7.53389,7.8401737 -0.199961,0.459619 v 0 h -3.070672 v 0 c 0.05256,0.113021 -0.284106,0.226024 -0.231471,0.339013 0.833713,1.789674 1.676132,3.575708 2.501826,5.368731 0.0349,0.566084 -1.149057,0.988823 -1.282093,0.297971 l -2.315294,-4.726838 v 0 l -0.342825,-0.08908 -2.560267,2.498934 -0.416998,-0.15441 v 0 l 4.1e-5,-11.5927545 z"
         id="path5851"
         sodipodi:nodetypes="cccccccccccccsccccccccccccccccccsccccccccc" />
    </g>
  </g>
</svg>
