<?xml version="1.0" encoding="UTF-8" standalone="no"?>
<svg
   width="20"
   height="20"
   id="svg2"
   version="1.1"
   sodipodi:docname="pointer-drag-symbolic.svg"
   inkscape:version="1.1.2 (0a00cf5339, 2022-02-04)"
   xmlns:inkscape="http://www.inkscape.org/namespaces/inkscape"
   xmlns:sodipodi="http://sodipodi.sourceforge.net/DTD/sodipodi-0.dtd"
   xmlns="http://www.w3.org/2000/svg"
   xmlns:svg="http://www.w3.org/2000/svg">
  <defs
     id="defs7" />
  <sodipodi:namedview
     id="namedview5"
     pagecolor="#ffffff"
     bordercolor="#666666"
     borderopacity="1.0"
     inkscape:pageshadow="2"
     inkscape:pageopacity="0.0"
     inkscape:pagecheckerboard="0"
     showgrid="false"
     inkscape:zoom="41.95"
     inkscape:cx="10"
     inkscape:cy="10"
     inkscape:window-width="1920"
     inkscape:window-height="1051"
     inkscape:window-x="0"
     inkscape:window-y="29"
     inkscape:window-maximized="1"
     inkscape:current-layer="g835" />
  <g
     id="g835">
    <path
       style="color:#000000;shape-padding:0;clip-rule:nonzero;display:block;overflow:visible;visibility:visible;opacity:1;solid-color:#000000;solid-opacity:1;fill:#464646;fill-opacity:1;fill-rule:nonzero;stroke:none;stroke-width:1.5;stroke-linecap:butt;stroke-linejoin:miter;stroke-miterlimit:10;stroke-dasharray:none;stroke-dashoffset:0;stroke-opacity:1;marker:none;enable-background:accumulate"
       d="M 10.705078,1.671875 C 9.8685536,1.7465699 8.886927,1.5353073 8.2578125,2.2480469 8.0785627,2.7511513 7.8667422,2.9777446 7.3125,2.8652344 6.5186841,2.8141575 5.6105879,2.9190179 5.125,3.6386719 4.5700923,4.4696324 4.8113194,5.4949043 4.7578125,6.4316406 V 7.9335938 C 4.2480917,7.6156216 3.6258927,7.8015358 3.0585938,7.7519531 2.6157606,7.7312277 2.1774807,7.7771069 1.7402344,7.84375 c 0.056931,2.685928 0.073733,5.373339 0.1210937,8.058594 0.093691,1.302291 1.2320438,2.404811 2.5449219,2.423828 0.6329493,0.0151 1.4823301,0.0068 2.2246094,0.01172 3.221817,-0.01207 6.4461136,0.04985 9.6660156,-0.05664 1.162213,-0.120223 2.213268,-1.188452 2.070313,-2.396484 V 6.4042969 C 17.660379,5.4636119 16.551912,4.623434 15.308594,4.8339844 15.009045,4.3804158 14.822476,3.3608651 14.082031,3.0351562 13.727176,2.744118 13.242443,2.9253873 12.822266,2.8730469 12.524824,2.8003648 11.966366,3.0655864 11.953125,2.6210938 11.795774,2.0995736 11.23789,1.7125276 10.705078,1.671875 Z m -0.105469,1.5039062 c 0.164522,0.2714602 0.182773,0.753717 0.21875,1.125 0.0066,0.0069 0.0198,0.00591 0.02734,0.011719 -0.0091,-1.732e-4 -0.01824,1.732e-4 -0.02734,0 l 0.385604,4.6043787 0.246531,0.082067 v 0 L 11.976562,4.3710938 13.322266,4.375 c 0.536079,0.3895492 0.412986,1.1404752 0.554687,1.7226562 -0.01113,0.067472 0.0064,0.096046 0.01563,0.1367188 -6.5e-4,-8.3e-6 -0.0013,8.3e-6 -0.002,0 l 0.01172,0.085937 0.34178,2.7383932 0.29976,0.1875784 v 0 L 15.048828,6.265625 c 0.574035,-0.037127 1.157689,0.038512 1.558594,0.5019531 0.40964,0.2168652 0.215641,0.688971 0.259766,1.0585938 v 8.3417971 c -0.337059,0.963685 -1.599977,0.548271 -2.375,0.660156 -3.370517,0.01308 -6.7421372,0.03383 -10.1113286,-0.01367 C 3.4051926,16.786173 3.2389196,15.744474 3.3398438,14.972656 3.3282027,13.065594 3.2950998,11.158732 3.2617188,9.2519531 3.5880829,9.2584131 3.9376766,9.2391948 4.25,9.2617188 4.7438842,10.17694 4.7346154,11.262903 4.7578125,12.277344 c 0.4926369,-0.0068 1.0433814,0.03983 1.5,0 C 6.2669593,9.7577406 6.2393741,7.2373172 6.2714844,4.71875 6.3763823,4.198849 7.0022289,4.409587 7.3828125,4.3652344 h 0.6757813 l 0.388675,4.6547729 0.2324418,0.027571 v 0 L 9.2167969,4.3359375 h -0.00391 C 9.2438386,3.9531035 9.0622615,3.4401006 9.4609375,3.2167969 Z"
       id="path5630"
       sodipodi:nodetypes="cccccccccccccccccccccccccccccccccccccccccccccccccccccccc" />
  </g>
</svg>
