<?xml version="1.0" encoding="UTF-8" standalone="no"?>
<svg
   width="16"
   height="16"
   version="1.1"
   id="svg6"
   sodipodi:docname="accessories-character-map-symbolic.svg"
   inkscape:version="1.1.2 (0a00cf5339, 2022-02-04)"
   xmlns:inkscape="http://www.inkscape.org/namespaces/inkscape"
   xmlns:sodipodi="http://sodipodi.sourceforge.net/DTD/sodipodi-0.dtd"
   xmlns="http://www.w3.org/2000/svg"
   xmlns:svg="http://www.w3.org/2000/svg">
  <defs
     id="defs10" />
  <sodipodi:namedview
     id="namedview8"
     pagecolor="#ffffff"
     bordercolor="#666666"
     borderopacity="1.0"
     inkscape:pageshadow="2"
     inkscape:pageopacity="0.0"
     inkscape:pagecheckerboard="0"
     showgrid="false"
     inkscape:zoom="47.4375"
     inkscape:cx="8"
     inkscape:cy="8"
     inkscape:window-width="1822"
     inkscape:window-height="928"
     inkscape:window-x="0"
     inkscape:window-y="35"
     inkscape:window-maximized="1"
     inkscape:current-layer="svg6" />
  <path
     style="opacity:0.35;fill:#5c616c"
     d="M 7,0 C 5.892,0 5,0.892 5,2 v 2 h 5 c 0.741,0 1.379,0.4042 1.725,1 H 13.75 C 14.443,5 15,5.56 15,6.25 v 0.5 C 15,7.44 14.443,8.01 13.75,8 L 12,7.9805 V 9 h 2.5 v 1 H 12 v 1 h 2 c 1.108,0 2,-0.892 2,-2 V 2 C 16,0.892 15.108,0 14,0 Z m 4,3 h 1 v 1 h -1 z m 2,0 h 1 v 1 h -1 z m -1,3.1604123 v 0 0.5900715 L 12.188794,7 V 7 H 13.6 C 13.822,7 14,6.8196 14,6.5996 V 6.4004 C 14,6.1804 13.822,6 13.6,6 h -1.411206 z"
     id="path2"
     sodipodi:nodetypes="sscscssscccccccssssscccccccccccccccsssscc" />
  <path
     style="fill:#5c616c"
     d="M 2,5 C 0.892,5 0,5.892 0,7 v 7 c 0,1.108 0.892,2 2,2 h 7 c 1.108,0 2,-0.892 2,-2 V 7 C 11,5.892 10.108,5 9,5 Z M 9.123,7.1289 9.3809,8.0938 6,9 5.7422,8.0332 Z M 5.5,10 H 8.75 C 9.4425,10 10,10.557 10,11.25 v 2.5 C 10,14.443 9.4425,15 8.75,15 H 6.25 C 5.5575,15 5,14.443 5,13.75 v -0.5 C 5,12.557 5.5575,11.993 6.25,12 L 9.0078,12.027 9,11.4 C 9,11.179 8.8212,11 8.5996,11 H 5.5 Z m 0.9004,3 C 6.1788,13 6,13.179 6,13.4 v 0.2 C 6,13.821 6.1788,14 6.4004,14 h 2.3735534 v 0 L 9,13.72791 v -0.590072 0 L 8.8157925,13 Z"
     id="path4"
     sodipodi:nodetypes="sssssssssccccccssssssscccsccssssccccccs" />
</svg>
