<?xml version="1.0" encoding="UTF-8" standalone="no"?>
<svg
   width="16"
   height="16"
   version="1"
   id="svg4"
   sodipodi:docname="applets-screenshooter-symbolic.svg"
   inkscape:version="1.1.2 (0a00cf5339, 2022-02-04)"
   xmlns:inkscape="http://www.inkscape.org/namespaces/inkscape"
   xmlns:sodipodi="http://sodipodi.sourceforge.net/DTD/sodipodi-0.dtd"
   xmlns="http://www.w3.org/2000/svg"
   xmlns:svg="http://www.w3.org/2000/svg">
  <defs
     id="defs8" />
  <sodipodi:namedview
     id="namedview6"
     pagecolor="#ffffff"
     bordercolor="#666666"
     borderopacity="1.0"
     inkscape:pageshadow="2"
     inkscape:pageopacity="0.0"
     inkscape:pagecheckerboard="0"
     showgrid="false"
     inkscape:zoom="47.25"
     inkscape:cx="8"
     inkscape:cy="8"
     inkscape:window-width="1880"
     inkscape:window-height="966"
     inkscape:window-x="0"
     inkscape:window-y="29"
     inkscape:window-maximized="1"
     inkscape:current-layer="svg4" />
  <path
     style="fill:#5c616c"
     d="M 8,0 C 3.581722,0 0,3.581722 0,8 c 0,4.418278 3.581722,8 8,8 4.418278,0 8,-3.581722 8,-8 C 16,3.581722 12.418278,0 8,0 Z m 0,3 c 0.1860201,7.044e-4 0.3718558,0.011789 0.5566406,0.033203 L 6.4029829,6.7635147 v 0 L 6.1328908,6.7649662 4.6875,4.2636719 C 5.6002491,3.4519809 6.7785472,3.0024768 8,3 Z M 9.5820312,3.2617188 C 10.922219,3.7103064 12.009971,4.7051059 12.576172,6 H 8.2371277 V 6 L 8.102002,5.8234483 Z M 3.9804688,5.0371094 6.1168956,8.7389114 6.0363434,9 V 9 H 3.1054688 C 3.036799,8.6710577 3.00146,8.3360306 3,8 3.0023272,6.9330556 3.3458922,5.8948322 3.9804688,5.0371094 Z M 9.9728642,7 V 7 H 12.894531 C 12.963201,7.3289423 12.998536,7.6639694 13,8 c -0.0022,0.9927975 -0.299788,1.9607271 -0.852403,2.781505 -0.04127,0.0613 0.128066,-0.181386 0,0 L 11.910274,10.77358 9.8291892,7.1676694 Z m -0.4051919,2.285257 0.3159,-0.0235 L 11.3125,11.736328 C 10.399751,12.548019 9.2214528,12.9975 8,13 7.8133282,12.999368 7.6268383,12.988283 7.4414062,12.966797 Z M 3.4238281,10 H 7.708332 v 0 l 0.1742408,0.203251 -1.464604,2.53503 C 5.0777808,12.289693 3.9900295,11.294894 3.4238281,10 Z"
     id="path2"
     sodipodi:nodetypes="sssssccccccccccccccccccccccccsccccccccccccccccc" />
</svg>
