<?xml version="1.0" encoding="UTF-8" standalone="no"?>
<svg
   width="16"
   height="16"
   version="1.1"
   id="svg4"
   sodipodi:docname="bluetooth-symbolic.svg"
   inkscape:version="1.1.2 (0a00cf5339, 2022-02-04)"
   xmlns:inkscape="http://www.inkscape.org/namespaces/inkscape"
   xmlns:sodipodi="http://sodipodi.sourceforge.net/DTD/sodipodi-0.dtd"
   xmlns="http://www.w3.org/2000/svg"
   xmlns:svg="http://www.w3.org/2000/svg">
  <defs
     id="defs8" />
  <sodipodi:namedview
     id="namedview6"
     pagecolor="#ffffff"
     bordercolor="#666666"
     borderopacity="1.0"
     inkscape:pageshadow="2"
     inkscape:pageopacity="0.0"
     inkscape:pagecheckerboard="0"
     showgrid="false"
     inkscape:zoom="47.25"
     inkscape:cx="8"
     inkscape:cy="8"
     inkscape:window-width="1854"
     inkscape:window-height="966"
     inkscape:window-x="0"
     inkscape:window-y="29"
     inkscape:window-maximized="1"
     inkscape:current-layer="svg4" />
  <path
     style="fill:#5c616c"
     d="M 7.5,0 C 4.45,0 2,2.68 2,6 v 4 c 0,3.32 2.45,6 5.5,6 3.05,0 5.5,-2.68 5.5,-6 V 6 C 13,2.68 10.55,0 7.5,0 Z M 7,2.2061822 7.1793219,2 H 7.5 C 7.71,2 7.8485,2.1585 8,2.31 l 3.022408,2.994509 0.01666,0.3991546 v 0 L 8.25,8 l 2.80199,2.306972 0.01884,0.340548 v 0 L 8,13.69 C 7.8516,13.838 7.7109,14 7.5,14 H 7.1577678 v 0 L 7,13.76109 v -4.4865597 0 L 6.8664812,9.1700294 4.84,10.84 C 4.75,10.93 4.64,11 4.5,11 H 4.2162724 v 0 L 4,10.713712 V 10.5 C 4,10.35 4.08,10.22 4.19,10.13 L 6.6218127,8.1066559 6.5846145,7.8630401 v 0 L 4.19,5.88 C 4.08,5.78 4,5.65 4,5.5 v -0.2464406 0 L 4.1947196,5 H 4.5 c 0.12,0 0.23,0.05 0.31,0.13 0.00845,0 1.5657447,1.2918962 2.0488012,1.6927971 0.088716,0.073628 0,0 0,0 L 7,6.6927419 Z M 8.1913718,3.8813718 8,3.962505 V 6.6291207 L 8.1936435,6.780081 v 0 L 9.6436353,5.5826158 v 0 L 9.6304942,5.3204942 Z M 8,9.3169436 v 0 2.6666164 l 0.2501632,0.07628 v 0 l 1.3543598,-1.35436 v 0 L 9.5898358,10.372954 8.2211119,9.2426036 Z"
     id="path2"
     sodipodi:nodetypes="sssssssccscccccccccscccccccscccscccccscccscscccccccccccccccccccccccc" />
</svg>
