<?xml version="1.0" encoding="UTF-8" standalone="no"?>
<svg
   width="16"
   height="16"
   version="1.1"
   id="svg699438"
   sodipodi:docname="com.github.taiko2k.tauonmb-symbolic.svg"
   inkscape:version="1.1.2 (0a00cf5339, 2022-02-04)"
   xmlns:inkscape="http://www.inkscape.org/namespaces/inkscape"
   xmlns:sodipodi="http://sodipodi.sourceforge.net/DTD/sodipodi-0.dtd"
   xmlns="http://www.w3.org/2000/svg"
   xmlns:svg="http://www.w3.org/2000/svg">
  <defs
     id="defs699442" />
  <sodipodi:namedview
     id="namedview699440"
     pagecolor="#ffffff"
     bordercolor="#666666"
     borderopacity="1.0"
     inkscape:pageshadow="2"
     inkscape:pageopacity="0.0"
     inkscape:pagecheckerboard="0"
     showgrid="false"
     inkscape:zoom="51.6875"
     inkscape:cx="7.9903265"
     inkscape:cy="8"
     inkscape:window-width="1920"
     inkscape:window-height="1051"
     inkscape:window-x="0"
     inkscape:window-y="29"
     inkscape:window-maximized="1"
     inkscape:current-layer="svg699438" />
  <path
     style="fill:#5c616c"
     d="M 6.1445,3.3613 C 4.2468838,4.1196566 3.0017432,5.9564617 3,8 H 4.7839034 L 5.0104311,7.7500166 c 1.62e-5,-0.083964 -0.0069,0.082636 0,0 0.087892,-1.0526271 0.7250284,-1.9839318 1.6762238,-2.4467272 0.06523,-0.031737 0.034455,-0.3047137 0.1025629,-0.3319322 v 0 z m 4.839168,4.9512118 c -2.8e-5,0.1051909 0.01079,-0.1030402 0,0 -0.105384,1.0067053 -0.713585,1.8949982 -1.6159286,2.3568492 -0.082413,0.04218 0.087161,-0.03483 0,0 L 9.2136656,11.035711 9.8555,12.639 C 11.753218,11.880603 12.998379,10.043648 13,8 H 11.287563 Z M 10,8 C 10,9.1045695 9.1045695,10 8,10 6.8954305,10 6,9.1045695 6,8 6,6.8954305 6.8954305,6 8,6 9.1045695,6 10,6.8954305 10,8 Z M 8,0 C 3.581722,0 0,3.581722 0,8 c 0,4.418278 3.581722,8 8,8 4.418278,0 8,-3.581722 8,-8 C 16,3.581722 12.418278,0 8,0 Z m 0,2 c 3.313708,0 6,2.6862915 6,6 0,3.313708 -2.686292,6 -6,6 C 4.6862915,14 2,11.313708 2,8 2,4.6862915 4.6862915,2 8,2 Z"
     id="path699436"
     sodipodi:nodetypes="ccccssccccssccccccsssssssssssssss" />
</svg>
