<?xml version="1.0" encoding="UTF-8" standalone="no"?>
<svg
   width="16"
   height="16"
   version="1.1"
   id="svg16"
   sodipodi:docname="gnome-characters-symbolic.svg"
   inkscape:version="1.2 (dc2aedaf03, 2022-05-15)"
   xmlns:inkscape="http://www.inkscape.org/namespaces/inkscape"
   xmlns:sodipodi="http://sodipodi.sourceforge.net/DTD/sodipodi-0.dtd"
   xmlns="http://www.w3.org/2000/svg"
   xmlns:svg="http://www.w3.org/2000/svg">
  <defs
     id="defs20" />
  <sodipodi:namedview
     id="namedview18"
     pagecolor="#505050"
     bordercolor="#ffffff"
     borderopacity="1"
     inkscape:showpageshadow="0"
     inkscape:pageopacity="0"
     inkscape:pagecheckerboard="1"
     inkscape:deskcolor="#505050"
     showgrid="false"
     inkscape:zoom="54.4375"
     inkscape:cx="7.9908152"
     inkscape:cy="8"
     inkscape:window-width="1444"
     inkscape:window-height="1080"
     inkscape:window-x="237"
     inkscape:window-y="-1"
     inkscape:window-maximized="1"
     inkscape:current-layer="svg16" />
  <path
     style="opacity:.35;fill:#5c616c"
     d="M 7,0 C 5.892,0 5,0.892 5,2 V 4 H 10 C 10.741,4 11.379,4.4042 11.725,5 H 13.75 C 14.443,5 15,5.56 15,6.25 V 6.75 C 15,7.44 14.443,8.01 13.75,8 L 12,7.9805 V 9 H 14.5 V 10 H 12 V 11 H 14 C 15.108,11 16,10.108 16,9 V 2 C 16,0.892 15.108,0 14,0 Z M 11,3 H 12 V 4 H 11 Z M 13,3 H 14 V 4 H 13 Z M 12,6 V 7 H 13.6 C 13.822,7 14,6.8196 14,6.5996 V 6.4004 C 14,6.1804 13.822,6 13.6,6 Z"
     id="path12" />
  <path
     style="fill:#5c616c"
     d="M 2,5 C 0.892,5 0,5.892 0,7 v 7 c 0,1.108 0.892,2 2,2 h 7 c 1.108,0 2,-0.892 2,-2 V 7 C 11,5.892 10.108,5 9,5 Z m 7.0678909,2.3356812 0.1168222,0.024111 0.133174,0.4982536 -0.080061,0.2106947 -0.041993,0.074664 L 6.206441,8.9446666 6.0737434,8.9041881 5.9378497,8.7669242 5.8068051,8.2754817 5.8789311,8.083859 5.8956965,7.9921426 8.8728982,7.1957975 Z M 5.5,10 H 8.75 C 9.4425,10 10,10.557 10,11.25 v 2.5 C 10,14.443 9.4425,15 8.75,15 H 6.25 C 5.5575,15 5,14.443 5,13.75 v -0.5 C 5,12.557 5.5575,11.993 6.25,12 l 2.5721831,0.02518 0.1039175,-0.04254 0.079463,-0.135442 L 9,11.4 C 9,11.179 8.8212,11 8.5996,11 H 5.5 Z m 0.9004,3 C 6.1788,13 6,13.179 6,13.4 v 0.2 C 6,13.821 6.1788,14 6.4004,14 H 8.8316736 L 8.8916587,13.913845 9,13.803252 V 13.198891 L 8.8877278,13.098221 8.7523242,13 Z"
     id="path14"
     sodipodi:nodetypes="sssssssssccccccccccccccssssssscccccsccssssccccccs" />
</svg>
