<?xml version="1.0" encoding="UTF-8" standalone="no"?>
<svg
   width="16"
   height="16"
   version="1.1"
   id="svg10"
   sodipodi:docname="libreoffice-draw-symbolic.svg"
   inkscape:version="1.1.2 (0a00cf5339, 2022-02-04)"
   xmlns:inkscape="http://www.inkscape.org/namespaces/inkscape"
   xmlns:sodipodi="http://sodipodi.sourceforge.net/DTD/sodipodi-0.dtd"
   xmlns="http://www.w3.org/2000/svg"
   xmlns:svg="http://www.w3.org/2000/svg">
  <defs
     id="defs14" />
  <sodipodi:namedview
     id="namedview12"
     pagecolor="#ffffff"
     bordercolor="#666666"
     borderopacity="1.0"
     inkscape:pageshadow="2"
     inkscape:pageopacity="0.0"
     inkscape:pagecheckerboard="0"
     showgrid="false"
     inkscape:zoom="47.25"
     inkscape:cx="8"
     inkscape:cy="8"
     inkscape:window-width="1854"
     inkscape:window-height="966"
     inkscape:window-x="0"
     inkscape:window-y="29"
     inkscape:window-maximized="1"
     inkscape:current-layer="svg10" />
  <path
     style="fill:#5c616c"
     d="m 8.7764055,8.298126 v 0 L 6.2647548,11.646994 6.5015746,12 v 0 h 5.1220204 l 0.118561,-0.343791 v 0 L 9.2380495,8.3173993 Z"
     id="path2"
     sodipodi:nodetypes="cccccccccc" />
  <path
     style="fill:#5c616c"
     d="M 8,6 A 2,2 0 0 1 6,8 2,2 0 0 1 4,6 2,2 0 0 1 6,4 2,2 0 0 1 8,6 Z"
     id="path4" />
  <path
     style="fill:#5c616c"
     d="M 2,0 C 1.4477,0 1,0.44772 1,1 V 15 C 1,15.552 1.4477,16 2,16 H 14 C 14.556,16 15,15.548 15,15 V 7.5 C 15,7.2426 14.879,6.8786 14.69,6.69 L 8.28,0.275 C 8.0925,0.08746 7.7701,0 7.5,0 Z M 3,2 H 7 L 13,8 V 14 H 3 Z"
     id="path6" />
  <path
     style="fill:#5c616c"
     d="M 11.5,0 C 10.948,0 10.807,0.5146 11.146,0.85352 L 14.146,3.8535 C 14.497,4.2041 15,3.942 15,3.5 V 0.5 C 15,0.21996 14.78,0 14.5,0 Z"
     id="path8" />
</svg>
