<?xml version="1.0" encoding="UTF-8" standalone="no"?>
<svg
   width="16"
   height="16"
   version="1.1"
   id="svg8"
   sodipodi:docname="media-eq-symbolic.svg"
   inkscape:version="1.1.2 (0a00cf5339, 2022-02-04)"
   xmlns:inkscape="http://www.inkscape.org/namespaces/inkscape"
   xmlns:sodipodi="http://sodipodi.sourceforge.net/DTD/sodipodi-0.dtd"
   xmlns="http://www.w3.org/2000/svg"
   xmlns:svg="http://www.w3.org/2000/svg">
  <defs
     id="defs12" />
  <sodipodi:namedview
     id="namedview10"
     pagecolor="#ffffff"
     bordercolor="#666666"
     borderopacity="1.0"
     inkscape:pageshadow="2"
     inkscape:pageopacity="0.0"
     inkscape:pagecheckerboard="0"
     showgrid="false"
     inkscape:zoom="51.6875"
     inkscape:cx="8"
     inkscape:cy="6.43289"
     inkscape:window-width="759"
     inkscape:window-height="849"
     inkscape:window-x="765"
     inkscape:window-y="31"
     inkscape:window-maximized="1"
     inkscape:current-layer="svg8" />
  <path
     style="fill:#5c616c"
     d="m 8,10 v 0.741758 L 7.7097259,11 v 0 H 1 v 2 H 7.7312859 L 8,13.215006 v 0 V 14 h 2 v -4 z m 3,1 v 2 h 4 v -2 z"
     id="path2"
     sodipodi:nodetypes="cccccccccccccccccc" />
  <path
     style="fill:#5c616c"
     d="m 4,6 v 0.7716828 0 L 3.7140597,7 H 1 V 9 H 3.7556882 L 4,9.2746998 v 0 V 10 H 6 V 6 Z m 3,1 v 2 h 8 V 7 Z"
     id="path4"
     sodipodi:nodetypes="cccccccccccccccccc" />
  <path
     style="fill:#5c616c"
     d="M 10,2 V 2.7724232 L 9.7392,3 V 3 H 1 V 5 H 9.712808 L 10,5.1885374 v 0 V 6 h 2 V 2 Z m 3,1 v 2 h 2 V 3 Z"
     id="path6"
     sodipodi:nodetypes="cccccccccccccccccc" />
</svg>
