<?xml version="1.0" encoding="UTF-8" standalone="no"?>
<svg
   width="16"
   height="16"
   version="1.1"
   id="svg4"
   sodipodi:docname="preferences-system-network-proxy-symbolic.svg"
   inkscape:version="1.1.2 (0a00cf5339, 2022-02-04)"
   xmlns:inkscape="http://www.inkscape.org/namespaces/inkscape"
   xmlns:sodipodi="http://sodipodi.sourceforge.net/DTD/sodipodi-0.dtd"
   xmlns="http://www.w3.org/2000/svg"
   xmlns:svg="http://www.w3.org/2000/svg">
  <defs
     id="defs8" />
  <sodipodi:namedview
     id="namedview6"
     pagecolor="#ffffff"
     bordercolor="#666666"
     borderopacity="1.0"
     inkscape:pageshadow="2"
     inkscape:pageopacity="0.0"
     inkscape:pagecheckerboard="0"
     showgrid="false"
     inkscape:zoom="47.25"
     inkscape:cx="8"
     inkscape:cy="8"
     inkscape:window-width="1854"
     inkscape:window-height="966"
     inkscape:window-x="0"
     inkscape:window-y="29"
     inkscape:window-maximized="1"
     inkscape:current-layer="svg4" />
  <path
     style="fill:#5c616c"
     d="m 13,1.2113825 v 0 V 2 H 6 C 6,2 4,2 4,4 v 7 H 3 v -0.709464 l -0.4853151,-0.09566 v 0 l -2.17430095,1.993106 -0.0336368,0.593203 v 0 L 2.5483734,14.836009 3,14.713476 v 0 V 14 h 7 c 0,0 2,0 2,-2 V 5 h 1 v 0.7827697 0 l 0.430593,0.07252 2.2205,-2.035458 v 0 L 15.612711,3.1449847 13.395167,1.112236 Z M 6,4 h 4 v 8 H 6 Z M 7,5 V 7 H 9 V 5 Z"
     id="path2"
     sodipodi:nodetypes="ccccscccccccccccccscccccccccccccccccccc" />
</svg>
