<?xml version="1.0" encoding="UTF-8" standalone="no"?>
<svg
   width="16"
   height="16"
   version="1.1"
   id="svg4"
   sodipodi:docname="preferences-desktop-font-symbolic.svg"
   inkscape:version="1.1.2 (0a00cf5339, 2022-02-04)"
   xmlns:inkscape="http://www.inkscape.org/namespaces/inkscape"
   xmlns:sodipodi="http://sodipodi.sourceforge.net/DTD/sodipodi-0.dtd"
   xmlns="http://www.w3.org/2000/svg"
   xmlns:svg="http://www.w3.org/2000/svg">
  <defs
     id="defs8" />
  <sodipodi:namedview
     id="namedview6"
     pagecolor="#ffffff"
     bordercolor="#666666"
     borderopacity="1.0"
     inkscape:pageshadow="2"
     inkscape:pageopacity="0.0"
     inkscape:pagecheckerboard="0"
     showgrid="false"
     inkscape:zoom="47.25"
     inkscape:cx="8.010582"
     inkscape:cy="8.010582"
     inkscape:window-width="759"
     inkscape:window-height="849"
     inkscape:window-x="765"
     inkscape:window-y="31"
     inkscape:window-maximized="1"
     inkscape:current-layer="svg4" />
  <path
     style="fill:#5c616c"
     d="m 15.765065,0.11819563 c -0.07438,0.0406821 0.08217,-0.03812217 0,0 C 14.232151,0.82939601 11.383147,1.0988702 8.6808,1.0666 6.561707,1.0793051 2.5298767,0.90214779 1.4784738,2.7456952 c -0.057508,0.1008357 0.038874,-0.1132881 0,0 0.033434,-0.046055 -0.00964,0.209647 0.1432425,0.1339024 C 2.7637767,2.3137592 6.750626,1.1652178 6.2899,3.1054 5.6983837,4.828404 4.6595477,6.2755439 3.7433635,7.8263857 c -0.036528,0.061832 0.036102,-0.062186 0,0 -0.081018,0.00607 -0.2737649,0.1979389 -0.3597326,0.203935 -0.6112848,0.042636 -1.3330422,0.09267 -1.9569901,0.2836231 -0.2792028,0.085447 0.2213703,-0.1538448 0,0 0.080535,-0.0498 -0.3607577,0.2192909 0.038952,0.1591397 0.5402312,-0.081298 1.2280812,-0.1192765 1.6745637,0.028716 0.062299,0.02065 -0.012068,0.261324 0.039776,0.2896032 -0.04394,0.072685 0.04403,-0.071603 0,0 C 2.1529553,10.461494 1.1079577,11.853098 0.35593,13.698 c -0.2159,0.662 -0.70235,1.725 0.04464,2.204 0.63373,0.295 0.18992,-0.13 0.44646,-0.543 1.0510778,-2.259846 2.4895491,-4.170672 3.8156928,-6.2603157 0.030019,-0.047301 -0.029898,0.047491 0,0 0.047358,0.019702 0.1845061,-0.1017728 0.2317171,-0.080227 C 5.633689,9.3558345 6.3581436,9.8982788 7.1668,9.9872 c 1.0541504,0.124896 2.7942729,-1.2025542 3.358175,-2.2987351 0.06277,-0.1220285 -0.03105,0.1139739 0,0 C 10.425655,7.7630199 10.462996,7.47513 10.353677,7.5357773 9.0472608,8.260544 7.0782374,8.0392688 5.6775628,7.9942049 c -0.056265,-0.00181 0.054351,0.00117 0,0 L 5.6313815,7.8051333 8.6590437,3.1399275 8.9826053,2.9754576 c 0.055212,0.016844 -0.070268,-0.012951 0,0 0.3410693,0.062862 0.8669053,0.083034 1.6493947,0.091242 2.106091,0.059955 4.77356,-0.6807871 5.309718,-2.78079507 0.02365,-0.0926404 -0.191779,-0.0697305 -0.176653,-0.1677093 z"
     id="path2"
     sodipodi:nodetypes="cscscscscsscsscscccscscscssccccscsc" />
</svg>
