<?xml version="1.0" encoding="UTF-8" standalone="no"?>
<svg
   width="16"
   height="16"
   version="1.1"
   id="svg6"
   sodipodi:docname="preferences-desktop-locale-symbolic.svg"
   inkscape:version="1.1.2 (0a00cf5339, 2022-02-04)"
   xmlns:inkscape="http://www.inkscape.org/namespaces/inkscape"
   xmlns:sodipodi="http://sodipodi.sourceforge.net/DTD/sodipodi-0.dtd"
   xmlns="http://www.w3.org/2000/svg"
   xmlns:svg="http://www.w3.org/2000/svg">
  <defs
     id="defs10" />
  <sodipodi:namedview
     id="namedview8"
     pagecolor="#ffffff"
     bordercolor="#666666"
     borderopacity="1.0"
     inkscape:pageshadow="2"
     inkscape:pageopacity="0.0"
     inkscape:pagecheckerboard="0"
     showgrid="false"
     inkscape:zoom="47.125"
     inkscape:cx="7.9893899"
     inkscape:cy="8"
     inkscape:window-width="1880"
     inkscape:window-height="966"
     inkscape:window-x="0"
     inkscape:window-y="29"
     inkscape:window-maximized="1"
     inkscape:current-layer="svg6" />
  <path
     style="opacity:.35;fill:#5c616c"
     d="M 2,5 C 0,5 0,7 0,7 V 14 C 0,15.97 2,16 2,16 H 10 11 V 12 H 8.44 C 8.43,12.14 8.41,12.3 8.41,12.43 H 8.84 V 12.93 H 8.34 C 8.26,13.63 7.98,14 7.5,14 7.38,14 7.19,13.98 6.97,13.93 L 6.88,13.43 C 7.14,13.48 7.36,13.5 7.5,13.5 7.64,13.5 7.71,13.3 7.75,12.93 H 5.41 C 5.45,12.64 5.47,12.31 5.5,12 H 5 4.81 C 4.58,12.66 4.29,13.34 3.91,13.97 L 3.41,13.56 C 3.73,13.05 3.99,12.53 4.22,12 H 4 V 11 9.59 C 3.98,9.58 3.96,9.55 3.94,9.52 L 4,9.47 V 7.68 C 3.98,7.66 3.96,7.63 3.94,7.62 L 4,7.56 V 5 Z M 2.09,7.72 H 3.69 V 12.5 H 3.16 V 11.97 H 2.62 V 12.75 H 2.09 Z M 2.62,8.25 V 11.47 H 3.16 V 8.25 Z M 6.09,12 C 6.07,12.13 6.05,12.3 6.03,12.43 H 7.81 C 7.83,12.28 7.83,12.14 7.84,12 H 7.37 L 7.16,12.27 C 7.06,12.17 6.95,12.1 6.84,12 Z"
     id="path2" />
  <path
     style="fill:#5c616c"
     d="m 5,0 v 11 h 1 8 c 0,0 2,0 2,-2 V 2 c 0,0 0,-2 -2,-2 z m 4.56,2 h 1.88 l 2.18,7 H 11.97 L 11.53,7.34 H 9.41 L 8.97,9 h -1.6 z m 0.829579,1.4021015 c -0.0168,0.073131 0.01682,-0.074863 0,0 C 10.236204,4.0847579 10.081223,4.8301664 9.91,5.47 L 9.7955999,5.8433057 9.8931312,6.09 v 0 h 1.1669238 v 0 L 11.169144,5.8929314 11.06,5.47 C 10.891011,4.8385152 10.69829,4.0962821 10.531089,3.4262316 c -0.02079,-0.08331 0.0199,0.080727 0,0 z"
     id="path4"
     sodipodi:nodetypes="ccccscscccccccccccsccccccccscc" />
</svg>
