<?xml version="1.0" encoding="UTF-8" standalone="no"?>
<svg
   width="16"
   height="16"
   version="1.1"
   id="svg907479"
   sodipodi:docname="setroubleshoot_icon-symbolic.svg"
   inkscape:version="1.1.2 (0a00cf5339, 2022-02-04)"
   xmlns:inkscape="http://www.inkscape.org/namespaces/inkscape"
   xmlns:sodipodi="http://sodipodi.sourceforge.net/DTD/sodipodi-0.dtd"
   xmlns="http://www.w3.org/2000/svg"
   xmlns:svg="http://www.w3.org/2000/svg">
  <defs
     id="defs907483" />
  <sodipodi:namedview
     id="namedview907481"
     pagecolor="#ffffff"
     bordercolor="#666666"
     borderopacity="1.0"
     inkscape:pageshadow="2"
     inkscape:pageopacity="0.0"
     inkscape:pagecheckerboard="0"
     showgrid="false"
     inkscape:zoom="51.6875"
     inkscape:cx="7.9903265"
     inkscape:cy="8"
     inkscape:window-width="1920"
     inkscape:window-height="1051"
     inkscape:window-x="0"
     inkscape:window-y="29"
     inkscape:window-maximized="1"
     inkscape:current-layer="svg907479" />
  <path
     style="fill:#5c616c"
     d="m 9,1.3142317 v 0 4.4827838 L 9.2056745,6 V 6 H 10 v 3.4631374 l 0.295003,0.045191 v 0 L 12.816094,5.3065094 12.726515,5 V 5 H 12 L 13.368421,1.3508786 13.128051,1 V 1 H 9.3361583 Z M 5,2 V 3 H 7 V 4 H 5.5 L 3,6.5 V 8 H 2 V 6 H 1 v 6 h 1 v -2 h 1 v 1 c 0,1 1,1 1,1 h 2 l 1,1 h 5 c 0,0 1,0 1,-1 v -2 h 1 v 2 h 2 V 5 h -2 v 2 h -1 l -2,3.275 V 11 H 8 L 7,10 H 5 V 7.5 L 6.5,6 H 8 V 2 Z"
     id="path907477"
     sodipodi:nodetypes="ccccccccccccccccccccccccccccccccsccccscccccccccccccccccc" />
</svg>
