<?xml version="1.0" encoding="UTF-8" standalone="no"?>
<svg
   width="16"
   height="16"
   version="1.1"
   id="svg4"
   sodipodi:docname="transmission-symbolic.svg"
   inkscape:version="1.1.2 (0a00cf5339, 2022-02-04)"
   xmlns:inkscape="http://www.inkscape.org/namespaces/inkscape"
   xmlns:sodipodi="http://sodipodi.sourceforge.net/DTD/sodipodi-0.dtd"
   xmlns="http://www.w3.org/2000/svg"
   xmlns:svg="http://www.w3.org/2000/svg">
  <defs
     id="defs8" />
  <sodipodi:namedview
     id="namedview6"
     pagecolor="#ffffff"
     bordercolor="#666666"
     borderopacity="1.0"
     inkscape:pageshadow="2"
     inkscape:pageopacity="0.0"
     inkscape:pagecheckerboard="0"
     showgrid="false"
     inkscape:zoom="51.6875"
     inkscape:cx="7.9903265"
     inkscape:cy="8"
     inkscape:window-width="1916"
     inkscape:window-height="1015"
     inkscape:window-x="0"
     inkscape:window-y="29"
     inkscape:window-maximized="1"
     inkscape:current-layer="svg4" />
  <path
     style="fill:#5c616c"
     d="M 5,1 C 4.0378,1.0963 3.0624,1.2327 2.0723,1.4199 1.4887,1.5303 1,1.9469 1,2.6016 V 4.4277 C 1,5.0824 1.4861,5.5123 2.0723,5.6094 3.0608,5.7735 4.0362,5.9032 5,6 Z M 6,1 V 9 H 4.6642845 L 4.5524322,9.328527 v 0 l 3.770504,3.506793 0.3419797,0.01131 v 0 L 12.43639,9.3390929 v 0 L 12.268539,9 H 11 V 1 Z m 6,0 V 6 C 12.964,5.9032 13.939,5.7735 14.928,5.6094 15.514,5.5123 16,5.0824 16,4.4277 V 2.6016 C 16,1.9469 15.511,1.5303 14.928,1.4199 13.938,1.2327 12.962,1.0963 12,1 Z m 3,5.4492 C 14.328,6.552 13.662,6.6401 13,6.7148 V 14 H 4 V 6.7578 C 3.3262,6.6771 2.6591,6.5763 2,6.4531 V 15.277 C 2,15.677 2.3227,16 2.7227,16 H 14.277 C 14.677,16 15,15.677 15,15.277 Z"
     id="path2"
     sodipodi:nodetypes="ccssccccccccccccccccccccssccccccccssssc" />
</svg>
