<?xml version="1.0" encoding="UTF-8" standalone="no"?>
<svg
   width="16"
   height="16"
   version="1.1"
   id="svg4"
   sodipodi:docname="unity-tweak-tool-symbolic.svg"
   inkscape:version="1.1.2 (0a00cf5339, 2022-02-04)"
   xmlns:inkscape="http://www.inkscape.org/namespaces/inkscape"
   xmlns:sodipodi="http://sodipodi.sourceforge.net/DTD/sodipodi-0.dtd"
   xmlns="http://www.w3.org/2000/svg"
   xmlns:svg="http://www.w3.org/2000/svg">
  <defs
     id="defs8" />
  <sodipodi:namedview
     id="namedview6"
     pagecolor="#ffffff"
     bordercolor="#666666"
     borderopacity="1.0"
     inkscape:pageshadow="2"
     inkscape:pageopacity="0.0"
     inkscape:pagecheckerboard="0"
     showgrid="false"
     inkscape:zoom="47.25"
     inkscape:cx="8"
     inkscape:cy="8"
     inkscape:window-width="1854"
     inkscape:window-height="966"
     inkscape:window-x="0"
     inkscape:window-y="29"
     inkscape:window-maximized="1"
     inkscape:current-layer="svg4" />
  <path
     d="m 7.5996093,-2e-7 c -0.8864,0 -1.599609,0.7132094 -1.599609,1.5996094 v 0.75 C 5.3074908,2.5952314 4.6659877,2.965966 4.1074223,3.4433592 l -0.650391,-0.375 c -0.767645,-0.4432 -1.742347,-0.1817077 -2.185547,0.5859375 L 0.87109426,4.3457029 c -0.4432,0.7676452 -0.181708,1.7423469 0.58593704,2.1855469 l 0.648438,0.375 c -0.068537,0.3605899 -0.1038413,0.7267081 -0.105469,1.09375 0.00163,0.3670419 0.036932,0.7331601 0.105469,1.09375 l -0.648438,0.375 C 0.68938626,9.91195 0.4278943,10.886652 0.87109426,11.654297 l 0.40039004,0.691406 c 0.4432,0.767645 1.417902,1.029138 2.185547,0.585938 l 0.646484,-0.373047 c 0.5600443,0.476415 1.2028859,0.845834 1.896485,1.089844 v -2.203126 c -1.190604,-0.692897 -2,-1.9684913 -2,-3.4453122 0.00168,-1.339461 0.6753262,-2.5662806 1.758675,-3.2999129 0.078333,-0.053046 0.1588074,0.1144214 0.241325,0.066676 v 0 2.2332368 l 2,1.5 L 10,6.9999998 V 4.8303843 l 0.228593,-0.1408079 c 0.07805,0.045176 -0.07432,-0.049918 0,0 C 11.320068,5.422737 11.999323,6.6543532 12,7.9999998 12,9.4768207 11.190604,10.752415 10,11.445312 v 2.199219 c 0.692074,-0.243851 1.333549,-0.612583 1.892578,-1.08789 l 0.650391,0.375 c 0.767644,0.4432 1.742347,0.181707 2.185547,-0.585938 l 0.40039,-0.691406 c 0.4432,-0.767645 0.181707,-1.742347 -0.585937,-2.1855472 l -0.648438,-0.375 C 13.963068,8.7331599 13.998372,8.3670417 14,7.9999998 c -0.0016,-0.3670419 -0.03693,-0.7331601 -0.105469,-1.09375 l 0.648438,-0.375 c 0.767644,-0.4432 1.029137,-1.4179017 0.585937,-2.1855469 L 14.728516,3.6542967 C 14.285316,2.8866515 13.310613,2.6251592 12.542969,3.0683592 L 11.896484,3.441406 C 11.33644,2.9649913 10.693599,2.5955727 10,2.3515623 V 1.5996092 C 10,0.7132092 9.2867903,-2e-7 8.4003903,-2e-7 Z m 0.400391,10.1992192 c -0.554,0 -1,0.357581 -1,0.800781 v 3.199219 c 0,0.4432 0.446,0.800781 1,0.800781 0.554,0 1,-0.357581 1,-0.800781 V 11 c 0,-0.4432 -0.446,-0.800781 -1,-0.800781 z"
     style="fill:#5c616c"
     id="path2"
     sodipodi:nodetypes="sscccccccccccccccccscccccccscccccccccccccccccssssssssss" />
</svg>
