<?xml version="1.0" encoding="UTF-8" standalone="no"?>
<svg
   width="16"
   height="16"
   version="1.1"
   id="svg6"
   sodipodi:docname="user-info-symbolic.svg"
   inkscape:version="1.1.2 (0a00cf5339, 2022-02-04)"
   xmlns:inkscape="http://www.inkscape.org/namespaces/inkscape"
   xmlns:sodipodi="http://sodipodi.sourceforge.net/DTD/sodipodi-0.dtd"
   xmlns="http://www.w3.org/2000/svg"
   xmlns:svg="http://www.w3.org/2000/svg">
  <defs
     id="defs10" />
  <sodipodi:namedview
     id="namedview8"
     pagecolor="#ffffff"
     bordercolor="#666666"
     borderopacity="1.0"
     inkscape:pageshadow="2"
     inkscape:pageopacity="0.0"
     inkscape:pagecheckerboard="0"
     showgrid="false"
     inkscape:zoom="47.25"
     inkscape:cx="8"
     inkscape:cy="8"
     inkscape:window-width="1880"
     inkscape:window-height="966"
     inkscape:window-x="0"
     inkscape:window-y="29"
     inkscape:window-maximized="1"
     inkscape:current-layer="svg6" />
  <path
     style="fill:#5c616c"
     d="M 8.87,8 C 8.38,8 8,8.38 8,8.87 v 6.25 C 8,15.62 8.38,16 8.87,16 h 6.25 C 15.62,16 16,15.62 16,15.12 V 8.87 C 16,8.38 15.62,8 15.12,8 Z m 2.329839,1 v 0 h 1.60885 L 13,9.2321157 v 0 0.5716249 L 12.78744,10 v 0 h -1.587601 v 0 L 11,9.7825327 V 9.1900228 Z M 11,11.263808 11.284836,11 h 1.438856 L 13,11.327429 v 0 3.386047 L 12.681801,15 v 0 h -1.418214 v 0 L 11,14.713476 Z"
     id="path2"
     sodipodi:nodetypes="sssssssssccccccccccccccccccccccccc" />
  <path
     style="fill:#5c616c"
     d="M 8,2 C 6.34,2 5,3.34 5,5 5,6.41 5.9791,7.5902 7.2891,7.9102 7.6191,7.3702 8.2191,7 8.8691,7 H 10.221 C 10.701,6.47 11,5.77 11,5 11,3.34 9.66,2 8,2 Z M 7,10.039 C 2,10 2,14 2,14 V 15 H 7 Z"
     id="path4" />
</svg>
