<?xml version="1.0" encoding="UTF-8" standalone="no"?>
<svg
   viewBox="0 0 4.2429 4.213"
   height="15.9231"
   width="16.0362"
   version="1.1"
   id="svg14"
   sodipodi:docname="visual-studio-code-symbolic.svg"
   inkscape:version="1.1.2 (0a00cf5339, 2022-02-04)"
   xmlns:inkscape="http://www.inkscape.org/namespaces/inkscape"
   xmlns:sodipodi="http://sodipodi.sourceforge.net/DTD/sodipodi-0.dtd"
   xmlns="http://www.w3.org/2000/svg"
   xmlns:svg="http://www.w3.org/2000/svg">
  <sodipodi:namedview
     id="namedview16"
     pagecolor="#ffffff"
     bordercolor="#666666"
     borderopacity="1.0"
     inkscape:pageshadow="2"
     inkscape:pageopacity="0.0"
     inkscape:pagecheckerboard="0"
     showgrid="false"
     inkscape:zoom="256"
     inkscape:cx="11.441406"
     inkscape:cy="5.2988281"
     inkscape:window-width="1920"
     inkscape:window-height="1051"
     inkscape:window-x="0"
     inkscape:window-y="29"
     inkscape:window-maximized="1"
     inkscape:current-layer="svg14" />
  <defs
     id="defs10">
    <linearGradient
       id="b">
      <stop
         stop-color="#000207"
         offset="0"
         id="stop2" />
      <stop
         stop-color="#25354f"
         stop-opacity="0"
         offset="1"
         id="stop4" />
    </linearGradient>
    <clipPath
       id="a">
      <path
         d="M0 0h384v384H0z"
         id="path7" />
    </clipPath>
  </defs>
  <path
     d="M 0.4313,0.9879 C 0.4011,0.987 0.382,1.0078 0.362,1.0266 L 0.0501,1.3226 C 0.0138,1.3624 -0.0219,1.4024 0.017,1.4571 0.02700882,1.4429161 0.03803803,1.4294805 0.05,1.4169 l 0.3119,-0.296 c 0.02,-0.0189 0.039,-0.0396 0.0693,-0.0387 0.0235,6e-4 0.0538,0.0143 0.0965,0.052 L 3.1801,3.149 V 3.0547 L 3.0817886,2.9800222 0.5278,1.04 C 0.4851,1.0022 0.4548,0.9885 0.4313,0.9879 Z m 0,0 C 0.4011,0.987 0.382,1.0078 0.362,1.0266 L 0.0501,1.3226 C 0.0053,1.3717 -0.0387,1.4211 0.0575,1.498 l 2.917,2.6586 C 3.0262,4.19 3.1801,4.1495 3.1801,4.0744 V 3.0547 L 0.5278,1.04 C 0.4851,1.0023 0.4548,0.9886 0.4313,0.988 Z M 0.017,1.3628 c -0.0251,0.0374 -0.0298,0.0789 0.0404,0.1351 l 0.652987,0.5950795 0.004008,0.04834 0.4856245,0.4329574 0.021051,0.059169 0.040148,-0.00461 L 2.9746,4.1564 C 3.0262,4.1899 3.1801,4.1494 3.1801,4.0744 V 3.98 c 0,0.075 -0.1539,0.1155 -0.2055,0.082 L 0.0574,1.4038 C 0.04212202,1.3920448 0.02852867,1.3782496 0.017,1.3628 Z M 0.4313,0.9878 C 0.4011,0.987 0.382,1.0079 0.362,1.0267 L 0.0501,1.3227 C 0.0053,1.3718 -0.0387,1.4212 0.0575,1.4981 l 2.917,2.6586 C 3.0262,4.1901 3.1801,4.1496 3.1801,4.0745 V 3.0547 L 0.5278,1.04 C 0.4851,1.0023 0.4548,0.9886 0.4313,0.988 Z M 3.099,2e-4 C 3.0574,0.0017 3.0145,0.0164 2.9694,0.0539 L 1.2738,1.6065 0.5278,1.04 C 0.4302,0.9537 0.3976,0.993 0.362,1.0265 L 0.0502,1.3225 C 0.0138,1.3625 -0.022,1.4024 0.017,1.4571 0.02706957,1.4428754 0.03816582,1.4294061 0.0502,1.4168 L 0.362,1.1208 C 0.3976,1.0874 0.4302,1.048 0.5278,1.1341 L 1.2738,1.7008 2.9693,0.1481 C 3.0723,0.0624 3.164,0.0957 3.2552,0.1341 L 4.0754,0.5304 C 4.1619,0.5764 4.2377,0.629 4.2428,0.7256 V 0.6313 C 4.2377,0.5348 4.1618,0.4821 4.0754,0.4362 L 3.2552,0.0399 C 3.2039,0.0182 3.1524,-0.0018 3.0989,1e-4 Z M 1.986,2.1476 1.9236,2.1946 3.18,3.1489 V 3.0546 L 3.1140438,3.0044976 Z M 0.7264,2.1076 0.0621,2.7161 C 0.0195,2.7581 -0.019,2.8007 0.0221,2.8554 0.03405899,2.839233 0.04744612,2.824172 0.0621,2.8104 L 0.7781,2.1547 0.7264,2.1077 Z M 3.1801,1.0593 1.8614,2.0529 1.9827534,2.0559503 3.0956095,1.2171812 3.1801,1.1535 Z M 0.017,1.3627 c -0.025,0.0375 -0.0298,0.079 0.0405,0.1352 L 0.675,2.0606 0.7266,2.0134 0.0576,1.4037 C 0.04225136,1.3919589 0.02859008,1.378163 0.017,1.3627 Z M 1.264,2.5032 0.5087,3.0723 C 0.4555,3.1095 0.4032,3.118 0.3525,3.0713 L 0.0458,2.786 C 0.03714122,2.778483 0.02926756,2.7701068 0.0223,2.761 -0.0019,2.796 -0.0068,2.8338 0.0458,2.8803 l 0.3067,0.2853 c 0.0507,0.0467 0.103,0.0382 0.1562,10e-4 L 1.2332129,2.6206973 1.264,2.5975 2.9747,4.1565 c 0.124,0.1012 0.1977,0.0414 0.2805,0.0106 L 4.116,3.7522 C 4.1993,3.7068 4.2378,3.6515 4.243,3.589 V 3.4947 C 4.2378,3.5572 4.1993,3.6125 4.116,3.6579 L 3.2552,4.0729 C 3.1724,4.1037 3.0987,4.1634 2.9747,4.0622 Z M 3.0355,0.0393 C 3.012688,0.0392966 2.990143,0.044208 2.9694,0.0537 L 1.2739,1.6065 1.9827534,2.0559503 3.1278112,1.1930782 3.1802,1.1536 V 0.131 C 3.1802,0.0932 3.1129,0.0393 3.0356,0.0395 Z M 0.7265,2.1077 0.0623,2.716 C 0.0135,2.7642 -0.0301,2.8132 0.0458,2.8803 l 0.3066,0.2853 c 0.0507,0.0466 0.103,0.0382 0.1563,10e-4 L 1.264,2.5974 Z M 3.0356,0.0393 C 3.012788,0.0392966 2.990243,0.044208 2.9695,0.0537 L 1.2739,1.6065 1.9827534,2.0559503 v 0 L 3.1802,1.1536 V 0.131 C 3.1802,0.0932 3.1129,0.0393 3.0356,0.0395 Z M 0.7265,2.1077 0.0623,2.716 C 0.0135,2.7642 -0.0301,2.8132 0.0458,2.8803 l 0.3066,0.2853 c 0.0507,0.0466 0.103,0.0382 0.1563,10e-4 L 1.264,2.5974 Z M 3.1079,0 C 3.111,4.9964224e-5 3.1141,1.4997725e-4 3.1172,3e-4 3.1141,0 3.111,0 3.1078,0 Z M 3.0993,1e-4 C 3.098,1.6301754e-4 3.0967,2.6305796e-4 3.0954,4e-4 L 3.0993,0 Z m -0.0086,5e-4 -0.004,4e-4 z m 0.039,8e-4 c 0.0018,2e-4 0.0037,3e-4 0.0055,6e-4 -0.00183,-2.6196e-4 -0.00366,-4.6207e-4 -0.0055,-6e-4 z m -0.0478,0 c -0.00134,1.7421e-4 -0.00268,4.0777e-4 -0.004,7e-4 l 0.004,-6e-4 z m 0.057,0.001 c 0.00184,2.7019e-4 0.00368,6.0372e-4 0.0055,0.001 L 3.139,0.0024 Z m -0.0656,3e-4 c -0.0014,3e-4 -0.003,5e-4 -0.0044,0.001 z M 3.148,0.004 3.1535,0.0052 Z m -0.0836,5e-4 -0.0042,0.001 z M 3.157,0.006 3.1624,0.0072 3.1569,0.006 Z m -0.1013,9e-4 c -0.0015,3e-4 -0.003,7e-4 -0.0044,0.0012 z m 0.1108,0.0013 c 0.0016,4e-4 0.0033,10e-4 0.005,0.0013 z M 3.0465,0.0096 3.0427,0.0109 3.0466,0.0096 Z M 3.1751,0.0105 3.1808,0.0121 3.175,0.0104 Z M 3.0375,0.0128 3.0337,0.0143 Z M 3.1838,0.013 3.1883,0.0144 3.1837,0.013 Z M 3.0286,0.0165 C 3.0273,0.0171 3.0259,0.0175 3.0246,0.0183 3.0259,0.0176 3.0273,0.017 3.0286,0.0165 Z M 3.0193,0.0206 3.0153,0.0226 Z M 3.0103,0.0253 C 3.00889,0.02607598 3.00749,0.0268761 3.0061,0.0277 Z M 3.0011,0.0307 2.997,0.0333 Z M 2.9914,0.037 2.988,0.0394 C 2.989,0.0385 2.9903,0.0378 2.9915,0.037 Z m 0.044,0.0023 C 3.012554,0.03928222 2.989974,0.044194 2.9692,0.0537 L 1.2738,1.6065 1.3144992,1.6323018 1.9827534,2.0559503 3.1802,1.1536 V 0.131 C 3.1802,0.0932 3.1129,0.0393 3.0355,0.0395 Z M 2.9811,0.0443 2.9786,0.0463 Z M 0.4246,0.988 0.421,0.9884 Z m 0.0115,10e-5 0.002,3e-4 c -8e-4,0 -0.0014,-10e-5 -0.0021,-3e-4 z m -0.0169,7e-4 c -0.001012,1.3377e-4 -0.002014,3.3421e-4 -0.003,6e-4 z m 0.022,0 0.0021,5e-4 -0.002,-4e-4 z m -0.0269,0.001 c -9.8793e-4,2.6814e-4 -0.001957,6.0222e-4 -0.0029,0.001 l 0.003,-0.001 z m 0.0322,2e-4 0.0022,6e-4 C 0.448,0.9904 0.4472,0.9903 0.4465,0.99 Z M 0.4097,0.9913 0.407,0.9923 c 8.7709e-4,-3.922e-4 0.001779,-7.2625e-4 0.0027,-0.001 z m 0.0424,2e-4 0.0023,8e-4 -0.0024,-8e-4 z M 0.405,0.9931 0.4025,0.9943 0.4052,0.9931 Z m 0.0526,3e-4 0.0024,0.001 C 0.4594,0.9938 0.4585,0.9936 0.4577,0.9933 Z M 0.4011,0.995 0.3977,0.9968 Z m 0.063,0.001 c 8e-4,2e-4 0.0014,6e-4 0.002,8e-4 C 0.46548284,0.99649644 0.464848,0.99622931 0.4642,0.996 Z M 0.4789,1.0034 0.4814,1.005 C 0.48052495,1.0044804 0.47965818,1.003947 0.4788,1.0034 Z M 0.4858,1.0077 0.4887,1.0095 0.4857,1.0077 Z M 0.4926,1.0121 0.4962,1.0146 C 0.495007,1.0137561 0.493807,1.01292 0.4926,1.0121 Z M 0.3763,1.0131 0.3723,1.0169 Z M 0.5,1.0174 0.5034,1.0199 Z M 0.5079,1.0234 0.5114,1.0261 0.5079,1.0233 Z M 0.3632,1.0254 0.3619,1.0264 0.0501,1.3224 0.3619,1.0264 0.3632,1.0252 Z M 0.5161,1.0299 0.5194,1.0326 0.516,1.03 Z M 0.7265,2.1077 0.0623,2.716 C 0.0135,2.7642 -0.0301,2.8133 0.0458,2.8803 l 0.3066,0.2853 c 0.0507,0.0467 0.103,0.0382 0.1563,10e-4 L 1.264,2.5974 Z M 0.0575,1.498 2.9745,4.1566 C 3.0985,4.2578 3.1723,4.198 3.2551,4.1672 L 4.1158,3.7523 C 4.1992,3.7069 4.2376,3.6516 4.2428,3.5891 V 0.6314 C 4.2376,0.5348 4.1618,0.4822 4.0753,0.4362 L 3.2551,0.04 C 3.1639,0.0014 3.0722,-0.0318 2.9692,0.0538 L 0.0622,2.7161 C 0.0133,2.7644 -0.0303,2.8134 0.0456,2.8804 l 0.3067,0.2853 c 0.0507,0.0467 0.103,0.0382 0.1562,10e-4 0.24944045,-0.1860303 0.49108091,-0.370769 0.7405214,-0.5573217 0.010677,-0.00799 0.029154,-0.017308 0.03983,-0.025295 C 1.4934735,2.431016 1.6980952,2.2776152 1.902717,2.1236432 1.907257,2.1202232 1.963605,2.1600582 1.968145,2.1566422 1.982804,2.1456102 1.945653,2.0913272 1.960315,2.0802892 2.3494814,1.7872448 2.7064431,1.5161565 3.0956095,1.2171812 l 0.049743,-0.00592 0.037102,0.038461 0.00217,1.687317 -0.049051,0.046888 -0.053784,-0.0039 L 1.9279269,2.1036361 1.3198734,1.5846934 1.2497594,1.5884518 0.5278,1.04 C 0.43,0.954 0.3976,0.9933 0.3619,1.0267 L 0.0501,1.3227 C 0.0052,1.3719 -0.0388,1.4212 0.0574,1.4982 Z"
     fill="#5c616c"
     id="path12"
     sodipodi:nodetypes="ccccccccccccccccccsccccccccccccscccccccccsccccccccccccccccccccccccccccccccccccccccccccccccccccccccccccccccccccccccccscccccccccccccccscccccccccccccccccccccccccccccccccccccccccccccccccccccccccccccccccccccccccccccccccccccccscccccccccccccccccccccccccccccccccccccccccccccccccccccccccccccccccccccccccccccccccccccccccccccccccccssssscccccccccccccc" />
</svg>
