<?xml version="1.0" encoding="UTF-8" standalone="no"?>
<svg
   width="24"
   height="24"
   viewBox="0 0 24 24"
   version="1.1"
   id="svg4"
   sodipodi:docname="checkbox-checked-symbolic.svg"
   inkscape:version="1.1.2 (0a00cf5339, 2022-02-04)"
   xmlns:inkscape="http://www.inkscape.org/namespaces/inkscape"
   xmlns:sodipodi="http://sodipodi.sourceforge.net/DTD/sodipodi-0.dtd"
   xmlns="http://www.w3.org/2000/svg"
   xmlns:svg="http://www.w3.org/2000/svg">
  <defs
     id="defs8" />
  <sodipodi:namedview
     id="namedview6"
     pagecolor="#ffffff"
     bordercolor="#666666"
     borderopacity="1.0"
     inkscape:pageshadow="2"
     inkscape:pageopacity="0.0"
     inkscape:pagecheckerboard="0"
     showgrid="false"
     inkscape:zoom="32.375"
     inkscape:cx="12"
     inkscape:cy="12"
     inkscape:window-width="1920"
     inkscape:window-height="1051"
     inkscape:window-x="0"
     inkscape:window-y="29"
     inkscape:window-maximized="1"
     inkscape:current-layer="svg4" />
  <path
     d="M 19,3 H 5 C 3.89,3 3,3.9 3,5 v 14 c 0,1.1 0.89,2 2,2 h 14 c 1.11,0 2,-0.9 2,-2 V 5 C 21,3.9 20.11,3 19,3 Z M 10.539897,16.460103 9.438683,16.438683 5.420018,12.420018 5.3961563,11.603844 v 0 l 0.652619,-0.652619 v 0 l 0.8105257,0.08682 2.3668932,2.360301 0.5090896,0.224936 v 0 l 0.6132212,-0.01994 0.532934,-0.314785 v 0 0 l 6.297957,-6.2979532 0.842027,0.023878 v 0 L 18.594609,7.5917336 18.629061,8 l 0.01787,0.3530721 z"
     id="path2"
     sodipodi:nodetypes="ssssssssscccccccccccccccccccccc" />
</svg>
