<?xml version="1.0" encoding="UTF-8" standalone="no"?>
<svg
   width="16"
   height="16"
   version="1.1"
   id="svg853086"
   sodipodi:docname="applications-utilities-symbolic.svg"
   inkscape:version="1.1.2 (0a00cf5339, 2022-02-04)"
   xmlns:inkscape="http://www.inkscape.org/namespaces/inkscape"
   xmlns:sodipodi="http://sodipodi.sourceforge.net/DTD/sodipodi-0.dtd"
   xmlns="http://www.w3.org/2000/svg"
   xmlns:svg="http://www.w3.org/2000/svg">
  <defs
     id="defs853090" />
  <sodipodi:namedview
     id="namedview853088"
     pagecolor="#ffffff"
     bordercolor="#666666"
     borderopacity="1.0"
     inkscape:pageshadow="2"
     inkscape:pageopacity="0.0"
     inkscape:pagecheckerboard="0"
     showgrid="false"
     inkscape:zoom="51.6875"
     inkscape:cx="8"
     inkscape:cy="8.0096735"
     inkscape:window-width="1880"
     inkscape:window-height="966"
     inkscape:window-x="0"
     inkscape:window-y="29"
     inkscape:window-maximized="1"
     inkscape:current-layer="svg853086" />
  <path
     style="fill:#5c616c"
     d="M 3,0 C 4.662,0 6,1.338 6,3 V 13 C 6,14.662 4.662,16 3,16 1.338,16 0,14.662 0,13 V 3 C 0,1.338 1.338,0 3,0 Z"
     id="path853080" />
  <path
     style="fill:#5c616c"
     d="m 5.6859896,0.24656118 c 0.095387,0.0778447 -0.088461,-0.086424 0,0 C 6.4043559,0.9483861 6.88,1.9226649 6.88,3 V 4 H 9 c -0.07,-1.09 1.25,-2 2,-2 0.68,0 1,0.01 1,1 v 1 h 1.22 C 14.45,3.4 15,2.03 15,1.31 15,0.58 12.61,0 11.31,0 H 5.7939122 Z"
     id="path853082"
     sodipodi:nodetypes="cssccssccsscc" />
  <path
     style="fill:#5c616c"
     d="m 7,5 v 4.31 c 2.77,2.66 6.13,2.41 6.13,2.41 0,0 0.35,-1.52 -1.91,-4.03 L 8.84,5 Z m 3.116603,2.6714815 v 0 l 1.368091,1.4169518 -0.143681,0.1980422 c -0.11188,0.00994 0.100828,-0.00114 0,0 -1.4032326,0.015927 -1.7507703,-0.789716 -1.4503974,-1.5625229 0.025285,-0.065053 0.1917634,0.011607 0.2259874,-0.052471 z"
     id="path853084"
     sodipodi:nodetypes="ccccccccccssc" />
</svg>
