<?xml version="1.0" encoding="UTF-8" standalone="no"?>
<svg
   width="16"
   height="16"
   version="1.1"
   id="svg874802"
   sodipodi:docname="applications-engineering-symbolic.svg"
   inkscape:version="1.1.2 (0a00cf5339, 2022-02-04)"
   xmlns:inkscape="http://www.inkscape.org/namespaces/inkscape"
   xmlns:sodipodi="http://sodipodi.sourceforge.net/DTD/sodipodi-0.dtd"
   xmlns="http://www.w3.org/2000/svg"
   xmlns:svg="http://www.w3.org/2000/svg">
  <defs
     id="defs874806" />
  <sodipodi:namedview
     id="namedview874804"
     pagecolor="#ffffff"
     bordercolor="#666666"
     borderopacity="1.0"
     inkscape:pageshadow="2"
     inkscape:pageopacity="0.0"
     inkscape:pagecheckerboard="0"
     showgrid="false"
     inkscape:zoom="51.6875"
     inkscape:cx="8.0096735"
     inkscape:cy="8"
     inkscape:window-width="1920"
     inkscape:window-height="1051"
     inkscape:window-x="0"
     inkscape:window-y="29"
     inkscape:window-maximized="1"
     inkscape:current-layer="svg874802" />
  <path
     style="fill:#5c616c"
     d="M 8,8 C 4,8 2,11 2,14 H 0.25 C 0,14 0,14.25 0,14.25 V 15.75 C 0,16 0.25,16 0.25,16 H 15.75 C 15.75,16 16,16 16,15.75 V 14.25 C 16,14.25 16,14 15.75,14 H 14 C 14,11 12,8 8,8 Z M 8,11 C 10.35,11 11,12.76 11,14 H 5 C 5,12.8 5.7,11 8,11 Z"
     id="path874798" />
  <path
     style="fill:#5c616c"
     d="M 10.880892,0.1105712 C 10.735024,0.01788916 10.892638,0.04070517 10.838892,0.06254427 10.541451,0.18340731 10.245618,0.33578955 10,0.53906 8.62,1.6491 8.7008,3.5592 10.051,4.6992 10.331,4.9392 10.66,5.1 11,5.25 v 2.1518076 l 0.120239,0.2473713 c 0.12024,0.053479 -0.0398,-0.018171 0,0 C 11.961182,8.033086 12.67798,8.5699373 13.248,9.2109 c 0.09928,0.1118871 0.273969,0.2324944 0.347178,0.379515 0.06161,0.1237274 0.01676,0.2870572 0.1384,0.2719289 L 14,9.8292079 v 0 V 5.25 C 14.34,5.12 14.659,4.9292 14.949,4.6992 16.329,3.5792 16.34,1.7496 15,0.59961 14.764346,0.40458634 14.482471,0.22302653 14.197299,0.08670639 c -0.06577,-0.03143815 0.06559,0.02623619 0,0 L 14,0.19851349 V 2.25 C 14,2.71 13.55,3 13,3 H 12 C 11.44,3 11,2.71 11,2.25 V 0.18625007 Z"
     id="path874800"
     sodipodi:nodetypes="sscccccscsscccccsccsssscs" />
</svg>
