<?xml version="1.0" encoding="UTF-8" standalone="no"?>
<svg
   width="16"
   height="16"
   version="1.1"
   id="svg860909"
   sodipodi:docname="applications-graphics-symbolic.svg"
   inkscape:version="1.1.2 (0a00cf5339, 2022-02-04)"
   xmlns:inkscape="http://www.inkscape.org/namespaces/inkscape"
   xmlns:sodipodi="http://sodipodi.sourceforge.net/DTD/sodipodi-0.dtd"
   xmlns="http://www.w3.org/2000/svg"
   xmlns:svg="http://www.w3.org/2000/svg">
  <defs
     id="defs860913" />
  <sodipodi:namedview
     id="namedview860911"
     pagecolor="#ffffff"
     bordercolor="#666666"
     borderopacity="1.0"
     inkscape:pageshadow="2"
     inkscape:pageopacity="0.0"
     inkscape:pagecheckerboard="0"
     showgrid="false"
     inkscape:zoom="256"
     inkscape:cx="8.0039062"
     inkscape:cy="5.2285156"
     inkscape:window-width="1920"
     inkscape:window-height="1051"
     inkscape:window-x="0"
     inkscape:window-y="29"
     inkscape:window-maximized="1"
     inkscape:current-layer="svg860909" />
  <path
     style="fill:#5c616c"
     d="m 7.83,4.25 c 1.087138,-1.1556963 1.1478984,-1.2466456 3.639548,-3.1288515 0.0524,-0.039582 -0.05458,0.041193 0,0 -0.05268,-0.031404 0.05464,-0.1832375 0.0011,-0.21320188 C 10.466873,0.34632692 9.3173229,0.03797396 8.33,0 H 7.89 C 5.78,0.03 2.95,0.8 2.99,3.28 3.0379171,5.7621065 5.6757783,5.0113749 6.1067084,5.8774902 6.1254403,5.915139 6.2470107,5.8328958 6.2570086,5.877053 M 5.99,1.53 c 0.83,0 1.5,0.68 1.5,1.5 0,0.83 -0.67,1.5 -1.5,1.5 -0.83,0 -1.5,-0.67 -1.5,-1.5 0,-0.82 0.67,-1.5 1.5,-1.5 z m 7.152206,0.8545806 c -0.03963,0.062231 0.03891,-0.060827 0,0 C 11.786939,4.5034468 10.862094,5.7787435 9.89,6.78 9.25,7.44 8.73,8.09 8.27,8.56 7.43,9.45 6.33,10.5 5.12,11.66 c 0.06,1.47 0.81,2.74 3.24,3.22 3.9,0.75 8.03,-1.83 7.61,-7.07 -0.17275,-2.1497744 -1.303406,-4.1153361 -2.552203,-5.4458633 -0.05241,-0.055842 -0.222825,0.074015 -0.275591,0.020444 z M 13.6,6 c 0.55,0 1,0.45 1,1 0,0.55 -0.45,1 -1,1 -0.55,0 -1,-0.45 -1,-1 0,-0.55 0.45,-1 1,-1 z m -0.62,3 c 0.55,0 0.99,0.45 0.99,1 0,0.55 -0.44,1 -0.99,1 -0.55,0 -1,-0.45 -1,-1 0,-0.55 0.45,-1 1,-1 z m -4.99,2 c 0.54,0 0.99,0.45 0.99,1 0,0.55 -0.45,1 -0.99,1 -0.55,0 -1,-0.45 -1,-1 0,-0.55 0.45,-1 1,-1 z m 2.99,0 c 0.55,0 1,0.45 1,1 0,0.55 -0.45,1 -1,1 -0.55,0 -1,-0.45 -1,-1 0,-0.55 0.45,-1 1,-1 z"
     id="path860903"
     sodipodi:nodetypes="cscscccscssssscscccccscssssssssssssssssssss" />
  <path
     style="fill:#5c616c"
     d="M 0,13.5 C 1.55,13.5 1.39,11.71 2.15,11.21 3.02,10.64 3.79,11.35 3.94,11.94 4.13,12.68 3.82,13.57 2.81,13.82 1.74,14.09 0.15,14.1 0,13.5 Z"
     id="path860905" />
  <path
     style="fill:#5c616c"
     d="M 6.91,6.43 C 5.04,8.5 3.19,11.11 2,13.06 4.97,10.77 6.91,8.9 8.14,7.59 8.38,7.35 8.67,7.03 8.99,6.67 c 1.139077,-1.2520435 2.73012,-3.1953291 4.68136,-6.11350644 0.121491,-0.18169564 -0.124261,0.18932289 0,0 -0.187842,0.135664 -0.01369,-0.2775423 -0.213555,-0.12738187 C 11.742445,1.7178633 9.6306783,3.5128881 7.92,5.34"
     id="path860907"
     sodipodi:nodetypes="ccccscsc" />
</svg>
