<?xml version="1.0" encoding="UTF-8" standalone="no"?>
<svg
   width="16.001"
   height="16.014"
   version="1.1"
   id="svg4"
   sodipodi:docname="emoji-food-symbolic.svg"
   inkscape:version="1.1.2 (0a00cf5339, 2022-02-04)"
   xmlns:inkscape="http://www.inkscape.org/namespaces/inkscape"
   xmlns:sodipodi="http://sodipodi.sourceforge.net/DTD/sodipodi-0.dtd"
   xmlns="http://www.w3.org/2000/svg"
   xmlns:svg="http://www.w3.org/2000/svg">
  <defs
     id="defs8" />
  <sodipodi:namedview
     id="namedview6"
     pagecolor="#ffffff"
     bordercolor="#666666"
     borderopacity="1.0"
     inkscape:pageshadow="2"
     inkscape:pageopacity="0.0"
     inkscape:pagecheckerboard="0"
     showgrid="false"
     inkscape:zoom="51.642313"
     inkscape:cx="7.9585901"
     inkscape:cy="11.114917"
     inkscape:window-width="714"
     inkscape:window-height="836"
     inkscape:window-x="720"
     inkscape:window-y="31"
     inkscape:window-maximized="1"
     inkscape:current-layer="svg4" />
  <path
     style="fill:#5c616c"
     d="M 0.984375,0.01367188 C 0.43248396,0.02222925 -0.00810235,0.47592827 0,1.0273438 v 3.9980468 c 0,0 0.00721875,0.8423173 0.57421875,1.5976563 0.41909451,0.5561233 1.15479105,1.0507342 2.20417345,1.2709254 0.072377,0.015187 -0.075361,-0.012506 0,0 L 3,8.1284674 V 8.7974638 L 2.8554973,9.0298855 c -0.049074,0 0.047181,-0.00682 0,0 C 2.3713684,9.0998939 1.9995595,9.5164188 2,10.019531 v 4.996094 c 5.958e-4,0.551381 0.4481366,0.998047 1,0.998047 h 2 c 0.5518634,0 0.9994042,-0.446666 1,-0.998047 V 10.019531 C 6.0004151,9.5454484 5.670299,9.1482491 5.2271336,9.045415 c -0.07297,-0.016932 0.078129,0 0,0 L 5,8.7831825 V 8.0780796 L 5.1547997,7.9074237 c 0.052319,-0.00873 -0.050881,0.010014 0,0 C 6.2398199,7.6938742 6.9978488,7.1928067 7.4257812,6.6230469 7.9927813,5.8677078 8,5.0234375 8,5.0234375 V 1.0273438 c 0,-1.3321671 -2,-1.3321671 -2,0 v 3.4960937 c 0,0.6660836 -1,0.6660836 -1,0 V 1.0273438 C 5.0071709,0.46445991 4.5477276,0.00678363 3.984375,0.015625 3.4332576,0.02418513 2.9929863,0.47668624 3,1.0273438 v 3.4960937 c 0,0.6660836 -1,0.6660836 -1,0 V 1.0273438 C 2.0071709,0.46445991 1.5477276,0.00678363 0.984375,0.015625 Z m 12.986328,0 C 13.715736,0.02149981 13.473353,0.12627631 13.292969,0.30664062 11.556969,2.0426406 10.789531,4.4673594 10.394531,6.4433594 9.9995313,8.4183594 10,10.013672 10,10.013672 c 0,0.552285 0.447715,1 1,1 h 0.788772 v 0 L 12,11.284004 v 3.729668 c 0,0.552285 0.447715,1 1,1 h 1 c 0.552285,0 1,-0.447715 1,-1 V 1.0136719 c 2.42e-4,-0.56393127 -0.465608,-1.01652157 -1.029297,-1.00000002 z"
     id="path2"
     sodipodi:nodetypes="ccccsccccsccssccsccccsccsssscccsscccccccscccsssscc" />
</svg>
