<?xml version="1.0" encoding="UTF-8" standalone="no"?>
<svg
   width="16"
   height="16"
   version="1.1"
   id="svg743118"
   sodipodi:docname="emoji-nature-symbolic.svg"
   inkscape:version="1.1.2 (0a00cf5339, 2022-02-04)"
   xmlns:inkscape="http://www.inkscape.org/namespaces/inkscape"
   xmlns:sodipodi="http://sodipodi.sourceforge.net/DTD/sodipodi-0.dtd"
   xmlns="http://www.w3.org/2000/svg"
   xmlns:svg="http://www.w3.org/2000/svg">
  <defs
     id="defs743122" />
  <sodipodi:namedview
     id="namedview743120"
     pagecolor="#ffffff"
     bordercolor="#666666"
     borderopacity="1.0"
     inkscape:pageshadow="2"
     inkscape:pageopacity="0.0"
     inkscape:pagecheckerboard="0"
     showgrid="false"
     inkscape:zoom="51.6875"
     inkscape:cx="8.0870617"
     inkscape:cy="8.783555"
     inkscape:window-width="714"
     inkscape:window-height="836"
     inkscape:window-x="720"
     inkscape:window-y="31"
     inkscape:window-maximized="1"
     inkscape:current-layer="svg743118" />
  <path
     style="fill:#5c616c"
     d="m 6.0208073,1 c 0,0 -2.9940614,0 -2.9940614,2.9920087 v 4.9866812 c 0,0 0.043913,1.4152201 0.027945,1.9946731 0,0.997336 -0.6092915,1.409236 -1.4745752,2.11535 -0.62575891,0.488695 -0.77246791,1.30651 -0.3063923,1.692479 0.4291488,0.355052 1.2330543,0.303191 1.7300685,-0.342086 L 4.0217723,12.968035 C 4.7183906,11.956736 4.9830336,11.097032 5,9.9760258 V 3.9920087 C 5,3.2762491 5.5150522,3.0769136 5.8058802,3.0214101 c 0.1144104,-0.021835 0,0 0,0 L 6,3.2086694 v 5.9816091 l 0.2673482,0.087669 v 0 L 8.8678785,6.6203692 v 0 L 9,6.2703206 V 3.9920087 c 0,-0.7479127 0.561522,-0.934958 0.8423836,-0.981736 0.093665,-0.0156 0.1563661,0.1918942 0.1563661,0.1918942 v 0 l 0.00234,1.9483251 0.274387,0.060104 v 0 l 1.730461,-1.7521624 c 0.282755,-0.2608223 0.44036,-0.4102316 0.776065,-0.451752 0.0648,-0.00801 0.136752,0.1585718 0.217006,0.1585718 v 0 l 0.0019,0.6424608 -0.12316,0.3085783 v 0 L 9.3009261,7.7096329 v 0 L 9.4453314,8 h 3.2702756 v 0 c 0,0 0.288645,0.093042 0.260624,0.2223653 C 12.912387,8.5170138 12.701634,9 12.005952,9 H 8.0138542 l -1.7957647,1.759658 v 0 c 0,0.05591 -0.217781,0.345454 -0.2126968,0.435011 0.033552,0.590998 0.2750858,1.77935 2.0084615,1.77935 l 3.9950758,-0.006 c 0,0 2.994062,0 2.991068,-2.9820352 V 1.3224448 L 14.687153,1 v 0 z"
     id="path743116"
     sodipodi:nodetypes="cscccccccssccccccccssccccccsccccccccccsscccsccccccc" />
</svg>
