<?xml version="1.0" encoding="UTF-8" standalone="no"?>
<svg
   width="16"
   height="16"
   version="1.1"
   id="svg4357"
   sodipodi:docname="preferences-other-symbolic.svg"
   inkscape:version="1.1.2 (0a00cf5339, 2022-02-04)"
   xmlns:inkscape="http://www.inkscape.org/namespaces/inkscape"
   xmlns:sodipodi="http://sodipodi.sourceforge.net/DTD/sodipodi-0.dtd"
   xmlns="http://www.w3.org/2000/svg"
   xmlns:svg="http://www.w3.org/2000/svg">
  <defs
     id="defs4361" />
  <sodipodi:namedview
     id="namedview4359"
     pagecolor="#ffffff"
     bordercolor="#666666"
     borderopacity="1.0"
     inkscape:pageshadow="2"
     inkscape:pageopacity="0.0"
     inkscape:pagecheckerboard="0"
     showgrid="false"
     inkscape:zoom="51.6875"
     inkscape:cx="7.9903265"
     inkscape:cy="8"
     inkscape:window-width="1920"
     inkscape:window-height="1051"
     inkscape:window-x="0"
     inkscape:window-y="29"
     inkscape:window-maximized="1"
     inkscape:current-layer="svg4357" />
  <path
     style="fill:#5c616c"
     d="m 11.62,0.11988 c 0.309051,-0.07924389 0.624382,-0.10197143 0.931064,-0.0930636 0.08033,0.0023332 -0.07887,-0.0062268 0,0 L 12.679186,0.22728691 11.43,2.3399 c -0.28,0.48 -0.13,1.07 0.35,1.35 l 0.87,0.51 c 0.48,0.28 1.08,0.12 1.36,-0.35 l 1.255677,-2.1328039 v 0 c 0.04023,0.059388 0.18405,-0.056586 0.22232,0.00626 0.161498,0.2652095 0.30116,0.5593407 0.382003,0.8665429 0.49,1.86 -0.63,3.75 -2.49,4.24 -0.39,0.1 -0.79,0.11 -1.17,0.08 L 11.4,8 8.2735787,7.9999083 v 0 c 0,0 -0.2361397,-0.08053 -0.1574166,-0.2131776 C 8.4830502,7.1685272 9.529433,5.4181334 9.62,5.4099 c -0.21,-0.32 -0.4,-0.67 -0.5,-1.06 -0.49,-1.85 0.63,-3.75002 2.5,-4.23002 z"
     id="path4349"
     sodipodi:nodetypes="csccccccccsccccccsccc" />
  <path
     style="fill:#5c616c"
     d="M 3.6,0.71988 C 3.37,0.76988 3.15,0.84988 2.94,0.93988 2.92,1.5599 3.03,2.3799 2.78,2.5899 2.55,2.7999 1.75,2.6299 1.13,2.5599 0.99998,2.7999 0.9,3.0499 0.82,3.3099 1.3,3.7099 1.96,4.1499 1.97,4.4699 1.99,4.7899 1.35,5.2699 0.91,5.7199 1.02,5.9799 1.16,6.2099 1.32,6.4399 1.93,6.3099 2.68,6.0599 2.94,6.2499 3.2,6.4399 3.21,7.2599 3.28,7.8699 3.53,7.9499 3.8,7.9799 4.06,7.9999 4.34,7.4499 4.63,6.6799 4.94,6.5899 5.25,6.5099 5.9,7.0499 6.44,7.3699 6.65,7.2199 6.85,7.0399 7.03,6.8399 6.77,6.2699 6.31,5.5499 6.44,5.2499 6.56,4.9499 7.41,4.7799 8,4.5599 8,4.4899 8.03,4.4199 8.03,4.3399 8.03,4.1499 7.99,3.9599 7.96,3.7799 7.36,3.6199 6.5,3.5399 6.34,3.2499 6.18,2.9599 6.58,2.1899 6.78,1.5899 6.58,1.4199 6.36,1.2599 6.12,1.1199 5.62,1.4999 5.04,2.1199 4.72,2.0599 4.4,2.0099 4.06,1.2399 3.72,0.71988 3.68,0.72988 3.64,0.70988 3.6,0.71988 Z M 4.22,2.5899 C 5.15,2.5899 5.9,3.3499 5.9,4.2799 5.9,5.2099 5.15,5.9699 4.22,5.9699 3.29,5.9699 2.53,5.2099 2.53,4.2799 2.53,3.3499 3.29,2.5899 4.22,2.5899 Z"
     id="path4351" />
  <path
     style="fill:#5c616c"
     d="M 3,9 H 13 V 15 C 13,15.06 13,16 12,16 H 4 C 3,16 3,15 3,15 Z"
     id="path4353" />
  <path
     style="fill:#5c616c"
     d="m 2.4566686,9.1292353 v 0 L 0.29297,11.293 c -0.98469739,0.942455 0.47159593,2.398717 1.41403,1.414 L 3.4141,11 h 9.1719 l 1.707,1.707 c 0.942424,0.98563 2.39963,-0.471576 1.414,-1.414 L 13.550255,9.1362546 13.248907,9 V 9 H 2.7520877 Z"
     id="path4355"
     sodipodi:nodetypes="ccccccccccccc" />
</svg>
