<?xml version="1.0" encoding="UTF-8" standalone="no"?>
<svg
   width="24"
   height="24"
   version="1.1"
   id="svg9"
   sodipodi:docname="acestream-tray.svg"
   inkscape:version="1.1.2 (0a00cf5339, 2022-02-04)"
   xmlns:inkscape="http://www.inkscape.org/namespaces/inkscape"
   xmlns:sodipodi="http://sodipodi.sourceforge.net/DTD/sodipodi-0.dtd"
   xmlns="http://www.w3.org/2000/svg"
   xmlns:svg="http://www.w3.org/2000/svg">
  <sodipodi:namedview
     id="namedview11"
     pagecolor="#ffffff"
     bordercolor="#666666"
     borderopacity="1.0"
     inkscape:pageshadow="2"
     inkscape:pageopacity="0.0"
     inkscape:pagecheckerboard="0"
     showgrid="false"
     inkscape:zoom="31.5"
     inkscape:cx="12"
     inkscape:cy="12"
     inkscape:window-width="1880"
     inkscape:window-height="966"
     inkscape:window-x="0"
     inkscape:window-y="29"
     inkscape:window-maximized="1"
     inkscape:current-layer="svg9" />
  <defs
     id="defs3">
    <style
       id="current-color-scheme"
       type="text/css">
   .ColorScheme-Text { color:#eeeeec; } .ColorScheme-Highlight { color:#367bf0; } .ColorScheme-NeutralText { color:#ffcc44; } .ColorScheme-PositiveText { color:#3db47e; } .ColorScheme-NegativeText { color:#dd4747; }
  </style>
  </defs>
  <path
     style="fill:currentColor"
     class="ColorScheme-Text"
     d="m 12.000244,4 v 2 c 2.142005,0.0032 4.119846,1.1480673 5.189453,3.003906 L 18.924072,8.0039062 C 18.909239,7.9784331 18.894264,7.9530421 18.87915,7.9277344 17.440639,5.496918 14.826213,4.0041267 12.000244,4 Z M 5.0764162,8.0058594 c -0.015114,0.025308 -0.030088,0.050699 -0.044922,0.076172 C 3.6437333,10.542507 3.6570953,13.551928 5.0666505,16 L 6.8088381,14.994141 C 6.2815615,14.084206 6.0027145,13.051664 6.0002443,12 6.0017786,10.947851 6.2799605,9.9146038 6.8068849,9.003906 Z m 4.9238278,1.3030589 v 0 V 12 14.673799 l 0.679422,0.230832 v 0 l 1.758078,-1.217131 1.934233,-1.339085 0.04323,-0.6669 v 0 L 12.437744,10.3125 10.658261,9.0805499 Z M 17.19165,14.996094 C 16.121694,16.852536 14.142947,17.997499 12.000244,18 v 2 c 2.825969,-0.0041 5.440395,-1.496918 6.878906,-3.927734 0.01511,-0.02531 0.03009,-0.0507 0.04492,-0.07617 z"
     id="path5"
     sodipodi:nodetypes="cccccccccccccccccccccccccccccccc" />
  <path
     style="opacity:.35;fill:currentColor"
     class="ColorScheme-Text"
     d="M 12.000244,4 A 8.0053718,7.9999998 0 0 0 5.1213381,7.9277344 8.0053718,7.9999998 0 0 0 5.0764161,8.0039064 L 6.808838,9.003906 A 6,6 0 0 1 12.000244,6 Z M 18.933838,8 17.19165,9.005859 A 6,6 0 0 1 18.000244,12 6,6 0 0 1 17.193603,14.996094 l 1.730469,0.998047 a 8.0053718,7.9999998 0 0 0 0.04492,-0.07617 A 8.0053718,7.9999998 0 0 0 18.933838,8 Z m -12.1230468,6.996094 -1.734375,1 a 8.0053718,7.9999998 0 0 0 0.044922,0.07617 A 8.0053718,7.9999998 0 0 0 12.000244,20 V 18 A 6,6 0 0 1 6.8107912,14.996094 Z"
     id="path7" />
</svg>
