<?xml version="1.0" encoding="UTF-8" standalone="no"?>
<svg
   width="24"
   height="24"
   version="1.1"
   id="svg9"
   sodipodi:docname="airplane-mode.svg"
   inkscape:version="1.1.2 (0a00cf5339, 2022-02-04)"
   xmlns:inkscape="http://www.inkscape.org/namespaces/inkscape"
   xmlns:sodipodi="http://sodipodi.sourceforge.net/DTD/sodipodi-0.dtd"
   xmlns="http://www.w3.org/2000/svg"
   xmlns:svg="http://www.w3.org/2000/svg">
  <sodipodi:namedview
     id="namedview11"
     pagecolor="#000000"
     bordercolor="#666666"
     borderopacity="1.0"
     inkscape:pageshadow="2"
     inkscape:pageopacity="0"
     inkscape:pagecheckerboard="0"
     showgrid="false"
     inkscape:zoom="97.462885"
     inkscape:cx="12.00457"
     inkscape:cy="11.99944"
     inkscape:window-width="1920"
     inkscape:window-height="1051"
     inkscape:window-x="0"
     inkscape:window-y="29"
     inkscape:window-maximized="1"
     inkscape:current-layer="g7" />
  <defs
     id="defs3">
    <style
       id="current-color-scheme"
       type="text/css">
   .ColorScheme-Text { color:#eeeeec; } .ColorScheme-Highlight { color:#367bf0; } .ColorScheme-NeutralText { color:#ffcc44; } .ColorScheme-PositiveText { color:#3db47e; } .ColorScheme-NegativeText { color:#dd4747; }
  </style>
  </defs>
  <g
     transform="translate(-200 -548.36)"
     id="g7">
    <path
       style="fill:currentColor"
       class="ColorScheme-Text"
       d="m 210.5,553.36 c -0.79399,9.7e-4 -0.78072,0.0333 -0.53125,1.0312 l 1.56997,4.80052 -0.0544,0.16828 v 0 h -4.28419 v 0 l -0.17267,-0.0969 -1.1525,-1.68431 c -0.13926,-0.20883 -0.1227,-0.21873 -0.34375,-0.21875 h -0.21875 c -0.42773,0 -0.29245,0.4375 -0.29245,0.4375 l 0.29245,2.5625 -0.29245,2.5625 c 0,0 -0.12866,0.43749 0.2612,0.4375 h 0.25 c 0.21159,0 0.20422,-0.009 0.34375,-0.21875 l 1.15311,-1.6852 v 0 l 0.17892,-0.096 h 4.22156 v 0 l 0.10051,0.19665 -1.56028,4.74085 c -0.26171,1.0469 -0.2647,1.0625 0.53125,1.0625 0.43199,0 0.43388,-0.0117 0.71875,-0.5 l 3.62072,-5.40039 0.1749,-0.0996 v 0 h 2.98568 c 0.554,0 1,-0.446 1,-1 0,-0.554 -0.446,-1 -1,-1 h -3.00306 v 0 l -0.1558,-0.097 -3.62244,-5.40297 c -0.2665,-0.45685 -0.2833,-0.49822 -0.65625,-0.5 H 210.5 Z"
       id="path5"
       sodipodi:nodetypes="ccccccccccsccccsccccccccsccccsssccccccc" />
  </g>
</svg>
