<?xml version="1.0" encoding="UTF-8" standalone="no"?>
<svg
   width="24"
   height="24"
   version="1.1"
   id="svg7"
   sodipodi:docname="alarm-clock-panel.svg"
   inkscape:version="1.1.2 (0a00cf5339, 2022-02-04)"
   xmlns:inkscape="http://www.inkscape.org/namespaces/inkscape"
   xmlns:sodipodi="http://sodipodi.sourceforge.net/DTD/sodipodi-0.dtd"
   xmlns="http://www.w3.org/2000/svg"
   xmlns:svg="http://www.w3.org/2000/svg">
  <sodipodi:namedview
     id="namedview9"
     pagecolor="#000000"
     bordercolor="#666666"
     borderopacity="1.0"
     inkscape:pageshadow="2"
     inkscape:pageopacity="0"
     inkscape:pagecheckerboard="0"
     showgrid="false"
     inkscape:zoom="31.416667"
     inkscape:cx="11.984085"
     inkscape:cy="12"
     inkscape:window-width="1880"
     inkscape:window-height="966"
     inkscape:window-x="0"
     inkscape:window-y="29"
     inkscape:window-maximized="1"
     inkscape:current-layer="svg7" />
  <defs
     id="defs3">
    <style
       id="current-color-scheme"
       type="text/css">
   .ColorScheme-Text { color:#eeeeec; } .ColorScheme-Highlight { color:#367bf0; } .ColorScheme-NeutralText { color:#ffcc44; } .ColorScheme-PositiveText { color:#3db47e; } .ColorScheme-NegativeText { color:#dd4747; }
  </style>
  </defs>
  <path
     style="fill:currentColor"
     class="ColorScheme-Text"
     d="M 8.5,4 C 6.5670034,4 5,5.5670034 5,7.5 c 1.982e-4,0.2047199 0.018356,0.4085892 0.054043,0.6093036 0.039176,0.2203366 0.3247713,0.098603 0.4056271,0.308287 0.072318,-0.1147413 -0.077846,0.1107381 0,0 1.204207,-1.7130191 3.0581479,-2.9351932 5.202217,-3.2992806 0.117067,-0.019879 -0.02716,-0.2817842 0.09158,-0.2964875 -0.08354,-0.086351 0.09109,0.076645 0,0 C 10.125534,4.2934627 9.3282431,3.9999648 8.5,4 Z m 7,0 c -0.798975,8.584e-4 -1.568886,0.2748416 -2.185504,0.7692056 -0.114265,0.091611 0.128541,0.242545 0.02559,0.348956 0.326215,-0.2972007 -0.116429,-0.019803 0,0 2.139644,0.3639294 3.989156,1.5829277 5.193359,3.2907889 0.07959,0.1128847 -0.07385,-0.1170505 0,0 0.0769,-0.1985062 0.365594,-0.058233 0.405138,-0.2665021 C 18.978714,7.9310901 18.999356,7.7160382 19,7.5 19,5.5670034 17.432997,4 15.5,4 Z M 12,6 c -3.8659932,0 -7,3.1340068 -7,7 4.93e-5,1.650345 0.5831973,3.247602 1.646485,4.509766 0.1455523,0.172704 0.299378,0.338262 0.460937,0.496093 -0.3009458,-0.0325 -0.600414,0.07307 -0.814453,0.28711 -0.3904233,0.390507 -0.3904233,1.023555 0,1.414062 0.3905071,0.390424 1.0235559,0.390424 1.414063,0 0.2627596,-0.2634 0.3575649,-0.650899 0.246093,-1.005859 0.1902474,0.134744 0.3871074,0.2599 0.589844,0.375 0.1936352,0.110337 0.3924294,0.211363 0.595703,0.302734 0.018843,0.0085 0.037723,0.01701 0.056641,0.02539 0.1760915,0.077 0.3552796,0.146726 0.537109,0.208984 0.056397,0.0196 0.1130421,0.03849 0.169922,0.05664 0.161081,0.0508 0.323948,0.09575 0.488281,0.134766 0.06425,0.01523 0.128707,0.02956 0.19336,0.04297 0.160449,0.033 0.322007,0.06036 0.484375,0.08203 0.07472,0.01032 0.149597,0.01944 0.224609,0.02734 0.173306,0.01886 0.347255,0.03124 0.521485,0.03711 0.06182,0.0028 0.123674,0.0047 0.185546,0.0059 0.233513,-4.9e-5 0.466878,-0.01178 0.699219,-0.03516 1.196377,-0.121651 2.34124,-0.549461 3.324219,-1.242188 0.0072,-0.0045 0.01433,-0.0091 0.02148,-0.01367 -0.107826,0.352966 -0.01247,0.736628 0.248047,0.998047 0.390507,0.390423 1.023555,0.390423 1.414062,0 0.390423,-0.390507 0.390423,-1.023555 0,-1.414062 -0.217078,-0.216737 -0.521621,-0.321851 -0.826172,-0.285157 0.155808,-0.152484 0.304408,-0.312163 0.445313,-0.478515 0.01045,-0.01103 0.02087,-0.0221 0.03125,-0.0332 0.0039,-0.0052 0.0078,-0.01041 0.01172,-0.01563 0.130061,-0.156663 0.253225,-0.318927 0.36914,-0.486328 0.01972,-0.02655 0.03925,-0.05325 0.05859,-0.08008 0.104764,-0.156769 0.203152,-0.317708 0.294922,-0.482421 0.02453,-0.04206 0.04862,-0.08438 0.07227,-0.126953 0.08515,-0.160927 0.163983,-0.325114 0.236329,-0.492188 0.02201,-0.04728 0.0435,-0.09481 0.06445,-0.142578 0.0614,-0.152279 0.117425,-0.306672 0.167968,-0.462891 0.02529,-0.07252 0.04938,-0.145442 0.07227,-0.21875 0.04254,-0.145867 0.08032,-0.29308 0.113281,-0.441406 0.01892,-0.07782 0.0365,-0.155954 0.05273,-0.234375 0.02699,-0.148982 0.04913,-0.298801 0.06641,-0.449219 0.01196,-0.08444 0.02238,-0.169087 0.03125,-0.253906 C 18.988019,13.406801 18.998445,13.203483 19,13 19,9.1340068 15.865993,6 12,6 Z m 0,2 c 2.761424,0 5,2.238576 5,5 0,2.761424 -2.238576,5 -5,5 C 9.2385763,18 7,15.761424 7,13 7.0001091,12.833014 7.00858,12.666138 7.025391,12.5 7.2821587,9.9451937 9.432323,8.0001685 12,8 Z m 1.929688,2.998047 c -0.08157,0.0049 -0.160705,0.02971 -0.230469,0.07226 L 11.25,12.484375 c -0.238511,0.137852 -0.320604,0.442645 -0.183593,0.68164 l 1.767578,3.062501 c 0.222165,0.399377 0.819475,0.316031 0.923828,-0.128907 0.03003,-0.12636 0.0097,-0.259445 -0.05664,-0.371093 l -1.517578,-2.628907 2.015625,-1.164062 c 0.466994,-0.256526 0.262398,-0.968164 -0.269532,-0.9375 z"
     id="path5"
     sodipodi:nodetypes="ccscsscsccscsscsccscccccccccccccccccccccccccccccccccccccccccscssccccccccccccc" />
</svg>
