<?xml version="1.0" encoding="UTF-8" standalone="no"?>
<svg
   width="24"
   height="24"
   version="1.1"
   id="svg17563"
   sodipodi:docname="albert-tray.svg"
   inkscape:version="1.1.2 (0a00cf5339, 2022-02-04)"
   xmlns:inkscape="http://www.inkscape.org/namespaces/inkscape"
   xmlns:sodipodi="http://sodipodi.sourceforge.net/DTD/sodipodi-0.dtd"
   xmlns="http://www.w3.org/2000/svg"
   xmlns:svg="http://www.w3.org/2000/svg">
  <sodipodi:namedview
     id="namedview17565"
     pagecolor="#000000"
     bordercolor="#666666"
     borderopacity="1.0"
     inkscape:pageshadow="2"
     inkscape:pageopacity="0"
     inkscape:pagecheckerboard="0"
     showgrid="false"
     inkscape:zoom="128"
     inkscape:cx="19.710937"
     inkscape:cy="9.3789062"
     inkscape:window-width="1920"
     inkscape:window-height="1051"
     inkscape:window-x="0"
     inkscape:window-y="29"
     inkscape:window-maximized="1"
     inkscape:current-layer="svg17563" />
  <defs
     id="defs17559">
    <style
       id="current-color-scheme"
       type="text/css">.ColorScheme-Text { color:#eeeeec; } .ColorScheme-Highlight { color:#367bf0; } .ColorScheme-NeutralText { color:#ffcc44; } .ColorScheme-PositiveText { color:#3db47e; } .ColorScheme-NegativeText { color:#dd4747; }</style>
  </defs>
  <path
     d="m 19.595563,5.0013008 c -0.674608,-0.021501 -1.336703,0.1856528 -1.878983,0.58789 -0.595116,0.4429807 -1.294965,0.9473163 -1.967608,1.4532103 -0.104754,0.078785 -0.1483,0.030703 -0.251235,0.1093382 -0.05625,-0.069943 -0.151471,-0.0081 -0.187483,-0.073033 -0.03892,-0.070179 -0.07941,-0.1402052 -0.15042,-0.2160778 -0.775209,-0.8283254 -2.025432,-1.621476 -3.457173,-1.804688 -2.3588769,-0.301685 -4.5794589,0.713456 -5.9553219,2.033203 -1.375863,1.319748 -2.182946,2.853545 -2.810662,4.2128922 -0.04341,0.09409 -0.356621,0.73634 -0.593774,1.527343 -0.237153,0.791004 -0.580265,1.823291 -0.10352,3.361328 0.271454,0.874818 0.955363,1.724331 1.677803,2.166016 0.72244,0.441685 1.395672,0.565776 1.939533,0.611328 1.086847,0.09103 1.837819,-0.104006 2.398535,-0.238281 1.3217802,-0.315071 2.4019639,-0.793833 3.4645149,-1.323657 0.06271,-0.03127 0.284928,0.102816 0.347557,0.07122 0.05191,0.05571 -0.05455,-0.05459 0,0 0.635994,0.636521 1.466387,1.186905 2.848358,1.412597 0.960878,0.183944 1.547409,0.101842 2.257905,-0.01563 0.730148,-0.120711 1.456599,-0.274763 2.347752,-0.796875 0.316134,-0.185793 0.595514,-0.428089 0.824253,-0.714844 l 1.998128,-2.498046 c 0.425269,-0.532194 0.65674,-1.193512 0.656277,-1.875 -0.001,-1.048813 -0.548891,-2.015347 -1.434983,-2.556457 -0.05864,-0.03581 0.06155,0.03199 0,0 0.0452,-0.04711 -0.08712,-0.191509 -0.03893,-0.234315 0.05001,-0.04442 0.100215,-0.08901 0.147688,-0.138916 1.779258,-1.8777239 0.506011,-4.9781415 -2.07821,-5.0605422 z m -8.820674,2.998046 c 0.171896,0.0015 0.347886,0.01393 0.529319,0.03711 1.773135,0.226676 2.468501,2.0331972 3.279093,3.6001632 0.01375,0.02658 -0.01382,-0.02643 0,0 0.04611,-0.03062 0.133419,0.01818 0.179215,-0.01265 1.455149,-0.979447 2.750059,-2.057503 3.825355,-2.9160186 0.254235,-0.2029812 0.151283,-0.048947 0.230734,-0.073806 0.02197,-0.00687 -0.06129,0.045576 0,0 -0.0514,0.053982 0.03453,0.016723 0.01308,0.04056 -0.09933,0.1103887 0.05449,-0.034687 -0.168374,0.1923598 -1.133743,1.1550135 -2.177764,2.1068495 -3.731839,3.1978245 -0.02724,0.01912 0.02756,-0.01921 0,0 0.02128,0.03744 -0.03949,0.132133 -0.01791,0.169049 0.370622,0.633922 0.788334,1.18583 1.357644,1.491966 0.927184,0.498183 1.639134,0.31492 3.233504,-0.476469 0.118824,-0.05898 0.04401,0.126831 0.07801,0.17998 0.0107,0.01673 -0.03642,0.106087 0.0053,0.08474 v 0 0 l -1.588217,1.98519 c -0.688218,0.40282 -1.992081,0.578741 -2.562605,0.462891 -0.800032,-0.118 -1.675427,-0.994328 -2.318453,-1.861329 -0.113834,-0.15373 -0.218893,-0.325103 -0.323871,-0.49621 -0.02158,-0.03518 0.02165,0.035 0,0 -0.0526,0.03191 -0.170471,-0.04137 -0.224003,-0.0091 -0.433993,0.261464 -0.899284,0.534531 -1.405332,0.82369 -1.147047,0.643 -2.1550949,1.053297 -3.6290549,1.404297 -0.882136,0.211 -2.180433,0.406234 -2.464945,-0.509766 -0.296312,-0.955 0.411311,-2.427094 0.558617,-2.746094 1.042449,-2.25525 2.566314,-4.5907792 5.1447419,-4.5683612 z m -1.6074879,1.503907 c -0.382682,-0.03666 -0.778748,0.0541 -1.166063,0.320312 -0.510421,0.3514012 -1.008073,0.9835572 -1.394589,1.6601572 -0.617225,1.079 -0.260842,2.483063 1.355525,2.789063 1.5047295,-0.07923 2.9503409,-0.545085 4.3054299,-1.19922 0.05203,-0.02512 -0.05176,0.02566 0,0 -0.03187,-0.05604 0.09209,-0.188478 0.06048,-0.244888 C 11.862966,11.998499 11.422199,11.137602 10.886222,10.524739 10.408327,9.9782378 9.8052051,9.5643478 9.1674011,9.5032538 Z"
     style="fill:currentColor"
     class="ColorScheme-Text"
     id="path17561"
     sodipodi:nodetypes="ccscsscscscsscscsccccccscsccccscssscssscscssccccccscsccccccccccscscc" />
</svg>
