<?xml version="1.0" encoding="UTF-8" standalone="no"?>
<svg
   width="24"
   height="24"
   version="1.1"
   id="svg9"
   sodipodi:docname="btsync-gui-9.svg"
   inkscape:version="1.1.2 (0a00cf5339, 2022-02-04)"
   xmlns:inkscape="http://www.inkscape.org/namespaces/inkscape"
   xmlns:sodipodi="http://sodipodi.sourceforge.net/DTD/sodipodi-0.dtd"
   xmlns="http://www.w3.org/2000/svg"
   xmlns:svg="http://www.w3.org/2000/svg">
  <sodipodi:namedview
     id="namedview11"
     pagecolor="#ffffff"
     bordercolor="#666666"
     borderopacity="1.0"
     inkscape:pageshadow="2"
     inkscape:pageopacity="0.0"
     inkscape:pagecheckerboard="0"
     showgrid="false"
     inkscape:zoom="31.5"
     inkscape:cx="12"
     inkscape:cy="12"
     inkscape:window-width="1880"
     inkscape:window-height="966"
     inkscape:window-x="0"
     inkscape:window-y="29"
     inkscape:window-maximized="1"
     inkscape:current-layer="g7" />
  <defs
     id="defs3">
    <style
       id="current-color-scheme"
       type="text/css">
   .ColorScheme-Text { color:#eeeeec; } .ColorScheme-Highlight { color:#367bf0; } .ColorScheme-NeutralText { color:#ffcc44; } .ColorScheme-PositiveText { color:#3db47e; } .ColorScheme-NegativeText { color:#dd4747; }
  </style>
  </defs>
  <g
     transform="matrix(-.24595 .24595 -.24595 -.24595 23.816 11.999)"
     id="g7">
    <path
       style="fill:currentColor"
       class="ColorScheme-Text"
       d="m -25.406,12 c -4.4184,0 -8,3.5816 -8,8 0,4.4184 3.5816,8 8,8 4.4184,0 8,-3.5816 8,-8 0,-4.4184 -3.5816,-8 -8,-8 z m 0,2.5 c 2.304,0 4.3675,1.303 5.2812,3.3125 l 0.565686,-0.217563 v 0 l 0.493003,0.304206 -0.684226,2.373443 v 0 l -0.621381,0.280737 -2.309119,-1.2853 v 0 l -0.02204,-0.500499 0.765578,-0.298774 c -0.62086,-1.3102 -1.9541,-2.125 -3.4688,-2.125 -1.5726,0 -2.9961,0.93957 -3.5625,2.3438 l -1.781,-0.687 c 0.8448,-2.1035 2.9848,-3.5 5.3438,-3.5 z m -5.04519,4.963361 v 0 l 2.345452,1.261198 v 0 l -0.03841,0.490334 L -28.8747,21.5 c 0.61336,1.3047 1.9641,2.1562 3.4688,2.1562 1.5756,0 2.9786,-0.91032 3.5625,-2.3125 l 1.7812,0.6875 c -0.8768,2.103 -2.9793,3.4688 -5.3438,3.4688 -2.2925,0 -4.387,-1.3392 -5.2812,-3.3438 l -0.720736,0.258715 v 0 l -0.34629,-0.333452 0.707423,-2.387552 z"
       transform="matrix(2.875,0,0,2.875,97.068,-33.481)"
       id="path5"
       sodipodi:nodetypes="sssssccccccccccccsccccccccccsccsccccccc" />
  </g>
</svg>
