<?xml version="1.0" encoding="UTF-8" standalone="no"?>
<svg
   width="24"
   height="24"
   version="1.1"
   id="svg587240"
   sodipodi:docname="caffeine-cup-full.svg"
   inkscape:version="1.1.2 (0a00cf5339, 2022-02-04)"
   xmlns:inkscape="http://www.inkscape.org/namespaces/inkscape"
   xmlns:sodipodi="http://sodipodi.sourceforge.net/DTD/sodipodi-0.dtd"
   xmlns="http://www.w3.org/2000/svg"
   xmlns:svg="http://www.w3.org/2000/svg">
  <sodipodi:namedview
     id="namedview587242"
     pagecolor="#020202"
     bordercolor="#666666"
     borderopacity="1.0"
     inkscape:pageshadow="2"
     inkscape:pageopacity="0"
     inkscape:pagecheckerboard="0"
     showgrid="false"
     inkscape:zoom="34.458333"
     inkscape:cx="12.01451"
     inkscape:cy="12"
     inkscape:window-width="1920"
     inkscape:window-height="1051"
     inkscape:window-x="0"
     inkscape:window-y="29"
     inkscape:window-maximized="1"
     inkscape:current-layer="svg587240" />
  <defs
     id="defs587236">
    <style
       id="current-color-scheme"
       type="text/css">
   .ColorScheme-Text { color:#eeeeec; } .ColorScheme-Highlight { color:#367bf0; } .ColorScheme-NeutralText { color:#ffcc44; } .ColorScheme-PositiveText { color:#3db47e; } .ColorScheme-NegativeText { color:#dd4747; }
  </style>
  </defs>
  <path
     style="fill:currentColor"
     class="ColorScheme-Text"
     d="M 11.075612,3.5704336 C 10.957999,3.7186788 10.966953,3.2884358 10.866927,3.4216791 10.032976,4.532578 9.8084303,5.1605551 10.162109,5.9472656 c 0.31798,0.7072159 1.081886,1.1073518 0.928698,2.472129 -0.01981,0.1764871 0.330823,-0.1282611 0.277394,0.083239 0.135452,-0.1590508 -0.119796,0.171673 0,0 0.558015,-0.7996649 0.883097,-1.7084715 0.387658,-2.4674772 -0.529437,-0.8109322 -0.851781,-1.3464563 -0.680247,-2.4647226 0.02682,-0.1748113 -0.05205,0.2065706 0,-2e-7 z m 2.737356,-0.076395 c -0.139107,0.175336 0.114517,-0.1546333 0,0 -0.789558,1.066145 -0.996786,1.6837607 -0.650859,2.4532275 0.318164,0.7076256 1.082771,1.1078154 0.928431,2.4745022 -0.01986,0.1758404 0.30621,-0.094658 0.25302,0.1158946 0.126221,-0.148211 -0.112969,0.159323 0,0 C 14.916528,7.7295943 15.258546,6.8052671 14.755859,6.0351562 14.230268,5.2301146 13.908772,4.6964944 14.071952,3.5947105 14.098842,3.4131538 13.758501,3.7102072 13.812968,3.4940386 Z m 3.035156,-0.047255 c -0.125024,0.1575861 0.105154,-0.1407129 0,0 -0.818509,1.0952954 -1.037021,1.7197172 -0.686015,2.5004821 0.315202,0.7010363 1.06857,1.1003357 0.932504,2.4365733 -0.01895,0.1860986 0.05704,-0.2257908 0,0 0.156714,-0.1840157 0.194648,0.2379672 0.329182,0.037594 C 17.947193,7.6418908 18.234603,6.7685859 17.755859,6.0351562 17.23667,5.2399196 16.916634,4.7095331 17.066205,3.6347168 17.093,3.442168 16.789631,3.6789302 16.848124,3.4467836 Z M 8,10 c -2.209139,0 -4,1.790861 -4,4 0,2.209139 1.790861,4 4,4 0.2424594,-8.38e-4 0.4843405,-0.02372 0.7226562,-0.06836 C 9.4620206,19.481091 10.958036,20 14,20 19.931367,20 19.999215,18.045493 19.999991,10.272181 20,10.182235 19.439971,10 19.719985,10 v 0 z m 0,2 h 0.00781 c 0.011613,1.596219 0.052166,2.938455 0.1953125,3.986328 C 8.1356935,15.994331 8.0678957,15.998894 8,16 6.8954305,16 6,15.104569 6,14 6,12.895431 6.8954305,12 8,12 Z"
     id="path587238"
     sodipodi:nodetypes="cscscscsccscscscsccscscscscssccssccsscccss" />
</svg>
