<?xml version="1.0" encoding="UTF-8" standalone="no"?>
<svg
   width="24"
   height="24"
   version="1.1"
   id="svg39506"
   sodipodi:docname="deltachat-tray.svg"
   inkscape:version="1.1.2 (0a00cf5339, 2022-02-04)"
   xmlns:inkscape="http://www.inkscape.org/namespaces/inkscape"
   xmlns:sodipodi="http://sodipodi.sourceforge.net/DTD/sodipodi-0.dtd"
   xmlns="http://www.w3.org/2000/svg"
   xmlns:svg="http://www.w3.org/2000/svg">
  <sodipodi:namedview
     id="namedview39508"
     pagecolor="#000000"
     bordercolor="#666666"
     borderopacity="1.0"
     inkscape:pageshadow="2"
     inkscape:pageopacity="0"
     inkscape:pagecheckerboard="0"
     showgrid="false"
     inkscape:zoom="34.458333"
     inkscape:cx="12.01451"
     inkscape:cy="12"
     inkscape:window-width="1920"
     inkscape:window-height="1051"
     inkscape:window-x="0"
     inkscape:window-y="29"
     inkscape:window-maximized="1"
     inkscape:current-layer="svg39506" />
  <defs
     id="defs39502">
    <style
       id="current-color-scheme"
       type="text/css">
   .ColorScheme-Text { color:#eeeeec; } .ColorScheme-Highlight { color:#367bf0; } .ColorScheme-NeutralText { color:#ffcc44; } .ColorScheme-PositiveText { color:#3db47e; } .ColorScheme-NegativeText { color:#dd4747; }
  </style>
  </defs>
  <path
     style="fill:currentColor"
     class="ColorScheme-Text"
     d="M 11.693256,4.0094433 C 7.2883574,4.2267165 3.7359594,8.0807532 4.0155214,12.589521 c 0.227181,3.663959 2.875046,6.629235 6.5039066,7.283203 1.534636,0.276562 3.071252,0.102623 4.587891,-0.515625 1.472709,-0.600344 2.107829,-0.594635 3.748047,0.02734 0.438998,0.166471 0.539062,-0.458985 0.539062,-0.458985 -0.300781,-0.71875 0.144561,0.406577 -0.04402,0.03438 -0.582931,-1.150528 -0.690221,-2.117367 -0.442308,-3.022656 0.06451,-0.235543 0.277193,-0.829156 0.474609,-1.318359 0.48044,-1.190543 0.619388,-1.835128 0.617188,-2.873047 C 19.995397,9.5810574 19.14459,7.6454835 17.529194,6.1246777 16.1966,4.8701149 14.468516,4.1326912 12.585834,4.0153027 12.285486,3.9965754 11.986916,3.9949584 11.693256,4.0094433 Z m 0.128906,1.9902344 c 0.809302,-0.00675 1.523662,0.077557 2.025391,0.2363281 1.03959,0.3289828 1.503153,1.0320428 0.990235,1.5 C 14.387146,8.1471474 13.958216,8.0515915 13.056537,7.3375683 12.749628,7.0945331 12.30434,6.8076088 12.068256,6.6988965 11.05883,6.2340733 9.8182564,6.6484396 9.8182564,7.3883496 c 0,0.1075476 0.117723,0.3297131 0.2636716,0.4921875 0.277131,0.3085096 0.563311,0.4136901 2.826172,1.7148437 1.604165,0.9224012 2.431108,1.6402352 2.841797,2.4667972 0.505519,1.081829 0.234201,2.651074 -0.742188,3.591796 -0.521244,0.511273 -1.191681,0.933596 -1.851562,1.132812 -0.296529,0.08952 -0.819759,0.180685 -1.164063,0.203125 -1.653592,0.107746 -3.0579996,-0.601845 -3.6953126,-1.867187 -0.390483,-0.780442 -0.400564,-1.675446 0.00195,-2.615234 0.477952,-0.948942 1.599883,-1.738802 2.9511716,-2.074218 0.341994,-0.08489 0.635995,-0.19229 0.652343,-0.240235 0.01635,-0.04795 -0.495287,-0.4709319 -1.136718,-0.9394531 C 9.4707114,8.3078136 9.1943974,8.0411925 9.1815374,7.4781933 c -0.0148,-0.648024 0.493848,-1.1149636 1.4882806,-1.3632812 0.297077,-0.074182 0.666763,-0.1111864 1.152344,-0.1152344 z m 0.613281,4.6992193 c -0.06433,-1.68e-4 -0.137841,0.0097 -0.236328,0.02344 -0.682945,0.09559 -1.432622,0.444103 -1.867187,0.867187 -0.5669406,0.551962 -0.7376136,1.03456 -0.7324216,2.074219 0.00821,1.213974 1.0154416,2.549181 2.4492186,2.537109 1.378829,-0.03059 2.19348,-0.954637 2.335938,-2.134766 0.104212,-1.039802 -0.337264,-2.061249 -1.25586,-2.906249 -0.397859,-0.365985 -0.500382,-0.460458 -0.69336,-0.460937 z"
     id="path39504"
     sodipodi:nodetypes="ssssscssscsssscssssssccscccssssssccscccscc" />
</svg>
