<?xml version="1.0" encoding="UTF-8" standalone="no"?>
<svg
   width="24"
   height="24"
   version="1.1"
   id="svg98371"
   sodipodi:docname="display-brightness-symbolic.svg"
   inkscape:version="1.1.2 (0a00cf5339, 2022-02-04)"
   xmlns:inkscape="http://www.inkscape.org/namespaces/inkscape"
   xmlns:sodipodi="http://sodipodi.sourceforge.net/DTD/sodipodi-0.dtd"
   xmlns="http://www.w3.org/2000/svg"
   xmlns:svg="http://www.w3.org/2000/svg">
  <defs
     id="defs98375" />
  <sodipodi:namedview
     id="namedview98373"
     pagecolor="#000000"
     bordercolor="#666666"
     borderopacity="1.0"
     inkscape:pageshadow="2"
     inkscape:pageopacity="0"
     inkscape:pagecheckerboard="0"
     showgrid="false"
     inkscape:zoom="34.458333"
     inkscape:cx="12.01451"
     inkscape:cy="12"
     inkscape:window-width="1920"
     inkscape:window-height="1051"
     inkscape:window-x="0"
     inkscape:window-y="29"
     inkscape:window-maximized="1"
     inkscape:current-layer="svg98371" />
  <path
     style="fill:#eeeeec"
     d="m 11.734219,4.9978376 v 0 L 9.8106501,7.0003 H 7.3163578 L 7.00015,7.3374422 v 0 V 9.8108 l -2.0591214,1.977996 v 0 l 0.00984,0.435612 L 7.00015,14.221 v 2.397277 L 7.3379249,17 v 0 h 2.4727252 l 1.9282779,2.0071 0.476542,0.05096 v 0 L 14.22115,17 h 2.502817 l 0.276183,-0.337316 v 0 V 14.221 l 2.060805,-2.008087 -0.0069,-0.41018 v 0 L 17.00015,10.0003 V 7.2547538 L 16.682498,7.0003 v 0 l -2.461348,0 -1.92175,-1.9721944 z m 0.265931,3.0024625 c 2.21,0 4,1.7899999 4,3.9999999 0,2.2097 -1.79,3.9997 -4,3.9997 -2.21,0 -4,-1.79 -4,-3.9997 0,-2.2100001 1.79,-4 4,-3.9999999 z m 0,0.9999999 c -1.6569,0 -2.9999999,1.3431 -2.9999999,3 0,1.6569 1.3430999,2.9997 2.9999999,2.9997 z"
     id="path98369"
     sodipodi:nodetypes="cccccccccccccccccccccccccccccccccssssscscc" />
</svg>
