<?xml version="1.0" encoding="UTF-8" standalone="no"?>
<svg
   width="24"
   height="24"
   version="1.1"
   id="svg1363013"
   sodipodi:docname="dropboxstatus-busy.svg"
   inkscape:version="1.1.2 (0a00cf5339, 2022-02-04)"
   xmlns:inkscape="http://www.inkscape.org/namespaces/inkscape"
   xmlns:sodipodi="http://sodipodi.sourceforge.net/DTD/sodipodi-0.dtd"
   xmlns="http://www.w3.org/2000/svg"
   xmlns:svg="http://www.w3.org/2000/svg">
  <sodipodi:namedview
     id="namedview1363015"
     pagecolor="#000000"
     bordercolor="#666666"
     borderopacity="1.0"
     inkscape:pageshadow="2"
     inkscape:pageopacity="0"
     inkscape:pagecheckerboard="0"
     showgrid="false"
     inkscape:zoom="34.458333"
     inkscape:cx="12.01451"
     inkscape:cy="12"
     inkscape:window-width="1920"
     inkscape:window-height="1051"
     inkscape:window-x="0"
     inkscape:window-y="29"
     inkscape:window-maximized="1"
     inkscape:current-layer="svg1363013" />
  <defs
     id="defs1363009">
    <style
       id="current-color-scheme"
       type="text/css">
   .ColorScheme-Text { color:#eeeeec; } .ColorScheme-Highlight { color:#367bf0; } .ColorScheme-NeutralText { color:#ffcc44; } .ColorScheme-PositiveText { color:#3db47e; } .ColorScheme-NegativeText { color:#dd4747; }
  </style>
  </defs>
  <path
     style="fill:currentColor"
     class="ColorScheme-Text"
     d="m 8.0098,4 -5,3 4,2.9844 L 3,12.992 8.0098,16 l 4,-3 -5,-3 5,-3 5,3.0156 -5,2.9844 1.7773,1.334 c 0.91425,-1.4506 2.508,-2.3315 4.2227,-2.334 1.0745,0.003 2.1196,0.35112 2.9805,0.99414 l 0.0293,-0.0176 -4.0098,-2.9765 4,-3 -5,-3 -4,2.9844 -4,-2.9844 z m 10,9 c -2.2091,0 -4,1.7909 -4,4 0,2.2091 1.7909,4 4,4 2.2091,0 4,-1.7909 4,-4 0,-2.2091 -1.7909,-4 -4,-4 z m -6,1 -4,3 -1,-0.59961 V 17 l 5,3 1.4766,-0.88477 c -0.31166,-0.66173 -0.47434,-1.3838 -0.47656,-2.1152 -2.4e-4,-0.67105 0.1346,-1.3353 0.39648,-1.9531 l -1.4,-1.05 z m 6,0.288915 c 0.123765,0 0.24578,-0.28142 0.365616,-0.26686 1.372005,0.166702 2.458309,1.259572 2.614957,2.634654 0.01283,0.112654 -0.232977,0.227203 -0.232977,0.343291 v 0 H 20.0098 c 0,-1.104569 -0.895431,-2 -2,-2 z M 15.034207,17.384473 15.345289,17 H 16.0098 c 0,1.104569 0.895431,2 2,2 v 0.673734 l -0.376061,0.302923 c -0.127363,0 0.123188,0.01541 0,0 -1.35336,-0.16925 -2.426547,-1.239988 -2.599532,-2.592184 -0.0161,-0.125885 0,0.130264 0,0 z"
     id="path1363011"
     sodipodi:nodetypes="ccccccccccccccccccccssssscccccccccccssccccccccccccssc" />
</svg>
