<?xml version="1.0" encoding="UTF-8" standalone="no"?>
<svg
   width="24"
   height="24"
   version="1.1"
   id="svg1389990"
   sodipodi:docname="dropboxstatus-busy2.svg"
   inkscape:version="1.1.2 (0a00cf5339, 2022-02-04)"
   xmlns:inkscape="http://www.inkscape.org/namespaces/inkscape"
   xmlns:sodipodi="http://sodipodi.sourceforge.net/DTD/sodipodi-0.dtd"
   xmlns="http://www.w3.org/2000/svg"
   xmlns:svg="http://www.w3.org/2000/svg">
  <sodipodi:namedview
     id="namedview1389992"
     pagecolor="#000000"
     bordercolor="#666666"
     borderopacity="1.0"
     inkscape:pageshadow="2"
     inkscape:pageopacity="0"
     inkscape:pagecheckerboard="0"
     showgrid="false"
     inkscape:zoom="34.458333"
     inkscape:cx="12.01451"
     inkscape:cy="12"
     inkscape:window-width="1920"
     inkscape:window-height="1051"
     inkscape:window-x="0"
     inkscape:window-y="29"
     inkscape:window-maximized="1"
     inkscape:current-layer="svg1389990" />
  <defs
     id="defs1389986">
    <style
       id="current-color-scheme"
       type="text/css">
   .ColorScheme-Text { color:#eeeeec; } .ColorScheme-Highlight { color:#367bf0; } .ColorScheme-NeutralText { color:#ffcc44; } .ColorScheme-PositiveText { color:#3db47e; } .ColorScheme-NegativeText { color:#dd4747; }
  </style>
  </defs>
  <path
     style="fill:currentColor"
     class="ColorScheme-Text"
     d="m 8.0098,4 -5,3 4,2.9844 L 3,12.992 8.0098,16 l 4,-3 -5,-3 5,-3 5,3.0156 -5,2.9844 1.7773,1.334 c 0.91425,-1.4506 2.508,-2.3315 4.2227,-2.334 1.0745,0.003 2.1196,0.35112 2.9805,0.99414 l 0.0293,-0.0176 -4.0098,-2.9765 4,-3 -5,-3 -4,2.9844 -4,-2.9844 z m 10,9 c -2.2091,0 -4,1.7909 -4,4 0,2.2091 1.7909,4 4,4 2.2091,0 4,-1.7909 4,-4 0,-2.2091 -1.7909,-4 -4,-4 z m -6,1 -4,3 -1,-0.59961 V 17 l 5,3 1.4766,-0.88477 c -0.31166,-0.66173 -0.47434,-1.3838 -0.47656,-2.1152 -2.4e-4,-0.67105 0.1346,-1.3353 0.39648,-1.9531 l -1.4,-1.05 z m 5.648717,0.02035 0.351283,0.293363 V 15 c -1.104569,0 -2,0.895431 -2,2 h -0.680633 l -0.277741,-0.500876 c 0,-0.170662 -0.02738,0.16288 0,0 0.219338,-1.305009 1.281241,-2.324141 2.607091,-2.478776 0.115227,-0.01344 -0.118835,0 0,0 z M 20.0098,17 h 0.66544 v 0 c 0,0.135574 0.325567,0.269048 0.308145,0.399858 -0.178187,1.337862 -1.238084,2.397014 -2.576304,2.574069 -0.129986,0.0172 0.134684,0 0,0 L 18.0098,19.629337 V 19 c 1.104569,0 2,-0.895431 2,-2 z"
     id="path1389988"
     sodipodi:nodetypes="ccccccccccccccccccccsssssccccccccccccccccssccccsscccc" />
</svg>
