<?xml version="1.0" encoding="UTF-8" standalone="no"?>
<svg
   width="24"
   height="24"
   version="1"
   id="svg9"
   sodipodi:docname="firewall-applet-panic.svg"
   inkscape:version="1.1.2 (0a00cf5339, 2022-02-04)"
   xmlns:inkscape="http://www.inkscape.org/namespaces/inkscape"
   xmlns:sodipodi="http://sodipodi.sourceforge.net/DTD/sodipodi-0.dtd"
   xmlns="http://www.w3.org/2000/svg"
   xmlns:svg="http://www.w3.org/2000/svg">
  <sodipodi:namedview
     id="namedview11"
     pagecolor="#ffffff"
     bordercolor="#666666"
     borderopacity="1.0"
     inkscape:pageshadow="2"
     inkscape:pageopacity="0.0"
     inkscape:pagecheckerboard="0"
     showgrid="false"
     inkscape:zoom="31.5"
     inkscape:cx="12"
     inkscape:cy="12"
     inkscape:window-width="1880"
     inkscape:window-height="966"
     inkscape:window-x="0"
     inkscape:window-y="29"
     inkscape:window-maximized="1"
     inkscape:current-layer="g7" />
  <defs
     id="defs3">
    <style
       id="current-color-scheme"
       type="text/css">
   .ColorScheme-Text { color:#eeeeec; } .ColorScheme-Highlight { color:#367bf0; } .ColorScheme-NeutralText { color:#ffcc44; } .ColorScheme-PositiveText { color:#3db47e; } .ColorScheme-NegativeText { color:#dd4747; }
  </style>
  </defs>
  <g
     transform="matrix(.046206 0 0 .045375 3.8524 3.9989)"
     id="g7">
    <path
       style="fill:currentColor"
       class="ColorScheme-NegativeText"
       d="M 10.924,3.0117 4.1543,4.998 C 4.0619,5.03 4,5.4722 4,5.5684 c 0,2.3721 0.6393,5.1166 1.7539,7.5256 0.9041,1.954 2.53,4.56 5.1411,5.881 C 10.928,18.991 10.964,19 11,19 c 0.03632,0 0.07225,-0.0086 0.10547,-0.02539 2.6105,-1.3207 4.2364,-3.9268 5.1406,-5.8809 1.115,-2.409 1.754,-5.1539 1.754,-7.5256 0,-0.0962 -0.062,-0.5384 -0.154,-0.5704 l -6.77,-1.9863 c -0.04972,-0.017243 -0.10263,-0.017243 -0.15234,0 z m 0.03125,2.9961 c 0.02841,-0.0097 0.05948,-0.0097 0.08789,0 l 3.8691,1.3184 c 0.053,0.018 0.088,0.065 0.088,0.1191 0,1.3341 -0.36508,2.8773 -1.002,4.2324 -0.51672,1.0991 -1.4458,2.5657 -2.9375,3.3086 -0.018,0.01 -0.039,0.014 -0.06,0.014 -0.021,0 -0.042,-0.004 -0.061,-0.014 -1.4913,-0.742 -2.4204,-2.209 -2.937,-3.308 -0.637,-1.355 -1.002,-2.8984 -1.002,-4.2327 0,-0.0541 0.0351,-0.1011 0.0879,-0.1191 l 3.8671,-1.3184 z m -0.955,1.3167569 v 0 3.2696661 L 10.244764,11 v 0 l 1.460727,0 v 0 L 12.00025,10.657842 V 7.3563673 L 11.705491,7 v 0 h -1.39698 z m 0,4.6754431 v 1.609891 L 10.340385,14 v 0 h 1.269485 l 0.39038,-0.3583 v 0 V 12 Z"
       transform="matrix(21.642,0,0,22.039,-61.732,-66.091)"
       id="path5"
       sodipodi:nodetypes="ccsccsccscccccccsccsccsccccccccccccccccccccccccc" />
  </g>
</svg>
