<?xml version="1.0" encoding="UTF-8" standalone="no"?>
<svg
   width="24"
   height="24"
   version="1.1"
   id="svg9"
   sodipodi:docname="gpm-brightness-kbd.svg"
   inkscape:version="1.1.2 (0a00cf5339, 2022-02-04)"
   xmlns:inkscape="http://www.inkscape.org/namespaces/inkscape"
   xmlns:sodipodi="http://sodipodi.sourceforge.net/DTD/sodipodi-0.dtd"
   xmlns="http://www.w3.org/2000/svg"
   xmlns:svg="http://www.w3.org/2000/svg">
  <sodipodi:namedview
     id="namedview11"
     pagecolor="#ffffff"
     bordercolor="#666666"
     borderopacity="1.0"
     inkscape:pageshadow="2"
     inkscape:pageopacity="0.0"
     inkscape:pagecheckerboard="0"
     showgrid="false"
     inkscape:zoom="31.5"
     inkscape:cx="12"
     inkscape:cy="12"
     inkscape:window-width="1880"
     inkscape:window-height="966"
     inkscape:window-x="0"
     inkscape:window-y="29"
     inkscape:window-maximized="1"
     inkscape:current-layer="svg9" />
  <defs
     id="defs3">
    <style
       id="current-color-scheme"
       type="text/css">
   .ColorScheme-Text { color:#eeeeec; } .ColorScheme-Highlight { color:#367bf0; } .ColorScheme-NeutralText { color:#ffcc44; } .ColorScheme-PositiveText { color:#3db47e; } .ColorScheme-NegativeText { color:#dd4747; }
  </style>
  </defs>
  <path
     style="fill:currentColor"
     class="ColorScheme-Text"
     d="M 12.458746,4.1915529 11.581723,4.1561443 9.8105469,6 H 7.5619284 L 7,6.41995 v 0 2.3905969 L 5.1865893,10.552478 5.3080222,11 v 0 H 8 c 0,-2.2099999 1.7900001,-4 4,-4 2.21,0 4,1.7900001 4,4 h 2.609259 v 0 L 18.815046,10.592637 17,9 v -2.4209973 0 L 16.482844,6 h -2.262141 z m -0.772025,3.8246065 c -0.105795,0 0.102968,-0.010684 0,0 C 10.177059,8.1727966 9,9.4488951 9,11 h 3 V 8.3565325 Z"
     id="path5"
     sodipodi:nodetypes="cccccccccccsccccccccccccscccc" />
  <path
     class="ColorScheme-Text"
     d="m 19,13 c 0,-0.554 -0.446,-1 -1,-1 H 5 c -0.554,0 -1,0.446 -1,1 v 5 c 0,0.554 0.446,1 1,1 h 13 c 0.554,0 1,-0.446 1,-1 z m -3,0 v 1 h -1 v -1 z m 0,2 v 1 h -1 v -1 z m -1,2 v 1 H 8.0000002 v -1 z m -1,-4 v 1 h -1 v -1 z m 0,2 v 1 h -1 v -1 z m -2,-2 v 1 h -1 v -1 z m 0,2 v 1 h -1 v -1 z m -2,-2 v 1 H 9.0000002 v -1 z m 0,2 v 1 H 9.0000002 V 15 Z M 8.0000002,13 v 1 h -1 v -1 z m 0,2 v 1 h -1 v -1 z"
     style="fill:currentColor;fill-rule:evenodd"
     id="path7" />
</svg>
