<?xml version="1.0" encoding="UTF-8" standalone="no"?>
<svg
   width="24"
   height="24"
   version="1.1"
   id="svg9"
   sodipodi:docname="gpm-brightness-lcd-invalid.svg"
   inkscape:version="1.1.2 (0a00cf5339, 2022-02-04)"
   xmlns:inkscape="http://www.inkscape.org/namespaces/inkscape"
   xmlns:sodipodi="http://sodipodi.sourceforge.net/DTD/sodipodi-0.dtd"
   xmlns="http://www.w3.org/2000/svg"
   xmlns:svg="http://www.w3.org/2000/svg">
  <sodipodi:namedview
     id="namedview11"
     pagecolor="#353535"
     bordercolor="#666666"
     borderopacity="1.0"
     inkscape:pageshadow="2"
     inkscape:pageopacity="0"
     inkscape:pagecheckerboard="0"
     showgrid="false"
     inkscape:zoom="31.5"
     inkscape:cx="12"
     inkscape:cy="12"
     inkscape:window-width="1880"
     inkscape:window-height="966"
     inkscape:window-x="0"
     inkscape:window-y="29"
     inkscape:window-maximized="1"
     inkscape:current-layer="svg9" />
  <defs
     id="defs3">
    <style
       id="current-color-scheme"
       type="text/css">
   .ColorScheme-Text { color:#eeeeec; } .ColorScheme-Highlight { color:#367bf0; } .ColorScheme-NeutralText { color:#ffcc44; } .ColorScheme-PositiveText { color:#3db47e; } .ColorScheme-NegativeText { color:#dd4747; }
  </style>
  </defs>
  <path
     style="opacity:0.35;fill:currentColor"
     class="ColorScheme-Text"
     d="M 12.340333,5.0699586 11.700569,5.0330238 9.8108,7.0003001 H 7.6256743 L 7.0002999,7.562717 v 0 2.248083 l -1.8522797,1.779304 v 0 L 5.0861767,12.356088 7.0002999,14.221 v 2.03995 L 7.6256743,17 v 0 H 9.8108 l 1.725594,1.796131 0.969287,-0.03571 v 0 L 14.2213,17 h 2.1978 v 0 l 0.5812,-0.611809 V 14.221 l 1.824252,-1.777585 v 0 L 18.856639,11.629382 17.0003,10.0003 v -2.437583 0 L 16.482844,7.0003001 H 14.2213 Z M 12.0003,8.0003001 c 2.21,0 4,1.7899999 4,3.9999999 0,2.2097 -1.79,3.9997 -4,3.9997 -2.2100001,0 -4.0000001,-1.79 -4.0000001,-3.9997 0,-2.21 1.79,-3.9999999 4.0000001,-3.9999999 z"
     id="path5"
     sodipodi:nodetypes="cccccccccccccccccccccccccccccccccsssss" />
  <path
     style="fill:currentColor"
     class="ColorScheme-NegativeText"
     d="M 11.371258,9 11.00015,9.3407283 V 12.515026 L 11.371258,13 v 0 h 1.33413 v 0 l 0.294762,-0.325922 0,-3.2065894 L 12.483185,9 v 0 z m -0.371108,5 v 1 h 2 v -1 z"
     id="path7"
     sodipodi:nodetypes="cccccccccccccccccc" />
</svg>
