<?xml version="1.0" encoding="UTF-8" standalone="no"?>
<svg
   width="24"
   height="24"
   version="1.1"
   id="svg11"
   sodipodi:docname="hexchat-fileoffer.svg"
   inkscape:version="1.1.2 (0a00cf5339, 2022-02-04)"
   xmlns:inkscape="http://www.inkscape.org/namespaces/inkscape"
   xmlns:sodipodi="http://sodipodi.sourceforge.net/DTD/sodipodi-0.dtd"
   xmlns="http://www.w3.org/2000/svg"
   xmlns:svg="http://www.w3.org/2000/svg">
  <sodipodi:namedview
     id="namedview13"
     pagecolor="#000000"
     bordercolor="#666666"
     borderopacity="1.0"
     inkscape:pageshadow="2"
     inkscape:pageopacity="0"
     inkscape:pagecheckerboard="0"
     showgrid="false"
     inkscape:zoom="31.5"
     inkscape:cx="12"
     inkscape:cy="12"
     inkscape:window-width="1880"
     inkscape:window-height="966"
     inkscape:window-x="0"
     inkscape:window-y="29"
     inkscape:window-maximized="1"
     inkscape:current-layer="g9" />
  <defs
     id="defs3">
    <style
       id="current-color-scheme"
       type="text/css">
   .ColorScheme-Text { color:#eeeeec; } .ColorScheme-Highlight { color:#367bf0; } .ColorScheme-NeutralText { color:#ffcc44; } .ColorScheme-PositiveText { color:#3db47e; } .ColorScheme-NegativeText { color:#dd4747; }
  </style>
  </defs>
  <g
     id="g9">
    <path
       style="fill:currentColor"
       class="ColorScheme-Text"
       d="M 7.5085981,5.0004733 C 7.1489137,5.0001918 6.8163031,5.18985 6.6356835,5.4982188 L 3.1362503,11.497381 c -0.1816671,0.310332 -0.1816671,0.693379 0,1.003711 L 6.6356835,18.4999 C 6.8162125,18.808405 7.1488401,19.000208 7.5085981,19 h 6.9868599 c 0.359125,-4.18e-4 0.690932,-0.192137 0.871143,-0.5001 l 3.497327,-5.998808 c 0.181667,-0.310332 0.181667,-0.693379 0,-1.003711 L 15.366601,5.4982188 C 15.186299,5.1903924 14.85451,5.0008176 14.495458,5.0004733 Z m 6.1142639,1.9996264 c 0.257517,-1.037e-4 0.497396,0.1235124 0.636618,0.3280657 v 0.00195 l -2.926138,2.9242316 v 0 l -0.642093,0.02036 -2.94639,-2.9467095 C 7.877544,7.1325547 8.1025553,7.0102056 8.3481762,6.999941 Z M 6.6708268,9.0817744 7.0237394,9.434687 9.3097001,11.720648 v 0 l 0.00782,0.549247 -2.3335918,2.333874 -0.5290822,-0.03962 v 0 L 5.1046087,12.358747 c -0.1369379,-0.222096 -0.1369379,-0.496535 0,-0.718631 L 6.4361641,9.4651182 7.0237394,9.434687 Z m 8.6625442,0 0.174473,0.2849898 1.391636,2.2731388 c 0.136938,0.222096 0.136938,0.496535 0,0.718631 l -1.566216,2.558519 -2.594076,-2.594392 v 0 l 0.03948,-0.686147 2.238088,-2.2380879 0.49109,-0.031662 z m -4.666097,4.6658316 0.658044,-0.01134 2.932143,2.932143 c -0.138354,0.20474 -0.377422,0.329058 -0.634635,0.330018 H 8.3814419 c -0.2575141,1.07e-4 -0.497393,-0.123504 -0.6366183,-0.328052 l 2.9224504,-2.922769 z"
       id="path5"
       sodipodi:nodetypes="ccccccccccccccccccccccccccccccccccccccccccccccccccccccc" />
    <path
       style="fill:currentColor"
       class="ColorScheme-Highlight"
       d="M 17.54,5.0004988 C 17.109553,5 16.862066,5.4652387 17.080431,5.8030833 l 0.951789,1.4645661 0.947077,1.4645662 c 0.232394,0.3570455 0.811247,0.3570455 1.043641,0 L 20.974409,7.2677203 21.921272,5.803225 C 22.149099,5.4460577 21.860852,5.0019147 21.399646,5 Z"
       id="path7" />
  </g>
</svg>
