<?xml version="1.0" encoding="UTF-8" standalone="no"?>
<svg
   width="24"
   height="24"
   version="1.1"
   id="svg11"
   sodipodi:docname="hipchat4-attention.svg"
   inkscape:version="1.1.2 (0a00cf5339, 2022-02-04)"
   xmlns:inkscape="http://www.inkscape.org/namespaces/inkscape"
   xmlns:sodipodi="http://sodipodi.sourceforge.net/DTD/sodipodi-0.dtd"
   xmlns="http://www.w3.org/2000/svg"
   xmlns:svg="http://www.w3.org/2000/svg">
  <sodipodi:namedview
     id="namedview13"
     pagecolor="#2c2c2c"
     bordercolor="#666666"
     borderopacity="1.0"
     inkscape:pageshadow="2"
     inkscape:pageopacity="0"
     inkscape:pagecheckerboard="0"
     showgrid="false"
     inkscape:zoom="31.5"
     inkscape:cx="12"
     inkscape:cy="12"
     inkscape:window-width="1880"
     inkscape:window-height="966"
     inkscape:window-x="0"
     inkscape:window-y="29"
     inkscape:window-maximized="1"
     inkscape:current-layer="g9" />
  <defs
     id="defs3">
    <style
       id="current-color-scheme"
       type="text/css">
   .ColorScheme-Text { color:#eeeeec; } .ColorScheme-Highlight { color:#367bf0; } .ColorScheme-NeutralText { color:#ffcc44; } .ColorScheme-PositiveText { color:#3db47e; } .ColorScheme-NegativeText { color:#dd4747; }
  </style>
  </defs>
  <g
     transform="translate(1 1.0027)"
     id="g9">
    <path
       style="fill:currentColor"
       class="ColorScheme-Text"
       d="m 11,2.9434 c -4.3678,0 -8,3.3281 -8,7.5 0,4.1719 3.6322,7.5 8,7.5 h 0.002 c 0.61236,-0.0013 1.2131,-0.11847 1.8086,-0.25 1.2282,0.80849 2.6642,1.5391 4.3672,1.2324 0.780494,-0.141957 1.092933,-1.092601 0.54883,-1.6699 -0.583,-0.615 -0.891,-0.999 -0.909,-1.819 1.331,-1.368 2.18,-3.11 2.182,-4.993 0,-4.1715 -3.632,-7.4996 -8,-7.4996 z m 0,2 c 3.3634,0 5.9988,2.4911 6,5.498 -0.0015,1.4994 -0.66704,2.9383 -1.873,3.9863 -0.204615,0.178289 -0.327988,0.432078 -0.3418,0.70312 -0.01525,0.296622 0.01987,0.559715 0.08034,0.80519 0.06772,0.274884 -0.607441,0.147907 -0.511255,0.400943 -0.254892,-0.103789 0.262985,0.149408 0,0 -0.252376,-0.14338 -0.510455,-0.307792 -0.778031,-0.493283 -0.244992,-0.169843 -0.552979,-0.221541 -0.84,-0.141 -0.562,0.158 -1.147,0.239 -1.736,0.24 -3.3642,0 -6,-2.4922 -6,-5.5 -2e-7,-3.0078 2.6358,-5.5 6,-5.5 z m 3.0156,6.8418 c -0.168978,-0.0014 -0.333462,0.05439 -0.4668,0.1582 -0.90503,0.68212 -1.7402,0.98475 -2.5508,0.98633 -0.8106,0.0016 -1.6398,-0.29663 -2.543,-0.98438 -0.7955997,-0.606773 -1.7057597,0.586627 -0.91016,1.1934 1.0968,0.83525 2.2676,1.2933 3.457,1.291 1.1894,-0.0023 2.3543,-0.46379 3.4492,-1.2891 0.582601,-0.426057 0.286184,-1.348553 -0.43555,-1.3555 z"
       id="path5"
       sodipodi:nodetypes="cssscccccccccccscscccscccccccsccc" />
    <circle
       style="fill:currentColor"
       class="ColorScheme-Highlight"
       cx="11"
       cy="9"
       r="2"
       id="circle7" />
  </g>
</svg>
