<?xml version="1.0" encoding="UTF-8" standalone="no"?>
<svg
   width="24"
   height="24"
   version="1.1"
   id="svg11"
   sodipodi:docname="indicator-sensors-case.svg"
   inkscape:version="1.1.2 (0a00cf5339, 2022-02-04)"
   xmlns:inkscape="http://www.inkscape.org/namespaces/inkscape"
   xmlns:sodipodi="http://sodipodi.sourceforge.net/DTD/sodipodi-0.dtd"
   xmlns="http://www.w3.org/2000/svg"
   xmlns:svg="http://www.w3.org/2000/svg">
  <sodipodi:namedview
     id="namedview13"
     pagecolor="#ffffff"
     bordercolor="#666666"
     borderopacity="1.0"
     inkscape:pageshadow="2"
     inkscape:pageopacity="0.0"
     inkscape:pagecheckerboard="0"
     showgrid="false"
     inkscape:zoom="31.5"
     inkscape:cx="12"
     inkscape:cy="12"
     inkscape:window-width="1880"
     inkscape:window-height="966"
     inkscape:window-x="0"
     inkscape:window-y="29"
     inkscape:window-maximized="1"
     inkscape:current-layer="g9" />
  <defs
     id="defs3">
    <style
       id="current-color-scheme"
       type="text/css">
   .ColorScheme-Text { color:#eeeeec; } .ColorScheme-Highlight { color:#367bf0; } .ColorScheme-NeutralText { color:#ffcc44; } .ColorScheme-PositiveText { color:#3db47e; } .ColorScheme-NegativeText { color:#dd4747; }
  </style>
  </defs>
  <g
     transform="translate(3,-1029.4)"
     id="g9">
    <path
       style="fill:currentColor"
       class="ColorScheme-Text"
       d="m3 6v12c0 0.554 0.446 1 1 1h10c0.554 0 1-0.446 1-1v-12h-12zm2.5 2h7a0.50005 0.50005 0 0 1 0.5 0.5v2 2a0.50005 0.50005 0 0 1 -0.5 0.5h-7a0.50005 0.50005 0 0 1 -0.5 -0.5v-2-2a0.50005 0.50005 0 0 1 0.5 -0.5zm0.5 1v1h6v-1h-6zm0 2v1h6v-1h-6zm0 3h1v1h1v-1h1v1h1v-1h1v1h1v-1h1v1h-1v1h1v1h-1v-1h-1v1h-1v-1h-1v1h-1v-1h-1v1h-1v-1h-1v-1h1v-1zm0 1v1h1v-1h-1zm2 1h1v-1h-1v1zm2 0h1v-1h-1v1z"
       transform="translate(0,1030.4)"
       id="path5" />
    <path
       fill-rule="evenodd"
       style="fill:currentColor"
       class="ColorScheme-Text"
       d="M 3.4190383,1035.4 3.3329192,1035.0671 5,1033.4 h 8 l 1.720975,1.721 -0.158987,0.279 v 0 z"
       id="path7"
       sodipodi:nodetypes="ccccccccc" />
  </g>
</svg>
