<?xml version="1.0" encoding="UTF-8" standalone="no"?>
<svg
   width="24"
   height="24"
   version="1.1"
   id="svg9"
   sodipodi:docname="indicator-notification-unread-dnd.svg"
   inkscape:version="1.1.2 (0a00cf5339, 2022-02-04)"
   xmlns:inkscape="http://www.inkscape.org/namespaces/inkscape"
   xmlns:sodipodi="http://sodipodi.sourceforge.net/DTD/sodipodi-0.dtd"
   xmlns="http://www.w3.org/2000/svg"
   xmlns:svg="http://www.w3.org/2000/svg">
  <sodipodi:namedview
     id="namedview11"
     pagecolor="#ffffff"
     bordercolor="#666666"
     borderopacity="1.0"
     inkscape:pageshadow="2"
     inkscape:pageopacity="0.0"
     inkscape:pagecheckerboard="0"
     showgrid="false"
     inkscape:zoom="31.416667"
     inkscape:cx="11.984085"
     inkscape:cy="12"
     inkscape:window-width="1880"
     inkscape:window-height="966"
     inkscape:window-x="0"
     inkscape:window-y="29"
     inkscape:window-maximized="1"
     inkscape:current-layer="svg9" />
  <defs
     id="defs3">
    <style
       id="current-color-scheme"
       type="text/css">
   .ColorScheme-Text { color:#eeeeec; } .ColorScheme-Highlight { color:#367bf0; } .ColorScheme-NeutralText { color:#ffcc44; } .ColorScheme-PositiveText { color:#3db47e; } .ColorScheme-NegativeText { color:#dd4747; }
  </style>
  </defs>
  <path
     style="fill:currentColor"
     class="ColorScheme-Text"
     d="m 17.435547,3.9999015 c -0.05382,0.00219 -0.107384,0.00872 -0.160156,0.019531 L 6.9765625,6.1893546 c -0.00982,0.00311 -0.019582,0.00636 -0.029297,0.00977 C 5.5107246,6.5455904 4.4983223,7.6302216 3.8164062,8.8768546 3.1344902,10.123388 2.7241851,11.58621 2.4550781,13.013574 2.2780766,13.952338 2.1822107,14.838765 2.1132812,15.669824 2.6469191,15.237055 3.3129354,15.000571 4,14.999902 c 0.060632,0.0014 0.1212067,0.0047 0.1816406,0.0098 C 4.4580086,12.390134 5.1610323,8.9959953 6.9726562,8.9959953 9.9200092,8.9959953 10,17.99209 10,17.99209 H 7 c 3.4e-6,0.0026 3.4e-6,0.0052 0,0.0078 4.588e-4,0.711849 -0.2522232,1.400667 -0.7128906,1.943359 l 5.7910156,0.05664 c 0.07414,0.001 0.148159,-0.0062 0.220703,-0.02148 l 9.892578,-2.128907 c 0.443498,-0.09516 0.767389,-0.476775 0.789063,-0.929687 0,0 0.147573,-2.973065 -0.369141,-6.041016 C 22.352971,9.3448705 21.93849,7.7744239 21.177734,6.4745109 20.416979,5.1745979 19.181579,4.0985799 17.537109,4.007714 c -0.03383,-0.00172 -0.06773,-0.00172 -0.101562,0 z m 0.05078,2.0195312 c 0.842493,0.069974 1.423078,0.529425 1.964844,1.4550782 0.556625,0.9511437 0.9521,2.3308396 1.1875,3.7285161 0.407935,2.421992 0.315148,4.256762 0.296875,4.865234 L 12.27539,17.92959 C 12.269119,15.587051 12.005034,10.165254 9.5883409,8.1549359 9.423301,8.017648 9.7612971,7.7882545 9.5755753,7.6848544 v 0 z M 18.699219,10.995996 14.082031,12.175683 14,12.288964 l 0.06641,1.388672 0.140625,0.03906 3.394531,-0.900391 0.07617,1.16211 0.09766,0.01563 1.15039,-0.396485 L 19,13.533105 18.789062,11.076074 Z M 7,11.994043 c -0.5524311,0 -1.000207,0.447776 -1,1 2.97e-4,0.276097 0.1148174,0.539777 0.3164062,0.728515 l -0.6425781,1.789063 c 0.2016929,0.13663 0.3859928,0.297318 0.5488281,0.478515 L 8.5,15.978418 7.7011719,13.706933 C 7.8923759,13.518969 8.0000442,13.262114 8,12.994043 c 2.07e-4,-0.552224 -0.4475689,-1 -1,-1 z"
     id="path5"
     sodipodi:nodetypes="cccccccccscccccccccsccccccccscccccccccccccccscccccccs" />
  <circle
     style="fill:currentColor"
     class="ColorScheme-Highlight"
     cx="4"
     cy="18"
     r="2"
     id="circle7" />
</svg>
