<?xml version="1.0" encoding="UTF-8" standalone="no"?>
<svg
   width="24"
   height="24"
   version="1"
   id="svg455591"
   sodipodi:docname="kazam-paused.svg"
   inkscape:version="1.1.2 (0a00cf5339, 2022-02-04)"
   xmlns:inkscape="http://www.inkscape.org/namespaces/inkscape"
   xmlns:sodipodi="http://sodipodi.sourceforge.net/DTD/sodipodi-0.dtd"
   xmlns="http://www.w3.org/2000/svg"
   xmlns:svg="http://www.w3.org/2000/svg">
  <sodipodi:namedview
     id="namedview455593"
     pagecolor="#000000"
     bordercolor="#666666"
     borderopacity="1.0"
     inkscape:pageshadow="2"
     inkscape:pageopacity="0"
     inkscape:pagecheckerboard="0"
     showgrid="false"
     inkscape:zoom="34.458333"
     inkscape:cx="12.01451"
     inkscape:cy="11.98549"
     inkscape:window-width="1880"
     inkscape:window-height="966"
     inkscape:window-x="0"
     inkscape:window-y="29"
     inkscape:window-maximized="1"
     inkscape:current-layer="svg455591" />
  <defs
     id="defs455587">
    <style
       id="current-color-scheme"
       type="text/css">
   .ColorScheme-Text { color:#eeeeec; } .ColorScheme-Highlight { color:#367bf0; } .ColorScheme-NeutralText { color:#ffcc44; } .ColorScheme-PositiveText { color:#3db47e; } .ColorScheme-NegativeText { color:#dd4747; }
  </style>
  </defs>
  <path
     style="fill:currentColor"
     class="ColorScheme-Text"
     d="M 4.1816406,6 C 3.5269406,6 3,6.5344188 3,7.1992188 V 16.800781 C 3,17.465781 3.5269406,18 4.1816406,18 H 15.818359 C 16.473359,18 17,17.465781 17,16.800781 v -2.525519 0 l 0.252416,-0.174296 4.351891,1.740757 v 0 L 22,15.56645 V 8.4786981 L 21.567712,8.1729152 v 0 l -4.304436,1.7217742 v 0 L 17,9.6616001 V 7.1992188 C 17,6.5344187 16.473359,6 15.818359,6 Z M 6,9.4672852 6.5064339,9 H 8.5093961 L 9,9.4672852 v 0 5.0496898 L 8.5385336,15 v 0 H 6.4198558 v 0 L 6,14.545615 Z m 5,0 L 11.439748,9 h 2.08954 V 9 L 14,9.4091263 v 5.0787697 0 L 13.645836,15 H 11.498021 L 11,14.632852 v 0 z"
     id="path455589"
     sodipodi:nodetypes="ssssssccccccccccccssscccccccccccccccccccccccc" />
</svg>
