<?xml version="1.0" encoding="UTF-8" standalone="no"?>
<svg
   width="24"
   height="24"
   version="1.1"
   id="svg1465443"
   sodipodi:docname="keybase-error.svg"
   inkscape:version="1.1.2 (0a00cf5339, 2022-02-04)"
   xmlns:inkscape="http://www.inkscape.org/namespaces/inkscape"
   xmlns:sodipodi="http://sodipodi.sourceforge.net/DTD/sodipodi-0.dtd"
   xmlns="http://www.w3.org/2000/svg"
   xmlns:svg="http://www.w3.org/2000/svg">
  <sodipodi:namedview
     id="namedview1465445"
     pagecolor="#000000"
     bordercolor="#666666"
     borderopacity="1.0"
     inkscape:pageshadow="2"
     inkscape:pageopacity="0"
     inkscape:pagecheckerboard="0"
     showgrid="false"
     inkscape:zoom="34.458333"
     inkscape:cx="12.01451"
     inkscape:cy="12"
     inkscape:window-width="1920"
     inkscape:window-height="1051"
     inkscape:window-x="0"
     inkscape:window-y="29"
     inkscape:window-maximized="1"
     inkscape:current-layer="svg1465443" />
  <defs
     id="defs1465437">
    <style
       id="current-color-scheme"
       type="text/css">
   .ColorScheme-Text { color:#eeeeec; } .ColorScheme-Highlight { color:#367bf0; } .ColorScheme-NeutralText { color:#ffcc44; } .ColorScheme-PositiveText { color:#3db47e; } .ColorScheme-NegativeText { color:#dd4747; }
  </style>
  </defs>
  <path
     style="fill:currentColor"
     class="ColorScheme-Text"
     d="m 10.33749,4 c -0.01219,-0.013495 -0.07609,0.079182 -0.157139,0.2095672 -0.124595,0.2004401 -0.3038814,0.5218876 -0.4776264,0.8626984 -0.4198008,0.8234632 -0.6207703,1.4559473 -0.6894531,2.1875 -0.016969,0.1807744 -0.013329,0.3586758 -0.00195,0.5332032 -0.00708,0.078624 -0.010999,0.157397 -0.011719,0.2363281 0,0.3216121 0.06468,0.625957 0.1601562,0.9160156 C 7.8946984,9.509545 6.8233514,10.430381 6.08749,11.589844 c -0.1810603,0.236758 -0.3410751,0.483545 -0.4570312,0.748047 -0.1822119,0.415634 -0.3173554,0.845821 -0.4199219,1.310547 -0.068248,0.275755 -0.1256893,0.554232 -0.1601563,0.841796 -0.00307,0.0256 0.00501,0.03097 0.017578,0.02734 -0.013155,0.110763 -0.030783,0.216029 -0.041016,0.332031 -0.032804,0.371893 -0.036744,0.525393 -0.011718,0.525395 l 3.3919559,-3.724501 v 0 c -0.073684,0.162238 0.4079663,-0.140603 0.280217,0.29196 -0.2235932,0.757092 -0.4992049,1.774278 -0.7190479,2.512619 0.00607,0.0061 0.1375376,-0.04757 0.2929688,-0.11914 0.9549601,-0.439703 2.1451306,-1.206465 3.1972656,-1.332032 0.36284,-0.0433 1.621735,-0.04748 2,-0.0078 0.37305,0.03909 0.729972,0.199432 1.097657,0.380859 C 15.485087,12.493524 16.717743,12.000626 17.9996,12 c 0.04691,0.0019 0.09379,0.0045 0.140625,0.0078 -0.01597,-0.05208 -0.04136,-0.111494 -0.08594,-0.189453 -0.09589,-0.254803 -0.237999,-0.510365 -0.451172,-0.798828 C 16.812531,10.150787 15.884994,9.42878 14.837491,8.9492188 14.933832,8.6579794 14.9996,8.3524242 14.9996,8.0292969 14.999574,7.9537899 14.9975,7.8780222 14.9918,7.8027344 14.9944,7.7274754 15.0016,7.6521806 14.9977,7.578125 14.94442,6.5609826 14.349928,5.8631388 13.452725,5.4042969 12.977718,5.1613714 12.251068,5.0478117 11.776944,5.046875 11.185451,5.045709 10.73595,4.537145 10.446865,4.1210938 c -0.04628,-0.066601 0,0 -0.109375,-0.1210938 z m 3.017579,9.990234 c -0.142321,-0.01491 -1.677283,-0.0061 -1.777344,0.0059 -0.664602,0.07932 -1.8290217,0.755645 -2.8984379,1.248047 -0.088747,0.04086 -0.1700516,0.07725 -0.2441406,0.107421 -0.037045,0.01508 -0.068655,0.0278 -0.1191407,0.04492 -0.025243,0.0086 -0.0507,0.01801 -0.1171874,0.0332 -0.033244,0.0076 -0.072608,0.01784 -0.171875,0.02344 -0.049633,0.0028 -0.2280842,-0.01164 -0.2285157,-0.01172 C 7.798212,15.441294 7.5778803,15.37507 7.5777246,15.375 7.5775689,15.374934 7.2594601,15.160252 7.2593652,15.160156 7.1297034,15.029833 6.7117608,15.224901 6.6689825,15.04611 v 0 L 5.755459,16.048828 C 5.5831353,16.238164 5.3447635,16.354204 5.0894434,16.373047 5.2916058,17.722159 5.8835708,18.9828 6.7925684,20 h 7.2148436 c -0.651899,-0.864502 -1.005559,-1.917257 -1.007812,-3 3.68e-4,-1.000863 0.3011,-1.978583 0.863281,-2.806641 -0.212687,-0.105355 -0.393279,-0.191123 -0.507812,-0.203125 z M 8.9995996,16 c 0.5522847,0 1,0.447715 1,1 0,0.552285 -0.4477153,1 -1,1 -0.5522847,0 -1,-0.447715 -1,-1 0,-0.552285 0.4477153,-1 1,-1 z"
     id="path1465439"
     sodipodi:nodetypes="ssscccccscscscccsccsccccccccccscssccscccsccccccccccccsssss" />
  <path
     style="fill:currentColor"
     class="ColorScheme-NegativeText"
     d="m 17.9996,13 c -2.2091,0 -4,1.7909 -4,4 0,2.2091 1.7909,4 4,4 2.2091,0 4,-1.7909 4,-4 0,-2.2091 -1.7909,-4 -4,-4 z m -1,1 h 2 v 4 h -2 z m 0,5 h 2 v 1 h -2 z"
     id="path1465441" />
</svg>
