<?xml version="1.0" encoding="UTF-8" standalone="no"?>
<svg
   width="24"
   height="24"
   version="1.1"
   id="svg1426939"
   sodipodi:docname="keybase-tray.svg"
   inkscape:version="1.1.2 (0a00cf5339, 2022-02-04)"
   xmlns:inkscape="http://www.inkscape.org/namespaces/inkscape"
   xmlns:sodipodi="http://sodipodi.sourceforge.net/DTD/sodipodi-0.dtd"
   xmlns="http://www.w3.org/2000/svg"
   xmlns:svg="http://www.w3.org/2000/svg">
  <sodipodi:namedview
     id="namedview1426941"
     pagecolor="#000000"
     bordercolor="#666666"
     borderopacity="1.0"
     inkscape:pageshadow="2"
     inkscape:pageopacity="0"
     inkscape:pagecheckerboard="0"
     showgrid="false"
     inkscape:zoom="34.458333"
     inkscape:cx="12.01451"
     inkscape:cy="12"
     inkscape:window-width="1920"
     inkscape:window-height="1051"
     inkscape:window-x="0"
     inkscape:window-y="29"
     inkscape:window-maximized="1"
     inkscape:current-layer="svg1426939" />
  <defs
     id="defs1426935">
    <style
       id="current-color-scheme"
       type="text/css">
   .ColorScheme-Text { color:#eeeeec; } .ColorScheme-Highlight { color:#367bf0; } .ColorScheme-NeutralText { color:#ffcc44; } .ColorScheme-PositiveText { color:#3db47e; } .ColorScheme-NegativeText { color:#dd4747; }
  </style>
  </defs>
  <path
     style="fill:currentColor"
     class="ColorScheme-Text"
     d="M 10.337491,4 10.173554,4.220534 C 10.049289,4.4216129 9.8733357,4.7376038 9.7027254,5.0722656 9.2829246,5.8957288 9.0819551,6.5282129 9.0132723,7.2597656 8.9963033,7.44054 8.9999433,7.6184414 9.0113223,7.7929688 c -0.00708,0.078624 -0.010999,0.157397 -0.011719,0.2363281 0,0.3216121 0.06468,0.625957 0.1601562,0.9160156 C 7.894699,9.509545 6.8233524,10.430383 6.087491,11.589844 c -0.1810603,0.236758 -0.3410751,0.483545 -0.4570312,0.748047 -0.1822119,0.415634 -0.3173554,0.845822 -0.4199219,1.310547 -0.068248,0.275755 -0.1256893,0.554232 -0.1601563,0.841796 -0.00307,0.0256 0.00501,0.03097 0.017578,0.02734 -0.013155,0.110763 -0.030783,0.216029 -0.041016,0.332031 -0.032805,0.371885 -0.036745,0.525389 -0.011719,0.525391 L 8.438824,11.615754 v 0 l 0.3012033,0.253914 -0.7716769,2.58541 c 0.00607,0.0061 0.1375377,-0.04757 0.2929688,-0.11914 0.9549601,-0.439701 2.1451288,-1.206465 3.1972648,-1.332032 0.36284,-0.0433 1.621735,-0.04746 2,-0.0078 0.766252,0.08029 1.465805,0.671536 2.326172,0.908203 0.381224,0.104871 0.568629,0.13047 0.88086,0.119141 0.31246,-0.01132 0.495749,-0.05307 0.726562,-0.164063 0.575956,-0.276959 0.878965,-0.878336 0.794922,-1.527344 -0.0079,-0.06117 -0.02471,-0.120321 -0.03711,-0.179687 0.02469,-0.06112 0.0017,-0.163651 -0.0957,-0.333985 C 17.9584,11.563568 17.816291,11.308006 17.603118,11.019543 16.812525,10.150762 15.884994,9.42878 14.837491,8.9492188 14.933832,8.6579794 14.9996,8.3524242 14.9996,8.0292969 14.999574,7.9537899 14.9975,7.8780222 14.9918,7.8027344 14.9944,7.7274754 15.0016,7.6521806 14.9977,7.578125 14.944526,6.5609826 14.349928,5.8631388 13.452725,5.4042969 12.977718,5.1613714 12.251068,5.0478117 11.776944,5.046875 11.185451,5.045709 10.735951,4.5371451 10.446866,4.1210938 10.400591,4.0544933 10.173554,4.220534 10.337491,4 Z m 8.550888,10.109466 c -0.05248,0.08739 -0.166801,-0.109583 -0.229363,-0.02893 -0.218392,0.281546 -0.497588,0.517822 -0.833244,0.679229 -0.328884,0.158151 -0.735822,0.249642 -1.123047,0.263672 -0.381272,0.01383 -0.761686,-0.03824 -1.183594,-0.154297 -1.137368,-0.312864 -1.841121,-0.845068 -2.164062,-0.878907 -0.142321,-0.01491 -1.677283,-0.0061 -1.777344,0.0059 -0.664601,0.07932 -1.8290209,0.755645 -2.8984371,1.248047 -0.088747,0.04086 -0.1700516,0.07725 -0.2441406,0.107421 -0.037045,0.01508 -0.068655,0.0278 -0.1191407,0.04492 -0.025243,0.0086 -0.0507,0.01801 -0.1171874,0.0332 -0.033244,0.0076 -0.072608,0.01784 -0.171875,0.02344 -0.049633,0.0028 -0.2280842,-0.01164 -0.2285157,-0.01172 -2.157e-4,-4e-5 -0.2205474,-0.06634 -0.2207031,-0.06641 -1.557e-4,-6.5e-5 -0.3182645,-0.214747 -0.3183594,-0.214843 -0.1296669,-0.130332 -0.436451,-0.05729 -0.4792239,-0.23609 v 0 l -1.0246823,1.12473 C 5.5831361,16.238164 5.3447643,16.354204 5.0894442,16.373047 5.2916066,17.722159 5.8835716,18.9828 6.7925692,20 H 17.208584 c 1.150838,-1.281956 1.788524,-2.943276 1.791016,-4.666016 -0.0011,-0.41083 -0.03833,-0.82058 -0.111221,-1.224518 -0.01699,-0.09412 0.02084,0.09342 0,0 z M 8.9996004,16 c 0.5522847,0 1,0.447715 1,1 0,0.552285 -0.4477153,1 -1,1 -0.5522847,0 -1,-0.447715 -1,-1 0,-0.552285 0.4477153,-1 1,-1 z M 14.9996,16 c 0.552285,0 1,0.447715 1,1 0,0.552285 -0.447715,1 -1,1 -0.552285,0 -1,-0.447715 -1,-1 0,-0.552285 0.447715,-1 1,-1 z"
     id="path1426937"
     sodipodi:nodetypes="ssscccccscscsccccccsccccccccccccscsscsscsscscccsscccccccccscssssssssss" />
</svg>
