<?xml version="1.0" encoding="UTF-8" standalone="no"?>
<svg
   width="24"
   height="24"
   version="1"
   id="svg250473"
   sodipodi:docname="kotatogram-panel.svg"
   inkscape:version="1.1.2 (0a00cf5339, 2022-02-04)"
   xmlns:inkscape="http://www.inkscape.org/namespaces/inkscape"
   xmlns:sodipodi="http://sodipodi.sourceforge.net/DTD/sodipodi-0.dtd"
   xmlns="http://www.w3.org/2000/svg"
   xmlns:svg="http://www.w3.org/2000/svg">
  <sodipodi:namedview
     id="namedview250475"
     pagecolor="#000000"
     bordercolor="#666666"
     borderopacity="1.0"
     inkscape:pageshadow="2"
     inkscape:pageopacity="0"
     inkscape:pagecheckerboard="0"
     showgrid="false"
     inkscape:zoom="34.458333"
     inkscape:cx="12.01451"
     inkscape:cy="12"
     inkscape:window-width="1920"
     inkscape:window-height="1051"
     inkscape:window-x="0"
     inkscape:window-y="29"
     inkscape:window-maximized="1"
     inkscape:current-layer="svg250473" />
  <defs
     id="defs250469">
    <style
       id="current-color-scheme"
       type="text/css">
   .ColorScheme-Text { color:#eeeeec; } .ColorScheme-Highlight { color:#367bf0; } .ColorScheme-NeutralText { color:#ffcc44; } .ColorScheme-PositiveText { color:#3db47e; } .ColorScheme-NegativeText { color:#dd4747; }
  </style>
  </defs>
  <path
     style="fill:currentColor"
     class="ColorScheme-Text"
     d="m 12,4 c -4.418278,0 -8,3.581722 -8,8 0,4.418278 3.581722,8 8,8 4.418278,0 8,-3.581722 8,-8 0,-4.418278 -3.581722,-8 -8,-8 z m 0,5 0.576172,1 c 0,0 1.423828,3 3.423828,3 1.239451,0 2.094843,-0.76812 2.566174,-1.352312 0.289217,-0.358471 0,0 0,0 0,0 0.433826,-0.252906 0.340808,0.28861 C 18.703913,13.118485 18.057525,15 16,15 c -2,0 -4,-1 -4,-1 0,0 -2,1 -4,1 -2.053563,0 -2.701419,-1.874276 -2.905804,-3.056865 -0.094196,-0.545027 0,0 0,0 0,0 0.061514,-0.631715 0.3729338,-0.254649 C 5.9449119,12.266984 6.789202,13 8,13 c 2,0 3.423828,-3 3.423828,-3 z"
     id="path250471"
     sodipodi:nodetypes="sssssccsscsscsscsscc" />
</svg>
