<?xml version="1.0" encoding="UTF-8" standalone="no"?>
<svg
   width="24"
   height="24"
   version="1.1"
   id="svg1308809"
   sodipodi:docname="mntray-regular.svg"
   inkscape:version="1.1.2 (0a00cf5339, 2022-02-04)"
   xmlns:inkscape="http://www.inkscape.org/namespaces/inkscape"
   xmlns:sodipodi="http://sodipodi.sourceforge.net/DTD/sodipodi-0.dtd"
   xmlns="http://www.w3.org/2000/svg"
   xmlns:svg="http://www.w3.org/2000/svg">
  <sodipodi:namedview
     id="namedview1308811"
     pagecolor="#000000"
     bordercolor="#666666"
     borderopacity="1.0"
     inkscape:pageshadow="2"
     inkscape:pageopacity="0"
     inkscape:pagecheckerboard="0"
     showgrid="false"
     inkscape:zoom="34.458333"
     inkscape:cx="12.01451"
     inkscape:cy="12"
     inkscape:window-width="1920"
     inkscape:window-height="1051"
     inkscape:window-x="0"
     inkscape:window-y="29"
     inkscape:window-maximized="1"
     inkscape:current-layer="svg1308809" />
  <defs
     id="defs1308805">
    <style
       id="current-color-scheme"
       type="text/css">
   .ColorScheme-Text { color:#eeeeec; } .ColorScheme-Highlight { color:#367bf0; } .ColorScheme-NeutralText { color:#ffcc44; } .ColorScheme-PositiveText { color:#3db47e; } .ColorScheme-NegativeText { color:#dd4747; }
  </style>
  </defs>
  <path
     style="fill:currentColor"
     class="ColorScheme-Text"
     d="m 4.4397294,4 c -0.2601391,0 -0.46875,0.2086109 -0.46875,0.46875 v 7.060547 c 0,0.26014 0.2086109,0.470703 0.46875,0.470703 h 1.53125 V 6 h 3 V 4 Z m 5.53125,0 v 8 h 1.5292966 c 0.260139,0 0.470703,-0.210563 0.470703,-0.470703 V 4.46875 C 11.970979,4.2086109 11.760415,4 11.500276,4 Z m -3,3 v 5 h 2 V 7 Z m 5.9999996,0 v 4.529297 C 12.970979,12.326138 12.297118,13 11.500276,13 h -1.5292966 -1 -2 -1 v 4.263672 c 0,0.450125 0.3464796,0.731696 0.7773438,0.736328 h 7.1992178 l 0.960811,1.234467 1.13933,0.06636 v 0 L 17.05887,18 h 2.134765 c 0.430889,0 0.777344,-0.286203 0.777344,-0.736328 V 7.8125 C 19.970979,7.362375 19.624524,7 19.193635,7 Z"
     id="path1308807"
     sodipodi:nodetypes="ssssccccsccsssscccccccssccccsccccccssssc" />
</svg>
