<?xml version="1.0" encoding="UTF-8" standalone="no"?>
<svg
   width="24"
   height="24"
   version="1.1"
   id="svg9"
   sodipodi:docname="obs-tray-active.svg"
   inkscape:version="1.1.2 (0a00cf5339, 2022-02-04)"
   xmlns:inkscape="http://www.inkscape.org/namespaces/inkscape"
   xmlns:sodipodi="http://sodipodi.sourceforge.net/DTD/sodipodi-0.dtd"
   xmlns="http://www.w3.org/2000/svg"
   xmlns:svg="http://www.w3.org/2000/svg">
  <sodipodi:namedview
     id="namedview11"
     pagecolor="#ffffff"
     bordercolor="#666666"
     borderopacity="1.0"
     inkscape:pageshadow="2"
     inkscape:pageopacity="0.0"
     inkscape:pagecheckerboard="0"
     showgrid="false"
     inkscape:zoom="34.458333"
     inkscape:cx="11.941959"
     inkscape:cy="16.614268"
     inkscape:window-width="585"
     inkscape:window-height="817"
     inkscape:window-x="591"
     inkscape:window-y="31"
     inkscape:window-maximized="1"
     inkscape:current-layer="svg9" />
  <defs
     id="defs3">
    <style
       id="current-color-scheme"
       type="text/css">
   .ColorScheme-Text { color:#eeeeec; } .ColorScheme-Highlight { color:#367bf0; } .ColorScheme-NeutralText { color:#ffcc44; } .ColorScheme-PositiveText { color:#3db47e; } .ColorScheme-NegativeText { color:#dd4747; }
  </style>
  </defs>
  <path
     style="fill:currentColor"
     class="ColorScheme-Text"
     d="M 12 4 A 8 8 0 0 0 4 12 A 8 8 0 0 0 9 19.412 L 9 16.461 C 8.8458 16.477 8.6917 16.482 8.541 16.465 C 8.4126 16.45 8.3179 16.443 8.2305 16.443 C 8.1868 16.444 8.1556 16.437 8.0625 16.465 C 8.0515 16.468 8.0334 16.477 8.0195 16.482 A 6 6 0 0 1 6 12 A 6 6 0 0 1 8.2637 7.3047 C 8.0271 7.8241 7.8699 8.4921 7.8711 9.041 C 7.8723 9.5536 7.997 10.16 8.1914 10.646 C 8.2428 10.775 8.3046 10.947 8.4902 11.062 C 8.6758 11.179 8.8098 11.172 8.9961 11.193 C 9.158 11.212 9.4927 11.287 9.6406 11.338 C 11.13 11.85 11.83 13.556 11.131 14.984 C 11.128 14.99 11.124 14.995 11.121 15 L 12.805 15 L 12.713 14.727 C 12.174 13.096 13.124 11.507 14.795 11.225 C 14.942 11.2 15.089 11.19 15.238 11.193 C 16.277 11.218 17.301 11.912 17.676 12.91 C 17.706 12.99 17.727 13.05 17.746 13.098 C 17.756 13.122 17.766 13.142 17.777 13.166 C 17.784 13.179 17.788 13.19 17.799 13.209 C 17.804 13.219 17.812 13.231 17.822 13.246 C 17.829 13.256 17.843 13.269 17.857 13.285 A 6 6 0 0 1 17.189 15 L 19.412 15 A 8 8 0 0 0 20 12 A 8 8 0 0 0 12 4 z M 12 6 A 6 6 0 0 1 17.959 11.363 C 17.793 11.099 17.603 10.846 17.367 10.613 C 16.71 9.9628 15.909 9.5761 14.963 9.4492 C 14.822 9.4303 14.704 9.3958 14.512 9.4668 C 14.319 9.5372 14.225 9.6908 14.168 9.7871 C 14.086 9.926 13.618 10.405 13.355 10.572 C 12.612 11.047 11.34 11.048 10.594 10.572 C 9.7109 10.01 9.2064 8.9074 9.3652 7.9355 C 9.4551 7.3855 9.691 6.9083 10.078 6.498 C 10.159 6.4128 10.218 6.3461 10.268 6.291 C 10.279 6.2778 10.289 6.2611 10.299 6.25 A 6 6 0 0 1 12 6 z M 8.7207 8.8301 L 8.7227 8.832 C 8.8277 9.4631 9.0808 9.9984 9.5059 10.49 C 9.36 10.457 9.2182 10.411 9.0879 10.396 C 8.9418 10.38 8.9347 10.376 8.9473 10.387 C 8.9425 10.375 8.9444 10.379 8.9316 10.35 C 8.7852 9.9825 8.6729 9.4118 8.6719 9.0371 C 8.6718 8.9817 8.7146 8.8967 8.7207 8.8301 z M 14.822 10.229 C 14.832 10.229 14.797 10.236 14.855 10.244 C 15.182 10.288 15.381 10.516 15.65 10.625 C 15.312 10.574 15.006 10.379 14.66 10.438 C 14.591 10.447 14.571 10.53 14.504 10.545 C 14.606 10.431 14.75 10.345 14.822 10.229 z M 13.248 11.396 C 12.669 11.867 12.208 12.452 11.973 13.113 C 11.75 12.475 11.329 11.887 10.785 11.418 C 11.592 11.72 12.451 11.719 13.248 11.396 z"
     id="path5" />
  <path
     style="fill:currentColor"
     class="ColorScheme-Highlight"
     d="m 10,16 v 5 h 1 v -1.001289 0 l 0.316369,0.02466 L 12.293,21 H 13 v -0.707 l -1.029469,-1.029469 v 0 L 12.07041,19 H 13 v -3 z m 4,0 v 5 h 3 v -1 h -2 v -1 h 2 v -1 h -2 v -1 h 2 v -1 z m 4,0 v 5 h 3 v -1 h -2 v -3 h 2 v -1 z m -7,1 h 1 v 1 h -1 z"
     id="path7"
     sodipodi:nodetypes="cccccccccccccccccccccccccccccccccccccccccc" />
</svg>
