<?xml version="1.0" encoding="UTF-8" standalone="no"?>
<svg
   width="24"
   height="24"
   version="1.1"
   id="svg9"
   sodipodi:docname="opensnitch-tray-alert.svg"
   inkscape:version="1.1.2 (0a00cf5339, 2022-02-04)"
   xmlns:inkscape="http://www.inkscape.org/namespaces/inkscape"
   xmlns:sodipodi="http://sodipodi.sourceforge.net/DTD/sodipodi-0.dtd"
   xmlns="http://www.w3.org/2000/svg"
   xmlns:svg="http://www.w3.org/2000/svg">
  <sodipodi:namedview
     id="namedview11"
     pagecolor="#ffffff"
     bordercolor="#666666"
     borderopacity="1.0"
     inkscape:pageshadow="2"
     inkscape:pageopacity="0.0"
     inkscape:pagecheckerboard="0"
     showgrid="false"
     inkscape:zoom="31.5"
     inkscape:cx="12"
     inkscape:cy="12"
     inkscape:window-width="1880"
     inkscape:window-height="966"
     inkscape:window-x="0"
     inkscape:window-y="29"
     inkscape:window-maximized="1"
     inkscape:current-layer="svg9" />
  <defs
     id="defs3">
    <style
       id="current-color-scheme"
       type="text/css">
   .ColorScheme-Text { color:#eeeeec; } .ColorScheme-Highlight { color:#367bf0; } .ColorScheme-NeutralText { color:#ffcc44; } .ColorScheme-PositiveText { color:#3db47e; } .ColorScheme-NegativeText { color:#dd4747; }
  </style>
  </defs>
  <path
     style="fill:currentColor"
     class="ColorScheme-Text"
     d="m 14.320312,5.000001 c -0.09429,-0.00112 -0.188675,0.00111 -0.285156,0.00586 -0.868859,0.043215 -1.603596,0.3937137 -2.326172,0.8945306 -0.307321,0.2129658 -0.770274,0.7473183 -0.974609,1.015625 -0.102664,0.135058 -0.101986,0.135457 -0.259766,0.09375 -0.08907,-0.023149 -0.418043,-0.039927 -0.755859,-0.039063 -0.5294889,0.00119 -0.6382801,0.0123 -0.9394531,0.095703 -1.701208,0.4705716 -2.8810094,1.8526981 -2.9746094,3.6347654 l -0.021484,0.40625 -0.1367187,0.04102 C 5.1623696,11.298752 4.5600286,11.590584 4.1347656,12.031251 3.6275626,12.556792 3.2847199,13.181109 3.0917969,13.927735 3.0101469,14.243576 3,14.346332 3,14.91797 c 0,0.571652 0.010187,0.6763 0.091797,0.992187 0.41968,1.62416 1.690229,2.817034 3.25,3.052735 0.088323,0.01339 1.7022338,0.02319 3.658203,0.0293 v -2 c -0.6829558,-0.002 -1.4675206,-0.0024 -1.9882811,-0.0059 -0.481883,-0.0032 -0.8790004,-0.0079 -1.15625,-0.01172 -0.1069685,-0.0015 -0.1774075,-0.0025 -0.2441407,-0.0039 -0.7180798,-0.12213 -1.3530978,-0.66897 -1.5839843,-1.5625 C 4.9627825,15.158281 5,15.46737 5,14.91797 5,14.368491 4.9628075,14.677376 5.0273438,14.427735 5.1441121,13.975833 5.3007499,13.703208 5.5722656,13.421876 v -0.002 c 0.1802908,-0.186821 0.6753853,-0.463241 0.6679688,-0.460938 l 0.1308594,-0.04101 C 7.1729896,12.670849 7.735333,12.048921 7.7792969,11.210939 l 0.021484,-0.40625 C 7.8512248,9.844286 8.4218815,9.240496 9.3125,8.9941416 v -0.00195 c 0.2265247,-0.062731 -0.091921,-0.020354 0.4101562,-0.021484 0.1200099,-3.07e-4 0.2385407,0.00371 0.3281248,0.00781 0.162165,0.066528 0.539454,0.1882124 1.25,-0.066406 0.868611,-0.3112596 0.973813,-0.813089 1.025391,-0.8828125 -0.04573,0.060042 0.490498,-0.562512 0.521484,-0.5839844 h 0.002 c 0.457943,-0.3173997 0.743525,-0.4143396 1.283203,-0.4414063 0.456785,-0.022487 0.746366,0.03852 1.160157,0.2480469 0.598225,0.3030333 0.8879,0.5969482 1.191406,1.2402344 C 16.691129,8.930307 16.763198,9.287 16.742235,9.779299 l -0.01758,0.410156 c -0.02905,0.690388 0.300302,1.346873 0.871094,1.736328 l 0.261719,0.179688 c -0.01008,0.002 0.281858,0.240142 0.376953,0.33789 0.690256,0.709536 0.934322,1.602632 0.667969,2.644532 -0.05384,0.210593 -0.478117,0.975517 -0.658203,1.162109 -0.14928,0.154685 -0.955701,0.626829 -1.03125,0.648438 -0.341761,0.09777 -0.04731,0.06421 -0.722657,0.08398 -0.430179,0.0126 -1.318347,0.01511 -2.490234,0.01563 v 2 c 3.017176,-0.0019 3.233337,-0.02654 3.761719,-0.177735 0.609734,-0.174378 1.4444,-0.686878 1.921875,-1.18164 0.499741,-0.517795 0.982485,-1.375024 1.15625,-2.054688 0.425983,-1.666324 -0.006,-3.336762 -1.171875,-4.535156 -0.206045,-0.211758 -0.503146,-0.472929 -0.660203,-0.58008 l -0.285156,-0.193359 0.01758,-0.41211 C 18.773863,9.073678 18.628182,8.3491615 18.292969,7.6386729 17.826779,6.6505737 17.150843,5.9498359 16.197266,5.4667979 15.59078,5.1596991 14.980382,5.0078082 14.320312,5.000001 Z"
     id="path5" />
  <path
     style="fill:currentColor"
     class="ColorScheme-NegativeText"
     d="m 11,11.308639 v 0 3.691362 L 11.25,17 h 1.5 L 13,15.000001 V 11.40407 l -0.294612,-0.404069 v 0 h -1.460713 z m 0,7.047461 v 0 1.39677 L 11.276549,20 v 0 h 1.459802 L 13,19.68973 v 0 -1.36544 L 12.768225,18 v 0 h -1.491676 z"
     id="path7"
     sodipodi:nodetypes="cccccccccccccccccccccccc" />
</svg>
