<?xml version="1.0" encoding="UTF-8" standalone="no"?>
<svg
   width="24"
   height="24"
   version="1.1"
   id="svg9"
   sodipodi:docname="org.keepassxc.KeePassXC-monochrome-light-locked.svg"
   inkscape:version="1.1.2 (0a00cf5339, 2022-02-04)"
   xmlns:inkscape="http://www.inkscape.org/namespaces/inkscape"
   xmlns:sodipodi="http://sodipodi.sourceforge.net/DTD/sodipodi-0.dtd"
   xmlns="http://www.w3.org/2000/svg"
   xmlns:svg="http://www.w3.org/2000/svg">
  <sodipodi:namedview
     id="namedview11"
     pagecolor="#000000"
     bordercolor="#666666"
     borderopacity="1.0"
     inkscape:pageshadow="2"
     inkscape:pageopacity="0"
     inkscape:pagecheckerboard="0"
     showgrid="false"
     inkscape:zoom="97.462885"
     inkscape:cx="11.937878"
     inkscape:cy="16.637102"
     inkscape:window-width="585"
     inkscape:window-height="817"
     inkscape:window-x="591"
     inkscape:window-y="31"
     inkscape:window-maximized="1"
     inkscape:current-layer="svg9" />
  <defs
     id="defs3">
    <style
       id="current-color-scheme"
       type="text/css">
   .ColorScheme-Text { color:#eeeeec; } .ColorScheme-Highlight { color:#367bf0; } .ColorScheme-NeutralText { color:#ffcc44; } .ColorScheme-PositiveText { color:#3db47e; } .ColorScheme-NegativeText { color:#dd4747; }
  </style>
  </defs>
  <path
     style="fill:currentColor"
     class="ColorScheme-Text"
     d="M 12,4 C 9.2385763,4 7,6.2385763 7,9 c 0.00254,1.985786 1.1799949,3.781859 3,4.576172 v 5.124229 l 0.230543,0.530142 v 0 l 1.455927,1.455927 0.626537,5.23e-4 v 0 L 13,20 v -5 h 0.629023 l 0.395573,-0.202716 c 8.31e-4,-0.06833 -0.0063,0.06684 0,0 0.01955,-0.206745 0.06345,-0.40667 0.119935,-0.601972 L 14,14.050781 v -0.470703 c 0.200532,-0.08933 0.394963,-0.19176 0.582031,-0.30664 0.301156,-0.425084 0.706095,-0.767778 1.179688,-0.990235 C 16.557556,11.37433 16.997424,10.208056 17,9 17,6.2385763 14.761424,4 12,4 Z m 0,1 c 1.104569,1e-7 2,0.8954305 2,2 0,1.1045695 -0.895431,1.9999999 -2,2 -1.104569,-10e-8 -2,-0.8954305 -2,-2 0,-1.1045695 0.895431,-1.9999999 2,-2 z m -1,9 h 1 v 4 h -1 z"
     id="path5"
     sodipodi:nodetypes="sccccccccccccsccccccssssssccccc" />
  <path
     style="fill:currentColor"
     class="ColorScheme-Text"
     d="m17 13c-1.108 0-2 0.91085-2 2.0312v0.96875h-1v4h6v-4h-1v-0.96875c0-1.1199-0.892-2.0312-2-2.0312zm0 1c0.554 0 1 0.4424 1 1v1h-2v-1c0-0.5576 0.446-1 1-1z"
     id="path7" />
</svg>
