<?xml version="1.0" encoding="UTF-8" standalone="no"?>
<svg
   width="24"
   height="24"
   version="1.1"
   id="svg7"
   sodipodi:docname="org.keepassxc.KeePassXC-unlocked.svg"
   inkscape:version="1.1.2 (0a00cf5339, 2022-02-04)"
   xmlns:inkscape="http://www.inkscape.org/namespaces/inkscape"
   xmlns:sodipodi="http://sodipodi.sourceforge.net/DTD/sodipodi-0.dtd"
   xmlns="http://www.w3.org/2000/svg"
   xmlns:svg="http://www.w3.org/2000/svg">
  <sodipodi:namedview
     id="namedview9"
     pagecolor="#000000"
     bordercolor="#666666"
     borderopacity="1.0"
     inkscape:pageshadow="2"
     inkscape:pageopacity="0"
     inkscape:pagecheckerboard="0"
     showgrid="false"
     inkscape:zoom="34.458333"
     inkscape:cx="11.941959"
     inkscape:cy="14.292624"
     inkscape:window-width="585"
     inkscape:window-height="817"
     inkscape:window-x="591"
     inkscape:window-y="31"
     inkscape:window-maximized="1"
     inkscape:current-layer="svg7" />
  <defs
     id="defs3">
    <style
       id="current-color-scheme"
       type="text/css">
   .ColorScheme-Text { color:#eeeeec; } .ColorScheme-Highlight { color:#367bf0; } .ColorScheme-NeutralText { color:#ffcc44; } .ColorScheme-PositiveText { color:#3db47e; } .ColorScheme-NegativeText { color:#dd4747; }
  </style>
  </defs>
  <path
     style="fill:currentColor"
     class="ColorScheme-Text"
     d="M 12,4 C 9.2385763,4 7,6.2385763 7,9 c 0.00254,1.985786 1.1799949,3.781859 3,4.576172 v 5.227737 0 l 0.200708,0.396799 1.545621,1.545621 v 0 L 12.354366,20.645634 14,19 v -0.699219 l 0.715032,-0.536274 v 0 L 14.6737,17.306056 14,16.800781 v -0.75 l 0.749727,-0.749727 v 0 l -0.0042,-0.50475 L 14,14.050781 V 13.580078 C 15.821303,12.785196 16.999007,10.987204 17,9 17,6.2385763 14.761424,4 12,4 Z m 0,1 c 1.104569,1e-7 2,0.8954305 2,2 0,1.1045695 -0.895431,1.9999999 -2,2 -1.104569,-10e-8 -2,-0.8954305 -2,-2 0,-1.1045695 0.895431,-1.9999999 2,-2 z m -1,9 h 1 v 4 h -1 z"
     id="path5"
     sodipodi:nodetypes="scccccccccccccccccccccssssssccccc" />
</svg>
