<?xml version="1.0" encoding="UTF-8" standalone="no"?>
<svg
   width="24"
   height="24"
   version="1.1"
   id="svg7"
   sodipodi:docname="pomodoro-start-light.svg"
   inkscape:version="1.1.2 (0a00cf5339, 2022-02-04)"
   xmlns:inkscape="http://www.inkscape.org/namespaces/inkscape"
   xmlns:sodipodi="http://sodipodi.sourceforge.net/DTD/sodipodi-0.dtd"
   xmlns="http://www.w3.org/2000/svg"
   xmlns:svg="http://www.w3.org/2000/svg">
  <sodipodi:namedview
     id="namedview9"
     pagecolor="#000000"
     bordercolor="#666666"
     borderopacity="1.0"
     inkscape:pageshadow="2"
     inkscape:pageopacity="0"
     inkscape:pagecheckerboard="0"
     showgrid="false"
     inkscape:zoom="34.458333"
     inkscape:cx="12.01451"
     inkscape:cy="12"
     inkscape:window-width="1920"
     inkscape:window-height="1051"
     inkscape:window-x="0"
     inkscape:window-y="29"
     inkscape:window-maximized="1"
     inkscape:current-layer="svg7" />
  <defs
     id="defs3">
    <style
       id="current-color-scheme"
       type="text/css">
   .ColorScheme-Text { color:#eeeeec; } .ColorScheme-Highlight { color:#367bf0; } .ColorScheme-NeutralText { color:#ffcc44; } .ColorScheme-PositiveText { color:#3db47e; } .ColorScheme-NegativeText { color:#dd4747; }
  </style>
  </defs>
  <path
     style="fill:currentColor"
     class="ColorScheme-Text"
     d="M 12,3 C 9.8724,3 7.9155,3.73435 6.375,4.96875 L 4.5625,3.15625 3.15625,4.5625 4.96875,6.375 C 3.73435,7.9155 3,9.8724 3,12 c 0,4.971 4.0294,9 9,9 4.971,0 9,-4.029 9,-9 C 21,9.8724 20.26625,7.9155 19.03125,6.375 L 20.84375,4.5625 19.4375,3.15625 17.625,4.96875 C 16.084,3.73435 14.128,3 12,3 Z m 0,2 c 3.866,0 7,3.134 7,7 0,3.866 -3.134,7 -7,7 C 8.134,19 5,15.866 5,12 5,8.134 8.134,5 12,5 Z m -2,3.6644286 v 0 6.4939764 l 0.714778,0.365076 v 0 l 4.668819,-3.112545 v 0 l 0.06928,-0.775682 -4.755896,-3.1705974 z"
     id="path5"
     sodipodi:nodetypes="sccccsssccccsssssscccccccccc" />
</svg>
