<?xml version="1.0" encoding="UTF-8" standalone="no"?>
<svg
   width="24"
   height="24"
   version="1.1"
   id="svg7"
   sodipodi:docname="preferences-system-bluetooth-active.svg"
   inkscape:version="1.1.2 (0a00cf5339, 2022-02-04)"
   xmlns:inkscape="http://www.inkscape.org/namespaces/inkscape"
   xmlns:sodipodi="http://sodipodi.sourceforge.net/DTD/sodipodi-0.dtd"
   xmlns="http://www.w3.org/2000/svg"
   xmlns:svg="http://www.w3.org/2000/svg">
  <sodipodi:namedview
     id="namedview9"
     pagecolor="#000000"
     bordercolor="#666666"
     borderopacity="1.0"
     inkscape:pageshadow="2"
     inkscape:pageopacity="0"
     inkscape:pagecheckerboard="0"
     showgrid="false"
     inkscape:zoom="68.916667"
     inkscape:cx="12"
     inkscape:cy="10.810157"
     inkscape:window-width="514"
     inkscape:window-height="894"
     inkscape:window-x="520"
     inkscape:window-y="31"
     inkscape:window-maximized="1"
     inkscape:current-layer="svg7" />
  <defs
     id="defs3">
    <style
       id="current-color-scheme"
       type="text/css">
   .ColorScheme-Text { color:#eeeeec; } .ColorScheme-Highlight { color:#367bf0; } .ColorScheme-NeutralText { color:#ffcc44; } .ColorScheme-PositiveText { color:#3db47e; } .ColorScheme-NegativeText { color:#dd4747; }
  </style>
  </defs>
  <path
     style="fill:currentColor"
     class="ColorScheme-Text"
     d="M 10.565517,4.0992355 C 10.219523,4.2657473 9.999411,4.6156495 9.9991113,4.9996262 v 3.8090757 0 L 9.7919182,8.9049579 7.6123927,7.2105636 C 7.1765054,6.8722224 6.5489418,6.9508864 6.2100489,7.3863449 5.8717077,7.8222322 5.9503717,8.4497958 6.3858302,8.7886887 l 3.6132811,2.8105473 v 0.800781 l -3.6132811,2.810547 c -0.435458,0.338893 -0.5141219,0.966456 -0.1757813,1.402343 0.3388927,0.435459 0.9664563,0.514123 1.4023438,0.175782 l 2.2128074,-1.720268 v 0 l 0.1739112,0.112821 v 3.818385 c -3.497e-4,0.838869 0.9700487,1.305407 1.6249997,0.78125 l 5.000001,-4.000001 c 0.504555,-0.404192 0.498812,-1.173696 -0.01172,-1.570312 L 13.770596,11.999627 16.612393,9.7886888 C 17.122925,9.3920726 17.128668,8.622569 16.624113,8.2183767 L 11.624112,4.2183762 C 11.323517,3.9783996 10.911933,3.9320774 10.565517,4.0992355 Z m 1.569781,3.2791137 v 0 l 0.29802,0.050745 v 0 l 1.750856,1.4009717 0.02222,0.2978526 v 0 l -1.929138,1.5006269 v 0 l -0.278149,-0.0059 4e-6,-3.1296424 z m -0.136189,6.1182858 0.311576,-0.09992 1.873973,1.457714 0.02774,0.292179 v 0 l -1.902322,1.522168 -0.115675,0.09256 0.115675,-0.09256 -0.310967,0.04574 V 13.496635 13.37658 Z"
     id="path5"
     sodipodi:nodetypes="ccccccccccccccccccccccccccccccccccccccccccccccccc" />
</svg>
