<?xml version="1.0" encoding="UTF-8" standalone="no"?>
<svg
   width="24"
   height="24"
   version="1.1"
   id="svg168988"
   sodipodi:docname="process-syncing.svg"
   inkscape:version="1.1.2 (0a00cf5339, 2022-02-04)"
   xmlns:inkscape="http://www.inkscape.org/namespaces/inkscape"
   xmlns:sodipodi="http://sodipodi.sourceforge.net/DTD/sodipodi-0.dtd"
   xmlns="http://www.w3.org/2000/svg"
   xmlns:svg="http://www.w3.org/2000/svg">
  <sodipodi:namedview
     id="namedview168990"
     pagecolor="#000000"
     bordercolor="#666666"
     borderopacity="1.0"
     inkscape:pageshadow="2"
     inkscape:pageopacity="0"
     inkscape:pagecheckerboard="0"
     showgrid="false"
     inkscape:zoom="34.458333"
     inkscape:cx="12.01451"
     inkscape:cy="12"
     inkscape:window-width="1920"
     inkscape:window-height="1051"
     inkscape:window-x="0"
     inkscape:window-y="29"
     inkscape:window-maximized="1"
     inkscape:current-layer="g168986" />
  <defs
     id="defs168982">
    <style
       id="current-color-scheme"
       type="text/css">
   .ColorScheme-Text { color:#eeeeec; } .ColorScheme-Highlight { color:#367bf0; } .ColorScheme-NeutralText { color:#ffcc44; } .ColorScheme-PositiveText { color:#3db47e; } .ColorScheme-NegativeText { color:#dd4747; }
  </style>
  </defs>
  <g
     transform="translate(0 -1028.4)"
     id="g168986">
    <path
       style="fill:currentColor"
       class="ColorScheme-Text"
       d="M 5,5 C 4.446,5 4,5.446 4,6 V 8.2832 C 4.2965,8.1077 4.636,8 5,8 H 8.5859 L 10.293,6.293 C 10.480499,6.1054599 10.734807,6.0000676 11,6 h 1 C 12,5.446 11.554,5 11,5 Z M 11,7 9,9 H 5 C 4.446,9 4,9.446 4,10 v 8 c 0,1.108 0.892,2 2,2 h 12 c 1.108,0 2,-0.892 2,-2 V 8 C 20,7.446 19.554,7 19,7 Z m 2,3.454512 0.336565,-0.117947 3.200893,3.200893 L 16.540863,14 v 0 H 15 v 2 H 13 Z M 10,12 h 2 v 5.555697 0 l -0.345801,0.0985 -3.1964409,-3.196441 v 0 L 8.6088743,14 H 10 Z"
       transform="translate(0,1028.4)"
       id="path168984"
       sodipodi:nodetypes="sscsccccssccssssssssccccccccccccccccccccc" />
  </g>
</svg>
