<?xml version="1.0" encoding="UTF-8" standalone="no"?>
<svg
   width="24"
   height="24"
   version="1.1"
   id="svg125571"
   sodipodi:docname="qelectrotech-indicator.svg"
   inkscape:version="1.1.2 (0a00cf5339, 2022-02-04)"
   xmlns:inkscape="http://www.inkscape.org/namespaces/inkscape"
   xmlns:sodipodi="http://sodipodi.sourceforge.net/DTD/sodipodi-0.dtd"
   xmlns="http://www.w3.org/2000/svg"
   xmlns:svg="http://www.w3.org/2000/svg">
  <sodipodi:namedview
     id="namedview125573"
     pagecolor="#000000"
     bordercolor="#666666"
     borderopacity="1.0"
     inkscape:pageshadow="2"
     inkscape:pageopacity="0"
     inkscape:pagecheckerboard="0"
     showgrid="false"
     inkscape:zoom="34.458333"
     inkscape:cx="12.01451"
     inkscape:cy="12"
     inkscape:window-width="1920"
     inkscape:window-height="1051"
     inkscape:window-x="0"
     inkscape:window-y="29"
     inkscape:window-maximized="1"
     inkscape:current-layer="g125569" />
  <defs
     id="defs125565">
    <style
       id="current-color-scheme"
       type="text/css">
   .ColorScheme-Text { color:#eeeeec; } .ColorScheme-Highlight { color:#367bf0; } .ColorScheme-NeutralText { color:#ffcc44; } .ColorScheme-PositiveText { color:#3db47e; } .ColorScheme-NegativeText { color:#dd4747; }
  </style>
  </defs>
  <g
     transform="translate(0 -1028.4)"
     id="g125569">
    <path
       style="fill:currentColor"
       class="ColorScheme-Text"
       d="m 11,1032.4 c -3.8659932,0 -7,3.5817 -7,8 0,4.4183 3.1340068,8 7,8 1.346809,-0 2.664456,-0.4485 3.7949,-1.2852 l -1.2812,-1.5371 c -0.764518,0.5281 -1.631863,0.8041 -2.514,0.8 -2.7614237,0 -5,-2.6863 -5,-6 0,-3.3137 2.2385763,-6 5,-6 1.724038,0 3.325767,1.0689 4.2383,2.8242 l 2.7422,2.7422 c -0.230853,-4.2131 -3.286321,-7.4962 -6.98,-7.5 z m 3.525301,5.5253 -0.175102,0.2626 L 16,1041.9 l -2.688076,1.344 -0.04826,0.4724 v 0 l 4.154855,4.9858 0.265264,-0.093 v 0 L 16,1044.4 l 2.7496,-1.8331 -0.09832,-0.5156 v 0 z"
       id="path125567"
       sodipodi:nodetypes="csccccscccccccccccccccccccc" />
  </g>
</svg>
