<?xml version="1.0" encoding="UTF-8" standalone="no"?>
<svg
   width="24"
   height="24"
   version="1.1"
   id="svg9"
   sodipodi:docname="QMPlay2-panel.svg"
   inkscape:version="1.1.2 (0a00cf5339, 2022-02-04)"
   xmlns:inkscape="http://www.inkscape.org/namespaces/inkscape"
   xmlns:sodipodi="http://sodipodi.sourceforge.net/DTD/sodipodi-0.dtd"
   xmlns="http://www.w3.org/2000/svg"
   xmlns:svg="http://www.w3.org/2000/svg">
  <sodipodi:namedview
     id="namedview11"
     pagecolor="#000000"
     bordercolor="#666666"
     borderopacity="1.0"
     inkscape:pageshadow="2"
     inkscape:pageopacity="0"
     inkscape:pagecheckerboard="0"
     showgrid="false"
     inkscape:zoom="31.5"
     inkscape:cx="12"
     inkscape:cy="12"
     inkscape:window-width="1880"
     inkscape:window-height="966"
     inkscape:window-x="0"
     inkscape:window-y="29"
     inkscape:window-maximized="1"
     inkscape:current-layer="g7" />
  <defs
     id="defs3">
    <style
       id="current-color-scheme"
       type="text/css">
   .ColorScheme-Text { color:#eeeeec; } .ColorScheme-Highlight { color:#367bf0; } .ColorScheme-NeutralText { color:#ffcc44; } .ColorScheme-PositiveText { color:#3db47e; } .ColorScheme-NegativeText { color:#dd4747; }
  </style>
  </defs>
  <g
     transform="translate(-385 127)"
     id="g7">
    <path
       style="fill:currentColor"
       class="ColorScheme-Text"
       d="m 390.86,-123 c -1.02039,-0.0215 -1.8607,0.71123 -1.8613,1.6229 v 6.3763 6.3763 c 1.7e-4,1.25064 1.51625,2.03194 2.7285,1.4061 l 6.1816,-3.1891 6.1816,-3.1872 c 1.21082,-0.62545 1.21082,-2.18675 0,-2.8122 l -6.1816,-3.1872 -6.1816,-3.1891 c -0.26414,-0.13606 -0.56235,-0.2106 -0.86719,-0.21678 z m 1.1387,3.62634 0.55143,-0.32032 3.94857,2.19338 3.88965,2.16074 0.031,0.66088 v 0 l -3.92066,2.17788 -3.96631,2.20324 v 0 l -0.53369,-0.37757 v -4.32547 -4.37276 z"
       id="path5"
       sodipodi:nodetypes="cccccccccccccccccccccccccc" />
  </g>
</svg>
