<?xml version="1.0" encoding="UTF-8" standalone="no"?>
<svg
   width="24"
   height="24"
   version="1.1"
   id="svg9"
   sodipodi:docname="rambox-warning.svg"
   inkscape:version="1.1.2 (0a00cf5339, 2022-02-04)"
   xmlns:inkscape="http://www.inkscape.org/namespaces/inkscape"
   xmlns:sodipodi="http://sodipodi.sourceforge.net/DTD/sodipodi-0.dtd"
   xmlns="http://www.w3.org/2000/svg"
   xmlns:svg="http://www.w3.org/2000/svg">
  <sodipodi:namedview
     id="namedview11"
     pagecolor="#000000"
     bordercolor="#666666"
     borderopacity="1.0"
     inkscape:pageshadow="2"
     inkscape:pageopacity="0"
     inkscape:pagecheckerboard="0"
     showgrid="false"
     inkscape:zoom="34.458333"
     inkscape:cx="12.01451"
     inkscape:cy="12"
     inkscape:window-width="1920"
     inkscape:window-height="1051"
     inkscape:window-x="0"
     inkscape:window-y="29"
     inkscape:window-maximized="1"
     inkscape:current-layer="svg9" />
  <defs
     id="defs3">
    <style
       id="current-color-scheme"
       type="text/css">
   .ColorScheme-Text { color:#eeeeec; } .ColorScheme-Highlight { color:#367bf0; } .ColorScheme-NeutralText { color:#ffcc44; } .ColorScheme-PositiveText { color:#3db47e; } .ColorScheme-NegativeText { color:#dd4747; }
  </style>
  </defs>
  <path
     style="fill:currentColor"
     class="ColorScheme-Text"
     d="M 11.8611,4.5067262 C 11.663663,4.5309192 11.720972,4.1148283 11.37823,4.2996591 10.681984,4.6751237 9.8510834,5.4392919 9.5565075,6.8248064 c -0.029739,0.1398758 0.018116,-0.1527808 0,0 C 9.3394981,6.5426411 9.3272955,7.0873358 9.2673698,6.9815064 9.0614709,6.617887 8.9935477,6.1368384 8.9755908,5.7607132 c -0.016371,-0.3429063 0,0 0,0 -0.09963,0.09672 -0.2225016,-0.3050486 -0.3774496,-0.030215 -0.6375483,1.1308287 -1.669353,3.5821577 -2.4863597,5.8133119 -0.070225,0.191776 0.3572308,0.270598 0.2905665,0.458143 0.1558929,-0.06137 -0.1743241,0.01047 0,0 h 0.00195 0.00391 c 0.060129,-0.0033 0.1195595,-0.0033 0.1796875,0 0.6195568,0.03331 1.148825,0.420223 1.4160156,0.9375 l 1.3945313,2.705078 1.3945316,2.703125 c 0.177989,0.34441 0.233525,0.723891 0.1875,1.085938 0.745455,0.214004 1.374728,0.361038 1.722656,0.435547 1.991,0.42628 2.950756,-0.329686 3.322266,-0.291016 1.1118,0.1363 2.22616,-0.400844 2.61914,-1.964844 0.54793,-0.2378 0.348021,-0.979841 0.144531,-1.394531 -0.263199,-0.5355 -0.509879,-0.623072 -1.505859,-1.763672 0.0028,-0.53362 0.0015,-0.956232 -0.21875,-1.164062 -0.2212,-0.20783 -0.662911,-0.20082 -1.082031,0.11914 -0.14842,-0.0048 -0.330666,-0.298969 -0.322266,-0.693359 0.014,-0.67762 0.434471,-0.386721 0.707032,-0.957031 0.27254,-0.57033 -0.1113,-1.415486 -0.78711,-1.458985 -0.5449,-0.03579 -0.788159,-1.4797188 -2.65039,-1.5078124 h -0.002 c -0.0063,-0.012681 -1.173744,-2.3723673 2.794168,-3.3234735 0.201581,-0.048319 -0.228914,0.040555 0,0 C 15.525491,5.366227 15.933847,5.1421144 15.668943,5.0730103 14.574459,4.7874992 13.0032,4.8681556 11.849045,5.9312049 c -0.132733,0.1222561 0.120341,-0.14918 0,0 -0.03427,-0.1384734 -0.431302,0.1257208 -0.431773,-0.019315 -0.0015,-0.4584714 0.159625,-0.9423709 0.443828,-1.4051635 0.106026,-0.1726518 -0.138237,0.1643604 0,0 z"
     id="path5"
     sodipodi:nodetypes="csscsscsscccccccccccccccccccccscsscssc" />
  <path
     style="fill:currentColor"
     class="ColorScheme-NeutralText"
     d="m 6.4622183,13.001005 c -0.2399124,0.01442 -0.4570741,0.163549 -0.5772567,0.396427 l -1.3945295,2.705124 -1.3945302,2.703605 c -0.05988,0.115569 -0.092793,0.246159 -0.095703,0.37972 -0.00934,0.446722 0.311754,0.814424 0.7109365,0.814119 h 2.78906 2.7890604 c 0.5473735,8.8e-5 0.8893292,-0.663464 0.6152336,-1.193839 L 8.5099592,16.102556 7.1154298,13.397432 C 6.9943809,13.163083 6.7751776,13.013726 6.533616,13.001005 c -0.023785,-0.0013 -0.047615,-0.0013 -0.0714,0 z M 6.0000042,14 h 1 v 3 h -1 z m 0,4 h 1 v 1 h -1 z"
     id="path7" />
</svg>
