<?xml version="1.0" encoding="UTF-8" standalone="no"?>
<svg
   width="24"
   height="24"
   version="1.1"
   id="svg9"
   sodipodi:docname="rambox-done.svg"
   inkscape:version="1.1.2 (0a00cf5339, 2022-02-04)"
   xmlns:inkscape="http://www.inkscape.org/namespaces/inkscape"
   xmlns:sodipodi="http://sodipodi.sourceforge.net/DTD/sodipodi-0.dtd"
   xmlns="http://www.w3.org/2000/svg"
   xmlns:svg="http://www.w3.org/2000/svg">
  <sodipodi:namedview
     id="namedview11"
     pagecolor="#000000"
     bordercolor="#666666"
     borderopacity="1.0"
     inkscape:pageshadow="2"
     inkscape:pageopacity="0"
     inkscape:pagecheckerboard="0"
     showgrid="false"
     inkscape:zoom="34.458333"
     inkscape:cx="1.828295"
     inkscape:cy="12"
     inkscape:window-width="1920"
     inkscape:window-height="1051"
     inkscape:window-x="0"
     inkscape:window-y="29"
     inkscape:window-maximized="1"
     inkscape:current-layer="svg9" />
  <defs
     id="defs3">
    <style
       id="current-color-scheme"
       type="text/css">
   .ColorScheme-Text { color:#eeeeec; } .ColorScheme-Highlight { color:#367bf0; } .ColorScheme-NeutralText { color:#ffcc44; } .ColorScheme-PositiveText { color:#3db47e; } .ColorScheme-NegativeText { color:#dd4747; }
  </style>
  </defs>
  <path
     style="fill:currentColor"
     class="ColorScheme-PositiveText"
     d="m 6,14 a 3,3 0 0 0 -3,3 3,3 0 0 0 3,3 3,3 0 0 0 3,-3 3,3 0 0 0 -3,-3 z m 1.4824219,0.994141 a 0.50005,0.50005 0 0 1 0.4707031,0.728515 l -1.5,3 a 0.50005,0.50005 0 0 1 -0.7246094,0.19336 l -1.5,-1 A 0.50005,0.50005 0 1 1 4.7832031,17.083984 L 5.8125,17.769531 7.0585938,15.277344 a 0.50005,0.50005 0 0 1 0.4238281,-0.283203 z"
     id="path5" />
  <path
     style="fill:currentColor"
     class="ColorScheme-Text"
     d="M 11.877728,4.4798912 C 11.760891,4.4942078 11.955384,4.0519009 11.77622,4.1185039 10.975505,4.4161633 9.718,5.293426 9.484375,7.2636719 9.1031178,6.9047938 8.9975883,6.2389162 8.9752057,5.7525888 c -0.015593,-0.3388127 0,0 0,0 C 8.8745075,5.8503463 8.7502655,5.4598765 8.5931675,5.7393065 7.808098,7.135709 6.4314949,10.515498 5.5898438,13.029297 5.7259698,13.012506 5.8628694,13.002727 6,13 c 2.209139,0 4,1.790861 4,4 -0.00347,0.684117 -0.1823477,1.355911 -0.5195312,1.951172 1.3658552,0.490723 2.6571862,0.796873 3.2226562,0.917969 1.991,0.42628 2.950756,-0.329686 3.322266,-0.291016 1.1118,0.1363 2.22616,-0.400844 2.61914,-1.964844 0.54793,-0.2378 0.348021,-0.979841 0.144531,-1.394531 -0.263199,-0.5355 -0.509879,-0.623072 -1.505859,-1.763672 0.0028,-0.53362 0.0015,-0.956232 -0.21875,-1.164062 -0.2212,-0.20783 -0.662911,-0.20082 -1.082031,0.11914 -0.14842,-0.0048 -0.330666,-0.298969 -0.322266,-0.693359 0.014,-0.67762 0.43447,-0.386721 0.707032,-0.957031 0.272539,-0.57033 -0.1113,-1.415486 -0.78711,-1.458985 -0.5449,-0.03579 -0.788159,-1.4797187 -2.65039,-1.5078122 h -0.002 c -0.0063,-0.012675 -1.172587,-2.3700277 2.78827,-3.3220576 0.203288,-0.048862 -0.231149,0.040951 0,0 C 15.502964,5.358901 15.89343,5.1268739 15.601069,5.055927 14.382166,4.7601372 12.614044,4.9181288 11.46875,6.3378906 c -0.144685,-0.5846677 0.02303,-1.2409648 0.408978,-1.8579994 0.102208,-0.1634037 -0.131068,0.1558372 0,0 z"
     id="path7"
     sodipodi:nodetypes="cscscsccccccccccccccccscscsc" />
</svg>
