<?xml version="1.0" encoding="UTF-8" standalone="no"?>
<svg
   width="24"
   height="24"
   version="1.1"
   id="svg7"
   sodipodi:docname="rambox-mention.svg"
   inkscape:version="1.1.2 (0a00cf5339, 2022-02-04)"
   xmlns:inkscape="http://www.inkscape.org/namespaces/inkscape"
   xmlns:sodipodi="http://sodipodi.sourceforge.net/DTD/sodipodi-0.dtd"
   xmlns="http://www.w3.org/2000/svg"
   xmlns:svg="http://www.w3.org/2000/svg">
  <sodipodi:namedview
     id="namedview9"
     pagecolor="#000000"
     bordercolor="#666666"
     borderopacity="1.0"
     inkscape:pageshadow="2"
     inkscape:pageopacity="0"
     inkscape:pagecheckerboard="0"
     showgrid="false"
     inkscape:zoom="34.458333"
     inkscape:cx="12.01451"
     inkscape:cy="12"
     inkscape:window-width="1920"
     inkscape:window-height="1051"
     inkscape:window-x="0"
     inkscape:window-y="29"
     inkscape:window-maximized="1"
     inkscape:current-layer="svg7" />
  <defs
     id="defs3">
    <style
       id="current-color-scheme"
       type="text/css">
   .ColorScheme-Text { color:#eeeeec; } .ColorScheme-Highlight { color:#367bf0; } .ColorScheme-NeutralText { color:#ffcc44; } .ColorScheme-PositiveText { color:#3db47e; } .ColorScheme-NegativeText { color:#dd4747; }
  </style>
  </defs>
  <path
     style="fill:currentColor"
     class="ColorScheme-Text"
     d="m 11.864259,4.5015853 c -0.154031,0.018874 -0.01238,-0.4233978 -0.26556,-0.3104676 -0.732565,0.3267603 -1.7210747,1.1024105 -2.0448325,2.6461757 -0.02854,0.1360845 0.017578,-0.1482407 0,0 C 9.4342691,6.7247161 9.2723125,7.0083076 9.2010352,6.8503299 9.0441917,6.502705 8.9899408,6.0815257 8.9749436,5.7468159 c -0.01505,-0.3358946 0,0 0,0 C 8.880098,5.8388916 8.7656271,5.437069 8.6202218,5.6916539 7.6421902,7.4040549 5.6913195,12.360381 5.0664062,14.746094 c -0.8101999,3.1067 6.0975188,4.793427 7.6367188,5.123047 1.991,0.42628 2.950756,-0.329686 3.322266,-0.291016 1.1118,0.1363 2.22616,-0.400844 2.61914,-1.964844 0.54793,-0.2378 0.348021,-0.979841 0.144531,-1.394531 -0.263199,-0.5355 -0.509879,-0.623072 -1.505859,-1.763672 0.0028,-0.53362 0.0015,-0.956232 -0.21875,-1.164062 -0.2212,-0.20783 -0.662911,-0.20082 -1.082031,0.11914 -0.14842,-0.0048 -0.330666,-0.298969 -0.322266,-0.693359 0.014,-0.67762 0.434472,-0.386721 0.707032,-0.957031 0.27254,-0.57033 -0.1113,-1.415485 -0.78711,-1.458985 -0.5449,-0.03579 -0.788159,-1.4797186 -2.65039,-1.5078122 h -0.002 c -0.0061,-0.01228 -1.101046,-2.2253429 2.432586,-3.229047 0.300887,-0.085465 -0.371535,0.065823 0,0 -0.2926,-0.1538739 0.331517,-0.5075057 -0.09946,-0.5760214 -1.057036,-0.1680465 -2.404156,0.00759 -3.422723,0.953385 -0.128801,0.1195991 -0.303266,-0.1336871 -0.420309,0.011405 -0.03105,-0.1254669 0.0032,0.1309681 0,0 -0.01156,-0.4721883 0.151785,-0.9730092 0.446427,-1.4511049 0.10531,-0.1708798 -0.136865,0.1627288 0,0 z M 18,6 c -1.104569,0 -2,0.8954305 -2,2 0,1.1045695 0.895431,2 2,2 1.104569,0 2,-0.8954305 2,-2 0,-1.1045695 -0.895431,-2 -2,-2 z"
     id="path5"
     sodipodi:nodetypes="csscsscscccccccccccccscsscsscsssss" />
</svg>
