<?xml version="1.0" encoding="UTF-8" standalone="no"?>
<svg
   width="24"
   height="24"
   version="1.1"
   id="svg7"
   sodipodi:docname="rare-tray.svg"
   inkscape:version="1.1.2 (0a00cf5339, 2022-02-04)"
   xmlns:inkscape="http://www.inkscape.org/namespaces/inkscape"
   xmlns:sodipodi="http://sodipodi.sourceforge.net/DTD/sodipodi-0.dtd"
   xmlns="http://www.w3.org/2000/svg"
   xmlns:svg="http://www.w3.org/2000/svg">
  <sodipodi:namedview
     id="namedview9"
     pagecolor="#000000"
     bordercolor="#666666"
     borderopacity="1.0"
     inkscape:pageshadow="2"
     inkscape:pageopacity="0"
     inkscape:pagecheckerboard="0"
     showgrid="false"
     inkscape:zoom="31.5"
     inkscape:cx="12"
     inkscape:cy="12"
     inkscape:window-width="1880"
     inkscape:window-height="966"
     inkscape:window-x="0"
     inkscape:window-y="29"
     inkscape:window-maximized="1"
     inkscape:current-layer="svg7" />
  <defs
     id="defs3">
    <style
       id="current-color-scheme"
       type="text/css">
   .ColorScheme-Text { color:#eeeeec; } .ColorScheme-Highlight { color:#367bf0; } .ColorScheme-NeutralText { color:#ffcc44; } .ColorScheme-PositiveText { color:#3db47e; } .ColorScheme-NegativeText { color:#dd4747; }
  </style>
  </defs>
  <path
     style="fill:currentColor"
     class="ColorScheme-Text"
     d="M 7.5,7 C 5.3690474,7 4.0571007,8.3753205 3.5214844,9.599609 3.051515,10.673845 3.0063459,11.662297 3.0019531,11.900391 H 3 c 0,0 0.00192,0.03295 0.00195,0.03906 C 3.0018767,11.952051 3,12 3,12 h 0.00391 c 0.00757,0.229984 0.066538,1.062849 0.5625,1.941406 C 4.1442042,14.964929 5.4547662,16 7.5,16 c 1.2083322,0 2.2502672,-0.583312 3.167969,-1.310547 0.645546,-0.511565 1.247595,-1.114555 1.832031,-1.730469 0.584436,0.615914 1.186485,1.218904 1.832031,1.730469 C 15.249733,15.416688 16.291668,16 17.5,16 c 2.03571,0 3.342081,-0.99547 3.925781,-1.996094 0.499155,-0.855688 0.561849,-1.673801 0.570313,-1.904297 H 22 c 0,0 -0.0019,-0.04821 -0.002,-0.06055 C 21.998096,12.032768 22,12 22,12 H 21.998 C 21.994,11.761701 21.95044,10.754705 21.482422,9.658203 20.950439,8.411819 19.640476,7 17.5,7 16.291668,7 15.249733,7.5833116 14.332031,8.3105469 13.686485,8.822112 13.084436,9.425101 12.5,10.041016 11.915564,9.425101 11.313515,8.822112 10.667969,8.3105469 9.7502669,7.5833116 8.7083321,7 7.5,7 Z m 0,2 c 0.5416661,0 1.1872348,0.2916896 1.9257812,0.876953 0.4601534,0.36465 0.9406588,0.829676 1.4340028,1.339841 0.08995,0.09301 -0.09075,-0.09568 0,0 -0.09009,0.09498 0.09128,0.47201 0.002,0.564361 -0.494039,0.510969 -0.9752159,0.976754 -1.4359858,1.341892 C 8.6872347,13.70831 8.0416662,14 7.5,14 6.0452373,14 5.6057924,13.485448 5.3085938,12.958984 5.0493824,12.499813 5.010357,12.058247 5.0039062,11.947266 5.0087945,11.8141 5.0459927,11.103313 5.3535156,10.400391 5.6928874,9.624669 6.1309561,9 7.5,9 Z m 10,0 c 1.35952,0 1.799573,0.639733 2.142578,1.443359 0.30982,0.725878 0.34834,1.458216 0.353516,1.59961 -0.0058,0.102029 -0.04206,0.516278 -0.296875,0.953125 C 19.407923,13.495456 18.964287,14 17.5,14 c -0.541666,0 -1.187234,-0.29169 -1.925781,-0.876953 -0.470744,-0.373043 -0.962788,-0.851136 -1.468088,-1.375137 -0.07869,-0.0816 0.111601,-0.445673 0.0323,-0.529274 0.09015,-0.09505 -0.08936,0.09242 0,0 0.493969,-0.510887 0.975077,-0.976594 1.435785,-1.341683 C 16.312766,9.2916897 16.958334,9 17.5,9 Z m -10,1 C 7.2238576,10 7,10.223858 7,10.5 V 11 H 6.5 C 6.2238576,11 6,11.223858 6,11.5 6,11.776142 6.2238576,12 6.5,12 H 7 v 0.5 C 7,12.776142 7.2238576,13 7.5,13 7.7761424,13 8,12.776142 8,12.5 V 12 H 8.5 C 8.7761424,12 9,11.776142 9,11.5 9,11.223858 8.7761424,11 8.5,11 H 8 V 10.5 C 8,10.223858 7.7761424,10 7.5,10 Z m 10,0 C 17.223858,10 17,10.223858 17,10.5 17,10.776142 17.223858,11 17.5,11 17.776142,11 18,10.776142 18,10.5 18,10.223858 17.776142,10 17.5,10 Z m -1,1 C 16.223858,11 16,11.223858 16,11.5 16,11.776142 16.223858,12 16.5,12 16.776142,12 17,11.776142 17,11.5 17,11.223858 16.776142,11 16.5,11 Z m 2,0 C 18.223858,11 18,11.223858 18,11.5 18,11.776142 18.223858,12 18.5,12 18.776142,12 19,11.776142 19,11.5 19,11.223858 18.776142,11 18.5,11 Z m -1,1 C 17.223858,12 17,12.223858 17,12.5 17,12.776142 17.223858,13 17.5,13 17.776142,13 18,12.776142 18,12.5 18,12.223858 17.776142,12 17.5,12 Z"
     id="path5"
     sodipodi:nodetypes="ssccccccsscsssccccccsscssssscsssscssssccssscssssscssscssscssscssssssssssssssssssssss" />
</svg>
