<?xml version="1.0" encoding="UTF-8" standalone="no"?>
<svg
   width="24"
   height="24"
   version="1.1"
   id="svg9"
   sodipodi:docname="remote-folder-sync-up.svg"
   inkscape:version="1.1.2 (0a00cf5339, 2022-02-04)"
   xmlns:inkscape="http://www.inkscape.org/namespaces/inkscape"
   xmlns:sodipodi="http://sodipodi.sourceforge.net/DTD/sodipodi-0.dtd"
   xmlns="http://www.w3.org/2000/svg"
   xmlns:svg="http://www.w3.org/2000/svg">
  <sodipodi:namedview
     id="namedview11"
     pagecolor="#000000"
     bordercolor="#666666"
     borderopacity="1.0"
     inkscape:pageshadow="2"
     inkscape:pageopacity="0"
     inkscape:pagecheckerboard="0"
     showgrid="false"
     inkscape:zoom="31.5"
     inkscape:cx="12"
     inkscape:cy="12"
     inkscape:window-width="1880"
     inkscape:window-height="966"
     inkscape:window-x="0"
     inkscape:window-y="29"
     inkscape:window-maximized="1"
     inkscape:current-layer="g7" />
  <defs
     id="defs3">
    <style
       id="current-color-scheme"
       type="text/css">
   .ColorScheme-Text { color:#eeeeec; } .ColorScheme-Highlight { color:#367bf0; } .ColorScheme-NeutralText { color:#ffcc44; } .ColorScheme-PositiveText { color:#3db47e; } .ColorScheme-NegativeText { color:#dd4747; }
  </style>
  </defs>
  <g
     transform="translate(-32,-908.36)"
     id="g7">
    <path
       style="opacity:0.5;fill:currentColor"
       class="ColorScheme-Text"
       d="m 38,914.36 c 0,0 -1,0 -1,1 v 11 c 0,0 0,1 1,1 h 12 c 0,0 1,0 1,-1 v -9 c 0,-1 -1,-1 -1,-1 h -4.659875 v 0 L 44.792504,916.1525 43.28487,914.64487 42.641813,914.36 v 0 z m 6.351332,3.43917 v 0 l 3.289433,4.11179 -0.142354,0.44904 v 0 H 46 v 3 h -4 v -3 h -1.453638 v 0 l -0.169299,-0.47133 3.313954,-4.14244 z"
       id="path5"
       sodipodi:nodetypes="cscscsscccccccccccccccccccccc" />
  </g>
</svg>
