<?xml version="1.0" encoding="UTF-8" standalone="no"?>
<svg
   width="24"
   height="24"
   version="1.1"
   id="svg495803"
   sodipodi:docname="rto-proxy-tray.svg"
   inkscape:version="1.1.2 (0a00cf5339, 2022-02-04)"
   xmlns:inkscape="http://www.inkscape.org/namespaces/inkscape"
   xmlns:sodipodi="http://sodipodi.sourceforge.net/DTD/sodipodi-0.dtd"
   xmlns="http://www.w3.org/2000/svg"
   xmlns:svg="http://www.w3.org/2000/svg">
  <sodipodi:namedview
     id="namedview495805"
     pagecolor="#000000"
     bordercolor="#666666"
     borderopacity="1.0"
     inkscape:pageshadow="2"
     inkscape:pageopacity="0"
     inkscape:pagecheckerboard="0"
     showgrid="false"
     inkscape:zoom="34.458333"
     inkscape:cx="12.01451"
     inkscape:cy="12"
     inkscape:window-width="1920"
     inkscape:window-height="1051"
     inkscape:window-x="0"
     inkscape:window-y="29"
     inkscape:window-maximized="1"
     inkscape:current-layer="svg495803" />
  <defs
     id="defs495799">
    <style
       id="current-color-scheme"
       type="text/css">
   .ColorScheme-Text { color:#eeeeec; } .ColorScheme-Highlight { color:#367bf0; } .ColorScheme-NeutralText { color:#ffcc44; } .ColorScheme-PositiveText { color:#3db47e; } .ColorScheme-NegativeText { color:#dd4747; }
  </style>
  </defs>
  <path
     style="fill:currentColor"
     class="ColorScheme-Text"
     d="M 12,4.0000001 C 7.581722,4.0000002 4.0000001,7.581722 4,12 c 0,4.418278 3.5817219,8 8,8 4.418278,0 8,-3.581722 8,-8 0,-4.418278 -3.581722,-7.9999999 -8,-7.9999999 z m -0.220978,2.9707297 0.450912,0.019079 1.314988,2.8012069 2.873875,0.4402601 v 0 l 0.116567,0.565289 -2.035364,2.086248 0.486169,2.981406 -0.401871,0.356165 v 0 L 12,14.791016 9.4126363,16.22208 9.0088324,15.894873 v 0 L 9.5,12.882813 7.3793973,10.709195 v 0 L 7.4989698,10.243874 10.455078,9.7910159 Z"
     id="path495801"
     sodipodi:nodetypes="sssssccccccccccccccccccccc" />
</svg>
