<?xml version="1.0" encoding="UTF-8" standalone="no"?>
<svg
   width="24"
   height="24"
   version="1.1"
   id="svg9"
   sodipodi:docname="scc-dead.svg"
   inkscape:version="1.1.2 (0a00cf5339, 2022-02-04)"
   xmlns:inkscape="http://www.inkscape.org/namespaces/inkscape"
   xmlns:sodipodi="http://sodipodi.sourceforge.net/DTD/sodipodi-0.dtd"
   xmlns="http://www.w3.org/2000/svg"
   xmlns:svg="http://www.w3.org/2000/svg">
  <sodipodi:namedview
     id="namedview11"
     pagecolor="#ffffff"
     bordercolor="#666666"
     borderopacity="1.0"
     inkscape:pageshadow="2"
     inkscape:pageopacity="0.0"
     inkscape:pagecheckerboard="0"
     showgrid="false"
     inkscape:zoom="31.5"
     inkscape:cx="12"
     inkscape:cy="12"
     inkscape:window-width="1880"
     inkscape:window-height="966"
     inkscape:window-x="0"
     inkscape:window-y="29"
     inkscape:window-maximized="1"
     inkscape:current-layer="svg9" />
  <defs
     id="defs3">
    <style
       id="current-color-scheme"
       type="text/css">
   .ColorScheme-Text { color:#eeeeec; } .ColorScheme-Highlight { color:#367bf0; } .ColorScheme-NeutralText { color:#ffcc44; } .ColorScheme-PositiveText { color:#3db47e; } .ColorScheme-NegativeText { color:#dd4747; }
  </style>
  </defs>
  <path
     style="opacity:.35;fill:currentColor"
     class="ColorScheme-Text"
     d="m 7.024577,5.0001494 v 0.00195 c -2.4887083,0 -4.3594234,2.0010688 -4.4902344,4.480469 L 2.0362958,17.943508 c -0.3150264,1.85 1.482515,3.017141 2.9941406,0.994141 0.9425788,-1.279 2.96875,-3.9375 2.96875,-3.9375 l 7.9999996,0.04102 2.988281,4.021484 c 1.499025,2.012 3.18661,0.357874 2.996094,-1.003906 L 21.487467,9.5841334 c 7.84e-4,-0.03462 0.0098,-0.06674 0.0098,-0.101562 -6.4e-5,-2.4824001 -2.00196,-4.482422 -4.490269,-4.482422 h -5.007812 a 5,5 0 0 1 5,4.9999996 5,5 0 0 1 -5,5 5,5 0 0 1 -4.9999996,-5 5,5 0 0 1 4.9999996,-4.9999996 z"
     id="path5" />
  <path
     style="fill:currentColor"
     class="ColorScheme-Text"
     d="m 14.827613,7.1721237 c -1.562097,-1.5620968 -4.094757,-1.5620968 -5.6568537,0 -1.5620965,1.5620971 -1.5620965,4.0947563 0,5.6568533 1.5620967,1.562097 4.0947567,1.562097 5.6568537,0 1.562097,-1.562097 1.562097,-4.0947562 0,-5.6568533 z m -0.707107,0.7071068 c 0.960873,0.9602679 1.148378,2.4339175 0.493061,3.5948735 -0.05105,0.09043 0.06131,-0.08625 0,0 l -0.380843,0.05288 -3.666556,-3.6665561 -0.0076,-0.48613 c 0.09536,-0.067786 -0.100432,0.055247 0,0 1.154594,-0.635134 2.609331,-0.4446022 3.561985,0.5049346 z m -4.7607982,0.6931416 0.4678542,-0.036339 3.666436,3.6664358 -0.01628,0.403145 c -0.08334,0.05924 0.08726,-0.04966 0,0 C 12.31722,13.266026 10.840966,13.081819 9.8778661,12.12187 8.9294689,11.174069 8.7344878,9.7261317 9.3597078,8.5723721 c 0.057565,-0.1062291 -0.071524,0.1006214 0,0 z"
     id="path7"
     sodipodi:nodetypes="ssssscsccccscccccscsc" />
</svg>
