<?xml version="1.0" encoding="UTF-8" standalone="no"?>
<svg
   width="24"
   height="24"
   version="1.1"
   id="svg7"
   sodipodi:docname="screencloud-uploading.svg"
   inkscape:version="1.1.2 (0a00cf5339, 2022-02-04)"
   xmlns:inkscape="http://www.inkscape.org/namespaces/inkscape"
   xmlns:sodipodi="http://sodipodi.sourceforge.net/DTD/sodipodi-0.dtd"
   xmlns="http://www.w3.org/2000/svg"
   xmlns:svg="http://www.w3.org/2000/svg">
  <sodipodi:namedview
     id="namedview9"
     pagecolor="#ffffff"
     bordercolor="#666666"
     borderopacity="1.0"
     inkscape:pageshadow="2"
     inkscape:pageopacity="0.0"
     inkscape:pagecheckerboard="0"
     showgrid="false"
     inkscape:zoom="31.5"
     inkscape:cx="12"
     inkscape:cy="12"
     inkscape:window-width="1880"
     inkscape:window-height="966"
     inkscape:window-x="0"
     inkscape:window-y="29"
     inkscape:window-maximized="1"
     inkscape:current-layer="svg7" />
  <defs
     id="defs3">
    <style
       id="current-color-scheme"
       type="text/css">
   .ColorScheme-Text { color:#eeeeec; } .ColorScheme-Highlight { color:#367bf0; } .ColorScheme-NeutralText { color:#ffcc44; } .ColorScheme-PositiveText { color:#3db47e; } .ColorScheme-NegativeText { color:#dd4747; }
  </style>
  </defs>
  <path
     style="fill:currentColor"
     class="ColorScheme-Text"
     d="M 9.5,6 C 6.4624339,6 4,8.4624339 4,11.5 4.00244,11.720141 4.018091,11.939938 4.046875,12.158203 2.8250871,12.567585 2.0011893,13.711451 2,15 c 0,1.656854 1.3431458,3 3,3 h 14 c 1.656854,0 3,-1.343146 3,-3 C 21.9987,13.726732 21.193805,12.592982 19.992188,12.171875 19.996023,12.114646 19.998629,12.057341 20,12 20,9.790861 18.209139,8 16,8 15.335328,8.0015368 14.681516,8.1686818 14.097656,8.4863281 13.08199,6.9357523 11.353608,6.0010752 9.5,6 Z M 6.984375,8 C 7.537375,8 8,8.448 8,9 8,9.552 7.537375,10 6.984375,10 6.431375,10 6,9.552 6,9 6,8.448 6.432275,8 6.984375,8 Z M 12,9 11.660914,9.5651427 12.392827,9.6547119 14.678568,13.46428 14.260812,14 v 0 H 13 v 3 H 11 V 14 H 9.6573777 l -0.296025,-0.602255 v 0 L 11.660914,9.5651427 Z"
     id="path5"
     sodipodi:nodetypes="ccccssccccccsssssccccccccccccccc" />
</svg>
