<?xml version="1.0" encoding="UTF-8" standalone="no"?>
<svg
   width="24"
   height="24"
   version="1.1"
   id="svg11"
   sodipodi:docname="seafile-status-syncing-1.svg"
   inkscape:version="1.1.2 (0a00cf5339, 2022-02-04)"
   xmlns:inkscape="http://www.inkscape.org/namespaces/inkscape"
   xmlns:sodipodi="http://sodipodi.sourceforge.net/DTD/sodipodi-0.dtd"
   xmlns="http://www.w3.org/2000/svg"
   xmlns:svg="http://www.w3.org/2000/svg">
  <sodipodi:namedview
     id="namedview13"
     pagecolor="#000000"
     bordercolor="#666666"
     borderopacity="1.0"
     inkscape:pageshadow="2"
     inkscape:pageopacity="0"
     inkscape:pagecheckerboard="0"
     showgrid="false"
     inkscape:zoom="34.458333"
     inkscape:cx="12.01451"
     inkscape:cy="12"
     inkscape:window-width="1920"
     inkscape:window-height="1051"
     inkscape:window-x="0"
     inkscape:window-y="29"
     inkscape:window-maximized="1"
     inkscape:current-layer="g9" />
  <defs
     id="defs3">
    <style
       id="current-color-scheme"
       type="text/css">
   .ColorScheme-Text { color:#eeeeec; } .ColorScheme-Highlight { color:#367bf0; } .ColorScheme-NeutralText { color:#ffcc44; } .ColorScheme-PositiveText { color:#3db47e; } .ColorScheme-NegativeText { color:#dd4747; }
  </style>
  </defs>
  <g
     transform="translate(1 2)"
     id="g9">
    <path
       style="fill:currentColor"
       class="ColorScheme-Text"
       d="m 14.5,6.0149 c -2.2208,0 -4.1069,1.6249 -4.4414,3.8179 C 9.50254,9.30651 8.766,9.01265 8,9.01145 c -1.6569,0 -3,1.3416 -3,2.9965 0.00109,0.3432 0.061206,0.68371 0.17773,1.0066 -0.0591,-0.01 -0.1184,-0.01 -0.17773,-0.01 -1.1046,0 -2,0.89437 -2,1.9977 0,1.10333 0.89543,1.9977 2,1.9977 h 1.0449 c 0.37118,-0.10248 0.64896,-0.20327 0.9668,-0.47795 0.33976,-0.29376 3.4977,-5.4996 6.377,-5.4996 1.5268,5.99e-4 3.0074,0.74814 3.5254,2.7976 0.04577,0.19208 0.1078,0.56485 0.08594,0.68281 0,0.82744 -0.67157,1.4983 -1.5,1.4983 -0.82843,0 -1.5,-0.67083 -1.5,-1.4983 -6.3e-5,-0.613026 0.36875,-1.141083 0.898048,-1.372929 0.177979,-0.07796 -0.206348,0.0029 0,0 -0.249284,-0.158246 0.05279,-0.40721 -0.218682,-0.488773 -0.23865,-0.0717 -0.47196,-0.110922 -0.675466,-0.112648 -1.181,-0.01 -1.917,1.0223 -2.0215,1.9451 -0.1034,0.91325 0.1956,1.9742 2.0098,2.5264 h 4.5078 c 1.3807,0 2.5,-1.118 2.5,-2.4971 -4.6e-4,-1.2888 -0.98284,-2.3656 -2.2676,-2.4854 0.176,-0.485 0.266,-0.996 0.268,-1.511 0,-2.4819 -2.015,-4.4943 -4.5,-4.4943 z"
       id="path5"
       sodipodi:nodetypes="cccccssscccccscscscccsccccc" />
    <path
       opacity=".3"
       style="fill:currentColor"
       class="ColorScheme-Text"
       d="m8 4.0172a3 2.9965 0 0 0 -3 2.9965v0.27119a2 1.9977 0 0 0 -1 -0.27119 2 1.9977 0 0 0 -2 1.9977h-0.5a0.5 0.49942 0 0 0 -0.5 0.49942 0.5 0.49942 0 0 0 0.5 0.49942h0.77148 2.2891c0.6963-1.1859 1.9728-1.9974 3.4395-1.9974h0.00195c0.53313 0.000799 1.0499 0.11776 1.5332 0.31993 0.32866-0.74504 0.80826-1.404 1.3984-1.9353a3 2.9965 0 0 0 -2.934 -2.3972z"
       id="path7" />
  </g>
</svg>
