<?xml version="1.0" encoding="UTF-8" standalone="no"?>
<svg
   width="24"
   height="24"
   version="1.1"
   id="svg7"
   sodipodi:docname="seafile-status-error.svg"
   inkscape:version="1.1.2 (0a00cf5339, 2022-02-04)"
   xmlns:inkscape="http://www.inkscape.org/namespaces/inkscape"
   xmlns:sodipodi="http://sodipodi.sourceforge.net/DTD/sodipodi-0.dtd"
   xmlns="http://www.w3.org/2000/svg"
   xmlns:svg="http://www.w3.org/2000/svg">
  <sodipodi:namedview
     id="namedview9"
     pagecolor="#ffffff"
     bordercolor="#666666"
     borderopacity="1.0"
     inkscape:pageshadow="2"
     inkscape:pageopacity="0.0"
     inkscape:pagecheckerboard="0"
     showgrid="false"
     inkscape:zoom="34.458333"
     inkscape:cx="12.01451"
     inkscape:cy="12"
     inkscape:window-width="1920"
     inkscape:window-height="1051"
     inkscape:window-x="0"
     inkscape:window-y="29"
     inkscape:window-maximized="1"
     inkscape:current-layer="svg7" />
  <defs
     id="defs3">
    <style
       id="current-color-scheme"
       type="text/css">
   .ColorScheme-Text { color:#eeeeec; } .ColorScheme-Highlight { color:#367bf0; } .ColorScheme-NeutralText { color:#ffcc44; } .ColorScheme-PositiveText { color:#3db47e; } .ColorScheme-NegativeText { color:#dd4747; }
  </style>
  </defs>
  <path
     style="fill:currentColor"
     class="ColorScheme-NegativeText"
     d="m 9,6 v 0.017578 c -1.6566979,0 -2.9997788,1.341335 -3,2.9961 v 0.27148 C 5.6963344,9.1084811 5.351423,9.0148445 5,9.013678 c -1.1046868,0 -2.0001659,0.8945836 -2,1.998 H 2.5 c -0.2763693,0 -0.500321,0.223951 -0.5,0.5 7.56e-4,0.275287 0.2243924,0.498051 0.5,0.49805 h 0.77148 2.2891 c 0.69631,-1.1861 1.9728,-1.998 3.4395,-1.998 h 0.00195 c 0.53313,7.99e-4 1.0499,0.11815 1.5332,0.32031 0.32866,-0.74504 0.8083,-1.4043 1.3984,-1.9355 -0.284874,-1.3930062 -1.510571,-2.3942849 -2.934,-2.3968 z m 6.5,2.0117 v 0.00391 c -2.2208,0 -4.1069,1.6234 -4.4414,3.8164 C 10.50254,11.30571 9.766,11.01289 9,11.01169 c -1.6569,0 -3,1.3411 -3,2.9961 0.00109,0.3432 0.06121,0.68293 0.17773,1.0059 -0.0591,-0.01 -0.1184,-0.0098 -0.17773,-0.0098 -1.1046,0 -2,0.89472 -2,1.998 0,1.1034 0.89543,1.9981 2,1.9981 h 1.0449 c 0.37118,-0.10248 0.64896,-0.20383 0.9668,-0.47852 0.33976,-0.29376 3.4977,-5.498 6.377,-5.498 1.5268,5.98e-4 3.0074,0.74744 3.5254,2.7969 0.04577,0.19208 0.1078,0.56368 0.08594,0.68164 0,0.82744 -0.67157,1.5 -1.5,1.5 -0.82843,0 -1.5,-0.67256 -1.5,-1.5 -5.8e-5,-0.564778 0.31299,-1.05734 0.776165,-1.312598 0.20862,-0.114971 -0.254639,0.0036 0,0 -0.23679,-0.150315 0.2025,-0.454395 -0.05594,-0.535489 -0.252815,-0.07933 -0.501221,-0.122693 -0.716329,-0.124523 -1.181,-0.01 -1.917,1.0206 -2.0215,1.9434 -0.1034,0.91325 0.19556,1.9752 2.0098,2.5273 h 4.508 c 1.381,0 2.5,-1.119 2.5,-2.498 0,-1.289 -0.983,-2.365 -2.268,-2.484 0.176,-0.485 0.266,-0.995 0.268,-1.51 0,-2.483 -2.015,-4.4963 -4.5,-4.4963 z"
     id="path5"
     sodipodi:nodetypes="ccccccsccccscccccccccccssscccccscscscccsscccc" />
</svg>
