<?xml version="1.0" encoding="UTF-8" standalone="no"?>
<svg
   width="24"
   height="24"
   version="1.1"
   id="svg9"
   sodipodi:docname="security-medium.svg"
   inkscape:version="1.1.2 (0a00cf5339, 2022-02-04)"
   xmlns:inkscape="http://www.inkscape.org/namespaces/inkscape"
   xmlns:sodipodi="http://sodipodi.sourceforge.net/DTD/sodipodi-0.dtd"
   xmlns="http://www.w3.org/2000/svg"
   xmlns:svg="http://www.w3.org/2000/svg">
  <sodipodi:namedview
     id="namedview11"
     pagecolor="#ffffff"
     bordercolor="#666666"
     borderopacity="1.0"
     inkscape:pageshadow="2"
     inkscape:pageopacity="0.0"
     inkscape:pagecheckerboard="0"
     showgrid="false"
     inkscape:zoom="44.547727"
     inkscape:cx="14.366614"
     inkscape:cy="10.123973"
     inkscape:window-width="1880"
     inkscape:window-height="966"
     inkscape:window-x="0"
     inkscape:window-y="29"
     inkscape:window-maximized="1"
     inkscape:current-layer="g7" />
  <defs
     id="defs3">
    <style
       id="current-color-scheme"
       type="text/css">
   .ColorScheme-Text { color:#eeeeec; } .ColorScheme-Highlight { color:#367bf0; } .ColorScheme-NeutralText { color:#ffcc44; } .ColorScheme-PositiveText { color:#3db47e; } .ColorScheme-NegativeText { color:#dd4747; }
  </style>
  </defs>
  <g
     transform="translate(-544,402.01)"
     id="g7">
    <path
       style="fill:currentColor"
       class="ColorScheme-NeutralText"
       d="m 4,3.2479406 v 0 V 11.604 c -2e-4,4.947 7,7.396 7,7.396 0,0 7,-2.449 7,-7.396 V 3.2611772 L 17.70488,3 V 3 H 4.2578071 Z M 6.3087623,5 V 5 H 10.720955 V 5 L 11,5.3250006 V 10 h 4.736921 v 0 L 16,10.276828 V 12.199 c 0,2.887046 -3.192578,4.225692 -4.475537,4.647079 C 11.201861,16.952038 11,16.562767 11,16.562767 v 0 V 10 H 6.3715975 v 0 L 6,9.6738756 v -4.380685 z"
       transform="translate(545,-401.01)"
       id="path5"
       sodipodi:nodetypes="ccccsccccccccccccccsscccccccc" />
  </g>
</svg>
