<?xml version="1.0" encoding="UTF-8" standalone="no"?>
<svg
   width="24"
   height="24"
   version="1"
   id="svg7"
   sodipodi:docname="simplescreenrecorder-error.svg"
   inkscape:version="1.1.2 (0a00cf5339, 2022-02-04)"
   xmlns:inkscape="http://www.inkscape.org/namespaces/inkscape"
   xmlns:sodipodi="http://sodipodi.sourceforge.net/DTD/sodipodi-0.dtd"
   xmlns="http://www.w3.org/2000/svg"
   xmlns:svg="http://www.w3.org/2000/svg">
  <sodipodi:namedview
     id="namedview9"
     pagecolor="#ffffff"
     bordercolor="#666666"
     borderopacity="1.0"
     inkscape:pageshadow="2"
     inkscape:pageopacity="0.0"
     inkscape:pagecheckerboard="0"
     showgrid="false"
     inkscape:zoom="31.5"
     inkscape:cx="12"
     inkscape:cy="12"
     inkscape:window-width="1880"
     inkscape:window-height="966"
     inkscape:window-x="0"
     inkscape:window-y="29"
     inkscape:window-maximized="1"
     inkscape:current-layer="svg7" />
  <defs
     id="defs3">
    <style
       id="current-color-scheme"
       type="text/css">
   .ColorScheme-Text { color:#eeeeec; } .ColorScheme-Highlight { color:#367bf0; } .ColorScheme-NeutralText { color:#ffcc44; } .ColorScheme-PositiveText { color:#3db47e; } .ColorScheme-NegativeText { color:#dd4747; }
  </style>
  </defs>
  <path
     style="fill:currentColor"
     class="ColorScheme-NegativeText"
     d="M 4.1816406,6 C 3.5269406,6 3,6.5344188 3,7.1992188 V 16.800781 C 3,17.465781 3.5269406,18 4.1816406,18 H 15.818359 C 16.473359,18 17,17.465781 17,16.800781 v -2.507742 0 l 0.284166,-0.179373 4.269152,1.707661 v 0 L 22,15.467615 V 8.5787237 L 21.597833,8.1608668 v 0 l -4.302003,1.720801 v 0 L 17,9.6896798 V 7.1992188 C 17,6.5344187 16.473359,6 15.818359,6 Z M 7.4758258,8.3015181 8.1497265,8.3723827 10,10.222656 11.92061,8.3020464 v 0 l 0.642026,0.037934 1.126893,1.1268926 v 0 l 0.0084,0.612501 L 11.777344,12 l 1.943523,1.943523 v 0 l -0.0386,0.596869 -1.174432,1.17443 -0.548455,0.0219 v 0 L 10,13.777344 8.0950182,15.682326 v 0 l -0.6596757,-0.02433 -1.158733,-1.158733 v 0 L 6.2858159,13.93684 8.2226562,12 6.3407955,10.118139 v 0 l 0.00817,-0.6897603 z"
     id="path5"
     sodipodi:nodetypes="ssssssccccccccccccsssccccccccccccccccccccccccccccc" />
</svg>
