<?xml version="1.0" encoding="UTF-8" standalone="no"?>
<svg
   width="24"
   height="24"
   version="1.1"
   id="svg9"
   sodipodi:docname="smartcode-stremio-tray.svg"
   inkscape:version="1.1.2 (0a00cf5339, 2022-02-04)"
   xmlns:inkscape="http://www.inkscape.org/namespaces/inkscape"
   xmlns:sodipodi="http://sodipodi.sourceforge.net/DTD/sodipodi-0.dtd"
   xmlns="http://www.w3.org/2000/svg"
   xmlns:svg="http://www.w3.org/2000/svg">
  <sodipodi:namedview
     id="namedview11"
     pagecolor="#000000"
     bordercolor="#666666"
     borderopacity="1.0"
     inkscape:pageshadow="2"
     inkscape:pageopacity="0"
     inkscape:pagecheckerboard="0"
     showgrid="false"
     inkscape:zoom="31.5"
     inkscape:cx="12"
     inkscape:cy="12"
     inkscape:window-width="1880"
     inkscape:window-height="966"
     inkscape:window-x="0"
     inkscape:window-y="29"
     inkscape:window-maximized="1"
     inkscape:current-layer="svg9" />
  <defs
     id="defs3">
    <style
       id="current-color-scheme"
       type="text/css">
   .ColorScheme-Text { color:#eeeeec; } .ColorScheme-Highlight { color:#367bf0; } .ColorScheme-NeutralText { color:#ffcc44; } .ColorScheme-PositiveText { color:#3db47e; } .ColorScheme-NegativeText { color:#dd4747; }
  </style>
  </defs>
  <path
     style="opacity:0.35;fill:currentColor"
     class="ColorScheme-Text"
     d="m 12,3.9999266 c -0.419066,0 -0.839081,0.155495 -1.152343,0.46875 L 4.4687506,10.849536 c -0.3134475,0.313439 -0.4691604,0.731399 -0.46875,1.150391 H 11 V 9.5311095 l 0.457257,-0.1882402 v 0 L 15,11.999927 h 5 c 0,-0.418969 -0.157441,-0.837136 -0.470703,-1.150391 L 13.152344,4.4686766 C 12.839082,4.1554217 12.419067,3.9999266 12,3.9999266 Z"
     id="path5"
     sodipodi:nodetypes="scccccccccccs" />
  <path
     style="fill:currentColor"
     class="ColorScheme-Text"
     d="m 4.0000006,11.999927 c 4.114e-4,0.418498 0.1576125,0.83732 0.4707031,1.15039 l 6.3789063,6.378907 c 0.626525,0.62651 1.676208,0.628419 2.302734,0.002 l 6.376953,-6.380907 C 19.842559,12.837063 20,12.418896 20,11.999927 h -5 l -3.49885,2.624138 v 0 L 11,14.451608 v -2.451681 z"
     id="path7"
     sodipodi:nodetypes="cccccccccccc" />
</svg>
