<?xml version="1.0" encoding="UTF-8" standalone="no"?>
<svg
   width="24"
   height="24"
   version="1.1"
   id="svg11"
   sodipodi:docname="smartphoneattention.svg"
   inkscape:version="1.1.2 (0a00cf5339, 2022-02-04)"
   xmlns:inkscape="http://www.inkscape.org/namespaces/inkscape"
   xmlns:sodipodi="http://sodipodi.sourceforge.net/DTD/sodipodi-0.dtd"
   xmlns="http://www.w3.org/2000/svg"
   xmlns:svg="http://www.w3.org/2000/svg">
  <sodipodi:namedview
     id="namedview13"
     pagecolor="#ffffff"
     bordercolor="#666666"
     borderopacity="1.0"
     inkscape:pageshadow="2"
     inkscape:pageopacity="0.0"
     inkscape:pagecheckerboard="0"
     showgrid="false"
     inkscape:zoom="31.5"
     inkscape:cx="12"
     inkscape:cy="12"
     inkscape:window-width="1880"
     inkscape:window-height="966"
     inkscape:window-x="0"
     inkscape:window-y="29"
     inkscape:window-maximized="1"
     inkscape:current-layer="g9" />
  <defs
     id="defs3">
    <style
       id="current-color-scheme"
       type="text/css">
   .ColorScheme-Text { color:#eeeeec; } .ColorScheme-Highlight { color:#367bf0; } .ColorScheme-NeutralText { color:#ffcc44; } .ColorScheme-PositiveText { color:#3db47e; } .ColorScheme-NegativeText { color:#dd4747; }
  </style>
  </defs>
  <g
     transform="translate(1,1)"
     id="g9">
    <path
       style="fill:currentColor"
       class="ColorScheme-Text"
       d="M 7,3 C 6,3 6,4 6,4 V 18 C 6,18 6,19 7,19 H 14 V 15 H 8 V 6 L 14,6 V 10 H 16 V 4 C 16,4 16,3 15,3 Z M 10.5,16 H 11.5 C 11.5,16 12,16 12,16.5 V 17.5 C 12,17.5 12,18 11.5,18 H 10.5 C 10.5,18 10,18 10,17.5 V 16.5 C 10,16.5 10,16 10.5,16 Z"
       id="path5" />
    <path
       style="fill:currentColor"
       class="ColorScheme-NeutralText"
       d="m 15,11.324645 v 0 V 15 l 0.25,2 h 1.5 L 17,15 V 11.229215 L 16.720443,11 v 0 h -1.396964 z m 0,6.983842 v 0 1.364957 L 15.260641,20 v 0 h 1.459802 L 17,19.705254 v 0 -1.364957 0 C 16.884431,18.340297 16.781282,18 16.688573,18 c -0.779322,0 -0.820908,0 -1.301347,0 z"
       id="path7"
       sodipodi:nodetypes="cccccccccccccccccccccscc" />
  </g>
</svg>
