<?xml version="1.0" encoding="UTF-8" standalone="no"?>
<svg
   width="24"
   height="24"
   version="1.1"
   id="svg523225"
   sodipodi:docname="state-ok.svg"
   inkscape:version="1.1.2 (0a00cf5339, 2022-02-04)"
   xmlns:inkscape="http://www.inkscape.org/namespaces/inkscape"
   xmlns:sodipodi="http://sodipodi.sourceforge.net/DTD/sodipodi-0.dtd"
   xmlns="http://www.w3.org/2000/svg"
   xmlns:svg="http://www.w3.org/2000/svg">
  <sodipodi:namedview
     id="namedview523227"
     pagecolor="#000000"
     bordercolor="#666666"
     borderopacity="1.0"
     inkscape:pageshadow="2"
     inkscape:pageopacity="0"
     inkscape:pagecheckerboard="0"
     showgrid="false"
     inkscape:zoom="34.458333"
     inkscape:cx="12.01451"
     inkscape:cy="12"
     inkscape:window-width="1920"
     inkscape:window-height="1051"
     inkscape:window-x="0"
     inkscape:window-y="29"
     inkscape:window-maximized="1"
     inkscape:current-layer="g523223" />
  <defs
     id="defs523219">
    <style
       id="current-color-scheme"
       type="text/css">
   .ColorScheme-Text { color:#eeeeec; } .ColorScheme-Highlight { color:#367bf0; } .ColorScheme-NeutralText { color:#ffcc44; } .ColorScheme-PositiveText { color:#3db47e; } .ColorScheme-NegativeText { color:#dd4747; }
  </style>
  </defs>
  <g
     transform="translate(-624 -500)"
     id="g523223">
    <path
       style="fill:currentColor"
       class="ColorScheme-Text"
       d="m 636,504 c -4.4183,0 -8,3.5817 -8,8 0,4.4183 3.5817,8 8,8 4.4183,0 8,-3.5817 8,-8 0,-4.4183 -3.5817,-8 -8,-8 z m 3.62765,4.91085 v 0 l 0.68277,0.68277 0.005,0.56605 v 0 l -3.96143,3.96143 -1.13167,1.13167 v 0 l -0.64777,-0.0829 -1.04876,-1.04876 -1.82524,-1.82524 -0.0452,-0.5465 v 0 l 0.91588,-0.91588 v 0 l 0.53103,0.0359 1.61193,1.61193 0.40945,0.042 v 0 l 3.66737,-3.66737 z"
       id="path523221"
       sodipodi:nodetypes="sssssccccccccccccccccccccc" />
  </g>
</svg>
