<?xml version="1.0" encoding="UTF-8" standalone="no"?>
<svg
   width="24"
   height="24"
   version="1.1"
   id="svg1263351"
   sodipodi:docname="steadyflow-alert-panel.svg"
   inkscape:version="1.1.2 (0a00cf5339, 2022-02-04)"
   xmlns:inkscape="http://www.inkscape.org/namespaces/inkscape"
   xmlns:sodipodi="http://sodipodi.sourceforge.net/DTD/sodipodi-0.dtd"
   xmlns="http://www.w3.org/2000/svg"
   xmlns:svg="http://www.w3.org/2000/svg">
  <sodipodi:namedview
     id="namedview1263353"
     pagecolor="#000000"
     bordercolor="#666666"
     borderopacity="1.0"
     inkscape:pageshadow="2"
     inkscape:pageopacity="0"
     inkscape:pagecheckerboard="0"
     showgrid="false"
     inkscape:zoom="34.458333"
     inkscape:cx="12.01451"
     inkscape:cy="12"
     inkscape:window-width="1920"
     inkscape:window-height="1051"
     inkscape:window-x="0"
     inkscape:window-y="29"
     inkscape:window-maximized="1"
     inkscape:current-layer="svg1263351" />
  <defs
     id="defs1263345">
    <style
       id="current-color-scheme"
       type="text/css">
   .ColorScheme-Text { color:#eeeeec; } .ColorScheme-Highlight { color:#367bf0; } .ColorScheme-NeutralText { color:#ffcc44; } .ColorScheme-PositiveText { color:#3db47e; } .ColorScheme-NegativeText { color:#dd4747; }
  </style>
  </defs>
  <path
     style="fill:currentColor"
     class="ColorScheme-Text"
     d="M 13.5,5 C 11.9613,5 10.529878,5.7888906 9.7050781,7.0878906 9.4743581,7.0308906 9.23768,7.001 9,7 7.3431,7 6,8.3431 6,10 6.0011,10.4065 6.0848637,10.808541 6.2460938,11.181641 4.3242937,11.738641 3.0015,13.499 3,15.5 3,17.9853 5.0147,20 7.5,20 l 6.445312,0 -3.814453,-4.162109 A 0.50005,0.50005 0 0 1 10.5,15.037109 l 2.5,0 0,-4.5 a 0.50005,0.50005 0 0 1 0.5,-0.5 l 5,0 a 0.50005,0.50005 0 0 1 0.210938,0.04687 c -0.226,-0.1629996 -0.463797,-0.3126059 -0.716797,-0.4414059 0.0024,-0.035 0.0043,-0.069969 0.0059,-0.1054687 0,-2.4853 -2.0147,-4.5 -4.5,-4.5 L 13.5,5 Z m 5.402344,5.201172 A 0.50005,0.50005 0 0 1 19,10.5 l 0,4.5 1.957031,0 C 20.972191,14.8337 21,14.6703 21,14.5 20.9977,12.8014 20.204554,11.230272 18.902344,10.201172 Z"
     id="path1263347" />
  <path
     style="fill:currentColor"
     class="ColorScheme-Highlight"
     d="m 14.0003,11.0012 v 4.5 c -2.8e-5,0.276131 -0.223869,0.499972 -0.5,0.5 h -1.187218 v 0 l -0.236266,0.479783 3.630305,3.960197 0.613941,-0.03009 v 0 l 3.55092,-3.873598 -0.179441,-0.536292 v 0 H 18.5003 c -0.276131,-2.8e-5 -0.499972,-0.223869 -0.5,-0.5 v -4.5 z"
     id="path1263349"
     sodipodi:nodetypes="cccccccccccccccc" />
</svg>
