<?xml version="1.0" encoding="UTF-8" standalone="no"?>
<svg
   width="24"
   height="24"
   version="1.1"
   id="svg9"
   sodipodi:docname="stock_weather-night-few-clouds.svg"
   inkscape:version="1.1.2 (0a00cf5339, 2022-02-04)"
   xmlns:inkscape="http://www.inkscape.org/namespaces/inkscape"
   xmlns:sodipodi="http://sodipodi.sourceforge.net/DTD/sodipodi-0.dtd"
   xmlns="http://www.w3.org/2000/svg"
   xmlns:svg="http://www.w3.org/2000/svg">
  <sodipodi:namedview
     id="namedview11"
     pagecolor="#000000"
     bordercolor="#666666"
     borderopacity="1.0"
     inkscape:pageshadow="2"
     inkscape:pageopacity="0"
     inkscape:pagecheckerboard="0"
     showgrid="false"
     inkscape:zoom="31.5"
     inkscape:cx="12"
     inkscape:cy="12"
     inkscape:window-width="1854"
     inkscape:window-height="966"
     inkscape:window-x="0"
     inkscape:window-y="29"
     inkscape:window-maximized="1"
     inkscape:current-layer="g7" />
  <defs
     id="defs3">
    <style
       id="current-color-scheme"
       type="text/css">
   .ColorScheme-Text { color:#eeeeec; } .ColorScheme-Highlight { color:#367bf0; } .ColorScheme-NeutralText { color:#ffcc44; } .ColorScheme-PositiveText { color:#3db47e; } .ColorScheme-NegativeText { color:#dd4747; }
  </style>
  </defs>
  <g
     transform="translate(-176.00033,-680.28985)"
     id="g7">
    <path
       style="fill:currentColor"
       class="ColorScheme-Text"
       d="m 10.267735,4.3704459 c -0.214142,0.00786 0.05724,-0.3079888 -0.153682,-0.2811357 -2.5102818,0.3195955 -4.7486041,1.9661445 -5.6745999,4.5102992 -1.26383,3.4723396 0.36867,7.3245696 3.6875,8.8124996 -0.0932,-0.33746 -0.14688,-0.70692 -0.125,-1.0625 0.0277,-1.00125 0.58397,-1.88737 1.375,-2.46875 -1.56688,-1.73319 -2.1355895,-4.2464594 -1.28125,-6.5937496 0.441947,-1.2142456 1.2135005,-2.1943267 2.1720319,-2.9166635 0.156621,-0.1180279 -0.165984,0.1041621 0,0 z m 3.734218,7.6354131 c -1.31168,0 -2.40482,0.85843 -2.8125,2.03125 -1.2308299,0.15597 -2.1874999,1.19557 -2.1874999,2.46875 0,1.38071 1.1192899,2.5 2.4999999,2.5 h 5.5 c 1.10457,0 2,-0.89543 2,-2 0,-1.10457 -0.89543,-2 -2,-2 0,-1.65685 -1.34315,-3 -3,-3 z"
       transform="translate(177,681.28999)"
       id="path5"
       sodipodi:nodetypes="csccccsscscsssscs" />
  </g>
</svg>
