<?xml version="1.0" encoding="UTF-8" standalone="no"?>
<svg
   width="24"
   height="24"
   version="1.1"
   id="svg7"
   sodipodi:docname="strawberry-panel.svg"
   inkscape:version="1.1.2 (0a00cf5339, 2022-02-04)"
   xmlns:inkscape="http://www.inkscape.org/namespaces/inkscape"
   xmlns:sodipodi="http://sodipodi.sourceforge.net/DTD/sodipodi-0.dtd"
   xmlns="http://www.w3.org/2000/svg"
   xmlns:svg="http://www.w3.org/2000/svg">
  <sodipodi:namedview
     id="namedview9"
     pagecolor="#000000"
     bordercolor="#666666"
     borderopacity="1.0"
     inkscape:pageshadow="2"
     inkscape:pageopacity="0"
     inkscape:pagecheckerboard="0"
     showgrid="false"
     inkscape:zoom="31.416667"
     inkscape:cx="12.015915"
     inkscape:cy="12"
     inkscape:window-width="1880"
     inkscape:window-height="966"
     inkscape:window-x="0"
     inkscape:window-y="29"
     inkscape:window-maximized="1"
     inkscape:current-layer="svg7" />
  <defs
     id="defs3">
    <style
       id="current-color-scheme"
       type="text/css">
   .ColorScheme-Text { color:#eeeeec; } .ColorScheme-Highlight { color:#367bf0; } .ColorScheme-NeutralText { color:#ffcc44; } .ColorScheme-PositiveText { color:#3db47e; } .ColorScheme-NegativeText { color:#dd4747; }
  </style>
  </defs>
  <path
     style="fill:currentColor"
     class="ColorScheme-Text"
     d="m 14.088,4.0001 c -0.089,0 -0.115,0.1809 -0.06,0.4198 0,0 0.157,0.7623 1.213,1.3207 0.734,0.363 0.733,0.5727 -0.005,0.7904 -0.321,0.0948 -0.712,0.2747 -0.868,0.3996 -0.257,0.206 -0.163,0.291 1.01,0.9161 0,0 1.425,0.7996 1.586,0.9349 0.279,0.2345 0.266,0.2675 -0.279,0.7235 -0.608,0.5079 -1.328,1.6969 -1.328,2.1929 0,0.268 0.119,0.29 1.121,0.205 l 1.893,-0.196 -0.055,1.349 c -0.03,0.743 -0.119,1.534 -0.197,1.76 -0.079,0.226 -0.111,0.445 -0.073,0.487 0.162,0.178 0.823,-0.214 1.277,-0.757 0.463,-0.554 0.493,-0.565 0.591,-0.225 0.332,0.61 0.479,1.144 0.994,1.678 0.115,0.012 0.203,-0.135 0.276,-0.439 0.227,-0.933 0.106,-1.836 -0.373,-2.77 -0.257,-0.502 -0.51,-1.295 -0.561,-1.761 0,0 -0.135,-1.007 -0.186,-1.2039 -0.079,-0.298 0.073,-0.473 0.923,-1.0611 0.968,-0.6698 1.218,-1.0509 0.852,-1.2988 -0.091,-0.0616 -0.57,0.1245 -1.065,0.4135 -0.495,0.289 -0.997,0.5254 -1.116,0.5254 -0.119,0 -0.492,-0.3618 -0.829,-0.8039 -0.585,-0.7684 -0.612,-0.8562 -0.612,-1.9903 0,-1.0775 -0.03,-1.191 -0.326,-1.2373 -0.239,-0.0374 -0.378,0.0865 -0.521,0.4658 -0.107,0.2843 -0.25,0.5168 -0.316,0.5168 -0.066,0 -1.465,-0.6775 -1.465,-0.6775 0,0 -1.415,-0.6776 -1.501,-0.6776 z m -0.874,1.041 -0.172,0.0118 C 10.6,5.3138 8.5629,6.827 6.2319,10.107 c -0.7038,0.991 -1.608,2.262 -2.0098,2.827 -1.6923,2.378 -1.6202,4.819 0.1739,5.845 1.1595,0.664 2.279,0.926 4.0527,0.951 0.8915,0.013 2.1983,0.078 2.9023,0.143 1.964,0.181 2.21,0.176 3.592,-0.064 1.547,-0.27 2.739,-0.831 3.697,-1.739 0.386,-0.365 0.853,-1.062 1.242,-1.771 L 19.554,15.65 c 0,0 -0.3,0.305 -0.469,0.405 -0.181,0.107 -0.361,0.201 -0.619,0.258 -0.258,0.056 -0.766,0.093 -1.158,-0.336 -0.348,-0.381 -0.272,-0.571 -0.277,-0.698 -0.005,-0.126 0.019,-0.299 0.019,-0.299 0.026,-0.17 0.065,-0.325 0.123,-0.492 0,0 0.036,-0.179 0.069,-0.47 l 0.0612,-0.868474 -0.180095,-0.302702 c 0,0 0.119486,-0.01206 0,0 -0.160202,0.01617 -0.385261,0.03828 -0.561106,0.05318 -0.512,0.044 -0.772,0.095 -1.201,0.016 -0.215,-0.039 -0.574,-0.176 -0.791,-0.488 -0.218,-0.312 -0.213,-0.59 -0.213,-0.731 0,-0.731 0.279,-1.112 0.58,-1.609 0.115082,-0.190251 0.338575,-0.4567986 0.512492,-0.6540237 0.135886,-0.1540981 -0.197382,-0.512229 -0.197382,-0.512229 v 0 L 14.908,8.7286 c 0,0 -0.889,-0.4352 -1.242,-0.7558 C 13.577,7.8926 13.473,7.7893 13.378,7.6075 13.284,7.4258 13.222,7.1349 13.271,6.8829 13.368,6.379 13.63,6.2415 13.744,6.1505 c 0.112,-0.09 -0.143619,-0.3801489 -0.03962,-0.4422489 -0.105015,-0.098507 0.121094,0.094928 0,0 C 13.579862,5.6106384 13.466358,5.5147023 13.404,5.42 13.314,5.2841 13.267,5.162 13.214,5.0411 Z m -1.023,2.9688 0.308,0.0019 c 0,0 0.244,0.0717 0.331,0.1582 0.346,0.3462 0.119,1.1351 -0.266,1.5201 -0.385,0.3839 -0.978,0.4159 -1.324,0.07 -0.347,-0.346 -0.315,-0.9398 0.07,-1.3244 0.216,-0.2164 0.56,-0.3833 0.881,-0.4258 z M 8.1909,10.01 8.4995,10.012 c 0,0 0.2435,0.071 0.3301,0.158 0.3461,0.346 0.119,1.135 -0.2657,1.519 C 8.1793,12.074 7.5859,12.106 7.2397,11.76 6.8935,11.414 6.9254,10.82 7.31,10.436 7.5264,10.219 7.8697,10.052 8.1909,10.01 Z m 3.0001,2 0.308,0.002 c 0,0 0.244,0.071 0.331,0.158 0.346,0.346 0.119,1.135 -0.266,1.52 -0.385,0.384 -0.978,0.416 -1.324,0.07 -0.3465,-0.346 -0.3146,-0.94 0.07,-1.324 0.216,-0.217 0.56,-0.384 0.881,-0.426 z m 4,1 0.308,0.002 c 0.129,0.021 0.244,0.071 0.331,0.158 0.346,0.346 0.119,1.135 -0.266,1.52 -0.385,0.384 -0.978,0.416 -1.324,0.07 -0.346,-0.346 -0.315,-0.94 0.07,-1.324 0.216,-0.217 0.56,-0.384 0.881,-0.426 z m -9.0001,1 0.3086,0.002 c 0,0 0.2435,0.071 0.3301,0.158 0.3461,0.346 0.119,1.135 -0.2657,1.52 -0.3846,0.384 -0.978,0.416 -1.3242,0.07 C 4.8935,15.414 4.9254,14.82 5.31,14.436 5.5264,14.219 5.8697,14.052 6.1909,14.01 Z m 4.0001,2 0.308,0.002 c 0,0 0.244,0.071 0.331,0.158 0.346,0.346 0.119,1.135 -0.266,1.52 -0.385,0.384 -0.9781,0.416 -1.3243,0.07 C 8.8935,17.414 8.9254,16.82 9.31,16.436 9.5264,16.219 9.8697,16.052 10.191,16.01 Z m 3,1 0.308,0.002 c 0,0 0.244,0.071 0.331,0.158 0.346,0.346 0.119,1.135 -0.266,1.52 -0.385,0.384 -0.978,0.416 -1.324,0.07 -0.346,-0.346 -0.315,-0.94 0.07,-1.324 0.216,-0.217 0.56,-0.384 0.881,-0.426 z"
     id="path5"
     sodipodi:nodetypes="scccccccsccccccccccccccsscsccscsccccccccccccccccccccscccscsccccccccscccccccccccccsccccsccccccscsccccccsccccscsccccscscc" />
</svg>
