<?xml version="1.0" encoding="UTF-8" standalone="no"?>
<svg
   width="24"
   height="24"
   version="1.1"
   id="svg9"
   sodipodi:docname="synergy-panel.svg"
   inkscape:version="1.1.2 (0a00cf5339, 2022-02-04)"
   xmlns:inkscape="http://www.inkscape.org/namespaces/inkscape"
   xmlns:sodipodi="http://sodipodi.sourceforge.net/DTD/sodipodi-0.dtd"
   xmlns="http://www.w3.org/2000/svg"
   xmlns:svg="http://www.w3.org/2000/svg">
  <sodipodi:namedview
     id="namedview11"
     pagecolor="#ffffff"
     bordercolor="#666666"
     borderopacity="1.0"
     inkscape:pageshadow="2"
     inkscape:pageopacity="0.0"
     inkscape:pagecheckerboard="0"
     showgrid="false"
     inkscape:zoom="31.5"
     inkscape:cx="12"
     inkscape:cy="12"
     inkscape:window-width="1880"
     inkscape:window-height="966"
     inkscape:window-x="0"
     inkscape:window-y="29"
     inkscape:window-maximized="1"
     inkscape:current-layer="svg9" />
  <defs
     id="defs3">
    <style
       id="current-color-scheme"
       type="text/css">
   .ColorScheme-Text { color:#eeeeec; } .ColorScheme-Highlight { color:#367bf0; } .ColorScheme-NeutralText { color:#ffcc44; } .ColorScheme-PositiveText { color:#3db47e; } .ColorScheme-NegativeText { color:#dd4747; }
  </style>
  </defs>
  <path
     style="opacity:.35;fill:currentColor"
     class="ColorScheme-Text"
     d="M 12,4 A 8,8 0 0 0 4,12 L 5.5,14 7,12 A 5,5 0 0 1 12,7 L 10,5.5 Z m 6.5,6 -1.5,2 a 5,5 0 0 1 -5,5 l 2,1.5 -2,1.5 a 8,8 0 0 0 8,-8 z"
     id="path5" />
  <path
     style="fill:currentColor"
     class="ColorScheme-Text"
     d="m 12,4 -1.584283,1.1882125 v 0 L 10.476193,5.8571446 12,7 c 2.761424,0 5,2.2385763 5,5 l 1.273075,-1.697433 v 0 l 0.460209,0.0085 L 20,12 C 20,7.581722 16.418278,4 12,4 Z m -8,8 c 0,4.418278 3.581722,8 8,8 l 1.570529,-1.177896 -0.06716,-0.694577 v 0 L 12,17 C 9.2385763,17 7,14.761424 7,12 l -1.2524556,1.669941 v 0 l -0.4503776,0.05962 z"
     id="path7"
     sodipodi:nodetypes="cccccccccccccccccccccc" />
</svg>
