<?xml version="1.0" encoding="UTF-8" standalone="no"?>
<svg
   width="24"
   height="24"
   version="1.1"
   id="svg7"
   sodipodi:docname="system-restart-panel.svg"
   inkscape:version="1.1.2 (0a00cf5339, 2022-02-04)"
   xmlns:inkscape="http://www.inkscape.org/namespaces/inkscape"
   xmlns:sodipodi="http://sodipodi.sourceforge.net/DTD/sodipodi-0.dtd"
   xmlns="http://www.w3.org/2000/svg"
   xmlns:svg="http://www.w3.org/2000/svg">
  <sodipodi:namedview
     id="namedview9"
     pagecolor="#ffffff"
     bordercolor="#666666"
     borderopacity="1.0"
     inkscape:pageshadow="2"
     inkscape:pageopacity="0.0"
     inkscape:pagecheckerboard="0"
     showgrid="false"
     inkscape:zoom="31.5"
     inkscape:cx="12"
     inkscape:cy="12"
     inkscape:window-width="1880"
     inkscape:window-height="966"
     inkscape:window-x="0"
     inkscape:window-y="29"
     inkscape:window-maximized="1"
     inkscape:current-layer="svg7" />
  <defs
     id="defs3">
    <style
       id="current-color-scheme"
       type="text/css">
   .ColorScheme-Text { color:#eeeeec; } .ColorScheme-Highlight { color:#367bf0; } .ColorScheme-NeutralText { color:#ffcc44; } .ColorScheme-PositiveText { color:#3db47e; } .ColorScheme-NegativeText { color:#dd4747; }
  </style>
  </defs>
  <path
     style="fill:currentColor"
     class="ColorScheme-Text"
     d="m 12,6.0000001 c -0.552285,0 -1,0.4477153 -1,1 0,0.5522847 0.447715,1 1,1 2.209139,0 4,1.7908609 4,3.9999999 h -1.326654 l -0.267517,0.541106 v 0 l 2.278019,3.037358 0.6217,0.01414 v 0 L 19.583567,12.555244 19.275867,12 v 0 H 18 C 18,8.6862915 15.313708,6.0000001 12,6.0000001 Z M 6.6998021,8.4002638 v 0 L 4.3761165,11.498511 4.5785745,12 v 0 h 1.4214253 c 0,3.313709 2.6862916,6 6.0000002,6 0.552285,0 1,-0.447715 1,-1 0,-0.552285 -0.447715,-1 -1,-1 C 9.7908612,16 8.0000004,14.209139 8.0000004,12 H 9.371429 v 0 L 9.6629292,11.550572 7.3051475,8.4068636 Z"
     id="path5"
     sodipodi:nodetypes="ssscccccccccccsccccccssscccccc" />
</svg>
