<?xml version="1.0" encoding="UTF-8" standalone="no"?>
<svg
   width="24"
   height="24"
   version="1.1"
   id="svg642962"
   sodipodi:docname="teamviewer-indicator-away.svg"
   inkscape:version="1.1.2 (0a00cf5339, 2022-02-04)"
   xmlns:inkscape="http://www.inkscape.org/namespaces/inkscape"
   xmlns:sodipodi="http://sodipodi.sourceforge.net/DTD/sodipodi-0.dtd"
   xmlns="http://www.w3.org/2000/svg"
   xmlns:svg="http://www.w3.org/2000/svg">
  <sodipodi:namedview
     id="namedview642964"
     pagecolor="#000000"
     bordercolor="#666666"
     borderopacity="1.0"
     inkscape:pageshadow="2"
     inkscape:pageopacity="0"
     inkscape:pagecheckerboard="0"
     showgrid="false"
     inkscape:zoom="34.458333"
     inkscape:cx="12.01451"
     inkscape:cy="12"
     inkscape:window-width="1920"
     inkscape:window-height="1051"
     inkscape:window-x="0"
     inkscape:window-y="29"
     inkscape:window-maximized="1"
     inkscape:current-layer="g642960" />
  <defs
     id="defs642956">
    <style
       id="current-color-scheme"
       type="text/css">
   .ColorScheme-Text { color:#eeeeec; } .ColorScheme-Highlight { color:#367bf0; } .ColorScheme-NeutralText { color:#ffcc44; } .ColorScheme-PositiveText { color:#3db47e; } .ColorScheme-NegativeText { color:#dd4747; }
  </style>
  </defs>
  <g
     id="g642960">
    <path
       style="fill:currentColor"
       class="ColorScheme-Text"
       d="m 20,12 c -0.0011,0.38953 -0.03302,0.7785 -0.0917,1.163533 -0.01455,0.09546 -0.258775,-0.03728 -0.276556,0.05765 v 0 l -0.478856,-0.478721 -0.673343,-0.04872 v 0 l -2.136381,2.165223 v 0 l -0.04821,0.642747 0.253778,0.253777 v 0 l -0.08389,0.244126 -3.035201,3.37e-4 L 13,16.563598 v 0 2.908515 l -0.514882,0.509045 c -0.171027,0.02281 0.172117,-0.01204 0,0 -0.161463,0.01129 -0.32326,0.01768 -0.485118,0.01884 -4.4172959,0 -8.0000001,-3.582236 -8.0000001,-7.999532 C 3.9999999,7.5831714 7.5826942,4.0000991 12,3.9999993 16.417306,3.9999002 20,7.5827042 20,12 Z M 14.367113,9.3671134 14,9.5601788 V 11 H 9.9999998 L 9.9990371,9.5352927 v 0 L 9.6794064,9.3202552 7.2857539,11.71421 v 0 l 0.046695,0.618238 2.3232306,2.323231 L 10,14.534748 v 0 V 13 h 4 v 1.432486 l 0.413741,0.153773 v 0 l 2.318815,-2.318815 -0.01307,-0.547958 v 0 z M 18.793,13.792 23,18 18.793,22.207 17.3789,20.793 19.1719,19 14,18.999 v -2 L 19.1719,17 17.3789,15.206 Z"
       id="path642958"
       sodipodi:nodetypes="csccccccccccccccccscsscccccccccccccccccccccccccccccccccc" />
  </g>
</svg>
