<?xml version="1.0" encoding="UTF-8" standalone="no"?>
<svg
   width="24"
   height="24"
   version="1.1"
   id="svg615121"
   sodipodi:docname="teamviewer-indicator-busy.svg"
   inkscape:version="1.1.2 (0a00cf5339, 2022-02-04)"
   xmlns:inkscape="http://www.inkscape.org/namespaces/inkscape"
   xmlns:sodipodi="http://sodipodi.sourceforge.net/DTD/sodipodi-0.dtd"
   xmlns="http://www.w3.org/2000/svg"
   xmlns:svg="http://www.w3.org/2000/svg">
  <sodipodi:namedview
     id="namedview615123"
     pagecolor="#000000"
     bordercolor="#666666"
     borderopacity="1.0"
     inkscape:pageshadow="2"
     inkscape:pageopacity="0"
     inkscape:pagecheckerboard="0"
     showgrid="false"
     inkscape:zoom="34.458333"
     inkscape:cx="12.01451"
     inkscape:cy="12"
     inkscape:window-width="1920"
     inkscape:window-height="1051"
     inkscape:window-x="0"
     inkscape:window-y="29"
     inkscape:window-maximized="1"
     inkscape:current-layer="g615119" />
  <defs
     id="defs615115">
    <style
       id="current-color-scheme"
       type="text/css">
   .ColorScheme-Text { color:#eeeeec; } .ColorScheme-Highlight { color:#367bf0; } .ColorScheme-NeutralText { color:#ffcc44; } .ColorScheme-PositiveText { color:#3db47e; } .ColorScheme-NegativeText { color:#dd4747; }
  </style>
  </defs>
  <g
     id="g615119">
    <path
       style="fill:currentColor"
       class="ColorScheme-Text"
       d="M 17.4,14.999999 16,16.4 18.10198,18.5 16,20.60198 17.4,22 19.5,19.9 21.60198,22 23,20.60198 20.9,18.5 23,16.4 21.60198,14.999999 19.5,17.101979 Z M 9.639978,9.360022 10,9.529 V 11 h 4 V 9.6330827 l 0.436831,-0.1962515 v 0 l 2.285083,2.2850828 v 0 l -0.059,0.615176 -2.25867,2.25867 v 0 L 14,14.426307 V 13 h -4 v 1.454387 l -0.3080079,0.237605 v 0 L 7.3009898,12.30099 v 0 L 7.3002944,11.699706 Z M 12,4 c -4.4175389,2e-7 -7.9999998,3.5824611 -8,8 2e-7,4.417539 3.5824611,8 8,8 1.582177,-0.003 3.124186,-0.474855 4.434536,-1.352596 0.09057,-0.06067 -0.06199,-0.365089 0.0263,-0.429618 v 0 l -1.441022,-1.43966 -0.08646,-0.781292 v 0 l 2.108364,-2.114338 0.745804,0.0087 v 0 l 1.162933,1.162933 0.432819,0.0018 c 0.046,-0.09892 -0.04188,0.100538 0,0 C 19.786193,14.088625 19.997455,13.049551 20,12 20,7.5824607 16.417539,3.9999997 12,4 Z"
       id="path615117"
       sodipodi:nodetypes="ccccccccccccccccccccccccccccccccccccsscsccccccccccscs" />
  </g>
</svg>
