<?xml version="1.0" encoding="UTF-8" standalone="no"?>
<svg
   width="24"
   height="24"
   version="1.1"
   id="svg1755498"
   sodipodi:docname="teamviewer-indicator-error.svg"
   inkscape:version="1.1.2 (0a00cf5339, 2022-02-04)"
   xmlns:inkscape="http://www.inkscape.org/namespaces/inkscape"
   xmlns:sodipodi="http://sodipodi.sourceforge.net/DTD/sodipodi-0.dtd"
   xmlns="http://www.w3.org/2000/svg"
   xmlns:svg="http://www.w3.org/2000/svg">
  <sodipodi:namedview
     id="namedview1755500"
     pagecolor="#ffffff"
     bordercolor="#666666"
     borderopacity="1.0"
     inkscape:pageshadow="2"
     inkscape:pageopacity="0.0"
     inkscape:pagecheckerboard="0"
     showgrid="false"
     inkscape:zoom="34.458333"
     inkscape:cx="12.01451"
     inkscape:cy="12"
     inkscape:window-width="1920"
     inkscape:window-height="1051"
     inkscape:window-x="0"
     inkscape:window-y="29"
     inkscape:window-maximized="1"
     inkscape:current-layer="g1755496" />
  <defs
     id="defs1755492">
    <style
       id="current-color-scheme"
       type="text/css">
   .ColorScheme-Text { color:#eeeeec; } .ColorScheme-Highlight { color:#367bf0; } .ColorScheme-NeutralText { color:#ffcc44; } .ColorScheme-PositiveText { color:#3db47e; } .ColorScheme-NegativeText { color:#dd4747; }
  </style>
  </defs>
  <g
     id="g1755496">
    <path
       style="fill:currentColor"
       class="ColorScheme-NegativeText"
       d="M 9.6376276,9.3623724 10,9.5073292 V 11 h 4 V 9.5237481 l 0.305047,-0.2187007 v 0 l 2.484672,2.4846716 0.01137,0.409194 v 0 L 14.370479,14.629521 14,14.501498 v 0 V 13 h -4 v 1.429485 l -0.3985485,0.171967 v 0 L 7.1848578,12.184858 v 0 l 0.065725,-0.435441 z M 12,4 c -4.4179185,-10e-8 -8.0000001,3.5820815 -8,8 -10e-8,4.417918 3.5820815,8 8,8 4.417918,0 8,-3.582082 8,-8 0,-4.4179185 -3.582082,-8.0000001 -8,-8 z"
       id="path1755494"
       sodipodi:nodetypes="cccccccccccccccccccccccsssss" />
  </g>
</svg>
