<?xml version="1.0" encoding="UTF-8" standalone="no"?>
<svg
   width="24"
   height="24"
   version="1.1"
   id="svg109258"
   sodipodi:docname="teams-tray-onshift.svg"
   inkscape:version="1.1.2 (0a00cf5339, 2022-02-04)"
   xmlns:inkscape="http://www.inkscape.org/namespaces/inkscape"
   xmlns:sodipodi="http://sodipodi.sourceforge.net/DTD/sodipodi-0.dtd"
   xmlns="http://www.w3.org/2000/svg"
   xmlns:svg="http://www.w3.org/2000/svg">
  <sodipodi:namedview
     id="namedview109260"
     pagecolor="#0d0d0d"
     bordercolor="#666666"
     borderopacity="1.0"
     inkscape:pageshadow="2"
     inkscape:pageopacity="0"
     inkscape:pagecheckerboard="0"
     showgrid="false"
     inkscape:zoom="34.458333"
     inkscape:cx="12.01451"
     inkscape:cy="12"
     inkscape:window-width="1920"
     inkscape:window-height="1051"
     inkscape:window-x="0"
     inkscape:window-y="29"
     inkscape:window-maximized="1"
     inkscape:current-layer="svg109258" />
  <defs
     id="defs109254">
    <style
       id="current-color-scheme"
       type="text/css">
   .ColorScheme-Text { color:#eeeeec; } .ColorScheme-Highlight { color:#367bf0; } .ColorScheme-NeutralText { color:#ffcc44; } .ColorScheme-PositiveText { color:#3db47e; } .ColorScheme-NegativeText { color:#dd4747; }
  </style>
  </defs>
  <path
     style="fill:currentColor"
     class="ColorScheme-Text"
     d="M 6.0234375,4 C 5.4566955,4 5,4.4566955 5,5.0234375 V 17.976562 C 5,18.543306 5.4566955,19 6.0234375,19 H 12.761719 C 12.266087,18.26037 12.000999,17.390338 12,16.5 12.0011,16.332882 12.01156,16.165957 12.03125,16 H 11 V 10 H 8 V 7 h 9 v 3 h -3 v 2.761719 C 14.73963,12.266087 15.609662,12.000999 16.5,12 c 1.359623,5.5e-4 2.646105,0.615793 3.5,1.673828 V 5.0234375 C 20,4.4566955 19.543309,4 18.976562,4 Z M 16.5,13 C 14.567003,13 13,14.567003 13,16.5 13,18.432997 14.567003,20 16.5,20 18.432997,20 20,18.432997 20,16.5 20,14.567003 18.432997,13 16.5,13 Z m 1.794922,2 h 0.428661 v 0 L 19,15.297702 v 0.411282 l -2.713738,2.711972 -0.542506,0.02983 v 0 L 14,16.707031 v -0.325963 0 L 14.357199,16 h 0.349832 L 16,17.292969 Z"
     id="path109256"
     sodipodi:nodetypes="sssscccccccccccccssssssssccccccccccccccc" />
</svg>
