<?xml version="1.0" encoding="UTF-8" standalone="no"?>
<svg
   width="24"
   height="24"
   version="1"
   id="svg7"
   sodipodi:docname="todo-indicator.svg"
   inkscape:version="1.1.2 (0a00cf5339, 2022-02-04)"
   xmlns:inkscape="http://www.inkscape.org/namespaces/inkscape"
   xmlns:sodipodi="http://sodipodi.sourceforge.net/DTD/sodipodi-0.dtd"
   xmlns="http://www.w3.org/2000/svg"
   xmlns:svg="http://www.w3.org/2000/svg">
  <sodipodi:namedview
     id="namedview9"
     pagecolor="#000000"
     bordercolor="#666666"
     borderopacity="1.0"
     inkscape:pageshadow="2"
     inkscape:pageopacity="0"
     inkscape:pagecheckerboard="0"
     showgrid="false"
     inkscape:zoom="34.458333"
     inkscape:cx="11.956469"
     inkscape:cy="11.970979"
     inkscape:window-width="650"
     inkscape:window-height="817"
     inkscape:window-x="655"
     inkscape:window-y="31"
     inkscape:window-maximized="1"
     inkscape:current-layer="svg7" />
  <defs
     id="defs3">
    <style
       id="current-color-scheme"
       type="text/css">
   .ColorScheme-Text { color:#eeeeec; } .ColorScheme-Highlight { color:#367bf0; } .ColorScheme-NeutralText { color:#ffcc44; } .ColorScheme-PositiveText { color:#3db47e; } .ColorScheme-NegativeText { color:#dd4747; }
  </style>
  </defs>
  <path
     style="fill:currentColor"
     class="ColorScheme-Text"
     d="M 6,5 C 4.892,5 4,5.892 4,7 v 10 c 0,1.108 0.892,2 2,2 h 12 c 1.108,0 2,-0.892 2,-2 V 7 C 20,5.892 19.108,5 18,5 Z m 9.0312,2 c 0.05517,0.00526 0.13563,0.03589 0.1875,0.0625 l 1.5625,0.78125 c 0.2075,0.10644 0.26963,0.36771 0.15625,0.5625 l -4.875,8.375 c -0.085,0.149 -0.267,0.239 -0.436,0.219 -0.0517,-0.0061 -0.10762,-0.0063 -0.15625,-0.03125 -0.0052,-0.0024 -4.25,-3.3125 -4.25,-3.3125 -0.2075,-0.106 -0.2697,-0.367 -0.1563,-0.562 l 1.0312,-1.25 c 0.1134,-0.195 0.3863,-0.263 0.5938,-0.156 l 1.951113,1.476518 0.596181,-0.129341 v 0 L 14.6264,7.2193 c 0.085,-0.1461 0.241,-0.2346 0.406,-0.2188 z"
     id="path5"
     sodipodi:nodetypes="sssssssssccccccccccccccccc" />
</svg>
