<?xml version="1.0" encoding="UTF-8" standalone="no"?>
<svg
   width="24"
   height="24"
   version="1.1"
   id="svg209030"
   sodipodi:docname="tray-message.svg"
   inkscape:version="1.1.2 (0a00cf5339, 2022-02-04)"
   xmlns:inkscape="http://www.inkscape.org/namespaces/inkscape"
   xmlns:sodipodi="http://sodipodi.sourceforge.net/DTD/sodipodi-0.dtd"
   xmlns="http://www.w3.org/2000/svg"
   xmlns:svg="http://www.w3.org/2000/svg">
  <sodipodi:namedview
     id="namedview209032"
     pagecolor="#000000"
     bordercolor="#666666"
     borderopacity="1.0"
     inkscape:pageshadow="2"
     inkscape:pageopacity="0"
     inkscape:pagecheckerboard="0"
     showgrid="false"
     inkscape:zoom="34.458333"
     inkscape:cx="12.01451"
     inkscape:cy="12"
     inkscape:window-width="1920"
     inkscape:window-height="1051"
     inkscape:window-x="0"
     inkscape:window-y="29"
     inkscape:window-maximized="1"
     inkscape:current-layer="g209028" />
  <defs
     id="defs209022">
    <style
       id="current-color-scheme"
       type="text/css">
   .ColorScheme-Text { color:#eeeeec; } .ColorScheme-Highlight { color:#367bf0; } .ColorScheme-NeutralText { color:#ffcc44; } .ColorScheme-PositiveText { color:#3db47e; } .ColorScheme-NegativeText { color:#dd4747; }
  </style>
  </defs>
  <g
     transform="translate(1 1)"
     id="g209028">
    <path
       style="fill:currentColor"
       class="ColorScheme-Text"
       d="M 5.9688,5 C 5.9688,5 4,5 4,7 V 10 11.596214 12 12 C 4,10.596214 4.1298224,12.000107 4.3585329,11.576578 4.8654752,10.637815 5.8582528,10 7,10 c 1.6568542,0 3,1.343146 3,3 -8.196e-4,0.603484 -0.1835143,1.189395 -0.5195261,1.683323 C 9.4053472,14.793758 9.7468248,14.899594 9.6566887,15 v 0 H 11.00002 l 1.588744,2.386294 v 0 L 13.44315,17.338419 15.00002,15 h 1 c 0,0 2,0 2,-2 V 7 c 0,-2 -2,-2 -2,-2 h -10.031 z"
       id="path209024"
       sodipodi:nodetypes="csccccsscsccccccccssccc" />
    <circle
       style="fill:currentColor"
       class="ColorScheme-Highlight"
       cx="7"
       cy="13"
       r="2"
       id="circle209026" />
  </g>
</svg>
