<?xml version="1.0" encoding="UTF-8" standalone="no"?>
<svg
   width="24"
   height="24"
   version="1.1"
   id="svg7"
   sodipodi:docname="tutanota-desktop-tray.svg"
   inkscape:version="1.1.2 (0a00cf5339, 2022-02-04)"
   xmlns:inkscape="http://www.inkscape.org/namespaces/inkscape"
   xmlns:sodipodi="http://sodipodi.sourceforge.net/DTD/sodipodi-0.dtd"
   xmlns="http://www.w3.org/2000/svg"
   xmlns:svg="http://www.w3.org/2000/svg">
  <sodipodi:namedview
     id="namedview9"
     pagecolor="#ffffff"
     bordercolor="#666666"
     borderopacity="1.0"
     inkscape:pageshadow="2"
     inkscape:pageopacity="0.0"
     inkscape:pagecheckerboard="0"
     showgrid="false"
     inkscape:zoom="31.416667"
     inkscape:cx="11.984085"
     inkscape:cy="12"
     inkscape:window-width="1880"
     inkscape:window-height="966"
     inkscape:window-x="0"
     inkscape:window-y="29"
     inkscape:window-maximized="1"
     inkscape:current-layer="svg7" />
  <defs
     id="defs3">
    <style
       id="current-color-scheme"
       type="text/css">
   .ColorScheme-Text { color:#eeeeec; } .ColorScheme-Highlight { color:#367bf0; } .ColorScheme-NeutralText { color:#ffcc44; } .ColorScheme-PositiveText { color:#3db47e; } .ColorScheme-NegativeText { color:#dd4747; }
  </style>
  </defs>
  <path
     style="fill:currentColor"
     class="ColorScheme-Text"
     d="M 5.1992188,3.999857 C 4.5344187,3.999857 4,4.5342757 4,5.1990758 V 18.800638 c 0,0.02937 0.011618,0.05515 0.013672,0.08398 0.1382857,-0.05703 0.3064064,-0.128846 0.3632812,-0.148438 0.71708,-0.247085 1.3298613,-0.48198 2.4394531,-0.935547 3.4451277,-1.408266 4.7735157,-2.215539 5.6171877,-3.076172 0.467664,-0.477065 0.646299,-0.941349 0.533203,-1.382812 -0.07022,-0.2741 -0.175412,-0.44056 -0.429688,-0.685547 -0.379112,-0.365265 -0.935245,-0.666315 -2.183593,-1.179688 -0.9833763,-0.404403 -1.3125003,-0.608416 -1.3125003,-0.816406 0,-0.126593 0.1436666,-0.318684 0.3378906,-0.449218 0.4002761,-0.269014 1.1457917,-0.388129 2.3320317,-0.466797 2.079756,-0.137925 2.748367,-0.186341 3.005859,-0.41211 0.07785,-0.06826 0.08287,-0.260776 0.0098,-0.3574216 -0.06041,-0.079866 -0.06914,-0.12184 -0.04101,-0.125 0.02813,-0.00316 0.09219,0.032554 0.179687,0.109375 0.15281,0.1341666 0.186801,0.2521286 0.119141,0.4140626 -0.153592,0.3676 -0.872017,0.527109 -2.25,0.626953 -1.328396,0.09625 -2.143835,0.230437 -2.074219,0.507813 0.0462,0.184089 0.421106,0.307832 1.933594,0.640625 2.434633,0.53569 3.769912,0.879808 4.785156,1.386718 1.013496,0.506037 1.723108,1.224793 2.199175,2.240937 0.108146,0.230833 -0.08487,-0.262519 0,0 L 20,14.553601 v 0 -9.3545252 C 20,4.5342757 19.465581,3.999857 18.800781,3.999857 Z M 4.0195312,18.933451 c 0.00857,0.07611 0.013122,0.153567 0.035156,0.224609 0.00991,0.03196 0.03185,0.0576 0.048828,0.08594 -0.039278,-0.09836 -0.071623,-0.201193 -0.083984,-0.310547 z"
     id="path5"
     sodipodi:nodetypes="sssccsssssscsscsssssssscccssssscss" />
</svg>
