<?xml version="1.0" encoding="UTF-8" standalone="no"?>
<svg
   width="24"
   height="24"
   version="1.1"
   id="svg7"
   sodipodi:docname="tweet-tray-panel.svg"
   inkscape:version="1.1.2 (0a00cf5339, 2022-02-04)"
   xmlns:inkscape="http://www.inkscape.org/namespaces/inkscape"
   xmlns:sodipodi="http://sodipodi.sourceforge.net/DTD/sodipodi-0.dtd"
   xmlns="http://www.w3.org/2000/svg"
   xmlns:svg="http://www.w3.org/2000/svg">
  <sodipodi:namedview
     id="namedview9"
     pagecolor="#ffffff"
     bordercolor="#666666"
     borderopacity="1.0"
     inkscape:pageshadow="2"
     inkscape:pageopacity="0.0"
     inkscape:pagecheckerboard="0"
     showgrid="false"
     inkscape:zoom="31.416667"
     inkscape:cx="11.984085"
     inkscape:cy="12"
     inkscape:window-width="1880"
     inkscape:window-height="966"
     inkscape:window-x="0"
     inkscape:window-y="29"
     inkscape:window-maximized="1"
     inkscape:current-layer="svg7" />
  <defs
     id="defs3">
    <style
       id="current-color-scheme"
       type="text/css">
   .ColorScheme-Text { color:#eeeeec; } .ColorScheme-Highlight { color:#367bf0; } .ColorScheme-NeutralText { color:#ffcc44; } .ColorScheme-PositiveText { color:#3db47e; } .ColorScheme-NegativeText { color:#dd4747; }
  </style>
  </defs>
  <path
     style="fill:currentColor"
     class="ColorScheme-Text"
     d="M 20,4 C 12.051346,4 4.7595879,10.897366 4.0555563,18.761262 c -0.036756,0.41056 0.4349166,-0.213164 0.4349166,0.201821 0,0 -0.3335921,0.618563 0,0 0.546089,-1.012586 1.5657213,-2.561686 3.1458891,-3.690358 2.442217,-1.744437 7.197189,-0.07712 8.863539,-2.829485 0.07044,-0.116344 -0.223253,-0.247658 -0.164261,-0.380387 -0.122135,0 0.116927,0.0046 0,0 -1.549749,-0.06146 -2.639158,-0.50968 -3.191715,-0.800532 -0.274635,-0.144561 0,0 0,0 0.131023,0 -0.151653,-0.255864 -0.01526,-0.266982 C 16.02058,10.759602 20,8.0513496 20,4 Z"
     id="path5"
     sodipodi:nodetypes="cscscscsscsc" />
</svg>
