<?xml version="1.0" encoding="UTF-8" standalone="no"?>
<svg
   width="24"
   height="24"
   version="1.1"
   id="svg1153647"
   sodipodi:docname="ubuntuone-client-updating.svg"
   inkscape:version="1.1.2 (0a00cf5339, 2022-02-04)"
   xmlns:inkscape="http://www.inkscape.org/namespaces/inkscape"
   xmlns:sodipodi="http://sodipodi.sourceforge.net/DTD/sodipodi-0.dtd"
   xmlns="http://www.w3.org/2000/svg"
   xmlns:svg="http://www.w3.org/2000/svg">
  <sodipodi:namedview
     id="namedview1153649"
     pagecolor="#000000"
     bordercolor="#666666"
     borderopacity="1.0"
     inkscape:pageshadow="2"
     inkscape:pageopacity="0"
     inkscape:pagecheckerboard="0"
     showgrid="false"
     inkscape:zoom="34.458333"
     inkscape:cx="12.01451"
     inkscape:cy="12"
     inkscape:window-width="1920"
     inkscape:window-height="1051"
     inkscape:window-x="0"
     inkscape:window-y="29"
     inkscape:window-maximized="1"
     inkscape:current-layer="svg1153647" />
  <defs
     id="defs1153643">
    <style
       id="current-color-scheme"
       type="text/css">
   .ColorScheme-Text { color:#eeeeec; } .ColorScheme-Highlight { color:#367bf0; } .ColorScheme-NeutralText { color:#ffcc44; } .ColorScheme-PositiveText { color:#3db47e; } .ColorScheme-NegativeText { color:#dd4747; }
  </style>
  </defs>
  <path
     style="fill:currentColor"
     class="ColorScheme-Text"
     d="M 10.027,6.0016 C 9.63525,6.012783 9.23718,6.085586 8.8415,6.22035 c -1.6926,0.57493 -2.9693,2.2417 -3.3477,4.3125 -1.111,0.26797 -2.0486,1.2484 -2.377,2.6562 -0.46544,1.9998 0.50365,4.0611 2.1582,4.623 0.027025,0.008 0.034474,0.02425 0.0625,0.03125 0.22821,0.09898 0.49276,0.15625 0.75,0.15625 h 11.98 c 0.4294,0 0.82289,-0.14728 1.1582,-0.40625 1.3413,-0.77391 2.0726,-2.6175 1.6562,-4.4043 -0.30729,-1.3208 -1.1675,-2.29 -2.1895,-2.625 -0.009,-0.044 0.01001,-0.08101 0,-0.125 C 18.22696,8.4392 16.4993,7.2833 14.8447,7.8453 14.5274,7.95329 14.23595,8.10007 13.9697,8.31405 13.05823,6.83385 11.575,5.96135 10.0283,6.00155 h -0.0019 z m 1.661641,4.309059 0.669257,0.04714 2.109913,2.109913 -0.158475,0.531889 v 0 H 12.9997 v 3 h -2 v -3 H 9.8529217 v 0 L 9.6033492,12.395951 Z"
     id="path1153645"
     sodipodi:nodetypes="ccccccssccccccccccccccccccccccc" />
</svg>
