<?xml version="1.0" encoding="UTF-8" standalone="no"?>
<svg
   width="24"
   height="24"
   version="1.1"
   id="svg729005"
   sodipodi:docname="uget-tray-downloading.svg"
   inkscape:version="1.1.2 (0a00cf5339, 2022-02-04)"
   xmlns:inkscape="http://www.inkscape.org/namespaces/inkscape"
   xmlns:sodipodi="http://sodipodi.sourceforge.net/DTD/sodipodi-0.dtd"
   xmlns="http://www.w3.org/2000/svg"
   xmlns:svg="http://www.w3.org/2000/svg">
  <sodipodi:namedview
     id="namedview729007"
     pagecolor="#000000"
     bordercolor="#666666"
     borderopacity="1.0"
     inkscape:pageshadow="2"
     inkscape:pageopacity="0"
     inkscape:pagecheckerboard="0"
     showgrid="false"
     inkscape:zoom="34.458333"
     inkscape:cx="12.01451"
     inkscape:cy="12"
     inkscape:window-width="1920"
     inkscape:window-height="1051"
     inkscape:window-x="0"
     inkscape:window-y="29"
     inkscape:window-maximized="1"
     inkscape:current-layer="svg729005" />
  <defs
     id="defs728999">
    <style
       id="current-color-scheme"
       type="text/css">
   .ColorScheme-Text { color:#eeeeec; } .ColorScheme-Highlight { color:#367bf0; } .ColorScheme-NeutralText { color:#ffcc44; } .ColorScheme-PositiveText { color:#3db47e; } .ColorScheme-NegativeText { color:#dd4747; }
  </style>
  </defs>
  <path
     style="fill:currentColor"
     class="ColorScheme-Text"
     d="m 20,11 h -4 v 2 h 1.209905 v 0 l 0.281963,0.635165 -3.110642,3.888303 v 0 l -0.790079,-0.03454 -3.003585,-3.75448 v 0 L 11.013074,13 H 12 V 7 h 4 v 2.0000001 h 4 V 7 C 20,7 20,4 17,4 H 11 C 11,4 8,4 8,7 v 1 6 H 6 V 8.0000001 H 4 V 14 c 0,2 2,2 2,2 h 2 v 1 c 0,3 3,3 3,3 h 6 c 3,0 3,-3 3,-3"
     id="path729001"
     sodipodi:nodetypes="ccccccccccccccccccscscccccsccscsc" />
  <path
     style="fill:currentColor"
     class="ColorScheme-Highlight"
     d="m 13,8 v 6 h -0.462096 v 0 l -0.128993,0.408766 1.395562,1.745164 v 0 l 0.413127,-0.0276 1.396784,-1.746693 v 0 L 15.56142,14 H 15 V 12 11 8 Z"
     id="path729003"
     sodipodi:nodetypes="cccccccccccccccc" />
</svg>
