<?xml version="1.0" encoding="UTF-8" standalone="no"?>
<svg
   width="24"
   height="24"
   version="1.1"
   id="svg57581"
   sodipodi:docname="empathy-away.svg"
   inkscape:version="1.1.2 (0a00cf5339, 2022-02-04)"
   xmlns:inkscape="http://www.inkscape.org/namespaces/inkscape"
   xmlns:sodipodi="http://sodipodi.sourceforge.net/DTD/sodipodi-0.dtd"
   xmlns="http://www.w3.org/2000/svg"
   xmlns:svg="http://www.w3.org/2000/svg">
  <sodipodi:namedview
     id="namedview57583"
     pagecolor="#000000"
     bordercolor="#666666"
     borderopacity="1.0"
     inkscape:pageshadow="2"
     inkscape:pageopacity="0"
     inkscape:pagecheckerboard="0"
     showgrid="false"
     inkscape:zoom="34.458333"
     inkscape:cx="1.8282951"
     inkscape:cy="11.98549"
     inkscape:window-width="1880"
     inkscape:window-height="966"
     inkscape:window-x="0"
     inkscape:window-y="29"
     inkscape:window-maximized="1"
     inkscape:current-layer="g57579" />
  <defs
     id="defs57575">
    <style
       id="current-color-scheme"
       type="text/css">
   .ColorScheme-Text { color:#eeeeec; } .ColorScheme-Highlight { color:#367bf0; } .ColorScheme-NeutralText { color:#ffcc44; } .ColorScheme-PositiveText { color:#3db47e; } .ColorScheme-NegativeText { color:#dd4747; }
  </style>
  </defs>
  <g
     transform="translate(-176 -816.36)"
     id="g57579">
    <path
       style="fill:currentColor"
       class="ColorScheme-Text"
       d="m 183,822.36 c 0,0 -2,0 -2,2 v 6 c 0,2 2,2 2,2 l 4.9998,-2e-5 1.47629,2.21694 1.06244,-0.0226 v 0 l 1.46127,-2.19439 1.0002,2e-5 c 1.108,2e-5 2,-0.892 2,-2 v -6 c 0,-2 -1.9688,-2 -1.9688,-2 z m 4,1.40705 0.38156,-0.40705 h 1.27703 v 0 L 189,823.76705 v 4.14955 l -0.5154,0.4434 v 0 h -4.03339 v 0 L 184,827.8298 v -1.10281 l 0.3638,-0.36699 v 0 h 2.29266 v 0 L 187,825.9436 Z"
       id="path57577"
       sodipodi:nodetypes="cssccccccssscccccccccccccccccccc" />
  </g>
</svg>
