<?xml version="1.0" encoding="UTF-8" standalone="no"?>
<svg
   width="24"
   height="24"
   version="1.1"
   id="svg875125"
   sodipodi:docname="weather-clear.svg"
   inkscape:version="1.1.2 (0a00cf5339, 2022-02-04)"
   xmlns:inkscape="http://www.inkscape.org/namespaces/inkscape"
   xmlns:sodipodi="http://sodipodi.sourceforge.net/DTD/sodipodi-0.dtd"
   xmlns="http://www.w3.org/2000/svg"
   xmlns:svg="http://www.w3.org/2000/svg">
  <sodipodi:namedview
     id="namedview875127"
     pagecolor="#000000"
     bordercolor="#666666"
     borderopacity="1.0"
     inkscape:pageshadow="2"
     inkscape:pageopacity="0"
     inkscape:pagecheckerboard="0"
     showgrid="false"
     inkscape:zoom="34.458333"
     inkscape:cx="12.01451"
     inkscape:cy="12"
     inkscape:window-width="1920"
     inkscape:window-height="1051"
     inkscape:window-x="0"
     inkscape:window-y="29"
     inkscape:window-maximized="1"
     inkscape:current-layer="svg875125" />
  <defs
     id="defs875121">
    <style
       id="current-color-scheme"
       type="text/css">
   .ColorScheme-Text { color:#eeeeec; } .ColorScheme-Highlight { color:#367bf0; } .ColorScheme-NeutralText { color:#ffcc44; } .ColorScheme-PositiveText { color:#3db47e; } .ColorScheme-NegativeText { color:#dd4747; }
  </style>
  </defs>
  <path
     style="fill:currentColor"
     class="ColorScheme-Text"
     d="m 10.999999,4.4304766 v 0 1.2890714 l 0.488441,0.3033205 c 0.161953,-0.027711 -0.163537,0.014323 0,0 0.170042,-0.014893 0.340717,-0.022529 0.511559,-0.022868 0.168564,9.832e-4 0.336936,0.00907 0.504672,0.024217 0.165877,0.01498 0.33113,-0.3329331 0.495328,-0.3041779 v 0 -1.2279279 L 12.52925,4 V 4 H 11.445522 Z M 7.3723841,5.9583228 6.809662,5.8778371 5.9441151,6.743384 5.9076625,7.3217258 v 0 l 0.9110276,0.9110281 0.5326198,-0.017198 c 0.2380298,-0.3117886 -0.082629,0.1011958 0,0 0.260775,-0.3193708 0.5537871,-0.6110237 0.874385,-0.8703204 0.098634,-0.079775 -0.1037212,0.073514 0,0 L 8.1892664,6.7752046 Z m 9.2550029,2.267e-4 v 0 L 15.77611,6.8098267 v 0 c 0.09332,0.06653 -0.118836,0.439107 -0.02965,0.5107237 0.319264,0.2563808 0.611384,0.5447223 0.87182,0.8604718 0.09293,0.1126707 0.418463,-0.0078 0.503121,0.1116432 v 0 l 0.94556,-0.9455609 0.03482,-0.5578307 v 0 L 17.285694,5.9731946 Z M 11.999999,7.0000001 C 9.2385753,7.0000002 6.9999992,9.2385763 6.9999991,12 c 0,2.761424 2.2385762,5 4.9999999,5 2.761424,0 5,-2.238576 5,-5 0,-2.7614237 -2.238576,-4.9999999 -5,-4.9999999 z M 4.4370578,11 3.9999991,11.446776 v 1.156979 0 L 4.3757274,13 h 1.207761 v 0 C 5.5550558,12.833832 6.0360989,12.666612 6.0217612,12.498787 6.0075951,12.332972 6.0003276,12.166566 5.9999961,12 c 9.81e-4,-0.167792 0.009,-0.335395 0.024011,-0.502369 C 6.0389923,11.330981 5.5961594,11.164959 5.6250478,11 v 0 z m 13.8822892,0 c 0.02775,0.162205 -0.356476,0.325412 -0.342146,0.489206 0.01485,0.169789 0.02382,0.340211 0.0228,0.510794 -0.001,0.172256 -0.0095,0.344313 -0.02524,0.515694 -0.01494,0.162175 0.02812,-0.160561 0,0 L 18.419037,13 h 1.174167 v 0 l 0.406797,-0.461524 V 11.580564 L 19.613581,11 v 0 z M 6.7866084,15.799328 v 0 L 5.922605,16.663332 v 0 l 0.00746,0.579231 0.7357997,0.7358 0.7497236,0.02011 v 0 L 8.187338,17.226727 8.227726,16.658599 c -0.1023453,-0.07296 0.097358,0.07907 0,0 -0.3227688,-0.262146 -0.6174109,-0.557134 -0.8791695,-0.880195 -0.080967,-0.09993 -0.4874116,0.126083 -0.561945,0.02092 z m 9.8231816,0.03231 c -0.08786,0.123242 0.09668,-0.115972 0,0 -0.268416,0.321976 -0.569931,0.615053 -0.899655,0.87435 -0.07824,0.06153 0.239434,-0.178825 0,0 l 0.109571,0.527829 0.858885,0.858884 0.563771,-0.02252 v 0 l 0.851852,-0.851852 v 0 l -0.07781,-0.615943 -0.794683,-0.794684 z m -5.609791,2.078518 v 0.428517 1.164111 L 11.55699,20 v 0 h 0.857816 v 0 l 0.585193,-0.560459 v -1.093432 0 c -0.166125,0.02842 -0.3333,-0.382224 -0.50108,-0.367886 -0.165859,0.01417 -0.33231,0.02145 -0.49892,0.02178 -0.168439,-0.001 -0.336688,-0.0091 -0.504302,-0.0242 -0.166,-0.01497 -0.331377,0.391648 -0.495698,0.362873 z"
     id="path875123"
     sodipodi:nodetypes="ccccscsccccccccccccccssccccccccssccccccssssscccccccscsccccccssccccccccscccccccccccssccssccccccccccccccccccccscsc" />
</svg>
