<?xml version="1.0" encoding="UTF-8" standalone="no"?>
<svg
   width="24"
   height="24"
   version="1.1"
   id="svg7"
   sodipodi:docname="weather-showers-scattered.svg"
   inkscape:version="1.1.2 (0a00cf5339, 2022-02-04)"
   xmlns:inkscape="http://www.inkscape.org/namespaces/inkscape"
   xmlns:sodipodi="http://sodipodi.sourceforge.net/DTD/sodipodi-0.dtd"
   xmlns="http://www.w3.org/2000/svg"
   xmlns:svg="http://www.w3.org/2000/svg">
  <sodipodi:namedview
     id="namedview9"
     pagecolor="#ffffff"
     bordercolor="#666666"
     borderopacity="1.0"
     inkscape:pageshadow="2"
     inkscape:pageopacity="0.0"
     inkscape:pagecheckerboard="0"
     showgrid="false"
     inkscape:zoom="31.5"
     inkscape:cx="12"
     inkscape:cy="12"
     inkscape:window-width="1880"
     inkscape:window-height="966"
     inkscape:window-x="0"
     inkscape:window-y="29"
     inkscape:window-maximized="1"
     inkscape:current-layer="svg7" />
  <defs
     id="defs3">
    <style
       id="current-color-scheme"
       type="text/css">
   .ColorScheme-Text { color:#eeeeec; } .ColorScheme-Highlight { color:#367bf0; } .ColorScheme-NeutralText { color:#ffcc44; } .ColorScheme-PositiveText { color:#3db47e; } .ColorScheme-NegativeText { color:#dd4747; }
  </style>
  </defs>
  <path
     style="fill:currentColor"
     class="ColorScheme-Text"
     d="m 12,4.0039062 c -2.07107,0 -3.83471,1.2679201 -4.59375,3.0625 C 5.47842,7.3530063 4,8.9963263 4,11.003906 c 0,1.933 1.36477,3.53327 3.1875,3.90625 0.6724353,-0.685125 1.3394342,-1.373634 2.0290745,-2.040837 0.094031,-0.09097 -0.094943,0.09012 0,0 0.072625,0.06819 0.4284671,-0.134919 0.5006894,-0.06604 0.4003361,0.381785 0.7947111,0.77331 1.1857061,1.165073 0.09503,0.09522 -0.09467,-0.09511 0,0 0.08621,-0.02449 0.443945,0.147378 0.51754,-1.79e-4 0.133768,-0.268205 0.268841,-0.648302 0.48574,-0.808014 0.781277,-0.793907 1.56314,-1.578338 2.367649,-2.347364 0.07516,-0.07185 -0.07558,0.07157 0,0 0.09221,0.08642 0.409725,-0.04206 0.500521,0.04481 0.565305,0.540893 1.106461,1.090398 1.66308,1.646302 0.59794,0.57143 1.22758,1.20365 1.4375,2.03125 0.016,0.0511 0.01805,0.10465 0.03125,0.15625 C 19.1415,14.150916 20,12.938456 20,11.503906 20,9.707366 18.64921,8.2352063 16.90625,8.0351562 16.45168,5.7417662 14.42687,4.0039062 12,4.0039062 Z m 2.84375,8.3398438 h -0.6875 L 12.75,13.75 C 12.29685,14.20315 12,14.8126 12,15.5 c 0,1.37479 1.12521,2.5 2.5,2.5 1.37479,0 2.5,-1.12521 2.5,-2.5 0,-0.6874 -0.29685,-1.29685 -0.75,-1.75 z m -5.6875,2 v 0 L 7.75,15.75 C 7.29685,16.20315 7,16.8126 7,17.5 7,18.87479 8.12521,20 9.5,20 10.87479,20 12,18.87479 12,17.5 12,16.8126 11.70315,16.20315 11.25,15.75 L 9.84375,14.34375 Z"
     id="path5"
     sodipodi:nodetypes="scscscsscscscscccscsccsssssccccssssscc" />
</svg>
