<?xml version="1.0" encoding="UTF-8" standalone="no"?>
<svg
   width="24"
   height="24"
   version="1.1"
   id="svg544184"
   sodipodi:docname="weather-clouds.svg"
   inkscape:version="1.1.2 (0a00cf5339, 2022-02-04)"
   xmlns:inkscape="http://www.inkscape.org/namespaces/inkscape"
   xmlns:sodipodi="http://sodipodi.sourceforge.net/DTD/sodipodi-0.dtd"
   xmlns="http://www.w3.org/2000/svg"
   xmlns:svg="http://www.w3.org/2000/svg">
  <sodipodi:namedview
     id="namedview544186"
     pagecolor="#000000"
     bordercolor="#666666"
     borderopacity="1.0"
     inkscape:pageshadow="2"
     inkscape:pageopacity="0"
     inkscape:pagecheckerboard="0"
     showgrid="false"
     inkscape:zoom="34.458333"
     inkscape:cx="12.01451"
     inkscape:cy="12"
     inkscape:window-width="1920"
     inkscape:window-height="1051"
     inkscape:window-x="0"
     inkscape:window-y="29"
     inkscape:window-maximized="1"
     inkscape:current-layer="svg544184" />
  <defs
     id="defs544180">
    <style
       id="current-color-scheme"
       type="text/css">
   .ColorScheme-Text { color:#eeeeec; } .ColorScheme-Highlight { color:#367bf0; } .ColorScheme-NeutralText { color:#ffcc44; } .ColorScheme-PositiveText { color:#3db47e; } .ColorScheme-NegativeText { color:#dd4747; }
  </style>
  </defs>
  <path
     style="fill:currentColor"
     class="ColorScheme-Text"
     d="m 11,4.3900207 v 0 1.3873292 0 c 0.162769,-0.027851 0.326547,0.2596298 0.490914,0.2453027 C 11.660138,6.0079021 11.829986,6.0003381 12,6 c 0.170696,9.979e-4 0.341196,0.00928 0.511038,0.024799 0.163738,0.014963 -0.162099,-0.028388 0,0 L 13,5.7326864 V 4.4555826 L 12.570462,4 V 4 H 11.471516 Z M 6.7831048,5.9043952 v 0 L 5.9522333,6.7352667 5.8922214,7.3062838 v 0 l 0.9534427,0.9534429 0.493401,-0.029124 c 0.072246,-0.1013369 -0.078234,0.096448 0,0 0.2869172,-0.3537154 0.6132526,-0.6737038 0.9727386,-0.9537149 0.071213,-0.055469 -0.073766,0.052283 0,0 L 8.2685604,6.854498 7.4314474,6.0173849 Z m 9.8784722,0.019965 v 0 l -0.875072,0.8750722 -0.01919,0.2664479 -0.01848,0.2565771 c 0.09415,0.06712 -0.08994,-0.072299 0,0 0.336199,0.2702614 0.64226,0.5759814 0.912876,0.9118373 0.07728,0.095917 0.316542,-0.3165436 0.539602,-0.021542 v 0 l 0.870866,-0.8708691 -0.01535,-0.5975583 v 0 L 17.250808,5.9383084 Z M 12,7 c -2.7614237,0 -5,2.2385763 -5,5 9.721e-4,0.187663 0.012508,0.374956 0.034497,0.560997 0.024453,0.206881 0.1846018,-0.04956 0.234757,0.153015 0.1227698,-0.461769 -0.1085978,0.457569 -0.1012858,0.455869 0.027124,-0.154317 0.060987,-0.306398 0.1012858,-0.455869 C 7.840683,10.594526 9.7060514,9 12,9 c 2.072335,0.0018 3.855484,1.320297 4.595703,3.212891 0.134007,0.03469 0.263609,0.07922 0.392578,0.125 C 16.995995,12.225425 16.999904,12.11273 17,12 17,9.2385763 14.761424,7 12,7 Z m 0,3 c -2.209139,0 -4,1.790861 -4,4 -1.6568542,0 -3,1.343146 -3,3 0,1.656854 1.3431458,3 3,3 H 15.5 16 V 19.96094 C 17.720816,19.712562 18.998429,18.238648 19,16.5 18.999317,14.712664 17.652048,13.212984 15.875,13.021484 15.427095,11.246153 13.83096,10.001587 12,10 Z m -8,1.431198 v 0 1.18822 L 4.4636871,13 v 0 h 1.273996 v 0 C 5.7102325,12.83957 6.0375876,12.67816 6.0232744,12.516171 6.0081146,12.344603 6.0003428,12.172387 6,12 6.0009619,11.835475 6.0086886,11.671131 6.0231439,11.507385 6.0381447,11.337459 5.6794546,11.168176 5.708907,11 v 0 H 4.3646162 Z M 18.298421,11 c 0.02824,0.165052 -0.334813,0.331141 -0.320477,0.49783 0.01436,0.166935 0.02172,0.334472 0.02206,0.50217 -0.001,0.17034 -0.0093,0.340486 -0.02472,0.509976 -0.01496,0.164095 0.259125,0.327576 0.230678,0.490024 v 0 h 1.36218 v 0 L 20,12.508019 v -1.116221 0 L 19.548721,11 Z"
     id="path544182"
     sodipodi:nodetypes="ccccscsccccccccccccccsscccccccccsscccccccscsccsccccsccsscccccccccccccscscccccscscccccccccc" />
</svg>
