<?xml version="1.0" encoding="UTF-8" standalone="no"?>
<svg
   width="24"
   height="24"
   version="1.1"
   id="svg9"
   sodipodi:docname="weather-few-clouds-night-220.svg"
   inkscape:version="1.1.2 (0a00cf5339, 2022-02-04)"
   xmlns:inkscape="http://www.inkscape.org/namespaces/inkscape"
   xmlns:sodipodi="http://sodipodi.sourceforge.net/DTD/sodipodi-0.dtd"
   xmlns="http://www.w3.org/2000/svg"
   xmlns:svg="http://www.w3.org/2000/svg">
  <sodipodi:namedview
     id="namedview11"
     pagecolor="#000000"
     bordercolor="#666666"
     borderopacity="1.0"
     inkscape:pageshadow="2"
     inkscape:pageopacity="0"
     inkscape:pagecheckerboard="0"
     showgrid="false"
     inkscape:zoom="97.462885"
     inkscape:cx="12.00457"
     inkscape:cy="15.282741"
     inkscape:window-width="1920"
     inkscape:window-height="1051"
     inkscape:window-x="0"
     inkscape:window-y="29"
     inkscape:window-maximized="1"
     inkscape:current-layer="g7" />
  <defs
     id="defs3">
    <style
       id="current-color-scheme"
       type="text/css">
   .ColorScheme-Text { color:#eeeeec; } .ColorScheme-Highlight { color:#367bf0; } .ColorScheme-NeutralText { color:#ffcc44; } .ColorScheme-PositiveText { color:#3db47e; } .ColorScheme-NegativeText { color:#dd4747; }
  </style>
  </defs>
  <g
     transform="translate(-176.00033,-680.28985)"
     id="g7">
    <path
       style="fill:currentColor"
       class="ColorScheme-Text"
       d="M 10.198154,4.4235889 C 9.9459687,4.4328483 10.249388,4.0689736 10.001824,4.1045077 7.5372404,4.458262 5.3516265,6.0934315 4.4394531,8.5996094 3.1971444,12.01282 4.7533645,15.793093 7.9588808,17.334054 c 0.055531,0.0267 -0.056515,-0.02534 0,0 -0.016511,-0.05978 0.1362904,-0.04252 0.1224603,-0.104054 -0.064236,-0.285821 -0.097392,-0.587805 -0.079388,-0.880391 0.0261,-0.943398 0.5214524,-1.784586 1.2402915,-2.364959 0.044081,-0.03559 -0.045705,0.03359 0,0 -0.032854,-0.03634 0.069439,-0.176817 0.037466,-0.213835 C 7.7868494,12.042346 7.2592773,9.5851817 8.0957031,7.2871094 8.5269051,6.1023856 9.271881,5.1405783 10.198154,4.4235889 c 0.178204,-0.1379399 -0.190681,0.1196611 0,0 z m 3.803799,7.5822701 c -1.31168,0 -2.40482,0.85843 -2.8125,2.03125 -1.2308299,0.15597 -2.1874999,1.19557 -2.1874999,2.46875 0,1.38071 1.1192899,2.5 2.4999999,2.5 h 5.5 c 1.10457,0 2,-0.89543 2,-2 0,-1.10457 -0.89543,-2 -2,-2 0,-1.65685 -1.34315,-3 -3,-3 z"
       transform="translate(177,681.28999)"
       id="path5"
       sodipodi:nodetypes="cscscscscssscscsssscs" />
  </g>
</svg>
