<?xml version="1.0" encoding="UTF-8" standalone="no"?>
<svg
   width="24"
   height="24"
   version="1.1"
   id="svg103513"
   sodipodi:docname="webtorrent-desktop-panel.svg"
   inkscape:version="1.1.2 (0a00cf5339, 2022-02-04)"
   xmlns:inkscape="http://www.inkscape.org/namespaces/inkscape"
   xmlns:sodipodi="http://sodipodi.sourceforge.net/DTD/sodipodi-0.dtd"
   xmlns="http://www.w3.org/2000/svg"
   xmlns:svg="http://www.w3.org/2000/svg">
  <sodipodi:namedview
     id="namedview103515"
     pagecolor="#000000"
     bordercolor="#666666"
     borderopacity="1.0"
     inkscape:pageshadow="2"
     inkscape:pageopacity="0"
     inkscape:pagecheckerboard="0"
     showgrid="false"
     inkscape:zoom="34.458333"
     inkscape:cx="11.941959"
     inkscape:cy="12"
     inkscape:window-width="837"
     inkscape:window-height="817"
     inkscape:window-x="468"
     inkscape:window-y="31"
     inkscape:window-maximized="1"
     inkscape:current-layer="svg103513" />
  <defs
     id="defs103509">
    <style
       id="current-color-scheme"
       type="text/css">
   .ColorScheme-Text { color:#eeeeec; } .ColorScheme-Highlight { color:#367bf0; } .ColorScheme-NeutralText { color:#ffcc44; } .ColorScheme-PositiveText { color:#3db47e; } .ColorScheme-NegativeText { color:#dd4747; }
  </style>
  </defs>
  <path
     style="fill:currentColor"
     class="ColorScheme-Text"
     d="m 11.544922,4.0004268 c -0.34898,-0.00819 -0.693589,0.075593 -0.996094,0.2421875 L 4.9511722,7.3344111 C 4.3623434,7.6595061 3.999722,8.2604001 4.0000002,8.9105829 V 15.09027 c -2.782e-4,0.650183 0.3623432,1.251077 0.951172,1.576172 l 5.5976558,3.089843 c 0.588588,0.324953 1.313756,0.324953 1.902344,0 l 5.597656,-3.089843 C 18.637657,16.341347 19.000278,15.740453 19,15.09027 V 8.9105829 C 19.000278,8.2604001 18.637657,7.6595061 18.048828,7.3344111 L 12.451172,4.2426143 C 12.175063,4.0905892 11.863448,4.0073126 11.544922,4.0004268 Z m 0.339189,2.212243 v 0 L 16.620599,8.829849 17,9.4175842 v 0 5.2023518 l -0.300197,0.505456 v 0 l -4.866384,2.690682 v 0 L 11.166086,17.815801 6.3776507,15.168217 6.0000002,14.633036 v 0 -5.1734983 0 L 6.3917991,8.8229982 11.089845,6.2270609 Z m -1.86458,2.7877566 c -1.1153528,0 -2.0195308,1.0295726 -2.0195308,2.2988276 0,1.733739 2.3869778,3.142054 3.2406618,4.248894 0.120926,0.156786 -0.04825,-0.144755 0,0 0.04962,-0.148849 0.402884,0.148254 0.52901,-0.01332 C 12.632111,14.430018 15,13.026047 15,11.299254 15,10.029999 14.095822,9.0004264 12.980469,9.0004264 c -0.501093,0 -0.959378,0.2615166 -1.312393,0.620794 -0.05907,0.060118 -0.278324,-0.05978 -0.331207,0.00505 -0.05141,-0.063014 0.05726,0.058587 0,0 -0.353676,-0.361876 -0.813903,-0.625844 -1.317338,-0.625844 z"
     id="path103511"
     sodipodi:nodetypes="cccccccccccccccccccccccccccccccccssscsssscss" />
</svg>
