<?xml version="1.0" encoding="UTF-8" standalone="no"?>
<svg
   width="24"
   height="24"
   version="1"
   id="svg295556"
   sodipodi:docname="workrave-indicator-quiet.svg"
   inkscape:version="1.1.2 (0a00cf5339, 2022-02-04)"
   xmlns:inkscape="http://www.inkscape.org/namespaces/inkscape"
   xmlns:sodipodi="http://sodipodi.sourceforge.net/DTD/sodipodi-0.dtd"
   xmlns="http://www.w3.org/2000/svg"
   xmlns:svg="http://www.w3.org/2000/svg">
  <sodipodi:namedview
     id="namedview295558"
     pagecolor="#000000"
     bordercolor="#666666"
     borderopacity="1.0"
     inkscape:pageshadow="2"
     inkscape:pageopacity="0"
     inkscape:pagecheckerboard="0"
     showgrid="false"
     inkscape:zoom="34.458333"
     inkscape:cx="12.01451"
     inkscape:cy="12"
     inkscape:window-width="1920"
     inkscape:window-height="1051"
     inkscape:window-x="0"
     inkscape:window-y="29"
     inkscape:window-maximized="1"
     inkscape:current-layer="svg295556" />
  <defs
     id="defs295548">
    <style
       id="current-color-scheme"
       type="text/css">
   .ColorScheme-Text { color:#eeeeec; } .ColorScheme-Highlight { color:#367bf0; } .ColorScheme-NeutralText { color:#ffcc44; } .ColorScheme-PositiveText { color:#3db47e; } .ColorScheme-NegativeText { color:#dd4747; }
  </style>
  </defs>
  <path
     style="fill:currentColor"
     class="ColorScheme-Text"
     d="M 12,4 C 9.790861,4 8,5.790861 8,8 c 0,2.209139 1.790861,4 4,4 2.209139,0 4,-1.790861 4,-4 0,-2.209139 -1.790861,-4 -4,-4 z m -0.698444,2 v 0 h 1.439217 V 6 L 13,6.2635842 V 7 h 0.769969 L 14,7.2355408 v 0 1.5756564 0 L 13.743722,9 H 13 v 0.6960195 0 L 12.718684,10 h -1.433375 v 0 L 11,9.7062832 V 9 H 10.312534 V 9 L 10,8.7415047 v -1.4110041 0 L 10.264132,7 H 11 V 6.2155898 Z M 12,14 C 3.9996,14.004 4,19.145 4,19.145 V 20 h 10.174 l 1.350051,-1.350051 0.0077,-0.362075 v 0 l -1.723314,-1.72169 -0.0065,-0.438056 v 0 l 1.488526,-1.488526 -0.08493,-0.292917 c -0.09814,-0.02682 0.102244,0.0247 0,0 C 14.312737,14.131037 13.260621,13.999103 12,14 Z m 4.202003,1.141997 v 0 L 15.24445,16.09955 v 0 L 15.233468,16.577248 17.123,18.465 15.226119,20.361881 v 0 l 0.06759,0.519417 0.893121,0.891858 0.511084,-0.05708 v 0 L 18.535,19.879 l 1.810222,1.808517 0.590119,0.03514 v 0 l 0.866909,-0.866909 0.02351,-0.512412 v 0 L 19.949,18.4649 l 1.898742,-1.898742 -0.04319,-0.488277 v 0 l -0.883625,-0.884877 v 0 L 20.35525,15.23245 18.535,17.0527 16.665114,15.181139 v 0 z"
     id="path295550"
     sodipodi:nodetypes="ssssscccccccccccccccccccccccccccccccccccccccccsccccccccccccccccccccccccccccccc" />
  <g
     transform="translate(-39.549 -8.213)"
     id="g295554">
    <path
       style="fill:currentColor"
       class="ColorScheme-Text"
       d="m30.565 21.238 1.414 1.414-1.793 1.793h5.172v2h-5.172l1.793 1.793-1.414 1.414-4.207-4.207z"
       id="path295552" />
  </g>
</svg>
