<?xml version="1.0" encoding="UTF-8" standalone="no"?>
<svg
   width="24"
   height="24"
   version="1.1"
   id="svg9"
   sodipodi:docname="xfce-newmail.svg"
   inkscape:version="1.1.2 (0a00cf5339, 2022-02-04)"
   xmlns:inkscape="http://www.inkscape.org/namespaces/inkscape"
   xmlns:sodipodi="http://sodipodi.sourceforge.net/DTD/sodipodi-0.dtd"
   xmlns="http://www.w3.org/2000/svg"
   xmlns:svg="http://www.w3.org/2000/svg">
  <sodipodi:namedview
     id="namedview11"
     pagecolor="#000000"
     bordercolor="#666666"
     borderopacity="1.0"
     inkscape:pageshadow="2"
     inkscape:pageopacity="0"
     inkscape:pagecheckerboard="0"
     showgrid="false"
     inkscape:zoom="89.095454"
     inkscape:cx="18.637315"
     inkscape:cy="9.3102393"
     inkscape:window-width="633"
     inkscape:window-height="841"
     inkscape:window-x="639"
     inkscape:window-y="31"
     inkscape:window-maximized="1"
     inkscape:current-layer="svg9" />
  <defs
     id="defs3">
    <style
       id="current-color-scheme"
       type="text/css">
   .ColorScheme-Text { color:#eeeeec; } .ColorScheme-Highlight { color:#367bf0; } .ColorScheme-NeutralText { color:#ffcc44; } .ColorScheme-PositiveText { color:#3db47e; } .ColorScheme-NegativeText { color:#dd4747; }
  </style>
  </defs>
  <path
     style="fill:currentColor"
     class="ColorScheme-Text"
     d="M 6,6 C 4.892,6 4,6.892 4,8 v 8 c 0,1.108 0.892,2 2,2 h 9.625773 v 0 c -0.494595,0 0.411253,-0.122492 -0.002,-0.338528 C 14.662688,17.15898 14,16.150405 14,15 c 0,-1.645 1.355,-3 3,-3 1.185646,0 2.22064,0.703911 2.706216,1.712967 C 19.894342,14.103905 20,13.26206 20,13.721414 v 0 V 8 C 20,6.892 19.108,6 18,6 Z m 0,2.2733409 0.2805531,-0.1330643 5.5502039,2.7751024 0.336816,8.35e-4 v 0 L 17.76281,8.118595 v 0 L 18,8.2546759 V 9.798576 l -0.182897,0.292872 v 0 l -5.652118,2.82606 -0.327933,10e-4 v 0 L 6.1401114,10.070055 v 0 L 6,9.8292208 Z"
     id="path5"
     sodipodi:nodetypes="ssssccssssccssscccccccccccccccccc" />
  <path
     style="fill:currentColor"
     class="ColorScheme-Highlight"
     d="m 17,13 a 2,2 0 0 0 -2,2 2,2 0 0 0 2,2 2,2 0 0 0 2,-2 2,2 0 0 0 -2,-2 z"
     id="path7" />
</svg>
