<?xml version="1.0" encoding="UTF-8" standalone="no"?>
<svg
   width="24"
   height="24"
   version="1.1"
   id="svg6160"
   sodipodi:docname="yum-indicator-working.svg"
   inkscape:version="1.1.2 (0a00cf5339, 2022-02-04)"
   xmlns:inkscape="http://www.inkscape.org/namespaces/inkscape"
   xmlns:sodipodi="http://sodipodi.sourceforge.net/DTD/sodipodi-0.dtd"
   xmlns="http://www.w3.org/2000/svg"
   xmlns:svg="http://www.w3.org/2000/svg">
  <sodipodi:namedview
     id="namedview6162"
     pagecolor="#000000"
     bordercolor="#666666"
     borderopacity="1.0"
     inkscape:pageshadow="2"
     inkscape:pageopacity="0"
     inkscape:pagecheckerboard="0"
     showgrid="false"
     inkscape:zoom="34.458333"
     inkscape:cx="12.01451"
     inkscape:cy="12"
     inkscape:window-width="1920"
     inkscape:window-height="1051"
     inkscape:window-x="0"
     inkscape:window-y="29"
     inkscape:window-maximized="1"
     inkscape:current-layer="g6158" />
  <defs
     id="defs6154">
    <style
       id="current-color-scheme"
       type="text/css">
   .ColorScheme-Text { color:#eeeeec; } .ColorScheme-Highlight { color:#367bf0; } .ColorScheme-NeutralText { color:#ffcc44; } .ColorScheme-PositiveText { color:#3db47e; } .ColorScheme-NegativeText { color:#dd4747; }
  </style>
  </defs>
  <g
     id="g6158">
    <path
       style="fill:currentColor;fill-rule:evenodd"
       class="ColorScheme-Text"
       d="m 11.820675,4.1609437 c 0.215978,0.1930371 0.06082,-0.053456 0,0 C 9.8267168,5.9134855 6.737894,7.4511866 5.3244995,7.9071935 5.2034674,7.9462424 5.0970443,8.2527836 5.0023232,8.2754243 c 0,0.091686 -0.00155,-0.091922 0,0 C 5.0907759,13.530227 7.7002155,19.126284 12,20 c 4.306543,-0.87509 6.917424,-6.487378 6.998075,-11.7493536 0.0013,-0.083644 0,0.083447 0,0 C 18.917432,8.231377 18.828557,7.9553211 18.728673,7.9241073 17.349072,7.4929813 14.23644,5.9545442 12.215979,4.1930371 12.142496,4.1289722 12.036653,4.3539808 11.820675,4.1609437 Z M 11,9 h 2 v 5 h 1.525079 l 0.12436,0.350561 v 0 l -2.442326,2.442326 -0.41123,0.003 v 0 L 9.3681756,14.368176 v 0 L 9.5111614,14 H 11 Z"
       id="path6156"
       sodipodi:nodetypes="csscscscssccccccccccccccc" />
  </g>
</svg>
