<?xml version="1.0" encoding="UTF-8" standalone="no"?>
<svg
   width="24"
   height="24"
   version="1.1"
   id="svg9867"
   sodipodi:docname="yum-indicator-updates.svg"
   inkscape:version="1.1.2 (0a00cf5339, 2022-02-04)"
   xmlns:inkscape="http://www.inkscape.org/namespaces/inkscape"
   xmlns:sodipodi="http://sodipodi.sourceforge.net/DTD/sodipodi-0.dtd"
   xmlns="http://www.w3.org/2000/svg"
   xmlns:svg="http://www.w3.org/2000/svg">
  <sodipodi:namedview
     id="namedview9869"
     pagecolor="#000000"
     bordercolor="#666666"
     borderopacity="1.0"
     inkscape:pageshadow="2"
     inkscape:pageopacity="0"
     inkscape:pagecheckerboard="0"
     showgrid="false"
     inkscape:zoom="34.458333"
     inkscape:cx="12.01451"
     inkscape:cy="12"
     inkscape:window-width="1920"
     inkscape:window-height="1051"
     inkscape:window-x="0"
     inkscape:window-y="29"
     inkscape:window-maximized="1"
     inkscape:current-layer="g9865" />
  <defs
     id="defs9861">
    <style
       id="current-color-scheme"
       type="text/css">
   .ColorScheme-Text { color:#eeeeec; } .ColorScheme-Highlight { color:#367bf0; } .ColorScheme-NeutralText { color:#ffcc44; } .ColorScheme-PositiveText { color:#3db47e; } .ColorScheme-NegativeText { color:#dd4747; }
  </style>
  </defs>
  <g
     id="g9865">
    <path
       style="fill:currentColor;fill-rule:evenodd"
       class="ColorScheme-Text"
       d="M 12.246567,4.2196159 C 12.17442,4.2857741 11.854049,4.1320517 11.778734,4.1976346 9.7800461,5.9380513 6.7169799,7.4598601 5.3169102,7.9096368 5.198918,7.9475422 5.0956885,8.2883633 5.0029515,8.3105297 c 0,0.1033557 -0.00197,-0.1036512 0,0 C 5.1024044,13.555124 7.7097893,19.128229 12,20 c 4.29806,-0.873366 6.90713,-6.465284 6.997569,-11.7182518 0.0016,-0.094034 0,0.093788 0,0 -0.07584,-0.018121 -0.158227,-0.3234208 -0.251138,-0.352123 -1.363615,-0.4212524 -4.46994,-1.9520343 -6.499864,-3.7100093 -0.0841,-0.072836 0.08021,0.073554 0,0 z M 12.145,7.998 V 8 h 0.001 c 1.309,0.048 2.501,0.7374 3.204,1.8184 l 1.076728,-0.3590902 v 0 l 0.147283,0.2248469 -1.285925,2.5771733 v 0 l -0.342754,0.129279 -2.515028,-1.258153 7.75e-4,-0.341353 v 0 L 13.299,10.502 C 12.961,10.208 12.536,10.015 12.07,9.998 11.328,9.971 10.6357,10.3531 10.2637,10.9961 l -1.7325,-1 C 9.2713,8.7141 10.6655,7.943 12.145,7.998 Z m -3.0881439,3.612464 v 0 l 2.6036579,1.302242 0.01104,0.261792 v 0 L 10.7012,13.498 c 0.3378,0.294 0.7628,0.485 1.2288,0.502 0.742,0.027 1.434,-0.355 1.806,-0.998 l 1.733,1 C 14.729,15.284 13.334,16.055 11.855,16 10.5465,15.952 9.3553,15.263 8.6523,14.182 l -0.9609438,0.320407 v 0 L 7.4627575,14.245565 8.7080233,11.746776 Z"
       id="path9863"
       sodipodi:nodetypes="csscscscssccccccccccccccccccccccccccccccccccc" />
  </g>
</svg>
