<?xml version="1.0" encoding="UTF-8" standalone="no"?>
<svg
   width="36pt"
   height="36pt"
   version="1.1"
   viewBox="0 0 36 36"
   id="svg17"
   sodipodi:docname="application-wireshark-doc.svg"
   inkscape:version="1.1.2 (0a00cf5339, 2022-02-04)"
   xmlns:inkscape="http://www.inkscape.org/namespaces/inkscape"
   xmlns:sodipodi="http://sodipodi.sourceforge.net/DTD/sodipodi-0.dtd"
   xmlns="http://www.w3.org/2000/svg"
   xmlns:svg="http://www.w3.org/2000/svg">
  <sodipodi:namedview
     id="namedview19"
     pagecolor="#ffffff"
     bordercolor="#666666"
     borderopacity="1.0"
     inkscape:pageshadow="2"
     inkscape:pageopacity="0.0"
     inkscape:pagecheckerboard="0"
     inkscape:document-units="pt"
     showgrid="false"
     inkscape:zoom="16.1875"
     inkscape:cx="24"
     inkscape:cy="24"
     inkscape:window-width="1448"
     inkscape:window-height="980"
     inkscape:window-x="235"
     inkscape:window-y="49"
     inkscape:window-maximized="1"
     inkscape:current-layer="svg17" />
  <defs
     id="defs5">
    <filter
       id="a"
       x="-0.19199928"
       y="-0.19199928"
       width="1.3839986"
       height="1.3839986"
       color-interpolation-filters="sRGB">
      <feGaussianBlur
         stdDeviation="0.67843748"
         id="feGaussianBlur2" />
    </filter>
  </defs>
  <path
     d="m7.3477 3.9022c-0.67188 0-1.3047 0.63281-1.3047 1.3047v27.391c0 0.63281 0.67188 1.3047 1.3047 1.3047h20.871c0.63281 0 1.3047-0.67188 1.3047-1.3047v-20.215l-8.4805-8.4805z"
     opacity=".1"
     id="path7" />
  <path
     d="m7.3477 3.1523c-0.67188 0-1.3047 0.63281-1.3047 1.3047v27.391c0 0.63281 0.67188 1.3047 1.3047 1.3047h20.871c0.63281 0 1.3047-0.67188 1.3047-1.3047v-20.215l-8.4805-8.4805z"
     fill="#1b3f7c"
     fill-opacity=".99608"
     id="path9" />
  <path
     d="m20.668 3.5272 8.4805 8.4805h-7.1758c-0.63281 0-1.3047-0.67187-1.3047-1.3047z"
     filter="url(#a)"
     opacity=".2"
     id="path11" />
  <path
     d="m21.043 3.1523 8.4805 8.4805h-7.1758c-0.63281 0-1.3047-0.67187-1.3047-1.3047z"
     fill="#265ab1"
     id="path13" />
  <path
     d="m 22.603,15.042 -0.0015,4.62e-4 c -4.4392,0.06712 -6.9246,2.5985 -8.2351,5.0631 -1.199,2.256 -1.3795,4.1212 -1.4149,4.4823 H 7.7213 c 0.12067,0.32525 0.25598,0.64331 0.4058,0.95317 h 5.197 c 0.13593,0 0.26828,-0.06159 0.35754,-0.16384 0.05005,-0.05966 0.0875,-0.13211 0.10411,-0.20886 0.0019,-0.02044 0.0019,-0.04087 0,-0.05963 0,0 0.2235,-2.2577 1.4298,-4.5271 1.06045,-1.993089 2.897572,-3.923903 6.092823,-4.40919 0.197207,-0.02995 0.121385,0.566045 0.329075,0.547432 -0.102648,0.205479 0.08307,-0.20794 0,0 -1.637235,4.09842 0.384572,8.552758 0.384572,8.552758 0.0166,0.02044 0.03707,0.04084 0.05945,0.05936 0.08204,0.12101 0.2235,0.20115 0.37026,0.20886 h 5.4211 c 0.14982,-0.30985 0.28522,-0.62789 0.40589,-0.95317 h -5.4696 c -0.1826,-0.4073 -2.2374,-5.1079 0.22546,-8.8162 0.06327,-0.11139 0.08012,-0.24894 0.04475,-0.37188 -0.0166,-0.07626 -0.05386,-0.14919 -0.10438,-0.20886 -0.09479,-0.10057 -0.23439,-0.15635 -0.37224,-0.14913 z"
     fill="#ffffff"
     stroke-width="0.061588"
     id="path15"
     sodipodi:nodetypes="ccccccsccccscsccccccccccc" />
</svg>
