<?xml version="1.0" encoding="UTF-8" standalone="no"?>
<svg
   width="64"
   height="64"
   version="1.1"
   id="svg1294394"
   sodipodi:docname="application-x-cmakecache.svg"
   inkscape:version="1.1.2 (0a00cf5339, 2022-02-04)"
   xmlns:inkscape="http://www.inkscape.org/namespaces/inkscape"
   xmlns:sodipodi="http://sodipodi.sourceforge.net/DTD/sodipodi-0.dtd"
   xmlns="http://www.w3.org/2000/svg"
   xmlns:svg="http://www.w3.org/2000/svg">
  <defs
     id="defs1294398" />
  <sodipodi:namedview
     id="namedview1294396"
     pagecolor="#ffffff"
     bordercolor="#666666"
     borderopacity="1.0"
     inkscape:pageshadow="2"
     inkscape:pageopacity="0.0"
     inkscape:pagecheckerboard="0"
     showgrid="false"
     inkscape:zoom="12.921875"
     inkscape:cx="31.961306"
     inkscape:cy="32"
     inkscape:window-width="1920"
     inkscape:window-height="1051"
     inkscape:window-x="0"
     inkscape:window-y="29"
     inkscape:window-maximized="1"
     inkscape:current-layer="svg1294394" />
  <path
     style="opacity:0.2"
     d="M 12.75,5 C 11.2265,5 10,6.2488 10,7.8 v 50.4 c 0,1.55008 1.2265,2.8 2.75,2.8 h 38.5 C 52.7724,61 54,59.75008 54,58.2 V 23 L 40,19 36,5 Z"
     id="path1294382" />
  <path
     style="fill:#e4e4e4"
     d="M 12.75,4 C 11.2265,4 10,5.2488 10,6.8 v 50.4 c 0,1.55008 1.2265,2.8 2.75,2.8 h 38.5 C 52.7724,60 54,58.75008 54,57.2 V 22 L 40,18 36,4 Z"
     id="path1294384" />
  <path
     style="opacity:0.2"
     d="M 54,23 36,5 V 20.1875 C 36,21.74675 37.2555,23 38.8125,23 Z"
     id="path1294386" />
  <path
     style="fill:#fafafa"
     d="M 54,22 36,4 V 19.1875 C 36,20.74675 37.2555,22 38.8125,22 Z"
     id="path1294388" />
  <path
     style="opacity:0.2;fill:#ffffff"
     d="M 12.75 4 C 11.2265 4 10 5.2495812 10 6.8007812 L 10 7.8007812 C 10 6.2495813 11.2265 5 12.75 5 L 36 5 L 36 4 L 12.75 4 z"
     id="path1294390" />
  <path
     style="fill:#8d6e63"
     d="m 29.689876,28 -1.049951,0.99575 -0.206331,2.426125 c -1.094545,0.401786 -2.112278,0.984951 -3.009766,1.724609 l -2.195719,-1.024122 -1.520469,0.546643 v 0 l -2.226257,3.819092 0.309057,1.365378 v 0 l 2.065029,1.421916 c -0.101777,0.568752 -0.154701,1.145037 -0.158203,1.722656 4.75e-4,0.580009 0.05079,1.158924 0.15039,1.730469 l -2.254034,1.547523 v 0 l 0.0189,1.459318 2.283365,3.920751 v 0 l 1.043033,0.350739 2.473186,-1.153331 c 0.901162,0.737141 1.922227,1.317021 3.019532,1.714843 L 28.653124,53.215617 29.722047,54 v 0 h 4.318484 l 1.332901,-1.115634 v 0 l 0.194927,-2.310147 c 1.095369,-0.402184 2.113784,-0.986023 3.011719,-1.726563 l 2.339392,1.093269 1.226618,-0.359814 v 0 l 2.385291,-4.09333 -0.191809,-1.258035 v 0 l -2.193086,-1.50709 c 0.102544,-0.569339 0.156122,-1.146282 0.160157,-1.724609 -5.87e-4,-0.579357 -0.0509,-1.157614 -0.150391,-1.728516 l 2.097139,-1.440342 0.159274,-1.520945 v 0 l -2.078895,-3.568419 v 0 l -1.426481,-0.673001 -2.319396,1.081614 C 37.686873,32.410604 36.6658,31.830058 35.568359,31.431641 l -0.199846,-2.388642 v 0 L 34.164355,28 Z M 32,36 c 2.761424,0 5,2.238576 5,5 0,2.761424 -2.238576,5 -5,5 -2.761424,0 -5,-2.238576 -5,-5 0,-2.761424 2.238576,-5 5,-5 z"
     id="path1294392"
     sodipodi:nodetypes="cccccccccccccccccccccccccccccccccccccccccccccccccccsssss" />
</svg>
