<?xml version="1.0" encoding="UTF-8" standalone="no"?>
<svg
   width="36pt"
   height="36pt"
   version="1.1"
   viewBox="0 0 36 36"
   id="svg40"
   sodipodi:docname="application-x-osm+xml.svg"
   inkscape:version="1.1.2 (0a00cf5339, 2022-02-04)"
   xmlns:inkscape="http://www.inkscape.org/namespaces/inkscape"
   xmlns:sodipodi="http://sodipodi.sourceforge.net/DTD/sodipodi-0.dtd"
   xmlns="http://www.w3.org/2000/svg"
   xmlns:svg="http://www.w3.org/2000/svg">
  <sodipodi:namedview
     id="namedview42"
     pagecolor="#ffffff"
     bordercolor="#666666"
     borderopacity="1.0"
     inkscape:pageshadow="2"
     inkscape:pageopacity="0.0"
     inkscape:pagecheckerboard="0"
     inkscape:document-units="pt"
     showgrid="false"
     inkscape:zoom="16.1875"
     inkscape:cx="24"
     inkscape:cy="24"
     inkscape:window-width="1448"
     inkscape:window-height="980"
     inkscape:window-x="235"
     inkscape:window-y="49"
     inkscape:window-maximized="1"
     inkscape:current-layer="svg40" />
  <defs
     id="defs12">
    <linearGradient
       id="b"
       x1="336"
       x2="336"
       y1="62"
       y2="-180"
       gradientTransform="matrix(1.0769,0,0,1.0769,259.7,204.76)"
       gradientUnits="userSpaceOnUse">
      <stop
         stop-color="#ca2a2a"
         offset="0"
         id="stop2" />
      <stop
         stop-color="#fd4949"
         offset="1"
         id="stop4" />
    </linearGradient>
    <linearGradient
       id="a"
       x1="334.2"
       x2="415.5"
       y1="-68"
       y2="-68"
       gradientTransform="matrix(1.0882,0,0,1.0882,-268.94,695.54)"
       gradientUnits="userSpaceOnUse">
      <stop
         stop-color="#ca2a2a"
         offset="0"
         id="stop7" />
      <stop
         stop-color="#fd3535"
         offset="1"
         id="stop9" />
    </linearGradient>
  </defs>
  <path
     d="m7.6667 3.75c-0.66265 0-1.2917 0.63519-1.2917 1.3043v27.391c0 0.63179 0.66265 1.3043 1.2917 1.3043h20.667c0.62565 0 1.2917-0.67256 1.2917-1.3043v-27.391c0-0.66916-0.62565-1.3043-1.2917-1.3043z"
     opacity=".1"
     stroke-width=".86533"
     id="path14" />
  <path
     d="m7.6667 3c-0.66265 0-1.2917 0.63519-1.2917 1.3043v27.391c0 0.63179 0.66265 1.3043 1.2917 1.3043h20.667c0.62565 0 1.2917-0.67256 1.2917-1.3043v-27.391c0-0.66916-0.62565-1.3043-1.2917-1.3043z"
     fill="#fff"
     stroke-width=".86533"
     id="path16" />
  <path
     d="m 6.5493,17.805 v 12.524 c 0,0.15396 0.016035,0.30297 0.035156,0.44971 l 10.465,-12.974 z m 23.262,0 v 12.523 c 0,0.22012 -0.0245,0.43249 -0.06299,0.63721 0.03839,-0.2044 0.06445,-0.41569 0.06445,-0.63574 v -12.524 z m -11.344,2.8945 -9.9229,12.3 c 0.026865,0.0014 0.051982,0.01025 0.079102,0.01025 h 18.220207 0.894793 c 0.01408,0 0.027,-0.0055 0.04102,-0.0059 -0.01438,3.77e-4 -0.02803,0.0044 -0.04248,0.0044 l -0.893333,0.0015 0.205486,-0.768944 z M 6.5893,30.8255 C 6.59858,30.88991 6.613161,30.95032 6.625921,31.013 6.613185,30.95055 6.598585,30.88968 6.5893,30.8255 Z m 0.10693,0.48193 C 6.71461,31.3681 6.737595,31.42482 6.759218,31.48321 6.737703,31.42512 6.714534,31.36777 6.69623,31.30743 Z m 22.958,0.04687 c -0.004,0.01232 -0.0077,0.02431 -0.01172,0.03662 0.004,-0.01219 0.0078,-0.02433 0.01172,-0.03662 z m -0.15234,0.37354 c -0.02411,0.05077 -0.04664,0.10243 -0.07324,0.15088 0.02667,-0.04858 0.04907,-0.09995 0.07324,-0.15088 z m -22.636,0.01319 c 0.029717,0.06179 0.061816,0.12044 0.095215,0.17871 C 6.927863,31.86175 6.895484,31.80251 6.86589,31.74103 Z m 0.22266,0.37793 c 0.038224,0.05476 0.075611,0.10916 0.11719,0.15967 C 7.164328,32.22834 7.126638,32.17348 7.08855,32.11896 Z m 22.138,0.07617 c -0.02709,0.0361 -0.0578,0.06699 -0.08643,0.10108 0.02867,-0.03411 0.05929,-0.06494 0.08643,-0.10108 z m -21.86,0.25635 c 0.044834,0.04434 0.088599,0.08933 0.13623,0.12891 C 7.45531,32.54096 7.411239,32.49565 7.36655,32.45148 Z m 21.593,0.03662 c -0.03476,0.03287 -0.0691,0.06661 -0.10547,0.09668 0.03659,-0.03019 0.07051,-0.06365 0.10547,-0.09668 z m -21.272,0.22266 C 7.736877,32.74312 7.783972,32.78015 7.8355,32.80744 7.783877,32.78016 7.736969,32.74312 7.68755,32.71076 Z m 20.88,0.07471 c -0.03208,0.01804 -0.0667,0.02943 -0.09961,0.04541 0.03302,-0.01602 0.06742,-0.02732 0.09961,-0.04541 z m -0.34424,0.14356 c -0.04192,0.01297 -0.08455,0.02405 -0.12744,0.03369 0.04318,-0.0097 0.08524,-0.02066 0.12744,-0.03369 z m -20.038,0.01904 c 0.051308,0.01418 0.10554,0.0157 0.1582,0.0249 -0.052643,-0.0092 -0.10691,-0.01075 -0.1582,-0.0249 z"
     fill="#367bf0"
     stroke-width="0.086214"
     id="path18"
     sodipodi:nodetypes="csccccscsccccscscscccccccccccccccccccccccccccccccccccccccccc" />
  <path
     transform="scale(.75)"
     d="m10.223 4c-0.88353 0-1.7227 0.84613-1.7227 1.7383v35.371l29.836-36.992c-0.17882-0.070849-0.36691-0.11719-0.55859-0.11719z"
     fill="#19a187"
     id="path20" />
  <path
     transform="scale(.75)"
     d="m39.5 9.1504v-3.4121c0-0.44611-0.20778-0.87988-0.52734-1.2031-0.19114-0.19334-0.38703-0.32587-0.63672-0.41797l-29.836 36.992v1.1504c0 0.42119 0.22115 0.85608 0.54688 1.1855 0.32572 0.32947 0.75641 0.55469 1.1758 0.55469h1.1699z"
     fill="#ffc730"
     stroke-width=".11999"
     id="path22" />
  <g
     transform="matrix(.063591 0 0 .063591 -16.196 6.8316)"
     id="g36">
    <circle
       transform="matrix(0,1,1,0,0,0)"
       cx="131.53"
       cy="621.54"
       r="51.691"
       enable-background="new"
       fill="url(#a)"
       id="circle24" />
    <circle
       transform="matrix(0,1,1,0,0,0)"
       cx="131.53"
       cy="621.54"
       r="51.691"
       enable-background="new"
       opacity=".2"
       id="circle26" />
    <path
       d="m621.54 10.922c-30.868 0-61.735 11.776-85.286 35.328-47.102 47.103-47.102 123.47 0 170.57l85.286 85.288s59.537-59.539 85.286-85.288c47.102-47.102 47.102-123.47 0-170.57-23.551-23.551-54.418-35.328-85.286-35.328zm0 77.537a43.076 43.076 0 0 1 43.076 43.076 43.076 43.076 0 0 1-43.076 43.076 43.076 43.076 0 0 1-43.076-43.076 43.076 43.076 0 0 1 43.076-43.076z"
       enable-background="new"
       fill="url(#b)"
       style="paint-order:normal"
       id="path28" />
    <path
       transform="matrix(0.89458,0,0,0.89458,315.79,-17.716)"
       d="m 207.05,161.84 c -1.333,36.151 11.791,72.736 39.389,100.33 l 87.98323,87.98692 7.35277,-2.64292 c 0,0 2.76495,7.23089 7.41143,2.58414 18.14987,-18.1509 65.00829,-65.01186 87.92457,-87.92814 27.598,-27.598 40.722,-64.183 39.389,-100.33 -1.2106,32.819 -14.334,65.28 -39.389,90.334 -28.783,28.783 -95.336,95.34 -95.336,95.34 l -95.336,-95.34 C 221.385,227.12 208.261,194.659 207.05,161.84 Z"
       enable-background="new"
       fill="#951212"
       opacity="0.5"
       style="paint-order:normal"
       id="path30"
       sodipodi:nodetypes="ccccssccccc" />
    <path
       transform="matrix(.89458 0 0 .89458 315.79 -17.716)"
       d="m341.78 118.69c-26.594 2e-5 -48.152 21.559-48.152 48.152 5.4e-4 1.6694 0.0879 3.3377 0.26172 4.998 2.5613-24.523 23.234-43.15 47.891-43.15 24.656-5.7e-4 45.329 18.624 47.893 43.146 0.17303-1.6591 0.25974-3.326 0.25977-4.9941-2e-5 -26.594-21.559-48.152-48.152-48.152z"
       enable-background="new"
       opacity=".1"
       style="paint-order:normal"
       id="path32" />
    <path
       transform="matrix(.89458 0 0 .89458 315.79 -17.716)"
       d="m341.78 32.012c-34.505 0-69.01 13.163-95.336 39.49-27.599 27.599-40.722 64.186-39.389 100.34 1.2102-32.82 14.334-65.283 39.389-90.338 26.326-26.327 60.831-39.49 95.336-39.49s69.01 13.163 95.336 39.49c25.055 25.055 38.179 57.518 39.389 90.338 1.3336-36.152-11.79-72.739-39.389-100.34-26.326-26.327-60.831-39.49-95.336-39.49z"
       enable-background="new"
       fill="#fff"
       opacity=".1"
       style="paint-order:normal"
       id="path34" />
  </g>
  <path
     transform="scale(.75)"
     d="m10.223 4c-0.88353 0-1.7227 0.84613-1.7227 1.7383v0.80859c0-0.89215 0.83912-1.7402 1.7227-1.7402h27.555c0.88807 0 1.7227 0.84802 1.7227 1.7402v-0.80859c0-0.89221-0.83459-1.7383-1.7227-1.7383h-27.555z"
     fill="#fff"
     opacity=".2"
     id="path38" />
</svg>
