<?xml version="1.0" encoding="UTF-8" standalone="no"?>
<svg
   width="64"
   height="64"
   version="1.1"
   id="svg16"
   sodipodi:docname="application-x-blender.svg"
   inkscape:version="1.1.2 (0a00cf5339, 2022-02-04)"
   xmlns:inkscape="http://www.inkscape.org/namespaces/inkscape"
   xmlns:sodipodi="http://sodipodi.sourceforge.net/DTD/sodipodi-0.dtd"
   xmlns="http://www.w3.org/2000/svg"
   xmlns:svg="http://www.w3.org/2000/svg">
  <defs
     id="defs20" />
  <sodipodi:namedview
     id="namedview18"
     pagecolor="#ffffff"
     bordercolor="#666666"
     borderopacity="1.0"
     inkscape:pageshadow="2"
     inkscape:pageopacity="0.0"
     inkscape:pagecheckerboard="0"
     showgrid="false"
     inkscape:zoom="12.140625"
     inkscape:cx="32"
     inkscape:cy="32"
     inkscape:window-width="1448"
     inkscape:window-height="980"
     inkscape:window-x="235"
     inkscape:window-y="49"
     inkscape:window-maximized="1"
     inkscape:current-layer="svg16" />
  <path
     style="opacity:0.2"
     d="M 12.75,5 C 11.2265,5 10,6.2488 10,7.8 v 50.4 c 0,1.55008 1.2265,2.8 2.75,2.8 h 38.5 C 52.7724,61 54,59.75008 54,58.2 V 23 L 40,19 36,5 Z"
     id="path2" />
  <path
     style="fill:#f4b43f"
     d="M 12.75,4 C 11.2265,4 10,5.2488 10,6.8 v 50.4 c 0,1.55008 1.2265,2.8 2.75,2.8 h 38.5 C 52.7724,60 54,58.75008 54,57.2 V 22 L 40,18 36,4 Z"
     id="path4" />
  <path
     style="opacity:0.2"
     d="M 54,23 36,5 V 20.1875 C 36,21.74675 37.2555,23 38.8125,23 Z"
     id="path6" />
  <path
     style="fill:#ffdea2"
     d="M 54,22 36,4 V 19.1875 C 36,20.74675 37.2555,22 38.8125,22 Z"
     id="path8" />
  <path
     style="opacity:0.2;fill:#ffffff"
     d="M 12.75 4 C 11.2265 4 10 5.2495812 10 6.8007812 L 10 7.8007812 C 10 6.2495813 11.2265 5 12.75 5 L 36 5 L 36 4 L 12.75 4 z"
     id="path10" />
  <path
     style="opacity:0.2"
     d="m 30.33108,26.027344 c -0.51124,0 -1.022322,0.198 -1.414063,0.589844 -0.78348,0.78346 -0.78348,2.044524 0,2.828124 L 34.471706,35 H 19.98733 c -1.108,0 -2,0.892 -2,2 0,1.108 0.892,2 2,2 2.5516,-0.006 4.545772,-0.0017 7.859376,0 L 17.60061,49.242188 c -0.78348,0.78348 -0.78348,2.044524 0,2.828124 0.78348,0.78348 2.048632,0.78348 2.832031,0 1.83416,-1.84408 3.29166,-3.294062 5.664064,-5.664062 A 10,10 0 0 0 35.98733,55 a 10,10 0 0 0 10,-10 10,10 0 0 0 -2.933594,-7.066406 l 0.004,-0.004 c 0,0 -7.6493,-7.6295 -11.3125,-11.3125 -0.3912,-0.39184 -0.902861,-0.589844 -1.414062,-0.589844 z M 35.98733,39 a 6,6 0 0 1 6,6 6,6 0 0 1 -6,6 6,6 0 0 1 -6,-6 6,6 0 0 1 6,-6 z m 0,2 a 4,4 0 0 0 -4,4 4,4 0 0 0 4,4 4,4 0 0 0 4,-4 4,4 0 0 0 -4,-4 z"
     id="path12" />
  <path
     style="fill:#ffffff"
     d="m 30.33108,25.027344 c -0.51124,0 -1.022322,0.198 -1.414063,0.589844 -0.78348,0.78346 -0.78348,2.044524 0,2.828124 l 4.722185,4.722184 v 0 L 33.015856,34 H 19.98733 c -1.108,0 -2,0.892 -2,2 0,1.108 0.892,2 2,2 2.237457,-0.0053 4.046294,-0.0026 6.692,-7.22e-4 0.371461,2.64e-4 -0.008,0.767632 0.399964,0.767842 v 0 l -9.478684,9.475068 c -0.78348,0.78348 -0.78348,2.044524 0,2.828124 0.78348,0.78348 2.048632,0.78348 2.832031,0 1.663854,-1.672853 3.017749,-3.021396 5.025845,-5.026627 0.205541,-0.205248 -0.220282,0.220059 0,0 0.06048,0.425813 0.785445,0.204749 0.896677,0.610131 1.175624,4.284564 5.086495,7.341636 9.632167,7.346184 5.522847,0 10,-4.477153 10,-10 -0.0025,-2.651218 -1.057662,-5.192948 -2.933594,-7.066406 l 0.004,-0.004 c 0,0 -7.6493,-7.6295 -11.3125,-11.3125 -0.3912,-0.39184 -0.902861,-0.589844 -1.414062,-0.589844 z M 35.98733,38 c 3.313708,0 6,2.686292 6,6 0,3.313708 -2.686292,6 -6,6 -3.313708,0 -6,-2.686292 -6,-6 0,-3.313708 2.686292,-6 6,-6 z m 0,2 c -2.209139,0 -4,1.790861 -4,4 0,2.209139 1.790861,4 4,4 2.209139,0 4,-1.790861 4,-4 0,-2.209139 -1.790861,-4 -4,-4 z"
     id="path14"
     sodipodi:nodetypes="ccccccsscscccccscscccccccssssssssss" />
</svg>
