<?xml version="1.0" encoding="UTF-8" standalone="no"?>
<svg
   width="64"
   height="64"
   version="1.1"
   id="svg1076727"
   sodipodi:docname="application-mathematica.svg"
   inkscape:version="1.1.2 (0a00cf5339, 2022-02-04)"
   xmlns:inkscape="http://www.inkscape.org/namespaces/inkscape"
   xmlns:sodipodi="http://sodipodi.sourceforge.net/DTD/sodipodi-0.dtd"
   xmlns="http://www.w3.org/2000/svg"
   xmlns:svg="http://www.w3.org/2000/svg">
  <defs
     id="defs1076731" />
  <sodipodi:namedview
     id="namedview1076729"
     pagecolor="#ffffff"
     bordercolor="#666666"
     borderopacity="1.0"
     inkscape:pageshadow="2"
     inkscape:pageopacity="0.0"
     inkscape:pagecheckerboard="0"
     showgrid="false"
     inkscape:zoom="12.921875"
     inkscape:cx="31.961306"
     inkscape:cy="32"
     inkscape:window-width="1920"
     inkscape:window-height="1051"
     inkscape:window-x="0"
     inkscape:window-y="29"
     inkscape:window-maximized="1"
     inkscape:current-layer="svg1076727" />
  <path
     style="opacity:0.2"
     d="M 12.75,5 C 11.2265,5 10,6.2488 10,7.8 v 50.4 c 0,1.55008 1.2265,2.8 2.75,2.8 h 38.5 C 52.7724,61 54,59.75008 54,58.2 V 23 L 40,19 36,5 Z"
     id="path1076713" />
  <path
     style="fill:#e4e4e4"
     d="M 12.75,4 C 11.2265,4 10,5.2488 10,6.8 v 50.4 c 0,1.55008 1.2265,2.8 2.75,2.8 h 38.5 C 52.7724,60 54,58.75008 54,57.2 V 22 L 40,18 36,4 Z"
     id="path1076715" />
  <path
     style="opacity:0.2"
     d="M 54,23 36,5 V 20.1875 C 36,21.74675 37.2555,23 38.8125,23 Z"
     id="path1076717" />
  <path
     style="fill:#fafafa"
     d="M 54,22 36,4 V 19.1875 C 36,20.74675 37.2555,22 38.8125,22 Z"
     id="path1076719" />
  <path
     style="opacity:0.2;fill:#ffffff"
     d="M 12.75 4 C 11.2265 4 10 5.2495812 10 6.8007812 L 10 7.8007812 C 10 6.2495813 11.2265 5 12.75 5 L 36 5 L 36 4 L 12.75 4 z"
     id="path1076721" />
  <path
     style="opacity:0.1;fill-rule:evenodd"
     d="m 22.726562,28 c 0,0 1.724632,5.556606 0.671876,9.119141 C 22.345678,40.681676 17,44.69336 17,44.69336 c 0,0 6.989124,0.380316 9.642578,2.076171 C 29.296032,48.465384 31.99414,55 31.994141,55 c 0,0 3.582998,-7.199951 5.082031,-8.230469 C 38.575202,45.739013 47,44.683593 47,44.683594 c 0,0 -6.160025,-5.796846 -6.683594,-7.414063 -0.523571,-1.617226 0.958985,-9.265624 0.958985,-9.265624 0,0 -5.544109,3.746093 -9.4375,3.746093 -3.893389,0 -9.111328,-3.75 -9.111329,-3.75 z m 13.519532,6.996094 c -0.08625,1.034466 -0.295233,1.771507 0.265625,3.503906 0.623151,1.924809 1.259654,2.298721 2.013672,3.191407 0.09195,0.108862 0.205746,0.216579 0.300781,0.326171 -0.167779,0.03827 -0.349722,0.06356 -0.513672,0.103516 -1.153041,0.281007 -1.948481,0.283617 -3.501953,1.351563 -1.553606,1.068033 -1.846505,1.834386 -2.488281,2.796874 -0.08242,0.123611 -0.154584,0.264043 -0.236328,0.390626 -0.798641,-1.167299 -1.788122,-2.302451 -3.289063,-3.261719 -1.158055,-0.740128 -2.308187,-1.148865 -3.439453,-1.466797 0.752318,-1.051043 1.446284,-2.222304 1.876953,-3.679688 0.334763,-1.132838 0.379906,-2.189177 0.419922,-3.232422 1.261646,0.416849 2.639465,0.730469 4.183594,0.730469 1.618414,0 3.082666,-0.311019 4.408203,-0.753906 z"
     id="path1076723" />
  <path
     style="fill:#d6342a;fill-rule:evenodd"
     d="m 23.151659,28.647626 c 0,0 -0.223361,-0.997872 0,0 0.429717,1.919768 0.939478,5.127195 0.246779,7.471296 -0.636865,2.155156 -2.844789,4.474685 -4.489877,5.971001 -1.07429,0.977137 0.235826,1.789795 0.235826,1.789795 0,0 -1.259542,-0.138428 0,0 2.280351,0.250618 5.788871,0.797148 7.498191,1.889594 1.748275,1.117342 3.515934,4.335222 4.518497,6.400643 0.519083,1.069384 1.674865,0.194773 1.674866,0.194773 0,0 -0.507322,0.962928 0,0 1.153119,-2.188689 3.199205,-5.879756 4.240231,-6.595416 1.037096,-0.712959 5.389209,-1.437837 7.972977,-1.816884 1.150837,-0.168831 0.561154,-1.608931 0.561154,-1.608931 0,0 0.814171,0.798284 0,0 -1.849463,-1.813372 -4.930364,-4.951289 -5.293897,-6.074185 -0.365406,-1.128679 0.246331,-5.195017 0.649276,-7.548811 0.174414,-1.018836 -1.147885,-0.8172 -1.147885,-0.8172 0,0 0.893996,-0.518796 0,0 -1.909933,1.108357 -5.327872,2.84648 -7.979906,2.84648 -2.598687,0 -5.787467,-1.670643 -7.620884,-2.781749 -0.913435,-0.553569 -1.065348,0.679594 -1.065348,0.679594 z m 13.094435,5.348249 c -0.08625,1.034466 -0.295233,1.771507 0.265625,3.503906 0.623151,1.924809 1.259654,2.298721 2.013672,3.191407 0.09195,0.108862 0.205746,0.216579 0.300781,0.326171 -0.167779,0.03827 -0.349722,0.06356 -0.513672,0.103516 -1.153041,0.281007 -1.948481,0.283617 -3.501953,1.351563 -1.553606,1.068033 -1.846505,1.834386 -2.488281,2.796874 -0.08242,0.123611 -0.154584,0.264043 -0.236328,0.390626 -0.798641,-1.167299 -1.788122,-2.302451 -3.289063,-3.261719 -1.158055,-0.740128 -2.308187,-1.148865 -3.439453,-1.466797 0.752318,-1.051043 1.446284,-2.222304 1.876953,-3.679688 0.334763,-1.132838 0.379906,-2.189177 0.419922,-3.232422 1.261646,0.416849 2.639465,0.730469 4.183594,0.730469 1.618414,0 3.082666,-0.311019 4.408203,-0.753906 z"
     id="path1076725"
     sodipodi:nodetypes="cssscssscssscssscsssccsscssscscscsc" />
</svg>
