<?xml version="1.0" encoding="UTF-8" standalone="no"?>
<svg
   width="64"
   height="64"
   version="1.1"
   id="svg1143361"
   sodipodi:docname="application-x-glade.svg"
   inkscape:version="1.1.2 (0a00cf5339, 2022-02-04)"
   xmlns:inkscape="http://www.inkscape.org/namespaces/inkscape"
   xmlns:sodipodi="http://sodipodi.sourceforge.net/DTD/sodipodi-0.dtd"
   xmlns="http://www.w3.org/2000/svg"
   xmlns:svg="http://www.w3.org/2000/svg">
  <defs
     id="defs1143365" />
  <sodipodi:namedview
     id="namedview1143363"
     pagecolor="#ffffff"
     bordercolor="#666666"
     borderopacity="1.0"
     inkscape:pageshadow="2"
     inkscape:pageopacity="0.0"
     inkscape:pagecheckerboard="0"
     showgrid="false"
     inkscape:zoom="12.921875"
     inkscape:cx="31.961306"
     inkscape:cy="32"
     inkscape:window-width="1920"
     inkscape:window-height="1051"
     inkscape:window-x="0"
     inkscape:window-y="29"
     inkscape:window-maximized="1"
     inkscape:current-layer="svg1143361" />
  <path
     style="opacity:0.2"
     d="m 11,56 0,2 c 0,1.662 1.338,3 3,3 l 38,0 c 1.662,0 3,-1.338 3,-3 l 0,-2 c 0,1.662 -1.338,3 -3,3 l -38,0 c -1.662,0 -3,-1.338 -3,-3 z"
     id="path1143351" />
  <path
     style="fill:#e4e4e4"
     d="M 55,57 55,7 C 55,5.338 53.662,4 52,4 L 14,4 c -1.662,0 -3,1.338 -3,3 l 0,50 c 0,1.662 1.338,3 3,3 l 38,0 c 1.662,0 3,-1.338 3,-3 z"
     id="path1143353" />
  <path
     style="opacity:0.1;fill:#ffffff"
     d="m 14,4 c -1.662,0 -3,1.338 -3,3 l 0,1 c 0,-1.662 1.338,-3 3,-3 l 38,0 c 1.662,0 3,1.338 3,3 L 55,7 C 55,5.338 53.662,4 52,4 L 14,4 Z"
     id="path1143355" />
  <path
     style="opacity:0.2"
     d="m 5,9 0,44 c 0,4 4,4 4,4 L 61,57 5,9 Z M 15,30.742 33.964,47 15,47 15,30.742 Z"
     id="path1143357" />
  <path
     style="fill:#689f38"
     d="m 5,10.577832 v 0 V 52 c 0,4 4,4 4,4 h 48.439644 v 0 L 58.023601,53.448801 6.7214111,9.4754952 Z m 11.210503,20.201943 v 0 L 32.393949,44.653981 32.185077,46 v 0 H 15.929262 L 15,44.661021 v 0 -13.475817 z"
     id="path1143359"
     sodipodi:nodetypes="ccscccccccccccccccc" />
</svg>
