<?xml version="1.0" encoding="UTF-8" standalone="no"?>
<svg
   width="64"
   height="64"
   version="1"
   id="svg6681"
   sodipodi:docname="qgis-dem.svg"
   inkscape:version="1.1.2 (0a00cf5339, 2022-02-04)"
   xmlns:inkscape="http://www.inkscape.org/namespaces/inkscape"
   xmlns:sodipodi="http://sodipodi.sourceforge.net/DTD/sodipodi-0.dtd"
   xmlns="http://www.w3.org/2000/svg"
   xmlns:svg="http://www.w3.org/2000/svg">
  <defs
     id="defs6685" />
  <sodipodi:namedview
     id="namedview6683"
     pagecolor="#ffffff"
     bordercolor="#666666"
     borderopacity="1.0"
     inkscape:pageshadow="2"
     inkscape:pageopacity="0.0"
     inkscape:pagecheckerboard="0"
     showgrid="false"
     inkscape:zoom="12.921875"
     inkscape:cx="31.961306"
     inkscape:cy="32"
     inkscape:window-width="1920"
     inkscape:window-height="1051"
     inkscape:window-x="0"
     inkscape:window-y="29"
     inkscape:window-maximized="1"
     inkscape:current-layer="svg6681" />
  <path
     style="opacity:0.2"
     d="m 58,54.3326 v -42.666 c 0,-1.4777 -1.16,-2.667 -2.6,-2.667 H 8.6 c -1.4404,0 -2.6,1.1893 -2.6,2.6667 v 42.667 C 6,55.8106 7.1596,57 8.6,57 h 46.8 c 1.4404,0 2.6,-1.1893 2.6,-2.6667 z"
     id="path6671" />
  <path
     fill="#36aca3"
     d="m58 53.333v-42.666c0-1.4777-1.16-2.667-2.6-2.667h-46.8c-1.4404 0-2.6 1.1893-2.6 2.6667v42.667c0 1.4773 1.1596 2.6667 2.6 2.6667h46.8c1.4404 0 2.6-1.1893 2.6-2.6667z"
     id="path6673" />
  <path
     style="opacity:0.2"
     d="m 22,26.9996 12,15 9,-8 8,8 v 7 H 12 v -10 z"
     id="path6675" />
  <path
     fill="#ffffff"
     d="m 22,26.9996 0.773767,-0.03239 10.429168,13.03646 v 0 l 1.634816,0.251663 7.408355,-6.585204 L 43,33.9996 43.799284,33.799284 50.359245,40.359245 51,41.921431 v 0 5.231645 0 L 50.372714,48 12.668512,48 v 0 L 12,47.091464 12,38.902826 v 0 l 0.760877,-1.815878 8.336457,-10.003749 z"
     id="path6677"
     sodipodi:nodetypes="cccccccccccccccccccccc" />
  <path
     style="fill:#ffffff;opacity:0.2"
     d="M 8.5996094 8 C 7.1592094 8 6 9.1886156 6 10.666016 L 6 11.666016 C 6 10.188616 7.1592094 9 8.5996094 9 L 55.400391 9 C 56.840391 9 58 10.188316 58 11.666016 L 58 10.667969 C 58 9.1902687 56.840391 8 55.400391 8 L 8.5996094 8 z"
     id="path6679" />
</svg>
