<?xml version="1.0" encoding="UTF-8" standalone="no"?>
<svg
   width="64"
   height="64"
   version="1.1"
   id="svg16"
   sodipodi:docname="inode-symlink.svg"
   inkscape:version="1.1.2 (0a00cf5339, 2022-02-04)"
   xmlns:inkscape="http://www.inkscape.org/namespaces/inkscape"
   xmlns:sodipodi="http://sodipodi.sourceforge.net/DTD/sodipodi-0.dtd"
   xmlns="http://www.w3.org/2000/svg"
   xmlns:svg="http://www.w3.org/2000/svg">
  <defs
     id="defs20" />
  <sodipodi:namedview
     id="namedview18"
     pagecolor="#ffffff"
     bordercolor="#666666"
     borderopacity="1.0"
     inkscape:pageshadow="2"
     inkscape:pageopacity="0.0"
     inkscape:pagecheckerboard="0"
     showgrid="false"
     inkscape:zoom="48.5625"
     inkscape:cx="32.010296"
     inkscape:cy="50.954955"
     inkscape:window-width="1448"
     inkscape:window-height="980"
     inkscape:window-x="235"
     inkscape:window-y="49"
     inkscape:window-maximized="1"
     inkscape:current-layer="svg16" />
  <path
     style="opacity:0.2"
     d="M 12.75,5 C 11.2265,5 10,6.2488 10,7.8 v 50.4 c 0,1.5512 1.2265,2.8 2.75,2.8 h 38.5 C 52.7735,61 54,59.7512 54,58.2 V 21 L 40.25,19 38,5 Z"
     id="path2" />
  <path
     style="fill:#2488d5"
     d="M 12.75,4 C 11.2265,4 10,5.2488 10,6.8 v 50.4 c 0,1.5512 1.2265,2.8 2.75,2.8 h 38.5 C 52.7735,60 54,58.7512 54,57.2 V 20 L 40.25,18 38,4 Z"
     id="path4" />
  <path
     style="opacity:0.2"
     d="M 54,21 38,5 V 18.333333 C 38,19.810666 39.189334,21 40.666666,21 Z"
     id="path6" />
  <path
     style="fill:#53a4e2"
     d="M 54,20 38,4 V 17.333333 C 38,18.810667 39.189334,20 40.666666,20 Z"
     id="path8" />
  <path
     style="opacity:0.2"
     d="m 24,26.999994 1.091346,1.128562 c 0.825254,0.93773 1.754836,1.788978 2.603364,2.70457 0.0094,0.0086 0.02382,0.0138 0.03366,0.02238 l 1.377404,1.424376 c -2.396286,2.520108 -5.141984,6.862516 -5.098558,10.41061 -0.09512,2.36206 0.82066,4.649734 2.283654,6.458158 2.379388,2.946468 5.941046,4.692274 9.540864,5.550834 0.518658,0.12512 3.165346,0.680432 1.716344,-0.13672 -2.484274,-1.211454 -5.137046,-2.582184 -6.524034,-5.13073 -1.51557,-2.416466 -0.46474,-5.888318 1.17548,-8.35981 0.69283,-0.896904 1.568102,-2.234216 2.509614,-2.997898 L 40,43.5456 v -8.605902 -7.939704 h -0.005 z"
     id="path10" />
  <path
     style="fill:#ffffff"
     d="m 27.528529,26 -0.389785,0.211826 -0.915917,1.611022 -0.18149,0.319227 c 0.305501,0.347139 0.573222,-0.857975 0,0 -0.05293,0.07923 0.133644,0.135889 0.200694,0.203634 0.488095,0.493151 0.982814,0.980422 1.452679,1.487423 0.0094,0.0086 0.02382,0.0138 0.03366,0.02238 l 1.377404,1.424376 c -2.396286,2.520108 -5.141984,6.862516 -5.098558,10.41061 -0.09512,2.36206 0.82066,4.649734 2.283654,6.458158 2.379388,2.946468 6.251289,4.933428 9.851107,5.791988 0.867992,-0.343543 -0.524166,-1.361219 0.280348,-0.21655 0,0 0.335595,-0.835113 -0.08881,-1.074453 -0.42005,-0.204837 0.422751,0.218868 0,0 -2.077499,-1.075567 -4.157044,-2.099977 -5.309515,-4.217606 -1.51557,-2.416466 -0.46474,-5.888318 1.17548,-8.35981 0.69283,-0.896904 1.568102,-2.234216 2.509614,-2.997898 l 2.159662,2.179056 1.006913,0.551693 v 0 L 39.178292,39.395714 39.665557,39.230408 40,38.820413 v 0 V 33.939704 27.478826 26 27.478826 L 38.116275,26 Z"
     id="path12"
     sodipodi:nodetypes="ccccssccccccscscccccccccccccccc" />
  <path
     style="opacity:0.2;fill:#ffffff"
     d="M 12.75 4 C 11.2265 4 10 5.2495812 10 6.8007812 L 10 7.8007812 C 10 6.2495813 11.2265 5 12.75 5 L 38 5 L 38 4 L 12.75 4 z"
     id="path14" />
</svg>
