<?xml version="1.0" encoding="UTF-8" standalone="no"?>
<svg
   width="64"
   height="64"
   version="1.1"
   id="svg1550154"
   sodipodi:docname="application-x-lyx.svg"
   inkscape:version="1.1.2 (0a00cf5339, 2022-02-04)"
   xmlns:inkscape="http://www.inkscape.org/namespaces/inkscape"
   xmlns:sodipodi="http://sodipodi.sourceforge.net/DTD/sodipodi-0.dtd"
   xmlns="http://www.w3.org/2000/svg"
   xmlns:svg="http://www.w3.org/2000/svg">
  <defs
     id="defs1550158" />
  <sodipodi:namedview
     id="namedview1550156"
     pagecolor="#ffffff"
     bordercolor="#666666"
     borderopacity="1.0"
     inkscape:pageshadow="2"
     inkscape:pageopacity="0.0"
     inkscape:pagecheckerboard="0"
     showgrid="false"
     inkscape:zoom="12.921875"
     inkscape:cx="31.961306"
     inkscape:cy="32"
     inkscape:window-width="1920"
     inkscape:window-height="1051"
     inkscape:window-x="0"
     inkscape:window-y="29"
     inkscape:window-maximized="1"
     inkscape:current-layer="svg1550154" />
  <path
     style="opacity:0.2"
     d="M 12.8125,5 C 11.254375,5 10,6.2488 10,7.8 v 50.4 c 0,1.5512 1.254375,2.8 2.8125,2.8 h 39.375 C 53.745625,61 55,59.7512 55,58.2 V 22 L 40.9375,19 38,5 Z"
     id="path1550132" />
  <path
     style="fill:#e4e4e4"
     d="M 12.8125,4 C 11.254375,4 10,5.2488 10,6.8 v 50.4 c 0,1.5512 1.254375,2.8 2.8125,2.8 h 39.375 C 53.745625,60 55,58.7512 55,57.2 V 21 L 40.9375,18 38,4 Z"
     id="path1550134" />
  <path
     style="opacity:0.2"
     d="M 55,22 38,5 V 19.166667 C 38,20.736333 39.263667,22 40.833333,22 Z"
     id="path1550136" />
  <path
     style="fill:#fafafa"
     d="M 55,21 38,4 V 18.166667 C 38,19.736333 39.263667,21 40.833333,21 Z"
     id="path1550138" />
  <path
     style="opacity:0.2;fill:#ffffff"
     d="M 12.8125,4 C 11.254375,4 10,5.2495813 10,6.8007812 v 1 C 10,6.2495812 11.254375,5 12.8125,5 H 38 V 4 Z"
     id="path1550140" />
  <path
     style="opacity:0.1;fill-rule:evenodd"
     d="M 19.837259,48.905306 14,35.428317 l 4.842728,-2.231916 3.761514,9.04614 4.548489,-2.309303 2.046728,4.35346 z"
     id="path1550142" />
  <path
     style="fill:#4587cf;fill-rule:evenodd"
     d="m 19.421906,46.946345 v 0 L 14.56878,35.741509 14,35.428317 l 0.881631,-1.406326 2.855794,-1.316178 1.105303,0.490588 0.466942,0.122959 3.294572,7.923181 4.548489,-2.309303 2.046728,4.35346 -8.527571,4.206865 z"
     id="path1550144"
     sodipodi:nodetypes="ccccccccccccc" />
  <path
     style="opacity:0.1;fill-rule:evenodd"
     d="m 36.884251,31 5.134748,0.982333 1.103114,3.3183 L 45.376767,32.73687 51,33.919124 l -5.050652,5.608073 2.851262,8.354435 -6.053317,-0.585736 -1.076759,-4.529428 -2.735008,3.727168 -4.707253,-1.465292 4.732758,-6.675295 z"
     id="path1550146" />
  <path
     style="fill:#de5328;fill-rule:evenodd"
     d="m 37.221473,31.193968 0.951218,-0.947475 3.846308,0.73584 1.103114,3.3183 2.254654,-2.563763 4.364738,0.917662 v 0 l 0.443865,1.16913 -4.236022,4.703535 2.4101,7.061792 v 0 l -0.700653,1.182158 -4.911502,-0.475251 -1.076759,-4.529428 -2.735008,3.727168 -4.707253,-1.465292 4.732758,-6.675295 z"
     id="path1550148"
     sodipodi:nodetypes="ccccccccccccccccccc" />
  <path
     style="opacity:0.1;fill-rule:evenodd"
     d="m 23.893011,35.850824 5.875148,0.794981 1.743581,3.634302 2.198468,-3.142149 5.913036,0.757135 -5.420299,7.722799 L 32.876305,53 27.380229,52.129307 28.327834,45.504316 Z"
     id="path1550150" />
  <path
     style="fill:#dfa722;fill-rule:evenodd"
     d="m 24.895876,34.986524 v 0 l 4.872283,0.659281 1.743581,3.634302 2.198468,-3.142149 5.913036,0.757135 -5.420299,7.722799 L 32.876305,52 27.380229,51.129307 28.327834,44.504316 24.475695,36.119179 Z"
     id="path1550152"
     sodipodi:nodetypes="cccccccccccc" />
</svg>
