<?xml version="1.0" encoding="UTF-8" standalone="no"?>
<svg
   width="64"
   height="64"
   version="1.1"
   id="svg3367"
   sodipodi:docname="text-x-nim.svg"
   inkscape:version="1.1.2 (0a00cf5339, 2022-02-04)"
   xmlns:inkscape="http://www.inkscape.org/namespaces/inkscape"
   xmlns:sodipodi="http://sodipodi.sourceforge.net/DTD/sodipodi-0.dtd"
   xmlns="http://www.w3.org/2000/svg"
   xmlns:svg="http://www.w3.org/2000/svg">
  <defs
     id="defs3371" />
  <sodipodi:namedview
     id="namedview3369"
     pagecolor="#ffffff"
     bordercolor="#666666"
     borderopacity="1.0"
     inkscape:pageshadow="2"
     inkscape:pageopacity="0.0"
     inkscape:pagecheckerboard="0"
     showgrid="false"
     inkscape:zoom="12.921875"
     inkscape:cx="31.961306"
     inkscape:cy="32"
     inkscape:window-width="1920"
     inkscape:window-height="1051"
     inkscape:window-x="0"
     inkscape:window-y="29"
     inkscape:window-maximized="1"
     inkscape:current-layer="svg3367" />
  <path
     style="opacity:0.2"
     d="M 12.75,5 C 11.2265,5 10,6.2488 10,7.8 v 50.4 c 0,1.55008 1.2265,2.8 2.75,2.8 h 38.5 C 52.7724,61 54,59.75008 54,58.2 V 23 L 40,19 36,5 Z"
     id="path3351" />
  <path
     style="fill:#4f4f4f"
     d="M 12.75,4 C 11.2265,4 10,5.2488 10,6.8 v 50.4 c 0,1.55008 1.2265,2.8 2.75,2.8 h 38.5 C 52.7724,60 54,58.75008 54,57.2 V 22 L 40,18 36,4 Z"
     id="path3353" />
  <path
     style="opacity:0.2"
     d="M 54,23 36,5 V 20.1875 C 36,21.74675 37.2555,23 38.8125,23 Z"
     id="path3355" />
  <path
     style="fill:#696969"
     d="M 54,22 36,4 V 19.1875 C 36,20.74675 37.2555,22 38.8125,22 Z"
     id="path3357" />
  <path
     style="opacity:0.1;fill:#ffffff"
     d="M 12.75 4 C 11.2265 4 10 5.2495812 10 6.8007812 L 10 7.8007812 C 10 6.2495813 11.2265 5 12.75 5 L 36 5 L 36 4 L 12.75 4 z"
     id="path3359" />
  <path
     style="opacity:0.2"
     d="m 32.126953,30.000176 c 0,0 -1.226548,1.071725 -2.476562,2.037109 -1.285902,-0.04099 -3.807247,0.247566 -5.173829,0.746094 -1.258904,-0.800004 -2.365234,-1.783203 -2.365234,-1.783203 0,0 -0.944624,1.7322 -1.539062,2.689453 -0.881571,0.470305 -1.76778,0.999344 -2.556641,1.699219 C 17.098094,35.023384 16.034715,34.477792 16,34.463067 c 1.215083,2.458393 2.031872,4.918867 4.253906,6.398437 1.766139,-2.797905 6.74843,-3.917822 11.744141,-3.861328 5.010784,0.05667 10.035659,1.298302 11.84375,3.830078 2.333498,-1.220861 3.240505,-3.8484 4.158203,-6.273437 -0.10062,0.03324 -1.348767,0.553612 -2.158203,0.863281 -0.483288,-0.527771 -1.622097,-1.338765 -2.269531,-1.730469 -0.61412,-1.128026 -1.507813,-2.751953 -1.507813,-2.751953 0,0 -1.060045,0.89024 -2.287109,1.751953 -1.65774,-0.306945 -3.663214,-0.680229 -5.34961,-0.587891 -1.147996,-0.946487 -2.300781,-2.101562 -2.300781,-2.101562 z m 14.837891,9.646484 c -1.447514,2.150983 -3.804998,3.635717 -5.25586,4.435547 -1.030958,0.566524 -3.408203,0.908203 -3.408203,0.908203 l -6.246093,-2.990234 -6.28125,2.925781 c 0,0 -2.347561,-0.378714 -3.410157,-0.876953 -2.144618,-1.148355 -3.586729,-2.503975 -5.107422,-4.361328 0,0 1.721878,4.181374 2.917969,7.087891 5.068316,6.70721 18.012065,7.174492 23.654297,0.130859 1.335174,-3.018242 3.136719,-7.259766 3.136719,-7.259766 z"
     id="path3361" />
  <path
     style="fill:#ffa700"
     d="m 32.126986,29.000014 c 0,0 -1.226178,1.072392 -2.476192,2.037776 -1.285902,-0.04099 -3.808022,0.247835 -5.174604,0.746363 -1.258904,-0.800004 -2.365078,-1.783707 -2.365078,-1.783707 0,0 -0.945244,1.731607 -1.539682,2.68886 -0.881571,0.470305 -1.766694,0.999282 -2.555555,1.699157 C 17.56872,34.210356 17.086867,33.989371 16.706318,33.807899 16.306007,33.617002 16.349852,34.189293 16,33.462279 c 0.119918,0.242622 0.235958,0.485276 0.349852,0.727014 1.040149,2.2077 1.901376,4.339045 3.904114,5.672594 C 22.020105,37.063982 27.001871,35.943506 31.997582,36 c 5.010784,0.05667 10.035597,1.298331 11.843688,3.830107 2.084221,-1.090442 3.030864,-3.302383 3.863227,-5.490458 0.09955,-0.261698 0,0 0.295503,-0.78211 -0.295503,0.78211 -0.321623,0.127858 -0.68584,0.275821 -0.447225,0.181685 -1.026767,0.416177 -1.472886,0.58685 -0.483288,-0.527771 -1.622414,-1.339214 -2.269848,-1.730918 -0.61412,-1.128026 -1.507936,-2.752377 -1.507936,-2.752377 0,0 -1.05865,0.890229 -2.285714,1.751942 -1.65774,-0.306945 -3.662812,-0.679904 -5.349208,-0.587565 C 33.280572,30.154804 32.126986,29 32.126986,29 Z"
     id="path3363"
     sodipodi:nodetypes="ccccccscscscscsccccccc" />
  <path
     style="fill:#ffc504"
     d="m 17.256335,38.686754 c 0,0 0.324736,0.788705 0.790119,1.919133 0.606352,1.472844 1.451464,3.525787 2.128172,5.170197 5.068316,6.70721 18.01073,7.173491 23.652962,0.129858 0.756944,-1.711118 1.663705,-3.815455 2.307128,-5.317199 0.491512,-1.147184 -0.276277,-0.580393 -0.276277,-0.580393 -0.328773,0.488551 0.401234,-0.419599 0,0 -1.365315,1.427809 -3.027154,2.45515 -4.148483,3.073316 C 40.678998,43.64819 38.3002,43.99063 38.3002,43.99063 L 32.054946,41 25.77381,43.925697 c 0,0 -2.347166,-0.378263 -3.409762,-0.876502 -1.556799,-0.833602 -2.743568,-1.777006 -3.858864,-2.942001 -0.421116,-0.439882 -0.503858,0.390072 -0.697577,-0.08071 z"
     id="path3365"
     sodipodi:nodetypes="csccscscccccssc" />
</svg>
