<?xml version="1.0" encoding="UTF-8" standalone="no"?>
<svg
   width="64"
   height="64"
   version="1.1"
   id="svg1721851"
   sodipodi:docname="virtualbox-vdi.svg"
   inkscape:version="1.1.2 (0a00cf5339, 2022-02-04)"
   xmlns:inkscape="http://www.inkscape.org/namespaces/inkscape"
   xmlns:sodipodi="http://sodipodi.sourceforge.net/DTD/sodipodi-0.dtd"
   xmlns="http://www.w3.org/2000/svg"
   xmlns:svg="http://www.w3.org/2000/svg">
  <defs
     id="defs1721855" />
  <sodipodi:namedview
     id="namedview1721853"
     pagecolor="#ffffff"
     bordercolor="#666666"
     borderopacity="1.0"
     inkscape:pageshadow="2"
     inkscape:pageopacity="0.0"
     inkscape:pagecheckerboard="0"
     showgrid="false"
     inkscape:zoom="12.921875"
     inkscape:cx="31.961306"
     inkscape:cy="32"
     inkscape:window-width="1920"
     inkscape:window-height="1051"
     inkscape:window-x="0"
     inkscape:window-y="29"
     inkscape:window-maximized="1"
     inkscape:current-layer="svg1721851" />
  <path
     style="opacity:0.2"
     d="M 12.75,5 C 11.2265,5 10,6.2488 10,7.8 v 50.4 c 0,1.55008 1.2265,2.8 2.75,2.8 h 38.5 C 52.7724,61 54,59.75008 54,58.2 V 23 L 40,19 36,5 Z"
     id="path1721837" />
  <path
     style="fill:#e73b20"
     d="M 12.75,4 C 11.2265,4 10,5.2488 10,6.8 v 50.4 c 0,1.55008 1.2265,2.8 2.75,2.8 h 38.5 C 52.7724,60 54,58.75008 54,57.2 V 22 L 40,18 36,4 Z"
     id="path1721839" />
  <path
     style="opacity:0.2"
     d="M 54,23 36,5 V 20.1875 C 36,21.74675 37.2555,23 38.8125,23 Z"
     id="path1721841" />
  <path
     style="fill:#ed6c58"
     d="M 54,22 36,4 V 19.1875 C 36,20.74675 37.2555,22 38.8125,22 Z"
     id="path1721843" />
  <path
     style="opacity:0.2;fill:#ffffff"
     d="M 12.75 4 C 11.2265 4 10 5.2495812 10 6.8007812 L 10 7.8007812 C 10 6.2495813 11.2265 5 12.75 5 L 36 5 L 36 4 L 12.75 4 z"
     id="path1721845" />
  <path
     style="opacity:0.2"
     d="M 30.625,26 23.75,47.75 19.51775,34 H 10 v 4 h 6.96025 l 6.78975,19.375 6.875,-22 4.125,13.75 L 40.25,34 44.375,48 H 54 V 43.9995 H 47.125 L 40.25,27.125 l -5.5,11 z"
     id="path1721847" />
  <path
     style="fill:#ffffff"
     d="m 30.035982,26.863438 v 0 l -5.790302,18.318409 -0.979081,-0.0023 v 0 L 19.51775,33 H 10 v 4 h 6.96025 l 6.028485,17.202681 v 0 L 24.376936,54.368805 30.202415,35.727271 30.625,35.375 l 0.395961,0.319869 3.207518,10.691728 v 0 l 1.177995,-0.0669 L 39.709188,34.487232 40.25,34 40.627939,34.282701 44.375,47 H 54 V 42.9995 H 47.125 L 40.831473,27.552211 40.25,27.125 l -0.66614,0.33228 -4.236625,8.47325 -1.04465,-0.120659 v 0 l -3.070639,-9.025819 z"
     id="path1721849"
     sodipodi:nodetypes="ccccccccccccccccccccccccccccccccc" />
</svg>
