<?xml version="1.0" encoding="UTF-8" standalone="no"?>
<svg
   width="22"
   height="22"
   version="1"
   id="svg598"
   sodipodi:docname="virtualbox-vbox.svg"
   inkscape:version="1.1.2 (0a00cf5339, 2022-02-04)"
   xmlns:inkscape="http://www.inkscape.org/namespaces/inkscape"
   xmlns:sodipodi="http://sodipodi.sourceforge.net/DTD/sodipodi-0.dtd"
   xmlns="http://www.w3.org/2000/svg"
   xmlns:svg="http://www.w3.org/2000/svg">
  <defs
     id="defs602" />
  <sodipodi:namedview
     id="namedview600"
     pagecolor="#ffffff"
     bordercolor="#666666"
     borderopacity="1.0"
     inkscape:pageshadow="2"
     inkscape:pageopacity="0.0"
     inkscape:pagecheckerboard="0"
     showgrid="false"
     inkscape:zoom="37.590909"
     inkscape:cx="11.013301"
     inkscape:cy="11"
     inkscape:window-width="1920"
     inkscape:window-height="1051"
     inkscape:window-x="0"
     inkscape:window-y="29"
     inkscape:window-maximized="1"
     inkscape:current-layer="svg598" />
  <path
     style="opacity:0.2"
     d="m 4,1.5 c -0.554,0 -1,0.446 -1,1 v 18 c 0,0.554 0.446,1 1,1 h 14 c 0.554,0 1,-0.446 1,-1 V 7.5 L 13.5,7 13,1.5 Z"
     id="path584" />
  <path
     style="fill:#348ee2"
     d="M 4,1 C 3.446,1 3,1.446 3,2 v 18 c 0,0.554 0.446,1 1,1 h 14 c 0.554,0 1,-0.446 1,-1 V 7 L 13.5,6.5 13,1 Z"
     id="path586" />
  <path
     style="opacity:0.2;fill:#ffffff"
     d="M 4,1 C 3.446,1 3,1.446 3,2 v 0.5 c 0,-0.554 0.446,-1 1,-1 h 9 L 18.5,7 H 19 L 13,1 Z"
     id="path588" />
  <path
     style="opacity:0.2"
     d="m 13,1.5 v 5 c 0,0.5523 0.447715,1 1,1 h 5 z"
     id="path590" />
  <path
     style="fill:#7caff5"
     d="m 13,1 v 5 c 0,0.5523 0.447715,1 1,1 h 5 z"
     id="path592" />
  <path
     style="opacity:0.2"
     d="m 10.5,8.5 -2.5,8 -1.539,-5 H 3 v 1 h 2.531 l 2.469,7 2.5,-8 1.5,5 2,-5.5 1.5,5.5 H 19 v -1 H 16.5 L 14,9 12,13 Z"
     id="path594" />
  <path
     style="fill:#ffffff"
     d="M 10.5,8.5 10.229164,8.8666758 8.2021758,15.353037 c -0.067392,0.104966 0.2021758,-0.646962 0,0 L 7.8011212,15.35387 6.461,11 H 3 v 1 h 2.531 l 2.2395286,6.349413 v 0 l 0.4354222,-0.0085 2.1752062,-6.960659 v 0 l 0.239233,0.021 1.15524,3.850798 v 0 l 0.501838,-0.01514 1.530006,-4.207515 L 14,11 14.127537,10.967637 15.5,16 H 19 V 15 H 16.5 L 14.220929,9.0744142 14,9 13.762193,8.975613 12.146978,12.206044 v 0 l -0.242071,0.0087 -1.165232,-3.4956961 z"
     id="path596"
     sodipodi:nodetypes="ccccccccccccccccccccccccccccccccc" />
</svg>
