<?xml version="1.0" encoding="UTF-8" standalone="no"?>
<svg
   width="24"
   height="24"
   version="1"
   id="svg7"
   sodipodi:docname="anatine-indicator.svg"
   inkscape:version="1.1.2 (0a00cf5339, 2022-02-04)"
   xmlns:inkscape="http://www.inkscape.org/namespaces/inkscape"
   xmlns:sodipodi="http://sodipodi.sourceforge.net/DTD/sodipodi-0.dtd"
   xmlns="http://www.w3.org/2000/svg"
   xmlns:svg="http://www.w3.org/2000/svg">
  <sodipodi:namedview
     id="namedview9"
     pagecolor="#ffffff"
     bordercolor="#666666"
     borderopacity="1.0"
     inkscape:pageshadow="2"
     inkscape:pageopacity="0.0"
     inkscape:pagecheckerboard="0"
     showgrid="false"
     inkscape:zoom="126.5"
     inkscape:cx="11.996047"
     inkscape:cy="5.6719368"
     inkscape:window-width="1822"
     inkscape:window-height="928"
     inkscape:window-x="0"
     inkscape:window-y="35"
     inkscape:window-maximized="1"
     inkscape:current-layer="svg7" />
  <defs
     id="defs3">
    <style
       id="current-color-scheme"
       type="text/css">
   .ColorScheme-Text { color:#eeeeec; } .ColorScheme-Highlight { color:#367bf0; } .ColorScheme-NeutralText { color:#ffcc44; } .ColorScheme-PositiveText { color:#3db47e; } .ColorScheme-NegativeText { color:#dd4747; }
  </style>
  </defs>
  <path
     style="fill:currentColor"
     class="ColorScheme-Text"
     d="M 10.529,19.993 C 8.7721,19.809 7.548,19.296 6.6435,18.364 6.2781,17.988 6.0298,17.641 5.8235,17.22 5.3868,16.329 5.25,15.327 5.4637,14.586 5.6763,13.849 6.1597,13.036 6.8403,12.272 7.2182,11.847 7.4094,11.572 7.5842,11.226 7.795,10.809 7.8177,10.529 7.8,10.142 7.7828,9.7659 7.7038,9.6038 7.5017,9.4327 7.3102,9.2706 7.2312,9.1813 6.6386,9.2101 6.0601,9.2383 5.7764,9.2024 5.5001,9.0661 5.2858,8.9604 5.2098,8.841 5.2761,8.7139 5.5813877,8.4708219 5.7110019,8.2075614 6.0000288,8.0536294 c 0.037124,-0.019772 0.00626,-0.099406 0.049356,-0.1152958 -0.023564,-0.02051 0.023499,0.020606 0,0 C 5.5204139,7.4745 5.0180961,6.9827578 5,6.293 5.038919,5.90717 5.38873,5.99996 5.38873,5.99996 5.93727,6.11334 6.50423,6.22736 7.02083,6.24518 7.16939,6.22462 7.32601,6.1842 7.36887,6.15535 7.411738,6.1265 7.52856,5.95554 7.62848,5.77543 8.01791,5.07347 8.4303,4.62023 8.89228,4.38663 c 0.53234,-0.26927 1.2856,-0.41331 2.0005,-0.38256 0.8595,0.03697 1.5895,0.34022 2.1856,0.90795 0.40979,0.39025 0.68098,0.48784 1.0708,0.38529 0.27418,-0.07214 0.28037,-0.07178 0.28037,0.01598 0,0.11532 -0.09019,0.26476 -0.22863,0.37881 v 0 l 0.001,0.18296 c 0,0 0.15618,0.19368 -0.0546,0.22464 -0.17556,0.02579 -0.30715,0.08521 -0.30715,0.13869 0,0.01889 0.0252,0.18253 0.056,0.36366 0.07557,0.44438 0.04865,1.3054 -0.0541,1.7304 -0.15932,0.65893 -0.40031,1.1229 -0.81212,1.5634 -0.196488,0.182476 -0.613488,0.48255 -0.925779,0.699734 -0.196511,0.136664 -0.09854,0.216816 -0.131102,0.237885 0.03221,0 0.01431,0.01 0.22583,0.01611 0.04868,0.0014 0.09612,0.0039 0.139541,0.0078 0.84948,0.07683 1.4411,0.22293 2.2941,0.62857 0.8057,0.38313 1.1481,0.42444 1.5941,0.19233 0.28454,-0.14811 0.69187,-0.4641 0.99625,-0.8827 0.26041,-0.35812 0.41534,-0.50986 0.65721,-0.50986 0.23689,0 0.40706,0.15931 0.58636,0.43857 0.25391,0.39547 0.39241,0.67789 0.49095,1.3668 0.07041,0.49229 0.05064,1.6479 -0.03662,2.1387 -0.52145,2.9332 -2.356,4.908 -5.1567,5.551 -0.75588,0.17353 -1.0604,0.20473 -2.1079,0.2159 -0.54341,0.0058 -1.0504,0.004 -1.1267,-0.0039 z"
     id="path5"
     sodipodi:nodetypes="ccccccsccccscsccccccsccsscscscccscsccccsscccccc" />
</svg>
