<?xml version="1.0" encoding="UTF-8" standalone="no"?>
<svg
   width="24"
   height="24"
   version="1"
   id="svg9"
   sodipodi:docname="anatine-notification.svg"
   inkscape:version="1.1.2 (0a00cf5339, 2022-02-04)"
   xmlns:inkscape="http://www.inkscape.org/namespaces/inkscape"
   xmlns:sodipodi="http://sodipodi.sourceforge.net/DTD/sodipodi-0.dtd"
   xmlns="http://www.w3.org/2000/svg"
   xmlns:svg="http://www.w3.org/2000/svg">
  <sodipodi:namedview
     id="namedview11"
     pagecolor="#ffffff"
     bordercolor="#666666"
     borderopacity="1.0"
     inkscape:pageshadow="2"
     inkscape:pageopacity="0.0"
     inkscape:pagecheckerboard="0"
     showgrid="false"
     inkscape:zoom="126.5"
     inkscape:cx="11.996047"
     inkscape:cy="7.56917"
     inkscape:window-width="1822"
     inkscape:window-height="928"
     inkscape:window-x="0"
     inkscape:window-y="35"
     inkscape:window-maximized="1"
     inkscape:current-layer="svg9" />
  <defs
     id="defs3">
    <style
       id="current-color-scheme"
       type="text/css">
   .ColorScheme-Text { color:#eeeeec; } .ColorScheme-Highlight { color:#367bf0; } .ColorScheme-NeutralText { color:#ffcc44; } .ColorScheme-PositiveText { color:#3db47e; } .ColorScheme-NegativeText { color:#dd4747; }
  </style>
  </defs>
  <path
     style="fill:currentColor"
     class="ColorScheme-Text"
     d="M 10.529,19.993 C 8.7721,19.809 7.548,19.296 6.6435,18.364 6.2781,17.988 6.0298,17.641 5.8235,17.22 5.3868,16.329 5.25,15.327 5.4637,14.586 c 0.2126,-0.737 0.696,-1.55 1.3766,-2.314 0.3779,-0.425 0.569,-0.7 0.7439,-1.046 C 7.795,10.809 7.8177,10.529 7.8,10.142 7.7828,9.7659 7.7038,9.6038 7.5017,9.4327 7.3102,9.2706 7.2312,9.1813 6.6386,9.2101 6.0601,9.2383 5.7764,9.2024 5.5001,9.0661 5.2858,8.9604 5.2098,8.841 5.2761,8.7139 5.5802132,8.471757 5.7100021,8.2095866 5.9967002,8.0554107 c 0.038074,-0.020475 -0.044384,0.016366 0,0 C 5.9707088,8.032792 6.0680328,7.9547136 6.0421264,7.9319771 5.5157452,7.4700045 5.0180134,6.9796079 5,6.293 5.038919,5.90717 5.38873,5.99996 5.38873,5.99996 5.93727,6.11334 6.50423,6.22736 7.02083,6.24518 7.16939,6.22462 7.32601,6.1842 7.36887,6.15535 7.41174,6.1265 7.52856,5.95554 7.62848,5.77543 8.01791,5.07347 8.4303,4.62023 8.89228,4.38663 c 0.53234,-0.26927 1.2855,-0.41331 2.0005,-0.38256 0.8595,0.03697 1.5895,0.34022 2.1856,0.90795 0.40979,0.39025 0.68098,0.48784 1.0708,0.38529 0.27418,-0.07214 0.28037,-0.07178 0.28037,0.01598 0,0.11532 -0.09019,0.26476 -0.22863,0.37881 l 0.001,0.18296 v 0 c 0,0 0.15618,0.19368 -0.0546,0.22464 -0.17556,0.02579 -0.30715,0.08521 -0.30715,0.13869 0,0.01889 0.0252,0.18253 0.056,0.36366 0.07557,0.44438 0.04865,1.3054 -0.0541,1.7304 -0.15932,0.65893 -0.40031,1.1229 -0.81212,1.5634 -0.242589,0.225289 -0.8213,0.629831 -1.124099,0.836324 -0.09679,0.066 0.04549,0.104617 0.02508,0.11783 0.01836,0 -0.108249,0.0027 0,0 0.125391,-0.0031 0.282954,-0.0039 0.407513,0.0074 0.84948,0.07683 1.4411,0.22293 2.2941,0.62857 0.8057,0.38313 1.1481,0.42444 1.5941,0.19233 0.28454,-0.14811 0.69187,-0.4641 0.99625,-0.8827 0.26041,-0.35812 0.41534,-0.50986 0.65721,-0.50986 0.23689,0 0.40706,0.15931 0.58636,0.43857 0.25391,0.39547 0.39241,0.67789 0.49095,1.3668 0.07041,0.49229 0.05064,1.6479 -0.03662,2.1387 -0.52145,2.9332 -2.356,4.908 -5.1567,5.551 -0.75588,0.17353 -1.0604,0.20473 -2.1079,0.2159 -0.54341,0.0058 -1.0504,0.004 -1.1267,-0.0039 z"
     id="path5"
     sodipodi:nodetypes="ccccccsccccscscccccccccsscscscccscsccccsscccccc" />
  <circle
     style="fill:currentColor"
     class="ColorScheme-Highlight"
     cx="18"
     cy="7"
     r="2"
     id="circle7" />
</svg>
