<?xml version="1.0" encoding="UTF-8" standalone="no"?>
<svg
   width="24"
   height="24"
   version="1.1"
   id="svg4"
   sodipodi:docname="audio-volume-muted-blocking-headphones-symbolic.svg"
   inkscape:version="1.1.2 (0a00cf5339, 2022-02-04)"
   xmlns:inkscape="http://www.inkscape.org/namespaces/inkscape"
   xmlns:sodipodi="http://sodipodi.sourceforge.net/DTD/sodipodi-0.dtd"
   xmlns="http://www.w3.org/2000/svg"
   xmlns:svg="http://www.w3.org/2000/svg">
  <defs
     id="defs8" />
  <sodipodi:namedview
     id="namedview6"
     pagecolor="#000000"
     bordercolor="#666666"
     borderopacity="1.0"
     inkscape:pageshadow="2"
     inkscape:pageopacity="0"
     inkscape:pagecheckerboard="0"
     showgrid="false"
     inkscape:zoom="31.416667"
     inkscape:cx="11.984085"
     inkscape:cy="12.015915"
     inkscape:window-width="1822"
     inkscape:window-height="928"
     inkscape:window-x="0"
     inkscape:window-y="35"
     inkscape:window-maximized="1"
     inkscape:current-layer="svg4" />
  <path
     style="opacity:0.35;fill:#eeeeec"
     d="m 5.1690977,4.2791519 v 0 l -0.9206692,0.9244895 0.039685,0.5483504 v 0 L 6.3730469,7.8300781 C 5.510195,8.9939023 5,10.436027 5,12 v 4.666016 C 5,16.666016 5.000651,19 7.3339844,19 H 9 V 13 H 7.4234706 v 0 L 7,12.61184 V 12 c 0,-0.902087 0.1834807,-1.781624 0.568874,-2.5456597 0.048103,-0.095364 -0.05443,0.091584 0,0 L 7.9872909,9.4375395 15,16.425781 V 19 h 1.666016 c 0,0 0.350678,-0.0014 0.779296,-0.136719 l 0.904407,0.90133 0.50496,-0.01809 v 0 l 0.922424,-0.92372 v 0 L 19.675989,18.310755 5.7188068,4.3535724 Z M 12,5 C 10.780072,5 9.6357713,5.312974 8.6386719,5.859375 L 10.074219,7.2949219 C 10.633091,7.1063971 11.272327,7 12,7 c 3.5,0 5,2.41 5,5 v 0.61184 L 16.749175,13 v 0 h -0.477761 l -0.137511,0.354606 v 0 L 18.616484,15.837187 19,15.731295 v 0 V 12 C 19,8.1266666 15.873334,5 12,5 Z"
     id="path2"
     sodipodi:nodetypes="ccccccscscccccssccccccccccccccsccsscccccccccss" />
</svg>
