<?xml version="1.0" encoding="UTF-8" standalone="no"?>
<svg
   width="24"
   height="24"
   version="1.1"
   id="svg7"
   sodipodi:docname="ayatana-indicator-notification-read-dnd.svg"
   inkscape:version="1.1.2 (0a00cf5339, 2022-02-04)"
   xmlns:inkscape="http://www.inkscape.org/namespaces/inkscape"
   xmlns:sodipodi="http://sodipodi.sourceforge.net/DTD/sodipodi-0.dtd"
   xmlns="http://www.w3.org/2000/svg"
   xmlns:svg="http://www.w3.org/2000/svg">
  <sodipodi:namedview
     id="namedview9"
     pagecolor="#000000"
     bordercolor="#666666"
     borderopacity="1.0"
     inkscape:pageshadow="2"
     inkscape:pageopacity="0"
     inkscape:pagecheckerboard="0"
     showgrid="false"
     inkscape:zoom="31.416667"
     inkscape:cx="11.984085"
     inkscape:cy="12.015915"
     inkscape:window-width="1920"
     inkscape:window-height="1051"
     inkscape:window-x="0"
     inkscape:window-y="29"
     inkscape:window-maximized="1"
     inkscape:current-layer="svg7" />
  <defs
     id="defs3">
    <style
       id="current-color-scheme"
       type="text/css">
   .ColorScheme-Text { color:#eeeeec; } .ColorScheme-Highlight { color:#367bf0; } .ColorScheme-NeutralText { color:#ffcc44; } .ColorScheme-PositiveText { color:#3db47e; } .ColorScheme-NegativeText { color:#dd4747; }
  </style>
  </defs>
  <path
     style="fill:currentColor"
     class="ColorScheme-Text"
     d="m 17.43564,3.9999898 c -0.05382,0.00219 -0.107384,0.00872 -0.160156,0.019524 L 6.9766559,6.188623 c -0.00982,0.00311 -0.019584,0.00636 -0.0293,0.00977 -1.436541,0.3464702 -2.448943,1.432051 -3.130859,2.678684 -0.681916,1.246533 -1.092221,2.709758 -1.361328,4.137122 -0.269107,1.427265 -0.38906,2.817595 -0.433594,3.904787 -0.02227,0.543597 -0.02567,1.010469 -0.01758,1.372533 0.005,0.223016 0.03379,0.377315 0.04883,0.534956 1.63e-4,0 -1.7e-4,-2.34e-4 0,0.0098 -0.00222,0.02467 -0.00352,0.04942 -0.0039,0.07419 h 0.0098 c 0.01128,0.07997 -0.0069,0.137755 0.02344,0.253811 0.1144456,0.435773 0.5063458,0.741182 0.957031,0.745815 l 9.0390631,0.08981 c 0.07414,10e-4 0.148159,-0.0062 0.220703,-0.02147 l 9.892578,-2.128109 c 0.444052,-0.09532 0.768098,-0.477772 0.789063,-0.931292 0,0 0.147573,-2.972755 -0.369141,-6.040705 C 22.353105,9.3443879 21.938624,7.7736258 21.177868,6.4737128 20.417113,5.1737998 19.181713,4.0987056 17.537243,4.0078397 c -0.03383,-0.00172 -0.06773,-0.00172 -0.101562,0 z m 0.05078,2.018775 c 0.842493,0.069974 1.423078,0.5308324 1.964844,1.4564856 0.556625,0.9511437 0.9521,2.3294435 1.1875,3.7271196 0.407935,2.421992 0.315148,4.256893 0.296875,4.865365 l -8.660155,1.862583 c -0.0064,-2.382188 -0.27937,-7.9488501 -2.8116205,-9.8738753 -0.1279067,-0.097235 0.139692,0.077773 0,0 L 9.6191485,7.6762361 Z M 6.9727499,8.996165 c 2.947353,0 3.0273441,8.99663 3.0273441,8.99663 H 4.0000939 c 0,0 0.0253,-8.99663 2.972656,-8.99663 z m 11.7265621,1.999251 -4.617188,1.181199 -0.08203,0.113238 0.06641,1.388152 0.140625,0.03905 2.950913,-0.782429 0.470577,0.293535 v 0 l 0.04921,0.750515 0.09766,0.01562 1.15039,-0.396336 0.07422,-0.06443 -0.210945,-2.458063 z M 7.0000939,11.995042 c -0.5522845,0 -0.9999997,0.447547 -1,0.999625 3.718e-4,0.276003 0.1148859,0.53957 0.316406,0.728244 l -0.816406,2.270633 3,-0.01562 -0.798828,-2.270634 c 0.1911382,-0.187899 0.2988009,-0.444645 0.298828,-0.712624 -8e-7,-0.552077 -0.4477158,-0.999624 -1,-0.999624 z"
     id="path5"
     sodipodi:nodetypes="ccccccsccccccccccccsccccccccscccsccsccccccccccccccsccccccs" />
</svg>
