<?xml version="1.0" encoding="UTF-8" standalone="no"?>
<svg
   width="24"
   height="24"
   version="1.1"
   id="svg9"
   sodipodi:docname="ayatana-indicator-notification-unread-dnd.svg"
   inkscape:version="1.1.2 (0a00cf5339, 2022-02-04)"
   xmlns:inkscape="http://www.inkscape.org/namespaces/inkscape"
   xmlns:sodipodi="http://sodipodi.sourceforge.net/DTD/sodipodi-0.dtd"
   xmlns="http://www.w3.org/2000/svg"
   xmlns:svg="http://www.w3.org/2000/svg">
  <sodipodi:namedview
     id="namedview11"
     pagecolor="#000000"
     bordercolor="#666666"
     borderopacity="1.0"
     inkscape:pageshadow="2"
     inkscape:pageopacity="0"
     inkscape:pagecheckerboard="0"
     showgrid="false"
     inkscape:zoom="31.416667"
     inkscape:cx="11.984085"
     inkscape:cy="12.015915"
     inkscape:window-width="1920"
     inkscape:window-height="1051"
     inkscape:window-x="0"
     inkscape:window-y="29"
     inkscape:window-maximized="1"
     inkscape:current-layer="svg9" />
  <defs
     id="defs3">
    <style
       id="current-color-scheme"
       type="text/css">
   .ColorScheme-Text { color:#eeeeec; } .ColorScheme-Highlight { color:#367bf0; } .ColorScheme-NeutralText { color:#ffcc44; } .ColorScheme-PositiveText { color:#3db47e; } .ColorScheme-NegativeText { color:#dd4747; }
  </style>
  </defs>
  <path
     style="fill:currentColor"
     class="ColorScheme-Text"
     d="m 17.276396,3.9999015 c -0.05382,0.00219 -0.107384,0.00872 -0.160156,0.019531 L 6.8174113,6.1893546 c -0.00982,0.00311 -0.019582,0.00636 -0.029297,0.00977 C 5.3515734,6.5455904 4.3391711,7.6302216 3.657255,8.8768546 2.975339,10.123388 2.5650339,11.58621 2.2959269,13.013574 2.1189254,13.952338 2.0230595,14.838765 1.95413,15.669824 c 0.5336379,-0.432769 1.1996542,-0.669253 1.8867188,-0.669922 0.060632,0.0014 0.1212067,0.0047 0.1816406,0.0098 0.276368,-2.619568 0.9793917,-6.0137067 2.7910156,-6.0137067 2.947353,0 3.0273438,8.9960947 3.0273438,8.9960947 h -3 c 3.4e-6,0.0026 3.4e-6,0.0052 0,0.0078 4.588e-4,0.711849 -0.2522232,1.400667 -0.7128906,1.943359 l 5.7910158,0.05664 c 0.07414,0.001 0.148159,-0.0062 0.220703,-0.02148 l 9.892578,-2.128907 c 0.443498,-0.09516 0.767389,-0.476775 0.789063,-0.929687 0,0 0.147573,-2.973065 -0.369141,-6.041016 C 22.19382,9.3448705 21.779339,7.7744239 21.018583,6.4745109 20.257828,5.1745979 19.022428,4.0985799 17.377958,4.007714 c -0.03383,-0.00172 -0.06773,-0.00172 -0.101562,0 z m 0.05078,2.0195312 c 0.842493,0.069974 1.423078,0.529425 1.964844,1.4550782 0.556625,0.9511437 0.9521,2.3308396 1.1875,3.7285161 0.407935,2.421992 0.315148,4.256762 0.296875,4.865234 l -8.660156,1.861329 c -0.0063,-2.350974 -0.272261,-7.80342 -2.7132381,-9.7962364 -0.1573427,-0.1284548 0.1759297,0.097948 0,0 l 0.050455,-0.4562953 z m 1.212892,4.9765633 -4.617188,1.179687 -0.08203,0.113281 0.06641,1.388672 0.140625,0.03906 2.925648,-0.776021 0.507271,0.461306 v 0 l 0.03778,0.576434 0.09766,0.01563 1.15039,-0.396485 0.07421,-0.06445 -0.210938,-2.457031 z M 6.8408488,11.994043 c -0.5524311,0 -1.000207,0.447776 -1,1 2.97e-4,0.276097 0.1148174,0.539777 0.3164062,0.728515 l -0.6425781,1.789063 c 0.2016929,0.13663 0.3859928,0.297318 0.5488281,0.478515 l 2.2773438,-0.01172 -0.7988281,-2.271485 c 0.191204,-0.187964 0.2988723,-0.444819 0.2988281,-0.71289 2.07e-4,-0.552224 -0.4475689,-1 -1,-1 z"
     id="path5"
     sodipodi:nodetypes="cccccccccscccccccccsccccccccscccccccccccccccccscccccccss" />
  <circle
     style="fill:currentColor"
     class="ColorScheme-Highlight"
     cx="4"
     cy="18"
     r="2"
     id="circle7" />
</svg>
