<?xml version="1.0" encoding="UTF-8" standalone="no"?>
<svg
   width="24"
   height="24"
   version="1"
   id="svg7"
   sodipodi:docname="banshee-panel.svg"
   inkscape:version="1.1.2 (0a00cf5339, 2022-02-04)"
   xmlns:inkscape="http://www.inkscape.org/namespaces/inkscape"
   xmlns:sodipodi="http://sodipodi.sourceforge.net/DTD/sodipodi-0.dtd"
   xmlns="http://www.w3.org/2000/svg"
   xmlns:svg="http://www.w3.org/2000/svg">
  <sodipodi:namedview
     id="namedview9"
     pagecolor="#ffffff"
     bordercolor="#666666"
     borderopacity="1.0"
     inkscape:pageshadow="2"
     inkscape:pageopacity="0.0"
     inkscape:pagecheckerboard="0"
     showgrid="false"
     inkscape:zoom="31.416667"
     inkscape:cx="12.015915"
     inkscape:cy="12"
     inkscape:window-width="1880"
     inkscape:window-height="966"
     inkscape:window-x="0"
     inkscape:window-y="29"
     inkscape:window-maximized="1"
     inkscape:current-layer="svg7" />
  <defs
     id="defs3">
    <style
       id="current-color-scheme"
       type="text/css">
   .ColorScheme-Text { color:#eeeeec; } .ColorScheme-Highlight { color:#367bf0; } .ColorScheme-NeutralText { color:#ffcc44; } .ColorScheme-PositiveText { color:#3db47e; } .ColorScheme-NegativeText { color:#dd4747; }
  </style>
  </defs>
  <path
     style="fill:currentColor"
     class="ColorScheme-Text"
     d="M 9.9914,4.0004 C 9.7378,4.0085 9.4968,4.1133 9.3175,4.2933 l -2.9915,3 C 5.3471,8.2358 6.7962,9.6891 7.7361,8.7074 L 8.8405237,7.5998973 v 0 L 9.0277234,7.7420778 9.03519,15.3517 c -0.00692,0.04917 -0.010169,0.09878 -0.00973,0.14844 0,0.01514 0.00956,0.02786 0.00973,0.04297 2.1e-5,0.002 -2.36e-5,0.0039 0,0.0059 0.00274,0.12413 0.028492,0.24666 0.075957,0.36133 0.22546,2.2356 2.1269,4.0898 4.4016,4.0898 2.418,0 4.4873,-2.0752 4.4873,-4.5 0,-2.4248 -2.0693,-4.5 -4.4873,-4.5 -0.842101,0 -1.589095,0.325182 -2.251353,0.779264 -0.07915,0.05427 0.07675,-0.05762 0,0 l -0.234173,-0.122477 -0.0075,-6.656517 c 2.17e-4,-0.5647 -0.46551,-1.0176 -1.0283,-1 z"
     id="path5"
     sodipodi:nodetypes="cccccccccsccssssccccc" />
</svg>
