<?xml version="1.0" encoding="UTF-8" standalone="no"?>
<svg
   width="24"
   height="24"
   version="1.1"
   id="svg11"
   sodipodi:docname="bauh-update-tray.svg"
   inkscape:version="1.1.2 (0a00cf5339, 2022-02-04)"
   xmlns:inkscape="http://www.inkscape.org/namespaces/inkscape"
   xmlns:sodipodi="http://sodipodi.sourceforge.net/DTD/sodipodi-0.dtd"
   xmlns="http://www.w3.org/2000/svg"
   xmlns:svg="http://www.w3.org/2000/svg">
  <sodipodi:namedview
     id="namedview13"
     pagecolor="#ffffff"
     bordercolor="#666666"
     borderopacity="1.0"
     inkscape:pageshadow="2"
     inkscape:pageopacity="0.0"
     inkscape:pagecheckerboard="0"
     showgrid="false"
     inkscape:zoom="126"
     inkscape:cx="12.003968"
     inkscape:cy="10.734127"
     inkscape:window-width="1920"
     inkscape:window-height="1051"
     inkscape:window-x="0"
     inkscape:window-y="29"
     inkscape:window-maximized="1"
     inkscape:current-layer="svg11" />
  <defs
     id="defs3">
    <style
       id="current-color-scheme"
       type="text/css">
   .ColorScheme-Text { color:#eeeeec; } .ColorScheme-Highlight { color:#367bf0; } .ColorScheme-NeutralText { color:#ffcc44; } .ColorScheme-PositiveText { color:#3db47e; } .ColorScheme-NegativeText { color:#dd4747; }
  </style>
  </defs>
  <path
     style="fill:currentColor"
     class="ColorScheme-Text"
     d="m 31.973689,-19.033178 c -4.4183,0 -8,3.5817 -8,8 0,4.4179998 3.5817,7.9999998 8,7.9999998 4.418,0 8,-3.582 8,-7.9999998 0,-4.4183 -3.582,-8 -8,-8 z m -1,3 h 2 v 5 h 3 l -4,4.9999998 -4,-4.9999998 h 3 z"
     id="path5" />
  <path
     style="fill:currentColor"
     class="ColorScheme-Text"
     d="M 7.1015625,6.9861561 5.8886719,7.6853749 C 5.7072932,7.7954113 5.5472053,7.9369964 5.4160156,8.1033436 c -0.00261,0.0026 -0.00521,0.0052 -0.00781,0.00781 -0.058438,0.064977 -0.11197,0.1341859 -0.1601562,0.2070313 -0.03772,0.072528 -0.07035,0.1475885 -0.097656,0.2246094 -0.029353,0.058409 -0.055435,0.1184048 -0.078125,0.1796874 6.484e-4,0.0013 0.0013,0.00261 0.00195,0.00391 C 5.0264951,8.8855078 5.0015096,9.050565 5,9.216625 v 6.009765 c 3.392e-4,0.631858 0.3391034,1.215642 0.8886719,1.53125 l 5.2226561,3.003907 c 0.549812,0.316604 1.227532,0.316604 1.777344,0 L 18.111328,16.75764 C 18.660897,16.442032 18.999661,15.858247 19,15.22639 V 9.216625 C 18.999679,9.048693 18.975346,8.8816277 18.927734,8.7205311 18.799452,8.283725 18.507041,7.912918 18.111328,7.6853749 l -1.21289,-0.6992188 c 7.82e-4,0.00383 -4.28e-4,0.00786 0,0.011719 A 5,5 0 0 1 17,7.999828 a 5,5 0 0 1 -5,5 5,5 0 0 1 -5,-5 5,5 0 0 1 0.099609,-0.9375 c -0.00312,-0.025957 -0.00311,-0.051413 0.00195,-0.076172 z"
     id="path7" />
  <path
     style="fill:currentColor"
     class="ColorScheme-Highlight"
     d="m 12,3.999828 c -2.2160002,0 -4,1.784 -4,4 0,2.216 1.7839998,4 4,4 2.216,0 4,-1.784 4,-4 0,-2.216 -1.784,-4 -4,-4 z m 0,1 c 1.615899,0 2.933408,1.2775658 2.997554,2.8777266 0.0016,0.040556 0.118253,0.081319 0.118253,0.1222734 v 0 h 0.318858 v 0 l 0.104591,0.3008584 -0.825257,0.9522198 v 0 l -0.45624,-0.032587 -0.798305,-0.9211211 v 0 l 0.102875,-0.2993701 0.305793,0 v 0 c 0,-0.049217 0.1301,-0.098018 0.126605,-0.1463437 C 13.919789,6.8172402 13.055352,5.999828 12,5.999828 c -1.104569,0 -2,0.8954305 -2,2 0,1.10457 0.895431,2 2,2 v 1 c -1.656854,0 -3,-1.343146 -3,-3 0,-1.6568542 1.343146,-3 3,-3 z"
     id="path9"
     sodipodi:nodetypes="ssssssscccccccccccccsssccss" />
</svg>
