<?xml version="1.0" encoding="UTF-8" standalone="no"?>
<svg
   width="24"
   height="24"
   version="1.1"
   id="svg7"
   sodipodi:docname="bitcoin-indicator.svg"
   inkscape:version="1.1.2 (0a00cf5339, 2022-02-04)"
   xmlns:inkscape="http://www.inkscape.org/namespaces/inkscape"
   xmlns:sodipodi="http://sodipodi.sourceforge.net/DTD/sodipodi-0.dtd"
   xmlns="http://www.w3.org/2000/svg"
   xmlns:svg="http://www.w3.org/2000/svg">
  <sodipodi:namedview
     id="namedview9"
     pagecolor="#ffffff"
     bordercolor="#666666"
     borderopacity="1.0"
     inkscape:pageshadow="2"
     inkscape:pageopacity="0.0"
     inkscape:pagecheckerboard="0"
     showgrid="false"
     inkscape:zoom="31.625"
     inkscape:cx="12"
     inkscape:cy="12"
     inkscape:window-width="1822"
     inkscape:window-height="928"
     inkscape:window-x="0"
     inkscape:window-y="35"
     inkscape:window-maximized="1"
     inkscape:current-layer="svg7" />
  <defs
     id="defs3">
    <style
       id="current-color-scheme"
       type="text/css">
   .ColorScheme-Text { color:#eeeeec; } .ColorScheme-Highlight { color:#367bf0; } .ColorScheme-NeutralText { color:#ffcc44; } .ColorScheme-PositiveText { color:#3db47e; } .ColorScheme-NegativeText { color:#dd4747; }
  </style>
  </defs>
  <path
     style="fill:currentColor"
     class="ColorScheme-Text"
     d="m 12,4 c -4.418278,0 -8,3.581722 -8,8 0,4.418278 3.581722,8 8,8 4.418278,0 8,-3.581722 8,-8 0,-4.418278 -3.581722,-8 -8,-8 z m -2,2 h 1 v 2.0000001 c 0.30317,-0.011 0.701376,-5e-6 1,0 v -2 h 1 v 2 h 1 C 14.566724,8 15.000203,9 15,9.75 14.999662,11 14.566724,11.443175 13.816406,11.5 14.999292,11.500955 16,12 16,13.5 c 0,2.133628 -1.107813,2.361524 -3.015625,2.5 l 0.03125,2 h -1 l -0.03125,-2 H 11 v 1.982422 l -1,0.01758 v -2 c -0.265759,0 -0.597945,-0.01 -0.873047,0 H 8 v -1 c 0,0 0.690631,0.013 0.675781,0 0.321569,-0.01 0.306584,-0.359224 0.324219,-0.5 V 9.54883 C 8.95236,9.326069 8.805832,8.993002 8.345703,9.000002 8.359423,8.9850071 8,9.000002 8,9.000002 v -1 h 1.066406 c 0.235504,0 0.687747,0.01 0.933594,0 v -2 z M 11.421559,9.001196 11,9.3036347 v 1.3598903 l 0.263259,0.336113 c 0.09051,0 -0.08497,3.62e-4 0,0 C 12.369874,10.994924 13.000128,10.928754 13,10 13.000123,9.1061465 12.528765,9.0112671 11.421559,9.001196 c -0.131463,-0.0012 0.149668,0 0,0 z M 11.358707,12.000365 11,12.27596 v 2.403259 l 0.421549,0.320201 c 0.145832,0 -0.135201,5.81e-4 0,0 C 13.140543,14.992038 14.000193,14.890718 14,13.5 c 1.95e-4,-1.407448 -0.880408,-1.494223 -2.641293,-1.499635 -0.115764,-3.56e-4 0.123374,4e-6 0,0 z"
     id="path5"
     sodipodi:nodetypes="ssssscccccccsscscccccccccccccccccscccccccscscccccscsc" />
</svg>
