<?xml version="1.0" encoding="UTF-8" standalone="no"?>
<svg
   width="24"
   height="24"
   version="1.1"
   id="svg30764"
   sodipodi:docname="bitwarden-tray.svg"
   inkscape:version="1.1.2 (0a00cf5339, 2022-02-04)"
   xmlns:inkscape="http://www.inkscape.org/namespaces/inkscape"
   xmlns:sodipodi="http://sodipodi.sourceforge.net/DTD/sodipodi-0.dtd"
   xmlns="http://www.w3.org/2000/svg"
   xmlns:svg="http://www.w3.org/2000/svg">
  <sodipodi:namedview
     id="namedview30766"
     pagecolor="#000000"
     bordercolor="#666666"
     borderopacity="1.0"
     inkscape:pageshadow="2"
     inkscape:pageopacity="0"
     inkscape:pagecheckerboard="0"
     showgrid="false"
     inkscape:zoom="34.458333"
     inkscape:cx="12.01451"
     inkscape:cy="12"
     inkscape:window-width="1920"
     inkscape:window-height="1051"
     inkscape:window-x="0"
     inkscape:window-y="29"
     inkscape:window-maximized="1"
     inkscape:current-layer="svg30764" />
  <defs
     id="defs30760">
    <style
       id="current-color-scheme"
       type="text/css">
   .ColorScheme-Text { color:#eeeeec; } .ColorScheme-Highlight { color:#367bf0; } .ColorScheme-NeutralText { color:#ffcc44; } .ColorScheme-PositiveText { color:#3db47e; } .ColorScheme-NegativeText { color:#dd4747; }
  </style>
  </defs>
  <path
     style="fill:currentColor"
     class="ColorScheme-Text"
     d="M 12,3.999953 C 5.6597699,4.0001605 5.4972206,4.003373 5.3320313,4.099562 4.9813624,4.3038397 5.0000001,4.051692 5.0000001,8.8144057 c 0,4.8330943 -0.00567,4.7365493 0.3769531,5.6738283 0.4402003,1.07819 1.1485707,1.988275 2.3125,2.978516 0.9766088,0.830875 2.1342964,1.583963 3.4257808,2.222656 0.436925,0.216078 0.662887,0.314118 0.884766,0.310547 0.221879,0.0035 0.447839,-0.09446 0.884766,-0.310547 1.291484,-0.638693 2.449171,-1.391781 3.425781,-2.222656 1.163929,-0.990241 1.8723,-1.900326 2.3125,-2.978516 C 19.005727,13.550954 19,13.6475 19,8.8144061 19,4.0516884 19.018633,4.3038401 18.667969,4.0995624 18.50278,4.0033564 18.340231,4.00016 12,3.999953 Z m 0,2 c 2.553194,8.34e-5 3.837572,0.0025 4.723804,0.00949 0.08859,6.981e-4 0.173207,0.00144 0.254712,0.00223 C 16.989059,6.626717 17,7.1124814 17,8.8144061 c 0,2.4174729 -0.0049,3.6212849 -0.04102,4.1660159 -0.03608,0.544731 0.01146,0.264652 -0.1875,0.751953 -0.305374,0.74796 -0.748108,1.353569 -1.755859,2.210937 -0.747661,0.636097 -1.646895,1.238805 -2.65868,1.769342 -0.117483,0.0616 0,-0.375659 -0.356941,-0.193829 v 0 z"
     id="path30762"
     sodipodi:nodetypes="ccscssccscscccscscccsccc" />
</svg>
