<?xml version="1.0" encoding="UTF-8" standalone="no"?>
<svg
   width="24"
   height="24"
   version="1.1"
   id="svg7"
   sodipodi:docname="bluetooth-active.svg"
   inkscape:version="1.1.2 (0a00cf5339, 2022-02-04)"
   xmlns:inkscape="http://www.inkscape.org/namespaces/inkscape"
   xmlns:sodipodi="http://sodipodi.sourceforge.net/DTD/sodipodi-0.dtd"
   xmlns="http://www.w3.org/2000/svg"
   xmlns:svg="http://www.w3.org/2000/svg">
  <sodipodi:namedview
     id="namedview9"
     pagecolor="#000000"
     bordercolor="#666666"
     borderopacity="1.0"
     inkscape:pageshadow="2"
     inkscape:pageopacity="0"
     inkscape:pagecheckerboard="0"
     showgrid="false"
     inkscape:zoom="129.5"
     inkscape:cx="12.003861"
     inkscape:cy="12.930502"
     inkscape:window-width="1920"
     inkscape:window-height="1051"
     inkscape:window-x="0"
     inkscape:window-y="29"
     inkscape:window-maximized="1"
     inkscape:current-layer="svg7" />
  <defs
     id="defs3">
    <style
       id="current-color-scheme"
       type="text/css">
   .ColorScheme-Text { color:#eeeeec; } .ColorScheme-Highlight { color:#367bf0; } .ColorScheme-NeutralText { color:#ffcc44; } .ColorScheme-PositiveText { color:#3db47e; } .ColorScheme-NegativeText { color:#dd4747; }
  </style>
  </defs>
  <path
     style="fill:currentColor"
     class="ColorScheme-Text"
     d="M 10.503741,4.1301235 C 10.157747,4.2966352 9.9376349,4.6465375 9.9373352,5.0305142 v 3.8295671 0 L 9.749754,8.9510925 7.5506166,7.2414516 C 7.1147293,6.9031104 6.4871657,6.9817744 6.1482728,7.4172329 5.8099316,7.8531202 5.8885956,8.4806838 6.3240541,8.8195767 l 3.6132811,2.8105473 v 0.800781 l -3.6132811,2.810547 c -0.435458,0.338893 -0.5141219,0.966456 -0.1757813,1.402343 0.3388927,0.435459 0.9664563,0.514123 1.4023438,0.175782 l 2.247464,-1.74721 0.1392546,0.0796 v 0 3.878551 c -3.498e-4,0.838869 0.9700488,1.305407 1.6249998,0.78125 l 5.000001,-4.000001 c 0.504555,-0.404192 0.498812,-1.173696 -0.01172,-1.570312 L 13.70882,12.030515 16.550617,9.8195768 C 17.061149,9.4229606 17.066892,8.653457 16.562337,8.2492647 L 11.562336,4.2492642 C 11.261741,4.0092876 10.850157,3.9629654 10.503741,4.1301235 Z m 1.433594,3.6857483 0.571209,-0.246266 1.399324,1.1196883 0.01042,0.645572 v 0 l -1.486082,1.1559849 -0.207743,0.04766 v 0 l -0.178486,-0.06999 v 0 l -0.108642,-0.186145 z m 0,5.5915962 0.284696,-7.78e-4 1.783136,1.387055 0.145458,0.199264 v 0 l -0.02023,0.200666 v 0 l -1.958224,1.566899 v 0 l -0.234839,-0.09699 v -3.15805 z"
     id="path5"
     sodipodi:nodetypes="ccccccccccccccccccccccccccccccccccccccccccccccccc" />
</svg>
