<?xml version="1.0" encoding="UTF-8" standalone="no"?>
<svg
   width="24"
   height="24"
   version="1.1"
   id="svg7"
   sodipodi:docname="cadence-panel.svg"
   inkscape:version="1.1.2 (0a00cf5339, 2022-02-04)"
   xmlns:inkscape="http://www.inkscape.org/namespaces/inkscape"
   xmlns:sodipodi="http://sodipodi.sourceforge.net/DTD/sodipodi-0.dtd"
   xmlns="http://www.w3.org/2000/svg"
   xmlns:svg="http://www.w3.org/2000/svg">
  <sodipodi:namedview
     id="namedview9"
     pagecolor="#ffffff"
     bordercolor="#666666"
     borderopacity="1.0"
     inkscape:pageshadow="2"
     inkscape:pageopacity="0.0"
     inkscape:pagecheckerboard="0"
     showgrid="false"
     inkscape:zoom="126.5"
     inkscape:cx="11.996047"
     inkscape:cy="13.26087"
     inkscape:window-width="1822"
     inkscape:window-height="928"
     inkscape:window-x="0"
     inkscape:window-y="35"
     inkscape:window-maximized="1"
     inkscape:current-layer="svg7" />
  <defs
     id="defs3">
    <style
       id="current-color-scheme"
       type="text/css">
   .ColorScheme-Text { color:#eeeeec; } .ColorScheme-Highlight { color:#367bf0; } .ColorScheme-NeutralText { color:#ffcc44; } .ColorScheme-PositiveText { color:#3db47e; } .ColorScheme-NegativeText { color:#dd4747; }
  </style>
  </defs>
  <path
     style="fill:currentColor"
     class="ColorScheme-Text"
     d="m 11.999998,4.0001308 c -0.904957,0.015 -2.2849706,0.2255134 -2.6425786,0.6152344 -0.381363,0.415605 -0.4639699,0.9999094 -0.3574219,1.6464844 0.203127,1.232663 1.9053615,2.7439262 2.9140625,4.1035154 -0.007,0.0088 -0.01442,0.01857 -0.02148,0.02734 -0.424247,0.527955 -1.233078,1.019465 -1.776485,1.453054 -0.107373,0.08567 -0.04616,0.02682 -0.1277954,0.107805 0.017693,-0.0797 -0.1239328,-0.03834 -0.1086765,-0.149851 0.05351,-0.391104 0.090563,-0.912566 0.1008472,-1.10632 0.011321,-0.213292 0.00557,-0.378794 -0.060547,-0.513672 -0.03308,-0.06744 -0.092426,-0.132098 -0.1738281,-0.158203 -0.0814,-0.02611 -0.1653973,-0.0087 -0.2382813,0.02539 -0.1967858,0.504927 -0.5222673,1.184166 -0.7871094,1.81836 -0.243544,0.404481 -0.4157157,1.128721 -0.5273437,1.386718 -0.05748,0.132851 -0.1002891,0.248703 -0.1269532,0.34961 -0.02512,0.09506 -0.037443,0.178583 -0.033203,0.255859 0.13912,0.187597 0.364068,0.160151 0.546875,0.171875 0.07935,-8.32e-4 0.1622693,-0.01488 0.2539063,-0.07031 0.1644904,-0.09951 0.3572422,-0.243182 0.5646978,-0.412864 0.063765,-0.05215 0.052817,0.149594 0.1189666,0.09305 -0.02825,0.0935 0.022905,-0.07832 0,0 -0.1397978,0.477998 -0.203571,0.724245 -0.4785863,1.362779 -0.0044,0.01036 -0.011135,0.0209 -0.015625,0.03125 -1.688895,-0.229902 -3.4501611,-0.0842 -4.6425781,0.326172 -0.625464,0.215252 -1.1071269,0.69495 -1.2949219,1.22461 -0.187794,0.529662 -0.073416,1.202608 0.3984375,2.037109 0.471855,0.834501 0.992354,1.217025 1.546875,1.335938 0.554521,0.118912 1.1083236,-0.0366 1.6210938,-0.451172 0.97757,-0.790357 1.8590268,-2.624004 2.5449218,-4.167969 0.01126,0.0017 0.023906,0.0023 0.035156,0.0039 0.7630766,0.112573 1.4967779,1.089006 2.1465439,1.347139 0.03803,0.01511 -0.05441,0.06811 -0.01696,0.07798 -0.04267,0.0134 0.04398,-0.0135 0,0 -0.321497,0.0987 -0.666295,0.199887 -0.863957,0.299491 -0.192388,0.09695 -0.334924,0.184475 -0.419922,0.308594 -0.0425,0.06206 -0.07058,0.145725 -0.05273,0.228516 0.01785,0.08279 0.07626,0.146031 0.142578,0.191406 0.132645,0.09075 0.320906,0.140705 0.601563,0.181641 0.280656,0.04093 0.750689,0.06587 1.226563,0.07227 0.0014,1.9e-5 0.0025,-1.9e-5 0.0039,0 0.0014,-1.9e-5 0.0025,1.9e-5 0.0039,0 0.475874,-0.0064 0.945907,-0.03134 1.226563,-0.07227 0.280657,-0.04094 0.468917,-0.09089 0.601562,-0.181641 0.06632,-0.04537 0.124728,-0.108616 0.142578,-0.191406 0.01785,-0.08279 -0.01023,-0.166456 -0.05273,-0.228516 -0.085,-0.124119 -0.227536,-0.211644 -0.419922,-0.308594 -0.191264,-0.09638 -0.520294,-0.194242 -0.83267,-0.289899 -0.05461,-0.01672 0.05276,0.01657 0,0 0.04928,-0.01299 -0.06239,-0.08074 -0.0121,-0.102627 0.640773,-0.278914 1.361433,-1.221593 2.110391,-1.332083 0.01125,-0.0016 0.0239,-0.0022 0.03516,-0.0039 0.685895,1.543965 1.567352,3.377612 2.544922,4.167969 0.51277,0.414572 1.066573,0.570084 1.621094,0.451172 0.554521,-0.118913 1.07502,-0.501437 1.546875,-1.335938 0.471858,-0.834501 0.586232,-1.507447 0.398437,-2.037109 -0.187795,-0.52966 -0.669457,-1.009358 -1.294921,-1.22461 -1.192417,-0.410372 -2.953685,-0.556074 -4.642579,-0.326172 -0.0045,-0.01035 -0.01122,-0.02089 -0.01562,-0.03125 -0.28926,-0.671602 -0.344828,-0.909234 -0.500958,-1.438994 -0.01663,-0.05644 0.01932,0.06395 0,0 0.05469,0.04675 0.05498,-0.08797 0.108086,-0.04415 0.220107,0.181577 0.424704,0.335375 0.59795,0.44018 0.09164,0.05543 0.174556,0.06948 0.253906,0.07031 0.182807,-0.01172 0.407755,0.01572 0.546875,-0.171875 0.0042,-0.07728 -0.0081,-0.160799 -0.0332,-0.255859 -0.02666,-0.100907 -0.06947,-0.216759 -0.126953,-0.34961 -0.111628,-0.257997 -0.2838,-0.982237 -0.527344,-1.386718 -0.264842,-0.634194 -0.590324,-1.313433 -0.787109,-1.81836 -0.07289,-0.03408 -0.156882,-0.0515 -0.238282,-0.02539 -0.0814,0.0261 -0.140748,0.09076 -0.173828,0.158203 -0.06615,0.134878 -0.07187,0.30038 -0.06055,0.513672 0.01157,0.217921 0.057,0.850399 0.121619,1.245695 0.0092,0.05637 -0.01,-0.04483 0,0 -0.03835,-0.03805 -0.05133,0.07611 -0.09595,0.03701 -0.531015,-0.465344 -1.469088,-1.004126 -1.937779,-1.587389 -0.0071,-0.0088 -0.01449,-0.01854 -0.02148,-0.02734 C 13.094641,9.0057758 14.796875,7.4945125 15.000002,6.2618496 15.10655,5.6152746 15.023942,5.0309702 14.64258,4.6153652 14.284968,4.2256442 12.904955,4.0151308 11.999998,4.0001308 Z"
     id="path5"
     sodipodi:nodetypes="ccsccscssccccsscccscsccsssssccscssssccscccssscscsccsssssccscsccccscccccscsccssc" />
</svg>
