<?xml version="1.0" encoding="UTF-8" standalone="no"?>
<svg
   width="24"
   height="24"
   version="1.1"
   id="svg7"
   sodipodi:docname="cantata-panel.svg"
   inkscape:version="1.1.2 (0a00cf5339, 2022-02-04)"
   xmlns:inkscape="http://www.inkscape.org/namespaces/inkscape"
   xmlns:sodipodi="http://sodipodi.sourceforge.net/DTD/sodipodi-0.dtd"
   xmlns="http://www.w3.org/2000/svg"
   xmlns:svg="http://www.w3.org/2000/svg">
  <sodipodi:namedview
     id="namedview9"
     pagecolor="#ffffff"
     bordercolor="#666666"
     borderopacity="1.0"
     inkscape:pageshadow="2"
     inkscape:pageopacity="0.0"
     inkscape:pagecheckerboard="0"
     showgrid="false"
     inkscape:zoom="89.449008"
     inkscape:cx="12.001251"
     inkscape:cy="12.001251"
     inkscape:window-width="1822"
     inkscape:window-height="928"
     inkscape:window-x="0"
     inkscape:window-y="35"
     inkscape:window-maximized="1"
     inkscape:current-layer="svg7" />
  <defs
     id="defs3">
    <style
       id="current-color-scheme"
       type="text/css">
   .ColorScheme-Text { color:#eeeeec; } .ColorScheme-Highlight { color:#367bf0; } .ColorScheme-NeutralText { color:#ffcc44; } .ColorScheme-PositiveText { color:#3db47e; } .ColorScheme-NegativeText { color:#dd4747; }
  </style>
  </defs>
  <path
     style="fill:currentColor"
     class="ColorScheme-Text"
     d="M 11.810547,3.9808219 C 7.4496737,4.0840537 3.9753488,7.6617656 3.9999999,12.023791 4.0013066,16.441148 7.582646,20.021422 12,20.021422 c 4.417354,0 7.998693,-3.580274 8,-7.997631 C 20.02549,7.5136031 16.31954,3.8739396 11.810547,3.9808219 Z M 12,5.9788687 c 3.308423,0 6,2.6915772 6,6.0000003 0,3.308423 -2.691577,5.999999 -6,5.999999 -3.3084229,0 -6.0000001,-2.691576 -6.0000001,-5.999999 0,-3.3084231 2.6915772,-6.0000003 6.0000001,-6.0000003 z m 0.400391,1 C 12.000391,6.9788687 12,7.3968375 12,7.3968375 v 4.4048195 l -0.265831,0.296913 c -0.09325,-0.03299 0.08512,0.02521 0,0 -0.265826,-0.07873 -0.50876,-0.119193 -0.833778,-0.119701 -1.5463969,0 -2.9003909,0.89543 -2.9003909,1.999999 0,1.10457 1.453603,2 2.9999999,2 1.546398,0 3.000001,-0.89543 3.000001,-2 V 9.4618957 l 0.354733,-0.2790561 c 0,0 -0.205726,-0.127823 0,0 0.596764,0.3707854 1.670791,1.1763894 0.969485,1.8194674 -0.259008,0.14857 -0.344328,0.378196 -0.298828,0.578125 0.06909,0.303608 0.439979,0.538683 0.953125,0.320312 C 16.749531,11.498755 17,10.778088 17,10.178088 17,8.3780875 14.000392,6.9788687 12.400391,6.9788687 Z"
     id="path5"
     sodipodi:nodetypes="ccsccsssssscccscsssccscccss" />
</svg>
