<?xml version="1.0" encoding="UTF-8" standalone="no"?>
<svg
   width="24"
   height="24"
   version="1.1"
   id="svg9"
   sodipodi:docname="caps-lock-off.svg"
   inkscape:version="1.1.2 (0a00cf5339, 2022-02-04)"
   xmlns:inkscape="http://www.inkscape.org/namespaces/inkscape"
   xmlns:sodipodi="http://sodipodi.sourceforge.net/DTD/sodipodi-0.dtd"
   xmlns="http://www.w3.org/2000/svg"
   xmlns:svg="http://www.w3.org/2000/svg">
  <sodipodi:namedview
     id="namedview11"
     pagecolor="#000000"
     bordercolor="#666666"
     borderopacity="1.0"
     inkscape:pageshadow="2"
     inkscape:pageopacity="0"
     inkscape:pagecheckerboard="0"
     showgrid="false"
     inkscape:zoom="44.724504"
     inkscape:cx="11.995661"
     inkscape:cy="11.995661"
     inkscape:window-width="1822"
     inkscape:window-height="928"
     inkscape:window-x="0"
     inkscape:window-y="35"
     inkscape:window-maximized="1"
     inkscape:current-layer="g7" />
  <defs
     id="defs3">
    <style
       id="current-color-scheme"
       type="text/css">
   .ColorScheme-Text { color:#eeeeec; } .ColorScheme-Highlight { color:#367bf0; } .ColorScheme-NeutralText { color:#ffcc44; } .ColorScheme-PositiveText { color:#3db47e; } .ColorScheme-NegativeText { color:#dd4747; }
  </style>
  </defs>
  <g
     id="g7">
    <path
       style="opacity:0.35;fill:currentColor;fill-rule:evenodd"
       class="ColorScheme-Text"
       d="M 4.3772135,17.498678 4.0004243,17.75 c 0,0 1.0381,2.25 2.25,2.25 H 17.750424 c 1.212,0 2.25,-2.25 2.25,-2.25 v 0 C 19.880719,17.85913 19.752862,17.412501 19.617754,17.502529 19.152409,17.81261 18.601041,18 18.000424,18 H 6.0004243 c -0.6027884,0 -1.1566456,-0.188942 -1.6232108,-0.501322 -0.1329842,-0.08904 0.1179125,0.107577 0,0 z M 11.896123,7.9753522 v 0 L 11.102132,10.911341 11.232249,11.289 v 0 l 1.543172,0 v 0 L 13.086043,10.949465 12.258787,7.947201 Z M 10.898824,6 h 2.3146 l 2.91,9 h -1.91 l -0.609,-2 h -3.0767 l -0.6170997,2 h -1.9102 z M 7.0004243,4 c -1.0193228,-1.709e-4 -1.8757271,0.7662125 -1.9883,1.7793 l -1,8.9997 c -0.1316098,1.184951 0.7960628,2.221193 1.9883,2.221 H 18.000424 c 1.192117,1.4e-5 2.119597,-1.036168 1.988,-2.221 l -1,-8.9997 C 18.875864,4.7663264 18.019632,3.999982 17.000424,4 Z"
       id="path5"
       sodipodi:nodetypes="csssscssssccccccccccccccccccccccccccccc" />
  </g>
</svg>
