<?xml version="1.0" encoding="UTF-8" standalone="no"?>
<svg
   width="24"
   height="24"
   version="1.1"
   id="svg9"
   sodipodi:docname="caps-lock-on.svg"
   inkscape:version="1.1.2 (0a00cf5339, 2022-02-04)"
   xmlns:inkscape="http://www.inkscape.org/namespaces/inkscape"
   xmlns:sodipodi="http://sodipodi.sourceforge.net/DTD/sodipodi-0.dtd"
   xmlns="http://www.w3.org/2000/svg"
   xmlns:svg="http://www.w3.org/2000/svg">
  <sodipodi:namedview
     id="namedview11"
     pagecolor="#ffffff"
     bordercolor="#666666"
     borderopacity="1.0"
     inkscape:pageshadow="2"
     inkscape:pageopacity="0.0"
     inkscape:pagecheckerboard="0"
     showgrid="false"
     inkscape:zoom="89.449008"
     inkscape:cx="12.001251"
     inkscape:cy="14.684344"
     inkscape:window-width="1822"
     inkscape:window-height="928"
     inkscape:window-x="0"
     inkscape:window-y="35"
     inkscape:window-maximized="1"
     inkscape:current-layer="g7" />
  <defs
     id="defs3">
    <style
       id="current-color-scheme"
       type="text/css">
   .ColorScheme-Text { color:#eeeeec; } .ColorScheme-Highlight { color:#367bf0; } .ColorScheme-NeutralText { color:#ffcc44; } .ColorScheme-PositiveText { color:#3db47e; } .ColorScheme-NegativeText { color:#dd4747; }
  </style>
  </defs>
  <g
     id="g7">
    <path
       style="fill:currentColor;fill-rule:evenodd"
       class="ColorScheme-Text"
       d="M 4.2326708,17.39589 4.0004243,17.554426 V 17.75 c 0,1.212 1.0381,2.25 2.25,2.25 H 17.750424 c 1.212,0 2.25,-1.038 2.25,-2.25 v -0.229249 0 c -0.08733,0.07962 -0.179005,-0.163178 -0.274666,-0.0935 C 19.238688,17.782028 18.6482,18 18.000424,18 H 6.0004243 C 5.334116,18 4.7275946,17.769139 4.2326708,17.39589 c -0.080437,-0.06066 0.074319,0.0678 0,0 z M 11.901794,7.9543824 v 0 L 11.123519,10.832257 11.453216,11.289 v 0 h 1.327633 v 0 L 13.045095,10.800858 12.28121,8.0285797 Z M 10.898824,6 h 2.3146 l 2.91,9 h -1.91 l -0.609,-2 h -3.0767 l -0.6170997,2 h -1.9102 z M 7.0004243,4 c -1.0193228,-1.709e-4 -1.8757271,0.7662125 -1.9883,1.7793 l -1,8.9997 c -0.1316098,1.184951 0.7960628,2.221193 1.9883,2.221 H 18.000424 c 1.192117,1.4e-5 2.119597,-1.036168 1.988,-2.221 l -1,-8.9997 C 18.875864,4.7663264 18.019632,3.999982 17.000424,4 Z"
       id="path5"
       sodipodi:nodetypes="ccssssccssssccccccccccccccccccccccccccccc" />
  </g>
</svg>
