<?xml version="1.0" encoding="UTF-8" standalone="no"?>
<svg
   width="24"
   height="24"
   version="1.1"
   id="svg7"
   sodipodi:docname="cisco-tray-connected.svg"
   inkscape:version="1.1.2 (0a00cf5339, 2022-02-04)"
   xmlns:inkscape="http://www.inkscape.org/namespaces/inkscape"
   xmlns:sodipodi="http://sodipodi.sourceforge.net/DTD/sodipodi-0.dtd"
   xmlns="http://www.w3.org/2000/svg"
   xmlns:svg="http://www.w3.org/2000/svg">
  <sodipodi:namedview
     id="namedview9"
     pagecolor="#ffffff"
     bordercolor="#666666"
     borderopacity="1.0"
     inkscape:pageshadow="2"
     inkscape:pageopacity="0.0"
     inkscape:pagecheckerboard="0"
     showgrid="false"
     inkscape:zoom="89.449008"
     inkscape:cx="12.001251"
     inkscape:cy="15.578708"
     inkscape:window-width="1822"
     inkscape:window-height="928"
     inkscape:window-x="0"
     inkscape:window-y="35"
     inkscape:window-maximized="1"
     inkscape:current-layer="svg7" />
  <defs
     id="defs3">
    <style
       id="current-color-scheme"
       type="text/css">
   .ColorScheme-Text { color:#eeeeec; } .ColorScheme-Highlight { color:#367bf0; } .ColorScheme-NeutralText { color:#ffcc44; } .ColorScheme-PositiveText { color:#3db47e; } .ColorScheme-NegativeText { color:#dd4747; }
  </style>
  </defs>
  <path
     style="fill:currentColor"
     class="ColorScheme-Text"
     d="M 12,4 C 9.2742224,4 6.8796673,5.3518744 5.4373305,7.4224426 c -0.139958,0.2009188 0.3527258,0.089338 0.2312672,0.3032126 0.2025575,-0.1150317 -0.2130732,0.097631 0,0 C 6.6818358,7.2613832 7.8087767,7 9,7 c 0.524759,0 1.037157,0.052885 1.533203,0.1484375 0.0018,-0.00466 0.0041,-0.00902 0.0059,-0.013672 0.109049,-0.2835808 0.233686,-0.5574434 0.373047,-0.8242187 0.0129,-0.024874 0.02592,-0.049498 0.03906,-0.074219 0.127806,-0.238484 0.267456,-0.4682357 0.417969,-0.6914062 0.02988,-0.044688 0.05714,-0.090725 0.08789,-0.1347657 0.151973,-0.215866 0.314284,-0.4236254 0.486328,-0.6230468 0.02804,-0.032693 0.05347,-0.067383 0.08203,-0.099609 0.113396,-0.1272852 0.229908,-0.2516613 0.35032,-0.372127 0.09671,-0.096752 -0.156915,-0.2154287 -0.05477,-0.3066173 -0.117182,-0.00971 0.118184,0.00605 0,0 C 12.214651,4.003311 12.107756,4 12,4 Z m 3.226562,0.6777344 c -0.289386,0.1504875 -0.560133,0.3292648 -0.818359,0.5234375 -0.06417,0.047973 -0.123414,0.1018974 -0.185547,0.1523437 -0.214183,0.1751328 -0.419783,0.3614802 -0.607422,0.5644532 -0.02986,0.032021 -0.06068,0.06303 -0.08984,0.095703 -0.457517,0.5172888 -0.829449,1.1116662 -1.089844,1.765625 1.856896,0.8813919 3.303632,2.4594352 4.034398,4.3950682 0.028,0.07417 -0.02588,-0.0752 0,0 0.0653,-0.03745 0.212813,0.151362 0.280798,0.118484 C 17.130462,12.109219 17.550964,12 18,12 c 0.663463,0 1.26821,0.228896 1.760986,0.603067 0.06472,0.04914 0.14372,-0.06759 0.204453,-0.01363 0.0054,-0.05612 -0.0053,0.05615 0,0 C 19.983882,12.3949 20,12.199657 20,12 20,8.7183319 18.041258,5.9142825 15.226562,4.6777344 Z M 9,9 C 6.920529,9 5.0933101,10.046465 4.0175781,11.644531 4.0123781,11.76324 4,11.87997 4,12 c 0,4.432 3.568,8 8,8 0.119372,0 0.235451,-0.01245 0.353516,-0.01758 h 0.002 C 13.013286,19.539584 13.564301,18.959751 14,18.296875 v -1.392578 c -0.119225,-0.0696 -0.245649,-0.127996 -0.361328,-0.203125 -0.03237,-0.021 -0.06366,-0.043 -0.0957,-0.06445 -0.285849,-0.191584 -0.560432,-0.397127 -0.81836,-0.623047 -0.0031,-0.0027 -0.0066,-0.0051 -0.0098,-0.0078 -0.261357,-0.229614 -0.505115,-0.478562 -0.734375,-0.740234 -0.03115,-0.0355 -0.06127,-0.07137 -0.0918,-0.107422 -0.209976,-0.248385 -0.407211,-0.506126 -0.585938,-0.779297 -0.01292,-0.01971 -0.02632,-0.03876 -0.03906,-0.05859 -0.181167,-0.282329 -0.341251,-0.57938 -0.486328,-0.884765 -0.02795,-0.05873 -0.05353,-0.118216 -0.08008,-0.177735 -0.131227,-0.294674 -0.250319,-0.595729 -0.345703,-0.908203 -0.0065,-0.02114 -0.01519,-0.04128 -0.02148,-0.0625 -0.09544,-0.322294 -0.164079,-0.655937 -0.21875,-0.99414 -0.01282,-0.07917 -0.02467,-0.158327 -0.03516,-0.238281 C 10.030924,10.708992 10,10.358483 10,10 10,9.694348 10.01754,9.394017 10.05078,9.097656 9.7092773,9.037718 9.359197,9 9,9 Z m 3.309503,0.9957998 C 12.307503,10.05907 12,9.936238 12,10 c 0,0.248781 0.01965,0.491853 0.04883,0.732422 0.0089,0.07358 0.02169,0.146032 0.0332,0.21875 0.02793,0.17572 0.0627,0.349374 0.105469,0.519531 0.01772,0.07068 0.0345,0.141289 0.05469,0.210938 0.0659,0.226739 0.141381,0.449467 0.232421,0.664062 0.0966,0.2277 0.209115,0.446117 0.332032,0.658203 0.01642,0.02842 0.03391,0.05586 0.05078,0.08399 0.115562,0.192026 0.241224,0.377564 0.376953,0.554687 0.01328,0.01738 0.02559,0.03551 0.03906,0.05273 0.306563,0.391105 0.659422,0.742732 1.052734,1.046876 0.01616,0.01252 0.03254,0.02475 0.04883,0.03711 0.105246,0.07968 0.21957,0.147583 0.330078,0.220703 l 0.291807,-0.19594 c 0,-0.06558 0.0021,0.06504 0,0 -0.06421,-2.015844 -1.115899,-3.770436 -2.687381,-4.8082622 -0.09668,-0.063848 0.100505,0.058316 0,0 z M 18,13 c -1.108,0 -2,0.9109 -2,2.03125 V 16 h -1 v 4 h 6 V 16 H 20 V 15.03125 C 20,13.91135 19.108,13 18,13 Z m 0,1 c 0.554,0 1,0.4424 1,1 v 1 h -2 v -1 c 0,-0.5576 0.446,-1 1,-1 z"
     id="path5"
     sodipodi:nodetypes="sscssccccccccscssccccccscssscsscscssccccccccccccccccccscscsccccsccccccccsscssccccccssssccss" />
</svg>
