<?xml version="1.0" encoding="UTF-8" standalone="no"?>
<svg
   width="24"
   height="24"
   version="1.1"
   id="svg7"
   sodipodi:docname="cisco-tray-quarantined.svg"
   inkscape:version="1.1.2 (0a00cf5339, 2022-02-04)"
   xmlns:inkscape="http://www.inkscape.org/namespaces/inkscape"
   xmlns:sodipodi="http://sodipodi.sourceforge.net/DTD/sodipodi-0.dtd"
   xmlns="http://www.w3.org/2000/svg"
   xmlns:svg="http://www.w3.org/2000/svg">
  <sodipodi:namedview
     id="namedview9"
     pagecolor="#ffffff"
     bordercolor="#666666"
     borderopacity="1.0"
     inkscape:pageshadow="2"
     inkscape:pageopacity="0.0"
     inkscape:pagecheckerboard="0"
     showgrid="false"
     inkscape:zoom="31.5"
     inkscape:cx="12.015873"
     inkscape:cy="12.015873"
     inkscape:window-width="1822"
     inkscape:window-height="928"
     inkscape:window-x="0"
     inkscape:window-y="35"
     inkscape:window-maximized="1"
     inkscape:current-layer="svg7" />
  <defs
     id="defs3">
    <style
       id="current-color-scheme"
       type="text/css">
   .ColorScheme-Text { color:#eeeeec; } .ColorScheme-Highlight { color:#367bf0; } .ColorScheme-NeutralText { color:#ffcc44; } .ColorScheme-PositiveText { color:#3db47e; } .ColorScheme-NegativeText { color:#dd4747; }
  </style>
  </defs>
  <path
     style="fill:currentColor"
     class="ColorScheme-Text"
     d="M 12,4 C 9.3547357,4 7.0214156,5.2731913 5.5676169,7.2408605 5.378004,7.4974953 5.9189324,7.4052616 5.7605017,7.6842398 c 0.2315825,-0.1315149 -0.2452418,0.1086689 0,0 C 6.7498103,7.2458681 7.8446718,7 9,7 c 0.524759,0 1.037157,0.052885 1.533203,0.1484375 0.0018,-0.00466 0.0041,-0.00902 0.0059,-0.013672 0.109049,-0.2835808 0.233686,-0.5574434 0.373047,-0.8242187 0.0129,-0.024874 0.02592,-0.049498 0.03906,-0.074219 0.127806,-0.238484 0.267456,-0.4682357 0.417969,-0.6914062 0.02988,-0.044688 0.05714,-0.090725 0.08789,-0.1347657 0.151973,-0.215866 0.314284,-0.4236254 0.486328,-0.6230468 0.02804,-0.032693 0.05347,-0.067383 0.08203,-0.099609 0.204505,-0.229514 0.419108,-0.4495693 0.648438,-0.654297 C 12.45122,4.0147621 12.227527,4 12,4 Z m 3.226562,0.6777344 c -0.289386,0.1504875 -0.560133,0.3292648 -0.818359,0.5234375 -0.06417,0.047973 -0.123414,0.1018974 -0.185547,0.1523437 -0.214183,0.1751328 -0.419783,0.3614803 -0.607422,0.5644532 -0.02986,0.032021 -0.06068,0.06303 -0.08984,0.095703 -0.457517,0.5172888 -0.829449,1.1116662 -1.089844,1.765625 1.846254,0.8763402 3.283592,2.4434572 4.019531,4.3632812 0.344008,-0.08149 0.692941,-0.136719 1.044922,-0.136719 0.855336,0 1.709715,0.243764 2.451172,0.72461 C 19.973506,12.488694 20,12.248001 20,12 20,8.7183319 18.041258,5.9142825 15.226562,4.6777344 Z M 9,9 C 6.920529,9 5.0933101,10.046465 4.0175781,11.644531 4.0123781,11.76324 4,11.87997 4,12 c 0,4.432 3.568,8 8,8 0.119372,0 0.235451,-0.01245 0.353516,-0.01758 h 0.002 c 0.488328,-0.328717 0.924296,-0.728647 1.294922,-1.183594 -0.464227,-0.781436 -0.67047,-1.669836 -0.621094,-2.552734 -0.100444,-0.07885 -0.208588,-0.148249 -0.304688,-0.232422 -0.0031,-0.0027 -0.0066,-0.0051 -0.0098,-0.0078 -0.261357,-0.229614 -0.505115,-0.478562 -0.734375,-0.740234 -0.03115,-0.0355 -0.06127,-0.07137 -0.0918,-0.107422 -0.209976,-0.248385 -0.407211,-0.506126 -0.585938,-0.779297 -0.01292,-0.01971 -0.02632,-0.03876 -0.03906,-0.05859 -0.181167,-0.282328 -0.341251,-0.57938 -0.486328,-0.884765 -0.02795,-0.05873 -0.05353,-0.118215 -0.08008,-0.177735 -0.131227,-0.294674 -0.250319,-0.595729 -0.345703,-0.908203 -0.0065,-0.02114 -0.01519,-0.04128 -0.02148,-0.0625 -0.09544,-0.322294 -0.164079,-0.655937 -0.21875,-0.99414 -0.01282,-0.07917 -0.02467,-0.158327 -0.03516,-0.238281 C 10.030892,10.709012 10,10.358483 10,10 10,9.694348 10.01754,9.394017 10.05078,9.097656 9.7092773,9.037718 9.359197,9 9,9 Z m 3.369171,1.036083 C 12.367171,10.099353 12,9.936238 12,10 c 0,0.248781 0.01965,0.491853 0.04883,0.732422 0.0089,0.07358 0.02169,0.146032 0.0332,0.21875 0.02793,0.17572 0.0627,0.349374 0.105469,0.519531 0.01772,0.07068 0.0345,0.141289 0.05469,0.210938 0.0659,0.226739 0.141381,0.449467 0.232421,0.664062 0.0966,0.2277 0.209115,0.446117 0.332032,0.658203 0.01642,0.02842 0.03391,0.05587 0.05078,0.08399 0.115562,0.192026 0.241224,0.377564 0.376953,0.554687 0.01328,0.01738 0.02559,0.03551 0.03906,0.05273 0.125356,0.159929 0.263856,0.308901 0.404296,0.455079 0.180426,-0.294869 0.386146,-0.577552 0.640625,-0.832032 0.1063,-0.106299 0.227755,-0.185898 0.341797,-0.279297 -0.426214,-1.232473 -1.23325,-2.283925 -2.290982,-3.00298 -0.115564,-0.078561 0.355499,0.223582 0,0 z M 17.449219,13 c -0.910575,0.01345 -1.780052,0.381279 -2.423828,1.025391 -1.366482,1.366774 -1.366482,3.582444 0,4.949218 1.366774,1.366482 3.582444,1.366482 4.949218,0 1.366482,-1.366774 1.366482,-3.582444 0,-4.949218 C 19.305949,13.356396 18.394988,12.986516 17.449219,13 Z m 0.0918,1 c 0.64876,0.01083 1.267895,0.273476 1.726562,0.732422 0.775646,0.778728 0.945303,1.963188 0.445605,2.920116 -0.03952,0.07568 0.04793,-0.07252 0,0 l -0.313224,0.04039 -3.000027,-3.000025 -0.13762,-0.365599 c 0.04621,-0.03054 -0.04791,0.02729 0,0 C 16.650642,14.106122 17.09216,14 17.541016,14 Z m -2.285485,1.409452 0.34225,-0.10464 3.047318,3.047319 -0.009,0.375444 c -0.242765,0.141637 0.08271,-0.04223 0,0 -0.955101,0.487696 -2.130731,0.313347 -2.903722,-0.459997 -0.758981,-0.761997 -0.937733,-1.912477 -0.476888,-2.858126 0.04737,-0.0972 0.197361,0.411661 0.194307,0.350792 z"
     id="path5"
     sodipodi:nodetypes="sscsscccccccccscccccccscscscssccccccccccccccccscscsccccscccccscscccccccscsccccsssccccscssc" />
</svg>
