<?xml version="1.0" encoding="UTF-8" standalone="no"?>
<svg
   width="24"
   height="24"
   version="1.1"
   id="svg7"
   sodipodi:docname="cisco-tray-notconnected.svg"
   inkscape:version="1.1.2 (0a00cf5339, 2022-02-04)"
   xmlns:inkscape="http://www.inkscape.org/namespaces/inkscape"
   xmlns:sodipodi="http://sodipodi.sourceforge.net/DTD/sodipodi-0.dtd"
   xmlns="http://www.w3.org/2000/svg"
   xmlns:svg="http://www.w3.org/2000/svg">
  <sodipodi:namedview
     id="namedview9"
     pagecolor="#ffffff"
     bordercolor="#666666"
     borderopacity="1.0"
     inkscape:pageshadow="2"
     inkscape:pageopacity="0.0"
     inkscape:pagecheckerboard="0"
     showgrid="false"
     inkscape:zoom="89.449008"
     inkscape:cx="12.001251"
     inkscape:cy="16.473073"
     inkscape:window-width="1822"
     inkscape:window-height="928"
     inkscape:window-x="0"
     inkscape:window-y="35"
     inkscape:window-maximized="1"
     inkscape:current-layer="svg7" />
  <defs
     id="defs3">
    <style
       id="current-color-scheme"
       type="text/css">
   .ColorScheme-Text { color:#eeeeec; } .ColorScheme-Highlight { color:#367bf0; } .ColorScheme-NeutralText { color:#ffcc44; } .ColorScheme-PositiveText { color:#3db47e; } .ColorScheme-NegativeText { color:#dd4747; }
  </style>
  </defs>
  <path
     style="fill:currentColor"
     class="ColorScheme-Text"
     d="M 11.999999,4.0000001 C 9.2711058,3.9610159 6.8732145,5.3555198 5.4315049,7.4308157 c -0.1377691,0.1983143 0.1197722,-0.2109049 0,0 C 5.6421727,7.3111782 5.4721926,7.8147635 5.6942153,7.713971 6.7008171,7.2570002 7.8188058,7.0000001 8.999999,7.0000001 c 0.524759,0 1.037157,0.052885 1.533203,0.1484375 0.0018,-0.00466 0.0041,-0.00902 0.0059,-0.013672 0.109049,-0.2835808 0.233686,-0.5574434 0.373047,-0.8242187 0.0129,-0.024874 0.02592,-0.049498 0.03906,-0.074219 0.127806,-0.238484 0.267455,-0.4682357 0.417968,-0.6914062 0.02988,-0.044688 0.05714,-0.090725 0.08789,-0.1347657 0.151973,-0.215866 0.314283,-0.4236251 0.486327,-0.6230465 0.02804,-0.032693 0.05347,-0.067383 0.08203,-0.099609 0.104599,-0.1173906 0.21184,-0.2323068 0.322342,-0.3439633 0.105544,-0.1066464 -0.182558,-0.2368826 -0.07052,-0.3368972 -0.131638,-0.010905 0.132966,0.00604 0,0 -0.09189,-0.00417 -0.184246,-0.00531 -0.277207,-0.00664 z m 3.226562,0.6777344 c -0.289387,0.1504875 -0.560133,0.3292648 -0.818359,0.5234375 -0.06417,0.047973 -0.123414,0.1018974 -0.185547,0.1523437 -0.214183,0.1751328 -0.419783,0.3614804 -0.607422,0.5644532 -0.02986,0.032021 -0.06068,0.06303 -0.08984,0.095703 -0.457517,0.5172888 -0.829448,1.1116662 -1.089843,1.765625 2.700792,1.281954 4.564453,4.0218171 4.564453,7.2207031 0,0.30612 -0.02702,0.605553 -0.06055,0.902344 0.0032,5.59e-4 0.0066,-5.54e-4 0.0098,0 0.341459,0.06003 0.691543,0.09766 1.05075,0.09766 0.331389,0 0.654241,-0.03462 0.970703,-0.08594 0.650181,-1.156339 1.029297,-2.487053 1.029297,-3.91406 0,-3.2816682 -1.958743,-6.0857175 -4.773438,-7.3222656 z M 8.999999,8.9999999 c -2.079471,0 -3.90669,1.0464661 -4.982422,2.6445321 -0.0052,0.118709 -0.01758,0.235438 -0.01758,0.355468 0,4.432 3.568,8 8,8 0.119372,0 0.23545,-0.01245 0.353515,-0.01758 h 0.002 c 0.992801,-0.668301 1.77039,-1.627184 2.218751,-2.75586 -0.0013,-6.23e-4 -0.0026,-0.0013 -0.0039,-0.002 -0.324164,-0.153249 -0.633417,-0.329753 -0.931641,-0.523437 -0.03237,-0.021 -0.06366,-0.043 -0.0957,-0.06445 -0.285849,-0.191584 -0.560431,-0.397127 -0.818359,-0.623047 -0.0031,-0.0027 -0.0066,-0.0051 -0.0098,-0.0078 -0.261357,-0.229614 -0.505114,-0.478529 -0.734374,-0.740201 -0.03115,-0.0355 -0.06127,-0.07137 -0.0918,-0.107422 -0.209976,-0.248385 -0.407211,-0.506126 -0.585938,-0.779297 -0.01292,-0.01971 -0.02632,-0.03876 -0.03906,-0.05859 -0.181167,-0.28233 -0.341251,-0.57938 -0.486328,-0.884765 -0.02795,-0.05873 -0.05353,-0.118215 -0.08008,-0.177734 -0.131227,-0.294676 -0.250319,-0.595729 -0.345703,-0.908203 -0.0065,-0.02114 -0.01519,-0.04128 -0.02148,-0.0625 -0.09544,-0.322294 -0.164079,-0.655938 -0.21875,-0.994141 -0.01282,-0.07917 -0.02467,-0.158327 -0.03516,-0.238281 -0.04528,-0.345675 -0.07617,-0.696205 -0.07617,-1.054688 0,-0.3056521 0.01754,-0.6059831 0.05078,-0.9023441 -0.341504,-0.05994 -0.691584,-0.09766 -1.050781,-0.09766 z m 3.013672,0.8125 c -0.002,0.06327 -0.01367,0.123738 -0.01367,0.1875 0,0.2487811 0.01965,0.4918531 0.04883,0.7324221 0.0089,0.07358 0.02169,0.146032 0.0332,0.21875 0.02793,0.17572 0.0627,0.349375 0.105469,0.519532 0.01772,0.07068 0.0345,0.141288 0.05469,0.210937 0.0659,0.226739 0.141381,0.449468 0.232421,0.664063 0.0966,0.2277 0.209115,0.446117 0.332032,0.658203 0.01642,0.02842 0.03391,0.05587 0.05078,0.08398 0.115562,0.192026 0.241224,0.377564 0.376953,0.554687 0.01328,0.01738 0.02559,0.03551 0.03906,0.05273 0.306563,0.391104 0.659423,0.742731 1.052735,1.046875 0.01616,0.01252 0.03254,0.02475 0.04883,0.03711 0.143728,0.108815 0.292483,0.212078 0.445937,0.308243 0.05135,0.03218 0.103232,0.06357 0.155625,0.0941 0.0041,0.0024 0.01172,0.0078 0.01172,0.0078 0.002,-0.06364 0.01172,-0.125291 0.01172,-0.189441 0,-2.152856 -1.125115,-4.029022 -2.819347,-5.0869572 -0.05507,-0.034385 -0.180655,0.086965 -0.166981,-0.1005429 z m 4.453125,8.0312501 c -0.08058,0.291341 -0.226417,0.562163 -0.361669,0.830658 -0.04779,0.09487 0.238186,-0.01583 0.18584,0.07634 0.11424,-0.06488 -0.109746,0.07121 0,0 0.288549,-0.187236 0.562179,-0.395044 0.824116,-0.616419 0.06588,-0.05568 -0.06445,0.05728 0,0 -0.192319,-0.02033 -0.181374,-0.208152 0.0031,-0.18982 -0.06178,-0.0053 0.06125,0.0069 0,0 -0.220042,-0.02478 -0.436817,-0.05942 -0.651418,-0.10081 z"
     id="path5"
     sodipodi:nodetypes="sscssccccccccscsssccccccsccscsscscssccccccccccccccccccscsscsccccsccccccsccssccsscssccscs" />
</svg>
