<?xml version="1.0" encoding="UTF-8" standalone="no"?>
<svg
   width="24"
   height="24"
   version="1.1"
   id="svg42425"
   sodipodi:docname="com.leinardi.gwe-symbolic.svg"
   inkscape:version="1.1.2 (0a00cf5339, 2022-02-04)"
   xmlns:inkscape="http://www.inkscape.org/namespaces/inkscape"
   xmlns:sodipodi="http://sodipodi.sourceforge.net/DTD/sodipodi-0.dtd"
   xmlns="http://www.w3.org/2000/svg"
   xmlns:svg="http://www.w3.org/2000/svg">
  <sodipodi:namedview
     id="namedview42427"
     pagecolor="#000000"
     bordercolor="#666666"
     borderopacity="1.0"
     inkscape:pageshadow="2"
     inkscape:pageopacity="0"
     inkscape:pagecheckerboard="0"
     showgrid="false"
     inkscape:zoom="34.458333"
     inkscape:cx="12.01451"
     inkscape:cy="12"
     inkscape:window-width="1920"
     inkscape:window-height="1051"
     inkscape:window-x="0"
     inkscape:window-y="29"
     inkscape:window-maximized="1"
     inkscape:current-layer="svg42425" />
  <defs
     id="defs42421">
    <style
       id="current-color-scheme"
       type="text/css">
   .ColorScheme-Text { color:#eeeeec; } .ColorScheme-Highlight { color:#367bf0; } .ColorScheme-NeutralText { color:#ffcc44; } .ColorScheme-PositiveText { color:#3db47e; } .ColorScheme-NegativeText { color:#dd4747; }
  </style>
  </defs>
  <path
     style="fill:currentColor"
     class="ColorScheme-Text"
     d="M 8.8007813,4.999958 C 6.1415813,4.999958 4,7.1415393 4,9.800739 v 6.398438 c 0,1.046469 0.3324708,2.013433 0.8964844,2.800781 h 0.00781 4.1523439 c -1.668635,-1.269826 -2.1582008,-1.882813 -2.1582008,-1.882812 0,-2e-6 0.3764318,-0.195955 0.9453128,-0.458985 0.568879,-0.26303 1.238692,-0.254552 1.816406,-0.6875 0,0 1.5609167,1.802352 3.1132807,3.029297 H 15.375 c -0.487246,-0.321516 -0.968125,-0.653044 -1.433594,-1.005859 -2.664285,-2.024721 -4.1015617,-5.527344 -4.1015617,-5.527344 0,0 2.2782817,-2.744961 7.0019527,-3.900391 0.90343,-0.222218 1.93059,-0.351896 2.871094,-0.396484 5e-4,0.0016 0.0014,0.0043 0.002,0.0059 0.03854,0.107596 0.07252,0.217189 0.103515,0.328125 0.0037,0.01465 0.0081,0.02828 0.01172,0.04297 0.04453,0.165899 0.07902,0.335184 0.105469,0.507812 0.0015,0.01077 0.0044,0.02047 0.0059,0.03125 0.02643,0.180666 0.04458,0.365829 0.05078,0.552735 7.8e-5,0.0021 -2.4e-4,0.0038 0,0.0059 1.17e-4,0.0037 -1.13e-4,0.0081 0,0.01172 -0.859064,0.20753 -2.128726,0.526632 -3.164063,0.949219 -1.913937,0.781614 -3.794922,2.673828 -3.794922,2.673828 0,0 -1.67e-4,0.793765 1.8125,3.09375 0.965395,1.225075 2.031167,2.075869 2.84375,2.626953 h 1.408203 0.0039 C 19.666989,18.212504 20,17.24674 20,16.199177 v -3.652344 c -0.884461,0.528724 -1.733676,1.214664 -2.359375,2.029297 0.03487,0.63338 0.272559,1.963572 0.419196,2.740521 0.06768,0.358585 0,0 0,0 -0.170193,-0.171377 -0.213847,0.257782 -0.363436,0.08992 -1.56788,-1.759418 -2.034276,-3.265987 -2.034276,-3.265987 0,0 1.176821,-1.90284 4.042969,-3.205078 C 19.782388,10.900363 19.90266,10.866526 20,10.833942 V 9.800739 C 20,7.1415393 17.858419,4.999958 15.199219,4.999958 Z"
     id="path42423"
     sodipodi:nodetypes="sssccccscccccccccccccccccccccsccscscccsss" />
</svg>
