<?xml version="1.0" encoding="UTF-8" standalone="no"?>
<svg
   width="24"
   height="24"
   x="0"
   y="0"
   version="1.1"
   xml:space="preserve"
   id="svg9"
   sodipodi:docname="copy-sync6.svg"
   inkscape:version="1.1.2 (0a00cf5339, 2022-02-04)"
   xmlns:inkscape="http://www.inkscape.org/namespaces/inkscape"
   xmlns:sodipodi="http://sodipodi.sourceforge.net/DTD/sodipodi-0.dtd"
   xmlns="http://www.w3.org/2000/svg"
   xmlns:svg="http://www.w3.org/2000/svg"><sodipodi:namedview
   id="namedview11"
   pagecolor="#ffffff"
   bordercolor="#666666"
   borderopacity="1.0"
   inkscape:pageshadow="2"
   inkscape:pageopacity="0.0"
   inkscape:pagecheckerboard="0"
   showgrid="false"
   inkscape:zoom="31.625"
   inkscape:cx="12"
   inkscape:cy="12"
   inkscape:window-width="1822"
   inkscape:window-height="928"
   inkscape:window-x="0"
   inkscape:window-y="35"
   inkscape:window-maximized="1"
   inkscape:current-layer="svg9" />
 <defs
   id="defs3">
  <style
   id="current-color-scheme"
   type="text/css">
   .ColorScheme-Text { color:#eeeeec; } .ColorScheme-Highlight { color:#367bf0; } .ColorScheme-NeutralText { color:#ffcc44; } .ColorScheme-PositiveText { color:#3db47e; } .ColorScheme-NegativeText { color:#dd4747; }
  </style>
 </defs>
 <path
   style="fill:currentColor"
   class="ColorScheme-Text"
   d="M 20.635,3.0253 15.018,9.8437 17,10.9999 21,3.3515 Z M 5.6740239,7.7851291 v 0 l -3.0220795,2.6443199 0.199879,0.448762 c 0.3112852,-0.04056 0.06285,0.04056 0,0 l 3.1034123,-0.443345 v 0 L 6.4531143,10.837809 7.3242,15.9999 h 3.3867 L 7.5,7.9999 6.4976455,7.6657818 Z M 13,10.0292 10.356727,10.884475 10.145567,11.4366 v 0 l 0.686137,2.058413 0.577924,0.197666 v 0 l 3.085879,-2.314409 0.02041,-0.61332 v 0 z m 3.557762,1.961134 -1.052419,0.03264 L 10.8555,15.9999 h 7.901471 v 0 L 18.990293,15.477698 18,12.9999 Z M 4.836,16.9999 c -0.4633,0 -0.8359,0.373 -0.8359,0.836 V 19.164 C 4.0001,19.627 4.3727,20 4.836,20 H 16 V 17 H 4.836 Z"
   id="path5"
   sodipodi:nodetypes="cccccccccccccccccccccccccccccccccccccccssscccc" />
 <path
   style="opacity:0.4;fill:currentColor"
   class="ColorScheme-Text"
   d="m 4.8359,16.9999 c -0.2317,0 -0.4406,0.093 -0.5918,0.244 0.1511,-0.151 0.3602,-0.244 0.5918,-0.244 z m 11.16405,0 0,3 3.16405,0 c 0.463,0 0.836,-0.375 0.836,-0.838 l 0,-1.3262 c 0,-0.463 -0.373,-0.836 -0.836,-0.836 l -3.16395,0 z"
   id="path7" />
</svg>
