<?xml version="1.0" encoding="UTF-8" standalone="no"?>
<svg
   width="24"
   height="24"
   version="1.1"
   id="svg34407"
   sodipodi:docname="copyq-normal.svg"
   inkscape:version="1.1.2 (0a00cf5339, 2022-02-04)"
   xmlns:inkscape="http://www.inkscape.org/namespaces/inkscape"
   xmlns:sodipodi="http://sodipodi.sourceforge.net/DTD/sodipodi-0.dtd"
   xmlns="http://www.w3.org/2000/svg"
   xmlns:svg="http://www.w3.org/2000/svg">
  <sodipodi:namedview
     id="namedview34409"
     pagecolor="#000000"
     bordercolor="#666666"
     borderopacity="1.0"
     inkscape:pageshadow="2"
     inkscape:pageopacity="0"
     inkscape:pagecheckerboard="0"
     showgrid="false"
     inkscape:zoom="34.458333"
     inkscape:cx="12"
     inkscape:cy="12"
     inkscape:window-width="1822"
     inkscape:window-height="928"
     inkscape:window-x="0"
     inkscape:window-y="35"
     inkscape:window-maximized="1"
     inkscape:current-layer="svg34407" />
  <defs
     id="defs34403">
    <style
       id="current-color-scheme"
       type="text/css">
   .ColorScheme-Text { color:#eeeeec; } .ColorScheme-Highlight { color:#367bf0; } .ColorScheme-NeutralText { color:#ffcc44; } .ColorScheme-PositiveText { color:#3db47e; } .ColorScheme-NegativeText { color:#dd4747; }
  </style>
  </defs>
  <path
     style="fill:currentColor"
     class="ColorScheme-Text"
     d="M 7.5,5 C 5.5670034,5 4,6.5670034 4,8.5 4,10.432997 5.5670034,12 7.5,12 8.0103733,11.999 8.5143477,11.886344 8.9766,11.67 L 10.5,13.5 5.6867902,19.188339 5.8307416,19.406613 v 0 L 12,15 l 6.142669,4.387621 v 0 L 18.266073,19.132631 13.5,13.5 15.0234,11.668 c 0.462218,0.217091 0.966342,0.330408 1.477,0.332 1.932997,0 3.5,-1.567003 3.5,-3.5 -6.36e-4,-0.00847 -0.0013,-0.016936 -0.002,-0.0254 7.7e-5,-0.01965 -0.0017,-0.038945 -0.002,-0.058594 -0.0044,-0.157735 -0.01941,-0.3149938 -0.045,-0.4707 -0.018,-0.1195 -0.046,-0.2361 -0.076,-0.3535 -0.01758,-0.06895 -0.03725,-0.137349 -0.059,-0.2051 -0.063,-0.1946 -0.146,-0.3814 -0.244,-0.5644 -0.154,-0.2881 -0.335,-0.5652 -0.576,-0.8086 -0.536,-0.5408 -1.205,-0.8547 -1.9,-0.9629 -0.0091,-0.00134 -0.01822,-0.00264 -0.02734,-0.00391 -0.15253,-0.02448 -0.306513,-0.038834 -0.46094,-0.042969 -0.012,-10e-5 -0.024,-0.0039 -0.036,-0.0039 -0.0059,0 -0.01169,0.00192 -0.01758,0.00195 -0.01799,-8.056e-4 -0.03599,-0.00147 -0.054,-0.002 -1.932997,0 -3.5,1.5670034 -3.5,3.5 0.0013,0.5507807 0.132478,1.0934906 0.383,1.584 l -1.216178,1.684886 -0.357147,-0.03239 v 0 L 10.61954,10.087977 c 0.250442,-0.491885 0.380995,-1.0360291 0.381,-1.588 0,-1.9329966 -1.5670034,-3.5 -3.5,-3.5 z m 0,2 C 8.3284271,7 9,7.6715729 9,8.5 9,9.3284271 8.3284271,10 7.5,10 6.6715729,10 6,9.3284271 6,8.5 6,7.6715729 6.6715729,7 7.5,7 Z m 9,0 C 17.328427,7 18,7.6715729 18,8.5 18,9.3284271 17.328427,10 16.5,10 15.671573,10 15,9.3284271 15,8.5 15,7.6715729 15.671573,7 16.5,7 Z"
     id="path34405"
     sodipodi:nodetypes="csccccccccccccccccccccccccscccccccccccssssssssss" />
</svg>
