<?xml version="1.0" encoding="UTF-8" standalone="no"?>
<svg
   width="24"
   height="24"
   x="0"
   y="0"
   version="1.1"
   xml:space="preserve"
   id="svg9"
   sodipodi:docname="copy-sync1.svg"
   inkscape:version="1.1.2 (0a00cf5339, 2022-02-04)"
   xmlns:inkscape="http://www.inkscape.org/namespaces/inkscape"
   xmlns:sodipodi="http://sodipodi.sourceforge.net/DTD/sodipodi-0.dtd"
   xmlns="http://www.w3.org/2000/svg"
   xmlns:svg="http://www.w3.org/2000/svg"><sodipodi:namedview
   id="namedview11"
   pagecolor="#ffffff"
   bordercolor="#666666"
   borderopacity="1.0"
   inkscape:pageshadow="2"
   inkscape:pageopacity="0.0"
   inkscape:pagecheckerboard="0"
   showgrid="false"
   inkscape:zoom="31.625"
   inkscape:cx="12"
   inkscape:cy="12"
   inkscape:window-width="1822"
   inkscape:window-height="928"
   inkscape:window-x="0"
   inkscape:window-y="35"
   inkscape:window-maximized="1"
   inkscape:current-layer="svg9" />
 <defs
   id="defs3">
  <style
   id="current-color-scheme"
   type="text/css">
   .ColorScheme-Text { color:#eeeeec; } .ColorScheme-Highlight { color:#367bf0; } .ColorScheme-NeutralText { color:#ffcc44; } .ColorScheme-PositiveText { color:#3db47e; } .ColorScheme-NegativeText { color:#dd4747; }
  </style>
 </defs>
 <path
   style="fill:currentColor"
   class="ColorScheme-Text"
   d="M 20.635,3.0253 15.018,9.8437 17,10.9999 21,3.3515 Z M 6,7.4999 2.5176592,10.546948 2.6788494,10.902922 v 0 L 6.0791069,10.41717 v 0 L 6.4505237,10.822457 7.3242,15.9999 h 3.3867 l -3.2109,-8 z m 7,2.5293 -3,0.9707 0.856951,2.570854 0.461103,0.190605 v 0 l 3.349553,-2.512164 v 0 l -0.07443,-0.446746 z m 3.398581,1.849707 -0.708007,-0.01436 L 10.8555,15.9999 h 7.933288 v 0 0 L 19.055608,15.641122 18,12.9999 Z M 4.836,16.9999 c -0.4633,0 -0.8359,0.373 -0.8359,0.836 V 19.164 C 4.0001,19.627 4.3727,20 4.836,20 H 6 V 17 H 4.836 Z"
   id="path5"
   sodipodi:nodetypes="ccccccccccccccccccccccccccccccccccccssscccc" />
 <path
   style="opacity:0.4;fill:currentColor"
   class="ColorScheme-Text"
   d="m 4.8359,16.9999 c -0.2317,0 -0.4406,0.093 -0.5918,0.244 0.1511,-0.151 0.3602,-0.244 0.5918,-0.244 z m 1.16405,0 0,3 13.16405,0 c 0.463,0 0.836,-0.375 0.836,-0.838 l 0,-1.3262 c 0,-0.463 -0.373,-0.836 -0.836,-0.836 l -13.16395,0 z"
   id="path7" />
</svg>
