<?xml version="1.0" encoding="UTF-8" standalone="no"?>
<svg
   width="24"
   height="24"
   x="0"
   y="0"
   version="1.1"
   xml:space="preserve"
   id="svg9"
   sodipodi:docname="copy-paused.svg"
   inkscape:version="1.1.2 (0a00cf5339, 2022-02-04)"
   xmlns:inkscape="http://www.inkscape.org/namespaces/inkscape"
   xmlns:sodipodi="http://sodipodi.sourceforge.net/DTD/sodipodi-0.dtd"
   xmlns="http://www.w3.org/2000/svg"
   xmlns:svg="http://www.w3.org/2000/svg"><sodipodi:namedview
   id="namedview11"
   pagecolor="#000000"
   bordercolor="#666666"
   borderopacity="1.0"
   inkscape:pageshadow="2"
   inkscape:pageopacity="0"
   inkscape:pagecheckerboard="0"
   showgrid="false"
   inkscape:zoom="31.625"
   inkscape:cx="12"
   inkscape:cy="12"
   inkscape:window-width="1822"
   inkscape:window-height="928"
   inkscape:window-x="0"
   inkscape:window-y="35"
   inkscape:window-maximized="1"
   inkscape:current-layer="svg9" />
 <defs
   id="defs3">
  <style
   id="current-color-scheme"
   type="text/css">
   .ColorScheme-Text { color:#eeeeec; } .ColorScheme-Highlight { color:#367bf0; } .ColorScheme-NeutralText { color:#ffcc44; } .ColorScheme-PositiveText { color:#3db47e; } .ColorScheme-NegativeText { color:#dd4747; }
  </style>
 </defs>
 <path
   opacity="0.35"
   style="fill:currentColor"
   class="ColorScheme-Text"
   d="M 20.635,3.0254 15.018,9.8438 17,11 21,3.3516 Z M 6,7.5 2.4593271,10.598089 v 0 L 2.6397245,10.908611 6.375,10.375 l 1.555367,9.212558 0.4193197,0.175298 v 0 L 11.393,17.699 12,17.877 V 15.532576 L 11.652783,15.31802 v 0 l -0.58355,0.499187 v 0 L 10.575744,15.662844 7.5,8 Z m 7,2.529 -3,0.971 0.897991,2.693973 0.405103,0.07871 v 0 L 12,13.25 V 13 h 0.334 l 2.318654,-1.739426 -0.02198,-0.439881 v 0 z m 3.317743,1.79342 -0.557058,-0.01775 -1.113119,0.951965 v 0 L 14.867763,13 h 2.593395 v 0 l -0.04408,-0.408045 z"
   id="path5"
   sodipodi:nodetypes="ccccccccccccccccccccccccccccccccccccccccccccc" />
 <path
   fill-rule="evenodd"
   style="fill:currentColor"
   class="ColorScheme-Text"
   d="m13 14v6h3v-6h-3zm4 0v6h3v-6h-3z"
   clip-rule="evenodd"
   id="path7" />
</svg>
