<?xml version="1.0" encoding="UTF-8" standalone="no"?>
<svg
   width="24"
   height="24"
   x="0"
   y="0"
   version="1.1"
   xml:space="preserve"
   id="svg7"
   sodipodi:docname="copy-sync8.svg"
   inkscape:version="1.1.2 (0a00cf5339, 2022-02-04)"
   xmlns:inkscape="http://www.inkscape.org/namespaces/inkscape"
   xmlns:sodipodi="http://sodipodi.sourceforge.net/DTD/sodipodi-0.dtd"
   xmlns="http://www.w3.org/2000/svg"
   xmlns:svg="http://www.w3.org/2000/svg"><sodipodi:namedview
   id="namedview9"
   pagecolor="#ffffff"
   bordercolor="#666666"
   borderopacity="1.0"
   inkscape:pageshadow="2"
   inkscape:pageopacity="0.0"
   inkscape:pagecheckerboard="0"
   showgrid="false"
   inkscape:zoom="31.625"
   inkscape:cx="12"
   inkscape:cy="12"
   inkscape:window-width="1822"
   inkscape:window-height="928"
   inkscape:window-x="0"
   inkscape:window-y="35"
   inkscape:window-maximized="1"
   inkscape:current-layer="svg7" />
 <defs
   id="defs3">
  <style
   id="current-color-scheme"
   type="text/css">
   .ColorScheme-Text { color:#eeeeec; } .ColorScheme-Highlight { color:#367bf0; } .ColorScheme-NeutralText { color:#ffcc44; } .ColorScheme-PositiveText { color:#3db47e; } .ColorScheme-NegativeText { color:#dd4747; }
  </style>
 </defs>
 <path
   style="fill:currentColor"
   class="ColorScheme-Text"
   d="M 20.634766,3.0253906 15.017578,9.84375 17,11 21,3.3515625 Z M 6,7.5 l -3.5023395,3.064547 0.142064,0.344064 v 0 L 6.0523828,10.421088 6.401244,10.53052 v 0 L 7.2713697,15.68682 7.7540491,16 v 0 H 10.710938 L 7.5,8 Z m 7,2.529297 -2.72886,0.882971 v 0 l -0.1541,0.438853 0.774675,2.324024 0.477231,0.04814 v 0 l 3.303835,-2.477876 v 0 l 0.02266,-0.393233 z m 2.690441,1.835094 v 0 L 10.855469,16 h 8.34375 L 18,13 16.419443,11.893301 Z M 4.8359375,17 C 4.3726375,17 4,17.372938 4,17.835938 v 1.328124 C 4,19.627063 4.3726375,20 4.8359375,20 H 18 19.164062 C 19.627063,20 20,19.625109 20,19.162109 V 17.835938 C 20,17.372937 19.627062,17 19.164062,17 H 18 Z"
   id="path5"
   sodipodi:nodetypes="ccccccccccccccccccccccccccccccccccccsssscsssscs" />
</svg>
