<?xml version="1.0" encoding="UTF-8" standalone="no"?>
<svg
   width="24"
   height="24"
   x="0"
   y="0"
   version="1.1"
   xml:space="preserve"
   id="svg9"
   sodipodi:docname="copy-sync5.svg"
   inkscape:version="1.1.2 (0a00cf5339, 2022-02-04)"
   xmlns:inkscape="http://www.inkscape.org/namespaces/inkscape"
   xmlns:sodipodi="http://sodipodi.sourceforge.net/DTD/sodipodi-0.dtd"
   xmlns="http://www.w3.org/2000/svg"
   xmlns:svg="http://www.w3.org/2000/svg"><sodipodi:namedview
   id="namedview11"
   pagecolor="#ffffff"
   bordercolor="#666666"
   borderopacity="1.0"
   inkscape:pageshadow="2"
   inkscape:pageopacity="0.0"
   inkscape:pagecheckerboard="0"
   showgrid="false"
   inkscape:zoom="31.625"
   inkscape:cx="12"
   inkscape:cy="12"
   inkscape:window-width="1822"
   inkscape:window-height="928"
   inkscape:window-x="0"
   inkscape:window-y="35"
   inkscape:window-maximized="1"
   inkscape:current-layer="svg9" />
 <defs
   id="defs3">
  <style
   id="current-color-scheme"
   type="text/css">
   .ColorScheme-Text { color:#eeeeec; } .ColorScheme-Highlight { color:#367bf0; } .ColorScheme-NeutralText { color:#ffcc44; } .ColorScheme-PositiveText { color:#3db47e; } .ColorScheme-NegativeText { color:#dd4747; }
  </style>
 </defs>
 <path
   style="fill:currentColor"
   class="ColorScheme-Text"
   d="M 20.635,3.0253 15.018,9.8437 17,10.9999 21,3.3515 Z M 6.3838862,7.6278621 5.6227468,7.8299966 2.6831737,10.402123 2.9801393,10.85988 v 0 l 2.9127286,-0.416104 v 0 l 0.5386605,0.266113 0.8303823,4.920882 0.5230757,0.369129 v 0 H 10.7109 L 7.5,7.9999 Z M 13,10.0292 10.348475,10.887145 v 0 l -0.250387,0.40702 0.777934,2.333801 0.533606,0.06471 v 0 l 3.07027,-2.302703 0.03602,-0.625026 v 0 z m 3,1.5707 -5.1445,4.4 h 7.870534 v 0 L 18.988086,15.472174 18,12.9999 Z m -11.164,5.4 c -0.4633,0 -0.8359,0.373 -0.8359,0.836 V 19.164 C 4.0001,19.627 4.3727,20 4.836,20 H 14 V 17 H 4.836 Z"
   id="path5"
   sodipodi:nodetypes="cccccccccccccccccccccccccccccccccccccccssscccc" />
 <path
   style="opacity:0.4;fill:currentColor"
   class="ColorScheme-Text"
   d="m 4.8359,16.9999 c -0.2317,0 -0.4406,0.093 -0.5918,0.244 0.1511,-0.151 0.3602,-0.244 0.5918,-0.244 z m 9.16405,0 0,3 5.16405,0 c 0.463,0 0.836,-0.375 0.836,-0.838 l 0,-1.3262 c 0,-0.463 -0.373,-0.836 -0.836,-0.836 l -5.16395,0 z"
   id="path7" />
</svg>
