<?xml version="1.0" encoding="UTF-8" standalone="no"?>
<svg
   width="24"
   height="24"
   x="0"
   y="0"
   version="1.1"
   xml:space="preserve"
   id="svg9"
   sodipodi:docname="copy-sync4.svg"
   inkscape:version="1.1.2 (0a00cf5339, 2022-02-04)"
   xmlns:inkscape="http://www.inkscape.org/namespaces/inkscape"
   xmlns:sodipodi="http://sodipodi.sourceforge.net/DTD/sodipodi-0.dtd"
   xmlns="http://www.w3.org/2000/svg"
   xmlns:svg="http://www.w3.org/2000/svg"><sodipodi:namedview
   id="namedview11"
   pagecolor="#ffffff"
   bordercolor="#666666"
   borderopacity="1.0"
   inkscape:pageshadow="2"
   inkscape:pageopacity="0.0"
   inkscape:pagecheckerboard="0"
   showgrid="false"
   inkscape:zoom="31.625"
   inkscape:cx="12"
   inkscape:cy="12"
   inkscape:window-width="1822"
   inkscape:window-height="928"
   inkscape:window-x="0"
   inkscape:window-y="35"
   inkscape:window-maximized="1"
   inkscape:current-layer="svg9" />
 <defs
   id="defs3">
  <style
   id="current-color-scheme"
   type="text/css">
   .ColorScheme-Text { color:#eeeeec; } .ColorScheme-Highlight { color:#367bf0; } .ColorScheme-NeutralText { color:#ffcc44; } .ColorScheme-PositiveText { color:#3db47e; } .ColorScheme-NegativeText { color:#dd4747; }
  </style>
 </defs>
 <path
   style="fill:currentColor"
   class="ColorScheme-Text"
   d="M 20.635,3.0253 15.018,9.8437 17,10.9999 21,3.3515 Z M 6.4022055,7.6339685 5.7255646,7.740031 2.6831737,10.402123 2.847446,10.878836 v 0 l 3.0365997,-0.4338 0.5518106,0.290501 v 0 L 7.3242,15.9999 h 3.3867 L 7.5,7.9999 Z M 13,10.0292 l -2.699835,0.873577 -0.20842,0.37236 v 0 l 0.736777,2.21033 0.616146,0.180932 v 0 l 3.066078,-2.299559 -0.03287,-0.620351 v 0 z m 2.599198,1.913499 v 0 L 10.8555,15.9999 h 7.806891 v 0 L 18.992468,15.483141 18,12.9999 16.383666,11.868466 Z M 4.836,16.9999 c -0.4633,0 -0.8359,0.373 -0.8359,0.836 V 19.164 C 4.0001,19.627 4.3727,20 4.836,20 H 12 V 17 H 4.836 Z"
   id="path5"
   sodipodi:nodetypes="cccccccccccscccccccccccccccccccccccccccssscccc" />
 <path
   style="opacity:0.4;fill:currentColor"
   class="ColorScheme-Text"
   d="m 4.8359,16.9999 c -0.2317,0 -0.4406,0.093 -0.5918,0.244 0.1511,-0.151 0.3602,-0.244 0.5918,-0.244 z m 7.16405,0 0,3 7.16405,0 c 0.463,0 0.836,-0.375 0.836,-0.838 l 0,-1.3262 c 0,-0.463 -0.373,-0.836 -0.836,-0.836 l -7.16395,0 z"
   id="path7" />
</svg>
