<?xml version="1.0" encoding="UTF-8" standalone="no"?>
<svg
   width="24"
   height="24"
   version="1.1"
   id="svg93481"
   sodipodi:docname="deluge-panel.svg"
   inkscape:version="1.1.2 (0a00cf5339, 2022-02-04)"
   xmlns:inkscape="http://www.inkscape.org/namespaces/inkscape"
   xmlns:sodipodi="http://sodipodi.sourceforge.net/DTD/sodipodi-0.dtd"
   xmlns="http://www.w3.org/2000/svg"
   xmlns:svg="http://www.w3.org/2000/svg">
  <sodipodi:namedview
     id="namedview93483"
     pagecolor="#000000"
     bordercolor="#666666"
     borderopacity="1.0"
     inkscape:pageshadow="2"
     inkscape:pageopacity="0"
     inkscape:pagecheckerboard="0"
     showgrid="false"
     inkscape:zoom="34.458333"
     inkscape:cx="12.01451"
     inkscape:cy="12"
     inkscape:window-width="1920"
     inkscape:window-height="1051"
     inkscape:window-x="0"
     inkscape:window-y="29"
     inkscape:window-maximized="1"
     inkscape:current-layer="svg93481" />
  <defs
     id="defs93477">
    <style
       id="current-color-scheme"
       type="text/css">
   .ColorScheme-Text { color:#eeeeec; } .ColorScheme-Highlight { color:#367bf0; } .ColorScheme-NeutralText { color:#ffcc44; } .ColorScheme-PositiveText { color:#3db47e; } .ColorScheme-NegativeText { color:#dd4747; }
  </style>
  </defs>
  <path
     style="fill:currentColor"
     class="ColorScheme-Text"
     d="m 12.016,4 c -0.142,5e-4 -0.29,0.1324 -0.498,0.4004 L 7.1799,10.721 C 5.6876,12.894 5.7036,15.242 6.7093,17.016 7.7148,18.789 9.6947,20 12.002,20 c 2.307,0 4.284,-1.211 5.289,-2.984 1.005,-1.774 1.02,-4.122 -0.471,-6.297 L 12.48,4.3887 C 12.293,4.1312 12.157,3.9995 12.016,4 Z m 0.166553,1.9864878 v 0 L 15.666,11.324 c 0.891,1.382 1.063,2.69 -0.42,3.867 -0.177,0.151 -0.4,0.293 -0.644,0.422 -0.557,0.247 -1.144,0.507 -1.799,0.582 -0.266,0.046 -0.547,0.074 -0.858,0.061 -0.033,-0.004 -0.067,-0.006 -0.101,-0.006 h -0.006 c -0.993,0 -1.813,-0.826 -1.813,-1.916 10e-4,-0.968 0.666,-1.751 1.537,-1.893 0.167,-0.032 0.34,-0.064 0.522,-0.103 0.733,-0.241 1.05,-1.27 0.355,-1.764 -0.493,-0.35 -1.068,-0.543 -1.644,-0.57 -0.546535,-0.025474 -1.0854422,0.103388 -1.5773005,0.356688 -0.1453119,0.07483 0.1360823,-0.09578 0,0 L 9.1457924,10.081044 11.848686,5.9502631 Z"
     id="path93479"
     sodipodi:nodetypes="ccccscccccccccccsscccccscccc" />
</svg>
