<?xml version="1.0" encoding="UTF-8" standalone="no"?>
<svg
   width="24"
   height="24"
   version="1.1"
   id="svg7"
   sodipodi:docname="discord-tray-speaking.svg"
   inkscape:version="1.1.2 (0a00cf5339, 2022-02-04)"
   xmlns:inkscape="http://www.inkscape.org/namespaces/inkscape"
   xmlns:sodipodi="http://sodipodi.sourceforge.net/DTD/sodipodi-0.dtd"
   xmlns="http://www.w3.org/2000/svg"
   xmlns:svg="http://www.w3.org/2000/svg">
  <sodipodi:namedview
     id="namedview9"
     pagecolor="#ffffff"
     bordercolor="#666666"
     borderopacity="1.0"
     inkscape:pageshadow="2"
     inkscape:pageopacity="0.0"
     inkscape:pagecheckerboard="0"
     showgrid="false"
     inkscape:zoom="31.5"
     inkscape:cx="12"
     inkscape:cy="12"
     inkscape:window-width="1880"
     inkscape:window-height="966"
     inkscape:window-x="0"
     inkscape:window-y="29"
     inkscape:window-maximized="1"
     inkscape:current-layer="svg7" />
  <defs
     id="defs3">
    <style
       id="current-color-scheme"
       type="text/css">
   .ColorScheme-Text { color:#eeeeec; } .ColorScheme-Highlight { color:#367bf0; } .ColorScheme-NeutralText { color:#ffcc44; } .ColorScheme-PositiveText { color:#3db47e; } .ColorScheme-NegativeText { color:#dd4747; }
  </style>
  </defs>
  <path
     style="fill:currentColor"
     class="ColorScheme-PositiveText"
     d="m 10,5 c -3.15,0.78 -5.5,3.6 -5.5,7 0,3.4 2.35,6.22 5.5,7 V 17.5 C 7.68,16.76 6,14.57 6,12 6,9.43 7.68,7.24 10,6.5 Z m 2,0.594806 v 0 12.729484 l 0.43651,0.2392 v 0 L 16,15 h 2.70488 L 19,14.737421 v 0 -5.4285027 0 L 18.70488,9 H 16 L 12.475375,5.4753747 Z M 10,9.3407283 C 9.9019864,9.3938571 9.8069175,9.1107888 9.7150761,9.172703 8.8042991,9.7866977 8.2109375,10.819082 8.2109375,12 c 0,1.173617 0.5941973,2.200531 1.489659,2.815861 0.09643,0.06626 -0.1030509,-0.05639 0,0 L 10,14.610179 Z"
     id="path5"
     sodipodi:nodetypes="csccsccccccccccccccccccssscccc" />
</svg>
