<?xml version="1.0" encoding="UTF-8" standalone="no"?>
<svg
   width="24"
   height="24"
   version="1.1"
   id="svg123576"
   sodipodi:docname="drive-removable-media-usb-panel.svg"
   inkscape:version="1.1.2 (0a00cf5339, 2022-02-04)"
   xmlns:inkscape="http://www.inkscape.org/namespaces/inkscape"
   xmlns:sodipodi="http://sodipodi.sourceforge.net/DTD/sodipodi-0.dtd"
   xmlns="http://www.w3.org/2000/svg"
   xmlns:svg="http://www.w3.org/2000/svg">
  <sodipodi:namedview
     id="namedview123578"
     pagecolor="#000000"
     bordercolor="#666666"
     borderopacity="1.0"
     inkscape:pageshadow="2"
     inkscape:pageopacity="0"
     inkscape:pagecheckerboard="0"
     showgrid="false"
     inkscape:zoom="34.458333"
     inkscape:cx="12.01451"
     inkscape:cy="12"
     inkscape:window-width="1920"
     inkscape:window-height="1051"
     inkscape:window-x="0"
     inkscape:window-y="29"
     inkscape:window-maximized="1"
     inkscape:current-layer="svg123576" />
  <defs
     id="defs123572">
    <style
       id="current-color-scheme"
       type="text/css">
   .ColorScheme-Text { color:#eeeeec; } .ColorScheme-Highlight { color:#367bf0; } .ColorScheme-NeutralText { color:#ffcc44; } .ColorScheme-PositiveText { color:#3db47e; } .ColorScheme-NegativeText { color:#dd4747; }
  </style>
  </defs>
  <path
     style="fill:currentColor"
     class="ColorScheme-Text"
     d="m 11.800087,4.3198613 v 0 L 9.6834881,7.7064191 9.8184349,8 V 8 H 11 v 5 H 8 V 11.728516 C 8.61771,11.371886 8.99874,10.7133 9,10 9,8.8954 8.10457,8 7,8 5.89543,8 5,8.89543 5,10 c 5.6e-4,0.71397 0.38169,1.373469 1,1.730469 V 13 c 0,2 2,2 2,2 h 3 v 1.271484 C 10.38229,16.628114 10.00126,17.2867 10,18 c 0,1.1046 0.89543,2 2,2 1.10457,0 2,-0.89543 2,-2 -5.6e-4,-0.71397 -0.38169,-1.373469 -1,-1.730469 V 15 h 3 c 0,0 2,0 2,-2 v -1 c 0,0 1.125,-0.1875 1,-1 V 9 C 19.125,7.875 18,8 18,8 h -2 c -1.0625,0 -1,1 -1,1 v 2 c 0,1 1,1 1,1 v 1 H 13 V 8 h 1.15512 l 0.174275,-0.2729686 v 0 L 12.236142,4.3778269 Z"
     id="path123574"
     sodipodi:nodetypes="ccccccccccsccsccccsccccsccccscsccccccccc" />
</svg>
