<?xml version="1.0" encoding="UTF-8" standalone="no"?>
<svg
   width="24"
   height="24"
   version="1"
   id="svg11"
   sodipodi:docname="firewall-applet-error.svg"
   inkscape:version="1.1.2 (0a00cf5339, 2022-02-04)"
   xmlns:inkscape="http://www.inkscape.org/namespaces/inkscape"
   xmlns:sodipodi="http://sodipodi.sourceforge.net/DTD/sodipodi-0.dtd"
   xmlns="http://www.w3.org/2000/svg"
   xmlns:svg="http://www.w3.org/2000/svg">
  <sodipodi:namedview
     id="namedview13"
     pagecolor="#000000"
     bordercolor="#666666"
     borderopacity="1.0"
     inkscape:pageshadow="2"
     inkscape:pageopacity="0"
     inkscape:pagecheckerboard="0"
     showgrid="false"
     inkscape:zoom="31.5"
     inkscape:cx="12"
     inkscape:cy="12"
     inkscape:window-width="1880"
     inkscape:window-height="966"
     inkscape:window-x="0"
     inkscape:window-y="29"
     inkscape:window-maximized="1"
     inkscape:current-layer="svg11" />
  <defs
     id="defs3">
    <style
       id="current-color-scheme"
       type="text/css">
   .ColorScheme-Text { color:#eeeeec; } .ColorScheme-Highlight { color:#367bf0; } .ColorScheme-NeutralText { color:#ffcc44; } .ColorScheme-PositiveText { color:#3db47e; } .ColorScheme-NegativeText { color:#dd4747; }
  </style>
  </defs>
  <g
     transform="matrix(.046206 0 0 .045375 3.8524 3.9993)"
     id="g7">
    <path
       style="fill:currentColor"
       class="ColorScheme-Text"
       d="M 7.9238,0.013672 7.6627726,0.0902624 1.1543,1.999972 C 1.0619,2.031972 1,2.474072 1,2.570272 c 0,2.372 0.6393,5.1146 1.7539,7.5237 0.9041,1.954 2.53,4.56 5.1406,5.881 0.0333,0.016 0.0692,0.025 0.1055,0.025 0.0363,0 0.0722,-0.009 0.1055,-0.025 2.6105,-1.321 4.2365,-3.927 5.1405,-5.881 1.115,-2.4093 1.754,-5.152 1.754,-7.5237 0,-0.0962 -0.062,-0.5383 -0.154,-0.5703 L 8.5244618,0.14519471 7.92386,0.013672 c 0,0 0.04971,-0.017242 0,0 z m 0.03125,2.9941 c 0.02841,-0.0097 0.059481,-0.0097 0.087891,0 l 3.8691,1.3184 c 0.053,0.018 0.088,0.065 0.088,0.1191 0,1.3341 -0.365,2.8774 -1.002,4.2324 -0.517,1.0991 -1.4458,2.5653 -2.9375,3.3083 -0.0189,0.01 -0.0397,0.014 -0.0605,0.014 -0.0208,0 -0.0416,-0.004 -0.0605,-0.014 -1.4918,-0.742 -2.4209,-2.209 -2.9375,-3.3083 -0.637,-1.3549 -1.002,-2.8981 -1.002,-4.2324 0,-0.0541 0.0351,-0.1011 0.0879,-0.1191 l 3.8672,-1.3184 z"
       transform="matrix(21.642,0,0,22.04,3.1948,-1.0886e-6)"
       id="path5"
       sodipodi:nodetypes="cccsccsccsccccccccsccsccsccc" />
  </g>
  <path
     style="fill:currentColor"
     class="ColorScheme-NegativeText"
     d="M 11.435004,8.0004 11,8.3247216 v 3.1429694 l 0.435004,0.532709 v 0 h 1.174764 v 0 L 13,11.626261 V 8.4519634 L 12.641642,8.0004 v 0 z m 0,5 L 11,13.372464 v 1.237715 l 0.435004,0.390221 v 0 h 1.14289 v 0 L 13,14.610179 v -1.269527 0 L 12.705388,13.0004 Z"
     id="path9"
     sodipodi:nodetypes="cccccccccccccccccccccccc" />
</svg>
