<?xml version="1.0" encoding="UTF-8" standalone="no"?>
<svg
   width="24"
   height="24"
   version="1.1"
   id="svg510121"
   sodipodi:docname="flameshot-tray.svg"
   inkscape:version="1.1.2 (0a00cf5339, 2022-02-04)"
   xmlns:inkscape="http://www.inkscape.org/namespaces/inkscape"
   xmlns:sodipodi="http://sodipodi.sourceforge.net/DTD/sodipodi-0.dtd"
   xmlns="http://www.w3.org/2000/svg"
   xmlns:svg="http://www.w3.org/2000/svg">
  <sodipodi:namedview
     id="namedview510123"
     pagecolor="#000000"
     bordercolor="#666666"
     borderopacity="1.0"
     inkscape:pageshadow="2"
     inkscape:pageopacity="0"
     inkscape:pagecheckerboard="0"
     showgrid="false"
     inkscape:zoom="34.458333"
     inkscape:cx="12.01451"
     inkscape:cy="12"
     inkscape:window-width="1920"
     inkscape:window-height="1051"
     inkscape:window-x="0"
     inkscape:window-y="29"
     inkscape:window-maximized="1"
     inkscape:current-layer="g510119" />
  <defs
     id="defs510111">
    <style
       id="current-color-scheme"
       type="text/css">
   .ColorScheme-Text { color:#eeeeec; } .ColorScheme-Highlight { color:#367bf0; } .ColorScheme-NeutralText { color:#ffcc44; } .ColorScheme-PositiveText { color:#3db47e; } .ColorScheme-NegativeText { color:#dd4747; }
  </style>
  </defs>
  <g
     transform="translate(1,1)"
     id="g510119">
    <path
       class="ColorScheme-Text"
       d="m 19.59515,5.022951 c 0,0 0.365981,-0.6088469 0,0 -0.468345,0.7791373 -1.472375,1.8771882 -3.61615,2.834449 -0.035,0.917 -0.164,1.8405 -0.483,2.7186 -0.525,1.447 -1.598,2.766 -3.303,3.442 -2.192018,0.868559 -3.4840452,1.913948 -4.2680347,2.879338 -0.2007821,0.247239 0.3160476,0.05161 0.1753248,0.284043 0.2043687,-0.147651 -0.2527261,0.143231 0,0 C 9.271654,16.517518 10.991479,15.928986 13.529,15.674 18.23619,15.20175 19.55907,7.9089226 19.89528,5.0954625 19.97626,4.4177911 19.59515,5.0229505 19.59515,5.022951 Z"
       style="opacity:0.35;fill:currentColor"
       id="path510113"
       sodipodi:nodetypes="cscccscscsc" />
    <path
       class="ColorScheme-Text"
       d="m 13.716108,1.9360979 c 0,0 0.07281,-0.5790688 0,0 C 13.570297,3.0956778 12.944347,5.1456303 10.5,7.002 c 0.302,0.8514 0.51,1.7741 0.5,2.7343 -0.013,1.3087 -0.471,2.6957 -1.5762,3.8227 -0.4230977,0.430722 -0.7831623,0.842991 -1.0902147,1.235148 -0.2325963,0.297065 0.3055416,-0.07977 0.1294291,0.193498 0.2223712,-0.221442 -0.2721562,0.219351 0,0 C 9.3031222,14.310538 10.394494,13.654485 11.824,13.088 16.530653,11.222807 14.83142,4.348309 14.048174,1.8852606 13.871886,1.3308917 13.716108,1.9360979 13.716108,1.9360979 Z"
       style="fill:currentColor"
       id="path510115"
       sodipodi:nodetypes="cscccscscsc" />
    <path
       class="ColorScheme-Text"
       d="M 3.681,11.501 C 6.7968609,7.8342021 7.1120721,4.9713284 7.0590929,3.7069721 c -0.019219,-0.4586698 0,0 0,0 0,0 0.088551,-0.5106187 0.3549766,-0.1665959 C 8.631044,5.111798 11.746319,9.7642892 8.7102,12.858 c -2.8765285,2.929952 -3.1955185,5.239561 -3.1232047,6.374106 0.031642,0.496438 -0.3158754,0.148042 -0.3158754,0.148042 0,0 0.2714538,0.390183 0,0 C 4.1982174,17.837975 1.7376776,13.788294 3.681,11.501 Z"
       style="fill:currentColor"
       id="path510117"
       sodipodi:nodetypes="cscscscsc" />
  </g>
</svg>
