<?xml version="1.0" encoding="UTF-8" standalone="no"?>
<svg
   width="24"
   height="24"
   version="1"
   id="svg1567873"
   sodipodi:docname="fusion-icon-panel.svg"
   inkscape:version="1.1.2 (0a00cf5339, 2022-02-04)"
   xmlns:inkscape="http://www.inkscape.org/namespaces/inkscape"
   xmlns:sodipodi="http://sodipodi.sourceforge.net/DTD/sodipodi-0.dtd"
   xmlns="http://www.w3.org/2000/svg"
   xmlns:svg="http://www.w3.org/2000/svg">
  <sodipodi:namedview
     id="namedview1567875"
     pagecolor="#000000"
     bordercolor="#666666"
     borderopacity="1.0"
     inkscape:pageshadow="2"
     inkscape:pageopacity="0"
     inkscape:pagecheckerboard="0"
     showgrid="false"
     inkscape:zoom="34.458333"
     inkscape:cx="12.01451"
     inkscape:cy="12"
     inkscape:window-width="1920"
     inkscape:window-height="1051"
     inkscape:window-x="0"
     inkscape:window-y="29"
     inkscape:window-maximized="1"
     inkscape:current-layer="svg1567873" />
  <defs
     id="defs1567869">
    <style
       id="current-color-scheme"
       type="text/css">
   .ColorScheme-Text { color:#eeeeec; } .ColorScheme-Highlight { color:#367bf0; } .ColorScheme-NeutralText { color:#ffcc44; } .ColorScheme-PositiveText { color:#3db47e; } .ColorScheme-NegativeText { color:#dd4747; }
  </style>
  </defs>
  <path
     style="fill:currentColor"
     class="ColorScheme-Text"
     d="M 4.8008,4 C 4.3576,4 4,4.3576 4,4.8008 v 14.398 c 0,0.443 0.3576,0.801 0.8008,0.801 h 7.9043 3.3301 3.1641 c 0.443,0 0.801,-0.358 0.801,-0.801 V 4.8008 c 0,-0.4434 -0.358,-0.801 -0.801,-0.801 z M 6,6 H 18.033 L 18.018,18.018 H 15 l -3.845797,-5.786002 v 0 L 11.304674,12 l 2.931969,0 v 0 L 14.270899,11.544312 7.4217164,7.2635728 7,7.5186338 v 0 7.6357682 0 l 0.5004288,0.144998 1.8201141,-2.54816 0.3102773,0.03749 v 0 L 12,18.0176 H 5.9902 Z"
     id="path1567871"
     sodipodi:nodetypes="csssccssscccccccccccccccccccccccc" />
</svg>
