<?xml version="1.0" encoding="UTF-8" standalone="no"?>
<svg
   width="24"
   height="24"
   version="1.1"
   id="svg7"
   sodipodi:docname="gitlab-tray.svg"
   inkscape:version="1.1.2 (0a00cf5339, 2022-02-04)"
   xmlns:inkscape="http://www.inkscape.org/namespaces/inkscape"
   xmlns:sodipodi="http://sodipodi.sourceforge.net/DTD/sodipodi-0.dtd"
   xmlns="http://www.w3.org/2000/svg"
   xmlns:svg="http://www.w3.org/2000/svg">
  <sodipodi:namedview
     id="namedview9"
     pagecolor="#000000"
     bordercolor="#666666"
     borderopacity="1.0"
     inkscape:pageshadow="2"
     inkscape:pageopacity="0"
     inkscape:pagecheckerboard="0"
     showgrid="false"
     inkscape:zoom="34.625"
     inkscape:cx="11.98556"
     inkscape:cy="11.971119"
     inkscape:window-width="1920"
     inkscape:window-height="1051"
     inkscape:window-x="0"
     inkscape:window-y="29"
     inkscape:window-maximized="1"
     inkscape:current-layer="svg7" />
  <defs
     id="defs3">
    <style
       id="current-color-scheme"
       type="text/css">
   .ColorScheme-Text { color:#eeeeec; } .ColorScheme-Highlight { color:#367bf0; } .ColorScheme-NeutralText { color:#ffcc44; } .ColorScheme-PositiveText { color:#3db47e; } .ColorScheme-NegativeText { color:#dd4747; }
  </style>
  </defs>
  <path
     style="fill:currentColor"
     class="ColorScheme-Text"
     d="m 6.3633604,4.0001587 c -0.137472,0 -0.27511,0.0761 -0.326446,0.228616 L 4.3065548,9.6806095 v 0 L 4.5352937,10 H 8.6853134 L 6.6898064,4.2287747 c -0.05136,-0.152517 -0.188974,-0.228616 -0.326446,-0.228616 z M 8.6853134,10 l 3.1756126,9.58043 0.27695,0.0036 v 0 L 15.314687,10 Z m 6.6293736,0 h 4.024942 l 0.31984,-0.4264414 v 0 L 17.963087,4.2287747 c -0.102673,-0.305033 -0.550171,-0.305033 -0.652892,0 z m 4.426643,0.362621 v 0 l -7.188608,9.280099 v 0 l 0.190965,0.103212 7.973268,-5.857713 c 0.240523,-0.168571 0.341293,-0.467302 0.249439,-0.740125 l -0.892359,-2.767582 z m -8.046812,9.245475 v 0 l -7.2440484,-9.293417 -0.377113,0.03955 v 0 l -1.0397502,2.793868 c -0.09185,0.272823 0.0089,0.571554 0.249439,0.740125 l 8.3538606,5.857202 z"
     id="path5"
     sodipodi:nodetypes="sccccccsccccccccccccccccccccccccccccccc" />
</svg>
