<?xml version="1.0" encoding="UTF-8" standalone="no"?>
<svg
   width="24"
   height="24"
   version="1.1"
   id="svg11"
   sodipodi:docname="gmail-tray-unread.svg"
   inkscape:version="1.1.2 (0a00cf5339, 2022-02-04)"
   xmlns:inkscape="http://www.inkscape.org/namespaces/inkscape"
   xmlns:sodipodi="http://sodipodi.sourceforge.net/DTD/sodipodi-0.dtd"
   xmlns="http://www.w3.org/2000/svg"
   xmlns:svg="http://www.w3.org/2000/svg">
  <sodipodi:namedview
     id="namedview13"
     pagecolor="#000000"
     bordercolor="#666666"
     borderopacity="1.0"
     inkscape:pageshadow="2"
     inkscape:pageopacity="0"
     inkscape:pagecheckerboard="0"
     showgrid="false"
     inkscape:zoom="34.625"
     inkscape:cx="11.98556"
     inkscape:cy="11.971119"
     inkscape:window-width="1920"
     inkscape:window-height="1051"
     inkscape:window-x="0"
     inkscape:window-y="29"
     inkscape:window-maximized="1"
     inkscape:current-layer="svg11" />
  <defs
     id="defs3">
    <style
       id="current-color-scheme"
       type="text/css">
   .ColorScheme-Text { color:#eeeeec; } .ColorScheme-Highlight { color:#367bf0; } .ColorScheme-NeutralText { color:#ffcc44; } .ColorScheme-PositiveText { color:#3db47e; } .ColorScheme-NegativeText { color:#dd4747; }
  </style>
  </defs>
  <path
     style="opacity:0.35;fill:currentColor"
     class="ColorScheme-Text"
     d="m 7.8256171,6.5601469 v 0 l 3.8592489,2.7555224 0.683854,-0.029996 v 0 L 16.28455,6.4886523 16.093003,5.999938 v 0 l -8.1435198,-4e-7 z M 7,11.5462 v 0 6.453738 h 9.501953 c -0.325252,-0.432496 -0.50139,-0.958852 -0.501953,-1.5 6.14e-4,-0.786206 0.371035,-1.526324 1,-1.998047 v -3.0651 0 l -0.530525,-0.167204 -3.299553,2.357304 c -0.692341,0.494674 -1.633831,0.494674 -2.326172,0 L 7.601366,11.310432 Z"
     id="path5"
     sodipodi:nodetypes="ccccccccccccccccccccccc" />
  <path
     style="fill:currentColor"
     class="ColorScheme-Text"
     d="M 5.0371094,5.9999376 C 4.4541944,5.9784039 3.9768441,6.4584561 4.0019531,7.0409532 4.0019147,7.0436766 4,7.068297 4,7.068297 v 9.9375 c 0,0.54653 0.4399575,1.000321 0.9921875,0.994141 H 6 v -8.2825171 0 L 6.6749585,9.4211916 11.425781,12.812438 c 0.347538,0.248314 0.814572,0.248314 1.16211,0 L 17.456285,9.3372719 18,9.4733781 v 0 4.5812479 c 0.164404,-0.03499 0.331919,-0.05332 0.5,-0.05469 0.541371,0.0011 1.067749,0.177956 1.5,0.503906 v -7.51367 c 0,-0.00348 -0.0019,-0.0063 -0.002,-0.00977 -0.0031,-0.1192676 -0.02762,-0.2370101 -0.07227,-0.3476563 -0.0071,-0.018016 -0.01332,-0.03526 -0.02148,-0.052734 -0.04573,-0.095553 -0.10637,-0.1832343 -0.179641,-0.2597616 -0.01676,-0.01774 -0.03278,-0.034302 -0.05078,-0.050781 -0.07238,-0.065568 -0.153972,-0.1201845 -0.242188,-0.1621096 -0.03286,-0.015969 -0.06494,-0.028643 -0.09961,-0.041016 -0.08992,-0.032109 -0.18397,-0.051183 -0.279297,-0.05664 C 19.03439,6.0086897 19.01856,5.9999376 19,5.9999376 l -0.0059,0.00977 c -0.206396,3.104e-4 -0.407641,0.064439 -0.576131,0.1835894 l -6.110985,4.36499 v 0 l -0.6293,-0.01932 L 5.59375,6.193297 C 5.4318705,6.0743756 5.2378849,6.0069911 5.0371094,5.9999376 Z"
     id="path7"
     sodipodi:nodetypes="cccscccccccccccccscccccccccccccccc" />
  <circle
     style="fill:currentColor"
     class="ColorScheme-Highlight"
     cx="18.5"
     cy="16.5"
     r="1.5"
     id="circle9" />
</svg>
