<?xml version="1.0" encoding="UTF-8" standalone="no"?>
<svg
   width="24"
   height="24"
   version="1.1"
   id="svg7"
   sodipodi:docname="gpm-brightness-lcd-disabled.svg"
   inkscape:version="1.1.2 (0a00cf5339, 2022-02-04)"
   xmlns:inkscape="http://www.inkscape.org/namespaces/inkscape"
   xmlns:sodipodi="http://sodipodi.sourceforge.net/DTD/sodipodi-0.dtd"
   xmlns="http://www.w3.org/2000/svg"
   xmlns:svg="http://www.w3.org/2000/svg">
  <sodipodi:namedview
     id="namedview9"
     pagecolor="#000000"
     bordercolor="#666666"
     borderopacity="1.0"
     inkscape:pageshadow="2"
     inkscape:pageopacity="0"
     inkscape:pagecheckerboard="0"
     showgrid="false"
     inkscape:zoom="31.5"
     inkscape:cx="12"
     inkscape:cy="12"
     inkscape:window-width="1880"
     inkscape:window-height="966"
     inkscape:window-x="0"
     inkscape:window-y="29"
     inkscape:window-maximized="1"
     inkscape:current-layer="svg7" />
  <defs
     id="defs3">
    <style
       id="current-color-scheme"
       type="text/css">
   .ColorScheme-Text { color:#eeeeec; } .ColorScheme-Highlight { color:#367bf0; } .ColorScheme-NeutralText { color:#ffcc44; } .ColorScheme-PositiveText { color:#3db47e; } .ColorScheme-NegativeText { color:#dd4747; }
  </style>
  </defs>
  <path
     style="opacity:0.35;fill:currentColor"
     class="ColorScheme-Text"
     d="M 12.512667,5.2468165 11.621703,5.1151247 9.8108,7.0003001 H 7.6894221 v 0 L 7.0002999,7.5309061 V 9.8108 l -1.9020103,1.827075 -0.076149,0.655824 v 0 L 7.0002999,14.221 v 2.167191 L 7.6256743,17 v 0 H 9.8108 l 1.769865,1.842211 0.878882,-0.03445 v 0 L 14.2213,17 h 2.293418 v 0 L 17.0003,16.483141 V 14.221 l 1.872161,-1.824269 v 0 l 0.0382,-0.719943 L 17.0003,10.0003 v -2.405773 0 l -0.453708,-0.5942269 -2.325292,0 z M 12.0003,8.0003001 c 2.21,0 4,1.7899999 4,3.9999999 0,2.2097 -1.79,3.9997 -4,3.9997 -2.2100001,0 -4.0000001,-1.79 -4.0000001,-3.9997 0,-2.21 1.79,-3.9999999 4.0000001,-3.9999999 z m 0,0.9999999 c -1.6569,0 -3,1.3431 -3,3 0,1.6569 1.3431,2.9997 3,2.9997 z"
     id="path5"
     sodipodi:nodetypes="cccccccccccccccccccccccccccccccccssssscscc" />
</svg>
