<?xml version="1.0" encoding="UTF-8" standalone="no"?>
<svg
   width="24"
   height="24"
   version="1.1"
   id="svg11"
   sodipodi:docname="gpm-brightness-kbd-disabled.svg"
   inkscape:version="1.1.2 (0a00cf5339, 2022-02-04)"
   xmlns:inkscape="http://www.inkscape.org/namespaces/inkscape"
   xmlns:sodipodi="http://sodipodi.sourceforge.net/DTD/sodipodi-0.dtd"
   xmlns="http://www.w3.org/2000/svg"
   xmlns:svg="http://www.w3.org/2000/svg">
  <sodipodi:namedview
     id="namedview13"
     pagecolor="#000000"
     bordercolor="#666666"
     borderopacity="1.0"
     inkscape:pageshadow="2"
     inkscape:pageopacity="0"
     inkscape:pagecheckerboard="0"
     showgrid="false"
     inkscape:zoom="31.5"
     inkscape:cx="12"
     inkscape:cy="12"
     inkscape:window-width="1880"
     inkscape:window-height="966"
     inkscape:window-x="0"
     inkscape:window-y="29"
     inkscape:window-maximized="1"
     inkscape:current-layer="g9" />
  <defs
     id="defs3">
    <style
       id="current-color-scheme"
       type="text/css">
   .ColorScheme-Text { color:#eeeeec; } .ColorScheme-Highlight { color:#367bf0; } .ColorScheme-NeutralText { color:#ffcc44; } .ColorScheme-PositiveText { color:#3db47e; } .ColorScheme-NegativeText { color:#dd4747; }
  </style>
  </defs>
  <g
     transform="translate(1,1)"
     id="g9">
    <path
       class="ColorScheme-Text"
       d="M 11.4346,4.1667077 10.560648,4.1780712 8.8105,6 H 6.4990913 V 6 L 6,6.6581479 V 8.8105 L 4.2444503,10.496884 4.2770589,11 v 0 H 7 c 0,-2.21 1.79,-4 4,-4 2.21,0 4,1.79 4,4 h 2.70488 v 0 L 17.80711,10.58588 16,9 V 6.6899588 L 15.323479,6 V 6 H 13.221 Z M 11,8 C 9.3431,8 8,9.3431 8,11 h 3 z"
       style="opacity:0.35;fill:currentColor"
       id="path5"
       sodipodi:nodetypes="cccccccccccscccccccccccccc" />
    <path
       class="ColorScheme-Text"
       d="M 18,13 C 18,12.446 17.554,12 17,12 H 4 C 3.446,12 3,12.446 3,13 V 18 C 3,18.554 3.446,19 4,19 H 17 C 17.554,19 18,18.554 18,18 Z M 15,13 V 14 H 14 V 13 Z M 15,15 V 16 H 14 V 15 Z M 14,17 V 18 H 7 V 17 Z M 13,13 V 14 H 12 V 13 Z M 13,15 V 16 H 12 V 15 Z M 11,13 V 14 H 10 V 13 Z M 11,15 V 16 H 10 V 15 Z M 9,13 V 14 H 8 V 13 Z M 9,15 V 16 H 8 V 15 Z M 7,13 V 14 H 6 V 13 Z M 7,15 V 16 H 6 V 15 Z"
       style="opacity:.35;fill:currentColor;fill-rule:evenodd"
       id="path7" />
  </g>
</svg>
