<?xml version="1.0" encoding="UTF-8" standalone="no"?>
<svg
   width="24"
   height="24"
   version="1.1"
   id="svg7"
   sodipodi:docname="gpmdp-tray-play.svg"
   inkscape:version="1.1.2 (0a00cf5339, 2022-02-04)"
   xmlns:inkscape="http://www.inkscape.org/namespaces/inkscape"
   xmlns:sodipodi="http://sodipodi.sourceforge.net/DTD/sodipodi-0.dtd"
   xmlns="http://www.w3.org/2000/svg"
   xmlns:svg="http://www.w3.org/2000/svg">
  <sodipodi:namedview
     id="namedview9"
     pagecolor="#000000"
     bordercolor="#666666"
     borderopacity="1.0"
     inkscape:pageshadow="2"
     inkscape:pageopacity="0"
     inkscape:pagecheckerboard="0"
     showgrid="false"
     inkscape:zoom="31.5"
     inkscape:cx="12"
     inkscape:cy="12"
     inkscape:window-width="1880"
     inkscape:window-height="966"
     inkscape:window-x="0"
     inkscape:window-y="29"
     inkscape:window-maximized="1"
     inkscape:current-layer="svg7" />
  <defs
     id="defs3">
    <style
       id="current-color-scheme"
       type="text/css">
   .ColorScheme-Text { color:#eeeeec; } .ColorScheme-Highlight { color:#367bf0; } .ColorScheme-NeutralText { color:#ffcc44; } .ColorScheme-PositiveText { color:#3db47e; } .ColorScheme-NegativeText { color:#dd4747; }
  </style>
  </defs>
  <path
     style="fill:currentColor"
     class="ColorScheme-Text"
     d="m 15,12 c 0,1.657 -1.343,3 -3,3 -1.657,0 -3,-1.343 -3,-3 0,-1.657 1.343,-3 3,-3 1.657,0 3,1.343 3,3 z M 5.8322,4.0002 C 5.6216,4.0049 5.4383,4.0807 5.3009,4.2172 5.1057,4.4082 5,4.7174 5,5.1175 V 18.877 c 0,0.4 0.1147,0.71 0.3,0.901 0.2846,0.282 0.728,0.308 1.2334,0.007 L 18.361,12.893 c 0.852,-0.491 0.852,-1.291 0,-1.791 L 17.883,10.823 C 17.335,8.0733 14.911,6.0002 12,6.0002 c -0.654,0 -1.284,0.1065 -1.873,0.3 L 6.5334,4.2074 C 6.2807,4.0619 6.0428,3.9958 5.8322,4.0002 Z m 6.1678,3 c 2.774,0 5,2.2268 5,4.9998 0,0.189 -0.033,0.374 -0.055,0.561 l -6.896,4.015 C 9.3721,16.395 7,14.893 7,12 7,9.15 9.3995,7.0002 12,7.0002 Z m 9.461669,10.676801 0.06863,0.604818 -4.005845,2.403507 v 0 L 17,20.451253 v -4.856877 0 l 0.530553,-0.276044 z"
     id="path5"
     sodipodi:nodetypes="sssssccsscccccscccssccsscccccccccc" />
</svg>
