<?xml version="1.0" encoding="UTF-8" standalone="no"?>
<svg
   width="24"
   height="24"
   version="1.1"
   id="svg7"
   sodipodi:docname="heroic-tray.svg"
   inkscape:version="1.1.2 (0a00cf5339, 2022-02-04)"
   xmlns:inkscape="http://www.inkscape.org/namespaces/inkscape"
   xmlns:sodipodi="http://sodipodi.sourceforge.net/DTD/sodipodi-0.dtd"
   xmlns="http://www.w3.org/2000/svg"
   xmlns:svg="http://www.w3.org/2000/svg">
  <sodipodi:namedview
     id="namedview9"
     pagecolor="#ffffff"
     bordercolor="#666666"
     borderopacity="1.0"
     inkscape:pageshadow="2"
     inkscape:pageopacity="0.0"
     inkscape:pagecheckerboard="0"
     showgrid="false"
     inkscape:zoom="31.5"
     inkscape:cx="12"
     inkscape:cy="12"
     inkscape:window-width="1880"
     inkscape:window-height="966"
     inkscape:window-x="0"
     inkscape:window-y="29"
     inkscape:window-maximized="1"
     inkscape:current-layer="svg7" />
  <defs
     id="defs3">
    <style
       id="current-color-scheme"
       type="text/css">
   .ColorScheme-Text { color:#eeeeec; } .ColorScheme-Highlight { color:#367bf0; } .ColorScheme-NeutralText { color:#ffcc44; } .ColorScheme-PositiveText { color:#3db47e; } .ColorScheme-NegativeText { color:#dd4747; }
  </style>
  </defs>
  <path
     style="fill:currentColor"
     class="ColorScheme-Text"
     d="m 12.244291,4.0829825 v 0 L 6.2945367,6.0137922 v 0 L 6.1106898,6.4903432 9.3203125,17.537109 12.5,20 15.679688,17.537109 18.900107,6.4531838 v 0 l -0.225891,-0.449532 -5.805573,-1.88402 z m 0.07053,0.641344 0.403003,0.053607 1.081739,1.3441078 v 0 L 13.965437,6.7685636 13.242188,15.085938 12.5,16 11.751953,15.080078 11.026048,6.670892 11.151083,6.1801392 v 0 z M 10.060547,15.5 11.671875,15.78125 12,16.25 11.671875,16.716797 10.064453,17 9.75,16.248047 Z m 4.880859,0 L 15.25,16.248047 14.935547,17 13.328125,16.716797 13,16.25 13.328125,15.78125 Z M 12.501953,16.75 12.96875,17.078125 13.25,18.689453 12.503906,19 11.75,18.685547 12.035156,17.078125 Z"
     id="path5"
     sodipodi:nodetypes="ccccccccccccccccccccccccccccccccccccccccccccccc" />
</svg>
