<?xml version="1.0" encoding="UTF-8" standalone="no"?>
<svg
   width="24"
   height="24"
   version="1.1"
   id="svg9"
   sodipodi:docname="hexchat-indicator.svg"
   inkscape:version="1.1.2 (0a00cf5339, 2022-02-04)"
   xmlns:inkscape="http://www.inkscape.org/namespaces/inkscape"
   xmlns:sodipodi="http://sodipodi.sourceforge.net/DTD/sodipodi-0.dtd"
   xmlns="http://www.w3.org/2000/svg"
   xmlns:svg="http://www.w3.org/2000/svg">
  <sodipodi:namedview
     id="namedview11"
     pagecolor="#000000"
     bordercolor="#666666"
     borderopacity="1.0"
     inkscape:pageshadow="2"
     inkscape:pageopacity="0"
     inkscape:pagecheckerboard="0"
     showgrid="false"
     inkscape:zoom="31.5"
     inkscape:cx="12"
     inkscape:cy="12"
     inkscape:window-width="1880"
     inkscape:window-height="966"
     inkscape:window-x="0"
     inkscape:window-y="29"
     inkscape:window-maximized="1"
     inkscape:current-layer="g7" />
  <defs
     id="defs3">
    <style
       id="current-color-scheme"
       type="text/css">
   .ColorScheme-Text { color:#eeeeec; } .ColorScheme-Highlight { color:#367bf0; } .ColorScheme-NeutralText { color:#ffcc44; } .ColorScheme-PositiveText { color:#3db47e; } .ColorScheme-NegativeText { color:#dd4747; }
  </style>
  </defs>
  <g
     id="g7">
    <path
       style="fill:currentColor"
       class="ColorScheme-Text"
       d="M 7.5085981,5.0004733 C 7.1489137,5.0001918 6.8163031,5.18985 6.6356835,5.4982188 L 3.1362503,11.497381 c -0.1816671,0.310332 -0.1816671,0.693379 0,1.003711 L 6.6356835,18.4999 C 6.8162125,18.808405 7.1488401,19.000208 7.5085981,19 h 6.9868599 c 0.359125,-4.18e-4 0.690932,-0.192137 0.871143,-0.5001 l 3.497327,-5.998808 c 0.181667,-0.310332 0.181667,-0.693379 0,-1.003711 L 15.366601,5.4982188 C 15.186299,5.1903924 14.85451,5.0008176 14.495458,5.0004733 Z m 6.1142639,1.9996264 c 0.257517,-1.037e-4 0.497396,0.1235124 0.636618,0.3280657 v 0.00195 l -2.973936,2.9719986 v 0 L 10.754958,10.338419 7.744859,7.3279925 C 7.877544,7.1325547 8.1025553,7.0102056 8.3481762,6.999941 Z m -7.1805195,2.4549266 0.5973653,-0.00437 2.2699608,2.2699607 v 0 l 0.039393,0.517735 -2.3491976,2.349482 v 0 L 6.4461581,14.54995 5.104611,12.358747 c -0.1369379,-0.222096 -0.1369379,-0.496535 0,-0.718631 z m 8.8910285,-0.3732519 0.214493,0.3503585 1.351616,2.2077701 c 0.136938,0.222096 0.136938,0.496535 0,0.718631 l -1.407403,2.299088 v 0 l -0.372218,0.046 -2.412907,-2.413201 v 0 l 0.04011,-0.622306 2.317467,-2.3174668 0.483332,0.081485 z m -4.331272,4.3312726 0.259535,0.259535 2.714449,2.714449 0.281378,0.281378 c -0.138354,0.20474 -0.377422,0.329058 -0.634635,0.330018 H 8.3814419 c -0.2575141,1.07e-4 -0.497393,-0.123504 -0.6366183,-0.328052 l 2.9701974,-2.97052 0.546613,-0.02727 z"
       id="path5"
       sodipodi:nodetypes="cccccccccccccccccccccccccccccccccccccccccccccccccccccccc" />
  </g>
</svg>
