<?xml version="1.0" encoding="UTF-8" standalone="no"?>
<svg
   width="24"
   height="24"
   version="1.1"
   id="svg502070"
   sodipodi:docname="indicator-messages-new.svg"
   inkscape:version="1.1.2 (0a00cf5339, 2022-02-04)"
   xmlns:inkscape="http://www.inkscape.org/namespaces/inkscape"
   xmlns:sodipodi="http://sodipodi.sourceforge.net/DTD/sodipodi-0.dtd"
   xmlns="http://www.w3.org/2000/svg"
   xmlns:svg="http://www.w3.org/2000/svg">
  <sodipodi:namedview
     id="namedview502072"
     pagecolor="#000000"
     bordercolor="#666666"
     borderopacity="1.0"
     inkscape:pageshadow="2"
     inkscape:pageopacity="0"
     inkscape:pagecheckerboard="0"
     showgrid="false"
     inkscape:zoom="34.458333"
     inkscape:cx="12"
     inkscape:cy="12"
     inkscape:window-width="1822"
     inkscape:window-height="928"
     inkscape:window-x="0"
     inkscape:window-y="35"
     inkscape:window-maximized="1"
     inkscape:current-layer="svg502070" />
  <defs
     id="defs502064">
    <style
       id="current-color-scheme"
       type="text/css">
   .ColorScheme-Text { color:#eeeeec; } .ColorScheme-Highlight { color:#367bf0; } .ColorScheme-NeutralText { color:#ffcc44; } .ColorScheme-PositiveText { color:#3db47e; } .ColorScheme-NegativeText { color:#dd4747; }
  </style>
  </defs>
  <path
     style="fill:currentColor"
     class="ColorScheme-Text"
     d="M 6,6 C 4.892,6 4,6.892 4,8 v 8 c 0,1.108 0.892,2 2,2 h 9.937652 v 0 c -0.400406,0 0.278716,-0.08028 -0.07197,-0.225483 C 14.775644,17.323181 14,16.244593 14,15 c 0,-1.645 1.355,-3 3,-3 1.218378,0 2.27767,0.743312 2.745166,1.797226 C 19.908863,14.166261 20,13.311432 20,13.738054 v 0 V 8 C 20,6.892 19.108,6 18,6 Z m 0,2.4516552 0.3775364,-0.262887 5.3857876,2.6928938 0.634148,-0.0804 v 0 L 17.550921,8.2245394 18,8.4516552 v 0 V 10 l -5.626742,2.813371 v 0 L 11.601793,12.800896 6,10 Z"
     id="path502066"
     sodipodi:nodetypes="ssssccssssccsssccccccccccccccc" />
  <path
     style="fill:currentColor"
     class="ColorScheme-Highlight"
     d="m 17,13 a 2,2 0 0 0 -2,2 2,2 0 0 0 2,2 2,2 0 0 0 2,-2 2,2 0 0 0 -2,-2 z"
     id="path502068" />
</svg>
