<?xml version="1.0" encoding="UTF-8" standalone="no"?>
<svg
   width="24"
   height="24"
   version="1.1"
   id="svg19"
   sodipodi:docname="indicator-lunar-satelite.svg"
   inkscape:version="1.1.2 (0a00cf5339, 2022-02-04)"
   xmlns:inkscape="http://www.inkscape.org/namespaces/inkscape"
   xmlns:sodipodi="http://sodipodi.sourceforge.net/DTD/sodipodi-0.dtd"
   xmlns="http://www.w3.org/2000/svg"
   xmlns:svg="http://www.w3.org/2000/svg">
  <sodipodi:namedview
     id="namedview21"
     pagecolor="#ffffff"
     bordercolor="#666666"
     borderopacity="1.0"
     inkscape:pageshadow="2"
     inkscape:pageopacity="0.0"
     inkscape:pagecheckerboard="0"
     showgrid="false"
     inkscape:zoom="31.625"
     inkscape:cx="12"
     inkscape:cy="12"
     inkscape:window-width="1822"
     inkscape:window-height="928"
     inkscape:window-x="0"
     inkscape:window-y="35"
     inkscape:window-maximized="1"
     inkscape:current-layer="g17" />
  <defs
     id="defs3">
    <style
       id="current-color-scheme"
       type="text/css">
   .ColorScheme-Text { color:#eeeeec; } .ColorScheme-Highlight { color:#367bf0; } .ColorScheme-NeutralText { color:#ffcc44; } .ColorScheme-PositiveText { color:#3db47e; } .ColorScheme-NegativeText { color:#dd4747; }
  </style>
  </defs>
  <g
     transform="translate(0 -1028.4)"
     id="g17">
    <path
       style="fill:currentColor"
       class="ColorScheme-Text"
       d="m 13.200587,1035.2923 h -0.390903 l -5.5335997,5.5336 v 0 c 0.1444688,0.057 -0.016873,0.4225 0.124476,0.4888 0.7752591,0.3635 1.499571,0.8711 2.1288397,1.5005 h 0.00141 c 0.614619,0.6161 1.113037,1.3226 1.474261,2.0787 0.07531,0.1576 0.607905,-0.1458 0.671095,0.016 v 0 l 5.325313,-5.3253 v 0 l -0.01988,-0.5159 -3.781011,-3.7811 h -0.390903 z"
       id="path5"
       sodipodi:nodetypes="ccccsccscccccccc" />
    <path
       style="fill:currentColor"
       class="ColorScheme-Text"
       d="m7.4083 1032.2-1.4142 1.4142 1.4142 1.4143 1.4142-1.4143-1.4142-1.4142zm2.1213 2.1213-1.4142 1.4143 1.4142 1.4142 1.4142-1.4142-1.4142-1.4143zm-4.2426 0-1.4142 1.4143 1.4142 1.4142 1.4142-1.4142-1.4142-1.4143zm2.1213 2.1214-1.4142 1.4142 1.4142 1.4142 1.4142-1.4142-1.4142-1.4142z"
       id="path7" />
    <path
       style="fill:currentColor"
       class="ColorScheme-Text"
       d="m16.601 1041.4-1.4142 1.4142 1.4142 1.4142 1.4142-1.4142-1.4142-1.4142zm2.1213 2.1213-1.4142 1.4142 1.4142 1.4143 1.4142-1.4143-1.4142-1.4142zm-4.2426 0-1.4142 1.4142 1.4142 1.4143 1.4142-1.4143-1.4142-1.4142zm2.1213 2.1214-1.4142 1.4142 1.4142 1.4142 1.4142-1.4142-1.4142-1.4142z"
       id="path9" />
    <path
       style="fill:currentColor"
       class="ColorScheme-Text"
       d="m8.8225 1043.5c-1.3626-1.3626-3.2092-2.0601-4.9069-1.7857a0.50005 0.50005 0 0 0 -0.27347 0.848l6.1154 6.1154a0.50005 0.50005 0 0 0 0.848 -0.2735c0.2742-1.6964-0.4231-3.5409-1.783-4.9042z"
       id="path11" />
    <path
       fill-rule="evenodd"
       style="fill:currentColor"
       class="ColorScheme-Text"
       d="m16.295 6.6445l-0.826 0.8262 1.062 1.0605 0.826-0.8261c-0.453-0.2381-0.823-0.6072-1.062-1.0606z"
       transform="translate(0 1028.4)"
       id="path13" />
    <circle
       style="fill:currentColor"
       class="ColorScheme-Text"
       cx="18.5"
       cy="1033.9"
       r="1.5"
       id="circle15" />
  </g>
</svg>
