<?xml version="1.0" encoding="UTF-8" standalone="no"?>
<svg
   width="24"
   height="24"
   version="1.1"
   id="svg7"
   sodipodi:docname="indicator-virtual-box.svg"
   inkscape:version="1.1.2 (0a00cf5339, 2022-02-04)"
   xmlns:inkscape="http://www.inkscape.org/namespaces/inkscape"
   xmlns:sodipodi="http://sodipodi.sourceforge.net/DTD/sodipodi-0.dtd"
   xmlns="http://www.w3.org/2000/svg"
   xmlns:svg="http://www.w3.org/2000/svg">
  <sodipodi:namedview
     id="namedview9"
     pagecolor="#ffffff"
     bordercolor="#666666"
     borderopacity="1.0"
     inkscape:pageshadow="2"
     inkscape:pageopacity="0.0"
     inkscape:pagecheckerboard="0"
     showgrid="false"
     inkscape:zoom="31.416667"
     inkscape:cx="11.984085"
     inkscape:cy="12"
     inkscape:window-width="1880"
     inkscape:window-height="966"
     inkscape:window-x="0"
     inkscape:window-y="29"
     inkscape:window-maximized="1"
     inkscape:current-layer="svg7" />
  <defs
     id="defs3">
    <style
       id="current-color-scheme"
       type="text/css">
   .ColorScheme-Text { color:#eeeeec; } .ColorScheme-Highlight { color:#367bf0; } .ColorScheme-NeutralText { color:#ffcc44; } .ColorScheme-PositiveText { color:#3db47e; } .ColorScheme-NegativeText { color:#dd4747; }
  </style>
  </defs>
  <path
     style="fill:currentColor"
     class="ColorScheme-Text"
     d="M 6,4 C 4.892,4 4,4.892 4,6 v 12 c 0,1.108 0.892,2 2,2 h 12 c 1.108,0 2,-0.892 2,-2 V 6 C 20,4.892 19.108,4 18,4 Z m 4.992188,2 c 0.448958,-0.00329 0.845088,0.2930062 0.96875,0.7246094 l 0.938125,3.2859096 0.378724,-0.0095 v 0 l 0.772994,-2.3174422 c 0.303101,-0.9135549 1.595337,-0.9135549 1.898438,0 L 17.720703,13 H 19 v 2 h -2 c -0.43057,2.25e-4 -0.812955,-0.275155 -0.949219,-0.683594 l -0.85519,-2.56557 -0.381827,-0.02807 v 0 l -0.864545,2.593637 c -0.310961,0.932366 -1.639499,0.903843 -1.910157,-0.04101 l -0.700031,-2.45011 v 0 l -0.291127,0.0346 -1.0674352,5.335427 C 9.7741396,18.2217 8.3292204,18.281301 8.0390625,17.275397 L 6.2460938,11 H 5 V 9 h 2 c 0.4460645,2.097e-4 0.8380631,0.295802 0.9609375,0.724609 l 0.6776285,2.3717 v 0 L 8.9726993,12.037132 10.019531,6.8046875 C 10.112121,6.3398716 10.518256,6.0038731 10.992188,6 Z"
     id="path5"
     sodipodi:nodetypes="ssssssssscccccccccccccccccccccccccccccccc" />
</svg>
