<?xml version="1.0" encoding="UTF-8" standalone="no"?>
<svg
   width="24"
   height="24"
   version="1.1"
   id="svg490371"
   sodipodi:docname="indicator-stardate.svg"
   inkscape:version="1.1.2 (0a00cf5339, 2022-02-04)"
   xmlns:inkscape="http://www.inkscape.org/namespaces/inkscape"
   xmlns:sodipodi="http://sodipodi.sourceforge.net/DTD/sodipodi-0.dtd"
   xmlns="http://www.w3.org/2000/svg"
   xmlns:svg="http://www.w3.org/2000/svg">
  <sodipodi:namedview
     id="namedview490373"
     pagecolor="#000000"
     bordercolor="#666666"
     borderopacity="1.0"
     inkscape:pageshadow="2"
     inkscape:pageopacity="0"
     inkscape:pagecheckerboard="0"
     showgrid="false"
     inkscape:zoom="34.458333"
     inkscape:cx="12.01451"
     inkscape:cy="12"
     inkscape:window-width="1920"
     inkscape:window-height="1051"
     inkscape:window-x="0"
     inkscape:window-y="29"
     inkscape:window-maximized="1"
     inkscape:current-layer="g490369" />
  <defs
     id="defs490363">
    <style
       id="current-color-scheme"
       type="text/css">
   .ColorScheme-Text { color:#eeeeec; } .ColorScheme-Highlight { color:#367bf0; } .ColorScheme-NeutralText { color:#ffcc44; } .ColorScheme-PositiveText { color:#3db47e; } .ColorScheme-NegativeText { color:#dd4747; }
  </style>
  </defs>
  <g
     transform="translate(0 -1028.4)"
     id="g490369">
    <path
       fill-rule="evenodd"
       style="fill:currentColor"
       class="ColorScheme-Text"
       d="m 12,1032.4 c -1.914671,0 -4.7458347,8.2484 -4.9839285,15.094 -0.010611,0.3051 0.4919025,-0.1255 0.4919025,0.1732 0.1632088,-0.2448 -0.1748971,0.2432 0,0 1.9683339,-2.7368 4.57363,-5.2672 5.492026,-5.2672 0.942907,0 1.985035,1.7781 3.777586,4.4961 0.108538,0.1646 0.194123,-0.3767 0.308309,-0.2054 -0.0043,-0.2322 0.01274,0.2405 0,0 C 16.769318,1040.717 13.92261,1032.4 12,1032.4 Z"
       id="path490365"
       sodipodi:nodetypes="sscssscss" />
    <path
       style="fill:currentColor"
       class="ColorScheme-Text"
       d="m 12,6 c -0.261332,0.0025 -0.522221,0.022078 -0.781,0.0586 -0.497,0.8503 -1.037,2.125 -1.5159,3.6211 -0.6682,2.0883 -1.1173,4.5773 -1.3945,7.0413 0.01749,0.01376 0.035057,0.02743 0.0527,0.041 0.4469,-0.536 0.867,-1.154 1.3067,-1.594 0.589,-0.589 1.149,-1.085 1.668,-1.461 C 11.855,13.331 12.25,13 13,13 c 0.583,0 1.054,0.279 1.43,0.598 0.375,0.319 0.703,0.711 1.052,1.179 0.046,0.062 0.116,0.177 0.163,0.241 C 15.319,13.138 14.881,11.24 14.316,9.5703 13.833,8.1388 13.291,6.8959 12.793,6.0586 12.530253,6.0215532 12.265338,6.0019769 12,6 Z M 8.4941,7.1406 C 6.9308979,8.2661366 6.0031334,10.073754 6,12 6.002448,12.82576 6.1753216,13.642127 6.5078,14.398 6.8284,12.517 7.2793,10.688 7.7969,9.0703 8.0174,8.3811 8.2521,7.7411 8.4941,7.1406 Z M 15.537,7.1621 C 15.769,7.723 15.997,8.3 16.211,8.9316 16.76,10.556 17.237,12.374 17.578,14.193 17.854667,13.494851 17.997813,12.750968 18,12 17.997221,10.086927 17.082323,8.2898558 15.537,7.1621 Z M 13,15 c -0.055,0 -0.033,0.006 0.023,0.041 C 13.087,15.012 13.104,15 13,15 Z m 0.023,0.041 c -0.089,0.041 -0.289,0.121 -0.515,0.285 -0.388,0.281 -0.89,0.72 -1.426,1.256 -0.260497,0.260497 -0.529143,0.548578 -0.800976,0.850841 -0.07148,0.07949 0.117847,0.243094 0.04601,0.324298 0.08644,0.02972 -0.08756,-0.0257 0,0 C 10.869993,17.916511 11.433221,17.998404 12,18 c 0.973432,-0.001 1.932,-0.238854 2.793,-0.693 C 14.457,16.8 14.144,16.33 13.879,15.975 13.575,15.568 13.313,15.273 13.137,15.123 13.076,15.072 13.053,15.059 13.023,15.041 Z"
       transform="translate(0,1028.4)"
       id="path490367"
       sodipodi:nodetypes="ccccccssccccccccccccccccscsccsscsccccc" />
  </g>
</svg>
