<?xml version="1.0" encoding="UTF-8" standalone="no"?>
<svg
   width="24"
   height="24"
   version="1.1"
   id="svg7"
   sodipodi:docname="indicator-workspaces-1.svg"
   inkscape:version="1.1.2 (0a00cf5339, 2022-02-04)"
   xmlns:inkscape="http://www.inkscape.org/namespaces/inkscape"
   xmlns:sodipodi="http://sodipodi.sourceforge.net/DTD/sodipodi-0.dtd"
   xmlns="http://www.w3.org/2000/svg"
   xmlns:svg="http://www.w3.org/2000/svg">
  <sodipodi:namedview
     id="namedview9"
     pagecolor="#ffffff"
     bordercolor="#666666"
     borderopacity="1.0"
     inkscape:pageshadow="2"
     inkscape:pageopacity="0.0"
     inkscape:pagecheckerboard="0"
     showgrid="false"
     inkscape:zoom="31.625"
     inkscape:cx="12"
     inkscape:cy="12"
     inkscape:window-width="1822"
     inkscape:window-height="928"
     inkscape:window-x="0"
     inkscape:window-y="35"
     inkscape:window-maximized="1"
     inkscape:current-layer="svg7" />
  <defs
     id="defs3">
    <style
       id="current-color-scheme"
       type="text/css">
   .ColorScheme-Text { color:#eeeeec; } .ColorScheme-Highlight { color:#367bf0; } .ColorScheme-NeutralText { color:#ffcc44; } .ColorScheme-PositiveText { color:#3db47e; } .ColorScheme-NegativeText { color:#dd4747; }
  </style>
  </defs>
  <path
     style="fill:currentColor"
     class="ColorScheme-Text"
     d="M 6,4 C 4.892,4 4,4.892 4,6 v 9 c 0,1.108 0.892,2 2,2 h 4 l -2.2890625,2 c -1.0374129,0.9062 -0.9473684,1 0,1 h 7.5781245 c 0.94737,0 0.947368,0 0,-1 L 13,17 h 4 c 1.108,0 2,-0.892 2,-2 V 6 C 19,4.892 18.108,4 17,4 Z M 6,6.4260736 6.4255323,6 H 16.290857 V 6 L 17,6.4578225 V 14.394444 L 16.417259,15 v 0 H 6.3309524 v 0 L 6,14.647469 Z M 11,7 v 1 h -1 v 1 h 1 v 4 h -1 v 1 h 3 V 13 H 12 V 7 Z"
     id="path5"
     sodipodi:nodetypes="ssssccssccssssscccccccccccccccccccccccccc" />
</svg>
