<?xml version="1.0" encoding="UTF-8" standalone="no"?>
<svg
   width="24"
   height="24"
   version="1.1"
   id="svg127792"
   sodipodi:docname="insync-syncing.svg"
   inkscape:version="1.1.2 (0a00cf5339, 2022-02-04)"
   xmlns:inkscape="http://www.inkscape.org/namespaces/inkscape"
   xmlns:sodipodi="http://sodipodi.sourceforge.net/DTD/sodipodi-0.dtd"
   xmlns="http://www.w3.org/2000/svg"
   xmlns:svg="http://www.w3.org/2000/svg">
  <sodipodi:namedview
     id="namedview127794"
     pagecolor="#000000"
     bordercolor="#666666"
     borderopacity="1.0"
     inkscape:pageshadow="2"
     inkscape:pageopacity="0"
     inkscape:pagecheckerboard="0"
     showgrid="false"
     inkscape:zoom="34.458333"
     inkscape:cx="12.01451"
     inkscape:cy="12"
     inkscape:window-width="1920"
     inkscape:window-height="1051"
     inkscape:window-x="0"
     inkscape:window-y="29"
     inkscape:window-maximized="1"
     inkscape:current-layer="svg127792" />
  <defs
     id="defs127788">
    <style
       id="current-color-scheme"
       type="text/css">
   .ColorScheme-Text { color:#eeeeec; } .ColorScheme-Highlight { color:#367bf0; } .ColorScheme-NeutralText { color:#ffcc44; } .ColorScheme-PositiveText { color:#3db47e; } .ColorScheme-NegativeText { color:#dd4747; }
  </style>
  </defs>
  <path
     style="fill:currentColor"
     class="ColorScheme-Text"
     d="M 17.999817,4 C 13.095154,4 8.9290699,7.2299795 7.5154415,11.673828 8.2504219,11.249958 9.0811763,11.020089 9.929504,11.005859 11.397635,8.036477 14.453903,6 17.999817,6 Z m 0,4 c -2.546131,0 -4.782678,1.372955 -6.007813,3.416016 0.617161,0.268134 1.17385,0.658082 1.636719,1.146484 C 14.480561,11.030668 16.113357,10 17.999817,10 Z M 9.9900509,12 C 9.3135615,12.001344 8.6274785,12.174748 7.9998165,12.537109 6.0868405,13.641449 5.4325559,16.087251 6.5369259,18 c 1.104371,1.912649 3.5500151,2.567231 5.4628911,1.462891 1.912976,-1.104339 2.567262,-3.548188 1.46289,-5.460938 -0.690232,-1.195406 -1.902854,-1.901671 -3.183594,-1.992187 -0.09605,-0.0068 -0.192421,-0.01 -0.2890621,-0.0098 z m 6.5097661,0 c -0.828427,0 -1.5,0.671573 -1.5,1.5 0,0.828427 0.671573,1.5 1.5,1.5 0.828427,0 1.5,-0.671573 1.5,-1.5 0,-0.828427 -0.671573,-1.5 -1.5,-1.5 z m -6.5000005,0.400391 0.2301595,0.23016 0.269841,0.26984 0.5,0.5 -0.5,0.5 -0.5000005,0.5 V 14 c -1.1045695,0 -2,0.895431 -2,2 v 1.6839 0 C 7.8536483,17.553164 7.7218613,17.95611 7.6055624,17.80207 7.2167432,17.287072 7.0010411,16.655631 6.9998165,16 c 0,-1.656854 1.3431458,-3 3,-3 l 0,-0.302679 z m 2.4409895,1.861165 c 0.166111,0.148574 -0.12734,-0.178235 0,0 0.359333,0.50295 0.557836,1.109569 0.559011,1.738444 0,1.656854 -1.343146,3 -3.0000005,3 v 0.5 l -0.5,-0.5 -0.5,-0.5 0.5,-0.5 0.5,-0.5 V 18 c 1.1045695,0 2.0000005,-0.89543 2.0000005,-2 V 14.354385 Z M 14.999817,16 v 4 h 3 v -4 z"
     id="path127790"
     sodipodi:nodetypes="ccccccccccccccccccssssscccccccsccscccccsccccccccsccccccc" />
</svg>
