<?xml version="1.0" encoding="UTF-8" standalone="no"?>
<svg
   width="24"
   height="24"
   version="1.1"
   id="svg136990"
   sodipodi:docname="insync-synced.svg"
   inkscape:version="1.1.2 (0a00cf5339, 2022-02-04)"
   xmlns:inkscape="http://www.inkscape.org/namespaces/inkscape"
   xmlns:sodipodi="http://sodipodi.sourceforge.net/DTD/sodipodi-0.dtd"
   xmlns="http://www.w3.org/2000/svg"
   xmlns:svg="http://www.w3.org/2000/svg">
  <sodipodi:namedview
     id="namedview136992"
     pagecolor="#000000"
     bordercolor="#666666"
     borderopacity="1.0"
     inkscape:pageshadow="2"
     inkscape:pageopacity="0"
     inkscape:pagecheckerboard="0"
     showgrid="false"
     inkscape:zoom="34.458333"
     inkscape:cx="12.01451"
     inkscape:cy="12"
     inkscape:window-width="1920"
     inkscape:window-height="1051"
     inkscape:window-x="0"
     inkscape:window-y="29"
     inkscape:window-maximized="1"
     inkscape:current-layer="svg136990" />
  <defs
     id="defs136986">
    <style
       id="current-color-scheme"
       type="text/css">
   .ColorScheme-Text { color:#eeeeec; } .ColorScheme-Highlight { color:#367bf0; } .ColorScheme-NeutralText { color:#ffcc44; } .ColorScheme-PositiveText { color:#3db47e; } .ColorScheme-NegativeText { color:#dd4747; }
  </style>
  </defs>
  <path
     style="fill:currentColor"
     class="ColorScheme-Text"
     d="M 17.999817,4 C 13.095154,4 8.9290699,7.2299795 7.5154415,11.673828 8.250422,11.249958 9.0811763,11.020089 9.929504,11.005859 11.397635,8.036477 14.453903,6 17.999817,6 Z m 0,4 c -2.546131,0 -4.782678,1.372955 -6.007813,3.416016 0.617161,0.268134 1.17385,0.658082 1.636719,1.146484 C 14.480561,11.030668 16.113357,10 17.999817,10 Z M 9.9900509,12 C 9.3135615,12.001344 8.6274785,12.174748 7.9998165,12.537109 6.0868405,13.641449 5.4325559,16.087251 6.5369259,18 c 1.104371,1.912649 3.5500151,2.567231 5.4628911,1.462891 1.912976,-1.104339 2.567262,-3.548188 1.46289,-5.460938 -0.690232,-1.195406 -1.902854,-1.901671 -3.183594,-1.992187 -0.09605,-0.0068 -0.192421,-0.01 -0.2890621,-0.0098 z m 6.5097661,0 c -0.828427,0 -1.5,0.671573 -1.5,1.5 0,0.828427 0.671573,1.5 1.5,1.5 0.828427,0 1.5,-0.671573 1.5,-1.5 0,-0.828427 -0.671573,-1.5 -1.5,-1.5 z m -4.743683,2.451599 0.479219,-0.06407 0.213657,0.179865 0.112018,0.481908 v 0 l -2.360101,2.809155 v 0 l -0.3464526,-0.0082 -1.5733228,-1.311103 -0.098415,-0.429808 v 0 l 0.3163055,-0.378988 v 0 l 0.4398269,0.05532 0.9984474,0.831534 z M 14.999817,16 v 4 h 3 v -4 z"
     id="path136988"
     sodipodi:nodetypes="ccccccccccccccccccsssssccccccccccccccccccccc" />
</svg>
