<?xml version="1.0" encoding="UTF-8" standalone="no"?>
<svg
   width="24"
   height="24"
   version="1.1"
   id="svg156054"
   sodipodi:docname="keybase-update.svg"
   inkscape:version="1.1.2 (0a00cf5339, 2022-02-04)"
   xmlns:inkscape="http://www.inkscape.org/namespaces/inkscape"
   xmlns:sodipodi="http://sodipodi.sourceforge.net/DTD/sodipodi-0.dtd"
   xmlns="http://www.w3.org/2000/svg"
   xmlns:svg="http://www.w3.org/2000/svg">
  <sodipodi:namedview
     id="namedview156056"
     pagecolor="#000000"
     bordercolor="#666666"
     borderopacity="1.0"
     inkscape:pageshadow="2"
     inkscape:pageopacity="0"
     inkscape:pagecheckerboard="0"
     showgrid="false"
     inkscape:zoom="34.458333"
     inkscape:cx="12.01451"
     inkscape:cy="11.98549"
     inkscape:window-width="1880"
     inkscape:window-height="966"
     inkscape:window-x="0"
     inkscape:window-y="29"
     inkscape:window-maximized="1"
     inkscape:current-layer="svg156054" />
  <defs
     id="defs156050">
    <style
       id="current-color-scheme"
       type="text/css">
   .ColorScheme-Text { color:#eeeeec; } .ColorScheme-Highlight { color:#367bf0; } .ColorScheme-NeutralText { color:#ffcc44; } .ColorScheme-PositiveText { color:#3db47e; } .ColorScheme-NegativeText { color:#dd4747; }
  </style>
  </defs>
  <path
     style="fill:currentColor"
     class="ColorScheme-Text"
     d="m 10.215443,4.3340951 c -0.01849,0 0.04397,-0.2521911 -0.03926,-0.1178155 -0.124406,0.200859 -0.3016432,0.5189544 -0.4734616,0.855986 -0.4198008,0.8234632 -0.6207703,1.4559473 -0.6894531,2.1875 -0.016969,0.1807744 -0.013329,0.3586758 -0.00195,0.5332032 -0.00708,0.078624 -0.010999,0.157397 -0.011719,0.2363281 0,0.3216121 0.06468,0.625957 0.1601562,0.9160156 C 7.894699,9.509545 6.8233522,10.430382 6.0874908,11.589844 c -0.1810603,0.236758 -0.3410751,0.483545 -0.4570312,0.748047 -0.1822119,0.415634 -0.3173554,0.845821 -0.4199219,1.310547 -0.068248,0.275755 -0.1256893,0.554232 -0.1601563,0.841796 -0.00307,0.0256 0.00501,0.03097 0.017578,0.02734 -0.013155,0.110763 -0.030783,0.216029 -0.041016,0.332031 -0.032805,0.371885 -0.036745,0.525389 -0.011719,0.525391 l 3.3785987,-3.70983 v 0 l 0.3273776,0.267578 -0.7528503,2.522334 c 0.00607,0.0061 0.1375376,-0.04757 0.2929688,-0.11914 0.9549601,-0.439703 2.1451298,-1.206465 3.1972648,-1.332032 0.36284,-0.0433 1.621735,-0.04746 2,-0.0078 0.37305,0.03909 0.729972,0.199432 1.097657,0.380859 0.928844,-0.883409 2.1615,-1.376336 3.443359,-1.376965 0.04691,0.0019 -0.04684,-0.0033 0,0 -0.01597,-0.05208 0.09926,-0.103694 0.05468,-0.181653 -0.09589,-0.254803 -0.237999,-0.510365 -0.451172,-0.798828 C 16.812525,10.150762 15.884994,9.42878 14.837491,8.9492188 14.933832,8.6579794 14.9996,8.3524242 14.9996,8.0292969 14.999574,7.9537899 14.9975,7.8780222 14.9918,7.8027344 14.9944,7.7274754 15.0016,7.6521806 14.9977,7.578125 14.944526,6.5609826 14.349928,5.8631388 13.452725,5.4042969 12.977718,5.1613714 12.251068,5.0478117 11.776944,5.046875 11.185451,5.045709 10.735951,4.537145 10.446866,4.1210938 10.400591,4.0544931 10.229232,4.3340951 10.215443,4.3340951 Z M 17.9996,13 c -2.2091,0 -4,1.7909 -4,4 0,2.2091 1.7909,4 4,4 2.2091,0 4,-1.7909 4,-4 0,-2.2091 -1.7909,-4 -4,-4 z m -4.644531,0.990234 c -0.142321,-0.01491 -1.677283,-0.0061 -1.777344,0.0059 -0.664601,0.07932 -1.8290209,0.755645 -2.8984371,1.248047 -0.088747,0.04086 -0.1700516,0.07725 -0.2441406,0.107421 -0.037045,0.01508 -0.068655,0.0278 -0.1191407,0.04492 -0.025243,0.0086 -0.0507,0.01801 -0.1171874,0.0332 -0.033244,0.0076 -0.072608,0.01784 -0.171875,0.02344 -0.049633,0.0028 -0.2280842,-0.01164 -0.2285157,-0.01172 -2.157e-4,-4e-5 -0.2205474,-0.06634 -0.2207031,-0.06641 C 7.5775697,15.374966 7.2594609,15.160284 7.259366,15.160188 7.1296991,15.029856 6.7917492,15.13711 6.7489763,14.958307 v 0 L 5.7554598,16.048828 C 5.5831361,16.238164 5.3447643,16.354204 5.0894442,16.373047 5.2916066,17.722159 5.8835716,18.9828 6.7925692,20 h 6.9398448 0.274998 C 13.827391,19.745101 13.8846,19.83172 13.827391,19.745101 13.290645,18.932422 13.001636,17.978456 12.9996,17 c 3.68e-4,-1.000863 0.3011,-1.978583 0.863281,-2.806641 -0.212687,-0.105355 -0.393279,-0.191123 -0.507812,-0.203125 z m 4.983475,0.0287 c 0.114596,0 -0.111254,-0.01251 0,0 1.369949,0.154045 2.460705,1.230696 2.636317,2.594004 0.01632,0.126715 0,-0.131156 0,0 L 20.806687,17 h -0.54303 v 0 c 0,-0.127366 -0.275963,-0.251952 -0.298722,-0.372704 C 19.790318,15.700835 18.976803,15 17.9996,15 V 14.314464 Z M 8.9996004,16 c 0.5522847,0 1,0.447715 1,1 0,0.552285 -0.4477153,1 -1,1 -0.5522847,0 -1,-0.447715 -1,-1 0,-0.552285 0.4477153,-1 1,-1 z m 6.2718476,1 v 0 h 0.513219 l 0.228912,0.237702 c 0.01398,0.237701 -0.0092,-0.07795 0,0 0.104651,0.883722 0.7855,1.590854 1.656421,1.735268 0.107226,0.01778 -0.3296,-0.02703 0,0 l 0.3296,0.321621 v 0.481079 0 c -0.07349,0 -0.146361,0.221688 -0.218526,0.216493 -1.451135,-0.104464 -2.616393,-1.24108 -2.765371,-2.679445 C 15.005057,17.209931 15.271448,17 15.271448,17 Z"
     id="path156052"
     sodipodi:nodetypes="ssscccccscscsccccccsccccccccccscsssssssccscccsscccccccccsccccssccccscccsssssccccssccccssc" />
</svg>
