<?xml version="1.0" encoding="UTF-8" standalone="no"?>
<svg
   width="24"
   height="24"
   version="1"
   id="svg271389"
   sodipodi:docname="kotatogram-attention-panel.svg"
   inkscape:version="1.1.2 (0a00cf5339, 2022-02-04)"
   xmlns:inkscape="http://www.inkscape.org/namespaces/inkscape"
   xmlns:sodipodi="http://sodipodi.sourceforge.net/DTD/sodipodi-0.dtd"
   xmlns="http://www.w3.org/2000/svg"
   xmlns:svg="http://www.w3.org/2000/svg">
  <sodipodi:namedview
     id="namedview271391"
     pagecolor="#000000"
     bordercolor="#666666"
     borderopacity="1.0"
     inkscape:pageshadow="2"
     inkscape:pageopacity="0"
     inkscape:pagecheckerboard="0"
     showgrid="false"
     inkscape:zoom="34.458333"
     inkscape:cx="12.01451"
     inkscape:cy="12"
     inkscape:window-width="1920"
     inkscape:window-height="1051"
     inkscape:window-x="0"
     inkscape:window-y="29"
     inkscape:window-maximized="1"
     inkscape:current-layer="svg271389" />
  <defs
     id="defs271383">
    <style
       id="current-color-scheme"
       type="text/css">
   .ColorScheme-Text { color:#eeeeec; } .ColorScheme-Highlight { color:#367bf0; } .ColorScheme-NeutralText { color:#ffcc44; } .ColorScheme-PositiveText { color:#3db47e; } .ColorScheme-NegativeText { color:#dd4747; }
  </style>
  </defs>
  <circle
     style="fill:currentColor"
     class="ColorScheme-Highlight"
     cx="21"
     cy="5"
     r="2"
     id="circle271385" />
  <path
     style="fill:currentColor"
     class="ColorScheme-Text"
     d="m 12,4 c -4.418278,0 -8,3.581722 -8,8 0,4.418278 3.581722,8 8,8 4.418278,0 8,-3.581722 8,-8 0,-4.418278 -3.581722,-8 -8,-8 z m 0,5 0.576172,1 c 0,0 1.423828,3 3.423828,3 1.174251,0 2.003786,-0.689433 2.488604,-1.258731 0.340931,-0.400338 0.442486,0.04464 0.442486,0.04464 0,0 0.06891,-0.462684 0,0 C 18.757584,12.950882 18.147211,15 16,15 c -2,0 -4,-1 -4,-1 0,0 -2,1 -4,1 -2.0516518,0 -2.7002119,-1.870789 -2.9052322,-3.053562 -0.094768,-0.546721 0,0 0,0 0,0 0.064584,-0.627734 0.3832877,-0.244773 C 5.9577297,12.278052 6.7983779,13 8,13 c 2,0 3.423828,-3 3.423828,-3 z"
     id="path271387"
     sodipodi:nodetypes="sssssccsscsscsscsscc" />
</svg>
