<?xml version="1.0" encoding="UTF-8" standalone="no"?>
<svg
   width="24"
   height="24"
   version="1"
   id="svg263076"
   sodipodi:docname="kotatogram-mute-panel.svg"
   inkscape:version="1.1.2 (0a00cf5339, 2022-02-04)"
   xmlns:inkscape="http://www.inkscape.org/namespaces/inkscape"
   xmlns:sodipodi="http://sodipodi.sourceforge.net/DTD/sodipodi-0.dtd"
   xmlns="http://www.w3.org/2000/svg"
   xmlns:svg="http://www.w3.org/2000/svg">
  <sodipodi:namedview
     id="namedview263078"
     pagecolor="#000000"
     bordercolor="#666666"
     borderopacity="1.0"
     inkscape:pageshadow="2"
     inkscape:pageopacity="0"
     inkscape:pagecheckerboard="0"
     showgrid="false"
     inkscape:zoom="34.458333"
     inkscape:cx="12.01451"
     inkscape:cy="12"
     inkscape:window-width="1920"
     inkscape:window-height="1051"
     inkscape:window-x="0"
     inkscape:window-y="29"
     inkscape:window-maximized="1"
     inkscape:current-layer="svg263076" />
  <defs
     id="defs263072">
    <style
       id="current-color-scheme"
       type="text/css">
   .ColorScheme-Text { color:#eeeeec; } .ColorScheme-Highlight { color:#367bf0; } .ColorScheme-NeutralText { color:#ffcc44; } .ColorScheme-PositiveText { color:#3db47e; } .ColorScheme-NegativeText { color:#dd4747; }
  </style>
  </defs>
  <path
     style="fill:currentColor"
     class="ColorScheme-Text"
     d="m 21,3 c -1.104569,0 -2,0.8954305 -2,2 0,1.1045695 0.895431,2 2,2 1.104569,0 2,-0.8954305 2,-2 0,-1.1045695 -0.895431,-2 -2,-2 z m -9,1 c -4.418278,0 -8,3.581722 -8,8 0,4.418278 3.581722,8 8,8 4.418278,0 8,-3.581722 8,-8 0,-4.418278 -3.581722,-8 -8,-8 z m 0,5 0.576172,1 c 0,0 1.423828,3 3.423828,3 1.106133,0 1.906384,-0.611765 2.400752,-1.158602 0.399499,-0.441899 0.49415,0.163124 0.49415,0.163124 0,0 0.105098,-0.576261 0,0 C 18.678804,13.189406 18.018375,15 16,15 c -2,0 -4,-1 -4,-1 0,0 -2,1 -4,1 -2.0652631,0 -2.7087557,-1.895694 -2.9092544,-3.077011 -0.090746,-0.534663 0,0 0,0 0,0 0.066566,-0.608366 0.3811886,-0.228695 C 5.9505614,12.271877 6.79325,13 8,13 c 2,0 3.423828,-3 3.423828,-3 z"
     id="path263074"
     sodipodi:nodetypes="ssssssssssccsscsscsscsscc" />
</svg>
