<?xml version="1.0" encoding="UTF-8" standalone="no"?>
<svg
   width="24"
   height="24"
   version="1.1"
   id="svg11"
   sodipodi:docname="laptopattention.svg"
   inkscape:version="1.1.2 (0a00cf5339, 2022-02-04)"
   xmlns:inkscape="http://www.inkscape.org/namespaces/inkscape"
   xmlns:sodipodi="http://sodipodi.sourceforge.net/DTD/sodipodi-0.dtd"
   xmlns="http://www.w3.org/2000/svg"
   xmlns:svg="http://www.w3.org/2000/svg">
  <sodipodi:namedview
     id="namedview13"
     pagecolor="#ffffff"
     bordercolor="#666666"
     borderopacity="1.0"
     inkscape:pageshadow="2"
     inkscape:pageopacity="0.0"
     inkscape:pagecheckerboard="0"
     showgrid="false"
     inkscape:zoom="31.5"
     inkscape:cx="12"
     inkscape:cy="12"
     inkscape:window-width="1880"
     inkscape:window-height="966"
     inkscape:window-x="0"
     inkscape:window-y="29"
     inkscape:window-maximized="1"
     inkscape:current-layer="g9" />
  <defs
     id="defs3">
    <style
       id="current-color-scheme"
       type="text/css">
   .ColorScheme-Text { color:#eeeeec; } .ColorScheme-Highlight { color:#367bf0; } .ColorScheme-NeutralText { color:#ffcc44; } .ColorScheme-PositiveText { color:#3db47e; } .ColorScheme-NegativeText { color:#dd4747; }
  </style>
  </defs>
  <g
     transform="translate(1,1)"
     id="g9">
    <path
       style="fill:currentColor"
       class="ColorScheme-Text"
       d="M 4,4 C 3.446,4 3,4.446 3,5 V 15 C 3,15.554 3.446,16 4,16 H 2 V 17 C 2,17.554 2.892,18 4,18 H 17 V 15 H 5 V 6 H 17 V 9 H 19 V 5 C 19,4.446 18.554,4 18,4 Z M 9,16 H 13 V 17 H 9 Z"
       id="path5" />
    <path
       style="fill:currentColor"
       class="ColorScheme-NeutralText"
       d="m 18,10.308639 v 0 V 14 l 0.25,2 h 1.5 L 20,14 V 10.340449 L 19.800328,10 v 0 H 18.275867 Z M 18.307741,17 18,17.29248 v 1.39725 L 18.339615,19 v 0 h 1.365095 v 0 L 20,18.594298 V 17.32429 L 19.640962,17 v 0 z"
       id="path7"
       sodipodi:nodetypes="cccccccccccccccccccccccc" />
  </g>
</svg>
