<?xml version="1.0" encoding="UTF-8" standalone="no"?>
<svg
   width="24"
   height="24"
   version="1.1"
   id="svg301345"
   sodipodi:docname="mailspring-tray-full-newitems.svg"
   inkscape:version="1.1.2 (0a00cf5339, 2022-02-04)"
   xmlns:inkscape="http://www.inkscape.org/namespaces/inkscape"
   xmlns:sodipodi="http://sodipodi.sourceforge.net/DTD/sodipodi-0.dtd"
   xmlns="http://www.w3.org/2000/svg"
   xmlns:svg="http://www.w3.org/2000/svg">
  <sodipodi:namedview
     id="namedview301347"
     pagecolor="#060606"
     bordercolor="#666666"
     borderopacity="1.0"
     inkscape:pageshadow="2"
     inkscape:pageopacity="0"
     inkscape:pagecheckerboard="0"
     showgrid="false"
     inkscape:zoom="34.458333"
     inkscape:cx="12.01451"
     inkscape:cy="12"
     inkscape:window-width="1920"
     inkscape:window-height="1051"
     inkscape:window-x="0"
     inkscape:window-y="29"
     inkscape:window-maximized="1"
     inkscape:current-layer="svg301345" />
  <defs
     id="defs301339">
    <style
       id="current-color-scheme"
       type="text/css">
   .ColorScheme-Text { color:#eeeeec; } .ColorScheme-Highlight { color:#367bf0; } .ColorScheme-NeutralText { color:#ffcc44; } .ColorScheme-PositiveText { color:#3db47e; } .ColorScheme-NegativeText { color:#dd4747; }
  </style>
  </defs>
  <path
     style="fill:currentColor"
     class="ColorScheme-Text"
     d="M 12,3.9999999 C 7.581722,3.9999999 3.9999999,7.581722 4,12 c 0,4.418278 3.581722,8 8,8 4.418278,0 8,-3.581722 8,-8 0,-4.418278 -3.581722,-8.0000001 -8,-8.0000001 z m -4.2929434,4 v 0 h 8.6566904 v 0 l 0.190677,0.4455765 -4.290536,4.2905356 v 0 L 11.73489,12.73489 7.5614723,8.5614722 Z M 7,10.003786 7.4511312,9.8651933 l 2.6129048,2.6129047 0.02829,0.429571 v 0 l -2.6503848,2.650385 v 0 L 7,15.210162 Z m 10,-0.025263 v 0 5.4279583 l -0.409555,0.183964 v 0 l -2.596164,-2.596164 -0.04861,-0.525889 v 0 l 2.653801,-2.6538009 z m -6,3.4355393 0.292969,0.292969 c 0.39053,0.390368 1.023532,0.390368 1.414062,0 L 13,13.414062 l 2.277212,2.277212 v 0 L 15.168806,16 H 8.9414895 v 0 L 8.7743187,15.639744 Z"
     id="path301341"
     sodipodi:nodetypes="sssssccccccccccccccccccccccccccccccccccccccccc" />
  <circle
     style="fill:currentColor"
     class="ColorScheme-Highlight"
     cx="21"
     cy="19"
     r="2"
     id="circle301343" />
</svg>
