<?xml version="1.0" encoding="UTF-8" standalone="no"?>
<svg
   width="24"
   height="24"
   version="1.1"
   id="svg353090"
   sodipodi:docname="mailspring-tray-full.svg"
   inkscape:version="1.1.2 (0a00cf5339, 2022-02-04)"
   xmlns:inkscape="http://www.inkscape.org/namespaces/inkscape"
   xmlns:sodipodi="http://sodipodi.sourceforge.net/DTD/sodipodi-0.dtd"
   xmlns="http://www.w3.org/2000/svg"
   xmlns:svg="http://www.w3.org/2000/svg">
  <sodipodi:namedview
     id="namedview353092"
     pagecolor="#000000"
     bordercolor="#666666"
     borderopacity="1.0"
     inkscape:pageshadow="2"
     inkscape:pageopacity="0"
     inkscape:pagecheckerboard="0"
     showgrid="false"
     inkscape:zoom="34.458333"
     inkscape:cx="12.01451"
     inkscape:cy="12"
     inkscape:window-width="1920"
     inkscape:window-height="1051"
     inkscape:window-x="0"
     inkscape:window-y="29"
     inkscape:window-maximized="1"
     inkscape:current-layer="svg353090" />
  <defs
     id="defs353086">
    <style
       id="current-color-scheme"
       type="text/css">
   .ColorScheme-Text { color:#eeeeec; } .ColorScheme-Highlight { color:#367bf0; } .ColorScheme-NeutralText { color:#ffcc44; } .ColorScheme-PositiveText { color:#3db47e; } .ColorScheme-NegativeText { color:#dd4747; }
  </style>
  </defs>
  <path
     style="fill:currentColor"
     class="ColorScheme-Text"
     d="m 12,4 c -4.418278,0 -8,3.581722 -8,8 0,4.418278 3.581722,8 8,8 4.418278,0 8,-3.581722 8,-8 C 20,7.581722 16.418278,4 12,4 Z M 7.704738,7.9999999 v 0 h 8.641391 v 0 l 0.124012,0.5298595 -4.170617,4.1706166 v 0 L 11.728528,12.728528 7.5145933,8.5145932 Z M 7,10.028605 7.4239957,9.8380578 l 2.6423173,2.6423172 0.02315,0.430161 v 0 L 7.4542654,15.545735 7,15.491056 v 0 z m 10,-0.05556 v 0 5.519169 l -0.333256,0.17453 v 0 l -2.729438,-2.729438 v 0 l -0.03783,-0.422716 2.704282,-2.7042823 z m -6,3.441017 0.292969,0.292969 c 0.39053,0.390368 1.023532,0.390368 1.414062,0 L 13,13.414062 15.254526,15.668588 15.047357,16 v 0 H 8.9650722 v 0 L 8.7672097,15.646853 Z"
     id="path353088"
     sodipodi:nodetypes="sssssccccccccccccccccccccccccccccccccccccccccc" />
</svg>
