<?xml version="1.0" encoding="UTF-8" standalone="no"?>
<svg
   width="24"
   height="24"
   version="1.1"
   id="svg11"
   sodipodi:docname="megaalert.svg"
   inkscape:version="1.1.2 (0a00cf5339, 2022-02-04)"
   xmlns:inkscape="http://www.inkscape.org/namespaces/inkscape"
   xmlns:sodipodi="http://sodipodi.sourceforge.net/DTD/sodipodi-0.dtd"
   xmlns="http://www.w3.org/2000/svg"
   xmlns:svg="http://www.w3.org/2000/svg">
  <sodipodi:namedview
     id="namedview13"
     pagecolor="#ffffff"
     bordercolor="#666666"
     borderopacity="1.0"
     inkscape:pageshadow="2"
     inkscape:pageopacity="0.0"
     inkscape:pagecheckerboard="0"
     showgrid="false"
     inkscape:zoom="31.5"
     inkscape:cx="12"
     inkscape:cy="12"
     inkscape:window-width="1880"
     inkscape:window-height="966"
     inkscape:window-x="0"
     inkscape:window-y="29"
     inkscape:window-maximized="1"
     inkscape:current-layer="svg11" />
  <defs
     id="defs3">
    <style
       id="current-color-scheme"
       type="text/css">
   .ColorScheme-Text { color:#eeeeec; } .ColorScheme-Highlight { color:#367bf0; } .ColorScheme-NeutralText { color:#ffcc44; } .ColorScheme-PositiveText { color:#3db47e; } .ColorScheme-NegativeText { color:#dd4747; }
  </style>
  </defs>
  <g
     style="fill:currentColor"
     class="ColorScheme-Text"
     transform="translate(1,1.0002371)"
     id="g7">
    <path
       style="fill:currentColor"
       class="ColorScheme-Text"
       d="m 11,3 c -4.4177135,0 -8,3.578744 -8,8 0,4.417713 3.5787438,8 8,8 0.161955,0 0.322413,-0.006 0.481609,-0.01676 0.161645,-0.01089 0.08754,-0.377654 0.246838,-0.396784 -0.234444,-0.351046 0.07296,0.119916 0,0 C 11.255563,17.809225 11.002268,16.915107 11,16 c 0.0025,-1.571037 0.743168,-3.049567 2,-3.992188 V 11.5 L 12,13 H 10 L 9,11.5 V 14 H 7 V 8 h 2 l 2,3 2,-3 h 2 v 3.105469 C 15.328942,11.036799 15.663969,11.001464 16,11 c 0.916909,0.0018 1.812886,0.255588 2.591443,0.729857 0.11817,0.07198 0.279552,-0.334726 0.391975,-0.252693 0.01919,-0.160164 -0.01092,0.162467 0,0 C 18.994013,11.319463 19,11.160514 19,11 19,6.5822866 15.421256,3 11,3 Z"
       id="path5"
       sodipodi:nodetypes="sssscscccccccccccccccscsss" />
  </g>
  <path
     style="fill:currentColor"
     class="ColorScheme-NeutralText"
     d="m 16.990234,12.998284 c -0.676518,0.0013 -1.362499,0.174662 -1.990234,0.537109 -1.9132,1.1046 -2.567391,3.551644 -1.462891,5.464844 1.1045,1.9131 3.549791,2.567491 5.462891,1.462891 1.9132,-1.1046 2.569344,-3.549691 1.464844,-5.462891 -0.690313,-1.195688 -1.904658,-1.90165 -3.185547,-1.992188 -0.09607,-0.0068 -0.192417,-0.01 -0.289063,-0.0098 z M 16,14.356178 16.292515,14.000237 h 1.427928 v 0 L 18,14.387988 v 3.365161 l -0.247683,0.247088 v 0 H 16.260641 L 16,17.721339 v 0 z m 0,4.644059 h 2 v 1 h -2 z"
     id="path9"
     sodipodi:nodetypes="ccccccccccccccccccccccccc" />
</svg>
