<?xml version="1.0" encoding="UTF-8" standalone="no"?>
<svg
   width="24"
   height="24"
   version="1.1"
   id="svg399076"
   sodipodi:docname="megawarning.svg"
   inkscape:version="1.1.2 (0a00cf5339, 2022-02-04)"
   xmlns:inkscape="http://www.inkscape.org/namespaces/inkscape"
   xmlns:sodipodi="http://sodipodi.sourceforge.net/DTD/sodipodi-0.dtd"
   xmlns="http://www.w3.org/2000/svg"
   xmlns:svg="http://www.w3.org/2000/svg">
  <sodipodi:namedview
     id="namedview399078"
     pagecolor="#ffffff"
     bordercolor="#666666"
     borderopacity="1.0"
     inkscape:pageshadow="2"
     inkscape:pageopacity="0.0"
     inkscape:pagecheckerboard="0"
     showgrid="false"
     inkscape:zoom="34.458333"
     inkscape:cx="12.01451"
     inkscape:cy="12"
     inkscape:window-width="1920"
     inkscape:window-height="1051"
     inkscape:window-x="0"
     inkscape:window-y="29"
     inkscape:window-maximized="1"
     inkscape:current-layer="svg399076" />
  <defs
     id="defs399068">
    <style
       id="current-color-scheme"
       type="text/css">
   .ColorScheme-Text { color:#eeeeec; } .ColorScheme-Highlight { color:#367bf0; } .ColorScheme-NeutralText { color:#ffcc44; } .ColorScheme-PositiveText { color:#3db47e; } .ColorScheme-NegativeText { color:#dd4747; }
  </style>
  </defs>
  <g
     transform="translate(1,1.0002371)"
     style="fill:currentColor"
     class="ColorScheme-Text"
     id="g399072">
    <path
       style="fill:currentColor"
       class="ColorScheme-Text"
       d="m 11,3 c -4.4177135,0 -8,3.578744 -8,8 0,4.417713 3.5787438,8 8,8 0.326401,0 0.646718,-0.02453 0.962891,-0.0625 A 5,5 0 0 1 11,16 5,5 0 0 1 13,12.007812 L 13,11.5 12,13 10,13 9,11.5 9,14 7,14 7,8 l 2,0 2,3 2,-3 2,0 0,3.105469 A 5,5 0 0 1 16,11 5,5 0 0 1 18.9375,11.960938 C 18.975324,11.645309 19,11.325879 19,11 19,6.5822866 15.421256,3 11,3 Z"
       id="path399070" />
  </g>
  <path
     style="fill:currentColor"
     class="ColorScheme-NeutralText"
     d="M 17.279297,13.008049 C 16.510764,12.953728 15.717412,13.121168 15,13.535393 c -1.9132,1.1046 -2.567391,3.551644 -1.462891,5.464844 1.1045,1.9131 3.549791,2.567491 5.462891,1.462891 1.9132,-1.1046 2.569344,-3.549691 1.464844,-5.462891 -0.690313,-1.195688 -1.904658,-1.901651 -3.185547,-1.992188 z m -1.849797,2.027532 0.356621,0.04374 1.213879,1.21388 1.198359,-1.19836 0.401408,-0.03 v 0 l 0.336987,0.336987 0.0016,0.36711 v 0 l -1.231292,1.231292 1.228296,1.228296 v 0 L 18.877298,18.658122 18.59442,18.941 18.224143,18.9314 v 0 L 17,17.707268 15.842419,18.86485 15.389917,18.92531 v 0 l -0.348483,-0.348483 v 0 l 0.0536,-0.378656 1.197935,-1.197934 -1.231504,-1.231503 v 0 l 0.0017,-0.366843 z"
     id="path399074"
     sodipodi:nodetypes="sccccsccccccccccccccccccccccccccccc" />
</svg>
