<?xml version="1.0" encoding="UTF-8" standalone="no"?>
<svg
   width="24"
   height="24"
   version="1.1"
   id="svg13"
   sodipodi:docname="mic-off.svg"
   inkscape:version="1.1.2 (0a00cf5339, 2022-02-04)"
   xmlns:inkscape="http://www.inkscape.org/namespaces/inkscape"
   xmlns:sodipodi="http://sodipodi.sourceforge.net/DTD/sodipodi-0.dtd"
   xmlns="http://www.w3.org/2000/svg"
   xmlns:svg="http://www.w3.org/2000/svg">
  <sodipodi:namedview
     id="namedview15"
     pagecolor="#000000"
     bordercolor="#666666"
     borderopacity="1.0"
     inkscape:pageshadow="2"
     inkscape:pageopacity="0"
     inkscape:pagecheckerboard="0"
     showgrid="false"
     inkscape:zoom="31.625"
     inkscape:cx="12"
     inkscape:cy="12"
     inkscape:window-width="1822"
     inkscape:window-height="928"
     inkscape:window-x="0"
     inkscape:window-y="35"
     inkscape:window-maximized="1"
     inkscape:current-layer="g7" />
  <defs
     id="defs3">
    <style
       id="current-color-scheme"
       type="text/css">
   .ColorScheme-Text { color:#eeeeec; } .ColorScheme-Highlight { color:#367bf0; } .ColorScheme-NeutralText { color:#ffcc44; } .ColorScheme-PositiveText { color:#3db47e; } .ColorScheme-NegativeText { color:#dd4747; }
  </style>
  </defs>
  <g
     transform="translate(-545 403.01)"
     id="g11">
    <g
       transform="translate(546 -402.01)"
       id="g9">
      <g
         transform="translate(-225 -647.36)"
         id="g7">
        <path
           style="opacity:0.35;fill:currentColor"
           class="ColorScheme-Text"
           transform="translate(225,647.36)"
           d="M 11,3 C 9.754,3 8.6889,3.7515 8.2344,4.8281 v 0.00195 l 5.360551,5.359063 v 0 L 14,9.9795655 V 6.00005 c 0,-1.6621 -1.338,-3 -3,-3 z M 5.3438,3.9375 3.9375,5.3438 8,9.4062 V 11 c 0,1.6621 1.3379,3 3,3 0.46584,0 0.90068,-0.11309 1.291,-0.30273 l 0.72852,0.72852 c -0.592,0.352 -1.271,0.574 -2.02,0.574 -2.2334,0 -4,-1.767 -4,-4 v -1 h -2 v 1 c 0,2.9695 2.1624,5.4322 5,5.9062 v 2.094 h 2 v -2.0938 c 0.9102,-0.15207 1.7376,-0.52772 2.459,-1.041 l 2.197,2.197 1.406,-1.406 -12.718,-12.718 z M 15,10 v 1 c 0,0.18587 -0.02903,0.36236 -0.05273,0.54102 l 1.399086,1.399086 0.348052,-0.06835 c 0.03935,-0.100746 0,0 0,0 0.195492,-0.589315 0.305562,-1.21764 0.305562,-1.872034 v -1 h -2 z"
           id="path5"
           sodipodi:nodetypes="ccccccscccccssccssccsccccccccccscccssccc" />
      </g>
    </g>
  </g>
</svg>
