<?xml version="1.0" encoding="UTF-8" standalone="no"?>
<svg
   width="24"
   height="24"
   version="1.1"
   id="svg161338"
   sodipodi:docname="yum-indicator-info.svg"
   inkscape:version="1.1.2 (0a00cf5339, 2022-02-04)"
   xmlns:inkscape="http://www.inkscape.org/namespaces/inkscape"
   xmlns:sodipodi="http://sodipodi.sourceforge.net/DTD/sodipodi-0.dtd"
   xmlns="http://www.w3.org/2000/svg"
   xmlns:svg="http://www.w3.org/2000/svg">
  <sodipodi:namedview
     id="namedview161340"
     pagecolor="#000000"
     bordercolor="#666666"
     borderopacity="1.0"
     inkscape:pageshadow="2"
     inkscape:pageopacity="0"
     inkscape:pagecheckerboard="0"
     showgrid="false"
     inkscape:zoom="34.458333"
     inkscape:cx="12.01451"
     inkscape:cy="12"
     inkscape:window-width="1920"
     inkscape:window-height="1051"
     inkscape:window-x="0"
     inkscape:window-y="29"
     inkscape:window-maximized="1"
     inkscape:current-layer="g161336" />
  <defs
     id="defs161330">
    <style
       id="current-color-scheme"
       type="text/css">
   .ColorScheme-Text { color:#eeeeec; } .ColorScheme-Highlight { color:#367bf0; } .ColorScheme-NeutralText { color:#ffcc44; } .ColorScheme-PositiveText { color:#3db47e; } .ColorScheme-NegativeText { color:#dd4747; }
  </style>
  </defs>
  <g
     id="g161336">
    <path
       style="fill:currentColor;fill-rule:evenodd"
       class="ColorScheme-Text"
       d="M 10,10.312964 10.387981,10 h 2.301797 v 0 L 13,10.387754 V 15 h 0.751374 L 14,15.275867 v 0 1.345488 0 L 13.623867,17 H 10.27279 v 0 L 10,16.72772 10,15.239565 10.324006,15 v 0 H 11 v -3 h -0.573382 v 0 L 10,11.6594 Z M 11.417699,7 v 0 h 1.287438 V 7 L 13,7.4341635 V 8.6863428 L 12.678207,9 V 9 H 11.360179 L 11,8.6068923 v 0 -1.2837027 z m 0.334272,-2.7791282 c -0.08067,0.073976 0.08461,-0.073249 0,0 C 9.7129081,5.9861178 6.5889284,7.5220472 5.2354629,7.9351655 5.1496082,7.961371 5.0009765,8.1784291 5,8 5,8.0594236 5.0009765,8.1784291 5.0009765,8.1784291 5.058716,13.461157 7.6737489,19.120906 12,20 c 4.316747,-0.877163 6.929786,-6.513999 6.998606,-11.7867492 9.29e-4,-0.071154 -0.251397,-0.2123764 -0.251397,-0.2833853 -0.07563,-0.018071 0.09261,0.028593 0,0 -1.363061,-0.4208639 -4.469648,-1.951603 -6.499971,-3.7096689 -0.08434,-0.073028 -0.414847,0.074424 -0.495267,6.752e-4 z"
       id="path161332"
       sodipodi:nodetypes="cccccccccccccccccccccccccccccccccccccscsscscscss" />
    <circle
       style="fill:currentColor"
       class="ColorScheme-Highlight"
       cx="19"
       cy="19"
       r="2"
       id="circle161334" />
  </g>
</svg>
