<?xml version="1.0" encoding="UTF-8" standalone="no"?>
<svg
   width="24"
   height="24"
   version="1.1"
   id="svg7"
   sodipodi:docname="mstdn-panel.svg"
   inkscape:version="1.1.2 (0a00cf5339, 2022-02-04)"
   xmlns:inkscape="http://www.inkscape.org/namespaces/inkscape"
   xmlns:sodipodi="http://sodipodi.sourceforge.net/DTD/sodipodi-0.dtd"
   xmlns="http://www.w3.org/2000/svg"
   xmlns:svg="http://www.w3.org/2000/svg">
  <sodipodi:namedview
     id="namedview9"
     pagecolor="#ffffff"
     bordercolor="#666666"
     borderopacity="1.0"
     inkscape:pageshadow="2"
     inkscape:pageopacity="0.0"
     inkscape:pagecheckerboard="0"
     showgrid="false"
     inkscape:zoom="31.625"
     inkscape:cx="12"
     inkscape:cy="12"
     inkscape:window-width="1822"
     inkscape:window-height="928"
     inkscape:window-x="0"
     inkscape:window-y="35"
     inkscape:window-maximized="1"
     inkscape:current-layer="svg7" />
  <defs
     id="defs3">
    <style
       id="current-color-scheme"
       type="text/css">
   .ColorScheme-Text { color:#eeeeec; } .ColorScheme-Highlight { color:#367bf0; } .ColorScheme-NeutralText { color:#ffcc44; } .ColorScheme-PositiveText { color:#3db47e; } .ColorScheme-NegativeText { color:#dd4747; }
  </style>
  </defs>
  <path
     style="fill:currentColor"
     class="ColorScheme-Text"
     d="M 9.6659888,4 C 7.080655,4 4.9999729,6.1018375 4.9999729,8.7128906 v 2.5742184 c 0,0.0034 0.002,0.0064 0.002,0.0098 0.0024,1.722632 0.163625,5.562883 1.521485,7.109375 C 7.747042,19.799811 10.599144,20 11.751976,20 c 2.04875,0 3.248047,-0.802734 3.248047,-0.802734 V 17.5 c 0,0 -1.521099,0.525921 -2.980469,0.5 -1.049871,-0.02868 -2.694649,-0.44019 -2.919921,-1.599609 -0.02997,-0.143879 0.02142,0.1559 0,0 C 9.308206,16.428956 9.44947,16 9.6660428,16 h 4.6679682 c 2.585334,0 4.666016,-2.101838 4.666016,-4.712891 V 8.7128906 C 19.000027,6.1018375 16.919345,4 14.334011,4 Z M 8.999973,8 c 0.5522848,-1e-7 1.0000002,0.4477152 1.0000002,1 0,0.5522848 -0.4477154,1 -1.0000002,1 -0.5522847,0 -1,-0.4477153 -1,-1 0,-0.5522847 0.4477153,-1 1,-1 z"
     id="path5"
     sodipodi:nodetypes="sssccscccccsssssssssss" />
</svg>
