<?xml version="1.0" encoding="UTF-8" standalone="no"?>
<svg
   width="24"
   height="24"
   version="1.1"
   id="svg4"
   sodipodi:docname="night-light-disabled-symbolic.svg"
   inkscape:version="1.1.2 (0a00cf5339, 2022-02-04)"
   xmlns:inkscape="http://www.inkscape.org/namespaces/inkscape"
   xmlns:sodipodi="http://sodipodi.sourceforge.net/DTD/sodipodi-0.dtd"
   xmlns="http://www.w3.org/2000/svg"
   xmlns:svg="http://www.w3.org/2000/svg">
  <defs
     id="defs8" />
  <sodipodi:namedview
     id="namedview6"
     pagecolor="#000000"
     bordercolor="#666666"
     borderopacity="1.0"
     inkscape:pageshadow="2"
     inkscape:pageopacity="0"
     inkscape:pagecheckerboard="0"
     showgrid="false"
     inkscape:zoom="24.365721"
     inkscape:cx="11.984049"
     inkscape:cy="12.00457"
     inkscape:window-width="1240"
     inkscape:window-height="847"
     inkscape:window-x="120"
     inkscape:window-y="31"
     inkscape:window-maximized="1"
     inkscape:current-layer="svg4" />
  <path
     style="opacity:0.35;fill:#eeeeec"
     d="m 12,3 c -0.554,0 -1,0.446 -1,1 v 2.0917969 c 0.661862,-0.1125401 1.337919,-0.1132003 2,-0.00195 V 4 C 13,3.446 12.554,3 12,3 Z M 6.34375,5.3417969 c -0.2556191,0 -0.5111627,0.099053 -0.7070312,0.2949219 -0.3917372,0.3917371 -0.3917372,1.0223253 0,1.4140624 L 7.1152344,8.5292969 7.8300781,9.2441406 C 6.5205762,11.225733 6.7858803,13.8551 8.4648438,15.535156 c 1.6804412,1.675642 4.3072472,1.939221 6.2871092,0.63086 l 0.722656,0.722656 1.47461,1.474609 c 0.391737,0.391737 1.022325,0.391737 1.414062,0 0.391737,-0.391737 0.391737,-1.022325 0,-1.414062 L 16.884766,15.470703 16.169922,14.755859 9.2460938,7.8320312 8.5253906,7.1113281 l -0.099609,-0.099609 -1.375,-1.375 C 6.8549127,5.4408502 6.5993691,5.3417969 6.34375,5.3417969 Z m 11.3125,0 c -0.255619,0 -0.511163,0.099053 -0.707031,0.2949219 l -1.478516,1.4785156 c 0.274663,0.192262 0.532728,0.4072071 0.771485,0.6425781 0.236551,0.2373571 0.452802,0.4941144 0.646484,0.7675781 l 1.474609,-1.4746094 c 0.391737,-0.3917371 0.391737,-1.0223253 0,-1.4140624 C 18.167413,5.4408502 17.911869,5.3417969 17.65625,5.3417969 Z M 11.927734,7 c -0.224439,0.00495 -0.448034,0.025008 -0.669282,0.059931 -0.221157,0.034909 0.03664,0.5614268 -0.178332,0.6258081 v 0 l 5.282724,5.2843917 v 0 c 0.06187,-0.211277 0.539384,0.0057 0.572627,-0.208396 C 17.177804,11.201264 16.668301,9.6012928 15.535156,8.4648438 14.579995,7.5092061 13.278737,6.9808121 11.927734,7 Z M 4,11 c -0.554,0 -1,0.446 -1,1 0,0.554 0.446,1 1,1 H 6.0917969 C 5.9792568,12.338138 5.9785966,11.662081 6.0898438,11 Z m 13.908203,0 c 0.11254,0.661862 0.1132,1.337919 0.002,2 H 20 c 0.554,0 1,-0.446 1,-1 0,-0.554 -0.446,-1 -1,-1 z m -10.7968749,4.474609 -1.4746093,1.47461 c -0.3917372,0.391737 -0.3917372,1.022325 0,1.414062 0.3917371,0.391737 1.0223253,0.391737 1.4140624,0 L 8.5292969,16.884766 C 8.2546341,16.692504 7.9965693,16.477559 7.7578125,16.242188 7.5212609,16.004831 7.3050098,15.748073 7.1113281,15.474609 Z M 13,17.908203 c -0.661862,0.11254 -1.337919,0.1132 -2,0.002 V 20 c 0,0.554 0.446,1 1,1 0.554,0 1,-0.446 1,-1 z"
     id="path2"
     sodipodi:nodetypes="ssccssssscccccssscccccsssscccssscsccccsccsssccsccsssccssscccccsssc" />
</svg>
