<?xml version="1.0" encoding="UTF-8" standalone="no"?>
<svg
   width="24"
   height="24"
   version="1.1"
   id="svg4"
   sodipodi:docname="notification-disabled-symbolic.svg"
   inkscape:version="1.1.2 (0a00cf5339, 2022-02-04)"
   xmlns:inkscape="http://www.inkscape.org/namespaces/inkscape"
   xmlns:sodipodi="http://sodipodi.sourceforge.net/DTD/sodipodi-0.dtd"
   xmlns="http://www.w3.org/2000/svg"
   xmlns:svg="http://www.w3.org/2000/svg">
  <defs
     id="defs8" />
  <sodipodi:namedview
     id="namedview6"
     pagecolor="#000000"
     bordercolor="#666666"
     borderopacity="1.0"
     inkscape:pageshadow="2"
     inkscape:pageopacity="0"
     inkscape:pagecheckerboard="0"
     showgrid="false"
     inkscape:zoom="34.458333"
     inkscape:cx="11.941959"
     inkscape:cy="12"
     inkscape:window-width="585"
     inkscape:window-height="817"
     inkscape:window-x="591"
     inkscape:window-y="31"
     inkscape:window-maximized="1"
     inkscape:current-layer="svg4" />
  <path
     style="opacity:0.35;fill:#eeeeec"
     d="m 12,4 c -0.55,0 -1,0.45 -1,1 0,0.03 -2.34e-4,0.06961 0.0098,0.09961 -0.382416,0.076822 -0.744404,0.204501 -1.0876304,0.3659965 -0.102662,0.048305 0.099349,-0.0539 0,0 L 9.9456425,5.94561 16.641449,12.641447 17,12.430894 v 0 V 12 10 C 17,7.57 15.280034,5.559609 12.990234,5.099609 13.000234,5.069609 13,5.03 13,5 13,4.45 12.55,4 12,4 Z M 6.5,4.5 5,6 7.3066406,8.306641 C 7.1126225,8.834911 7,9.401894 7,10 v 4.5 l -2,2 V 17 h 2 9 L 17.5,18.5 19,17 Z M 10.269531,18 c 0.36,0.62 1.020469,1 1.730469,1 0.71,0 1.370469,-0.38 1.730469,-1 z"
     id="path2"
     sodipodi:nodetypes="sscsccccccscsscccscccccccccscc" />
</svg>
