<?xml version="1.0" encoding="UTF-8" standalone="no"?>
<svg
   width="24"
   height="24"
   version="1.1"
   id="svg11"
   sodipodi:docname="num-lock-off.svg"
   inkscape:version="1.1.2 (0a00cf5339, 2022-02-04)"
   xmlns:inkscape="http://www.inkscape.org/namespaces/inkscape"
   xmlns:sodipodi="http://sodipodi.sourceforge.net/DTD/sodipodi-0.dtd"
   xmlns="http://www.w3.org/2000/svg"
   xmlns:svg="http://www.w3.org/2000/svg">
  <sodipodi:namedview
     id="namedview13"
     pagecolor="#000000"
     bordercolor="#666666"
     borderopacity="1.0"
     inkscape:pageshadow="2"
     inkscape:pageopacity="0"
     inkscape:pagecheckerboard="0"
     showgrid="false"
     inkscape:zoom="34.458333"
     inkscape:cx="11.98549"
     inkscape:cy="12"
     inkscape:window-width="1916"
     inkscape:window-height="1047"
     inkscape:window-x="2"
     inkscape:window-y="31"
     inkscape:window-maximized="1"
     inkscape:current-layer="g9" />
  <defs
     id="defs3">
    <style
       id="current-color-scheme"
       type="text/css">
   .ColorScheme-Text { color:#eeeeec; } .ColorScheme-Highlight { color:#367bf0; } .ColorScheme-NeutralText { color:#ffcc44; } .ColorScheme-PositiveText { color:#3db47e; } .ColorScheme-NegativeText { color:#dd4747; }
  </style>
  </defs>
  <g
     opacity=".35"
     transform="matrix(.99995 0 0 1 .00071135 -1028.4)"
     id="g9">
    <path
       fill-rule="evenodd"
       style="fill:currentColor"
       class="ColorScheme-Text"
       d="M 7,4 C 5.9806772,3.9998291 5.1242729,4.7662125 5.0117,5.7793 l -1,8.9997 C 3.8800902,15.963951 4.8077628,17.000193 6,17 h 12 c 1.192117,1.4e-5 2.119597,-1.036168 1.988,-2.221 l -1,-8.9997 C 18.87544,4.7663264 18.019208,3.999982 17,4 Z M 12.529682,6.1175794 13,6.4708941 V 8 12.62757 L 13.412676,13 v 0 H 15 v 2 H 9 v -2 h 1.745973 v 0 L 11,12.676334 V 8.9180865 L 10.697723,8.5755693 v 0 L 9.3793215,8.9051696 v 0 L 9,8.6853225 V 7.3088494 L 9.4084431,6.8978892 v 0 z"
       transform="translate(0,1028.4)"
       id="path5"
       sodipodi:nodetypes="ccccccccccccccccccccccccccccccccc" />
    <path
       style="fill:currentColor"
       class="ColorScheme-Text"
       d="m 4,17.75 v 0 c 0,0 1.0381,2.25 2.25,2.25 h 11.5 c 1.212,0 3.065914,-1.353733 2.25,-2.25 l -0.286201,-0.314386 c -0.09084,0.08281 0.34975,0.604852 0.06355,0.290466 0,0 -0.263945,-0.15441 -0.370001,-0.09535 C 18.989346,17.863502 18.51261,18 18,18 H 6 C 5.4030304,18 4.8540519,17.814688 4.390325,17.50769 4.2523414,17.416342 4.1219059,17.86122 4,17.75 Z"
       transform="translate(0,1028.4)"
       id="path7"
       sodipodi:nodetypes="csssscsssssc" />
  </g>
</svg>
