<?xml version="1.0" encoding="UTF-8" standalone="no"?>
<svg
   width="24"
   height="24"
   version="1.1"
   id="svg298530"
   sodipodi:docname="nutstore-synchronized-panel.svg"
   inkscape:version="1.1.2 (0a00cf5339, 2022-02-04)"
   xmlns:inkscape="http://www.inkscape.org/namespaces/inkscape"
   xmlns:sodipodi="http://sodipodi.sourceforge.net/DTD/sodipodi-0.dtd"
   xmlns="http://www.w3.org/2000/svg"
   xmlns:svg="http://www.w3.org/2000/svg">
  <sodipodi:namedview
     id="namedview298532"
     pagecolor="#000000"
     bordercolor="#666666"
     borderopacity="1.0"
     inkscape:pageshadow="2"
     inkscape:pageopacity="0"
     inkscape:pagecheckerboard="0"
     showgrid="false"
     inkscape:zoom="34.458333"
     inkscape:cx="12.01451"
     inkscape:cy="12"
     inkscape:window-width="1920"
     inkscape:window-height="1051"
     inkscape:window-x="0"
     inkscape:window-y="29"
     inkscape:window-maximized="1"
     inkscape:current-layer="svg298530" />
  <defs
     id="defs298524">
    <style
       id="current-color-scheme"
       type="text/css">
   .ColorScheme-Text { color:#eeeeec; } .ColorScheme-Highlight { color:#367bf0; } .ColorScheme-NeutralText { color:#ffcc44; } .ColorScheme-PositiveText { color:#3db47e; } .ColorScheme-NegativeText { color:#dd4747; }
  </style>
  </defs>
  <path
     style="fill:currentColor"
     class="ColorScheme-Text"
     d="m 11.417317,5.0004511 c -0.604,-0.00237 -1.190628,0.077868 -1.7382813,0.2402344 -0.832589,0.3291024 -1.5163782,0.6323071 -0.7382813,1.0429687 1.4754386,0.770853 2.8652926,1.8222774 4.0683596,3.1542969 0.934789,1.0349849 1.693008,2.1710049 2.291015,3.3535159 a 5,5 0 0 1 2.699219,-0.791016 5,5 0 0 1 0.931641,0.08984 C 18.75231,10.519477 18.110691,8.8515938 16.893879,7.5043573 15.385738,5.8345644 13.319267,5.0079136 11.417317,5.0004511 Z m 7.40625,0.00586 c -0.204194,-0.018859 -0.427398,0.013669 -0.658203,0.070312 -0.497911,0.1413938 -0.978369,0.507383 -1.445313,0.8964843 0.31868,0.2641452 0.629004,0.5435534 0.916016,0.8613282 0.110902,0.1227902 0.209869,0.2519012 0.3125,0.3789062 0.119496,-0.057018 0.249175,-0.1092291 0.404297,-0.1445312 0.358329,-0.081548 0.967456,0.1500187 1.25,0.2519531 0.375949,0.00644 0.449347,-0.5595558 0.365234,-0.9589844 C 19.869698,5.8945408 19.562803,5.5625108 19.370442,5.248498 19.213309,5.0961176 19.027761,5.0251684 18.823567,5.0063111 Z M 8.2493482,7.0238886 c -0.04378,0.032066 -0.087034,0.05855 -0.1308594,0.091797 -3.310516,2.5117296 -5.1638736,8.0631814 -3.4941406,10.0292964 1.6162669,1.90316 5.4949448,2.34747 8.5898438,1.292969 a 5,5 0 0 1 -0.214844,-1.4375 5,5 0 0 1 1.5,-3.570312 C 13.925905,12.256044 13.187653,11.127288 12.266926,10.107873 11.145497,8.8662435 9.8514958,7.8880359 8.4778638,7.170373 h -0.00195 l -0.00195,-0.00195 C 8.3999676,7.1293699 8.3252372,7.0702799 8.2493482,7.0238886 Z"
     id="path298526" />
  <path
     style="fill:currentColor"
     class="ColorScheme-Text"
     d="m 18.278645,13.010217 c -0.768442,-0.05431 -1.561969,0.113216 -2.279297,0.527343 -1.912976,1.10434 -2.567261,3.550142 -1.462891,5.462891 1.104371,1.912649 3.550015,2.567231 5.462891,1.462891 1.912976,-1.104339 2.567262,-3.548188 1.462891,-5.460938 -0.690232,-1.195406 -1.902855,-1.901671 -3.183594,-1.992187 z m 1.54167,2.364857 0.407199,0.0067 0.349816,0.294487 v 0 l 8.41e-4,0.352527 -2.302594,2.740706 v 0 l -0.426896,0.07676 -1.578317,-1.315265 v 0 l -0.098,-0.409345 0.312574,-0.374516 v 0 l 0.460904,0.04518 0.991004,0.825335 z"
     id="path298528"
     sodipodi:nodetypes="sccccsccccccccccccccccc" />
</svg>
