<?xml version="1.0" encoding="UTF-8" standalone="no"?>
<svg
   width="24"
   height="24"
   version="1.1"
   id="svg9"
   sodipodi:docname="obs-tray-active.svg"
   inkscape:version="1.1.2 (0a00cf5339, 2022-02-04)"
   xmlns:inkscape="http://www.inkscape.org/namespaces/inkscape"
   xmlns:sodipodi="http://sodipodi.sourceforge.net/DTD/sodipodi-0.dtd"
   xmlns="http://www.w3.org/2000/svg"
   xmlns:svg="http://www.w3.org/2000/svg">
  <sodipodi:namedview
     id="namedview11"
     pagecolor="#000000"
     bordercolor="#666666"
     borderopacity="1.0"
     inkscape:pageshadow="2"
     inkscape:pageopacity="0"
     inkscape:pagecheckerboard="0"
     showgrid="false"
     inkscape:zoom="97.462884"
     inkscape:cx="11.937878"
     inkscape:cy="11.147834"
     inkscape:window-width="1822"
     inkscape:window-height="928"
     inkscape:window-x="0"
     inkscape:window-y="35"
     inkscape:window-maximized="1"
     inkscape:current-layer="svg9" />
  <defs
     id="defs3">
    <style
       id="current-color-scheme"
       type="text/css">
   .ColorScheme-Text { color:#eeeeec; } .ColorScheme-Highlight { color:#367bf0; } .ColorScheme-NeutralText { color:#ffcc44; } .ColorScheme-PositiveText { color:#3db47e; } .ColorScheme-NegativeText { color:#dd4747; }
  </style>
  </defs>
  <path
     style="fill:currentColor"
     class="ColorScheme-Text"
     d="m 12,4 c -4.418278,0 -8,3.581722 -8,8 0.00171,3.25836 1.9794192,6.190115 5,7.412 V 16.461 C 8.8458,16.477 8.6917,16.482 8.541,16.465 8.4126,16.45 8.3179,16.443 8.2305,16.443 8.1868,16.444 8.1556,16.437 8.0625,16.465 8.0515,16.468 8.0334,16.477 8.0195,16.482 6.7371013,15.344997 6.0021438,13.713861 6,12 5.9998231,10.275219 6.7415407,8.6391416 8.026618,7.503564 8.103704,7.435445 8.075969,7.6277683 8.1569224,7.56334 c -0.037717,0.082799 0.033362,-0.089267 0,0 C 7.9810061,8.0340482 7.8700913,8.5796014 7.8711,9.041 c 0.0012,0.5126 0.1259,1.119 0.3203,1.605 0.0514,0.129 0.1132,0.301 0.2988,0.416 0.1856,0.117 0.3196,0.11 0.5059,0.131 0.1619,0.019 0.4966,0.094 0.6445,0.145 1.4894,0.512 2.1894,2.218 1.4904,3.646 -0.003,0.006 -0.007,0.011 -0.01,0.016 h 1.684 l -0.092,-0.273 c -0.539,-1.631 0.411,-3.22 2.082,-3.502 0.147,-0.025 0.294,-0.035 0.443,-0.032 1.039,0.025 2.063,0.719 2.438,1.717 0.03,0.08 0.051,0.14 0.07,0.188 0.01,0.024 0.02,0.044 0.031,0.068 0.007,0.013 0.011,0.024 0.022,0.043 0.005,0.01 0.013,0.022 0.023,0.037 0.007,0.01 0.021,0.023 0.035,0.039 -0.13314,0.602619 -0.358457,1.18109 -0.668,1.715 h 2.223 C 19.799022,14.047095 19.998666,13.0285 20,12 20,7.581722 16.418278,4 12,4 Z m 0,2 c 2.935577,0.00347 5.416736,2.1255346 5.906192,4.982662 0.02148,0.125403 -0.01368,-0.128117 0,0 -0.06896,-0.109673 -0.08926,0.162889 -0.168079,0.05766 C 17.627198,10.892244 17.504959,10.749205 17.367,10.613 16.71,9.9628 15.909,9.5761 14.963,9.4492 14.822,9.4303 14.704,9.3958 14.512,9.4668 c -0.193,0.0704 -0.287,0.224 -0.344,0.3203 -0.082,0.1389 -0.55,0.6179 -0.813,0.7849 -0.743,0.475 -2.015,0.476 -2.761,0 C 9.7109,10.01 9.2064,8.9074 9.3652,7.9355 9.4551,7.3855 9.691,6.9083 10.078,6.498 10.159,6.4128 10.218,6.3461 10.268,6.291 10.279,6.2778 10.289,6.2611 10.299,6.25 10.851059,6.0854419 11.423939,6.0012444 12,6 Z M 8.7573667,9.0125793 8.6719,9.0371 C 8.682061,9.098175 8.74441,8.953252 8.757367,9.012579 8.8782982,9.5662978 9.1219389,10.045974 9.5059,10.49 9.36,10.457 9.2182,10.411 9.0879,10.396 8.9418,10.38 8.9347,10.376 8.9473,10.387 8.9425,10.375 8.9444,10.379 8.9316,10.35 8.7852,9.9825 8.6729,9.4118 8.6719,9.0371 8.6718,8.9817 8.751267,9.079179 8.7573667,9.0125793 Z M 14.822,10.229 c 0.01,0 -0.025,0.007 0.033,0.015 0.198671,0.02673 0.350093,0.121384 0.498673,0.216002 0.09597,0.06112 -0.105568,-0.04278 0,0 -0.134075,-0.02023 0.03321,0.101879 -0.09529,0.06117 C 15.062943,10.459265 14.868752,10.402404 14.66,10.438 c -0.069,0.009 -0.089,0.092 -0.156,0.107 0.102,-0.114 0.246,-0.2 0.318,-0.316 z m -1.912675,1.283951 c -0.09011,0.0733 0.161313,0.03241 0.07733,0.111095 -0.405081,0.379491 -0.734205,0.819881 -0.941695,1.305101 -0.02591,0.06059 0.02203,-0.06196 0,0 -0.02408,-0.06889 -0.122428,0.04665 -0.15103,-0.02098 -0.195539,-0.462408 -0.494563,-0.893509 -0.866902,-1.265545 -0.07758,-0.07752 0.104557,-0.06532 0.02088,-0.137465 0.08708,0.03259 -0.08815,-0.02551 0,0 0.614182,0.177729 1.250804,0.18302 1.861417,0.0078 0.113902,-0.03268 -0.111776,0.0453 0,0 z"
     id="path5"
     sodipodi:nodetypes="sccccccccscsccccccccccccccccccccscscscccccccccccccsccccccccscsccccsscsscsscc" />
  <path
     style="fill:currentColor"
     class="ColorScheme-Highlight"
     d="m 10,16 v 5 h 1 v -1.001289 0 l 0.316369,0.02466 L 12.293,21 H 13 v -0.707 l -1.029469,-1.029469 v 0 L 12.07041,19 H 13 v -3 z m 4,0 v 5 h 3 v -1 h -2 v -1 h 2 v -1 h -2 v -1 h 2 v -1 z m 4,0 v 5 h 3 v -1 h -2 v -3 h 2 v -1 z m -7,1 h 1 v 1 h -1 z"
     id="path7"
     sodipodi:nodetypes="cccccccccccccccccccccccccccccccccccccccccc" />
</svg>
