<?xml version="1.0" encoding="UTF-8" standalone="no"?>
<svg
   width="24"
   height="24"
   version="1.1"
   id="svg7"
   sodipodi:docname="obs-tray.svg"
   inkscape:version="1.1.2 (0a00cf5339, 2022-02-04)"
   xmlns:inkscape="http://www.inkscape.org/namespaces/inkscape"
   xmlns:sodipodi="http://sodipodi.sourceforge.net/DTD/sodipodi-0.dtd"
   xmlns="http://www.w3.org/2000/svg"
   xmlns:svg="http://www.w3.org/2000/svg">
  <sodipodi:namedview
     id="namedview9"
     pagecolor="#ffffff"
     bordercolor="#666666"
     borderopacity="1.0"
     inkscape:pageshadow="2"
     inkscape:pageopacity="0.0"
     inkscape:pagecheckerboard="0"
     showgrid="false"
     inkscape:zoom="126.5"
     inkscape:cx="11.988142"
     inkscape:cy="11.284585"
     inkscape:window-width="1822"
     inkscape:window-height="928"
     inkscape:window-x="0"
     inkscape:window-y="35"
     inkscape:window-maximized="1"
     inkscape:current-layer="svg7" />
  <defs
     id="defs3">
    <style
       id="current-color-scheme"
       type="text/css">
   .ColorScheme-Text { color:#eeeeec; } .ColorScheme-Highlight { color:#367bf0; } .ColorScheme-NeutralText { color:#ffcc44; } .ColorScheme-PositiveText { color:#3db47e; } .ColorScheme-NegativeText { color:#dd4747; }
  </style>
  </defs>
  <path
     style="fill:currentColor"
     class="ColorScheme-Text"
     d="m 12,4 c -4.418278,0 -8,3.581722 -8,8 0,4.418278 3.581722,8 8,8 4.418278,0 8,-3.581722 8,-8 0,-4.418278 -3.581722,-8 -8,-8 z m 0,2 c 2.989979,0.00353 5.508544,2.2049156 5.931343,5.142258 0.01053,0.07313 -0.0079,-0.07402 0,0 -0.04025,-0.06402 -0.05426,0.09335 -0.09765,0.03075 C 17.698147,10.977474 17.545771,10.789499 17.367,10.613 16.71,9.9625 15.909,9.5761 14.963,9.4492 14.822,9.4303 14.704,9.3958 14.512,9.4668 c -0.193,0.0704 -0.287,0.224 -0.344,0.3203 -0.082,0.1389 -0.55,0.6179 -0.813,0.7849 -0.743,0.475 -2.015,0.476 -2.761,0 C 9.7111,10.01 9.2064,8.9074 9.3652,7.9355 9.4551,7.3855 9.6909,6.9083 10.078,6.498 10.159,6.4128 10.218,6.3461 10.268,6.291 10.279,6.2778 10.289,6.2611 10.299,6.25 10.851059,6.0854419 11.423939,6.0012444 12,6 Z M 8.1532112,7.5102229 c -0.055093,0.1209433 0.00461,0.044421 -0.040877,0.1780988 C 7.9624798,8.1287328 7.8701794,8.6199125 7.8711,9.041 c 0.0012,0.5126 0.1259,1.119 0.3203,1.605 0.0514,0.129 0.1132,0.301 0.2988,0.416 0.1856,0.116 0.3196,0.11 0.5059,0.131 0.1619,0.019 0.4966,0.094 0.6445,0.145 1.4894,0.512 2.1894,2.218 1.4904,3.646 -0.469,0.958 -1.5979,1.593 -2.59,1.481 C 8.4126,16.45 8.3179,16.443 8.2305,16.443 8.1868,16.444 8.1556,16.437 8.0625,16.465 8.0515,16.468 8.0334,16.477 8.0195,16.482 6.7371013,15.344997 6.0021438,13.713861 6,12 5.9998366,10.407549 6.6320943,8.890713 7.7405183,7.773591 c 0.074848,-0.075435 0.151867,-0.1490478 0.2310092,-0.220738 0.094398,-0.085509 0.081327,0.03724 0.1816837,-0.04263 z m 0.6025344,1.4948905 v 0 c 0.00974,0.058516 -0.012301,-0.056907 0,0 0.1106307,0.5117968 0.3257855,0.9602367 0.6593228,1.3758776 0.029357,0.03658 -0.051971,0.04563 -0.020771,0.08172 -0.037514,-0.0085 0.036846,0.0095 0,0 C 9.2878411,10.435394 9.1846973,10.407143 9.0879,10.396 8.9418,10.38 8.9347,10.376 8.9473,10.387 8.9425,10.375 8.9444,10.379 8.9316,10.35 8.7852,9.9829 8.6729,9.4118 8.6719,9.0371 c -1e-4,-0.0554 0.077746,0.034613 0.083846,-0.031987 z M 14.822,10.229 c 0.01,0 -0.025,0.007 0.033,0.015 0.327,0.044 0.526,0.272 0.795,0.381 -0.338,-0.051 -0.644,-0.246 -0.99,-0.187 -0.069,0.01 -0.089,0.092 -0.156,0.107 0.102,-0.114 0.246,-0.2 0.318,-0.316 z m 0.416,0.964 c 1.039,0.025 2.063,0.719 2.438,1.717 0.03,0.08 0.051,0.14 0.07,0.188 0.01,0.024 0.02,0.044 0.031,0.068 0.007,0.013 0.011,0.024 0.022,0.043 0.005,0.01 0.013,0.022 0.023,0.037 0.007,0.01 0.021,0.023 0.035,0.039 C 17.253664,16.036771 14.817136,17.998224 12,18 c -0.75203,-0.0023 -1.495842,-0.145914 -2.1929792,-0.422286 -0.110736,-0.0439 0.067798,-0.09738 -0.040429,-0.147948 0.096598,0 -0.0951,0.0044 0,0 C 10.030045,17.417565 10.28357,17.385599 10.504,17.318 l 0.031,-0.009 0.022,-0.012 0.005,-0.004 c 0.81,-0.265 1.661,-0.859 2.131,-1.52 l 0.252,-0.349 -0.232,-0.697 c -0.539,-1.631 0.411,-3.22 2.082,-3.502 0.147,-0.025 0.294,-0.035 0.443,-0.032 z m -2.248043,0.295715 c -0.07189,0.05848 0.116084,0.026 0.04804,0.08792 -0.440231,0.40062 -0.795666,0.871757 -1.010324,1.393715 -0.01939,0.04714 0.01705,-0.04795 0,0 -0.01749,-0.05005 -0.09088,0.04286 -0.110772,-0.0065 -0.205434,-0.510122 -0.536936,-0.983882 -0.954638,-1.384601 -0.05749,-0.05515 0.06065,0.05229 0,0 0.07725,0.02891 -0.02229,-0.106169 0.05582,-0.08283 0.650432,0.194367 1.326975,0.19502 1.971876,-0.0077 0.08663,-0.02723 -0.08535,0.03459 0,0 z M 11.969,15.021 l 0.088,0.27 -0.016,0.021 c -0.091,0.13 -0.34,0.21 -0.496,0.348 0.084,-0.126 0.237,-0.185 0.305,-0.322 0.051,-0.105 0.081,-0.211 0.119,-0.317 z"
     id="path5"
     sodipodi:nodetypes="ssssscscsccccccccccccscccccccccccsscccsscscccccccccccccccccccscsccccccccccsscsscssccccccc" />
</svg>
