<?xml version="1.0" encoding="UTF-8" standalone="no"?>
<svg
   width="24"
   height="24"
   version="1.1"
   id="svg9"
   sodipodi:docname="org.sparkleshare.SparkleShare-syncing-up.svg"
   inkscape:version="1.1.2 (0a00cf5339, 2022-02-04)"
   xmlns:inkscape="http://www.inkscape.org/namespaces/inkscape"
   xmlns:sodipodi="http://sodipodi.sourceforge.net/DTD/sodipodi-0.dtd"
   xmlns="http://www.w3.org/2000/svg"
   xmlns:svg="http://www.w3.org/2000/svg">
  <sodipodi:namedview
     id="namedview11"
     pagecolor="#ffffff"
     bordercolor="#666666"
     borderopacity="1.0"
     inkscape:pageshadow="2"
     inkscape:pageopacity="0.0"
     inkscape:pagecheckerboard="0"
     showgrid="false"
     inkscape:zoom="31.5"
     inkscape:cx="12"
     inkscape:cy="12"
     inkscape:window-width="1880"
     inkscape:window-height="966"
     inkscape:window-x="0"
     inkscape:window-y="29"
     inkscape:window-maximized="1"
     inkscape:current-layer="svg9" />
  <defs
     id="defs3">
    <style
       id="current-color-scheme"
       type="text/css">
   .ColorScheme-Text { color:#eeeeec; } .ColorScheme-Highlight { color:#367bf0; } .ColorScheme-NeutralText { color:#ffcc44; } .ColorScheme-PositiveText { color:#3db47e; } .ColorScheme-NegativeText { color:#dd4747; }
  </style>
  </defs>
  <path
     style="fill:currentColor"
     class="ColorScheme-Text"
     d="M 5.1425781,4 C 5.1425781,4 4,4.04269 4,5.1855469 V 17.857422 C 4,17.857422 3.9997211,19 5.1425781,19 H 13.423828 C 13.146311,18.36964 13.002019,17.688742 13,17 c 0.0019,-0.114751 0.0078,-0.229402 0.01758,-0.34375 L 12,15.994141 10.107422,17.228516 C 9.3248899,17.740989 8.2917154,17.039531 8.5683594,16.183594 L 9.2382812,14.013672 7.3984375,12.708984 c -0.762136,-0.5395 -0.3672864,-1.676829 0.5878906,-1.693359 l 2.3066409,-0.04297 0.757812,-2.3417966 c 0.144719,-0.3909099 0.544846,-0.6476257 0.986328,-0.6328125 0.414219,0.014758 0.77635,0.2660006 0.91211,0.6328125 l 0.757812,2.3417966 2.308594,0.04297 c 0.669504,0.01278 1.050788,0.574638 0.962891,1.095703 C 17.314284,12.039237 17.656586,12.001931 18,12 c 0.688467,7.88e-4 1.369353,0.143747 2,0.419922 V 7.171875 C 20,6.0290178 18.857422,6.0292969 18.857422,6.0292969 H 13.142578 L 10.857422,4 Z m 6.8457029,4.9785156 -0.224596,0.6940489 -0.533216,1.6477475 c -0.142852,0.385434 -0.506995,0.644244 -0.917969,0.652344 l -1.4186987,0.02684 c -0.2433723,0.0099 0.5437983,0.784873 -0.085074,0.485167 v 0 l 1.0076787,0.714557 c 0.3562388,0.252723 0.5072788,0.707404 0.3730468,1.123047 l -0.4435782,1.440949 0.4517812,0.212302 c 0.644921,-0.415109 0.18533,-0.62741 -0.4517812,-0.212302 l 0.4517812,0.212302 1.257422,-0.819271 c 0.331831,-0.216172 0.759966,-0.216172 1.091797,0 l 0.660156,0.429688 c 0.135971,-0.459338 0.337248,-0.896752 0.597657,-1.298829 -0.115009,-0.405949 0.03263,-0.842244 0.378906,-1.08789 l 1.194514,-0.847045 v 0 l -0.134283,-0.350085 -1.554372,-0.02944 c -0.411693,-0.0073 -0.77681,-0.266255 -0.919922,-0.652344 L 12.269416,9.7708598 11.763685,9.6725645 v 0 c 0.257744,0.7923445 -0.238187,0.6764705 0,0 -0.238187,0.6764705 -0.01259,0.03401 0,0 z"
     id="path5"
     sodipodi:nodetypes="cscsccccccccccccccccccsccccccccccccccccccccccccccccccccc" />
  <path
     style="fill:currentColor"
     class="ColorScheme-Text"
     d="m 18,21 c -2.2091,0 -4,-1.7909 -4,-4 0,-2.2091 1.7909,-4 4,-4 2.2091,0 4,1.7909 4,4 0,2.2091 -1.7909,4 -4,4 z m -1,-2 h 2 v -2 h 1.006224 v 0 L 20.186604,16.623925 19.25,15.5 18.284501,14.341401 v 0 l -0.576824,0.0094 L 16.75,15.5 15.839446,16.592664 16.070313,17 v 0 H 17 Z"
     id="path7"
     sodipodi:nodetypes="ssssscccccccccccccccc" />
</svg>
