<?xml version="1.0" encoding="UTF-8" standalone="no"?>
<svg
   width="24"
   height="24"
   version="1.1"
   id="svg7"
   sodipodi:docname="org.nicotine_plus.Nicotine-away.svg"
   inkscape:version="1.1.2 (0a00cf5339, 2022-02-04)"
   xmlns:inkscape="http://www.inkscape.org/namespaces/inkscape"
   xmlns:sodipodi="http://sodipodi.sourceforge.net/DTD/sodipodi-0.dtd"
   xmlns="http://www.w3.org/2000/svg"
   xmlns:svg="http://www.w3.org/2000/svg">
  <sodipodi:namedview
     id="namedview9"
     pagecolor="#ffffff"
     bordercolor="#666666"
     borderopacity="1.0"
     inkscape:pageshadow="2"
     inkscape:pageopacity="0.0"
     inkscape:pagecheckerboard="0"
     showgrid="false"
     inkscape:zoom="31.5"
     inkscape:cx="12"
     inkscape:cy="12"
     inkscape:window-width="1880"
     inkscape:window-height="966"
     inkscape:window-x="0"
     inkscape:window-y="29"
     inkscape:window-maximized="1"
     inkscape:current-layer="svg7" />
  <defs
     id="defs3">
    <style
       id="current-color-scheme"
       type="text/css">
   .ColorScheme-Text { color:#eeeeec; } .ColorScheme-Highlight { color:#367bf0; } .ColorScheme-NeutralText { color:#ffcc44; } .ColorScheme-PositiveText { color:#3db47e; } .ColorScheme-NegativeText { color:#dd4747; }
  </style>
  </defs>
  <path
     style="fill:currentColor"
     class="ColorScheme-Text"
     d="M 16.5,3 C 14.567003,3 13,4.5670034 13,6.5 13,8.4329966 14.567003,10 16.5,10 18.432997,10 20,8.4329966 20,6.5 20,4.5670034 18.432997,3 16.5,3 Z M 3,4 V 20 H 6 V 7 c 4,0 2.9863281,7.00016 2.9863281,13 h 3.0273439 c 0,-1.136139 0.0041,-2.037733 0.0078,-3 H 15 v 3 h 3 v -3 h 3 v -3 h -3 v -3 h -3 v 3 H 12.005859 C 11.977576,10.711277 11.825347,8.4999007 11.082031,6.8105469 10.519548,5.5321746 9.3009598,4.5890994 8.0664062,4.2773438 7.4015163,4.1094422 6.7209314,4.0456154 6,4.0195312 V 4 Z M 16,4.2611772 16.323479,4 h 0.445316 L 17,4.2298487 v 0 1.5553386 L 17.213201,6 v 0 h 1.555423 L 19,6.2613797 v 0 0.5080033 L 18.799588,7 V 7 H 17 16.323479 V 7 L 16,6.7057621 V 6 Z"
     id="path5"
     sodipodi:nodetypes="sssssccccccccccccccccccsscccccccccccccccccccccccc" />
</svg>
