<?xml version="1.0" encoding="UTF-8" standalone="no"?>
<svg
   width="24"
   height="24"
   version="1.1"
   id="svg9"
   sodipodi:docname="org.sparkleshare.SparkleShare-syncing-down.svg"
   inkscape:version="1.1.2 (0a00cf5339, 2022-02-04)"
   xmlns:inkscape="http://www.inkscape.org/namespaces/inkscape"
   xmlns:sodipodi="http://sodipodi.sourceforge.net/DTD/sodipodi-0.dtd"
   xmlns="http://www.w3.org/2000/svg"
   xmlns:svg="http://www.w3.org/2000/svg">
  <sodipodi:namedview
     id="namedview11"
     pagecolor="#ffffff"
     bordercolor="#666666"
     borderopacity="1.0"
     inkscape:pageshadow="2"
     inkscape:pageopacity="0.0"
     inkscape:pagecheckerboard="0"
     showgrid="false"
     inkscape:zoom="31.5"
     inkscape:cx="12"
     inkscape:cy="12"
     inkscape:window-width="1880"
     inkscape:window-height="966"
     inkscape:window-x="0"
     inkscape:window-y="29"
     inkscape:window-maximized="1"
     inkscape:current-layer="svg9" />
  <defs
     id="defs3">
    <style
       id="current-color-scheme"
       type="text/css">
   .ColorScheme-Text { color:#eeeeec; } .ColorScheme-Highlight { color:#367bf0; } .ColorScheme-NeutralText { color:#ffcc44; } .ColorScheme-PositiveText { color:#3db47e; } .ColorScheme-NegativeText { color:#dd4747; }
  </style>
  </defs>
  <path
     style="fill:currentColor"
     class="ColorScheme-Text"
     d="M 5.1425781,4 C 5.1425781,4 4,4.04269 4,5.1855469 V 17.857422 C 4,17.857422 3.9997211,19 5.1425781,19 H 13.423828 C 13.146311,18.36964 13.002019,17.688742 13,17 c 0.0019,-0.114751 0.0078,-0.229402 0.01758,-0.34375 L 12,15.994141 10.107422,17.228516 C 9.3248899,17.740989 8.2917154,17.039531 8.5683594,16.183594 L 9.2382812,14.013672 7.3984375,12.708984 c -0.762136,-0.5395 -0.3672864,-1.676829 0.5878906,-1.693359 l 2.3066409,-0.04297 0.757812,-2.3417966 c 0.144719,-0.3909099 0.544846,-0.6476257 0.986328,-0.6328125 0.414219,0.014758 0.77635,0.2660006 0.91211,0.6328125 l 0.757812,2.3417966 2.308594,0.04297 c 0.669504,0.01278 1.050788,0.574638 0.962891,1.095703 C 17.314284,12.039237 17.656586,12.001931 18,12 c 0.688467,7.88e-4 1.369353,0.143747 2,0.419922 V 7.171875 C 20,6.0290178 18.857422,6.0292969 18.857422,6.0292969 H 13.142578 L 10.857422,4 Z m 6.8457029,4.9785156 -0.190826,0.5896932 -0.566986,1.7521032 c -0.142852,0.385434 -0.506995,0.644244 -0.917969,0.652344 l -1.3868362,0.02624 -0.144345,0.466334 v 0 l 1.0350874,0.733993 c 0.3562388,0.252723 0.5072788,0.707404 0.3730468,1.123047 l -0.4462584,1.449655 h -0.00781 c 0.6599324,-0.424889 0.1904602,-0.618703 0.00781,0 l 0.4694724,0.193815 1.242411,-0.80949 c 0.331831,-0.216172 0.759966,-0.216172 1.091797,0 l 0.660156,0.429688 c 0.135971,-0.459338 0.337248,-0.896752 0.597657,-1.298829 -0.115009,-0.405949 0.03263,-0.842244 0.378906,-1.08789 l 1.167107,-0.82761 -0.0726,-0.368871 v 0 l -1.588644,-0.03009 c -0.411693,-0.0073 -0.77681,-0.266255 -0.919922,-0.652344 l -0.533939,-1.6542438 -0.438137,-0.097855 0.438137,0.097855 c 0.01242,0.03376 -0.418635,1.1618088 -0.214218,0.5896928 -0.02307,0.0023 -0.236509,-0.6535382 -0.223919,-0.6875482 z"
     id="path5"
     sodipodi:nodetypes="cscsccccccccccccccccccsccccccccccccccccccccccccccccccccc" />
  <path
     style="fill:currentColor"
     class="ColorScheme-Text"
     d="m 18,13 c -2.2091,0 -4,1.7909 -4,4 0,2.2091 1.7909,4 4,4 2.2091,0 4,-1.7909 4,-4 0,-2.2091 -1.7909,-4 -4,-4 z m -1,2 h 2 v 2 h 0.911516 v 0 L 20.122629,17.452845 19.25,18.5 l -0.904908,1.08589 -0.656606,0.04029 v 0 L 16.75,18.5 15.898258,17.47791 v 0 L 16.13315,17 H 17 Z"
     id="path7"
     sodipodi:nodetypes="ssssscccccccccccccccc" />
</svg>
