<?xml version="1.0" encoding="UTF-8" standalone="no"?>
<svg
   width="24"
   height="24"
   version="1.1"
   id="svg183272"
   sodipodi:docname="pamac-tray-no-update.svg"
   inkscape:version="1.1.2 (0a00cf5339, 2022-02-04)"
   xmlns:inkscape="http://www.inkscape.org/namespaces/inkscape"
   xmlns:sodipodi="http://sodipodi.sourceforge.net/DTD/sodipodi-0.dtd"
   xmlns="http://www.w3.org/2000/svg"
   xmlns:svg="http://www.w3.org/2000/svg">
  <sodipodi:namedview
     id="namedview183274"
     pagecolor="#000000"
     bordercolor="#666666"
     borderopacity="1.0"
     inkscape:pageshadow="2"
     inkscape:pageopacity="0"
     inkscape:pagecheckerboard="0"
     showgrid="false"
     inkscape:zoom="34.458333"
     inkscape:cx="12.01451"
     inkscape:cy="11.98549"
     inkscape:window-width="1880"
     inkscape:window-height="966"
     inkscape:window-x="0"
     inkscape:window-y="29"
     inkscape:window-maximized="1"
     inkscape:current-layer="g183270" />
  <defs
     id="defs183266">
    <style
       id="current-color-scheme"
       type="text/css">
   .ColorScheme-Text { color:#eeeeec; } .ColorScheme-Highlight { color:#367bf0; } .ColorScheme-NeutralText { color:#ffcc44; } .ColorScheme-PositiveText { color:#3db47e; } .ColorScheme-NegativeText { color:#dd4747; }
  </style>
  </defs>
  <g
     id="g183270">
    <path
       style="fill:currentColor;fill-rule:evenodd"
       class="ColorScheme-Text"
       d="m 15.319005,9.3190275 v 0 l 0.878537,0.8785995 0.01626,0.423029 v 0 l -4.963578,5.121176 v 0 l -0.536665,-0.04269 -2.8525289,-2.99607 -0.02958,-0.534523 v 0 L 8.7384284,11.26157 v 0 l 0.5500008,0.05166 1.4853168,1.613054 v 0 l 0.434891,0.02811 3.461893,-3.6107547 z M 11.806659,4.1732428 c -0.06321,0.057961 0.06565,-0.057524 0,0 -2.0298882,1.778537 -5.1819798,3.3334661 -6.5558568,3.757216 -0.091835,0.028325 0.075078,-0.017946 0,0 0,0.1020691 -0.2498406,0.2738424 -0.2479237,0.3762001 C 5.1011216,13.552381 7.7087338,19.128015 12,20 c 4.315097,-0.876828 6.927788,-6.50969 6.998526,-11.7807029 9.82e-4,-0.073173 0,0.07302 0,0 -0.08363,-0.019983 -0.176708,-0.2658664 -0.280987,-0.2986815 -1.38113,-0.4346203 -4.468525,-1.9618923 -6.483985,-3.712285 -0.07958,-0.069114 -0.350828,0.034668 -0.426895,-0.035088 z"
       id="path183268"
       sodipodi:nodetypes="ccccccccccccccccccccsscscscssc" />
  </g>
</svg>
