<?xml version="1.0" encoding="UTF-8" standalone="no"?>
<svg
   width="24"
   height="24"
   version="1.1"
   id="svg168103"
   sodipodi:docname="user-status-new.svg"
   inkscape:version="1.1.2 (0a00cf5339, 2022-02-04)"
   xmlns:inkscape="http://www.inkscape.org/namespaces/inkscape"
   xmlns:sodipodi="http://sodipodi.sourceforge.net/DTD/sodipodi-0.dtd"
   xmlns="http://www.w3.org/2000/svg"
   xmlns:svg="http://www.w3.org/2000/svg">
  <sodipodi:namedview
     id="namedview168105"
     pagecolor="#000000"
     bordercolor="#666666"
     borderopacity="1.0"
     inkscape:pageshadow="2"
     inkscape:pageopacity="0"
     inkscape:pagecheckerboard="0"
     showgrid="false"
     inkscape:zoom="34.458333"
     inkscape:cx="12.01451"
     inkscape:cy="12"
     inkscape:window-width="1920"
     inkscape:window-height="1051"
     inkscape:window-x="0"
     inkscape:window-y="29"
     inkscape:window-maximized="1"
     inkscape:current-layer="g168101" />
  <defs
     id="defs168095">
    <style
       id="current-color-scheme"
       type="text/css">
   .ColorScheme-Text { color:#eeeeec; } .ColorScheme-Highlight { color:#367bf0; } .ColorScheme-NeutralText { color:#ffcc44; } .ColorScheme-PositiveText { color:#3db47e; } .ColorScheme-NegativeText { color:#dd4747; }
  </style>
  </defs>
  <g
     transform="translate(1 1)"
     id="g168101">
    <path
       style="fill:currentColor"
       class="ColorScheme-Text"
       d="M 5.9688,5 C 5.9688,5 4,5 4,7 v 3 2 0 0 C 4,11 3.8898616,11.858846 4.2964492,11.698097 4.2964492,11.698097 5.809641,10 7,10 c 1.6568542,0 3,1.343146 3,3 -8.125e-4,0.598291 -0.180384,1.179312 -0.5108869,1.670554 -0.077405,0.11505 0.093605,-0.10427 0,0 L 9.7136971,15 H 11.00002 l 1.556214,2.337434 v 0 L 13.460245,17.312742 15.00002,15 h 1 c 0,0 2,0 2,-2 V 7 c 0,-2 -2,-2 -2,-2 h -10.031 z"
       id="path168097"
       sodipodi:nodetypes="csccccsscsccccccccssccc" />
    <circle
       style="fill:currentColor"
       class="ColorScheme-Highlight"
       cx="7"
       cy="13"
       r="2"
       id="circle168099" />
  </g>
</svg>
