<?xml version="1.0" encoding="UTF-8" standalone="no"?>
<svg
   width="24"
   height="24"
   version="1.1"
   id="svg225502"
   sodipodi:docname="preferences-system-power-symbolic.svg"
   inkscape:version="1.1.2 (0a00cf5339, 2022-02-04)"
   xmlns:inkscape="http://www.inkscape.org/namespaces/inkscape"
   xmlns:sodipodi="http://sodipodi.sourceforge.net/DTD/sodipodi-0.dtd"
   xmlns="http://www.w3.org/2000/svg"
   xmlns:svg="http://www.w3.org/2000/svg">
  <defs
     id="defs225506" />
  <sodipodi:namedview
     id="namedview225504"
     pagecolor="#000000"
     bordercolor="#666666"
     borderopacity="1.0"
     inkscape:pageshadow="2"
     inkscape:pageopacity="0"
     inkscape:pagecheckerboard="0"
     showgrid="false"
     inkscape:zoom="34.458333"
     inkscape:cx="12.01451"
     inkscape:cy="12"
     inkscape:window-width="1920"
     inkscape:window-height="1051"
     inkscape:window-x="0"
     inkscape:window-y="29"
     inkscape:window-maximized="1"
     inkscape:current-layer="svg225502" />
  <path
     style="fill:#eeeeec"
     d="m 12,4 c -4.42,0 -8,3.58 -8,8 0,4.42 3.58,8 8,8 4.42,0 8,-3.58 8,-8 0,-4.42 -3.58,-8 -8,-8 z m 0,2 c 3.315,0 6,2.685 6,6 0,3.315 -2.685,6 -6,6 C 8.685,18 6,15.315 6,12 6,8.685 8.685,6 12,6 Z M 12,8.1299014 11.536078,8.1831645 8.8354997,12.569297 9.0498313,13 v 0 H 12 v 2.707791 0 l 0.506083,0.04057 L 15.168621,11.42401 15.071956,11 v 0 H 12 Z"
     id="path225500"
     sodipodi:nodetypes="ssssssssssccccccccccccccc" />
</svg>
