<?xml version="1.0" encoding="UTF-8" standalone="no"?>
<svg
   width="24"
   height="24"
   version="1.1"
   id="svg7"
   sodipodi:docname="preferences-system-bluetooth-inactive.svg"
   inkscape:version="1.1.2 (0a00cf5339, 2022-02-04)"
   xmlns:inkscape="http://www.inkscape.org/namespaces/inkscape"
   xmlns:sodipodi="http://sodipodi.sourceforge.net/DTD/sodipodi-0.dtd"
   xmlns="http://www.w3.org/2000/svg"
   xmlns:svg="http://www.w3.org/2000/svg">
  <sodipodi:namedview
     id="namedview9"
     pagecolor="#000000"
     bordercolor="#666666"
     borderopacity="1.0"
     inkscape:pageshadow="2"
     inkscape:pageopacity="0"
     inkscape:pagecheckerboard="0"
     showgrid="false"
     inkscape:zoom="97.462885"
     inkscape:cx="12.00457"
     inkscape:cy="14.456785"
     inkscape:window-width="514"
     inkscape:window-height="894"
     inkscape:window-x="520"
     inkscape:window-y="31"
     inkscape:window-maximized="1"
     inkscape:current-layer="svg7" />
  <defs
     id="defs3">
    <style
       id="current-color-scheme"
       type="text/css">
   .ColorScheme-Text { color:#eeeeec; } .ColorScheme-Highlight { color:#367bf0; } .ColorScheme-NeutralText { color:#ffcc44; } .ColorScheme-PositiveText { color:#3db47e; } .ColorScheme-NegativeText { color:#dd4747; }
  </style>
  </defs>
  <path
     style="opacity:0.35;fill:currentColor"
     class="ColorScheme-Text"
     d="M 10.925782,4.002772 C 10.80106,4.011922 10.679161,4.043292 10.566407,4.097381 10.220412,4.2638926 10.0003,4.6137949 10,4.9977716 V 7.0270685 L 11.859832,8.4764296 12,8.4346643 v 0 V 7.3763766 7.260278 7.3763766 l 0.09176,-0.098746 v 0 l 0.172509,0.013627 1.988762,1.5913354 0.0022,0.2063083 v 0 l -0.708675,0.5518494 v 0 l 0.0077,0.1575957 1.52193,1.1857529 1.537109,-1.1972659 c 0.510532,-0.396616 0.516275,-1.1661199 0.01172,-1.5703119 L 11.625,4.216522 C 11.427419,4.0591831 11.177622,3.9835236 10.925782,4.002772 Z M 6.232422,6.1208189 5,7.6969908 10,11.597381 v 0.800781 L 6.386719,15.20871 c -0.435458,0.338893 -0.5141221,0.966456 -0.175781,1.402343 0.338893,0.435458 0.966456,0.514122 1.402344,0.175781 L 9.8745707,15.028877 10,15.147911 v 0 3.849861 c -3.5e-4,0.838869 0.970049,1.305407 1.625,0.78125 l 4.380859,-3.503906 1.761719,1.373047 L 19,16.071991 Z M 12,13.374725 l 0.264258,-0.01649 1.971706,1.536796 -4.07e-4,0.232261 v 0 l -1.946145,1.556916 -0.114307,0.09145 0.114307,-0.09145 -0.180033,0.03363 v 0 L 12,16.609676 Z"
     id="path5"
     sodipodi:nodetypes="ccccccccccccccccccccccccccccccccccccccccccccccccccccc" />
</svg>
