<?xml version="1.0" encoding="UTF-8" standalone="no"?>
<svg
   width="24"
   height="24"
   version="1.1"
   id="svg7"
   sodipodi:docname="protonmail-indicator.svg"
   inkscape:version="1.1.2 (0a00cf5339, 2022-02-04)"
   xmlns:inkscape="http://www.inkscape.org/namespaces/inkscape"
   xmlns:sodipodi="http://sodipodi.sourceforge.net/DTD/sodipodi-0.dtd"
   xmlns="http://www.w3.org/2000/svg"
   xmlns:svg="http://www.w3.org/2000/svg">
  <sodipodi:namedview
     id="namedview9"
     pagecolor="#000000"
     bordercolor="#666666"
     borderopacity="1.0"
     inkscape:pageshadow="2"
     inkscape:pageopacity="0"
     inkscape:pagecheckerboard="0"
     showgrid="false"
     inkscape:zoom="68.916667"
     inkscape:cx="17.535671"
     inkscape:cy="16.636034"
     inkscape:window-width="585"
     inkscape:window-height="817"
     inkscape:window-x="591"
     inkscape:window-y="31"
     inkscape:window-maximized="1"
     inkscape:current-layer="svg7" />
  <defs
     id="defs3">
    <style
       id="current-color-scheme"
       type="text/css">
   .ColorScheme-Text { color:#eeeeec; } .ColorScheme-Highlight { color:#367bf0; } .ColorScheme-NeutralText { color:#ffcc44; } .ColorScheme-PositiveText { color:#3db47e; } .ColorScheme-NegativeText { color:#dd4747; }
  </style>
  </defs>
  <path
     style="fill:currentColor"
     class="ColorScheme-Text"
     d="m 12.000077,3.999938 c -0.376405,0 -0.754439,0.016971 -0.994141,0.052734 -2.8932644,0.4315301 -4.6029634,1.8938258 -4.9453114,4.226563 -0.03782,0.257736 -0.04861,0.715323 -0.05469,2.46875 l -0.0059,2.082031 0.08398,0.138672 c 0.207221,0.343093 0.493264,0.583776 1.855469,1.5625 2.2773884,1.636272 3.2125684,2.234165 3.7890624,2.416016 0.09098,0.0287 0.21673,0.0519 0.279296,0.05273 0.382606,0.0053 1.501514,-0.643479 3.195313,-1.855469 2.112288,-1.511443 2.503135,-1.825343 2.708984,-2.167969 l 0.08789,-0.14648 v -1.71875 c 0,-2.240483 -0.01403,-2.637028 -0.115234,-3.117187 C 17.704319,7.137796 17.375044,6.462242 16.851596,5.8729849 16.011412,4.9271679 14.697387,4.3069974 12.992222,4.0526724 c -0.23971,-0.03575 -0.615783,-0.052734 -0.992188,-0.052734 z m 0,3 c 1.999997,9e-6 2.545045,1.178874 2.931641,2.623047 0.06807,0.25426 0.06836,0.264618 0.06836,1.298828 0,0.573422 -0.0078,1.052891 -0.01758,1.064453 -0.0098,0.01154 -1.346061,0.01606 -2.982422,0.01172 -1.63636,0.0044 -2.9726224,-1.59e-4 -2.9824214,-0.01172 -0.0098,-0.01156 -0.01758,-0.491031 -0.01758,-1.064453 0,-1.03421 3.19e-4,-1.044568 0.06836,-1.298828 0.3866,-1.444173 0.9316434,-2.623056 2.9316394,-2.623047 z M 6.2312051,14.27375 c 0,0 -0.2301503,-0.173217 -0.230749,0.09968 -8.483e-4,0.386685 -9.397e-4,1.119315 0.00357,2.401896 l 0.0098,2.6875 0.08984,0.167968 c 0.06931,0.128895 0.125514,0.187587 0.238281,0.253907 l 0.148437,0.08789 2.390625,0.01367 c 1.3148174,0.0079 3.7752454,0.01447 5.4687494,0.01367 l 3.080079,-0.002 0.148437,-0.0625 c 0.19133,-0.08219 0.247244,-0.132473 0.335937,-0.298828 l 0.07227,-0.134766 0.0039,-2.451172 0.0087,-2.732953 v 0 l -0.213539,-0.06627 v 0 c -0.03457,0.05607 0.05229,-0.0601 0,0 -0.259045,0.297745 -0.824814,0.714564 -2.582326,1.9399 -1.693807,1.180911 -2.812716,1.813794 -3.195322,1.808594 -0.06257,-8e-4 -0.188315,-0.02476 -0.279296,-0.05273 -0.576494,-0.17719 -1.511671,-0.757253 -3.7890624,-2.351563 -0.7940183,-0.55586 -1.2223966,-0.867734 -1.482653,-1.097401 -0.094085,-0.08303 -0.1661989,-0.155311 -0.2256725,-0.224494 -0.058251,-0.06776 0.042768,0.069 0,0 v 0 l -0.230749,0.09968 z"
     id="path5"
     sodipodi:nodetypes="ccccccsscsccscssccscsccsscsscsccccccccccccccccscccssscccc" />
</svg>
