<?xml version="1.0" encoding="UTF-8" standalone="no"?>
<svg
   width="24"
   height="24"
   version="1.1"
   id="svg208677"
   sodipodi:docname="pushbullet-indicator-sync2-light.svg"
   inkscape:version="1.1.2 (0a00cf5339, 2022-02-04)"
   xmlns:inkscape="http://www.inkscape.org/namespaces/inkscape"
   xmlns:sodipodi="http://sodipodi.sourceforge.net/DTD/sodipodi-0.dtd"
   xmlns="http://www.w3.org/2000/svg"
   xmlns:svg="http://www.w3.org/2000/svg">
  <sodipodi:namedview
     id="namedview208679"
     pagecolor="#000000"
     bordercolor="#666666"
     borderopacity="1.0"
     inkscape:pageshadow="2"
     inkscape:pageopacity="0"
     inkscape:pagecheckerboard="0"
     showgrid="false"
     inkscape:zoom="34.458333"
     inkscape:cx="12.01451"
     inkscape:cy="12"
     inkscape:window-width="1916"
     inkscape:window-height="1047"
     inkscape:window-x="2"
     inkscape:window-y="31"
     inkscape:window-maximized="1"
     inkscape:current-layer="svg208677" />
  <defs
     id="defs208673">
    <style
       id="current-color-scheme"
       type="text/css">
   .ColorScheme-Text { color:#eeeeec; } .ColorScheme-Highlight { color:#367bf0; } .ColorScheme-NeutralText { color:#ffcc44; } .ColorScheme-PositiveText { color:#3db47e; } .ColorScheme-NegativeText { color:#dd4747; }
  </style>
  </defs>
  <path
     style="fill:currentColor"
     class="ColorScheme-Text"
     d="m 3.9998,6 v 12 h 2 V 6 Z m 4,0 v 12 l 4.252,-0.0332 c 2.9313,-0.03263 3.208,-0.07195 4.4473,-0.67578 2.702,-1.3165 3.9797,-4.5047 2.9414,-7.3438 -0.686,-1.8751 -2.248,-3.2628 -4.237,-3.7677 -0.625,-0.1586 -1.021,-0.1797 -3.449,-0.1797 H 7.9993 Z m 2,2.3078259 L 10.34202,8 h 1.65778 0.657118 V 8 L 12.9998,8.4588386 V 9 v 1.743146 0 L 12.682987,11 h -0.488466 v 0 L 11.9998,10.716881 v -0.7319922 0 C 11.915652,10.050681 11.834106,9.8252814 11.756296,9.9041271 11.31906,10.347185 10.9998,11.006756 10.9998,12 c -8e-6,2.507438 2.095745,2.919127 2.783938,2.986722 0.135189,0.01328 0,0 0,0 l 0.216062,0.296241 v 0.466047 l -0.21086,0.240208 c 0,0 0.133385,0.01078 0,0 C 12.963904,15.922525 9.9998,15.443315 9.9998,12 c 8.7e-6,-1.295681 0.426401,-2.1694693 0.995594,-2.7611304 0.08211,-0.085355 -0.08721,0.074031 0,0 L 10.892144,9 H 10.272903 L 9.9998,8.7749153 v 0 z m 4,-0.122705 c 0,0 0.12941,-0.1851209 0.341677,-0.1618442 C 15.309334,8.12941 17.9998,8.7194721 17.9998,12 c 0,1.305635 -0.432968,2.18287 -1.008735,2.774717 C 16.913026,14.854935 16.963989,15 17.046552,15 h 0.188052 0.472597 v 0 l 0.292599,0.265293 v 0.464072 0 L 17.730497,16 H 15.9998 15.43138 v 0 L 14.9998,15.508166 V 15 v -1.665042 0 h 0.280529 L 15.771393,13 15.9998,13.223821 v 0 0.807928 l 0.301126,0.0039 c 0.105179,-0.08214 -0.09483,0.102854 0,0 C 16.708308,13.593813 16.9998,12.949068 16.9998,12 c 0,-2.4744727 -2.041005,-2.9079404 -2.756074,-2.9838734 -0.151866,-0.016127 0,0 0,0 L 13.9998,8.7118907 Z"
     id="path208675"
     sodipodi:nodetypes="cccccccccccscccccccccccccccccscsccccscsccccccccsssccccccccccccccccccccscsscc" />
</svg>
