<?xml version="1.0" encoding="UTF-8" standalone="no"?>
<svg
   width="24"
   height="24"
   version="1.1"
   id="svg7"
   sodipodi:docname="qjoypad-tray.svg"
   inkscape:version="1.1.2 (0a00cf5339, 2022-02-04)"
   xmlns:inkscape="http://www.inkscape.org/namespaces/inkscape"
   xmlns:sodipodi="http://sodipodi.sourceforge.net/DTD/sodipodi-0.dtd"
   xmlns="http://www.w3.org/2000/svg"
   xmlns:svg="http://www.w3.org/2000/svg">
  <sodipodi:namedview
     id="namedview9"
     pagecolor="#ffffff"
     bordercolor="#666666"
     borderopacity="1.0"
     inkscape:pageshadow="2"
     inkscape:pageopacity="0.0"
     inkscape:pagecheckerboard="0"
     showgrid="false"
     inkscape:zoom="31.5"
     inkscape:cx="12"
     inkscape:cy="12"
     inkscape:window-width="1880"
     inkscape:window-height="966"
     inkscape:window-x="0"
     inkscape:window-y="29"
     inkscape:window-maximized="1"
     inkscape:current-layer="svg7" />
  <defs
     id="defs3">
    <style
       id="current-color-scheme"
       type="text/css">
   .ColorScheme-Text { color:#eeeeec; } .ColorScheme-Highlight { color:#367bf0; } .ColorScheme-NeutralText { color:#ffcc44; } .ColorScheme-PositiveText { color:#3db47e; } .ColorScheme-NegativeText { color:#dd4747; }
  </style>
  </defs>
  <path
     style="fill:currentColor"
     class="ColorScheme-Text"
     d="m 7.0249898,5.0004758 v 0.00195 c -2.4887083,0 -4.3597989,2.0010688 -4.4906099,4.4804688 L 2.0362913,17.943508 c -0.3150264,1.85 1.482765,3.017141 2.9943906,0.994141 0.9425788,-1.279 2.9689984,-3.9375 2.9689984,-3.9375 l 8.0006697,0.04102 2.988531,4.021484 c 1.499025,2.012 3.186861,0.357874 2.996345,-1.003906 L 21.48909,9.5844602 c 7.84e-4,-0.034624 0.0098,-0.066745 0.0098,-0.1015625 -3e-5,-2.4824 -2.002332,-4.4824219 -4.490641,-4.4824219 z m -1.0254769,2.2451006 0.2610685,-0.2451006 1.4607146,0 0.2783843,0.2769106 v 0 1.7230894 h 1.7533191 v 0 l 0.2468483,0.2766316 v 1.4285796 l -0.2787222,0.294789 v 0 H 7.9996803 v 1.704932 0 l -0.2783843,0.295068 -1.4607146,0 v 0 L 5.9995129,12.769027 V 11.000476 H 4.2926258 v 0 l -0.2932803,-0.35841 0,-1.3967686 v 0 L 4.228878,9.0004758 H 5.9995129 Z M 17.000434,7.0004758 c 0.552331,4e-7 1.000083,0.4477155 1.000083,1 0,0.5522845 -0.447752,0.9999996 -1.000083,1 -0.552331,2e-7 -1.000084,-0.4477151 -1.000084,-1 0,-0.5522849 0.447753,-1.0000002 1.000084,-1 z m -2.000168,2 c 0.552331,-2e-7 1.000084,0.4477154 1.000084,1.0000002 0,0.552285 -0.447753,1 -1.000084,1 -0.552331,0 -1.000083,-0.447715 -1.000083,-1 0,-0.5522844 0.447752,-0.9999998 1.000083,-1.0000002 z m 4.000335,0 c 0.552331,-2e-7 1.000084,0.4477154 1.000084,1.0000002 0,0.552285 -0.447753,1 -1.000084,1 -0.552331,0 -1.000084,-0.447715 -1.000084,-1 0,-0.5522848 0.447753,-1.0000004 1.000084,-1.0000002 z m -2.000167,2.0000002 c 0.552331,0 1.000083,0.447716 1.000083,1 0,0.552284 -0.447752,1 -1.000083,1 -0.552331,0 -1.000084,-0.447715 -1.000084,-1 0,-0.552285 0.447753,-1 1.000084,-1 z"
     id="path5"
     sodipodi:nodetypes="cccccccccccsccccccccccccccccccccccccccccccssssssssssssssssssss" />
</svg>
