<?xml version="1.0" encoding="UTF-8" standalone="no"?>
<svg
   width="24"
   height="24"
   version="1.1"
   id="svg7"
   sodipodi:docname="rambox-indicator.svg"
   inkscape:version="1.1.2 (0a00cf5339, 2022-02-04)"
   xmlns:inkscape="http://www.inkscape.org/namespaces/inkscape"
   xmlns:sodipodi="http://sodipodi.sourceforge.net/DTD/sodipodi-0.dtd"
   xmlns="http://www.w3.org/2000/svg"
   xmlns:svg="http://www.w3.org/2000/svg">
  <sodipodi:namedview
     id="namedview9"
     pagecolor="#000000"
     bordercolor="#666666"
     borderopacity="1.0"
     inkscape:pageshadow="2"
     inkscape:pageopacity="0"
     inkscape:pagecheckerboard="0"
     showgrid="false"
     inkscape:zoom="34.458333"
     inkscape:cx="12.01451"
     inkscape:cy="12"
     inkscape:window-width="1920"
     inkscape:window-height="1051"
     inkscape:window-x="0"
     inkscape:window-y="29"
     inkscape:window-maximized="1"
     inkscape:current-layer="svg7" />
  <defs
     id="defs3">
    <style
       id="current-color-scheme"
       type="text/css">
   .ColorScheme-Text { color:#eeeeec; } .ColorScheme-Highlight { color:#367bf0; } .ColorScheme-NeutralText { color:#ffcc44; } .ColorScheme-PositiveText { color:#3db47e; } .ColorScheme-NegativeText { color:#dd4747; }
  </style>
  </defs>
  <path
     style="fill:currentColor"
     class="ColorScheme-Text"
     d="m 12.928,8.7935 c 1.8641,0.027066 2.1077,1.4722 2.6528,1.508 0.67581,0.0435 1.0585,0.88737 0.78596,1.4577 -0.27256,0.57031 -0.69168,0.28032 -0.70568,0.95794 -0.0084,0.39439 0.17362,0.68728 0.32204,0.69211 0.41912,-0.31996 0.8597,-0.32576 1.0809,-0.11793 0.22029,0.20783 0.22123,0.62928 0.21842,1.1629 0.99598,1.1406 1.2443,1.2296 1.5075,1.7651 0.20349,0.41469 0.40325,1.1561 -0.14468,1.3939 -0.39298,1.564 -1.5084,2.1015 -2.6202,1.9652 -0.37151,-0.03867 -1.3311,0.71724 -3.3221,0.29096 -1.5392,-0.32962 -8.4476,-2.0174 -7.6374,-5.1241 0.6293322,-2.402583 2.6039252,-7.4116581 3.575021,-9.0895254 0.1365419,-0.2359181 -0.090334,0.087696 0,0 0,0 0.312322,-0.1771413 0.3417034,0.2238914 0.025842,0.3527285 0.098595,0.7708266 0.2807867,1.0964118 0.060613,0.1083179 -0.087141,-0.082026 0,0 0.016798,-0.1416664 0.2593737,0.010737 0.2862174,-0.1198247 0.340592,-1.6565633 1.4454105,-2.4346212 2.1890505,-2.7232155 0.195264,-0.075779 0.244416,-0.063105 0.253693,0.062573 0.01327,0.1797793 0.01557,0.083996 -0.07802,0.2280946 -0.310089,0.4774685 -0.490266,0.9807599 -0.496281,1.4577017 -0.002,0.1556764 0.325785,-0.032791 0.362471,0.1154569 0.09929,-0.1230843 -0.107894,0.1046485 0,0 1.160341,-1.1254451 2.774039,-1.2151721 3.890707,-0.9236505 0.264466,0.069042 -0.196083,-0.1031173 0,0 -0.245829,0.043552 0.22172,0.3544553 0.0074,0.4069261 C 11.753116,6.4408707 12.93005,8.79438 12.93005,8.79438 Z"
     id="path5"
     sodipodi:nodetypes="ccccccccccccscsscssssscsscscc" />
</svg>
