<?xml version="1.0" encoding="UTF-8" standalone="no"?>
<svg
   width="24"
   height="24"
   version="1.1"
   id="svg7"
   sodipodi:docname="rambox-inactive.svg"
   inkscape:version="1.1.2 (0a00cf5339, 2022-02-04)"
   xmlns:inkscape="http://www.inkscape.org/namespaces/inkscape"
   xmlns:sodipodi="http://sodipodi.sourceforge.net/DTD/sodipodi-0.dtd"
   xmlns="http://www.w3.org/2000/svg"
   xmlns:svg="http://www.w3.org/2000/svg">
  <sodipodi:namedview
     id="namedview9"
     pagecolor="#000000"
     bordercolor="#666666"
     borderopacity="1.0"
     inkscape:pageshadow="2"
     inkscape:pageopacity="0"
     inkscape:pagecheckerboard="0"
     showgrid="false"
     inkscape:zoom="68.916667"
     inkscape:cx="12"
     inkscape:cy="8.5102781"
     inkscape:window-width="1920"
     inkscape:window-height="1051"
     inkscape:window-x="0"
     inkscape:window-y="29"
     inkscape:window-maximized="1"
     inkscape:current-layer="svg7" />
  <defs
     id="defs3">
    <style
       id="current-color-scheme"
       type="text/css">
   .ColorScheme-Text { color:#eeeeec; } .ColorScheme-Highlight { color:#367bf0; } .ColorScheme-NeutralText { color:#ffcc44; } .ColorScheme-PositiveText { color:#3db47e; } .ColorScheme-NegativeText { color:#dd4747; }
  </style>
  </defs>
  <path
     style="opacity:0.35;fill:currentColor"
     class="ColorScheme-Text"
     d="m 12.928,8.7935 c 1.8641,0.027066 2.1077,1.4722 2.6528,1.508 0.67581,0.0435 1.0585,0.88737 0.78596,1.4577 -0.27256,0.57031 -0.69168,0.28032 -0.70568,0.95794 -0.0084,0.39439 0.17362,0.68728 0.32204,0.69211 0.41912,-0.31996 0.8597,-0.32576 1.0809,-0.11793 0.22029,0.20783 0.22123,0.62928 0.21842,1.1629 0.99598,1.1406 1.2443,1.2296 1.5075,1.7651 0.20349,0.41469 0.40325,1.1561 -0.14468,1.3939 -0.39298,1.564 -1.5084,2.1015 -2.6202,1.9652 -0.37151,-0.03867 -1.3311,0.71724 -3.3221,0.29096 -1.5392,-0.32962 -8.4476,-2.0174 -7.6374,-5.1241 0.6363512,-2.429379 2.6481384,-7.5237163 3.6071356,-9.1444146 0.1227755,-0.2074897 -0.083169,0.08074 0,0 0,0 0.2869303,-0.1903332 0.3017661,0.1452147 0.018247,0.4127093 0.096054,0.9571762 0.3523228,1.3331697 0.046218,0.06781 -0.058525,-0.05509 0,0 0.011037,-0.093078 0.1811265,0.00151 0.1965814,-0.086745 0.3165992,-1.807966 1.5274121,-2.6155189 2.2890281,-2.8870638 0.164278,-0.058571 0.07208,0.2138714 0.181076,0.2005153 -0.08428,0.1002109 0.07261,-0.1036566 0,0 -0.423311,0.6042743 -0.640425,1.2577577 -0.558988,1.8515616 0.0084,0.060887 -0.01473,-0.059515 0,0 0.05196,-0.064415 0.139776,0.054428 0.194195,-0.00487 1.179963,-1.2857432 2.911563,-1.3860817 4.07834,-1.0698506 0.249915,0.067734 0.04289,0.08544 0.230008,0.1838418 C 15.70107,5.3084424 15.911104,5.4237749 15.70417,5.4738169 11.747946,6.4305336 12.93005,8.79438 12.93005,8.79438 Z"
     id="path5"
     sodipodi:nodetypes="ccccccccccccscsscsscsscsscscc" />
</svg>
