<?xml version="1.0" encoding="UTF-8" standalone="no"?>
<svg
   width="24"
   height="24"
   version="1.1"
   id="svg7"
   sodipodi:docname="remmina-panel.svg"
   inkscape:version="1.1.2 (0a00cf5339, 2022-02-04)"
   xmlns:inkscape="http://www.inkscape.org/namespaces/inkscape"
   xmlns:sodipodi="http://sodipodi.sourceforge.net/DTD/sodipodi-0.dtd"
   xmlns="http://www.w3.org/2000/svg"
   xmlns:svg="http://www.w3.org/2000/svg">
  <sodipodi:namedview
     id="namedview9"
     pagecolor="#ffffff"
     bordercolor="#666666"
     borderopacity="1.0"
     inkscape:pageshadow="2"
     inkscape:pageopacity="0.0"
     inkscape:pagecheckerboard="0"
     showgrid="false"
     inkscape:zoom="31.5"
     inkscape:cx="12"
     inkscape:cy="12"
     inkscape:window-width="1880"
     inkscape:window-height="966"
     inkscape:window-x="0"
     inkscape:window-y="29"
     inkscape:window-maximized="1"
     inkscape:current-layer="svg7" />
  <defs
     id="defs3">
    <style
       id="current-color-scheme"
       type="text/css">
   .ColorScheme-Text { color:#eeeeec; } .ColorScheme-Highlight { color:#367bf0; } .ColorScheme-NeutralText { color:#ffcc44; } .ColorScheme-PositiveText { color:#3db47e; } .ColorScheme-NegativeText { color:#dd4747; }
  </style>
  </defs>
  <path
     style="fill:currentColor"
     class="ColorScheme-Text"
     d="m 12,4 c -4.418278,0 -8,3.581722 -8,8 2.373e-4,1.348892 0.3415444,2.675824 0.9921875,3.857422 L 6.6660156,14.744141 C 6.2288587,13.895439 6.0005305,12.954673 6,12 6,8.6862915 8.6862915,6 12,6 c 1.773838,0.00251 3.455653,0.7897864 4.59375,2.1503906 L 18.265625,7.0371094 C 16.750279,5.1212708 14.442684,4.00272 12,4 Z M 9,7.5996094 V 9.541016 L 10.289063,10.400391 9,11.259766 v 1.939453 l 3.804041,-2.535437 0.03274,-0.505126 v 0 z M 19.011719,8.1503906 17.337891,9.263672 C 17.772487,10.110361 17.999437,11.048288 18,12 18,15.313708 15.313708,18 12,18 10.229486,17.9977 8.5503789,17.213544 7.4121094,15.857422 L 5.7402344,16.96875 C 7.2554749,18.880783 9.5603663,19.996911 12,20 c 4.418278,0 8,-3.581722 8,-8 -3.56e-4,-1.345907 -0.340273,-2.6699696 -0.988281,-3.8496094 z M 15,10.800781 l -3.853244,2.568232 -0.01933,0.448458 v 0 L 15,16.400391 V 14.458984 L 13.710938,13.599609 15,12.740234 Z"
     id="path5"
     sodipodi:nodetypes="cccccccccccccccccccccccccccccccccccc" />
</svg>
