<?xml version="1.0" encoding="UTF-8" standalone="no"?>
<svg
   width="24"
   height="24"
   version="1.1"
   id="svg7"
   sodipodi:docname="rocketchat-tray.svg"
   inkscape:version="1.1.2 (0a00cf5339, 2022-02-04)"
   xmlns:inkscape="http://www.inkscape.org/namespaces/inkscape"
   xmlns:sodipodi="http://sodipodi.sourceforge.net/DTD/sodipodi-0.dtd"
   xmlns="http://www.w3.org/2000/svg"
   xmlns:svg="http://www.w3.org/2000/svg">
  <sodipodi:namedview
     id="namedview9"
     pagecolor="#ffffff"
     bordercolor="#666666"
     borderopacity="1.0"
     inkscape:pageshadow="2"
     inkscape:pageopacity="0.0"
     inkscape:pagecheckerboard="0"
     showgrid="false"
     inkscape:zoom="31.5"
     inkscape:cx="12"
     inkscape:cy="12"
     inkscape:window-width="1880"
     inkscape:window-height="966"
     inkscape:window-x="0"
     inkscape:window-y="29"
     inkscape:window-maximized="1"
     inkscape:current-layer="svg7" />
  <defs
     id="defs3">
    <style
       id="current-color-scheme"
       type="text/css">
   .ColorScheme-Text { color:#eeeeec; } .ColorScheme-Highlight { color:#367bf0; } .ColorScheme-NeutralText { color:#ffcc44; } .ColorScheme-PositiveText { color:#3db47e; } .ColorScheme-NegativeText { color:#dd4747; }
  </style>
  </defs>
  <path
     style="fill:currentColor"
     class="ColorScheme-Text"
     d="M 4.665458,4.0301186 C 4.7790333,4.1970744 4.2215713,4.3610906 4.3238041,4.5791245 4.7844141,5.5614762 5.1280377,7.02897 5.3378906,8.681641 4.4662891,9.664932 4.0008959,10.819243 4,12 c 0.00265,1.214174 0.4964048,2.399175 1.4160156,3.398438 -0.1844479,1.667031 -0.535578,3.139678 -1.0818114,4.105918 -0.1042315,0.184376 0.4917866,0.316264 0.3731495,0.461594 0.2385137,0 -0.2328975,0.02253 0,0 1.818662,-0.175955 3.4516538,-1.023601 4.6735057,-2.303841 C 10.222682,17.883472 11.107941,17.997678 12,18 16.418278,18 20,15.313708 20,12 20,8.686291 16.418278,6 12,6 11.107941,6.0023218 10.222682,6.1165275 9.3808594,6.3378906 8.1496324,5.0478282 6.500932,4.1970224 4.665458,4.0301186 c -0.2192846,-0.01994 0.2242229,0 0,0 z M 12,8 c 0.217978,5.572e-4 0.435749,0.00903 0.652344,0.02539 0.0045,3.41e-4 0.0092,-3.48e-4 0.01367,0 0.01889,0.00191 0.03777,0.00387 0.05664,0.0059 2.605105,0.2115532 4.701689,1.5272582 5.175782,3.248047 0.0031,0.01117 0.0087,0.02201 0.01172,0.0332 0.0596,0.227001 0.08966,0.457011 0.08984,0.687463 -0.002,0.215351 -0.03009,0.430242 -0.08398,0.642578 -0.0068,0.0274 -0.01184,0.05472 -0.01953,0.08203 -0.06284,0.22151 -0.153663,0.439082 -0.27149,0.650392 -0.700524,1.271836 -2.319152,2.220814 -4.300781,2.521484 -0.004,6.36e-4 -0.0077,0.0013 -0.01172,0.002 -0.01041,0.0013 -0.02083,0.0026 -0.03125,0.0039 -0.159584,0.02325 -0.320525,0.04215 -0.482422,0.05664 -0.07783,0.0073 -0.155536,0.01433 -0.234375,0.01953 -0.182355,0.01273 -0.365489,0.01989 -0.548827,0.02145 H 12.005825 12 c -0.894902,-0.002 -1.777786,-0.137508 -2.5839844,-0.396484 L 8.7480469,15.427734 7.9335938,16.28125 c -0.09567,0.100242 -0.2051065,0.179245 -0.3185234,0.252432 -0.14067,0.09077 0.1342473,-0.102311 0,0 0.030118,-0.198871 -0.3511407,-0.113813 -0.3122961,-0.305756 0.039817,-0.196747 0.077945,-0.395689 0.1015226,-0.608785 l 0.099609,-0.90625 -0.2460937,-0.267579 C 6.613733,13.889112 6.20079,13.229615 6.0605469,12.533203 c -0.00494,-0.02341 -0.00745,-0.04693 -0.011719,-0.07031 C 6.0191294,12.309355 6.002826,12.154798 6,12 c 0.00137,-0.159335 0.017026,-0.318472 0.046875,-0.476562 0.00351,-0.01891 0.00972,-0.03771 0.013672,-0.05664 C 6.4607046,9.4833668 8.9980652,8.0023354 12,8 Z m -3,3 c -0.5522847,0 -1,0.447715 -1,1 0,0.552285 0.4477153,1 1,1 0.5522847,0 1,-0.447715 1,-1 0,-0.552285 -0.4477153,-1 -1,-1 z m 3,0 c -0.552285,0 -1,0.447715 -1,1 0,0.552285 0.447715,1 1,1 0.552285,0 1,-0.447715 1,-1 0,-0.552285 -0.447715,-1 -1,-1 z m 3,0 c -0.552285,0 -1,0.447715 -1,1 0,0.552285 0.447715,1 1,1 0.552285,0 1,-0.447715 1,-1 0,-0.552285 -0.447715,-1 -1,-1 z"
     id="path5"
     sodipodi:nodetypes="cscccscsccsccsccscccccccccccccccccccscscccccccccsssssssssssssss" />
</svg>
