<?xml version="1.0" encoding="UTF-8" standalone="no"?>
<svg
   width="24"
   height="24"
   version="1.1"
   id="svg7"
   sodipodi:docname="rocketchat-tray-dot.svg"
   inkscape:version="1.1.2 (0a00cf5339, 2022-02-04)"
   xmlns:inkscape="http://www.inkscape.org/namespaces/inkscape"
   xmlns:sodipodi="http://sodipodi.sourceforge.net/DTD/sodipodi-0.dtd"
   xmlns="http://www.w3.org/2000/svg"
   xmlns:svg="http://www.w3.org/2000/svg">
  <sodipodi:namedview
     id="namedview9"
     pagecolor="#ffffff"
     bordercolor="#666666"
     borderopacity="1.0"
     inkscape:pageshadow="2"
     inkscape:pageopacity="0.0"
     inkscape:pagecheckerboard="0"
     showgrid="false"
     inkscape:zoom="31.5"
     inkscape:cx="12"
     inkscape:cy="12"
     inkscape:window-width="1880"
     inkscape:window-height="966"
     inkscape:window-x="0"
     inkscape:window-y="29"
     inkscape:window-maximized="1"
     inkscape:current-layer="svg7" />
  <defs
     id="defs3">
    <style
       id="current-color-scheme"
       type="text/css">
   .ColorScheme-Text { color:#eeeeec; } .ColorScheme-Highlight { color:#367bf0; } .ColorScheme-NeutralText { color:#ffcc44; } .ColorScheme-PositiveText { color:#3db47e; } .ColorScheme-NegativeText { color:#dd4747; }
  </style>
  </defs>
  <path
     style="fill:currentColor"
     class="ColorScheme-Text"
     d="m 4.2808562,4.4896326 c 0.097795,0.1437579 -0.089404,-0.1819659 0,0 C 4.7630927,5.4711394 5.121566,6.9780025 5.3378906,8.6816406 4.4662891,9.6649316 4.0008959,10.819243 4,12 c 0.00265,1.214174 0.4964048,2.399175 1.4160156,3.398438 -0.1902634,1.719592 -0.5578855,3.232348 -1.1340611,4.195792 -0.088973,0.148776 0.23703,0.272496 0.1379955,0.393813 0.1409134,0 -0.1390207,0.0079 0,0 C 6.3537414,19.877645 8.0949796,19.009436 9.3808594,17.662109 10.222682,17.883472 11.107941,17.997678 12,18 16.418278,18 20,15.313708 20,12 20,8.686291 16.418278,6 12,6 11.107941,6.0023218 10.222682,6.1165275 9.3808594,6.3378906 8.143253,5.0411439 6.4838358,4.1882176 4.6369122,4.0275794 4.4269173,4.0093149 4.4953547,4.4896326 4.2808562,4.4896326 Z M 12,8 c 0.217978,5.574e-4 0.435749,0.00903 0.652344,0.025391 0.0045,3.41e-4 0.0092,-3.48e-4 0.01367,0 0.01889,0.00189 0.03777,0.00385 0.05664,0.00586 2.605105,0.2115532 4.701689,1.5272582 5.175782,3.248047 0.0031,0.01117 0.0087,0.02201 0.01172,0.0332 0.0596,0.227013 0.08966,0.457036 0.08984,0.6875 -0.002,0.215351 -0.03009,0.430242 -0.08398,0.642578 -0.0068,0.0274 -0.01184,0.05472 -0.01953,0.08203 -0.06284,0.22151 -0.153659,0.439082 -0.271484,0.650391 -0.700524,1.271836 -2.319152,2.220814 -4.300781,2.521484 -0.004,6.36e-4 -0.0077,0.0013 -0.01172,0.002 -0.01041,0.0013 -0.02083,0.0026 -0.03125,0.0039 -0.159584,0.02325 -0.320525,0.04215 -0.482422,0.05664 -0.07783,0.0073 -0.155536,0.01433 -0.234375,0.01953 -0.182354,0.01275 -0.365489,0.01992 -0.548828,0.02148 H 12.005859 12 c -0.894902,-0.002 -1.777786,-0.137508 -2.5839844,-0.396484 L 8.7480469,15.427734 7.9335938,16.28125 c -0.039475,0.04136 -0.081295,0.07911 -0.1247703,0.114321 -0.1925716,0.155974 -0.2996288,-0.361077 -0.4974533,-0.210313 0.032348,-0.213594 -0.041394,0.20655 0,0 0.036652,-0.18289 0.071052,-0.368411 0.092927,-0.566117 l 0.099609,-0.90625 -0.2460937,-0.267579 c -0.6440793,-0.5562 -1.0570224,-1.215697 -1.1972656,-1.912109 -0.00494,-0.02341 -0.00745,-0.04693 -0.011719,-0.07031 C 6.0191296,12.309354 6.0028262,12.154797 6,12 c 0.00137,-0.159335 0.017026,-0.318472 0.046875,-0.476562 0.00351,-0.01891 0.00972,-0.03771 0.013672,-0.05664 C 6.4607052,9.4833662 8.9980657,8.0023353 12,8 Z m -3,3 c -0.5522847,0 -1,0.447715 -1,1 0,0.552285 0.4477153,1 1,1 0.5522847,0 1,-0.447715 1,-1 0,-0.552285 -0.4477153,-1 -1,-1 z m 3,0 c -0.552285,0 -1,0.447715 -1,1 0,0.552285 0.447715,1 1,1 0.552285,0 1,-0.447715 1,-1 0,-0.552285 -0.447715,-1 -1,-1 z m 3,0 c -0.552285,0 -1,0.447715 -1,1 0,0.552285 0.447715,1 1,1 0.552285,0 1,-0.447715 1,-1 0,-0.552285 -0.447715,-1 -1,-1 z m 5,6 c -1.104569,0 -2,0.895431 -2,2 0,1.104569 0.895431,2 2,2 1.104569,0 2,-0.895431 2,-2 0,-1.104569 -0.895431,-2 -2,-2 z"
     id="path5"
     sodipodi:nodetypes="cscccscsccsccsccscccccccccccccccccccscscccccccccssssssssssssssssssss" />
</svg>
