<?xml version="1.0" encoding="UTF-8" standalone="no"?>
<svg
   width="24"
   height="24"
   version="1.1"
   id="svg11"
   sodipodi:docname="seafile-status-notification.svg"
   inkscape:version="1.1.2 (0a00cf5339, 2022-02-04)"
   xmlns:inkscape="http://www.inkscape.org/namespaces/inkscape"
   xmlns:sodipodi="http://sodipodi.sourceforge.net/DTD/sodipodi-0.dtd"
   xmlns="http://www.w3.org/2000/svg"
   xmlns:svg="http://www.w3.org/2000/svg">
  <sodipodi:namedview
     id="namedview13"
     pagecolor="#000000"
     bordercolor="#666666"
     borderopacity="1.0"
     inkscape:pageshadow="2"
     inkscape:pageopacity="0"
     inkscape:pagecheckerboard="0"
     showgrid="false"
     inkscape:zoom="34.458333"
     inkscape:cx="12.01451"
     inkscape:cy="12"
     inkscape:window-width="1920"
     inkscape:window-height="1051"
     inkscape:window-x="0"
     inkscape:window-y="29"
     inkscape:window-maximized="1"
     inkscape:current-layer="g9" />
  <defs
     id="defs3">
    <style
       id="current-color-scheme"
       type="text/css">
   .ColorScheme-Text { color:#eeeeec; } .ColorScheme-Highlight { color:#367bf0; } .ColorScheme-NeutralText { color:#ffcc44; } .ColorScheme-PositiveText { color:#3db47e; } .ColorScheme-NegativeText { color:#dd4747; }
  </style>
  </defs>
  <g
     transform="translate(1 2)"
     id="g9">
    <path
       style="fill:currentColor"
       class="ColorScheme-Text"
       d="m 8,4 v 0.017578 c -1.6567,0 -2.9998,1.3413 -3,2.9961 v 0.2715 c -0.3037,-0.1767 -0.6486,-0.2704 -1,-0.2715 -1.1047,0 -2.0002,0.89461 -2,1.998 H 1.5 c -0.27637,-3e-7 -0.50032,0.22395 -0.5,0.5 7.596e-4,0.27529 0.22439,0.49805 0.5,0.49805 h 0.77148 2.2891 c 0.6963,-1.1864 1.9727,-1.9983 3.4394,-1.9983 h 0.00195 c 0.5331,8e-4 1.0499,0.1182 1.5332,0.3203 0.3286,-0.745 0.8078,-1.4042 1.3988,-1.9355 -0.285,-1.3928 -1.5108,-2.3938 -2.934,-2.3965 z m 6.5,2.0117 v 0.00391 c -2.2208,0 -4.1069,1.6234 -4.4414,3.8164 -0.5565,-0.5263 -1.293,-0.8191 -2.059,-0.8203 -1.6569,0 -3,1.3411 -3,2.9961 0.00109,0.3432 0.06121,0.68293 0.17773,1.0059 -0.0591,-0.01 -0.1184,-0.0098 -0.17773,-0.0098 -1.1046,0 -2,0.89472 -2,1.998 0,1.103 0.8954,1.998 2,1.998 h 1.0449 c 0.37118,-0.10248 0.64896,-0.20383 0.9668,-0.47852 0.33976,-0.29376 3.4977,-5.498 6.377,-5.498 0,0 0.42528,-0.01631 0.61133,-0.02344 1.6569,0 3,1.3431 3,3 0,1.043494 -0.532715,1.962524 -1.341034,2.49998 -0.475162,0.315938 0.754499,0.50002 0.141093,0.50002 v 0 h 2.699941 c 1.381,0 2.5,-1.119 2.5,-2.498 0,-1.289 -0.983,-2.365 -2.268,-2.484 0.176,-0.485 0.266,-0.995 0.268,-1.51 0,-2.4826 -2.015,-4.4963 -4.5,-4.4963 z"
       id="path5"
       sodipodi:nodetypes="ccccccscsccscccccccccccsssccccssccsscccc" />
    <circle
       style="fill:currentColor"
       class="ColorScheme-Highlight"
       cx="14"
       cy="14"
       r="2"
       id="circle7" />
  </g>
</svg>
