<?xml version="1.0" encoding="UTF-8" standalone="no"?>
<svg
   width="24"
   height="24"
   version="1.1"
   id="svg9"
   sodipodi:docname="solaar-indicator.svg"
   inkscape:version="1.1.2 (0a00cf5339, 2022-02-04)"
   xmlns:inkscape="http://www.inkscape.org/namespaces/inkscape"
   xmlns:sodipodi="http://sodipodi.sourceforge.net/DTD/sodipodi-0.dtd"
   xmlns="http://www.w3.org/2000/svg"
   xmlns:svg="http://www.w3.org/2000/svg">
  <sodipodi:namedview
     id="namedview11"
     pagecolor="#ffffff"
     bordercolor="#666666"
     borderopacity="1.0"
     inkscape:pageshadow="2"
     inkscape:pageopacity="0.0"
     inkscape:pagecheckerboard="0"
     showgrid="false"
     inkscape:zoom="31.5"
     inkscape:cx="12"
     inkscape:cy="12"
     inkscape:window-width="1880"
     inkscape:window-height="966"
     inkscape:window-x="0"
     inkscape:window-y="29"
     inkscape:window-maximized="1"
     inkscape:current-layer="g7" />
  <defs
     id="defs3">
    <style
       id="current-color-scheme"
       type="text/css">
   .ColorScheme-Text { color:#eeeeec; } .ColorScheme-Highlight { color:#367bf0; } .ColorScheme-NeutralText { color:#ffcc44; } .ColorScheme-PositiveText { color:#3db47e; } .ColorScheme-NegativeText { color:#dd4747; }
  </style>
  </defs>
  <g
     transform="translate(0 -1028.4)"
     id="g7">
    <path
       style="fill:currentColor"
       class="ColorScheme-Text"
       d="M 6,4 C 4.892,4 4,4.892 4,6 v 12 c 0,1.108 0.892,2 2,2 h 12 c 1.108,0 2,-0.892 2,-2 V 6 C 20,4.892 19.108,4 18,4 Z m 4.046725,2.6192609 v 0 L 11.451,9.0527 C 11.631994,9.0183134 11.81577,9.0006722 12,9 c 0.183562,7.948e-4 0.366663,0.018436 0.547,0.0527 l 1.445039,-2.500609 v 0 l 0.409644,-0.093239 1.244704,0.7194821 v 0 l 0.0593,0.402634 L 14.279,10.055 c 0.238605,0.278887 0.424009,0.599191 0.547,0.945 h 2.990065 v 0 L 18,11.308639 v 1.365439 L 17.784191,13 v 0 H 14.824 c -0.121341,0.346924 -0.305397,0.668599 -0.543,0.949 l 1.420968,2.463371 -0.07994,0.423072 v 0 l -1.196241,0.691469 -0.474998,-0.151079 v 0 L 12.549,14.947 C 12.368016,14.981487 12.184239,14.999229 12,15 c -0.183571,-8.94e-4 -0.366672,-0.01863 -0.547,-0.053 l -1.394427,2.41333 v 0 L 9.4919945,17.479324 8.4629461,16.884636 8.2559194,16.484975 v 0 L 9.7207,13.945 C 9.4821303,13.666105 9.2967609,13.345801 9.1738,13 H 6.4190383 L 6,12.737217 v 0 -1.396768 0 L 6.4190383,11 H 9.1758 c 0.1213405,-0.346924 0.3053967,-0.668599 0.543,-0.949 L 8.3154619,7.6179272 v 0 L 8.4016072,7.1505118 9.5703496,6.4750943 Z M 12,10 c -1.104569,0 -2,0.895431 -2,2 0,1.104569 0.895431,2 2,2 1.104569,0 2,-0.895431 2,-2 0,-1.104569 -0.895431,-2 -2,-2 z"
       transform="translate(0,1028.4)"
       id="path5"
       sodipodi:nodetypes="ssssssssscccccccccccccccccccccccccccccccccccccccccccccccccccsssss" />
  </g>
</svg>
