<?xml version="1.0" encoding="UTF-8" standalone="no"?>
<svg
   width="24"
   height="24"
   version="1.1"
   id="svg9"
   sodipodi:docname="state-warning.svg"
   inkscape:version="1.1.2 (0a00cf5339, 2022-02-04)"
   xmlns:inkscape="http://www.inkscape.org/namespaces/inkscape"
   xmlns:sodipodi="http://sodipodi.sourceforge.net/DTD/sodipodi-0.dtd"
   xmlns="http://www.w3.org/2000/svg"
   xmlns:svg="http://www.w3.org/2000/svg">
  <sodipodi:namedview
     id="namedview11"
     pagecolor="#ffffff"
     bordercolor="#666666"
     borderopacity="1.0"
     inkscape:pageshadow="2"
     inkscape:pageopacity="0.0"
     inkscape:pagecheckerboard="0"
     showgrid="false"
     inkscape:zoom="31.5"
     inkscape:cx="12"
     inkscape:cy="12"
     inkscape:window-width="1880"
     inkscape:window-height="966"
     inkscape:window-x="0"
     inkscape:window-y="29"
     inkscape:window-maximized="1"
     inkscape:current-layer="g7" />
  <defs
     id="defs3">
    <style
       id="current-color-scheme"
       type="text/css">
   .ColorScheme-Text { color:#eeeeec; } .ColorScheme-Highlight { color:#367bf0; } .ColorScheme-NeutralText { color:#ffcc44; } .ColorScheme-PositiveText { color:#3db47e; } .ColorScheme-NegativeText { color:#dd4747; }
  </style>
  </defs>
  <g
     transform="translate(-385 127)"
     id="g7">
    <path
       style="fill:currentColor"
       class="ColorScheme-NeutralText"
       d="m 396.91,-123 c -0.548,0.0333 -1.0439,0.37421 -1.3184,0.90625 l -3.1875,6.1816 -3.1894,6.1816 c -0.13606,0.26414 -0.21062,0.56235 -0.2168,0.86719 -0.0215,1.02043 0.71129,1.86077 1.623,1.8613 h 6.377 6.375 c 1.25069,-8e-5 2.03206,-1.51621 1.4062,-2.7285 l -3.1875,-6.1816 -3.1875,-6.1816 c -0.27708,-0.53643 -0.77908,-0.87798 -1.332,-0.90625 -0.054,-0.003 -0.10811,-0.003 -0.16211,0 z m -0.91211,4.2611 0.31053,-0.2631 h 1.45981 l 0.22966,0.29491 v 0 6.38089 l -0.26154,0.3242 v 0 h -1.36509 v 0 l -0.37337,-0.35601 z m 0,8.09528 0.34241,-0.35838 h 1.42793 l 0.22966,0.23114 v 0 1.4922 l -0.32437,0.27666 v 0 h -1.46072 v 0 l -0.21491,-0.24485 z"
       id="path5"
       sodipodi:nodetypes="cccccccccccccccccccccccccccccccccccccccc" />
  </g>
</svg>
