<?xml version="1.0" encoding="UTF-8" standalone="no"?>
<svg
   width="24"
   height="24"
   version="1.1"
   id="svg1235214"
   sodipodi:docname="steadyflow-panel.svg"
   inkscape:version="1.1.2 (0a00cf5339, 2022-02-04)"
   xmlns:inkscape="http://www.inkscape.org/namespaces/inkscape"
   xmlns:sodipodi="http://sodipodi.sourceforge.net/DTD/sodipodi-0.dtd"
   xmlns="http://www.w3.org/2000/svg"
   xmlns:svg="http://www.w3.org/2000/svg">
  <sodipodi:namedview
     id="namedview1235216"
     pagecolor="#000000"
     bordercolor="#666666"
     borderopacity="1.0"
     inkscape:pageshadow="2"
     inkscape:pageopacity="0"
     inkscape:pagecheckerboard="0"
     showgrid="false"
     inkscape:zoom="34.458333"
     inkscape:cx="12.01451"
     inkscape:cy="12"
     inkscape:window-width="1920"
     inkscape:window-height="1051"
     inkscape:window-x="0"
     inkscape:window-y="29"
     inkscape:window-maximized="1"
     inkscape:current-layer="svg1235214" />
  <defs
     id="defs1235210">
    <style
       id="current-color-scheme"
       type="text/css">
   .ColorScheme-Text { color:#eeeeec; } .ColorScheme-Highlight { color:#367bf0; } .ColorScheme-NeutralText { color:#ffcc44; } .ColorScheme-PositiveText { color:#3db47e; } .ColorScheme-NegativeText { color:#dd4747; }
  </style>
  </defs>
  <path
     style="fill:currentColor"
     class="ColorScheme-Text"
     d="m 13.5,4.1195 c -1.5387,0 -2.9701,0.7889 -3.7949,2.0879 -0.23072,-0.057 -0.4674,-0.087 -0.70508,-0.088 -1.6569,0 -3,1.3431 -3,3 0.0011,0.4065 0.08486,0.8085 0.24609,1.1816 -1.9218,0.5576 -3.2446,2.3173 -3.2461,4.3184 0,2.4853 2.0147,4.5 4.5,4.5 h 6.047508 v 0 L 13.627946,18.773116 10.13081,14.9573 c -0.239868,-0.318419 -0.02892,-0.77576 0.369,-0.8 h 2.5 v -4.5 c 2.8e-5,-0.2761309 0.223869,-0.4999724 0.5,-0.5 h 5 c 0.0729,1.037e-4 0.144893,0.016145 0.21094,0.047 -0.22616,-0.1628 -0.46369,-0.3126 -0.7168,-0.4414 0.0024,-0.035 0.0043,-0.07 0.0059,-0.1055 0,-2.4853 -2.0147,-4.5 -4.5,-4.5 z m 5.4023,5.2012 c 0.06383,0.086512 0.09807,0.1912914 0.09766,0.2988 v 4.5 h 1.957 c 0.01516,-0.1663 0.04297,-0.3297 0.04297,-0.5 -0.0023,-1.6986 -0.79549,-3.2697 -2.0977,-4.2988 z m -4.902,0.8 v 4.5 c -2.8e-5,0.276131 -0.223869,0.499972 -0.5,0.5 l -1.264809,0 v 0 l -0.107696,0.535394 3.545278,3.867443 v 0 l 0.665745,-0.01232 3.474732,-3.790486 c 0.105414,-0.122075 -0.532799,0.549461 0,0 L 19.597852,15.1207 H 18.5003 c -0.276131,-2.8e-5 -0.499972,-0.223869 -0.5,-0.5 v -4.5 z"
     id="path1235212"
     sodipodi:nodetypes="ccccccsccccccccccccccccccccccccccccccccccccc" />
</svg>
