<?xml version="1.0" encoding="UTF-8" standalone="no"?>
<svg
   width="24"
   height="24"
   version="1.1"
   id="svg11"
   sodipodi:docname="synergy-panel-ok.svg"
   inkscape:version="1.1.2 (0a00cf5339, 2022-02-04)"
   xmlns:inkscape="http://www.inkscape.org/namespaces/inkscape"
   xmlns:sodipodi="http://sodipodi.sourceforge.net/DTD/sodipodi-0.dtd"
   xmlns="http://www.w3.org/2000/svg"
   xmlns:svg="http://www.w3.org/2000/svg">
  <sodipodi:namedview
     id="namedview13"
     pagecolor="#ffffff"
     bordercolor="#666666"
     borderopacity="1.0"
     inkscape:pageshadow="2"
     inkscape:pageopacity="0.0"
     inkscape:pagecheckerboard="0"
     showgrid="false"
     inkscape:zoom="31.5"
     inkscape:cx="12"
     inkscape:cy="12"
     inkscape:window-width="1880"
     inkscape:window-height="966"
     inkscape:window-x="0"
     inkscape:window-y="29"
     inkscape:window-maximized="1"
     inkscape:current-layer="svg11" />
  <defs
     id="defs3">
    <style
       id="current-color-scheme"
       type="text/css">
   .ColorScheme-Text { color:#eeeeec; } .ColorScheme-Highlight { color:#367bf0; } .ColorScheme-NeutralText { color:#ffcc44; } .ColorScheme-PositiveText { color:#3db47e; } .ColorScheme-NegativeText { color:#dd4747; }
  </style>
  </defs>
  <path
     style="opacity:.35;fill:currentColor"
     class="ColorScheme-Text"
     d="M 12,4 C 7.581722,4 4,7.581722 4,12 L 5.5,14 7,12 C 7,9.2385763 9.2385763,7 12,7 L 10,5.5 Z"
     id="path5" />
  <path
     style="fill:currentColor"
     class="ColorScheme-Text"
     d="m 12,4 -1.593961,1.1954708 0.06001,0.6540698 v 0 L 12,7 c 2.761424,0 5,2.2385763 5,5 l 1.231293,-1.641724 0.574304,0.04919 v 0 L 20,12 C 20,7.581722 16.418278,4 12,4 Z m -8,8 c 0,4.418278 3.581722,8 8,8 l 1.661449,-1.246087 -0.03126,-0.531271 v 0 L 12,17 C 9.2385763,17 7,14.761424 7,12 l -1.2066483,1.608864 -0.5608194,0.03451 v 0 z"
     id="path7"
     sodipodi:nodetypes="cccccccccccccccccccccc" />
  <path
     style="fill:currentColor"
     class="ColorScheme-Text"
     d="m 17.766196,12.00526 c -0.265312,0.01593 -0.534044,0.05939 -0.800781,0.13086 -2.1339,0.5718 -3.399825,2.764537 -2.828125,4.898437 0.57174,2.1338 2.764537,3.399925 4.898437,2.828125 2.1339,-0.5718 3.399825,-2.764537 2.828125,-4.898437 -0.500272,-1.867075 -2.24047,-3.070476 -4.097656,-2.958985 z m 1.710937,1.988282 a 0.50005,0.50005 0 0 1 0.470704,0.728515 l -1.5,3 a 0.50005,0.50005 0 0 1 -0.72461,0.19336 l -1.5,-1 a 0.50005,0.50005 0 1 1 0.554688,-0.832032 l 1.029297,0.685547 1.246093,-2.492187 a 0.50005,0.50005 0 0 1 0.423828,-0.283203 z"
     id="path9" />
</svg>
