<?xml version="1.0" encoding="UTF-8" standalone="no"?>
<svg
   width="24"
   height="24"
   version="1.1"
   id="svg11"
   sodipodi:docname="tabletattention.svg"
   inkscape:version="1.1.2 (0a00cf5339, 2022-02-04)"
   xmlns:inkscape="http://www.inkscape.org/namespaces/inkscape"
   xmlns:sodipodi="http://sodipodi.sourceforge.net/DTD/sodipodi-0.dtd"
   xmlns="http://www.w3.org/2000/svg"
   xmlns:svg="http://www.w3.org/2000/svg">
  <sodipodi:namedview
     id="namedview13"
     pagecolor="#ffffff"
     bordercolor="#666666"
     borderopacity="1.0"
     inkscape:pageshadow="2"
     inkscape:pageopacity="0.0"
     inkscape:pagecheckerboard="0"
     showgrid="false"
     inkscape:zoom="31.5"
     inkscape:cx="12"
     inkscape:cy="12"
     inkscape:window-width="1880"
     inkscape:window-height="966"
     inkscape:window-x="0"
     inkscape:window-y="29"
     inkscape:window-maximized="1"
     inkscape:current-layer="g9" />
  <defs
     id="defs3">
    <style
       id="current-color-scheme"
       type="text/css">
   .ColorScheme-Text { color:#eeeeec; } .ColorScheme-Highlight { color:#367bf0; } .ColorScheme-NeutralText { color:#ffcc44; } .ColorScheme-PositiveText { color:#3db47e; } .ColorScheme-NegativeText { color:#dd4747; }
  </style>
  </defs>
  <g
     transform="translate(1,1)"
     id="g9">
    <path
       style="fill:currentColor"
       class="ColorScheme-Text"
       d="M 4,5 C 2.892,5 2,5.892 2,7 V 15 C 2,16.108 2.892,17 4,17 H 17 V 15 H 5 V 7 H 17 V 8 H 20 V 7 C 20,5.892 19.108,5 18,5 Z M 10,5.5 H 12 V 6 H 10 Z"
       id="path5" />
    <path
       class="ColorScheme-NeutralText"
       d="M 18.307741,9 18,9.324925 V 13 l 0.25,2 h 1.5 L 20,13 V 9.324925 L 19.736584,9 V 9 Z M 18,16.308766 v 0 1.428579 0 L 18.339615,18 h 1.365095 v 0 L 20,17.705533 V 16.340576 L 19.70471,16 v 0 h -1.428843 z"
       style="fill:currentColor"
       id="path7"
       sodipodi:nodetypes="cccccccccccccccccccccccc" />
  </g>
</svg>
