<?xml version="1.0" encoding="UTF-8" standalone="no"?>
<svg
   width="24"
   height="24"
   version="1.1"
   id="svg7"
   sodipodi:docname="tartube-info-tray.svg"
   inkscape:version="1.1.2 (0a00cf5339, 2022-02-04)"
   xmlns:inkscape="http://www.inkscape.org/namespaces/inkscape"
   xmlns:sodipodi="http://sodipodi.sourceforge.net/DTD/sodipodi-0.dtd"
   xmlns="http://www.w3.org/2000/svg"
   xmlns:svg="http://www.w3.org/2000/svg">
  <sodipodi:namedview
     id="namedview9"
     pagecolor="#ffffff"
     bordercolor="#666666"
     borderopacity="1.0"
     inkscape:pageshadow="2"
     inkscape:pageopacity="0.0"
     inkscape:pagecheckerboard="0"
     showgrid="false"
     inkscape:zoom="31.5"
     inkscape:cx="12"
     inkscape:cy="12"
     inkscape:window-width="1880"
     inkscape:window-height="966"
     inkscape:window-x="0"
     inkscape:window-y="29"
     inkscape:window-maximized="1"
     inkscape:current-layer="svg7" />
  <defs
     id="defs3">
    <style
       id="current-color-scheme"
       type="text/css">
   .ColorScheme-Text { color:#eeeeec; } .ColorScheme-Highlight { color:#367bf0; } .ColorScheme-NeutralText { color:#ffcc44; } .ColorScheme-PositiveText { color:#3db47e; } .ColorScheme-NegativeText { color:#dd4747; }
  </style>
  </defs>
  <path
     style="fill:currentColor"
     class="ColorScheme-Text"
     d="M 6.4453125,4 C 5.6528431,3.9810293 5.0002782,4.6291851 5,5.4355469 V 18.564453 c 3.155e-4,1.105098 1.1759515,1.795947 2.1171875,1.244141 L 18.292969,13.244141 c 0.941712,-0.552827 0.941712,-1.935455 0,-2.488282 L 7.1171875,4.1933594 C 6.9126725,4.0727083 6.6816517,4.0062226 6.4453125,4 Z m 2.1259344,4.5269987 v 0 l 5.4024301,3.1737853 v 0 L 13.819572,12.393655 8.5943938,15.463309 8,15.245423 v 0 -6.3490772 z M 17,15.435805 v 0 1.206388 L 17.466367,17 v 0 h 1.238513 v 0 L 19,16.705332 v -1.206388 0 L 18.577385,15 l -1.04727,0 z m 0,3.015727 v 0 3.07935 0 L 17.561988,22 h 1.111019 v 0 L 19,21.49907 v -3.015728 0 L 18.673007,18 h -1.2376 z"
     id="path5"
     sodipodi:nodetypes="cccccccccccccccccccccccccccccccccccccccccccc" />
</svg>
