<?xml version="1.0" encoding="UTF-8" standalone="no"?>
<svg
   width="24"
   height="24"
   version="1.1"
   id="svg1705229"
   sodipodi:docname="teamviewer-indicator-offline.svg"
   inkscape:version="1.1.2 (0a00cf5339, 2022-02-04)"
   xmlns:inkscape="http://www.inkscape.org/namespaces/inkscape"
   xmlns:sodipodi="http://sodipodi.sourceforge.net/DTD/sodipodi-0.dtd"
   xmlns="http://www.w3.org/2000/svg"
   xmlns:svg="http://www.w3.org/2000/svg">
  <sodipodi:namedview
     id="namedview1705231"
     pagecolor="#000000"
     bordercolor="#666666"
     borderopacity="1.0"
     inkscape:pageshadow="2"
     inkscape:pageopacity="0"
     inkscape:pagecheckerboard="0"
     showgrid="false"
     inkscape:zoom="34.458333"
     inkscape:cx="12.01451"
     inkscape:cy="12"
     inkscape:window-width="1920"
     inkscape:window-height="1051"
     inkscape:window-x="0"
     inkscape:window-y="29"
     inkscape:window-maximized="1"
     inkscape:current-layer="g1705227" />
  <defs
     id="defs1705223">
    <style
       id="current-color-scheme"
       type="text/css">
   .ColorScheme-Text { color:#eeeeec; } .ColorScheme-Highlight { color:#367bf0; } .ColorScheme-NeutralText { color:#ffcc44; } .ColorScheme-PositiveText { color:#3db47e; } .ColorScheme-NegativeText { color:#dd4747; }
  </style>
  </defs>
  <g
     id="g1705227">
    <path
       style="opacity:0.35;fill:currentColor"
       class="ColorScheme-Text"
       d="m 12,4 c -4.4179185,-10e-8 -8.0000001,3.5820815 -8,8 -10e-8,4.417918 3.5820815,8 8,8 4.417918,0 8,-3.582082 8,-8 C 20,7.5820815 16.417918,3.9999999 12,4 Z M 9.7112063,9.2887937 10,9.4475045 V 11 h 4 v -1.5130369 0 l 0.374989,-0.1119739 2.366905,2.3669048 v 0 l 0.03112,0.485089 -2.382443,2.382443 v 0 L 14,14.535928 V 13 h -4 v 1.499096 l -0.3461117,0.154792 v 0 L 7.2709551,12.270955 v 0 l -0.02628,-0.515631 z"
       id="path1705225"
       sodipodi:nodetypes="sssssccccccccccccccccccccccc" />
  </g>
</svg>
