<?xml version="1.0" encoding="UTF-8" standalone="no"?>
<svg
   width="24"
   height="24"
   version="1.1"
   id="svg556006"
   sodipodi:docname="teamviewer-indicator-connected.svg"
   inkscape:version="1.1.2 (0a00cf5339, 2022-02-04)"
   xmlns:inkscape="http://www.inkscape.org/namespaces/inkscape"
   xmlns:sodipodi="http://sodipodi.sourceforge.net/DTD/sodipodi-0.dtd"
   xmlns="http://www.w3.org/2000/svg"
   xmlns:svg="http://www.w3.org/2000/svg">
  <sodipodi:namedview
     id="namedview556008"
     pagecolor="#000000"
     bordercolor="#666666"
     borderopacity="1.0"
     inkscape:pageshadow="2"
     inkscape:pageopacity="0"
     inkscape:pagecheckerboard="0"
     showgrid="false"
     inkscape:zoom="34.458333"
     inkscape:cx="12.01451"
     inkscape:cy="12"
     inkscape:window-width="1920"
     inkscape:window-height="1051"
     inkscape:window-x="0"
     inkscape:window-y="29"
     inkscape:window-maximized="1"
     inkscape:current-layer="g556004" />
  <defs
     id="defs556000">
    <style
       id="current-color-scheme"
       type="text/css">
   .ColorScheme-Text { color:#eeeeec; } .ColorScheme-Highlight { color:#367bf0; } .ColorScheme-NeutralText { color:#ffcc44; } .ColorScheme-PositiveText { color:#3db47e; } .ColorScheme-NegativeText { color:#dd4747; }
  </style>
  </defs>
  <g
     id="g556004">
    <path
       style="fill:currentColor"
       class="ColorScheme-Text"
       d="m 21.827187,15.155926 v 0 l 0.983086,0.983007 v 0 l -0.0035,0.382943 -4.059234,4.059285 0.0059,0.006 -1.199992,1.198276 v 0 L 17.06415,21.725578 13.393402,18.05487 13.278499,17.582961 v 0 l 1.03616,-1.036222 v 0 l 0.447316,0.05091 2.335208,2.333363 0.427953,0.04684 v 0 l 3.882253,-3.882394 z M 14.361719,9.361719 14,9.5151734 V 11 H 10 V 9.421117 L 9.6966173,9.3033829 v 0 L 7.2671062,11.732894 v 0 L 7.2520106,12.25201 9.626145,14.626145 10,14.415196 v 0 V 13 h 4 v 1.464337 l 0.400865,0.134798 v 0 l 2.23746,-2.23746 v 0 l -0.02284,-0.746191 z M 20,12 c -0.0016,1.571558 -0.467437,3.108196 -1.336919,4.417323 l -1.060338,1.060327 v 0 L 16.996105,17.421531 14.88065,15.3061 14.168594,15.267346 v 0 l -2.114288,2.107023 v 0 l 0.02051,0.77889 1.278502,1.278487 v 0 c -0.09316,0.02096 0.184818,0.411761 0.09103,0.429439 -0.476094,0.08974 -0.959603,0.136946 -1.444353,0.138814 -4.4172782,0 -8.0000001,-3.582769 -8.0000001,-8 C 3.9999999,7.5827676 7.582572,3.9998486 12,3.9999986 16.417428,4.00015 20,7.5827694 20,12 Z"
       id="path556002"
       sodipodi:nodetypes="cccccccccccccccccccccccccccccccccccccccccccccccccccccccccscssc" />
  </g>
</svg>
