<?xml version="1.0" encoding="UTF-8" standalone="no"?>
<svg
   width="24"
   height="24"
   version="1.1"
   id="svg9"
   sodipodi:docname="weather-clear-night-350.svg"
   inkscape:version="1.1.2 (0a00cf5339, 2022-02-04)"
   xmlns:inkscape="http://www.inkscape.org/namespaces/inkscape"
   xmlns:sodipodi="http://sodipodi.sourceforge.net/DTD/sodipodi-0.dtd"
   xmlns="http://www.w3.org/2000/svg"
   xmlns:svg="http://www.w3.org/2000/svg">
  <sodipodi:namedview
     id="namedview11"
     pagecolor="#000000"
     bordercolor="#666666"
     borderopacity="1.0"
     inkscape:pageshadow="2"
     inkscape:pageopacity="0"
     inkscape:pagecheckerboard="0"
     showgrid="false"
     inkscape:zoom="34.458333"
     inkscape:cx="12.01451"
     inkscape:cy="12"
     inkscape:window-width="1920"
     inkscape:window-height="1051"
     inkscape:window-x="0"
     inkscape:window-y="29"
     inkscape:window-maximized="1"
     inkscape:current-layer="g7" />
  <defs
     id="defs3">
    <style
       id="current-color-scheme"
       type="text/css">
   .ColorScheme-Text { color:#eeeeec; } .ColorScheme-Highlight { color:#367bf0; } .ColorScheme-NeutralText { color:#ffcc44; } .ColorScheme-PositiveText { color:#3db47e; } .ColorScheme-NegativeText { color:#dd4747; }
  </style>
  </defs>
  <g
     transform="translate(-80.000012,-680.28997)"
     id="g7">
    <path
       style="fill:currentColor"
       class="ColorScheme-Text"
       d="m 92.160648,685.62671 c -0.226091,0.008 0.03038,-0.30881 -0.192021,-0.27857 -2.455633,0.33391 -4.640398,1.978 -5.547428,4.51007 -1.302985,3.63742 0.515776,7.68743 4.095697,9.01134 2.504039,0.92603 5.19575,0.26884 7.03227,-1.44666 0.156726,-0.1464 -0.143622,0.16149 0,0 -0.227228,0.0745 -0.0081,-0.32518 -0.243145,-0.27584 -1.118474,0.23478 -2.312978,0.17666 -3.463295,-0.24875 -3.324214,-1.22935 -5.028457,-4.97666 -3.818545,-8.35426 0.434905,-1.21409 1.193717,-2.19437 2.136467,-2.91733 0.155563,-0.1193 -0.16495,0.10517 0,0 z"
       id="path5"
       sodipodi:nodetypes="csssscsccscc" />
  </g>
</svg>
