<?xml version="1.0" encoding="UTF-8" standalone="no"?>
<svg
   width="24"
   height="24"
   version="1.1"
   id="svg9"
   sodipodi:docname="weather-severe-alert.svg"
   inkscape:version="1.1.2 (0a00cf5339, 2022-02-04)"
   xmlns:inkscape="http://www.inkscape.org/namespaces/inkscape"
   xmlns:sodipodi="http://sodipodi.sourceforge.net/DTD/sodipodi-0.dtd"
   xmlns="http://www.w3.org/2000/svg"
   xmlns:svg="http://www.w3.org/2000/svg">
  <sodipodi:namedview
     id="namedview11"
     pagecolor="#ffffff"
     bordercolor="#666666"
     borderopacity="1.0"
     inkscape:pageshadow="2"
     inkscape:pageopacity="0.0"
     inkscape:pagecheckerboard="0"
     showgrid="false"
     inkscape:zoom="31.5"
     inkscape:cx="12"
     inkscape:cy="12"
     inkscape:window-width="1880"
     inkscape:window-height="966"
     inkscape:window-x="0"
     inkscape:window-y="29"
     inkscape:window-maximized="1"
     inkscape:current-layer="svg9" />
  <defs
     id="defs3">
    <style
       id="current-color-scheme"
       type="text/css">
   .ColorScheme-Text { color:#eeeeec; } .ColorScheme-Highlight { color:#367bf0; } .ColorScheme-NeutralText { color:#ffcc44; } .ColorScheme-PositiveText { color:#3db47e; } .ColorScheme-NegativeText { color:#dd4747; }
  </style>
  </defs>
  <path
     style="fill:currentColor"
     class="ColorScheme-NeutralText"
     d="m 11.0002,11.340449 v 0 V 15 l 2.4e-5,1.610382 L 11.435004,17 v 0 h 1.174764 v 0 L 13.000225,16.67352 13.0002,15 V 11.40407 L 12.705388,11 v 0 h -1.396967 z m 0,7.047463 v 0 1.270008 L 11.308421,20 v 0 h 1.301347 L 13.0002,19.62611 v 0 -1.238198 L 12.673516,18 v 0 h -1.333221 z"
     id="path5"
     sodipodi:nodetypes="cccccccccccccccccccccccccccc" />
  <path
     style="fill:currentColor"
     class="ColorScheme-Text"
     d="m 12,5.00013 c -2.07107,0 -3.83471,1.26792 -4.59375,3.0625 C 5.47842,8.34923 4,9.99255 4,12.00013 c 0,2.20914 1.79086,4 4,4 h 2 v -5.612067 0 l 0.419608,-0.387933 h 3.237431 v 0 L 14,10.388063 v 5.612067 h 2.5 c 1.933,0 3.5,-1.567 3.5,-3.5 C 20,10.70359 18.64921,9.23143 16.90625,9.03138 16.45168,6.73799 14.42687,5.00013 12,5.00013 Z"
     id="path7"
     sodipodi:nodetypes="scssccccccccsscs" />
</svg>
