<?xml version="1.0" encoding="UTF-8" standalone="no"?>
<svg
   width="24"
   height="24"
   version="1.1"
   id="svg399156"
   sodipodi:docname="weather-few-clouds.svg"
   inkscape:version="1.1.2 (0a00cf5339, 2022-02-04)"
   xmlns:inkscape="http://www.inkscape.org/namespaces/inkscape"
   xmlns:sodipodi="http://sodipodi.sourceforge.net/DTD/sodipodi-0.dtd"
   xmlns="http://www.w3.org/2000/svg"
   xmlns:svg="http://www.w3.org/2000/svg">
  <sodipodi:namedview
     id="namedview399158"
     pagecolor="#262626"
     bordercolor="#666666"
     borderopacity="1.0"
     inkscape:pageshadow="2"
     inkscape:pageopacity="0"
     inkscape:pagecheckerboard="0"
     showgrid="false"
     inkscape:zoom="34.458333"
     inkscape:cx="12.01451"
     inkscape:cy="12"
     inkscape:window-width="1920"
     inkscape:window-height="1051"
     inkscape:window-x="0"
     inkscape:window-y="29"
     inkscape:window-maximized="1"
     inkscape:current-layer="svg399156" />
  <defs
     id="defs399152">
    <style
       id="current-color-scheme"
       type="text/css">
   .ColorScheme-Text { color:#eeeeec; } .ColorScheme-Highlight { color:#367bf0; } .ColorScheme-NeutralText { color:#ffcc44; } .ColorScheme-PositiveText { color:#3db47e; } .ColorScheme-NegativeText { color:#dd4747; }
  </style>
  </defs>
  <path
     style="fill:currentColor"
     class="ColorScheme-Text"
     d="m 10.999997,4.3672527 v 0 1.2651512 l 0.182795,0.4251519 c 0.182795,-0.028385 -0.06106,0.00852 0,0 0.270701,-0.037771 0.543738,-0.057011 0.817205,-0.057555 0.271876,0.00159 0.543256,0.02165 0.812267,0.060021 0.06271,0.00895 -0.187733,-0.02982 0,0 L 12.999997,5.6621658 V 4.3714064 L 12.696084,3.9999979 v 0 l -1.247788,4.3e-6 z M 7.3119245,5.897869 6.7440894,5.9434115 5.9055164,6.7819845 v 0 l 0.047077,0.5846778 0.8832709,0.8832714 0.5183032,-0.037874 c 0.076885,-0.1078433 -0.083657,0.1022977 0,0 0.2668334,-0.3262884 0.5673405,-0.6235908 0.8965517,-0.8869513 0.090714,-0.072569 -0.094968,0.067311 0,0 L 8.293228,6.8791719 Z m 9.8565065,-0.041932 -0.472791,0.034361 -0.963248,0.9632469 0.0156,0.4682443 c 0.09386,0.066912 -0.08967,-0.072057 0,0 0.35245,0.2832215 0.671793,0.6054057 0.951916,0.9604228 0.06367,0.08069 -0.05954,-0.084011 0,0 l 0.457652,-0.025711 0.976512,-0.9765126 -0.114429,-0.2292047 0.08074,-0.2628928 z m -5.168434,1.1440664 c -2.7614234,1e-7 -4.9999995,2.2385758 -4.9999999,4.9999992 -4.8e-6,1.559454 0.7268349,3.020855 1.9502426,3.962259 0.110872,0.08531 0.4124314,-0.177586 0.5312886,-0.101126 0.055251,-0.118766 -0.068958,0.110436 0,0 0.4532284,-0.725848 1.1897467,-1.26565 2.0419067,-1.538867 0.646177,-1.320546 1.899347,-2.322266 3.476562,-2.322266 0.597175,0 1.146299,0.14795 1.635033,0.40015 0.111156,0.05736 -0.104763,-0.06763 0,0 0.02522,-0.194987 0.362871,-0.20355 0.364971,-0.40015 0,-2.7614234 -2.238577,-4.9999992 -5,-4.9999992 z m -8,4.3932042 v 0 1.095198 l 0.5199493,0.511597 v 0 h 1.2581414 l 0.2457645,-0.477284 c -0.027082,-0.158269 0.014296,0.159791 0,0 -0.015543,-0.173733 -0.02351,-0.348137 -0.023857,-0.522716 0.00101,-0.172328 0.00944,-0.344457 0.025244,-0.515909 0.014946,-0.162103 -0.2901628,-0.323601 -0.2620569,-0.484091 v 0 H 4.3675016 Z m 13.978806,0.11475 c 0.02881,0.168394 -0.01434,-0.170088 0,0 0.01379,0.163584 0.02087,0.327737 0.0212,0.492045 -0.001,0.170914 -0.0093,0.341632 -0.02487,0.511688 -0.01496,0.16352 0.366667,0.326429 0.338319,0.488312 v 0 h 1.302499 v 0 l 0.384059,-0.513625 v -1.089461 l -0.44323,-0.396914 v 0 h -1.258065 z m -2.978806,1.492045 c -1.31,0 -2.400547,0.859297 -2.810547,2.029297 -1.23,0.16 -2.1894529,1.200703 -2.1894529,2.470703 0,1.38 1.1199999,2.5 2.4999999,2.5 h 5 c 1.38,0 2.5,-1.12 2.5,-2.5 0,-1.27 -0.959453,-2.310703 -2.189453,-2.470703 -0.4,-1.17 -1.500547,-2.029297 -2.810547,-2.029297 z m -8.1543715,2.74031 v 0 L 5.9203881,16.66555 v 0 l 0.049224,0.616568 0.8020692,0.802069 v 0 l 0.5534313,0.0048 1.0012635,-1.001262 -0.1469374,-0.468718 c -0.1193383,-0.08508 0.1125275,0.09335 0,0 -0.3171849,-0.263138 -0.6064912,-0.558321 -0.8632839,-0.8809 -0.069378,-0.08715 -0.4059894,0.0933 -0.4705296,0.0022 z"
     id="path399154"
     sodipodi:nodetypes="ccccscsccccccccccccccssccccccccsscccccccscscscssccsscccccccscscccccscsccccccccccscsssscsccccccccccssc" />
</svg>
