<?xml version="1.0" encoding="UTF-8" standalone="no"?>
<svg
   width="24"
   height="24"
   version="1.1"
   id="svg7"
   sodipodi:docname="weather-clear-wind-night.svg"
   inkscape:version="1.1.2 (0a00cf5339, 2022-02-04)"
   xmlns:inkscape="http://www.inkscape.org/namespaces/inkscape"
   xmlns:sodipodi="http://sodipodi.sourceforge.net/DTD/sodipodi-0.dtd"
   xmlns="http://www.w3.org/2000/svg"
   xmlns:svg="http://www.w3.org/2000/svg">
  <sodipodi:namedview
     id="namedview9"
     pagecolor="#000000"
     bordercolor="#666666"
     borderopacity="1.0"
     inkscape:pageshadow="2"
     inkscape:pageopacity="0"
     inkscape:pagecheckerboard="0"
     showgrid="false"
     inkscape:zoom="31.5"
     inkscape:cx="12"
     inkscape:cy="12"
     inkscape:window-width="1854"
     inkscape:window-height="966"
     inkscape:window-x="0"
     inkscape:window-y="29"
     inkscape:window-maximized="1"
     inkscape:current-layer="svg7" />
  <defs
     id="defs3">
    <style
       id="current-color-scheme"
       type="text/css">
   .ColorScheme-Text { color:#eeeeec; } .ColorScheme-Highlight { color:#367bf0; } .ColorScheme-NeutralText { color:#ffcc44; } .ColorScheme-PositiveText { color:#3db47e; } .ColorScheme-NegativeText { color:#dd4747; }
  </style>
  </defs>
  <path
     style="fill:currentColor"
     class="ColorScheme-Text"
     d="M 12.177355,5.3245709 C 11.972863,5.3321999 12.23481,5.0243064 12.033281,5.0497998 9.5517283,5.3637164 7.3367649,7.0143804 6.421887,9.568359 6.1347659,10.369888 5.9985265,11.191987 6.000012,12 h 3.8125 C 9.5298821,10.797512 9.5767451,9.50093 10.02345,8.2539062 10.460802,7.032982 11.2269,6.0486448 12.177355,5.3245709 c 0.150639,-0.1147594 -0.159325,0.1015898 0,0 z M 13.500012,11 c -0.634185,0.0017 -1.198763,0.402082 -1.410156,1 h 1.910156 v 1 h -0.5 -1.410156 -6.089844 v 1 h 7.5 c 0.828427,0 1.5,-0.671573 1.5,-1.5 0,-0.828427 -0.671573,-1.5 -1.5,-1.5 z m 3,2 c -0.634185,0.0017 -1.198763,0.402082 -1.410156,1 h 1.910156 v 1 h -0.5 -1.410156 -6.089844 v 1 h 7.5 c 0.828427,0 1.5,-0.671573 1.5,-1.5 0,-0.828427 -0.671573,-1.5 -1.5,-1.5 z m -10.5,4 v 1 h 6.089844 1.410156 0.5 v 1 h -1.910156 c 0.211393,0.597918 0.775971,0.998284 1.410156,1 0.828427,0 1.5,-0.671573 1.5,-1.5 0,-0.828427 -0.671573,-1.5 -1.5,-1.5 z"
     id="path5"
     sodipodi:nodetypes="csscccscccccccccsscccccccccsscccccccccssc" />
</svg>
