<?xml version="1.0" encoding="UTF-8" standalone="no"?>
<svg
   width="24"
   height="24"
   version="1.1"
   id="svg1664764"
   sodipodi:docname="weather-hail.svg"
   inkscape:version="1.1.2 (0a00cf5339, 2022-02-04)"
   xmlns:inkscape="http://www.inkscape.org/namespaces/inkscape"
   xmlns:sodipodi="http://sodipodi.sourceforge.net/DTD/sodipodi-0.dtd"
   xmlns="http://www.w3.org/2000/svg"
   xmlns:svg="http://www.w3.org/2000/svg">
  <sodipodi:namedview
     id="namedview1664766"
     pagecolor="#000000"
     bordercolor="#666666"
     borderopacity="1.0"
     inkscape:pageshadow="2"
     inkscape:pageopacity="0"
     inkscape:pagecheckerboard="0"
     showgrid="false"
     inkscape:zoom="34.458333"
     inkscape:cx="12.01451"
     inkscape:cy="12"
     inkscape:window-width="1920"
     inkscape:window-height="1051"
     inkscape:window-x="0"
     inkscape:window-y="29"
     inkscape:window-maximized="1"
     inkscape:current-layer="svg1664764" />
  <defs
     id="defs1664758">
    <style
       id="current-color-scheme"
       type="text/css">
   .ColorScheme-Text { color:#eeeeec; } .ColorScheme-Highlight { color:#367bf0; } .ColorScheme-NeutralText { color:#ffcc44; } .ColorScheme-PositiveText { color:#3db47e; } .ColorScheme-NegativeText { color:#dd4747; }
  </style>
  </defs>
  <path
     style="fill:currentColor"
     class="ColorScheme-Text"
     d="m 12,4.00336 c -2.07107,0 -3.83471,1.26792 -4.59375,3.0625 C 5.47842,7.35246 4,8.99578 4,11.00336 c 0,1.933 1.36477,3.53327 3.1875,3.90625 0.6947597,-0.707871 1.383716,-1.419354 2.0978371,-2.107218 0.071293,-0.06867 -0.071826,0.06817 0,0 0.081628,0.07664 0.3776548,-0.05153 0.4587759,0.02597 0.488361,0.466565 0.967926,0.947328 1.443387,1.425002 0.24292,-0.069 0.38252,-0.84617 0.71875,-1.09375 0.775978,-0.788522 1.552534,-1.567696 2.351282,-2.331713 0.08059,-0.07709 0.257781,0.244037 0.500249,0.01325 0.08657,0.08114 -0.08532,-0.08155 0,0 0.571331,0.546026 1.117641,1.100857 1.679719,1.662213 0.59794,0.57143 1.22758,1.20365 1.4375,2.03125 0.016,0.0511 0.018,0.10465 0.0312,0.15625 C 19.14145,14.15037 20,12.93791 20,11.50336 20,9.70682 18.64921,8.23466 16.90625,8.03461 16.45168,5.74122 14.42687,4.00336 12,4.00336 Z m 2.5,9.4375 c -0.0852,0.0828 -0.1647,0.1673 -0.25,0.25 -0.39699,0.41584 -0.89926,0.78359 -1.125,1.3125 h 2.78125 c -0.0262,-0.0614 -0.0565,-0.12918 -0.0937,-0.1875 -0.3731,-0.51309 -0.87897,-0.91335 -1.3125,-1.375 z"
     id="path1664760"
     sodipodi:nodetypes="scscscsccscscccscsccccccc" />
  <path
     style="fill:currentColor"
     class="ColorScheme-Highlight"
     d="m 14.84395,12.34375 h -0.6875 L 12.7502,13.75 c -0.45315,0.45315 -0.75,1.0626 -0.75,1.75 0,1.37479 1.12521,2.5 2.5,2.5 1.37479,0 2.5,-1.12521 2.5,-2.5 0,-0.6874 -0.29685,-1.29685 -0.75,-1.75 z m -5,2 H 9.15645 L 7.7502,15.75 c -0.45315,0.45315 -0.75,1.0626 -0.75,1.75 0,1.37479 1.12521,2.5 2.5,2.5 1.37479,0 2.5,-1.12521 2.5,-2.5 0,-0.6874 -0.29685,-1.29685 -0.75,-1.75 z"
     id="path1664762"
     sodipodi:nodetypes="ccsssssccccssssscc" />
</svg>
