<?xml version="1.0" encoding="UTF-8" standalone="no"?>
<svg
   width="24"
   height="24"
   version="1"
   id="svg1636337"
   sodipodi:docname="whatsie-tray.svg"
   inkscape:version="1.1.2 (0a00cf5339, 2022-02-04)"
   xmlns:inkscape="http://www.inkscape.org/namespaces/inkscape"
   xmlns:sodipodi="http://sodipodi.sourceforge.net/DTD/sodipodi-0.dtd"
   xmlns="http://www.w3.org/2000/svg"
   xmlns:svg="http://www.w3.org/2000/svg">
  <sodipodi:namedview
     id="namedview1636339"
     pagecolor="#000000"
     bordercolor="#666666"
     borderopacity="1.0"
     inkscape:pageshadow="2"
     inkscape:pageopacity="0"
     inkscape:pagecheckerboard="0"
     showgrid="false"
     inkscape:zoom="34.458333"
     inkscape:cx="12.01451"
     inkscape:cy="12"
     inkscape:window-width="1920"
     inkscape:window-height="1051"
     inkscape:window-x="0"
     inkscape:window-y="29"
     inkscape:window-maximized="1"
     inkscape:current-layer="svg1636337" />
  <defs
     id="defs1636333">
    <style
       id="current-color-scheme"
       type="text/css">
   .ColorScheme-Text { color:#eeeeec; } .ColorScheme-Highlight { color:#367bf0; } .ColorScheme-NeutralText { color:#ffcc44; } .ColorScheme-PositiveText { color:#3db47e; } .ColorScheme-NegativeText { color:#dd4747; }
  </style>
  </defs>
  <path
     style="fill:currentColor"
     class="ColorScheme-Text"
     d="m 12,4 c -0.19263,0 -0.38312,0.010178 -0.57227,0.023437 -0.02374,0.00175 -0.04659,0.00193 -0.07031,0.00391 -2.8578,0.22552 -5.2792,1.9429 -6.502,4.375 -0.079115,0.15745 -0.15969,0.31526 -0.22852,0.47852 -0.37451,0.8457 -0.57829,1.742 -0.61523,2.6816 -0.00162,0.03035 -0.00262,0.06135 -0.00391,0.0918 -0.00247,0.08976 -0.00646,0.17901 -0.00586,0.26953 -2e-4,0.025 -0.0019,0.051 -0.0019,0.076 0,0.93022 0.16572,1.8193 0.45508,2.6484 0.11645,0.37168 0.25023,0.74664 0.41211,1.127 0.40323,0.94731 0.45407,1.2048 0.39062,1.9961 -0.044209,0.55135 -0.19404,1.1147 -0.38086,1.4316 -0.16938,0.28738 -0.1886078,0.343403 -0.1886078,0.418893 0,0 0.027547,0.360052 0.262558,0.372196 0.484796,0.02505 1.3584607,-0.0794 2.1623598,-0.285229 1.3984,-0.35802 1.5213,-0.35781 2.668,0.002 0.52453,0.1646 1.1215,0.25287 1.7969,0.27734 0.02825,0.0014 0.05761,0.0028 0.08594,0.0039 0.09243,0.0026 0.18187,0.0078 0.27734,0.0078 0.0078,0 0.01373,5.7e-5 0.02148,0 0.01231,5.5e-5 0.02478,0 0.03711,0 0.22339,0 0.44345,-0.01152 0.66211,-0.0293 1.9778,-0.14065 3.5664,-0.87147 4.9961,-2.2988 1.178,-1.176 1.9088,-2.6293 2.1973,-4.1484 0.02658,-0.13884 0.04706,-0.27859 0.06641,-0.41992 0.0117,-0.08676 0.02438,-0.17272 0.0332,-0.25977 0.01939,-0.18667 0.03067,-0.37606 0.03711,-0.56641 0.0014,-0.04797 0.0034,-0.09654 0.0039,-0.14453 0.002,-0.045 0.005,-0.088 0.005,-0.133 0,-4.3581 -3.45,-7.8778 -7.779,-7.9942 -0.034,-9e-4 -0.068,-0.0014 -0.102,-0.0019 -0.04,-6e-4 -0.079,-0.0039 -0.119,-0.0039 z m -5,6 c 1.1045695,0 2,0.895431 2,2 0,1.104569 -0.8954305,2 -2,2 -1.1045695,0 -2,-0.895431 -2,-2 0,-1.104569 0.8954305,-2 2,-2 z m 5,0 c 1.104569,0 2,0.895431 2,2 0,1.104569 -0.895431,2 -2,2 -1.104569,0 -2,-0.895431 -2,-2 0,-1.104569 0.895431,-2 2,-2 z m 5,0 c 1.104569,0 2,0.895431 2,2 0,1.104569 -0.895431,2 -2,2 -1.104569,0 -2,-0.895431 -2,-2 0,-1.104569 0.895431,-2 2,-2 z"
     id="path1636335"
     sodipodi:nodetypes="ccccccccsccscssccccscscccccccsccccsssssssssssssss" />
</svg>
