<?xml version="1.0" encoding="UTF-8" standalone="no"?>
<svg
   width="24"
   height="24"
   version="1"
   id="svg252905"
   sodipodi:docname="workrave-indicator-suspended.svg"
   inkscape:version="1.1.2 (0a00cf5339, 2022-02-04)"
   xmlns:inkscape="http://www.inkscape.org/namespaces/inkscape"
   xmlns:sodipodi="http://sodipodi.sourceforge.net/DTD/sodipodi-0.dtd"
   xmlns="http://www.w3.org/2000/svg"
   xmlns:svg="http://www.w3.org/2000/svg">
  <sodipodi:namedview
     id="namedview252907"
     pagecolor="#000000"
     bordercolor="#666666"
     borderopacity="1.0"
     inkscape:pageshadow="2"
     inkscape:pageopacity="0"
     inkscape:pagecheckerboard="0"
     showgrid="false"
     inkscape:zoom="34.458333"
     inkscape:cx="12.01451"
     inkscape:cy="12"
     inkscape:window-width="1920"
     inkscape:window-height="1051"
     inkscape:window-x="0"
     inkscape:window-y="29"
     inkscape:window-maximized="1"
     inkscape:current-layer="svg252905" />
  <defs
     id="defs252897">
    <style
       id="current-color-scheme"
       type="text/css">
   .ColorScheme-Text { color:#eeeeec; } .ColorScheme-Highlight { color:#367bf0; } .ColorScheme-NeutralText { color:#ffcc44; } .ColorScheme-PositiveText { color:#3db47e; } .ColorScheme-NegativeText { color:#dd4747; }
  </style>
  </defs>
  <path
     style="fill:currentColor"
     class="ColorScheme-Text"
     d="m 3.9461862,3.0831138 v 0 L 3.027074,4.002226 v 0 l 0.063794,0.5039419 16.368445,16.3684451 0.587472,0.0499 v 0 l 0.913818,-0.913818 -0.0108,-0.477594 v 0 L 4.5499552,3.1332552 Z M 12,3.9996 C 10.646943,4.0005488 9.3860808,4.6854595 8.6488,5.82 l 1.3516,1.3516 V 6.99972 h 1 V 6.2752055 L 11.322899,5.99972 v 0 h 1.417488 L 13.0004,6.272437 v 0 0.727283 h 0.814276 L 14.0004,7.2393543 v 0 1.5632593 0 L 13.77925,8.99972 H 13.0004 v 1 h -0.17188 l 1.3496,1.3496 c 1.13479,-0.736528 1.820392,-1.9967447 1.8223,-3.3496 0,-2.209139 -1.790861,-4 -4,-4 z m -0.79492,10.033 c -7.1831,0.34142 -7.2051,5.1113 -7.2051,5.1113 v 0.85547 h 12.785238 v 0 l 0.04533,-0.341428 -5.625372,-5.625372 z"
     id="path252899"
     sodipodi:nodetypes="cccccccccccccccccccccccccccccccccccccccccccccc" />
  <g
     transform="translate(-39.549 -8.213)"
     id="g252903">
    <path
       style="fill:currentColor"
       class="ColorScheme-Text"
       d="m30.565 21.238 1.414 1.414-1.793 1.793h5.172v2h-5.172l1.793 1.793-1.414 1.414-4.207-4.207z"
       id="path252901" />
  </g>
</svg>
