<?xml version="1.0" encoding="UTF-8" standalone="no"?>
<svg
   width="24"
   height="24"
   version="1"
   id="svg370582"
   sodipodi:docname="workrave-indicator.svg"
   inkscape:version="1.1.2 (0a00cf5339, 2022-02-04)"
   xmlns:inkscape="http://www.inkscape.org/namespaces/inkscape"
   xmlns:sodipodi="http://sodipodi.sourceforge.net/DTD/sodipodi-0.dtd"
   xmlns="http://www.w3.org/2000/svg"
   xmlns:svg="http://www.w3.org/2000/svg">
  <sodipodi:namedview
     id="namedview370584"
     pagecolor="#000000"
     bordercolor="#666666"
     borderopacity="1.0"
     inkscape:pageshadow="2"
     inkscape:pageopacity="0"
     inkscape:pagecheckerboard="0"
     showgrid="false"
     inkscape:zoom="34.458333"
     inkscape:cx="12.01451"
     inkscape:cy="12"
     inkscape:window-width="1920"
     inkscape:window-height="1051"
     inkscape:window-x="0"
     inkscape:window-y="29"
     inkscape:window-maximized="1"
     inkscape:current-layer="svg370582" />
  <defs
     id="defs370578">
    <style
       id="current-color-scheme"
       type="text/css">
   .ColorScheme-Text { color:#eeeeec; } .ColorScheme-Highlight { color:#367bf0; } .ColorScheme-NeutralText { color:#ffcc44; } .ColorScheme-PositiveText { color:#3db47e; } .ColorScheme-NegativeText { color:#dd4747; }
  </style>
  </defs>
  <path
     style="fill:currentColor"
     class="ColorScheme-Text"
     d="M 12,4 C 9.790861,4 8,5.790861 8,8 c 0,2.209139 1.790861,4 4,4 2.209139,0 4,-1.790861 4,-4 0,-2.209139 -1.790861,-4 -4,-4 z m -0.791664,2 v 0 h 1.537696 L 13,6.2318288 v 0 V 7 h 0.707276 L 14,7.3856572 v 0 1.2956516 L 13.721475,9 V 9 H 13 V 9.6959646 L 12.680568,10 v 0 h -1.379523 v 0 L 11,9.7083786 V 9 H 10.230595 L 10,8.7032753 v 0 -1.306142 L 10.244798,7 V 7 H 11 V 6.2338764 Z M 12,14 C 3.9996,14.004 4,19.145 4,19.145 V 20 h 16 v -0.85547 c 0,0 -3.07e-4,-5.1484 -8,-5.1445 z"
     id="path370580"
     sodipodi:nodetypes="ssssscccccccccccccccccccccccccccccccccccc" />
</svg>
