<?xml version="1.0" encoding="UTF-8" standalone="no"?>
<svg
   width="24"
   height="24"
   version="1.1"
   id="svg11"
   sodipodi:docname="xfce4-fsguard-plugin-urgent.svg"
   inkscape:version="1.1.2 (0a00cf5339, 2022-02-04)"
   xmlns:inkscape="http://www.inkscape.org/namespaces/inkscape"
   xmlns:sodipodi="http://sodipodi.sourceforge.net/DTD/sodipodi-0.dtd"
   xmlns="http://www.w3.org/2000/svg"
   xmlns:svg="http://www.w3.org/2000/svg">
  <sodipodi:namedview
     id="namedview13"
     pagecolor="#000000"
     bordercolor="#666666"
     borderopacity="1.0"
     inkscape:pageshadow="2"
     inkscape:pageopacity="0"
     inkscape:pagecheckerboard="0"
     showgrid="false"
     inkscape:zoom="31.5"
     inkscape:cx="12"
     inkscape:cy="12"
     inkscape:window-width="1854"
     inkscape:window-height="966"
     inkscape:window-x="0"
     inkscape:window-y="29"
     inkscape:window-maximized="1"
     inkscape:current-layer="svg11" />
  <defs
     id="defs3">
    <style
       id="current-color-scheme"
       type="text/css">
   .ColorScheme-Text { color:#eeeeec; } .ColorScheme-Highlight { color:#367bf0; } .ColorScheme-NeutralText { color:#ffcc44; } .ColorScheme-PositiveText { color:#3db47e; } .ColorScheme-NegativeText { color:#dd4747; }
  </style>
  </defs>
  <g
     transform="translate(1,1)"
     id="g7">
    <path
       style="fill:currentColor"
       class="ColorScheme-Text"
       d="M 6,4 C 5.446,4 5,4.446 5,5 v 14 c 0,0.554 0.446,1 1,1 h 7.005859 c -2.92e-4,-0.02301 -0.0063,-0.04528 -0.0059,-0.06836 0.007,-0.321067 0.08528,-0.637331 0.234375,-0.925782 l 1.792969,-3.476562 1.792968,-3.478516 c 0.299841,-0.581085 0.885683,-1.007688 1.570313,-1.048828 h 0.002 0.002 c 0.06672,-0.0038 0.134442,-0.0036 0.201172,0 0.14049,0.0074 0.273488,0.04215 0.404297,0.08008 V 5 C 19,4.446 18.554,4 18,4 Z m 6,3 c 2.209139,0 4,1.790861 4,4 0,2.209139 -1.790861,4 -4,4 H 8.3558543 v 0 L 8,14.705611 V 11 C 8,8.790861 9.790861,7 12,7 Z m 0,2 c -1.10457,0 -2,0.8954305 -2,2 0,1.104569 0.895431,2 2,2 1.104569,0 2,-0.895431 2,-2 0,-1.1045695 -0.895431,-2 -2,-2 z"
       transform="translate(-1,-1)"
       id="path5"
       sodipodi:nodetypes="ssssccccccccccsssssscccsssssss" />
  </g>
  <path
     style="fill:currentColor"
     class="ColorScheme-NeutralText"
     d="m 18.451172,12 c -0.308459,0.01854 -0.587668,0.210308 -0.742188,0.509766 l -1.792968,3.478515 -1.792969,3.476563 C 14.046058,19.613454 14.003741,19.781379 14,19.953125 13.987985,20.527565 14.400827,21.000392 14.914062,21 H 18.5 22.085938 c 0.703766,1.13e-4 1.143423,-0.853147 0.791015,-1.535156 L 21.083984,15.988281 19.291016,12.509766 C 19.135382,12.208417 18.853549,12.016358 18.542969,12 c -0.03058,-0.0017 -0.06122,-0.0017 -0.0918,0 z M 18,14.229417 18.260723,14 h 0.539744 L 19,14.261229 v 0 3.46011 L 18.800467,18 v 0 h -0.572072 v 0 L 18,17.753149 Z M 18,19 h 1 v 1 h -1 z"
     id="path9"
     sodipodi:nodetypes="ccccccccccccccccccccccccccccccc" />
</svg>
