<?xml version="1.0" encoding="UTF-8" standalone="no"?>
<svg
   width="24"
   height="24"
   version="1.1"
   id="svg7"
   sodipodi:docname="xfce-nomail.svg"
   inkscape:version="1.1.2 (0a00cf5339, 2022-02-04)"
   xmlns:inkscape="http://www.inkscape.org/namespaces/inkscape"
   xmlns:sodipodi="http://sodipodi.sourceforge.net/DTD/sodipodi-0.dtd"
   xmlns="http://www.w3.org/2000/svg"
   xmlns:svg="http://www.w3.org/2000/svg">
  <sodipodi:namedview
     id="namedview9"
     pagecolor="#000000"
     bordercolor="#666666"
     borderopacity="1.0"
     inkscape:pageshadow="2"
     inkscape:pageopacity="0"
     inkscape:pagecheckerboard="0"
     showgrid="false"
     inkscape:zoom="97.462885"
     inkscape:cx="19.597204"
     inkscape:cy="9.5369637"
     inkscape:window-width="834"
     inkscape:window-height="841"
     inkscape:window-x="471"
     inkscape:window-y="31"
     inkscape:window-maximized="1"
     inkscape:current-layer="svg7" />
  <defs
     id="defs3">
    <style
       id="current-color-scheme"
       type="text/css">
   .ColorScheme-Text { color:#eeeeec; } .ColorScheme-Highlight { color:#367bf0; } .ColorScheme-NeutralText { color:#ffcc44; } .ColorScheme-PositiveText { color:#3db47e; } .ColorScheme-NegativeText { color:#dd4747; }
  </style>
  </defs>
  <path
     style="fill:currentColor"
     class="ColorScheme-Text"
     d="M 6,6 C 4.892,6 4,6.892 4,8.0000001 V 16 c 0,1.108 0.892,2 2,2 h 12 c 1.108,0 2,-0.892 2,-2 V 8.0000001 c 0,-1.108 -0.892,-2 -2,-2 z m 0.2475698,2.123785 v 0 l 5.6004812,2.800241 0.318467,-0.0073 v 0 L 17.779928,8.1100359 18,8.2778287 v 0 1.5465288 l -0.137206,0.2442455 v 0 L 12.174399,12.9128 v 0 l -0.324901,0.01195 -5.7030407,-2.85152 v 0 L 6,9.8666807 v -1.6652542 0 z"
     id="path5"
     sodipodi:nodetypes="ssssssssscccccccccccccccccccc" />
</svg>
