<?xml version="1.0" encoding="UTF-8" standalone="no"?>
<svg
   width="22"
   height="22"
   version="1.1"
   id="svg9"
   sodipodi:docname="account-types-investments.svg"
   inkscape:version="1.1.2 (0a00cf5339, 2022-02-04)"
   xmlns:inkscape="http://www.inkscape.org/namespaces/inkscape"
   xmlns:sodipodi="http://sodipodi.sourceforge.net/DTD/sodipodi-0.dtd"
   xmlns="http://www.w3.org/2000/svg"
   xmlns:svg="http://www.w3.org/2000/svg">
  <sodipodi:namedview
     id="namedview11"
     pagecolor="#000000"
     bordercolor="#666666"
     borderopacity="1.0"
     inkscape:pageshadow="2"
     inkscape:pageopacity="0"
     inkscape:pagecheckerboard="0"
     showgrid="false"
     inkscape:zoom="106.32315"
     inkscape:cx="11.060621"
     inkscape:cy="8.7422168"
     inkscape:window-width="1916"
     inkscape:window-height="1047"
     inkscape:window-x="2"
     inkscape:window-y="31"
     inkscape:window-maximized="1"
     inkscape:current-layer="svg9" />
  <defs
     id="defs3">
    <style
       id="current-color-scheme"
       type="text/css">
   .ColorScheme-Text { color:#eeeeec; } .ColorScheme-Highlight { color:#367bf0; } .ColorScheme-NeutralText { color:#ffcc44; } .ColorScheme-PositiveText { color:#3db47e; } .ColorScheme-NegativeText { color:#dd4747; }
  </style>
  </defs>
  <path
     style="opacity:0.35;fill:currentColor"
     class="ColorScheme-Text"
     d="m 11,3 c -4.418278,0 -8,3.581722 -8,8 0.00348,0.326651 0.026959,0.652782 0.070312,0.976562 C 3.157948,11.56928 3.4496006,11.171221 3.828125,10.953125 L 6.9863281,9.1308594 C 7.7270832,8.7035678 8.7415074,8.8634971 9.046875,9.5585938 v 0 l 2.931641,-1.6933594 c 0.62633,-0.3618846 1.359854,-0.1465849 1.849609,0.3496094 L 13.980469,8.1269531 13.525391,7.3320312 C 12.964405,6.3535709 13.711834,5.0348231 14.847656,5.0332031 h 0.002 1.46875 C 14.854899,3.7261914 12.962138,3.002591 11,3 Z m 7.984375,7.5625 -0.480469,0.841797 v 0.002 c -0.560299,0.977674 -2.090716,0.975362 -2.65039,-0.002 v -0.002 h -0.002 l -0.3125,-0.546875 -1.373046,0.794922 c -0.62652,0.36281 -1.361415,0.147252 -1.851563,-0.34961 L 9.2578125,13.066406 C 8.5737603,13.461642 7.7288502,13.215871 7.2597656,12.601562 l -1.859375,1.074219 h -0.00195 C 5.0167939,13.895679 4.5208416,13.950451 4.1230469,13.818359 3.7490408,13.694167 3.4787615,13.44234 3.2949219,13.150391 4.2598883,16.608189 7.4100801,18.999779 11,19 c 4.418278,0 8,-3.581722 8,-8 -0.0012,-0.145949 -0.0064,-0.291837 -0.01563,-0.4375 z"
     id="path5"
     sodipodi:nodetypes="cccccccccccsccccccccccccccccscccc" />
  <path
     style="fill:currentColor"
     class="ColorScheme-Text"
     d="m 14.849403,6.0324475 c -0.406742,5.809e-4 -0.660337,0.4457658 -0.456474,0.8013394 l 0.852773,1.4921024 -0.05866,0.2596401 v 0 l -1.455514,0.8407165 v 0 L 13.531272,9.4103826 13.260114,8.9409295 C 13.10251,8.6670067 12.752504,8.5730048 12.478867,8.7311079 L 8.7957626,10.857848 v 0 L 8.6229025,10.823825 8.2656972,10.205437 C 8.1077388,9.9325888 7.7586585,9.839201 7.4855629,9.9967314 L 4.328197,11.819276 c -0.6607919,0.380731 -0.089363,1.370686 0.5714286,0.989955 l 2.5760319,-1.48667 0.146005,0.05225 v 0 l 0.3549718,0.615221 c 0.1576064,0.273923 0.5076136,0.367925 0.7812503,0.209822 l 3.7025664,-2.137979 v 0 l 0.154994,0.04823 0.268556,0.465864 c 0.15799,0.273518 0.507906,0.366995 0.78125,0.208705 l 2.098986,-1.2128385 v 0 l 0.226928,0.058552 0.72989,1.2770549 c 0.202955,0.356107 0.711385,0.356718 0.915178,0.0011 L 19.965474,6.8338098 C 20.064644,6.6596435 20.058604,6.4439717 19.949844,6.2757471 19.852674,6.1244151 19.68643,6.0328953 19.50788,6.0324435 Z"
     id="path7"
     sodipodi:nodetypes="cccccccccccccccccccccccccccccccccccc" />
</svg>
