<?xml version="1.0" encoding="UTF-8" standalone="no"?>
<svg
   width="22"
   height="22"
   version="1.1"
   id="svg7"
   sodipodi:docname="account-types-cash.svg"
   inkscape:version="1.1.2 (0a00cf5339, 2022-02-04)"
   xmlns:inkscape="http://www.inkscape.org/namespaces/inkscape"
   xmlns:sodipodi="http://sodipodi.sourceforge.net/DTD/sodipodi-0.dtd"
   xmlns="http://www.w3.org/2000/svg"
   xmlns:svg="http://www.w3.org/2000/svg">
  <sodipodi:namedview
     id="namedview9"
     pagecolor="#000000"
     bordercolor="#666666"
     borderopacity="1.0"
     inkscape:pageshadow="2"
     inkscape:pageopacity="0"
     inkscape:pagecheckerboard="0"
     showgrid="false"
     inkscape:zoom="75.181818"
     inkscape:cx="11"
     inkscape:cy="9.3972189"
     inkscape:window-width="1920"
     inkscape:window-height="1051"
     inkscape:window-x="0"
     inkscape:window-y="29"
     inkscape:window-maximized="1"
     inkscape:current-layer="svg7" />
  <defs
     id="defs3">
    <style
       id="current-color-scheme"
       type="text/css">
   .ColorScheme-Text { color:#eeeeec; } .ColorScheme-Highlight { color:#367bf0; } .ColorScheme-NeutralText { color:#ffcc44; } .ColorScheme-PositiveText { color:#3db47e; } .ColorScheme-NegativeText { color:#dd4747; }
  </style>
  </defs>
  <path
     style="fill:currentColor"
     class="ColorScheme-Text"
     d="M 10.5,3 C 6.3578644,3 3,6.3578644 3,10.5 3,14.642136 6.3578644,18 10.5,18 14.642136,18 18,14.642136 18,10.5 18,6.3578644 14.642136,3 10.5,3 Z m -0.460938,1 h 1.017579 v 1.3847656 c 0.562219,0.021216 1.073156,0.085327 1.529297,0.1914063 0.466747,0.1060791 0.889599,0.2373656 1.271484,0.3964843 L 13.427734,7.1503906 C 13.088281,7.0124878 12.712537,6.8962525 12.298828,6.8007812 11.960559,6.7117633 11.614074,6.648766 11.260625,6.6119985 11.192883,6.6049517 11.124886,6.77782 11.056641,6.7727016 v 0 3.0183144 c 0.700122,0.20155 1.285204,0.418969 1.751953,0.652343 0.466748,0.222766 0.815454,0.504297 1.048828,0.84375 0.243982,0.328846 0.367187,0.758667 0.367187,1.289063 0,0.742554 -0.276513,1.347705 -0.828125,1.814453 -0.551611,0.456141 -1.332091,0.737671 -2.339843,0.84375 V 17 H 10.039062 V 15.296875 C 9.4556272,15.286267 8.8875491,15.23916 8.3359375,15.154297 7.7843259,15.058826 7.3394533,14.930603 7,14.771484 v -1.351562 c 0.3606691,0.169727 0.8225465,0.318016 1.3847656,0.445312 0.4816044,0.109043 0.95503,0.175404 1.4209529,0.19886 0.07799,0.0039 -0.077573,-0.0015 0,0 L 10.039062,13.890701 V 10.857422 C 8.9888789,10.571009 8.220386,10.210315 7.7324219,9.775391 7.2444578,9.340466 7,8.7473025 7,7.9941406 7,7.2091549 7.2695432,6.59397 7.8105469,6.1484375 8.3621585,5.7029051 9.105566,5.4534302 10.039062,5.4003906 Z m 0,2.8430012 C 9.9833236,6.84713 9.9289866,6.6341173 9.8760521,6.6399645 9.3849753,6.6942089 9.0145937,6.8223474 8.765625,7.0234375 8.5004271,7.2462038 8.3691406,7.5327513 8.3691406,7.8828125 c 0,0.4243166 0.1162353,0.752954 0.3496094,0.9863281 0.2154035,0.1966729 0.5834811,0.368103 1.1047458,0.5150625 0.069159,0.019498 0.1410135,-0.2056728 0.2155662,-0.1870347 v 0 z m 1.017579,4.5108428 v 0 2.426717 l 0.214435,0.185778 c 0.07383,-0.0075 -0.06913,0.0097 0,0 0.516847,-0.07271 0.902078,-0.207351 1.154705,-0.403839 0.286414,-0.233375 0.429688,-0.529956 0.429688,-0.890625 0,-0.403101 -0.12627,-0.704699 -0.38086,-0.90625 -0.228663,-0.181025 -0.634211,-0.354615 -1.214021,-0.518753 -0.06574,-0.01861 -0.133727,0.125337 -0.203947,0.106972 z"
     id="path5"
     sodipodi:nodetypes="ssssscccccccscccccsccccccccsscccssccccscscsccccccccscsssc" />
</svg>
