<?xml version="1.0" encoding="UTF-8" standalone="no"?>
<svg
   width="22"
   height="22"
   version="1.1"
   id="svg7"
   sodipodi:docname="account-types-loan.svg"
   inkscape:version="1.1.2 (0a00cf5339, 2022-02-04)"
   xmlns:inkscape="http://www.inkscape.org/namespaces/inkscape"
   xmlns:sodipodi="http://sodipodi.sourceforge.net/DTD/sodipodi-0.dtd"
   xmlns="http://www.w3.org/2000/svg"
   xmlns:svg="http://www.w3.org/2000/svg">
  <sodipodi:namedview
     id="namedview9"
     pagecolor="#000000"
     bordercolor="#666666"
     borderopacity="1.0"
     inkscape:pageshadow="2"
     inkscape:pageopacity="0"
     inkscape:pagecheckerboard="0"
     showgrid="false"
     inkscape:zoom="34.272727"
     inkscape:cx="10.985411"
     inkscape:cy="8.6657825"
     inkscape:window-width="1770"
     inkscape:window-height="966"
     inkscape:window-x="0"
     inkscape:window-y="29"
     inkscape:window-maximized="1"
     inkscape:current-layer="svg7" />
  <defs
     id="defs3">
    <style
       id="current-color-scheme"
       type="text/css">
   .ColorScheme-Text { color:#eeeeec; } .ColorScheme-Highlight { color:#367bf0; } .ColorScheme-NeutralText { color:#ffcc44; } .ColorScheme-PositiveText { color:#3db47e; } .ColorScheme-NegativeText { color:#dd4747; }
  </style>
  </defs>
  <path
     style="fill:currentColor"
     class="ColorScheme-Text"
     d="m 5.0888316,2.5873834 v 0 L 3.75,4.5 2.5256894,6.2490151 2.8070697,7 V 7 H 4 v 5 H 7 V 7 H 8.2633298 V 7 L 8.4412255,6.2017508 7.25,4.5 5.9426142,2.632306 Z M 11,6 v 1.4003906 c -0.933494,0.05304 -1.676904,0.3025149 -2.2285156,0.7480469 -0.5410033,0.445533 -0.8105469,1.0607176 -0.8105469,1.8457031 0,0.7531624 0.2444579,1.3463254 0.7324219,1.7812504 C 9.1813238,12.210316 9.9498188,12.571009 11,12.857422 v 3.214844 C 10.458999,16.061656 9.9079227,15.992526 9.3457031,15.865234 8.7834836,15.73794 8.3216065,15.589649 7.9609375,15.419922 v 1.351562 c 0.339454,0.159119 0.7843256,0.287342 1.3359375,0.382813 0.5516116,0.08486 1.119692,0.13197 1.703125,0.142578 V 19 h 1.017578 v -1.765625 c 1.007752,-0.106079 1.788233,-0.387609 2.339844,-0.84375 0.551612,-0.466748 0.828125,-1.071899 0.828125,-1.814453 0,-0.530396 -0.123206,-0.960217 -0.367188,-1.289063 -0.233374,-0.339453 -0.58208,-0.620984 -1.048828,-0.84375 C 13.302782,12.209985 12.7177,11.992566 12.017578,11.791016 V 8.59375 c 0.424316,0.03182 0.839087,0.1009523 1.242188,0.2070312 0.413709,0.09547 0.789453,0.2117064 1.128906,0.3496094 L 14.818359,7.9726562 C 14.436474,7.8135373 14.013619,7.682251 13.546875,7.5761719 13.090733,7.4700916 12.579797,7.4059816 12.017578,7.3847656 V 6 Z m -0.03906,2.625 v 2.816406 C 10.324458,11.282288 9.8846071,11.091908 9.640625,10.869141 9.4072509,10.635767 9.2910156,10.30713 9.2910156,9.8828125 9.2910156,9.532751 9.4223021,9.2462035 9.6875,9.0234375 9.9633057,8.8006715 10.388109,8.667431 10.960938,8.625 Z m 6.368331,5.868907 -0.657254,-0.0019 L 16,15.5 15.302898,16.545653 15.411474,17 v 0 H 16 v 3 h 2 v -3 h 0.504458 v 0 L 18.65774,16.48661 18,15.5 Z m -5.311693,-1.302501 c 0.689514,0.180334 1.163379,0.372668 1.417969,0.574219 0.25459,0.201551 0.380859,0.503149 0.380859,0.90625 0,0.360669 -0.143273,0.65725 -0.429687,0.890625 -0.286414,0.222767 -0.743275,0.366036 -1.369141,0.429688 z"
     id="path5"
     sodipodi:nodetypes="cccccccccccccccccccssccsccccccccsccccccccccccccscsccccccccccccccccccssccc" />
</svg>
