<?xml version="1.0" encoding="UTF-8" standalone="no"?>
<svg
   width="22"
   height="22"
   viewBox="0 0 22 22"
   version="1.1"
   id="svg7"
   sodipodi:docname="adjustcurves.svg"
   inkscape:version="1.1.2 (0a00cf5339, 2022-02-04)"
   xmlns:inkscape="http://www.inkscape.org/namespaces/inkscape"
   xmlns:sodipodi="http://sodipodi.sourceforge.net/DTD/sodipodi-0.dtd"
   xmlns="http://www.w3.org/2000/svg"
   xmlns:svg="http://www.w3.org/2000/svg">
  <sodipodi:namedview
     id="namedview9"
     pagecolor="#000000"
     bordercolor="#666666"
     borderopacity="1.0"
     inkscape:pageshadow="2"
     inkscape:pageopacity="0"
     inkscape:pagecheckerboard="0"
     showgrid="false"
     inkscape:zoom="34.272727"
     inkscape:cx="11"
     inkscape:cy="10.985411"
     inkscape:window-width="1920"
     inkscape:window-height="1051"
     inkscape:window-x="0"
     inkscape:window-y="29"
     inkscape:window-maximized="1"
     inkscape:current-layer="svg7" />
  <defs
     id="defs3">
    <style
       id="current-color-scheme"
       type="text/css">
   .ColorScheme-Text { color:#eeeeec; } .ColorScheme-Highlight { color:#367bf0; } .ColorScheme-NeutralText { color:#ffcc44; } .ColorScheme-PositiveText { color:#3db47e; } .ColorScheme-NegativeText { color:#dd4747; }
  </style>
  </defs>
  <path
     style="fill:currentColor"
     class="ColorScheme-Text"
     d="M 1,0 V 14 H 0 v 1 h 1 v 1 H 2 V 15 H 16 V 14 H 2.2289254 v 0 L 2,13.666725 V 10.875 L 5.7368728,7.1381272 v 0 L 6.3123731,7.1912793 7.8734924,8.7523986 8.1210938,9 8.1269531,8.9960938 7.8734924,8.7523986 8.389909,8.7407575 16,1.125 15.710938,0 v 0 c 0.0064,-0.0109214 -5.9179027,5.9214126 -7.2987518,7.3042047 -0.1821425,0.1823988 0,0 0,0 L 7.8370652,7.3002221 6.3776664,5.8421634 v 0 L 5.6574096,5.803528 5.3167723,6.1402591 5.6574096,5.803528 2,9.4609375 V 0 Z"
     transform="translate(3,3)"
     id="path5"
     sodipodi:nodetypes="cccccccccccccccccccccccccscccccccccc" />
</svg>
