<?xml version="1.0" encoding="UTF-8" standalone="no"?>
<svg
   width="22"
   height="22"
   viewBox="0 0 22 22"
   version="1.1"
   id="svg7"
   sodipodi:docname="application-exit.svg"
   inkscape:version="1.1.2 (0a00cf5339, 2022-02-04)"
   xmlns:inkscape="http://www.inkscape.org/namespaces/inkscape"
   xmlns:sodipodi="http://sodipodi.sourceforge.net/DTD/sodipodi-0.dtd"
   xmlns="http://www.w3.org/2000/svg"
   xmlns:svg="http://www.w3.org/2000/svg">
  <sodipodi:namedview
     id="namedview9"
     pagecolor="#000000"
     bordercolor="#666666"
     borderopacity="1.0"
     inkscape:pageshadow="2"
     inkscape:pageopacity="0"
     inkscape:pagecheckerboard="0"
     showgrid="false"
     inkscape:zoom="53.161573"
     inkscape:cx="14.201987"
     inkscape:cy="10.994784"
     inkscape:window-width="1920"
     inkscape:window-height="1051"
     inkscape:window-x="0"
     inkscape:window-y="29"
     inkscape:window-maximized="1"
     inkscape:current-layer="svg7" />
  <defs
     id="defs3">
    <style
       id="current-color-scheme"
       type="text/css">
   .ColorScheme-Text { color:#eeeeec; } .ColorScheme-Highlight { color:#367bf0; } .ColorScheme-NeutralText { color:#ffcc44; } .ColorScheme-PositiveText { color:#3db47e; } .ColorScheme-NegativeText { color:#dd4747; }
  </style>
  </defs>
  <path
     style="fill:currentColor"
     class="ColorScheme-Text"
     d="M 3,1 C 1.892,0.99998 1,1.892 1,3 v 2.6678034 l 0.3514017,0.3273667 v 0 l 1.2883542,0.00377 v 0 L 3,5.62151 v -2.1592975 0 L 3.4283249,3 12.7624,3 V 3 L 13,3.2770016 V 12.637499 L 12.628124,13 v 0 H 3.3041974 v 0 L 3,12.598073 V 10.277106 L 2.8117391,9.9994485 v 0 l -1.5468796,-0.00453 v 0 L 1,10.274628 V 13 c 0,1.108 0.892,2 2,2 h 10 c 1.108,0 2,-0.892 2,-2 V 3 C 15,1.892 14.108,1 13,1 Z m 3.9000156,3.310922 v 0 L 6.119909,5.0910286 v 0 l -0.00302,0.5883626 1.0908577,1.0908577 -0.1357992,0.250121 v 0 L 0.46187698,7.0013356 -0.00195313,7.329201 v 0 l 0,1.181683 0.37854294,0.490206 v 0 L 7.1296377,9.020536 v 0 l 0.048764,0.2811955 -1.0728806,1.0715985 0.023189,0.585459 v 0 l 0.7695873,0.769587 v 0 l 0.6202876,0.0018 3.346621,-3.3809023 -0.0087,-0.7036886 v 0 L 7.5043685,4.293431 Z"
     transform="translate(3,3)"
     id="path5"
     sodipodi:nodetypes="csccccccccccccccccccccccccssssssccccccccccccccccccccccccccccc" />
</svg>
