<?xml version="1.0" encoding="UTF-8" standalone="no"?>
<svg
   width="22"
   height="22"
   version="1.1"
   id="svg7"
   sodipodi:docname="attention.svg"
   inkscape:version="1.1.2 (0a00cf5339, 2022-02-04)"
   xmlns:inkscape="http://www.inkscape.org/namespaces/inkscape"
   xmlns:sodipodi="http://sodipodi.sourceforge.net/DTD/sodipodi-0.dtd"
   xmlns="http://www.w3.org/2000/svg"
   xmlns:svg="http://www.w3.org/2000/svg">
  <sodipodi:namedview
     id="namedview9"
     pagecolor="#000000"
     bordercolor="#666666"
     borderopacity="1.0"
     inkscape:pageshadow="2"
     inkscape:pageopacity="0"
     inkscape:pagecheckerboard="0"
     showgrid="false"
     inkscape:zoom="34.272727"
     inkscape:cx="10.985411"
     inkscape:cy="11"
     inkscape:window-width="1770"
     inkscape:window-height="966"
     inkscape:window-x="0"
     inkscape:window-y="29"
     inkscape:window-maximized="1"
     inkscape:current-layer="svg7" />
  <defs
     id="defs3">
    <style
       id="current-color-scheme"
       type="text/css">
   .ColorScheme-Text { color:#eeeeec; } .ColorScheme-Highlight { color:#367bf0; } .ColorScheme-NeutralText { color:#ffcc44; } .ColorScheme-PositiveText { color:#3db47e; } .ColorScheme-NegativeText { color:#dd4747; }
  </style>
  </defs>
  <path
     style="fill:currentColor"
     class="ColorScheme-Text"
     d="m 10.953125,2.9941406 c -0.313564,0.017006 -0.597302,0.193424 -0.753906,0.46875 L 6.1660156,10.53125 2.1308594,17.597656 c -0.3589869,0.626242 0.089058,1.410321 0.8046875,1.408203 h 8.0664061 8.068359 c 0.713892,-9.31e-4 1.158894,-0.783482 0.800782,-1.408203 L 15.839844,10.53125 11.804688,3.4628906 C 11.630651,3.1569878 11.301563,2.9758387 10.953125,2.9941406 Z M 10,7.4176657 10.480822,7 h 1.196217 V 7 L 12,7.4761395 V 12.406991 L 11.647883,13 v 0 h -1.167061 v 0 C 10.480822,12.801557 10,12.614792 10,12.43623 V 7.4176657 c 0,-0.1345979 0,0.1439553 0,0 z M 10.393353,15 v 0 l 1.342001,0 v 0 L 12,15.354164 V 16.63793 L 11.76451,17 v 0 h -1.371157 v 0 L 10,16.55022 v -1.225293 z"
     id="path5"
     sodipodi:nodetypes="cccccccccccccccccccccsscccccccccccccc" />
</svg>
