<?xml version="1.0" encoding="UTF-8" standalone="no"?>
<svg
   width="22"
   height="22"
   version="1.1"
   id="svg7"
   sodipodi:docname="audio-volume-muted.svg"
   inkscape:version="1.1.2 (0a00cf5339, 2022-02-04)"
   xmlns:inkscape="http://www.inkscape.org/namespaces/inkscape"
   xmlns:sodipodi="http://sodipodi.sourceforge.net/DTD/sodipodi-0.dtd"
   xmlns="http://www.w3.org/2000/svg"
   xmlns:svg="http://www.w3.org/2000/svg">
  <sodipodi:namedview
     id="namedview9"
     pagecolor="#000000"
     bordercolor="#666666"
     borderopacity="1.0"
     inkscape:pageshadow="2"
     inkscape:pageopacity="0"
     inkscape:pagecheckerboard="0"
     showgrid="false"
     inkscape:zoom="37.590909"
     inkscape:cx="20.350665"
     inkscape:cy="11"
     inkscape:window-width="1920"
     inkscape:window-height="1051"
     inkscape:window-x="0"
     inkscape:window-y="29"
     inkscape:window-maximized="1"
     inkscape:current-layer="svg7" />
  <defs
     id="defs3">
    <style
       id="current-color-scheme"
       type="text/css">
   .ColorScheme-Text { color:#eeeeec; } .ColorScheme-Highlight { color:#367bf0; } .ColorScheme-NeutralText { color:#ffcc44; } .ColorScheme-PositiveText { color:#3db47e; } .ColorScheme-NegativeText { color:#dd4747; }
  </style>
  </defs>
  <path
     style="opacity:0.35;fill:currentColor"
     class="ColorScheme-Text"
     d="M 3.40625,2 2.2784187,3.1278313 2,3.40625 5.5896579,7.0033016 5.603978,7.396022 v 0 L 5.225367,7.774633 v 0 L 4.6593175,8 H 2.4715637 L 2,8.4619788 v 0 4.9948902 L 2.5169833,14 v 0 h 2.0706533 c 0.12699,0 0.6106939,0.198331 0.6106939,0.198331 v 0 L 9.5833528,18.583353 10,18.401832 v 0 -6.488189 0 L 10.41249,11.826552 12,13.414062 v 1.18553 l 0.255275,0.293314 c 0,0 -0.158485,0.07275 0,0 0.1917,-0.088 0.473665,-0.232194 0.783787,-0.439781 l 1.071879,1.071878 -0.01832,0.502679 c -0.100539,0.0732 0.104627,-0.06891 0,0 -0.534157,0.35179 -1.121121,0.645885 -1.756028,0.864748 C 12.225847,16.930607 12.11364,17.367124 12,17.400629 v 0 1.209128 l 0.568403,0.241624 c 0.191595,-0.04386 -0.187259,0.05515 0,0 1.086316,-0.319925 2.095587,-0.826038 2.980568,-1.473666 0.07975,-0.05836 -0.0777,0.06063 0,0 l 0.506996,0.09156 L 18.59375,20 20,18.59375 17.222656,15.808594 15.839844,14.425781 14.439453,13.025391 12,10.585938 10,8.5859375 7.2070312,5.7929688 Z m 6.307789,1.285961 v 0 L 8.864557,4.135443 8.896128,4.6539406 v 0 L 9.6771754,5.4349879 10,5.2452717 v 0 -1.5510268 z M 12.5593,3.1455198 12,3.6223392 V 5 c 2.86838,0.84571 5,3.06286 5,6 0,0.538481 -0.09381,1.04323 -0.228516,1.529297 l 1.101937,1.101936 0.672163,-0.123263 c 0.08487,-0.184274 -0.07036,0.190544 0,0 C 18.83714,12.7184 19,11.876978 19,11 19,7.302229 16.187686,4.2047388 12.5593,3.1455198 c -0.184413,-0.053835 0.188366,0.043115 0,0 z M 12,7 v 0.7578125 l 2.659072,2.6590725 v 0 c -0.01231,-0.203692 0.286626,-0.07227 0.248321,-0.256678 C 14.420048,7.8139868 12,7 12,7 Z"
     id="path5"
     sodipodi:nodetypes="cccccccccccccccscccccccccccscccssccccssccccccccccccccccccccccccscccssscccccsc" />
</svg>
