<?xml version="1.0" encoding="UTF-8" standalone="no"?>
<svg
   width="22"
   height="22"
   version="1.1"
   id="svg9"
   sodipodi:docname="automated-tasks.svg"
   inkscape:version="1.1.2 (0a00cf5339, 2022-02-04)"
   xmlns:inkscape="http://www.inkscape.org/namespaces/inkscape"
   xmlns:sodipodi="http://sodipodi.sourceforge.net/DTD/sodipodi-0.dtd"
   xmlns="http://www.w3.org/2000/svg"
   xmlns:svg="http://www.w3.org/2000/svg">
  <sodipodi:namedview
     id="namedview11"
     pagecolor="#000000"
     bordercolor="#666666"
     borderopacity="1.0"
     inkscape:pageshadow="2"
     inkscape:pageopacity="0"
     inkscape:pagecheckerboard="0"
     showgrid="false"
     inkscape:zoom="34.272727"
     inkscape:cx="10.985411"
     inkscape:cy="11"
     inkscape:window-width="1770"
     inkscape:window-height="966"
     inkscape:window-x="0"
     inkscape:window-y="29"
     inkscape:window-maximized="1"
     inkscape:current-layer="g7" />
  <defs
     id="defs3">
    <style
       id="current-color-scheme"
       type="text/css">
   .ColorScheme-Text { color:#eeeeec; } .ColorScheme-Highlight { color:#367bf0; } .ColorScheme-NeutralText { color:#ffcc44; } .ColorScheme-PositiveText { color:#3db47e; } .ColorScheme-NegativeText { color:#dd4747; }
  </style>
  </defs>
  <g
     transform="matrix(1,0,0,1,3,3)"
     id="g7">
    <path
       style="fill:currentColor"
       class="ColorScheme-Text"
       d="M 8,0 C 8.554,0 9,0.446 9,1 9,1.554 8.554,2 8,2 7.446,2 7,1.554 7,1 7,0.446 7.446,0 8,0 Z M 2.5,2 C 1.669,2 1,2.669 1,3.5 v 7 C 1,11.331 1.669,12 2.5,12 h 4.3102173 v 0 L 7,12.266452 v 0.496143 L 6.7227464,13 v 0 H 4 v 2 h 8 V 13 H 9.2318059 L 9,12.762595 v 0 -0.496143 L 9.2901203,12 v 0 L 13.5,12 c 0.831,0 1.5,-0.669 1.5,-1.5 v -7 C 15,2.669 14.331,2 13.5,2 Z M 4,4 h 8 c 0,0 2,0 2,1 0,1 -2,1 -2,1 H 4 C 4,6 2,6 2,5 2,4 4,4 4,4 Z"
       id="path5"
       sodipodi:nodetypes="sssssssssccccccccccccccccsssssccsccsc" />
  </g>
</svg>
