<?xml version="1.0" encoding="UTF-8" standalone="no"?>
<svg
   width="22"
   height="22"
   version="1.1"
   id="svg9"
   sodipodi:docname="bitmap-trace.svg"
   inkscape:version="1.1.2 (0a00cf5339, 2022-02-04)"
   xmlns:inkscape="http://www.inkscape.org/namespaces/inkscape"
   xmlns:sodipodi="http://sodipodi.sourceforge.net/DTD/sodipodi-0.dtd"
   xmlns="http://www.w3.org/2000/svg"
   xmlns:svg="http://www.w3.org/2000/svg">
  <sodipodi:namedview
     id="namedview11"
     pagecolor="#000000"
     bordercolor="#666666"
     borderopacity="1.0"
     inkscape:pageshadow="2"
     inkscape:pageopacity="0"
     inkscape:pagecheckerboard="0"
     showgrid="false"
     inkscape:zoom="34.272727"
     inkscape:cx="10.985411"
     inkscape:cy="11"
     inkscape:window-width="1770"
     inkscape:window-height="966"
     inkscape:window-x="0"
     inkscape:window-y="29"
     inkscape:window-maximized="1"
     inkscape:current-layer="g7" />
  <defs
     id="defs3">
    <style
       id="current-color-scheme"
       type="text/css">
   .ColorScheme-Text { color:#eeeeec; } .ColorScheme-Highlight { color:#367bf0; } .ColorScheme-NeutralText { color:#ffcc44; } .ColorScheme-PositiveText { color:#3db47e; } .ColorScheme-NegativeText { color:#dd4747; }
  </style>
  </defs>
  <g
     transform="matrix(1,0,0,1,3,3)"
     id="g7">
    <path
       style="fill:currentColor"
       class="ColorScheme-Text"
       d="m 13.804939,9.1950608 v 0 L 10.18689,12.81311 10,13.258294 v 0 1.429952 L 10.282239,15 v 0 h 1.487784 L 12,14.795784 12.186735,14.813265 15.789983,11.210017 15.532701,11 15.743432,10.743432 14.182577,9.1825766 Z M 2,2 C 1,2 1,3 1,3 v 10 c 0,1 1,1 1,1 H 9 V 12.582 L 9.3174522,12.264548 9.1151787,12 v 0 H 3.3965079 v 0 L 3,11.595333 v -1.8091469 0 L 3.1817186,9.2864807 5.1549933,6.9678829 5.9164729,7.0340417 v 0 l 2.654506,3.0055013 0.4543084,0.06693 v 0 l 1.6298587,-1.5819365 0.562276,0.00496 v 0 l 0.729603,0.7297856 0.390062,-0.014097 v 0 l 1.415329,-1.4155568 v 0 l 0.541012,0.045804 0.43751,0.4375104 L 15,8.2109365 v 0 V 3 C 15,2 14,2 14,2 Z"
       id="path5"
       sodipodi:nodetypes="ccccccccccccccccscsccccccccccccccccccccccccccccccscs" />
  </g>
</svg>
