<?xml version="1.0" encoding="UTF-8" standalone="no"?>
<svg
   width="22"
   height="22"
   version="1.1"
   id="svg9"
   sodipodi:docname="category-edit.svg"
   inkscape:version="1.1.2 (0a00cf5339, 2022-02-04)"
   xmlns:inkscape="http://www.inkscape.org/namespaces/inkscape"
   xmlns:sodipodi="http://sodipodi.sourceforge.net/DTD/sodipodi-0.dtd"
   xmlns="http://www.w3.org/2000/svg"
   xmlns:svg="http://www.w3.org/2000/svg">
  <sodipodi:namedview
     id="namedview11"
     pagecolor="#000000"
     bordercolor="#666666"
     borderopacity="1.0"
     inkscape:pageshadow="2"
     inkscape:pageopacity="0"
     inkscape:pagecheckerboard="0"
     showgrid="false"
     inkscape:zoom="34.272727"
     inkscape:cx="10.985411"
     inkscape:cy="11"
     inkscape:window-width="1880"
     inkscape:window-height="966"
     inkscape:window-x="0"
     inkscape:window-y="29"
     inkscape:window-maximized="1"
     inkscape:current-layer="svg9" />
  <defs
     id="defs3">
    <style
       id="current-color-scheme"
       type="text/css">
   .ColorScheme-Text { color:#eeeeec; } .ColorScheme-Highlight { color:#367bf0; } .ColorScheme-NeutralText { color:#ffcc44; } .ColorScheme-PositiveText { color:#3db47e; } .ColorScheme-NegativeText { color:#dd4747; }
  </style>
  </defs>
  <path
     style="fill:currentColor"
     class="ColorScheme-Text"
     d="M 4,3 C 4,3 3,3 3,4 v 13 c 0,0 0,1 1,1 h 10 v -0.45794 0 L 14.224802,17.026232 19,12.273 V 6 C 19,5 18,5 18,5 H 12.289811 V 5 L 11.792786,4.7927863 10.231976,3.2319759 9.7805017,3 v 0 z"
     id="path5"
     sodipodi:nodetypes="cscscccccscccccccc" />
  <path
     style="fill:currentColor"
     class="ColorScheme-Text"
     d="m 19.806,13 c -0.091,0 -0.183,0.035 -0.254,0.105 l -0.697,0.704 1.336,1.336 0.703,-0.698 c 0.141,-0.141 0.141,-0.364 0,-0.505 L 20.058,13.105 C 19.987,13.035 19.897,13 19.806,13 Z m -1.650495,1.508495 v 0 L 15.208333,17.455667 15,17.892461 v 0 0.846099 L 15.295457,19 v 0 h 0.816909 l 0.40277,-0.179136 v 0 l 2.946863,-2.946863 -1.17e-4,-0.398119 v 0 l -0.860437,-0.860437 z"
     id="path7"
     sodipodi:nodetypes="sccccccscccccccccccccccc" />
</svg>
