<?xml version="1.0" encoding="UTF-8" standalone="no"?>
<svg
   width="22"
   height="22"
   version="1.1"
   id="svg9"
   sodipodi:docname="cloud-download.svg"
   inkscape:version="1.1.2 (0a00cf5339, 2022-02-04)"
   xmlns:inkscape="http://www.inkscape.org/namespaces/inkscape"
   xmlns:sodipodi="http://sodipodi.sourceforge.net/DTD/sodipodi-0.dtd"
   xmlns="http://www.w3.org/2000/svg"
   xmlns:svg="http://www.w3.org/2000/svg">
  <sodipodi:namedview
     id="namedview11"
     pagecolor="#000000"
     bordercolor="#666666"
     borderopacity="1.0"
     inkscape:pageshadow="2"
     inkscape:pageopacity="0"
     inkscape:pagecheckerboard="0"
     showgrid="false"
     inkscape:zoom="34.272727"
     inkscape:cx="10.985411"
     inkscape:cy="11"
     inkscape:window-width="1880"
     inkscape:window-height="966"
     inkscape:window-x="0"
     inkscape:window-y="29"
     inkscape:window-maximized="1"
     inkscape:current-layer="g7" />
  <defs
     id="defs3">
    <style
       id="current-color-scheme"
       type="text/css">
   .ColorScheme-Text { color:#eeeeec; } .ColorScheme-Highlight { color:#367bf0; } .ColorScheme-NeutralText { color:#ffcc44; } .ColorScheme-PositiveText { color:#3db47e; } .ColorScheme-NegativeText { color:#dd4747; }
  </style>
  </defs>
  <g
     transform="translate(3,3)"
     id="g7">
    <path
       style="fill:currentColor"
       class="ColorScheme-Text"
       d="m 7,5.0292365 h 2 v 3 h 1.28165 v 0 l 0.130842,0.6854256 -2.1419532,2.4989449 v 0 l -0.4948132,0.05398 -2.26346,-2.6407034 0.1885127,-0.5976431 v 0 H 7 Z m 1,-3 c -2.07,0 -3.83,1.27 -4.59,3.06 -1.93,0.29 -3.41,1.94 -3.41,3.94 0,2.2099995 1.79,3.9999995 4,3.9999995 h 8.5 c 1.93,0 3.5,-1.57 3.5,-3.4999995 0,-1.8 -1.35,-3.27 -3.09,-3.47 -0.46,-2.29 -2.48,-4.03 -4.91,-4.03 z"
       id="path5"
       sodipodi:nodetypes="ccccccccccccccscsssscs" />
  </g>
</svg>
