<?xml version="1.0" encoding="UTF-8" standalone="no"?>
<svg
   width="22"
   height="22"
   viewBox="0 0 22 22"
   version="1.1"
   id="svg7"
   sodipodi:docname="color-select.svg"
   inkscape:version="1.1.2 (0a00cf5339, 2022-02-04)"
   xmlns:inkscape="http://www.inkscape.org/namespaces/inkscape"
   xmlns:sodipodi="http://sodipodi.sourceforge.net/DTD/sodipodi-0.dtd"
   xmlns="http://www.w3.org/2000/svg"
   xmlns:svg="http://www.w3.org/2000/svg">
  <sodipodi:namedview
     id="namedview9"
     pagecolor="#ffffff"
     bordercolor="#666666"
     borderopacity="1.0"
     inkscape:pageshadow="2"
     inkscape:pageopacity="0.0"
     inkscape:pagecheckerboard="0"
     showgrid="false"
     inkscape:zoom="34.272727"
     inkscape:cx="11"
     inkscape:cy="11"
     inkscape:window-width="1687"
     inkscape:window-height="966"
     inkscape:window-x="0"
     inkscape:window-y="29"
     inkscape:window-maximized="1"
     inkscape:current-layer="svg7" />
  <defs
     id="defs3">
    <style
       id="current-color-scheme"
       type="text/css">
   .ColorScheme-Text { color:#eeeeec; } .ColorScheme-Highlight { color:#367bf0; } .ColorScheme-NeutralText { color:#ffcc44; } .ColorScheme-PositiveText { color:#3db47e; } .ColorScheme-NegativeText { color:#dd4747; }
  </style>
  </defs>
  <path
     style="fill:currentColor"
     class="ColorScheme-Text"
     d="m 13.470703,0.9921875 c -0.38956,0.0113 -0.75946,0.173865 -1.03125,0.453125 l -2.357422,2.3574219 -0.0039,-0.00586 -1.7755901,-1.7755901 v 0 L 7.9467173,2.0532874 6.9400399,3.0599609 v 0 L 6.9610383,3.5079133 8.1660156,4.7128906 1.1437062,11.7352 0.9921875,12.120712 v 0 2.625563 l 0.2451335,0.259584 v 0 h 2.6258914 l 0.4005323,-0.150463 v 0 l 7.0214113,-7.0214116 1.190268,1.1886553 0.420933,0.081003 v 0 l 1.079448,-1.0794468 v 0 L 13.87486,7.5938784 12.203125,5.9238281 14.560547,3.5664062 C 15.539917,2.6125863 14.837183,0.9527875 13.470703,0.9921875 Z M 9.0039062,5.5429688 10.417969,6.9570312 3.5292969,13.845703 2.1152344,12.431641 Z"
     transform="translate(3,3)"
     id="path5"
     sodipodi:nodetypes="ccccccccccccccccccccccccccccccccccc" />
</svg>
