<?xml version="1.0" encoding="UTF-8" standalone="no"?>
<svg
   width="22"
   height="22"
   viewBox="0 0 22 22"
   version="1.1"
   id="svg7"
   sodipodi:docname="compass.svg"
   inkscape:version="1.1.2 (0a00cf5339, 2022-02-04)"
   xmlns:inkscape="http://www.inkscape.org/namespaces/inkscape"
   xmlns:sodipodi="http://sodipodi.sourceforge.net/DTD/sodipodi-0.dtd"
   xmlns="http://www.w3.org/2000/svg"
   xmlns:svg="http://www.w3.org/2000/svg">
  <sodipodi:namedview
     id="namedview9"
     pagecolor="#000000"
     bordercolor="#666666"
     borderopacity="1.0"
     inkscape:pageshadow="2"
     inkscape:pageopacity="0"
     inkscape:pagecheckerboard="0"
     showgrid="false"
     inkscape:zoom="34.272727"
     inkscape:cx="11"
     inkscape:cy="10.956234"
     inkscape:window-width="1920"
     inkscape:window-height="1051"
     inkscape:window-x="0"
     inkscape:window-y="29"
     inkscape:window-maximized="1"
     inkscape:current-layer="svg7" />
  <defs
     id="defs3">
    <style
       id="current-color-scheme"
       type="text/css">
   .ColorScheme-Text { color:#eeeeec; } .ColorScheme-Highlight { color:#367bf0; } .ColorScheme-NeutralText { color:#ffcc44; } .ColorScheme-PositiveText { color:#3db47e; } .ColorScheme-NegativeText { color:#dd4747; }
  </style>
  </defs>
  <path
     style="fill:currentColor"
     class="ColorScheme-Text"
     d="M 8,1 C 4.134,1 1,4.134 1,8 c 0,3.866 3.134,7 7,7 3.866,0 7,-3.134 7,-7 C 15,4.134 11.866,1 8,1 Z m 0,2 c 2.7614,0 5,2.2386 5,5 0,2.7614 -2.2386,5 -5,5 C 5.2386,13 3,10.7614 3,8 3,5.2386 5.2386,3 8,3 Z m 2.800803,1.7329355 v 0 0 L 8,5.6660156 C 6.7783,5.6660156 5.6660156,6.7782 5.6660156,8 l -0.8946559,2.685466 v 0 l 0.4808053,0.563952 v 0 0 L 8,10.333984 C 9.2217,10.333984 10.333984,9.2217 10.333984,8 l 0.88215,-2.647927 v 0 z M 8,6.8339844 C 8.61088,6.8339844 9.1660156,7.3891 9.1660156,8 9.1659956,8.6108 8.61083,9.1660156 8,9.1660156 7.38915,9.1660156 6.8339844,8.6108 6.8339844,8 6.8339544,7.3891 7.38913,6.8339844 8,6.8339844 Z"
     transform="translate(3,3)"
     id="path5"
     sodipodi:nodetypes="sssssssssscccccccccccccccscscs" />
</svg>
