<?xml version="1.0" encoding="UTF-8" standalone="no"?>
<svg
   width="22"
   height="22"
   version="1.1"
   id="svg9"
   sodipodi:docname="configure-toolbars.svg"
   inkscape:version="1.1.2 (0a00cf5339, 2022-02-04)"
   xmlns:inkscape="http://www.inkscape.org/namespaces/inkscape"
   xmlns:sodipodi="http://sodipodi.sourceforge.net/DTD/sodipodi-0.dtd"
   xmlns="http://www.w3.org/2000/svg"
   xmlns:svg="http://www.w3.org/2000/svg">
  <sodipodi:namedview
     id="namedview11"
     pagecolor="#ffffff"
     bordercolor="#666666"
     borderopacity="1.0"
     inkscape:pageshadow="2"
     inkscape:pageopacity="0.0"
     inkscape:pagecheckerboard="0"
     showgrid="false"
     inkscape:zoom="34.272727"
     inkscape:cx="11"
     inkscape:cy="11"
     inkscape:window-width="1687"
     inkscape:window-height="966"
     inkscape:window-x="0"
     inkscape:window-y="29"
     inkscape:window-maximized="1"
     inkscape:current-layer="g7" />
  <defs
     id="defs3">
    <style
       id="current-color-scheme"
       type="text/css">
   .ColorScheme-Text { color:#eeeeec; } .ColorScheme-Highlight { color:#367bf0; } .ColorScheme-NeutralText { color:#ffcc44; } .ColorScheme-PositiveText { color:#3db47e; } .ColorScheme-NegativeText { color:#dd4747; }
  </style>
  </defs>
  <g
     transform="translate(3,3)"
     id="g7">
    <path
       style="fill:currentColor"
       class="ColorScheme-Text"
       d="M 11,0 C 9.8188,0.44881 9,1.43 9,2.6504 c 0,1.2204 0.8188,2.174 2,2.623 v 2.4278 c 1.094668,0.5441549 2.01953,1.3778667 2.690849,2.399193 C 13.800827,10.267709 13.904,9.9304105 14,10.107349 v 0 V 5.2734 C 15.181,4.8244 16,3.8708 16,2.6504 16,1.43 15.181,0.44881 14,0 v 2 c 0,1 -1,1 -1,1 H 12 C 12,3 11,3 11,2 Z M 8,8 C 4.676,8 2,10.676 2,14 H 0 v 2 H 16 V 14 H 14 C 14,10.676 11.324,8 8,8 Z m 0,3 c 1.5910402,0 2.885156,1.226186 2.992762,2.788971 C 10.997561,13.858671 11,13.92904 11,14 H 10.778302 5.2346615 v 0 c 0,-0.102191 -0.229603,-0.203157 -0.2197218,-0.302662 C 5.1657634,12.17852 6.4401909,11 8,11 Z"
       id="path5"
       sodipodi:nodetypes="csccscccscsccscsccccccsssccccss" />
  </g>
</svg>
