<?xml version="1.0" encoding="UTF-8" standalone="no"?>
<svg
   width="22"
   height="22"
   version="1.1"
   id="svg11"
   sodipodi:docname="crosshairs.svg"
   inkscape:version="1.1.2 (0a00cf5339, 2022-02-04)"
   xmlns:inkscape="http://www.inkscape.org/namespaces/inkscape"
   xmlns:sodipodi="http://sodipodi.sourceforge.net/DTD/sodipodi-0.dtd"
   xmlns="http://www.w3.org/2000/svg"
   xmlns:svg="http://www.w3.org/2000/svg">
  <sodipodi:namedview
     id="namedview13"
     pagecolor="#000000"
     bordercolor="#666666"
     borderopacity="1.0"
     inkscape:pageshadow="2"
     inkscape:pageopacity="0"
     inkscape:pagecheckerboard="0"
     showgrid="false"
     inkscape:zoom="37.590909"
     inkscape:cx="11"
     inkscape:cy="11.013301"
     inkscape:window-width="845"
     inkscape:window-height="910"
     inkscape:window-x="522"
     inkscape:window-y="166"
     inkscape:window-maximized="1"
     inkscape:current-layer="g9" />
  <defs
     id="defs3">
    <style
       id="current-color-scheme"
       type="text/css">
   .ColorScheme-Text { color:#eeeeec; } .ColorScheme-Highlight { color:#367bf0; } .ColorScheme-NeutralText { color:#ffcc44; } .ColorScheme-PositiveText { color:#3db47e; } .ColorScheme-NegativeText { color:#dd4747; }
  </style>
  </defs>
  <g
     transform="translate(3,3)"
     id="g9">
    <path
       style="fill:currentColor"
       class="ColorScheme-Text"
       d="M 1,7 H 13.274583 L 13.484224,6.4059697 14.284215,7 H 15 V 9 H 14.210706 L 13.593442,9.5940449 13.350454,9 h -0.88401 L 11.942662,9.4986349 11.571414,9 H 2.5081443 L 2.394257,9.559844 1.8042534,9 H 1 Z M 7,1 H 9 V 1.7174951 L 9.5133097,2.3777086 9,2.5725487 V 3.4686446 L 9.7788703,4.2358546 9,4.3737811 V 4.804278 6.6588421 L 9.6766799,7.1571556 9,7.6539363 9.8067568,8.8618738 9,9.1640936 V 9.5052847 11.545912 L 9.8019816,11.971729 9,12.27537 v 1.337514 L 9.697583,13.555098 9,14.105214 V 15 H 7 V 14.169357 L 6.3552382,13.521564 7,13.572656 V 9.5514229 L 6.4201687,8.7754525 C 5.6917299,8.3434214 6.9614418,8.8167866 7,8.6701089 V 7.5660796 L 6.447745,7.4177121 7,6.6860223 V 4.4050204 L 6.1167506,3.7115186 7,3.3181054 V 2.5469784 L 6.4228607,2.4658811 7,1.7653519 Z"
       id="path5"
       sodipodi:nodetypes="cccccccccccccccccccccccccccccccccccccccccccccccccccccccc" />
    <path
       style="fill:currentColor"
       class="ColorScheme-Text"
       d="M 8,2 C 5.1338586,2 2.7370953,4.0096469 2.1419422,6.696709 2.0949518,6.9088663 1.7558475,7.1252465 1.7319749,7.345194 1.7086326,7.5602564 2,7.7787295 2,8 2,8.1684275 2.0069399,8.335234 2.0205492,8.5001493 2.2746958,11.579843 4.854719,14 8,14 11.313708,14 14,11.313708 14,8 14,4.6862915 11.313708,2 8,2 Z m 0,2 c 1.7272623,0 3.198822,1.0947939 3.758617,2.6283206 0.07101,0.19453 -0.467816,0.3452358 -0.427488,0.5525463 C 11.379495,7.4294919 12,7.737229 12,8 12,8.110999 11.995479,8.220942 11.986611,8.3296549 11.818979,10.384583 10.09814,12 8,12 7.7047242,12 7.6917041,11.403247 7.4146512,11.342536 7.1590476,11.286525 6.6378111,11.770831 6.4030814,11.66851 5.5373906,11.291145 4.8311629,10.616332 4.4135054,9.7731801 4.3374716,9.6196857 4.2710015,9.4606123 4.2148739,9.2967389 4.192144,9.230375 5.0428657,8.7708986 5.0235798,8.703012 4.9563338,8.4663048 4.9103389,8.2206556 4.8877881,7.9682577 4.8771759,7.8494817 4,8.1215365 4,8 4,7.748271 4.6670781,7.5096123 4.7115537,7.2707763 4.7511598,7.0580894 4.1637706,6.8436806 4.2356019,6.6442627 4.7909927,5.102387 6.2667582,4 8,4 Z"
       id="path7"
       sodipodi:nodetypes="ssssssssssssssssssssssss" />
  </g>
</svg>
