<?xml version="1.0" encoding="UTF-8" standalone="no"?>
<svg
   width="22"
   height="22"
   version="1.1"
   id="svg11"
   sodipodi:docname="database-change-key.svg"
   inkscape:version="1.1.2 (0a00cf5339, 2022-02-04)"
   xmlns:inkscape="http://www.inkscape.org/namespaces/inkscape"
   xmlns:sodipodi="http://sodipodi.sourceforge.net/DTD/sodipodi-0.dtd"
   xmlns="http://www.w3.org/2000/svg"
   xmlns:svg="http://www.w3.org/2000/svg">
  <sodipodi:namedview
     id="namedview13"
     pagecolor="#000000"
     bordercolor="#666666"
     borderopacity="1.0"
     inkscape:pageshadow="2"
     inkscape:pageopacity="0"
     inkscape:pagecheckerboard="0"
     showgrid="false"
     inkscape:zoom="37.590909"
     inkscape:cx="11.013301"
     inkscape:cy="11"
     inkscape:window-width="1920"
     inkscape:window-height="1051"
     inkscape:window-x="0"
     inkscape:window-y="29"
     inkscape:window-maximized="1"
     inkscape:current-layer="g9" />
  <defs
     id="defs3">
    <style
       id="current-color-scheme"
       type="text/css">
   .ColorScheme-Text { color:#eeeeec; } .ColorScheme-Highlight { color:#367bf0; } .ColorScheme-NeutralText { color:#ffcc44; } .ColorScheme-PositiveText { color:#3db47e; } .ColorScheme-NegativeText { color:#dd4747; }
  </style>
  </defs>
  <g
     transform="translate(3,-3)"
     id="g9">
    <path
       style="fill:currentColor"
       class="ColorScheme-Text"
       d="M 4.5,9 C 2.01,9 0,11.02 0,13.5 c 0,1.221 0.48724,2.323 1.2734,3.133 L 3.3965,14.51 C 3.1525,14.243 3,13.891 3,13.5 3,12.68 3.67,12 4.5,12 c 0.3901,0 0.7414,0.154 1.0078,0.398 L 7.627,10.279 C 6.8046,9.4835 5.6928,9.0063 4.5,9 Z m 9.592,3 -2.644754,2.63772 v 0 L 11.504609,15 H 12 v 2 h 3 v -2 h 1 v -3 z"
       id="path5"
       sodipodi:nodetypes="csccsscccccccccccccc" />
    <path
       style="fill:currentColor"
       class="ColorScheme-Text"
       d="m 2,17.719494 v 0 V 19.642 L 2.5246116,20 v 0 H 4.4581322 4.67 l 0.243459,-0.243459 6.274179,-6.274179 -0.02548,-0.491166 v 0 L 9.0295853,10.850632 v 0 L 8.5685937,10.751406 2.1688531,17.151147 Z M 13.79,10.89 c 0.28,-0.28 0.28,-0.73 0,-1.01 L 12.12,8.21 c -0.29,-0.28 -0.73,-0.28 -1.01,0 l -1.4,1.4 2.67,2.68 z"
       id="path7"
       sodipodi:nodetypes="cccccccccccccccccscsccc" />
  </g>
</svg>
