<?xml version="1.0" encoding="UTF-8" standalone="no"?>
<svg
   width="22"
   height="22"
   viewBox="0 0 22 22"
   version="1.1"
   id="svg7"
   sodipodi:docname="debug-step-out.svg"
   inkscape:version="1.1.2 (0a00cf5339, 2022-02-04)"
   xmlns:inkscape="http://www.inkscape.org/namespaces/inkscape"
   xmlns:sodipodi="http://sodipodi.sourceforge.net/DTD/sodipodi-0.dtd"
   xmlns="http://www.w3.org/2000/svg"
   xmlns:svg="http://www.w3.org/2000/svg">
  <sodipodi:namedview
     id="namedview9"
     pagecolor="#000000"
     bordercolor="#666666"
     borderopacity="1.0"
     inkscape:pageshadow="2"
     inkscape:pageopacity="0"
     inkscape:pagecheckerboard="0"
     showgrid="false"
     inkscape:zoom="37.590909"
     inkscape:cx="11.013301"
     inkscape:cy="11"
     inkscape:window-width="1920"
     inkscape:window-height="1051"
     inkscape:window-x="0"
     inkscape:window-y="29"
     inkscape:window-maximized="1"
     inkscape:current-layer="svg7" />
  <defs
     id="defs3">
    <style
       id="current-color-scheme"
       type="text/css">
   .ColorScheme-Text { color:#eeeeec; } .ColorScheme-Highlight { color:#367bf0; } .ColorScheme-NeutralText { color:#ffcc44; } .ColorScheme-PositiveText { color:#3db47e; } .ColorScheme-NegativeText { color:#dd4747; }
  </style>
  </defs>
  <path
     style="fill:currentColor"
     class="ColorScheme-Text"
     d="m 3.0078,1 c -2.2487,0 -2,2 -2,2 v 12 h 13.992 V 5 h -1.998 v 7.637253 L 12.660895,13 v 0 H 3.3747479 v 0 L 3.0076,12.62413 V 5.2127384 L 3.3445899,5 V 5 H 10.9998 V 1 H 3.0076 Z M 12,1.4855907 v 0 2.9496868 l 0.373124,0.3159731 v 0 l 2.229396,-1.4862642 0.03663,-0.5055555 v 0 L 12.395723,1.2638151 Z M 6.4336,6 C 5.3681,6 4.9199,6.3522 4.9199,7.2539 4.9199,7.2539 4.8955,7.8413 4.8887,8 4.8425,8.3689 4.7133,8.6777 4.3105,8.6777 H 4.0059 v 0.6446 h 0.3046 c 0.5886,0 0.6094,0.6442 0.6094,1.2007 -0.005,0.174 0.0136,0.369 0.0176,0.477 0.0833,0.712 0.5388,1 1.4961,1 V 11.408 C 5.9841,11.408 5.8272,11.29 5.7637,11 5.73,10.884 5.7265,10.486 5.7129,10.295 5.7129,9.8795 5.5889,9.2603 4.9902,9.0039 5.4633,8.8013 5.6343,8.3756 5.6875,8 5.7114,7.8959 5.7061,7.7777 5.7129,7.6973 5.7129,6.831 5.7233,6.5918 6.4336,6.5918 Z m 3.1426,0 v 0.5918 c 0.7098,0 0.7188,0.2392 0.7188,1.1055 0.007,0.0804 0.002,0.1986 0.025,0.3027 0.054,0.3756 0.225,0.8013 0.698,1.0039 -0.599,0.2564 -0.723,0.8756 -0.723,1.2911 -0.014,0.191 -0.017,0.589 -0.051,0.705 -0.063,0.29 -0.218,0.408 -0.6678,0.408 V 12 c 0.9568,0 1.4108,-0.288 1.4938,-1 0.004,-0.108 0.023,-0.303 0.018,-0.477 0,-0.5565 0.021,-1.2007 0.609,-1.2007 h 0.305 V 8.6777 H 11.697 C 11.295,8.6777 11.165,8.3689 11.119,8 11.112,7.8413 11.088,7.2539 11.088,7.2539 11.088,6.3522 10.642,6 9.5762,6 Z"
     transform="translate(3,3)"
     id="path5"
     sodipodi:nodetypes="ccccccccccccccccccccccccccccccccsccsccccccccccccccccccccccsccsccc" />
</svg>
