<?xml version="1.0" encoding="UTF-8" standalone="no"?>
<svg
   width="22"
   height="22"
   version="1.1"
   id="svg9"
   sodipodi:docname="delete-comment.svg"
   inkscape:version="1.1.2 (0a00cf5339, 2022-02-04)"
   xmlns:inkscape="http://www.inkscape.org/namespaces/inkscape"
   xmlns:sodipodi="http://sodipodi.sourceforge.net/DTD/sodipodi-0.dtd"
   xmlns="http://www.w3.org/2000/svg"
   xmlns:svg="http://www.w3.org/2000/svg">
  <sodipodi:namedview
     id="namedview11"
     pagecolor="#000000"
     bordercolor="#666666"
     borderopacity="1.0"
     inkscape:pageshadow="2"
     inkscape:pageopacity="0"
     inkscape:pagecheckerboard="0"
     showgrid="false"
     inkscape:zoom="26.580787"
     inkscape:cx="10.684409"
     inkscape:cy="18.17102"
     inkscape:window-width="572"
     inkscape:window-height="349"
     inkscape:window-x="577"
     inkscape:window-y="394"
     inkscape:window-maximized="1"
     inkscape:current-layer="g7" />
  <defs
     id="defs3">
    <style
       id="current-color-scheme"
       type="text/css">
   .ColorScheme-Text { color:#eeeeec; } .ColorScheme-Highlight { color:#367bf0; } .ColorScheme-NeutralText { color:#ffcc44; } .ColorScheme-PositiveText { color:#3db47e; } .ColorScheme-NegativeText { color:#dd4747; }
  </style>
  </defs>
  <g
     transform="translate(3,3)"
     id="g7">
    <path
       style="fill:currentColor"
       class="ColorScheme-Text"
       d="M 3,2 C 3,2 1,2 1,4 v 6 c 0,2 2,2 2,2 h 4.6219016 v 0 l 0.6363423,0.387366 1.0405577,1.560836 0.8376124,0.0036 0.561147,0.0018 1.121594,-1.682342 v 0 L 12.519543,12 H 13 c 0,0 2,0 2,-2 V 4 C 15,2 13,2 13,2 Z M 5,4.5099378 5.5585992,4 H 6.4141 l 1.3461863,1.3461863 0.4632995,0.016128 v 0 L 9.5859,4 h 0.991952 V 4 L 11,4.4450877 V 5.4141 L 9.6954038,6.7186962 9.6702084,7.2561084 v 0 L 11,8.5859 v 1.0100228 0 L 10.483933,10 H 9.5859 L 8.339764,8.753864 7.721231,8.692869 v 0 L 6.4141,10 H 5.565391 v 0 L 5,9.3841965 V 8.5859 L 6.3536178,7.2322822 v 0 L 6.2409906,6.6550906 5,5.4141 Z"
       id="path5"
       sodipodi:nodetypes="csscccccccccccsscccccccccccccccccccccccccccccccccc" />
  </g>
</svg>
