<?xml version="1.0" encoding="UTF-8" standalone="no"?>
<svg
   width="22"
   height="22"
   version="1.1"
   id="svg7"
   sodipodi:docname="depth8to16.svg"
   inkscape:version="1.1.2 (0a00cf5339, 2022-02-04)"
   xmlns:inkscape="http://www.inkscape.org/namespaces/inkscape"
   xmlns:sodipodi="http://sodipodi.sourceforge.net/DTD/sodipodi-0.dtd"
   xmlns="http://www.w3.org/2000/svg"
   xmlns:svg="http://www.w3.org/2000/svg">
  <sodipodi:namedview
     id="namedview9"
     pagecolor="#000000"
     bordercolor="#666666"
     borderopacity="1.0"
     inkscape:pageshadow="2"
     inkscape:pageopacity="0"
     inkscape:pagecheckerboard="0"
     showgrid="false"
     inkscape:zoom="37.590909"
     inkscape:cx="10.946796"
     inkscape:cy="11"
     inkscape:window-width="927"
     inkscape:window-height="865"
     inkscape:window-x="450"
     inkscape:window-y="211"
     inkscape:window-maximized="1"
     inkscape:current-layer="svg7" />
  <defs
     id="defs3">
    <style
       id="current-color-scheme"
       type="text/css">
   .ColorScheme-Text { color:#eeeeec; } .ColorScheme-Highlight { color:#367bf0; } .ColorScheme-NeutralText { color:#ffcc44; } .ColorScheme-PositiveText { color:#3db47e; } .ColorScheme-NegativeText { color:#dd4747; }
  </style>
  </defs>
  <path
     style="fill:currentColor"
     class="ColorScheme-Text"
     d="m 17,11 c -2,0 -2,2 -2,2 v 3 h 1 L 16.241254,14.148944 16,14.00236 V 13 c 0,0 0,-1 1,-1 1,0 1,1 1,1 h 1 c 0,0 0,-2 -2,-2 z m 0,3 c -0.268567,0 -0.524771,0.05294 -0.758746,0.148944 C 15.512933,14.447798 15,15.163998 15,16 c 0,1.104569 0.895431,2 2,2 1.104569,0 2,-0.895431 2,-2 0,-1.104569 -0.895431,-2 -2,-2 z m 0,1 c 0.552285,0 1,0.447715 1,1 0,0.552285 -0.447715,1 -1,1 -0.552285,0 -1,-0.447715 -1,-1 0,-0.552285 0.447715,-1 1,-1 z m -5,-4 v 1 h 0.773836 v 0 L 13,12.258916 V 18 h 1 V 11 Z M 7,7 C 6.4433311,7 5.9397803,7.2274258 5.5771934,7.5944317 5.2203177,7.9556568 5,8.4520994 5,9 5,10.104569 5.8954305,11 7,11 8.1045695,11 9,10.104569 9,9 9,8.4649135 8.7898673,7.9789062 8.4476209,7.6199971 8.0833743,7.2380167 7.569483,7 7,7 Z M 7,8 C 7.5522847,8 8,8.4477153 8,9 8,9.5522847 7.5522847,10 7,10 6.4477153,10 6,9.5522847 6,9 6,8.4477153 6.4477153,8 7,8 Z M 7,4 C 5.8954305,4 5,4.8954305 5,6 5,6.5269953 5.2038259,7.0063846 5.5369444,7.3636345 5.5908195,7.4214124 5.2154517,7.3370332 5.3869071,7.5004672 5.7173995,7.8154978 6.5076565,8 7,8 7.5161397,8 8.1946087,7.8216765 8.5330489,7.4834762 8.6741645,7.3424608 8.4378424,7.3917673 8.4825181,7.3424608 8.8040958,6.9875501 9,6.516653 9,6 9,4.8954305 8.1045695,4 7,4 Z M 7,5 C 7.5522847,5 8,5.4477153 8,6 8,6.5522847 7.5522847,7 7,7 6.4477153,7 6,6.5522847 6,6 6,5.4477153 6.4477153,5 7,5 Z M 18.741055,10 19,9.7500849 V 9 5.3758454 L 18.777698,5 V 5 H 18.305262 L 18,5.2520123 v 0 3.4590932 0 L 16.479811,9 v 0 h -2.16757 V 9 L 14,9.218988 V 9.7107207 L 14.368127,10 v 0 z M 18,10 C 18,9.5706608 17.928315,9.1413217 17.795205,8.7207759 16.998209,6.2027657 13.999104,4 11,4 v 1 c 1.979455,0 4.585828,1.8807559 5.585398,3.6567363 0.05916,0.1051172 -0.241351,0.2098674 -0.19391,0.3138389 C 16.55483,9.3285496 17,9.6772923 17,10 Z M 4.2863406,12 4,12.361827 V 13 v 3.656549 0 L 4.2207152,17 H 4.7288226 L 5,16.663895 v 0 -3.266728 0 L 6.795226,13 v 0 H 8.74341 v 0 L 9,12.693809 V 12.243452 L 8.6747223,12 v 0 z M 5,12 c 0,0.468326 0.085295,0.936652 0.242569,1.393565 C 6.092761,15.863542 9.0463805,18 12,18 V 17 C 10.040402,17 7.4663986,15.156789 6.4451663,13.39674 6.3886773,13.299384 6.745243,13.17568 6.6986228,13.079158 6.5128169,12.69447 6,12.345606 6,12 Z"
     id="path5"
     sodipodi:nodetypes="sccccccsccsssssssssssscccccccccsssssssssssssssssssssssssscccccccccccccccccccccsccsscccccccccccccccccccccccsccsscc" />
</svg>
