<?xml version="1.0" encoding="UTF-8" standalone="no"?>
<svg
   width="22"
   height="22"
   version="1.1"
   id="svg7"
   sodipodi:docname="depth16to8.svg"
   inkscape:version="1.1.2 (0a00cf5339, 2022-02-04)"
   xmlns:inkscape="http://www.inkscape.org/namespaces/inkscape"
   xmlns:sodipodi="http://sodipodi.sourceforge.net/DTD/sodipodi-0.dtd"
   xmlns="http://www.w3.org/2000/svg"
   xmlns:svg="http://www.w3.org/2000/svg">
  <sodipodi:namedview
     id="namedview9"
     pagecolor="#000000"
     bordercolor="#666666"
     borderopacity="1.0"
     inkscape:pageshadow="2"
     inkscape:pageopacity="0"
     inkscape:pagecheckerboard="0"
     showgrid="false"
     inkscape:zoom="128"
     inkscape:cx="2.96875"
     inkscape:cy="16.878906"
     inkscape:window-width="1920"
     inkscape:window-height="1051"
     inkscape:window-x="0"
     inkscape:window-y="29"
     inkscape:window-maximized="1"
     inkscape:current-layer="svg7" />
  <defs
     id="defs3">
    <style
       id="current-color-scheme"
       type="text/css">
   .ColorScheme-Text { color:#eeeeec; } .ColorScheme-Highlight { color:#367bf0; } .ColorScheme-NeutralText { color:#ffcc44; } .ColorScheme-PositiveText { color:#3db47e; } .ColorScheme-NegativeText { color:#dd4747; }
  </style>
  </defs>
  <path
     style="fill:currentColor"
     class="ColorScheme-Text"
     d="M 4.1423655,12.138676 4,12.26396 V 13 16.748427 L 4.129714,16.913914 4.274703,17 h 0.5364323 v 0 L 5,16.764176 V 13 c 0.4727551,0 1.388479,-0.08345 1.4182653,0 h 2.3606625 v 0 L 9,12.760599 V 12.234694 L 8.7425318,12 v 0 H 4.2293863 Z M 5,12 c 0,3 3.5,6 7,6 V 17 C 9.9502308,17 7.2282129,14.983254 6.3142646,13.15449 6.2941349,13.114211 6.447072,12.982073 6.428723,12.942 6.2640821,12.582439 6,12.324068 6,12 Z M 18.740585,10 19,9.7361612 V 9 5.2683516 L 18.882763,5.1360505 18.767965,5 H 18.272341 L 18.116228,5.1322429 18,5.2680321 V 9 L 16.629934,8.7377863 16.505624,9 V 9 H 14.242309 L 14.120927,9.0973778 14,9.2090691 V 9.8128939 L 14.087728,9.918642 14.182614,10 Z M 18,10 C 18,7 14.5,4 11,4 v 1 c 2.009597,0 4.66535,1.9384695 5.629934,3.7377863 C 16.865322,9.1768751 17,9.6076772 17,10 Z M 8,4 C 6,4 6,6 6,6 V 9 H 7 L 7.0827169,7.2222879 7,7.1578608 v 0 V 6 C 7,6 7,5 8,5 9,5 9,6 9,6 h 1 C 10,6 10,4 8,4 Z M 8,7 C 7.6693643,7 7.3574677,7.0802316 7.0827169,7.2222879 6.4395957,7.5548055 6,8.2260662 6,9 c 0,1.104569 0.8954305,2 2,2 1.1045695,0 2,-0.895431 2,-2 C 10,7.8954305 9.1045695,7 8,7 Z M 8,8 C 8.5522847,8 9,8.4477153 9,9 9,9.5522847 8.5522847,10 8,10 7.4477153,10 7,9.5522847 7,9 7,8.4477153 7.4477153,8 8,8 Z M 3,4 V 5 H 3.892807 V 5 L 4,5.1532347 V 11 H 5 V 4 Z m 14,10 c -1.104569,0 -2,0.895431 -2,2 0,1.104569 0.895431,2 2,2 1.104569,0 2,-0.895431 2,-2 0,-1.104569 -0.895431,-2 -2,-2 z m 0,1 c 0.552285,0 1,0.447715 1,1 0,0.552285 -0.447715,1 -1,1 -0.552285,0 -1,-0.447715 -1,-1 0,-0.552285 0.447715,-1 1,-1 z m 0,-4 c -1.104569,0 -2,0.895431 -2,2 0,1.104569 0.895431,2 2,2 1.104569,0 2,-0.895431 2,-2 0,-1.104569 -0.895431,-2 -2,-2 z m 0,1 c 0.552285,0 1,0.447715 1,1 0,0.552285 -0.447715,1 -1,1 -0.552285,0 -1,-0.447715 -1,-1 0,-0.552285 0.447715,-1 1,-1 z"
     id="path5"
     sodipodi:nodetypes="ccccccccccccccccccccccssccccccccccccccccccccccccccsccscccccccsccssssssssssscccccccccssssssssssssssssssss" />
</svg>
