<?xml version="1.0" encoding="UTF-8" standalone="no"?>
<svg
   width="22"
   height="22"
   viewBox="0 0 22 22"
   version="1.1"
   id="svg7"
   sodipodi:docname="dialog-fill-and-stroke.svg"
   inkscape:version="1.1.2 (0a00cf5339, 2022-02-04)"
   xmlns:inkscape="http://www.inkscape.org/namespaces/inkscape"
   xmlns:sodipodi="http://sodipodi.sourceforge.net/DTD/sodipodi-0.dtd"
   xmlns="http://www.w3.org/2000/svg"
   xmlns:svg="http://www.w3.org/2000/svg">
  <sodipodi:namedview
     id="namedview9"
     pagecolor="#424242"
     bordercolor="#666666"
     borderopacity="1.0"
     inkscape:pageshadow="2"
     inkscape:pageopacity="0"
     inkscape:pagecheckerboard="0"
     showgrid="false"
     inkscape:zoom="256"
     inkscape:cx="5.0976562"
     inkscape:cy="16.798828"
     inkscape:window-width="1920"
     inkscape:window-height="1051"
     inkscape:window-x="0"
     inkscape:window-y="29"
     inkscape:window-maximized="1"
     inkscape:current-layer="svg7" />
  <defs
     id="defs3">
    <style
       id="current-color-scheme"
       type="text/css">
   .ColorScheme-Text { color:#eeeeec; } .ColorScheme-Highlight { color:#367bf0; } .ColorScheme-NeutralText { color:#ffcc44; } .ColorScheme-PositiveText { color:#3db47e; } .ColorScheme-NegativeText { color:#dd4747; }
  </style>
  </defs>
  <path
     style="fill:currentColor"
     class="ColorScheme-Text"
     d="M 14.996094,1.0058594 C 14.812487,0.78929872 8.3600644,6.2490441 6.53125,8.5078125 6.2649108,8.8379653 6.1986807,9.076186 5.8496094,9.6972656 6.0753083,9.8746002 6.5081457,10.283029 6.8085938,10.988281 7.4087642,10.600106 7.6899471,10.541785 8.0078125,10.240234 10.084823,8.2707583 15.170992,1.2101619 14.996094,1.0058594 Z M 4.9140625,10.216797 C 4.1311807,10.241243 3.3833503,10.908125 2.8632812,12.3125 2.46807,13.378412 1.8668877,14.020122 1.4472525,14.319456 c -0.2122316,0.151389 -0.08626,0.201947 -0.08626,0.201947 0,0 -0.073246,0.114331 0.1089801,0.175865 1.3892559,0.469131 4.1191242,0.920185 4.8620587,-2.968752 C 5.974977,10.673498 5.25,10.244141 5.25,10.244141 5.1372413,10.221667 5.0259028,10.213305 4.9140625,10.216797 Z"
     transform="translate(3,3)"
     id="path5"
     sodipodi:nodetypes="ccccccscscsccs" />
</svg>
