<?xml version="1.0" encoding="UTF-8" standalone="no"?>
<svg
   width="22"
   height="22"
   version="1.1"
   id="svg11"
   sodipodi:docname="dialog-input-devices.svg"
   inkscape:version="1.1.2 (0a00cf5339, 2022-02-04)"
   xmlns:inkscape="http://www.inkscape.org/namespaces/inkscape"
   xmlns:sodipodi="http://sodipodi.sourceforge.net/DTD/sodipodi-0.dtd"
   xmlns="http://www.w3.org/2000/svg"
   xmlns:svg="http://www.w3.org/2000/svg">
  <sodipodi:namedview
     id="namedview13"
     pagecolor="#000000"
     bordercolor="#666666"
     borderopacity="1.0"
     inkscape:pageshadow="2"
     inkscape:pageopacity="0"
     inkscape:pagecheckerboard="0"
     showgrid="false"
     inkscape:zoom="37.772727"
     inkscape:cx="10.986763"
     inkscape:cy="11"
     inkscape:window-width="1910"
     inkscape:window-height="1011"
     inkscape:window-x="0"
     inkscape:window-y="35"
     inkscape:window-maximized="1"
     inkscape:current-layer="g9" />
  <defs
     id="defs3">
    <style
       id="current-color-scheme"
       type="text/css">
   .ColorScheme-Text { color:#eeeeec; } .ColorScheme-Highlight { color:#367bf0; } .ColorScheme-NeutralText { color:#ffcc44; } .ColorScheme-PositiveText { color:#3db47e; } .ColorScheme-NegativeText { color:#dd4747; }
  </style>
  </defs>
  <g
     transform="translate(3,3)"
     id="g9">
    <path
       style="fill:currentColor"
       class="ColorScheme-Text"
       d="M 7,3 V 9 H 4 V 7 H 2 v 2 c 0,0 0,2 2,2 h 3 v 3 h 2 v -3 h 3 c 2,0 2,-2 2,-2 V 7 H 12 V 9 H 9 V 3 Z M 7.7339979,0.42560339 v 0 L 5.835026,3.4639583 6.138811,4 v 0 h 3.865576 V 4 L 10.169643,3.4714284 8.2852899,0.45646378 Z"
       id="path5"
       sodipodi:nodetypes="ccccccsccccsccccccccccccccccc" />
    <path
       style="fill:currentColor"
       class="ColorScheme-Text"
       d="M 10,14 A 2,2 0 0 1 8,16 2,2 0 0 1 6,14 2,2 0 0 1 8,12 2,2 0 0 1 10,14 Z M 12,4 H 14 C 14,4 15,4 15,5 V 7 C 15,8 14,8 14,8 H 12 C 12,8 11,8 11,7 V 5 C 11,4 12,4 12,4 Z M 5,6 A 2,2 0 0 1 3,8 2,2 0 0 1 1,6 2,2 0 0 1 3,4 2,2 0 0 1 5,6 Z"
       id="path7" />
  </g>
</svg>
