<?xml version="1.0" encoding="UTF-8" standalone="no"?>
<svg
   width="22"
   height="22"
   version="1.1"
   id="svg11"
   sodipodi:docname="dialog-path-effects.svg"
   inkscape:version="1.1.2 (0a00cf5339, 2022-02-04)"
   xmlns:inkscape="http://www.inkscape.org/namespaces/inkscape"
   xmlns:sodipodi="http://sodipodi.sourceforge.net/DTD/sodipodi-0.dtd"
   xmlns="http://www.w3.org/2000/svg"
   xmlns:svg="http://www.w3.org/2000/svg">
  <sodipodi:namedview
     id="namedview13"
     pagecolor="#000000"
     bordercolor="#666666"
     borderopacity="1.0"
     inkscape:pageshadow="2"
     inkscape:pageopacity="0"
     inkscape:pagecheckerboard="0"
     showgrid="false"
     inkscape:zoom="37.590909"
     inkscape:cx="11.013301"
     inkscape:cy="11"
     inkscape:window-width="1920"
     inkscape:window-height="1051"
     inkscape:window-x="0"
     inkscape:window-y="29"
     inkscape:window-maximized="1"
     inkscape:current-layer="g9" />
  <defs
     id="defs3">
    <style
       id="current-color-scheme"
       type="text/css">
   .ColorScheme-Text { color:#eeeeec; } .ColorScheme-Highlight { color:#367bf0; } .ColorScheme-NeutralText { color:#ffcc44; } .ColorScheme-PositiveText { color:#3db47e; } .ColorScheme-NegativeText { color:#dd4747; }
  </style>
  </defs>
  <g
     transform="translate(3,3)"
     id="g9">
    <path
       style="fill:currentColor"
       class="ColorScheme-Text"
       d="M 13,1.5 C 9.4048,1.5 6.5065,2.5365 4.5215,4.5215 2.5365,6.5065 1.5,9.4048 1.5,13 H 2.5 C 2.5,9.5952 3.4635,6.9935 5.2285,5.2285 6.9935,3.4635 9.5952,2.5 13,2.5 Z"
       id="path5" />
    <path
       style="fill:currentColor"
       class="ColorScheme-Text"
       d="M 0.52443035,5.6038615 C 0.44274575,5.7900378 0.14814335,5.4743203 0.10011466,5.6707899 0.03393609,5.9415048 1.5398519e-4,6.2198631 0,6.5 0,8.4329966 1.5670034,10 3.5,10 4.971317,9.9983443 6.2667938,9.0798918 6.7726929,7.730845 6.8243432,7.5931125 6.5400751,7.6390894 6.5746118,7.4928976 c -0.1068197,0.067465 0.1115337,-0.05797 0,0 C 5.935431,7.8251112 5.2240372,7.9998924 4.5,8 2.8189776,7.9990655 1.2958423,7.0636387 0.52443035,5.6038615 c -0.0861561,-0.163037 0.0665751,0.1755468 0,0 z M 5.7038657,0.76297451 c -0.1062713,0.0797034 0.090973,-0.0939555 0,0 C 5.2564174,1.2250937 5.0005098,1.8466321 5,2.5 5,3.8807119 6.1192881,5 7.5,5 8.1352611,4.9990084 8.740272,4.7565994 9.1977712,4.3315182 9.3059842,4.230973 9.0947558,4.1062137 9.1849113,3.9860059 c -0.1048746,-1.169e-4 0.1025206,0.00915 0,0 C 7.5128697,3.8367985 6.1794132,2.5119213 6.0166925,0.8439889 6.0057136,0.73145238 5.7039299,0.87837867 5.7038657,0.76297451 Z M 4,14 c 0,1.104569 -0.8954305,2 -2,2 -1.1045695,0 -2,-0.895431 -2,-2 0,-1.104569 0.8954305,-2 2,-2 1.1045695,0 2,0.895431 2,2 z M 16,2 c 0,1.1045695 -0.895431,2 -2,2 -1.104569,0 -2,-0.8954305 -2,-2 0,-1.1045695 0.895431,-2 2,-2 1.104569,0 2,0.8954305 2,2 z"
       id="path7"
       sodipodi:nodetypes="csccscscsccsccscsscssssssssss" />
  </g>
</svg>
