<?xml version="1.0" encoding="UTF-8" standalone="no"?>
<svg
   width="22"
   height="22"
   version="1.1"
   id="svg9"
   sodipodi:docname="dirsync.svg"
   inkscape:version="1.1.2 (0a00cf5339, 2022-02-04)"
   xmlns:inkscape="http://www.inkscape.org/namespaces/inkscape"
   xmlns:sodipodi="http://sodipodi.sourceforge.net/DTD/sodipodi-0.dtd"
   xmlns="http://www.w3.org/2000/svg"
   xmlns:svg="http://www.w3.org/2000/svg">
  <sodipodi:namedview
     id="namedview11"
     pagecolor="#000000"
     bordercolor="#666666"
     borderopacity="1.0"
     inkscape:pageshadow="2"
     inkscape:pageopacity="0"
     inkscape:pagecheckerboard="0"
     showgrid="false"
     inkscape:zoom="37.590909"
     inkscape:cx="11.013301"
     inkscape:cy="11"
     inkscape:window-width="1920"
     inkscape:window-height="1051"
     inkscape:window-x="0"
     inkscape:window-y="29"
     inkscape:window-maximized="1"
     inkscape:current-layer="g7" />
  <defs
     id="defs3">
    <style
       id="current-color-scheme"
       type="text/css">
   .ColorScheme-Text { color:#eeeeec; } .ColorScheme-Highlight { color:#367bf0; } .ColorScheme-NeutralText { color:#ffcc44; } .ColorScheme-PositiveText { color:#3db47e; } .ColorScheme-NegativeText { color:#dd4747; }
  </style>
  </defs>
  <g
     transform="matrix(1,0,0,1,3,3)"
     id="g7">
    <path
       class="ColorScheme-Text"
       d="M 2,2 C 2,2 1,2 1,3 v 11 c 0,0 0,1 1,1 h 12 c 0,0 1,0 1,-1 V 5 C 15,4 14,4 14,4 H 9.2995368 V 4 L 8.7520536,3.7520536 7.2020076,2.2020076 6.6436478,2 v 0 z m 5,4.5810343 v 0 V 12 H 5 V 9 H 4.5592876 V 9 L 4.3949863,8.6050137 6.5900612,6.4099388 Z M 9,7 h 2 V 9.7705369 10 h 0.469514 v 0 l 0.159005,0.371481 -2.1179998,2.118 v 0 L 9,12.315999 Z"
       style="fill:currentColor"
       id="path5"
       sodipodi:nodetypes="cscscssccccccccccccccccccccccccccccc" />
  </g>
</svg>
