<?xml version="1.0" encoding="UTF-8" standalone="no"?>
<svg
   width="22"
   height="22"
   version="1.1"
   id="svg9"
   sodipodi:docname="document-swap.svg"
   inkscape:version="1.1.2 (0a00cf5339, 2022-02-04)"
   xmlns:inkscape="http://www.inkscape.org/namespaces/inkscape"
   xmlns:sodipodi="http://sodipodi.sourceforge.net/DTD/sodipodi-0.dtd"
   xmlns="http://www.w3.org/2000/svg"
   xmlns:svg="http://www.w3.org/2000/svg">
  <sodipodi:namedview
     id="namedview11"
     pagecolor="#000000"
     bordercolor="#666666"
     borderopacity="1.0"
     inkscape:pageshadow="2"
     inkscape:pageopacity="0"
     inkscape:pagecheckerboard="0"
     showgrid="false"
     inkscape:zoom="37.590909"
     inkscape:cx="20.350665"
     inkscape:cy="11"
     inkscape:window-width="1920"
     inkscape:window-height="1051"
     inkscape:window-x="0"
     inkscape:window-y="29"
     inkscape:window-maximized="1"
     inkscape:current-layer="g7" />
  <defs
     id="defs3">
    <style
       id="current-color-scheme"
       type="text/css">
   .ColorScheme-Text { color:#eeeeec; } .ColorScheme-Highlight { color:#367bf0; } .ColorScheme-NeutralText { color:#ffcc44; } .ColorScheme-PositiveText { color:#3db47e; } .ColorScheme-NegativeText { color:#dd4747; }
  </style>
  </defs>
  <g
     transform="translate(3,3)"
     id="g7">
    <path
       style="fill:currentColor"
       class="ColorScheme-Text"
       d="m 10.303937,1.3039375 v 0 L 11.66519,2.6651899 11.614339,3 V 3 H 7 v 1 h 4.594879 l 0.118384,0.2867374 v 0 L 10.313337,5.6866632 10.541976,6 V 6 H 11.5 l 2.177292,-2.1772917 v 0 L 13.756894,3.2568937 11.5,1 H 10.43603 Z M 4.5,3 2.3142342,5.1857658 l 0.00536,0.6338259 v 0 L 4.5,8 H 5.4842539 L 5.692584,7.692584 v 0 L 4.2949184,6.2949184 4.4397272,6 V 6 H 9 V 5 H 4.4596561 c -0.1532187,0 0,0 0,0 L 4.3246767,4.6753233 5.6648491,3.3351509 v 0 L 5.5226804,3 Z M 2,8 v 6 c 0,1 1,1 1,1 h 10 c 0,0 1,0 1,-1 V 8 h -2 v 4.567659 L 11.57615,13 v 0 H 4.4438951 v 0 L 4,12.496062 4,8 Z"
       id="path5"
       sodipodi:nodetypes="cccccccccccccccccccccccccccccccccscccccccsccscccccccccc" />
  </g>
</svg>
