<?xml version="1.0" encoding="UTF-8" standalone="no"?>
<svg
   width="22"
   height="22"
   version="1.1"
   id="svg9"
   sodipodi:docname="document-open.svg"
   inkscape:version="1.1.2 (0a00cf5339, 2022-02-04)"
   xmlns:inkscape="http://www.inkscape.org/namespaces/inkscape"
   xmlns:sodipodi="http://sodipodi.sourceforge.net/DTD/sodipodi-0.dtd"
   xmlns="http://www.w3.org/2000/svg"
   xmlns:svg="http://www.w3.org/2000/svg">
  <sodipodi:namedview
     id="namedview11"
     pagecolor="#000000"
     bordercolor="#666666"
     borderopacity="1.0"
     inkscape:pageshadow="2"
     inkscape:pageopacity="0"
     inkscape:pagecheckerboard="0"
     showgrid="false"
     inkscape:zoom="37.590909"
     inkscape:cx="16.120919"
     inkscape:cy="19.512696"
     inkscape:window-width="1438"
     inkscape:window-height="869"
     inkscape:window-x="94"
     inkscape:window-y="207"
     inkscape:window-maximized="1"
     inkscape:current-layer="g7" />
  <defs
     id="defs3">
    <style
       id="current-color-scheme"
       type="text/css">
   .ColorScheme-Text { color:#eeeeec; } .ColorScheme-Highlight { color:#367bf0; } .ColorScheme-NeutralText { color:#ffcc44; } .ColorScheme-PositiveText { color:#3db47e; } .ColorScheme-NegativeText { color:#dd4747; }
  </style>
  </defs>
  <g
     transform="translate(3,3)"
     id="g7">
    <path
       style="fill:currentColor"
       class="ColorScheme-Text"
       d="M 7.5806817,1.105682 7.8797384,1.130734 7.4309957,1.3218957 4.0287584,6.2362383 3.9426484,6.6668767 v 0 L 4.03734,6.8498501 4.4320805,7 V 7 7 H 5.7690339 V 7 L 6,7.3867666 V 12.540173 L 6.3960969,13 v 0 h 3.1803906 v 0 L 10,12.606375 v -5.2885185 0 L 10.316929,7 h 1.19324 v 0 0 l 0.411779,-0.1864909 0.07428,-0.198163 -0.07939,-0.4576968 v 0 L 8.6214048,1.3975847 8.2242196,1.1595902 v 0 L 7.8797384,1.1307335 Z M 1,14.431755 v 0 1.062387 L 1.4835002,16 v 0 H 14.433148 v 0 L 15,15.56135 V 14.398371 L 14.465915,14 v 0 H 1.5619916 Z"
       id="path5"
       sodipodi:nodetypes="ccccccccccccccccccccccccccccccccccccccccccccccc" />
  </g>
</svg>
