<?xml version="1.0" encoding="UTF-8" standalone="no"?>
<svg
   width="22"
   height="22"
   version="1.1"
   id="svg9"
   sodipodi:docname="document-edit-decrypt-verify.svg"
   inkscape:version="1.1.2 (0a00cf5339, 2022-02-04)"
   xmlns:inkscape="http://www.inkscape.org/namespaces/inkscape"
   xmlns:sodipodi="http://sodipodi.sourceforge.net/DTD/sodipodi-0.dtd"
   xmlns="http://www.w3.org/2000/svg"
   xmlns:svg="http://www.w3.org/2000/svg">
  <sodipodi:namedview
     id="namedview11"
     pagecolor="#000000"
     bordercolor="#666666"
     borderopacity="1.0"
     inkscape:pageshadow="2"
     inkscape:pageopacity="0"
     inkscape:pagecheckerboard="0"
     showgrid="false"
     inkscape:zoom="37.590909"
     inkscape:cx="11.013301"
     inkscape:cy="11"
     inkscape:window-width="1920"
     inkscape:window-height="1051"
     inkscape:window-x="0"
     inkscape:window-y="29"
     inkscape:window-maximized="1"
     inkscape:current-layer="g7" />
  <defs
     id="defs3">
    <style
       id="current-color-scheme"
       type="text/css">
   .ColorScheme-Text { color:#eeeeec; } .ColorScheme-Highlight { color:#367bf0; } .ColorScheme-NeutralText { color:#ffcc44; } .ColorScheme-PositiveText { color:#3db47e; } .ColorScheme-NegativeText { color:#dd4747; }
  </style>
  </defs>
  <g
     transform="translate(3,3)"
     id="g7">
    <path
       style="fill:currentColor"
       class="ColorScheme-Text"
       d="M 2,2 V 4 H 4 V 2 Z M 7,2 V 4 H 9 V 2 Z m 5,0 v 2 h 2 V 2 Z M 4,5 V 7 H 6 V 5 Z m 6,0 v 2 h 2 V 5 Z M 2,8 v 6 c 0,1 1,1 1,1 h 10 c 0,0 1,0 1,-1 V 8 h -2 v 5 H 4 V 8 Z m 7.7010381,0.2989618 v 0 L 7.2769927,10.723007 v 0 L 6.695555,10.695555 6.1787322,10.178732 5.7104345,10.289566 v 0 l -0.4553703,0.45537 v 0 l 0.05138,0.561509 1.2928392,1.292839 0.7341971,0.06723 c 0.4343307,-1.016037 -0.3334809,0.333481 0,0 l 3.3475401,-3.3475358 0.09871,-0.539244 v 0 L 10.235555,8.2355553 Z"
       id="path5"
       sodipodi:nodetypes="ccccccccccccccccccccccccccsccsccccccccccccccccccccccccc" />
  </g>
</svg>
