<?xml version="1.0" encoding="UTF-8" standalone="no"?>
<svg
   width="22"
   height="22"
   version="1.1"
   id="svg9"
   sodipodi:docname="stock_task-assigned-to.svg"
   inkscape:version="1.1.2 (0a00cf5339, 2022-02-04)"
   xmlns:inkscape="http://www.inkscape.org/namespaces/inkscape"
   xmlns:sodipodi="http://sodipodi.sourceforge.net/DTD/sodipodi-0.dtd"
   xmlns="http://www.w3.org/2000/svg"
   xmlns:svg="http://www.w3.org/2000/svg">
  <sodipodi:namedview
     id="namedview11"
     pagecolor="#000000"
     bordercolor="#666666"
     borderopacity="1.0"
     inkscape:pageshadow="2"
     inkscape:pageopacity="0"
     inkscape:pagecheckerboard="0"
     showgrid="false"
     inkscape:zoom="53.161573"
     inkscape:cx="11.004189"
     inkscape:cy="10.994784"
     inkscape:window-width="1916"
     inkscape:window-height="1047"
     inkscape:window-x="2"
     inkscape:window-y="31"
     inkscape:window-maximized="1"
     inkscape:current-layer="g7" />
  <defs
     id="defs3">
    <style
       id="current-color-scheme"
       type="text/css">
   .ColorScheme-Text { color:#eeeeec; } .ColorScheme-Highlight { color:#367bf0; } .ColorScheme-NeutralText { color:#ffcc44; } .ColorScheme-PositiveText { color:#3db47e; } .ColorScheme-NegativeText { color:#dd4747; }
  </style>
  </defs>
  <g
     transform="translate(3,3)"
     id="g7">
    <path
       style="fill:currentColor"
       class="ColorScheme-Text"
       d="M 3,1 C 3,1 2,1 2,2 v 12 c 0,1 1,1 1,1 h 10 c 1,0 1,-1 1,-1 V 9.75 L 12,11 c 2.6e-5,0.523477 0.01071,1.180589 0.0069,1.656134 -0.001,0.130455 -0.321228,0.247246 -0.324969,0.343866 -0.09954,0 0.112287,0 0,0 -1.7309816,0 -4.9035892,0 -7.2828944,0 v 0 L 4,12.511842 4,3.4327859 v 0 L 4.4054441,3 11.6861,3 V 3 L 12,3.3603731 V 5 l 2,1.25 V 2 C 14,1 13,1 13,1 Z m 7,4.5618998 v 0 1.1580682 L 9.7391526,7 V 7 H 6 V 9 H 9.7330332 L 10,9.2532647 v 0 1.2320353 l 0.458735,0.208877 v 0 l 3.629647,-2.419765 -0.03117,-0.5696043 v 0 l -3.56302,-2.3753461 z"
       id="path5"
       sodipodi:nodetypes="csscscccscscccccccccccscccccccccccccccccccc" />
  </g>
</svg>
