<?xml version="1.0" encoding="UTF-8" standalone="no"?>
<svg
   width="22"
   height="22"
   version="1.1"
   id="svg9"
   sodipodi:docname="document-revert (copy).svg"
   inkscape:version="1.1.2 (0a00cf5339, 2022-02-04)"
   xmlns:inkscape="http://www.inkscape.org/namespaces/inkscape"
   xmlns:sodipodi="http://sodipodi.sourceforge.net/DTD/sodipodi-0.dtd"
   xmlns="http://www.w3.org/2000/svg"
   xmlns:svg="http://www.w3.org/2000/svg">
  <sodipodi:namedview
     id="namedview11"
     pagecolor="#000000"
     bordercolor="#666666"
     borderopacity="1.0"
     inkscape:pageshadow="2"
     inkscape:pageopacity="0"
     inkscape:pagecheckerboard="0"
     showgrid="false"
     inkscape:zoom="37.590909"
     inkscape:cx="10.960097"
     inkscape:cy="11"
     inkscape:window-width="618"
     inkscape:window-height="843"
     inkscape:window-x="623"
     inkscape:window-y="233"
     inkscape:window-maximized="1"
     inkscape:current-layer="g7" />
  <defs
     id="defs3">
    <style
       id="current-color-scheme"
       type="text/css">
   .ColorScheme-Text { color:#eeeeec; } .ColorScheme-Highlight { color:#367bf0; } .ColorScheme-NeutralText { color:#ffcc44; } .ColorScheme-PositiveText { color:#3db47e; } .ColorScheme-NegativeText { color:#dd4747; }
  </style>
  </defs>
  <g
     transform="translate(3,3)"
     id="g7">
    <path
       style="fill:currentColor"
       class="ColorScheme-Text"
       d="M 3,1 C 3,1 2,1 2,2 V 6 H 4 V 3.450498 L 4.313426,3 v 0 h 7.13859 L 12,3.521787 v 0 8.942634 L 11.472771,13 v 0 H 4.478652 v 0 L 4,12.559989 V 10 C 4,10 4,9 5,9 H 5.672337 V 9 L 6,9.2381004 v 1.1555826 0 l 0.4049749,0.171159 v 0 L 6.8854584,10.409694 9.7747281,8.4835146 v 0 l 0.2215003,-0.4084291 -0.05442,-0.447213 v 0 L 6.4435115,5.295674 v 0 L 6,5.651044 v 0 1.0182156 L 5.7572,7 V 7 H 5 C 5,7 2,7 2,10 v 4 c 0,1 1,1 1,1 h 10 c 0,0 1,0 1,-1 V 2 C 14,1 13,1 13,1 Z"
       id="path5"
       sodipodi:nodetypes="cscccccccccccccccscccccccccccccccccccccssccsscc" />
  </g>
</svg>
