<?xml version="1.0" encoding="UTF-8" standalone="no"?>
<svg
   width="22"
   height="22"
   version="1.1"
   id="svg9"
   sodipodi:docname="document-open-recent.svg"
   inkscape:version="1.1.2 (0a00cf5339, 2022-02-04)"
   xmlns:inkscape="http://www.inkscape.org/namespaces/inkscape"
   xmlns:sodipodi="http://sodipodi.sourceforge.net/DTD/sodipodi-0.dtd"
   xmlns="http://www.w3.org/2000/svg"
   xmlns:svg="http://www.w3.org/2000/svg">
  <sodipodi:namedview
     id="namedview11"
     pagecolor="#000000"
     bordercolor="#666666"
     borderopacity="1.0"
     inkscape:pageshadow="2"
     inkscape:pageopacity="0"
     inkscape:pagecheckerboard="0"
     showgrid="false"
     inkscape:zoom="37.590909"
     inkscape:cx="13.700121"
     inkscape:cy="11"
     inkscape:window-width="1096"
     inkscape:window-height="943"
     inkscape:window-x="161"
     inkscape:window-y="133"
     inkscape:window-maximized="1"
     inkscape:current-layer="g7" />
  <defs
     id="defs3">
    <style
       id="current-color-scheme"
       type="text/css">
   .ColorScheme-Text { color:#eeeeec; } .ColorScheme-Highlight { color:#367bf0; } .ColorScheme-NeutralText { color:#ffcc44; } .ColorScheme-PositiveText { color:#3db47e; } .ColorScheme-NegativeText { color:#dd4747; }
  </style>
  </defs>
  <g
     transform="translate(3,3)"
     id="g7">
    <path
       style="fill:currentColor;fill-rule:evenodd"
       class="ColorScheme-Text"
       d="M 7.3959744,4 V 4 H 8.5538348 V 4 L 9,4.5677355 v 2.5314032 l 0.2755562,0.6764175 v 0 l 1.3784678,1.3784681 0.06757,0.6243838 v 0 L 9.8671074,10.632893 9.5,11 9.8671074,10.632893 9.0625014,10.562501 7.3260924,8.8260924 v 0 L 7,8.0513972 V 4.4939228 Z M 8,1 C 4.1340068,1 1,4.1340068 1,8 c 0,3.865993 3.1340068,7 7,7 3.865993,0 7,-3.134007 7,-7 C 15,4.1340068 11.865993,1 8,1 Z m 0,2 c 2.761424,0 5,2.2385763 5,5 0,2.761424 -2.238576,5 -5,5 C 5.2385763,13 3,10.761424 3,8 3,5.2385763 5.2385763,3 8,3 Z"
       id="path5"
       sodipodi:nodetypes="ccccccccccccccccccccssssssssss" />
  </g>
</svg>
