<?xml version="1.0" encoding="UTF-8" standalone="no"?>
<svg
   width="22"
   height="22"
   viewBox="0 0 22 22"
   version="1.1"
   id="svg7"
   sodipodi:docname="draw-watercolor.svg"
   inkscape:version="1.1.2 (0a00cf5339, 2022-02-04)"
   xmlns:inkscape="http://www.inkscape.org/namespaces/inkscape"
   xmlns:sodipodi="http://sodipodi.sourceforge.net/DTD/sodipodi-0.dtd"
   xmlns="http://www.w3.org/2000/svg"
   xmlns:svg="http://www.w3.org/2000/svg">
  <sodipodi:namedview
     id="namedview9"
     pagecolor="#000000"
     bordercolor="#666666"
     borderopacity="1.0"
     inkscape:pageshadow="2"
     inkscape:pageopacity="0"
     inkscape:pagecheckerboard="0"
     showgrid="false"
     inkscape:zoom="37.590909"
     inkscape:cx="11.013301"
     inkscape:cy="11"
     inkscape:window-width="1920"
     inkscape:window-height="1051"
     inkscape:window-x="0"
     inkscape:window-y="29"
     inkscape:window-maximized="1"
     inkscape:current-layer="svg7" />
  <defs
     id="defs3">
    <style
       id="current-color-scheme"
       type="text/css">
   .ColorScheme-Text { color:#eeeeec; } .ColorScheme-Highlight { color:#367bf0; } .ColorScheme-NeutralText { color:#ffcc44; } .ColorScheme-PositiveText { color:#3db47e; } .ColorScheme-NegativeText { color:#dd4747; }
  </style>
  </defs>
  <path
     style="fill:currentColor"
     class="ColorScheme-Text"
     d="M 14.574,1.0059 C 13.51835,0.87527108 10.76911,2.7589871 8.0605,5.4688 6.9657146,6.5642461 5.9697674,7.7043127 5.1948269,8.7471241 c -0.0804,0.1081916 0.1859739,0.3483501 0.1104682,0.4542896 0.1182303,0.03766 -0.1112177,-0.050868 0,0 0.6896631,0.3154324 1.2359227,0.8762863 1.5323949,1.5770273 0.036444,0.08614 -0.028697,-0.09017 0,0 0.1286283,-0.09173 0.3568452,0.07738 0.4887468,-0.02153 C 8.3495179,9.9897129 9.4625247,9.0138331 10.533,7.9434 13.606105,4.8692691 15.544952,1.8228352 14.865,1.1367 14.794768,1.065563 14.697412,1.021803 14.574,1.0059 Z m -1.741456,8.4559121 c -0.04774,0.1567131 0.0632,-0.1511419 0,0 C 12.380746,10.542273 11.587458,11.478871 11.219,12.25 11.072,12.511 11,12.808 11,13.125 11,14.164 11.892,15 13,15 14.108,15 15,14.164 15,13.125 15,12.808 14.897,12.511 14.75,12.25 14.389857,11.496272 13.646635,10.58446 13.196847,9.5347393 13.12209,9.3602716 12.887983,9.6438064 12.832544,9.4618121 Z M 4.5,10.33 v 0.002 c -3.2204366,0.863102 -1.2552249,2.808258 -2.9658366,4.292906 -0.1484436,0.128835 0.3120218,0.234186 0.1024263,0.355078 0.2190509,0 -0.2053422,0.01315 0,0 C 4.7121142,14.78298 6.25,13.174897 6.25,12.08 6.25,11.498 6.3094,10.427 4.5,10.33 Z"
     transform="translate(3,3)"
     id="path5"
     sodipodi:nodetypes="ccscsscsccccscssscscccscssc" />
</svg>
