<?xml version="1.0" encoding="UTF-8" standalone="no"?>
<svg
   width="22"
   height="22"
   viewBox="0 0 22 22"
   version="1.1"
   id="svg7"
   sodipodi:docname="draw-cuboid.svg"
   inkscape:version="1.1.2 (0a00cf5339, 2022-02-04)"
   xmlns:inkscape="http://www.inkscape.org/namespaces/inkscape"
   xmlns:sodipodi="http://sodipodi.sourceforge.net/DTD/sodipodi-0.dtd"
   xmlns="http://www.w3.org/2000/svg"
   xmlns:svg="http://www.w3.org/2000/svg">
  <sodipodi:namedview
     id="namedview9"
     pagecolor="#000000"
     bordercolor="#666666"
     borderopacity="1.0"
     inkscape:pageshadow="2"
     inkscape:pageopacity="0"
     inkscape:pagecheckerboard="0"
     showgrid="false"
     inkscape:zoom="37.590909"
     inkscape:cx="11.013301"
     inkscape:cy="11"
     inkscape:window-width="1920"
     inkscape:window-height="1051"
     inkscape:window-x="0"
     inkscape:window-y="29"
     inkscape:window-maximized="1"
     inkscape:current-layer="svg7" />
  <defs
     id="defs3">
    <style
       id="current-color-scheme"
       type="text/css">
   .ColorScheme-Text { color:#eeeeec; } .ColorScheme-Highlight { color:#367bf0; } .ColorScheme-NeutralText { color:#ffcc44; } .ColorScheme-PositiveText { color:#3db47e; } .ColorScheme-NegativeText { color:#dd4747; }
  </style>
  </defs>
  <path
     style="fill:currentColor"
     class="ColorScheme-Text"
     d="M 10.603516,3 C 10.495409,3 10.388419,3.02464 10.289062,3.074219 L 3.3925781,6.515625 C 3.1528418,6.6352265 3,6.8658019 3,7.15625 v 7.654297 c 0,0.266714 0.1506245,0.510636 0.3886719,0.630859 l 6.8964841,3.482422 C 10.385558,18.974584 10.494581,19 10.603516,19 c 0.171646,0 0.3477,-0.09029 0.347656,-0.08984 l 6.86914,-3.46875 c 0.238092,-0.120223 0.388672,-0.364145 0.388672,-0.630859 V 7.1484415 c 0,-0.2679589 -0.152708,-0.513211 -0.392578,-0.6328125 L 10.919922,3.0742188 C 10.820587,3.0246404 10.711623,3 10.603516,3 Z m -0.253315,1.622565 0.59371,0.043413 4.629587,2.3105403 -0.0693,0.3784219 v 0 l -4.592955,2.292258 v 0 L 10.329585,9.664017 5.6938145,7.3495407 5.6387306,6.9748357 v 0 z M 4.4140625,8.6663296 4.8784585,8.5228 9.4720912,10.815525 v 0 l 0.4243932,0.636041 v 5.280148 0 L 9.4877098,16.938032 4.7718133,14.555723 v 0 L 4.4140625,14.002329 Z M 16.794922,8.8265742 v 0 5.1989638 l -0.313098,0.507572 v 0 L 11.7308,16.932309 v 0 l -0.420253,-0.294348 v -5.247628 l 0.344711,-0.534976 v 0 l 4.804638,-2.3971865 z"
     id="path5"
     sodipodi:nodetypes="sccssccsccssccscccccccccccccccccccccccccccccccccccccc" />
</svg>
