<?xml version="1.0" encoding="UTF-8" standalone="no"?>
<svg
   width="22"
   height="22"
   viewBox="0 0 22 22"
   version="1.1"
   id="svg7"
   sodipodi:docname="kdenlive-track_has_effect.svg"
   inkscape:version="1.1.2 (0a00cf5339, 2022-02-04)"
   xmlns:inkscape="http://www.inkscape.org/namespaces/inkscape"
   xmlns:sodipodi="http://sodipodi.sourceforge.net/DTD/sodipodi-0.dtd"
   xmlns="http://www.w3.org/2000/svg"
   xmlns:svg="http://www.w3.org/2000/svg">
  <sodipodi:namedview
     id="namedview9"
     pagecolor="#000000"
     bordercolor="#666666"
     borderopacity="1.0"
     inkscape:pageshadow="2"
     inkscape:pageopacity="0"
     inkscape:pagecheckerboard="0"
     showgrid="false"
     inkscape:zoom="35.318182"
     inkscape:cx="11"
     inkscape:cy="10.886744"
     inkscape:window-width="1920"
     inkscape:window-height="1051"
     inkscape:window-x="0"
     inkscape:window-y="29"
     inkscape:window-maximized="1"
     inkscape:current-layer="svg7" />
  <defs
     id="defs3">
    <style
       id="current-color-scheme"
       type="text/css">
   .ColorScheme-Text { color:#eeeeec; } .ColorScheme-Highlight { color:#367bf0; } .ColorScheme-NeutralText { color:#ffcc44; } .ColorScheme-PositiveText { color:#3db47e; } .ColorScheme-NegativeText { color:#dd4747; }
  </style>
  </defs>
  <path
     style="fill:currentColor"
     class="ColorScheme-Text"
     d="m 7.2678149,2.2889077 v 0 0 L 6.03408,5.4875219 5.4808963,5.9062847 v 0 L 1.8569578,6.1012625 v 0 0 L 1.4373336,6.391656 1.2659112,6.887415 v 0 L 1.4638147,7.3904823 4.264936,9.6663185 4.4706794,10.297487 v 0 l -0.946885,3.5557 v 0 l 0.1398845,0.527452 0.3191683,0.264707 0.6454343,-0.05567 v 0 0 l 2.95385,-1.912825 v 0 l 0.8435835,0.0051 2.878389,1.863959 v 0 l 0.659384,0.04357 0.372591,-0.206001 0.144597,-0.513481 v 0 0 L 11.55395,10.389996 11.741469,9.6611331 v 0 l 2.922685,-2.3746034 v 0 0 0 0 l -0.0079,-0.4977117 v 0 L 14.408709,6.2549864 v 0 L 14.176341,6.103054 v 0 L 10.577538,5.9094286 v 0 L 9.9680892,5.4931447 8.7145594,2.2432104 v 0 L 8.1858141,1.9724359 7.6985403,2.0105282 Z"
     transform="translate(3,3)"
     id="path5"
     sodipodi:nodetypes="ccccccccccccccccccccccccccccccccccccccccccccccccccccccc" />
</svg>
