<?xml version="1.0" encoding="UTF-8" standalone="no"?>
<svg
   width="22"
   height="22"
   version="1.1"
   id="svg9"
   sodipodi:docname="earthquake.svg"
   inkscape:version="1.1.2 (0a00cf5339, 2022-02-04)"
   xmlns:inkscape="http://www.inkscape.org/namespaces/inkscape"
   xmlns:sodipodi="http://sodipodi.sourceforge.net/DTD/sodipodi-0.dtd"
   xmlns="http://www.w3.org/2000/svg"
   xmlns:svg="http://www.w3.org/2000/svg">
  <sodipodi:namedview
     id="namedview11"
     pagecolor="#000000"
     bordercolor="#666666"
     borderopacity="1.0"
     inkscape:pageshadow="2"
     inkscape:pageopacity="0"
     inkscape:pagecheckerboard="0"
     showgrid="false"
     inkscape:zoom="37.590909"
     inkscape:cx="11.013301"
     inkscape:cy="11"
     inkscape:window-width="1920"
     inkscape:window-height="1051"
     inkscape:window-x="0"
     inkscape:window-y="29"
     inkscape:window-maximized="1"
     inkscape:current-layer="g7" />
  <defs
     id="defs3">
    <style
       id="current-color-scheme"
       type="text/css">
   .ColorScheme-Text { color:#eeeeec; } .ColorScheme-Highlight { color:#367bf0; } .ColorScheme-NeutralText { color:#ffcc44; } .ColorScheme-PositiveText { color:#3db47e; } .ColorScheme-NegativeText { color:#dd4747; }
  </style>
  </defs>
  <g
     transform="translate(3,3)"
     id="g7">
    <path
       style="fill:currentColor"
       class="ColorScheme-Text"
       d="m 8.1113,1 2.98225,7.8426735 0.595548,0.2544776 v 0 L 14.977,7.4532 C 14.692,3.8557 11.72,1.058 8.1113,1 Z M 7.6094,1 C 4.0923,1.2007 1.2723,3.9976 1.0254,7.5118 L 3.8426814,5.498934 v 0 l 0.5574316,0.1842403 2.0164179,4.03235 v 0 L 6.7478934,9.5209421 Z m 0.6758,3.8751372 -0.07803,0.1691179 -0.8017589,7.9195589 v 0 L 6.9642619,13.046083 3.9961347,7.1094901 3.5211552,6.9557547 v 0 L 1.0449,8.7247 C 1.4158,12.288 4.4174,14.996 8,15 c 3.641,-0.003 6.672,-2.797 6.971,-6.4257 l -3.770279,1.884873 v 0 L 10.525255,10.159626 8.5761383,5.0379899 Z"
       id="path5"
       sodipodi:nodetypes="ccccccccccccccccccccccccccccccc" />
  </g>
</svg>
