<?xml version="1.0" encoding="UTF-8" standalone="no"?>
<svg
   width="22"
   height="22"
   version="1.1"
   id="svg11"
   sodipodi:docname="edit-find-replace.svg"
   inkscape:version="1.1.2 (0a00cf5339, 2022-02-04)"
   xmlns:inkscape="http://www.inkscape.org/namespaces/inkscape"
   xmlns:sodipodi="http://sodipodi.sourceforge.net/DTD/sodipodi-0.dtd"
   xmlns="http://www.w3.org/2000/svg"
   xmlns:svg="http://www.w3.org/2000/svg">
  <sodipodi:namedview
     id="namedview13"
     pagecolor="#000000"
     bordercolor="#666666"
     borderopacity="1.0"
     inkscape:pageshadow="2"
     inkscape:pageopacity="0"
     inkscape:pagecheckerboard="0"
     showgrid="false"
     inkscape:zoom="256"
     inkscape:cx="15.207031"
     inkscape:cy="13.208984"
     inkscape:window-width="1920"
     inkscape:window-height="1051"
     inkscape:window-x="0"
     inkscape:window-y="29"
     inkscape:window-maximized="1"
     inkscape:current-layer="g9" />
  <defs
     id="defs3">
    <style
       id="current-color-scheme"
       type="text/css">
   .ColorScheme-Text { color:#eeeeec; } .ColorScheme-Highlight { color:#367bf0; } .ColorScheme-NeutralText { color:#ffcc44; } .ColorScheme-PositiveText { color:#3db47e; } .ColorScheme-NegativeText { color:#dd4747; }
  </style>
  </defs>
  <g
     transform="matrix(1,0,0,1,3,3)"
     id="g9">
    <path
       class="ColorScheme-Text"
       d="M 6.5,1 C 3.4624339,1 1,3.4624339 1,6.5 1.0026434,7.713286 1.4064004,8.8916487 2.1484,9.8516 L 3.5781,8.4219 C 3.2019182,7.851436 3.0009547,7.1833308 3,6.5 3,4.5670034 4.5670034,3 6.5,3 7.1833308,3.0009547 7.851436,3.2019182 8.4219,3.5781 L 9.8535,2.1465 C 8.8927893,1.4047838 7.7137155,1.0016801 6.5,1 Z m 4.914514,7.9518974 -0.136955,-0.1509187 v 0 l -0.0735,-0.00471 -2.1942403,2.1943712 -0.018887,0.06364 v 0 l 0.064204,0.201375 0.05723,0.05197 c 0.2872914,-0.140983 -0.05723,-0.05197 0,0 0.025423,0.02309 0.033862,0.01137 0.063925,-0.0052 C 9.3272846,11.218981 9.4744263,11.128432 9.6172,11.031 l 3.6618,3.662 c 0.188559,0.196161 0.448909,0.307017 0.721,0.307 0.552285,0 1,-0.447715 1,-1 -1.9e-5,-0.270113 -0.109309,-0.528731 -0.303,-0.717 l -3.67,-3.6697 c 0.144554,-0.2114165 0.354745,-0.4079575 0.387514,-0.6614026 0.01569,-0.1213368 -0.07536,0.2160801 0,0 z"
       style="fill:currentColor"
       id="path5"
       sodipodi:nodetypes="ccccccccccccccccccssccccccsc" />
    <path
       class="ColorScheme-Text"
       d="m 2,11.638753 v 0 1.815557 L 2.6137415,14 v 0 h 1.642737 l 0.6431566,-0.229635 v 0 L 11.42,7.25 8.75,4.57 2.2787072,11.041293 Z M 13.79,4.89 c 0.28,-0.28 0.28,-0.73 0,-1.01 L 12.12,2.21 c -0.29,-0.28 -0.73,-0.28 -1.01,0 l -1.4,1.4 2.67,2.68 z"
       style="fill:currentColor"
       id="path7"
       sodipodi:nodetypes="cccccccccccccscsccc" />
  </g>
</svg>
