<?xml version="1.0" encoding="UTF-8" standalone="no"?>
<svg
   width="22"
   height="22"
   viewBox="0 0 22 22"
   version="1.1"
   id="svg7"
   sodipodi:docname="stock_redo.svg"
   inkscape:version="1.1.2 (0a00cf5339, 2022-02-04)"
   xmlns:inkscape="http://www.inkscape.org/namespaces/inkscape"
   xmlns:sodipodi="http://sodipodi.sourceforge.net/DTD/sodipodi-0.dtd"
   xmlns="http://www.w3.org/2000/svg"
   xmlns:svg="http://www.w3.org/2000/svg">
  <sodipodi:namedview
     id="namedview9"
     pagecolor="#000000"
     bordercolor="#666666"
     borderopacity="1.0"
     inkscape:pageshadow="2"
     inkscape:pageopacity="0"
     inkscape:pagecheckerboard="0"
     showgrid="false"
     inkscape:zoom="68.545454"
     inkscape:cx="10.941645"
     inkscape:cy="10.978117"
     inkscape:window-width="1920"
     inkscape:window-height="1051"
     inkscape:window-x="0"
     inkscape:window-y="29"
     inkscape:window-maximized="1"
     inkscape:current-layer="svg7" />
  <defs
     id="defs3">
    <style
       id="current-color-scheme"
       type="text/css">
   .ColorScheme-Text { color:#eeeeec; } .ColorScheme-Highlight { color:#367bf0; } .ColorScheme-NeutralText { color:#ffcc44; } .ColorScheme-PositiveText { color:#3db47e; } .ColorScheme-NegativeText { color:#dd4747; }
  </style>
  </defs>
  <path
     style="fill:currentColor"
     class="ColorScheme-Text"
     d="m 13.538177,5.8744099 0.13396,-0.2750385 0.38084,-0.1103868 v 0 l 0.48803,0.1127131 3.237757,1.9426549 0.219389,0.3232715 v 0 l 0.0014,0.339162 -0.134934,0.1973633 v 0 0 l -3.564753,2.1388516 v 0 l -0.328821,0.04866 -0.251571,-0.09811 -0.181273,-0.07069 0.181273,0.07069 -0.181273,-0.246956 v -0.9484588 0 L 13.066576,9 h -2.528399 c -1.6792998,0 -2.9999998,1.3207 -2.9999998,3 0,1.6793 1.3207,3 2.9999998,3 h 5 v 2 h -5 c -2.7526998,0 -4.9999998,-2.2473 -4.9999998,-5 0,-2.7527 2.2473,-5 4.9999998,-5 h 2.605267 v 0 l 0.394733,-0.3628774 z"
     id="path5"
     sodipodi:nodetypes="ccccccccccccccccccccccsssccsssccccc" />
</svg>
