<?xml version="1.0" encoding="UTF-8" standalone="no"?>
<svg
   width="22"
   height="22"
   version="1.1"
   id="svg7"
   sodipodi:docname="edit-clear-history.svg"
   inkscape:version="1.1.2 (0a00cf5339, 2022-02-04)"
   xmlns:inkscape="http://www.inkscape.org/namespaces/inkscape"
   xmlns:sodipodi="http://sodipodi.sourceforge.net/DTD/sodipodi-0.dtd"
   xmlns="http://www.w3.org/2000/svg"
   xmlns:svg="http://www.w3.org/2000/svg">
  <sodipodi:namedview
     id="namedview9"
     pagecolor="#000000"
     bordercolor="#666666"
     borderopacity="1.0"
     inkscape:pageshadow="2"
     inkscape:pageopacity="0"
     inkscape:pagecheckerboard="0"
     showgrid="false"
     inkscape:zoom="150.36364"
     inkscape:cx="4.4824666"
     inkscape:cy="9.8461304"
     inkscape:window-width="1920"
     inkscape:window-height="1051"
     inkscape:window-x="0"
     inkscape:window-y="29"
     inkscape:window-maximized="1"
     inkscape:current-layer="svg7" />
  <defs
     id="defs3">
    <style
       id="current-color-scheme"
       type="text/css">
   .ColorScheme-Text { color:#eeeeec; } .ColorScheme-Highlight { color:#367bf0; } .ColorScheme-NeutralText { color:#ffcc44; } .ColorScheme-PositiveText { color:#3db47e; } .ColorScheme-NegativeText { color:#dd4747; }
  </style>
  </defs>
  <path
     style="fill:currentColor"
     class="ColorScheme-Text"
     d="M 11,3 C 8.5039077,3.00589 6.161095,4.1758658 4.6564156,6.1502768 c -0.073019,0.095813 0.068993,-0.099561 0,0 L 4.2257475,6.2257475 3.6690761,5.6690761 v 0 L 3,6.0173047 v 0 0 2.3855703 l 0.043951,0.2679428 v 0 L 3.2198653,8.9391399 3.4326988,9 V 9 9 H 5.3515625 5.9502172 6.0685858 6.4781544 5.9502172 L 6.1514462,8.925698 6.286383,8.8046989 v 0 L 6.347107,8.6681319 6.305435,8.3054307 v 0 L 6.077912,8.0779124 v 0 C 6.1349715,7.9840688 5.9992813,7.6970416 6.0609393,7.6070869 7.1735109,5.9839213 9.0182211,5.0031464 11,5 c 3.313708,0 6,2.6862915 6,6 0,3.313708 -2.686292,6 -6,6 C 8.4596746,16.9973 6.1963835,15.395044 5.3496094,13 H 3.265625 C 4.1765395,16.527973 7.3563304,18.994719 11,19 15.418278,19 19,15.418278 19,11 19,6.581722 15.418278,3 11,3 Z M 8,8 v 1 c 0,0.276 0.099297,0.53765 0.2792969,0.71875 l 1.0883842,1.088384 v 0 L 9.3384405,11.222106 8.2792969,12.28125 C 8.0992969,12.46225 8,12.7239 8,13 v 1 h 1 c 0.28,0 0.5407031,-0.10025 0.7207031,-0.28125 l 1.0948719,-1.099886 v 0 l 0.413069,0.04442 1.050653,1.055465 C 12.459297,13.89975 12.72,14 13,14 h 1 v -1 c 0,-0.2761 -0.0993,-0.53785 -0.279297,-0.71875 L 12.6204,11.180947 v 0 l 0.03958,-0.40147 1.060727,-1.060727 C 13.900703,9.53765 14,9.276 14,9 V 8 h -1 c -0.28,0 -0.540703,0.10025 -0.720703,0.28125 l -1.02601,1.0244441 v 0 L 10.788075,9.3469926 9.7207031,8.28125 C 9.5407031,8.10025 9.28,8 9,8 Z"
     id="path5"
     sodipodi:nodetypes="cscccccccccccccccccccccccccccscsccccsccscccccscscccccscscccccscscccccsc" />
</svg>
