<?xml version="1.0" encoding="UTF-8" standalone="no"?>
<svg
   width="22"
   height="22"
   version="1.1"
   id="svg9"
   sodipodi:docname="edit-undo-history.svg"
   inkscape:version="1.1.2 (0a00cf5339, 2022-02-04)"
   xmlns:inkscape="http://www.inkscape.org/namespaces/inkscape"
   xmlns:sodipodi="http://sodipodi.sourceforge.net/DTD/sodipodi-0.dtd"
   xmlns="http://www.w3.org/2000/svg"
   xmlns:svg="http://www.w3.org/2000/svg">
  <sodipodi:namedview
     id="namedview11"
     pagecolor="#000000"
     bordercolor="#666666"
     borderopacity="1.0"
     inkscape:pageshadow="2"
     inkscape:pageopacity="0"
     inkscape:pagecheckerboard="0"
     showgrid="false"
     inkscape:zoom="75.545455"
     inkscape:cx="11"
     inkscape:cy="13.098075"
     inkscape:window-width="1920"
     inkscape:window-height="1051"
     inkscape:window-x="0"
     inkscape:window-y="29"
     inkscape:window-maximized="1"
     inkscape:current-layer="g7" />
  <defs
     id="defs3">
    <style
       id="current-color-scheme"
       type="text/css">
   .ColorScheme-Text { color:#eeeeec; } .ColorScheme-Highlight { color:#367bf0; } .ColorScheme-NeutralText { color:#ffcc44; } .ColorScheme-PositiveText { color:#3db47e; } .ColorScheme-NegativeText { color:#dd4747; }
  </style>
  </defs>
  <g
     transform="translate(3,3)"
     id="g7">
    <path
       style="fill:currentColor"
       class="ColorScheme-Text"
       d="M 12.5,9 C 10.567,9 9,10.567 9,12.5 9,14.433 10.567,16 12.5,16 14.433,16 16,14.433 16,12.5 16,10.567 14.433,9 12.5,9 Z M 12,10 h 1 v 1.793922 L 13.257748,12 v 0 H 15 v 1 h -2.745056 v 0 L 12,12.699205 Z M 7,3.0073252 6.1495238,2.5102857 2.6002661,4.6398404 2.7361958,5.4417175 v 0 l 3.5007066,2.100424 v 0 L 7,7.0500096 V 6 h 3 c 1.332,0 2.425,0.8362 2.826,2.0176 0.60608,0.043074 1.195397,0.2082958 1.733132,0.4838385 0.147051,0.075351 -0.138624,-0.091609 0,0 -0.0085,-0.1718244 0.403072,-0.090866 0.377517,-0.2578091 C 14.569898,5.8478134 12.495137,4 10,4 H 7 Z M 5,12 v 2 h 3.1078477 v 0 C 8.0817484,13.927161 8.213409,13.85373 8.1911378,13.779781 8.0662208,13.365012 8.0017277,12.933978 8,12.5 c 5.153e-4,-0.07775 0.00305,-0.155468 0.00759,-0.233062 0.00522,-0.08918 -0.010521,0.08874 0,0 L 7.7953394,12 Z"
       id="path5"
       sodipodi:nodetypes="sssssccccccccccccccccccccscscssccccccscsccc" />
  </g>
</svg>
