<?xml version="1.0" encoding="UTF-8" standalone="no"?>
<svg
   width="22"
   height="22"
   viewBox="0 0 22 22"
   version="1.1"
   id="svg7"
   sodipodi:docname="error.svg"
   inkscape:version="1.1.2 (0a00cf5339, 2022-02-04)"
   xmlns:inkscape="http://www.inkscape.org/namespaces/inkscape"
   xmlns:sodipodi="http://sodipodi.sourceforge.net/DTD/sodipodi-0.dtd"
   xmlns="http://www.w3.org/2000/svg"
   xmlns:svg="http://www.w3.org/2000/svg">
  <sodipodi:namedview
     id="namedview9"
     pagecolor="#000000"
     bordercolor="#666666"
     borderopacity="1.0"
     inkscape:pageshadow="2"
     inkscape:pageopacity="0"
     inkscape:pagecheckerboard="0"
     showgrid="false"
     inkscape:zoom="37.772727"
     inkscape:cx="10.986763"
     inkscape:cy="10.973526"
     inkscape:window-width="1920"
     inkscape:window-height="1051"
     inkscape:window-x="0"
     inkscape:window-y="29"
     inkscape:window-maximized="1"
     inkscape:current-layer="svg7" />
  <defs
     id="defs3">
    <style
       id="current-color-scheme"
       type="text/css">
   .ColorScheme-Text { color:#eeeeec; } .ColorScheme-Highlight { color:#367bf0; } .ColorScheme-NeutralText { color:#ffcc44; } .ColorScheme-PositiveText { color:#3db47e; } .ColorScheme-NegativeText { color:#dd4747; }
  </style>
  </defs>
  <path
     style="fill:currentColor"
     class="ColorScheme-Text"
     d="M 8,1 C 4.137,1 1,4.137 1,8 c 0,3.863 3.137,7 7,7 3.863,0 7,-3.137 7,-7 C 15,4.137 11.863,1 8,1 Z m 0,2 c 0.8972724,0 1.7327202,0.2228402 2.459426,0.6341583 0.09891,0.055984 -0.08185,0.3931244 0.01291,0.4560056 v 0 L 4.1631523,10.399348 3.619029,10.432489 c -0.068578,-0.103352 0.060365,0.108271 0,0 C 3.2173786,9.7120925 3,8.8862086 3,8 3,5.2407 5.2408,3 8,3 Z m 3.823283,2.614217 c 0.08867,0.1336288 0.534782,-0.09272 0.609665,0.049057 C 12.801342,6.3607486 13,7.1528095 13,8 c 0,2.7592 -2.2408,5 -5,5 -0.8551989,0 -1.6542351,-0.202432 -2.3564871,-0.577544 -0.1348348,-0.07202 0.1274113,0.08454 0,0 l -0.032888,-0.595581 z"
     transform="translate(3,3)"
     id="path5"
     sodipodi:nodetypes="sssssssccccssscsssscccc" />
</svg>
