<?xml version="1.0" encoding="UTF-8" standalone="no"?>
<svg
   width="22"
   height="22"
   viewBox="0 0 22 22"
   version="1.1"
   id="svg7"
   sodipodi:docname="exchange-positions-clockwise.svg"
   inkscape:version="1.1.2 (0a00cf5339, 2022-02-04)"
   xmlns:inkscape="http://www.inkscape.org/namespaces/inkscape"
   xmlns:sodipodi="http://sodipodi.sourceforge.net/DTD/sodipodi-0.dtd"
   xmlns="http://www.w3.org/2000/svg"
   xmlns:svg="http://www.w3.org/2000/svg">
  <sodipodi:namedview
     id="namedview9"
     pagecolor="#666666"
     bordercolor="#666666"
     borderopacity="1.0"
     inkscape:pageshadow="2"
     inkscape:pageopacity="0"
     inkscape:pagecheckerboard="0"
     showgrid="false"
     inkscape:zoom="37.772727"
     inkscape:cx="10.986763"
     inkscape:cy="10.973526"
     inkscape:window-width="1920"
     inkscape:window-height="1051"
     inkscape:window-x="0"
     inkscape:window-y="29"
     inkscape:window-maximized="1"
     inkscape:current-layer="svg7" />
  <defs
     id="defs3">
    <style
       id="current-color-scheme"
       type="text/css">
   .ColorScheme-Text { color:#eeeeec; } .ColorScheme-Highlight { color:#367bf0; } .ColorScheme-NeutralText { color:#ffcc44; } .ColorScheme-PositiveText { color:#3db47e; } .ColorScheme-NegativeText { color:#dd4747; }
  </style>
  </defs>
  <path
     style="fill:currentColor"
     class="ColorScheme-Text"
     d="M 0,0 V 7 H 8 V 0 Z M 9,1.078125 V 5 h 1 v -2.2095546 0 C 10.185486,2.8560243 10.366218,2.4951238 10.541821,2.5771681 12.631724,3.5535994 13.995203,5.6586326 14,8 h 1 C 14.997,4.5227 12.4416,1.574925 9,1.078125 Z M 1,8 c 0.003,3.4773 2.5584,6.425075 6,6.921875 V 11 H 6 v 2.073772 l -0.5184221,0.359931 c -0.1772577,-0.06267 0.1682479,0.07773 0,0 C 3.3784587,12.462089 2.0048148,10.350094 2,8 Z M 12.5,9 C 10.567003,9 9,10.567003 9,12.5 c 0.00112,0.755068 0.246401,1.489527 0.6992188,2.09375 l 0.7167972,-0.716797 c -0.270492,-0.405667 -0.4164553,-0.881576 -0.4199222,-1.369141 0,-1.380712 1.1192882,-2.5 2.5000002,-2.5 0.489828,7.83e-4 0.968635,0.145444 1.376953,0.416016 L 14.589844,9.7070312 C 13.984261,9.2523155 13.24753,9.0062818 12.490234,9.0058594 Z m 2.804688,1.398438 -0.0039,0.0078 -0.716797,0.716797 c 0.270491,0.405667 0.416455,0.881576 0.419922,1.369141 0,1.380712 -1.119288,2.5 -2.5,2.5 -0.489828,-7.83e-4 -0.968635,-0.145444 -1.376953,-0.416016 l -0.716797,0.716797 c 0.604223,0.452818 1.338682,0.698094 2.09375,0.699219 1.932997,0 3.5,-1.567003 3.5,-3.5 -0.0011,-0.755068 -0.246401,-1.489527 -0.699218,-2.09375 z"
     transform="translate(3,3)"
     id="path5"
     sodipodi:nodetypes="ccccccccccscccccccccscccccccccccccccccccccc" />
</svg>
