<?xml version="1.0" encoding="UTF-8" standalone="no"?>
<svg
   width="22"
   height="22"
   viewBox="0 0 22 22"
   version="1.1"
   id="svg7"
   sodipodi:docname="favorite-genres-amarok.svg"
   inkscape:version="1.1.2 (0a00cf5339, 2022-02-04)"
   xmlns:inkscape="http://www.inkscape.org/namespaces/inkscape"
   xmlns:sodipodi="http://sodipodi.sourceforge.net/DTD/sodipodi-0.dtd"
   xmlns="http://www.w3.org/2000/svg"
   xmlns:svg="http://www.w3.org/2000/svg">
  <sodipodi:namedview
     id="namedview9"
     pagecolor="#000000"
     bordercolor="#666666"
     borderopacity="1.0"
     inkscape:pageshadow="2"
     inkscape:pageopacity="0"
     inkscape:pagecheckerboard="0"
     showgrid="false"
     inkscape:zoom="37.772727"
     inkscape:cx="10.986763"
     inkscape:cy="10.973526"
     inkscape:window-width="1920"
     inkscape:window-height="1051"
     inkscape:window-x="0"
     inkscape:window-y="29"
     inkscape:window-maximized="1"
     inkscape:current-layer="svg7" />
  <defs
     id="defs3">
    <style
       id="current-color-scheme"
       type="text/css">
   .ColorScheme-Text { color:#eeeeec; } .ColorScheme-Highlight { color:#367bf0; } .ColorScheme-NeutralText { color:#ffcc44; } .ColorScheme-PositiveText { color:#3db47e; } .ColorScheme-NegativeText { color:#dd4747; }
  </style>
  </defs>
  <path
     style="fill:currentColor"
     class="ColorScheme-Text"
     d="M 8,1 C 6.3708,1 4.8726,1.3839 3.7793,2.1621 2.686,2.9403 1.9986,4.1201 2,5.6875 c 0.007,1.7713 1.0562,4.0562 2.3223,5.9235 0.633,0.934 1.3213,1.763 1.9648,2.368 0.6435,0.604 1.2374,0.989 1.707,1.021 H 8.0059 C 8.4755,14.967 9.0694,14.583 9.7129,13.979 10.356,13.374 11.045,12.545 11.678,11.611 12.944,9.7437 13.992,7.4588 14,5.6875 14.001,4.1201 13.314,2.9403 12.221,2.1621 11.127,1.3839 9.6292,1 8,1 Z m 0.3387042,2.6920049 v 0 L 9.2402,5.6348 l 1.763342,0.2745519 0.308914,0.8540158 v 0 L 9.9902,8.1074 l 0.30862,1.962872 v 0 L 9.5570451,10.504992 7.9785,9.625 6.3611658,10.511809 v 0 L 5.6613911,10.032444 5.9902,8.0938 4.6140863,6.6730881 v 0 L 4.9525189,5.8965801 6.7676,5.625 7.7185658,3.6279719 Z"
     transform="translate(3,3)"
     id="path5"
     sodipodi:nodetypes="sscccccccccsccccccccccccccccccccc" />
</svg>
