<?xml version="1.0" encoding="UTF-8" standalone="no"?>
<svg
   width="22"
   height="22"
   version="1.1"
   id="svg9"
   sodipodi:docname="fcitx-rime-deploy.svg"
   inkscape:version="1.1.2 (0a00cf5339, 2022-02-04)"
   xmlns:inkscape="http://www.inkscape.org/namespaces/inkscape"
   xmlns:sodipodi="http://sodipodi.sourceforge.net/DTD/sodipodi-0.dtd"
   xmlns="http://www.w3.org/2000/svg"
   xmlns:svg="http://www.w3.org/2000/svg">
  <sodipodi:namedview
     id="namedview11"
     pagecolor="#000000"
     bordercolor="#666666"
     borderopacity="1.0"
     inkscape:pageshadow="2"
     inkscape:pageopacity="0"
     inkscape:pagecheckerboard="0"
     showgrid="false"
     inkscape:zoom="37.772727"
     inkscape:cx="10.986763"
     inkscape:cy="10.973526"
     inkscape:window-width="1920"
     inkscape:window-height="1051"
     inkscape:window-x="0"
     inkscape:window-y="29"
     inkscape:window-maximized="1"
     inkscape:current-layer="g7" />
  <defs
     id="defs3">
    <style
       id="current-color-scheme"
       type="text/css">
   .ColorScheme-Text { color:#eeeeec; } .ColorScheme-Highlight { color:#367bf0; } .ColorScheme-NeutralText { color:#ffcc44; } .ColorScheme-PositiveText { color:#3db47e; } .ColorScheme-NegativeText { color:#dd4747; }
  </style>
  </defs>
  <g
     transform="matrix(1,0,0,1,3,3)"
     id="g7">
    <path
       class="ColorScheme-Text"
       d="M 8,0 C 3.5817,0 0,3.5817 0,8 c 0,4.418 3.5817,8 8,8 4.418,0 8,-3.582 8,-8 C 16,3.5817 12.418,0 8,0 Z M 7.6194006,2.4129337 v 0 l 1.9067498,1.2711666 -0.066918,0.6764111 v 0 L 7.6224744,5.5850171 v 0 L 7,5.463236 V 5.1738 C 5.8021,5.5973 5.001,6.7295 5,8 5.0012,9.0283 5.529,9.9843 6.3984,10.533 L 5.4453,11.168 C 5.1516,11.364 5.005,11.677 5.002,11.99 3.7449,11.048 3.0035,9.5707 3,8 3.0003,5.6242 4.6722,3.5767 7,3.1016 V 2.5541844 Z M 10.998,4.0098 C 12.255,4.9516 12.996,6.4293 13,8 c 0,2.376 -1.672,4.423 -4,4.898 v 0.56734 0 L 8.4637257,13.642484 6.5757572,12.383838 v 0 L 6.5858788,11.609414 8.5254291,10.316381 9,10.410782 v 0 V 10.826 C 10.198,10.403 10.999,9.2705 11,8 10.999,6.9717 10.471,6.0157 9.6016,5.4668 L 10.555,4.832 c 0.293,-0.1958 0.44,-0.5085 0.443,-0.8222 z"
       style="fill:currentColor"
       id="path5"
       sodipodi:nodetypes="ssssscccccccccccccccccccccccccccccccccc" />
  </g>
</svg>
