<?xml version="1.0" encoding="UTF-8" standalone="no"?>
<svg
   width="22"
   height="22"
   viewBox="0 0 22 22"
   version="1.1"
   id="svg16"
   sodipodi:docname="outbox.svg"
   inkscape:version="1.2 (dc2aedaf03, 2022-05-15)"
   xmlns:inkscape="http://www.inkscape.org/namespaces/inkscape"
   xmlns:sodipodi="http://sodipodi.sourceforge.net/DTD/sodipodi-0.dtd"
   xmlns="http://www.w3.org/2000/svg"
   xmlns:svg="http://www.w3.org/2000/svg">
  <sodipodi:namedview
     id="namedview18"
     pagecolor="#505050"
     bordercolor="#ffffff"
     borderopacity="1"
     inkscape:showpageshadow="0"
     inkscape:pageopacity="0"
     inkscape:pagecheckerboard="1"
     inkscape:deskcolor="#505050"
     showgrid="false"
     inkscape:zoom="39.863636"
     inkscape:cx="11"
     inkscape:cy="11"
     inkscape:window-width="1489"
     inkscape:window-height="1080"
     inkscape:window-x="214"
     inkscape:window-y="-1"
     inkscape:window-maximized="1"
     inkscape:current-layer="svg16" />
  <defs
     id="defs12">
    <style
       id="current-color-scheme"
       type="text/css">
   .ColorScheme-Text { color:#eeeeec; } .ColorScheme-Highlight { color:#367bf0; } .ColorScheme-NeutralText { color:#ffcc44; } .ColorScheme-PositiveText { color:#3db47e; } .ColorScheme-NegativeText { color:#dd4747; }
  </style>
  </defs>
  <path
     style="fill:currentColor"
     class="ColorScheme-Text"
     d="M 1.9980469,0.99414062 2,1 C 0.9688,1.0625 1,2 1,2 v 12 c 0,0 -0.0312,0.9375 1,1 h 12 c 1,0 1,-1 1,-1 V 2 C 15,2 15,1 14,1 H 8.9205454 L 8.7297977,1.050171 8.78125,1.375 10.09375,3 H 13 v 7 H 10 C 10,11.108 9.108,12 8,12 6.892,12 6,11.108 6,10 H 3 V 3 H 5.90625 L 7.21875,1.375 7.2866576,1.094067 7.0448012,0.99414062 Z M 8,2.4820235 7.6060071,2.4924911 4.6065884,6.2417645 4.801599,6.7031253 4.9993944,7 H 6 v 2 h 4 V 7 h 1.15131 l 0.178507,-0.2953918 0.08303,-0.438555 -2.9355571,-3.6694459 z"
     transform="translate(3,3)"
     id="path14"
     sodipodi:nodetypes="cccccsccscccccccscccccccccccccccccccccc" />
</svg>
