<?xml version="1.0" encoding="UTF-8" standalone="no"?>
<svg
   width="20"
   height="20"
   version="1.1"
   id="svg9"
   sodipodi:docname="paint-none.svg"
   inkscape:version="1.1.2 (0a00cf5339, 2022-02-04)"
   xmlns:inkscape="http://www.inkscape.org/namespaces/inkscape"
   xmlns:sodipodi="http://sodipodi.sourceforge.net/DTD/sodipodi-0.dtd"
   xmlns="http://www.w3.org/2000/svg"
   xmlns:svg="http://www.w3.org/2000/svg">
  <sodipodi:namedview
     id="namedview11"
     pagecolor="#6b6b6b"
     bordercolor="#666666"
     borderopacity="1.0"
     inkscape:pageshadow="2"
     inkscape:pageopacity="0"
     inkscape:pagecheckerboard="0"
     showgrid="false"
     inkscape:zoom="37.95"
     inkscape:cx="10"
     inkscape:cy="10"
     inkscape:window-width="1904"
     inkscape:window-height="928"
     inkscape:window-x="0"
     inkscape:window-y="35"
     inkscape:window-maximized="1"
     inkscape:current-layer="g7" />
  <defs
     id="defs3">
    <style
       id="current-color-scheme"
       type="text/css">
   .ColorScheme-Text { color:#eeeeec; } .ColorScheme-Highlight { color:#367bf0; } .ColorScheme-NeutralText { color:#ffcc44; } .ColorScheme-PositiveText { color:#3db47e; } .ColorScheme-NegativeText { color:#dd4747; }
  </style>
  </defs>
  <g
     transform="translate(2,2)"
     id="g7">
    <path
       style="fill:currentColor"
       class="ColorScheme-Text"
       d="m 3.223,4.223 3.5578997,3.5578997 v 0 L 6.6962297,8.3037703 3.223,11.777 c 0,0 -0.501,0.501 -10e-4,1.001 0.5,0.5 1.0007,-0.001 1.0007,-0.001 L 7.8146507,9.1853346 v 0 L 8.2173601,9.2173601 11.777,12.777 c 0,0 0.501,0.501 1.001,0.001 0.5,-0.5 -0.001,-1.001 -0.001,-1.001 L 9.3096261,8.3096261 v 0 L 9.1716158,7.8283751 12.777,4.2228 c 0,0 0.501,-0.5008 0.001,-1.0008 -0.5,-0.5 -1.001,8e-4 -1.001,8e-4 L 8.171494,6.8284969 v 0 L 7.7810585,6.7810585 4.222,3.222 c 7e-4,8e-4 -0.5,-0.5 -1,0 -0.5,0.5 10e-4,1.001 10e-4,1.001 z"
       id="path5"
       sodipodi:nodetypes="cccccscccccscccccscccccsc" />
  </g>
</svg>
