<?xml version="1.0" encoding="UTF-8" standalone="no"?>
<svg
   width="22"
   height="22"
   version="1.1"
   id="svg11"
   sodipodi:docname="path-outset.svg"
   inkscape:version="1.1.2 (0a00cf5339, 2022-02-04)"
   xmlns:inkscape="http://www.inkscape.org/namespaces/inkscape"
   xmlns:sodipodi="http://sodipodi.sourceforge.net/DTD/sodipodi-0.dtd"
   xmlns="http://www.w3.org/2000/svg"
   xmlns:svg="http://www.w3.org/2000/svg">
  <sodipodi:namedview
     id="namedview13"
     pagecolor="#ffffff"
     bordercolor="#666666"
     borderopacity="1.0"
     inkscape:pageshadow="2"
     inkscape:pageopacity="0.0"
     inkscape:pagecheckerboard="0"
     showgrid="false"
     inkscape:zoom="34.5"
     inkscape:cx="11"
     inkscape:cy="11"
     inkscape:window-width="1904"
     inkscape:window-height="928"
     inkscape:window-x="0"
     inkscape:window-y="35"
     inkscape:window-maximized="1"
     inkscape:current-layer="g9" />
  <defs
     id="defs3">
    <style
       id="current-color-scheme"
       type="text/css">
   .ColorScheme-Text { color:#eeeeec; } .ColorScheme-Highlight { color:#367bf0; } .ColorScheme-NeutralText { color:#ffcc44; } .ColorScheme-PositiveText { color:#3db47e; } .ColorScheme-NegativeText { color:#dd4747; }
  </style>
  </defs>
  <g
     transform="translate(3,3)"
     id="g9">
    <path
       style="opacity:.35;fill:currentColor"
       class="ColorScheme-Text"
       d="M 0,9 V 11 C 2.77,11 5,13.23 5,16 H 7 C 7,12.122 3.878,9 0,9 Z"
       id="path5" />
    <path
       style="fill:currentColor"
       class="ColorScheme-Text"
       d="m 0,0 v 2 c 7.756,0 14,6.244 14,14 h 2 C 16,7.136 8.864,0 0,0 Z M 8.5945178,7.4929827 9,7.9341563 c -2.564e-4,1.3959386 -0.049938,2.9910227 -0.026034,4.2896157 0.00503,0.27343 -0.5022214,0.01816 -0.4895153,0.260678 v 0 L 3.6733053,7.6733053 v 0 L 4.0492315,7 h 4.1453999 z"
       id="path7"
       sodipodi:nodetypes="cccccccsccccccc" />
  </g>
</svg>
