<?xml version="1.0" encoding="UTF-8" standalone="no"?>
<svg
   width="22"
   height="22"
   version="1.1"
   id="svg11"
   sodipodi:docname="path-clip-edit.svg"
   inkscape:version="1.1.2 (0a00cf5339, 2022-02-04)"
   xmlns:inkscape="http://www.inkscape.org/namespaces/inkscape"
   xmlns:sodipodi="http://sodipodi.sourceforge.net/DTD/sodipodi-0.dtd"
   xmlns="http://www.w3.org/2000/svg"
   xmlns:svg="http://www.w3.org/2000/svg">
  <sodipodi:namedview
     id="namedview13"
     pagecolor="#000000"
     bordercolor="#666666"
     borderopacity="1.0"
     inkscape:pageshadow="2"
     inkscape:pageopacity="0"
     inkscape:pagecheckerboard="0"
     showgrid="false"
     inkscape:zoom="256"
     inkscape:cx="10.998047"
     inkscape:cy="9.6152344"
     inkscape:window-width="1904"
     inkscape:window-height="928"
     inkscape:window-x="0"
     inkscape:window-y="35"
     inkscape:window-maximized="1"
     inkscape:current-layer="g9" />
  <defs
     id="defs3">
    <style
       id="current-color-scheme"
       type="text/css">
   .ColorScheme-Text { color:#eeeeec; } .ColorScheme-Highlight { color:#367bf0; } .ColorScheme-NeutralText { color:#ffcc44; } .ColorScheme-PositiveText { color:#3db47e; } .ColorScheme-NegativeText { color:#dd4747; }
  </style>
  </defs>
  <g
     transform="translate(3,3)"
     id="g9">
    <path
       style="fill:currentColor"
       class="ColorScheme-Text"
       d="M 14,2 C 8.5,2 2,7.5 2,14 v 1 H 3 V 14 C 3,11.438896 4.1166312,9.1387007 5.7709137,7.2943379 5.8061035,7.2551048 5.946948,7.3215571 5.9826187,7.2827384 5.999989,7.2638351 5.9120042,7.139502 5.9294866,7.1206978 6.4408384,6.5706803 6.9998653,6.0630742 7.5904636,5.6033011 c 0.039867,-0.031036 0.1346375,-0.00712 0.1747876,-0.037723 0.011986,-0.00913 0.081146,0.033645 0.090754,0.019654 C 7.8722855,5.5615239 7.8270893,5.4771146 7.8390307,5.4445403 7.8797141,5.3335614 7.9043051,5.1896651 7.9747487,5.139158 9.8451901,3.7980788 12.002403,3 14,3 h 1 V 2 Z M 6.373,6.3193 5.666,7.0264 C 7.117,8.4775 7.9276,10.168 8.1523,11.404 8.3771,12.64 8.063,13.689 7.166,14.586 l 0.707,0.707 C 8.9763,14.19 9.412,12.741 9.1367,11.227 8.8614,9.7126 7.9222,7.8686 6.373,6.3193 Z m 1,-1.2333 -0.707,0.7071 C 8.2153,7.3423 9.7906,8.2815 11.305,8.5567 12.819,8.832 14.27,8.3963 15.373,7.2931 L 14.666,6.586 C 13.769,7.483 12.72,7.7971 11.484,7.5724 10.395594,7.374444 9.1614847,6.722239 7.891403,5.5785021 7.7191723,5.4234045 7.5462801,5.2592681 7.373,5.086 Z"
       id="path5"
       sodipodi:nodetypes="ssccssssssssssccscccccccccccccsc" />
    <path
       style="fill:currentColor"
       class="ColorScheme-Text"
       d="M 4,14.5 A 1.5,1.5 0 0 1 2.5,16 1.5,1.5 0 0 1 1,14.5 1.5,1.5 0 0 1 2.5,13 1.5,1.5 0 0 1 4,14.5 Z M 16,2.5 A 1.5,1.5 0 0 1 14.5,4 1.5,1.5 0 0 1 13,2.5 1.5,1.5 0 0 1 14.5,1 1.5,1.5 0 0 1 16,2.5 Z"
       id="path7" />
  </g>
</svg>
