<?xml version="1.0" encoding="UTF-8" standalone="no"?>
<svg
   width="22"
   height="22"
   version="1.1"
   id="svg11"
   sodipodi:docname="path-reverse.svg"
   inkscape:version="1.1.2 (0a00cf5339, 2022-02-04)"
   xmlns:inkscape="http://www.inkscape.org/namespaces/inkscape"
   xmlns:sodipodi="http://sodipodi.sourceforge.net/DTD/sodipodi-0.dtd"
   xmlns="http://www.w3.org/2000/svg"
   xmlns:svg="http://www.w3.org/2000/svg">
  <sodipodi:namedview
     id="namedview13"
     pagecolor="#ffffff"
     bordercolor="#666666"
     borderopacity="1.0"
     inkscape:pageshadow="2"
     inkscape:pageopacity="0.0"
     inkscape:pagecheckerboard="0"
     showgrid="false"
     inkscape:zoom="34.5"
     inkscape:cx="11"
     inkscape:cy="11"
     inkscape:window-width="1904"
     inkscape:window-height="928"
     inkscape:window-x="0"
     inkscape:window-y="35"
     inkscape:window-maximized="1"
     inkscape:current-layer="g9" />
  <defs
     id="defs3">
    <style
       id="current-color-scheme"
       type="text/css">
   .ColorScheme-Text { color:#eeeeec; } .ColorScheme-Highlight { color:#367bf0; } .ColorScheme-NeutralText { color:#ffcc44; } .ColorScheme-PositiveText { color:#3db47e; } .ColorScheme-NegativeText { color:#dd4747; }
  </style>
  </defs>
  <g
     transform="translate(3,3)"
     id="g9">
    <path
       style="fill:currentColor"
       class="ColorScheme-Text"
       d="M 14,1.5 V 3 C 14,8 9,8 9,8 H 6 C 6,8 0,8 0,14 V 15.5 C 0,15.5 0,16 0.5,16 1,16 1,15.5 1,15.5 V 14 C 1,9 6,9 6,9 H 9 C 9,9 15,9 15,3 V 1.5 C 15,1.5 15,1 14.5,1 14,1 14,1.5 14,1.5 Z"
       id="path5" />
    <path
       style="fill:currentColor"
       class="ColorScheme-Text"
       d="M 12,11.875808 11.295124,11.440547 8.6508796,13.0932 v 0 l 0.00937,0.819456 L 11.3026,15.564125 12,15.209393 v 0 V 14 h 3 V 13 H 12 Z M 3,1.7022068 v 0 V 3 H 0 v 1 h 3 v 1.3254943 l 0.5470056,0.3326272 v 0 l 2.89208,-1.80755 0.01245,-0.6933615 v 0 L 3.7555191,1.4721995 Z M 5,6 h 5 v 5 H 5 Z"
       id="path7"
       sodipodi:nodetypes="ccccccccccccccccccccccccccccccccc" />
  </g>
</svg>
