<?xml version="1.0" encoding="UTF-8" standalone="no"?>
<svg
   width="22"
   height="22"
   version="1.1"
   id="svg7"
   sodipodi:docname="pin.svg"
   inkscape:version="1.1.2 (0a00cf5339, 2022-02-04)"
   xmlns:inkscape="http://www.inkscape.org/namespaces/inkscape"
   xmlns:sodipodi="http://sodipodi.sourceforge.net/DTD/sodipodi-0.dtd"
   xmlns="http://www.w3.org/2000/svg"
   xmlns:svg="http://www.w3.org/2000/svg">
  <sodipodi:namedview
     id="namedview9"
     pagecolor="#ffffff"
     bordercolor="#666666"
     borderopacity="1.0"
     inkscape:pageshadow="2"
     inkscape:pageopacity="0.0"
     inkscape:pagecheckerboard="0"
     showgrid="false"
     inkscape:zoom="34.5"
     inkscape:cx="11"
     inkscape:cy="11"
     inkscape:window-width="1904"
     inkscape:window-height="928"
     inkscape:window-x="0"
     inkscape:window-y="35"
     inkscape:window-maximized="1"
     inkscape:current-layer="svg7" />
  <defs
     id="defs3">
    <style
       id="current-color-scheme"
       type="text/css">
   .ColorScheme-Text { color:#eeeeec; } .ColorScheme-Highlight { color:#367bf0; } .ColorScheme-NeutralText { color:#ffcc44; } .ColorScheme-PositiveText { color:#3db47e; } .ColorScheme-NegativeText { color:#dd4747; }
  </style>
  </defs>
  <path
     style="fill:currentColor"
     class="ColorScheme-Text"
     d="m 7.0214838,3.0000501 c -1.3451066,-0.019125 -1.3451066,2.0191252 0,2 h 0.978516 v 2.9999998 c 0,1.1685168 -1.3128849,1.8291344 -2.5167734,1.9709525 -0.1643108,0.019356 0.1566351,0 0,0 L 5,10.383409 v 1.616641 h 4.9999999 v 6 l 0.6215651,0.636483 0.703779,0.02272 v 0 L 12,18.00005 v -6 h 5 V 10.325203 L 16.676327,9.98688 c -0.105369,0 0.110017,0.00878 0,0 C 15.424519,9.8870176 13.948755,9.2196889 14,8.0000499 V 5.0000501 h 0.978516 c 1.345107,0.019125 1.345107,-2.0191252 0,-2 z"
     id="path5"
     sodipodi:nodetypes="cccsscccccccccccccsccccc" />
</svg>
