<?xml version="1.0" encoding="UTF-8" standalone="no"?>
<svg
   width="22"
   height="22"
   viewBox="0 0 22 22"
   version="1.1"
   id="svg7"
   sodipodi:docname="poedit-sync.svg"
   inkscape:version="1.1.2 (0a00cf5339, 2022-02-04)"
   xmlns:inkscape="http://www.inkscape.org/namespaces/inkscape"
   xmlns:sodipodi="http://sodipodi.sourceforge.net/DTD/sodipodi-0.dtd"
   xmlns="http://www.w3.org/2000/svg"
   xmlns:svg="http://www.w3.org/2000/svg">
  <sodipodi:namedview
     id="namedview9"
     pagecolor="#ffffff"
     bordercolor="#666666"
     borderopacity="1.0"
     inkscape:pageshadow="2"
     inkscape:pageopacity="0.0"
     inkscape:pagecheckerboard="0"
     showgrid="false"
     inkscape:zoom="34.5"
     inkscape:cx="11"
     inkscape:cy="11"
     inkscape:window-width="1904"
     inkscape:window-height="928"
     inkscape:window-x="0"
     inkscape:window-y="35"
     inkscape:window-maximized="1"
     inkscape:current-layer="svg7" />
  <defs
     id="defs3">
    <style
       id="current-color-scheme"
       type="text/css">
   .ColorScheme-Text { color:#eeeeec; } .ColorScheme-Highlight { color:#367bf0; } .ColorScheme-NeutralText { color:#ffcc44; } .ColorScheme-PositiveText { color:#3db47e; } .ColorScheme-NegativeText { color:#dd4747; }
  </style>
  </defs>
  <path
     style="fill:currentColor"
     class="ColorScheme-Text"
     d="M 0,0 V 7 H 8 V 0 Z M 9,1.078125 V 5 h 1 V 2.7459363 l 0.363206,-0.2487005 c 0.123202,0.043558 -0.118898,-0.050901 0,0 C 12.553704,3.435004 13.995068,5.5925728 14,8 h 1 C 14.997,4.5227 12.4416,1.574925 9,1.078125 Z M 1,8 c 0.003,3.4773 2.5584,6.425075 6,6.921875 V 11 H 6 v 2.151479 0 C 5.8333802,13.09257 5.6705962,13.519857 5.5119199,13.447618 3.3916802,12.482363 2.0048379,10.361377 2,8 Z m 7,1 v 7 h 8 V 9 Z"
     transform="translate(3,3)"
     id="path5"
     sodipodi:nodetypes="ccccccccccscccccccccsccccccc" />
</svg>
