<?xml version="1.0" encoding="UTF-8" standalone="no"?>
<svg
   width="22"
   height="22"
   viewBox="0 0 22 22"
   version="1.1"
   id="svg7"
   sodipodi:docname="preferences-activities.svg"
   inkscape:version="1.1.2 (0a00cf5339, 2022-02-04)"
   xmlns:inkscape="http://www.inkscape.org/namespaces/inkscape"
   xmlns:sodipodi="http://sodipodi.sourceforge.net/DTD/sodipodi-0.dtd"
   xmlns="http://www.w3.org/2000/svg"
   xmlns:svg="http://www.w3.org/2000/svg">
  <sodipodi:namedview
     id="namedview9"
     pagecolor="#ffffff"
     bordercolor="#666666"
     borderopacity="1.0"
     inkscape:pageshadow="2"
     inkscape:pageopacity="0.0"
     inkscape:pagecheckerboard="0"
     showgrid="false"
     inkscape:zoom="34.5"
     inkscape:cx="11"
     inkscape:cy="11"
     inkscape:window-width="1904"
     inkscape:window-height="928"
     inkscape:window-x="0"
     inkscape:window-y="35"
     inkscape:window-maximized="1"
     inkscape:current-layer="svg7" />
  <defs
     id="defs3">
    <style
       id="current-color-scheme"
       type="text/css">
   .ColorScheme-Text { color:#eeeeec; } .ColorScheme-Highlight { color:#367bf0; } .ColorScheme-NeutralText { color:#ffcc44; } .ColorScheme-PositiveText { color:#3db47e; } .ColorScheme-NegativeText { color:#dd4747; }
  </style>
  </defs>
  <path
     style="fill:currentColor"
     class="ColorScheme-Text"
     d="M 8,4 C 5.790861,4 4,5.790861 4,8 c 0,2.209139 1.790861,4 4,4 2.209139,0 4,-1.790861 4,-4 C 12,5.790861 10.209139,4 8,4 Z M 3.4104969,5.0578954 c -0.2017743,0 0.1906082,-0.037977 0,0 C 2.0358975,5.3317742 1,6.5448743 1,8 1,9.4758275 2.0655821,10.702694 3.4693689,10.953222 3.6416026,10.983959 3.8189275,11 4,11 L 3.4693689,10.953222 C 3.3649933,10.815496 3.8251755,10.717352 3.7346169,10.569665 3.2735409,9.8177202 3,8.9422378 3,8 3,7.0842083 3.2585055,6.232749 3.6964366,5.495828 c 0.1016214,-0.1710016 -0.1199561,0.1580392 0,0 z m 8.7934921,0.2799811 c -0.01042,5.967e-4 0.235238,0.3359235 0,0 0.0826,0.1088262 -0.07411,-0.1150549 0,0 C 12.701372,6.1100539 13,7.0179292 13,8 c 0,0.9362855 -0.271264,1.8066681 -0.727517,2.555305 -0.09313,0.152811 -0.193968,0.30055 -0.30178,0.442742 l 0.30178,-0.442742 c 0.236544,0 0.194211,0.417321 0.414969,0.365567 C 14.013017,10.610113 15,9.4203554 15,8 15,6.5226492 13.932217,5.2947737 12.526283,5.0460057 12.355413,5.0157718 12.383538,5.3378765 12.203989,5.3378765 Z"
     transform="translate(3,3)"
     id="path5"
     sodipodi:nodetypes="ssssscsssccsssccccsssccsssc" />
</svg>
