<?xml version="1.0" encoding="UTF-8" standalone="no"?>
<svg
   width="22"
   height="22"
   version="1.1"
   id="svg9"
   sodipodi:docname="preview-add-zone.svg"
   inkscape:version="1.1.2 (0a00cf5339, 2022-02-04)"
   xmlns:inkscape="http://www.inkscape.org/namespaces/inkscape"
   xmlns:sodipodi="http://sodipodi.sourceforge.net/DTD/sodipodi-0.dtd"
   xmlns="http://www.w3.org/2000/svg"
   xmlns:svg="http://www.w3.org/2000/svg">
  <sodipodi:namedview
     id="namedview11"
     pagecolor="#000000"
     bordercolor="#666666"
     borderopacity="1.0"
     inkscape:pageshadow="2"
     inkscape:pageopacity="0"
     inkscape:pagecheckerboard="0"
     showgrid="false"
     inkscape:zoom="34.5"
     inkscape:cx="11"
     inkscape:cy="17.956522"
     inkscape:window-width="1904"
     inkscape:window-height="928"
     inkscape:window-x="0"
     inkscape:window-y="35"
     inkscape:window-maximized="1"
     inkscape:current-layer="svg9" />
  <defs
     id="defs3">
    <style
       id="current-color-scheme"
       type="text/css">
   .ColorScheme-Text { color:#eeeeec; } .ColorScheme-Highlight { color:#367bf0; } .ColorScheme-NeutralText { color:#ffcc44; } .ColorScheme-PositiveText { color:#3db47e; } .ColorScheme-NegativeText { color:#dd4747; }
  </style>
  </defs>
  <path
     style="opacity:0.35;fill:currentColor"
     class="ColorScheme-Text"
     d="M 9,3 V 9 H 7 V 4 H 5 V 9 H 3 v 4 H 19 V 9 5 H 17 V 9 H 15 V 6 H 13 V 9 H 11 V 3 Z M 3,14 v 5 H 4 V 16.5 14 Z m 1.4311737,2.859311 v 0 L 5.5,17.75 6.4521787,18.543482 v 0 L 7,18.325454 7,16.5 V 14.673505 L 6.5041467,14.413211 v 0 L 5.5,15.25 4.4343589,16.138034 Z M 15,14.64431 v 0 1.85569 1.825454 l 0.583361,0.188412 v 0 L 16.5,17.75 17.613101,16.822416 v 0 L 17.5784,16.148666 16.5,15.25 15.585259,14.487716 Z M 18.057564,20.238816 18,19 h 1 v -5 h -1 z"
     id="path5"
     sodipodi:nodetypes="cccccccccccccccccccccccccccccccccccccccccccccccccccccccccc" />
  <path
     style="fill:currentColor"
     class="ColorScheme-Text"
     d="M 10 14 L 10 16 L 8 16 L 8 18 L 10 18 L 10 20 L 12 20 L 12 18 L 14 18 L 14 16 L 12 16 L 12 14 L 10 14 z"
     id="path7" />
</svg>
