<?xml version="1.0" encoding="UTF-8" standalone="no"?>
<svg
   width="22"
   height="22"
   version="1.1"
   id="svg9"
   sodipodi:docname="preview-remove-zone.svg"
   inkscape:version="1.1.2 (0a00cf5339, 2022-02-04)"
   xmlns:inkscape="http://www.inkscape.org/namespaces/inkscape"
   xmlns:sodipodi="http://sodipodi.sourceforge.net/DTD/sodipodi-0.dtd"
   xmlns="http://www.w3.org/2000/svg"
   xmlns:svg="http://www.w3.org/2000/svg">
  <sodipodi:namedview
     id="namedview11"
     pagecolor="#212121"
     bordercolor="#666666"
     borderopacity="1.0"
     inkscape:pageshadow="2"
     inkscape:pageopacity="0"
     inkscape:pagecheckerboard="0"
     showgrid="false"
     inkscape:zoom="48.790368"
     inkscape:cx="10.996023"
     inkscape:cy="15.915027"
     inkscape:window-width="1904"
     inkscape:window-height="928"
     inkscape:window-x="0"
     inkscape:window-y="35"
     inkscape:window-maximized="1"
     inkscape:current-layer="svg9" />
  <defs
     id="defs3">
    <style
       id="current-color-scheme"
       type="text/css">
   .ColorScheme-Text { color:#eeeeec; } .ColorScheme-Highlight { color:#367bf0; } .ColorScheme-NeutralText { color:#ffcc44; } .ColorScheme-PositiveText { color:#3db47e; } .ColorScheme-NegativeText { color:#dd4747; }
  </style>
  </defs>
  <path
     style="opacity:0.35;fill:currentColor"
     class="ColorScheme-Text"
     d="M 9,3 V 9 H 7 V 4 H 5 V 9 H 3 v 4 H 19 V 9 5 H 17 V 9 H 15 V 6 H 13 V 9 H 11 V 3 Z M 3,14 v 5 H 4 V 16.5 14 Z m 1.286965,2.260863 -0.03439,0.449616 L 5.5,17.75 6.65333,18.711108 v 0 L 7,18.51221 7,16.5 v -1.984116 l -0.3845089,-0.19546 v 0 L 5.5,15.25 Z M 15,14.536151 v 0 V 16.5 18.51221 l 0.413459,0.14324 v 0 L 16.5,17.75 17.663027,16.780811 v 0 L 17.620723,16.183936 16.5,15.25 15.4331,14.360916 Z M 18.020353,19.697186 18,19 h 1 v -5 h -1 z"
     id="path5"
     sodipodi:nodetypes="cccccccccccccccccccccccccccccccccccccccccccccccccccccccccc" />
  <path
     style="fill:currentColor"
     class="ColorScheme-NegativeText"
     d="m 8,14 v 1.414063 L 9.585937,17 8,18.585938 V 20 H 9.414062 L 11,18.414062 12.585938,20 H 14 V 18.585938 L 12.414062,17 14,15.414063 V 14 H 12.585938 L 11,15.585938 9.414062,14 Z"
     id="path7" />
</svg>
