<?xml version="1.0" encoding="UTF-8" standalone="no"?>
<svg
   width="22"
   height="22"
   version="1.1"
   viewBox="0 0 22 22"
   id="svg7"
   sodipodi:docname="query-free-busy.svg"
   inkscape:version="1.1.2 (0a00cf5339, 2022-02-04)"
   xmlns:inkscape="http://www.inkscape.org/namespaces/inkscape"
   xmlns:sodipodi="http://sodipodi.sourceforge.net/DTD/sodipodi-0.dtd"
   xmlns="http://www.w3.org/2000/svg"
   xmlns:svg="http://www.w3.org/2000/svg">
  <sodipodi:namedview
     id="namedview9"
     pagecolor="#ffffff"
     bordercolor="#666666"
     borderopacity="1.0"
     inkscape:pageshadow="2"
     inkscape:pageopacity="0.0"
     inkscape:pagecheckerboard="0"
     showgrid="false"
     inkscape:zoom="48.790368"
     inkscape:cx="11.016519"
     inkscape:cy="15.771556"
     inkscape:window-width="1904"
     inkscape:window-height="928"
     inkscape:window-x="0"
     inkscape:window-y="35"
     inkscape:window-maximized="1"
     inkscape:current-layer="svg7" />
  <defs
     id="defs3">
    <style
       id="current-color-scheme"
       type="text/css">
   .ColorScheme-Text { color:#eeeeec; } .ColorScheme-Highlight { color:#367bf0; } .ColorScheme-NeutralText { color:#ffcc44; } .ColorScheme-PositiveText { color:#3db47e; } .ColorScheme-NegativeText { color:#dd4747; }
  </style>
  </defs>
  <path
     style="fill:currentColor"
     class="ColorScheme-Text"
     d="m 11,3 c -2.2091,-5.5e-6 -4,1.7909 -4,4 1.66e-5,2.2091 1.7909,4 4,4 2.2091,6e-6 4,-1.7909 4,-4 0,-2.2091 -1.791,-4 -4,-4 z m 0,8.986328 C 6.972,11.991128 3.5035,15.004 3,19 h 9.199262 v 0 c -0.169799,-0.135767 0.183619,-0.283068 0.03442,-0.440732 C 11.474074,17.756546 11,16.68521 11,15.5 c 0,-1.234061 0.514757,-2.354569 1.33033,-3.169376 0.111649,-0.111544 -0.252887,-0.226377 -0.130512,-0.325971 -0.16183,-0.0032 0.157331,0.0028 0,0 C 11.639182,11.994639 11.146256,11.987421 11,11.986328 Z M 15.5,12 C 13.567003,12 12,13.567003 12,15.5 12,17.432997 13.567003,19 15.5,19 17.432997,19 19,17.432997 19,15.5 19,13.567003 17.432997,12 15.5,12 Z M 15,13 h 1 v 1 H 15 Z M 15,15.232978 15.191557,15 h 0.553088 v 0 L 16,15.232978 v 2.500627 L 15.744645,18 v 0 h -0.553088 v 0 L 15,17.774451 Z"
     id="path5"
     sodipodi:nodetypes="cccscccccssscscssssscccccccccccccccccc" />
</svg>
