<?xml version="1.0" encoding="UTF-8" standalone="no"?>
<svg
   width="22"
   height="22"
   version="1.1"
   id="svg9"
   sodipodi:docname="rabbitvcs-diff.svg"
   inkscape:version="1.1.2 (0a00cf5339, 2022-02-04)"
   xmlns:inkscape="http://www.inkscape.org/namespaces/inkscape"
   xmlns:sodipodi="http://sodipodi.sourceforge.net/DTD/sodipodi-0.dtd"
   xmlns="http://www.w3.org/2000/svg"
   xmlns:svg="http://www.w3.org/2000/svg">
  <sodipodi:namedview
     id="namedview11"
     pagecolor="#ffffff"
     bordercolor="#666666"
     borderopacity="1.0"
     inkscape:pageshadow="2"
     inkscape:pageopacity="0.0"
     inkscape:pagecheckerboard="0"
     showgrid="false"
     inkscape:zoom="34.5"
     inkscape:cx="11"
     inkscape:cy="11"
     inkscape:window-width="1904"
     inkscape:window-height="928"
     inkscape:window-x="0"
     inkscape:window-y="35"
     inkscape:window-maximized="1"
     inkscape:current-layer="g7" />
  <defs
     id="defs3">
    <style
       id="current-color-scheme"
       type="text/css">
   .ColorScheme-Text { color:#eeeeec; } .ColorScheme-Highlight { color:#367bf0; } .ColorScheme-NeutralText { color:#ffcc44; } .ColorScheme-PositiveText { color:#3db47e; } .ColorScheme-NegativeText { color:#dd4747; }
  </style>
  </defs>
  <g
     transform="matrix(1,0,0,1,3,3)"
     id="g7">
    <path
       style="fill:currentColor"
       class="ColorScheme-Text"
       d="M 0,2 V 14 H 10 V 4 C 10,2 8,2 8,2 Z m 10.60564,0.3721466 c 0,0 -0.279711,-0.3721466 0,0 C 10.815875,2.6518575 11,3.1418034 11,4 v 10 h 1 V 4 C 12,2.9715908 11.471187,2.4719943 10.957398,2.2292926 10.471994,2 10.60564,2.3721466 10.60564,2.3721466 Z m 2.020322,0.02782 c 0,0 -0.283986,-0.3999662 0,0 C 12.827598,2.6839519 13,3.1695742 13,4 v 10 h 1 V 4 C 14,2.9965137 13.496508,2.4965197 12.994771,2.2473943 12.49652,2 12.625962,2.3999662 12.625962,2.3999662 Z"
       id="path5"
       sodipodi:nodetypes="cccscccssccssccssccssc" />
  </g>
</svg>
