<?xml version="1.0" encoding="UTF-8" standalone="no"?>
<svg
   width="22"
   height="22"
   version="1.1"
   id="svg11"
   sodipodi:docname="rabbitvcs-show_log.svg"
   inkscape:version="1.1.2 (0a00cf5339, 2022-02-04)"
   xmlns:inkscape="http://www.inkscape.org/namespaces/inkscape"
   xmlns:sodipodi="http://sodipodi.sourceforge.net/DTD/sodipodi-0.dtd"
   xmlns="http://www.w3.org/2000/svg"
   xmlns:svg="http://www.w3.org/2000/svg">
  <sodipodi:namedview
     id="namedview13"
     pagecolor="#ffffff"
     bordercolor="#666666"
     borderopacity="1.0"
     inkscape:pageshadow="2"
     inkscape:pageopacity="0.0"
     inkscape:pagecheckerboard="0"
     showgrid="false"
     inkscape:zoom="34.5"
     inkscape:cx="11"
     inkscape:cy="11"
     inkscape:window-width="1904"
     inkscape:window-height="928"
     inkscape:window-x="0"
     inkscape:window-y="35"
     inkscape:window-maximized="1"
     inkscape:current-layer="g9" />
  <defs
     id="defs3">
    <style
       id="current-color-scheme"
       type="text/css">
   .ColorScheme-Text { color:#eeeeec; } .ColorScheme-Highlight { color:#367bf0; } .ColorScheme-NeutralText { color:#ffcc44; } .ColorScheme-PositiveText { color:#3db47e; } .ColorScheme-NegativeText { color:#dd4747; }
  </style>
  </defs>
  <g
     transform="translate(3,3)"
     id="g9">
    <path
       style="fill:currentColor"
       class="ColorScheme-Text"
       d="M 3,0 C 3,0 2,0 2,1 v 12 c 0,1 1,1 1,1 h 5.3969479 v 0 C 8.1118067,13.892024 8.6389985,13.750491 8.3907612,13.580286 7.4044334,12.904009 6.75,11.775088 6.75,10.5 c 0,-2.0556 1.6944,-3.75 3.75,-3.75 1.261275,0 2.379533,0.6403316 3.058149,1.6088245 C 13.738245,8.6158489 13.887376,7.926445 14,8.2238593 v 0 V 4 L 10,0 Z"
       id="path5"
       sodipodi:nodetypes="csscccssssccccc" />
    <path
       style="fill:currentColor"
       class="ColorScheme-Text"
       d="M 11.5,12.5 13.778,14.778 C 13.778,14.778 14.278,15.278 14.778,14.778 15.278,14.278 14.778,13.778 14.778,13.778 L 12.5,11.5 Z M 7.75,10.5 C 7.75,12 9,13.25 10.5,13.25 12,13.25 13.25,12 13.25,10.5 13.25,9 12,7.75 10.5,7.75 9,7.75 7.75,9 7.75,10.5 Z M 10.5,8.75 C 11.5,8.75 12.25,9.5 12.25,10.5 12.25,11.5 11.5,12.25 10.5,12.25 9.5,12.25 8.75,11.5 8.75,10.5 8.75,9.5 9.5,8.75 10.5,8.75 Z"
       id="path7" />
  </g>
</svg>
