<?xml version="1.0" encoding="UTF-8" standalone="no"?>
<svg
   width="22"
   height="22"
   viewBox="0 0 22 22"
   version="1.1"
   id="svg7"
   sodipodi:docname="rabbitvcs-commit.svg"
   inkscape:version="1.1.2 (0a00cf5339, 2022-02-04)"
   xmlns:inkscape="http://www.inkscape.org/namespaces/inkscape"
   xmlns:sodipodi="http://sodipodi.sourceforge.net/DTD/sodipodi-0.dtd"
   xmlns="http://www.w3.org/2000/svg"
   xmlns:svg="http://www.w3.org/2000/svg">
  <sodipodi:namedview
     id="namedview9"
     pagecolor="#ffffff"
     bordercolor="#666666"
     borderopacity="1.0"
     inkscape:pageshadow="2"
     inkscape:pageopacity="0.0"
     inkscape:pagecheckerboard="0"
     showgrid="false"
     inkscape:zoom="34.5"
     inkscape:cx="11"
     inkscape:cy="11"
     inkscape:window-width="1904"
     inkscape:window-height="928"
     inkscape:window-x="0"
     inkscape:window-y="35"
     inkscape:window-maximized="1"
     inkscape:current-layer="svg7" />
  <defs
     id="defs3">
    <style
       id="current-color-scheme"
       type="text/css">
   .ColorScheme-Text { color:#eeeeec; } .ColorScheme-Highlight { color:#367bf0; } .ColorScheme-NeutralText { color:#ffcc44; } .ColorScheme-PositiveText { color:#3db47e; } .ColorScheme-NegativeText { color:#dd4747; }
  </style>
  </defs>
  <path
     style="fill:currentColor"
     class="ColorScheme-Text"
     d="M 3.5,1 C 2.1193,1 1,2.1193 1,3.5 1.0001,4.6879 1.8361,5.7116187 3,5.9492188 V 9.953125 c -1.1632,0.23743 -1.9989,1.260066 -2,2.447266 0,1.3807 1.1193,2.5 2.5,2.5 1.3807,0 2.5,-1.1193 2.5,-2.5 -10e-5,-1.187 -0.8361,-2.211419 -2,-2.4492191 V 5.9453125 C 4.3899,5.8671125 4.7554063,5.6970187 5.0664062,5.4492188 L 6.2792969,6.3574219 C 6.0966969,6.7106219 6.0009,7.1023 6,7.5 6,8.8807 7.1193,10 8.5,10 9.8807,10 11,8.8807 11,7.5 11,6.1193 9.8807,5 8.5,5 7.908,5.0011 7.3356656,5.2122031 6.8847656,5.5957031 L 5.6914062,4.703125 C 5.8938062,4.334425 6,3.9206 6,3.5 6,2.1193 4.8807,1 3.5,1 Z m 8.21875,8.1875 h -0.4375 L 8.7843964,11.32766 9.0055958,12 v 0 H 10 v 3 h 3 v -3 h 1.04915 v 0 l 0.195802,-0.647184 z"
     transform="translate(3,3)"
     id="path5"
     sodipodi:nodetypes="sccccsccccccsscccsscccccccccccccc" />
</svg>
