<?xml version="1.0" encoding="UTF-8" standalone="no"?>
<svg
   width="22"
   height="22"
   viewBox="0 0 22 22"
   version="1.1"
   id="svg7"
   sodipodi:docname="raindrop.svg"
   inkscape:version="1.1.2 (0a00cf5339, 2022-02-04)"
   xmlns:inkscape="http://www.inkscape.org/namespaces/inkscape"
   xmlns:sodipodi="http://sodipodi.sourceforge.net/DTD/sodipodi-0.dtd"
   xmlns="http://www.w3.org/2000/svg"
   xmlns:svg="http://www.w3.org/2000/svg">
  <sodipodi:namedview
     id="namedview9"
     pagecolor="#ffffff"
     bordercolor="#666666"
     borderopacity="1.0"
     inkscape:pageshadow="2"
     inkscape:pageopacity="0.0"
     inkscape:pagecheckerboard="0"
     showgrid="false"
     inkscape:zoom="34.5"
     inkscape:cx="11"
     inkscape:cy="11"
     inkscape:window-width="1904"
     inkscape:window-height="928"
     inkscape:window-x="0"
     inkscape:window-y="35"
     inkscape:window-maximized="1"
     inkscape:current-layer="svg7" />
  <defs
     id="defs3">
    <style
       id="current-color-scheme"
       type="text/css">
   .ColorScheme-Text { color:#eeeeec; } .ColorScheme-Highlight { color:#367bf0; } .ColorScheme-NeutralText { color:#ffcc44; } .ColorScheme-PositiveText { color:#3db47e; } .ColorScheme-NegativeText { color:#dd4747; }
  </style>
  </defs>
  <path
     style="fill:currentColor"
     class="ColorScheme-Text"
     d="M 8.2742148,0.7776993 C 8.2057546,1.0172947 7.8494201,0.47457516 7.7573786,0.70475922 7.1953981,2.1102008 6.26353,3.3368592 5.8125,4.34375 5.6288,4.69215 5.5,5.07735 5.5,5.5 5.5,6.885 6.615,8 8,8 9.385,8 10.5,6.885 10.5,5.5 10.5,5.0773 10.4025,4.6921 10.21875,4.34375 9.7755278,3.3543084 8.8457511,2.1527216 8.2742148,0.7776993 c -0.1053366,-0.25342261 0.07571,0.2649628 0,0 z M 3.2446372,8.7364376 c -0.071604,0.2505972 0.097213,-0.2402926 0,0 C 2.6814091,10.128638 1.7601381,11.344431 1.3125,12.34375 1.1288,12.69215 1,13.07735 1,13.5 1,14.885 2.115,16 3.5,16 4.885,16 6,14.885 6,13.5 6,13.0773 5.9025,12.6921 5.71875,12.34375 5.2746938,11.352447 4.3422503,10.148199 3.7709923,8.7699354 3.6669776,8.5189811 3.3195745,8.9986953 3.2446372,8.7364376 Z m 9.0278458,-0.069724 c -0.06469,0.2264101 0.08593,-0.2180149 0,0 C 11.712235,10.088071 10.767595,11.327784 10.3125,12.34375 10.1288,12.69215 10,13.07735 10,13.5 10,14.885 11.115,16 12.5,16 13.885,16 15,14.885 15,13.5 15,13.0773 14.9025,12.6921 14.71875,12.34375 14.274124,11.351174 13.339855,10.145106 12.768794,8.7646254 12.66568,8.51536 12.346892,8.9271217 12.272483,8.6667135 Z"
     transform="translate(3,3)"
     id="path5"
     sodipodi:nodetypes="cscssscsccscssscsccscssscsc" />
</svg>
