<?xml version="1.0" encoding="UTF-8" standalone="no"?>
<svg
   width="22"
   height="22"
   version="1.1"
   id="svg7"
   sodipodi:docname="reconcile.svg"
   inkscape:version="1.1.2 (0a00cf5339, 2022-02-04)"
   xmlns:inkscape="http://www.inkscape.org/namespaces/inkscape"
   xmlns:sodipodi="http://sodipodi.sourceforge.net/DTD/sodipodi-0.dtd"
   xmlns="http://www.w3.org/2000/svg"
   xmlns:svg="http://www.w3.org/2000/svg">
  <sodipodi:namedview
     id="namedview9"
     pagecolor="#ffffff"
     bordercolor="#666666"
     borderopacity="1.0"
     inkscape:pageshadow="2"
     inkscape:pageopacity="0.0"
     inkscape:pagecheckerboard="0"
     showgrid="false"
     inkscape:zoom="34.5"
     inkscape:cx="11"
     inkscape:cy="11"
     inkscape:window-width="1904"
     inkscape:window-height="928"
     inkscape:window-x="0"
     inkscape:window-y="35"
     inkscape:window-maximized="1"
     inkscape:current-layer="svg7" />
  <defs
     id="defs3">
    <style
       id="current-color-scheme"
       type="text/css">
   .ColorScheme-Text { color:#eeeeec; } .ColorScheme-Highlight { color:#367bf0; } .ColorScheme-NeutralText { color:#ffcc44; } .ColorScheme-PositiveText { color:#3db47e; } .ColorScheme-NegativeText { color:#dd4747; }
  </style>
  </defs>
  <path
     style="fill:currentColor"
     class="ColorScheme-Text"
     d="m 5,3.3401118 v 0 V 4 H 9.6869816 V 4 L 10,4.3256358 V 16.673122 L 9.6581996,17 v 0 H 7 v 2 h 8 v -2 h -2.704048 v 0 L 12,16.673122 V 4.3547381 L 12.324732,4 V 4 H 17 V 4 3.7457859 3.3110095 L 16.759642,3 V 3 H 5.3104832 Z M 5,4.0214844 2.0351562,11 H 2 c 0,0.02203 0.00539,0.04254 0.00586,0.06445 l -0.015625,0.03906 0.021484,0.0098 C 2.0725442,12.716488 3.381908,14 5,14 6.618092,14 7.9274558,12.716488 7.9882812,11.113281 l 0.021484,-0.0098 -0.015625,-0.03906 C 7.994613,11.042539 8,11.022027 8,11 H 7.964844 Z M 17,4 14.035156,11 H 14 c 0,0.02203 0.0054,0.04254 0.0059,0.06445 l -0.01563,0.03906 0.02149,0.0098 C 14.072544,12.716488 15.381908,14 17,14 c 1.618092,0 2.927456,-1.283512 2.988281,-2.886719 l 0.02148,-0.0098 -0.01563,-0.03906 C 19.994613,11.042539 20,11.022027 20,11 H 19.96484 L 17.137682,4.3250675 Z M 4.7820326,7.0928227 5.2480807,7.1636609 6.6611343,10.487715 6.3246115,11 v 0 H 3.6005169 v 0 L 3.3436177,10.476537 Z M 16.691162,7.306587 17.331495,7.3598841 18.667115,10.501785 18.382416,11 v 0 H 15.715884 L 15.31225,10.550327 v 0 z"
     id="path5"
     sodipodi:nodetypes="cccccccccccccccccccccccccccccccccsccccccccccccsccccccccccccccccccccccccc" />
</svg>
