<?xml version="1.0" encoding="UTF-8" standalone="no"?>
<svg
   width="22"
   height="22"
   version="1.1"
   id="svg9"
   sodipodi:docname="reconcile-finish.svg"
   inkscape:version="1.1.2 (0a00cf5339, 2022-02-04)"
   xmlns:inkscape="http://www.inkscape.org/namespaces/inkscape"
   xmlns:sodipodi="http://sodipodi.sourceforge.net/DTD/sodipodi-0.dtd"
   xmlns="http://www.w3.org/2000/svg"
   xmlns:svg="http://www.w3.org/2000/svg">
  <sodipodi:namedview
     id="namedview11"
     pagecolor="#ffffff"
     bordercolor="#666666"
     borderopacity="1.0"
     inkscape:pageshadow="2"
     inkscape:pageopacity="0.0"
     inkscape:pagecheckerboard="0"
     showgrid="false"
     inkscape:zoom="34.5"
     inkscape:cx="11"
     inkscape:cy="11"
     inkscape:window-width="1904"
     inkscape:window-height="928"
     inkscape:window-x="0"
     inkscape:window-y="35"
     inkscape:window-maximized="1"
     inkscape:current-layer="svg9" />
  <defs
     id="defs3">
    <style
       id="current-color-scheme"
       type="text/css">
   .ColorScheme-Text { color:#eeeeec; } .ColorScheme-Highlight { color:#367bf0; } .ColorScheme-NeutralText { color:#ffcc44; } .ColorScheme-PositiveText { color:#3db47e; } .ColorScheme-NegativeText { color:#dd4747; }
  </style>
  </defs>
  <path
     style="fill:currentColor"
     class="ColorScheme-Text"
     d="M 5.3104832,3 5,3.3692149 V 4 H 9.4550357 L 10,4.4416053 v 0 12.1446487 L 9.6006372,17 v 0 H 7 v 2 h 6.802752 v 0 L 13.940068,18.588365 13.375,18.136719 C 13.03555,17.8655 12.910054,17.406136 13.064453,17 h -0.739721 v 0 L 12,16.673122 v -12.1737518 0 L 12.527897,4 H 17 V 3.3110095 L 16.672448,3 V 3 Z M 5,4.0214844 2.0351562,11 H 2 c 0,0.02203 0.00539,0.04254 0.00586,0.06445 l -0.015625,0.03906 0.021484,0.0098 C 2.072544,12.716488 3.381908,14 5,14 6.618092,14 7.9274559,12.716488 7.9882812,11.113281 l 0.021484,-0.0098 -0.015625,-0.03906 C 7.994613,11.042539 8,11.022027 8,11 H 7.964844 Z m 12,0 L 14.035156,11 H 14.009766 14 c 0,0.02203 0.0054,0.04254 0.0059,0.06445 l -0.01563,0.03906 0.02149,0.0098 c 0.05335,1.406092 1.068099,2.564092 2.408203,2.828125 0.188901,0.03785 0.383806,0.0582 0.583984,0.05859 0.002,4e-6 0.0039,0 0.0059,0 0.226774,0 0.444191,-0.03231 0.65625,-0.08008 1.301037,-0.293067 2.27973,-1.428122 2.332031,-2.806641 l 0.02148,-0.0098 -0.01563,-0.03906 c 4.72e-4,-0.02188 0.0059,-0.04242 0.0059,-0.06445 H 20 19.974609 l -2.964843,-6.9785156 -0.0059,0.011719 z M 5.2408089,7.1465548 v 0 L 6.7385685,10.669871 6.4405854,11 v 0 H 3.6580793 v 0 L 3.3407513,10.48328 4.7776274,7.1031853 Z m 12.0183791,0.04542 v 0 L 18.641509,10.441869 18.382416,11 v 0 h -2.637752 v 0 L 15.359449,10.462014 16.74055,7.2116045 Z"
     id="path5"
     sodipodi:nodetypes="ccccccccccccccccccccccccccccccccccsccccccccccccccsssccccccccccccccccccccccccccccc" />
  <path
     style="fill:currentColor"
     class="ColorScheme-Text"
     d="m 19.733916,14.281383 -0.680527,0.05426 -1.763854,2.351321 v 0 l -0.803226,0.09562 -0.84814,-0.678904 v 0 l -0.689235,0.06562 -0.630551,0.788189 0.161764,0.781983 v 0 l 2.308349,1.846134 0.916241,-0.116474 v 0 l 2.837835,-3.784291 -0.02873,-0.819466 v 0 z"
     id="path7"
     sodipodi:nodetypes="ccccccccccccccccccc" />
</svg>
