<?xml version="1.0" encoding="UTF-8" standalone="no"?>
<svg
   width="22"
   height="22"
   version="1.1"
   id="svg9"
   sodipodi:docname="stock_mail-reply-to-all (copy).svg"
   inkscape:version="1.1.2 (0a00cf5339, 2022-02-04)"
   xmlns:inkscape="http://www.inkscape.org/namespaces/inkscape"
   xmlns:sodipodi="http://sodipodi.sourceforge.net/DTD/sodipodi-0.dtd"
   xmlns="http://www.w3.org/2000/svg"
   xmlns:svg="http://www.w3.org/2000/svg">
  <sodipodi:namedview
     id="namedview11"
     pagecolor="#000000"
     bordercolor="#666666"
     borderopacity="1.0"
     inkscape:pageshadow="2"
     inkscape:pageopacity="0"
     inkscape:pagecheckerboard="0"
     showgrid="false"
     inkscape:zoom="34.272727"
     inkscape:cx="10.985411"
     inkscape:cy="10.985411"
     inkscape:window-width="1904"
     inkscape:window-height="928"
     inkscape:window-x="0"
     inkscape:window-y="35"
     inkscape:window-maximized="1"
     inkscape:current-layer="g7" />
  <defs
     id="defs3">
    <style
       id="current-color-scheme"
       type="text/css">
   .ColorScheme-Text { color:#eeeeec; } .ColorScheme-Highlight { color:#367bf0; } .ColorScheme-NeutralText { color:#ffcc44; } .ColorScheme-PositiveText { color:#3db47e; } .ColorScheme-NegativeText { color:#dd4747; }
  </style>
  </defs>
  <g
     transform="translate(3,3)"
     id="g7">
    <path
       style="fill:currentColor"
       class="ColorScheme-Text"
       d="m 10.410627,1.7773171 v 0 L 15.866446,5.5544226 16,6.3531172 v 0 l -5.483185,3.7960508 -0.506757,-0.12953 v 0 V 9.1152 l 4.161525,-2.8808851 v 0 L 14.165367,5.7613818 10.010058,2.8848 V 1.9963157 Z M 7.1357166,1.9331481 6.5100582,2.3170364 V 4 h -1 c -3,0 -5.00000003,2 -5.00000003,5 0,2.504081 1.93531503,3.943738 3.11362003,4.588205 0.515689,0.282053 0,0 0,0 0,0 0.690727,0.124838 0.440745,-0.303043 C 3.6222362,12.528296 3.0100582,11.330494 3.0100582,10.5 c 0,-1.3 1.5,-2.5 3,-2.5 h 0.5 v 1.757393 0 l 0.7121362,0.24959 5.3968976,-3.736314 v 0 L 12.5658,5.6924361 Z"
       id="path5"
       sodipodi:nodetypes="ccccccccccccccccccssscssscccccccc" />
  </g>
</svg>
