<?xml version="1.0" encoding="UTF-8" standalone="no"?>
<svg
   width="22"
   height="22"
   version="1.1"
   id="svg7"
   sodipodi:docname="replay-play.svg"
   inkscape:version="1.1.2 (0a00cf5339, 2022-02-04)"
   xmlns:inkscape="http://www.inkscape.org/namespaces/inkscape"
   xmlns:sodipodi="http://sodipodi.sourceforge.net/DTD/sodipodi-0.dtd"
   xmlns="http://www.w3.org/2000/svg"
   xmlns:svg="http://www.w3.org/2000/svg">
  <sodipodi:namedview
     id="namedview9"
     pagecolor="#ffffff"
     bordercolor="#666666"
     borderopacity="1.0"
     inkscape:pageshadow="2"
     inkscape:pageopacity="0.0"
     inkscape:pagecheckerboard="0"
     showgrid="false"
     inkscape:zoom="34.5"
     inkscape:cx="11"
     inkscape:cy="11"
     inkscape:window-width="1904"
     inkscape:window-height="928"
     inkscape:window-x="0"
     inkscape:window-y="35"
     inkscape:window-maximized="1"
     inkscape:current-layer="svg7" />
  <defs
     id="defs3">
    <style
       id="current-color-scheme"
       type="text/css">
   .ColorScheme-Text { color:#eeeeec; } .ColorScheme-Highlight { color:#367bf0; } .ColorScheme-NeutralText { color:#ffcc44; } .ColorScheme-PositiveText { color:#3db47e; } .ColorScheme-NegativeText { color:#dd4747; }
  </style>
  </defs>
  <path
     style="fill:currentColor"
     class="ColorScheme-Text"
     d="m 11,3 c -4.418278,0 -8,3.581722 -8,8 0,4.418278 3.581722,8 8,8 0.501907,-0.0057 1.00216,-0.05871 1.494141,-0.158203 C 11.932533,18.334394 11.50798,17.693534 11.259766,16.978516 11.173343,16.987558 11.086734,16.994721 11,17 7.6862915,17 5,14.313708 5,11 5,7.6862915 7.6862915,5 11,5 c 3.313708,0 6,2.6862915 6,6 -0.0047,0.08411 -0.01125,0.168115 -0.01953,0.251953 0.71452,0.249062 1.354699,0.67428 1.861328,1.236328 C 18.940923,11.998221 18.993889,11.499947 19,11 19,6.581722 15.418278,3 11,3 Z m 0,4 c -2.209139,0 -4,1.790861 -4,4 0,2.209139 1.790861,4 4,4 0.01173,-0.0012 0.02345,-0.0025 0.03516,-0.0039 0.237437,-2.081309 1.879629,-3.723503 3.960938,-3.960944 C 14.99745,11.023443 14.998751,11.011724 15,11 15,8.790861 13.209139,7 11,7 Z m 4.5,5 C 13.567003,12 12,13.567003 12,15.5 12,17.432997 13.567003,19 15.5,19 17.432997,19 19,17.432997 19,15.5 19,13.567003 17.432997,12 15.5,12 Z M 14,13.745653 14.613077,13.383173 16,14.25 l 1.512775,0.945485 0.0137,0.60047 v 0 L 16,16.75 14.527997,17.670002 v 0 L 14,17.455809 14,15.5 Z"
     id="path5"
     sodipodi:nodetypes="ssccccssccccsssccccssssssccccccccccccc" />
</svg>
