<?xml version="1.0" encoding="UTF-8" standalone="no"?>
<svg
   width="22"
   height="22"
   version="1.1"
   id="svg9"
   sodipodi:docname="document-revert.svg"
   inkscape:version="1.1.2 (0a00cf5339, 2022-02-04)"
   xmlns:inkscape="http://www.inkscape.org/namespaces/inkscape"
   xmlns:sodipodi="http://sodipodi.sourceforge.net/DTD/sodipodi-0.dtd"
   xmlns="http://www.w3.org/2000/svg"
   xmlns:svg="http://www.w3.org/2000/svg">
  <sodipodi:namedview
     id="namedview11"
     pagecolor="#000000"
     bordercolor="#666666"
     borderopacity="1.0"
     inkscape:pageshadow="2"
     inkscape:pageopacity="0"
     inkscape:pagecheckerboard="0"
     showgrid="false"
     inkscape:zoom="37.590909"
     inkscape:cx="10.960097"
     inkscape:cy="11.013301"
     inkscape:window-width="782"
     inkscape:window-height="836"
     inkscape:window-x="459"
     inkscape:window-y="240"
     inkscape:window-maximized="1"
     inkscape:current-layer="g7" />
  <defs
     id="defs3">
    <style
       id="current-color-scheme"
       type="text/css">
   .ColorScheme-Text { color:#eeeeec; } .ColorScheme-Highlight { color:#367bf0; } .ColorScheme-NeutralText { color:#ffcc44; } .ColorScheme-PositiveText { color:#3db47e; } .ColorScheme-NegativeText { color:#dd4747; }
  </style>
  </defs>
  <g
     transform="translate(3,3)"
     id="g7">
    <path
       style="fill:currentColor"
       class="ColorScheme-Text"
       d="m 13,1 c 0,0 1,0 1,1 V 6 H 12 V 3.4504977 L 11.686574,3 V 3 H 4.5479844 L 4,3.5217873 v 0 8.9426337 L 4.5272291,13 v 0 h 6.9941189 v 0 L 12,12.559989 V 10 c 0,0 0,-1 -1,-1 H 10.327663 V 9 L 10,9.2381004 10,10.393683 v 0 l -0.4049749,0.171159 v 0 L 9.1145416,10.409694 6.2252719,8.4835146 v 0 l -0.2215003,-0.4084291 0.05442,-0.447213 v 0 L 9.5564885,5.2956743 v 0 L 10,5.6510444 v 0 L 10,6.6692596 10.2428,7 V 7 H 11 c 0,0 3,0 3,3 v 4 c 0,1 -1,1 -1,1 H 3 C 3,15 2,15 2,14 V 2 C 2,1 3,1 3,1 Z"
       id="path5"
       sodipodi:nodetypes="cscccccccccccccccscccccccccccccccccccccssccsscc" />
  </g>
</svg>
