<?xml version="1.0" encoding="UTF-8" standalone="no"?>
<svg
   width="22"
   height="22"
   version="1.1"
   id="svg11"
   sodipodi:docname="seahorse-sign.svg"
   inkscape:version="1.1.2 (0a00cf5339, 2022-02-04)"
   xmlns:inkscape="http://www.inkscape.org/namespaces/inkscape"
   xmlns:sodipodi="http://sodipodi.sourceforge.net/DTD/sodipodi-0.dtd"
   xmlns="http://www.w3.org/2000/svg"
   xmlns:svg="http://www.w3.org/2000/svg">
  <sodipodi:namedview
     id="namedview13"
     pagecolor="#ffffff"
     bordercolor="#666666"
     borderopacity="1.0"
     inkscape:pageshadow="2"
     inkscape:pageopacity="0.0"
     inkscape:pagecheckerboard="0"
     showgrid="false"
     inkscape:zoom="34.5"
     inkscape:cx="11"
     inkscape:cy="11"
     inkscape:window-width="1904"
     inkscape:window-height="928"
     inkscape:window-x="0"
     inkscape:window-y="35"
     inkscape:window-maximized="1"
     inkscape:current-layer="g9" />
  <defs
     id="defs3">
    <style
       id="current-color-scheme"
       type="text/css">
   .ColorScheme-Text { color:#eeeeec; } .ColorScheme-Highlight { color:#367bf0; } .ColorScheme-NeutralText { color:#ffcc44; } .ColorScheme-PositiveText { color:#3db47e; } .ColorScheme-NegativeText { color:#dd4747; }
  </style>
  </defs>
  <g
     transform="translate(3,3)"
     id="g9">
    <path
       style="fill:currentColor"
       class="ColorScheme-Text"
       d="m 5,11 v 4.267157 0 l 0.7439389,0.236884 v 0 L 7.616747,14.255502 v 0 l 0.7681231,0.0011 1.9663249,1.310884 L 11,15.383127 v 0 0 L 11,11"
       id="path5"
       sodipodi:nodetypes="ccccccccccccc" />
    <path
       style="fill:currentColor"
       class="ColorScheme-Text"
       d="M 11,7 A 3,3 0 0 1 8,10 3,3 0 0 1 5,7 3,3 0 0 1 8,4 3,3 0 0 1 11,7 M 8,1 A 6,6 0 0 0 2,7 6,6 0 0 0 8,13 6,6 0 0 0 14,7 6,6 0 0 0 8,1 Z M 8,3 A 4,4 0 0 1 12,7 4,4 0 0 1 8,11 4,4 0 0 1 4,7 4,4 0 0 1 8,3 Z"
       id="path7" />
  </g>
</svg>
