<?xml version="1.0" encoding="UTF-8" standalone="no"?>
<svg
   width="22"
   height="22"
   version="1.1"
   id="svg13"
   sodipodi:docname="seahorse-sign-bad.svg"
   inkscape:version="1.1.2 (0a00cf5339, 2022-02-04)"
   xmlns:inkscape="http://www.inkscape.org/namespaces/inkscape"
   xmlns:sodipodi="http://sodipodi.sourceforge.net/DTD/sodipodi-0.dtd"
   xmlns="http://www.w3.org/2000/svg"
   xmlns:svg="http://www.w3.org/2000/svg">
  <sodipodi:namedview
     id="namedview15"
     pagecolor="#ffffff"
     bordercolor="#666666"
     borderopacity="1.0"
     inkscape:pageshadow="2"
     inkscape:pageopacity="0.0"
     inkscape:pagecheckerboard="0"
     showgrid="false"
     inkscape:zoom="34.5"
     inkscape:cx="11"
     inkscape:cy="11"
     inkscape:window-width="1904"
     inkscape:window-height="928"
     inkscape:window-x="0"
     inkscape:window-y="35"
     inkscape:window-maximized="1"
     inkscape:current-layer="g11" />
  <defs
     id="defs3">
    <style
       id="current-color-scheme"
       type="text/css">
   .ColorScheme-Text { color:#eeeeec; } .ColorScheme-Highlight { color:#367bf0; } .ColorScheme-NeutralText { color:#ffcc44; } .ColorScheme-PositiveText { color:#3db47e; } .ColorScheme-NegativeText { color:#dd4747; }
  </style>
  </defs>
  <path
     style="fill:currentColor"
     class="ColorScheme-Text"
     d="M 14,14 V 15 C 14,15.28 14.1,15.54 14.28,15.72 L 15.06,16.5 14.28,17.28 C 14.1,17.46 14,17.72 14,18 V 19 H 15 C 15.28,19 15.54,18.9 15.72,18.72 L 16.5,17.94 17.28,18.72 C 17.46,18.9 17.72,19 18,19 H 19 V 18 C 19,17.72 18.9,17.46 18.72,17.28 L 17.94,16.5 18.72,15.72 C 18.9,15.54 19,15.28 19,15 V 14 H 18 C 17.72,14 17.46,14.1 17.28,14.28 L 16.5,15.06 15.72,14.28 C 15.54,14.1 15.28,14 15,14 Z"
     id="path5" />
  <g
     style="opacity:.35"
     transform="translate(3,3)"
     id="g11">
    <path
       style="fill:currentColor"
       class="ColorScheme-Text"
       d="m 5,11 v 4.296259 0 l 0.776951,0.185774 v 0 L 8,14 9.5088818,14.754441 10,14.571779 v 0 V 11"
       id="path7"
       sodipodi:nodetypes="cccccccccc" />
    <path
       style="fill:currentColor"
       class="ColorScheme-Text"
       d="M 8,1 C 4.6862915,1 2,3.6862915 2,7 c 0,3.313708 2.6862915,6 6,6 0.6813631,-2.74e-4 1.3577017,-0.116605 2,-0.344 V 10.465 C 9.3918362,10.815759 8.702065,11.000273 8,11 5.790861,11 4,9.209139 4,7 4,4.790861 5.790861,3 8,3 10.209139,3 12,4.790861 12,7 11.999841,7.9580195 11.656189,8.8774409 11.042006,9.5967208 10.920133,9.7394485 11.322061,9.8742956 11.179454,10 v 0 H 13.195 C 13.722013,9.0879964 13.99965,8.0533247 14,7 14,3.6862915 11.313708,1 8,1 Z M 8,4 C 6.3431458,4 5,5.3431458 5,7 5,8.6568542 6.3431458,10 8,10 9.6568542,10 11,8.6568542 11,7 11,5.3431458 9.6568542,4 8,4 Z"
       id="path9"
       sodipodi:nodetypes="ssccccsscsccccssssss" />
  </g>
</svg>
