<?xml version="1.0" encoding="UTF-8" standalone="no"?>
<svg
   width="22"
   height="22"
   viewBox="0 0 22 22"
   version="1.1"
   id="svg7"
   sodipodi:docname="x-shape-image.svg"
   inkscape:version="1.1.2 (0a00cf5339, 2022-02-04)"
   xmlns:inkscape="http://www.inkscape.org/namespaces/inkscape"
   xmlns:sodipodi="http://sodipodi.sourceforge.net/DTD/sodipodi-0.dtd"
   xmlns="http://www.w3.org/2000/svg"
   xmlns:svg="http://www.w3.org/2000/svg">
  <sodipodi:namedview
     id="namedview9"
     pagecolor="#000000"
     bordercolor="#666666"
     borderopacity="1.0"
     inkscape:pageshadow="2"
     inkscape:pageopacity="0"
     inkscape:pagecheckerboard="0"
     showgrid="false"
     inkscape:zoom="34.272727"
     inkscape:cx="10.985411"
     inkscape:cy="11"
     inkscape:window-width="1770"
     inkscape:window-height="966"
     inkscape:window-x="0"
     inkscape:window-y="29"
     inkscape:window-maximized="1"
     inkscape:current-layer="svg7" />
  <defs
     id="defs3">
    <style
       id="current-color-scheme"
       type="text/css">
   .ColorScheme-Text { color:#eeeeec; } .ColorScheme-Highlight { color:#367bf0; } .ColorScheme-NeutralText { color:#ffcc44; } .ColorScheme-PositiveText { color:#3db47e; } .ColorScheme-NegativeText { color:#dd4747; }
  </style>
  </defs>
  <path
     style="fill:currentColor"
     class="ColorScheme-Text"
     d="M 2,2 C 1,2 1,3 1,3 v 10 c 0,1 1,1 1,1 h 12 c 0,0 1,0 1,-1 V 3 C 15,2 14,2 14,2 Z m 3.1471113,4.9771442 0.7260919,0.00785 2.7107841,3.0688118 0.4418585,0.05162 v 0 l 1.5994322,-1.5523899 0.635784,0.020523 v 0 L 12.851428,10.163928 13,10.574255 v 0 1.166819 L 12.732986,12 v 0 H 3.3673515 v 0 L 3,11.566095 3,9.8154226 v 0 L 3.2271928,9.2330484 Z"
     transform="translate(3,3)"
     id="path5"
     sodipodi:nodetypes="scsccsscsccccccccccccccccccccc" />
</svg>
