<?xml version="1.0" encoding="UTF-8" standalone="no"?>
<svg
   width="22"
   height="22"
   viewBox="0 0 22 22"
   version="1.1"
   id="svg7"
   sodipodi:docname="selection-move-to-layer-above.svg"
   inkscape:version="1.1.2 (0a00cf5339, 2022-02-04)"
   xmlns:inkscape="http://www.inkscape.org/namespaces/inkscape"
   xmlns:sodipodi="http://sodipodi.sourceforge.net/DTD/sodipodi-0.dtd"
   xmlns="http://www.w3.org/2000/svg"
   xmlns:svg="http://www.w3.org/2000/svg">
  <sodipodi:namedview
     id="namedview9"
     pagecolor="#ffffff"
     bordercolor="#666666"
     borderopacity="1.0"
     inkscape:pageshadow="2"
     inkscape:pageopacity="0.0"
     inkscape:pagecheckerboard="0"
     showgrid="false"
     inkscape:zoom="34.5"
     inkscape:cx="11"
     inkscape:cy="11"
     inkscape:window-width="1904"
     inkscape:window-height="928"
     inkscape:window-x="0"
     inkscape:window-y="35"
     inkscape:window-maximized="1"
     inkscape:current-layer="svg7" />
  <defs
     id="defs3">
    <style
       id="current-color-scheme"
       type="text/css">
   .ColorScheme-Text { color:#eeeeec; } .ColorScheme-Highlight { color:#367bf0; } .ColorScheme-NeutralText { color:#ffcc44; } .ColorScheme-PositiveText { color:#3db47e; } .ColorScheme-NegativeText { color:#dd4747; }
  </style>
  </defs>
  <path
     style="fill:currentColor"
     class="ColorScheme-Text"
     d="M 4,1 1.3818591,4.4908546 1.7018371,5 V 5 H 10 L 12.567663,1.5764498 12.367966,1 v 0 z m 8.3125,4.21875 v 0 l -2.057698,2.2245384 -0.04136,0.4990644 v 0 l 0.297257,0.3114121 0.388856,-0.1077918 v 0 l 0.866444,-0.9268934 v 0 L 12,7.3834087 12,11 H 4 L 1.4653692,14.379508 1.7890271,15 v 0 H 10 l 3,-4 v -3.6165913 0 l 0.259685,-0.1368567 0.879864,0.9412509 0.417988,-0.00552 v 0 L 14.814223,7.913374 14.744048,7.4420449 v 0 L 12.6875,5.21875 Z"
     transform="translate(3,3)"
     id="path5"
     sodipodi:nodetypes="cccccccccccccccccccccccccccccccccccccc" />
</svg>
