<?xml version="1.0" encoding="UTF-8" standalone="no"?>
<svg
   width="22"
   height="22"
   viewBox="0 0 22 22"
   version="1.1"
   id="svg7"
   sodipodi:docname="send-to.svg"
   inkscape:version="1.1.2 (0a00cf5339, 2022-02-04)"
   xmlns:inkscape="http://www.inkscape.org/namespaces/inkscape"
   xmlns:sodipodi="http://sodipodi.sourceforge.net/DTD/sodipodi-0.dtd"
   xmlns="http://www.w3.org/2000/svg"
   xmlns:svg="http://www.w3.org/2000/svg">
  <sodipodi:namedview
     id="namedview9"
     pagecolor="#000000"
     bordercolor="#666666"
     borderopacity="1.0"
     inkscape:pageshadow="2"
     inkscape:pageopacity="0"
     inkscape:pagecheckerboard="0"
     showgrid="false"
     inkscape:zoom="33"
     inkscape:cx="10.984848"
     inkscape:cy="6.1515152"
     inkscape:window-width="1872"
     inkscape:window-height="895"
     inkscape:window-x="0"
     inkscape:window-y="35"
     inkscape:window-maximized="1"
     inkscape:current-layer="svg7" />
  <defs
     id="defs3">
    <style
       id="current-color-scheme"
       type="text/css">
   .ColorScheme-Text { color:#eeeeec; } .ColorScheme-Highlight { color:#367bf0; } .ColorScheme-NeutralText { color:#ffcc44; } .ColorScheme-PositiveText { color:#3db47e; } .ColorScheme-NegativeText { color:#dd4747; }
  </style>
  </defs>
  <path
     style="fill:currentColor"
     class="ColorScheme-Text"
     d="m 9.6425966,1.0039062 -0.3677782,0.4298441 0.9439316,1.4764059 -4.40625,2.75 C 5.29706,5.2492462 4.6617,5.0038663 4,5.0039062 c -1.5709,9.01e-5 -3,1.4293 -3,3 0,1.5707001 1.4291,2.9998998 3,2.9999998 0.66168,4e-5 1.2971,-0.27659 1.8125,-0.6875 l 4.40625,2.779297 -0.7936349,1.241326 0.5507668,0.664924 v 0 h 4.3631851 v 0 l 0.412676,-0.546166 -1.874323,-4.12351 -0.737956,-0.257164 v 0 l -0.858214,1.36434 -4.375,-2.7812499 C 6.96075,8.4435731 7,8.2260931 7,8.0019531 7,7.7778131 6.96065,7.5603331 6.90625,7.3457031 l 4.375,-2.7792969 0.829422,1.3185684 0.695268,-0.054137 v 0 l 1.862904,-4.098389 -0.329777,-0.7285424 v 0 z"
     transform="translate(3,3)"
     id="path5"
     sodipodi:nodetypes="cccccsscccccccccccccscccccccccc" />
</svg>
