<?xml version="1.0" encoding="UTF-8" standalone="no"?>
<svg
   width="22"
   height="22"
   version="1.1"
   id="svg7"
   sodipodi:docname="show-menu.svg"
   inkscape:version="1.1.2 (0a00cf5339, 2022-02-04)"
   xmlns:inkscape="http://www.inkscape.org/namespaces/inkscape"
   xmlns:sodipodi="http://sodipodi.sourceforge.net/DTD/sodipodi-0.dtd"
   xmlns="http://www.w3.org/2000/svg"
   xmlns:svg="http://www.w3.org/2000/svg">
  <sodipodi:namedview
     id="namedview9"
     pagecolor="#000000"
     bordercolor="#666666"
     borderopacity="1.0"
     inkscape:pageshadow="2"
     inkscape:pageopacity="0"
     inkscape:pagecheckerboard="0"
     showgrid="false"
     inkscape:zoom="33"
     inkscape:cx="10.984848"
     inkscape:cy="11"
     inkscape:window-width="1872"
     inkscape:window-height="895"
     inkscape:window-x="0"
     inkscape:window-y="35"
     inkscape:window-maximized="1"
     inkscape:current-layer="svg7" />
  <defs
     id="defs3">
    <style
       id="current-color-scheme"
       type="text/css">
   .ColorScheme-Text { color:#eeeeec; } .ColorScheme-Highlight { color:#367bf0; } .ColorScheme-NeutralText { color:#ffcc44; } .ColorScheme-PositiveText { color:#3db47e; } .ColorScheme-NegativeText { color:#dd4747; }
  </style>
  </defs>
  <path
     style="fill:currentColor"
     class="ColorScheme-Text"
     d="m 15.443922,4.1420161 v 0 L 4.217155,15.368783 4,15.885663 v 0 0.757304 L 4.4609745,17 v 0 c 0.2625009,0 0.1776872,0 0.6065304,0 0.090153,0 0.2030055,0 0.3465576,0 l 2,-2 H 18 c 1,0 1,-1 1,-1 V 7 C 19,6 18,6 18,6 H 17 16.794319 V 6 L 16.706338,5.7077243 17,5.4140625 V 4.2796205 L 16.702951,4 V 4 H 15.91542 Z M 4,6 C 3,6 3,7 3,7 v 7 c 0,1 1,1 1,1 L 6,13 H 5 V 8 H 8 V 9 H 6 v 1 h 2 v 1 L 9,10 V 9 8 h 1 v 0.6130547 l 0.332824,0.054121 v 0 L 12,7 12.651319,6.3486814 12.581682,6 v 0 z m 4,5 H 6 v 2 z M 14.414062,8 H 17 v 1 h -2 v 1 h 2 v 1 h -2 v 1 h 2 v 1 H 14 V 9 8.414063 Z M 11.70657,10.707493 12,10.855546 V 12 h 1 v 1 h -1 -1 v -1 -0.585937 z"
     id="path5"
     sodipodi:nodetypes="ccccccccsccscscccccccccccscscccccccccccccccccccccscccccccccccccccccccccccccccccc" />
</svg>
