<?xml version="1.0" encoding="UTF-8" standalone="no"?>
<svg
   width="22"
   height="22"
   version="1.1"
   id="svg9"
   sodipodi:docname="speaker.svg"
   inkscape:version="1.1.2 (0a00cf5339, 2022-02-04)"
   xmlns:inkscape="http://www.inkscape.org/namespaces/inkscape"
   xmlns:sodipodi="http://sodipodi.sourceforge.net/DTD/sodipodi-0.dtd"
   xmlns="http://www.w3.org/2000/svg"
   xmlns:svg="http://www.w3.org/2000/svg">
  <sodipodi:namedview
     id="namedview11"
     pagecolor="#000000"
     bordercolor="#666666"
     borderopacity="1.0"
     inkscape:pageshadow="2"
     inkscape:pageopacity="0"
     inkscape:pagecheckerboard="0"
     showgrid="false"
     inkscape:zoom="37.590909"
     inkscape:cx="11.013301"
     inkscape:cy="11"
     inkscape:window-width="1920"
     inkscape:window-height="1051"
     inkscape:window-x="0"
     inkscape:window-y="29"
     inkscape:window-maximized="1"
     inkscape:current-layer="g7" />
  <defs
     id="defs3">
    <style
       id="current-color-scheme"
       type="text/css">
   .ColorScheme-Text { color:#eeeeec; } .ColorScheme-Highlight { color:#367bf0; } .ColorScheme-NeutralText { color:#ffcc44; } .ColorScheme-PositiveText { color:#3db47e; } .ColorScheme-NegativeText { color:#dd4747; }
  </style>
  </defs>
  <g
     transform="matrix(1,0,0,1,3,3)"
     id="g7">
    <path
       class="ColorScheme-Text"
       d="m 7.5448849,1.4551151 v 0 L 4.2478488,4.7521512 v 0 L 3.6815416,5 H 1 v 6 h 2.6192349 l 0.6370257,0.256261 v 0 L 7.477838,14.477838 8,14.32594 v 0 V 1.6416706 Z M 10.356713,1.0980288 10,1.2916484 V 2.5 c 2.32,0.74 4,2.93 4,5.5 0,2.490496 -1.577665,4.62414 -3.786558,5.427192 -0.07051,0.02564 0.07177,-0.02289 0,0 L 10,13.748418 v 0.940125 l 0.468177,0.178741 c 0.158141,-0.03916 -0.153912,0.04926 0,0 C 13.380033,13.935391 15.5,11.229308 15.5,8 c 0,-3.2703729 -2.174226,-6.0041285 -5.143287,-6.9019712 -0.117685,-0.035588 0.120095,0.029738 0,0 z M 10,5.3429225 v 0 5.2770155 l 0.363315,0.150936 c 0.126006,-0.06895 -0.115982,0.0836 0,0 C 11.223015,10.151181 11.789,9.1454653 11.789,8 11.789,6.8366496 11.213211,5.8174467 10.325357,5.2003818 10.221068,5.1279001 10.112473,5.4038893 10,5.3429225 Z"
       style="fill:currentColor"
       id="path5"
       sodipodi:nodetypes="ccccccccccccccccccssccccssscccccsssc" />
  </g>
</svg>
