<?xml version="1.0" encoding="UTF-8" standalone="no"?>
<svg
   width="22"
   height="22"
   version="1.1"
   id="svg9"
   sodipodi:docname="stock_mail-unread-multiple.svg"
   inkscape:version="1.1.2 (0a00cf5339, 2022-02-04)"
   xmlns:inkscape="http://www.inkscape.org/namespaces/inkscape"
   xmlns:sodipodi="http://sodipodi.sourceforge.net/DTD/sodipodi-0.dtd"
   xmlns="http://www.w3.org/2000/svg"
   xmlns:svg="http://www.w3.org/2000/svg">
  <sodipodi:namedview
     id="namedview11"
     pagecolor="#000000"
     bordercolor="#666666"
     borderopacity="1.0"
     inkscape:pageshadow="2"
     inkscape:pageopacity="0"
     inkscape:pagecheckerboard="0"
     showgrid="false"
     inkscape:zoom="33"
     inkscape:cx="10.984848"
     inkscape:cy="11"
     inkscape:window-width="1872"
     inkscape:window-height="895"
     inkscape:window-x="0"
     inkscape:window-y="35"
     inkscape:window-maximized="1"
     inkscape:current-layer="g7" />
  <defs
     id="defs3">
    <style
       id="current-color-scheme"
       type="text/css">
   .ColorScheme-Text { color:#eeeeec; } .ColorScheme-Highlight { color:#367bf0; } .ColorScheme-NeutralText { color:#ffcc44; } .ColorScheme-PositiveText { color:#3db47e; } .ColorScheme-NegativeText { color:#dd4747; }
  </style>
  </defs>
  <g
     transform="translate(3,3)"
     id="g7">
    <path
       style="fill:currentColor"
       class="ColorScheme-Text"
       d="M 2,2 C 2,2 0,2 0,4 v 8 c 0,2 2,2 2,2 H 8 V 9.2796686 L 7.7167088,8.8583544 v 0 L 2,6 v -1.5079688 0 L 2.4807306,4.2403653 7.716704,6.858352 8.4509307,6.774535 v 0 L 13.614387,4.192807 v 0 L 14,4.5223416 V 6 L 12.608565,6.6957177 12.672633,7 V 7 H 16 V 4 C 16,2 14,2 14,2 Z m 8,6 C 9,8 9,9 9,9 v 5 c 0,0 0,1 1,1 h 5 c 1,0 1,-1 1,-1 V 9 c 0,0 0,-1 -1,-1 z m 0,1 h 1 v 1 h 1 v 1 h 1 v -1 h 1 V 9 h 1 v 5 h -1 v -3 h -1 v 1 h -1 v -1 h -1 v 3 h -1 z"
       id="path5"
       sodipodi:nodetypes="cssccccccccccccccccccccsccsccssccssccccccccccccccccccccc" />
  </g>
</svg>
