<?xml version="1.0" encoding="UTF-8" standalone="no"?>
<svg
   width="22"
   height="22"
   version="1.1"
   id="svg9"
   sodipodi:docname="stock_task-assigned.svg"
   inkscape:version="1.1.2 (0a00cf5339, 2022-02-04)"
   xmlns:inkscape="http://www.inkscape.org/namespaces/inkscape"
   xmlns:sodipodi="http://sodipodi.sourceforge.net/DTD/sodipodi-0.dtd"
   xmlns="http://www.w3.org/2000/svg"
   xmlns:svg="http://www.w3.org/2000/svg">
  <sodipodi:namedview
     id="namedview11"
     pagecolor="#000000"
     bordercolor="#666666"
     borderopacity="1.0"
     inkscape:pageshadow="2"
     inkscape:pageopacity="0"
     inkscape:pagecheckerboard="0"
     showgrid="false"
     inkscape:zoom="53.161573"
     inkscape:cx="11.004189"
     inkscape:cy="10.994784"
     inkscape:window-width="1916"
     inkscape:window-height="1047"
     inkscape:window-x="2"
     inkscape:window-y="31"
     inkscape:window-maximized="1"
     inkscape:current-layer="g7" />
  <defs
     id="defs3">
    <style
       id="current-color-scheme"
       type="text/css">
   .ColorScheme-Text { color:#eeeeec; } .ColorScheme-Highlight { color:#367bf0; } .ColorScheme-NeutralText { color:#ffcc44; } .ColorScheme-PositiveText { color:#3db47e; } .ColorScheme-NegativeText { color:#dd4747; }
  </style>
  </defs>
  <g
     transform="translate(3,3)"
     id="g7">
    <path
       style="fill:currentColor"
       class="ColorScheme-Text"
       d="M 3,1 C 3,1 2,1 2,2 v 9 3 c 0,1 1,1 1,1 h 10 c 0,0 1,0 1,-1 v -4 h -2 v 2.596187 L 11.701451,13 v 0 H 4.5422226 v 0 L 4,12.529136 4,3.3425378 v 0 L 4.3685278,3 H 11.722571 V 3 L 12,3.3815626 V 6 h 2 V 2 C 14,1 13,1 13,1 Z m 7.5274,4.3150669 v 0 l -3.5318869,2.354591 -0.024802,0.6441494 v 0 L 10.567488,10.711659 11,10.490732 v 0 -1.2447911 0 L 11.263227,9 H 15 V 7 H 11.271464 V 7 L 11,6.7193256 V 5.5813395 Z"
       id="path5"
       sodipodi:nodetypes="cscsccsccccccccccccccccscccccccccccccccccccc" />
  </g>
</svg>
