<?xml version="1.0" encoding="UTF-8" standalone="no"?>
<svg
   width="22"
   height="22"
   version="1.1"
   id="svg9"
   sodipodi:docname="stock_task.svg"
   inkscape:version="1.1.2 (0a00cf5339, 2022-02-04)"
   xmlns:inkscape="http://www.inkscape.org/namespaces/inkscape"
   xmlns:sodipodi="http://sodipodi.sourceforge.net/DTD/sodipodi-0.dtd"
   xmlns="http://www.w3.org/2000/svg"
   xmlns:svg="http://www.w3.org/2000/svg">
  <sodipodi:namedview
     id="namedview11"
     pagecolor="#000000"
     bordercolor="#666666"
     borderopacity="1.0"
     inkscape:pageshadow="2"
     inkscape:pageopacity="0"
     inkscape:pagecheckerboard="0"
     showgrid="false"
     inkscape:zoom="75.181818"
     inkscape:cx="11"
     inkscape:cy="10.461306"
     inkscape:window-width="1916"
     inkscape:window-height="1047"
     inkscape:window-x="2"
     inkscape:window-y="31"
     inkscape:window-maximized="1"
     inkscape:current-layer="g7" />
  <defs
     id="defs3">
    <style
       id="current-color-scheme"
       type="text/css">
   .ColorScheme-Text { color:#eeeeec; } .ColorScheme-Highlight { color:#367bf0; } .ColorScheme-NeutralText { color:#ffcc44; } .ColorScheme-PositiveText { color:#3db47e; } .ColorScheme-NegativeText { color:#dd4747; }
  </style>
  </defs>
  <g
     transform="translate(1.0731916,3)"
     id="g7">
    <path
       style="fill:currentColor"
       class="ColorScheme-Text"
       d="M 3,1 C 1,1 1,3 1,3 V 15 H 15 V 3 C 15,3 15,1 13,1 Z M 3,3.3089274 3.3451788,3 H 12.67466 V 3 L 12.752074,3.2892474 7.3087457,9.6397967 7.0399033,9.7316085 6.673264,9.673264 5,8 C 5,8 4.1618277,7.0783923 3.4470277,7.8635923 c -0.4789225,0.8392187 0.2204597,1.7166628 0.2148,1.7148 L 6.6967745,12.696774 7,12.73075 7.3385251,12.616293 12.80435,6.4209632 v 0 L 13,6.5297942 V 12.70136 L 12.700129,13 v 0 0 H 3.2565314 v 0 L 3,12.751612 Z"
       id="path5"
       sodipodi:nodetypes="sccccsscccccccccccccccccccccccccc" />
  </g>
</svg>
