<?xml version="1.0" encoding="UTF-8" standalone="no"?>
<svg
   width="22"
   height="22"
   version="1.1"
   viewBox="0 0 22 22"
   id="svg7"
   sodipodi:docname="stock_new-24h-appointment.svg"
   inkscape:version="1.1.2 (0a00cf5339, 2022-02-04)"
   xmlns:inkscape="http://www.inkscape.org/namespaces/inkscape"
   xmlns:sodipodi="http://sodipodi.sourceforge.net/DTD/sodipodi-0.dtd"
   xmlns="http://www.w3.org/2000/svg"
   xmlns:svg="http://www.w3.org/2000/svg">
  <sodipodi:namedview
     id="namedview9"
     pagecolor="#000000"
     bordercolor="#666666"
     borderopacity="1.0"
     inkscape:pageshadow="2"
     inkscape:pageopacity="0"
     inkscape:pagecheckerboard="0"
     showgrid="false"
     inkscape:zoom="37.590909"
     inkscape:cx="14.484885"
     inkscape:cy="11.013301"
     inkscape:window-width="991"
     inkscape:window-height="998"
     inkscape:window-x="398"
     inkscape:window-y="78"
     inkscape:window-maximized="1"
     inkscape:current-layer="svg7" />
  <defs
     id="defs3">
    <style
       id="current-color-scheme"
       type="text/css">
   .ColorScheme-Text { color:#eeeeec; } .ColorScheme-Highlight { color:#367bf0; } .ColorScheme-NeutralText { color:#ffcc44; } .ColorScheme-PositiveText { color:#3db47e; } .ColorScheme-NegativeText { color:#dd4747; }
  </style>
  </defs>
  <path
     style="fill:currentColor"
     class="ColorScheme-Text"
     d="M 10.5,4 C 6.3578644,4 3,7.3578644 3,11.5 3,15.642136 6.3578644,19 10.5,19 14.642136,19 18,15.642136 18,11.5 18,7.3578644 14.642136,4 10.5,4 Z M 6,7 h 3 1 v 1 3 1 H 7.3434607 L 7,12.352507 v 0 2.227496 L 7.389857,15 v 0 H 10 v 1 H 6 v -1 -3 -1 h 1 1.6715821 v 0 L 9,10.633105 v -2.3576077 0 L 8.6638064,8 H 6 Z m 5,0 h 1 v 3.587533 L 12.383091,11 v 0 h 1.272342 v 0 L 14,10.598344 V 7 h 1 v 4 1 4 h -1 v -3.670869 0 L 13.633076,12 H 11 v -1 z"
     id="path5"
     sodipodi:nodetypes="sssssccccccccccccccccccccccccccccccccccccccccccccccc" />
</svg>
