<?xml version="1.0" encoding="UTF-8" standalone="no"?>
<svg
   width="22"
   height="22"
   version="1.1"
   viewBox="0 0 22 22"
   id="svg7"
   sodipodi:docname="stock_xfburn-blank-cdrw.svg"
   inkscape:version="1.1.2 (0a00cf5339, 2022-02-04)"
   xmlns:inkscape="http://www.inkscape.org/namespaces/inkscape"
   xmlns:sodipodi="http://sodipodi.sourceforge.net/DTD/sodipodi-0.dtd"
   xmlns="http://www.w3.org/2000/svg"
   xmlns:svg="http://www.w3.org/2000/svg">
  <sodipodi:namedview
     id="namedview9"
     pagecolor="#000000"
     bordercolor="#666666"
     borderopacity="1.0"
     inkscape:pageshadow="2"
     inkscape:pageopacity="0"
     inkscape:pagecheckerboard="0"
     showgrid="false"
     inkscape:zoom="37.590909"
     inkscape:cx="11.026602"
     inkscape:cy="10.986699"
     inkscape:window-width="1872"
     inkscape:window-height="895"
     inkscape:window-x="0"
     inkscape:window-y="35"
     inkscape:window-maximized="1"
     inkscape:current-layer="svg7" />
  <defs
     id="defs3">
    <style
       id="current-color-scheme"
       type="text/css">
   .ColorScheme-Text { color:#eeeeec; } .ColorScheme-Highlight { color:#367bf0; } .ColorScheme-NeutralText { color:#ffcc44; } .ColorScheme-PositiveText { color:#3db47e; } .ColorScheme-NegativeText { color:#dd4747; }
  </style>
  </defs>
  <path
     style="fill:currentColor"
     class="ColorScheme-Text"
     d="m 11,3 c -4.418278,0 -8,3.581722 -8,8 0,4.418278 3.581722,8 8,8 4.418278,0 8,-3.581722 8,-8 0,-4.418278 -3.581722,-8 -8,-8 z m -3.1245891,4.0542766 0.6196921,0.026764 2.286905,2.2869058 v 0 l 0.46833,-0.032346 2.290721,-2.2907214 v 0 l 0.659675,0.085542 0.781219,0.7812187 v 0 l -0.07783,0.5982998 -2.306389,2.3063885 v 0 l 0.04608,0.413422 2.247008,2.247008 0.02829,0.674443 v 0 l -0.796819,0.796819 v 0 l -0.668605,-0.08027 -2.183886,-2.183886 v 0 l -0.480842,-0.05876 -2.3060467,2.306047 v 0 l -0.6565501,-0.03448 -0.7790496,-0.77905 v 0 l 0.00628,-0.585275 2.3082689,-2.308269 v 0 L 9.3412241,10.755287 7.0547809,8.4688434 7.0464529,7.8832346 v 0 z"
     id="path5"
     sodipodi:nodetypes="ssssscccccccccccccccccccccccccccccccccccc" />
</svg>
