<?xml version="1.0" encoding="UTF-8" standalone="no"?>
<svg
   width="22"
   height="22"
   version="1.1"
   id="svg9"
   sodipodi:docname="stock_xfburn-audio-cd.svg"
   inkscape:version="1.1.2 (0a00cf5339, 2022-02-04)"
   xmlns:inkscape="http://www.inkscape.org/namespaces/inkscape"
   xmlns:sodipodi="http://sodipodi.sourceforge.net/DTD/sodipodi-0.dtd"
   xmlns="http://www.w3.org/2000/svg"
   xmlns:svg="http://www.w3.org/2000/svg">
  <sodipodi:namedview
     id="namedview11"
     pagecolor="#000000"
     bordercolor="#666666"
     borderopacity="1.0"
     inkscape:pageshadow="2"
     inkscape:pageopacity="0"
     inkscape:pagecheckerboard="0"
     showgrid="false"
     inkscape:zoom="66"
     inkscape:cx="10.992424"
     inkscape:cy="11"
     inkscape:window-width="1872"
     inkscape:window-height="895"
     inkscape:window-x="0"
     inkscape:window-y="35"
     inkscape:window-maximized="1"
     inkscape:current-layer="g7" />
  <defs
     id="defs3">
    <style
       id="current-color-scheme"
       type="text/css">
   .ColorScheme-Text { color:#eeeeec; } .ColorScheme-Highlight { color:#367bf0; } .ColorScheme-NeutralText { color:#ffcc44; } .ColorScheme-PositiveText { color:#3db47e; } .ColorScheme-NegativeText { color:#dd4747; }
  </style>
  </defs>
  <g
     transform="translate(3,3)"
     id="g7">
    <path
       style="fill:currentColor"
       class="ColorScheme-Text"
       d="m 6,3 v 6.0336415 0 C 5.9347515,8.9958352 5.8676125,9.1977199 5.7989263,9.1676709 5.5477133,9.0577697 5.2758044,9.0003702 5,9 3.8954305,9 3,9.8954305 3,11 c 0,1.104569 0.8954305,2 2,2 1.1045695,0 2,-0.895431 2,-2 V 5 h 4 v 4.0487958 l -0.199655,0.1194965 c -0.0648,-0.037546 0.06819,0.029896 0,0 C 10.548737,9.0579861 10.276324,9.0003709 10,9 8.8954305,9 8,9.8954305 8,11 c 0,1.104569 0.8954305,2 2,2 1.104569,0 2,-0.895431 2,-2 V 3 Z m 10,5 c 0,4.418278 -3.581722,8 -8,8 C 3.581722,16 0,12.418278 0,8 0,3.581722 3.581722,0 8,0 c 4.418278,0 8,3.581722 8,8 z"
       id="path5"
       sodipodi:nodetypes="cccscsssccccscsssccsssss" />
  </g>
</svg>
