<?xml version="1.0" encoding="UTF-8" standalone="no"?>
<svg
   width="22"
   height="22"
   version="1.1"
   id="svg11"
   sodipodi:docname="stock_print-preview.svg"
   inkscape:version="1.1.2 (0a00cf5339, 2022-02-04)"
   xmlns:inkscape="http://www.inkscape.org/namespaces/inkscape"
   xmlns:sodipodi="http://sodipodi.sourceforge.net/DTD/sodipodi-0.dtd"
   xmlns="http://www.w3.org/2000/svg"
   xmlns:svg="http://www.w3.org/2000/svg">
  <sodipodi:namedview
     id="namedview13"
     pagecolor="#000000"
     bordercolor="#666666"
     borderopacity="1.0"
     inkscape:pageshadow="2"
     inkscape:pageopacity="0"
     inkscape:pagecheckerboard="0"
     showgrid="false"
     inkscape:zoom="37.590909"
     inkscape:cx="10.960097"
     inkscape:cy="11"
     inkscape:window-width="978"
     inkscape:window-height="845"
     inkscape:window-x="352"
     inkscape:window-y="231"
     inkscape:window-maximized="1"
     inkscape:current-layer="g9" />
  <defs
     id="defs3">
    <style
       id="current-color-scheme"
       type="text/css">
   .ColorScheme-Text { color:#eeeeec; } .ColorScheme-Highlight { color:#367bf0; } .ColorScheme-NeutralText { color:#ffcc44; } .ColorScheme-PositiveText { color:#3db47e; } .ColorScheme-NegativeText { color:#dd4747; }
  </style>
  </defs>
  <g
     transform="translate(3,3)"
     id="g9">
    <path
       style="fill:currentColor"
       class="ColorScheme-Text"
       d="m 4,1 v 2 h 8 V 1 Z M 2,4 C 2,4 1,4 1,5 v 4 c 0,1 1,1 1,1 H 3 V 8.3063683 L 3.4043798,8 V 8 H 7.7324 C 8.4209,7.2393 9.4045,6.75 10.5,6.75 c 1.875,0 3.435,1.4133 3.697,3.2207 C 14.488,9.9143 15,9.72 15,9 V 5 C 15,4 14,4 14,4 Z m 2,5.3383765 v 0 4.1832495 L 4.4821301,14 v 0 h 3.8657473 v 0 C 8.123418,13.915215 8.7562071,13.809612 8.5539073,13.685582 7.4772963,13.025511 6.75,11.843543 6.75,10.5 c 0,-0.428018 0.076022,-0.8388692 0.2119433,-1.2229114 0.033275,-0.094017 -0.040218,0.090662 0,0 L 6.7625409,9 4.2534592,9 Z"
       id="path5"
       sodipodi:nodetypes="ccccccssccccccscsscccccccccssscccc" />
    <path
       style="fill:currentColor"
       class="ColorScheme-Text"
       d="M 11.5,12.5 13.778,14.778 C 13.778,14.778 14.278,15.278 14.778,14.778 15.278,14.278 14.778,13.778 14.778,13.778 L 12.5,11.5 Z M 7.75,10.5 C 7.75,12 9,13.25 10.5,13.25 12,13.25 13.25,12 13.25,10.5 13.25,9 12,7.75 10.5,7.75 9,7.75 7.75,9 7.75,10.5 Z M 10.5,8.75 C 11.5,8.75 12.25,9.5 12.25,10.5 12.25,11.5 11.5,12.25 10.5,12.25 9.5,12.25 8.75,11.5 8.75,10.5 8.75,9.5 9.5,8.75 10.5,8.75 Z"
       id="path7" />
  </g>
</svg>
