<?xml version="1.0" encoding="UTF-8" standalone="no"?>
<svg
   width="22"
   height="22"
   version="1.1"
   id="svg9"
   sodipodi:docname="stock_print-setup.svg"
   inkscape:version="1.1.2 (0a00cf5339, 2022-02-04)"
   xmlns:inkscape="http://www.inkscape.org/namespaces/inkscape"
   xmlns:sodipodi="http://sodipodi.sourceforge.net/DTD/sodipodi-0.dtd"
   xmlns="http://www.w3.org/2000/svg"
   xmlns:svg="http://www.w3.org/2000/svg">
  <sodipodi:namedview
     id="namedview11"
     pagecolor="#000000"
     bordercolor="#666666"
     borderopacity="1.0"
     inkscape:pageshadow="2"
     inkscape:pageopacity="0"
     inkscape:pagecheckerboard="0"
     showgrid="false"
     inkscape:zoom="75.181818"
     inkscape:cx="10.986699"
     inkscape:cy="10.993349"
     inkscape:window-width="1916"
     inkscape:window-height="1047"
     inkscape:window-x="2"
     inkscape:window-y="31"
     inkscape:window-maximized="1"
     inkscape:current-layer="g7" />
  <defs
     id="defs3">
    <style
       id="current-color-scheme"
       type="text/css">
   .ColorScheme-Text { color:#eeeeec; } .ColorScheme-Highlight { color:#367bf0; } .ColorScheme-NeutralText { color:#ffcc44; } .ColorScheme-PositiveText { color:#3db47e; } .ColorScheme-NegativeText { color:#dd4747; }
  </style>
  </defs>
  <g
     transform="translate(3,3)"
     id="g7">
    <path
       style="fill:currentColor"
       class="ColorScheme-Text"
       d="M 3,1 C 3,1 2,1 2,2 V 4.75 L 3.7813783,5.8633614 4,5.7563664 v 0 -2.4201203 0 L 4.3642315,3 H 11.76715 V 3 L 12,3.3271493 12,12 11.400381,11.650222 11.250372,11.562717 0.47569594,5.2774893 0.19152057,5.3431947 0,5.5470821 V 11.577333 L 0.45023565,12 v 0 H 11.144253 v 0 l 0.147025,-0.112359 v 0 l -0.0015,-0.226887 -0.03944,-0.09804 L 12,12 v 0.67245 0 L 11.709216,13 H 2 v 1 c 0,1 1,1 1,1 h 10 c 0,0 1,0 1,-1 V 2 C 14,1 13,1 13,1 Z M 2.2777784,8.1851856 v 0 L 4.6784741,9.7856494 4.6204057,10 v 0 H 2.3198626 v 0 L 2,9.7044317 V 8.3253961 Z"
       id="path5"
       sodipodi:nodetypes="csccccccccccccccccccccccccccccccsccsscccccccccccc" />
  </g>
</svg>
