<?xml version="1.0" encoding="UTF-8" standalone="no"?>
<svg
   width="22"
   height="22"
   version="1.1"
   id="svg9"
   sodipodi:docname="stock_new-tab.svg"
   inkscape:version="1.1.2 (0a00cf5339, 2022-02-04)"
   xmlns:inkscape="http://www.inkscape.org/namespaces/inkscape"
   xmlns:sodipodi="http://sodipodi.sourceforge.net/DTD/sodipodi-0.dtd"
   xmlns="http://www.w3.org/2000/svg"
   xmlns:svg="http://www.w3.org/2000/svg">
  <sodipodi:namedview
     id="namedview11"
     pagecolor="#000000"
     bordercolor="#666666"
     borderopacity="1.0"
     inkscape:pageshadow="2"
     inkscape:pageopacity="0"
     inkscape:pagecheckerboard="0"
     showgrid="false"
     inkscape:zoom="37.590909"
     inkscape:cx="10.960097"
     inkscape:cy="11.013301"
     inkscape:window-width="1000"
     inkscape:window-height="872"
     inkscape:window-x="668"
     inkscape:window-y="204"
     inkscape:window-maximized="1"
     inkscape:current-layer="g7" />
  <defs
     id="defs3">
    <style
       id="current-color-scheme"
       type="text/css">
   .ColorScheme-Text { color:#eeeeec; } .ColorScheme-Highlight { color:#367bf0; } .ColorScheme-NeutralText { color:#ffcc44; } .ColorScheme-PositiveText { color:#3db47e; } .ColorScheme-NegativeText { color:#dd4747; }
  </style>
  </defs>
  <g
     transform="translate(3,3)"
     id="g7">
    <path
       style="fill:currentColor"
       class="ColorScheme-Text"
       d="M 4,2 C 4,2 2,2 2,4 v 7 c 0,1 -1,1 -1,1 H 0.28474856 L 0,12.323159 v 0 V 14 h 16 v -1.693594 0 L 15.604069,12 H 15 c 0,0 -1,0 -1,-1 V 4 C 14,4 14,2 12,2 Z M 7,5 H 9 V 6.7000768 L 9.3144599,7 V 7 H 11 V 9 H 9.2975251 V 9 L 9,9.2616371 V 11 H 7 v -1.7717552 0 L 6.7805377,9 H 5 V 7 H 6.754231 V 7 L 7,6.7057759 Z"
       id="path5"
       sodipodi:nodetypes="cssccccccccccscscccccccccccccccccccccc" />
  </g>
</svg>
