<?xml version="1.0" encoding="UTF-8" standalone="no"?>
<svg
   width="22"
   height="22"
   version="1.1"
   viewBox="0 0 22 22"
   id="svg7"
   sodipodi:docname="stock_xfburn.svg"
   inkscape:version="1.1.2 (0a00cf5339, 2022-02-04)"
   xmlns:inkscape="http://www.inkscape.org/namespaces/inkscape"
   xmlns:sodipodi="http://sodipodi.sourceforge.net/DTD/sodipodi-0.dtd"
   xmlns="http://www.w3.org/2000/svg"
   xmlns:svg="http://www.w3.org/2000/svg">
  <sodipodi:namedview
     id="namedview9"
     pagecolor="#000000"
     bordercolor="#666666"
     borderopacity="1.0"
     inkscape:pageshadow="2"
     inkscape:pageopacity="0"
     inkscape:pagecheckerboard="0"
     showgrid="false"
     inkscape:zoom="75.181818"
     inkscape:cx="6.331318"
     inkscape:cy="17.377872"
     inkscape:window-width="1920"
     inkscape:window-height="1051"
     inkscape:window-x="0"
     inkscape:window-y="29"
     inkscape:window-maximized="1"
     inkscape:current-layer="svg7" />
  <defs
     id="defs3">
    <style
       id="current-color-scheme"
       type="text/css">
   .ColorScheme-Text { color:#eeeeec; } .ColorScheme-Highlight { color:#367bf0; } .ColorScheme-NeutralText { color:#ffcc44; } .ColorScheme-PositiveText { color:#3db47e; } .ColorScheme-NegativeText { color:#dd4747; }
  </style>
  </defs>
  <path
     style="fill:currentColor"
     class="ColorScheme-Text"
     d="m 11,3 c -4.418278,0 -8,3.581722 -8,8 0,4.418278 3.581722,8 8,8 4.418278,0 8,-3.581722 8,-8 0,-4.418278 -3.581722,-8 -8,-8 z m 1.129075,2.0864374 c 0,0.196174 0.421,0.2103168 0.430907,0.3952861 0.279304,5.2147365 4.337575,6.0938085 3.256424,9.2448385 -0.515637,1.502878 -1.632367,2.714113 -3.472126,3.123907 -0.437297,0.0974 -1.169997,-0.297973 -1.436077,0.149531 -0.199323,0.335228 1.486558,-0.410224 1.013322,0.0027 0.541696,-0.003 -0.04783,-0.121902 0.316142,-0.320282 0.537734,-0.293087 0.88947,-0.765498 1.07874,-1.317135 0.534115,-1.556547 -1.440956,-2.00599 -1.623324,-4.531109 -0.0088,-0.121431 -0.325988,-0.111239 -0.325988,-0.242624 -0.106436,0.04257 0.101941,-0.0483 0,0 -1.8570045,0.879796 -2.958891,2.670413 -2.958891,3.955374 0,0.857267 0.4398369,1.609592 1.1061199,2.046932 0.244325,0.160372 -0.3906249,0.0819 -0.095923,0.147203 -0.3131261,-0.03739 0.2923942,0.09269 0,0 -1.979975,-0.627689 -3.4184014,-2.460693 -3.4184014,-4.649213 0,-2.617855 2.2881944,-6.2834651 6.1290755,-8.0053596 0.136661,-0.061266 -0.140559,0.05621 0,0 z"
     id="path5"
     sodipodi:nodetypes="ssssscscsscscscssscsssc" />
</svg>
