<?xml version="1.0" encoding="UTF-8" standalone="no"?>
<svg
   width="22"
   height="22"
   version="1.1"
   id="svg9"
   sodipodi:docname="tag-recents.svg"
   inkscape:version="1.1.2 (0a00cf5339, 2022-02-04)"
   xmlns:inkscape="http://www.inkscape.org/namespaces/inkscape"
   xmlns:sodipodi="http://sodipodi.sourceforge.net/DTD/sodipodi-0.dtd"
   xmlns="http://www.w3.org/2000/svg"
   xmlns:svg="http://www.w3.org/2000/svg">
  <sodipodi:namedview
     id="namedview11"
     pagecolor="#000000"
     bordercolor="#666666"
     borderopacity="1.0"
     inkscape:pageshadow="2"
     inkscape:pageopacity="0"
     inkscape:pagecheckerboard="0"
     showgrid="false"
     inkscape:zoom="128"
     inkscape:cx="9.34375"
     inkscape:cy="8.8867188"
     inkscape:window-width="1920"
     inkscape:window-height="1051"
     inkscape:window-x="0"
     inkscape:window-y="29"
     inkscape:window-maximized="1"
     inkscape:current-layer="g7" />
  <defs
     id="defs3">
    <style
       id="current-color-scheme"
       type="text/css">
   .ColorScheme-Text { color:#eeeeec; } .ColorScheme-Highlight { color:#367bf0; } .ColorScheme-NeutralText { color:#ffcc44; } .ColorScheme-PositiveText { color:#3db47e; } .ColorScheme-NegativeText { color:#dd4747; }
  </style>
  </defs>
  <g
     transform="translate(3,3)"
     id="g7">
    <path
       style="fill:currentColor"
       class="ColorScheme-Text"
       d="M 4,1 C 4,1 2,1 2,3 v 4.8836999 l 0.027395,0.1084716 0.051572,0.086796 6.7641294,6.7641295 0.1619732,0.0125 0.1812614,-0.04193 6.496315,-6.4963133 0.10086,-0.2966791 L 15.697083,7.6970833 9.0789737,1.0789737 8.9803872,1.0273399 8.8757672,1 Z m 4,2 c 2.209139,0 4,1.790861 4,4 0,2.209139 -1.790861,4 -4,4 C 5.790861,11 4,9.209139 4,7 4,4.790861 5.790861,3 8,3 Z M 8,4 C 6.3431458,4 5,5.3431458 5,7 5,8.6568542 6.3431458,10 8,10 9.6568542,10 11,8.6568542 11,7 11,5.3431458 9.6568542,4 8,4 Z M 7.0752808,5.1081293 v 0 L 7.1263142,5.057406 7.2939391,5 V 5 H 7.8442404 V 5 L 8,5.2138065 V 6.688766 6.8130574 6.688766 L 8.0666088,6.891622 8.2754679,7 V 7 7 7 H 8.7305865 V 7 L 8.9200435,7.0846033 9,7.1635493 v 0 0.5144063 L 8.9195851,7.882472 v 0 L 8.782837,8 V 8 H 7.4061079 7.2276545 V 8 8 H 7.4061079 L 7.1760974,7.8829982 7.1047592,7.7211056 v 0 0 L 7.045558,7.4024525 7,5.351023 Z"
       id="path5"
       sodipodi:nodetypes="cscccccccccccccsssssssssscccccccccccccccccccccccccccccccccccccc" />
  </g>
</svg>
