<?xml version="1.0" encoding="UTF-8" standalone="no"?>
<svg
   width="22"
   height="22"
   version="1.1"
   id="svg11"
   sodipodi:docname="text-unkern.svg"
   inkscape:version="1.1.2 (0a00cf5339, 2022-02-04)"
   xmlns:inkscape="http://www.inkscape.org/namespaces/inkscape"
   xmlns:sodipodi="http://sodipodi.sourceforge.net/DTD/sodipodi-0.dtd"
   xmlns="http://www.w3.org/2000/svg"
   xmlns:svg="http://www.w3.org/2000/svg">
  <sodipodi:namedview
     id="namedview13"
     pagecolor="#ffffff"
     bordercolor="#666666"
     borderopacity="1.0"
     inkscape:pageshadow="2"
     inkscape:pageopacity="0.0"
     inkscape:pagecheckerboard="0"
     showgrid="false"
     inkscape:zoom="34.272727"
     inkscape:cx="11"
     inkscape:cy="11"
     inkscape:window-width="1697"
     inkscape:window-height="966"
     inkscape:window-x="0"
     inkscape:window-y="29"
     inkscape:window-maximized="1"
     inkscape:current-layer="g9" />
  <defs
     id="defs3">
    <style
       id="current-color-scheme"
       type="text/css">
   .ColorScheme-Text { color:#eeeeec; } .ColorScheme-Highlight { color:#367bf0; } .ColorScheme-NeutralText { color:#ffcc44; } .ColorScheme-PositiveText { color:#3db47e; } .ColorScheme-NegativeText { color:#dd4747; }
  </style>
  </defs>
  <g
     transform="translate(3,3.1754216)"
     id="g9">
    <path
       style="fill:currentColor"
       class="ColorScheme-Text"
       d="m 8,5 h 1 v 8 H 8 Z M 1,5 h 1 v 8 H 1 Z m 9,5.398834 v 0 V 11.414 L 11.586,13 10,14.586 v 0.977138 L 10.399,16 v 0 h 1.015 L 13,14.414 14.586,16 h 1.035162 v 0 L 16,15.708879 V 14.586 L 14.414,13 16,11.414 V 10.369595 L 15.592454,10 v 0 H 14.586 L 13,11.586 11.414,10 H 10.369536 Z M 1,1 v 2.658834 l 0.3329153,0.00825 v 0 L 2,3 H 4 V 9 L 3.246919,9.753081 3.3960751,10 v 0 h 3.2676285 v 0 L 6.7395288,9.7395288 6,9 V 3 H 8 L 8.7702954,3.7702954 9,3.7465452 v 0 V 1 Z"
       id="path5"
       sodipodi:nodetypes="cccccccccccccccccccccccccccccccccccccccccccccccccccccccc" />
    <path
       style="opacity:0.35;fill:currentColor"
       class="ColorScheme-Text"
       d="m 3,12 h 4 v 1 H 3 Z"
       id="path7" />
  </g>
</svg>
