<?xml version="1.0" encoding="UTF-8" standalone="no"?>
<svg
   width="22"
   height="22"
   version="1.1"
   id="svg9"
   sodipodi:docname="text-orientation-auto.svg"
   inkscape:version="1.1.2 (0a00cf5339, 2022-02-04)"
   xmlns:inkscape="http://www.inkscape.org/namespaces/inkscape"
   xmlns:sodipodi="http://sodipodi.sourceforge.net/DTD/sodipodi-0.dtd"
   xmlns="http://www.w3.org/2000/svg"
   xmlns:svg="http://www.w3.org/2000/svg">
  <sodipodi:namedview
     id="namedview11"
     pagecolor="#000000"
     bordercolor="#666666"
     borderopacity="1.0"
     inkscape:pageshadow="2"
     inkscape:pageopacity="0"
     inkscape:pagecheckerboard="0"
     showgrid="false"
     inkscape:zoom="34.272727"
     inkscape:cx="11.014589"
     inkscape:cy="11"
     inkscape:window-width="1872"
     inkscape:window-height="895"
     inkscape:window-x="0"
     inkscape:window-y="35"
     inkscape:window-maximized="1"
     inkscape:current-layer="g7" />
  <defs
     id="defs3">
    <style
       id="current-color-scheme"
       type="text/css">
   .ColorScheme-Text { color:#eeeeec; } .ColorScheme-Highlight { color:#367bf0; } .ColorScheme-NeutralText { color:#ffcc44; } .ColorScheme-PositiveText { color:#3db47e; } .ColorScheme-NegativeText { color:#dd4747; }
  </style>
  </defs>
  <g
     transform="translate(3,3)"
     id="g7">
    <path
       style="fill:currentColor"
       class="ColorScheme-Text"
       d="M 2,1 V 12 H 0.62436277 v 0 L 0.46475766,12.619677 2.6284576,15.50461 v 0 L 3.4151275,15.446497 5.5929277,12.542763 5.292853,12 v 0 H 4 V 1 Z m 5,10 v 1 h 2 v 3 H 7 v 1 h 5 c 2,0 2,-2.5 2,-2.5 0,0 0,-2.5 -2,-2.5 z m 3.281921,1 v 0 H 11.5 c 1.5,0 1.5,1.5 1.5,1.5 0,0 0,1.5 -1.5,1.5 h -1.072287 v 0 L 10,14.717098 10,12.412389 Z M 8.5,3 C 8.5,3 8,3 8,3.5 8,4 8.5,4 8.5,4 h 2.599205 l 0.145284,0.2129258 v 0 L 10,5.25 V 6 H 6.5 C 6.5,6 6,6 6,6.5 6,7 6.5,7 6.5,7 H 10 V 9 H 8.5 C 8.5,9 8,9 8,9.5 8,10 8.5,10 8.5,10 H 10 c 0,0 1,0 1,-1 V 7 h 3.5 C 14.5,7 15,7 15,6.5 15,6 14.5,6 14.5,6 H 11 V 5.75 C 11,5.75 13,4.5 13,4 13,3 12,3 12,3 Z m 1,-3 C 9,0 9,0.5 9,0.5 V 1 H 6.5 C 6,1 6,1.5 6,1.5 v 1 C 6,2.5 6,3 6.5,3 7,3 7,2.5 7,2.5 V 2 h 7 V 2.5 C 14,2.5 14,3 14.5,3 15,3 15,2.5 15,2.5 v -1 C 15,1.5 15,1 14.5,1 H 10 V 0.5 C 10,0.5 10,0 9.5,0 Z"
       id="path5"
       sodipodi:nodetypes="ccccccccccccccccccccscscccscsccccccscccccccsccccsccsccscccsccsccsccsccccsccsccs" />
  </g>
</svg>
