<?xml version="1.0" encoding="UTF-8" standalone="no"?>
<svg
   width="22"
   height="22"
   version="1.1"
   id="svg9"
   sodipodi:docname="text_superscript.svg"
   inkscape:version="1.1.2 (0a00cf5339, 2022-02-04)"
   xmlns:inkscape="http://www.inkscape.org/namespaces/inkscape"
   xmlns:sodipodi="http://sodipodi.sourceforge.net/DTD/sodipodi-0.dtd"
   xmlns="http://www.w3.org/2000/svg"
   xmlns:svg="http://www.w3.org/2000/svg">
  <sodipodi:namedview
     id="namedview11"
     pagecolor="#ffffff"
     bordercolor="#666666"
     borderopacity="1.0"
     inkscape:pageshadow="2"
     inkscape:pageopacity="0.0"
     inkscape:pagecheckerboard="0"
     showgrid="false"
     inkscape:zoom="34.272727"
     inkscape:cx="11"
     inkscape:cy="11"
     inkscape:window-width="1697"
     inkscape:window-height="966"
     inkscape:window-x="0"
     inkscape:window-y="29"
     inkscape:window-maximized="1"
     inkscape:current-layer="g7" />
  <defs
     id="defs3">
    <style
       id="current-color-scheme"
       type="text/css">
   .ColorScheme-Text { color:#eeeeec; } .ColorScheme-Highlight { color:#367bf0; } .ColorScheme-NeutralText { color:#ffcc44; } .ColorScheme-PositiveText { color:#3db47e; } .ColorScheme-NegativeText { color:#dd4747; }
  </style>
  </defs>
  <g
     transform="translate(3,3)"
     id="g7">
    <path
       style="fill:currentColor"
       class="ColorScheme-Text"
       d="m 11,0 v 6 h 3 C 16,6 16,4 16,4 16,4 16,2.709 14.828,2.184 14.828,2.184 15,2 15,1.5 15,1.5 15,0 13.5,0 Z m 1,1 h 1.5 C 14,1 14,1.5 14,1.5 14,1.5 14,2 13.5,2 H 12 Z m 0,2 h 2 c 1,0 1,1 1,1 0,0 0,1 -1,1 H 12 Z M 7,1 2,15 h 2.5 l 1.0625,-3 h 4.8755 l 1.062,3 h 2.75 L 9,1 Z m 1.232677,4.6647915 v 0 L 9.5896078,9.5417367 9.2898959,10 v 0 H 6.7808098 v 0 L 6.4064452,9.5530138 7.7654749,5.6700717 Z"
       id="path5"
       sodipodi:nodetypes="ccscccsccscscccscsccccccccccccccccccccc" />
  </g>
</svg>
