<?xml version="1.0" encoding="UTF-8" standalone="no"?>
<svg
   width="22"
   height="22"
   version="1.1"
   id="svg9"
   sodipodi:docname="text-orientation-sideways.svg"
   inkscape:version="1.1.2 (0a00cf5339, 2022-02-04)"
   xmlns:inkscape="http://www.inkscape.org/namespaces/inkscape"
   xmlns:sodipodi="http://sodipodi.sourceforge.net/DTD/sodipodi-0.dtd"
   xmlns="http://www.w3.org/2000/svg"
   xmlns:svg="http://www.w3.org/2000/svg">
  <sodipodi:namedview
     id="namedview11"
     pagecolor="#000000"
     bordercolor="#666666"
     borderopacity="1.0"
     inkscape:pageshadow="2"
     inkscape:pageopacity="0"
     inkscape:pagecheckerboard="0"
     showgrid="false"
     inkscape:zoom="34.272727"
     inkscape:cx="11.014589"
     inkscape:cy="11"
     inkscape:window-width="1872"
     inkscape:window-height="895"
     inkscape:window-x="0"
     inkscape:window-y="35"
     inkscape:window-maximized="1"
     inkscape:current-layer="g7" />
  <defs
     id="defs3">
    <style
       id="current-color-scheme"
       type="text/css">
   .ColorScheme-Text { color:#eeeeec; } .ColorScheme-Highlight { color:#367bf0; } .ColorScheme-NeutralText { color:#ffcc44; } .ColorScheme-PositiveText { color:#3db47e; } .ColorScheme-NegativeText { color:#dd4747; }
  </style>
  </defs>
  <g
     transform="translate(3,3)"
     id="g7">
    <path
       style="fill:currentColor"
       class="ColorScheme-Text"
       d="M 2,2 V 12 H 0.77008397 l -0.28443226,0.647536 v 0 l 2.18147779,2.908637 0.6849682,-0.02564 v 0 L 5.5963572,12.53819 5.3215321,12 v 0 H 4 V 2 Z m 5,9 v 1 h 2 v 3 H 7 v 1 h 5 c 2,0 2,-2.5 2,-2.5 0,0 0,-2.5 -2,-2.5 z m 3.369062,1 v 0 H 11.5 c 1.5,0 1.5,1.5 1.5,1.5 0,0 0,1.5 -1.5,1.5 h -1.218079 v 0 L 10,14.65873 10,12.383204 Z M 13,3.5 C 13,3.5 13,3 12.5,3 12,3 12,3.5 12,3.5 v 2.522596 0 L 11.704288,6.1451452 10.75,5 H 10 V 1.5 C 10,1.5 10,1 9.5,1 9,1 9,1.5 9,1.5 V 5 H 7 V 3.5 C 7,3.5 7,3 6.5,3 6,3 6,3.5 6,3.5 V 5 C 6,5 6,6 7,6 H 9 V 9.5 C 9,9.5 9,10 9.5,10 10,10 10,9.5 10,9.5 V 6 h 0.25 c 0,0 1.25,2 1.75,2 1,0 1,-1 1,-1 z m 3,1 C 16,4 15.5,4 15.5,4 H 15 V 1.5 C 15,1 14.5,1 14.5,1 h -1 C 13.5,1 13,1 13,1.5 13,2 13.5,2 13.5,2 H 14 V 9 H 13.5 C 13.5,9 13,9 13,9.5 13,10 13.5,10 13.5,10 h 1 c 0,0 0.5,0 0.5,-0.5 V 5 h 0.5 c 0,0 0.5,0 0.5,-0.5 z"
       id="path5"
       sodipodi:nodetypes="ccccccccccccccccccccscscccscsccccccscccccccsccccsccsccscccsccsccsccsccccsccsccs" />
  </g>
</svg>
