<?xml version="1.0" encoding="UTF-8" standalone="no"?>
<svg
   width="22"
   height="22"
   version="1.1"
   id="svg13"
   sodipodi:docname="tools-check-spelling.svg"
   inkscape:version="1.1.2 (0a00cf5339, 2022-02-04)"
   xmlns:inkscape="http://www.inkscape.org/namespaces/inkscape"
   xmlns:sodipodi="http://sodipodi.sourceforge.net/DTD/sodipodi-0.dtd"
   xmlns="http://www.w3.org/2000/svg"
   xmlns:svg="http://www.w3.org/2000/svg">
  <sodipodi:namedview
     id="namedview15"
     pagecolor="#000000"
     bordercolor="#666666"
     borderopacity="1.0"
     inkscape:pageshadow="2"
     inkscape:pageopacity="0"
     inkscape:pagecheckerboard="0"
     showgrid="false"
     inkscape:zoom="34.272727"
     inkscape:cx="10.985411"
     inkscape:cy="11"
     inkscape:window-width="1880"
     inkscape:window-height="966"
     inkscape:window-x="0"
     inkscape:window-y="29"
     inkscape:window-maximized="1"
     inkscape:current-layer="g11" />
  <defs
     id="defs3">
    <style
       id="current-color-scheme"
       type="text/css">
   .ColorScheme-Text { color:#eeeeec; } .ColorScheme-Highlight { color:#367bf0; } .ColorScheme-NeutralText { color:#ffcc44; } .ColorScheme-PositiveText { color:#3db47e; } .ColorScheme-NegativeText { color:#dd4747; }
  </style>
  </defs>
  <g
     transform="matrix(1,0,0,1,3,3)"
     id="g11">
    <path
       style="fill:currentColor"
       class="ColorScheme-Text"
       d="m 2.7113707,11.581566 v 0 L 0.64648,13.646 c -0.47612893,0.471339 0.23502186,1.183476 0.70702,0.708 l 1.452016,-1.452457 v 0 l 0.4640365,0.07501 1.4881082,1.488108 v 0 l 0.4418444,0.04283 1.5608406,-1.560841 v 0 l 0.5369942,0.05769 1.458674,1.458674 0.5149659,-0.02699 v 0 l 1.5026992,-1.502699 0.49311,0.04047 v 0 l 1.444055,1.444055 v 0 L 13.255088,14.45202 15.354,12.354 c 0.472,-0.472 -0.236,-1.18 -0.708,-0.708 l -1.441552,1.442427 v 0 l -0.50097,-0.09195 -1.488299,-1.488299 -0.462733,0.03238 v 0 L 9.2496901,13.04331 v 0 L 8.7047654,12.997765 7.2749958,11.567996 6.7538131,11.539187 v 0 l -1.5317136,1.531714 v 0 L 4.7206405,13.01364 3.3201082,11.613108 Z"
       id="path5"
       sodipodi:nodetypes="ccccccccccccccccccccccccccccccccccccccccc" />
    <path
       style="fill:currentColor"
       class="ColorScheme-Text"
       d="M 8,2 V 11 H 11 C 12.662,11 14,9.662 14,8 14,6.338 12.662,5 11,5 H 10 V 2 Z M 10,7 H 11 C 11.554,7 12,7.446 12,8 12,8.554 11.554,9 11,9 H 10 Z"
       id="path7" />
    <path
       style="fill:currentColor"
       class="ColorScheme-Text"
       d="M 2,3 V 5 H 5 V 6 H 4 C 2.338,6 1,7.115 1,8.5 1,9.885 2.338,11 4,11 H 7 V 5 C 7,3.892 6.108,3 5,3 Z M 3.5,8 H 5 V 9 H 3.5 C 3.223,9 3,8.777 3,8.5 3,8.223 3.223,8 3.5,8 Z"
       id="path9" />
  </g>
</svg>
