<?xml version="1.0" encoding="UTF-8" standalone="no"?>
<svg
   width="22"
   height="22"
   version="1.1"
   id="svg9"
   sodipodi:docname="tools-media-optical-copy.svg"
   inkscape:version="1.1.2 (0a00cf5339, 2022-02-04)"
   xmlns:inkscape="http://www.inkscape.org/namespaces/inkscape"
   xmlns:sodipodi="http://sodipodi.sourceforge.net/DTD/sodipodi-0.dtd"
   xmlns="http://www.w3.org/2000/svg"
   xmlns:svg="http://www.w3.org/2000/svg">
  <sodipodi:namedview
     id="namedview11"
     pagecolor="#000000"
     bordercolor="#666666"
     borderopacity="1.0"
     inkscape:pageshadow="2"
     inkscape:pageopacity="0"
     inkscape:pagecheckerboard="0"
     showgrid="false"
     inkscape:zoom="33"
     inkscape:cx="10.984848"
     inkscape:cy="11"
     inkscape:window-width="1872"
     inkscape:window-height="895"
     inkscape:window-x="0"
     inkscape:window-y="35"
     inkscape:window-maximized="1"
     inkscape:current-layer="g7" />
  <defs
     id="defs3">
    <style
       id="current-color-scheme"
       type="text/css">
   .ColorScheme-Text { color:#eeeeec; } .ColorScheme-Highlight { color:#367bf0; } .ColorScheme-NeutralText { color:#ffcc44; } .ColorScheme-PositiveText { color:#3db47e; } .ColorScheme-NegativeText { color:#dd4747; }
  </style>
  </defs>
  <g
     transform="translate(3,3)"
     id="g7">
    <path
       style="fill:currentColor"
       class="ColorScheme-Text"
       d="m 9,1 c -1.4727525,0.00226 -2.8849537,0.5456314 -3.9748128,1.5134347 -0.1652065,0.1467047 0.2913396,0.087157 0.1418586,0.2529601 0.2001242,-0.081696 -0.2092648,0.062069 0,0 C 5.7485199,2.5939279 6.3632558,2.5 7,2.5 c 3.584,0 6.5,2.9161 6.5,6.5 0,0.6417866 -0.09559,1.26116 -0.270472,1.846597 -0.06107,0.204436 0.297047,-0.02337 0.21733,0.172302 0.150786,-0.136054 -0.135017,0.149118 0,0 C 14.439179,9.9229499 14.997359,8.4926999 15,7 15,3.6863 12.314,1 9,1 Z M 7,3 C 3.6862915,3 1,5.6862915 1,9 c 0,3.313708 2.6862915,6 6,6 3.313708,0 6,-2.686292 6,-6 C 13,5.6862915 10.313708,3 7,3 Z M 7,7 C 8.1045695,7 9,7.8954305 9,9 9,10.104569 8.1045695,11 7,11 5.8954305,11 5,10.104569 5,9 5,7.8954305 5.8954305,7 7,7 Z"
       id="path5"
       sodipodi:nodetypes="cscsssscsccssssssssss" />
  </g>
</svg>
