<?xml version="1.0" encoding="UTF-8" standalone="no"?>
<svg
   width="22"
   height="22"
   version="1.1"
   id="svg9"
   sodipodi:docname="tools-rip-audio-cd.svg"
   inkscape:version="1.1.2 (0a00cf5339, 2022-02-04)"
   xmlns:inkscape="http://www.inkscape.org/namespaces/inkscape"
   xmlns:sodipodi="http://sodipodi.sourceforge.net/DTD/sodipodi-0.dtd"
   xmlns="http://www.w3.org/2000/svg"
   xmlns:svg="http://www.w3.org/2000/svg">
  <sodipodi:namedview
     id="namedview11"
     pagecolor="#000000"
     bordercolor="#666666"
     borderopacity="1.0"
     inkscape:pageshadow="2"
     inkscape:pageopacity="0"
     inkscape:pagecheckerboard="0"
     showgrid="false"
     inkscape:zoom="96.937911"
     inkscape:cx="10.991572"
     inkscape:cy="10.99673"
     inkscape:window-width="1872"
     inkscape:window-height="895"
     inkscape:window-x="0"
     inkscape:window-y="35"
     inkscape:window-maximized="1"
     inkscape:current-layer="g7" />
  <defs
     id="defs3">
    <style
       id="current-color-scheme"
       type="text/css">
   .ColorScheme-Text { color:#eeeeec; } .ColorScheme-Highlight { color:#367bf0; } .ColorScheme-NeutralText { color:#ffcc44; } .ColorScheme-PositiveText { color:#3db47e; } .ColorScheme-NegativeText { color:#dd4747; }
  </style>
  </defs>
  <g
     transform="translate(3,3)"
     id="g7">
    <path
       style="fill:currentColor"
       class="ColorScheme-Text"
       d="m 5,1.4709369 v 0 7.4109982 L 4.886541,9.1758 C 4.8178611,9.151191 4.86185,9.1291257 4.7917322,9.109629 4.5342075,9.0380231 4.2679455,9.0010667 4,9 2.3431458,9 1,10.343146 1,12 c 0,1.656854 1.3431458,3 3,3 1.6568542,0 3,-1.343146 3,-3 v -6.6777618 0 L 7.4225095,5 H 12.528888 L 13,5.4972172 v 0 3.4818578 l -0.142962,0.1495126 c -0.0473,-0.016946 0.048,0.014526 0,0 C 12.579342,9.0445473 12.290662,9.0011571 12,9 c -1.656854,0 -3,1.343146 -3,3 0,1.656854 1.343146,3 3,3 1.656854,0 3,-1.343146 3,-3 v -10.3833214 0 L 14.424868,1 H 5.4382714 Z"
       id="path5"
       sodipodi:nodetypes="ccccscsssccccccccscsssccccc" />
  </g>
</svg>
