<?xml version="1.0" encoding="UTF-8" standalone="no"?>
<svg
   width="22"
   height="22"
   version="1.1"
   id="svg7"
   sodipodi:docname="transform-browse.svg"
   inkscape:version="1.1.2 (0a00cf5339, 2022-02-04)"
   xmlns:inkscape="http://www.inkscape.org/namespaces/inkscape"
   xmlns:sodipodi="http://sodipodi.sourceforge.net/DTD/sodipodi-0.dtd"
   xmlns="http://www.w3.org/2000/svg"
   xmlns:svg="http://www.w3.org/2000/svg">
  <sodipodi:namedview
     id="namedview9"
     pagecolor="#000000"
     bordercolor="#666666"
     borderopacity="1.0"
     inkscape:pageshadow="2"
     inkscape:pageopacity="0"
     inkscape:pagecheckerboard="0"
     showgrid="false"
     inkscape:zoom="33"
     inkscape:cx="10.984848"
     inkscape:cy="11"
     inkscape:window-width="1872"
     inkscape:window-height="895"
     inkscape:window-x="0"
     inkscape:window-y="35"
     inkscape:window-maximized="1"
     inkscape:current-layer="svg7" />
  <defs
     id="defs3">
    <style
       id="current-color-scheme"
       type="text/css">
   .ColorScheme-Text { color:#eeeeec; } .ColorScheme-Highlight { color:#367bf0; } .ColorScheme-NeutralText { color:#ffcc44; } .ColorScheme-PositiveText { color:#3db47e; } .ColorScheme-NegativeText { color:#dd4747; }
  </style>
  </defs>
  <path
     style="fill:currentColor"
     class="ColorScheme-Text"
     d="m 14.45,18.478 c -1.381,0.59 -2.743,0.683 -3.883,0.263 C 9.9941,18.531 4.918,16.393 4.539,16.118 4.2199,15.886 4.0771,15.653 4.0317,15.292 3.9255,14.446 4.6833,13.831 5.5283,14.078 c 0.5137484,0.188462 1.3895443,0.406918 1.9697571,0.543307 0.3433873,0.08072 0,0 0,0 L 7.8431787,14.326636 6.0342,11.08 C 4.1505,7.699 3.9882,7.386 4.0006,7.163 4.0299,6.6338 4.4231,6.2421 4.9501,6.2171 5.4576,6.193 5.5322,6.2893 6.9411,8.789 c 1.1852,2.102 1.2839,2.258 1.4498,2.295 0.2282,0.05 0.299,0.005 0.3464,-0.22 C 8.7717,10.7 8.6123,10.392 7.1726,7.837 5.6299,5.1002 5.5699,4.9822 5.5765,4.7001 5.5952,3.8989 6.5258,3.5093 7.157,4.0385 7.2688,4.1322 7.8836,5.1664 8.913,6.9924 10.439,9.7 10.503,9.802 10.658,9.797 10.854,9.791 10.981,9.645 10.974,9.434 10.971,9.341 10.392,8.252 9.5383,6.735 8.4454,4.7922 8.1066,4.1441 8.104,3.9915 8.0987,3.6727 8.3033,3.3343 8.6121,3.1511 9.0394,2.9537 9.4988,2.9294 9.6745,3.2005 l 1.6125,2.8612 c 1.042,1.8473 1.662,2.8923 1.751,2.9483 0.154,0.098 0.41,-0.018 0.46,-0.207 0.023,-0.091 -0.262,-0.646 -1.069,-2.0783 -1.224,-2.171 -1.344,-2.3848 -1.1,-2.841 0.547,-0.6478 1.263,-0.6822 1.611,-0.198 l 2.419,4.3363 c 0.715,1.658 2.196,3.197 2.542,4.969 0.305,1.557 -0.093,2.873 -1.205,3.986 -0.478,0.478 -1.585,1.219 -2.246,1.501 z"
     id="path5"
     sodipodi:nodetypes="cccccscccccccccccccccccccccccccccc" />
</svg>
