<?xml version="1.0" encoding="UTF-8" standalone="no"?>
<svg
   width="22"
   height="22"
   version="1.1"
   id="svg11"
   sodipodi:docname="transaction-edit.svg"
   inkscape:version="1.1.2 (0a00cf5339, 2022-02-04)"
   xmlns:inkscape="http://www.inkscape.org/namespaces/inkscape"
   xmlns:sodipodi="http://sodipodi.sourceforge.net/DTD/sodipodi-0.dtd"
   xmlns="http://www.w3.org/2000/svg"
   xmlns:svg="http://www.w3.org/2000/svg">
  <sodipodi:namedview
     id="namedview13"
     pagecolor="#000000"
     bordercolor="#666666"
     borderopacity="1.0"
     inkscape:pageshadow="2"
     inkscape:pageopacity="0"
     inkscape:pagecheckerboard="0"
     showgrid="false"
     inkscape:zoom="34.272727"
     inkscape:cx="10.985411"
     inkscape:cy="11"
     inkscape:window-width="1880"
     inkscape:window-height="966"
     inkscape:window-x="0"
     inkscape:window-y="29"
     inkscape:window-maximized="1"
     inkscape:current-layer="svg11" />
  <defs
     id="defs3">
    <style
       id="current-color-scheme"
       type="text/css">
   .ColorScheme-Text { color:#eeeeec; } .ColorScheme-Highlight { color:#367bf0; } .ColorScheme-NeutralText { color:#ffcc44; } .ColorScheme-PositiveText { color:#3db47e; } .ColorScheme-NegativeText { color:#dd4747; }
  </style>
  </defs>
  <path
     style="fill:currentColor"
     class="ColorScheme-Text"
     d="M 7,10.685557 6.3887682,10.495098 3.5813063,12.769142 3.4808271,13.691978 v 0 l 2.813096,2.64431 L 7,16.171026 v 0 V 14.98 h 2.0626 c 0.9774,0 1.8414,0.629 2.1034,1.44 0.150225,0.465553 -0.08102,1.078531 -0.362156,1.59018 -0.304629,0.554394 0.486706,0.44239 0.486706,0.44239 0,0 -0.612482,0.380873 0,0 C 12.085906,17.957976 13,17.10198 13,15.78 13,13.531 11.568,12 9.4206,12 H 7 Z"
     id="path5"
     sodipodi:nodetypes="cccccccccscscsssccc" />
  <path
     style="fill:currentColor"
     class="ColorScheme-Text"
     d="m 15.643725,11.478583 v 0 l 2.843056,-2.3028759 v 0 L 18.429229,8.2234756 15.54148,5.5089908 15,5.6962301 v 0 V 7.02 h -2.063 c -0.977,0 -1.841,-0.6288 -2.103,-1.44 -0.170359,-0.5280575 0.149852,-1.2455883 0.477087,-1.7899103 0.273994,-0.4557608 0,0 0,0 0,0 0.09175,-0.6483921 -0.460468,-0.3275215 C 10.02667,3.9413295 9,4.8189787 9,6.22 9,8.4689 10.432,10 12.579,10 H 15 v 1.240173 z"
     id="path7"
     sodipodi:nodetypes="cccccccccscscsssccc" />
  <path
     style="fill:currentColor"
     class="ColorScheme-Text"
     d="m 18.806,14 c -0.091,0 -0.183,0.035 -0.254,0.105 l -0.697,0.704 1.336,1.336 0.703,-0.698 c 0.141,-0.141 0.141,-0.364 0,-0.505 L 19.058,14.105 C 18.987,14.035 18.897,14 18.806,14 Z m -1.292129,1.527871 -0.380083,0.0023 -2.975769,2.975769 L 14,18.884301 v 0 0.875337 0 L 14.302781,20 h 0.846204 l 0.344793,-0.157778 v 0 l 2.947116,-2.947116 v 0 l 0.03561,-0.404605 z"
     id="path9"
     sodipodi:nodetypes="sccccccscccccccccccccccc" />
</svg>
