<?xml version="1.0" encoding="UTF-8" standalone="no"?>
<svg
   width="22"
   height="22"
   version="1.1"
   id="svg11"
   sodipodi:docname="transaction-delete.svg"
   inkscape:version="1.1.2 (0a00cf5339, 2022-02-04)"
   xmlns:inkscape="http://www.inkscape.org/namespaces/inkscape"
   xmlns:sodipodi="http://sodipodi.sourceforge.net/DTD/sodipodi-0.dtd"
   xmlns="http://www.w3.org/2000/svg"
   xmlns:svg="http://www.w3.org/2000/svg">
  <sodipodi:namedview
     id="namedview13"
     pagecolor="#000000"
     bordercolor="#666666"
     borderopacity="1.0"
     inkscape:pageshadow="2"
     inkscape:pageopacity="0"
     inkscape:pagecheckerboard="0"
     showgrid="false"
     inkscape:zoom="34.272727"
     inkscape:cx="10.985411"
     inkscape:cy="11"
     inkscape:window-width="1880"
     inkscape:window-height="966"
     inkscape:window-x="0"
     inkscape:window-y="29"
     inkscape:window-maximized="1"
     inkscape:current-layer="svg11" />
  <defs
     id="defs3">
    <style
       id="current-color-scheme"
       type="text/css">
   .ColorScheme-Text { color:#eeeeec; } .ColorScheme-Highlight { color:#367bf0; } .ColorScheme-NeutralText { color:#ffcc44; } .ColorScheme-PositiveText { color:#3db47e; } .ColorScheme-NegativeText { color:#dd4747; }
  </style>
  </defs>
  <path
     style="fill:currentColor"
     class="ColorScheme-Text"
     d="m 6.481346,10.42011 v 0 l -2.9817081,2.415182 -0.065023,0.813245 v 0 L 6.4867823,16.517575 7,16.28753 v 0 V 14.98 h 2.0626397 c 0.9771093,0 1.8409673,0.628812 2.1029083,1.44 0.16605,0.51422 -0.133003,1.208113 -0.450782,1.746769 -0.281787,0.477648 0,0 0,0 0,0 -0.09368,0.684303 0.476819,0.346066 C 12.007874,18.028879 13,17.157362 13,15.779999 13,13.53108 11.568233,12 9.4205816,12 H 7 v -1.285206 z"
     id="path5"
     sodipodi:nodetypes="cccccccccscscsssccc" />
  <path
     style="fill:currentColor"
     class="ColorScheme-Text"
     d="m 15,11.26941 0.615342,0.232163 2.97368,-2.4086803 L 18.562252,8.760001 18.624974,8.4074766 15.572585,5.5382301 15,5.7254675 v 0 V 7.02 h -2.06264 c -0.977109,0 -1.840967,-0.628812 -2.102908,-1.44 -0.169179,-0.5239095 0.144438,-1.2343274 0.468763,-1.7770512 0.276274,-0.4623174 0,0 0,0 0,0 0.192399,-0.6898825 -0.27968,-0.437038 C 10.178602,3.8184545 9,4.7187669 9,6.220001 9,8.46892 10.431767,10 12.579418,10 H 15 Z"
     id="path7"
     sodipodi:nodetypes="cccccccccscscsssccc" />
  <path
     style="fill:currentColor"
     class="ColorScheme-Text"
     d="m 16,13 v 1 H 14.273489 L 14,14.303406 v 0 0.379636 L 14.245031,15 v 0 h 5.514119 v 0 L 20,14.741074 V 14.274611 L 19.671264,14 v 0 H 18 V 13 Z M 15.353211,16 15,16.404478 v 3.209417 L 15.353211,20 v 0 h 3.355512 L 19,19.730401 v 0 L 19,16.375241 18.592379,16 v 0 z"
     id="path9"
     sodipodi:nodetypes="cccccccccccccccccccccccccccccc" />
</svg>
