<?xml version="1.0" encoding="UTF-8" standalone="no"?>
<svg
   width="22"
   height="22"
   viewBox="0 0 22 22"
   version="1.1"
   id="svg7"
   sodipodi:docname="transform-move.svg"
   inkscape:version="1.1.2 (0a00cf5339, 2022-02-04)"
   xmlns:inkscape="http://www.inkscape.org/namespaces/inkscape"
   xmlns:sodipodi="http://sodipodi.sourceforge.net/DTD/sodipodi-0.dtd"
   xmlns="http://www.w3.org/2000/svg"
   xmlns:svg="http://www.w3.org/2000/svg">
  <sodipodi:namedview
     id="namedview9"
     pagecolor="#000000"
     bordercolor="#666666"
     borderopacity="1.0"
     inkscape:pageshadow="2"
     inkscape:pageopacity="0"
     inkscape:pagecheckerboard="0"
     showgrid="false"
     inkscape:zoom="34.272727"
     inkscape:cx="10.985411"
     inkscape:cy="11"
     inkscape:window-width="1880"
     inkscape:window-height="966"
     inkscape:window-x="0"
     inkscape:window-y="29"
     inkscape:window-maximized="1"
     inkscape:current-layer="svg7" />
  <defs
     id="defs3">
    <style
       id="current-color-scheme"
       type="text/css">
   .ColorScheme-Text { color:#eeeeec; } .ColorScheme-Highlight { color:#367bf0; } .ColorScheme-NeutralText { color:#ffcc44; } .ColorScheme-PositiveText { color:#3db47e; } .ColorScheme-NegativeText { color:#dd4747; }
  </style>
  </defs>
  <path
     style="fill:currentColor"
     class="ColorScheme-Text"
     d="M 8.2507341,1.3761012 7.7441161,1.3838258 6.2494293,3.625856 6.5469802,4 V 4 H 9.6103789 V 4 L 9.727447,3.5911705 Z M 4,6.5479748 3.5581571,6.2945619 1.4101693,7.7265538 v 0 L 1.4095866,8.2730577 3.6583986,9.7722658 4,9.4654662 v 0 z M 8,6 C 6.8954,6 6,6.8954 6,8 6,9.1046 6.8954,10 8,10 9.1046,10 10,9.1046 10,8 10,6.8954 9.1046,6 8,6 Z m 4,0.4017897 v 0 3.1221495 l 0.383491,0.2203998 v 0 L 14.60552,8.2629868 14.517482,7.6783211 v 0 L 12.437045,6.2913632 Z M 6.2689224,12.403384 v 0 l 1.4679031,2.201854 0.5347467,-0.0126 v 0 L 9.7527116,12.370933 9.4940367,12 v 0 h -3.00481 z"
     transform="translate(3,3)"
     id="path5"
     sodipodi:nodetypes="cccccccccccccccccccssssscccccccccccccccccccc" />
</svg>
