<?xml version="1.0" encoding="UTF-8" standalone="no"?>
<svg
   width="22"
   height="22"
   version="1.1"
   id="svg9"
   sodipodi:docname="twitter-home.svg"
   inkscape:version="1.1.2 (0a00cf5339, 2022-02-04)"
   xmlns:inkscape="http://www.inkscape.org/namespaces/inkscape"
   xmlns:sodipodi="http://sodipodi.sourceforge.net/DTD/sodipodi-0.dtd"
   xmlns="http://www.w3.org/2000/svg"
   xmlns:svg="http://www.w3.org/2000/svg">
  <sodipodi:namedview
     id="namedview11"
     pagecolor="#000000"
     bordercolor="#666666"
     borderopacity="1.0"
     inkscape:pageshadow="2"
     inkscape:pageopacity="0"
     inkscape:pagecheckerboard="0"
     showgrid="false"
     inkscape:zoom="34.272727"
     inkscape:cx="10.985411"
     inkscape:cy="11"
     inkscape:window-width="1880"
     inkscape:window-height="966"
     inkscape:window-x="0"
     inkscape:window-y="29"
     inkscape:window-maximized="1"
     inkscape:current-layer="g7" />
  <defs
     id="defs3">
    <style
       id="current-color-scheme"
       type="text/css">
   .ColorScheme-Text { color:#eeeeec; } .ColorScheme-Highlight { color:#367bf0; } .ColorScheme-NeutralText { color:#ffcc44; } .ColorScheme-PositiveText { color:#3db47e; } .ColorScheme-NegativeText { color:#dd4747; }
  </style>
  </defs>
  <g
     transform="translate(3,3)"
     id="g7">
    <path
       style="fill:currentColor"
       class="ColorScheme-Text"
       d="m 8.3701153,1.3701153 -0.7485989,0.00837 -7.3233047,7.3233047 v 0 l 0.0424169,0.6388403 0.94834447,0.9483444 0.4508324,-0.02878 v 0 L 2.3089456,9.6910544 v 0 L 2.5366202,9.7014111 3.5,15 h 9 l 0.95349,-5.2441956 0.258102,-0.044212 v 0 l 0.583816,0.5838156 0.421899,-0.01272 v 0 l 0.948205,-0.9482048 0.07168,-0.5972945 v 0 z M 8,6 C 9.3807119,6 10.5,7.1192881 10.5,8.5 10.5,9.8807119 9.3807119,11 8,11 6.6192881,11 5.5,9.8807119 5.5,8.5 5.5,7.1192881 6.6192881,6 8,6 Z m 0,6 c 0.5522847,0 1,0.447715 1,1 0,0.552285 -0.4477153,1 -1,1 -0.5522847,0 -1,-0.447715 -1,-1 0,-0.552285 0.4477153,-1 1,-1 z"
       id="path5"
       sodipodi:nodetypes="ccccccccccccccccccccccccssssssssss" />
  </g>
</svg>
