<?xml version="1.0" encoding="UTF-8" standalone="no"?>
<svg
   width="22"
   height="22"
   version="1.1"
   id="svg7"
   sodipodi:docname="udiskie-detach.svg"
   inkscape:version="1.1.2 (0a00cf5339, 2022-02-04)"
   xmlns:inkscape="http://www.inkscape.org/namespaces/inkscape"
   xmlns:sodipodi="http://sodipodi.sourceforge.net/DTD/sodipodi-0.dtd"
   xmlns="http://www.w3.org/2000/svg"
   xmlns:svg="http://www.w3.org/2000/svg">
  <sodipodi:namedview
     id="namedview9"
     pagecolor="#000000"
     bordercolor="#666666"
     borderopacity="1.0"
     inkscape:pageshadow="2"
     inkscape:pageopacity="0"
     inkscape:pagecheckerboard="0"
     showgrid="false"
     inkscape:zoom="34.272727"
     inkscape:cx="10.985411"
     inkscape:cy="11"
     inkscape:window-width="1880"
     inkscape:window-height="966"
     inkscape:window-x="0"
     inkscape:window-y="29"
     inkscape:window-maximized="1"
     inkscape:current-layer="svg7" />
  <defs
     id="defs3">
    <style
       id="current-color-scheme"
       type="text/css">
   .ColorScheme-Text { color:#eeeeec; } .ColorScheme-Highlight { color:#367bf0; } .ColorScheme-NeutralText { color:#ffcc44; } .ColorScheme-PositiveText { color:#3db47e; } .ColorScheme-NegativeText { color:#dd4747; }
  </style>
  </defs>
  <path
     style="fill:currentColor"
     class="ColorScheme-Text"
     d="m 10.522673,3.7955443 v 0 L 5.3145412,12.475765 5.4331516,13 v 0 H 11 v 5.096677 l 0.4824,0.09932 v 0 L 16.646964,9.5883941 16.491523,9 V 9 H 11 V 3.9747955 Z M 5,14.420354 v 0 V 15 c 0,0.28 0.099297,0.540703 0.2792969,0.720703 L 6.0605469,16.5 5.2792969,17.279297 C 5.0992969,17.459297 5,17.72 5,18 v 0.563581 L 5.4917403,19 v 0 H 6 c 0.28,0 0.5407031,-0.0993 0.7207031,-0.279297 L 7.5,17.939453 8.2792969,18.720703 C 8.4592969,18.900703 8.72,19 9,19 H 9.4892267 L 10,18.534344 v 0 V 18 C 10,17.72 9.9007031,17.459297 9.7207031,17.279297 L 8.9394531,16.5 9.7207031,15.720703 C 9.9007031,15.540703 10,15.28 10,15 v -0.667357 0 L 9.517685,14 H 9 C 8.72,14 8.4592969,14.0993 8.2792969,14.279297 L 7.5,15.060547 6.7207031,14.279297 C 6.5407031,14.099297 6.28,14 6,14 H 5.4038564 Z"
     id="path5"
     sodipodi:nodetypes="cccccccccccccccccscccscccscccscccscccscccscccscc" />
</svg>
