<?xml version="1.0" encoding="UTF-8" standalone="no"?>
<svg
   width="22"
   height="22"
   version="1.1"
   id="svg7"
   sodipodi:docname="view-pages-overview.svg"
   inkscape:version="1.1.2 (0a00cf5339, 2022-02-04)"
   xmlns:inkscape="http://www.inkscape.org/namespaces/inkscape"
   xmlns:sodipodi="http://sodipodi.sourceforge.net/DTD/sodipodi-0.dtd"
   xmlns="http://www.w3.org/2000/svg"
   xmlns:svg="http://www.w3.org/2000/svg">
  <sodipodi:namedview
     id="namedview9"
     pagecolor="#000000"
     bordercolor="#666666"
     borderopacity="1.0"
     inkscape:pageshadow="2"
     inkscape:pageopacity="0"
     inkscape:pagecheckerboard="0"
     showgrid="false"
     inkscape:zoom="34.272727"
     inkscape:cx="10.985411"
     inkscape:cy="11"
     inkscape:window-width="1770"
     inkscape:window-height="966"
     inkscape:window-x="0"
     inkscape:window-y="29"
     inkscape:window-maximized="1"
     inkscape:current-layer="svg7" />
  <defs
     id="defs3">
    <style
       id="current-color-scheme"
       type="text/css">
   .ColorScheme-Text { color:#eeeeec; } .ColorScheme-Highlight { color:#367bf0; } .ColorScheme-NeutralText { color:#ffcc44; } .ColorScheme-PositiveText { color:#3db47e; } .ColorScheme-NegativeText { color:#dd4747; }
  </style>
  </defs>
  <path
     style="fill:currentColor"
     class="ColorScheme-Text"
     d="M 17.333984,3 C 17.333984,3 18,3.0005578 18,3.7148437 V 12.285156 C 18,12.999442 17.333984,13 17.333984,13 H 16 v -2 -4.2851562 -1.310097 0 L 15.645515,5 h -1.311531 -0.919921 -2.613282 l 1.865235,-2 z m -3,3 C 14.333984,6 15,6.0005579 15,6.7148438 V 15.285156 C 15,15.999442 14.333984,16 14.333984,16 H 13 v -2 -4.285156 -1.2756581 0 L 12.610846,8 H 11.333984 10.414063 7.800781 L 8.0929843,7.6866847 9.6660156,6 Z m -3,3 C 11.333984,9 12,9.000558 12,9.714844 v 8.570312 C 12,18.999442 11.333984,19 11.333984,19 H 4.666016 C 3.999349,19 4,18.285156 4,18.285156 v -5.965432 0 L 4.3010948,11.53471 6.4817333,9.1975133 v 0 L 7.0088001,9 Z M 10,11 H 7.414062 L 6,12.697266 V 17 h 4 z"
     id="path5"
     sodipodi:nodetypes="csscccccccccccccssccccccccccccccsscscccccccccccccc" />
</svg>
