<?xml version="1.0" encoding="UTF-8" standalone="no"?>
<svg
   width="22"
   height="22"
   version="1.1"
   id="svg9"
   sodipodi:docname="view-financial-transfer-reconciled.svg"
   inkscape:version="1.1.2 (0a00cf5339, 2022-02-04)"
   xmlns:inkscape="http://www.inkscape.org/namespaces/inkscape"
   xmlns:sodipodi="http://sodipodi.sourceforge.net/DTD/sodipodi-0.dtd"
   xmlns="http://www.w3.org/2000/svg"
   xmlns:svg="http://www.w3.org/2000/svg">
  <sodipodi:namedview
     id="namedview11"
     pagecolor="#000000"
     bordercolor="#666666"
     borderopacity="1.0"
     inkscape:pageshadow="2"
     inkscape:pageopacity="0"
     inkscape:pagecheckerboard="0"
     showgrid="false"
     inkscape:zoom="34.272727"
     inkscape:cx="10.985411"
     inkscape:cy="11"
     inkscape:window-width="1770"
     inkscape:window-height="966"
     inkscape:window-x="0"
     inkscape:window-y="29"
     inkscape:window-maximized="1"
     inkscape:current-layer="g7" />
  <defs
     id="defs3">
    <style
       id="current-color-scheme"
       type="text/css">
   .ColorScheme-Text { color:#eeeeec; } .ColorScheme-Highlight { color:#367bf0; } .ColorScheme-NeutralText { color:#ffcc44; } .ColorScheme-PositiveText { color:#3db47e; } .ColorScheme-NegativeText { color:#dd4747; }
  </style>
  </defs>
  <g
     transform="translate(3,3)"
     id="g7">
    <path
       style="fill:currentColor"
       class="ColorScheme-Text"
       d="M 3,0 C 2.446,0 2,0.446 2,1 v 6 h 5 c 1.0907028,0 2,0.9092972 2,2 v 6 c 0,0.363969 -0.1077387,0.703481 -0.2832031,1 H 15 c 0.554,0 1,-0.446 1,-1 V 1 C 16,0.446 15.554,0 15,0 Z m 1,2 h 7 V 3 H 4 Z m 8,0 h 2 V 3 H 12 Z M 4,4 H 8 V 5 H 4 Z m 5,2 h 4 V 7 H 9 Z M 1,8 C 0.446,8 0,8.446 0,9 v 6 c 0,0.554 0.446,1 1,1 h 6 c 0.554,0 1,-0.446 1,-1 V 9 C 8,8.446 7.554,8 7,8 Z m 9,0 h 2 v 1 h -2 z m 3,0 h 2 V 9 H 13 Z M 6.4201686,8.9924273 6.812582,8.8875492 7.2115561,9.1269337 7.2768972,9.5123109 v 0 L 4.4333778,14.24868 3.7835885,14.457217 v 0 L 0.95554423,12.571319 v 0 l -0.090857,-0.36835 0.29640506,-0.444608 v 0 l 0.3426959,-0.02336 2.0535088,1.369528 0.4969617,-0.168922 v 0 z M 11,10 h 3 v 1 h -3 z m -1,2 h 1 v 1 h -1 z m 2,0 h 3 v 1 h -3 z m -2,2 h 3 v 1 h -3 z"
       id="path5"
       sodipodi:nodetypes="sscssscsssssccccccccccccccccccccsssssssssccccccccccccccccccccccccccccccccccccccccccccccccc" />
  </g>
</svg>
