<?xml version="1.0" encoding="UTF-8" standalone="no"?>
<svg
   width="22"
   height="22"
   version="1.1"
   id="svg7"
   sodipodi:docname="view-pages-facing-first-centered.svg"
   inkscape:version="1.1.2 (0a00cf5339, 2022-02-04)"
   xmlns:inkscape="http://www.inkscape.org/namespaces/inkscape"
   xmlns:sodipodi="http://sodipodi.sourceforge.net/DTD/sodipodi-0.dtd"
   xmlns="http://www.w3.org/2000/svg"
   xmlns:svg="http://www.w3.org/2000/svg">
  <sodipodi:namedview
     id="namedview9"
     pagecolor="#000000"
     bordercolor="#666666"
     borderopacity="1.0"
     inkscape:pageshadow="2"
     inkscape:pageopacity="0"
     inkscape:pagecheckerboard="0"
     showgrid="false"
     inkscape:zoom="34.272727"
     inkscape:cx="10.985411"
     inkscape:cy="11"
     inkscape:window-width="1770"
     inkscape:window-height="966"
     inkscape:window-x="0"
     inkscape:window-y="29"
     inkscape:window-maximized="1"
     inkscape:current-layer="svg7" />
  <defs
     id="defs3">
    <style
       id="current-color-scheme"
       type="text/css">
   .ColorScheme-Text { color:#eeeeec; } .ColorScheme-Highlight { color:#367bf0; } .ColorScheme-NeutralText { color:#ffcc44; } .ColorScheme-PositiveText { color:#3db47e; } .ColorScheme-NegativeText { color:#dd4747; }
  </style>
  </defs>
  <path
     style="fill:currentColor"
     class="ColorScheme-Text"
     d="m 9.5037057,3.1739629 v 0 L 7.236581,5.6038556 v 0 L 7,6.1631351 V 12.285156 C 7,12.285156 6.9993486,13 7.6660156,13 H 14.333984 C 14.333984,13 15,12.999442 15,12.285156 V 3.7148437 C 15,3.0005579 14.333984,3 14.333984,3 H 9.9268444 Z M 10.273553,5.168651 10.743235,5 H 13 v 6 H 9 V 6.9512033 L 9.1425884,6.5261202 v 0 z M 5.6660156,9 3,11.857422 v 6.427734 C 3,18.285156 2.9993486,19 3.6660156,19 h 6.6679684 c 0,0 0.279062,-2.34e-4 0.475911,-0.194129 0.107256,-0.105647 0.37142,0.243139 0.37142,-0.0088 0,0 -0.181589,-0.21134 0,0 C 11.279759,18.911657 11.431653,19 11.666016,19 h 6.667968 C 18.333984,19 19,18.999442 19,18.285156 V 9.714844 C 19,9.000558 18.333984,9 18.333984,9 H 16 v 2 h 1 v 6 H 13 V 14 H 11 9 v 3 H 5 v -4.06763 l 0.1454659,-0.409834 v 0 L 6,11.496094 V 9 Z"
     id="path5"
     sodipodi:nodetypes="ccccccscsscccccccccccccccccscscscsscccccccccccccccc" />
</svg>
