<?xml version="1.0" encoding="UTF-8" standalone="no"?>
<svg
   width="22"
   height="22"
   version="1.1"
   id="svg9"
   sodipodi:docname="view-financial-account-investment-closed.svg"
   inkscape:version="1.1.2 (0a00cf5339, 2022-02-04)"
   xmlns:inkscape="http://www.inkscape.org/namespaces/inkscape"
   xmlns:sodipodi="http://sodipodi.sourceforge.net/DTD/sodipodi-0.dtd"
   xmlns="http://www.w3.org/2000/svg"
   xmlns:svg="http://www.w3.org/2000/svg">
  <sodipodi:namedview
     id="namedview11"
     pagecolor="#000000"
     bordercolor="#666666"
     borderopacity="1.0"
     inkscape:pageshadow="2"
     inkscape:pageopacity="0"
     inkscape:pagecheckerboard="0"
     showgrid="false"
     inkscape:zoom="46.669048"
     inkscape:cx="11.00301"
     inkscape:cy="14.420693"
     inkscape:window-width="1872"
     inkscape:window-height="895"
     inkscape:window-x="0"
     inkscape:window-y="35"
     inkscape:window-maximized="1"
     inkscape:current-layer="g7" />
  <defs
     id="defs3">
    <style
       id="current-color-scheme"
       type="text/css">
   .ColorScheme-Text { color:#eeeeec; } .ColorScheme-Highlight { color:#367bf0; } .ColorScheme-NeutralText { color:#ffcc44; } .ColorScheme-PositiveText { color:#3db47e; } .ColorScheme-NegativeText { color:#dd4747; }
  </style>
  </defs>
  <g
     transform="translate(3,3)"
     id="g7">
    <path
       style="opacity:0.35;fill:currentColor"
       class="ColorScheme-Text"
       d="M 0,1 V 5 H 0.73296385 V 5 L 1,4.7616547 v -0.4926299 0 L 1.225839,4 H 1.8042436 V 4 L 2,3.7332156 v -0.3857829 0 L 2.2971188,3 H 3 v -0.6898406 0 L 3.4911518,2 H 12.753327 L 13,2.2761287 v 0 0.4715125 L 13.2462,3 v 0 h 0.535949 L 14,3.1759736 v 0 0.6429715 L 14.253486,4 v 0 h 0.471339 L 15,4.1832953 v 0 0.5569267 L 15.196164,5 V 5 H 16 V 1 Z M 4.2686181,3 C 4.2686181,3.1130161 4,3.252097 4,3.3902974 V 3.7332156 C 4,3.8758172 3.6902135,4 3.6902135,4 V 4 H 3.2828678 V 4 L 3,4.2475928 V 5 H 6.2773438 C 6.6237092,4.4043671 7.2613415,4 8,4 8.7386582,4 9.3762907,4.4043671 9.7226562,5 H 13 V 4.3118896 C 13,4.2271636 12.774861,4.1253588 12.774861,4 V 4 H 12.26045 V 4 L 12,3.7975124 V 3.2188384 L 11.746656,3 V 3 Z M 0,6 v 4 h 0.73296385 v 0 L 1,9.7971644 v -0.4286476 0 L 1.4184352,9 h 0.343351 V 9 L 2,8.81159 v -0.578674 0 C 2.1305693,8.1889341 2.2359455,7.9271656 2.3226284,7.9095394 2.432847,7.8871273 2.5128431,7.8828653 2.5759782,7.888729 c 0.1758989,0.016337 -0.2031019,0 0,0 L 3,7.547395 C 3.0577152,7.3505711 3.508029,7.1423685 3.3468625,7 V 7 H 12.753327 V 7 L 13,7.2474188 V 7.6757512 L 13.2462,8 v 0 h 0.492874 L 14,8.1686957 v 0 0.5569268 L 14.31748,9 v 0 h 0.492874 V 9 L 15,9.2614324 V 9.6686473 L 15.217701,10 v 0 H 16 V 6 Z M 4,8 V 9 H 3 v 1 H 6.2773438 C 6.6237092,9.4043671 7.2613415,9 8,9 8.7386582,9 9.3762907,9.4043671 9.7226562,10 H 13 V 9.3042971 L 12.753327,9 v 0 h -0.47134 V 9 L 12,8.6613257 v -0.4069005 0 L 11.725119,8 Z m -4,3 v 4 H 1 V 14.296704 L 1.247375,14 v 0 H 1.7187142 L 2,13.67548 c 0,-0.0265 0,0.168155 0,0 C 2,13.467852 2.2546614,13.201852 2.2546614,13 v 0 h 0.4713378 v 0 L 3,12.77532 V 12.304123 L 3.2828678,12 v 0 H 12.731789 L 13,12.346988 v 0 0.428332 L 13.289273,13 v 0 h 0.492876 L 14,13.289698 v 0 0.45008 L 14.31748,14 v 0 h 0.342735 v 0 L 15,14.382434 V 15 h 1 V 11 Z M 4.247082,13 4,13.246832 V 13.67548 L 3.7972789,14 v 0 H 3.2828678 L 3,14.296704 v 0 V 15 H 6.2773438 C 6.6237092,14.404367 7.2613415,14 8,14 c 0.7386582,0 1.3762907,0.404367 1.7226562,1 H 13 v -0.638999 0 L 12.667795,14 H 12.32506 v 0 L 12,13.696913 V 13.225401 L 11.789114,13 v 0 z"
       id="path5"
       sodipodi:nodetypes="ccccccccccccccccccccccccccccccccccccccccsscccccccsccsccccccccccccccccccccccsscccccccccccccccccccccccccccccccscccccccccccccccccccsccccccccccccccccccccccccccccccccccccccscccccccccccc" />
  </g>
</svg>
