<?xml version="1.0" encoding="UTF-8" standalone="no"?>
<svg
   width="22"
   height="22"
   version="1.1"
   id="svg9"
   sodipodi:docname="view-financial-account-liability-closed.svg"
   inkscape:version="1.1.2 (0a00cf5339, 2022-02-04)"
   xmlns:inkscape="http://www.inkscape.org/namespaces/inkscape"
   xmlns:sodipodi="http://sodipodi.sourceforge.net/DTD/sodipodi-0.dtd"
   xmlns="http://www.w3.org/2000/svg"
   xmlns:svg="http://www.w3.org/2000/svg">
  <sodipodi:namedview
     id="namedview11"
     pagecolor="#000000"
     bordercolor="#666666"
     borderopacity="1.0"
     inkscape:pageshadow="2"
     inkscape:pageopacity="0"
     inkscape:pagecheckerboard="0"
     showgrid="false"
     inkscape:zoom="66"
     inkscape:cx="8.9545455"
     inkscape:cy="12.212121"
     inkscape:window-width="1872"
     inkscape:window-height="895"
     inkscape:window-x="0"
     inkscape:window-y="35"
     inkscape:window-maximized="1"
     inkscape:current-layer="g7" />
  <defs
     id="defs3">
    <style
       id="current-color-scheme"
       type="text/css">
   .ColorScheme-Text { color:#eeeeec; } .ColorScheme-Highlight { color:#367bf0; } .ColorScheme-NeutralText { color:#ffcc44; } .ColorScheme-PositiveText { color:#3db47e; } .ColorScheme-NegativeText { color:#dd4747; }
  </style>
  </defs>
  <g
     transform="translate(3,3)"
     id="g7">
    <path
       style="opacity:0.35;fill:currentColor"
       class="ColorScheme-Text"
       d="M 11,1 C 9.338,1 8,2.338 8,4 8,5.662 9.338,7 11,7 12.662,7 14,5.662 14,4 14,2.338 12.662,1 11,1 Z M 0,6 V 7 H 3.791115 L 4,7.1853471 v 0 L 4,7.7458589 4.2153376,8 V 8 8 H 4.760953 V 8 L 5,8.2005084 V 8.8216396 L 5.2156326,9 V 9 H 5.8212918 V 9 L 6,9.2308243 V 12.760989 L 5.7307906,13 v 0 H 5.1699468 L 5,13.261049 v 0 0.469582 L 4.7761813,14 v 0 H 4.1244017 L 4,14.245678 v 0 0.515269 L 3.7758863,15 v 0 H 0 v 1 H 7 V 6 Z M 0,8 V 9.2773438 C 0.59563287,9.6237092 1,10.261342 1,11 1,11.738658 0.59563287,12.376291 0,12.722656 V 14 h 2.7036207 v 0 L 3,13.703587 v -0.45465 0 L 3.3092799,13 h 0.4246568 v 0 L 4,12.794733 v -0.606199 0 L 4.3091394,12 h 0.4246585 v 0 L 5,11.703574 V 10.218831 L 4.7337979,10 v 0 H 4.3091394 v 0 L 4,9.6736987 V 9.4312189 L 3.7939805,9 V 9 H 3.3397365 V 9 L 3,8.7947092 V 8.2794393 L 2.7036207,8 V 8 Z M 11,8 C 10.353654,8 9.562365,8.2005634 9,8.4277344 V 14 h 7 V 13 C 16,10.22998 13.77002,8 11,8 Z"
       id="path5"
       sodipodi:nodetypes="sssssccccccccccccccccccccccccccccccccccccccccscccccccccccccccccccccccccccccccccscccss" />
  </g>
</svg>
