<?xml version="1.0" encoding="UTF-8" standalone="no"?>
<svg
   width="22"
   height="22"
   version="1.1"
   id="svg9"
   sodipodi:docname="view-financial-account-investment-security.svg"
   inkscape:version="1.1.2 (0a00cf5339, 2022-02-04)"
   xmlns:inkscape="http://www.inkscape.org/namespaces/inkscape"
   xmlns:sodipodi="http://sodipodi.sourceforge.net/DTD/sodipodi-0.dtd"
   xmlns="http://www.w3.org/2000/svg"
   xmlns:svg="http://www.w3.org/2000/svg">
  <sodipodi:namedview
     id="namedview11"
     pagecolor="#000000"
     bordercolor="#666666"
     borderopacity="1.0"
     inkscape:pageshadow="2"
     inkscape:pageopacity="0"
     inkscape:pagecheckerboard="0"
     showgrid="false"
     inkscape:zoom="34.272727"
     inkscape:cx="10.985411"
     inkscape:cy="11"
     inkscape:window-width="1770"
     inkscape:window-height="966"
     inkscape:window-x="0"
     inkscape:window-y="29"
     inkscape:window-maximized="1"
     inkscape:current-layer="g7" />
  <defs
     id="defs3">
    <style
       id="current-color-scheme"
       type="text/css">
   .ColorScheme-Text { color:#eeeeec; } .ColorScheme-Highlight { color:#367bf0; } .ColorScheme-NeutralText { color:#ffcc44; } .ColorScheme-PositiveText { color:#3db47e; } .ColorScheme-NegativeText { color:#dd4747; }
  </style>
  </defs>
  <g
     transform="translate(3,3)"
     id="g7">
    <path
       style="fill:currentColor"
       class="ColorScheme-Text"
       d="M 1,2 V 15 H 14 V 13.001953 13 11.867188 l -0.04102,-0.03906 -2.421532,-2.4215318 v 0 l -0.806169,-0.016782 v 0 0 L 8.9980469,11.123047 5.875,8 H 4.4609375 3 V 2 Z m 8.3348727,0.3306626 -0.713225,0.04769 -3.6236008,3.6236008 H 3.0019531 v 1 H 5.4121094 L 8.7012939,3.7127686 9.2696608,3.6798171 v 0 L 10.830476,5.2406327 11.125,5.5351562 11.1309,5.5312462 10.830476,5.2406327 11.500536,5.16942 13.962925,2.7070312 C 13.965857,2.7120315 13.255859,2 13.255859,2 l -1.791211,1.7912108 v 0 l -0.641262,0.026599 z M 3,9 h 2.4609375 l 3.2850527,3.285052 0.4581359,0.06818 v 0 l 0.00195,0.002 c 0.058655,-0.04655 -0.077905,0.07229 0,0 0.4330807,-0.401871 1.1252269,-1.15011 1.6496369,-1.674088 l 0.529016,-0.0132 v 0 L 13.251947,12.535156 13.345278,13 v 0 H 3.3381934 v 0 L 3,12.674884 Z"
       id="path5"
       sodipodi:nodetypes="ccccccccccccccccccccccccccccccccccccccccccccscccccccccc" />
  </g>
</svg>
