<?xml version="1.0" encoding="UTF-8" standalone="no"?>
<svg
   width="22"
   height="22"
   version="1.1"
   id="svg9"
   sodipodi:docname="view-institution-edit.svg"
   inkscape:version="1.1.2 (0a00cf5339, 2022-02-04)"
   xmlns:inkscape="http://www.inkscape.org/namespaces/inkscape"
   xmlns:sodipodi="http://sodipodi.sourceforge.net/DTD/sodipodi-0.dtd"
   xmlns="http://www.w3.org/2000/svg"
   xmlns:svg="http://www.w3.org/2000/svg">
  <sodipodi:namedview
     id="namedview11"
     pagecolor="#000000"
     bordercolor="#666666"
     borderopacity="1.0"
     inkscape:pageshadow="2"
     inkscape:pageopacity="0"
     inkscape:pagecheckerboard="0"
     showgrid="false"
     inkscape:zoom="34.272727"
     inkscape:cx="10.985411"
     inkscape:cy="11"
     inkscape:window-width="1770"
     inkscape:window-height="966"
     inkscape:window-x="0"
     inkscape:window-y="29"
     inkscape:window-maximized="1"
     inkscape:current-layer="g7" />
  <defs
     id="defs3">
    <style
       id="current-color-scheme"
       type="text/css">
   .ColorScheme-Text { color:#eeeeec; } .ColorScheme-Highlight { color:#367bf0; } .ColorScheme-NeutralText { color:#ffcc44; } .ColorScheme-PositiveText { color:#3db47e; } .ColorScheme-NegativeText { color:#dd4747; }
  </style>
  </defs>
  <g
     transform="translate(3,3)"
     id="g7">
    <path
       style="fill:currentColor"
       class="ColorScheme-Text"
       d="M 8.321813,1.1609065 7.6413121,1.179344 1.0010456,4.4994772 1.0332319,5 V 5 H 2 v 2 h 1 v 6 H 2 v 2 h 1 7 V 13 H 9 V 7 h 2 v 3 h 2 V 7 h 1 V 5 h 0.92132 V 5 L 14.880862,4.440431 Z M 5,7 h 2 v 6 H 5 Z m 9.980469,4.003906 c -0.04185,0.0084 -0.08622,0.03153 -0.13086,0.07617 l -0.634765,0.634766 1.070312,1.070312 0.634766,-0.634765 c 0.178569,-0.178569 0,-0.357422 0,-0.357422 l -0.712891,-0.712891 c 0,0 -0.101006,-0.101281 -0.226562,-0.07617 z m -1.123047,1.06836 -2.673579,2.671751 L 11,15.15515 v 0 l 0,0.58341 v 0 L 11.390986,16 h 0.495665 l 0.34021,-0.154701 v 0 l 2.700873,-2.702721 z"
       id="path5"
       sodipodi:nodetypes="ccccccccccccccccccccccccccccccccscccsccscccccccccccc" />
  </g>
</svg>
