<?xml version="1.0" encoding="UTF-8" standalone="no"?>
<svg
   width="22"
   height="22"
   version="1.1"
   id="svg9"
   sodipodi:docname="view-institution-delete.svg"
   inkscape:version="1.1.2 (0a00cf5339, 2022-02-04)"
   xmlns:inkscape="http://www.inkscape.org/namespaces/inkscape"
   xmlns:sodipodi="http://sodipodi.sourceforge.net/DTD/sodipodi-0.dtd"
   xmlns="http://www.w3.org/2000/svg"
   xmlns:svg="http://www.w3.org/2000/svg">
  <sodipodi:namedview
     id="namedview11"
     pagecolor="#000000"
     bordercolor="#666666"
     borderopacity="1.0"
     inkscape:pageshadow="2"
     inkscape:pageopacity="0"
     inkscape:pagecheckerboard="0"
     showgrid="false"
     inkscape:zoom="34.272727"
     inkscape:cx="10.985411"
     inkscape:cy="11"
     inkscape:window-width="1770"
     inkscape:window-height="966"
     inkscape:window-x="0"
     inkscape:window-y="29"
     inkscape:window-maximized="1"
     inkscape:current-layer="g7" />
  <defs
     id="defs3">
    <style
       id="current-color-scheme"
       type="text/css">
   .ColorScheme-Text { color:#eeeeec; } .ColorScheme-Highlight { color:#367bf0; } .ColorScheme-NeutralText { color:#ffcc44; } .ColorScheme-PositiveText { color:#3db47e; } .ColorScheme-NegativeText { color:#dd4747; }
  </style>
  </defs>
  <g
     transform="translate(3,3)"
     id="g7">
    <path
       style="fill:currentColor"
       class="ColorScheme-Text"
       d="m 7.6761547,1.1619226 v 0 L 1.1994712,4.4002644 1.2664863,5 V 5 H 2 v 2 h 1 v 6 H 2 v 2 h 1 7 V 13 H 9 V 7 h 2 v 3 h 2 V 7 h 1 V 5 h 0.863008 V 5 L 14.799305,4.3996523 8.4267448,1.2133724 Z M 5,7 h 2 v 6 H 5 Z M 11.361829,11 11,11.303406 v 0.403625 L 12.792969,13.5 11,15.292969 v 0.387116 L 11.390986,16 v 0 h 0.316045 L 13.5,14.207031 15.292969,16 h 0.415587 v 0 L 16,15.73856 V 15.292969 L 14.207031,13.5 16,11.707031 v -0.403625 0 L 15.737712,11 H 15.292969 L 13.5,12.792969 11.707031,11 Z"
       id="path5"
       sodipodi:nodetypes="cccccccccccccccccccccccccccccccccccccccccccccccccccccccc" />
  </g>
</svg>
