<?xml version="1.0" encoding="UTF-8" standalone="no"?>
<svg
   width="22"
   height="22"
   version="1.1"
   id="svg8"
   sodipodi:docname="vm-snapshot-revert.svg"
   inkscape:version="1.1.2 (0a00cf5339, 2022-02-04)"
   xmlns:inkscape="http://www.inkscape.org/namespaces/inkscape"
   xmlns:sodipodi="http://sodipodi.sourceforge.net/DTD/sodipodi-0.dtd"
   xmlns="http://www.w3.org/2000/svg"
   xmlns:svg="http://www.w3.org/2000/svg">
  <sodipodi:namedview
     id="namedview10"
     pagecolor="#000000"
     bordercolor="#666666"
     borderopacity="1.0"
     inkscape:pageshadow="2"
     inkscape:pageopacity="0"
     inkscape:pagecheckerboard="0"
     showgrid="false"
     inkscape:zoom="34.272727"
     inkscape:cx="10.985411"
     inkscape:cy="11"
     inkscape:window-width="1770"
     inkscape:window-height="966"
     inkscape:window-x="0"
     inkscape:window-y="29"
     inkscape:window-maximized="1"
     inkscape:current-layer="svg8" />
  <defs
     id="defs4">
    <style
       id="current-color-scheme"
       type="text/css">
   .ColorScheme-Text { color:#eeeeec; } .ColorScheme-Highlight { color:#367bf0; } .ColorScheme-NeutralText { color:#ffcc44; } .ColorScheme-PositiveText { color:#3db47e; } .ColorScheme-NegativeText { color:#dd4747; }
  </style>
    <style
       id="current-color-scheme-3"
       type="text/css">
   .ColorScheme-Text { color:#eeeeec; } .ColorScheme-Highlight { color:#367bf0; } .ColorScheme-NeutralText { color:#ffcc44; } .ColorScheme-PositiveText { color:#3db47e; } .ColorScheme-NegativeText { color:#dd4747; }
  </style>
  </defs>
  <path
     style="fill:currentColor"
     class="ColorScheme-Text"
     d="M 7.5,3 C 6.132132,3 5,4.1321324 5,5.5 V 8.050781 C 3.866938,8.28618 3,9.303116 3,10.5 v 6 C 3,17.867868 4.132132,19 5.5,19 h 6 c 0.158796,0 0.31433,-0.01557 0.465287,-0.04502 0.170377,-0.03323 -0.156821,0.06615 0,0 -0.491745,0.150296 0.305458,-0.329902 0.218581,-0.425216 C 11.780329,18.087035 11.468339,17.56716 11.267578,17 H 5.5 C 5.205537,17 5,16.794463 5,16.5 v -6 C 5,10.205537 5.205537,10 5.5,10 h 2.5 2 1.5 c 0.294463,0 0.5,0.205537 0.5,0.5 v 1.673539 l 0.324453,0.151004 c 0.101887,-0.126467 -0.114224,0.114067 0,0 C 12.796084,11.85356 13.368008,11.491732 14,11.267578 V 10.5 C 14,9.6298644 13.541877,8.8551207 12.856372,8.4065117 12.464252,8.1498996 13.545928,8 13.048196,8 V 8 H 16.5 C 16.794463,8 17,8.205537 17,8.5 v 2.757813 c 0.589589,0.208424 1.127069,0.536636 1.579791,0.961549 C 18.729527,12.3599 18.86999,11.954649 19,12.115508 v 0 V 8.5 C 19,7.132132 17.867868,6 16.5,6 H 16 V 5.5 C 16,4.1321324 14.867868,3 13.5,3 Z m 0,2 h 6 C 13.794463,5 14,5.2055368 14,5.5 V 6 H 10.5 C 9.3031158,6 8.2861799,6.8669384 8.0507812,8 H 7 V 5.5 C 7,5.2055368 7.2055368,5 7.5,5 Z m 8,7 C 13.567003,12 12,13.567003 12,15.5 12,17.432997 13.567003,19 15.5,19 17.432997,19 19,17.432997 19,15.5 19,13.567003 17.432997,12 15.5,12 Z M 15,13.545017 v 0 V 14 h 1.214844 C 17.286274,14 18,14.899608 18,16.099609 c 0,0.763161 -0.40101,1.279156 -0.777982,1.595617 -0.33433,0.280665 0,0 0,0 0,0 -0.487085,0.136778 -0.341117,-0.190498 0.11879,-0.26634 0.226521,-0.572199 0.226521,-0.805509 C 17.107422,16.179218 16.999442,16 16.035156,16 H 15 v 0.346005 0 l -0.312866,0.0874 -1.386726,-1.178176 v 0 l -0.03667,-0.505834 1.345575,-1.278559 z"
     id="path6"
     sodipodi:nodetypes="sscssssscscssssccssccscssccsscsccsscsssssscsccssssssscccssscsssccccccccc" />
</svg>
