<?xml version="1.0" encoding="UTF-8" standalone="no"?>
<svg
   width="22"
   height="22"
   version="1.1"
   id="svg7"
   sodipodi:docname="vmware-vcenter.svg"
   inkscape:version="1.1.2 (0a00cf5339, 2022-02-04)"
   xmlns:inkscape="http://www.inkscape.org/namespaces/inkscape"
   xmlns:sodipodi="http://sodipodi.sourceforge.net/DTD/sodipodi-0.dtd"
   xmlns="http://www.w3.org/2000/svg"
   xmlns:svg="http://www.w3.org/2000/svg">
  <sodipodi:namedview
     id="namedview9"
     pagecolor="#0d0d0d"
     bordercolor="#666666"
     borderopacity="1.0"
     inkscape:pageshadow="2"
     inkscape:pageopacity="0"
     inkscape:pagecheckerboard="0"
     showgrid="false"
     inkscape:zoom="34.272727"
     inkscape:cx="10.985411"
     inkscape:cy="11"
     inkscape:window-width="1872"
     inkscape:window-height="895"
     inkscape:window-x="0"
     inkscape:window-y="35"
     inkscape:window-maximized="1"
     inkscape:current-layer="svg7" />
  <defs
     id="defs3">
    <style
       id="current-color-scheme"
       type="text/css">
   .ColorScheme-Text { color:#eeeeec; } .ColorScheme-Highlight { color:#367bf0; } .ColorScheme-NeutralText { color:#ffcc44; } .ColorScheme-PositiveText { color:#3db47e; } .ColorScheme-NegativeText { color:#dd4747; }
  </style>
  </defs>
  <path
     style="fill:currentColor"
     class="ColorScheme-Text"
     d="M 9.6660156,3 C 8.205981,3 7,4.205981 7,5.6660156 V 7 H 5.6660156 C 4.205981,7 3,8.205981 3,9.666016 v 6.667968 C 3,17.794019 4.205981,19 5.6660156,19 H 12.333984 C 13.794019,19 15,17.794019 15,16.333984 V 15 h 1.333984 C 17.794019,15 19,13.794019 19,12.333984 V 5.6660156 C 19,4.205981 17.794019,3 16.333984,3 Z M 9,5.4047157 9.5182905,5 H 17 v 7.407255 L 16.461843,13 v 0 h -3.20876 L 13,13.340801 v 0 3.063428 L 12.610924,17 v 0 H 5 v -7.6270647 0 L 5.4914145,9 H 8.6431566 V 9 L 9,8.5849276 Z M 10,6 V 9.5187375 L 9.7227464,10 v 0 H 6 v 6 h 6 v -3.534534 0 L 12.406748,12 H 16 V 6 Z"
     id="path5"
     sodipodi:nodetypes="sscsssssscssssscccccccccccccccccccccccccccccccccc" />
</svg>
