<?xml version="1.0" encoding="UTF-8" standalone="no"?>
<svg
   width="22"
   height="22"
   version="1.1"
   id="svg7"
   sodipodi:docname="vmware-replay-speed-fast.svg"
   inkscape:version="1.1.2 (0a00cf5339, 2022-02-04)"
   xmlns:inkscape="http://www.inkscape.org/namespaces/inkscape"
   xmlns:sodipodi="http://sodipodi.sourceforge.net/DTD/sodipodi-0.dtd"
   xmlns="http://www.w3.org/2000/svg"
   xmlns:svg="http://www.w3.org/2000/svg">
  <sodipodi:namedview
     id="namedview9"
     pagecolor="#000000"
     bordercolor="#666666"
     borderopacity="1.0"
     inkscape:pageshadow="2"
     inkscape:pageopacity="0"
     inkscape:pagecheckerboard="0"
     showgrid="false"
     inkscape:zoom="34.272727"
     inkscape:cx="10.985411"
     inkscape:cy="11"
     inkscape:window-width="1770"
     inkscape:window-height="966"
     inkscape:window-x="0"
     inkscape:window-y="29"
     inkscape:window-maximized="1"
     inkscape:current-layer="svg7" />
  <defs
     id="defs3">
    <style
       id="current-color-scheme"
       type="text/css">
   .ColorScheme-Text { color:#eeeeec; } .ColorScheme-Highlight { color:#367bf0; } .ColorScheme-NeutralText { color:#ffcc44; } .ColorScheme-PositiveText { color:#3db47e; } .ColorScheme-NegativeText { color:#dd4747; }
  </style>
  </defs>
  <path
     style="fill:currentColor"
     class="ColorScheme-Text"
     d="m 3,7.7680654 v 0 V 11 v 3.099191 0 L 3.6633937,14.469285 5.5,13 7.4705209,11.423583 7.4525498,10.56204 v 0 L 5.5,9 3.6556882,7.5245506 Z M 8.0291563,13.537854 8,14.157664 8.6891846,14.448652 v 0 L 10.5,13 12.506862,11.394511 v 0 L 12.456566,10.565253 10.5,9 8.6422101,7.5137681 8,7.7973028 v 0 z M 13,14.099191 v 0 l 0.728563,0.317959 v 0 L 15.5,13 17.418273,11.465381 v 0 L 17.392789,10.514232 15.5,9 13.664005,7.5312039 13,7.7680654 v 0 z"
     id="path5"
     sodipodi:nodetypes="ccccccccccccccccccccccccccccccccccccccc" />
</svg>
