<?xml version="1.0" encoding="UTF-8" standalone="no"?>
<svg
   width="22"
   height="22"
   version="1.1"
   id="svg7"
   sodipodi:docname="vmware-disabled.svg"
   inkscape:version="1.1.2 (0a00cf5339, 2022-02-04)"
   xmlns:inkscape="http://www.inkscape.org/namespaces/inkscape"
   xmlns:sodipodi="http://sodipodi.sourceforge.net/DTD/sodipodi-0.dtd"
   xmlns="http://www.w3.org/2000/svg"
   xmlns:svg="http://www.w3.org/2000/svg">
  <sodipodi:namedview
     id="namedview9"
     pagecolor="#ffffff"
     bordercolor="#666666"
     borderopacity="1.0"
     inkscape:pageshadow="2"
     inkscape:pageopacity="0.0"
     inkscape:pagecheckerboard="0"
     showgrid="false"
     inkscape:zoom="34.272727"
     inkscape:cx="10.985411"
     inkscape:cy="15.668435"
     inkscape:window-width="1872"
     inkscape:window-height="895"
     inkscape:window-x="0"
     inkscape:window-y="35"
     inkscape:window-maximized="1"
     inkscape:current-layer="svg7" />
  <defs
     id="defs3">
    <style
       id="current-color-scheme"
       type="text/css">
   .ColorScheme-Text { color:#eeeeec; } .ColorScheme-Highlight { color:#367bf0; } .ColorScheme-NeutralText { color:#ffcc44; } .ColorScheme-PositiveText { color:#3db47e; } .ColorScheme-NegativeText { color:#dd4747; }
  </style>
  </defs>
  <path
     style="fill:currentColor"
     class="ColorScheme-NegativeText"
     d="M 16.5,15 C 15.669,15 15,15.669 15,16.5 v 4 c 0,0.831 0.669,1.5 1.5,1.5 h 4 c 0.831,0 1.5,-0.669 1.5,-1.5 v -4 C 22,15.669 21.331,15 20.5,15 Z m 0.421913,1.542931 0.317098,-0.01095 1.050212,1.050213 v 0 l 0.440682,-0.01913 0.962609,-0.962609 v 0 l 0.405042,-0.03805 0.291706,0.291706 0.02496,0.438706 v 0 l -1.035703,1.035696 v 0 l 0.04894,0.391911 0.948239,0.948239 0.0377,0.4531 v 0 l -0.335603,0.335603 v 0 L 19.697581,20.404613 18.734637,19.441668 18.5,19.557244 18.313468,19.393563 17.336073,20.370959 v 0 l -0.496604,0.0037 -0.262984,-0.262984 v 0 l 0.02366,-0.418848 0.977081,-0.977081 v 0 l -0.0094,-0.44086 -0.991883,-0.991882 v 0 l 0.02518,-0.419312 z"
     id="path5"
     sodipodi:nodetypes="ssssssssscccccccccccccccccccccccccccccccccccc" />
</svg>
