<?xml version="1.0" encoding="UTF-8" standalone="no"?>
<svg
   width="22"
   height="22"
   version="1.1"
   id="svg7"
   sodipodi:docname="vmware-component.svg"
   inkscape:version="1.1.2 (0a00cf5339, 2022-02-04)"
   xmlns:inkscape="http://www.inkscape.org/namespaces/inkscape"
   xmlns:sodipodi="http://sodipodi.sourceforge.net/DTD/sodipodi-0.dtd"
   xmlns="http://www.w3.org/2000/svg"
   xmlns:svg="http://www.w3.org/2000/svg">
  <sodipodi:namedview
     id="namedview9"
     pagecolor="#000000"
     bordercolor="#666666"
     borderopacity="1.0"
     inkscape:pageshadow="2"
     inkscape:pageopacity="0"
     inkscape:pagecheckerboard="0"
     showgrid="false"
     inkscape:zoom="34.272727"
     inkscape:cx="10.985411"
     inkscape:cy="11"
     inkscape:window-width="1770"
     inkscape:window-height="966"
     inkscape:window-x="0"
     inkscape:window-y="29"
     inkscape:window-maximized="1"
     inkscape:current-layer="svg7" />
  <defs
     id="defs3">
    <style
       id="current-color-scheme"
       type="text/css">
   .ColorScheme-Text { color:#eeeeec; } .ColorScheme-Highlight { color:#367bf0; } .ColorScheme-NeutralText { color:#ffcc44; } .ColorScheme-PositiveText { color:#3db47e; } .ColorScheme-NegativeText { color:#dd4747; }
  </style>
  </defs>
  <path
     style="fill:currentColor"
     class="ColorScheme-Text"
     d="M 9.203125,4.000106 7.2792969,4.6141529 C 3.2136867,5.9264389 3.08235,5.9731154 3.03125,6.1278247 2.99261,6.2447444 3.2499602,6.3495694 3.8515625,7.1082931 c 0.47733,0.6019951 0.8671875,1.1107018 0.8671875,0.91211 0,-0.04215 -0.386475,0.438281 -0.859375,0.880859 C 3.386485,9.3438391 3,9.7487941 3,9.8016531 c 0,0.05286 0.054294,0.141109 0.1210938,0.195312 0.06676,0.0542 1.437935,0.5247709 3.046875,1.0449219 1.6089399,0.520151 2.9568406,0.948099 2.9941406,0.951172 0.03731,0.0031 0.466135,-0.372055 0.9531246,-0.833984 L 10.7249,10.579018 v 0 l 0.557491,0.0065 0.61214,0.581399 c 0.492001,0.46669 0.937335,0.833142 0.990235,0.814453 0.05286,-0.01869 1.391439,-0.446554 2.974609,-0.951172 C 18.589975,10.159824 19,10.00061 19,9.8133721 c 0,-0.04389 -0.386485,-0.449475 -0.859375,-0.902344 -0.4729,-0.45287 -0.859375,-0.854993 -0.859375,-0.894531 0,-0.03954 0.389857,-0.448596 0.867188,-0.908204 C 18.844758,6.4378151 19.00725,6.2442296 18.96875,6.1278247 18.93023,6.0112845 18.491018,5.8416869 16.736328,5.2664966 15.534898,4.8726698 14.155575,4.4246299 13.671875,4.272356 L 12.792969,4.0040122 11.896484,4.8563403 11.264306,5.4609724 v 0 l -0.477682,0.048227 -0.685061,-0.6567653 z m 1.810547,1.9929531 2.230469,0.7421875 c 0.623915,0.207376 1.193152,0.398193 1.603753,0.5375177 0.396358,0.1344917 0.02593,0.4579785 0.652106,0.2281068 0,0 -0.232911,0.094707 -0.626177,0.2298717 -0.396106,0.1361405 -0.947451,0.3206332 -1.557417,0.5201283 -1.215559,0.3975602 -2.24182,0.731578 -2.28125,0.742188 -0.0696,0.018715 -2.8219377,-0.8789507 -4.0044494,-1.291946 -0.3314686,-0.1157663 0.5307067,0.2021949 0,0 C 7.5614133,7.903308 6.7064847,7.4221015 7.0316354,7.3117696 7.4508076,7.1695339 8.0789598,6.9600368 8.7734375,6.7313403 Z m 0.193359,5.9003909 -0.404297,-0.0098 c -0.251564,0.238619 -0.48648,0.455024 -0.673828,0.619141 -0.09367,0.08206 -0.1735928,0.150428 -0.2499998,0.210937 -0.038203,0.03025 -0.072915,0.05625 -0.1289062,0.09375 -0.027996,0.01875 -0.057715,0.04106 -0.1230469,0.07422 -0.032666,0.01658 -0.073706,0.03653 -0.1464843,0.06055 -0.036389,0.01201 -0.081993,0.02422 -0.1445313,0.03516 -0.062065,0.01086 -0.2523894,0.01176 -0.2558594,0.01172 -0.00117,-9.6e-5 -0.1465876,-0.02252 -0.1660156,-0.02734 -0.019429,-0.0048 -0.0314,-0.0085 -0.042969,-0.01172 -0.023138,-0.0064 -0.043308,-0.01205 -0.068359,-0.01953 C 8.7526315,12.915612 8.687673,12.896892 8.607422,12.871982 8.4469196,12.822138 8.2237471,12.751487 7.9511719,12.664934 7.4060215,12.491828 6.6672235,12.253596 5.8613281,11.993059 5.5337971,11.887172 5.3032741,11.806782 5.0039062,11.707903 c 0.0052,1.84717 0.037212,4.332653 0.076172,4.392578 0.039418,0.06062 1.3630086,0.533822 2.9394531,1.052734 h 0.00195 c 1.576504,0.518882 2.9804687,0.846679 2.9804687,0.846679 v -0.01367 c 2.078469,-0.647602 5.902347,-1.870118 5.902347,-1.870118 C 16.976486,16.02769 17,15.431513 17,13.73134 c 0,-0.445953 -7.56e-4,-1.097425 -0.0029,-1.733004 -3.16e-4,-0.09547 0,0 -0.001,-0.284574 -0.275667,0.08887 -0.488608,0.159447 -0.833985,0.269531 -0.791396,0.252249 -1.519876,0.486006 -2.058593,0.658203 -0.269359,0.0861 -0.491501,0.156653 -0.648438,0.207032 -0.156938,0.05038 -0.343607,0.114102 -0.236328,0.07617 -8.27e-4,2.92e-4 -0.16714,0.04577 -0.234375,0.05273 -0.06724,0.0069 -0.123587,0.0051 -0.171875,0.002 -0.09659,-0.0064 -0.161218,-0.02062 -0.212891,-0.03516 -0.103347,-0.02907 -0.156516,-0.05767 -0.201172,-0.08008 -0.08931,-0.04481 -0.137682,-0.07718 -0.1875,-0.111328 -0.09964,-0.06832 -0.187982,-0.137987 -0.291021,-0.222692 -0.206079,-0.169409 -0.452308,-0.389541 -0.712891,-0.636718 z"
     id="path5"
     sodipodi:nodetypes="cccsscscsccccccccscscccccccccccccscsscscscccccssssscccscsscccccccsscsssccccccscc" />
</svg>
