<?xml version="1.0" encoding="UTF-8" standalone="no"?>
<svg
   width="22"
   height="22"
   version="1.1"
   id="svg7"
   sodipodi:docname="window-pin.svg"
   inkscape:version="1.1.2 (0a00cf5339, 2022-02-04)"
   xmlns:inkscape="http://www.inkscape.org/namespaces/inkscape"
   xmlns:sodipodi="http://sodipodi.sourceforge.net/DTD/sodipodi-0.dtd"
   xmlns="http://www.w3.org/2000/svg"
   xmlns:svg="http://www.w3.org/2000/svg">
  <sodipodi:namedview
     id="namedview9"
     pagecolor="#060606"
     bordercolor="#666666"
     borderopacity="1.0"
     inkscape:pageshadow="2"
     inkscape:pageopacity="0"
     inkscape:pagecheckerboard="0"
     showgrid="false"
     inkscape:zoom="34.272727"
     inkscape:cx="10.985411"
     inkscape:cy="11"
     inkscape:window-width="1872"
     inkscape:window-height="895"
     inkscape:window-x="0"
     inkscape:window-y="35"
     inkscape:window-maximized="1"
     inkscape:current-layer="svg7" />
  <defs
     id="defs3">
    <style
       id="current-color-scheme"
       type="text/css">
   .ColorScheme-Text { color:#eeeeec; } .ColorScheme-Highlight { color:#367bf0; } .ColorScheme-NeutralText { color:#ffcc44; } .ColorScheme-PositiveText { color:#3db47e; } .ColorScheme-NegativeText { color:#dd4747; }
  </style>
  </defs>
  <path
     style="fill:currentColor"
     class="ColorScheme-Text"
     d="m 7.0214838,3.0000501 c -1.3451066,-0.019125 -1.3451066,2.0191252 0,2 H 7.767111 v 0 l 0.2328888,0.2003752 v 2.7996246 c 0,1.1838968 -1.3476725,1.8464364 -2.56425,1.9762827 -0.1480811,0.015805 0.1415299,0 0,0 L 5,10.248038 v 1.752012 h 4.9999999 v 6 l 0.7604211,0.778672 0.436411,0.0061 v 0 L 12,18.00005 v -6 h 5 V 10.248038 L 16.661403,9.9856635 c -0.110129,0 0.115149,0.00959 0,0 C 15.412823,9.8817089 13.948958,9.2148457 14,8.0000499 V 5.2296093 l 0.215472,-0.2295592 v 0 l 0.763044,0 c 1.345107,0.019125 1.345107,-2.0191252 0,-2 z"
     id="path5"
     sodipodi:nodetypes="cccccsscccccccccccccsccccccc" />
</svg>
