<?xml version="1.0" encoding="UTF-8" standalone="no"?>
<svg
   width="22"
   height="22"
   version="1.1"
   id="svg9"
   sodipodi:docname="window-unpin.svg"
   inkscape:version="1.1.2 (0a00cf5339, 2022-02-04)"
   xmlns:inkscape="http://www.inkscape.org/namespaces/inkscape"
   xmlns:sodipodi="http://sodipodi.sourceforge.net/DTD/sodipodi-0.dtd"
   xmlns="http://www.w3.org/2000/svg"
   xmlns:svg="http://www.w3.org/2000/svg">
  <sodipodi:namedview
     id="namedview11"
     pagecolor="#000000"
     bordercolor="#666666"
     borderopacity="1.0"
     inkscape:pageshadow="2"
     inkscape:pageopacity="0"
     inkscape:pagecheckerboard="0"
     showgrid="false"
     inkscape:zoom="34.272727"
     inkscape:cx="11"
     inkscape:cy="10.985411"
     inkscape:window-width="1920"
     inkscape:window-height="1051"
     inkscape:window-x="0"
     inkscape:window-y="29"
     inkscape:window-maximized="1"
     inkscape:current-layer="svg9" />
  <defs
     id="defs3">
    <style
       id="current-color-scheme"
       type="text/css">
   .ColorScheme-Text { color:#eeeeec; } .ColorScheme-Highlight { color:#367bf0; } .ColorScheme-NeutralText { color:#ffcc44; } .ColorScheme-PositiveText { color:#3db47e; } .ColorScheme-NegativeText { color:#dd4747; }
  </style>
  </defs>
  <path
     style="opacity:0.35;fill:currentColor"
     class="ColorScheme-Text"
     d="M 7.0214844,3.0000669 C 6.7305148,3.0004766 6.4543107,3.1289436 6.265625,3.3516294 l 8.648437,8.6484376 H 17 v -1.641605 0 c -0.08061,0 -0.162931,-0.3609664 -0.246427,-0.3661047 C 15.486119,9.9143593 13.947697,9.2448911 14,8.0000669 V 5.231765 l 0.272294,-0.2316981 v 0 h 0.706222 c 1.345107,0.019125 1.345107,-2.0191252 0,-2 z M 6.71875,9.6328799 C 6.2851195,9.829306 5.7931684,9.9480358 5.3268788,9.9863829 5.2160953,9.9954936 5.1067602,10.386622 5,10.386622 v 0 1.613445 H 9.0859375 Z M 10,12.91413 v 5.085937 l 0.645025,0.660505 0.685458,-0.0063 v 0 L 12,18.000067 v -3.085938 z"
     id="path5"
     sodipodi:nodetypes="ccccccsccccccccsccccccccccccc" />
  <path
     style="fill:currentColor"
     class="ColorScheme-Text"
     d="m 2.9999999,3.3913858 v 0 1.1086812 L 17.5,19.000067 h 1.1794 v 0 L 19,18.621612 v -1.121545 l -14.5000001,-14.5 -1.1673199,0 z"
     id="path7"
     sodipodi:nodetypes="ccccccccccc" />
</svg>
