<?xml version="1.0" encoding="UTF-8" standalone="no"?>
<svg
   width="22"
   height="22"
   version="1.1"
   id="svg9"
   sodipodi:docname="x-clementine-shuffle.svg"
   inkscape:version="1.1.2 (0a00cf5339, 2022-02-04)"
   xmlns:inkscape="http://www.inkscape.org/namespaces/inkscape"
   xmlns:sodipodi="http://sodipodi.sourceforge.net/DTD/sodipodi-0.dtd"
   xmlns="http://www.w3.org/2000/svg"
   xmlns:svg="http://www.w3.org/2000/svg">
  <sodipodi:namedview
     id="namedview11"
     pagecolor="#000000"
     bordercolor="#666666"
     borderopacity="1.0"
     inkscape:pageshadow="2"
     inkscape:pageopacity="0"
     inkscape:pagecheckerboard="0"
     showgrid="false"
     inkscape:zoom="34.272727"
     inkscape:cx="10.985411"
     inkscape:cy="11"
     inkscape:window-width="1770"
     inkscape:window-height="966"
     inkscape:window-x="0"
     inkscape:window-y="29"
     inkscape:window-maximized="1"
     inkscape:current-layer="g7" />
  <defs
     id="defs3">
    <style
       id="current-color-scheme"
       type="text/css">
   .ColorScheme-Text { color:#eeeeec; } .ColorScheme-Highlight { color:#367bf0; } .ColorScheme-NeutralText { color:#ffcc44; } .ColorScheme-PositiveText { color:#3db47e; } .ColorScheme-NegativeText { color:#dd4747; }
  </style>
  </defs>
  <g
     transform="translate(3,3)"
     id="g7">
    <path
       style="fill:currentColor"
       class="ColorScheme-Text"
       d="m 1,3 v 2 h 4.5 l 0.8460705,1.6921411 v 0 L 6.6728006,6.6543987 7.5,5 6.5,3 Z m 10,6.5819705 v 0 V 11 H 10.5 L 9.6441952,9.2883905 9.3593551,9.2812899 v 0 L 8.5,11 l 1,2 H 11 v 1.279815 l 0.58663,0.280212 v 0 l 2.973429,-2.230071 0.0084,-0.653618 v 0 L 11.412893,9.3096698 Z m 0,-8.1110336 v 0 V 3 H 9.5 l -4,8 H 1 v 2 h 5.5 l 4,-8 H 11 v 1.3725533 l 0.439348,0.2979355 v 0 l 3.136684,-2.3525131 -0.0097,-0.6432526 v 0 L 11.420358,1.3152688 Z"
       id="path5"
       sodipodi:nodetypes="ccccccccccccccccccccccccccccccccccccccccccccc" />
  </g>
</svg>
