<?xml version="1.0" encoding="UTF-8" standalone="no"?>
<svg
   width="32"
   height="32"
   viewBox="0 0 32 32"
   version="1.1"
   id="svg12"
   sodipodi:docname="close-pressed.svg"
   inkscape:version="1.1.2 (0a00cf5339, 2022-02-04)"
   xmlns:inkscape="http://www.inkscape.org/namespaces/inkscape"
   xmlns:sodipodi="http://sodipodi.sourceforge.net/DTD/sodipodi-0.dtd"
   xmlns="http://www.w3.org/2000/svg"
   xmlns:svg="http://www.w3.org/2000/svg">
  <defs
     id="defs16" />
  <sodipodi:namedview
     id="namedview14"
     pagecolor="#ffffff"
     bordercolor="#666666"
     borderopacity="1.0"
     inkscape:pageshadow="2"
     inkscape:pageopacity="0.0"
     inkscape:pagecheckerboard="0"
     showgrid="false"
     inkscape:zoom="48.5625"
     inkscape:cx="16.010296"
     inkscape:cy="20.952381"
     inkscape:window-width="1920"
     inkscape:window-height="1051"
     inkscape:window-x="0"
     inkscape:window-y="29"
     inkscape:window-maximized="1"
     inkscape:current-layer="g10" />
  <rect
     width="32"
     height="32"
     fill="#09090a"
     id="rect2" />
  <rect
     width="32"
     height="1"
     fill="#cccccc"
     fill-opacity=".1"
     id="rect4" />
  <g
     fill="#cccccc"
     id="g10">
    <circle
       cx="16"
       cy="16"
       r="12"
       opacity=".2"
       id="circle6" />
    <path
       d="m 20.713264,12.123264 v 0 L 20.05717,11.46717 19.59,11.358149 19.075554,11.514446 16.35689,14.23311 v 0 l -0.710157,0.0036 -2.841979,-2.841979 -0.768721,-0.02079 v 0 l -0.687772,0.687772 v 0 l 0.06717,0.76369 2.846,2.846 -0.0019,0.658999 v 0 l -2.754642,2.754642 -0.259514,0.434218 0.181949,0.498077 0.540054,0.540054 0.442581,0.0724 0.505584,-0.135408 2.738742,-2.738742 0.817763,0.126415 v 0 l 2.622978,2.622978 0.925147,0.06472 v 0 l 0.528464,-0.528464 v 0 l 0.01527,-0.887372 -2.760047,-2.760047 v 0 l -0.0254,-0.762405 2.792713,-2.792713 z"
       opacity="0.6"
       id="path8"
       sodipodi:nodetypes="ccccccccccccccccccccccccccccccccccccc" />
  </g>
</svg>
