<?xml version="1.0" encoding="UTF-8" standalone="no"?>
<!-- Created with Inkscape (http://www.inkscape.org/) -->

<svg
   width="12"
   height="13"
   id="svg2"
   version="1.1"
   inkscape:version="1.3.2 (091e20ef0f, 2023-11-25, custom)"
   sodipodi:docname="maximize_pressed.svg"
   xmlns:inkscape="http://www.inkscape.org/namespaces/inkscape"
   xmlns:sodipodi="http://sodipodi.sourceforge.net/DTD/sodipodi-0.dtd"
   xmlns="http://www.w3.org/2000/svg"
   xmlns:svg="http://www.w3.org/2000/svg"
   xmlns:rdf="http://www.w3.org/1999/02/22-rdf-syntax-ns#"
   xmlns:cc="http://creativecommons.org/ns#"
   xmlns:dc="http://purl.org/dc/elements/1.1/">
  <defs
     id="defs4" />
  <sodipodi:namedview
     id="base"
     pagecolor="#ffffff"
     bordercolor="#666666"
     borderopacity="1.0"
     inkscape:pageopacity="0.0"
     inkscape:pageshadow="2"
     inkscape:zoom="22.627417"
     inkscape:cx="2.6295533"
     inkscape:cy="3.7344077"
     inkscape:document-units="px"
     inkscape:current-layer="g4373"
     showgrid="true"
     fit-margin-top="0"
     fit-margin-left="0"
     fit-margin-right="0"
     fit-margin-bottom="0"
     inkscape:window-width="1920"
     inkscape:window-height="1019"
     inkscape:window-x="0"
     inkscape:window-y="29"
     inkscape:window-maximized="1"
     inkscape:showpageshadow="2"
     inkscape:pagecheckerboard="0"
     inkscape:deskcolor="#d1d1d1" />
  <metadata
     id="metadata7">
    <rdf:RDF>
      <cc:Work
         rdf:about="">
        <dc:format>image/svg+xml</dc:format>
        <dc:type
           rdf:resource="http://purl.org/dc/dcmitype/StillImage" />
        <dc:title />
      </cc:Work>
    </rdf:RDF>
  </metadata>
  <g
     inkscape:label="Layer 1"
     inkscape:groupmode="layer"
     id="layer1"
     transform="translate(-671.14288,-651.57648)">
    <g
       transform="matrix(0.1265625,0,0,-0.1265625,672.07092,663.09636)"
       inkscape:label="ink_ext_XXXXXX"
       id="g4090">
      <g
         transform="scale(0.1,0.1)"
         id="g4092">
        <g
           transform="matrix(9.9999999,0,0,9.9999999,-4.0034923,0.11816995)"
           inkscape:label="ink_ext_XXXXXX"
           id="g4285">
          <g
             transform="scale(0.1,0.1)"
             id="g4287">
            <g
               transform="matrix(9.9999999,0,0,9.9999999,0.45158899,-5.5533388)"
               inkscape:label="ink_ext_XXXXXX"
               id="g4371">
              <g
                 transform="scale(0.1,0.1)"
                 id="g4373">
                <path
                   id="path4375"
                   style="fill:#13c11e;fill-opacity:1;fill-rule:evenodd;stroke:none"
                   d="M 437.004,9.64453 C 673.063,9.64453 864.43,201.012 864.43,437.07 864.43,673.133 673.063,864.5 437.004,864.5 200.938,864.5 9.57031,673.133 9.57031,437.07 9.57031,201.012 200.938,9.64453 437.004,9.64453"
                   inkscape:connector-curvature="0" />
                <path
                   id="path4377"
                   style="fill:#13c11e;fill-opacity:1;fill-rule:evenodd;stroke:none"
                   d="m 437.004,45.9961 c 215.984,0 391.074,175.0939 391.074,391.0739 0,215.989 -175.09,391.078 -391.074,391.078 C 221.016,828.148 45.9258,653.059 45.9258,437.07 45.9258,221.09 221.016,45.9961 437.004,45.9961"
                   inkscape:connector-curvature="0" />
                <path
                   id="path4379"
                   style="fill:#0b7407;fill-opacity:1;fill-rule:evenodd;stroke:none"
                   d="M 633.87833,411.11361 588.566,655.176 c -6.49457,34.98122 10.88659,-62.12806 17.67303,-97.05689 L 634.40664,413.14447 Z M 553.691,218.969 H 285.438 c -35.583,0 111.7388,0.21085 147.31315,0.94832 l 117.05583,-2.05037 3.88402,1.10205"
                   inkscape:connector-curvature="0"
                   sodipodi:nodetypes="csscccsscc" />
              </g>
            </g>
          </g>
        </g>
      </g>
    </g>
  </g>
</svg>
