<?xml version="1.0" encoding="UTF-8" standalone="no"?>
<svg
   width="24"
   height="24"
   viewBox="0 0 24 24"
   fill="#1a73e8"
   version="1.1"
   id="svg4"
   sodipodi:docname="checkbox.svg"
   inkscape:version="1.1.2 (0a00cf5339, 2022-02-04)"
   xmlns:inkscape="http://www.inkscape.org/namespaces/inkscape"
   xmlns:sodipodi="http://sodipodi.sourceforge.net/DTD/sodipodi-0.dtd"
   xmlns="http://www.w3.org/2000/svg"
   xmlns:svg="http://www.w3.org/2000/svg">
  <defs
     id="defs8" />
  <sodipodi:namedview
     id="namedview6"
     pagecolor="#ffffff"
     bordercolor="#666666"
     borderopacity="1.0"
     inkscape:pageshadow="2"
     inkscape:pageopacity="0.0"
     inkscape:pagecheckerboard="0"
     showgrid="false"
     inkscape:zoom="34.958333"
     inkscape:cx="12"
     inkscape:cy="12"
     inkscape:window-width="1920"
     inkscape:window-height="1051"
     inkscape:window-x="0"
     inkscape:window-y="29"
     inkscape:window-maximized="1"
     inkscape:current-layer="svg4" />
  <path
     d="M 19,3 H 5 C 3.89,3 3,3.9 3,5 v 14 c 0,1.1 0.89,2 2,2 h 14 c 1.11,0 2,-0.9 2,-2 V 5 C 21,3.9 20.11,3 19,3 Z m -8.24895,13.24895 -0.617966,0.233839 -0.4015779,0.01378 v 0 L 9.1854561,16.185456 5.3277595,12.32776 v 0 l 0.030131,-0.685651 0.69771,-0.69771 v 0 l 0.76679,0.05684 2.2554455,2.249163 0.7008519,0.343812 v 0 l 0.5686531,-0.03588 0.604396,-0.340076 v 0 0 l 6.087265,-6.0872602 0.224486,-0.224486 -0.224486,0.224486 0.656349,-0.1944503 0.422725,0.1752732 v 0 l 0.313542,0.3157662 v 0 0 l 0.238978,0.4488948 -0.02261,0.4755371 z"
     id="path2"
     sodipodi:nodetypes="ssssssssscccccccccccccccccccccccccccccc" />
</svg>
