<?xml version="1.0" encoding="UTF-8" standalone="no"?>
<svg
   width="16"
   height="16"
   viewBox="0 0 16 16"
   version="1.1"
   id="svg4"
   sodipodi:docname="small-checkbox-checked-symbolic.svg"
   inkscape:version="1.1.2 (0a00cf5339, 2022-02-04)"
   xmlns:inkscape="http://www.inkscape.org/namespaces/inkscape"
   xmlns:sodipodi="http://sodipodi.sourceforge.net/DTD/sodipodi-0.dtd"
   xmlns="http://www.w3.org/2000/svg"
   xmlns:svg="http://www.w3.org/2000/svg">
  <defs
     id="defs8" />
  <sodipodi:namedview
     id="namedview6"
     pagecolor="#ffffff"
     bordercolor="#666666"
     borderopacity="1.0"
     inkscape:pageshadow="2"
     inkscape:pageopacity="0.0"
     inkscape:pagecheckerboard="0"
     showgrid="false"
     inkscape:zoom="48.5625"
     inkscape:cx="8"
     inkscape:cy="8"
     inkscape:window-width="1920"
     inkscape:window-height="1051"
     inkscape:window-x="0"
     inkscape:window-y="29"
     inkscape:window-maximized="1"
     inkscape:current-layer="svg4" />
  <path
     d="M 2,0 C 0.8954305,0 0,0.8954305 0,2 v 12 c 0,1.104569 0.8954305,2 2,2 h 12 c 1.104569,0 2,-0.895431 2,-2 V 2 C 16,0.8954305 15.104569,0 14,0 Z m 11.00807,3.9980701 v 0 l 0.627992,0.6279923 -0.01311,0.7609844 v 0 L 6.4641201,12.54588 v 0 L 5.5403504,12.53035 2.3953334,9.3853334 2.3662408,8.6437592 v 0 l 0.7313843,-0.7313843 0.6574204,0.012671 v 0 L 5.415362,9.585362 5.7550094,9.7454086 v 0 l 0.5145744,-0.016122 v 0 l 0.4019588,-0.210829 v 0 l 5.4866654,-5.486665 z"
     id="path2"
     sodipodi:nodetypes="sssssssssccccccccccccccccccccccc" />
</svg>
