<?xml version="1.0" encoding="UTF-8" standalone="no"?>
<svg
   width="16"
   height="16"
   version="1.1"
   id="svg12578"
   sodipodi:docname="application-certificate-symbolic.svg"
   inkscape:version="1.1.2 (0a00cf5339, 2022-02-04)"
   xmlns:inkscape="http://www.inkscape.org/namespaces/inkscape"
   xmlns:sodipodi="http://sodipodi.sourceforge.net/DTD/sodipodi-0.dtd"
   xmlns="http://www.w3.org/2000/svg"
   xmlns:svg="http://www.w3.org/2000/svg">
  <defs
     id="defs12582" />
  <sodipodi:namedview
     id="namedview12580"
     pagecolor="#ffffff"
     bordercolor="#666666"
     borderopacity="1.0"
     inkscape:pageshadow="2"
     inkscape:pageopacity="0.0"
     inkscape:pagecheckerboard="0"
     showgrid="false"
     inkscape:zoom="51.6875"
     inkscape:cx="7.9516324"
     inkscape:cy="15.748489"
     inkscape:window-width="680"
     inkscape:window-height="416"
     inkscape:window-x="685"
     inkscape:window-y="451"
     inkscape:window-maximized="1"
     inkscape:current-layer="svg12578" />
  <path
     style="fill:#5c616c"
     d="M 2,2 C 1.48,2 1,2.47 1,3 v 10 c 0,0.52 0.48,1 1,1 H 6 V 12 H 3.2156951 v 0 L 3,11.767259 v -7.5450893 0 L 3.2353988,4 H 13.798039 L 14,4.2415557 v 0 7.4484513 L 13.759725,12 v 0 H 12 v 2 h 3 c 0.52,0 1,-0.44 1,-1 V 3 C 16,2.53 15.56,2 15,2 Z"
     id="path12572"
     sodipodi:nodetypes="ssssccccccccccccccccsssss" />
  <path
     style="fill:#5c616c"
     d="m 7,11 v 4.625648 l 0.3065704,0.06778 v 0 0 l 1.3473772,-1.347376 v 0 0 l 0.2400411,-0.116706 0.17524,-0.004 0.1526012,-0.0035 -0.1526012,0.0035 v 0 l 0.2634965,0.107395 1.3671128,1.367113 v 0 L 11,15.575884 v 0 V 11"
     id="path12574"
     sodipodi:nodetypes="ccccccccccccccccccc" />
  <path
     style="fill:#5c616c"
     d="M 9 6 A 3 3 0 0 0 6 9 A 3 3 0 0 0 9 12 A 3 3 0 0 0 12 9 A 3 3 0 0 0 9 6 z M 9 7 A 2 2 0 0 1 11 9 A 2 2 0 0 1 9 11 A 2 2 0 0 1 7 9 A 2 2 0 0 1 9 7 z"
     id="path12576" />
</svg>
