<?xml version="1.0" encoding="UTF-8" standalone="no"?>
<svg
   width="16"
   height="16"
   version="1.1"
   id="svg16367"
   sodipodi:docname="application-x-executable-symbolic.svg"
   inkscape:version="1.1.2 (0a00cf5339, 2022-02-04)"
   xmlns:inkscape="http://www.inkscape.org/namespaces/inkscape"
   xmlns:sodipodi="http://sodipodi.sourceforge.net/DTD/sodipodi-0.dtd"
   xmlns="http://www.w3.org/2000/svg"
   xmlns:svg="http://www.w3.org/2000/svg">
  <defs
     id="defs16371" />
  <sodipodi:namedview
     id="namedview16369"
     pagecolor="#ffffff"
     bordercolor="#666666"
     borderopacity="1.0"
     inkscape:pageshadow="2"
     inkscape:pageopacity="0.0"
     inkscape:pagecheckerboard="0"
     showgrid="false"
     inkscape:zoom="51.6875"
     inkscape:cx="7.9903265"
     inkscape:cy="11.095526"
     inkscape:window-width="1920"
     inkscape:window-height="1051"
     inkscape:window-x="0"
     inkscape:window-y="29"
     inkscape:window-maximized="1"
     inkscape:current-layer="svg16367" />
  <path
     style="fill:#5c616c"
     d="M 3,1 C 1,1 1,3 1,3 v 10 c 0,2 2,2 2,2 H 6.07 L 6.06,14.99 V 14.98 L 5.94,14.77 6.07,15 7.57,13.82 C 7.53,13.55 7.5,13.28 7.5,13 7.5,12.72 7.53,12.45 7.57,12.18 L 6.212631,11.388895 v 0 L 6.0904487,10.969724 7.8081621,7.9980795 v 0 L 8.1690172,7.9020713 9.57,8.71 C 10.01,8.37 10.49,8.09 11,7.89 V 6.283862 L 11.257135,6 V 6 H 15 V 3 c 0,0 0,-2 -2,-2 z m 10,10 c -1.1,0 -2,0.9 -2,2 0,1.1 0.9,2 2,2 1.1,0 2,-0.9 2,-2 0,-1.1 -0.9,-2 -2,-2 z"
     id="path16365"
     sodipodi:nodetypes="scscccccccsccccccccccccccsssssss" />
</svg>
