<?xml version="1.0" encoding="UTF-8" standalone="no"?>
<svg
   width="16"
   height="16"
   version="1.1"
   id="svg4"
   sodipodi:docname="application-x-firmware-symbolic.svg"
   inkscape:version="1.1.2 (0a00cf5339, 2022-02-04)"
   xmlns:inkscape="http://www.inkscape.org/namespaces/inkscape"
   xmlns:sodipodi="http://sodipodi.sourceforge.net/DTD/sodipodi-0.dtd"
   xmlns="http://www.w3.org/2000/svg"
   xmlns:svg="http://www.w3.org/2000/svg">
  <defs
     id="defs8" />
  <sodipodi:namedview
     id="namedview6"
     pagecolor="#ffffff"
     bordercolor="#666666"
     borderopacity="1.0"
     inkscape:pageshadow="2"
     inkscape:pageopacity="0.0"
     inkscape:pagecheckerboard="0"
     showgrid="false"
     inkscape:zoom="51.6875"
     inkscape:cx="8"
     inkscape:cy="9.547763"
     inkscape:window-width="1169"
     inkscape:window-height="841"
     inkscape:window-x="196"
     inkscape:window-y="31"
     inkscape:window-maximized="1"
     inkscape:current-layer="svg4" />
  <path
     style="fill:#5c616c"
     d="M 1.5,0 C 0.678,0 0,0.678 0,1.5 0,2.323 0.678,3 1.5,3 2.1463112,3 2.7010954,2.581767 2.9101562,2.0039062 l 2.0789816,0.00176 v 0 L 5.3346662,2.200914 5.8222656,3.0078125 6.6777344,2.4921875 5.920207,1.2362434 5.5356458,1.0056922 v 0 L 2.9121094,1.0039062 C 2.7051608,0.42239438 2.1491004,0 1.5,0 Z M 9,0 V 1 H 8 V 2 H 7 V 3 H 8 V 4 H 7 V 5 H 8 V 6 H 7 v 1 h 1 v 1 h 1 v 1 h 1 V 8 h 1 v 1 h 1 V 8 h 1 v 1 h 1 V 8 h 1 V 7 h 1 V 6 H 15 V 5 h 1 V 4 H 15 V 3 h 1 V 2 H 15 V 1 H 14 V 0 H 13 V 1 H 12 V 0 H 11 V 1 H 10 V 0 Z M 1.5,1 C 1.782,1 2,1.218 2,1.5 2,1.782 1.782,2 1.5,2 1.2222287,2.0039728 0.99602717,1.7777713 1,1.5 1,1.218 1.218,1 1.5,1 Z m -1,3 v 1 h 2.7993005 l 0.3045257,0.1603418 v 0 L 4.4179687,6.4667969 C 4.1598078,6.7368218 4,7.1012277 4,7.5 4,8.323 4.678,9 5.5,9 6.323,9 7,8.323 7,7.5 7,6.678 6.323,6 5.5,6 5.4371,6 5.3754272,6.00597 5.3144531,6.013672 L 4.1840686,4.202947 3.865841,4.0018473 v 0 z m 0,3 v 1 h 1.0287667 l 0.2962935,0.1922908 v 0 L 3.3776932,10.853947 3.6071597,11 v 0 H 4.6875 l 0.7167969,1.482422 C 5.2662938,12.630723 5.1594879,12.8063 5.0898438,13 H 4.2220375 v 0 L 3.9281076,12.81314 2.4043477,10.20098 2.1443653,10 v 0 H 0.5 v 1 h 1.0599458 l 0.2340339,0.13901 v 0 L 3.3591025,13.822078 3.6582279,14 v 0 H 5.0898438 C 5.2981696,14.579637 5.853198,15 6.5,15 7.323,15 8,14.323 8,13.5 8,12.678 7.323,12 6.5,12 6.428318,12 6.3582003,12.00762 6.2890625,12.017578 L 5.8700934,11.151376 5.9756107,11 v 0 h 1.7353268 l 0.7988281,1.380859 C 8.1991298,12.656642 8,13.056687 8,13.5 8,14.323 8.678,15 9.5,15 10.323,15 11,14.323 11,13.5 11,12.678 10.323,12 9.5,12 9.482229,12 9.464896,12.0013 9.447266,12.002 L 8.9704859,11.178433 9.0307505,11 v 0 h 1.6821405 l 0.798828,1.376953 C 11.199334,12.652812 11,13.055246 11,13.5 11,14.323 11.678,15 12.5,15 13.323,15 14,14.323 14,13.5 14,12.678 13.323,12 12.5,12 c -0.01646,0 -0.03249,0.0014 -0.04883,0.002 L 11.980492,11.191698 12.021208,11 v 0 h 1.068636 C 13.29817,11.579637 13.853198,12 14.5,12 15.323,12 16,11.323 16,10.5 16,9.678 15.323,9 14.5,9 13.853198,9 13.29817,9.420586 13.089844,10 H 4.2383627 v 0 L 3.9114239,9.7845391 2.3922704,7.180276 2.1506829,7 v 0 z m 5,0 C 5.782,7 6,7.218 6,7.5 6,7.782 5.782,8 5.5,8 5.2222287,8.0039728 4.9960272,7.7777713 5,7.5 5,7.218 5.218,7 5.5,7 Z m 9,3 c 0.282,0 0.5,0.218 0.5,0.5 0,0.282 -0.218,0.5 -0.5,0.5 -0.277771,0.004 -0.503973,-0.222229 -0.5,-0.5 0,-0.282 0.218,-0.5 0.5,-0.5 z m -8,3 C 6.782,13 7,13.218 7,13.5 7,13.782 6.782,14 6.5,14 6.2222287,14.003973 5.9960272,13.777771 6,13.5 6,13.218 6.218,13 6.5,13 Z m 3,0 C 9.782,13 10,13.218 10,13.5 10,13.782 9.782,14 9.5,14 9.2222287,14.003973 8.9960272,13.777771 9,13.5 9,13.218 9.218,13 9.5,13 Z m 3,0 c 0.282,0 0.5,0.218 0.5,0.5 0,0.282 -0.218,0.5 -0.5,0.5 -0.277771,0.004 -0.503973,-0.222229 -0.5,-0.5 0,-0.282 0.218,-0.5 0.5,-0.5 z"
     id="path2"
     sodipodi:nodetypes="sssccccccccccscccccccccccccccccccccccccccccccccccccccccccccccccccccssccsccccccsssscccccccccccccccccccccccccccccccsssccccccssssccccccsssscccccsssccccccccssccsssccsssccsssccsssccs" />
</svg>
