<?xml version="1.0" encoding="UTF-8" standalone="no"?>
<svg
   width="16"
   height="16"
   version="1.1"
   id="svg181597"
   sodipodi:docname="emblem-music-symbolic.svg"
   inkscape:version="1.1.2 (0a00cf5339, 2022-02-04)"
   xmlns:inkscape="http://www.inkscape.org/namespaces/inkscape"
   xmlns:sodipodi="http://sodipodi.sourceforge.net/DTD/sodipodi-0.dtd"
   xmlns="http://www.w3.org/2000/svg"
   xmlns:svg="http://www.w3.org/2000/svg">
  <defs
     id="defs181601" />
  <sodipodi:namedview
     id="namedview181599"
     pagecolor="#ffffff"
     bordercolor="#666666"
     borderopacity="1.0"
     inkscape:pageshadow="2"
     inkscape:pageopacity="0.0"
     inkscape:pagecheckerboard="0"
     showgrid="false"
     inkscape:zoom="51.6875"
     inkscape:cx="7.9903265"
     inkscape:cy="8"
     inkscape:window-width="1920"
     inkscape:window-height="1051"
     inkscape:window-x="0"
     inkscape:window-y="29"
     inkscape:window-maximized="1"
     inkscape:current-layer="svg181597" />
  <path
     style="fill:#5c616c"
     d="m 5,1.433935 v 0 7.5420371 0 C 4.9448127,8.9570014 4.8896253,9.152951 4.8342328,9.1360214 4.5684356,9.0547857 4.2979142,9 4,9 2.34,9 1,10.35 1,12 c 0,1.66 1.34,3 3,3 1.66,0 3,-1.34 3,-3 V 5.2920943 L 7.2421781,5 V 5 H 12.758075 V 5 L 13,5.3018777 v 3.7513538 l -0.154308,0.086309 c -0.05138,-0.017662 0.05155,0.015908 0,0 C 12.576207,9.0563721 12.302197,9 12,9 c -1.66,0 -3,1.35 -3,3 0,1.66 1.34,3 3,3 1.66,0 3,-1.34 3,-3 v -10.5515801 0 L 14.553575,1 H 5.4723693 Z"
     id="path181595"
     sodipodi:nodetypes="ccccsssssccccccccsssssccccc" />
</svg>
