<?xml version="1.0" encoding="UTF-8" standalone="no"?>
<svg
   width="16"
   height="16"
   version="1.1"
   id="svg22537"
   sodipodi:docname="text-x-systemd-unit-symbolic.svg"
   inkscape:version="1.1.2 (0a00cf5339, 2022-02-04)"
   xmlns:inkscape="http://www.inkscape.org/namespaces/inkscape"
   xmlns:sodipodi="http://sodipodi.sourceforge.net/DTD/sodipodi-0.dtd"
   xmlns="http://www.w3.org/2000/svg"
   xmlns:svg="http://www.w3.org/2000/svg">
  <defs
     id="defs22541" />
  <sodipodi:namedview
     id="namedview22539"
     pagecolor="#ffffff"
     bordercolor="#666666"
     borderopacity="1.0"
     inkscape:pageshadow="2"
     inkscape:pageopacity="0.0"
     inkscape:pagecheckerboard="0"
     showgrid="false"
     inkscape:zoom="51.6875"
     inkscape:cx="8.0096735"
     inkscape:cy="8"
     inkscape:window-width="1920"
     inkscape:window-height="1051"
     inkscape:window-x="0"
     inkscape:window-y="29"
     inkscape:window-maximized="1"
     inkscape:current-layer="svg22537" />
  <path
     style="fill:#5c616c"
     d="M 11.716201,5.657666 12,5.8474455 v 4.2733575 l -0.271438,0.228398 v 0 L 7.8237557,8.1798643 v 0 L 7.8447884,7.8084509 Z M 7,8 C 7,9.1045695 6.1045695,10 5,10 3.8954305,10 3,9.1045695 3,8 3,6.8954305 3.8954305,6 5,6 6.1045695,6 7,6.8954305 7,8 Z m 5,5 v -2 h 1.809848 v 0 L 14,10.839283 V 5.1800388 L 13.846454,5 V 5 H 12 V 3 h 3.86919 L 16,3.194441 v 0 9.569187 0 L 15.800727,13 Z M 4,13 V 11 H 2.1589329 v 0 L 2,10.82828 v -5.6534464 0 L 2.1628887,5 H 4 V 3 H 0.23341851 V 3 L 0,3.1747468 V 12.758037 L 0.18391022,13 v 0 z"
     id="path22535"
     sodipodi:nodetypes="cccccccccssssscccccccccccccccccccccccccccccccccc" />
</svg>
