<?xml version="1.0" encoding="UTF-8" standalone="no"?>
<svg
   width="22"
   height="22"
   version="1.1"
   id="svg13"
   sodipodi:docname="account-edit.svg"
   inkscape:version="1.1.2 (0a00cf5339, 2022-02-04)"
   xmlns:inkscape="http://www.inkscape.org/namespaces/inkscape"
   xmlns:sodipodi="http://sodipodi.sourceforge.net/DTD/sodipodi-0.dtd"
   xmlns="http://www.w3.org/2000/svg"
   xmlns:svg="http://www.w3.org/2000/svg">
  <sodipodi:namedview
     id="namedview15"
     pagecolor="#000000"
     bordercolor="#666666"
     borderopacity="1.0"
     inkscape:pageshadow="2"
     inkscape:pageopacity="0"
     inkscape:pagecheckerboard="0"
     showgrid="false"
     inkscape:zoom="34.272727"
     inkscape:cx="10.985411"
     inkscape:cy="11"
     inkscape:window-width="1770"
     inkscape:window-height="966"
     inkscape:window-x="0"
     inkscape:window-y="29"
     inkscape:window-maximized="1"
     inkscape:current-layer="svg13" />
  <defs
     id="defs3">
    <style
       id="current-color-scheme"
       type="text/css">
   .ColorScheme-Text { color:#eeeeec; } .ColorScheme-Highlight { color:#367bf0; } .ColorScheme-NeutralText { color:#ffcc44; } .ColorScheme-PositiveText { color:#3db47e; } .ColorScheme-NegativeText { color:#dd4747; }
  </style>
  </defs>
  <path
     style="fill:currentColor"
     class="ColorScheme-Text"
     d="M 6.5 3 C 5.669 3 5 3.669 5 4.5 L 5 5 L 17 5 L 17 4.5 C 17 3.669 16.331 3 15.5 3 L 6.5 3 z M 5 7 L 5 9 L 17 9 L 17 7 L 5 7 z M 5 11 L 5 13 L 17 13 L 17 11 L 5 11 z M 5 15 L 5 17 L 14.25 17 L 16.248047 15 L 5 15 z"
     id="path5" />
  <path
     style="opacity:0.35;fill:currentColor"
     class="ColorScheme-Text"
     d="M 5,5 V 7 H 17 V 5 Z m 0,4 v 2 H 17 V 9 Z m 0,4 v 2 H 16.248 L 17,14.248 V 13 Z m 0,4 v 0.5 C 5,18.331 5.669,19 6.5,19 h 6.169158 v 0 L 13,18.680085 v -0.233452 0 L 13.144536,18.105464 14.25,17 Z"
     id="path7"
     sodipodi:nodetypes="cccccccccccccccccsscccccccc" />
  <path
     style="opacity:.35;fill:currentColor"
     class="ColorScheme-Text"
     d="M 15,3 V 16.248 L 17,14.248 V 13 11 9 7 5 4.5 C 17,3.669 16.331,3 15.5,3 Z"
     id="path9" />
  <path
     style="fill:currentColor"
     class="ColorScheme-Text"
     d="m 18.806,14 c -0.091,0 -0.183,0.035 -0.254,0.105 l -0.528661,0.533971 0.03505,0.373423 v 0 l 0.919229,0.919229 0.368319,0.05954 v 0 L 19.894,15.447 c 0.141,-0.141 0.141,-0.364 0,-0.505 L 19.058,14.105 C 18.987,14.035 18.897,14 18.806,14 Z m -1.628145,1.486145 v 0 L 14.157958,18.506042 14,18.884301 v 0 0.758832 L 14.332671,20 v 0 h 0.787234 l 0.374327,-0.158232 v 0 l 2.932134,-2.932134 0.03558,-0.433689 v 0 l -0.948284,-0.948284 z"
     id="path11"
     sodipodi:nodetypes="sccccccccccscccccccccccccccc" />
</svg>
