<?xml version="1.0" encoding="UTF-8" standalone="no"?>
<svg
   width="22"
   height="22"
   version="1.1"
   id="svg15"
   sodipodi:docname="account-close.svg"
   inkscape:version="1.1.2 (0a00cf5339, 2022-02-04)"
   xmlns:inkscape="http://www.inkscape.org/namespaces/inkscape"
   xmlns:sodipodi="http://sodipodi.sourceforge.net/DTD/sodipodi-0.dtd"
   xmlns="http://www.w3.org/2000/svg"
   xmlns:svg="http://www.w3.org/2000/svg">
  <sodipodi:namedview
     id="namedview17"
     pagecolor="#000000"
     bordercolor="#666666"
     borderopacity="1.0"
     inkscape:pageshadow="2"
     inkscape:pageopacity="0"
     inkscape:pagecheckerboard="0"
     showgrid="false"
     inkscape:zoom="34.272727"
     inkscape:cx="10.985411"
     inkscape:cy="11"
     inkscape:window-width="1770"
     inkscape:window-height="966"
     inkscape:window-x="0"
     inkscape:window-y="29"
     inkscape:window-maximized="1"
     inkscape:current-layer="svg15" />
  <defs
     id="defs3">
    <style
       id="current-color-scheme"
       type="text/css">
   .ColorScheme-Text { color:#eeeeec; } .ColorScheme-Highlight { color:#367bf0; } .ColorScheme-NeutralText { color:#ffcc44; } .ColorScheme-PositiveText { color:#3db47e; } .ColorScheme-NegativeText { color:#dd4747; }
  </style>
  </defs>
  <path
     style="fill:currentColor"
     class="ColorScheme-Text"
     d="M 6.5 3 C 5.669 3 5 3.669 5 4.5 L 5 5 L 17 5 L 17 4.5 C 17 3.669 16.331 3 15.5 3 L 6.5 3 z M 5 7 L 5 9 L 17 9 L 17 7 L 5 7 z M 5 11 L 5 13 L 14 13 L 15.414062 13 L 17 13 L 17 11 L 5 11 z M 5 15 L 5 17 L 14.171875 17 L 13.292969 16.121094 A 1.0001 1.0001 0 0 1 13 15.414062 L 13 15 L 5 15 z"
     id="path5" />
  <path
     style="opacity:.35;fill:currentColor"
     class="ColorScheme-Text"
     d="M 5 5 L 5 7 L 17 7 L 17 5 L 5 5 z M 5 9 L 5 11 L 17 11 L 17 9 L 5 9 z M 5 13 L 5 15 L 13 15 L 13 14 A 1.0001 1.0001 0 0 1 14 13 L 5 13 z M 15.414062 13 A 1.0001 1.0001 0 0 1 16.121094 13.292969 L 17 14.171875 L 17 13 L 15.414062 13 z M 5 17 L 5 17.5 C 5 18.331 5.669 19 6.5 19 L 13 19 L 13 18.585938 A 1.0001 1.0001 0 0 1 13.292969 17.878906 L 14.171875 17 L 5 17 z"
     id="path7" />
  <path
     style="opacity:.35;fill:currentColor"
     class="ColorScheme-Text"
     d="M 15 3 L 15 13 L 15.414062 13 A 1.0001 1.0001 0 0 1 16.121094 13.292969 L 17 14.171875 L 17 13 L 17 11 L 17 9 L 17 7 L 17 5 L 17 4.5 C 17 3.669 16.331 3 15.5 3 L 15 3 z"
     id="path9" />
  <path
     style="fill:currentColor"
     class="ColorScheme-Text"
     d="M 14.390986,14 14,14.44959 14,15.414062 15.585938,17 14,18.585938 v 0.794505 L 14.507613,20 v 0 h 0.906449 L 17,18.414062 18.585938,20 h 0.764855 L 20,19.467711 v 0 -0.881773 L 18.414062,17 20,15.414062 v -0.964472 0 L 19.409106,14 H 18.585938 L 17,15.585938 15.414062,14 Z"
     id="path11"
     sodipodi:nodetypes="ccccccccccccccccccccccccc" />
  <path
     style="fill:none"
     d="M 12 14 L 12 15.414062 L 13.585938 17 L 12 18.585938 L 12 20 L 13.414062 20 L 15 18.414062 L 16.585938 20 L 18 20 L 18 18.585938 L 16.414062 17 L 18 15.414062 L 18 14 L 16.585938 14 L 15 15.585938 L 13.414062 14 L 12 14 z"
     id="path13" />
</svg>
