<?xml version="1.0" encoding="UTF-8" standalone="no"?>
<svg
   width="22"
   height="22"
   version="1.1"
   id="svg7"
   sodipodi:docname="account-types-liability.svg"
   inkscape:version="1.1.2 (0a00cf5339, 2022-02-04)"
   xmlns:inkscape="http://www.inkscape.org/namespaces/inkscape"
   xmlns:sodipodi="http://sodipodi.sourceforge.net/DTD/sodipodi-0.dtd"
   xmlns="http://www.w3.org/2000/svg"
   xmlns:svg="http://www.w3.org/2000/svg">
  <sodipodi:namedview
     id="namedview9"
     pagecolor="#000000"
     bordercolor="#666666"
     borderopacity="1.0"
     inkscape:pageshadow="2"
     inkscape:pageopacity="0"
     inkscape:pagecheckerboard="0"
     showgrid="false"
     inkscape:zoom="34.272727"
     inkscape:cx="11"
     inkscape:cy="15.653846"
     inkscape:window-width="1920"
     inkscape:window-height="1051"
     inkscape:window-x="0"
     inkscape:window-y="29"
     inkscape:window-maximized="1"
     inkscape:current-layer="svg7" />
  <defs
     id="defs3">
    <style
       id="current-color-scheme"
       type="text/css">
   .ColorScheme-Text { color:#eeeeec; } .ColorScheme-Highlight { color:#367bf0; } .ColorScheme-NeutralText { color:#ffcc44; } .ColorScheme-PositiveText { color:#3db47e; } .ColorScheme-NegativeText { color:#dd4747; }
  </style>
  </defs>
  <path
     style="fill:currentColor"
     class="ColorScheme-Text"
     d="M 17.5,3 C 18.331,3 19,3.669 19,4.5 v 13 C 19,18.331 18.331,19 17.5,19 H 4.5 C 3.669,19 3,18.331 3,17.5 V 4.5 C 3,3.669 3.669,3 4.5,3 Z M 14.630616,5.4084412 14.161211,5.3457518 5.8255169,10.554908 v 0 l 0.037432,0.913576 8.2574581,5.160264 0.605544,-0.189866 v 0 l 0.625326,-1.001443 -0.09829,-0.457771 v 0 L 9.2671093,11.238936 v 0 L 9.329283,10.72221 15.186942,7.0616032 v 0 l 0.16923,-0.4912021 z"
     id="path5"
     sodipodi:nodetypes="sssssssssccccccccccccccccccc" />
</svg>
