<?xml version="1.0" encoding="UTF-8" standalone="no"?>
<svg
   width="22"
   height="22"
   version="1.1"
   id="svg13"
   sodipodi:docname="account-delete.svg"
   inkscape:version="1.1.2 (0a00cf5339, 2022-02-04)"
   xmlns:inkscape="http://www.inkscape.org/namespaces/inkscape"
   xmlns:sodipodi="http://sodipodi.sourceforge.net/DTD/sodipodi-0.dtd"
   xmlns="http://www.w3.org/2000/svg"
   xmlns:svg="http://www.w3.org/2000/svg">
  <sodipodi:namedview
     id="namedview15"
     pagecolor="#000000"
     bordercolor="#666666"
     borderopacity="1.0"
     inkscape:pageshadow="2"
     inkscape:pageopacity="0"
     inkscape:pagecheckerboard="0"
     showgrid="false"
     inkscape:zoom="34.272727"
     inkscape:cx="10.985411"
     inkscape:cy="11"
     inkscape:window-width="1770"
     inkscape:window-height="966"
     inkscape:window-x="0"
     inkscape:window-y="29"
     inkscape:window-maximized="1"
     inkscape:current-layer="svg13" />
  <defs
     id="defs3">
    <style
       id="current-color-scheme"
       type="text/css">
   .ColorScheme-Text { color:#eeeeec; } .ColorScheme-Highlight { color:#367bf0; } .ColorScheme-NeutralText { color:#ffcc44; } .ColorScheme-PositiveText { color:#3db47e; } .ColorScheme-NegativeText { color:#dd4747; }
  </style>
  </defs>
  <path
     style="fill:currentColor"
     class="ColorScheme-Text"
     d="M 6.5 3 C 5.669 3 5 3.669 5 4.5 L 5 5 L 17 5 L 17 4.5 C 17 3.669 16.331 3 15.5 3 L 6.5 3 z M 5 7 L 5 9 L 17 9 L 17 7 L 5 7 z M 5 11 L 5 13 L 14 13 L 15 13 A 1.0001 1.0001 0 0 1 16 12 L 17 12 L 17 11 L 5 11 z M 5 15 L 5 17 L 14 17 L 14 16 A 1.0001 1.0001 0 0 1 13 15 L 5 15 z"
     id="path5" />
  <path
     style="opacity:.35;fill:currentColor"
     class="ColorScheme-Text"
     d="M 5 5 L 5 7 L 17 7 L 17 5 L 5 5 z M 5 9 L 5 11 L 17 11 L 17 9 L 5 9 z M 5 13 L 5 15 L 13 15 L 13 14 A 1.0001 1.0001 0 0 1 14 13 L 5 13 z M 5 17 L 5 17.5 C 5 18.331 5.669 19 6.5 19 L 14 19 L 14 17 L 5 17 z"
     id="path7" />
  <path
     style="opacity:.35;fill:currentColor"
     class="ColorScheme-Text"
     d="M 15 3 L 15 13 A 1.0001 1.0001 0 0 1 16 12 L 17 12 L 17 11 L 17 9 L 17 7 L 17 5 L 17 4.5 C 17 3.669 16.331 3 15.5 3 L 15 3 z"
     id="path9" />
  <path
     style="fill:currentColor"
     class="ColorScheme-Text"
     d="M 16.286966,13 16,13.195061 V 14 H 14.244413 L 14,14.332643 v 0 0.379638 L 14.302728,15 v 0 h 5.310476 v 0 L 20,14.741074 V 14.245375 L 19.642361,14 v 0 H 18 v -0.834176 0 L 17.745592,13 Z M 15,16.229057 v 0 3.530581 L 15.324003,20 v 0 h 3.472022 v 0 L 19,19.701163 v -3.500901 0 L 18.6794,16 h -3.501181 z"
     id="path11"
     sodipodi:nodetypes="ccccccccccccccccccccccccccccccccc" />
</svg>
