<?xml version="1.0" encoding="UTF-8" standalone="no"?>
<svg
   width="22"
   height="22"
   version="1.1"
   id="svg9"
   sodipodi:docname="account-update-online.svg"
   inkscape:version="1.1.2 (0a00cf5339, 2022-02-04)"
   xmlns:inkscape="http://www.inkscape.org/namespaces/inkscape"
   xmlns:sodipodi="http://sodipodi.sourceforge.net/DTD/sodipodi-0.dtd"
   xmlns="http://www.w3.org/2000/svg"
   xmlns:svg="http://www.w3.org/2000/svg">
  <sodipodi:namedview
     id="namedview11"
     pagecolor="#000000"
     bordercolor="#666666"
     borderopacity="1.0"
     inkscape:pageshadow="2"
     inkscape:pageopacity="0"
     inkscape:pagecheckerboard="0"
     showgrid="false"
     inkscape:zoom="34.272727"
     inkscape:cx="10.985411"
     inkscape:cy="11"
     inkscape:window-width="1770"
     inkscape:window-height="966"
     inkscape:window-x="0"
     inkscape:window-y="29"
     inkscape:window-maximized="1"
     inkscape:current-layer="svg9" />
  <defs
     id="defs3">
    <style
       id="current-color-scheme"
       type="text/css">
   .ColorScheme-Text { color:#eeeeec; } .ColorScheme-Highlight { color:#367bf0; } .ColorScheme-NeutralText { color:#ffcc44; } .ColorScheme-PositiveText { color:#3db47e; } .ColorScheme-NegativeText { color:#dd4747; }
  </style>
  </defs>
  <path
     style="fill:currentColor"
     class="ColorScheme-Text"
     d="m 11,3 c -4.4182857,0 -8,3.581714 -8,8 0,4.418286 3.5817143,8 8,8 1.15464,0 2.248855,-0.249224 3.240234,-0.689453 C 14.094791,17.89761 14,17.46058 14,17 c 0,-1.843561 1.293651,-3.340513 3,-3.796875 V 13 c 2.34e-4,-0.530127 0.414086,-0.96797 0.943359,-0.998047 0.235155,-0.01358 0.467556,0.05628 0.65625,0.197266 l 0.269532,0.203125 C 18.950017,11.94602 19,11.479544 19,11 19,6.581714 15.418286,3 11,3 Z m -0.572266,2.2148438 c 0.07646,-0.008 0.03028,0.3619918 0.107422,0.3574218 0.0091,0.036571 0.0872,-0.1904342 0,0 -0.5552677,1.2130285 -0.5856472,2.6332637 -0.07031,3.3925782 0.09326,0.1376685 0.177734,0.2681275 0.177734,0.2851562 0,0.017028 -0.101129,0.035156 -0.214844,0.035156 -0.266948,0 -0.5190069,-0.1615924 -1.0351559,-0.5703124 C 9.1632891,8.5332783 8.8654857,8.3805076 8.75,8.3574219 8.5686514,8.3211932 8.519762,8.3376371 8.2851562,8.5722656 8.0668819,8.7905056 8,8.9076276 8,9.1074219 c 0,0.7576456 0.9003566,1.3604441 2.572266,1.7148441 2.270514,0.481223 2.829949,0.911548 2.892578,2.105468 0.07863,1.497143 -0.719015,2.626058 -2.464844,3.5 -0.208377,0.104343 -0.340306,0.145974 -0.427734,0.179688 -0.03874,-0.0034 0.466367,-0.176288 0.427734,-0.179688 -0.01486,-0.04629 -0.572266,0.02574 -0.572266,-0.177734 0,-0.795177 -0.31287,-1.614551 -0.7851559,-2.072266 -0.126777,-0.12288 -0.4811791,-0.382141 -0.7851562,-0.570312 -0.3039658,-0.18816 -0.6113446,-0.406743 -0.6796875,-0.5 C 8.0644723,12.952667 8.055561,12.858152 8.1425781,12.572266 8.301161,12.050129 8.4904733,11.757643 8.8574219,11.427734 9.049799,11.254774 9.2425392,11.11085 9.2851562,11.107422 9.3277862,11.104022 9.040108,11.016246 8.6074219,10.927734 8.174759,10.839049 7.542078,10.65359 7.2148438,10.535156 6.6164667,10.318642 5.808,9.8641161 5.5,9.5351562 5.4869714,9.5212133 5.4761581,9.5123428 5.4648438,9.5 5.9061352,7.7421714 7.143442,6.3017076 8.7851562,5.6074219 9.1286649,5.4621305 9.4836159,5.3616133 9.8574219,5.2851562 10.043616,5.2470992 10.235483,5.2343863 10.427734,5.2148438 Z m 5.357422,2.6777343 c 0.134229,0.082971 0.642435,1.1799867 0.78711,1.7148438 0.186788,0.6905031 0.173268,1.8843691 0,2.5703121 -0.06594,0.261074 -0.239043,0.273258 -0.267157,0.303658 -0.02811,0.0304 -0.0426,0.08857 -0.162531,-0.12397 -0.119943,-0.212503 -0.501924,-0.664058 -0.820312,-1 -0.919018,-0.969749 -1.064648,-1.4760574 -0.679688,-2.2500001 0.194137,-0.3902743 1.038693,-1.2789581 1.142578,-1.2148438 z"
     id="path5"
     sodipodi:nodetypes="ssscscccccssccccsssccscccccsccccscccccccccccscccc" />
  <path
     style="fill:currentColor"
     class="ColorScheme-Text"
     d="m 18,13.428513 v 0 V 14 c -1.656854,0 -3,1.343146 -3,3 0,1.656854 1.343146,3 3,3 1.656854,0 3,-1.343146 3,-3 h -1 c 0,1.104569 -0.895431,2 -2,2 -1.104569,0 -2,-0.895431 -2,-2 0,-1.104569 0.895431,-2 2,-2 v 0.499904 0 l 0.492943,0.130389 0.491432,-0.368574 c 0.0052,0.0026 0.01043,0.0052 0.01563,0.0078 V 15.25 l 1,-0.75 -1,-0.75 -0.639558,-0.479669 z"
     id="path7"
     sodipodi:nodetypes="cccssccssccccccccccc" />
</svg>
