<?xml version="1.0" encoding="UTF-8" standalone="no"?>
<svg
   width="22"
   height="22"
   version="1.1"
   id="svg7"
   sodipodi:docname="account-types-reconciled.svg"
   inkscape:version="1.1.2 (0a00cf5339, 2022-02-04)"
   xmlns:inkscape="http://www.inkscape.org/namespaces/inkscape"
   xmlns:sodipodi="http://sodipodi.sourceforge.net/DTD/sodipodi-0.dtd"
   xmlns="http://www.w3.org/2000/svg"
   xmlns:svg="http://www.w3.org/2000/svg">
  <sodipodi:namedview
     id="namedview9"
     pagecolor="#000000"
     bordercolor="#666666"
     borderopacity="1.0"
     inkscape:pageshadow="2"
     inkscape:pageopacity="0"
     inkscape:pagecheckerboard="0"
     showgrid="false"
     inkscape:zoom="34.272727"
     inkscape:cx="11"
     inkscape:cy="17.988064"
     inkscape:window-width="1920"
     inkscape:window-height="1051"
     inkscape:window-x="0"
     inkscape:window-y="29"
     inkscape:window-maximized="1"
     inkscape:current-layer="svg7" />
  <defs
     id="defs3">
    <style
       id="current-color-scheme"
       type="text/css">
   .ColorScheme-Text { color:#eeeeec; } .ColorScheme-Highlight { color:#367bf0; } .ColorScheme-NeutralText { color:#ffcc44; } .ColorScheme-PositiveText { color:#3db47e; } .ColorScheme-NegativeText { color:#dd4747; }
  </style>
  </defs>
  <path
     style="fill:currentColor"
     class="ColorScheme-Text"
     d="M 5,3 V 4 H 9.7109394 L 10,4.3648062 v 0 12.3564188 L 9.6634721,17 v 0 H 7 v 2 h 8 v -2 h -2.709758 v 0 L 12,16.730444 V 4.2414215 L 12.269991,4 V 4 H 17 V 3 Z M 4.8511175,4.3719172 v 0 L 2.0351562,11 H 2 c 0,0.02203 0.00539,0.04254 0.00586,0.06445 l -0.015625,0.03906 0.021484,0.0098 C 2.0725442,12.716488 3.381908,14 5,14 6.618092,14 7.9274558,12.716488 7.9882812,11.113281 l 0.021484,-0.0098 -0.015625,-0.03906 C 7.994613,11.042539 8,11.022027 8,11 H 7.9648438 L 5.1683626,4.4177686 Z m 12.0303605,-0.07146 v 0 L 14.035156,11 H 14 c 0,0.02203 0.0054,0.04254 0.0059,0.06445 l -0.01563,0.03906 0.02149,0.0098 C 14.072544,12.716488 15.381908,14 17,14 c 1.618092,0 2.927456,-1.283512 2.988281,-2.886719 l 0.02148,-0.0098 -0.01563,-0.03906 C 19.994613,11.042539 20,11.022027 20,11 H 19.96484 L 17.129685,4.3267315 Z M 4.8240735,6.993926 5.2377989,7.1394741 6.6779519,10.527277 6.4548205,11 v 0 H 3.4493071 v 0 L 3.2772149,10.632742 Z m 11.9777395,0.052365 0.398616,0.00528 1.524205,3.585524 L 18.504458,11 v 0 h -3.004726 v 0 l -0.211877,-0.392288 z"
     id="path5"
     sodipodi:nodetypes="ccccccccccccccccccccccccccccsccccccccccccccsccccccccccccccccccccccccc" />
</svg>
