<?xml version="1.0" encoding="UTF-8" standalone="no"?>
<svg
   width="22"
   height="22"
   viewBox="0 0 22 22"
   version="1.1"
   id="svg7"
   sodipodi:docname="vmware-view-unity-error.svg"
   inkscape:version="1.1.2 (0a00cf5339, 2022-02-04)"
   xmlns:inkscape="http://www.inkscape.org/namespaces/inkscape"
   xmlns:sodipodi="http://sodipodi.sourceforge.net/DTD/sodipodi-0.dtd"
   xmlns="http://www.w3.org/2000/svg"
   xmlns:svg="http://www.w3.org/2000/svg">
  <sodipodi:namedview
     id="namedview9"
     pagecolor="#000000"
     bordercolor="#666666"
     borderopacity="1.0"
     inkscape:pageshadow="2"
     inkscape:pageopacity="0"
     inkscape:pagecheckerboard="0"
     showgrid="false"
     inkscape:zoom="34.272727"
     inkscape:cx="10.985411"
     inkscape:cy="11"
     inkscape:window-width="1770"
     inkscape:window-height="966"
     inkscape:window-x="0"
     inkscape:window-y="29"
     inkscape:window-maximized="1"
     inkscape:current-layer="svg7" />
  <defs
     id="defs3">
    <style
       id="current-color-scheme"
       type="text/css">
   .ColorScheme-Text { color:#eeeeec; } .ColorScheme-Highlight { color:#367bf0; } .ColorScheme-NeutralText { color:#ffcc44; } .ColorScheme-PositiveText { color:#3db47e; } .ColorScheme-NegativeText { color:#dd4747; }
  </style>
  </defs>
  <path
     style="fill:currentColor"
     class="ColorScheme-Text"
     d="M 8,1 C 4.137,1 1,4.137 1,8 c 0,3.863 3.137,7 7,7 3.863,0 7,-3.137 7,-7 C 15,4.137 11.863,1 8,1 Z m 0,2 c 0.8535219,0 1.6511012,0.2016389 2.352355,0.5753396 0.136285,0.072627 0.06793,0.3527546 0.196643,0.4381622 v 0 L 4.0714952,10.491005 3.6321883,10.455937 c -0.063619,-0.09588 0.056559,0.100122 0,0 C 3.2221288,9.7300351 3,8.8958389 3,8 3,5.2407 5.2408,3 8,3 Z m 3.971599,2.4659009 c 0.07625,0.1149095 0.363388,0.017053 0.429467,0.1380217 C 12.789867,6.3156851 13,7.1286856 13,8 13,10.7592 10.7592,13 8,13 7.1152833,13 6.2906732,12.783353 5.5711442,12.382998 5.461608,12.322051 5.6134836,11.997869 5.5089765,11.928523 v 0 z"
     transform="translate(3,3)"
     id="path5"
     sodipodi:nodetypes="sssssssccccssscsssscccc" />
</svg>
