<?xml version="1.0" encoding="UTF-8" standalone="no"?>
<svg
   width="22"
   height="22"
   version="1.1"
   id="svg9"
   sodipodi:docname="appointment-soon.svg"
   inkscape:version="1.1.2 (0a00cf5339, 2022-02-04)"
   xmlns:inkscape="http://www.inkscape.org/namespaces/inkscape"
   xmlns:sodipodi="http://sodipodi.sourceforge.net/DTD/sodipodi-0.dtd"
   xmlns="http://www.w3.org/2000/svg"
   xmlns:svg="http://www.w3.org/2000/svg">
  <sodipodi:namedview
     id="namedview11"
     pagecolor="#000000"
     bordercolor="#666666"
     borderopacity="1.0"
     inkscape:pageshadow="2"
     inkscape:pageopacity="0"
     inkscape:pagecheckerboard="0"
     showgrid="false"
     inkscape:zoom="34.272727"
     inkscape:cx="10.985411"
     inkscape:cy="11"
     inkscape:window-width="1770"
     inkscape:window-height="966"
     inkscape:window-x="0"
     inkscape:window-y="29"
     inkscape:window-maximized="1"
     inkscape:current-layer="g7" />
  <defs
     id="defs3">
    <style
       id="current-color-scheme"
       type="text/css">
   .ColorScheme-Text { color:#eeeeec; } .ColorScheme-Highlight { color:#367bf0; } .ColorScheme-NeutralText { color:#ffcc44; } .ColorScheme-PositiveText { color:#3db47e; } .ColorScheme-NegativeText { color:#dd4747; }
  </style>
  </defs>
  <g
     transform="translate(3,3)"
     id="g7">
    <path
       style="fill:currentColor"
       class="ColorScheme-Text"
       d="M 12.5,9 C 10.567003,9 9,10.567003 9,12.5 9,14.432997 10.567003,16 12.5,16 14.432997,16 16,14.432997 16,12.5 16,10.567003 14.432997,9 12.5,9 Z M 12,10.37004 12.294847,10 h 0.496454 v 0 L 13,10.340801 v 1.37148 L 13.316122,12 v 0 h 1.371157 L 15,12.295689 v 0 0.408431 L 14.687279,13 v 0 H 13 12.324003 v 0 L 12,12.733358 V 12 Z M 2,1 C 2,1 1,1 1,2 v 12 c 0,1 1,1 1,1 h 6.3854721 l 0.1848344,-0.314142 c -0.068192,-0.102271 0.059369,0.107061 0,0 C 8.2820596,14.166053 8.0990397,13.593161 8.0332,13 H 3 V 6 h 10 v 2.0312 c 0.596106,0.066191 1.171734,0.2507282 1.693579,0.5414785 0.104381,0.058157 0,-0.4031227 0.306421,-0.2160012 v 0 V 2 C 15,1 14,1 14,1 Z"
       id="path5"
       sodipodi:nodetypes="sssssccccccccccccccccccccccsscccscccccsccscc" />
  </g>
</svg>
