<?xml version="1.0" encoding="UTF-8" standalone="no"?>
<svg
   width="22"
   height="22"
   version="1.1"
   id="svg9"
   sodipodi:docname="audio-volume-low.svg"
   inkscape:version="1.1.2 (0a00cf5339, 2022-02-04)"
   xmlns:inkscape="http://www.inkscape.org/namespaces/inkscape"
   xmlns:sodipodi="http://sodipodi.sourceforge.net/DTD/sodipodi-0.dtd"
   xmlns="http://www.w3.org/2000/svg"
   xmlns:svg="http://www.w3.org/2000/svg">
  <sodipodi:namedview
     id="namedview11"
     pagecolor="#000000"
     bordercolor="#666666"
     borderopacity="1.0"
     inkscape:pageshadow="2"
     inkscape:pageopacity="0"
     inkscape:pagecheckerboard="0"
     showgrid="false"
     inkscape:zoom="37.590909"
     inkscape:cx="11.013301"
     inkscape:cy="11"
     inkscape:window-width="1920"
     inkscape:window-height="1051"
     inkscape:window-x="0"
     inkscape:window-y="29"
     inkscape:window-maximized="1"
     inkscape:current-layer="svg9" />
  <defs
     id="defs3">
    <style
       id="current-color-scheme"
       type="text/css">
   .ColorScheme-Text { color:#eeeeec; } .ColorScheme-Highlight { color:#367bf0; } .ColorScheme-NeutralText { color:#ffcc44; } .ColorScheme-PositiveText { color:#3db47e; } .ColorScheme-NegativeText { color:#dd4747; }
  </style>
  </defs>
  <path
     style="fill:currentColor"
     class="ColorScheme-Text"
     d="M 10,3.7638597 9.4593513,3.5406487 5.2366771,7.7633229 v 0 L 4.5277216,8 H 2.6132384 L 2,8.535207 v 0 4.805242 0 L 2.6885994,14 h 1.9856924 l 0.5617021,0.235994 v 0 L 9.5197359,18.519736 10,18.243931 v 0 z"
     id="path5"
     sodipodi:nodetypes="ccccccccccccccccccc" />
  <path
     style="opacity:0.35;fill:currentColor"
     class="ColorScheme-Text"
     d="m 12,3.4165953 v 0 V 5 c 2.86838,0.84571 5,3.06286 5,6 0,2.93714 -2.13163,5.15429 -5,6 v 1.562716 0 c 0.196443,-0.04496 0.390877,0.341424 0.583007,0.284811 C 16.199929,17.781759 19,14.689713 19,11 19,7.2901003 16.169207,4.1844259 12.52357,3.135163 12.350805,3.0854389 12.17621,3.4569283 12,3.4165953 Z M 12.440049,7.1888962 12,7.5689005 v 6.8765525 l 0.567371,0.300847 c 0,0 -0.335184,0.17631 0,0 C 13.437056,14.288837 15.000144,13.165426 15,11 14.999848,8.7242129 13.273524,7.5993607 12.440049,7.1888962 c -0.265233,-0.1306202 0,0 0,0 z"
     id="path7"
     sodipodi:nodetypes="cccscccssscccccsssc" />
</svg>
