<?xml version="1.0" encoding="UTF-8" standalone="no"?>
<svg
   width="22"
   height="22"
   version="1.1"
   id="svg9"
   sodipodi:docname="audio-volume-medium.svg"
   inkscape:version="1.1.2 (0a00cf5339, 2022-02-04)"
   xmlns:inkscape="http://www.inkscape.org/namespaces/inkscape"
   xmlns:sodipodi="http://sodipodi.sourceforge.net/DTD/sodipodi-0.dtd"
   xmlns="http://www.w3.org/2000/svg"
   xmlns:svg="http://www.w3.org/2000/svg">
  <sodipodi:namedview
     id="namedview11"
     pagecolor="#000000"
     bordercolor="#666666"
     borderopacity="1.0"
     inkscape:pageshadow="2"
     inkscape:pageopacity="0"
     inkscape:pagecheckerboard="0"
     showgrid="false"
     inkscape:zoom="37.590909"
     inkscape:cx="1.6759371"
     inkscape:cy="11"
     inkscape:window-width="1920"
     inkscape:window-height="1051"
     inkscape:window-x="0"
     inkscape:window-y="29"
     inkscape:window-maximized="1"
     inkscape:current-layer="svg9" />
  <defs
     id="defs3">
    <style
       id="current-color-scheme"
       type="text/css">
   .ColorScheme-Text { color:#eeeeec; } .ColorScheme-Highlight { color:#367bf0; } .ColorScheme-NeutralText { color:#ffcc44; } .ColorScheme-PositiveText { color:#3db47e; } .ColorScheme-NegativeText { color:#dd4747; }
  </style>
  </defs>
  <path
     style="fill:currentColor"
     class="ColorScheme-Text"
     d="M 9.9733978,3.770589 9.4412352,3.5321626 5.387804,7.5855938 4.5002654,8 V 8 H 2.5038698 l -0.530472,0.5580423 v 0 4.7967727 L 2.5212333,14 v 0 H 4.582147 l 0.7212876,0.330037 v 0 l 4.0591781,4.059178 0.6107851,-0.192274 v 0 z m 2.0000002,3.7188273 v 0 l 0,6.8800897 0.521645,0.400569 c 0,0 -0.31039,0.159511 0,0 C 13.354368,14.328462 14.973545,13.203934 14.973398,11 14.973252,8.8119605 13.37748,7.6878136 12.513688,7.2395862 12.193143,7.0732533 11.973398,7.4894163 11.973398,7.4894163 Z"
     id="path5"
     sodipodi:nodetypes="ccccccccccccccccccccccscsc" />
  <path
     style="opacity:0.35;fill:currentColor"
     class="ColorScheme-Text"
     d="m 12,3.5897181 v 0 V 5 c 2.86838,0.84571 5,3.06286 5,6 0,2.93714 -2.13163,5.15429 -5,6 v 1.469641 l 0.676103,0.349952 c 0.228233,-0.05224 -0.222347,0.06792 0,0 C 16.247864,17.728554 19,14.657995 19,11 19,7.345885 16.253699,4.2779607 12.687466,3.1838853 12.461441,3.1145436 12.232122,3.6428488 12,3.5897181 Z"
     id="path7"
     sodipodi:nodetypes="cccscccsssc" />
</svg>
