<?xml version="1.0" encoding="UTF-8" standalone="no"?>
<svg
   width="22"
   height="22"
   version="1.1"
   id="svg7"
   sodipodi:docname="audio-volume-high.svg"
   inkscape:version="1.1.2 (0a00cf5339, 2022-02-04)"
   xmlns:inkscape="http://www.inkscape.org/namespaces/inkscape"
   xmlns:sodipodi="http://sodipodi.sourceforge.net/DTD/sodipodi-0.dtd"
   xmlns="http://www.w3.org/2000/svg"
   xmlns:svg="http://www.w3.org/2000/svg">
  <sodipodi:namedview
     id="namedview9"
     pagecolor="#000000"
     bordercolor="#666666"
     borderopacity="1.0"
     inkscape:pageshadow="2"
     inkscape:pageopacity="0"
     inkscape:pagecheckerboard="0"
     showgrid="false"
     inkscape:zoom="53.161573"
     inkscape:cx="11.004189"
     inkscape:cy="13.252053"
     inkscape:window-width="1920"
     inkscape:window-height="1051"
     inkscape:window-x="0"
     inkscape:window-y="29"
     inkscape:window-maximized="1"
     inkscape:current-layer="svg7" />
  <defs
     id="defs3">
    <style
       id="current-color-scheme"
       type="text/css">
   .ColorScheme-Text { color:#eeeeec; } .ColorScheme-Highlight { color:#367bf0; } .ColorScheme-NeutralText { color:#ffcc44; } .ColorScheme-PositiveText { color:#3db47e; } .ColorScheme-NegativeText { color:#dd4747; }
  </style>
  </defs>
  <path
     style="fill:currentColor"
     class="ColorScheme-Text"
     d="m 9.5950596,3.4049404 v 0 l -4.383448,4.383448 v 0 L 4.7261925,8 H 2.2850864 L 2,8.2504678 v 0 5.4286032 0 L 2.3757386,14 h 2.3593828 v 0 L 5.1966648,14.196665 9.5955012,18.595501 10,18.4493 v 0 V 3.6117949 Z M 12,3.3504129 v 0 V 5 c 2.86838,0.84571 5,3.06286 5,6 0,2.93714 -2.13163,5.15429 -5,6 v 1.604083 l 0.493131,0.269462 c 0.165868,-0.03797 -0.162826,0.04629 0,0 C 16.153438,17.832846 19,14.720218 19,11 19,7.2467353 16.102642,4.111904 12.395398,3.0992137 12.264577,3.0634779 12.132747,3.3807975 12,3.3504129 Z m 0,4.1679027 v 0 6.9863534 l 0.382981,0.334132 c 0,0 -0.232954,0.111193 0,0 C 13.19177,14.45275 15.000155,13.329141 15,11 14.999853,8.7932165 13.376624,7.6686315 12.518254,7.2282154 12.209717,7.0699103 12,7.5183156 12,7.5183156 Z"
     id="path5"
     sodipodi:nodetypes="ccccccccccccccccccccccscccssscccccsssc" />
</svg>
