<?xml version="1.0" encoding="UTF-8" standalone="no"?>
<svg
   width="22"
   height="22"
   version="1.1"
   id="svg31"
   sodipodi:docname="budget-delete.svg"
   inkscape:version="1.1.2 (0a00cf5339, 2022-02-04)"
   xmlns:inkscape="http://www.inkscape.org/namespaces/inkscape"
   xmlns:sodipodi="http://sodipodi.sourceforge.net/DTD/sodipodi-0.dtd"
   xmlns="http://www.w3.org/2000/svg"
   xmlns:svg="http://www.w3.org/2000/svg">
  <sodipodi:namedview
     id="namedview33"
     pagecolor="#000000"
     bordercolor="#666666"
     borderopacity="1.0"
     inkscape:pageshadow="2"
     inkscape:pageopacity="0"
     inkscape:pagecheckerboard="0"
     showgrid="false"
     inkscape:zoom="34.272727"
     inkscape:cx="11"
     inkscape:cy="10.985411"
     inkscape:window-width="1920"
     inkscape:window-height="1051"
     inkscape:window-x="0"
     inkscape:window-y="29"
     inkscape:window-maximized="1"
     inkscape:current-layer="svg31" />
  <defs
     id="defs3">
    <style
       id="current-color-scheme"
       type="text/css">
   .ColorScheme-Text { color:#eeeeec; } .ColorScheme-Highlight { color:#367bf0; } .ColorScheme-NeutralText { color:#ffcc44; } .ColorScheme-PositiveText { color:#3db47e; } .ColorScheme-NegativeText { color:#dd4747; }
  </style>
  </defs>
  <rect
     style="fill:currentColor"
     class="ColorScheme-Text"
     width="7"
     height="2"
     x="3"
     y="17"
     rx=".538"
     ry=".5"
     id="rect5" />
  <rect
     style="fill:currentColor;opacity:.35"
     class="ColorScheme-Text"
     width="7"
     height="2"
     x="3"
     y="15"
     rx=".538"
     ry=".5"
     id="rect7" />
  <rect
     style="fill:currentColor"
     class="ColorScheme-Text"
     width="7"
     height="2"
     x="3"
     y="13"
     rx=".538"
     ry=".5"
     id="rect9" />
  <rect
     style="fill:currentColor;opacity:.35"
     class="ColorScheme-Text"
     width="7"
     height="2"
     x="3"
     y="11"
     rx=".538"
     ry=".5"
     id="rect11" />
  <rect
     style="fill:currentColor"
     class="ColorScheme-Text"
     width="7"
     height="2"
     x="3"
     y="9"
     rx=".538"
     ry=".5"
     id="rect13" />
  <rect
     style="fill:currentColor;opacity:.35"
     class="ColorScheme-Text"
     width="7"
     height="2"
     x="3"
     y="7"
     rx=".538"
     ry=".5"
     id="rect15" />
  <rect
     style="fill:currentColor"
     class="ColorScheme-Text"
     width="7"
     height="2"
     x="3"
     y="5"
     rx=".538"
     ry=".5"
     id="rect17" />
  <rect
     style="fill:currentColor;opacity:.35"
     class="ColorScheme-Text"
     width="7"
     height="2"
     x="3"
     y="3"
     rx=".538"
     ry=".5"
     id="rect19" />
  <rect
     style="fill:currentColor;opacity:.35"
     class="ColorScheme-Text"
     width="7"
     height="2"
     x="12"
     y="17"
     rx=".538"
     ry=".5"
     id="rect21" />
  <rect
     style="fill:currentColor"
     class="ColorScheme-Text"
     width="7"
     height="2"
     x="12"
     y="15"
     rx=".538"
     ry=".5"
     id="rect23" />
  <rect
     style="fill:currentColor;opacity:.35"
     class="ColorScheme-Text"
     width="7"
     height="2"
     x="12"
     y="13"
     rx=".538"
     ry=".5"
     id="rect25" />
  <rect
     style="fill:currentColor"
     class="ColorScheme-Text"
     width="7"
     height="2"
     x="12"
     y="11"
     rx=".538"
     ry=".5"
     id="rect27" />
  <path
     style="fill:currentColor"
     class="ColorScheme-Text"
     d="m 15,2.2533604 v 0 0.5253788 0 L 14.770023,3 H 13.282239 L 13,3.2164072 v 0 V 4 h 6 V 3.2164072 L 18.737712,3 V 3 H 17.162457 V 3 L 17,2.8079761 V 2.2245664 L 16.754261,2 v 0 h -1.517729 z m -1,2.9764082 v 0 3.4207822 L 14.32774,9 v 0 h 3.267782 V 9 L 18,8.567631 v -3.3090684 0 L 17.716435,5 h -3.501178 z"
     id="path29"
     sodipodi:nodetypes="cccccccccccccccccccccccccccccccccc" />
</svg>
