<?xml version="1.0" encoding="UTF-8" standalone="no"?>
<svg
   width="22"
   height="22"
   version="1.1"
   id="svg35"
   sodipodi:docname="budget-edit.svg"
   inkscape:version="1.1.2 (0a00cf5339, 2022-02-04)"
   xmlns:inkscape="http://www.inkscape.org/namespaces/inkscape"
   xmlns:sodipodi="http://sodipodi.sourceforge.net/DTD/sodipodi-0.dtd"
   xmlns="http://www.w3.org/2000/svg"
   xmlns:svg="http://www.w3.org/2000/svg">
  <sodipodi:namedview
     id="namedview37"
     pagecolor="#000000"
     bordercolor="#666666"
     borderopacity="1.0"
     inkscape:pageshadow="2"
     inkscape:pageopacity="0"
     inkscape:pagecheckerboard="0"
     showgrid="false"
     inkscape:zoom="34.272727"
     inkscape:cx="10.985411"
     inkscape:cy="11"
     inkscape:window-width="1770"
     inkscape:window-height="966"
     inkscape:window-x="0"
     inkscape:window-y="29"
     inkscape:window-maximized="1"
     inkscape:current-layer="svg35" />
  <defs
     id="defs3">
    <style
       id="current-color-scheme"
       type="text/css">
   .ColorScheme-Text { color:#eeeeec; } .ColorScheme-Highlight { color:#367bf0; } .ColorScheme-NeutralText { color:#ffcc44; } .ColorScheme-PositiveText { color:#3db47e; } .ColorScheme-NegativeText { color:#dd4747; }
  </style>
  </defs>
  <g
     style="fill:currentColor;opacity:.35"
     class="ColorScheme-Text"
     id="g17">
    <rect
       width="7"
       height="2"
       x="3"
       y="15"
       rx=".5"
       ry=".5"
       id="rect5" />
    <rect
       width="7"
       height="2"
       x="3"
       y="11"
       rx=".5"
       ry=".5"
       id="rect7" />
    <rect
       width="7"
       height="2"
       x="3"
       y="7"
       rx=".5"
       ry=".5"
       id="rect9" />
    <rect
       width="7"
       height="2"
       x="3"
       y="3"
       rx=".5"
       ry=".5"
       id="rect11" />
    <rect
       width="7"
       height="2"
       x="12"
       y="17"
       rx=".5"
       ry=".5"
       id="rect13" />
    <rect
       width="7"
       height="2"
       x="12"
       y="13"
       rx=".5"
       ry=".5"
       id="rect15" />
  </g>
  <g
     style="fill:currentColor"
     class="ColorScheme-Text"
     id="g31">
    <rect
       width="7"
       height="2"
       x="3"
       y="17"
       rx=".5"
       ry=".5"
       id="rect19" />
    <rect
       width="7"
       height="2"
       x="3"
       y="13"
       rx=".5"
       ry=".5"
       id="rect21" />
    <rect
       width="7"
       height="2"
       x="3"
       y="9"
       rx=".5"
       ry=".5"
       id="rect23" />
    <rect
       width="7"
       height="2"
       x="3"
       y="5"
       rx=".5"
       ry=".5"
       id="rect25" />
    <rect
       width="7"
       height="2"
       x="12"
       y="15"
       rx=".5"
       ry=".5"
       id="rect27" />
    <rect
       width="7"
       height="2"
       x="12"
       y="11"
       rx=".5"
       ry=".5"
       id="rect29" />
  </g>
  <path
     style="fill:currentColor"
     class="ColorScheme-Text"
     d="m 17.806,3 c -0.091,0 -0.183,0.0348 -0.254,0.1055 l -0.554227,0.5590772 -0.0078,0.2789369 v 0 l 1.035746,1.0357174 v 0 L 18.335305,5.0013858 18.894,4.4473 c 0.141,-0.1414 0.141,-0.364 0,-0.5054 L 18.058,3.1055 C 17.987,3.0348 17.897,3 17.806,3 Z m -1.638923,1.4968323 v 0 L 13.162163,7.5019272 13,7.8845706 v 0 0.7880682 L 13.36971,9 v 0 h 0.787232 V 9 L 14.483374,8.8526171 17.502825,5.832985 v 0 l -0.0074,-0.32372 -1.02132,-1.0212431 z"
     id="path33"
     sodipodi:nodetypes="sccccccccccscccccccccccccccc" />
</svg>
