<?xml version="1.0" encoding="UTF-8" standalone="no"?>
<svg
   width="22"
   height="22"
   version="1.1"
   id="svg9"
   sodipodi:docname="calendar-go-today.svg"
   inkscape:version="1.1.2 (0a00cf5339, 2022-02-04)"
   xmlns:inkscape="http://www.inkscape.org/namespaces/inkscape"
   xmlns:sodipodi="http://sodipodi.sourceforge.net/DTD/sodipodi-0.dtd"
   xmlns="http://www.w3.org/2000/svg"
   xmlns:svg="http://www.w3.org/2000/svg">
  <sodipodi:namedview
     id="namedview11"
     pagecolor="#000000"
     bordercolor="#666666"
     borderopacity="1.0"
     inkscape:pageshadow="2"
     inkscape:pageopacity="0"
     inkscape:pagecheckerboard="0"
     showgrid="false"
     inkscape:zoom="37.590909"
     inkscape:cx="10.986699"
     inkscape:cy="11"
     inkscape:window-width="1916"
     inkscape:window-height="1047"
     inkscape:window-x="2"
     inkscape:window-y="31"
     inkscape:window-maximized="1"
     inkscape:current-layer="g7" />
  <defs
     id="defs3">
    <style
       id="current-color-scheme"
       type="text/css">
   .ColorScheme-Text { color:#eeeeec; } .ColorScheme-Highlight { color:#367bf0; } .ColorScheme-NeutralText { color:#ffcc44; } .ColorScheme-PositiveText { color:#3db47e; } .ColorScheme-NegativeText { color:#dd4747; }
  </style>
  </defs>
  <g
     transform="matrix(1,0,0,1,3,3)"
     id="g7">
    <path
       style="fill:currentColor"
       class="ColorScheme-Text"
       d="m 5.7636281,5.2363719 v 0 L 4.8017152,6.1982848 4.775749,6.775749 v 0 L 5.6027955,7.6027955 5.6556572,8 V 8 H 0 v 2 h 5.4720837 l 0.1766713,0.351245 v 0 l -0.8615775,0.861578 v 0 l 0.00703,0.581384 0.8923111,0.892311 v 0 l 0.6764506,-0.04949 3.1245533,-3.124553 v 0 l 0.1650174,-0.3507972 -0.01167,-0.3106902 -0.0082,-0.2183214 v 0 L 9.3831845,8.3831845 6.3163399,5.3163399 Z M 2,1 C 2,1 1,1 1,2 V 7 H 2.7597625 V 7 L 3,6.7198799 v -0.4132138 0 L 3.2386098,6 H 3.5 L 5.6715327,3.8284673 v 0 l 0.670857,0.013922 1.909939,1.909939 L 8.8111261,6 V 6 H 12.521308 L 13,6.5090336 v 0 5.9496644 L 12.580848,13 v 0 H 7.7494388 v 0 l -0.5157504,0.266312 -0.8351499,0.835149 -0.7020991,0.09498 v 0 L 4.5,13 H 3.301889 v 0 L 3,12.71161 V 11.348077 L 2.6981703,11 v 0 H 1 v 3 c 0,0 0,1 1,1 h 12 c 1,0 1,-1 1,-1 V 2 c 0,0 0,-1 -1,-1 z"
       id="path5"
       sodipodi:nodetypes="cccccccccccccccccccccccccccccscccccccccccccccccccccccccccccccccccssccsc" />
  </g>
</svg>
