<?xml version="1.0" encoding="UTF-8" standalone="no"?>
<svg
   width="22"
   height="22"
   version="1.1"
   id="svg9"
   sodipodi:docname="categories.svg"
   inkscape:version="1.1.2 (0a00cf5339, 2022-02-04)"
   xmlns:inkscape="http://www.inkscape.org/namespaces/inkscape"
   xmlns:sodipodi="http://sodipodi.sourceforge.net/DTD/sodipodi-0.dtd"
   xmlns="http://www.w3.org/2000/svg"
   xmlns:svg="http://www.w3.org/2000/svg">
  <sodipodi:namedview
     id="namedview11"
     pagecolor="#000000"
     bordercolor="#666666"
     borderopacity="1.0"
     inkscape:pageshadow="2"
     inkscape:pageopacity="0"
     inkscape:pagecheckerboard="0"
     showgrid="false"
     inkscape:zoom="34.272727"
     inkscape:cx="10.985411"
     inkscape:cy="11"
     inkscape:window-width="1880"
     inkscape:window-height="966"
     inkscape:window-x="0"
     inkscape:window-y="29"
     inkscape:window-maximized="1"
     inkscape:current-layer="svg9" />
  <defs
     id="defs3">
    <style
       id="current-color-scheme"
       type="text/css">
   .ColorScheme-Text { color:#eeeeec; } .ColorScheme-Highlight { color:#367bf0; } .ColorScheme-NeutralText { color:#ffcc44; } .ColorScheme-PositiveText { color:#3db47e; } .ColorScheme-NegativeText { color:#dd4747; }
  </style>
  </defs>
  <path
     style="fill:currentColor"
     class="ColorScheme-Text"
     d="m 9.75,8.9999997 c -0.4155,0 -0.75,0.3345 -0.75,0.75 V 18.25 C 9,18.665 9.3345,19 9.75,19 h 8.5 C 18.665,19 19,18.665 19,18.25 v -6.5 C 19,11.3345 18.665,11 18.25,11 h -2.954543 v 0 L 14.88825,10.88825 13.225325,9.2253245 12.698265,8.9999997 v 0 z"
     id="path5"
     sodipodi:nodetypes="ssssssssccccccs" />
  <path
     style="opacity:0.35;fill:currentColor"
     class="ColorScheme-Text"
     d="M 3.75,3 C 3.3345,3 3,3.3345 3,3.75 v 8.5 C 3,12.665 3.3345,13 3.75,13 h 4.0175294 v 0 L 8,12.786186 V 9.75 C 8,8.7977972 8.7977972,8 9.75,8 h 2.977558 V 8 L 13,7.7095916 V 5.75 C 13,5.3345 12.665,5 12.25,5 H 9 L 7.2876546,3.2876546 6.5421685,3 v 0 z"
     id="path7"
     sodipodi:nodetypes="sssscccsscccssccccs" />
</svg>
