<?xml version="1.0" encoding="UTF-8" standalone="no"?>
<svg
   width="22"
   height="22"
   version="1.1"
   id="svg9"
   sodipodi:docname="clear_left.svg"
   inkscape:version="1.1.2 (0a00cf5339, 2022-02-04)"
   xmlns:inkscape="http://www.inkscape.org/namespaces/inkscape"
   xmlns:sodipodi="http://sodipodi.sourceforge.net/DTD/sodipodi-0.dtd"
   xmlns="http://www.w3.org/2000/svg"
   xmlns:svg="http://www.w3.org/2000/svg">
  <sodipodi:namedview
     id="namedview11"
     pagecolor="#000000"
     bordercolor="#666666"
     borderopacity="1.0"
     inkscape:pageshadow="2"
     inkscape:pageopacity="0"
     inkscape:pagecheckerboard="0"
     showgrid="false"
     inkscape:zoom="75.181818"
     inkscape:cx="20.337364"
     inkscape:cy="10.993349"
     inkscape:window-width="1920"
     inkscape:window-height="1051"
     inkscape:window-x="0"
     inkscape:window-y="29"
     inkscape:window-maximized="1"
     inkscape:current-layer="g7" />
  <defs
     id="defs3">
    <style
       id="current-color-scheme"
       type="text/css">
   .ColorScheme-Text { color:#eeeeec; } .ColorScheme-Highlight { color:#367bf0; } .ColorScheme-NeutralText { color:#ffcc44; } .ColorScheme-PositiveText { color:#3db47e; } .ColorScheme-NegativeText { color:#dd4747; }
  </style>
  </defs>
  <g
     transform="matrix(1,0,0,1,3,3)"
     id="g7">
    <path
       class="ColorScheme-Text"
       d="m 4.620307,2.4556316 v 0 L 0.67012953,7.1958446 0.47022239,7.6560758 v 0 l -0.0227525,0.6337721 v 0 l 0.2007236,0.4879842 v 0 L 4.7187913,13.66255 5.5701873,14 v 0 h 9.9113457 v 0 L 16,13.416375 v -10.8898223 0 L 15.527578,2 H 5.6350245 Z M 7,5.544673 7.4818502,5 H 8 c 0.28,0 0.53,0.11 0.71,0.29 l 1.1855395,1.1947297 0.2321745,-0.023434 v 0 L 11.29,5.29 C 11.47,5.11 11.72,5 12,5 h 0.512962 L 13,5.5150451 v 0 V 6 c 0,0.28 -0.11,0.53 -0.29,0.71 l -1.182904,1.1738049 0.0202,0.2524398 v 0 L 12.71,9.29 C 12.89,9.47 13,9.72 13,10 v 0.472401 L 12.523508,11 v 0 H 12 c -0.28,0 -0.53,-0.11 -0.71,-0.29 L 10.125344,9.5363155 10,9.5295166 9.8586747,9.5524209 8.71,10.71 C 8.53,10.89 8.28,11 8,11 H 7.5177868 v 0 L 7,10.470318 V 10 C 7,9.72 7.11,9.47 7.29,9.29 L 8.4701787,8.1188996 v 0 l -0.00413,-0.2419 L 7.29,6.71 C 7.11,6.53 7,6.28 7,6 Z"
       style="fill:currentColor"
       id="path5"
       sodipodi:nodetypes="ccccccccccccccccccccccscccccscccscccccscccscccccscccscccccsc" />
  </g>
</svg>
