<?xml version="1.0" encoding="UTF-8" standalone="no"?>
<svg
   width="22"
   height="22"
   version="1.1"
   id="svg9"
   sodipodi:docname="debug-step-instruction.svg"
   inkscape:version="1.1.2 (0a00cf5339, 2022-02-04)"
   xmlns:inkscape="http://www.inkscape.org/namespaces/inkscape"
   xmlns:sodipodi="http://sodipodi.sourceforge.net/DTD/sodipodi-0.dtd"
   xmlns="http://www.w3.org/2000/svg"
   xmlns:svg="http://www.w3.org/2000/svg">
  <sodipodi:namedview
     id="namedview11"
     pagecolor="#000000"
     bordercolor="#666666"
     borderopacity="1.0"
     inkscape:pageshadow="2"
     inkscape:pageopacity="0"
     inkscape:pagecheckerboard="0"
     showgrid="false"
     inkscape:zoom="106.32315"
     inkscape:cx="10.86311"
     inkscape:cy="9.7673934"
     inkscape:window-width="1920"
     inkscape:window-height="1051"
     inkscape:window-x="0"
     inkscape:window-y="29"
     inkscape:window-maximized="1"
     inkscape:current-layer="g7" />
  <defs
     id="defs3">
    <style
       id="current-color-scheme"
       type="text/css">
   .ColorScheme-Text { color:#eeeeec; } .ColorScheme-Highlight { color:#367bf0; } .ColorScheme-NeutralText { color:#ffcc44; } .ColorScheme-PositiveText { color:#3db47e; } .ColorScheme-NegativeText { color:#dd4747; }
  </style>
  </defs>
  <g
     transform="matrix(1,0,0,1,3,3)"
     id="g7">
    <path
       style="fill:currentColor"
       class="ColorScheme-Text"
       d="M 3,1 C 1,1 1,3 1,3 V 15 H 15 V 3 C 15,1 13,1 13,1 H 11 V 4.8754255 L 11.152348,5 v 0 h 1.624057 l 0.223703,0.2153627 v 0 L 13.0039,12.788108 12.898854,12.908596 12.776056,13 H 3.2418101 L 3.1097041,12.903435 3,12.797028 v -7.5765789 0 L 3.2208902,5 H 4.8536833 L 5,4.8358328 v 0 V 1 Z M 6.5012116,1 6.2937924,1.4406887 7.7573003,3.6359505 v 0 L 8.2884993,3.567251 9.7566517,1.3650225 9.5702542,1 V 1 Z M 6.4277,6 C 5.3622,6 4.9238,6.3523 4.9238,7.2539 4.9238,7.2539 4.8994,7.8413 4.8926,8 4.8464,8.3689 4.7172,8.6777 4.3145,8.6777 H 4 v 0.6446 h 0.3145 c 0.5885,0 0.6093,0.6442 0.6093,1.2007 -0.005,0.174 0.0136,0.369 0.0176,0.477 0.0833,0.712 0.5291,1 1.4863,1 V 11.408 C 5.9782,11.408 5.8292,11.29 5.7656,11 5.7319,10.884 5.7284,10.486 5.7148,10.295 5.7148,9.8795 5.5928,9.2602 4.9941,9.0039 5.4672,8.8013 5.6363,8.3756 5.6895,8 5.7134,7.8959 5.708,7.7777 5.7148,7.6973 5.7148,6.831 5.7175,6.5918 6.4277,6.5918 Z M 7.5,6.259432 v 0 0.5101134 L 7.707238,7 V 7 H 8.2627825 V 7 L 8.5,6.7805815 V 6.1595528 L 8.2536819,6 V 6 H 7.7232425 Z M 9.5723,6 v 0.5918 c 0.7107,0 0.7267,0.2391 0.7267,1.1055 0.007,0.0804 0.002,0.1986 0.025,0.3027 0.053,0.3756 0.224,0.8013 0.697,1.0039 -0.598,0.2564 -0.722,0.8756 -0.722,1.2911 -0.014,0.191 -0.017,0.589 -0.051,0.705 -0.063,0.29 -0.226,0.408 -0.6757,0.408 V 12 c 0.9577,0 1.4187,-0.288 1.5017,-1 0.004,-0.108 0.023,-0.303 0.018,-0.477 0,-0.5565 0.019,-1.2007 0.607,-1.2007 H 12 V 8.6777 H 11.699 C 11.296,8.6777 11.169,8.3689 11.123,8 11.116,7.8413 11.092,7.2539 11.092,7.2539 11.092,6.3522 10.638,6 9.5723,6 Z M 7.5,8.1701507 v 0 3.6583503 0.06675 -0.06675 L 7.6462425,12 h 0.6622723 v 0 L 8.5,11.804902 v -3.6063777 0 L 8.2650752,8 H 7.732452 Z"
       id="path5"
       sodipodi:nodetypes="scccscccccccccccccccccccccscccccccccccccsccscccccccccccccccccccccccccccccccccccsccscccccccccccccccc" />
  </g>
</svg>
