<?xml version="1.0" encoding="UTF-8" standalone="no"?>
<svg
   width="22"
   height="22"
   viewBox="0 0 22 22"
   version="1.1"
   id="svg7"
   sodipodi:docname="vmware-settings.svg"
   inkscape:version="1.1.2 (0a00cf5339, 2022-02-04)"
   xmlns:inkscape="http://www.inkscape.org/namespaces/inkscape"
   xmlns:sodipodi="http://sodipodi.sourceforge.net/DTD/sodipodi-0.dtd"
   xmlns="http://www.w3.org/2000/svg"
   xmlns:svg="http://www.w3.org/2000/svg">
  <sodipodi:namedview
     id="namedview9"
     pagecolor="#000000"
     bordercolor="#666666"
     borderopacity="1.0"
     inkscape:pageshadow="2"
     inkscape:pageopacity="0"
     inkscape:pagecheckerboard="0"
     showgrid="false"
     inkscape:zoom="34.272727"
     inkscape:cx="10.985411"
     inkscape:cy="11"
     inkscape:window-width="1770"
     inkscape:window-height="966"
     inkscape:window-x="0"
     inkscape:window-y="29"
     inkscape:window-maximized="1"
     inkscape:current-layer="svg7" />
  <defs
     id="defs3">
    <style
       id="current-color-scheme"
       type="text/css">
   .ColorScheme-Text { color:#eeeeec; } .ColorScheme-Highlight { color:#367bf0; } .ColorScheme-NeutralText { color:#ffcc44; } .ColorScheme-PositiveText { color:#3db47e; } .ColorScheme-NegativeText { color:#dd4747; }
  </style>
  </defs>
  <path
     style="fill:currentColor"
     class="ColorScheme-Text"
     d="M 6.5470176,1 6.2123167,1.450291 6.0957031,2.84375 C 5.5110767,3.0603026 4.9675242,3.374678 4.4882812,3.7734375 L 3.1693517,3.1524031 2.6010424,3.3506498 v 0 L 1.254717,5.6826777 1.4188317,6.2630903 v 0 L 2.5839844,7.0722656 C 2.5298047,7.378579 2.5017091,7.6889366 2.5,8 2.5001978,8.312257 2.526987,8.62393 2.580078,8.9316406 L 1.4383172,9.723673 1.3130931,10.418438 v 0 l 1.2337327,2.137001 0.6988924,0.256229 v 0 L 4.484375,12.228516 c 0.4808526,0.397064 1.0257299,0.70946 1.6113281,0.923828 l 0.120006,1.475917 v 0 l 0.56535,0.373692 H 9.348433 v 0 l 0.431702,-0.406771 0.1202556,-1.436979 c 0.5846264,-0.216552 1.1281784,-0.530928 1.6074214,-0.929687 l 1.256407,0.591594 0.633499,-0.173425 v 0 l 1.302784,-2.256608 v 0 L 14.514747,9.6954476 13.412109,8.9296875 c 0.05418,-0.3063134 0.08228,-0.616671 0.08399,-0.9277344 -1.98e-4,-0.312257 -0.02699,-0.62393 -0.08008,-0.9316406 l 1.113793,-0.7726309 0.227382,-0.5856583 v 0 L 13.423523,3.4019136 v 0 L 12.759204,3.1861301 11.511722,3.7734375 C 11.030866,3.3763737 10.485989,3.0639774 9.9003906,2.8496094 L 9.7884666,1.4730896 9.348433,1 V 1 Z M 8,6 c 1.1045695,0 2,0.8954305 2,2 0,1.1045695 -0.8954305,2 -2,2 C 6.8954305,10 6,9.1045695 6,8 6,6.8954305 6.8954305,6 8,6 Z"
     transform="translate(3,3)"
     id="path5"
     sodipodi:nodetypes="ccccccccccccccccccccccccccccccccccccccccccccccccccsssss" />
</svg>
