<?xml version="1.0" encoding="UTF-8" standalone="no"?>
<svg
   width="22"
   height="22"
   viewBox="0 0 22 22"
   version="1.1"
   id="svg7"
   sodipodi:docname="draw-brush.svg"
   inkscape:version="1.1.2 (0a00cf5339, 2022-02-04)"
   xmlns:inkscape="http://www.inkscape.org/namespaces/inkscape"
   xmlns:sodipodi="http://sodipodi.sourceforge.net/DTD/sodipodi-0.dtd"
   xmlns="http://www.w3.org/2000/svg"
   xmlns:svg="http://www.w3.org/2000/svg">
  <sodipodi:namedview
     id="namedview9"
     pagecolor="#000000"
     bordercolor="#666666"
     borderopacity="1.0"
     inkscape:pageshadow="2"
     inkscape:pageopacity="0"
     inkscape:pagecheckerboard="0"
     showgrid="false"
     inkscape:zoom="37.590909"
     inkscape:cx="11.013301"
     inkscape:cy="11"
     inkscape:window-width="1920"
     inkscape:window-height="1051"
     inkscape:window-x="0"
     inkscape:window-y="29"
     inkscape:window-maximized="1"
     inkscape:current-layer="svg7" />
  <defs
     id="defs3">
    <style
       id="current-color-scheme"
       type="text/css">
   .ColorScheme-Text { color:#eeeeec; } .ColorScheme-Highlight { color:#367bf0; } .ColorScheme-NeutralText { color:#ffcc44; } .ColorScheme-PositiveText { color:#3db47e; } .ColorScheme-NegativeText { color:#dd4747; }
  </style>
  </defs>
  <path
     style="fill:currentColor"
     class="ColorScheme-Text"
     d="M 14.574219,1.0058594 C 13.520146,0.87298937 10.770478,2.75775 8.0605469,5.46875 6.9770276,6.5529245 6.021868,7.6256434 5.2569452,8.6482729 c -0.08821,0.1179282 0.083055,-0.1165368 0,0 0.1266853,0.040362 -0.00688,0.4407501 0.112513,0.4970401 0.6700847,0.3159159 1.2147637,0.872133 1.5150467,1.550309 0.043828,0.09898 0.39547,-0.02748 0.4285153,0.07633 0.1037536,-0.07399 -0.104911,0.07802 0,0 1.0343283,-0.769183 2.1226365,-1.7310195 3.2201828,-2.8285936 3.074522,-3.0758 5.01306,-6.1228407 4.330078,-6.8066406 -0.0702,-0.0707 -0.165975,-0.1150694 -0.289062,-0.1308594 z M 4.5,10.330078 v 0.002 c -3.2523378,0.871897 -1.215707,2.847438 -3.0179071,4.337067 -0.1371311,0.113348 0.2984599,0.206442 0.1128553,0.313462 0.2042767,0 -0.1923554,0.01147 0,0 C 4.6981583,14.797488 6.25,13.179998 6.25,12.080078 c 0,-0.58228 0.059355,-1.6531 -1.75,-1.75 z"
     transform="translate(3,3)"
     id="path5"
     sodipodi:nodetypes="ccscsscscccccscssc" />
</svg>
