<?xml version="1.0" encoding="UTF-8" standalone="no"?>
<svg
   width="22"
   height="22"
   version="1.1"
   id="svg9"
   sodipodi:docname="tab_remove_other.svg"
   inkscape:version="1.1.2 (0a00cf5339, 2022-02-04)"
   xmlns:inkscape="http://www.inkscape.org/namespaces/inkscape"
   xmlns:sodipodi="http://sodipodi.sourceforge.net/DTD/sodipodi-0.dtd"
   xmlns="http://www.w3.org/2000/svg"
   xmlns:svg="http://www.w3.org/2000/svg">
  <sodipodi:namedview
     id="namedview11"
     pagecolor="#000000"
     bordercolor="#666666"
     borderopacity="1.0"
     inkscape:pageshadow="2"
     inkscape:pageopacity="0"
     inkscape:pagecheckerboard="0"
     showgrid="false"
     inkscape:zoom="37.590909"
     inkscape:cx="11.013301"
     inkscape:cy="11"
     inkscape:window-width="1920"
     inkscape:window-height="1051"
     inkscape:window-x="0"
     inkscape:window-y="29"
     inkscape:window-maximized="1"
     inkscape:current-layer="g7" />
  <defs
     id="defs3">
    <style
       id="current-color-scheme"
       type="text/css">
   .ColorScheme-Text { color:#eeeeec; } .ColorScheme-Highlight { color:#367bf0; } .ColorScheme-NeutralText { color:#ffcc44; } .ColorScheme-PositiveText { color:#3db47e; } .ColorScheme-NegativeText { color:#dd4747; }
  </style>
  </defs>
  <g
     transform="translate(3,3)"
     id="g7">
    <path
       style="fill:currentColor"
       class="ColorScheme-Text"
       d="M 4,2 C 4,2 2,2 2,4 v 7 c 0,1 -1,1 -1,1 -0.13117953,0.0064 -0.24815034,0.01088 -0.35283711,0.01358 C 0.34401241,12.021396 0.14387056,12.472755 0,12.458084 v 0 V 14 H 16 V 12.434608 L 15.586876,12 v 0 H 15 c 0,0 -1,0 -1,-1 V 4 C 14,4 14,2 12,2 Z M 5.4868307,5 V 5 H 6.4141 l 1.3649767,1.3649767 0.4238637,0.017983 v 0 L 9.5859,5 h 0.871208 V 5 L 11,5.4591357 V 6.4141 L 9.6259389,7.7881611 9.639555,8.225455 v 0 L 11,9.5859 v 1.005158 L 10.386644,11 v 0 H 9.5859 L 8.2454253,9.6595253 7.8291895,9.5849105 v 0 L 6.4141,11 H 5.4555304 v 0 L 5,10.582199 V 9.5859 L 6.3347123,8.2511877 v 0 L 6.3575946,7.7716946 5,6.4141 C 5,6.0539443 5,5.8882758 5,5.4665348 5,5.3387224 5.4868307,5.1873912 5.4868307,5 Z"
       id="path5"
       sodipodi:nodetypes="csscsccccccccscsccccccccccccccccccccccccccccccccsc" />
  </g>
</svg>
