<?xml version="1.0" encoding="UTF-8" standalone="no"?>
<svg
   width="22"
   height="22"
   viewBox="0 0 22 22"
   version="1.1"
   id="svg7"
   sodipodi:docname="taxes-finances.svg"
   inkscape:version="1.1.2 (0a00cf5339, 2022-02-04)"
   xmlns:inkscape="http://www.inkscape.org/namespaces/inkscape"
   xmlns:sodipodi="http://sodipodi.sourceforge.net/DTD/sodipodi-0.dtd"
   xmlns="http://www.w3.org/2000/svg"
   xmlns:svg="http://www.w3.org/2000/svg">
  <sodipodi:namedview
     id="namedview9"
     pagecolor="#000000"
     bordercolor="#666666"
     borderopacity="1.0"
     inkscape:pageshadow="2"
     inkscape:pageopacity="0"
     inkscape:pagecheckerboard="0"
     showgrid="false"
     inkscape:zoom="34.272727"
     inkscape:cx="10.985411"
     inkscape:cy="11"
     inkscape:window-width="525"
     inkscape:window-height="904"
     inkscape:window-x="515"
     inkscape:window-y="172"
     inkscape:window-maximized="1"
     inkscape:current-layer="svg7" />
  <defs
     id="defs3">
    <style
       id="current-color-scheme"
       type="text/css">
   .ColorScheme-Text { color:#eeeeec; } .ColorScheme-Highlight { color:#367bf0; } .ColorScheme-NeutralText { color:#ffcc44; } .ColorScheme-PositiveText { color:#3db47e; } .ColorScheme-NegativeText { color:#dd4747; }
  </style>
  </defs>
  <path
     style="fill:currentColor"
     class="ColorScheme-Text"
     d="M 6,0.0390625 V 1.171875 c -0.9772,0.1418 -1.8092906,0.3971281 -2.4628906,0.7988281 -1.0105,0.6149 -1.515625,1.5580782 -1.515625,2.8300781 -0.00445,2.1218417 1.4547279,2.8686251 3.7383953,3.5169502 C 5.8389404,8.3401765 5.9189894,8.6790451 6,8.7013072 v 0 4.3559588 0 C 5.9036885,13.049135 5.8080553,13.359864 5.7130113,13.350001 4.6507882,13.23977 3.6621698,13.016516 2.6230469,12.572266 L 2,13.929688 c 0.5645,0.301 1.3272625,0.562156 2.2890625,0.785156 C 4.8332625,14.836844 5.4003,14.91475 6,14.96875 v 1.070312 h 3 v -1.117187 c 1.997,-0.285 3.979984,-1.203453 3.958984,-3.689453 C 12.888984,9.4037218 11.756,8.7248594 9,7.7558594 v -4.5995806 0 C 9.124333,3.1728923 9.2523606,2.8384399 9.3838993,2.8606047 10.208012,2.9994703 11.169947,3.258946 12.224609,3.7851562 L 13,2.2421875 C 12.449,1.9466875 11.168516,1.4757813 10.353516,1.3007812 9.9195152,1.2081812 9.467,1.1451625 9,1.1015625 v -1.0625 z M 5.7562882,2.8431314 6,3.1035464 V 6.4017897 L 5.5585904,6.628061 c -0.1492095,-0.052825 0.1444246,0.059846 0,0 C 4.5153633,6.1957702 3.64697,5.5702097 3.6757812,4.6054688 3.6198979,3.6291037 4.5518661,3.0850786 5.7562882,2.8431314 c 0.080102,-0.016091 -0.082302,0.013457 0,0 z M 9,9.5819705 c 0.1183157,0.041434 0.2345658,-0.247924 0.3481046,-0.2038921 1.1157414,0.4326992 1.9696464,1.0024146 1.9487704,1.9363746 -0.03491,1.249558 -0.914184,1.770685 -1.9337593,1.985317 -0.1194894,0.02515 0.12221,-0.01741 0,0 L 9,13.054078 Z"
     transform="translate(3,3)"
     id="path5"
     sodipodi:nodetypes="ccccsccccscccccccccccsccccccccccscsccscsccc" />
</svg>
