<?xml version="1.0" encoding="UTF-8" standalone="no"?>
<svg
   width="22"
   height="22"
   version="1.1"
   id="svg7"
   sodipodi:docname="text-wiki.svg"
   inkscape:version="1.1.2 (0a00cf5339, 2022-02-04)"
   xmlns:inkscape="http://www.inkscape.org/namespaces/inkscape"
   xmlns:sodipodi="http://sodipodi.sourceforge.net/DTD/sodipodi-0.dtd"
   xmlns="http://www.w3.org/2000/svg"
   xmlns:svg="http://www.w3.org/2000/svg">
  <sodipodi:namedview
     id="namedview9"
     pagecolor="#ffffff"
     bordercolor="#666666"
     borderopacity="1.0"
     inkscape:pageshadow="2"
     inkscape:pageopacity="0.0"
     inkscape:pagecheckerboard="0"
     showgrid="false"
     inkscape:zoom="34.272727"
     inkscape:cx="11"
     inkscape:cy="11"
     inkscape:window-width="1697"
     inkscape:window-height="966"
     inkscape:window-x="0"
     inkscape:window-y="29"
     inkscape:window-maximized="1"
     inkscape:current-layer="svg7" />
  <defs
     id="defs3">
    <style
       id="current-color-scheme"
       type="text/css">
   .ColorScheme-Text { color:#eeeeec; } .ColorScheme-Highlight { color:#367bf0; } .ColorScheme-NeutralText { color:#ffcc44; } .ColorScheme-PositiveText { color:#3db47e; } .ColorScheme-NegativeText { color:#dd4747; }
  </style>
  </defs>
  <path
     style="fill:currentColor"
     class="ColorScheme-Text"
     d="m 11.835,6.0045 -0.041,0.0269 v 0.2868 c 0,0.0349 0.015,0.0594 0.046,0.0806 0.03,0.0224 0.061,0.0359 0.095,0.0359 l 0.132,0.0134 c 0.338,0.0138 0.498,0.1018 0.544,0.1568 0.081,0.0975 0.119,0.2058 -0.077,0.6278 l -1.023784,2.0125966 v 0 L 11.210806,9.2270012 10.306,7.3977 C 9.9585,6.7149 9.8738,6.5017 10.397,6.4615 l 0.208,-0.0269 c 0.101,0 0.15,-0.0348 0.15,-0.103 V 6.0314 L 10.678,6.0045 7.8237,6.009 7.7828,6.0359 V 6.336 c 0,0.0671 0.0717,0.0853 0.2087,0.1031 0.4897,0.0637 0.4776,0.1139 0.962,1.0616 l 1.7105,3.4143 -1.4387259,2.833432 v 0 0 l -0.3782061,0.03 L 5.7635,7.1337 C 5.6886,6.954 5.6546,6.8213 5.6546,6.7393 5.6546,6.5632 5.8138,6.4702 6.1356,6.457 L 6.5123,6.4391 c 0.0993,0 0.1497,-0.0379 0.1497,-0.1165 V 6.0403 L 6.6257,6.009 H 3.0318 L 3,6.0403 V 6.336 c 0,0.054 0.0654,0.0882 0.2042,0.1031 0.3781,0.02 0.6291,0.08 0.7487,0.1792 0.1191,0.1004 0.4129,0.7484 0.4129,0.7484 l 3.7618,8.1543 c 0.2695,0.595 0.6052,0.688 1.0164,-0.018 l 1.847,-3.66 c 0.009,-0.125 0.122,0.04 0.122,0.04 l 1.689,3.611 c 0.304,0.621 0.65,0.681 1.002,0.018 L 17.421,7.4067 C 17.538,7.1077 17.698,6.879 17.906,6.7121 18.114,6.5464 18.435,6.4532 18.868,6.4343 18.957,6.4343 19,6.3953 19,6.3178 V 6.0311 L 18.968,5.9997 H 15.66 l -0.041,0.0314 v 0.2867 c 0,0.0338 0.015,0.0594 0.046,0.0807 0.031,0.0223 0.061,0.0358 0.095,0.0358 l 0.277,0.0135 c 0.339,0.0138 0.431,0.0802 0.563,0.1926 0.13,0.1153 0.147,0.3105 0.045,0.5873 l -2.773324,6.499167 v 0 0 l -0.447149,-0.03453 v 0 L 11.744,10.306 13.745,6.7212 c 0.159,-0.2254 0.248,-0.2666 0.681,-0.2867 0.088,0 0.132,-0.0379 0.132,-0.1165 V 6.0357 L 14.526,6.0043 Z"
     id="path5"
     sodipodi:nodetypes="ccscccccccccccsccccsccccccccsccsccccsccccccccccccsccccscccccccccccccsccc" />
</svg>
