<?xml version="1.0" encoding="UTF-8" standalone="no"?>
<svg
   width="22"
   height="22"
   version="1.1"
   id="svg9"
   sodipodi:docname="text_letter_spacing.svg"
   inkscape:version="1.1.2 (0a00cf5339, 2022-02-04)"
   xmlns:inkscape="http://www.inkscape.org/namespaces/inkscape"
   xmlns:sodipodi="http://sodipodi.sourceforge.net/DTD/sodipodi-0.dtd"
   xmlns="http://www.w3.org/2000/svg"
   xmlns:svg="http://www.w3.org/2000/svg">
  <sodipodi:namedview
     id="namedview11"
     pagecolor="#000000"
     bordercolor="#666666"
     borderopacity="1.0"
     inkscape:pageshadow="2"
     inkscape:pageopacity="0"
     inkscape:pagecheckerboard="0"
     showgrid="false"
     inkscape:zoom="34.272727"
     inkscape:cx="11"
     inkscape:cy="11"
     inkscape:window-width="1741"
     inkscape:window-height="966"
     inkscape:window-x="0"
     inkscape:window-y="29"
     inkscape:window-maximized="1"
     inkscape:current-layer="g7" />
  <defs
     id="defs3">
    <style
       id="current-color-scheme"
       type="text/css">
   .ColorScheme-Text { color:#eeeeec; } .ColorScheme-Highlight { color:#367bf0; } .ColorScheme-NeutralText { color:#ffcc44; } .ColorScheme-PositiveText { color:#3db47e; } .ColorScheme-NegativeText { color:#dd4747; }
  </style>
  </defs>
  <g
     transform="translate(3,3)"
     id="g7">
    <path
       style="fill:currentColor"
       class="ColorScheme-Text"
       d="M 8.5,13.5 C 8.5,13.776142 8.2761424,14 8,14 7.7238576,14 7.5,13.776142 7.5,13.5 7.5,13.223858 7.7238576,13 8,13 c 0.2761424,0 0.5,0.223858 0.5,0.5 z M 1,1 V 6 H 3.5 C 5,6 5,4.5 5,4.5 5,3.5 4.312,3.2187 4.312,3.2187 4.312,3.2187 4.5,3 4.5,2.5 4.5,2.5 4.5,1 3,1 Z m 10,0 v 5 h 2.5 C 15,6 15,4.5 15,4.5 v -2 C 15,2.5 15,1 13.5,1 Z M 2,2 H 3 C 3.5,2 3.5,2.5 3.5,2.5 3.5,2.5 3.5,3 3,3 H 2 Z m 10,0 h 1.5 C 14,2 14,2.5 14,2.5 v 2 C 14,4.5 14,5 13.5,5 H 12 Z M 6,3 V 4 H 9 V 3 Z M 2,4 H 3.5 C 4,4 4,4.5 4,4.5 4,4.5 4,5 3.5,5 H 2 Z M 1,8 v 2 H 5 V 8 Z m 6,0 v 2 H 9 V 8 Z m 4,0 v 2 h 4 V 8 Z m -5.4647187,4.17427 v 0 l -2.9672558,1.11272 0.045538,0.443096 v 0 L 5.6326118,14.862229 6,14.600535 v 0 -2.071392 z M 10,12.529143 v 0 1.984124 0 l 0.579624,0.269374 2.890651,-1.083994 v 0 l -0.08814,-0.430344 -2.897213,-1.086455 z"
       id="path5"
       sodipodi:nodetypes="sssssccscccscccsccsccscscccsccsccccccccscsccccccccccccccccccccccccccccccccccccc" />
  </g>
</svg>
