<?xml version="1.0" encoding="UTF-8" standalone="no"?>
<svg
   width="22"
   height="22"
   version="1.1"
   id="svg11"
   sodipodi:docname="text_remove_kerns.svg"
   inkscape:version="1.1.2 (0a00cf5339, 2022-02-04)"
   xmlns:inkscape="http://www.inkscape.org/namespaces/inkscape"
   xmlns:sodipodi="http://sodipodi.sourceforge.net/DTD/sodipodi-0.dtd"
   xmlns="http://www.w3.org/2000/svg"
   xmlns:svg="http://www.w3.org/2000/svg">
  <sodipodi:namedview
     id="namedview13"
     pagecolor="#000000"
     bordercolor="#666666"
     borderopacity="1.0"
     inkscape:pageshadow="2"
     inkscape:pageopacity="0"
     inkscape:pagecheckerboard="0"
     showgrid="false"
     inkscape:zoom="34.272727"
     inkscape:cx="20.71618"
     inkscape:cy="11"
     inkscape:window-width="1741"
     inkscape:window-height="966"
     inkscape:window-x="0"
     inkscape:window-y="29"
     inkscape:window-maximized="1"
     inkscape:current-layer="g9" />
  <defs
     id="defs3">
    <style
       id="current-color-scheme"
       type="text/css">
   .ColorScheme-Text { color:#eeeeec; } .ColorScheme-Highlight { color:#367bf0; } .ColorScheme-NeutralText { color:#ffcc44; } .ColorScheme-PositiveText { color:#3db47e; } .ColorScheme-NegativeText { color:#dd4747; }
  </style>
  </defs>
  <g
     transform="translate(3,3)"
     id="g9">
    <path
       style="opacity:0.35;fill:currentColor"
       class="ColorScheme-Text"
       d="M 3,3 0,11 H 1 L 1.77,9 H 5.23 L 6,11 H 7 L 4,3 Z M 3.3134382,4.985116 3.6983126,5.0156718 4.7366405,7.7156328 4.5055123,8 V 8 H 2.5506844 V 8 L 2.2766003,7.6812028 Z"
       id="path5"
       sodipodi:nodetypes="ccccccccccccccccccc" />
    <path
       style="fill:currentColor"
       class="ColorScheme-Text"
       d="m 10,10.37004 v 0 1.04396 L 11.586,13 10,14.586 v 0.831397 0 L 10.661439,16 H 11.414 L 13,14.414 14.586,16 h 0.919104 v 0 L 16,15.446633 V 14.586 L 14.414,13 16,11.414 V 10.486544 L 15.563237,10 v 0 H 14.586 L 13,11.586 11.414,10 H 10.398676 Z M 8,1 V 12 H 0 v 1 H 9 V 1 Z"
       id="path7"
       sodipodi:nodetypes="cccccccccccccccccccccccccccccccc" />
  </g>
</svg>
