<?xml version="1.0" encoding="UTF-8" standalone="no"?>
<svg
   width="22"
   height="22"
   viewBox="0 0 22 22"
   version="1.1"
   id="svg7"
   sodipodi:docname="tool-tweak.svg"
   inkscape:version="1.1.2 (0a00cf5339, 2022-02-04)"
   xmlns:inkscape="http://www.inkscape.org/namespaces/inkscape"
   xmlns:sodipodi="http://sodipodi.sourceforge.net/DTD/sodipodi-0.dtd"
   xmlns="http://www.w3.org/2000/svg"
   xmlns:svg="http://www.w3.org/2000/svg">
  <sodipodi:namedview
     id="namedview9"
     pagecolor="#000000"
     bordercolor="#666666"
     borderopacity="1.0"
     inkscape:pageshadow="2"
     inkscape:pageopacity="0"
     inkscape:pagecheckerboard="0"
     showgrid="false"
     inkscape:zoom="34.272727"
     inkscape:cx="10.985411"
     inkscape:cy="11"
     inkscape:window-width="1880"
     inkscape:window-height="966"
     inkscape:window-x="0"
     inkscape:window-y="29"
     inkscape:window-maximized="1"
     inkscape:current-layer="svg7" />
  <defs
     id="defs3">
    <style
       id="current-color-scheme"
       type="text/css">
   .ColorScheme-Text { color:#eeeeec; } .ColorScheme-Highlight { color:#367bf0; } .ColorScheme-NeutralText { color:#ffcc44; } .ColorScheme-PositiveText { color:#3db47e; } .ColorScheme-NegativeText { color:#dd4747; }
  </style>
  </defs>
  <path
     style="fill:currentColor"
     class="ColorScheme-Text"
     d="M 9.7851562,0.98632812 C 9.6058244,0.97506172 9.4255594,0.9795875 9.2480469,1 7.4815469,1.369 6.6307438,3.2845656 6.0898438,4.9472656 5.6167938,6.4576656 5.1670375,8.3052437 3.6484375,8.9648438 3.0530046,9.1994405 1.9581122,9.3075713 1.2358888,9.2460736 1.1592224,9.2395455 1.0856199,9.5637309 1.0183956,9.5533281 v 0 L 1,14.941406 l 14,0.03906 v -5.3107872 0 C 14.877042,9.6890773 14.753011,9.2970475 14.628151,9.3131579 12.911867,9.5346064 11.039073,9.4204806 9.6464844,8.2773438 8.3327844,7.1489437 7.9007294,4.8738344 8.8496094,3.3652344 c 0.94537,-1.1256 2.9101436,-0.6564375 3.5273436,0.6015625 0.51081,0.266 0.345026,-0.5040407 0.259766,-0.8066407 C 12.277391,1.8974438 11.040479,1.065193 9.7851562,0.98632812 Z"
     transform="translate(3,3)"
     id="path5"
     sodipodi:nodetypes="scccsccccccsccccs" />
</svg>
