<?xml version="1.0" encoding="UTF-8" standalone="no"?>
<svg
   width="22"
   height="22"
   version="1.1"
   id="svg9"
   sodipodi:docname="tools-media-optical-burn.svg"
   inkscape:version="1.1.2 (0a00cf5339, 2022-02-04)"
   xmlns:inkscape="http://www.inkscape.org/namespaces/inkscape"
   xmlns:sodipodi="http://sodipodi.sourceforge.net/DTD/sodipodi-0.dtd"
   xmlns="http://www.w3.org/2000/svg"
   xmlns:svg="http://www.w3.org/2000/svg">
  <sodipodi:namedview
     id="namedview11"
     pagecolor="#000000"
     bordercolor="#666666"
     borderopacity="1.0"
     inkscape:pageshadow="2"
     inkscape:pageopacity="0"
     inkscape:pagecheckerboard="0"
     showgrid="false"
     inkscape:zoom="34.272727"
     inkscape:cx="10.985411"
     inkscape:cy="11"
     inkscape:window-width="1880"
     inkscape:window-height="966"
     inkscape:window-x="0"
     inkscape:window-y="29"
     inkscape:window-maximized="1"
     inkscape:current-layer="g7" />
  <defs
     id="defs3">
    <style
       id="current-color-scheme"
       type="text/css">
   .ColorScheme-Text { color:#eeeeec; } .ColorScheme-Highlight { color:#367bf0; } .ColorScheme-NeutralText { color:#ffcc44; } .ColorScheme-PositiveText { color:#3db47e; } .ColorScheme-NegativeText { color:#dd4747; }
  </style>
  </defs>
  <g
     transform="translate(3,3)"
     id="g7">
    <path
       style="fill:currentColor"
       class="ColorScheme-Text"
       d="m 9.2081751,1.1341327 c -0.09847,0.043765 0.096081,-0.045646 0,0 C 4.9134285,3.1744598 3,7.0601763 3,9.75 3,11.914199 4.2741057,13.923563 6.2512688,14.681422 6.7864435,14.886558 6.0021322,15 6.6290034,15 5.9923015,15 6.8210566,14.80812 6.3999157,14.485895 5.7709525,14.004662 5.4121,13.232701 5.4121,12.375 c 0,-1.387756 1.1249259,-3.3251052 3.0145548,-4.2559616 0.084754,-0.041751 0.1813949,0.2758244 0.2691933,0.2382634 0,0.1232597 -0.00679,-0.1150267 0,0 C 8.8578171,11.100684 10.859465,11.575221 10.322,13.25 c -0.164989,0.514745 -0.461901,0.967727 -0.8780469,1.283799 -0.3834119,0.29121 0.6614949,0.232543 0.085579,0.232543 0.5227397,0 -0.4906982,0.151618 0,0 C 11.461631,14.169355 13,12.493666 13,10.5 13,8.0546295 9.62144,6.087646 9.5029838,1.323516 9.5003375,1.2170855 9.2074934,1.2433917 9.2081751,1.1341327 Z"
       id="path5"
       sodipodi:nodetypes="cssscssscscscsssc" />
  </g>
</svg>
