<?xml version="1.0" encoding="UTF-8" standalone="no"?>
<svg
   width="22"
   height="22"
   version="1.1"
   id="svg11"
   sodipodi:docname="transaction-add.svg"
   inkscape:version="1.1.2 (0a00cf5339, 2022-02-04)"
   xmlns:inkscape="http://www.inkscape.org/namespaces/inkscape"
   xmlns:sodipodi="http://sodipodi.sourceforge.net/DTD/sodipodi-0.dtd"
   xmlns="http://www.w3.org/2000/svg"
   xmlns:svg="http://www.w3.org/2000/svg">
  <sodipodi:namedview
     id="namedview13"
     pagecolor="#000000"
     bordercolor="#666666"
     borderopacity="1.0"
     inkscape:pageshadow="2"
     inkscape:pageopacity="0"
     inkscape:pagecheckerboard="0"
     showgrid="false"
     inkscape:zoom="34.272727"
     inkscape:cx="10.985411"
     inkscape:cy="11"
     inkscape:window-width="1880"
     inkscape:window-height="966"
     inkscape:window-x="0"
     inkscape:window-y="29"
     inkscape:window-maximized="1"
     inkscape:current-layer="svg11" />
  <defs
     id="defs3">
    <style
       id="current-color-scheme"
       type="text/css">
   .ColorScheme-Text { color:#eeeeec; } .ColorScheme-Highlight { color:#367bf0; } .ColorScheme-NeutralText { color:#ffcc44; } .ColorScheme-PositiveText { color:#3db47e; } .ColorScheme-NegativeText { color:#dd4747; }
  </style>
  </defs>
  <path
     style="fill:currentColor"
     class="ColorScheme-Text"
     d="M 7,10.65632 6.4001849,10.48585 3.5064173,12.829801 3.478165,13.689474 v 0 L 6.4130887,16.448303 7,16.346005 v 0 L 7,14.98 h 2.0626397 c 0.9771093,0 1.8409673,0.628812 2.1029083,1.44 0.157219,0.486872 -0.102509,1.134815 -0.400307,1.659561 -0.295629,0.520924 -0.220321,0.628514 -0.220321,0.628514 0,0 0.03372,0.15604 0.570556,-0.150925 C 11.944784,18.082949 13,17.20048 13,15.779999 13,13.53108 11.568233,12 9.4205816,12 H 7 Z"
     id="path5"
     sodipodi:nodetypes="cccccccccscscssscc" />
  <path
     style="fill:currentColor"
     class="ColorScheme-Text"
     d="m 15.636421,11.484499 v 0 L 18.52555,9.1443057 18.591548,8.760001 18.503883,8.2936511 15.632872,5.5948996 15,5.6962301 v 0 V 7.02 h -2.06264 c -0.977109,0 -1.840967,-0.628812 -2.102908,-1.44 -0.188283,-0.583071 0.221424,-1.3971509 0.578364,-1.9539842 0.236989,-0.3697086 0,0 0,0 0,0 0.08198,-0.5126972 -0.390861,-0.2592587 C 10.177134,3.8195766 9,4.7197022 9,6.220001 9,8.46892 10.431767,10 12.579418,10 H 15 v 1.298204 z"
     id="path7"
     sodipodi:nodetypes="cccccccccscscsssccc" />
  <path
     style="fill:currentColor"
     class="ColorScheme-Text"
     d="m 16,14 v 2 h -2 v 2 h 2 v 2 h 2 v -2 h 2 v -2 h -2 v -2 z"
     id="path9" />
</svg>
