<?xml version="1.0" encoding="UTF-8" standalone="no"?>
<svg
   width="22"
   height="22"
   version="1.1"
   id="svg11"
   sodipodi:docname="transaction-report.svg"
   inkscape:version="1.1.2 (0a00cf5339, 2022-02-04)"
   xmlns:inkscape="http://www.inkscape.org/namespaces/inkscape"
   xmlns:sodipodi="http://sodipodi.sourceforge.net/DTD/sodipodi-0.dtd"
   xmlns="http://www.w3.org/2000/svg"
   xmlns:svg="http://www.w3.org/2000/svg">
  <sodipodi:namedview
     id="namedview13"
     pagecolor="#000000"
     bordercolor="#666666"
     borderopacity="1.0"
     inkscape:pageshadow="2"
     inkscape:pageopacity="0"
     inkscape:pagecheckerboard="0"
     showgrid="false"
     inkscape:zoom="34.272727"
     inkscape:cx="10.985411"
     inkscape:cy="11"
     inkscape:window-width="1880"
     inkscape:window-height="966"
     inkscape:window-x="0"
     inkscape:window-y="29"
     inkscape:window-maximized="1"
     inkscape:current-layer="svg11" />
  <defs
     id="defs3">
    <style
       id="current-color-scheme"
       type="text/css">
   .ColorScheme-Text { color:#eeeeec; } .ColorScheme-Highlight { color:#367bf0; } .ColorScheme-NeutralText { color:#ffcc44; } .ColorScheme-PositiveText { color:#3db47e; } .ColorScheme-NegativeText { color:#dd4747; }
  </style>
  </defs>
  <path
     style="fill:currentColor"
     class="ColorScheme-Text"
     d="m 7,10.569053 -0.5329541,-0.13736 -2.9879797,2.420262 -0.030082,0.810089 v 0 L 6.4731545,16.504765 7,16.404478 v 0 V 14.98 h 2.0626397 c 0.9771093,0 1.8409673,0.628812 2.1029083,1.44 0.186597,0.577851 -0.214136,1.382593 -0.568765,1.938967 -0.240786,0.377767 0.257545,0.338699 0.257545,0.338699 0,0 -0.411901,0.208308 0,0 C 11.702542,18.268702 13,17.355111 13,15.779999 13,13.53108 11.568233,12 9.4205816,12 H 7 Z"
     id="path5"
     sodipodi:nodetypes="cccccccccscscsssccc" />
  <path
     style="fill:currentColor"
     class="ColorScheme-Text"
     d="m 15,11.26941 0.668408,0.18918 2.917225,-2.362952 v 0 L 18.594313,8.3786551 15.615394,5.5784709 15,5.7254675 v 0 V 7.02 H 12.93736 C 11.960251,7.02 11.096393,6.391188 10.834452,5.58 10.6358,4.9648184 11.102816,4.0924831 11.471199,3.5364408 11.683791,3.2155515 11.267225,3.2426004 11.267225,3.2426004 c 0,0 0.349123,-0.1666369 0,0 C 10.428072,3.6431294 9,4.567507 9,6.220001 9,8.46892 10.431767,10 12.579418,10 H 15 Z"
     id="path7"
     sodipodi:nodetypes="cccccccccscscsssccc" />
  <path
     style="fill:currentColor"
     class="ColorScheme-Text"
     d="M 17.5,13 C 15.567003,13 14,14.567003 14,16.5 14,18.432997 15.567003,20 17.5,20 19.432997,20 21,18.432997 21,16.5 21,14.567003 19.432997,13 17.5,13 Z M 16,14 h 3 v 3 h -1.108185 l 0.01831,0.203091 v 0 L 19,18.292969 v 0.35788 L 18.708723,19 v 0 H 18.292969 L 17.232254,17.939285 17,17.979729 v 0 V 19 h -1 v -2 -1 -1 z m 1,1 v 1 h 1 v -1 z"
     id="path9"
     sodipodi:nodetypes="sssssccccccccccccccccccccccccc" />
</svg>
