<?xml version="1.0" encoding="UTF-8" standalone="no"?>
<svg
   width="22"
   height="22"
   version="1.1"
   id="svg9"
   sodipodi:docname="transfers.svg"
   inkscape:version="1.1.2 (0a00cf5339, 2022-02-04)"
   xmlns:inkscape="http://www.inkscape.org/namespaces/inkscape"
   xmlns:sodipodi="http://sodipodi.sourceforge.net/DTD/sodipodi-0.dtd"
   xmlns="http://www.w3.org/2000/svg"
   xmlns:svg="http://www.w3.org/2000/svg">
  <sodipodi:namedview
     id="namedview11"
     pagecolor="#000000"
     bordercolor="#666666"
     borderopacity="1.0"
     inkscape:pageshadow="2"
     inkscape:pageopacity="0"
     inkscape:pagecheckerboard="0"
     showgrid="false"
     inkscape:zoom="53.161573"
     inkscape:cx="14.29604"
     inkscape:cy="13.252053"
     inkscape:window-width="1920"
     inkscape:window-height="1051"
     inkscape:window-x="0"
     inkscape:window-y="29"
     inkscape:window-maximized="1"
     inkscape:current-layer="g7" />
  <defs
     id="defs3">
    <style
       id="current-color-scheme"
       type="text/css">
   .ColorScheme-Text { color:#eeeeec; } .ColorScheme-Highlight { color:#367bf0; } .ColorScheme-NeutralText { color:#ffcc44; } .ColorScheme-PositiveText { color:#3db47e; } .ColorScheme-NegativeText { color:#dd4747; }
  </style>
  </defs>
  <g
     transform="translate(3,3)"
     id="g7">
    <path
       style="fill:currentColor"
       class="ColorScheme-Text"
       d="M 6,1 V 6.7933851 L 5.7657203,7 V 7 H 3.9789661 V 7 L 3.8256633,7.065201 v 0 l -0.085514,0.1685456 0.034639,0.1631252 v 0 l 2.8848123,4.1664932 0.1951763,0.09885 v 0 L 7,11.595598 v 0 V 9 C 7,8 8,8 8,8 h 3.65108 l 0.24526,-0.1263972 v 0 L 12.321546,7.2582544 12.164896,7 V 7 H 10.214005 V 7 L 10,6.7912812 V 1 Z M 1.3847468,14 1,14.285771 v 1.304533 L 1.5319317,16 v 0 h 5.8900231 v 0 c 0,0 0.3060913,0 0.045827,-0.141822 C 7.2289699,15.728046 7,15.478508 7,15 v -0.789186 0 L 6.7847525,14 Z M 9,9 C 9,9 8,9 8,10 v 5 c 0,1 1,1 1,1 h 6 c 0,0 1,0 1,-1 V 10 C 16,9 15,9 15,9 Z m 2.138221,1.070882 c 0.342071,0 -0.224045,0.223544 0,0 L 11.209261,10 h 0.635106 c 0.04509,0 -0.06274,0.04703 -0.01773,0.04703 0.338188,-4e-6 -0.345495,0 0,0 L 11.983705,10.204716 12,11 v 0 3 0 L 12.03006,14.829298 11.921726,15 v 0 0 h -0.752122 v 0 0 L 11.0544,14.894213 11,14 v 0 -3 0 l -0.01306,-0.823468 z"
       id="path5"
       sodipodi:nodetypes="ccccccccccccccccscccccccccccccccccccssccccccssccsscccscsscccccccccccccccccccc" />
  </g>
</svg>
