<?xml version="1.0" encoding="UTF-8" standalone="no"?>
<svg
   width="22"
   height="22"
   version="1.1"
   id="svg7"
   sodipodi:docname="udiskie-mount.svg"
   inkscape:version="1.1.2 (0a00cf5339, 2022-02-04)"
   xmlns:inkscape="http://www.inkscape.org/namespaces/inkscape"
   xmlns:sodipodi="http://sodipodi.sourceforge.net/DTD/sodipodi-0.dtd"
   xmlns="http://www.w3.org/2000/svg"
   xmlns:svg="http://www.w3.org/2000/svg">
  <sodipodi:namedview
     id="namedview9"
     pagecolor="#000000"
     bordercolor="#666666"
     borderopacity="1.0"
     inkscape:pageshadow="2"
     inkscape:pageopacity="0"
     inkscape:pagecheckerboard="0"
     showgrid="false"
     inkscape:zoom="34.272727"
     inkscape:cx="10.985411"
     inkscape:cy="11"
     inkscape:window-width="1880"
     inkscape:window-height="966"
     inkscape:window-x="0"
     inkscape:window-y="29"
     inkscape:window-maximized="1"
     inkscape:current-layer="svg7" />
  <defs
     id="defs3">
    <style
       id="current-color-scheme"
       type="text/css">
   .ColorScheme-Text { color:#eeeeec; } .ColorScheme-Highlight { color:#367bf0; } .ColorScheme-NeutralText { color:#ffcc44; } .ColorScheme-PositiveText { color:#3db47e; } .ColorScheme-NegativeText { color:#dd4747; }
  </style>
  </defs>
  <path
     style="fill:currentColor"
     class="ColorScheme-Text"
     d="m 11,4 c -3.8659932,0 -7,3.134007 -7,7 -4.916e-4,0.334585 0.023006,0.668775 0.070312,1 H 7 v -1 c -2.58e-5,-0.378791 0.2139535,-0.72509 0.5527344,-0.894531 0.3385737,-0.169421 0.7437912,-0.133133 1.046875,0.09375 l 0.4609375,0.345703 C 9.2712948,9.642978 10.073769,9.003746 11,9 c 1.10457,0 2,0.895431 2,2 -9.71e-4,0.719999 -0.388872,1.383907 -1.015625,1.738281 l 0.615234,0.460938 c 0.534635,0.4 0.534635,1.201562 0,1.601562 l -3.4513118,2.58893 0.066929,0.369272 c 0.1318442,0.04409 -0.1339754,-0.0361 0,0 C 9.7967303,17.915687 10.3966,17.996844 11,18 c 3.865993,0 7,-3.134007 7,-7 0,-3.865993 -3.134007,-7 -7,-7 z m -3,7.560893 v 0 V 13 H 3 v 2 h 5 v 1.346005 l 0.5478327,0.24312 c 0.4758696,-0.431317 0,0 0,0 L 11.624053,14.28196 v 0 l -0.02552,-0.583058 -3.0580073,-2.293505 z"
     id="path5"
     sodipodi:nodetypes="sccccccccccccccscsscccccccccccccc" />
</svg>
