<?xml version="1.0" encoding="UTF-8" standalone="no"?>
<svg
   width="22"
   height="22"
   version="1.1"
   id="svg9"
   sodipodi:docname="view-sort.svg"
   inkscape:version="1.1.2 (0a00cf5339, 2022-02-04)"
   xmlns:inkscape="http://www.inkscape.org/namespaces/inkscape"
   xmlns:sodipodi="http://sodipodi.sourceforge.net/DTD/sodipodi-0.dtd"
   xmlns="http://www.w3.org/2000/svg"
   xmlns:svg="http://www.w3.org/2000/svg">
  <sodipodi:namedview
     id="namedview11"
     pagecolor="#000000"
     bordercolor="#666666"
     borderopacity="1.0"
     inkscape:pageshadow="2"
     inkscape:pageopacity="0"
     inkscape:pagecheckerboard="0"
     showgrid="false"
     inkscape:zoom="34.272727"
     inkscape:cx="10.985411"
     inkscape:cy="11"
     inkscape:window-width="1770"
     inkscape:window-height="966"
     inkscape:window-x="0"
     inkscape:window-y="29"
     inkscape:window-maximized="1"
     inkscape:current-layer="g7" />
  <defs
     id="defs3">
    <style
       id="current-color-scheme"
       type="text/css">
   .ColorScheme-Text { color:#eeeeec; } .ColorScheme-Highlight { color:#367bf0; } .ColorScheme-NeutralText { color:#ffcc44; } .ColorScheme-PositiveText { color:#3db47e; } .ColorScheme-NegativeText { color:#dd4747; }
  </style>
  </defs>
  <g
     transform="translate(3,3)"
     id="g7">
    <path
       style="fill:currentColor"
       class="ColorScheme-Text"
       d="m 10.644936,1.4734189 v 0 L 8.568796,4.2416054 8.76451,5 V 5 H 10 v 3 h 2 V 5 h 1.345278 V 5 L 13.5304,4.3738666 11.320998,1.4279975 Z M 2.5,2 C 1.6715729,2 1,2.6715729 1,3.5 1,4.3284271 1.6715729,5 2.5,5 3.3284271,5 4,4.3284271 4,3.5 4,2.6715729 3.3284271,2 2.5,2 Z m 0,4 C 1.6715729,6 1,6.6715729 1,7.5 1,8.3284271 1.6715729,9 2.5,9 3.3284271,9 4,8.3284271 4,7.5 4,6.6715729 3.3284271,6 2.5,6 Z M 7,7 v 3 H 5.7597838 l -0.231709,0.7041 v 0 l 2.0900046,2.786673 v 0 l 0.7820108,-0.02423 2.0902888,-2.787051 v 0 L 10.223925,10 H 9 V 7 Z M 2.5,10 C 1.6715729,10 1,10.671573 1,11.5 1,12.328427 1.6715729,13 2.5,13 3.3284271,13 4,12.328427 4,11.5 4,10.671573 3.3284271,10 2.5,10 Z"
       id="path5"
       sodipodi:nodetypes="ccccccccccccccssssssssssccccccccccccccsssss" />
  </g>
</svg>
