<?xml version="1.0" encoding="UTF-8" standalone="no"?>
<svg
   width="22"
   height="22"
   version="1.1"
   id="svg7"
   sodipodi:docname="view-pages-facing.svg"
   inkscape:version="1.1.2 (0a00cf5339, 2022-02-04)"
   xmlns:inkscape="http://www.inkscape.org/namespaces/inkscape"
   xmlns:sodipodi="http://sodipodi.sourceforge.net/DTD/sodipodi-0.dtd"
   xmlns="http://www.w3.org/2000/svg"
   xmlns:svg="http://www.w3.org/2000/svg">
  <sodipodi:namedview
     id="namedview9"
     pagecolor="#000000"
     bordercolor="#666666"
     borderopacity="1.0"
     inkscape:pageshadow="2"
     inkscape:pageopacity="0"
     inkscape:pagecheckerboard="0"
     showgrid="false"
     inkscape:zoom="34.272727"
     inkscape:cx="10.985411"
     inkscape:cy="11"
     inkscape:window-width="1770"
     inkscape:window-height="966"
     inkscape:window-x="0"
     inkscape:window-y="29"
     inkscape:window-maximized="1"
     inkscape:current-layer="svg7" />
  <defs
     id="defs3">
    <style
       id="current-color-scheme"
       type="text/css">
   .ColorScheme-Text { color:#eeeeec; } .ColorScheme-Highlight { color:#367bf0; } .ColorScheme-NeutralText { color:#ffcc44; } .ColorScheme-PositiveText { color:#3db47e; } .ColorScheme-NegativeText { color:#dd4747; }
  </style>
  </defs>
  <path
     style="fill:currentColor"
     class="ColorScheme-Text"
     d="m 5.433719,6.2489744 v 0 L 3.207302,8.6352368 3,9.1975742 v 0 6.0875818 C 3,15.285156 2.9993486,16 3.6660156,16 h 6.6679684 c 0,0 0.226516,-1.9e-4 0.415346,-0.142023 0.13496,-0.101371 0.475943,0.277571 0.475943,-0.02015 0,0.27886 -0.123762,-0.10373 0,0 C 11.41852,15.999793 11.666016,16 11.666016,16 h 6.667968 C 19.000651,16 19,15.285156 19,15.285156 v -6.1460557 0 L 18.826472,8.6714351 16.434181,6.1073908 v 0 L 16.024555,6 h -4.358539 c 0,0 -0.218466,1.83e-4 -0.405154,0.1345296 -0.139274,0.1002259 -0.456752,-0.2512145 -0.456752,0.053979 0,-0.256437 0.110048,0.1054535 0,0 C 10.607627,6.0002292 10.333984,6 10.333984,6 H 6.0749955 Z M 6.2312612,8.2194121 6.7463894,8 H 9 v 6 H 5 v -3.985564 0 L 5.1413225,9.5276399 Z M 13,8 h 2.585938 L 16.821032,9.4824546 17,9.9564059 v 0 V 14 h -4 z"
     id="path5"
     sodipodi:nodetypes="ccccccscscscsccccccccscscccccccccccccccccccc" />
</svg>
