<?xml version="1.0" encoding="UTF-8" standalone="no"?>
<svg
   width="22"
   height="22"
   version="1.1"
   id="svg9"
   sodipodi:docname="view-bank-account-savings.svg"
   inkscape:version="1.1.2 (0a00cf5339, 2022-02-04)"
   xmlns:inkscape="http://www.inkscape.org/namespaces/inkscape"
   xmlns:sodipodi="http://sodipodi.sourceforge.net/DTD/sodipodi-0.dtd"
   xmlns="http://www.w3.org/2000/svg"
   xmlns:svg="http://www.w3.org/2000/svg">
  <sodipodi:namedview
     id="namedview11"
     pagecolor="#000000"
     bordercolor="#666666"
     borderopacity="1.0"
     inkscape:pageshadow="2"
     inkscape:pageopacity="0"
     inkscape:pagecheckerboard="0"
     showgrid="false"
     inkscape:zoom="34.272727"
     inkscape:cx="10.985411"
     inkscape:cy="11"
     inkscape:window-width="1880"
     inkscape:window-height="966"
     inkscape:window-x="0"
     inkscape:window-y="29"
     inkscape:window-maximized="1"
     inkscape:current-layer="g7" />
  <defs
     id="defs3">
    <style
       id="current-color-scheme"
       type="text/css">
   .ColorScheme-Text { color:#eeeeec; } .ColorScheme-Highlight { color:#367bf0; } .ColorScheme-NeutralText { color:#ffcc44; } .ColorScheme-PositiveText { color:#3db47e; } .ColorScheme-NegativeText { color:#dd4747; }
  </style>
  </defs>
  <g
     transform="translate(3,3)"
     id="g7">
    <path
       style="fill:currentColor"
       class="ColorScheme-Text"
       d="m 14,11 v 2 h -0.683408 l -0.138308,0.356568 v 0 l 1.149456,2.298913 0.349415,-0.0098 v 0 L 15.756764,13.486472 15.592379,13 v 0 H 15 V 11 Z M 7.4613833,1.4613833 6.567316,1.432684 0.86327146,7.1367285 0.94497575,8 V 8 H 2 v 7 H 12 V 8 h 1.199411 v 0 l 0.03889,-0.7617022 z M 7,6 c 1.1045695,0 2,0.8954305 2,2 0,1.1045695 -0.8954305,2 -2,2 3,0 3,2.5 3,2.5 V 13 H 4 V 12.5 C 4,12.5 4,10 7,10 5.8954305,10 5,9.1045695 5,8 5,6.8954305 5.8954305,6 7,6 Z"
       id="path5"
       sodipodi:nodetypes="ccccccccccccccccccccccccccccssccccccss" />
  </g>
</svg>
