<?xml version="1.0" encoding="UTF-8" standalone="no"?>
<svg
   width="22"
   height="22"
   version="1.1"
   id="svg9"
   sodipodi:docname="view-calendar-special-occasion.svg"
   inkscape:version="1.1.2 (0a00cf5339, 2022-02-04)"
   xmlns:inkscape="http://www.inkscape.org/namespaces/inkscape"
   xmlns:sodipodi="http://sodipodi.sourceforge.net/DTD/sodipodi-0.dtd"
   xmlns="http://www.w3.org/2000/svg"
   xmlns:svg="http://www.w3.org/2000/svg">
  <sodipodi:namedview
     id="namedview11"
     pagecolor="#000000"
     bordercolor="#666666"
     borderopacity="1.0"
     inkscape:pageshadow="2"
     inkscape:pageopacity="0"
     inkscape:pagecheckerboard="0"
     showgrid="false"
     inkscape:zoom="34.272727"
     inkscape:cx="10.985411"
     inkscape:cy="11"
     inkscape:window-width="1880"
     inkscape:window-height="966"
     inkscape:window-x="0"
     inkscape:window-y="29"
     inkscape:window-maximized="1"
     inkscape:current-layer="g7" />
  <defs
     id="defs3">
    <style
       id="current-color-scheme"
       type="text/css">
   .ColorScheme-Text { color:#eeeeec; } .ColorScheme-Highlight { color:#367bf0; } .ColorScheme-NeutralText { color:#ffcc44; } .ColorScheme-PositiveText { color:#3db47e; } .ColorScheme-NegativeText { color:#dd4747; }
  </style>
  </defs>
  <g
     transform="translate(3,3)"
     id="g7">
    <path
       style="fill:currentColor"
       class="ColorScheme-Text"
       d="M 3,1 C 1,1 1,3 1,3 V 15 H 15 V 3 C 15,3 15,1 13,1 Z M 3,3.2216089 3.1630113,3 h 9.5116067 l 0.07364,0.2937011 v 0 L 7.25769,9.6993617 v 0 L 6.7542997,9.7542997 5,8 C 5,8 4,7 3.2852,7.7852 2.5352,8.5352 3.5,9.5 3.5,9.5 l 3.1984268,3.198427 v 0 L 7.2568154,12.708908 12.762805,6.468053 13,6.5479748 v 0 6.1853832 0 l -0.23849,0.26605 -9.5700642,-0.02375 -1.7934503,-0.0045 1.7934503,0.0045 L 3,12.762595 Z"
       id="path5"
       sodipodi:nodetypes="sccccsscccccccccccccccccccccccccc" />
  </g>
</svg>
