<?xml version="1.0" encoding="UTF-8" standalone="no"?>
<svg
   width="22"
   height="22"
   version="1.1"
   id="svg7"
   sodipodi:docname="vm-snapshot-autoprotect.svg"
   inkscape:version="1.1.2 (0a00cf5339, 2022-02-04)"
   xmlns:inkscape="http://www.inkscape.org/namespaces/inkscape"
   xmlns:sodipodi="http://sodipodi.sourceforge.net/DTD/sodipodi-0.dtd"
   xmlns="http://www.w3.org/2000/svg"
   xmlns:svg="http://www.w3.org/2000/svg">
  <sodipodi:namedview
     id="namedview9"
     pagecolor="#000000"
     bordercolor="#666666"
     borderopacity="1.0"
     inkscape:pageshadow="2"
     inkscape:pageopacity="0"
     inkscape:pagecheckerboard="0"
     showgrid="false"
     inkscape:zoom="34.272727"
     inkscape:cx="10.985411"
     inkscape:cy="11"
     inkscape:window-width="1770"
     inkscape:window-height="966"
     inkscape:window-x="0"
     inkscape:window-y="29"
     inkscape:window-maximized="1"
     inkscape:current-layer="svg7" />
  <defs
     id="defs3">
    <style
       id="current-color-scheme"
       type="text/css">
   .ColorScheme-Text { color:#eeeeec; } .ColorScheme-Highlight { color:#367bf0; } .ColorScheme-NeutralText { color:#ffcc44; } .ColorScheme-PositiveText { color:#3db47e; } .ColorScheme-NegativeText { color:#dd4747; }
  </style>
  </defs>
  <path
     style="fill:currentColor"
     class="ColorScheme-Text"
     d="M 7.5,3 C 6.132132,3 5,4.1321324 5,5.5 V 8.050781 C 3.866938,8.28618 3,9.303116 3,10.5 v 6 C 3,17.867868 4.132132,19 5.5,19 h 6 c 0.338022,0 0.661266,-0.07055 0.957031,-0.195312 C 11.91982,18.30869 11.51156,17.689262 11.267578,17 H 5.5 C 5.205537,17 5,16.794463 5,16.5 v -6 C 5,10.205537 5.205537,10 5.5,10 h 2.5 2 1.5 c 0.294463,0 0.5,0.205537 0.5,0.5 v 1.732014 l 0.353326,0.06395 c 0.110436,-0.137077 -0.124872,0.12247 0,0 C 12.819351,11.838912 13.380849,11.487178 14,11.267578 V 10.5 c 0,-0.9156579 -0.507312,-1.7256818 -1.253051,-2.1611862 -0.368293,-0.2150798 0.45221,0 0,0 L 12.931569,8 H 16.5 C 16.794463,8 17,8.205537 17,8.5 v 2.757813 c 0.589589,0.208424 1.127069,0.536636 1.579791,0.961549 C 18.729527,12.3599 18.86999,11.954649 19,12.115508 v 0 V 8.5 C 19,7.132132 17.867868,6 16.5,6 H 16 V 5.5 C 16,4.1321324 14.867868,3 13.5,3 Z m 0,2 h 6 C 13.794463,5 14,5.2055368 14,5.5 V 6 H 10.5 C 9.3031158,6 8.2861799,6.8669384 8.0507812,8 H 7 V 5.5 C 7,5.2055368 7.2055368,5 7.5,5 Z m 8,7 C 13.567003,12 12,13.567003 12,15.5 12,17.432997 13.567003,19 15.5,19 17.432997,19 19,17.432997 19,15.5 19,13.567003 17.432997,12 15.5,12 Z m 0,1 c 1.380712,0 2.5,1.119288 2.5,2.5 0,1.380712 -1.119288,2.5 -2.5,2.5 -0.168147,-0.002 -0.335662,-0.02099 -0.5,-0.05664 v -1.029297 c 0.160578,0.05683 0.329663,0.08589 0.5,0.08594 0.828427,0 1.5,-0.671573 1.5,-1.5 0,-0.828427 -0.671573,-1.5 -1.5,-1.5 -0.653033,0 -1.208088,0.41751 -1.414062,1 l 0.421675,0 v 0 l 0.01082,0.481566 -1.006599,1.006599 v 0 L 13,16.375241 V 15.5 15 h 0.05078 C 13.282446,13.858918 14.290548,13 15.5,13 Z"
     id="path5"
     sodipodi:nodetypes="sscssssccssssccssccscssccsscsccsscsssssscsccsssssssssccccssccccccccccs" />
</svg>
