<?xml version="1.0" encoding="UTF-8" standalone="no"?>
<svg
   width="22"
   height="22"
   version="1.1"
   id="svg7"
   sodipodi:docname="vm-snapshot-current.svg"
   inkscape:version="1.1.2 (0a00cf5339, 2022-02-04)"
   xmlns:inkscape="http://www.inkscape.org/namespaces/inkscape"
   xmlns:sodipodi="http://sodipodi.sourceforge.net/DTD/sodipodi-0.dtd"
   xmlns="http://www.w3.org/2000/svg"
   xmlns:svg="http://www.w3.org/2000/svg">
  <sodipodi:namedview
     id="namedview9"
     pagecolor="#000000"
     bordercolor="#666666"
     borderopacity="1.0"
     inkscape:pageshadow="2"
     inkscape:pageopacity="0"
     inkscape:pagecheckerboard="0"
     showgrid="false"
     inkscape:zoom="34.272727"
     inkscape:cx="10.985411"
     inkscape:cy="11"
     inkscape:window-width="1770"
     inkscape:window-height="966"
     inkscape:window-x="0"
     inkscape:window-y="29"
     inkscape:window-maximized="1"
     inkscape:current-layer="svg7" />
  <defs
     id="defs3">
    <style
       id="current-color-scheme"
       type="text/css">
   .ColorScheme-Text { color:#eeeeec; } .ColorScheme-Highlight { color:#367bf0; } .ColorScheme-NeutralText { color:#ffcc44; } .ColorScheme-PositiveText { color:#3db47e; } .ColorScheme-NegativeText { color:#dd4747; }
  </style>
  </defs>
  <path
     style="fill:currentColor"
     class="ColorScheme-Text"
     d="m 7.5,2.9999999 c -1.367868,0 -2.5,1.1321324 -2.5,2.5 V 8.0507811 C 3.866938,8.2861801 3,9.3031161 3,10.5 v 6 C 3,17.867868 4.132132,19 5.5,19 h 6 c 1.196884,0 2.21382,-0.866938 2.449219,-2 H 16.5 C 17.867868,17 19,15.867868 19,14.5 V 8.5000001 C 19,7.1321321 17.867868,5.9999999 16.5,5.9999999 H 16 v -0.5 c 0,-1.3678676 -1.132132,-2.5 -2.5,-2.5 z m 0,2 h 6 c 0.294463,0 0.5,0.2055368 0.5,0.5 v 0.5 h -3.5 c -1.1968842,0 -2.2138202,0.8669384 -2.4492188,2.0000002 H 7 V 5.4999999 c 0,-0.2944632 0.2055368,-0.5 0.5,-0.5 z m 5.140002,3.0000002 v 0 H 16.5 c 0.294463,0 0.5,0.205537 0.5,0.5 V 14.5 C 17,14.794463 16.794463,15 16.5,15 H 14 V 10.5 C 14,9.5204744 13.419449,8.6618328 12.587513,8.2532413 12.257684,8.0912512 13.028344,8.0000001 12.640002,8.0000001 Z M 5.5,10 h 2.5 2 1.5 c 0.294463,0 0.5,0.205537 0.5,0.5 v 6 c 0,0.294463 -0.205537,0.5 -0.5,0.5 h -6 C 5.205537,17 5,16.794463 5,16.5 v -6 C 5,10.205537 5.205537,10 5.5,10 Z"
     id="path5"
     sodipodi:nodetypes="sscsssscsssscsssssscsccssccsssscsscsccssssssss" />
</svg>
