<?xml version="1.0" encoding="UTF-8" standalone="no"?>
<svg
   width="22"
   height="22"
   version="1.1"
   id="svg8"
   sodipodi:docname="vm-snapshots-manage.svg"
   inkscape:version="1.1.2 (0a00cf5339, 2022-02-04)"
   xmlns:inkscape="http://www.inkscape.org/namespaces/inkscape"
   xmlns:sodipodi="http://sodipodi.sourceforge.net/DTD/sodipodi-0.dtd"
   xmlns="http://www.w3.org/2000/svg"
   xmlns:svg="http://www.w3.org/2000/svg">
  <sodipodi:namedview
     id="namedview10"
     pagecolor="#000000"
     bordercolor="#666666"
     borderopacity="1.0"
     inkscape:pageshadow="2"
     inkscape:pageopacity="0"
     inkscape:pagecheckerboard="0"
     showgrid="false"
     inkscape:zoom="34.272727"
     inkscape:cx="10.985411"
     inkscape:cy="11"
     inkscape:window-width="1770"
     inkscape:window-height="966"
     inkscape:window-x="0"
     inkscape:window-y="29"
     inkscape:window-maximized="1"
     inkscape:current-layer="svg8" />
  <defs
     id="defs4">
    <style
       id="current-color-scheme"
       type="text/css">
   .ColorScheme-Text { color:#eeeeec; } .ColorScheme-Highlight { color:#367bf0; } .ColorScheme-NeutralText { color:#ffcc44; } .ColorScheme-PositiveText { color:#3db47e; } .ColorScheme-NegativeText { color:#dd4747; }
  </style>
    <style
       id="current-color-scheme-3"
       type="text/css">
   .ColorScheme-Text { color:#eeeeec; } .ColorScheme-Highlight { color:#367bf0; } .ColorScheme-NeutralText { color:#ffcc44; } .ColorScheme-PositiveText { color:#3db47e; } .ColorScheme-NegativeText { color:#dd4747; }
  </style>
  </defs>
  <path
     style="fill:currentColor"
     class="ColorScheme-Text"
     d="M 7.5,3 C 6.132132,3 5,4.1321324 5,5.5 V 8.050781 C 3.866938,8.28618 3,9.303116 3,10.5 v 6 C 3,17.867868 4.132132,19 5.5,19 h 6 c 0.172706,0 0.341554,-0.01842 0.50485,-0.05307 0.156309,-0.03317 -0.144649,0.06102 0,0 -0.09041,-0.08348 0.275011,-0.312687 0.192073,-0.402899 C 11.787055,18.098214 11.470499,17.573261 11.267578,17 H 5.5 C 5.205537,17 5,16.794463 5,16.5 v -6 C 5,10.205537 5.205537,10 5.5,10 h 2.5 2 1.5 c 0.294463,0 0.5,0.205537 0.5,0.5 v 1.615508 0 c 0.119184,-0.147937 0.2472,0.282372 0.383132,0.151497 C 12.843215,11.824039 13.393992,11.482516 14,11.267578 V 10.5 C 14,9.655 13.567962,8.8999602 12.915204,8.4461993 12.511291,8.1654218 13.68848,8 13.165612,8 V 8 H 16.5 C 16.794463,8 17,8.205537 17,8.5 v 2.757813 c 0.621368,0.219658 1.184859,0.572365 1.652253,1.031097 0.122778,0.120502 0.238924,-0.220779 0.347747,-0.08613 v 0 L 19,8.5 C 19,7.132132 17.867868,6 16.5,6 H 16 V 5.5 C 16,4.1321324 14.867868,3 13.5,3 Z m 0,2 h 6 C 13.794463,5 14,5.2055368 14,5.5 V 6 H 10.5 C 9.3031158,6 8.2861799,6.8669384 8.0507812,8 H 7 V 5.5 C 7,5.2055368 7.2055368,5 7.5,5 Z m 8,7 C 13.567003,12 12,13.567003 12,15.5 12,17.432997 13.567003,19 15.5,19 17.432997,19 19,17.432997 19,15.5 19,13.567003 17.432997,12 15.5,12 Z M 14,14 h 1 L 15.5,14.5 16,14 h 1 v 3 H 16 V 15.333984 L 15.662909,15.783 v 0 L 15.333086,15.777665 15,15.333984 V 17 h -1 z"
     id="path6"
     sodipodi:nodetypes="sscssssscscssssccssccscssccsscsccsscsssssscsccsssssssccccccccccccccc" />
</svg>
