<?xml version="1.0" encoding="UTF-8" standalone="no"?>
<svg
   width="22"
   height="22"
   version="1.1"
   id="svg9"
   sodipodi:docname="vmware-replay-speed-normal.svg"
   inkscape:version="1.1.2 (0a00cf5339, 2022-02-04)"
   xmlns:inkscape="http://www.inkscape.org/namespaces/inkscape"
   xmlns:sodipodi="http://sodipodi.sourceforge.net/DTD/sodipodi-0.dtd"
   xmlns="http://www.w3.org/2000/svg"
   xmlns:svg="http://www.w3.org/2000/svg">
  <sodipodi:namedview
     id="namedview11"
     pagecolor="#000000"
     bordercolor="#666666"
     borderopacity="1.0"
     inkscape:pageshadow="2"
     inkscape:pageopacity="0"
     inkscape:pagecheckerboard="0"
     showgrid="false"
     inkscape:zoom="34.272727"
     inkscape:cx="10.985411"
     inkscape:cy="11"
     inkscape:window-width="1770"
     inkscape:window-height="966"
     inkscape:window-x="0"
     inkscape:window-y="29"
     inkscape:window-maximized="1"
     inkscape:current-layer="svg9" />
  <defs
     id="defs3">
    <style
       id="current-color-scheme"
       type="text/css">
   .ColorScheme-Text { color:#eeeeec; } .ColorScheme-Highlight { color:#367bf0; } .ColorScheme-NeutralText { color:#ffcc44; } .ColorScheme-PositiveText { color:#3db47e; } .ColorScheme-NegativeText { color:#dd4747; }
  </style>
  </defs>
  <path
     style="fill:currentColor"
     class="ColorScheme-Text"
     transform="matrix(0.72168785,0,0,1,2.6338586,3.711987)"
     d="m 6.7769031,7.6682792 v 0 L 3.9714419,9.288013 1.3944132,10.775861 0.50734043,10.474915 v 0 -3.1869021 -3.2904083 0 L 1.4608332,3.8385124 v 0 L 3.9714421,5.2880131 6.858491,6.9548516 Z"
     id="path5"
     sodipodi:nodetypes="cccccccccccccc" />
  <path
     style="opacity:0.36;fill:currentColor"
     class="ColorScheme-Text"
     d="M 8.6992578,7.5594062 8,7.7680654 v 6.4480726 0 l 0.6571446,0.258146 v 0 L 10.5,13 12.496116,11.403107 v 0 L 12.541726,10.633381 10.5,9 Z M 13,14.157664 v 0 l 0.728563,0.259486 v 0 L 15.5,13 17.489386,11.408491 18,11 17.489386,11.408491 17.446124,10.556899 15.5,9 13.564367,7.4514935 13,7.7095916 v 0 z"
     id="path7"
     sodipodi:nodetypes="cccccccccccccccccccccccccc" />
</svg>
