<?xml version="1.0" encoding="UTF-8" standalone="no"?>
<svg
   width="22"
   height="22"
   version="1.1"
   id="svg9"
   sodipodi:docname="vmware-component-download-inactive.svg"
   inkscape:version="1.1.2 (0a00cf5339, 2022-02-04)"
   xmlns:inkscape="http://www.inkscape.org/namespaces/inkscape"
   xmlns:sodipodi="http://sodipodi.sourceforge.net/DTD/sodipodi-0.dtd"
   xmlns="http://www.w3.org/2000/svg"
   xmlns:svg="http://www.w3.org/2000/svg">
  <sodipodi:namedview
     id="namedview11"
     pagecolor="#000000"
     bordercolor="#666666"
     borderopacity="1.0"
     inkscape:pageshadow="2"
     inkscape:pageopacity="0"
     inkscape:pagecheckerboard="0"
     showgrid="false"
     inkscape:zoom="34.272727"
     inkscape:cx="10.985411"
     inkscape:cy="11"
     inkscape:window-width="1770"
     inkscape:window-height="966"
     inkscape:window-x="0"
     inkscape:window-y="29"
     inkscape:window-maximized="1"
     inkscape:current-layer="svg9" />
  <defs
     id="defs3">
    <style
       id="current-color-scheme"
       type="text/css">
   .ColorScheme-Text { color:#eeeeec; } .ColorScheme-Highlight { color:#367bf0; } .ColorScheme-NeutralText { color:#ffcc44; } .ColorScheme-PositiveText { color:#3db47e; } .ColorScheme-NegativeText { color:#dd4747; }
  </style>
  </defs>
  <path
     style="fill:currentColor"
     class="ColorScheme-Text"
     d="M 9.203125,4 7.2792969,4.6210938 C 3.2136867,5.9333798 3.08235,5.9800563 3.03125,6.1347656 2.99261,6.2516853 3.1540516,6.4436198 3.8515625,7.115234 4.1239987,7.3775553 4.3679402,7.6238309 4.527166,7.7947612 c 0,0 0.195347,0.2148851 0.191584,0.2325828 C 4.6578367,8.3138205 4.3231717,8.502139 3.859375,8.908203 3.386485,9.35078 3,9.755735 3,9.808594 c 0,0.05286 0.054294,0.141109 0.1210938,0.195312 0.06676,0.0542 1.437935,0.524771 3.046875,1.044922 1.6089399,0.520151 2.9568406,0.948099 2.9941406,0.951172 0.03731,0.0031 0.466135,-0.372055 0.9531246,-0.833984 l 0.627732,-0.597246 0.534499,0.01898 v 0 l 0.617066,0.586078 c 0.492001,0.46669 0.937335,0.833142 0.990235,0.814453 0.05286,-0.01869 1.391439,-0.446554 2.974609,-0.951172 C 18.589975,10.166765 19,10.007551 19,9.820313 19,9.776423 18.613515,9.370838 18.140625,8.917969 17.886113,8.6742371 17.656634,8.4452042 17.498964,8.2794825 c 0,0 -0.159401,-0.2377856 -0.159401,-0.2560445 0,-0.014295 -0.0074,-0.076889 0.08027,-0.172709 C 17.574578,7.6815134 17.843679,7.4086771 18.148438,7.115234 18.844758,6.444756 19.00725,6.2511705 18.96875,6.1347656 18.93023,6.0182254 18.491018,5.8486278 16.736328,5.2734375 15.534898,4.8796107 14.155575,4.4315708 13.671875,4.2792969 l -0.878906,-0.2753907 -0.896485,0.859375 -0.672301,0.6430075 v 0 L 10.797541,5.5266062 10.101563,4.859375 Z m 1.810547,2 2.230469,0.7421875 c 0.643281,0.2896562 1.220734,0.5172239 1.630397,0.6534676 0.39707,0.1320558 -0.604654,0.5642547 0.0104,0.3382063 -0.615058,0.2260484 0,0 0,0 C 14.488068,7.8703607 13.9321,8.0564438 13.316406,8.257813 12.100847,8.6553739 11.074586,8.98939 11.035156,9 10.966365,9.0184967 8.2770713,8.1418692 7.0727268,7.7227038 6.7169376,7.5988733 7.5803285,7.5437147 7.0076017,7.3268699 c 0.5076017,-0.1789891 -0.31092,0.1056101 0,0 C 7.4265875,7.1845536 8.0655575,6.9713912 8.7734375,6.7382812 Z m 0.193359,5.900391 -0.404297,-0.0098 c -0.251564,0.238619 -0.48648,0.455024 -0.673828,0.619141 -0.09367,0.08206 -0.1735928,0.150428 -0.2499998,0.210937 -0.038203,0.03025 -0.072915,0.05625 -0.1289062,0.09375 -0.027996,0.01875 -0.057715,0.04106 -0.1230469,0.07422 -0.032666,0.01658 -0.073706,0.03653 -0.1464843,0.06055 -0.036389,0.01201 -0.081993,0.02422 -0.1445313,0.03516 -0.062065,0.01086 -0.2523894,0.01176 -0.2558594,0.01172 -0.00117,-9.6e-5 -0.1465876,-0.02252 -0.1660156,-0.02734 -0.019429,-0.0048 -0.0314,-0.0085 -0.042969,-0.01172 -0.023138,-0.0064 -0.043308,-0.01205 -0.068359,-0.01953 C 8.7526315,12.922553 8.687673,12.903833 8.607422,12.878923 8.4469196,12.829079 8.2237471,12.758428 7.9511719,12.671875 7.4060215,12.498769 6.6672235,12.260537 5.8613281,12 5.5337971,11.894113 5.3032741,11.813723 5.0039062,11.714844 c 0.0052,1.84717 0.037212,4.332653 0.076172,4.392578 0.039418,0.06062 1.3630086,0.533822 2.9394531,1.052734 h 0.00195 c 1.576504,0.518882 2.9804687,0.955078 2.9804687,0.955078 v -0.01367 c 0,0 1.456642,-0.447606 3,-0.949218 C 14.164576,17.099489 14.308677,17.051574 14.464844,17 L 14.167969,16.554688 C 13.725127,15.890134 14.201413,15.000171 15,15 v -2 c 0.0028,-0.288748 0.130263,-0.562195 0.349609,-0.75 -0.437021,0.139794 -0.92,0.294204 -1.246093,0.398438 -0.269359,0.0861 -0.491501,0.156652 -0.648438,0.207031 -0.156938,0.05038 -0.343607,0.114102 -0.236328,0.07617 -8.27e-4,2.92e-4 -0.16714,0.04577 -0.234375,0.05273 -0.06724,0.0069 -0.123587,0.0051 -0.171875,0.002 -0.09659,-0.0064 -0.161218,-0.02062 -0.212891,-0.03516 -0.103347,-0.02907 -0.156516,-0.05767 -0.201172,-0.08008 -0.08931,-0.04481 -0.137683,-0.07718 -0.1875,-0.111328 -0.09963,-0.06832 -0.187976,-0.137987 -0.291015,-0.222692 -0.206079,-0.169409 -0.452308,-0.389541 -0.712891,-0.636718 z"
     id="path5"
     sodipodi:nodetypes="cccssscscsccccccccscssscccccccccccccscsscscscccccssssscccscssccccccscccccssccccccsc" />
  <path
     style="opacity:0.35;fill:currentColor"
     class="ColorScheme-Text"
     d="m 16,13 v 3 h -0.441956 v 0 L 15.362612,16.543918 16,17.5 l 0.740776,1.111165 0.60044,-0.09351 c 0.08153,-0.09618 -0.13825,0.209936 0,0 C 17.548982,18.202159 17.794715,17.810523 18,17.5 L 18.705699,16.441451 18.504458,16 v 0 H 18 v -3 z"
     id="path7"
     sodipodi:nodetypes="ccccccccsccccccc" />
</svg>
