<?xml version="1.0" encoding="UTF-8" standalone="no"?>
<svg
   width="22"
   height="22"
   version="1.1"
   id="svg9"
   sodipodi:docname="wallet-open.svg"
   inkscape:version="1.1.2 (0a00cf5339, 2022-02-04)"
   xmlns:inkscape="http://www.inkscape.org/namespaces/inkscape"
   xmlns:sodipodi="http://sodipodi.sourceforge.net/DTD/sodipodi-0.dtd"
   xmlns="http://www.w3.org/2000/svg"
   xmlns:svg="http://www.w3.org/2000/svg">
  <sodipodi:namedview
     id="namedview11"
     pagecolor="#000000"
     bordercolor="#666666"
     borderopacity="1.0"
     inkscape:pageshadow="2"
     inkscape:pageopacity="0"
     inkscape:pagecheckerboard="0"
     showgrid="false"
     inkscape:zoom="34.272727"
     inkscape:cx="10.985411"
     inkscape:cy="11"
     inkscape:window-width="1770"
     inkscape:window-height="966"
     inkscape:window-x="0"
     inkscape:window-y="29"
     inkscape:window-maximized="1"
     inkscape:current-layer="g7" />
  <defs
     id="defs3">
    <style
       id="current-color-scheme"
       type="text/css">
   .ColorScheme-Text { color:#eeeeec; } .ColorScheme-Highlight { color:#367bf0; } .ColorScheme-NeutralText { color:#ffcc44; } .ColorScheme-PositiveText { color:#3db47e; } .ColorScheme-NegativeText { color:#dd4747; }
  </style>
  </defs>
  <g
     transform="translate(3,3)"
     id="g7">
    <path
       style="fill:currentColor"
       class="ColorScheme-Text"
       d="M 4.75,1 C 3,1 3,2.75 3,2.75 v 10.5 c 0,0 0,1.75 1.75,1.75 h 6.5 C 13,15 13,13.25 13,13.25 V 2.75 C 13,2.75 13,1 11.25,1 Z M 7,2.3462729 7.364195,2 H 8.6187265 V 2 L 9,2.4047468 V 9.5531775 L 8.6478828,10 v 0 H 7.3933531 v 0 L 7,9.6404453 Z M 7,11.420354 7.3350386,11 h 1.3128442 v 0 L 9,11.303406 v 1.254973 0 L 8.6770392,13 H 7.3933531 v 0 L 7,12.470668 Z"
       id="path5"
       sodipodi:nodetypes="sccssccssccccccccccccccccccccccccc" />
  </g>
</svg>
