<?xml version="1.0" encoding="UTF-8" standalone="no"?>
<svg
   width="22"
   height="22"
   version="1.1"
   id="svg7"
   sodipodi:docname="widget-alternatives.svg"
   inkscape:version="1.1.2 (0a00cf5339, 2022-02-04)"
   xmlns:inkscape="http://www.inkscape.org/namespaces/inkscape"
   xmlns:sodipodi="http://sodipodi.sourceforge.net/DTD/sodipodi-0.dtd"
   xmlns="http://www.w3.org/2000/svg"
   xmlns:svg="http://www.w3.org/2000/svg">
  <sodipodi:namedview
     id="namedview9"
     pagecolor="#000000"
     bordercolor="#666666"
     borderopacity="1.0"
     inkscape:pageshadow="2"
     inkscape:pageopacity="0"
     inkscape:pagecheckerboard="0"
     showgrid="false"
     inkscape:zoom="34.272727"
     inkscape:cx="10.985411"
     inkscape:cy="11"
     inkscape:window-width="1770"
     inkscape:window-height="966"
     inkscape:window-x="0"
     inkscape:window-y="29"
     inkscape:window-maximized="1"
     inkscape:current-layer="svg7" />
  <defs
     id="defs3">
    <style
       id="current-color-scheme"
       type="text/css">
   .ColorScheme-Text { color:#eeeeec; } .ColorScheme-Highlight { color:#367bf0; } .ColorScheme-NeutralText { color:#ffcc44; } .ColorScheme-PositiveText { color:#3db47e; } .ColorScheme-NegativeText { color:#dd4747; }
  </style>
  </defs>
  <path
     style="fill:currentColor"
     class="ColorScheme-Text"
     d="M 13.453832,4.2722994 13,4.6166786 V 6 H 9 v 2 h 4 v 1.3437593 l 0.668594,0.2550842 v 0 L 15.5,8.5 17.439885,7.3360689 v 0 L 17.465486,6.6792915 15.5,5.5 Z M 4,5 V 9 H 8 V 5 Z m 4.3430924,7.394145 v 0 L 6.5,13.5 4.6446405,14.613216 4.5707642,15.342459 v 0 L 6.5,16.5 8.4750463,17.685028 v 0 C 8.4750463,17.519244 9,17.588232 9,17.308608 9,16.895783 9,16.409637 9,16 h 4 V 14 H 9 V 12.698918 Z M 14,13 v 4 h 4 v -4 z"
     id="path5"
     sodipodi:nodetypes="cccccccccccccccccccccccccccccsccccccccccc" />
</svg>
