<?xml version="1.0" encoding="UTF-8" standalone="no"?>
<svg
   width="64"
   height="64"
   version="1.0"
   viewBox="0 0 46.55 46.55"
   id="svg8"
   sodipodi:docname="close-window-hover.svg"
   inkscape:version="1.1.2 (0a00cf5339, 2022-02-04)"
   xmlns:inkscape="http://www.inkscape.org/namespaces/inkscape"
   xmlns:sodipodi="http://sodipodi.sourceforge.net/DTD/sodipodi-0.dtd"
   xmlns="http://www.w3.org/2000/svg"
   xmlns:svg="http://www.w3.org/2000/svg">
  <defs
     id="defs12" />
  <sodipodi:namedview
     id="namedview10"
     pagecolor="#ffffff"
     bordercolor="#666666"
     borderopacity="1.0"
     inkscape:pageshadow="2"
     inkscape:pageopacity="0.0"
     inkscape:pagecheckerboard="0"
     showgrid="false"
     inkscape:zoom="12.140625"
     inkscape:cx="32"
     inkscape:cy="31.917632"
     inkscape:window-width="1920"
     inkscape:window-height="1051"
     inkscape:window-x="0"
     inkscape:window-y="29"
     inkscape:window-maximized="1"
     inkscape:current-layer="svg8" />
  <path
     d="m16.726 11.365 0.54102 0.0332-0.26953-0.0332zm0 0c-3.7468 0-6.8164 3.083-6.8164 6.8203 2.705e-4 1.7954 0.70841 3.5368 1.9941 4.8223h2e-3l1.7246 1.7227-1.7266 1.7266c-1.2851 1.2851-1.9939 3.0244-1.9941 4.8203 0 3.7373 3.0791 6.8164 6.8164 6.8164 1.7954-2.7e-4 3.5368-0.70842 4.8223-1.9941l1.7266-1.7266 1.4961 1.4961 0.01367 0.01758 0.21094 0.21289c1.2854 1.2857 3.0267 1.9939 4.8223 1.9941 3.7373 0 6.8223-3.0696 6.8223-6.8164-2.82e-4 -1.8141-0.72333-3.5449-1.998-4.8203l-1.7247-1.7247 1.9219-1.9199 0.19531-0.25781-0.39453 0.45312c1.2754-1.2756 1.9997-3.0071 2-4.8223 0-3.7468-3.0755-6.8203-6.8223-6.8203-1.815 2.77e-4 -3.5467 0.72215-4.8223 1.998v2e-3l-1.7227 1.7246-1.709-1.709-0.01563-0.01758c-1.275-1.2748-3.0064-1.9978-4.8223-1.998z"
     style="color-rendering:auto;color:#000000;dominant-baseline:auto;fill-rule:evenodd;font-feature-settings:normal;font-variant-alternates:normal;font-variant-caps:normal;font-variant-ligatures:normal;font-variant-numeric:normal;font-variant-position:normal;image-rendering:auto;isolation:auto;mix-blend-mode:normal;opacity:.5;shape-padding:0;shape-rendering:auto;solid-color:#000000;text-decoration-color:#000000;text-decoration-line:none;text-decoration-style:solid;text-indent:0;text-orientation:mixed;text-transform:none;white-space:normal"
     id="path2" />
  <path
     d="m 16.726,14.274 c -1.346,0 -2.4524,1.1107 -2.4524,2.4568 9.8e-5,0.65069 0.25621,1.2759 0.71638,1.736 l 1.134791,1.133753 0.08877,0.08869 0.102059,0.101966 0.0264,0.02638 3.460476,3.457312 -3.450451,3.450451 -1.344449,1.344449 -0.01757,0.01755 c -0.46006,0.46006 -0.71628,1.0853 -0.71638,1.736 0,1.346 1.1063,2.4524 2.4524,2.4524 0.65069,-9.6e-5 1.2759,-0.25621 1.736,-0.71638 l 4.8125,-4.8125 4.7949,4.7949 0.01328,0.01755 c 0.46004,0.46013 1.0853,0.71628 1.736,0.71638 1.346,0 2.4568,-1.1063 2.4568,-2.4524 -1.01e-4,-0.65069 -0.2606,-1.2759 -0.72077,-1.736 l -4.8081,-4.8125 4.7949,-4.7905 0.01328,-0.01755 c 0.45994,-0.46001 0.72048,-1.0853 0.72059,-1.736 0,-1.346 -1.1107,-2.4568 -2.4568,-2.4568 -0.6507,1e-4 -1.2759,0.2606 -1.736,0.72078 l -4.8081,4.8125 -4.7949,-4.7949 -0.01757,-0.01755 c -0.46009,-0.46001 -1.0853,-0.7207 -1.736,-0.7208 z"
     style="fill-rule:evenodd;stroke:#ffffff;stroke-width:8.7281"
     id="path4"
     sodipodi:nodetypes="ccccccccccccccccccccccccccccccc" />
  <path
     d="m 16.728,14.27 c -1.346,0 -2.4524,1.1107 -2.4524,2.4568 9.8e-5,0.65069 0.25621,1.2759 0.71638,1.736 l 4.303906,4.299971 -0.06229,1.079015 v 0 L 15.00958,28.0658 14.99201,28.08335 c -0.46006,0.46006 -0.71628,1.0853 -0.71638,1.736 0,1.346 1.1063,2.4524 2.4524,2.4524 0.65069,-9.7e-5 1.2759,-0.25621 1.736,-0.71638 l 4.285217,-4.285217 v 0 l 1.062751,0.0082 4.259432,4.259432 0.01328,0.01755 c 0.46003,0.46013 1.0853,0.71628 1.736,0.71638 1.346,0 2.4568,-1.1063 2.4568,-2.4524 -1.01e-4,-0.65069 -0.2606,-1.2759 -0.72077,-1.736 l -4.319608,-4.323561 v 0 l 0.0354,-1.012353 4.271005,-4.267086 0.01328,-0.01755 c 0.45994,-0.46001 0.72048,-1.0853 0.72059,-1.736 0,-1.346 -1.1107,-2.4568 -2.4568,-2.4568 -0.6507,9.9e-5 -1.2759,0.2606 -1.736,0.72078 l -4.222183,4.226047 v 0 l -1.089946,0.08242 -4.290871,-4.290871 -0.01757,-0.01755 c -0.46009,-0.46001 -1.0853,-0.7207 -1.736,-0.7208 z"
     style="fill-rule:evenodd"
     id="path6"
     sodipodi:nodetypes="cccccccccccccccccccccccccccccccccc" />
</svg>
