<?xml version="1.0" encoding="UTF-8" standalone="no"?>
<svg
   width="20"
   height="20"
   id="svg2"
   version="1.1"
   sodipodi:docname="pointer-double-click-symbolic.svg"
   inkscape:version="1.1.2 (0a00cf5339, 2022-02-04)"
   xmlns:inkscape="http://www.inkscape.org/namespaces/inkscape"
   xmlns:sodipodi="http://sodipodi.sourceforge.net/DTD/sodipodi-0.dtd"
   xmlns="http://www.w3.org/2000/svg"
   xmlns:svg="http://www.w3.org/2000/svg">
  <defs
     id="defs9" />
  <sodipodi:namedview
     id="namedview7"
     pagecolor="#ffffff"
     bordercolor="#666666"
     borderopacity="1.0"
     inkscape:pageshadow="2"
     inkscape:pageopacity="0.0"
     inkscape:pagecheckerboard="0"
     showgrid="false"
     inkscape:zoom="59.326259"
     inkscape:cx="14.116852"
     inkscape:cy="14.369691"
     inkscape:window-width="1920"
     inkscape:window-height="1051"
     inkscape:window-x="0"
     inkscape:window-y="29"
     inkscape:window-maximized="1"
     inkscape:current-layer="id1" />
  <g
     id="layer1"
     style="display:inline">
    <g
       id="id1"
       transform="translate(-19,-0.75)">
      <path
         style="color:#000000;shape-padding:0;clip-rule:nonzero;display:block;overflow:visible;visibility:visible;opacity:1;solid-color:#000000;solid-opacity:1;fill:#464646;fill-opacity:1;fill-rule:nonzero;stroke:none;stroke-width:1.5;stroke-linecap:butt;stroke-linejoin:miter;stroke-miterlimit:10;stroke-dasharray:none;stroke-dashoffset:0;stroke-opacity:1;marker:none;enable-background:accumulate"
         d="m 19.855469,1.3900606 v 0 18.3342044 0 l 0.661966,0.168367 3.582174,-3.498101 c 0.5882,1.18866 1.158389,2.386561 1.758464,3.569127 1.108631,1.640259 4.157538,0.465128 3.89799,-1.495859 0.01057,-0.470226 -0.405577,-0.908445 -0.434651,-1.313638 l 0.778203,-0.75963 c 0.5882,1.18866 1.158389,2.386561 1.758464,3.569127 1.108631,1.640259 4.157538,0.465128 3.89799,-1.495859 -0.192325,-0.904303 -0.717854,-1.698026 -1.068629,-2.548967 l -0.716725,-1.537973 h 4.442584 v 0 L 38.669582,13.789074 26.497676,1.1233405 25.855469,1.2934955 v 0 4.7995912 l -0.367813,0.2233532 v 0 L 20.587672,1.2170751 Z m 1.500001,3.4763496 0.411861,-0.2561485 5.258013,5.4719613 0.330125,-0.2251448 v 0 -4.9479353 0 l 0.478789,-0.2292485 7.650055,7.9610616 -0.127625,0.239903 v 0 h -3.444302 l -0.196265,0.217197 c 0.03361,0.07241 -0.03365,-0.07239 0,0 0.850906,1.830568 1.714347,3.655641 2.555194,5.49062 0.0065,0.622781 -1.227555,0.980575 -1.325116,0.207118 l -2.328628,-4.748712 v 0 l -0.211747,-0.04774 -2.933163,2.862033 c 0.263642,0.608048 0.596803,1.192457 0.814693,1.816134 -0.182662,0.601037 -1.26833,0.8373 -1.365856,0.06795 l -2.273256,-4.635793 -0.265288,-0.08792 v 0 l -2.656209,2.592539 v 0 L 21.35548,16.49394 21.35547,4.8664102 Z"
         id="path5565"
         sodipodi:nodetypes="ccccccccccccccccccccccccccccccccccccccsccccccccccccccccc" />
    </g>
    <g
       id="id2"
       transform="translate(-25,-0.75)" />
  </g>
</svg>
