<?xml version="1.0" encoding="UTF-8" standalone="no"?>
<svg
   viewBox="0 0 16 16"
   version="1.1"
   id="svg4"
   sodipodi:docname="emblem-ok-symbolic.svg"
   inkscape:version="1.1.2 (0a00cf5339, 2022-02-04)"
   xmlns:inkscape="http://www.inkscape.org/namespaces/inkscape"
   xmlns:sodipodi="http://sodipodi.sourceforge.net/DTD/sodipodi-0.dtd"
   xmlns="http://www.w3.org/2000/svg"
   xmlns:svg="http://www.w3.org/2000/svg">
  <defs
     id="defs8" />
  <sodipodi:namedview
     id="namedview6"
     pagecolor="#ffffff"
     bordercolor="#666666"
     borderopacity="1.0"
     inkscape:pageshadow="2"
     inkscape:pageopacity="0.0"
     inkscape:pagecheckerboard="0"
     showgrid="false"
     inkscape:zoom="51.6875"
     inkscape:cx="7.9903265"
     inkscape:cy="7.9903265"
     inkscape:window-width="680"
     inkscape:window-height="836"
     inkscape:window-x="685"
     inkscape:window-y="31"
     inkscape:window-maximized="1"
     inkscape:current-layer="svg4" />
  <path
     d="m 12.203125,3.4003906 c -0.20648,0 -0.380951,0.072297 -0.525391,0.2167969 L 7.0503522,8.2534685 6.7853279,8.417735 v 0 0 l -0.3249481,0.018256 v 0 L 6.2323115,8.3365202 4.3222656,6.4199219 C 4.1777256,6.2753919 4.003275,6.203125 3.796875,6.203125 c -0.20648,0 -0.3828138,0.072297 -0.5273438,0.2167969 L 2.2167969,7.4726562 C 2.0722569,7.6171863 2,7.79351 2,8 2,8.20639 2.0722969,8.3829138 2.2167969,8.5273438 l 2.8027343,2.8007812 1.0527344,1.054687 c 0.14443,0.144532 0.3208538,0.216797 0.5273438,0.216797 0.20639,0 0.3808606,-0.07239 0.5253906,-0.216797 L 8.1777344,11.328125 13.783203,5.7246094 C 13.927643,5.5800794 14,5.4037456 14,5.1972656 c 9e-5,-0.2064 -0.0724,-0.3808506 -0.216797,-0.5253906 L 12.730469,3.6171875 c -0.14444,-0.14454 -0.320944,-0.2167969 -0.527344,-0.2167969 z"
     fill="#bebebe"
     id="path2"
     sodipodi:nodetypes="scccccccccsccscccsccccccs" />
</svg>
