<?xml version="1.0" encoding="UTF-8" standalone="no"?>
<svg
   width="16"
   height="16"
   version="1.1"
   id="svg527703"
   sodipodi:docname="emblem-videos-symbolic.svg"
   inkscape:version="1.1.2 (0a00cf5339, 2022-02-04)"
   xmlns:inkscape="http://www.inkscape.org/namespaces/inkscape"
   xmlns:sodipodi="http://sodipodi.sourceforge.net/DTD/sodipodi-0.dtd"
   xmlns="http://www.w3.org/2000/svg"
   xmlns:svg="http://www.w3.org/2000/svg">
  <defs
     id="defs527707" />
  <sodipodi:namedview
     id="namedview527705"
     pagecolor="#ffffff"
     bordercolor="#666666"
     borderopacity="1.0"
     inkscape:pageshadow="2"
     inkscape:pageopacity="0.0"
     inkscape:pagecheckerboard="0"
     showgrid="false"
     inkscape:zoom="51.6875"
     inkscape:cx="12.827086"
     inkscape:cy="7.9903265"
     inkscape:window-width="680"
     inkscape:window-height="836"
     inkscape:window-x="685"
     inkscape:window-y="31"
     inkscape:window-maximized="1"
     inkscape:current-layer="svg527703" />
  <path
     style="fill:#5c616c"
     d="m 2,3 h 9 c 1,0 1,1 1,1 v 8 c 0,1 -1,1 -1,1 H 2 C 2,13 1,13 1,12 V 4 C 1,4 1,3 2,3 Z M 15.836897,5.1073862 16,5.3030656 v 0 0 5.6866094 0.287727 0.149492 -0.437219 l -0.156772,0.299149 -0.332587,0.02423 -0.184165,0.01342 v 0 l 0.184165,-0.01342 -0.350271,-0.152689 -2.513924,-2.5139208 -0.146487,-0.1464864 0.146487,0.1464864 -0.153639,-0.3478502 -0.01961,-0.5522728 -0.0055,-0.1555309 0.0055,0.1555309 0.176232,-0.3145672 v 0 l 2.483718,-2.1732533 0.41011,-0.1960405 v 0 0 z"
     id="path527701"
     sodipodi:nodetypes="sscsccscsccccccccccccccccccccccccccccc" />
</svg>
