<?xml version="1.0" encoding="UTF-8" standalone="no"?>
<svg
   width="16"
   height="16"
   version="1.1"
   id="svg2036227"
   sodipodi:docname="emblem-default-symbolic.svg"
   inkscape:version="1.1.2 (0a00cf5339, 2022-02-04)"
   xmlns:inkscape="http://www.inkscape.org/namespaces/inkscape"
   xmlns:sodipodi="http://sodipodi.sourceforge.net/DTD/sodipodi-0.dtd"
   xmlns="http://www.w3.org/2000/svg"
   xmlns:svg="http://www.w3.org/2000/svg">
  <defs
     id="defs2036231" />
  <sodipodi:namedview
     id="namedview2036229"
     pagecolor="#ffffff"
     bordercolor="#666666"
     borderopacity="1.0"
     inkscape:pageshadow="2"
     inkscape:pageopacity="0.0"
     inkscape:pagecheckerboard="0"
     showgrid="false"
     inkscape:zoom="51.6875"
     inkscape:cx="7.9903265"
     inkscape:cy="7.9903265"
     inkscape:window-width="680"
     inkscape:window-height="836"
     inkscape:window-x="685"
     inkscape:window-y="31"
     inkscape:window-maximized="1"
     inkscape:current-layer="svg2036227" />
  <path
     d="m 10.403,5.3703 c 0.11801,0 0.21912,0.042328 0.30171,0.12497 l 0.60163,0.60163 c 0.08259,0.082641 0.12502,0.18191 0.12497,0.29992 0,0.11807 -0.04238,0.21907 -0.12497,0.30171 l -3.8062,3.8062 c -0.082641,0.08259 -0.1837,0.12497 -0.30171,0.12497 -0.11807,0 -0.21734,-0.04233 -0.29992,-0.12497 L 6.29509,9.9031 4.69369,8.3017 C 4.611049,8.219112 4.56872,8.118 4.56872,7.99999 c 0,-0.11807 0.042328,-0.21907 0.12497,-0.30171 L 5.29532,7.09665 C 5.377961,7.014009 5.47896,6.97347 5.59703,6.97347 c 0.11801,0 0.21728,0.040543 0.29992,0.12318 L 6.881703,8.0854131 7.1650772,8.246997 v 0 0 0 L 7.4632987,8.1382774 10.10305,5.49525 c 0.08259,-0.082641 0.18186,-0.12497 0.29992,-0.12497 z"
     fill="#555555"
     fill-rule="evenodd"
     id="path2036223"
     sodipodi:nodetypes="ccccccscccscsscccccccccc" />
  <path
     d="m8 0a8 8 0 0 0-8 8 8 8 0 0 0 8 8 8 8 0 0 0 8-8 8 8 0 0 0-8-8zm0 2a6 6 0 0 1 6 6 6 6 0 0 1-6 6 6 6 0 0 1-6-6 6 6 0 0 1 6-6z"
     fill="#555555"
     stroke-linecap="square"
     stroke-width="2"
     style="paint-order:fill markers stroke"
     id="path2036225" />
</svg>
