<?xml version="1.0" encoding="UTF-8" standalone="no"?>
<svg
   width="24"
   height="24"
   version="1.1"
   id="svg16"
   sodipodi:docname="audio-volume-high.svg"
   inkscape:version="1.2 (dc2aedaf03, 2022-05-15)"
   xmlns:inkscape="http://www.inkscape.org/namespaces/inkscape"
   xmlns:sodipodi="http://sodipodi.sourceforge.net/DTD/sodipodi-0.dtd"
   xmlns="http://www.w3.org/2000/svg"
   xmlns:svg="http://www.w3.org/2000/svg">
  <sodipodi:namedview
     id="namedview18"
     pagecolor="#ffffff"
     bordercolor="#000000"
     borderopacity="0.25"
     inkscape:showpageshadow="2"
     inkscape:pageopacity="0.0"
     inkscape:pagecheckerboard="0"
     inkscape:deskcolor="#d1d1d1"
     showgrid="false"
     inkscape:zoom="36.583333"
     inkscape:cx="12"
     inkscape:cy="9.8132118"
     inkscape:window-width="1532"
     inkscape:window-height="1080"
     inkscape:window-x="193"
     inkscape:window-y="-1"
     inkscape:window-maximized="1"
     inkscape:current-layer="svg16" />
  <defs
     id="defs12">
    <style
       id="current-color-scheme"
       type="text/css">
   .ColorScheme-Text { color:#eeeeec; } .ColorScheme-Highlight { color:#367bf0; } .ColorScheme-NeutralText { color:#ffcc44; } .ColorScheme-PositiveText { color:#3db47e; } .ColorScheme-NegativeText { color:#dd4747; }
  </style>
  </defs>
  <path
     style="fill:currentColor"
     class="ColorScheme-Text"
     d="M 10.722656,4.6493662 10.334903,4.6650973 6.2749885,8.7250115 6,8.8010365 5.6346666,9 H 3 v 6 H 5.6471729 L 6,15.126754 l 0.295488,0.168734 4.093976,4.093976 0.323812,-0.07089 L 11,19.073345 V 4.9572757 Z M 13.22492,4.2877258 13,4.4740891 V 6 c 2.86838,0.84571 5,3.06286 5,6 0,2.93714 -2.13163,5.15429 -5,6 v 1.553897 l 0.191152,0.383478 c 0.194359,-0.04449 0.1956,-0.03216 0.38574,-0.08805 C 17.196772,18.785244 20,15.691793 20,12 20,8.3017754 17.186996,5.203979 13.557964,4.1451301 13.373987,4.0914507 13.412832,4.3307373 13.22492,4.2877258 Z M 13.177306,8.231658 13,8.4975336 V 15.54358 l 0.218679,0.258661 c 0,0 -0.0601,0.144903 0.184141,0.02704 C 14.220932,15.434477 16.000154,14.310285 16,12 15.999853,9.7918324 14.374588,8.6672213 13.516639,8.2273876 13.208986,8.0696665 13.177306,8.231658 13.177306,8.231658 Z"
     id="path14"
     sodipodi:nodetypes="ccccccccccccccccccscccssscccccsssc" />
</svg>
