<?xml version="1.0" encoding="UTF-8" standalone="no"?>
<svg
   width="24"
   height="24"
   version="1.1"
   id="svg9"
   sodipodi:docname="bitmap-trace.svg"
   inkscape:version="1.1.2 (0a00cf5339, 2022-02-04)"
   xmlns:inkscape="http://www.inkscape.org/namespaces/inkscape"
   xmlns:sodipodi="http://sodipodi.sourceforge.net/DTD/sodipodi-0.dtd"
   xmlns="http://www.w3.org/2000/svg"
   xmlns:svg="http://www.w3.org/2000/svg">
  <sodipodi:namedview
     id="namedview11"
     pagecolor="#ffffff"
     bordercolor="#666666"
     borderopacity="1.0"
     inkscape:pageshadow="2"
     inkscape:pageopacity="0.0"
     inkscape:pagecheckerboard="0"
     showgrid="false"
     inkscape:zoom="34.458333"
     inkscape:cx="12.01451"
     inkscape:cy="12"
     inkscape:window-width="1914"
     inkscape:window-height="1045"
     inkscape:window-x="3"
     inkscape:window-y="32"
     inkscape:window-maximized="1"
     inkscape:current-layer="g7" />
  <defs
     id="defs3">
    <style
       id="current-color-scheme"
       type="text/css">
   .ColorScheme-Text { color:#eeeeec; } .ColorScheme-Highlight { color:#367bf0; } .ColorScheme-NeutralText { color:#ffcc44; } .ColorScheme-PositiveText { color:#3db47e; } .ColorScheme-NegativeText { color:#dd4747; }
  </style>
  </defs>
  <g
     transform="matrix(1,0,0,1,4,4)"
     id="g7">
    <path
       style="fill:currentColor"
       class="ColorScheme-Text"
       d="M 14.255884,9.2558842 13.722505,9.2774955 10.190646,12.809354 10,13.262828 v 0 1.255488 L 10.401777,15 v 0 h 1.273263 l 0.554026,-0.229066 v 0 l 3.564506,-3.564506 -0.01131,-0.424164 v 0 z M 2,2 C 1,2 1,3 1,3 v 10 c 0,1 1,1 1,1 H 9 V 12.582 L 9.2868517,12.295148 9.1195303,12 v 0 H 3.3502937 v 0 L 3,11.644462 v -1.8682035 0 l 0.1397519,-0.440467 2.069497,-2.4316589 v 0 l 0.5737703,-0.021191 2.7849722,3.1532192 0.490217,0.03836 v 0 L 10.693905,8.4869171 v 0 l 0.480239,-7.141e-4 0.662627,0.6627935 0.499592,0.096908 v 0 l 1.395196,-1.3954212 0.519274,-0.017651 v 0 L 14.709707,8.2917073 15,8.2315604 v 0 V 3 C 15,2 14,2 14,2 Z"
       id="path5"
       sodipodi:nodetypes="ccccccccccccccccscsccccccccccccccccccccccccccccccscs" />
  </g>
</svg>
