<?xml version="1.0" encoding="UTF-8" standalone="no"?>
<svg
   width="24"
   height="24"
   viewBox="0 0 24 24"
   version="1.1"
   id="svg7"
   sodipodi:docname="go-home-large.svg"
   inkscape:version="1.1.2 (0a00cf5339, 2022-02-04)"
   xmlns:inkscape="http://www.inkscape.org/namespaces/inkscape"
   xmlns:sodipodi="http://sodipodi.sourceforge.net/DTD/sodipodi-0.dtd"
   xmlns="http://www.w3.org/2000/svg"
   xmlns:svg="http://www.w3.org/2000/svg">
  <sodipodi:namedview
     id="namedview9"
     pagecolor="#ffffff"
     bordercolor="#666666"
     borderopacity="1.0"
     inkscape:pageshadow="2"
     inkscape:pageopacity="0.0"
     inkscape:pagecheckerboard="0"
     showgrid="false"
     inkscape:zoom="34.458333"
     inkscape:cx="11.898428"
     inkscape:cy="14.321645"
     inkscape:window-width="954"
     inkscape:window-height="519"
     inkscape:window-x="961"
     inkscape:window-y="556"
     inkscape:window-maximized="1"
     inkscape:current-layer="svg7" />
  <defs
     id="defs3">
    <style
       id="current-color-scheme"
       type="text/css">
   .ColorScheme-Text { color:#eeeeec; } .ColorScheme-Highlight { color:#367bf0; } .ColorScheme-NeutralText { color:#ffcc44; } .ColorScheme-PositiveText { color:#3db47e; } .ColorScheme-NegativeText { color:#dd4747; }
  </style>
  </defs>
  <path
     style="fill:currentColor"
     class="ColorScheme-Text"
     d="m 8.6754081,2.6754081 -1.2581936,-0.092623 -5.342604,5.342604 v 0 L 1.868328,8.3190465 1.9506558,9 V 9 H 2.7540704 V 9 L 3,9.2617831 V 14.616674 L 3.287022,15 v 0 l 3.2152417,-0.09639 v 0 l 0.3748847,-0.313145 0.013614,-3.414934 v 0 l 0.3026173,-0.210958 1.5783693,-0.03351 v 0 l 0.3409223,0.236072 0.087777,3.485922 0.2724073,0.303691 v 0 L 12.598299,15 v 0 L 13,14.594222 v -5.3475939 0 L 13.225734,9 h 0.714641 V 9 L 14.096929,8.4187523 13.866774,7.866774 v 0 z"
     transform="translate(4,4)"
     id="path5"
     sodipodi:nodetypes="ccccccccccccccccccccccccccccccccccccc" />
</svg>
