<?xml version="1.0" encoding="UTF-8" standalone="no"?>
<svg
   width="24"
   height="24"
   version="1.1"
   id="svg9"
   sodipodi:docname="hb-showqueue.svg"
   inkscape:version="1.1.2 (0a00cf5339, 2022-02-04)"
   xmlns:inkscape="http://www.inkscape.org/namespaces/inkscape"
   xmlns:sodipodi="http://sodipodi.sourceforge.net/DTD/sodipodi-0.dtd"
   xmlns="http://www.w3.org/2000/svg"
   xmlns:svg="http://www.w3.org/2000/svg">
  <sodipodi:namedview
     id="namedview11"
     pagecolor="#ffffff"
     bordercolor="#666666"
     borderopacity="1.0"
     inkscape:pageshadow="2"
     inkscape:pageopacity="0.0"
     inkscape:pagecheckerboard="0"
     showgrid="false"
     inkscape:zoom="31.416667"
     inkscape:cx="11.984085"
     inkscape:cy="12"
     inkscape:window-width="1826"
     inkscape:window-height="966"
     inkscape:window-x="0"
     inkscape:window-y="29"
     inkscape:window-maximized="1"
     inkscape:current-layer="g7" />
  <defs
     id="defs3">
    <style
       id="current-color-scheme"
       type="text/css">
   .ColorScheme-Text { color:#eeeeec; } .ColorScheme-Highlight { color:#367bf0; } .ColorScheme-NeutralText { color:#ffcc44; } .ColorScheme-PositiveText { color:#3db47e; } .ColorScheme-NegativeText { color:#dd4747; }
  </style>
  </defs>
  <g
     transform="translate(4,4)"
     id="g7">
    <path
       style="fill:currentColor"
       class="ColorScheme-Text"
       d="m 8,2 v 3.7157355 0 L 7.6885128,6 H 5.6514009 v 0 l -0.2388935,0.5775103 4.204356,5.8860987 0.8064956,-0.05631 v 0 l 3.993613,-5.5910587 v 0 L 14.054382,6 H 12.367577 V 6 L 12,5.6838411 V 2 Z M 4,11.5 C 4,12.328427 3.3284271,13 2.5,13 1.6715729,13 1,12.328427 1,11.5 1,10.671573 1.6715729,10 2.5,10 3.3284271,10 4,10.671573 4,11.5 Z m 0,-4 C 4,8.3284271 3.3284271,9 2.5,9 1.6715729,9 1,8.3284271 1,7.5 1,6.6715729 1.6715729,6 2.5,6 3.3284271,6 4,6.6715729 4,7.5 Z m 0,-4 C 4,4.3284271 3.3284271,5 2.5,5 1.6715729,5 1,4.3284271 1,3.5 1,2.6715729 1.6715729,2 2.5,2 3.3284271,2 4,2.6715729 4,3.5 Z"
       id="path5"
       sodipodi:nodetypes="ccccccccccccccccccsssssssssssssss" />
  </g>
</svg>
