<?xml version="1.0" encoding="UTF-8" standalone="no"?>
<svg
   width="24"
   height="24"
   version="1.1"
   id="svg9"
   sodipodi:docname="insert-image.svg"
   inkscape:version="1.1.2 (0a00cf5339, 2022-02-04)"
   xmlns:inkscape="http://www.inkscape.org/namespaces/inkscape"
   xmlns:sodipodi="http://sodipodi.sourceforge.net/DTD/sodipodi-0.dtd"
   xmlns="http://www.w3.org/2000/svg"
   xmlns:svg="http://www.w3.org/2000/svg">
  <sodipodi:namedview
     id="namedview11"
     pagecolor="#ffffff"
     bordercolor="#666666"
     borderopacity="1.0"
     inkscape:pageshadow="2"
     inkscape:pageopacity="0.0"
     inkscape:pagecheckerboard="0"
     showgrid="false"
     inkscape:zoom="31.416667"
     inkscape:cx="11.984085"
     inkscape:cy="12"
     inkscape:window-width="1826"
     inkscape:window-height="966"
     inkscape:window-x="0"
     inkscape:window-y="29"
     inkscape:window-maximized="1"
     inkscape:current-layer="g7" />
  <defs
     id="defs3">
    <style
       id="current-color-scheme"
       type="text/css">
   .ColorScheme-Text { color:#eeeeec; } .ColorScheme-Highlight { color:#367bf0; } .ColorScheme-NeutralText { color:#ffcc44; } .ColorScheme-PositiveText { color:#3db47e; } .ColorScheme-NegativeText { color:#dd4747; }
  </style>
  </defs>
  <g
     transform="translate(4,4)"
     id="g7">
    <path
       style="fill:currentColor"
       class="ColorScheme-Text"
       d="M 3,0 C 2,0 2,1 2,1 v 8 c 0,1 1,1 1,1 h 10 c 0,0 1,0 1,-1 V 1 C 14,0 13,0 13,0 Z m 2.6727447,3.8272553 0.6878578,0.033347 2.3869396,2.3869396 0.5139775,-0.00906 v 0 l 0.9387924,-0.938792 v 0 l 0.604262,0.00489 0.955044,0.9550441 v 0 L 12,6.7658487 V 7.7845504 L 11.698886,8 V 8 H 4.3459453 V 8 L 4,7.6250767 v -1.718455 0 L 4.3676389,5.1323611 Z M 5.4911054,12.654807 v 0 l 2.1390993,2.852133 0.7787176,-0.05217 v 0 l 2.1697167,-2.892956 v 0 L 10.234683,12 H 5.8740027 Z"
       id="path5"
       sodipodi:nodetypes="scsccsscscccccccccccccccccccccccccccccccc" />
  </g>
</svg>
