<?xml version="1.0" encoding="UTF-8" standalone="no"?>
<svg
   width="24"
   height="24"
   version="1.1"
   id="svg9"
   sodipodi:docname="kdenlive-zoom-large.svg"
   inkscape:version="1.1.2 (0a00cf5339, 2022-02-04)"
   xmlns:inkscape="http://www.inkscape.org/namespaces/inkscape"
   xmlns:sodipodi="http://sodipodi.sourceforge.net/DTD/sodipodi-0.dtd"
   xmlns="http://www.w3.org/2000/svg"
   xmlns:svg="http://www.w3.org/2000/svg">
  <sodipodi:namedview
     id="namedview11"
     pagecolor="#ffffff"
     bordercolor="#666666"
     borderopacity="1.0"
     inkscape:pageshadow="2"
     inkscape:pageopacity="0.0"
     inkscape:pagecheckerboard="0"
     showgrid="false"
     inkscape:zoom="31.416667"
     inkscape:cx="11.984085"
     inkscape:cy="12"
     inkscape:window-width="1826"
     inkscape:window-height="966"
     inkscape:window-x="0"
     inkscape:window-y="29"
     inkscape:window-maximized="1"
     inkscape:current-layer="g7" />
  <defs
     id="defs3">
    <style
       id="current-color-scheme"
       type="text/css">
   .ColorScheme-Text { color:#eeeeec; } .ColorScheme-Highlight { color:#367bf0; } .ColorScheme-NeutralText { color:#ffcc44; } .ColorScheme-PositiveText { color:#3db47e; } .ColorScheme-NegativeText { color:#dd4747; }
  </style>
  </defs>
  <g
     transform="translate(4,4)"
     id="g7">
    <path
       style="fill:currentColor"
       class="ColorScheme-Text"
       d="M 2,2 C 1,2 1,3 1,3 V 7 H 3 V 4 H 6 V 2 Z m 8,0 v 2 h 3 v 3 h 2 V 3 C 15,2 14,2 14,2 Z M 7.7235934,3.5528131 v 0 L 6.2659084,6.4681832 6.5426922,7 V 7 H 9.4710975 V 7 L 9.7176935,6.4353871 8.3236305,3.647261 Z M 6.2971092,9.5942183 v 0 l 1.4004613,2.8009227 v 0 L 8.3371024,12.325795 9.7628729,9.4742542 9.4391721,9 V 9 H 6.6375865 Z M 1,9 v 4 c 0,1 1,1 1,1 H 6 V 12 H 3 V 9 Z m 12,0 v 3 h -3 v 2 h 4 c 0,0 1,0 1,-1 V 9 Z"
       id="path5"
       sodipodi:nodetypes="sccccccscccccscccccccccccccccccccccccscccccccccccscc" />
  </g>
</svg>
