<?xml version="1.0" encoding="UTF-8" standalone="no"?>
<svg
   width="24"
   height="24"
   version="1.1"
   id="svg9"
   sodipodi:docname="upload-media.svg"
   inkscape:version="1.1.2 (0a00cf5339, 2022-02-04)"
   xmlns:inkscape="http://www.inkscape.org/namespaces/inkscape"
   xmlns:sodipodi="http://sodipodi.sourceforge.net/DTD/sodipodi-0.dtd"
   xmlns="http://www.w3.org/2000/svg"
   xmlns:svg="http://www.w3.org/2000/svg">
  <sodipodi:namedview
     id="namedview11"
     pagecolor="#ffffff"
     bordercolor="#666666"
     borderopacity="1.0"
     inkscape:pageshadow="2"
     inkscape:pageopacity="0.0"
     inkscape:pagecheckerboard="0"
     showgrid="false"
     inkscape:zoom="31.416667"
     inkscape:cx="11.984085"
     inkscape:cy="12"
     inkscape:window-width="1826"
     inkscape:window-height="966"
     inkscape:window-x="0"
     inkscape:window-y="29"
     inkscape:window-maximized="1"
     inkscape:current-layer="g7" />
  <defs
     id="defs3">
    <style
       id="current-color-scheme"
       type="text/css">
   .ColorScheme-Text { color:#eeeeec; } .ColorScheme-Highlight { color:#367bf0; } .ColorScheme-NeutralText { color:#ffcc44; } .ColorScheme-PositiveText { color:#3db47e; } .ColorScheme-NegativeText { color:#dd4747; }
  </style>
  </defs>
  <g
     transform="translate(4,4)"
     id="g7">
    <path
       style="fill:currentColor"
       class="ColorScheme-Text"
       d="M 8,2 C 5.93,2 4.1702,3.2705 3.4102,5.0605 1.4802,5.3505 0,7 0,9 c 0,2.21 1.79,4 4,4 h 8.5 C 14.43,13 16,11.43 16,9.5 16,7.7 14.65,6.2293 12.91,6.0293 12.45,3.7393 10.43,2 8,2 Z M 7.5415124,5.0349022 8.5202785,5.1069916 10.454811,7.3639464 10.266611,8 V 8 H 9.2476098 L 9,8.2620069 v 0 V 11 H 7 v -2.7698874 0 L 6.7014413,8 H 5.7471811 V 8 L 5.5261817,7.3861214 Z"
       id="path5"
       sodipodi:nodetypes="scsssscscccccccccccccccccc" />
  </g>
</svg>
