<?xml version="1.0" encoding="UTF-8" standalone="no"?>
<svg
   width="24"
   height="24"
   viewBox="0 0 24 24"
   version="1.1"
   id="svg7"
   sodipodi:docname="map-globe.svg"
   inkscape:version="1.1.2 (0a00cf5339, 2022-02-04)"
   xmlns:inkscape="http://www.inkscape.org/namespaces/inkscape"
   xmlns:sodipodi="http://sodipodi.sourceforge.net/DTD/sodipodi-0.dtd"
   xmlns="http://www.w3.org/2000/svg"
   xmlns:svg="http://www.w3.org/2000/svg">
  <sodipodi:namedview
     id="namedview9"
     pagecolor="#000000"
     bordercolor="#666666"
     borderopacity="1.0"
     inkscape:pageshadow="2"
     inkscape:pageopacity="0"
     inkscape:pagecheckerboard="0"
     showgrid="false"
     inkscape:zoom="34.625"
     inkscape:cx="11.98556"
     inkscape:cy="12"
     inkscape:window-width="1502"
     inkscape:window-height="1039"
     inkscape:window-x="208"
     inkscape:window-y="19"
     inkscape:window-maximized="1"
     inkscape:current-layer="svg7" />
  <defs
     id="defs3">
    <style
       id="current-color-scheme"
       type="text/css">
   .ColorScheme-Text { color:#eeeeec; } .ColorScheme-Highlight { color:#367bf0; } .ColorScheme-NeutralText { color:#ffcc44; } .ColorScheme-PositiveText { color:#3db47e; } .ColorScheme-NegativeText { color:#dd4747; }
  </style>
  </defs>
  <path
     style="fill:currentColor"
     class="ColorScheme-Text"
     d="M 8.109375,0 C 5.9472315,-0.03112474 3.8645749,0.81433806 2.3359375,2.34375 c -3.12338875,3.1240561 -3.12338875,8.188444 0,11.3125 3.1240561,3.123389 8.1884445,3.123389 11.3125005,0 3.123389,-3.124056 3.123389,-8.1884439 0,-11.3125 C 12.177226,0.87176138 10.190301,0.03103121 8.109375,0 Z m -0.21875,1 c 1.7174539,-0.0218723 3.383005,0.5884592 4.679687,1.7148438 L 11.166016,4.1191406 C 9.7353427,2.798456 8.081013,1.877036 6.5137953,1.5119995 6.2537204,1.4514228 7.0301355,1.1379902 6.7762786,1.1087753 c 0.3378797,-0.11578047 -0.3504903,0.062825 0,0 C 7.1436666,1.0429215 7.5162948,1.0064561 7.890625,1 Z M 4.8632812,2.3066406 C 6.5343146,2.2118167 8.6564832,3.1684228 10.457031,4.828125 L 7.9921875,7.2929688 3.4414062,2.7421875 C 3.8344212,2.488213 4.3154596,2.340862 4.8632812,2.3066406 Z m 8.4199218,1.109375 c 1.410553,1.6331887 1.977666,3.8099256 1.576861,5.8956256 -0.05912,0.3076329 -0.290152,-0.203695 -0.391783,0.09794 -0.0327,-0.2687304 0.06759,0.2753654 0,0 C 14.088564,7.8624779 13.171778,6.2370634 11.869141,4.8300781 Z M 2.7324219,3.4472656 7.2851562,8 4.8183594,10.466797 C 2.5636291,8.0170999 1.6907348,5.0796634 2.7324219,3.4472656 Z m 8.4335941,2.0859375 c 2.25473,2.4496971 3.127624,5.3871329 2.085937,7.0195309 L 8.6992188,8 Z M 1.0993019,6.8259111 C 1.1372328,7.1375906 1.4651305,6.4023845 1.5497994,6.7226295 1.9482823,8.2298193 2.8496523,9.8029602 4.1152344,11.169922 L 2.7011719,12.583984 C 1.3216001,10.986666 0.74882498,8.8694135 1.0993019,6.8259111 c 0.060725,-0.3540679 -0.11676485,0.3465518 0,0 z M 7.9921875,8.7070312 12.542969,13.257812 C 10.910378,14.297003 7.9755036,13.424384 5.5273438,11.171875 Z M 4.8183594,11.880859 c 1.3637446,1.258901 2.9307093,2.155021 4.4317314,2.552274 0.3349805,0.08865 -0.3254204,-0.03745 0,0 -0.3504455,0.118725 0.2857429,0.398376 -0.072432,0.45975 -2.0459246,0.350574 -4.1657749,-0.224259 -5.7635967,-1.607727 z"
     transform="translate(4,4)"
     id="path5"
     sodipodi:nodetypes="cccccccccscscccccccscscccccccccccsccsccccccscscc" />
</svg>
