<?xml version="1.0" encoding="UTF-8" standalone="no"?>
<svg
   width="24"
   height="24"
   viewBox="0 0 24 24"
   version="1.1"
   id="svg7"
   sodipodi:docname="measure.svg"
   inkscape:version="1.1.2 (0a00cf5339, 2022-02-04)"
   xmlns:inkscape="http://www.inkscape.org/namespaces/inkscape"
   xmlns:sodipodi="http://sodipodi.sourceforge.net/DTD/sodipodi-0.dtd"
   xmlns="http://www.w3.org/2000/svg"
   xmlns:svg="http://www.w3.org/2000/svg">
  <sodipodi:namedview
     id="namedview9"
     pagecolor="#000000"
     bordercolor="#666666"
     borderopacity="1.0"
     inkscape:pageshadow="2"
     inkscape:pageopacity="0"
     inkscape:pagecheckerboard="0"
     showgrid="false"
     inkscape:zoom="34.625"
     inkscape:cx="11.98556"
     inkscape:cy="12"
     inkscape:window-width="1502"
     inkscape:window-height="1039"
     inkscape:window-x="208"
     inkscape:window-y="19"
     inkscape:window-maximized="1"
     inkscape:current-layer="svg7" />
  <defs
     id="defs3">
    <style
       id="current-color-scheme"
       type="text/css">
   .ColorScheme-Text { color:#eeeeec; } .ColorScheme-Highlight { color:#367bf0; } .ColorScheme-NeutralText { color:#ffcc44; } .ColorScheme-PositiveText { color:#3db47e; } .ColorScheme-NegativeText { color:#dd4747; }
  </style>
  </defs>
  <path
     style="fill:currentColor"
     class="ColorScheme-Text"
     d="M 2,1 C 1.4477,1.0001 1.0001,1.4477 1,2 v 6 c 10e-5,0.5523 0.4477,0.9999 1,1 h 12 c 0.552,-10e-5 1,-0.4477 1,-1 V 2 C 15,1.4477 14.552,1.0001 14,1 Z M 3,3 H 4 V 5 H 5 V 3 H 7 V 5 H 8 V 3 h 2 v 2 h 1 V 3 h 2 V 7 H 3 Z m 1,7.818883 -0.7321615,-0.208748 -1.6170082,1.347506 -0.1840716,0.931325 v 0 L 3.4121518,14.510126 4,14.228396 v 0 z m 8,0.303951 v 0 2.930392 0 l 0.68475,0.376149 1.761425,-1.467854 0.04913,-0.882101 v 0 L 12.77628,10.6469 Z"
     transform="translate(4,4)"
     id="path5"
     sodipodi:nodetypes="cccccssccccccccccccccccccccccccccccccccccccccc" />
</svg>
