<?xml version="1.0" encoding="UTF-8" standalone="no"?>
<svg
   width="24"
   height="24"
   version="1.1"
   id="svg9"
   sodipodi:docname="media-random-tracks-amarok.svg"
   inkscape:version="1.1.2 (0a00cf5339, 2022-02-04)"
   xmlns:inkscape="http://www.inkscape.org/namespaces/inkscape"
   xmlns:sodipodi="http://sodipodi.sourceforge.net/DTD/sodipodi-0.dtd"
   xmlns="http://www.w3.org/2000/svg"
   xmlns:svg="http://www.w3.org/2000/svg">
  <sodipodi:namedview
     id="namedview11"
     pagecolor="#000000"
     bordercolor="#666666"
     borderopacity="1.0"
     inkscape:pageshadow="2"
     inkscape:pageopacity="0"
     inkscape:pagecheckerboard="0"
     showgrid="false"
     inkscape:zoom="34.625"
     inkscape:cx="11.98556"
     inkscape:cy="12"
     inkscape:window-width="1502"
     inkscape:window-height="1039"
     inkscape:window-x="208"
     inkscape:window-y="19"
     inkscape:window-maximized="1"
     inkscape:current-layer="g7" />
  <defs
     id="defs3">
    <style
       id="current-color-scheme"
       type="text/css">
   .ColorScheme-Text { color:#eeeeec; } .ColorScheme-Highlight { color:#367bf0; } .ColorScheme-NeutralText { color:#ffcc44; } .ColorScheme-PositiveText { color:#3db47e; } .ColorScheme-NegativeText { color:#dd4747; }
  </style>
  </defs>
  <g
     transform="translate(4,4)"
     id="g7">
    <path
       style="fill:currentColor"
       class="ColorScheme-Text"
       d="m 1,3 v 2 h 4.5 l 0.7499492,1.4998985 v 0 L 6.795701,6.408598 7.5,5 6.5,3 Z M 11.799764,9.5998234 11,9.9041664 V 11 H 10.5 L 9.7420507,9.4841014 v 0 L 9.206091,9.587818 8.5,11 l 1,2 H 11 v 0.959559 0 l 1.004869,0.286789 2.438899,-1.829174 -0.05866,-0.878346 v 0 z M 11,1.9864171 v 0 V 3 H 9.5 l -4,8 H 1 v 2 h 5.5 l 4,-8 H 11 v 1.0789015 l 0.900513,0.2457136 v 0 l 2.419808,-1.8148555 v 0 L 14.300882,3.4756612 11.884328,1.6632461 Z M 2,6 v 1 h 1 v 3 H 4 V 7 H 5 V 6 Z"
       id="path5"
       sodipodi:nodetypes="cccccccccccccccccccccccccccccccccccccccccccccccccccccc" />
  </g>
</svg>
