<?xml version="1.0" encoding="UTF-8" standalone="no"?>
<svg
   width="24"
   height="24"
   version="1.1"
   id="svg11"
   sodipodi:docname="mesh-gradient-fit.svg"
   inkscape:version="1.1.2 (0a00cf5339, 2022-02-04)"
   xmlns:inkscape="http://www.inkscape.org/namespaces/inkscape"
   xmlns:sodipodi="http://sodipodi.sourceforge.net/DTD/sodipodi-0.dtd"
   xmlns="http://www.w3.org/2000/svg"
   xmlns:svg="http://www.w3.org/2000/svg">
  <sodipodi:namedview
     id="namedview13"
     pagecolor="#000000"
     bordercolor="#666666"
     borderopacity="1.0"
     inkscape:pageshadow="2"
     inkscape:pageopacity="0"
     inkscape:pagecheckerboard="0"
     showgrid="false"
     inkscape:zoom="34.625"
     inkscape:cx="11.98556"
     inkscape:cy="12"
     inkscape:window-width="1502"
     inkscape:window-height="1039"
     inkscape:window-x="208"
     inkscape:window-y="19"
     inkscape:window-maximized="1"
     inkscape:current-layer="g9" />
  <defs
     id="defs3">
    <style
       id="current-color-scheme"
       type="text/css">
   .ColorScheme-Text { color:#eeeeec; } .ColorScheme-Highlight { color:#367bf0; } .ColorScheme-NeutralText { color:#ffcc44; } .ColorScheme-PositiveText { color:#3db47e; } .ColorScheme-NegativeText { color:#dd4747; }
  </style>
  </defs>
  <g
     transform="translate(4,4)"
     id="g9">
    <path
       style="fill:currentColor"
       class="ColorScheme-Text"
       d="M 0 0 L 0 16 L 16 16 L 16 0 L 0 0 z M 1 1 L 15 1 L 15 15 L 1 15 L 1 1 z"
       id="path5" />
    <path
       style="fill:currentColor"
       class="ColorScheme-Text"
       d="m 2.3448047,1.8205781 c 0.1173501,-0.063189 -0.1125492,0.056467 0,0 5.9940875,-3.007306 5.3048743,3.3420089 11.2658283,0.3810904 0.12674,-0.062954 0.49674,0.3376333 0.629621,0.2660821 0.08638,0.1604094 -0.0739,-0.1514993 0,0 2.855815,5.8545578 -3.366691,5.2246013 -0.453018,11.1204864 0.06614,0.133841 -0.315539,0.503862 -0.239768,0.64458 -0.155043,0.08348 0.146713,-0.07182 0,0 -5.8457241,2.861721 -5.2400466,-3.308521 -11.0602334,-0.482554 -0.1576138,0.07653 0.1672945,-0.09008 0,0 C 2.4182687,13.622184 1.866145,13.746753 1.8051721,13.624383 -1.1773777,7.6385218 5.2105562,8.3458637 2.16409,2.3143483 2.1121651,2.2115454 2.4023042,1.9273629 2.3448047,1.8205781 Z"
       id="path7"
       sodipodi:nodetypes="csscsscsscssc" />
  </g>
</svg>
