<?xml version="1.0" encoding="UTF-8" standalone="no"?>
<svg
   width="24"
   height="24"
   version="1.1"
   id="svg9"
   sodipodi:docname="node-join.svg"
   inkscape:version="1.1.2 (0a00cf5339, 2022-02-04)"
   xmlns:inkscape="http://www.inkscape.org/namespaces/inkscape"
   xmlns:sodipodi="http://sodipodi.sourceforge.net/DTD/sodipodi-0.dtd"
   xmlns="http://www.w3.org/2000/svg"
   xmlns:svg="http://www.w3.org/2000/svg">
  <sodipodi:namedview
     id="namedview11"
     pagecolor="#000000"
     bordercolor="#666666"
     borderopacity="1.0"
     inkscape:pageshadow="2"
     inkscape:pageopacity="0"
     inkscape:pagecheckerboard="0"
     showgrid="false"
     inkscape:zoom="34.625"
     inkscape:cx="11.98556"
     inkscape:cy="12"
     inkscape:window-width="1502"
     inkscape:window-height="1039"
     inkscape:window-x="208"
     inkscape:window-y="19"
     inkscape:window-maximized="1"
     inkscape:current-layer="g7" />
  <defs
     id="defs3">
    <style
       id="current-color-scheme"
       type="text/css">
   .ColorScheme-Text { color:#eeeeec; } .ColorScheme-Highlight { color:#367bf0; } .ColorScheme-NeutralText { color:#ffcc44; } .ColorScheme-PositiveText { color:#3db47e; } .ColorScheme-NegativeText { color:#dd4747; }
  </style>
  </defs>
  <g
     transform="translate(4,4)"
     id="g7">
    <path
       style="fill:currentColor"
       class="ColorScheme-Text"
       d="M 1,0 V 2 H 0.5 C 0,2 0,2.5 0,2.5 0,2.5 0,3 0.5,3 H 1 V 5 H 5 V 0 Z m 9,0 v 5 h 4 V 3 h 0.5 C 15,3 15,2.5 15,2.5 15,2.5 15,2 14.5,2 H 14 V 0 Z M 7,5 V 7 H 5.9937334 L 5.6740658,7.808879 v 0 l 1.359343,1.6312115 0.9305665,0.00314 v 0 l 1.507328,-1.8087936 v 0 L 9.1199762,7 H 8 V 5 Z m -2,6 v 2 H 0.5 C 0,13 0,13.5 0,13.5 0,13.5 0,14 0.5,14 H 5 v 2 h 5 v -2 h 4.5 C 15,14 15,13.5 15,13.5 15,13.5 15,13 14.5,13 H 10 v -2 z"
       id="path5"
       sodipodi:nodetypes="ccscscccccccccscscccccccccccccccccccscsccccscsccc" />
  </g>
</svg>
