<?xml version="1.0" encoding="UTF-8" standalone="no"?>
<svg
   width="24"
   height="24"
   viewBox="0 0 24 24"
   version="1.1"
   id="svg7"
   sodipodi:docname="object-order-front.svg"
   inkscape:version="1.1.2 (0a00cf5339, 2022-02-04)"
   xmlns:inkscape="http://www.inkscape.org/namespaces/inkscape"
   xmlns:sodipodi="http://sodipodi.sourceforge.net/DTD/sodipodi-0.dtd"
   xmlns="http://www.w3.org/2000/svg"
   xmlns:svg="http://www.w3.org/2000/svg">
  <sodipodi:namedview
     id="namedview9"
     pagecolor="#000000"
     bordercolor="#666666"
     borderopacity="1.0"
     inkscape:pageshadow="2"
     inkscape:pageopacity="0"
     inkscape:pagecheckerboard="0"
     showgrid="false"
     inkscape:zoom="34.625"
     inkscape:cx="11.98556"
     inkscape:cy="12"
     inkscape:window-width="1502"
     inkscape:window-height="1039"
     inkscape:window-x="208"
     inkscape:window-y="19"
     inkscape:window-maximized="1"
     inkscape:current-layer="svg7" />
  <defs
     id="defs3">
    <style
       id="current-color-scheme"
       type="text/css">
   .ColorScheme-Text { color:#eeeeec; } .ColorScheme-Highlight { color:#367bf0; } .ColorScheme-NeutralText { color:#ffcc44; } .ColorScheme-PositiveText { color:#3db47e; } .ColorScheme-NegativeText { color:#dd4747; }
  </style>
  </defs>
  <path
     style="fill:currentColor"
     class="ColorScheme-Text"
     d="M 4,1 1.6002274,4.1996968 1.9167401,5 V 5 H 7 L 9.5136129,1.6485162 9.1967262,1 v 0 z m 7.606347,1.3936534 v 0 L 9,5 9.431025,5.9236251 9.9990766,6.047478 v 0 L 10.671445,5.3438371 11,5.4215965 v 0 V 13 h 2 v -7.5185388 0 l 0.44128,-0.019657 0.650538,0.680796 0.418901,-0.09414 v 0 L 15,5 12.392506,2.3925059 Z M 4,6 1.5088135,9.321582 1.8786066,10 v 0 H 5 L 7.4817738,6.6909682 v 0 L 7.1191124,6 Z M 4,11 1.5560024,14.258663 1.8923895,15 v 0 H 5 l 2.5462699,-3.395027 v 0 L 7.2622035,11 Z"
     transform="translate(4,4)"
     id="path5"
     sodipodi:nodetypes="ccccccccccccccccccccccccccccccccccccccccccccccc" />
</svg>
