<?xml version="1.0" encoding="UTF-8" standalone="no"?>
<svg
   width="24"
   height="24"
   viewBox="0 0 24 24"
   version="1.1"
   id="svg7"
   sodipodi:docname="object-order-lower-calligra.svg"
   inkscape:version="1.1.2 (0a00cf5339, 2022-02-04)"
   xmlns:inkscape="http://www.inkscape.org/namespaces/inkscape"
   xmlns:sodipodi="http://sodipodi.sourceforge.net/DTD/sodipodi-0.dtd"
   xmlns="http://www.w3.org/2000/svg"
   xmlns:svg="http://www.w3.org/2000/svg">
  <sodipodi:namedview
     id="namedview9"
     pagecolor="#000000"
     bordercolor="#666666"
     borderopacity="1.0"
     inkscape:pageshadow="2"
     inkscape:pageopacity="0"
     inkscape:pagecheckerboard="0"
     showgrid="false"
     inkscape:zoom="34.625"
     inkscape:cx="12.01444"
     inkscape:cy="12"
     inkscape:window-width="1502"
     inkscape:window-height="1039"
     inkscape:window-x="208"
     inkscape:window-y="19"
     inkscape:window-maximized="1"
     inkscape:current-layer="svg7" />
  <defs
     id="defs3">
    <style
       id="current-color-scheme"
       type="text/css">
   .ColorScheme-Text { color:#eeeeec; } .ColorScheme-Highlight { color:#367bf0; } .ColorScheme-NeutralText { color:#ffcc44; } .ColorScheme-PositiveText { color:#3db47e; } .ColorScheme-NegativeText { color:#dd4747; }
  </style>
  </defs>
  <path
     style="fill:currentColor"
     class="ColorScheme-Text"
     d="m 3,1 v 5.4758874 0 L 2.6519148,6.6357513 1.9685505,5.9206547 1.508912,5.90943 v 0 L 1,7 3.5856378,9.5856378 4.428294,9.571706 v 0 L 7,7 6.5054872,5.9402868 v 0 L 6.0412987,5.9103481 5.3196339,6.6655237 v 0 L 5,6.5604843 V 1 Z M 11,1 8.5481718,4.2691042 8.7654946,5 V 5 H 12 l 2.54818,-3.3975739 v 0 L 14.177622,1 Z M 11,6 8.5089212,9.3214384 8.9022644,10 v 0 H 12 L 14.558088,6.5892159 14.173599,6 V 6 Z M 9,11 6.5676947,14.243074 6.9258623,15 v 0 H 12 l 2.607047,-3.476062 v 0 L 14.247712,11 Z"
     transform="translate(4,4)"
     id="path5"
     sodipodi:nodetypes="ccccccccccccccccccccccccccccccccccccccccccccccc" />
</svg>
