<?xml version="1.0" encoding="UTF-8" standalone="no"?>
<svg
   width="24"
   height="24"
   viewBox="0 0 24 24"
   version="1.1"
   id="svg7"
   sodipodi:docname="object-order-raise-calligra.svg"
   inkscape:version="1.1.2 (0a00cf5339, 2022-02-04)"
   xmlns:inkscape="http://www.inkscape.org/namespaces/inkscape"
   xmlns:sodipodi="http://sodipodi.sourceforge.net/DTD/sodipodi-0.dtd"
   xmlns="http://www.w3.org/2000/svg"
   xmlns:svg="http://www.w3.org/2000/svg">
  <sodipodi:namedview
     id="namedview9"
     pagecolor="#000000"
     bordercolor="#666666"
     borderopacity="1.0"
     inkscape:pageshadow="2"
     inkscape:pageopacity="0"
     inkscape:pagecheckerboard="0"
     showgrid="false"
     inkscape:zoom="34.625"
     inkscape:cx="11.98556"
     inkscape:cy="12"
     inkscape:window-width="1502"
     inkscape:window-height="1039"
     inkscape:window-x="208"
     inkscape:window-y="19"
     inkscape:window-maximized="1"
     inkscape:current-layer="svg7" />
  <defs
     id="defs3">
    <style
       id="current-color-scheme"
       type="text/css">
   .ColorScheme-Text { color:#eeeeec; } .ColorScheme-Highlight { color:#367bf0; } .ColorScheme-NeutralText { color:#ffcc44; } .ColorScheme-PositiveText { color:#3db47e; } .ColorScheme-NegativeText { color:#dd4747; }
  </style>
  </defs>
  <path
     style="fill:currentColor"
     class="ColorScheme-Text"
     d="M 4,1 1.4471964,4.4037382 1.7790994,5 V 5 H 7 L 9.4971946,1.6704073 v 0 L 9.1524883,1 Z M 4,6 1.4454819,9.4060241 1.6454796,10 v 0 H 5 L 7.6778287,6.4295617 v 0 L 7.4592629,6 Z m 7.614702,0.385298 v 0 L 9,9 9.4414119,9.9458825 9.9703422,10.077549 v 0 L 10.70182,9.3120484 11,9.453786 v 0 V 15 h 2 V 9.4391905 l 0.366318,-0.055834 v 0 l 0.655173,0.6856454 0.487573,-0.017 v 0 L 15,9 12.401265,6.4012649 Z M 4,11 1.5546514,14.260465 1.7591434,15 v 0 H 5 L 7.5804774,11.559363 7.3111215,11 v 0 z"
     transform="translate(4,4)"
     id="path5"
     sodipodi:nodetypes="ccccccccccccccccccccccccccccccccccccccccccccccc" />
</svg>
