<?xml version="1.0" encoding="UTF-8" standalone="no"?>
<svg
   width="24"
   height="24"
   viewBox="0 0 24 24"
   version="1.1"
   id="svg7"
   sodipodi:docname="object-order-back-calligra.svg"
   inkscape:version="1.1.2 (0a00cf5339, 2022-02-04)"
   xmlns:inkscape="http://www.inkscape.org/namespaces/inkscape"
   xmlns:sodipodi="http://sodipodi.sourceforge.net/DTD/sodipodi-0.dtd"
   xmlns="http://www.w3.org/2000/svg"
   xmlns:svg="http://www.w3.org/2000/svg">
  <sodipodi:namedview
     id="namedview9"
     pagecolor="#000000"
     bordercolor="#666666"
     borderopacity="1.0"
     inkscape:pageshadow="2"
     inkscape:pageopacity="0"
     inkscape:pagecheckerboard="0"
     showgrid="false"
     inkscape:zoom="34.625"
     inkscape:cx="11.98556"
     inkscape:cy="12"
     inkscape:window-width="1502"
     inkscape:window-height="1039"
     inkscape:window-x="208"
     inkscape:window-y="19"
     inkscape:window-maximized="1"
     inkscape:current-layer="svg7" />
  <defs
     id="defs3">
    <style
       id="current-color-scheme"
       type="text/css">
   .ColorScheme-Text { color:#eeeeec; } .ColorScheme-Highlight { color:#367bf0; } .ColorScheme-NeutralText { color:#ffcc44; } .ColorScheme-PositiveText { color:#3db47e; } .ColorScheme-NegativeText { color:#dd4747; }
  </style>
  </defs>
  <path
     style="fill:currentColor"
     class="ColorScheme-Text"
     d="M 11,1 8.5388998,4.2814669 8.9809183,5 V 5 H 12 l 2.487234,-3.316312 v 0 L 14.121707,1 Z M 3,3 v 7.497176 0 L 2.6386764,10.621898 1.8893335,9.8377591 1.5152187,9.895915 v 0 L 1,11 l 2.5645113,2.564511 0.8753622,-0.0044 v 0 L 7,11 6.5047678,9.9387449 6.0614709,9.8892392 v 0 L 5.3189896,10.666198 v 0 L 5,10.635569 V 3 Z M 11,6 8.4718269,9.3708975 8.7582779,10 v 0 H 12 L 14.538639,6.6151478 14.244296,6 V 6 Z M 9,11 6.6089545,14.188061 7.011583,15 v 0 H 12 l 2.402491,-3.203321 v 0 L 14.003046,11 Z"
     transform="translate(4,4)"
     id="path5"
     sodipodi:nodetypes="ccccccccccccccccccccccccccccccccccccccccccccccc" />
</svg>
