<?xml version="1.0" encoding="UTF-8" standalone="no"?>
<svg
   width="24"
   height="24"
   viewBox="0 0 24 24"
   version="1.1"
   id="svg7"
   sodipodi:docname="object-order-raise.svg"
   inkscape:version="1.1.2 (0a00cf5339, 2022-02-04)"
   xmlns:inkscape="http://www.inkscape.org/namespaces/inkscape"
   xmlns:sodipodi="http://sodipodi.sourceforge.net/DTD/sodipodi-0.dtd"
   xmlns="http://www.w3.org/2000/svg"
   xmlns:svg="http://www.w3.org/2000/svg">
  <sodipodi:namedview
     id="namedview9"
     pagecolor="#000000"
     bordercolor="#666666"
     borderopacity="1.0"
     inkscape:pageshadow="2"
     inkscape:pageopacity="0"
     inkscape:pagecheckerboard="0"
     showgrid="false"
     inkscape:zoom="34.625"
     inkscape:cx="11.98556"
     inkscape:cy="12"
     inkscape:window-width="1502"
     inkscape:window-height="1039"
     inkscape:window-x="208"
     inkscape:window-y="19"
     inkscape:window-maximized="1"
     inkscape:current-layer="svg7" />
  <defs
     id="defs3">
    <style
       id="current-color-scheme"
       type="text/css">
   .ColorScheme-Text { color:#eeeeec; } .ColorScheme-Highlight { color:#367bf0; } .ColorScheme-NeutralText { color:#ffcc44; } .ColorScheme-PositiveText { color:#3db47e; } .ColorScheme-NegativeText { color:#dd4747; }
  </style>
  </defs>
  <path
     style="fill:currentColor"
     class="ColorScheme-Text"
     d="M 4,1 1.4184935,4.4420087 1.8484107,5 V 5 H 7 L 9.5644185,1.5807753 v 0 L 9.2334002,1 Z M 4,6 1.4664572,9.378057 1.795983,10 v 0 H 5 L 7.5367428,6.6176763 v 0 L 7.1930139,6 Z m 7.576654,0.423346 v 0 L 9,9 9.4385757,9.9398051 10.057723,9.9861038 v 0 L 10.694966,9.3192214 11,9.3801631 v 0 L 11,15 h 2 V 9.3956876 l 0.368162,-0.010401 v 0 l 0.639098,0.6688227 0.538966,-0.081735 v 0 L 15,9 12.430475,6.4304746 Z M 4,11 1.5126539,14.316462 1.820041,15 v 0 H 5 l 2.460425,-3.280567 v 0 L 7.0430093,11 Z"
     transform="translate(4,4)"
     id="path5"
     sodipodi:nodetypes="ccccccccccccccccccccccccccccccccccccccccccccccc" />
</svg>
