<?xml version="1.0" encoding="UTF-8" standalone="no"?>
<svg
   width="24"
   height="24"
   viewBox="0 0 24 24"
   version="1.1"
   id="svg7"
   sodipodi:docname="object-order-back.svg"
   inkscape:version="1.1.2 (0a00cf5339, 2022-02-04)"
   xmlns:inkscape="http://www.inkscape.org/namespaces/inkscape"
   xmlns:sodipodi="http://sodipodi.sourceforge.net/DTD/sodipodi-0.dtd"
   xmlns="http://www.w3.org/2000/svg"
   xmlns:svg="http://www.w3.org/2000/svg">
  <sodipodi:namedview
     id="namedview9"
     pagecolor="#000000"
     bordercolor="#666666"
     borderopacity="1.0"
     inkscape:pageshadow="2"
     inkscape:pageopacity="0"
     inkscape:pagecheckerboard="0"
     showgrid="false"
     inkscape:zoom="34.625"
     inkscape:cx="11.98556"
     inkscape:cy="12"
     inkscape:window-width="1502"
     inkscape:window-height="1039"
     inkscape:window-x="208"
     inkscape:window-y="19"
     inkscape:window-maximized="1"
     inkscape:current-layer="svg7" />
  <defs
     id="defs3">
    <style
       id="current-color-scheme"
       type="text/css">
   .ColorScheme-Text { color:#eeeeec; } .ColorScheme-Highlight { color:#367bf0; } .ColorScheme-NeutralText { color:#ffcc44; } .ColorScheme-PositiveText { color:#3db47e; } .ColorScheme-NegativeText { color:#dd4747; }
  </style>
  </defs>
  <path
     style="fill:currentColor"
     class="ColorScheme-Text"
     d="M 11,1 8.582608,4.2231893 8.9948863,5 V 5 H 12 l 2.427885,-3.2371796 v 0 L 13.972328,1 Z M 3,3 v 7.52638 0 L 2.6116067,10.593571 1.9498271,9.9010618 1.4692795,9.9943602 v 0 L 1,11 l 2.5247278,2.524728 1.0402815,-0.08974 v 0 L 7,11 6.5054543,9.9402161 v 0 L 6.0579915,9.8928802 5.3962378,10.585363 v 0 L 5,10.472734 V 3 Z M 11,6 8.4612752,9.3849664 8.8540956,10 v 0 H 12 L 14.539542,6.6139446 14.203629,6 V 6 Z M 9,11 6.5874419,14.216744 6.8811238,15 v 0 H 12 L 14.393108,11.809189 14.053394,11 v 0 z"
     transform="translate(4,4)"
     id="path5"
     sodipodi:nodetypes="ccccccccccccccccccccccccccccccccccccccccccccccc" />
</svg>
