<?xml version="1.0" encoding="UTF-8" standalone="no"?>
<svg
   width="24"
   height="24"
   viewBox="0 0 24 24"
   version="1.1"
   id="svg7"
   sodipodi:docname="object-order-lower.svg"
   inkscape:version="1.1.2 (0a00cf5339, 2022-02-04)"
   xmlns:inkscape="http://www.inkscape.org/namespaces/inkscape"
   xmlns:sodipodi="http://sodipodi.sourceforge.net/DTD/sodipodi-0.dtd"
   xmlns="http://www.w3.org/2000/svg"
   xmlns:svg="http://www.w3.org/2000/svg">
  <sodipodi:namedview
     id="namedview9"
     pagecolor="#000000"
     bordercolor="#666666"
     borderopacity="1.0"
     inkscape:pageshadow="2"
     inkscape:pageopacity="0"
     inkscape:pagecheckerboard="0"
     showgrid="false"
     inkscape:zoom="34.625"
     inkscape:cx="11.98556"
     inkscape:cy="12"
     inkscape:window-width="1502"
     inkscape:window-height="1039"
     inkscape:window-x="208"
     inkscape:window-y="19"
     inkscape:window-maximized="1"
     inkscape:current-layer="svg7" />
  <defs
     id="defs3">
    <style
       id="current-color-scheme"
       type="text/css">
   .ColorScheme-Text { color:#eeeeec; } .ColorScheme-Highlight { color:#367bf0; } .ColorScheme-NeutralText { color:#ffcc44; } .ColorScheme-PositiveText { color:#3db47e; } .ColorScheme-NegativeText { color:#dd4747; }
  </style>
  </defs>
  <path
     style="fill:currentColor"
     class="ColorScheme-Text"
     d="m 3,1 v 5.6444228 0 L 2.6870112,6.6724774 1.919256,5.8690712 1.467856,5.9974106 v 0 L 1,7 3.443778,9.443778 4.623878,9.376122 v 0 L 7,7 6.5578529,6.0525034 v 0 L 6.0387937,5.9129694 5.353116,6.6304869 v 0 L 5,6.6028035 V 1 Z M 11,1 8.449575,4.4005666 8.7059331,5 V 5 H 12 l 2.564014,-3.4186851 v 0 L 14.237752,1 Z M 11,6 8.5267781,9.2976292 8.8878557,10 v 0 H 12 L 14.528521,6.6286389 14.231548,6 V 6 Z M 9,11 6.5890112,14.214652 6.8812877,15 v 0 H 12 l 2.457362,-3.276483 v 0 L 14.140703,11 Z"
     transform="translate(4,4)"
     id="path5"
     sodipodi:nodetypes="ccccccccccccccccccccccccccccccccccccccccccccccc" />
</svg>
