<?xml version="1.0" encoding="UTF-8" standalone="no"?>
<svg
   width="24"
   height="24"
   version="1.1"
   id="svg7"
   sodipodi:docname="office-chart-polar-stacked.svg"
   inkscape:version="1.1.2 (0a00cf5339, 2022-02-04)"
   xmlns:inkscape="http://www.inkscape.org/namespaces/inkscape"
   xmlns:sodipodi="http://sodipodi.sourceforge.net/DTD/sodipodi-0.dtd"
   xmlns="http://www.w3.org/2000/svg"
   xmlns:svg="http://www.w3.org/2000/svg">
  <sodipodi:namedview
     id="namedview9"
     pagecolor="#000000"
     bordercolor="#666666"
     borderopacity="1.0"
     inkscape:pageshadow="2"
     inkscape:pageopacity="0"
     inkscape:pagecheckerboard="0"
     showgrid="false"
     inkscape:zoom="34.625"
     inkscape:cx="11.98556"
     inkscape:cy="12"
     inkscape:window-width="1502"
     inkscape:window-height="1039"
     inkscape:window-x="208"
     inkscape:window-y="19"
     inkscape:window-maximized="1"
     inkscape:current-layer="svg7" />
  <defs
     id="defs3">
    <style
       id="current-color-scheme"
       type="text/css">
   .ColorScheme-Text { color:#eeeeec; } .ColorScheme-Highlight { color:#367bf0; } .ColorScheme-NeutralText { color:#ffcc44; } .ColorScheme-PositiveText { color:#3db47e; } .ColorScheme-NegativeText { color:#dd4747; }
  </style>
  </defs>
  <path
     style="fill:currentColor"
     class="ColorScheme-Text"
     d="m 12,5 c -3.8659932,0 -7,3.1340068 -7,7 0,3.865993 3.1340068,7 7,7 3.865993,0 7,-3.134007 7,-7 0,-3.8659932 -3.134007,-7 -7,-7 z m 0.494939,2.0251276 c 0.16581,1.941e-4 -0.163955,-0.016497 0,0 0.722018,0.072651 1.420394,0.3016328 2.045438,0.6714866 0.110677,0.06549 6.09e-4,0.4476753 0.106411,0.5219136 v 0 l -1.500304,2.1447532 c 0.4854,0.3409 0.79455,0.879603 0.84375,1.470703 L 16.546198,11.603433 17,12 v 0 c 0,0 -0.0014,0.138899 -0.0042,0.207823 -0.100602,2.459445 -1.978597,4.461294 -4.383486,4.755047 -0.200664,0.02451 0.207275,0 0,0 L 12,16.485875 V 14 c -0.5304,-10e-5 -1.039062,-0.210837 -1.414062,-0.585937 l -1.8340589,1.834058 v 0 c -0.08706,-0.08698 -0.4556663,0.108254 -0.5355626,0.01575 C 7.4354842,14.359827 7.0011793,13.202462 7,12 7.000265,10.96195 7.3234769,9.9533216 7.9195037,9.1116576 c 0.078749,-0.1112033 -0.088158,0.1050567 0,0 L 8.4238763,9.0000683 10.46875,10.714844 C 10.84835,10.262044 11.4091,10.0004 12,10 V 7.332598 Z"
     id="path5"
     sodipodi:nodetypes="ssssscssccccccsssccccccscscccccc" />
</svg>
