<?xml version="1.0" encoding="UTF-8" standalone="no"?>
<svg
   width="24"
   height="24"
   version="1.1"
   id="svg9"
   sodipodi:docname="office-report.svg"
   inkscape:version="1.1.2 (0a00cf5339, 2022-02-04)"
   xmlns:inkscape="http://www.inkscape.org/namespaces/inkscape"
   xmlns:sodipodi="http://sodipodi.sourceforge.net/DTD/sodipodi-0.dtd"
   xmlns="http://www.w3.org/2000/svg"
   xmlns:svg="http://www.w3.org/2000/svg">
  <sodipodi:namedview
     id="namedview11"
     pagecolor="#000000"
     bordercolor="#666666"
     borderopacity="1.0"
     inkscape:pageshadow="2"
     inkscape:pageopacity="0"
     inkscape:pagecheckerboard="0"
     showgrid="false"
     inkscape:zoom="34.625"
     inkscape:cx="11.98556"
     inkscape:cy="12"
     inkscape:window-width="1502"
     inkscape:window-height="1039"
     inkscape:window-x="208"
     inkscape:window-y="19"
     inkscape:window-maximized="1"
     inkscape:current-layer="g7" />
  <defs
     id="defs3">
    <style
       id="current-color-scheme"
       type="text/css">
   .ColorScheme-Text { color:#eeeeec; } .ColorScheme-Highlight { color:#367bf0; } .ColorScheme-NeutralText { color:#ffcc44; } .ColorScheme-PositiveText { color:#3db47e; } .ColorScheme-NegativeText { color:#dd4747; }
  </style>
  </defs>
  <g
     transform="translate(4,4)"
     id="g7">
    <path
       style="fill:currentColor"
       class="ColorScheme-Text"
       d="M 9,1 C 8.446,1 8,1.446 8,2 v 5 c 0,0.554 0.446,1 1,1 h 5 c 0.554,0 1,-0.446 1,-1 V 2 C 15,1.446 14.554,1 14,1 Z M 4.5,2 C 3.1192881,2 2,3.1192881 2,4.5 2,5.8807119 3.1192881,7 4.5,7 5.6878781,6.9998713 6.7116432,6.1638781 6.9492188,5 H 4.5621986 V 5 L 4.2708878,4.5485203 5.6347656,2.2753906 C 5.2835526,2.0953042 4.8946908,2.0009333 4.5,2 Z M 10,3 h 3 V 6 H 10 Z M 2,8 C 1.446,8 1,8.446 1,9 v 5 c 0,0.554 0.446,1 1,1 h 5 c 0.554,0 1,-0.446 1,-1 V 9 C 8,8.446 7.554,8 7,8 Z m 11,1 v 5 h 1 V 9 Z M 3,10 h 3 v 3 H 3 Z m 8,1 v 3 h 1 v -3 z m -2,1 v 2 h 1 v -2 z"
       id="path5"
       sodipodi:nodetypes="ssssssssscsccccccccccccssssssssscccccccccccccccccccc" />
  </g>
</svg>
