<?xml version="1.0" encoding="UTF-8" standalone="no"?>
<svg
   width="24"
   height="24"
   version="1.1"
   id="svg7"
   sodipodi:docname="office-chart-line-stacked.svg"
   inkscape:version="1.1.2 (0a00cf5339, 2022-02-04)"
   xmlns:inkscape="http://www.inkscape.org/namespaces/inkscape"
   xmlns:sodipodi="http://sodipodi.sourceforge.net/DTD/sodipodi-0.dtd"
   xmlns="http://www.w3.org/2000/svg"
   xmlns:svg="http://www.w3.org/2000/svg">
  <sodipodi:namedview
     id="namedview9"
     pagecolor="#000000"
     bordercolor="#666666"
     borderopacity="1.0"
     inkscape:pageshadow="2"
     inkscape:pageopacity="0"
     inkscape:pagecheckerboard="0"
     showgrid="false"
     inkscape:zoom="34.625"
     inkscape:cx="11.98556"
     inkscape:cy="12"
     inkscape:window-width="1502"
     inkscape:window-height="1039"
     inkscape:window-x="208"
     inkscape:window-y="19"
     inkscape:window-maximized="1"
     inkscape:current-layer="svg7" />
  <defs
     id="defs3">
    <style
       id="current-color-scheme"
       type="text/css">
   .ColorScheme-Text { color:#eeeeec; } .ColorScheme-Highlight { color:#367bf0; } .ColorScheme-NeutralText { color:#ffcc44; } .ColorScheme-PositiveText { color:#3db47e; } .ColorScheme-NegativeText { color:#dd4747; }
  </style>
  </defs>
  <path
     style="fill:currentColor"
     class="ColorScheme-Text"
     d="m 5,6 v 2.996094 0.0098 2.640625 V 19 H 18 V 17 H 7 V 16 H 7.00586 9.6074225 10.00586 v -0.0078 l 0.0078,0.0078 2,-2 h 1.591797 l 2,2 h 2.40039 v -1 h -1.986328 l -2,-2 h -1.41406 -1.00586 L 9.5996094,15 H 7.0058594 7 v -2 h 0.00781 v 0.0059 h 1.875 l 3.895173,-3.8951733 0.506717,0.05097 v 0 l 1.510492,1.5104917 0.628752,0.03867 0.0059,-0.0039 0.0039,0.0039 v 0 l 2.533085,-2.533085 c 0.003,0.005 -0.707031,-0.7070313 -0.707031,-0.7070313 l -1.849907,1.8499068 v 0 l -0.621595,-0.07109 -1.342377,-1.3411435 -0.872667,-0.00552 v 0 0 c 0,0 0.266856,-0.2671129 0,0 C 11.441239,9.0360029 8.4687878,12.0059 8.4687878,12.0059 H 7 V 11 9.005859 8.996094 6 Z"
     id="path5"
     sodipodi:nodetypes="cccccccccccccccccccccccccccccccccccccccccccccccsccccccc" />
</svg>
