<?xml version="1.0" encoding="UTF-8" standalone="no"?>
<svg
   width="24"
   height="24"
   version="1.1"
   id="svg7"
   sodipodi:docname="office-chart-area-percentage.svg"
   inkscape:version="1.1.2 (0a00cf5339, 2022-02-04)"
   xmlns:inkscape="http://www.inkscape.org/namespaces/inkscape"
   xmlns:sodipodi="http://sodipodi.sourceforge.net/DTD/sodipodi-0.dtd"
   xmlns="http://www.w3.org/2000/svg"
   xmlns:svg="http://www.w3.org/2000/svg">
  <sodipodi:namedview
     id="namedview9"
     pagecolor="#000000"
     bordercolor="#666666"
     borderopacity="1.0"
     inkscape:pageshadow="2"
     inkscape:pageopacity="0"
     inkscape:pagecheckerboard="0"
     showgrid="false"
     inkscape:zoom="34.625"
     inkscape:cx="11.98556"
     inkscape:cy="12"
     inkscape:window-width="1502"
     inkscape:window-height="1039"
     inkscape:window-x="208"
     inkscape:window-y="19"
     inkscape:window-maximized="1"
     inkscape:current-layer="svg7" />
  <defs
     id="defs3">
    <style
       id="current-color-scheme"
       type="text/css">
   .ColorScheme-Text { color:#eeeeec; } .ColorScheme-Highlight { color:#367bf0; } .ColorScheme-NeutralText { color:#ffcc44; } .ColorScheme-PositiveText { color:#3db47e; } .ColorScheme-NegativeText { color:#dd4747; }
  </style>
  </defs>
  <path
     style="fill:currentColor"
     class="ColorScheme-Text"
     transform="translate(4,4)"
     d="M 1,2 V 15 H 14 V 13 H 3 V 2 Z M 4,2 V 3 H 5 V 6 H 6 V 2 H 5 Z M 8.5,2 C 7.669,2 7,2.669 7,3.5 v 1 C 7,5.331 7.669,6 8.5,6 9.331,6 10,5.331 10,4.5 v -1 C 10,2.669 9.331,2 8.5,2 Z m 4,0 C 11.669,2 11,2.669 11,3.5 v 1 C 11,5.331 11.669,6 12.5,6 13.331,6 14,5.331 14,4.5 v -1 C 14,2.669 13.331,2 12.5,2 Z m -4,1 C 8.777,3 9,3.223 9,3.5 v 1 C 9,4.777 8.777,5 8.5,5 8.223,5 8,4.777 8,4.5 v -1 C 8,3.223 8.223,3 8.5,3 Z m 4,0 C 12.777,3 13,3.223 13,3.5 v 1 C 13,4.777 12.777,5 12.5,5 12.223,5 12,4.777 12,4.5 v -1 C 12,3.223 12.223,3 12.5,3 Z m -3.9101562,4 3.1687352,3.168735 0.722933,0.01428 v 0 0 0 L 14.004,8.6621094 V 7.2460938 l -1.566328,1.5662493 v 0 L 11.839089,8.8351831 10.003906,7 Z m -2.9902344,2 -2,2 H 3.0078125 v 1 h 0.9980469 v -0.0078 l 0.00781,0.0078 2,-2 h 1.5917969 l 2,2 H 14.007812 V 11 H 10.019531 L 8.0195312,9 Z"
     id="path5"
     sodipodi:nodetypes="cccccccccccccccsssssssssssssssssssssssssssscccccccccccccccccccccccccccc" />
</svg>
