<?xml version="1.0" encoding="UTF-8" standalone="no"?>
<svg
   width="24"
   height="24"
   version="1.1"
   id="svg9"
   sodipodi:docname="office-chart-area-stacked.svg"
   inkscape:version="1.1.2 (0a00cf5339, 2022-02-04)"
   xmlns:inkscape="http://www.inkscape.org/namespaces/inkscape"
   xmlns:sodipodi="http://sodipodi.sourceforge.net/DTD/sodipodi-0.dtd"
   xmlns="http://www.w3.org/2000/svg"
   xmlns:svg="http://www.w3.org/2000/svg">
  <sodipodi:namedview
     id="namedview11"
     pagecolor="#000000"
     bordercolor="#666666"
     borderopacity="1.0"
     inkscape:pageshadow="2"
     inkscape:pageopacity="0"
     inkscape:pagecheckerboard="0"
     showgrid="false"
     inkscape:zoom="34.625"
     inkscape:cx="12.01444"
     inkscape:cy="16.620939"
     inkscape:window-width="1502"
     inkscape:window-height="1039"
     inkscape:window-x="208"
     inkscape:window-y="19"
     inkscape:window-maximized="1"
     inkscape:current-layer="svg9" />
  <defs
     id="defs3">
    <style
       id="current-color-scheme"
       type="text/css">
   .ColorScheme-Text { color:#eeeeec; } .ColorScheme-Highlight { color:#367bf0; } .ColorScheme-NeutralText { color:#ffcc44; } .ColorScheme-PositiveText { color:#3db47e; } .ColorScheme-NegativeText { color:#dd4747; }
  </style>
  </defs>
  <path
     style="fill:currentColor"
     class="ColorScheme-Text"
     d="M 5,6 V 8.996094 9.005894 19 H 18 V 17 H 7 V 10 9.005859 8.996094 7 6 Z m 8.007,1.878 C 13.0101,8.2852969 12.85311,7.6226652 12.605083,7.87096 11.498143,8.9790685 8.46875,12.005859 8.46875,12.005859 H 7.0078125 v 1 h 1.875 L 12.695885,9.1927865 v 0 l 0.639246,0.019297 1.426327,1.4263265 0.367448,0.367449 0.0059,-0.0039 0.412918,-0.405118 v 0 l 2.419107,-2.4191072 c 0.003,0.005 -0.707031,-0.7070309 -0.707031,-0.7070309 l -1.858469,1.8584695 v 0 l -0.53489,-0.00158 -1.469117,-1.4677675 z M 11.599609,13 9.5996094,15 h -2.59375 v 1 h 2.9999996 v -0.0078 l 0.0078,0.0078 2,-2 h 1.591797 l 2.000001,2 h 2.40039 v -1 h -1.986328 l -2,-2 h -1.41406 z"
     id="path5"
     sodipodi:nodetypes="ccccccccccccccsccccccccccccccccccccccccccccccccccc" />
  <path
     style="opacity:0.5;fill:currentColor"
     class="ColorScheme-Text"
     d="m 17.46,7.67 -2.32,2.331 -0.004,-0.004 0.004,0.004 0.407724,0.595841 -0.751021,-0.08068 L 13.007,7.878 8.884,12.001 H 7.009 v 5 h 11 V 8.223 Z"
     id="path7"
     sodipodi:nodetypes="ccccccccccccc" />
</svg>
