<?xml version="1.0" encoding="UTF-8" standalone="no"?>
<svg
   width="24"
   height="24"
   version="1.1"
   id="svg7"
   sodipodi:docname="osd-rotate-ccw.svg"
   inkscape:version="1.1.2 (0a00cf5339, 2022-02-04)"
   xmlns:inkscape="http://www.inkscape.org/namespaces/inkscape"
   xmlns:sodipodi="http://sodipodi.sourceforge.net/DTD/sodipodi-0.dtd"
   xmlns="http://www.w3.org/2000/svg"
   xmlns:svg="http://www.w3.org/2000/svg">
  <sodipodi:namedview
     id="namedview9"
     pagecolor="#000000"
     bordercolor="#666666"
     borderopacity="1.0"
     inkscape:pageshadow="2"
     inkscape:pageopacity="0"
     inkscape:pagecheckerboard="0"
     showgrid="false"
     inkscape:zoom="138.5"
     inkscape:cx="11.99278"
     inkscape:cy="13.729242"
     inkscape:window-width="1502"
     inkscape:window-height="1039"
     inkscape:window-x="208"
     inkscape:window-y="19"
     inkscape:window-maximized="1"
     inkscape:current-layer="svg7" />
  <defs
     id="defs3">
    <style
       id="current-color-scheme"
       type="text/css">
   .ColorScheme-Text { color:#eeeeec; } .ColorScheme-Highlight { color:#367bf0; } .ColorScheme-NeutralText { color:#ffcc44; } .ColorScheme-PositiveText { color:#3db47e; } .ColorScheme-NegativeText { color:#dd4747; }
  </style>
  </defs>
  <path
     style="fill:currentColor"
     class="ColorScheme-Text"
     d="M 6.4003906,7 C 5.6247906,7 5,7.6363058 5,8.427734 v 7.144532 C 5,16.363694 5.6247906,17 6.4003906,17 H 11.423828 C 11.146311,16.36964 11.002019,15.688742 11,15 c 0,-2.761424 2.238576,-5 5,-5 1.082074,5.63e-4 2.134764,0.352145 3,1.001953 V 8.427734 C 19,7.6363058 18.375209,7 17.599609,7 Z M 16,11 c -2.209139,0 -4,1.790861 -4,4 0,2.209139 1.790861,4 4,4 2.209139,0 4,-1.790861 4,-4 0,-2.209139 -1.790861,-4 -4,-4 z m 0,1 c 1.656854,0 3,1.343146 3,3 0,1.656854 -1.343146,3 -3,3 v -1 c 1.10457,0 2,-0.89543 2,-2 0,-1.104569 -0.89543,-2 -2,-2 -0.785337,0.0037 -1.495834,0.466655 -1.816406,1.183594 l 0.456449,0.456449 -0.0654,0.215313 L 14.51366,15 H 14 13.295467 L 13.136305,14.960658 13,14.743494 13,13.298386 v 0 l 0.200284,-0.0981 0.241122,0.241122 C 13.984734,12.547816 14.954196,12.00166 16,12 Z"
     id="path5"
     sodipodi:nodetypes="ssssccccsssssssscsccscccccccccccccc" />
</svg>
