<?xml version="1.0" encoding="UTF-8" standalone="no"?>
<svg
   width="24"
   height="24"
   version="1.1"
   id="svg9"
   sodipodi:docname="osd-rotate-flip.svg"
   inkscape:version="1.1.2 (0a00cf5339, 2022-02-04)"
   xmlns:inkscape="http://www.inkscape.org/namespaces/inkscape"
   xmlns:sodipodi="http://sodipodi.sourceforge.net/DTD/sodipodi-0.dtd"
   xmlns="http://www.w3.org/2000/svg"
   xmlns:svg="http://www.w3.org/2000/svg">
  <sodipodi:namedview
     id="namedview11"
     pagecolor="#000000"
     bordercolor="#666666"
     borderopacity="1.0"
     inkscape:pageshadow="2"
     inkscape:pageopacity="0"
     inkscape:pagecheckerboard="0"
     showgrid="false"
     inkscape:zoom="34.625"
     inkscape:cx="11.98556"
     inkscape:cy="12"
     inkscape:window-width="1502"
     inkscape:window-height="1039"
     inkscape:window-x="208"
     inkscape:window-y="19"
     inkscape:window-maximized="1"
     inkscape:current-layer="svg9" />
  <defs
     id="defs3">
    <style
       id="current-color-scheme"
       type="text/css">
   .ColorScheme-Text { color:#eeeeec; } .ColorScheme-Highlight { color:#367bf0; } .ColorScheme-NeutralText { color:#ffcc44; } .ColorScheme-PositiveText { color:#3db47e; } .ColorScheme-NegativeText { color:#dd4747; }
  </style>
  </defs>
  <path
     style="fill:currentColor"
     class="ColorScheme-Text"
     d="M 16.5,12 C 14.567003,12 13,13.567003 13,15.5 13,17.432997 14.567003,19 16.5,19 18.432997,19 20,17.432997 20,15.5 20,13.567003 18.432997,12 16.5,12 Z m 0.334822,1.44643 v 0 L 17.25,14 17.582483,14.44331 17.489191,15 v 0 H 17 v 1 h 0.48319 l 0.213593,0.40429 v 0 L 17.25,17 16.776796,17.630938 v 0 l -0.551449,0.0029 L 15.75,17 15.353939,16.471918 v 0 L 15.505154,16 H 16 v -1 h -0.437236 v 0 L 15.395016,14.473312 15.75,14 16.178259,13.428988 Z"
     id="path5"
     sodipodi:nodetypes="sssssccccccccccccccccccccccccccc" />
  <path
     style="fill:currentColor"
     class="ColorScheme-Text"
     d="M 6.4003906,7 C 5.6247906,7 5,7.6363058 5,8.4277344 V 15.572266 C 5,16.363694 5.6247906,17 6.4003906,17 H 12.267578 A 4.5,4.5 0 0 1 12,15.5 4.5,4.5 0 0 1 16.5,11 4.5,4.5 0 0 1 19,11.757813 V 8.4277344 C 19,7.6363058 18.375209,7 17.599609,7 Z"
     id="path7" />
</svg>
