<?xml version="1.0" encoding="UTF-8" standalone="no"?>
<svg
   width="24"
   height="24"
   version="1.1"
   id="svg9"
   sodipodi:docname="osd-shutd-laptop.svg"
   inkscape:version="1.1.2 (0a00cf5339, 2022-02-04)"
   xmlns:inkscape="http://www.inkscape.org/namespaces/inkscape"
   xmlns:sodipodi="http://sodipodi.sourceforge.net/DTD/sodipodi-0.dtd"
   xmlns="http://www.w3.org/2000/svg"
   xmlns:svg="http://www.w3.org/2000/svg">
  <sodipodi:namedview
     id="namedview11"
     pagecolor="#000000"
     bordercolor="#666666"
     borderopacity="1.0"
     inkscape:pageshadow="2"
     inkscape:pageopacity="0"
     inkscape:pagecheckerboard="0"
     showgrid="false"
     inkscape:zoom="69.25"
     inkscape:cx="12"
     inkscape:cy="11.99278"
     inkscape:window-width="1502"
     inkscape:window-height="1039"
     inkscape:window-x="208"
     inkscape:window-y="19"
     inkscape:window-maximized="1"
     inkscape:current-layer="svg9" />
  <defs
     id="defs3">
    <style
       id="current-color-scheme"
       type="text/css">
   .ColorScheme-Text { color:#eeeeec; } .ColorScheme-Highlight { color:#367bf0; } .ColorScheme-NeutralText { color:#ffcc44; } .ColorScheme-PositiveText { color:#3db47e; } .ColorScheme-NegativeText { color:#dd4747; }
  </style>
  </defs>
  <path
     style="opacity:0.35;fill:currentColor"
     class="ColorScheme-Text"
     d="m 6,11 c -0.554,0 -1,0.446 -1,1 v 5 c 0,0.554 0.446,1 1,1 h 8 c 0.554,0 1,-0.446 1,-1 v -5 c 0,-0.554 -0.446,-1 -1,-1 z m 4,2 h 0.666016 l 1.156928,1.156928 0.356251,-0.0021 v 0 L 13.333984,13 H 14 v 0.666016 l -1.158634,1.158634 v 0 l 0.02394,0.374636 L 14,16.333984 V 17 h -0.666016 l -1.167348,-1.167348 -0.356135,0.02286 v 0 L 10.666016,17 H 10 v -0.666016 l 1.167015,-1.167015 0.01746,-0.316481 v 0 L 10,13.666016 Z"
     id="path5"
     sodipodi:nodetypes="sssssssssccccccccccccccccccccccccc" />
  <path
     style="fill:currentColor"
     class="ColorScheme-Text"
     d="M 10,6 C 9.446,6 9,6.446 9,7 v 3 h 5 c 1.090702,0 2,0.909298 2,2 v 1 h 2 c 0.554,0 1,-0.446 1,-1 V 7 C 19,6.446 18.554,6 18,6 Z"
     id="path7" />
</svg>
