<?xml version="1.0" encoding="UTF-8" standalone="no"?>
<svg
   width="24"
   height="24"
   viewBox="0 0 24 24"
   version="1.1"
   id="svg7"
   sodipodi:docname="outbox.svg"
   inkscape:version="1.1.2 (0a00cf5339, 2022-02-04)"
   xmlns:inkscape="http://www.inkscape.org/namespaces/inkscape"
   xmlns:sodipodi="http://sodipodi.sourceforge.net/DTD/sodipodi-0.dtd"
   xmlns="http://www.w3.org/2000/svg"
   xmlns:svg="http://www.w3.org/2000/svg">
  <sodipodi:namedview
     id="namedview9"
     pagecolor="#000000"
     bordercolor="#666666"
     borderopacity="1.0"
     inkscape:pageshadow="2"
     inkscape:pageopacity="0"
     inkscape:pagecheckerboard="0"
     showgrid="false"
     inkscape:zoom="34.625"
     inkscape:cx="11.98556"
     inkscape:cy="12"
     inkscape:window-width="1502"
     inkscape:window-height="1039"
     inkscape:window-x="208"
     inkscape:window-y="19"
     inkscape:window-maximized="1"
     inkscape:current-layer="svg7" />
  <defs
     id="defs3">
    <style
       id="current-color-scheme"
       type="text/css">
   .ColorScheme-Text { color:#eeeeec; } .ColorScheme-Highlight { color:#367bf0; } .ColorScheme-NeutralText { color:#ffcc44; } .ColorScheme-PositiveText { color:#3db47e; } .ColorScheme-NegativeText { color:#dd4747; }
  </style>
  </defs>
  <path
     style="fill:currentColor"
     class="ColorScheme-Text"
     d="M 1.9980469,0.99414062 2,1 C 0.9688,1.0625 1,2 1,2 v 12 c 0,0 -0.0312,0.9375 1,1 h 12 c 1,0 1,-1 1,-1 V 2 C 15,2 15,1 14,1 H 9.1057772 V 1 L 8.78125,1.375 10.09375,3 H 13 v 7 H 10 C 10,11.108 9.108,12 8,12 6.892,12 6,11.108 6,10 H 3 V 3 H 5.90625 L 7.21875,1.375 7.0043593,0.99414062 v 0 z M 7.5267467,2.5915667 v 0 L 4.7209942,6.0987573 5.0050961,7 V 7 H 6 v 2 h 4 V 7 h 0.996337 V 7 L 11.279363,6.099204 8.4591956,2.5739945 Z"
     transform="translate(4,4)"
     id="path5"
     sodipodi:nodetypes="cccccsccscccccccscccccccccccccccccccccc" />
</svg>
