<?xml version="1.0" encoding="UTF-8" standalone="no"?>
<svg
   width="24"
   height="24"
   version="1.1"
   id="svg11"
   sodipodi:docname="path-effect-parameter-next.svg"
   inkscape:version="1.1.2 (0a00cf5339, 2022-02-04)"
   xmlns:inkscape="http://www.inkscape.org/namespaces/inkscape"
   xmlns:sodipodi="http://sodipodi.sourceforge.net/DTD/sodipodi-0.dtd"
   xmlns="http://www.w3.org/2000/svg"
   xmlns:svg="http://www.w3.org/2000/svg">
  <sodipodi:namedview
     id="namedview13"
     pagecolor="#000000"
     bordercolor="#666666"
     borderopacity="1.0"
     inkscape:pageshadow="2"
     inkscape:pageopacity="0"
     inkscape:pagecheckerboard="0"
     showgrid="false"
     inkscape:zoom="34.625"
     inkscape:cx="11.98556"
     inkscape:cy="12"
     inkscape:window-width="1502"
     inkscape:window-height="1039"
     inkscape:window-x="208"
     inkscape:window-y="19"
     inkscape:window-maximized="1"
     inkscape:current-layer="g9" />
  <defs
     id="defs3">
    <style
       id="current-color-scheme"
       type="text/css">
   .ColorScheme-Text { color:#eeeeec; } .ColorScheme-Highlight { color:#367bf0; } .ColorScheme-NeutralText { color:#ffcc44; } .ColorScheme-PositiveText { color:#3db47e; } .ColorScheme-NegativeText { color:#dd4747; }
  </style>
  </defs>
  <g
     transform="translate(4,4)"
     id="g9">
    <path
       style="fill:currentColor"
       class="ColorScheme-Text"
       d="M 13,1.5 C 9.4048,1.5 6.5065,2.5365 4.5215,4.5215 2.5365,6.5065 1.5,9.4048 1.5,13 H 2.5 C 2.5,9.5952 3.4635,6.9935 5.2285,5.2285 6.9935,3.4635 9.5952,2.5 13,2.5 Z"
       id="path5" />
    <path
       style="fill:currentColor"
       class="ColorScheme-Text"
       d="m 0.19175991,5.3593158 c -0.0379918,0.086591 0.0307658,-0.089077 0,0 C 0.06523203,5.7256568 2.1376188e-4,6.1111145 0,6.5 0,8.4329966 1.5670034,10 3.5,10 4.9416772,9.9983777 6.2145275,9.1165243 6.7411625,7.8118467 c 0.0657,-0.1627642 -0.041351,0.1750375 0,0 C 6.5777463,7.9150569 6.5695809,7.500116 6.3955245,7.5809895 5.8037819,7.8559362 5.1570977,7.9999023 4.5,8 2.8149897,7.9990633 1.2886165,7.0591952 0.51895294,5.5934634 0.43501716,5.4336178 0.25692086,5.5311339 0.19175991,5.3593158 Z M 5.7035243,0.76332719 c -0.1064043,0.0798031 0.091067,-0.0940895 0,0 C 5.2562872,1.2254099 5.0005096,1.8467983 5,2.5 5,3.8807119 6.1192881,5 7.5,5 8.1330938,4.9990118 8.7361435,4.7582506 9.1930835,4.3358625 9.3030986,4.2341663 9.0236759,4.1010186 9.1151319,3.979077 c -0.1287367,-1.435e-4 0.1251238,0.013687 0,0 C 7.4767885,3.7998634 6.1785642,2.4900863 6.0169568,0.84668775 6.0058043,0.7332767 5.703589,0.87965399 5.7035243,0.76332719 Z M 4,14 c 0,1.104569 -0.8954305,2 -2,2 -1.1045695,0 -2,-0.895431 -2,-2 0,-1.104569 0.8954305,-2 2,-2 1.1045695,0 2,0.895431 2,2 z M 16,2 c 0,1.1045695 -0.895431,2 -2,2 -1.104569,0 -2,-0.8954305 -2,-2 0,-1.1045695 0.895431,-2 2,-2 1.104569,0 2,0.8954305 2,2 z m -1,5 h 1 v 9 h -1 v -3.582779 0 L 13.836544,12.21383 15,11.745003 V 11.290906 L 14.259018,10.813774 15,10.568141 Z M 9,7.9340115 9.925776,7.5951417 16,11.5 14.734105,12.31379 v 0 l -4.653347,2.991437 v 0 L 9,14.929938 Z"
       id="path7"
       sodipodi:nodetypes="csccscscsccsccscsscssssssssssccccccccccccccccccccc" />
  </g>
</svg>
