<?xml version="1.0" encoding="UTF-8" standalone="no"?>
<svg
   width="24"
   height="24"
   version="1.1"
   id="svg11"
   sodipodi:docname="path-clip-edit.svg"
   inkscape:version="1.1.2 (0a00cf5339, 2022-02-04)"
   xmlns:inkscape="http://www.inkscape.org/namespaces/inkscape"
   xmlns:sodipodi="http://sodipodi.sourceforge.net/DTD/sodipodi-0.dtd"
   xmlns="http://www.w3.org/2000/svg"
   xmlns:svg="http://www.w3.org/2000/svg">
  <sodipodi:namedview
     id="namedview13"
     pagecolor="#000000"
     bordercolor="#666666"
     borderopacity="1.0"
     inkscape:pageshadow="2"
     inkscape:pageopacity="0"
     inkscape:pagecheckerboard="0"
     showgrid="false"
     inkscape:zoom="34.625"
     inkscape:cx="11.98556"
     inkscape:cy="12"
     inkscape:window-width="1502"
     inkscape:window-height="1039"
     inkscape:window-x="208"
     inkscape:window-y="19"
     inkscape:window-maximized="1"
     inkscape:current-layer="g9" />
  <defs
     id="defs3">
    <style
       id="current-color-scheme"
       type="text/css">
   .ColorScheme-Text { color:#eeeeec; } .ColorScheme-Highlight { color:#367bf0; } .ColorScheme-NeutralText { color:#ffcc44; } .ColorScheme-PositiveText { color:#3db47e; } .ColorScheme-NegativeText { color:#dd4747; }
  </style>
  </defs>
  <g
     transform="translate(4,4)"
     id="g9">
    <path
       style="fill:currentColor"
       class="ColorScheme-Text"
       d="M 14,2 C 8.5,2 2,7.5 2,14 v 1 H 3 V 14 C 3,11.53438 4.0132133,9.2376298 5.553879,7.3873257 6.2656809,6.5324679 7.0900689,5.7729054 7.9791387,5.1360118 9.848565,3.7968307 12.003966,3 14,3 h 1 V 2 Z M 6.373,6.3193 4.9114045,7.3905697 C 5.0381212,7.5172951 5.9145492,7.2816766 6.031534,7.4115914 7.2541119,8.7692983 7.9472232,10.275941 8.1523,11.404 8.3771,12.64 8.063,13.689 7.166,14.586 l 0.707,0.707 C 8.9763,14.19 9.412,12.741 9.1367,11.227 8.8614,9.7126 7.9222,7.8686 6.373,6.3193 Z M 8.7535192,4.1544299 6.666,5.7931 C 8.2153,7.3423 9.7906,8.2815 11.305,8.5567 12.819,8.832 14.27,8.3963 15.373,7.2931 L 14.666,6.586 C 13.769,7.483 12.72,7.7971 11.484,7.5724 10.396332,7.3745781 9.1631566,6.7231224 7.8939839,5.5808257 7.7208995,5.4250441 8.9276648,4.3285635 8.7535192,4.1544299 Z"
       id="path5"
       sodipodi:nodetypes="ssccssssccsccscccccccccccsc" />
    <path
       style="fill:currentColor"
       class="ColorScheme-Text"
       d="M 4,14.5 A 1.5,1.5 0 0 1 2.5,16 1.5,1.5 0 0 1 1,14.5 1.5,1.5 0 0 1 2.5,13 1.5,1.5 0 0 1 4,14.5 Z M 16,2.5 A 1.5,1.5 0 0 1 14.5,4 1.5,1.5 0 0 1 13,2.5 1.5,1.5 0 0 1 14.5,1 1.5,1.5 0 0 1 16,2.5 Z"
       id="path7" />
  </g>
</svg>
