<?xml version="1.0" encoding="UTF-8" standalone="no"?>
<svg
   width="24"
   height="24"
   version="1.1"
   id="svg11"
   sodipodi:docname="path-reverse.svg"
   inkscape:version="1.1.2 (0a00cf5339, 2022-02-04)"
   xmlns:inkscape="http://www.inkscape.org/namespaces/inkscape"
   xmlns:sodipodi="http://sodipodi.sourceforge.net/DTD/sodipodi-0.dtd"
   xmlns="http://www.w3.org/2000/svg"
   xmlns:svg="http://www.w3.org/2000/svg">
  <sodipodi:namedview
     id="namedview13"
     pagecolor="#000000"
     bordercolor="#666666"
     borderopacity="1.0"
     inkscape:pageshadow="2"
     inkscape:pageopacity="0"
     inkscape:pagecheckerboard="0"
     showgrid="false"
     inkscape:zoom="34.625"
     inkscape:cx="11.98556"
     inkscape:cy="12"
     inkscape:window-width="1502"
     inkscape:window-height="1039"
     inkscape:window-x="208"
     inkscape:window-y="19"
     inkscape:window-maximized="1"
     inkscape:current-layer="g9" />
  <defs
     id="defs3">
    <style
       id="current-color-scheme"
       type="text/css">
   .ColorScheme-Text { color:#eeeeec; } .ColorScheme-Highlight { color:#367bf0; } .ColorScheme-NeutralText { color:#ffcc44; } .ColorScheme-PositiveText { color:#3db47e; } .ColorScheme-NegativeText { color:#dd4747; }
  </style>
  </defs>
  <g
     transform="translate(4,4)"
     id="g9">
    <path
       style="fill:currentColor"
       class="ColorScheme-Text"
       d="M 14,1.5 V 3 C 14,8 9,8 9,8 H 6 C 6,8 0,8 0,14 V 15.5 C 0,15.5 0,16 0.5,16 1,16 1,15.5 1,15.5 V 14 C 1,9 6,9 6,9 H 9 C 9,9 15,9 15,3 V 1.5 C 15,1.5 15,1 14.5,1 14,1 14,1.5 14,1.5 Z"
       id="path5" />
    <path
       style="fill:currentColor"
       class="ColorScheme-Text"
       d="m 11.475452,11.327843 v 0 l -2.8443313,1.777707 -0.055075,0.754478 v 0 L 11.33386,15.583663 12,15.347376 v 0 V 14 h 3 V 13 H 12 V 11.720261 Z M 3,1.630647 v 0 V 3 H 0 v 1 h 3 v 1.1915173 l 0.7127694,0.3630018 v 0 L 6.4210512,3.861843 6.4244689,3.1402931 v 0 L 3.5757135,1.3598209 Z M 5,6 h 5 v 5 H 5 Z"
       id="path7"
       sodipodi:nodetypes="ccccccccccccccccccccccccccccccccc" />
  </g>
</svg>
