<?xml version="1.0" encoding="UTF-8" standalone="no"?>
<svg
   width="24"
   height="24"
   version="1.1"
   id="svg9"
   sodipodi:docname="path-mode-polyline.svg"
   inkscape:version="1.1.2 (0a00cf5339, 2022-02-04)"
   xmlns:inkscape="http://www.inkscape.org/namespaces/inkscape"
   xmlns:sodipodi="http://sodipodi.sourceforge.net/DTD/sodipodi-0.dtd"
   xmlns="http://www.w3.org/2000/svg"
   xmlns:svg="http://www.w3.org/2000/svg">
  <sodipodi:namedview
     id="namedview11"
     pagecolor="#000000"
     bordercolor="#666666"
     borderopacity="1.0"
     inkscape:pageshadow="2"
     inkscape:pageopacity="0"
     inkscape:pagecheckerboard="0"
     showgrid="false"
     inkscape:zoom="34.625"
     inkscape:cx="11.98556"
     inkscape:cy="12"
     inkscape:window-width="1502"
     inkscape:window-height="1039"
     inkscape:window-x="208"
     inkscape:window-y="19"
     inkscape:window-maximized="1"
     inkscape:current-layer="g7" />
  <defs
     id="defs3">
    <style
       id="current-color-scheme"
       type="text/css">
   .ColorScheme-Text { color:#eeeeec; } .ColorScheme-Highlight { color:#367bf0; } .ColorScheme-NeutralText { color:#ffcc44; } .ColorScheme-PositiveText { color:#3db47e; } .ColorScheme-NegativeText { color:#dd4747; }
  </style>
  </defs>
  <g
     transform="translate(4,4)"
     id="g7">
    <path
       style="fill:currentColor"
       class="ColorScheme-Text"
       d="M 6.9805,0 C 6.7531,0.00458 6.534,0.08656 6.3594,0.23242 L 0.35938,5.2324 C -0.21,5.7069 -0.08364,6.6244 0.60547,6.9199 L 4.3633,8.5312 3.0215,14.791 c -0.2002,0.939 0.8768,1.554 1.5918,0.998 l 5.9277,-4.611 4.064,1.742 c 1.24,0.533 1.985,-1.327 0.79,-1.84 L 12.697404,9.9232297 v 0 L 12.625568,9.5574233 13.613,8.7891 C 14.746,7.9828 13.448,6.3126 12.387,7.2109 L 10.248,8.875 6.6641,7.3379 7.9785,1.209 C 8.1133,0.57852 7.6252,0 6.9805,0 Z M 5.2961964,4.1740492 v 0 L 4.8561108,6.23089 v 0 L 4.4787358,6.4014195 3.343656,5.9151277 v 0 L 3.2579492,5.4198208 4.9998031,3.9682529 Z M 6.1493966,9.7477845 6.6534054,9.5118943 8.0118093,10.094041 v 0 l 0.0923,0.448579 -1.9665677,1.527973 -0.4509827,-0.168617 v 0 z"
       id="path5"
       sodipodi:nodetypes="ccccccccccccccccccccccccccccccccccccccc" />
  </g>
</svg>
