<?xml version="1.0" encoding="UTF-8" standalone="no"?>
<svg
   width="24"
   height="24"
   viewBox="0 0 24 24"
   version="1.1"
   id="svg7"
   sodipodi:docname="preferences-activities.svg"
   inkscape:version="1.1.2 (0a00cf5339, 2022-02-04)"
   xmlns:inkscape="http://www.inkscape.org/namespaces/inkscape"
   xmlns:sodipodi="http://sodipodi.sourceforge.net/DTD/sodipodi-0.dtd"
   xmlns="http://www.w3.org/2000/svg"
   xmlns:svg="http://www.w3.org/2000/svg">
  <sodipodi:namedview
     id="namedview9"
     pagecolor="#000000"
     bordercolor="#666666"
     borderopacity="1.0"
     inkscape:pageshadow="2"
     inkscape:pageopacity="0"
     inkscape:pagecheckerboard="0"
     showgrid="false"
     inkscape:zoom="34.625"
     inkscape:cx="11.98556"
     inkscape:cy="12"
     inkscape:window-width="1502"
     inkscape:window-height="1039"
     inkscape:window-x="208"
     inkscape:window-y="19"
     inkscape:window-maximized="1"
     inkscape:current-layer="svg7" />
  <defs
     id="defs3">
    <style
       id="current-color-scheme"
       type="text/css">
   .ColorScheme-Text { color:#eeeeec; } .ColorScheme-Highlight { color:#367bf0; } .ColorScheme-NeutralText { color:#ffcc44; } .ColorScheme-PositiveText { color:#3db47e; } .ColorScheme-NegativeText { color:#dd4747; }
  </style>
  </defs>
  <path
     style="fill:currentColor"
     class="ColorScheme-Text"
     d="M 8,4 C 5.790861,4 4,5.790861 4,8 c 0,2.209139 1.790861,4 4,4 2.209139,0 4,-1.790861 4,-4 C 12,5.790861 10.209139,4 8,4 Z M 3.5087507,5.0400214 c -0.1673024,0 0.159844,-0.026328 0,0 C 2.0855597,5.2744334 1,6.5104024 1,8 c 0,1.5212569 1.1321941,2.77799 2.5999447,2.97356 0.1308722,0.01744 0.077011,-0.28059 0.2126542,-0.28059 v 0 c -0.075067,-0.09906 0.068015,0.104273 0,0 C 3.3045446,9.9140833 3,8.9942025 3,8 3,7.0311675 3.2893169,6.1343352 3.7743192,5.3689474 c 0.07983,-0.1259809 -0.090016,0.1185936 0,0 z M 12,5 c 0.494496,0.040558 0.01041,-7e-4 0,0 0.09584,0.1262643 0.154938,0.2588111 0.239273,0.3934164 C 12.715461,6.1534484 13,7.0413768 13,8 c 0,0.9552834 -0.282384,1.8419623 -0.755518,2.600725 -0.08525,0.136709 -0.176684,0.269265 -0.273779,0.397322 l 0.273779,-0.397322 c 0.187484,0 0.126469,0.382078 0.304426,0.349176 C 13.943657,10.692029 15,9.4694156 15,8 15,6.5115353 13.916091,5.2763136 12.494496,5.040558 12.333628,5.0138798 12.168435,5 12,5 Z"
     transform="translate(4,4)"
     id="path5"
     sodipodi:nodetypes="ssssscsssccsssccccsssccsssc" />
</svg>
