<?xml version="1.0" encoding="UTF-8" standalone="no"?>
<svg
   width="24"
   height="24"
   version="1.1"
   id="svg4"
   sodipodi:docname="process-stop-symbolic.svg"
   inkscape:version="1.1.2 (0a00cf5339, 2022-02-04)"
   xmlns:inkscape="http://www.inkscape.org/namespaces/inkscape"
   xmlns:sodipodi="http://sodipodi.sourceforge.net/DTD/sodipodi-0.dtd"
   xmlns="http://www.w3.org/2000/svg"
   xmlns:svg="http://www.w3.org/2000/svg">
  <defs
     id="defs8" />
  <sodipodi:namedview
     id="namedview6"
     pagecolor="#000000"
     bordercolor="#666666"
     borderopacity="1.0"
     inkscape:pageshadow="2"
     inkscape:pageopacity="0"
     inkscape:pagecheckerboard="0"
     showgrid="false"
     inkscape:zoom="34.625"
     inkscape:cx="11.98556"
     inkscape:cy="12"
     inkscape:window-width="1502"
     inkscape:window-height="1039"
     inkscape:window-x="208"
     inkscape:window-y="19"
     inkscape:window-maximized="1"
     inkscape:current-layer="svg4" />
  <path
     style="fill:#eeeeec"
     d="m 7.1875,5.0026092 c -0.243988,0.0069 -0.474752,0.112716 -0.65625,0.3125 l -1.25,1.375 c -0.362996,0.399568 -0.353579,1.027726 0.03125,1.40625 l 3.6916423,3.6335058 v 0 l 0.0083,0.537316 L 5.3125,15.908859 c -0.384829,0.378524 -0.394246,1.006682 -0.03125,1.40625 l 1.25,1.375 c 0.362996,0.399568 0.958921,0.409774 1.34375,0.03125 l 3.788687,-3.731282 v 0 l 0.703712,0.03061 3.757601,3.700668 c 0.384829,0.378524 0.980754,0.368318 1.34375,-0.03125 l 1.25,-1.375 c 0.362996,-0.399568 0.353579,-1.027726 -0.03125,-1.40625 l -3.668911,-3.611133 v 0 L 15.004877,11.720988 18.6875,8.0963592 c 0.384829,-0.378524 0.394246,-1.006682 0.03125,-1.40625 l -1.25,-1.375 C 17.105754,4.9155411 16.509829,4.9053351 16.125,5.2838592 l -3.756531,3.699614 v 0 L 11.721874,9.072447 7.875,5.2838592 C 7.682586,5.0945972 7.431488,4.9957431 7.1875,5.0026092 Z"
     id="path2"
     sodipodi:nodetypes="cccccccccccccccccccccccccccccc" />
</svg>
