<?xml version="1.0" encoding="UTF-8" standalone="no"?>
<svg
   width="24"
   height="24"
   version="1.1"
   id="svg9"
   sodipodi:docname="stock_task-assigned.svg"
   inkscape:version="1.1.2 (0a00cf5339, 2022-02-04)"
   xmlns:inkscape="http://www.inkscape.org/namespaces/inkscape"
   xmlns:sodipodi="http://sodipodi.sourceforge.net/DTD/sodipodi-0.dtd"
   xmlns="http://www.w3.org/2000/svg"
   xmlns:svg="http://www.w3.org/2000/svg">
  <sodipodi:namedview
     id="namedview11"
     pagecolor="#ffffff"
     bordercolor="#666666"
     borderopacity="1.0"
     inkscape:pageshadow="2"
     inkscape:pageopacity="0.0"
     inkscape:pagecheckerboard="0"
     showgrid="false"
     inkscape:zoom="31.416667"
     inkscape:cx="11.984085"
     inkscape:cy="12"
     inkscape:window-width="1826"
     inkscape:window-height="966"
     inkscape:window-x="0"
     inkscape:window-y="29"
     inkscape:window-maximized="1"
     inkscape:current-layer="g7" />
  <defs
     id="defs3">
    <style
       id="current-color-scheme"
       type="text/css">
   .ColorScheme-Text { color:#eeeeec; } .ColorScheme-Highlight { color:#367bf0; } .ColorScheme-NeutralText { color:#ffcc44; } .ColorScheme-PositiveText { color:#3db47e; } .ColorScheme-NegativeText { color:#dd4747; }
  </style>
  </defs>
  <g
     transform="translate(4,4)"
     id="g7">
    <path
       style="fill:currentColor"
       class="ColorScheme-Text"
       d="M 3,1 C 3,1 2,1 2,2 v 9 3 c 0,1 1,1 1,1 h 10 c 0,0 1,0 1,-1 v -4 h -2 v 2.749997 L 11.730813,13 v 0 H 4.2829784 v 0 L 4,12.781407 v -9.4529511 0 L 4.2829784,3 H 11.698886 L 12,3.2646662 v 0 V 6 h 2 V 2 C 14,1 13,1 13,1 Z m 7.499845,4.3334365 v 0 l -3.4300578,2.2867054 0.013882,0.7689709 v 0 L 10.454801,10.636534 11,10.426022 v 0 V 9 h 4 V 7 H 11 V 5.6200515 Z"
       id="path5"
       sodipodi:nodetypes="cscsccsccccccccccccccccscccccccccccccccc" />
  </g>
</svg>
