<?xml version="1.0" encoding="UTF-8" standalone="no"?>
<svg
   width="24"
   height="24"
   version="1.1"
   id="svg9"
   sodipodi:docname="stock_task-assigned-to.svg"
   inkscape:version="1.1.2 (0a00cf5339, 2022-02-04)"
   xmlns:inkscape="http://www.inkscape.org/namespaces/inkscape"
   xmlns:sodipodi="http://sodipodi.sourceforge.net/DTD/sodipodi-0.dtd"
   xmlns="http://www.w3.org/2000/svg"
   xmlns:svg="http://www.w3.org/2000/svg">
  <sodipodi:namedview
     id="namedview11"
     pagecolor="#ffffff"
     bordercolor="#666666"
     borderopacity="1.0"
     inkscape:pageshadow="2"
     inkscape:pageopacity="0.0"
     inkscape:pagecheckerboard="0"
     showgrid="false"
     inkscape:zoom="31.416667"
     inkscape:cx="11.984085"
     inkscape:cy="12"
     inkscape:window-width="1826"
     inkscape:window-height="966"
     inkscape:window-x="0"
     inkscape:window-y="29"
     inkscape:window-maximized="1"
     inkscape:current-layer="g7" />
  <defs
     id="defs3">
    <style
       id="current-color-scheme"
       type="text/css">
   .ColorScheme-Text { color:#eeeeec; } .ColorScheme-Highlight { color:#367bf0; } .ColorScheme-NeutralText { color:#ffcc44; } .ColorScheme-PositiveText { color:#3db47e; } .ColorScheme-NegativeText { color:#dd4747; }
  </style>
  </defs>
  <g
     transform="translate(4,4)"
     id="g7">
    <path
       style="fill:currentColor"
       class="ColorScheme-Text"
       d="M 3,1 C 3,1 2,1 2,2 v 12 c 0,1 1,1 1,1 h 10 c 1,0 1,-1 1,-1 V 9.75 L 12,11 v 1.686206 L 11.666959,13 v 0 H 4.2191256 v 0 L 4,12.813304 v -9.5167434 0 L 4.3459453,3 H 11.730813 V 3 L 12,3.2327709 V 5 l 2,1.25 V 2 C 14,1 13,1 13,1 Z m 7,4.6200515 v 0 V 7 H 6 v 2 h 4 v 1.362717 l 0.5742,0.254483 v 0 l 3.496369,-2.3309126 v 0 l -0.0374,-0.5975047 -3.466927,-2.3112846 z"
       id="path5"
       sodipodi:nodetypes="csscscccccccccccccccccscccccccccccccccc" />
  </g>
</svg>
