<?xml version="1.0" encoding="UTF-8" standalone="no"?>
<svg
   width="24"
   height="24"
   viewBox="0 0 24 24"
   version="1.1"
   id="svg7"
   sodipodi:docname="non-starred.svg"
   inkscape:version="1.1.2 (0a00cf5339, 2022-02-04)"
   xmlns:inkscape="http://www.inkscape.org/namespaces/inkscape"
   xmlns:sodipodi="http://sodipodi.sourceforge.net/DTD/sodipodi-0.dtd"
   xmlns="http://www.w3.org/2000/svg"
   xmlns:svg="http://www.w3.org/2000/svg">
  <sodipodi:namedview
     id="namedview9"
     pagecolor="#000000"
     bordercolor="#666666"
     borderopacity="1.0"
     inkscape:pageshadow="2"
     inkscape:pageopacity="0"
     inkscape:pagecheckerboard="0"
     showgrid="false"
     inkscape:zoom="34.625"
     inkscape:cx="12"
     inkscape:cy="11.971119"
     inkscape:window-width="1920"
     inkscape:window-height="1051"
     inkscape:window-x="0"
     inkscape:window-y="29"
     inkscape:window-maximized="1"
     inkscape:current-layer="svg7" />
  <defs
     id="defs3">
    <style
       id="current-color-scheme"
       type="text/css">
   .ColorScheme-Text { color:#eeeeec; } .ColorScheme-Highlight { color:#367bf0; } .ColorScheme-NeutralText { color:#ffcc44; } .ColorScheme-PositiveText { color:#3db47e; } .ColorScheme-NegativeText { color:#dd4747; }
  </style>
  </defs>
  <path
     style="opacity:0.35;fill:currentColor"
     class="ColorScheme-Text"
     d="M 7.4458044,1.8274473 7.8550267,1.5825994 7.4458044,1.8274473 6.000533,5.5744966 5.4830572,5.9061684 v 0 L 1.816015,6.1034653 v 0 L 1.3949718,6.2931776 v 0 L 1.1434114,6.7334462 1.3068969,7.2629907 v 0 l 2.9746697,2.4168397 0.1839771,0.6369426 v 0 l -0.9337889,3.506521 v 0 l 0.1762671,0.50247 0.4028925,0.293056 0.5330776,-0.03932 v 0 0 l 2.9863122,-1.933846 v 0 l 0.7808036,0.02682 3.0391602,1.968069 v 0 0 l 0.361349,0.0022 0.498408,-0.375453 0.157888,-0.445229 v 0 L 11.538568,10.332214 11.65663,9.7300437 v 0 l 3.230021,-2.6243053 v 0 0 L 14.978461,6.7061482 14.82055,6.3038512 14.469628,6.1188338 v 0 L 10.501312,5.9053275 v 0 L 9.9701935,5.4986004 8.5879348,1.9149202 v 0 L 8.1521401,1.5885194 7.8550267,1.5825994 Z"
     transform="translate(4,4)"
     id="path5"
     sodipodi:nodetypes="ccccccccccccccccccccccccccccccccccccccccccccccccccc" />
</svg>
