<?xml version="1.0" encoding="UTF-8" standalone="no"?>
<svg
   width="24"
   height="24"
   version="1.1"
   id="svg9"
   sodipodi:docname="dialog-warning (copy).svg"
   inkscape:version="1.1.2 (0a00cf5339, 2022-02-04)"
   xmlns:inkscape="http://www.inkscape.org/namespaces/inkscape"
   xmlns:sodipodi="http://sodipodi.sourceforge.net/DTD/sodipodi-0.dtd"
   xmlns="http://www.w3.org/2000/svg"
   xmlns:svg="http://www.w3.org/2000/svg">
  <sodipodi:namedview
     id="namedview11"
     pagecolor="#ffffff"
     bordercolor="#666666"
     borderopacity="1.0"
     inkscape:pageshadow="2"
     inkscape:pageopacity="0.0"
     inkscape:pagecheckerboard="0"
     showgrid="false"
     inkscape:zoom="34.458333"
     inkscape:cx="11.883918"
     inkscape:cy="14.321645"
     inkscape:window-width="953"
     inkscape:window-height="519"
     inkscape:window-x="3"
     inkscape:window-y="556"
     inkscape:window-maximized="1"
     inkscape:current-layer="svg9" />
  <defs
     id="defs3">
    <style
       id="current-color-scheme"
       type="text/css">
   .ColorScheme-Text { color:#eeeeec; } .ColorScheme-Highlight { color:#367bf0; } .ColorScheme-NeutralText { color:#ffcc44; } .ColorScheme-PositiveText { color:#3db47e; } .ColorScheme-NegativeText { color:#dd4747; }
  </style>
  </defs>
  <g
     transform="rotate(180,10,10)"
     id="g7">
    <path
       style="fill:currentColor"
       class="ColorScheme-Text"
       d="M 8,1 C 4.1340068,1 1,4.1340068 1,8 c 0,3.865993 3.1340068,7 7,7 3.865993,0 7,-3.134007 7,-7 C 15,4.1340068 11.865993,1 8,1 Z M 7,4.3993078 7.3896047,4 H 8.5386268 V 4 L 9,4.4911218 v 4.1277455 0 L 8.5707293,9 H 7.3977101 V 9 L 7,8.453533 Z M 8,9.75 c 0.6903559,0 1.25,0.559644 1.25,1.25 0,0.690356 -0.5596441,1.25 -1.25,1.25 C 7.3096441,12.25 6.75,11.690356 6.75,11 6.75,10.309644 7.3096441,9.75 8,9.75 Z"
       id="path5"
       sodipodi:nodetypes="ssssscccccccccccccsssss" />
  </g>
</svg>
