<?xml version="1.0" encoding="UTF-8" standalone="no"?>
<svg
   width="24"
   height="24"
   version="1.1"
   id="svg9"
   sodipodi:docname="text-speak.svg"
   inkscape:version="1.1.2 (0a00cf5339, 2022-02-04)"
   xmlns:inkscape="http://www.inkscape.org/namespaces/inkscape"
   xmlns:sodipodi="http://sodipodi.sourceforge.net/DTD/sodipodi-0.dtd"
   xmlns="http://www.w3.org/2000/svg"
   xmlns:svg="http://www.w3.org/2000/svg">
  <sodipodi:namedview
     id="namedview11"
     pagecolor="#000000"
     bordercolor="#666666"
     borderopacity="1.0"
     inkscape:pageshadow="2"
     inkscape:pageopacity="0"
     inkscape:pagecheckerboard="0"
     showgrid="false"
     inkscape:zoom="34.625"
     inkscape:cx="11.98556"
     inkscape:cy="12"
     inkscape:window-width="1502"
     inkscape:window-height="1039"
     inkscape:window-x="208"
     inkscape:window-y="19"
     inkscape:window-maximized="1"
     inkscape:current-layer="g7" />
  <defs
     id="defs3">
    <style
       id="current-color-scheme"
       type="text/css">
   .ColorScheme-Text { color:#eeeeec; } .ColorScheme-Highlight { color:#367bf0; } .ColorScheme-NeutralText { color:#ffcc44; } .ColorScheme-PositiveText { color:#3db47e; } .ColorScheme-NegativeText { color:#dd4747; }
  </style>
  </defs>
  <g
     transform="matrix(1,0,0,1,4,4)"
     id="g7">
    <path
       class="ColorScheme-Text"
       d="M 8,1.7285429 7.4421933,1.5578067 4.2064385,4.7935615 v 0 L 3.6665762,5 H 1 v 6 h 2.6737876 v 0 L 4.2701332,11.270133 7.4819089,14.481909 8,14.31818 v 0 z M 10,1 v 1.5 c 2.32,0.74 4,2.93 4,5.5 0,2.57 -1.68,4.76 -4,5.5 V 15 c 3.15,-0.78 5.5,-3.6 5.5,-7 0,-3.4 -2.35,-6.22 -5.5,-7 z m 0,4.4304816 v 0 5.1318364 0 c 0.162521,-0.08893 0.317262,0.247134 0.462787,0.134117 C 11.266407,10.072327 11.789,9.1006813 11.789,8 11.789,6.8652791 11.241202,5.8676981 10.390335,5.2466655 10.266401,5.1562083 10.136037,5.5042215 10,5.4304816 Z"
       style="fill:currentColor"
       id="path5"
       sodipodi:nodetypes="cccccccccccccccccsccscccccsssc" />
  </g>
</svg>
