<?xml version="1.0" encoding="UTF-8" standalone="no"?>
<svg
   width="24"
   height="24"
   version="1.1"
   id="svg7"
   sodipodi:docname="text-wiki.svg"
   inkscape:version="1.1.2 (0a00cf5339, 2022-02-04)"
   xmlns:inkscape="http://www.inkscape.org/namespaces/inkscape"
   xmlns:sodipodi="http://sodipodi.sourceforge.net/DTD/sodipodi-0.dtd"
   xmlns="http://www.w3.org/2000/svg"
   xmlns:svg="http://www.w3.org/2000/svg">
  <sodipodi:namedview
     id="namedview9"
     pagecolor="#000000"
     bordercolor="#666666"
     borderopacity="1.0"
     inkscape:pageshadow="2"
     inkscape:pageopacity="0"
     inkscape:pagecheckerboard="0"
     showgrid="false"
     inkscape:zoom="34.625"
     inkscape:cx="11.98556"
     inkscape:cy="12"
     inkscape:window-width="1502"
     inkscape:window-height="1039"
     inkscape:window-x="208"
     inkscape:window-y="19"
     inkscape:window-maximized="1"
     inkscape:current-layer="svg7" />
  <defs
     id="defs3">
    <style
       id="current-color-scheme"
       type="text/css">
   .ColorScheme-Text { color:#eeeeec; } .ColorScheme-Highlight { color:#367bf0; } .ColorScheme-NeutralText { color:#ffcc44; } .ColorScheme-PositiveText { color:#3db47e; } .ColorScheme-NegativeText { color:#dd4747; }
  </style>
  </defs>
  <path
     style="fill:currentColor"
     class="ColorScheme-Text"
     d="m 12.835,7.0047 -0.041,0.027 v 0.287 c 0,0.034 0.015,0.059 0.046,0.08 0.03,0.023 0.061,0.036 0.095,0.036 l 0.132,0.013 c 0.338,0.014 0.498,0.102 0.544,0.157 0.081,0.098 0.119,0.206 -0.077,0.628 l -0.967774,1.902737 v 0 L 12.163171,10.130937 11.306,8.3977 c -0.347,-0.683 -0.432,-0.896 0.091,-0.936 l 0.208,-0.027 c 0.101,0 0.15,-0.035 0.15,-0.103 v -0.3 l -0.077,-0.027 -2.8543,0.004 -0.0409,0.027 v 0.3 c 0,0.067 0.0717,0.086 0.2087,0.103 0.4897,0.064 0.4776,0.114 0.962,1.062 L 11.664,11.915 10.063,15.069 9.9717,15.047 6.7635,8.1337 c -0.0749,-0.18 -0.1089,-0.312 -0.1089,-0.394 0,-0.176 0.1592,-0.269 0.481,-0.283 l 0.3767,-0.018 c 0.0993,0 0.1497,-0.037 0.1497,-0.116 V 7.0407 L 7.6257,7.0087 H 4.0318 L 4,7.0407 v 0.295 c 0,0.054 0.0654,0.089 0.2042,0.103 0.3781,0.02 0.6291,0.08 0.7487,0.18 0.1191,0.1 0.4129,0.748 0.4129,0.748 l 3.7618,8.1543 c 0.2695,0.595 0.6052,0.688 1.0164,-0.018 l 1.808078,-3.324146 0.290813,-0.01815 c 0.009,-0.124 0,0 0,0 v 0 L 13.802,16.494 c 0.304,0.621 0.65,0.681 1.002,0.018 l 3.617,-8.1053 c 0.117,-0.299 0.277,-0.528 0.485,-0.695 0.208,-0.165 0.529,-0.258 0.962,-0.277 0.089,0 0.132,-0.039 0.132,-0.117 V 7.0307 L 19.968,6.9997 H 16.66 l -0.041,0.031 v 0.287 c 0,0.034 0.015,0.06 0.046,0.081 0.031,0.022 0.061,0.036 0.095,0.036 l 0.277,0.013 c 0.339,0.014 0.431,0.08 0.563,0.193 0.13,0.115 0.147,0.31 0.045,0.587 l -2.927,6.8593 -0.113,-0.031 -1.861,-3.75 2.001,-3.5843 c 0.159,-0.226 0.248,-0.267 0.681,-0.287 0.088,0 0.132,-0.038 0.132,-0.117 v -0.282 l -0.032,-0.031 z"
     id="path5"
     sodipodi:nodetypes="ccscccccccccccsccccsccccccsccsccccsccccccccccccccsccccsccccccccccsccc" />
</svg>
