<?xml version="1.0" encoding="UTF-8" standalone="no"?>
<svg
   width="24"
   height="24"
   version="1.1"
   id="svg9"
   sodipodi:docname="text_word_spacing.svg"
   inkscape:version="1.1.2 (0a00cf5339, 2022-02-04)"
   xmlns:inkscape="http://www.inkscape.org/namespaces/inkscape"
   xmlns:sodipodi="http://sodipodi.sourceforge.net/DTD/sodipodi-0.dtd"
   xmlns="http://www.w3.org/2000/svg"
   xmlns:svg="http://www.w3.org/2000/svg">
  <sodipodi:namedview
     id="namedview11"
     pagecolor="#000000"
     bordercolor="#666666"
     borderopacity="1.0"
     inkscape:pageshadow="2"
     inkscape:pageopacity="0"
     inkscape:pagecheckerboard="0"
     showgrid="false"
     inkscape:zoom="34.625"
     inkscape:cx="11.98556"
     inkscape:cy="12"
     inkscape:window-width="1502"
     inkscape:window-height="1039"
     inkscape:window-x="208"
     inkscape:window-y="19"
     inkscape:window-maximized="1"
     inkscape:current-layer="g7" />
  <defs
     id="defs3">
    <style
       id="current-color-scheme"
       type="text/css">
   .ColorScheme-Text { color:#eeeeec; } .ColorScheme-Highlight { color:#367bf0; } .ColorScheme-NeutralText { color:#ffcc44; } .ColorScheme-PositiveText { color:#3db47e; } .ColorScheme-NegativeText { color:#dd4747; }
  </style>
  </defs>
  <g
     transform="translate(4,4)"
     id="g7">
    <path
       style="fill:currentColor"
       class="ColorScheme-Text"
       d="M 8.5,13.5 C 8.5,13.776 8.2761,14 8,14 7.7239,14 7.5,13.776 7.5,13.5 7.5,13.224 7.7239,13 8,13 c 0.2761,0 0.5,0.224 0.5,0.5 z M 6,12.661582 5.4412183,12.209543 2.9112906,13.158266 2.8068472,13.802568 v 0 l 2.5657247,0.962146 v 0 L 6,14.409791 Z m 4,-0.05837 v 0 1.71961 l 0.642396,0.436278 v 0 l 2.352183,-0.882069 v 0 l -0.0067,-0.756591 -2.291393,-0.859272 z M 12,1 v 10 h 1 V 6 h 1.5 C 15,6 15,6.5 15,6.5 V 11 h 1 V 6 C 16,6 16,5 15,5 H 13 V 1 Z M 9,1 V 3 H 8 v 1 h 1 v 6 c 0,1 1,1 1,1 h 1 V 10 H 10 V 4 h 1 V 3 H 10 V 1 Z M 2,5 v 6 H 3 V 6 H 4.5 C 5,6 5,6.5 5,6.5 V 11 H 6 V 6 C 6,6 6,5 5,5 Z M 0,3 H 1 V 4 H 0 Z m 0,2 h 1 v 6 H 0 Z"
       id="path5"
       sodipodi:nodetypes="sssssccccccccccccccccccccccccsccccsccccccccsccccccccccccccsccccsccccccccccc" />
  </g>
</svg>
