<?xml version="1.0" encoding="UTF-8" standalone="no"?>
<svg
   width="24"
   height="24"
   version="1.1"
   id="svg11"
   sodipodi:docname="text_rotation.svg"
   inkscape:version="1.1.2 (0a00cf5339, 2022-02-04)"
   xmlns:inkscape="http://www.inkscape.org/namespaces/inkscape"
   xmlns:sodipodi="http://sodipodi.sourceforge.net/DTD/sodipodi-0.dtd"
   xmlns="http://www.w3.org/2000/svg"
   xmlns:svg="http://www.w3.org/2000/svg">
  <sodipodi:namedview
     id="namedview13"
     pagecolor="#000000"
     bordercolor="#666666"
     borderopacity="1.0"
     inkscape:pageshadow="2"
     inkscape:pageopacity="0"
     inkscape:pagecheckerboard="0"
     showgrid="false"
     inkscape:zoom="34.625"
     inkscape:cx="11.98556"
     inkscape:cy="12"
     inkscape:window-width="1502"
     inkscape:window-height="1039"
     inkscape:window-x="208"
     inkscape:window-y="19"
     inkscape:window-maximized="1"
     inkscape:current-layer="g9" />
  <defs
     id="defs3">
    <style
       id="current-color-scheme"
       type="text/css">
   .ColorScheme-Text { color:#eeeeec; } .ColorScheme-Highlight { color:#367bf0; } .ColorScheme-NeutralText { color:#ffcc44; } .ColorScheme-PositiveText { color:#3db47e; } .ColorScheme-NegativeText { color:#dd4747; }
  </style>
  </defs>
  <g
     transform="translate(4,4)"
     id="g9">
    <path
       style="fill:currentColor"
       class="ColorScheme-Text"
       transform="rotate(15,12.5,8)"
       d="m 12,4 -3,8 h 1 l 0.77,-2 h 3.46 l 0.77,2 1,0 -3,-8 z m 0.320745,1.9661174 0.393175,0.090138 0.937502,2.4377831 v 0 L 13.341735,9 11.679603,9 V 9 L 11.318911,8.5711837 Z"
       id="path5"
       sodipodi:nodetypes="ccccccccccccccccccc" />
    <path
       style="fill:currentColor"
       class="ColorScheme-Text"
       d="M 7,1 V 12 H 0 v 1 H 7.5 L 15,15 V 14 L 8,12 V 1 Z M 3,3 0,11 H 1 L 1.7695,9 h 3.461 L 6,11 H 7 L 4,3 Z m 0.760975,2.1787639 v 0 L 4.6668083,7.5347247 4.3000092,8 V 8 L 2.5900729,8 V 8 L 2.3282257,7.5476406 3.2594042,5.1257599 Z"
       id="path7"
       sodipodi:nodetypes="ccccccccccccccccccccccccccccc" />
  </g>
</svg>
