<?xml version="1.0" encoding="UTF-8" standalone="no"?>
<svg
   width="24"
   height="24"
   viewBox="0 0 24 24"
   version="1.1"
   id="svg7"
   sodipodi:docname="transform-move.svg"
   inkscape:version="1.1.2 (0a00cf5339, 2022-02-04)"
   xmlns:inkscape="http://www.inkscape.org/namespaces/inkscape"
   xmlns:sodipodi="http://sodipodi.sourceforge.net/DTD/sodipodi-0.dtd"
   xmlns="http://www.w3.org/2000/svg"
   xmlns:svg="http://www.w3.org/2000/svg">
  <sodipodi:namedview
     id="namedview9"
     pagecolor="#000000"
     bordercolor="#666666"
     borderopacity="1.0"
     inkscape:pageshadow="2"
     inkscape:pageopacity="0"
     inkscape:pagecheckerboard="0"
     showgrid="false"
     inkscape:zoom="34.625"
     inkscape:cx="11.98556"
     inkscape:cy="12"
     inkscape:window-width="1502"
     inkscape:window-height="1039"
     inkscape:window-x="208"
     inkscape:window-y="19"
     inkscape:window-maximized="1"
     inkscape:current-layer="svg7" />
  <defs
     id="defs3">
    <style
       id="current-color-scheme"
       type="text/css">
   .ColorScheme-Text { color:#eeeeec; } .ColorScheme-Highlight { color:#367bf0; } .ColorScheme-NeutralText { color:#ffcc44; } .ColorScheme-PositiveText { color:#3db47e; } .ColorScheme-NegativeText { color:#dd4747; }
  </style>
  </defs>
  <path
     style="fill:currentColor"
     class="ColorScheme-Text"
     d="m 7.6008014,1.5987979 v 0 L 6.4102775,3.3845838 6.7943913,4 V 4 H 9.2995949 V 4 L 9.5412118,3.3118177 8.4433991,1.6650987 Z M 3.4801961,6.346536 v 0 L 1.5972922,7.6018052 v 0 L 1.5973206,8.3982138 3.4935029,9.6623353 4,9.2676134 v 0 -2.4891336 z M 8,6 C 6.8954,6 6,6.8954 6,8 6,9.1046 6.8954,10 8,10 9.1046,10 10,9.1046 10,8 10,6.8954 9.1046,6 8,6 Z M 12.526043,6.3506952 12,6.726083 v 2.6007058 0 l 0.676643,0.2221158 1.77292,-1.1819465 0.03514,-0.7104906 v 0 z M 6.6834404,12 6.4026399,12.60396 7.629978,14.444967 v 0 l 0.784084,-0.06606 1.1533357,-1.730004 v 0 L 9.2921403,12 Z"
     transform="translate(4,4)"
     id="path5"
     sodipodi:nodetypes="ccccccccccccccccccccssssscccccccccccccccccc" />
</svg>
