<?xml version="1.0" encoding="UTF-8" standalone="no"?>
<svg
   width="24"
   height="24"
   version="1.1"
   id="svg9"
   sodipodi:docname="transfers.svg"
   inkscape:version="1.1.2 (0a00cf5339, 2022-02-04)"
   xmlns:inkscape="http://www.inkscape.org/namespaces/inkscape"
   xmlns:sodipodi="http://sodipodi.sourceforge.net/DTD/sodipodi-0.dtd"
   xmlns="http://www.w3.org/2000/svg"
   xmlns:svg="http://www.w3.org/2000/svg">
  <sodipodi:namedview
     id="namedview11"
     pagecolor="#000000"
     bordercolor="#666666"
     borderopacity="1.0"
     inkscape:pageshadow="2"
     inkscape:pageopacity="0"
     inkscape:pagecheckerboard="0"
     showgrid="false"
     inkscape:zoom="34.625"
     inkscape:cx="12.01444"
     inkscape:cy="12"
     inkscape:window-width="1502"
     inkscape:window-height="1039"
     inkscape:window-x="208"
     inkscape:window-y="19"
     inkscape:window-maximized="1"
     inkscape:current-layer="g7" />
  <defs
     id="defs3">
    <style
       id="current-color-scheme"
       type="text/css">
   .ColorScheme-Text { color:#eeeeec; } .ColorScheme-Highlight { color:#367bf0; } .ColorScheme-NeutralText { color:#ffcc44; } .ColorScheme-PositiveText { color:#3db47e; } .ColorScheme-NegativeText { color:#dd4747; }
  </style>
  </defs>
  <g
     transform="translate(4,4)"
     id="g7">
    <path
       style="fill:currentColor"
       class="ColorScheme-Text"
       d="M 6,1 V 7 H 4.4305019 L 4.1497668,7.9384489 v 0 L 6.5819959,11.451283 7,11.184004 v 0 V 9 C 7,8 8,8 8,8 h 3.809 L 12.171646,7.4751867 11.85941,7 V 7 H 10 V 1 Z M 1,14.35237 v 0 1.142432 L 1.558324,16 v 0 h 5.6390016 v 0 c 0,0 0.3581024,0 0.061806,-0.296424 C 7.1110473,15.555428 7,15.333238 7,15 v -0.670861 0 L 6.6147743,14 H 1.4782071 Z M 9,9 C 9,9 8,9 8,10 v 5 c 0,1 1,1 1,1 h 6 c 0,0 1,0 1,-1 V 10 C 16,9 15,9 15,9 Z M 10.943546,9.9714752 11.928168,10.02046 12,11 v 0 3 0 L 11.9907,15.043152 11.060473,15.004122 11,14 v 0 -3 0 z"
       id="path5"
       sodipodi:nodetypes="ccccccccscccccccccccccccssccccccssccssccccccccccccccc" />
  </g>
</svg>
