<?xml version="1.0" encoding="UTF-8" standalone="no"?>
<svg
   width="24"
   height="24"
   version="1.1"
   id="svg11"
   sodipodi:docname="transform-scale-vertical.svg"
   inkscape:version="1.1.2 (0a00cf5339, 2022-02-04)"
   xmlns:inkscape="http://www.inkscape.org/namespaces/inkscape"
   xmlns:sodipodi="http://sodipodi.sourceforge.net/DTD/sodipodi-0.dtd"
   xmlns="http://www.w3.org/2000/svg"
   xmlns:svg="http://www.w3.org/2000/svg">
  <sodipodi:namedview
     id="namedview13"
     pagecolor="#000000"
     bordercolor="#666666"
     borderopacity="1.0"
     inkscape:pageshadow="2"
     inkscape:pageopacity="0"
     inkscape:pagecheckerboard="0"
     showgrid="false"
     inkscape:zoom="34.625"
     inkscape:cx="11.98556"
     inkscape:cy="12"
     inkscape:window-width="1502"
     inkscape:window-height="1039"
     inkscape:window-x="208"
     inkscape:window-y="19"
     inkscape:window-maximized="1"
     inkscape:current-layer="g9" />
  <defs
     id="defs3">
    <style
       id="current-color-scheme"
       type="text/css">
   .ColorScheme-Text { color:#eeeeec; } .ColorScheme-Highlight { color:#367bf0; } .ColorScheme-NeutralText { color:#ffcc44; } .ColorScheme-PositiveText { color:#3db47e; } .ColorScheme-NegativeText { color:#dd4747; }
  </style>
  </defs>
  <g
     transform="rotate(-90,12,12)"
     id="g9">
    <path
       style="opacity:.35;fill:currentColor"
       class="ColorScheme-Text"
       d="M 1,4 V 20 H 23 V 4 Z"
       id="path5" />
    <path
       style="fill:currentColor"
       class="ColorScheme-Text"
       d="M 0.5,3 C 0,3 0,3.5 0,3.5 v 17 C 0,21 0.5,21 0.5,21 h 23 C 24,21 24,20.5 24,20.5 V 3.5 C 24,3 23.5,3 23.5,3 Z M 1,4 H 7 V 15 H 4 V 13.783602 L 3.3246596,13.562784 v 0 L 1.5331209,15.055733 1.522429,15.935357 1,15.5 Z m 7,0 h 8 V 15 H 8 Z m 9,0 h 6 v 11.5 0 L 22.634661,15.195551 20.562347,13.468623 20,13.832817 v 0 V 15 H 17 Z M 3.4222171,17.518514 4,17.134829 V 16 h 3 v 4 H 1 v -4.5 l 0.522429,0.435357 z M 23,15.5 V 20 h -6 v -4 h 3 v 1.216088 0 l 0.602247,0.28204 1.977947,-1.64829 0.05447,-0.654287 z M 8,16 h 8 v 4 H 8 Z"
       id="path7"
       sodipodi:nodetypes="scscscscsccccccccccccccccccccccccccccccccccccccccccccccccccccc" />
  </g>
</svg>
