<?xml version="1.0" encoding="UTF-8" standalone="no"?>
<svg
   width="24"
   height="24"
   version="1.1"
   id="svg9"
   sodipodi:docname="transform-scale-horizontal.svg"
   inkscape:version="1.1.2 (0a00cf5339, 2022-02-04)"
   xmlns:inkscape="http://www.inkscape.org/namespaces/inkscape"
   xmlns:sodipodi="http://sodipodi.sourceforge.net/DTD/sodipodi-0.dtd"
   xmlns="http://www.w3.org/2000/svg"
   xmlns:svg="http://www.w3.org/2000/svg">
  <sodipodi:namedview
     id="namedview11"
     pagecolor="#000000"
     bordercolor="#666666"
     borderopacity="1.0"
     inkscape:pageshadow="2"
     inkscape:pageopacity="0"
     inkscape:pagecheckerboard="0"
     showgrid="false"
     inkscape:zoom="34.625"
     inkscape:cx="11.98556"
     inkscape:cy="12"
     inkscape:window-width="1502"
     inkscape:window-height="1039"
     inkscape:window-x="208"
     inkscape:window-y="19"
     inkscape:window-maximized="1"
     inkscape:current-layer="svg9" />
  <defs
     id="defs3">
    <style
       id="current-color-scheme"
       type="text/css">
   .ColorScheme-Text { color:#eeeeec; } .ColorScheme-Highlight { color:#367bf0; } .ColorScheme-NeutralText { color:#ffcc44; } .ColorScheme-PositiveText { color:#3db47e; } .ColorScheme-NegativeText { color:#dd4747; }
  </style>
  </defs>
  <path
     style="fill:currentColor;opacity:.35"
     class="ColorScheme-Text"
     d="M 1 4 L 1 20 L 23 20 L 23 4 L 1 4 z"
     id="path5" />
  <path
     style="fill:currentColor"
     class="ColorScheme-Text"
     d="M 0.5,3 C 0,3 0,3.5 0,3.5 v 17 C 0,21 0.5,21 0.5,21 h 23 C 24,21 24,20.5 24,20.5 V 3.5 C 24,3 23.5,3 23.5,3 Z M 1,4 H 7 V 15 H 4 v -1.118557 0 L 3.3730275,13.522477 1.5627282,15.03106 1.4910471,15.909206 1,15.5 Z m 7,0 h 8 V 15 H 8 Z m 9,0 h 6 V 15.5 L 22.518452,15.90129 22.407519,15.006266 20.690838,13.575698 20,13.837436 v 0 V 15 H 17 Z M 4,17.282785 v 0 V 16 h 3 v 4 H 1 v -4.5 l 0.4910471,0.409206 1.8497326,1.541444 z M 23,15.5 V 20 h -6 v -4 h 3 v 1.249145 l 0.689531,0.176246 v 0 L 22.518452,15.90129 Z M 8,16 h 8 v 4 H 8 Z"
     id="path7"
     sodipodi:nodetypes="scscscscscccccccccccccccccccccccccccccccccccccccccccccccccccc" />
</svg>
