<?xml version="1.0" encoding="UTF-8" standalone="no"?>
<svg
   width="24"
   height="24"
   version="1.1"
   id="svg11"
   sodipodi:docname="transform-move-vertical.svg"
   inkscape:version="1.1.2 (0a00cf5339, 2022-02-04)"
   xmlns:inkscape="http://www.inkscape.org/namespaces/inkscape"
   xmlns:sodipodi="http://sodipodi.sourceforge.net/DTD/sodipodi-0.dtd"
   xmlns="http://www.w3.org/2000/svg"
   xmlns:svg="http://www.w3.org/2000/svg">
  <sodipodi:namedview
     id="namedview13"
     pagecolor="#000000"
     bordercolor="#666666"
     borderopacity="1.0"
     inkscape:pageshadow="2"
     inkscape:pageopacity="0"
     inkscape:pagecheckerboard="0"
     showgrid="false"
     inkscape:zoom="34.625"
     inkscape:cx="11.98556"
     inkscape:cy="12"
     inkscape:window-width="1502"
     inkscape:window-height="1039"
     inkscape:window-x="208"
     inkscape:window-y="19"
     inkscape:window-maximized="1"
     inkscape:current-layer="g9" />
  <defs
     id="defs3">
    <style
       id="current-color-scheme"
       type="text/css">
   .ColorScheme-Text { color:#eeeeec; } .ColorScheme-Highlight { color:#367bf0; } .ColorScheme-NeutralText { color:#ffcc44; } .ColorScheme-PositiveText { color:#3db47e; } .ColorScheme-NegativeText { color:#dd4747; }
  </style>
  </defs>
  <g
     transform="matrix(0,-1,-1,0,24,24)"
     id="g9">
    <path
       style="opacity:.35;fill:currentColor"
       class="ColorScheme-Text"
       d="M 1,3 V 10 H 9 V 3 Z M 15,3 V 10 H 23 V 3 Z"
       id="path5" />
    <path
       style="fill:currentColor"
       class="ColorScheme-Text"
       d="M 14.5,2 C 14,2 14,2.5 14,2.5 v 8 c 0,0.5 0.5,0.5 0.5,0.5 h 9 C 24,11 24,10.5 24,10.5 v -8 C 24,2 23.5,2 23.5,2 Z M 15,3 h 8 v 7 H 15 Z M 0.5,2 C 0,2 0,2.5 0,2.5 v 8 C 0,11 0.5,11 0.5,11 h 9 C 10,11 10,10.5 10,10.5 v -8 C 10,2 9.5,2 9.5,2 Z M 1,3 h 8 v 7 H 1 Z m 16,10.708263 v 0 V 15 H 5 v 1 h 12 v 1.133008 0 l 0.696245,0.286788 1.741768,-1.451474 v 0 l -0.09451,-1.0154 -1.756858,-1.464049 z"
       id="path7"
       sodipodi:nodetypes="scscscscscccccscscscscsccccccccccccccccccc" />
  </g>
</svg>
