<?xml version="1.0" encoding="UTF-8" standalone="no"?>
<svg
   width="24"
   height="24"
   version="1.1"
   id="svg9"
   sodipodi:docname="view-institution-edit.svg"
   inkscape:version="1.1.2 (0a00cf5339, 2022-02-04)"
   xmlns:inkscape="http://www.inkscape.org/namespaces/inkscape"
   xmlns:sodipodi="http://sodipodi.sourceforge.net/DTD/sodipodi-0.dtd"
   xmlns="http://www.w3.org/2000/svg"
   xmlns:svg="http://www.w3.org/2000/svg">
  <sodipodi:namedview
     id="namedview11"
     pagecolor="#ffffff"
     bordercolor="#666666"
     borderopacity="1.0"
     inkscape:pageshadow="2"
     inkscape:pageopacity="0.0"
     inkscape:pagecheckerboard="0"
     showgrid="false"
     inkscape:zoom="194.92577"
     inkscape:cx="5.4841389"
     inkscape:cy="9.088075"
     inkscape:window-width="954"
     inkscape:window-height="519"
     inkscape:window-x="961"
     inkscape:window-y="556"
     inkscape:window-maximized="1"
     inkscape:current-layer="g7" />
  <defs
     id="defs3">
    <style
       id="current-color-scheme"
       type="text/css">
   .ColorScheme-Text { color:#eeeeec; } .ColorScheme-Highlight { color:#367bf0; } .ColorScheme-NeutralText { color:#ffcc44; } .ColorScheme-PositiveText { color:#3db47e; } .ColorScheme-NegativeText { color:#dd4747; }
  </style>
  </defs>
  <g
     transform="translate(4,4)"
     id="g7">
    <path
       style="fill:currentColor"
       class="ColorScheme-Text"
       d="M 7.9789803,1.1704471 7.5344632,1.2327684 1.0496451,4.4751775 1.0475974,4.7868426 1.055757,5 H 2 v 2 h 1 v 6 H 2 v 2 h 1 7 V 13 H 9 V 7 h 2 v 3 h 2 V 7 h 1 V 5 h 1.0238 V 5 L 15.095908,4.5479539 8.426471,1.2132355 Z M 5,7 h 2 v 6 H 5 Z m 9.980469,4.003906 c -0.04185,0.0084 -0.08622,0.03153 -0.13086,0.07617 l -0.634765,0.634766 1.070312,1.070312 0.634766,-0.634765 c 0.178569,-0.178569 0,-0.357422 0,-0.357422 l -0.712891,-0.712891 c 0,0 -0.101006,-0.101281 -0.226562,-0.07617 z m -1.03766,1.153747 -0.202851,0.032 -2.653532,2.651717 L 11,15.04768 v 0 0.755483 L 11.242704,16 v 0 h 0.715307 v 0 l 0.205207,-0.09102 2.674952,-2.676782 v 0 l 0.008,-0.171225 z"
       id="path5"
       sodipodi:nodetypes="ccccccccccccccccccccccccccccccccscccsccscccccccccccccccc" />
  </g>
</svg>
