<?xml version="1.0" encoding="UTF-8" standalone="no"?>
<svg
   width="24"
   height="24"
   version="1.1"
   id="svg9"
   sodipodi:docname="view-sort.svg"
   inkscape:version="1.1.2 (0a00cf5339, 2022-02-04)"
   xmlns:inkscape="http://www.inkscape.org/namespaces/inkscape"
   xmlns:sodipodi="http://sodipodi.sourceforge.net/DTD/sodipodi-0.dtd"
   xmlns="http://www.w3.org/2000/svg"
   xmlns:svg="http://www.w3.org/2000/svg">
  <sodipodi:namedview
     id="namedview11"
     pagecolor="#ffffff"
     bordercolor="#666666"
     borderopacity="1.0"
     inkscape:pageshadow="2"
     inkscape:pageopacity="0.0"
     inkscape:pagecheckerboard="0"
     showgrid="false"
     inkscape:zoom="34.458333"
     inkscape:cx="7.5163241"
     inkscape:cy="7.0084643"
     inkscape:window-width="954"
     inkscape:window-height="519"
     inkscape:window-x="961"
     inkscape:window-y="556"
     inkscape:window-maximized="1"
     inkscape:current-layer="g7" />
  <defs
     id="defs3">
    <style
       id="current-color-scheme"
       type="text/css">
   .ColorScheme-Text { color:#eeeeec; } .ColorScheme-Highlight { color:#367bf0; } .ColorScheme-NeutralText { color:#ffcc44; } .ColorScheme-PositiveText { color:#3db47e; } .ColorScheme-NegativeText { color:#dd4747; }
  </style>
  </defs>
  <g
     transform="translate(4,4)"
     id="g7">
    <path
       style="fill:currentColor"
       class="ColorScheme-Text"
       d="m 10.658939,1.4547474 v 0 L 8.4643142,4.3809144 8.6685852,5 V 5 H 9.7697225 V 5 L 10,5.2622814 10,8 h 2 V 5.2026816 L 12.250272,5 v 0 h 1.067957 V 5 L 13.531156,4.3748751 11.405544,1.5407259 Z M 2.5,2 C 1.6715729,2 1,2.6715729 1,3.5 1,4.3284271 1.6715729,5 2.5,5 3.3284271,5 4,4.3284271 4,3.5 4,2.6715729 3.3284271,2 2.5,2 Z m 0,4 C 1.6715729,6 1,6.6715729 1,7.5 1,8.3284271 1.6715729,9 2.5,9 3.3284271,9 4,8.3284271 4,7.5 4,6.6715729 3.3284271,6 2.5,6 Z M 7,7 V 9.8955177 L 6.8699131,10 v 0 H 5.7027849 L 5.447405,10.59654 v 0 l 2.2009118,2.934549 0.6796102,0.03167 v 0 l 2.238906,-2.985208 v 0 L 10.320819,10 H 9.1080585 v 0 L 9,9.8812852 V 7 Z M 2.5,10 C 1.6715729,10 1,10.671573 1,11.5 1,12.328427 1.6715729,13 2.5,13 3.3284271,13 4,12.328427 4,11.5 4,10.671573 3.3284271,10 2.5,10 Z"
       id="path5"
       sodipodi:nodetypes="ccccccccccccccccccssssssssssccccccccccccccccccsssss" />
  </g>
</svg>
