<?xml version="1.0" encoding="UTF-8" standalone="no"?>
<svg
   width="24"
   height="24"
   version="1.1"
   id="svg7"
   sodipodi:docname="view-pages-facing-first-centered.svg"
   inkscape:version="1.1.2 (0a00cf5339, 2022-02-04)"
   xmlns:inkscape="http://www.inkscape.org/namespaces/inkscape"
   xmlns:sodipodi="http://sodipodi.sourceforge.net/DTD/sodipodi-0.dtd"
   xmlns="http://www.w3.org/2000/svg"
   xmlns:svg="http://www.w3.org/2000/svg">
  <sodipodi:namedview
     id="namedview9"
     pagecolor="#ffffff"
     bordercolor="#666666"
     borderopacity="1.0"
     inkscape:pageshadow="2"
     inkscape:pageopacity="0.0"
     inkscape:pagecheckerboard="0"
     showgrid="false"
     inkscape:zoom="34.458333"
     inkscape:cx="11.956469"
     inkscape:cy="14.321644"
     inkscape:window-width="954"
     inkscape:window-height="519"
     inkscape:window-x="961"
     inkscape:window-y="556"
     inkscape:window-maximized="1"
     inkscape:current-layer="svg7" />
  <defs
     id="defs3">
    <style
       id="current-color-scheme"
       type="text/css">
   .ColorScheme-Text { color:#eeeeec; } .ColorScheme-Highlight { color:#367bf0; } .ColorScheme-NeutralText { color:#ffcc44; } .ColorScheme-PositiveText { color:#3db47e; } .ColorScheme-NegativeText { color:#dd4747; }
  </style>
  </defs>
  <path
     style="fill:currentColor"
     class="ColorScheme-Text"
     d="m 10.520848,4.1555904 v 0 L 8.2299964,6.610913 8,7.2134486 v 0 6.0717074 C 8,13.285156 7.9993486,14 8.6660156,14 H 15.333984 C 15.333984,14 16,13.999442 16,13.285156 V 4.7148437 C 16,4.0005579 15.333984,4 15.333984,4 h -4.486662 z m 0.734909,2.03442 L 11.670437,6 h 2.059776 L 14,6.254208 v 0 V 12 H 10 V 7.945045 l 0.132989,-0.407403 v 0 z M 6.4382821,10.244084 v 0 L 4,12.857422 v 6.427734 C 4,19.285156 3.9993486,20 4.6660156,20 h 6.6679684 c 0,0 0.286251,-2.4e-4 0.483428,-0.201669 0.103586,-0.10582 0,0.246008 0,0 0,0 0.182311,-0.209401 0.366798,0.0021 C 12.282729,19.913371 12.433938,20 12.666016,20 h 6.667968 C 19.333984,20 20,19.999442 20,19.285156 V 10.714844 C 20,10.000558 19.333984,10 19.333984,10 H 17 v 2 h 1 v 6 h -4 v -3 h -2 -2 v 3 H 6 v -4.302734 l 1,-1.201172 v -2.151798 z"
     id="path5"
     sodipodi:nodetypes="ccccccscsscccccccccccccccccccscscsscsscccccccccccccc" />
</svg>
