<?xml version="1.0" encoding="UTF-8" standalone="no"?>
<svg
   width="24"
   height="24"
   version="1.1"
   id="svg11"
   sodipodi:docname="view-bank-account-checking.svg"
   inkscape:version="1.1.2 (0a00cf5339, 2022-02-04)"
   xmlns:inkscape="http://www.inkscape.org/namespaces/inkscape"
   xmlns:sodipodi="http://sodipodi.sourceforge.net/DTD/sodipodi-0.dtd"
   xmlns="http://www.w3.org/2000/svg"
   xmlns:svg="http://www.w3.org/2000/svg">
  <sodipodi:namedview
     id="namedview13"
     pagecolor="#ffffff"
     bordercolor="#666666"
     borderopacity="1.0"
     inkscape:pageshadow="2"
     inkscape:pageopacity="0.0"
     inkscape:pagecheckerboard="0"
     showgrid="false"
     inkscape:zoom="256"
     inkscape:cx="10.851562"
     inkscape:cy="14.185547"
     inkscape:window-width="954"
     inkscape:window-height="519"
     inkscape:window-x="961"
     inkscape:window-y="556"
     inkscape:window-maximized="1"
     inkscape:current-layer="g9" />
  <defs
     id="defs3">
    <style
       id="current-color-scheme"
       type="text/css">
   .ColorScheme-Text { color:#eeeeec; } .ColorScheme-Highlight { color:#367bf0; } .ColorScheme-NeutralText { color:#ffcc44; } .ColorScheme-PositiveText { color:#3db47e; } .ColorScheme-NegativeText { color:#dd4747; }
  </style>
  </defs>
  <g
     transform="translate(4,4)"
     id="g9">
    <path
       style="fill:currentColor"
       class="ColorScheme-Text"
       d="m 6.5612677,1.4387323 v 0 L 0.85784835,7.1421517 1.0290854,8 V 8 H 2 v 7 h 8.342 C 10.118158,14.531554 10.001336,14.019177 10,13.5 c 0.0017,-1.35034 0.779956,-2.579283 2,-3.158 V 8 h 1.086986 V 8 L 13.231291,7.2312907 7.4289918,1.4289918 Z M 7,6 c 1.1045695,0 2,0.8954305 2,2 0,0.9498014 -0.6620815,1.7449654 -1.5499014,1.9491491 -0.08357,0.01922 0.00443,0.027316 -0.082775,0.035699 C 7.3035661,9.9909773 7.0653642,10 7,10 c 0.1588958,0 0.3093756,0.007 0.4518852,0.0203 C 10,10.257813 10,12.5 10,12.5 V 13 H 4 v -0.5 c 0,0 0,-2.261662 2.5813857,-2.482678 0.071344,-0.0061 -0.052567,-0.032769 0.022776,-0.035669 C 6.6688595,9.9791625 6.9322789,10 7,10 6.8568833,10 6.7172777,9.9849677 6.5826758,9.9563958 5.6784249,9.7644511 5,8.9614528 5,8 5,6.8954305 5.8954305,6 7,6 Z"
       id="path5"
       sodipodi:nodetypes="ccccccccccccccccsssscsccccsscsss" />
    <path
       style="fill:currentColor"
       class="ColorScheme-Text"
       d="m 13.5,10.400361 v 0 0.456639 c -1.381,0 -2.5,1.151 -2.5,2.571 0,1.42 1.119,2.572 2.5,2.572 1.367,0 2.476,-1.129 2.498,-2.529 0.0014,-0.01429 0.002,-0.02864 0.002,-0.043 -3.05e-4,-0.236217 -0.186364,-0.427643 -0.416,-0.428 -0.230417,-7.8e-4 -0.417695,0.190979 -0.418,0.428 0,0.947 -0.746,1.715 -1.666,1.715 -0.92,0 -1.666,-0.769 -1.666,-1.715 0,-0.947 0.746,-1.713 1.666,-1.713 v 0.384733 0 l 0.370391,0.186137 1.0152,-0.784251 0.01469,-0.42157 v 0 L 13.817421,10.24483 Z"
       id="path7"
       sodipodi:nodetypes="cccssccccssccccccccc" />
  </g>
</svg>
