<?xml version="1.0" encoding="UTF-8" standalone="no"?>
<svg
   width="24"
   height="24"
   version="1.1"
   id="svg9"
   sodipodi:docname="view-financial-category-edit.svg"
   inkscape:version="1.1.2 (0a00cf5339, 2022-02-04)"
   xmlns:inkscape="http://www.inkscape.org/namespaces/inkscape"
   xmlns:sodipodi="http://sodipodi.sourceforge.net/DTD/sodipodi-0.dtd"
   xmlns="http://www.w3.org/2000/svg"
   xmlns:svg="http://www.w3.org/2000/svg">
  <sodipodi:namedview
     id="namedview11"
     pagecolor="#ffffff"
     bordercolor="#666666"
     borderopacity="1.0"
     inkscape:pageshadow="2"
     inkscape:pageopacity="0.0"
     inkscape:pagecheckerboard="0"
     showgrid="false"
     inkscape:zoom="48.731442"
     inkscape:cx="12.927998"
     inkscape:cy="17.411756"
     inkscape:window-width="954"
     inkscape:window-height="519"
     inkscape:window-x="961"
     inkscape:window-y="556"
     inkscape:window-maximized="1"
     inkscape:current-layer="g7" />
  <defs
     id="defs3">
    <style
       id="current-color-scheme"
       type="text/css">
   .ColorScheme-Text { color:#eeeeec; } .ColorScheme-Highlight { color:#367bf0; } .ColorScheme-NeutralText { color:#ffcc44; } .ColorScheme-PositiveText { color:#3db47e; } .ColorScheme-NegativeText { color:#dd4747; }
  </style>
  </defs>
  <g
     transform="translate(4,4)"
     id="g7">
    <path
       style="fill:currentColor"
       class="ColorScheme-Text"
       d="M 1.375,1 C 1.16725,1 1,1.16725 1,1.375 v 2.25 C 1,3.83275 1.16725,4 1.375,4 h 2.25 C 3.83275,4 4,3.83275 4,3.625 V 1.375 C 4,1.16725 3.83275,1 3.625,1 Z M 5,2 V 4 H 15 V 2 Z M 1.375,5 C 1.16725,5 1,5.16725 1,5.375 v 2.25 C 1,7.83275 1.16725,8 1.375,8 h 2.25 C 3.83275,8 4,7.83275 4,7.625 V 5.375 C 4,5.16725 3.83275,5 3.625,5 Z M 5,6 V 8 H 15 V 6 Z M 1.375,9 C 1.16725,9 1,9.16725 1,9.375 v 2.25 C 1,11.83275 1.16725,12 1.375,12 h 2.25 C 3.83275,12 4,11.83275 4,11.625 V 9.375 C 4,9.16725 3.83275,9 3.625,9 Z M 5,10 v 2 h 5 v -2 z m 9.980469,1.003906 c -0.04186,0.0084 -0.08621,0.03153 -0.13086,0.07617 l -0.634765,0.634766 1.070312,1.070312 0.634766,-0.634765 c 0.178594,-0.178569 0,-0.357422 0,-0.357422 l -0.712891,-0.712891 c 0,0 -0.100988,-0.101281 -0.226562,-0.07617 z m -1.272621,1.217832 v 0 L 11.152472,14.775366 11,15.106096 v 0 0.644901 L 11.231472,16 v 0 h 0.64522 l 0.362467,-0.167007 v 0 l 2.50877,-2.510487 0.0028,-0.356893 v 0 L 14.008873,12.223717 Z M 1.375,13 C 1.16725,13 1,13.16725 1,13.375 v 2.25 C 1,15.83275 1.16725,16 1.375,16 h 2.25 C 3.83275,16 4,15.83275 4,15.625 v -2.25 C 4,13.16725 3.83275,13 3.625,13 Z M 5,14 v 2 h 5 v -2 z"
       id="path5"
       sodipodi:nodetypes="ssssssssscccccssssssssscccccssssssssscccccsccccccsccccccccccccccccsssssssssccccc" />
  </g>
</svg>
