<?xml version="1.0" encoding="UTF-8" standalone="no"?>
<svg
   width="24"
   height="24"
   version="1.1"
   id="svg9"
   sodipodi:docname="view-financial-category-delete.svg"
   inkscape:version="1.1.2 (0a00cf5339, 2022-02-04)"
   xmlns:inkscape="http://www.inkscape.org/namespaces/inkscape"
   xmlns:sodipodi="http://sodipodi.sourceforge.net/DTD/sodipodi-0.dtd"
   xmlns="http://www.w3.org/2000/svg"
   xmlns:svg="http://www.w3.org/2000/svg">
  <sodipodi:namedview
     id="namedview11"
     pagecolor="#ffffff"
     bordercolor="#666666"
     borderopacity="1.0"
     inkscape:pageshadow="2"
     inkscape:pageopacity="0.0"
     inkscape:pagecheckerboard="0"
     showgrid="false"
     inkscape:zoom="68.916667"
     inkscape:cx="20.212817"
     inkscape:cy="17.187424"
     inkscape:window-width="954"
     inkscape:window-height="519"
     inkscape:window-x="961"
     inkscape:window-y="556"
     inkscape:window-maximized="1"
     inkscape:current-layer="g7" />
  <defs
     id="defs3">
    <style
       id="current-color-scheme"
       type="text/css">
   .ColorScheme-Text { color:#eeeeec; } .ColorScheme-Highlight { color:#367bf0; } .ColorScheme-NeutralText { color:#ffcc44; } .ColorScheme-PositiveText { color:#3db47e; } .ColorScheme-NegativeText { color:#dd4747; }
  </style>
  </defs>
  <g
     transform="translate(4,4)"
     id="g7">
    <path
       style="fill:currentColor"
       class="ColorScheme-Text"
       d="M 1.375,1 C 1.16725,1 1,1.16725 1,1.375 v 2.25 C 1,3.83275 1.16725,4 1.375,4 h 2.25 C 3.83275,4 4,3.83275 4,3.625 V 1.375 C 4,1.16725 3.83275,1 3.625,1 Z M 5,2 V 4 H 15 V 2 Z M 1.375,5 C 1.16725,5 1,5.16725 1,5.375 v 2.25 C 1,7.83275 1.16725,8 1.375,8 h 2.25 C 3.83275,8 4,7.83275 4,7.625 V 5.375 C 4,5.16725 3.83275,5 3.625,5 Z M 5,6 V 8 H 15 V 6 Z M 1.375,9 C 1.16725,9 1,9.16725 1,9.375 v 2.25 C 1,11.83275 1.16725,12 1.375,12 h 2.25 C 3.83275,12 4,11.83275 4,11.625 V 9.375 C 4,9.16725 3.83275,9 3.625,9 Z M 5,10 v 2 h 5 v -2 z m 6,1.224811 v 0 l 0,0.48222 L 12.792969,13.5 11,15.292969 v 0.378555 L 11.315549,16 v 0 h 0.391482 L 13.5,14.207031 15.292969,16 h 0.414677 v 0 L 16,15.680653 V 15.292969 L 14.207031,13.5 16,11.707031 V 11.26016 L 15.676238,11 v 0 H 15.292969 L 13.5,12.792969 11.707031,11 H 11.232574 Z M 1.375,13 C 1.16725,13 1,13.16725 1,13.375 v 2.25 C 1,15.83275 1.16725,16 1.375,16 h 2.25 C 3.83275,16 4,15.83275 4,15.625 v -2.25 C 4,13.16725 3.83275,13 3.625,13 Z M 5,14 v 2 h 5 v -2 z"
       id="path5"
       sodipodi:nodetypes="ssssssssscccccssssssssscccccsssssssssccccccccccccccccccccccccccccccsssssssssccccc" />
  </g>
</svg>
