<?xml version="1.0" encoding="UTF-8" standalone="no"?>
<svg
   width="24"
   height="24"
   version="1.1"
   id="svg11"
   sodipodi:docname="view-close.svg"
   inkscape:version="1.1.2 (0a00cf5339, 2022-02-04)"
   xmlns:inkscape="http://www.inkscape.org/namespaces/inkscape"
   xmlns:sodipodi="http://sodipodi.sourceforge.net/DTD/sodipodi-0.dtd"
   xmlns="http://www.w3.org/2000/svg"
   xmlns:svg="http://www.w3.org/2000/svg">
  <sodipodi:namedview
     id="namedview13"
     pagecolor="#000000"
     bordercolor="#666666"
     borderopacity="1.0"
     inkscape:pageshadow="2"
     inkscape:pageopacity="0"
     inkscape:pagecheckerboard="0"
     showgrid="false"
     inkscape:zoom="138.5"
     inkscape:cx="11.99278"
     inkscape:cy="11.99639"
     inkscape:window-width="1502"
     inkscape:window-height="1039"
     inkscape:window-x="208"
     inkscape:window-y="19"
     inkscape:window-maximized="1"
     inkscape:current-layer="g9" />
  <defs
     id="defs3">
    <style
       id="current-color-scheme"
       type="text/css">
   .ColorScheme-Text { color:#eeeeec; } .ColorScheme-Highlight { color:#367bf0; } .ColorScheme-NeutralText { color:#ffcc44; } .ColorScheme-PositiveText { color:#3db47e; } .ColorScheme-NegativeText { color:#dd4747; }
  </style>
  </defs>
  <g
     transform="translate(4,4)"
     id="g9">
    <path
       style="fill:currentColor"
       class="ColorScheme-Text"
       d="M 5,4 C 4.4477,4 4,4.4477 4,5 4,5.2652 4.1055,5.5195 4.293,5.707 l 6,6 C 10.48,11.895 10.735,12 11,12 c 0.552,0 1,-0.448 1,-1 0,-0.265 -0.105,-0.52 -0.293,-0.707 L 7.7831031,6.3691031 5.707,4.293 C 5.5195,4.1055 5.2652,4 5,4 Z"
       id="path5"
       sodipodi:nodetypes="ssscssccss" />
    <path
       style="fill:currentColor"
       class="ColorScheme-Text"
       d="M 5,12 C 4.4477,12 4,11.552 4,11 4,10.735 4.1055,10.48 4.293,10.293 L 6.5067583,8.0792417 6.4452351,7.6066903 6.7533738,7.8048322 7.7315895,6.4681113 8.100449,6.485551 8.1894705,6.3965295 10.293,4.293 C 10.48,4.105 10.735,4 11,4 c 0.552,0 1,0.448 1,1 0,0.265 -0.105,0.52 -0.293,0.707 L 9.5189703,7.8950297 9.5724102,8.2644176 9.2611444,8.1528556 8.2630713,9.1509287 C 8.2453682,9.2539573 8.2421056,9.7454292 8.2244025,9.5416381 L 7.8949658,9.5190342 7.7818456,9.6321544 5.707,11.707 C 5.5195,11.895 5.2652,12 5,12 Z"
       id="path7"
       sodipodi:nodetypes="ssccccccccsscccccccccs" />
  </g>
</svg>
