<?xml version="1.0" encoding="UTF-8" standalone="no"?>
<svg
   width="24"
   height="24"
   version="1.1"
   id="svg9"
   sodipodi:docname="view-financial-account-savings.svg"
   inkscape:version="1.1.2 (0a00cf5339, 2022-02-04)"
   xmlns:inkscape="http://www.inkscape.org/namespaces/inkscape"
   xmlns:sodipodi="http://sodipodi.sourceforge.net/DTD/sodipodi-0.dtd"
   xmlns="http://www.w3.org/2000/svg"
   xmlns:svg="http://www.w3.org/2000/svg">
  <sodipodi:namedview
     id="namedview11"
     pagecolor="#ffffff"
     bordercolor="#666666"
     borderopacity="1.0"
     inkscape:pageshadow="2"
     inkscape:pageopacity="0.0"
     inkscape:pagecheckerboard="0"
     showgrid="false"
     inkscape:zoom="34.458333"
     inkscape:cx="11.956469"
     inkscape:cy="12"
     inkscape:window-width="954"
     inkscape:window-height="519"
     inkscape:window-x="961"
     inkscape:window-y="556"
     inkscape:window-maximized="1"
     inkscape:current-layer="g7" />
  <defs
     id="defs3">
    <style
       id="current-color-scheme"
       type="text/css">
   .ColorScheme-Text { color:#eeeeec; } .ColorScheme-Highlight { color:#367bf0; } .ColorScheme-NeutralText { color:#ffcc44; } .ColorScheme-PositiveText { color:#3db47e; } .ColorScheme-NegativeText { color:#dd4747; }
  </style>
  </defs>
  <g
     transform="translate(4,4)"
     id="g7">
    <path
       style="fill:currentColor"
       class="ColorScheme-Text"
       d="M 7.5,2 C 6.1192881,2 5,3.1192881 5,4.5 5.0013741,4.6680813 5.019696,4.8355956 5.0546875,5 H 9.9492188 C 9.9828978,4.8354622 9.9999108,4.6679493 10,4.5 10,3.1192881 8.8807119,2 7.5,2 Z m 5.240355,2.0167 c -0.08799,0 0.08499,-0.011018 0,0 C 11.758451,4.1439891 11,4.9834217 11,6 H 7 C 5.1774378,6.0017511 3.5864993,7.2353107 3.1308594,9 H 2.0957031 2.0917969 C 1.2611397,8.9907141 1.0421402,8.6412855 1.0058594,8.4140625 c -0.0181801,-0.1138596 0.010504,-0.2091257 0.072266,-0.28125 0.061762,-0.072124 0.16093,-0.138756 0.3808594,-0.140625 0.6746337,0.00268 0.666697,-1.0132222 -0.00781,-1 C 0.98941513,6.9961117 0.57754584,7.1797493 0.31835938,7.4824219 0.05917286,7.7850945 -0.04382037,8.1877329 0.01757813,8.5722656 0.1403751,9.3413311 0.92304425,9.9890988 2.0878906,10 c 0.0013,5e-6 0.0026,5e-6 0.00391,0 H 3 c 0.00175,1.822562 1.2353106,3.413501 3,3.869141 V 15 h 2 v -1 h 2 v 1 h 2 V 13.867188 C 13.03652,13.598967 13.922246,12.926406 14.458984,12 H 16 V 9 H 14.867188 C 14.598967,7.9634803 13.926406,7.0777538 13,6.5410156 v -2.21241 z M 12.5,8 C 12.776142,8 13,8.2238576 13,8.5 13,8.7761424 12.776142,9 12.5,9 12.223858,9 12,8.7761424 12,8.5 12,8.2238576 12.223858,8 12.5,8 Z"
       id="path5"
       sodipodi:nodetypes="sccccscscccccssccssccccccccccccccccccsssss" />
  </g>
</svg>
