<?xml version="1.0" encoding="UTF-8" standalone="no"?>
<svg
   width="24"
   height="24"
   version="1.1"
   id="svg7"
   sodipodi:docname="vm-snapshot-autoprotect.svg"
   inkscape:version="1.1.2 (0a00cf5339, 2022-02-04)"
   xmlns:inkscape="http://www.inkscape.org/namespaces/inkscape"
   xmlns:sodipodi="http://sodipodi.sourceforge.net/DTD/sodipodi-0.dtd"
   xmlns="http://www.w3.org/2000/svg"
   xmlns:svg="http://www.w3.org/2000/svg">
  <sodipodi:namedview
     id="namedview9"
     pagecolor="#ffffff"
     bordercolor="#666666"
     borderopacity="1.0"
     inkscape:pageshadow="2"
     inkscape:pageopacity="0.0"
     inkscape:pagecheckerboard="0"
     showgrid="false"
     inkscape:zoom="34.458333"
     inkscape:cx="20.691657"
     inkscape:cy="7.8210399"
     inkscape:window-width="954"
     inkscape:window-height="519"
     inkscape:window-x="961"
     inkscape:window-y="556"
     inkscape:window-maximized="1"
     inkscape:current-layer="svg7" />
  <defs
     id="defs3">
    <style
       id="current-color-scheme"
       type="text/css">
   .ColorScheme-Text { color:#eeeeec; } .ColorScheme-Highlight { color:#367bf0; } .ColorScheme-NeutralText { color:#ffcc44; } .ColorScheme-PositiveText { color:#3db47e; } .ColorScheme-NegativeText { color:#dd4747; }
  </style>
  </defs>
  <path
     style="fill:currentColor"
     class="ColorScheme-Text"
     d="M 8.5,4 C 7.132132,4 6,5.1321324 6,6.5 V 9.050781 C 4.866938,9.28618 4,10.303116 4,11.5 v 6 C 4,18.867868 5.132132,20 6.5,20 h 6 c 0.338022,0 0.661266,-0.07055 0.957031,-0.195312 C 12.91982,19.30869 12.51156,18.689262 12.267578,18 H 6.5 C 6.205537,18 6,17.794463 6,17.5 v -6 C 6,11.205537 6.205537,11 6.5,11 h 2.5 2 1.5 c 0.294463,0 0.5,0.205537 0.5,0.5 v 1.829456 0 c 0.08718,-0.108206 0.179077,0.144068 0.275345,0.0449 C 13.756159,12.879034 14.345907,12.499571 15,12.267578 V 11.5 c 0,-1.063106 -0.683851,-1.9838176 -1.630733,-2.3413159 -0.271444,-0.1024847 0.304763,0 0,0 L 13.403607,9 H 17.5 C 17.794463,9 18,9.205537 18,9.5 v 2.757813 c 0.686952,0.242843 1.303166,0.648303 1.796995,1.179865 0.07019,0.07555 0.137908,-0.09212 0.203005,-0.01158 v 0 V 9.5 C 20,8.132132 18.867868,7 17.5,7 H 17 V 6.5 C 17,5.1321324 15.867868,4 14.5,4 Z m 0,2 h 6 C 14.794463,6 15,6.2055368 15,6.5 V 7 H 11.5 C 10.303116,7 9.2861799,7.8669384 9.0507812,9 H 8 V 6.5 C 8,6.2055368 8.2055368,6 8.5,6 Z m 8,7 C 14.567003,13 13,14.567003 13,16.5 13,18.432997 14.567003,20 16.5,20 18.432997,20 20,18.432997 20,16.5 20,14.567003 18.432997,13 16.5,13 Z m 0,1 c 1.380712,0 2.5,1.119288 2.5,2.5 0,1.380712 -1.119288,2.5 -2.5,2.5 -0.168147,-0.002 -0.335662,-0.02099 -0.5,-0.05664 v -1.029297 c 0.160578,0.05683 0.329663,0.08589 0.5,0.08594 0.828427,0 1.5,-0.671573 1.5,-1.5 0,-0.828427 -0.671573,-1.5 -1.5,-1.5 -0.611161,0 -1.136506,0.365686 -1.370202,0.890055 -0.01601,0.03593 0.115177,0.0726 0.10197,0.109945 v 0 h 0.457793 v 0 l 0.02959,0.280848 -1.426551,1.426551 v 0 L 14,17.677013 V 16.5 L 14.05078,16 v 0 C 14.282446,14.858918 15.290548,14 16.5,14 Z"
     id="path5"
     sodipodi:nodetypes="sscssssccssssccssccscssccsscsccsscsssssscsccsssssssssccccssscccccccccccs" />
</svg>
