<?xml version="1.0" encoding="UTF-8" standalone="no"?>
<svg
   width="24"
   height="24"
   version="1.1"
   id="svg8"
   sodipodi:docname="vm-snapshot-revert.svg"
   inkscape:version="1.1.2 (0a00cf5339, 2022-02-04)"
   xmlns:inkscape="http://www.inkscape.org/namespaces/inkscape"
   xmlns:sodipodi="http://sodipodi.sourceforge.net/DTD/sodipodi-0.dtd"
   xmlns="http://www.w3.org/2000/svg"
   xmlns:svg="http://www.w3.org/2000/svg">
  <sodipodi:namedview
     id="namedview10"
     pagecolor="#ffffff"
     bordercolor="#666666"
     borderopacity="1.0"
     inkscape:pageshadow="2"
     inkscape:pageopacity="0.0"
     inkscape:pagecheckerboard="0"
     showgrid="false"
     inkscape:zoom="34.458333"
     inkscape:cx="11.956469"
     inkscape:cy="18.964933"
     inkscape:window-width="954"
     inkscape:window-height="519"
     inkscape:window-x="961"
     inkscape:window-y="556"
     inkscape:window-maximized="1"
     inkscape:current-layer="svg8" />
  <defs
     id="defs4">
    <style
       id="current-color-scheme"
       type="text/css">
   .ColorScheme-Text { color:#eeeeec; } .ColorScheme-Highlight { color:#367bf0; } .ColorScheme-NeutralText { color:#ffcc44; } .ColorScheme-PositiveText { color:#3db47e; } .ColorScheme-NegativeText { color:#dd4747; }
  </style>
    <style
       id="current-color-scheme-3"
       type="text/css">
   .ColorScheme-Text { color:#eeeeec; } .ColorScheme-Highlight { color:#367bf0; } .ColorScheme-NeutralText { color:#ffcc44; } .ColorScheme-PositiveText { color:#3db47e; } .ColorScheme-NegativeText { color:#dd4747; }
  </style>
  </defs>
  <path
     style="fill:currentColor"
     class="ColorScheme-Text"
     d="M 8.5,4 C 7.132132,4 6,5.1321324 6,6.5 V 9.050781 C 4.866938,9.28618 4,10.303116 4,11.5 v 6 C 4,18.867868 5.132132,20 6.5,20 h 6 c 0.338022,0 0.661266,-0.07055 0.957031,-0.195312 C 12.91982,19.308688 12.51156,18.689262 12.267578,18 H 6.5 C 6.205537,18 6,17.794463 6,17.5 v -6 C 6,11.205537 6.205537,11 6.5,11 h 2.5 2 1.5 c 0.294463,0 0.5,0.205537 0.5,0.5 v 1.654986 l 0.396483,0.09922 c 0.123079,-0.152771 -0.140907,0.134554 0,0 C 13.853856,12.817456 14.399843,12.480441 15,12.267578 V 11.5 C 15,10.507259 14.403678,9.6386851 13.553703,9.2369495 13.232524,9.085146 13.899737,9 13.52461,9 V 9 H 17.5 C 17.794463,9 18,9.205537 18,9.5 v 2.757813 c 0.61656,0.217959 1.176136,0.566915 1.641387,1.020468 0.126795,0.123608 0.246585,-0.229599 0.358613,-0.09099 v 0 V 9.5 C 20,8.132132 18.867868,7 17.5,7 H 17 V 6.5 C 17,5.1321324 15.867868,4 14.5,4 Z m 0,2 h 6 C 14.794463,6 15,6.2055368 15,6.5 V 7 H 11.5 C 10.303116,7 9.2861799,7.8669384 9.0507812,9 H 8 V 6.5 C 8,6.2055368 8.2055368,6 8.5,6 Z m 8,7 C 14.567003,13 13,14.567003 13,16.5 13,18.432997 14.567003,20 16.5,20 18.432997,20 20,18.432997 20,16.5 20,14.567003 18.432997,13 16.5,13 Z M 16,14.467332 v 0 V 15 h 1.214844 C 18.286274,15 19,15.899608 19,17.099609 c 0,0.910418 -0.570696,1.469082 -0.99046,1.756861 -0.244172,0.167398 0,0 0,0 0,0 -0.324676,0.0579 -0.202777,-0.192819 0.143853,-0.295877 0.300659,-0.682954 0.300659,-0.964432 C 18.107422,17.179218 17.999442,17 17.035156,17 H 16 v 0.372622 l -0.380751,0.0031 v 0 l -1.354153,-1.150501 v 0 l 0.05507,-0.529452 1.284225,-1.220264 z"
     id="path6"
     sodipodi:nodetypes="sscssssccssssccssccscssccsscsccsscsssssscsccssssssscccssscsssccccccccc" />
</svg>
