<?xml version="1.0" encoding="UTF-8" standalone="no"?>
<svg
   width="24"
   height="24"
   version="1.1"
   id="svg7"
   sodipodi:docname="vm-snapshot-current.svg"
   inkscape:version="1.1.2 (0a00cf5339, 2022-02-04)"
   xmlns:inkscape="http://www.inkscape.org/namespaces/inkscape"
   xmlns:sodipodi="http://sodipodi.sourceforge.net/DTD/sodipodi-0.dtd"
   xmlns="http://www.w3.org/2000/svg"
   xmlns:svg="http://www.w3.org/2000/svg">
  <sodipodi:namedview
     id="namedview9"
     pagecolor="#ffffff"
     bordercolor="#666666"
     borderopacity="1.0"
     inkscape:pageshadow="2"
     inkscape:pageopacity="0.0"
     inkscape:pagecheckerboard="0"
     showgrid="false"
     inkscape:zoom="34.458333"
     inkscape:cx="11.956469"
     inkscape:cy="9.6783555"
     inkscape:window-width="954"
     inkscape:window-height="519"
     inkscape:window-x="961"
     inkscape:window-y="556"
     inkscape:window-maximized="1"
     inkscape:current-layer="svg7" />
  <defs
     id="defs3">
    <style
       id="current-color-scheme"
       type="text/css">
   .ColorScheme-Text { color:#eeeeec; } .ColorScheme-Highlight { color:#367bf0; } .ColorScheme-NeutralText { color:#ffcc44; } .ColorScheme-PositiveText { color:#3db47e; } .ColorScheme-NegativeText { color:#dd4747; }
  </style>
  </defs>
  <path
     style="fill:currentColor"
     class="ColorScheme-Text"
     d="M 8.5,4 C 7.132132,4 6,5.1321323 6,6.5 V 9.0507811 C 4.866938,9.2861801 4,10.303116 4,11.5 v 6 C 4,18.867868 5.132132,20 6.5,20 h 6 c 1.196884,0 2.21382,-0.866938 2.449219,-2 H 17.5 C 18.867868,18 20,16.867868 20,15.5 V 9.5000001 C 20,8.1321322 18.867868,7 17.5,7 H 17 V 6.5 C 17,5.1321323 15.867868,4 14.5,4 Z m 0,2 h 6 C 14.794463,6 15,6.2055367 15,6.5 V 7 H 11.5 C 10.303116,7 9.2861798,7.8669383 9.0507812,9.0000001 H 8 V 6.5 C 8,6.2055367 8.2055368,6 8.5,6 Z m 5.092903,3.2558962 0.0047,-0.2558961 H 17.5 c 0.294463,0 0.5,0.205537 0.5,0.5 V 15.5 C 18,15.794463 17.794463,16 17.5,16 H 15 v -4.5 c 0,-0.977409 -0.578045,-1.8344559 -1.407097,-2.2441038 -0.331193,-0.1636476 0.390458,0 0,0 z M 6.5,11 h 2.5 2 1.5 c 0.294463,0 0.5,0.205537 0.5,0.5 v 6 c 0,0.294463 -0.205537,0.5 -0.5,0.5 h -6 C 6.205537,18 6,17.794463 6,17.5 v -6 C 6,11.205537 6.205537,11 6.5,11 Z"
     id="path5"
     sodipodi:nodetypes="sscsssscsssscsssssscsccssccsssscsscsccssssssss" />
</svg>
