<?xml version="1.0" encoding="UTF-8" standalone="no"?>
<svg
   width="24"
   height="24"
   version="1.1"
   id="svg8"
   sodipodi:docname="vm-snapshots-manage.svg"
   inkscape:version="1.1.2 (0a00cf5339, 2022-02-04)"
   xmlns:inkscape="http://www.inkscape.org/namespaces/inkscape"
   xmlns:sodipodi="http://sodipodi.sourceforge.net/DTD/sodipodi-0.dtd"
   xmlns="http://www.w3.org/2000/svg"
   xmlns:svg="http://www.w3.org/2000/svg">
  <sodipodi:namedview
     id="namedview10"
     pagecolor="#ffffff"
     bordercolor="#666666"
     borderopacity="1.0"
     inkscape:pageshadow="2"
     inkscape:pageopacity="0.0"
     inkscape:pagecheckerboard="0"
     showgrid="false"
     inkscape:zoom="256"
     inkscape:cx="16.90625"
     inkscape:cy="15.970703"
     inkscape:window-width="954"
     inkscape:window-height="519"
     inkscape:window-x="961"
     inkscape:window-y="556"
     inkscape:window-maximized="1"
     inkscape:current-layer="svg8" />
  <defs
     id="defs4">
    <style
       id="current-color-scheme"
       type="text/css">
   .ColorScheme-Text { color:#eeeeec; } .ColorScheme-Highlight { color:#367bf0; } .ColorScheme-NeutralText { color:#ffcc44; } .ColorScheme-PositiveText { color:#3db47e; } .ColorScheme-NegativeText { color:#dd4747; }
  </style>
    <style
       id="current-color-scheme-3"
       type="text/css">
   .ColorScheme-Text { color:#eeeeec; } .ColorScheme-Highlight { color:#367bf0; } .ColorScheme-NeutralText { color:#ffcc44; } .ColorScheme-PositiveText { color:#3db47e; } .ColorScheme-NegativeText { color:#dd4747; }
  </style>
  </defs>
  <path
     style="fill:currentColor"
     class="ColorScheme-Text"
     d="M 8.5,4 C 7.132132,4 6,5.1321324 6,6.5 V 9.050781 C 4.866938,9.28618 4,10.303116 4,11.5 v 6 C 4,18.867868 5.132132,20 6.5,20 h 6 c 0.338022,0 0.661266,-0.07055 0.957031,-0.195312 C 12.91982,19.308687 12.51156,18.689262 12.267578,18 H 6.5 C 6.205537,18 6,17.794463 6,17.5 v -6 C 6,11.205537 6.205537,11 6.5,11 h 2.5 2 1.5 c 0.294463,0 0.5,0.205537 0.5,0.5 v 1.954589 l 0.134424,0.07179 c 0.04364,-0.05417 -0.04596,0.05193 0,0 C 13.638861,12.956395 14.280503,12.522768 15,12.267578 V 11.5 C 15,10.370914 14.22863,9.4024451 13.190027,9.0987299 12.97038,9.0344994 13.441209,9 13.202427,9 V 9 H 17.5 C 17.794463,9 18,9.205537 18,9.5 v 2.757813 c 0.671753,0.23747 1.275863,0.63044 1.764037,1.144767 0.082,0.08639 0.160732,-0.114077 0.235963,-0.021 v 0 L 20,9.5 C 20,8.132132 18.867868,7 17.5,7 H 17 V 6.5 C 17,5.1321324 15.867868,4 14.5,4 Z m 0,2 h 6 C 14.794463,6 15,6.2055368 15,6.5 V 7 H 11.5 C 10.303116,7 9.2861799,7.8669384 9.0507812,9 H 8 V 6.5 C 8,6.2055368 8.2055368,6 8.5,6 Z m 8,7 C 14.567003,13 13,14.567003 13,16.5 13,18.432997 14.567003,20 16.5,20 18.432997,20 20,18.432997 20,16.5 20,14.567003 18.432997,13 16.5,13 Z M 15,15 h 1 l 0.453636,0.453636 0.08834,0.0044 v 0 L 17,15 h 1 v 3 h -1 v -1.552481 0 l -0.08482,-5.51e-4 -0.319414,0.425469 -0.184199,0.0098 v 0 L 16.083633,16.445386 16,16.433628 v 0 V 18 h -1 z"
     id="path6"
     sodipodi:nodetypes="sscssssccssssccssccscssccsscsccsscsssssscsccsssssssccccccccccccccccccccc" />
</svg>
