<?xml version="1.0" encoding="UTF-8" standalone="no"?>
<svg
   width="24"
   height="24"
   version="1.1"
   id="svg9"
   sodipodi:docname="vmware-replay-speed-normal.svg"
   inkscape:version="1.1.2 (0a00cf5339, 2022-02-04)"
   xmlns:inkscape="http://www.inkscape.org/namespaces/inkscape"
   xmlns:sodipodi="http://sodipodi.sourceforge.net/DTD/sodipodi-0.dtd"
   xmlns="http://www.w3.org/2000/svg"
   xmlns:svg="http://www.w3.org/2000/svg">
  <sodipodi:namedview
     id="namedview11"
     pagecolor="#ffffff"
     bordercolor="#666666"
     borderopacity="1.0"
     inkscape:pageshadow="2"
     inkscape:pageopacity="0.0"
     inkscape:pagecheckerboard="0"
     showgrid="false"
     inkscape:zoom="34.458333"
     inkscape:cx="11.898428"
     inkscape:cy="12"
     inkscape:window-width="954"
     inkscape:window-height="519"
     inkscape:window-x="961"
     inkscape:window-y="556"
     inkscape:window-maximized="1"
     inkscape:current-layer="svg9" />
  <defs
     id="defs3">
    <style
       id="current-color-scheme"
       type="text/css">
   .ColorScheme-Text { color:#eeeeec; } .ColorScheme-Highlight { color:#367bf0; } .ColorScheme-NeutralText { color:#ffcc44; } .ColorScheme-PositiveText { color:#3db47e; } .ColorScheme-NegativeText { color:#dd4747; }
  </style>
  </defs>
  <path
     style="fill:currentColor"
     class="ColorScheme-Text"
     transform="matrix(0.72168785,0,0,1,3.6338586,4.711987)"
     d="m 6.7948615,7.6579109 v 0 L 3.9714419,9.288013 1.3453705,10.804176 v 0 L 0.50734043,10.537741 V 7.2880129 3.8709204 L 1.3227514,3.7587909 v 0 l 2.6486907,1.5292222 2.8402555,1.6398223 z"
     id="path5"
     sodipodi:nodetypes="ccccccccccccc" />
  <path
     style="opacity:0.36;fill:currentColor"
     class="ColorScheme-Text"
     d="M 9.5527852,8.4422281 9,8.7747347 V 12 v 3.296451 0 L 9.7110144,15.431189 11.5,14 13.574471,12.340423 v 0 L 13.481833,11.585467 11.5,10 Z m 5.1340268,7.0083229 v 0 0 L 16.5,14 l 2.000684,-1.600547 0.04143,-0.765762 v 0 L 16.5,10 14.689027,8.5512219 14,8.7021284 v 0 6.4777536 z"
     id="path7"
     sodipodi:nodetypes="ccccccccccccccccccccccccc" />
</svg>
