<?xml version="1.0" encoding="UTF-8" standalone="no"?>
<svg
   width="24"
   height="24"
   version="1.1"
   id="svg7"
   sodipodi:docname="vmware-component.svg"
   inkscape:version="1.1.2 (0a00cf5339, 2022-02-04)"
   xmlns:inkscape="http://www.inkscape.org/namespaces/inkscape"
   xmlns:sodipodi="http://sodipodi.sourceforge.net/DTD/sodipodi-0.dtd"
   xmlns="http://www.w3.org/2000/svg"
   xmlns:svg="http://www.w3.org/2000/svg">
  <sodipodi:namedview
     id="namedview9"
     pagecolor="#ffffff"
     bordercolor="#666666"
     borderopacity="1.0"
     inkscape:pageshadow="2"
     inkscape:pageopacity="0.0"
     inkscape:pagecheckerboard="0"
     showgrid="false"
     inkscape:zoom="34.458333"
     inkscape:cx="11.956469"
     inkscape:cy="14.321644"
     inkscape:window-width="954"
     inkscape:window-height="519"
     inkscape:window-x="961"
     inkscape:window-y="556"
     inkscape:window-maximized="1"
     inkscape:current-layer="svg7" />
  <defs
     id="defs3">
    <style
       id="current-color-scheme"
       type="text/css">
   .ColorScheme-Text { color:#eeeeec; } .ColorScheme-Highlight { color:#367bf0; } .ColorScheme-NeutralText { color:#ffcc44; } .ColorScheme-PositiveText { color:#3db47e; } .ColorScheme-NegativeText { color:#dd4747; }
  </style>
  </defs>
  <path
     style="fill:currentColor"
     class="ColorScheme-Text"
     d="M 10.203125,5.000106 8.2792969,5.6141529 C 4.2136867,6.9264389 4.08235,6.9731154 4.03125,7.1278247 3.99261,7.2447444 4.1540525,7.436678 4.8515625,8.1082931 5.3288925,8.5679011 5.71875,8.9782521 5.71875,9.020403 c 0,0.04215 -0.386475,0.438281 -0.859375,0.880859 C 4.386485,10.343839 4,10.748794 4,10.801653 c 0,0.05286 0.054294,0.141109 0.1210938,0.195312 0.06676,0.0542 1.437935,0.524771 3.046875,1.044922 1.6089399,0.520151 2.9568402,0.948099 2.9941402,0.951172 0.03731,0.0031 0.466135,-0.372055 0.953125,-0.833984 l 0.601188,-0.571991 0.4875,-0.07612 v 0 l 0.690609,0.655927 c 0.492001,0.46669 0.937335,0.833142 0.990235,0.814453 0.05286,-0.01869 1.391439,-0.446554 2.974609,-0.951172 C 19.589975,11.159824 20,11.00061 20,10.813372 20,10.769482 19.613515,10.363897 19.140625,9.911028 18.667725,9.458158 18.28125,9.056035 18.28125,9.016497 c 0,-0.03954 0.389857,-0.4485959 0.867188,-0.9082039 C 19.844758,7.4378151 20.00725,7.2442296 19.96875,7.1278247 19.93023,7.0112845 19.491018,6.8416869 17.736328,6.2664966 16.534898,5.8726698 15.155575,5.4246299 14.671875,5.272356 L 13.792969,5.0040122 12.896484,5.8563403 12.197793,6.5245874 v 0 l -0.456988,-0.059314 -0.639242,-0.612839 z m 1.810547,1.9929531 2.230469,0.7421875 c 0.713678,0.2372111 1.355811,0.4527556 1.770812,0.5943498 0.298023,0.1016825 -0.276318,0.4607106 0.104364,0.3159926 0,0 0.245025,-0.085953 0,0 -0.393331,0.1379782 -1.053928,0.3603201 -1.802911,0.605282 -1.215559,0.3975601 -2.24182,0.731578 -2.28125,0.742188 C 11.961736,10.012801 8.9030502,9.0128233 7.850909,8.6377298 7.6260637,8.5575708 8.2689716,8.2248281 7.884486,8.3618731 c 0.350909,0.1388117 -0.2372873,0.081115 0,0 0.4102809,-0.1402518 1.1076424,-0.373242 1.8889517,-0.6305328 z m -0.210938,5.8906249 v 0 c -0.251564,0.238619 -0.48648,0.455024 -0.673828,0.619141 -0.09367,0.08206 -0.173593,0.150428 -0.25,0.210937 -0.0382,0.03025 -0.07292,0.05625 -0.128906,0.09375 -0.028,0.01875 -0.05771,0.04106 -0.123047,0.07422 -0.03267,0.01658 -0.07371,0.03653 -0.146484,0.06055 -0.03639,0.01201 -0.08199,0.02422 -0.144531,0.03516 -0.06207,0.01086 -0.25239,0.01176 -0.25586,0.01172 -0.0012,-9.6e-5 -0.1465875,-0.02252 -0.1660155,-0.02734 -0.019429,-0.0048 -0.0314,-0.0085 -0.042969,-0.01172 -0.023138,-0.0064 -0.043308,-0.01205 -0.068359,-0.01953 C 9.7526315,13.915612 9.687673,13.896892 9.607422,13.871982 9.4469196,13.822138 9.2237471,13.751487 8.9511719,13.664934 8.4060215,13.491828 7.6672235,13.253596 6.8613281,12.993059 c -0.327531,-0.105887 0.2993679,0.09888 0,0 2.571e-4,0.09134 -0.8568421,-0.100924 -0.8564563,-0.0068 0.00742,1.808717 0.038173,4.057297 0.075206,4.114259 0.039418,0.06062 1.3630086,0.533822 2.9394531,1.052734 h 0.00195 c 1.5765037,0.518882 2.9804687,0.846679 2.9804687,0.846679 v -0.01367 c 2.078469,-0.647602 5.902347,-1.870118 5.902347,-1.870118 C 17.976486,17.02769 18,16.431513 18,14.73134 c 0,-0.448913 -7.66e-4,-1.106082 -0.0029,-1.745658 -3.05e-4,-0.09122 -2.073247,-0.0958 -2.073609,-0.185647 -0.275667,0.08887 1.584002,0.07317 1.238625,0.183258 -0.791396,0.252249 -1.519876,0.486006 -2.058593,0.658203 -0.269359,0.0861 -0.491501,0.156653 -0.648438,0.207032 -0.156938,0.05038 -0.343607,0.114102 -0.236328,0.07617 -8.27e-4,2.92e-4 -0.16714,0.04577 -0.234375,0.05273 -0.06724,0.0069 -0.123587,0.0051 -0.171875,0.002 -0.09659,-0.0064 -0.161218,-0.02062 -0.212891,-0.03516 -0.103347,-0.02907 -0.156516,-0.05767 -0.201172,-0.08008 -0.08931,-0.04481 -0.137682,-0.07718 -0.1875,-0.111328 -0.09964,-0.06832 -0.187982,-0.137987 -0.291021,-0.222692 -0.206079,-0.169409 -0.452308,-0.389541 -0.712891,-0.636718 z"
     id="path5"
     sodipodi:nodetypes="cccsscscsccccccccscsccsccccccccccscsscscscccccscssscccscsscsccccccsscsssccccccscc" />
</svg>
