<?xml version="1.0" encoding="UTF-8" standalone="no"?>
<svg
   width="24"
   height="24"
   version="1.1"
   id="svg9"
   sodipodi:docname="web-browser.svg"
   inkscape:version="1.1.2 (0a00cf5339, 2022-02-04)"
   xmlns:inkscape="http://www.inkscape.org/namespaces/inkscape"
   xmlns:sodipodi="http://sodipodi.sourceforge.net/DTD/sodipodi-0.dtd"
   xmlns="http://www.w3.org/2000/svg"
   xmlns:svg="http://www.w3.org/2000/svg">
  <sodipodi:namedview
     id="namedview11"
     pagecolor="#ffffff"
     bordercolor="#666666"
     borderopacity="1.0"
     inkscape:pageshadow="2"
     inkscape:pageopacity="0.0"
     inkscape:pagecheckerboard="0"
     showgrid="false"
     inkscape:zoom="34.458333"
     inkscape:cx="11.956469"
     inkscape:cy="9.6783555"
     inkscape:window-width="954"
     inkscape:window-height="519"
     inkscape:window-x="961"
     inkscape:window-y="556"
     inkscape:window-maximized="1"
     inkscape:current-layer="g7" />
  <defs
     id="defs3">
    <style
       id="current-color-scheme"
       type="text/css">
   .ColorScheme-Text { color:#eeeeec; } .ColorScheme-Highlight { color:#367bf0; } .ColorScheme-NeutralText { color:#ffcc44; } .ColorScheme-PositiveText { color:#3db47e; } .ColorScheme-NegativeText { color:#dd4747; }
  </style>
  </defs>
  <g
     transform="matrix(1,0,0,1,4,4)"
     id="g7">
    <path
       style="fill:currentColor"
       class="ColorScheme-Text"
       d="M 8,1 C 4.134,1 1,4.134 1,8 c 0,3.866 3.134,7 7,7 3.866,0 7,-3.134 7,-7 C 15,4.134 11.866,1 8,1 Z M 7.5,2.9375 C 7.7185167,2.9089573 7.7137899,3.0183239 7.6470554,3.1692036 7.5704667,3.3423625 7.4122059,3.5701994 7.416,3.707 7.1822192,4.4542019 7.0908135,5.3332271 7.4386164,6.0514693 c 0.05567,0.1149627 -0.079392,-0.1055244 0,0 C 7.4649164,6.3374693 7.0408,6.3858 6.8926,6.2285 6.5605,6.0283 6.1677,5.5126 5.752,5.7539 5.3904,5.9793 5.247,6.463 5.5215,6.8145 5.9839,7.4294 6.78,7.634 7.4902,7.8145 8.263,8.0035 9.115,8.1148 9.7461,8.6406 10.238,9.116 10.21,9.879 10.092,10.502 9.8391,11.632 8.823,12.381 7.8223,12.832 7.2797,13.114 7.6022,12.232 7.4238,11.945 7.2927,11.33 6.9303,10.767 6.3809,10.449 6.0801,10.218 5.6844,10.076 5.4746,9.748 5.4178,9.3082 5.679,8.8609 5.9609,8.5352 6.0756,8.3071 6.8093,8.0491 6.2188,8.0078 5.1307,7.7782 3.9876,7.4686 3.1562,6.6875 3.6372,4.6919 5.431,3.0747 7.5,2.9375 Z m 4.403374,2.5385029 c 0.03187,0.020145 0.373696,-0.08643 0.442452,0.040557 0.179373,0.3312931 0.437365,0.926393 0.529174,1.2646398 0.163,0.6042 0.152,1.65 0,2.25 -0.058,0.2286 -0.351,0.1297 -0.375,0.1563 -0.025,0.0266 0.105,0.186 0,0 C 12.395,9.0016 12.06,8.6064 11.781,8.3125 10.977,7.464 10.851,7.0209 11.188,6.3438 c 0.108276,-0.2214143 0.457843,-0.6259411 0.715374,-0.8677971 0.139674,-0.1311723 -0.03235,-0.019692 0,0 z"
       id="path5"
       sodipodi:nodetypes="ssssscscsccccccccccccccccsccccccsc" />
  </g>
</svg>
