<?xml version="1.0" encoding="UTF-8" standalone="no"?>
<svg
   width="16"
   height="16"
   version="1.1"
   id="svg91350"
   sodipodi:docname="budgie-start-here-symbolic.svg"
   inkscape:version="1.1.2 (0a00cf5339, 2022-02-04)"
   xmlns:inkscape="http://www.inkscape.org/namespaces/inkscape"
   xmlns:sodipodi="http://sodipodi.sourceforge.net/DTD/sodipodi-0.dtd"
   xmlns="http://www.w3.org/2000/svg"
   xmlns:svg="http://www.w3.org/2000/svg">
  <defs
     id="defs91354" />
  <sodipodi:namedview
     id="namedview91352"
     pagecolor="#ffffff"
     bordercolor="#666666"
     borderopacity="1.0"
     inkscape:pageshadow="2"
     inkscape:pageopacity="0.0"
     inkscape:pagecheckerboard="0"
     showgrid="false"
     inkscape:zoom="146.19433"
     inkscape:cx="2.8215869"
     inkscape:cy="7.9996264"
     inkscape:window-width="1083"
     inkscape:window-height="873"
     inkscape:window-x="193"
     inkscape:window-y="31"
     inkscape:window-maximized="1"
     inkscape:current-layer="svg91350" />
  <path
     style="fill:#5c616c"
     d="M 8,0 C 3.581722,0 0,3.581722 0,8 c 0,4.418278 3.581722,8 8,8 4.418278,0 8,-3.581722 8,-8 C 16,3.581722 12.418278,0 8,0 Z m 1.3652344,4 c 2.0156306,0 3.1049996,1.3689722 3.6437496,2.5841152 0.01709,0.038539 0.15124,0.101467 0.167231,0.1396478 v 0 l 0.93225,0.1945346 v 0 l 0.03559,0.2451648 -0.941111,0.4321951 -0.131227,0.1922135 c 0.0039,0.042516 -0.0023,-0.042622 0,0 0.06331,1.1837614 -0.480751,2.402289 -1.214298,3.298067 C 11.127862,11.99287 10.16465,12.49964 9.0703125,12.794922 7.4896001,13.216752 5.6643146,12.994433 4.2558594,12.066406 3.435105,11.475843 2.7064596,10.600672 2.2910156,9.5566406 2.0271379,8.741063 2.0016246,8.022546 2.0657949,7.2185336 c 0.00265,-0.033196 -0.071695,-0.034559 0.00713,-0.096574 0.048574,-0.038213 -0.024005,-0.086179 -0.02079,-0.1177646 0.015532,-0.1526111 -0.03307,0.2470609 -0.00913,0.094418 0.010384,0.037825 0.028358,0.00596 0.048574,-0.038213 0.014577,-0.031855 0.030319,-0.070112 0.045222,-0.093262 0.042184,-0.065531 0.090474,-0.1428111 0.1298262,-0.058948 0.22848,0.4869114 0.6073507,0.9767986 1.0380534,1.1048721 0.5674353,0.1687322 1.2873138,0.08316 1.7128906,-0.328125 C 5.9193947,6.8096386 6.4245903,5.234303 7.4277344,4.5488281 8.0053026,4.1164516 8.6863392,4 9.3652344,4 Z M 10,5 C 9.4477156,5 9,5.4477155 9,6 9,6.5522844 9.4477156,7 10,7 10.552285,7 11,6.5522844 11,6 11,5.4477155 10.552285,5 10,5 Z"
     id="path91348"
     sodipodi:nodetypes="ssssssscccccccsccccssscssssccssssss" />
</svg>
