<?xml version="1.0" encoding="UTF-8" standalone="no"?>
<svg
   width="16"
   height="16"
   version="1.1"
   id="svg2759106"
   sodipodi:docname="folder-music-symbolic.svg"
   inkscape:version="1.1.2 (0a00cf5339, 2022-02-04)"
   xmlns:inkscape="http://www.inkscape.org/namespaces/inkscape"
   xmlns:sodipodi="http://sodipodi.sourceforge.net/DTD/sodipodi-0.dtd"
   xmlns="http://www.w3.org/2000/svg"
   xmlns:svg="http://www.w3.org/2000/svg">
  <defs
     id="defs2759110" />
  <sodipodi:namedview
     id="namedview2759108"
     pagecolor="#ffffff"
     bordercolor="#666666"
     borderopacity="1.0"
     inkscape:pageshadow="2"
     inkscape:pageopacity="0.0"
     inkscape:pagecheckerboard="0"
     showgrid="false"
     inkscape:zoom="51.6875"
     inkscape:cx="8"
     inkscape:cy="8"
     inkscape:window-width="1822"
     inkscape:window-height="928"
     inkscape:window-x="0"
     inkscape:window-y="35"
     inkscape:window-maximized="1"
     inkscape:current-layer="svg2759106" />
  <path
     style="fill:#5c616c"
     d="M 5.3858237,1 5,1.3555703 V 2 8.9040631 L 4.7953664,9.1203894 c -0.068083,-0.025531 0.068468,0.020812 0,0 C 4.5420238,9.0433824 4.2834069,9 4,9 2.34,9 1,10.34 1,12 c 0,1.66 1.34,3 3,3 1.66,0 3,-1.34 3,-3 v -6.7392549 0 L 7.2724456,5 H 12.760887 L 13,5.2311283 v 0 3.7309157 l -0.1975,0.1605231 c -0.1975,-0.067433 0.06606,0.020253 0,0 C 12.546877,9.0442008 12.286067,9 12,9 c -1.66,0 -3,1.34 -3,3 0,1.66 1.34,3 3,3 1.66,0 3,-1.34 3,-3 v -10.6608541 0 L 14.684763,1 H 14 Z"
     id="path2759104"
     sodipodi:nodetypes="cccccsssssccccccccsssssccccc" />
</svg>
