<?xml version="1.0" encoding="UTF-8" standalone="no"?>
<svg
   width="16"
   height="16"
   version="1.1"
   id="svg2274803"
   sodipodi:docname="folder-publicshare-symbolic.svg"
   inkscape:version="1.1.2 (0a00cf5339, 2022-02-04)"
   xmlns:inkscape="http://www.inkscape.org/namespaces/inkscape"
   xmlns:sodipodi="http://sodipodi.sourceforge.net/DTD/sodipodi-0.dtd"
   xmlns="http://www.w3.org/2000/svg"
   xmlns:svg="http://www.w3.org/2000/svg">
  <defs
     id="defs2274807" />
  <sodipodi:namedview
     id="namedview2274805"
     pagecolor="#ffffff"
     bordercolor="#666666"
     borderopacity="1.0"
     inkscape:pageshadow="2"
     inkscape:pageopacity="0.0"
     inkscape:pagecheckerboard="0"
     showgrid="false"
     inkscape:zoom="51.6875"
     inkscape:cx="7.9903265"
     inkscape:cy="8"
     inkscape:window-width="1920"
     inkscape:window-height="1051"
     inkscape:window-x="0"
     inkscape:window-y="29"
     inkscape:window-maximized="1"
     inkscape:current-layer="svg2274803" />
  <path
     style="fill:#5c616c"
     d="M 2,1 C 2,1 1,1 1,2 v 11 c 0,0 0,1 1,1 h 12 c 0,0 1,0 1,-1 V 4 C 15,3 14,3 14,3 H 9.1777698 V 3 L 8.8785733,2.8785733 7.1123999,1.1123999 v 0 L 6.8571526,1 Z m 8.5,5 C 11.33,6 12,6.67 12,7.5 12,8.33 11.33,9 10.5,9 9.67,9 9,8.33 9,7.5 9,6.67 9.67,6 10.5,6 Z m 0,4 C 13,10 13,11.5 13,11.5 V 12 H 8 v -0.5 c 0,0 0,-1.5 2.5,-1.5 z"
     id="path2274801"
     sodipodi:nodetypes="cscscssccccccccssssssccccs" />
</svg>
