<?xml version="1.0" encoding="UTF-8" standalone="no"?>
<svg
   width="16"
   height="16"
   version="1.1"
   id="svg771605"
   sodipodi:docname="network-workgroup-symbolic.svg"
   inkscape:version="1.1.2 (0a00cf5339, 2022-02-04)"
   xmlns:inkscape="http://www.inkscape.org/namespaces/inkscape"
   xmlns:sodipodi="http://sodipodi.sourceforge.net/DTD/sodipodi-0.dtd"
   xmlns="http://www.w3.org/2000/svg"
   xmlns:svg="http://www.w3.org/2000/svg">
  <defs
     id="defs771609" />
  <sodipodi:namedview
     id="namedview771607"
     pagecolor="#ffffff"
     bordercolor="#666666"
     borderopacity="1.0"
     inkscape:pageshadow="2"
     inkscape:pageopacity="0.0"
     inkscape:pagecheckerboard="0"
     showgrid="false"
     inkscape:zoom="51.6875"
     inkscape:cx="7.9903265"
     inkscape:cy="8"
     inkscape:window-width="1920"
     inkscape:window-height="1051"
     inkscape:window-x="0"
     inkscape:window-y="29"
     inkscape:window-maximized="1"
     inkscape:current-layer="svg771605" />
  <path
     style="fill:#5c616c"
     d="M 8,1 C 4.13,1 1,4.13 1,8 c 0,3.87 3.13,7 7,7 3.87,0 7,-3.13 7,-7 C 15,4.13 11.87,1 8,1 Z M 7.5,2.94 c 0.07,-0.01 -0.07,0 0,0 0.01,0.03 0.17,0.14 0.09,0.31 -0.48,1.06 -0.51,2.3 -0.06,2.97 0.08,0.12 -0.1346467,0.075224 -0.1346467,0.095224 0,0.01 -0.029411,-0.2247747 0.075235,-0.039998 C 7.5839324,6.4753582 7.05,6.36 6.59,6 6.39,5.84 6.13,5.71 6.03,5.69 5.87,5.66 5.83,5.67 5.62,5.87 5.43,6.07 5.37,6.17 5.37,6.34 c 0,0.67 0.79,1.19 2.25,1.5 1.99,0.42 2.48,0.8 2.54,1.85 C 10.23,11 9.53,11.99 8,12.75 7.82,12.84 7.5,12.59 7.62,12.91 L 8,12.75 7.5,12.59 c 0,0 -0.27,-1.41 -0.69,-1.81 C 6.7,10.67 6.39,10.45 6.13,10.28 5.86,10.12 5.59,9.93 5.53,9.84 5.43,9.71 5.42,9.63 5.5,9.37 5.64,8.92 5.8,8.66 6.13,8.37 6.29,8.22 6.46,8.1 6.5,8.09 6.54,8.09 6.28,8.01 5.91,7.94 5.53,7.86 4.97,7.7 4.69,7.59 4.2312239,7.4255331 3.6450685,7.1112082 3.3206919,6.8416044 c -0.050359,-0.041855 0,0 -0.1306919,-0.1216044 v 0 C 3.2062864,6.6539972 3.193877,6.5585086 3.2127427,6.4935636 3.6340571,5.0431893 4.6912884,3.863856 6.06,3.28 6.36,3.15 6.67,3.07 7,3 7.16,2.97 7.33,2.95 7.5,2.94 Z m 4.800718,2.4936085 c -0.179449,0.1043734 -0.04809,-0.082927 0,0 C 12.477434,5.7383189 12.775672,6.4105467 12.87,6.78 c 0.17,0.61 0.16,1.65 0,2.25 -0.05,0.23 -0.35,0.13 -0.37,0.16 -0.03,0.03 0.1,0.18 0,0 C 12.4,9 12.06,8.61 11.78,8.31 10.98,7.46 10.85,7.02 11.19,6.34 c 0.125985,-0.2519705 0.565023,-0.7401032 0.820551,-0.9556266 0,0 0.266865,0.03629 0.290167,0.049235 z"
     id="path771603"
     sodipodi:nodetypes="sssssccccsscccscccccsccccccccsccsccccscccccssc" />
</svg>
