<?xml version="1.0" encoding="UTF-8" standalone="no"?>
<svg
   width="16"
   height="16"
   version="1.1"
   id="svg2923243"
   sodipodi:docname="places-symbolic.svg"
   inkscape:version="1.1.2 (0a00cf5339, 2022-02-04)"
   xmlns:inkscape="http://www.inkscape.org/namespaces/inkscape"
   xmlns:sodipodi="http://sodipodi.sourceforge.net/DTD/sodipodi-0.dtd"
   xmlns="http://www.w3.org/2000/svg"
   xmlns:svg="http://www.w3.org/2000/svg">
  <defs
     id="defs2923247" />
  <sodipodi:namedview
     id="namedview2923245"
     pagecolor="#ffffff"
     bordercolor="#666666"
     borderopacity="1.0"
     inkscape:pageshadow="2"
     inkscape:pageopacity="0.0"
     inkscape:pagecheckerboard="0"
     showgrid="false"
     inkscape:zoom="51.6875"
     inkscape:cx="8.019347"
     inkscape:cy="8.0096735"
     inkscape:window-width="1880"
     inkscape:window-height="966"
     inkscape:window-x="0"
     inkscape:window-y="29"
     inkscape:window-maximized="1"
     inkscape:current-layer="svg2923243" />
  <path
     style="fill:#5c616c"
     d="M 0.78515625,0 C 0.78515625,0 0,3.0055e-4 0,0.76953125 V 9.2304688 C 0,9.2304688 -5.5815e-4,10 0.78515625,10 H 3.7961074 v 0 L 4,9.8132369 V 6.7695312 C 4,6.0444397 4.5202474,5.4091637 4.953125,5.1972656 5.3860026,4.985367 5.7851562,5 5.7851562,5 h 4.2714848 l 0.728081,0.5652803 v 0 L 11,5.4804664 V 1.8066406 C 11.000001,1.0374099 10.214844,1 10.214844,1 H 6.1588904 V 1 L 5.8939574,0.91748661 4.8385137,0.09622947 v 0 L 4.5795078,0 Z M 5.7851562,6 C 5.7851562,6 5,6.0003006 5,6.7695312 V 15.230469 C 5,15.230469 4.9994419,16 5.7851562,16 H 15.214844 C 15.214844,16 16,15.999699 16,15.230469 V 7.8085938 C 16.000001,7.0393631 15.214844,7 15.214844,7 H 11.134215 L 10.857288,6.8889533 v 0 L 9.8618491,6.1143871 v 0 L 9.5719114,6 Z"
     id="path2923241"
     sodipodi:nodetypes="cscscccsscccccccccccccccscscsccccccccc" />
</svg>
