<?xml version="1.0" encoding="UTF-8" standalone="no"?>
<svg
   width="32"
   height="32"
   version="1"
   id="svg3046183"
   sodipodi:docname="folder-blue-development.svg"
   inkscape:version="1.1.2 (0a00cf5339, 2022-02-04)"
   xmlns:inkscape="http://www.inkscape.org/namespaces/inkscape"
   xmlns:sodipodi="http://sodipodi.sourceforge.net/DTD/sodipodi-0.dtd"
   xmlns="http://www.w3.org/2000/svg"
   xmlns:svg="http://www.w3.org/2000/svg">
  <defs
     id="defs3046187" />
  <sodipodi:namedview
     id="namedview3046185"
     pagecolor="#ffffff"
     bordercolor="#666666"
     borderopacity="1.0"
     inkscape:pageshadow="2"
     inkscape:pageopacity="0.0"
     inkscape:pagecheckerboard="0"
     showgrid="false"
     inkscape:zoom="25.84375"
     inkscape:cx="15.980653"
     inkscape:cy="16"
     inkscape:window-width="1920"
     inkscape:window-height="1051"
     inkscape:window-x="0"
     inkscape:window-y="29"
     inkscape:window-maximized="1"
     inkscape:current-layer="svg3046183" />
  <rect
     style="opacity:0.2"
     width="28"
     height="18"
     x="2"
     y="11"
     rx="1.4"
     ry="1.4"
     id="rect3046169" />
  <path
     style="fill:#4877b1"
     d="M 2,22.6 C 2,23.376 2.6244,24 3.4,24 H 28.6 C 29.376,24 30,23.376 30,22.6 V 7.4 C 30,6.6244 29.376,6 28.6,6 H 16 C 13.9,6 13.2,3 11.1,3 H 3.4 C 2.6244,3 2,3.6244 2,4.4"
     id="path3046171" />
  <rect
     style="opacity:0.2"
     width="28"
     height="18"
     x="2"
     y="9"
     rx="1.4"
     ry="1.4"
     id="rect3046173" />
  <rect
     style="fill:#e4e4e4"
     width="24"
     height="11"
     x="4"
     y="8"
     rx="1.4"
     ry="1.4"
     id="rect3046175" />
  <rect
     style="fill:#5294e2"
     width="28"
     height="18"
     x="2"
     y="10"
     rx="1.4"
     ry="1.4"
     id="rect3046177" />
  <path
     style="opacity:0.1;fill:#ffffff"
     d="M 3.4004,3 C 2.6248,3 2,3.6248 2,4.4004 V 5.4004 C 2,4.6248 2.6248,4 3.4004,4 H 11.1 C 13.2,4 13.9,7 16,7 H 28.6 C 29.375,7 30,7.6248 30,8.4004 V 7.4004 C 30,6.6248 29.375,6 28.6,6 H 16 C 13.9,6 13.2,3 11.1,3 Z"
     id="path3046179" />
  <path
     style="fill:#1d344f"
     d="m 14.738,14 h 0.472727 L 14.705378,14.388759 14.627,15.318 c -0.421175,0.154719 -0.81275,0.37925 -1.158,0.664 l -0.800494,-0.37405 -0.606118,0.152648 v 0 l -0.844696,1.449773 0.17682,0.64526 v 0 L 12.098,18.34 c -0.03984,0.218506 -0.06092,0.439965 -0.063,0.662 5.33e-4,0.223258 0.02027,0.446065 0.059,0.666 l -0.776216,0.532141 v 0 l -0.0865,0.614817 0.802308,1.377021 0.608234,0.214244 v 0 L 13.467,22.02 c 0.346607,0.284429 0.739556,0.508295 1.162,0.662 l 0.07622,0.921579 L 15.137274,24 v 0 l 1.752928,0 v 0 L 17.292622,23.636948 17.373,22.684 c 0.421175,-0.154719 0.81275,-0.37925 1.158,-0.664 l 0.846048,0.393934 v 0 l 0.572217,-0.194199 0.865327,-1.483809 -0.122521,-0.529768 v 0 L 19.904,19.664 c 0.03862,-0.219277 0.05835,-0.44141 0.059,-0.664 -6.47e-4,-0.22259 -0.02039,-0.444723 -0.059,-0.664 l 0.77921,-0.537043 0.09714,-0.590767 v 0 l -0.818346,-1.405476 v 0 L 19.377614,15.585802 18.531,15.98 c -0.346149,-0.283526 -0.738399,-0.506702 -1.16,-0.66 L 17.296953,14.423289 16.909542,14 v 0 H 15.210727 Z M 16,17 c 1.104569,0 2,0.895431 2,2 0,1.104569 -0.895431,2 -2,2 -1.104569,0 -2,-0.895431 -2,-2 0,-1.104569 0.895431,-2 2,-2 z"
     id="path3046181"
     sodipodi:nodetypes="ccccccccccccccccccccccccccccccccccccccccccccccccccccsssss" />
</svg>
