<?xml version="1.0" encoding="UTF-8" standalone="no"?>
<svg
   width="32"
   height="32"
   version="1"
   id="svg16"
   sodipodi:docname="folder-blue-books.svg"
   inkscape:version="1.1.2 (0a00cf5339, 2022-02-04)"
   xmlns:inkscape="http://www.inkscape.org/namespaces/inkscape"
   xmlns:sodipodi="http://sodipodi.sourceforge.net/DTD/sodipodi-0.dtd"
   xmlns="http://www.w3.org/2000/svg"
   xmlns:svg="http://www.w3.org/2000/svg">
  <defs
     id="defs20" />
  <sodipodi:namedview
     id="namedview18"
     pagecolor="#ffffff"
     bordercolor="#666666"
     borderopacity="1.0"
     inkscape:pageshadow="2"
     inkscape:pageopacity="0.0"
     inkscape:pagecheckerboard="0"
     showgrid="false"
     inkscape:zoom="73.097163"
     inkscape:cx="15.992413"
     inkscape:cy="20.376988"
     inkscape:window-width="1920"
     inkscape:window-height="1051"
     inkscape:window-x="0"
     inkscape:window-y="29"
     inkscape:window-maximized="1"
     inkscape:current-layer="svg16" />
  <rect
     style="opacity:0.2"
     width="28"
     height="18"
     x="2"
     y="11"
     rx="1.4"
     ry="1.4"
     id="rect2" />
  <path
     style="fill:#4877b1"
     d="M 2,22.6 C 2,23.376 2.6244,24 3.4,24 H 28.6 C 29.376,24 30,23.376 30,22.6 V 7.4 C 30,6.6244 29.376,6 28.6,6 H 16 C 13.9,6 13.2,3 11.1,3 H 3.4 C 2.6244,3 2,3.6244 2,4.4"
     id="path4" />
  <rect
     style="opacity:0.2"
     width="28"
     height="18"
     x="2"
     y="9"
     rx="1.4"
     ry="1.4"
     id="rect6" />
  <rect
     style="fill:#e4e4e4"
     width="24"
     height="11"
     x="4"
     y="8"
     rx="1.4"
     ry="1.4"
     id="rect8" />
  <rect
     style="fill:#5294e2"
     width="28"
     height="18"
     x="2"
     y="10"
     rx="1.4"
     ry="1.4"
     id="rect10" />
  <path
     style="opacity:0.1;fill:#ffffff"
     d="M 3.4004,3 C 2.6248,3 2,3.6248 2,4.4004 V 5.4004 C 2,4.6248 2.6248,4 3.4004,4 H 11.1 C 13.2,4 13.9,7 16,7 H 28.6 C 29.375,7 30,7.6248 30,8.4004 V 7.4004 C 30,6.6248 29.375,6 28.6,6 H 16 C 13.9,6 13.2,3 11.1,3 Z"
     id="path12" />
  <path
     style="fill:#1d344f"
     d="m 13,15 c -2,0 -2,1 -2,1 v 3.524832 0 c 0,0 0,0.271208 0.184224,0.04751 C 11.407919,19.300722 11.903238,19 13,19 c 1.544402,0 2.492509,1.192588 2.844323,1.735929 0.103785,0.160286 0,0 0,0 L 16,20.687649 V 17 c 0,0 -1,-2 -3,-2 z m 7,0 c -2,0 -3,2 -3,2 v 3.700477 l 0.167945,0.01662 c 0,0 -0.111963,0.170945 0,0 C 17.52919,20.165546 18.473209,19 20,19 c 1.098378,0 1.593539,0.301609 1.816763,0.573546 C 22,19.79677 22,19.556394 22,19.556394 v 0 V 16 c 0,0 0,-1 -2,-1 z m -7,5 c -2,0 -2,1 -2,1 v 0.551964 0 c 0,0 0,0.228207 0.206138,-0.0053 C 11.439659,21.28211 11.937719,21 13,21 c 1.511705,0 2.452097,1.142627 2.821176,1.700565 C 15.940392,22.880784 16,22.646613 16,22.646613 v 0 V 22 c 0,0 -1,-2 -3,-2 z m 7,0 c -2,0 -3.005064,1.992688 -3,2 v 0.745336 l 0.141423,0.01276 c 0,0 -0.09428,0.147623 0,0 C 17.481381,22.225803 18.43424,21 20,21 c 1.114953,0 1.608346,0.31078 1.826684,0.585835 C 22,21.804173 22,21.545524 22,21.545524 v 0 V 21 c 0,0 0,-1 -2,-1 z"
     id="path14"
     sodipodi:nodetypes="scccssscccsscccssscccsscccssscccsscccssscccs" />
</svg>
