<?xml version="1.0" encoding="UTF-8" standalone="no"?>
<svg
   width="32"
   height="32"
   version="1"
   id="svg16"
   sodipodi:docname="folder-blue-script.svg"
   inkscape:version="1.1.2 (0a00cf5339, 2022-02-04)"
   xmlns:inkscape="http://www.inkscape.org/namespaces/inkscape"
   xmlns:sodipodi="http://sodipodi.sourceforge.net/DTD/sodipodi-0.dtd"
   xmlns="http://www.w3.org/2000/svg"
   xmlns:svg="http://www.w3.org/2000/svg">
  <defs
     id="defs20" />
  <sodipodi:namedview
     id="namedview18"
     pagecolor="#ffffff"
     bordercolor="#666666"
     borderopacity="1.0"
     inkscape:pageshadow="2"
     inkscape:pageopacity="0.0"
     inkscape:pagecheckerboard="0"
     showgrid="false"
     inkscape:zoom="146.19433"
     inkscape:cx="15.999253"
     inkscape:cy="17.090266"
     inkscape:window-width="1920"
     inkscape:window-height="1051"
     inkscape:window-x="0"
     inkscape:window-y="29"
     inkscape:window-maximized="1"
     inkscape:current-layer="svg16" />
  <rect
     style="opacity:0.2"
     width="28"
     height="18"
     x="2"
     y="11"
     rx="1.4"
     ry="1.4"
     id="rect2" />
  <path
     style="fill:#4877b1"
     d="M 2,22.6 C 2,23.376 2.6244,24 3.4,24 H 28.6 C 29.376,24 30,23.376 30,22.6 V 7.4 C 30,6.6244 29.376,6 28.6,6 H 16 C 13.9,6 13.2,3 11.1,3 H 3.4 C 2.6244,3 2,3.6244 2,4.4"
     id="path4" />
  <rect
     style="opacity:0.2"
     width="28"
     height="18"
     x="2"
     y="9"
     rx="1.4"
     ry="1.4"
     id="rect6" />
  <rect
     style="fill:#e4e4e4"
     width="24"
     height="11"
     x="4"
     y="8"
     rx="1.4"
     ry="1.4"
     id="rect8" />
  <rect
     style="fill:#5294e2"
     width="28"
     height="18"
     x="2"
     y="10"
     rx="1.4"
     ry="1.4"
     id="rect10" />
  <path
     style="opacity:0.1;fill:#ffffff"
     d="M 3.4004,3 C 2.6248,3 2,3.6248 2,4.4004 V 5.4004 C 2,4.6248 2.6248,4 3.4004,4 H 11.1 C 13.2,4 13.9,7 16,7 H 28.6 C 29.375,7 30,7.6248 30,8.4004 V 7.4004 C 30,6.6248 29.375,6 28.6,6 H 16 C 13.9,6 13.2,3 11.1,3 Z"
     id="path12" />
  <path
     style="fill:#1d344f"
     d="M 10,13 V 25 H 22 V 13 Z m 3,1 h 1 v 1 h 0.5 c 0.607817,0 1.128329,0.367256 1.365039,0.889172 0.01643,0.03622 -0.09024,0.07319 -0.07661,0.110828 v 0 H 14.5 14.105 L 14,16.08818 v 0 0.830546 L 14.071566,17 v 0 H 14.5 c 0.83,0 1.5,0.67 1.5,1.5 0,0.83 -0.67,1.5 -1.5,1.5 H 14 v 1 h -1 v -1 h -0.5 c -0.614788,0 -1.140256,-0.375728 -1.373071,-0.90719 -0.01333,-0.03044 0.01138,0.03142 0,0 L 11.206883,19 H 12.5 12.865896 L 13,18.908192 v 0 -0.82851 0 L 12.924442,18 H 12.5 C 11.67,18 11,17.33 11,16.5 11,15.67 11.67,15 12.5,15 H 13 Z m -0.5,2 c -0.28,0 -0.5,0.22 -0.5,0.5 0,0.28 0.22,0.5 0.5,0.5 h 0.40395 v 0 L 13,16.900167 13,16.104094 v 0 L 12.906341,16 Z m 1.5,2.075319 v 0 0.809174 L 14.101567,19 v 0 H 14.5 C 14.78,19.01 15,18.78 15,18.5 15,18.22 14.78,18 14.5,18 H 14.10529 Z M 17,20 h 4 v 1 h -4 z"
     id="path14"
     sodipodi:nodetypes="ccccccccsscccccccccsssccccsscccccccccsssccsssccccccsccccccssccccccc" />
</svg>
