<?xml version="1.0" encoding="UTF-8" standalone="no"?>
<svg
   width="32"
   height="32"
   version="1"
   id="svg2532995"
   sodipodi:docname="folder-remote.svg"
   inkscape:version="1.1.2 (0a00cf5339, 2022-02-04)"
   xmlns:inkscape="http://www.inkscape.org/namespaces/inkscape"
   xmlns:sodipodi="http://sodipodi.sourceforge.net/DTD/sodipodi-0.dtd"
   xmlns="http://www.w3.org/2000/svg"
   xmlns:svg="http://www.w3.org/2000/svg">
  <defs
     id="defs2532999" />
  <sodipodi:namedview
     id="namedview2532997"
     pagecolor="#ffffff"
     bordercolor="#666666"
     borderopacity="1.0"
     inkscape:pageshadow="2"
     inkscape:pageopacity="0.0"
     inkscape:pagecheckerboard="0"
     showgrid="false"
     inkscape:zoom="25.84375"
     inkscape:cx="15.980653"
     inkscape:cy="16"
     inkscape:window-width="1920"
     inkscape:window-height="1051"
     inkscape:window-x="0"
     inkscape:window-y="29"
     inkscape:window-maximized="1"
     inkscape:current-layer="svg2532995" />
  <rect
     style="opacity:0.2"
     width="28"
     height="18"
     x="2"
     y="11"
     rx="1.4"
     ry="1.4"
     id="rect2532981" />
  <path
     style="fill:#4877b1"
     d="M 2,22.6 C 2,23.376 2.6244,24 3.4,24 H 28.6 C 29.376,24 30,23.376 30,22.6 V 7.4 C 30,6.6244 29.376,6 28.6,6 H 16 C 13.9,6 13.2,3 11.1,3 H 3.4 C 2.6244,3 2,3.6244 2,4.4"
     id="path2532983" />
  <rect
     style="opacity:0.2"
     width="28"
     height="18"
     x="2"
     y="9"
     rx="1.4"
     ry="1.4"
     id="rect2532985" />
  <rect
     style="fill:#e4e4e4"
     width="24"
     height="11"
     x="4"
     y="8"
     rx="1.4"
     ry="1.4"
     id="rect2532987" />
  <rect
     style="fill:#5294e2"
     width="28"
     height="18"
     x="2"
     y="10"
     rx="1.4"
     ry="1.4"
     id="rect2532989" />
  <path
     style="opacity:0.1;fill:#ffffff"
     d="M 3.4004,3 C 2.6248,3 2,3.6248 2,4.4004 V 5.4004 C 2,4.6248 2.6248,4 3.4004,4 H 11.1 C 13.2,4 13.9,7 16,7 H 28.6 C 29.375,7 30,7.6248 30,8.4004 V 7.4004 C 30,6.6248 29.375,6 28.6,6 H 16 C 13.9,6 13.2,3 11.1,3 Z"
     id="path2532991" />
  <path
     style="fill:#1d344f"
     d="m 15,15.438364 c -0.141808,0.02708 -0.278648,-0.378529 -0.410552,-0.340292 -1.318948,0.382342 -2.144401,1.312319 -2.509059,2.582813 -0.02989,0.104123 0.02371,-0.108583 0,0 L 11.698763,18 H 10 v 2 h 1.681369 l 0.395661,0.306527 c 0.02284,0.104204 -0.02852,-0.100113 0,0 0.36063,1.265887 1.176767,2.196506 2.480639,2.585957 C 14.699341,22.9348 14.846771,22.467082 15,22.496356 v 0 z m 2,0.022 v 0 7.100457 0 c 0.183723,-0.0351 0.359109,0.359421 0.526229,0.305647 1.247143,-0.401287 2.033943,-1.309871 2.390015,-2.536549 0.03122,-0.107568 -0.02462,0.112333 0,0 L 20.308433,20 H 22 v -2 h -1.651791 l -0.447583,-0.383574 c -0.02863,-0.131092 0.03763,0.124557 0,0 -0.372989,-1.23458 -1.1897,-2.13827 -2.48098,-2.515707 C 17.28494,15.061345 17.14507,15.488057 17,15.460359 Z"
     id="path2532993"
     sodipodi:nodetypes="cssccccccssccccccccssccccccssc" />
</svg>
