<?xml version="1.0" encoding="UTF-8" standalone="no"?>
<svg
   width="64"
   height="64"
   version="1"
   id="svg16"
   sodipodi:docname="gnome-stock-trash.svg"
   inkscape:version="1.1.2 (0a00cf5339, 2022-02-04)"
   xmlns:inkscape="http://www.inkscape.org/namespaces/inkscape"
   xmlns:sodipodi="http://sodipodi.sourceforge.net/DTD/sodipodi-0.dtd"
   xmlns="http://www.w3.org/2000/svg"
   xmlns:svg="http://www.w3.org/2000/svg">
  <defs
     id="defs20" />
  <sodipodi:namedview
     id="namedview18"
     pagecolor="#ffffff"
     bordercolor="#666666"
     borderopacity="1.0"
     inkscape:pageshadow="2"
     inkscape:pageopacity="0.0"
     inkscape:pagecheckerboard="0"
     showgrid="false"
     inkscape:zoom="12.921875"
     inkscape:cx="32"
     inkscape:cy="7.235792"
     inkscape:window-width="635"
     inkscape:window-height="873"
     inkscape:window-x="641"
     inkscape:window-y="31"
     inkscape:window-maximized="1"
     inkscape:current-layer="svg16" />
  <rect
     style="opacity:0.2"
     width="46"
     height="52"
     x="10"
     y="9"
     rx="3"
     ry="3"
     id="rect2" />
  <rect
     style="fill:#8e8e8e"
     width="46"
     height="52"
     x="10"
     y="8"
     rx="3"
     ry="3"
     id="rect4" />
  <rect
     style="fill:#9f9f9f"
     width="18"
     height="6"
     x="24"
     y="2"
     id="rect6"
     ry="1.9140081" />
  <rect
     style="opacity:0.2"
     width="54"
     height="12"
     x="6"
     y="5"
     rx="3"
     ry="3"
     id="rect8" />
  <rect
     style="fill:#9f9f9f"
     width="54"
     height="12"
     x="6"
     y="4"
     rx="3"
     ry="3"
     id="rect10" />
  <path
     style="opacity:0.3;fill:none;stroke:#000000;stroke-width:6;stroke-linecap:round"
     d="M 45,25 V 49 M 33,25 V 49 M 21,25 V 49"
     id="path12" />
  <path
     style="fill:#ffffff;opacity:0.2"
     d="M 9 4 C 7.338 4 6 5.338 6 7 L 6 8 C 6 6.338 7.338 5 9 5 L 57 5 C 58.662 5 60 6.338 60 8 L 60 7 C 60 5.338 58.662 4 57 4 L 9 4 z"
     id="path14" />
</svg>
