<?xml version="1.0" encoding="UTF-8" standalone="no"?>
<svg
   width="64"
   height="64"
   version="1"
   id="svg16"
   sodipodi:docname="gnome-stock-trash-full.svg"
   inkscape:version="1.1.2 (0a00cf5339, 2022-02-04)"
   xmlns:inkscape="http://www.inkscape.org/namespaces/inkscape"
   xmlns:sodipodi="http://sodipodi.sourceforge.net/DTD/sodipodi-0.dtd"
   xmlns="http://www.w3.org/2000/svg"
   xmlns:svg="http://www.w3.org/2000/svg">
  <defs
     id="defs20" />
  <sodipodi:namedview
     id="namedview18"
     pagecolor="#ffffff"
     bordercolor="#666666"
     borderopacity="1.0"
     inkscape:pageshadow="2"
     inkscape:pageopacity="0.0"
     inkscape:pagecheckerboard="0"
     showgrid="false"
     inkscape:zoom="12.921875"
     inkscape:cx="32"
     inkscape:cy="13.426844"
     inkscape:window-width="635"
     inkscape:window-height="873"
     inkscape:window-x="641"
     inkscape:window-y="31"
     inkscape:window-maximized="1"
     inkscape:current-layer="svg16" />
  <path
     style="opacity:0.2"
     d="M 13,9 H 53 C 56,9 60,27 60,35 60,43 57,61 53,61 H 13 C 9,61 6,43 6,35 6,27 10,9 13,9 Z"
     id="path2" />
  <path
     style="fill:#8e8e8e"
     d="M 13,8 H 53 C 56,8 60,26 60,34 60,42 57,60 53,60 H 13 C 9,60 6,42 6,34 6,26 10,8 13,8 Z"
     id="path4" />
  <rect
     style="fill:#9f9f9f"
     width="18"
     height="6"
     x="24"
     y="2"
     id="rect6"
     ry="2.0986412" />
  <rect
     style="opacity:0.2"
     width="54"
     height="12"
     x="6"
     y="5"
     rx="3"
     ry="3"
     id="rect8" />
  <rect
     style="fill:#9f9f9f"
     width="54"
     height="12"
     x="6"
     y="4"
     rx="3"
     ry="3"
     id="rect10" />
  <path
     style="opacity:0.3;fill:none;stroke:#000000;stroke-width:6;stroke-linecap:round"
     d="M 45,25 C 45,25 47,31.5 47,37.5 47,43.5 45,49 45,49 M 33,25 V 49 M 21,25 C 21,25 19,31.5 19,37.5 19,43.5 21,49 21,49"
     id="path12" />
  <path
     style="fill:#ffffff;opacity:0.2"
     d="M 9 4 C 7.338 4 6 5.338 6 7 L 6 8 C 6 6.338 7.338 5 9 5 L 57 5 C 58.662 5 60 6.338 60 8 L 60 7 C 60 5.338 58.662 4 57 4 L 9 4 z"
     id="path14" />
</svg>
