<?xml version="1.0" encoding="UTF-8" standalone="no"?>
<svg
   width="32"
   height="32"
   version="1"
   id="svg2661831"
   sodipodi:docname="folder-network.svg"
   inkscape:version="1.1.2 (0a00cf5339, 2022-02-04)"
   xmlns:inkscape="http://www.inkscape.org/namespaces/inkscape"
   xmlns:sodipodi="http://sodipodi.sourceforge.net/DTD/sodipodi-0.dtd"
   xmlns="http://www.w3.org/2000/svg"
   xmlns:svg="http://www.w3.org/2000/svg">
  <defs
     id="defs2661835" />
  <sodipodi:namedview
     id="namedview2661833"
     pagecolor="#ffffff"
     bordercolor="#666666"
     borderopacity="1.0"
     inkscape:pageshadow="2"
     inkscape:pageopacity="0.0"
     inkscape:pagecheckerboard="0"
     showgrid="false"
     inkscape:zoom="25.84375"
     inkscape:cx="15.980653"
     inkscape:cy="16"
     inkscape:window-width="1920"
     inkscape:window-height="1051"
     inkscape:window-x="0"
     inkscape:window-y="29"
     inkscape:window-maximized="1"
     inkscape:current-layer="svg2661831" />
  <rect
     style="opacity:0.2"
     width="28"
     height="18"
     x="2"
     y="11"
     rx="1.4"
     ry="1.4"
     id="rect2661817" />
  <path
     style="fill:#4877b1"
     d="M 2,22.6 C 2,23.376 2.6244,24 3.4,24 H 28.6 C 29.376,24 30,23.376 30,22.6 V 7.4 C 30,6.6244 29.376,6 28.6,6 H 16 C 13.9,6 13.2,3 11.1,3 H 3.4 C 2.6244,3 2,3.6244 2,4.4"
     id="path2661819" />
  <rect
     style="opacity:0.2"
     width="28"
     height="18"
     x="2"
     y="9"
     rx="1.4"
     ry="1.4"
     id="rect2661821" />
  <rect
     style="fill:#e4e4e4"
     width="24"
     height="11"
     x="4"
     y="8"
     rx="1.4"
     ry="1.4"
     id="rect2661823" />
  <rect
     style="fill:#5294e2"
     width="28"
     height="18"
     x="2"
     y="10"
     rx="1.4"
     ry="1.4"
     id="rect2661825" />
  <path
     style="opacity:0.1;fill:#ffffff"
     d="M 3.4004,3 C 2.6248,3 2,3.6248 2,4.4004 V 5.4004 C 2,4.6248 2.6248,4 3.4004,4 H 11.1 C 13.2,4 13.9,7 16,7 H 28.6 C 29.375,7 30,7.6248 30,8.4004 V 7.4004 C 30,6.6248 29.375,6 28.6,6 H 16 C 13.9,6 13.2,3 11.1,3 Z"
     id="path2661827" />
  <path
     style="fill:#1d344f"
     d="m 16,13 c -3.3132,0 -6,2.6868 -6,6 0,3.3132 2.6868,6 6,6 3.3132,0 6,-2.6868 6,-6 0,-3.3132 -2.6868,-6 -6,-6 z m -0.4284,1.6608 c 0.0576,-0.006 -0.0576,0.0036 0,0 0.0072,0.0276 0.1452,0.1248 0.0804,0.2676 -0.4164,0.9096 -0.4404,1.9752 -0.054,2.5452 0.0696,0.1032 -0.292522,-0.03008 -0.292522,-0.01808 0,0.0132 0.351322,0.259283 0.266122,0.259283 -0.2004,0 -0.39,-0.1224 -0.7764,-0.4296 -0.1728,-0.1356 -0.396,-0.2496 -0.4824,-0.2676 -0.1368,-0.0264 -0.1728,-0.0144 -0.348,0.1608 -0.1644,0.1644 -0.2148,0.252 -0.2148,0.402 0,0.5676 0.6744,1.02 1.9284,1.2852 1.7028,0.3612 2.1228,0.6852 2.1696,1.5804 0.0588,1.1232 -0.5388,1.9704 -1.848,2.6256 -0.156,0.078 -0.3624,-0.1596 -0.4284,-0.1344 -0.0288,-0.0024 0.0288,0.0036 0,0 -0.0108,-0.0336 0,0.1524 0,0 0,-0.5964 -0.2352,-1.2096 -0.5892,-1.5528 -0.0948,-0.0924 -0.3612,-0.288 -0.5892,-0.4284 -0.228,-0.1416 -0.4584,-0.306 -0.5088,-0.3756 -0.0852,-0.1164 -0.0924,-0.1872 -0.0276,-0.402 0.1188,-0.3912 0.2604,-0.6096 0.5364,-0.8568 0.144,-0.1296 -0.2196,-0.3732 -0.1872,-0.3756 0.0312,-0.0024 0.324,0.0672 0,0 C 13.8808,18.88 13.4068,18.7408 13.1608,18.652 12.712,18.49 12.106,18.148 11.8756,17.902 11.866,17.8912 11.8564,17.884 11.848,17.8756 c 0.3312,-1.3188 1.26,-2.4 2.4912,-2.9196 0.258,-0.1092 0.5232,-0.1848 0.804,-0.2412 0.1392,-0.0288 0.2844,-0.0396 0.4284,-0.054 z m 3.746557,2.202496 c 0.197439,0.318789 0.383138,-0.04483 0.468482,0.125093 0.146503,0.291699 0.323516,0.713146 0.391761,0.966411 0.1404,0.5184 0.1296,1.4148 0,1.9284 -0.0492,0.1968 -0.3012,0.1116 -0.3216,0.1344 -0.0216,0.0228 0.09,0.1596 0,0 -0.09,-0.1596 -0.3768,-0.498 -0.6156,-0.75 -0.69,-0.7272 -0.798,-1.1064 -0.5088,-1.6872 0.0902,-0.181893 0.368881,-0.507807 0.585757,-0.717104 0.132238,-0.127617 -0.271043,0.193696 0,0 z"
     id="path2661829"
     sodipodi:nodetypes="sssssccccssccsscccccsccccccccccccccscccsccsc" />
</svg>
