<?xml version="1.0" encoding="UTF-8" standalone="no"?>
<svg
   width="32"
   height="32"
   version="1"
   id="svg3183134"
   sodipodi:docname="insync-folder.svg"
   inkscape:version="1.1.2 (0a00cf5339, 2022-02-04)"
   xmlns:inkscape="http://www.inkscape.org/namespaces/inkscape"
   xmlns:sodipodi="http://sodipodi.sourceforge.net/DTD/sodipodi-0.dtd"
   xmlns="http://www.w3.org/2000/svg"
   xmlns:svg="http://www.w3.org/2000/svg">
  <defs
     id="defs3183138" />
  <sodipodi:namedview
     id="namedview3183136"
     pagecolor="#ffffff"
     bordercolor="#666666"
     borderopacity="1.0"
     inkscape:pageshadow="2"
     inkscape:pageopacity="0.0"
     inkscape:pagecheckerboard="0"
     showgrid="false"
     inkscape:zoom="25.84375"
     inkscape:cx="15.980653"
     inkscape:cy="16"
     inkscape:window-width="1920"
     inkscape:window-height="1051"
     inkscape:window-x="0"
     inkscape:window-y="29"
     inkscape:window-maximized="1"
     inkscape:current-layer="svg3183134" />
  <rect
     style="opacity:0.2"
     width="28"
     height="18"
     x="2"
     y="11"
     rx="1.4"
     ry="1.4"
     id="rect3183120" />
  <path
     style="fill:#4877b1"
     d="M 2,22.6 C 2,23.376 2.6244,24 3.4,24 H 28.6 C 29.376,24 30,23.376 30,22.6 V 7.4 C 30,6.6244 29.376,6 28.6,6 H 16 C 13.9,6 13.2,3 11.1,3 H 3.4 C 2.6244,3 2,3.6244 2,4.4"
     id="path3183122" />
  <rect
     style="opacity:0.2"
     width="28"
     height="18"
     x="2"
     y="9"
     rx="1.4"
     ry="1.4"
     id="rect3183124" />
  <rect
     style="fill:#e4e4e4"
     width="24"
     height="11"
     x="4"
     y="8"
     rx="1.4"
     ry="1.4"
     id="rect3183126" />
  <rect
     style="fill:#5294e2"
     width="28"
     height="18"
     x="2"
     y="10"
     rx="1.4"
     ry="1.4"
     id="rect3183128" />
  <path
     style="opacity:0.1;fill:#ffffff"
     d="M 3.4004,3 C 2.6248,3 2,3.6248 2,4.4004 V 5.4004 C 2,4.6248 2.6248,4 3.4004,4 H 11.1 C 13.2,4 13.9,7 16,7 H 28.6 C 29.375,7 30,7.6248 30,8.4004 V 7.4004 C 30,6.6248 29.375,6 28.6,6 H 16 C 13.9,6 13.2,3 11.1,3 Z"
     id="path3183130" />
  <path
     style="fill:#1d344f"
     d="m 14.528855,14.464759 v 0 L 17.25,19 h 3.512588 v 0 L 20.95947,18.564292 17.916,14 h -3.118027 z m -1.233295,0.6277 v 0 L 10.75,20 l 1.681976,2.655752 0.465406,-0.169544 v 0 L 15.25,17.6 13.881395,15.183393 Z M 15.25,20 13.981615,22.53677 v 0 L 14.321366,23 H 19.75 l 1.304246,-2.608493 v 0 L 20.740331,20 Z"
     id="path3183132"
     sodipodi:nodetypes="ccccccccccccccccccccccccccc" />
</svg>
