<?xml version="1.0" encoding="UTF-8" standalone="no"?>
<svg
   width="32"
   height="32"
   version="1"
   id="svg8"
   sodipodi:docname="user-bookmarks.svg"
   inkscape:version="1.1.2 (0a00cf5339, 2022-02-04)"
   xmlns:inkscape="http://www.inkscape.org/namespaces/inkscape"
   xmlns:sodipodi="http://sodipodi.sourceforge.net/DTD/sodipodi-0.dtd"
   xmlns="http://www.w3.org/2000/svg"
   xmlns:svg="http://www.w3.org/2000/svg">
  <defs
     id="defs12" />
  <sodipodi:namedview
     id="namedview10"
     pagecolor="#ffffff"
     bordercolor="#666666"
     borderopacity="1.0"
     inkscape:pageshadow="2"
     inkscape:pageopacity="0.0"
     inkscape:pagecheckerboard="0"
     showgrid="false"
     inkscape:zoom="25.84375"
     inkscape:cx="16"
     inkscape:cy="25.247884"
     inkscape:window-width="635"
     inkscape:window-height="873"
     inkscape:window-x="641"
     inkscape:window-y="31"
     inkscape:window-maximized="1"
     inkscape:current-layer="svg8" />
  <path
     style="opacity:0.2"
     d="m 15.5,2.9997517 c -1.307197,0.018684 -2.240232,0.8058961 -2.677734,2.109375 l 0.01758,-0.058594 -2.054688,5.9492193 -6.9257809,0 c -0.015101,-2.42e-4 -0.029821,-2.42e-4 -0.044922,0 -0.8271266,0.02681 -1.5721928,0.512609 -2.0976562,1.152344 -1.13642101,1.304496 -0.89620891,3.657981 0.546875,4.630859 l 5.4453125,3.978516 -2.1132813,6.566406 c -0.00235,0.0073 -0.00365,0.01418 -0.00586,0.02148 -0.322905,1.060759 -0.019257,2.152805 0.7929687,2.900391 0.00587,0.0055 0.011571,0.01219 0.017578,0.01758 0.9760412,0.867686 2.3489216,0.977964 3.4511713,0.259766 0.02097,-0.01357 0.04034,-0.02832 0.06055,-0.04297 L 15.5,26.499752 l 5.587891,3.984375 c 0.02021,0.01466 0.03958,0.02941 0.06055,0.04297 1.10225,0.718198 2.475129,0.60792 3.451171,-0.259766 0.006,-0.0054 0.01167,-0.01206 0.01758,-0.01758 0.812225,-0.747586 1.115873,-1.839632 0.792968,-2.900391 -0.0022,-0.0073 -0.0035,-0.01421 -0.0059,-0.02148 l -2.113281,-6.566406 5.445312,-3.978516 c 1.443084,-0.972878 1.683296,-3.326363 0.546875,-4.630859 -0.525463,-0.639735 -1.270529,-1.125534 -2.097656,-1.152344 -0.0151,-2.42e-4 -0.02982,-2.42e-4 -0.04492,0 l -6.925781,0 -2.054688,-5.9492191 0.01758,0.058594 C 17.740232,3.8056478 16.807197,3.0184357 15.5,2.9997517 Z"
     id="path2" />
  <path
     style="fill:#ffbc2c"
     d="M 15.5,2 C 14.192803,2.018684 13.259768,2.8058961 12.822266,4.109375 L 12.839844,4.0507812 10.785156,10 H 3.859375 C 3.844274,9.9997578 3.829554,9.9997578 3.814453,10 2.9873264,10.02681 2.2422602,10.512609 1.7167968,11.152344 0.58037577,12.45684 0.82058787,14.810325 2.2636718,15.783203 l 5.0261862,3.672289 0.2559068,0.813384 v 0 L 5.595703,26.328125 c -0.00235,0.0073 -0.00365,0.01418 -0.00586,0.02148 -0.3229051,1.060759 -0.019257,2.152805 0.7929687,2.900391 0.0059,0.0055 0.011568,0.01218 0.017578,0.01758 0.9760412,0.867686 2.348922,0.977964 3.4511719,0.259766 0.02097,-0.01357 0.040337,-0.02832 0.060547,-0.04297 l 4.9009644,-3.494567 0.235583,-0.16798 v 0 l 0.962044,0.04232 5.077191,3.620227 c 0.02021,0.01466 0.03958,0.02941 0.06055,0.04297 1.10225,0.718198 2.475129,0.60792 3.451171,-0.259766 0.006,-0.0054 0.01167,-0.01206 0.01758,-0.01758 0.812225,-0.747586 1.115873,-1.839632 0.792968,-2.900391 -0.0022,-0.0073 -0.0035,-0.01421 -0.0059,-0.02148 l -1.869738,-5.809668 0.190497,-1.073862 v 0 l 5.011272,-3.661392 C 30.179412,14.810325 30.419624,12.45684 29.283203,11.152344 28.75774,10.512609 28.012674,10.02681 27.185547,10 c -0.0151,-2.422e-4 -0.02982,-2.422e-4 -0.04492,0 h -6.925781 l -2.054688,-5.9492188 0.01758,0.058594 C 17.740232,2.8058961 16.807197,2.018684 15.5,2 Z"
     id="path4"
     sodipodi:nodetypes="cccccccccccccccccccccccccccccccccccccc" />
  <path
     style="opacity:0.2;fill:#ffffff"
     d="m 15.5,2 c -1.307197,0.018684 -2.240232,0.8058961 -2.677734,2.109375 l 0.01758,-0.058594 -1.89963,5.5002571 L 10.394236,10 v 0 H 3.8593751 C 3.8442741,9.9997578 3.8295542,9.9997578 3.8144532,10 2.9873266,10.02681 2.2422604,10.512609 1.716797,11.152344 1.1227146,11.83429 0.91335689,12.800795 1.0468751,13.708984 1.127384,13.134555 1.3401057,12.584747 1.716797,12.152344 2.2422604,11.512609 2.9873266,11.02681 3.8144532,11 c 0.015101,-2.42e-4 0.029821,-2.42e-4 0.044922,0 h 6.9257808 l 2.054688,-5.9492188 -0.01758,0.058594 C 13.259768,3.8058961 14.192803,3.018684 15.5,3 c 1.307197,0.018684 2.240265,0.8058929 2.677734,2.109375 L 18.160156,5.0507812 20.214844,11 h 6.925781 c 0.0151,-2.42e-4 0.02982,-2.42e-4 0.04492,0 0.827127,0.02681 1.572193,0.512609 2.097656,1.152344 0.376691,0.432403 0.589413,0.982211 0.669922,1.55664 0.133518,-0.908189 -0.07584,-1.874694 -0.669922,-2.55664 C 28.75774,10.512609 28.012674,10.02681 27.185547,10 c -0.0151,-2.422e-4 -0.02982,-2.422e-4 -0.04492,0 h -6.398723 v 0 L 20.561667,9.8730452 20.234002,9.6422457 20.045409,9.5094049 18.160158,4.0507812 l 0.01758,0.058594 C 17.740232,2.8058961 16.807197,2.018684 15.5,2 Z M 7.4492189,20.572266 5.5957032,26.328125 c -0.00235,0.0073 -0.00365,0.01418 -0.00586,0.02148 -0.1364147,0.448129 -0.1545077,0.901066 -0.076172,1.332032 0.020171,-0.110727 0.042543,-0.22156 0.076172,-0.332032 0.00221,-0.0073 0.00351,-0.01418 0.00586,-0.02148 l 2.1132813,-6.566406 z m 16.1015621,0 -0.259765,0.189453 2.113281,6.566406 c 0.0024,0.0073 0.0037,0.01418 0.0059,0.02148 0.03363,0.110472 0.056,0.221305 0.07617,0.332032 0.07834,-0.430966 0.06024,-0.883903 -0.07617,-1.332032 -0.0022,-0.0073 -0.0035,-0.01421 -0.0059,-0.02148 z"
     id="path6"
     sodipodi:nodetypes="ccccccccccccccccccccccccccccccccccccccccccccccccccc" />
</svg>
