<?xml version="1.0" encoding="UTF-8" standalone="no"?>
<svg
   width="32"
   height="32"
   version="1"
   id="svg2611166"
   sodipodi:docname="folder-pictures.svg"
   inkscape:version="1.1.2 (0a00cf5339, 2022-02-04)"
   xmlns:inkscape="http://www.inkscape.org/namespaces/inkscape"
   xmlns:sodipodi="http://sodipodi.sourceforge.net/DTD/sodipodi-0.dtd"
   xmlns="http://www.w3.org/2000/svg"
   xmlns:svg="http://www.w3.org/2000/svg">
  <defs
     id="defs2611170" />
  <sodipodi:namedview
     id="namedview2611168"
     pagecolor="#ffffff"
     bordercolor="#666666"
     borderopacity="1.0"
     inkscape:pageshadow="2"
     inkscape:pageopacity="0.0"
     inkscape:pagecheckerboard="0"
     showgrid="false"
     inkscape:zoom="25.84375"
     inkscape:cx="15.980653"
     inkscape:cy="16"
     inkscape:window-width="1920"
     inkscape:window-height="1051"
     inkscape:window-x="0"
     inkscape:window-y="29"
     inkscape:window-maximized="1"
     inkscape:current-layer="svg2611166" />
  <rect
     style="opacity:0.2"
     width="28"
     height="18"
     x="2"
     y="11"
     rx="1.4"
     ry="1.4"
     id="rect2611152" />
  <path
     style="fill:#4877b1"
     d="M 2,22.6 C 2,23.376 2.6244,24 3.4,24 H 28.6 C 29.376,24 30,23.376 30,22.6 V 7.4 C 30,6.6244 29.376,6 28.6,6 H 16 C 13.9,6 13.2,3 11.1,3 H 3.4 C 2.6244,3 2,3.6244 2,4.4"
     id="path2611154" />
  <rect
     style="opacity:0.2"
     width="28"
     height="18"
     x="2"
     y="9"
     rx="1.4"
     ry="1.4"
     id="rect2611156" />
  <rect
     style="fill:#e4e4e4"
     width="24"
     height="11"
     x="4"
     y="8"
     rx="1.4"
     ry="1.4"
     id="rect2611158" />
  <rect
     style="fill:#5294e2"
     width="28"
     height="18"
     x="2"
     y="10"
     rx="1.4"
     ry="1.4"
     id="rect2611160" />
  <path
     style="opacity:0.1;fill:#ffffff"
     d="M 3.4004,3 C 2.6248,3 2,3.6248 2,4.4004 V 5.4004 C 2,4.6248 2.6248,4 3.4004,4 H 11.1 C 13.2,4 13.9,7 16,7 H 28.6 C 29.375,7 30,7.6248 30,8.4004 V 7.4004 C 30,6.6248 29.375,6 28.6,6 H 16 C 13.9,6 13.2,3 11.1,3 Z"
     id="path2611162" />
  <path
     style="fill:#1d344f"
     d="M 11.699,15 C 11.311,15 11,15.311 11,15.699 v 6.602 C 11,22.689 11.311,23 11.699,23 h 8.602 C 20.689,23 21,22.689 21,22.301 V 15.699 C 21,15.311 20.689,15 20.301,15 Z m 1.965737,3.335263 0.6716,0.0011 2.385267,2.385267 v 0 l 0.517219,-0.04003 0.940761,-1.254348 0.661594,0.02768 v 0 l 0.963373,1.284497 v 0 L 20,21.2821 V 22 h -8 v -1.781248 0 l 0.209314,-0.428066 z"
     id="path2611164"
     sodipodi:nodetypes="ssssssssscccccccccccccccccc" />
</svg>
