<?xml version="1.0" encoding="UTF-8" standalone="no"?>
<svg
   width="64"
   height="64"
   version="1.0"
   viewBox="0 0 46.55 46.55"
   id="svg22"
   sodipodi:docname="close-window.svg"
   inkscape:version="1.1.2 (0a00cf5339, 2022-02-04)"
   xmlns:inkscape="http://www.inkscape.org/namespaces/inkscape"
   xmlns:sodipodi="http://sodipodi.sourceforge.net/DTD/sodipodi-0.dtd"
   xmlns="http://www.w3.org/2000/svg"
   xmlns:svg="http://www.w3.org/2000/svg">
  <defs
     id="defs26" />
  <sodipodi:namedview
     id="namedview24"
     pagecolor="#ffffff"
     bordercolor="#666666"
     borderopacity="1.0"
     inkscape:pageshadow="2"
     inkscape:pageopacity="0.0"
     inkscape:pagecheckerboard="0"
     showgrid="false"
     inkscape:zoom="12.140625"
     inkscape:cx="32"
     inkscape:cy="31.835264"
     inkscape:window-width="1920"
     inkscape:window-height="1051"
     inkscape:window-x="0"
     inkscape:window-y="29"
     inkscape:window-maximized="1"
     inkscape:current-layer="g16" />
  <g
     transform="matrix(2.2502 0 0 2.2502 -2.9094 -55.278)"
     id="g16">
    <path
       d="m2.9091 34.909c0 4.8199 3.9073 8.7273 8.7273 8.7273 4.8199 0 8.7273-3.9073 8.7273-8.7273 0-4.8199-3.9073-8.7273-8.7273-8.7273-4.8199 0-8.7273 3.9073-8.7273 8.7273z"
       style="fill:#fff"
       id="path2" />
    <g
       transform="translate(-.72727 24.727)"
       style="fill:none"
       id="g8">
      <path
         d="m3.6364 10.182c0 4.8199 3.9073 8.7273 8.7273 8.7273 4.8199 0 8.7273-3.9073 8.7273-8.7273 0-4.8199-3.9073-8.7273-8.7273-8.7273-4.8199 0-8.7273 3.9073-8.7273 8.7273z"
         style="fill:none;opacity:.8"
         id="path4" />
      <path
         d="m9.4545 13.093h0.72727c0.20083 0 0.39111-0.07293 0.52273-0.20454l1.6591-1.6591 1.6591 1.6591c0.13162 0.13161 0.3219 0.20454 0.52273 0.20454h0.72727v-0.72727c0-0.20083-0.07293-0.39112-0.20454-0.52273l-1.6591-1.6591 1.6591-1.6591c0.13161-0.13161 0.20454-0.3219 0.20454-0.52273v-0.72727h-0.72727c-0.20083 0-0.39111 0.07293-0.52273 0.20455l-1.6591 1.6591-1.6591-1.6591c-0.13161-0.13161-0.32366-0.23113-0.52273-0.20455h-0.72727v0.72727c0 0.20083 0.07293 0.39112 0.20455 0.52273l1.6591 1.6591-1.6591 1.6591c-0.13162 0.13161-0.20455 0.3219-0.20455 0.52273z"
         style="fill:none"
         id="path6" />
    </g>
    <path
       d="m2.9276 35.27c-0.00502 0.12156-0.018466 0.24084-0.018466 0.36364 0 4.8199 3.9073 8.7273 8.7273 8.7273 4.8199 0 8.7273-3.9073 8.7273-8.7273 0-0.1228-0.01344-0.24207-0.01847-0.36364-0.19213 4.6499-4.0117 8.3636-8.7088 8.3636-4.6971 0-8.5167-3.7137-8.7088-8.3636z"
       style="opacity:.5"
       id="path10" />
    <path
       d="m 8.7273,31.273 c -0.40166,0 -0.72727,0.32561 -0.72727,0.72727 2.9e-5,0.19287 0.07667,0.37784 0.21307,0.5142 l 2.154727,2.154727 0.01276,0.467591 v 0 L 8.2131,37.30427 c -0.13637,0.13637 -0.21301,0.32133 -0.21304,0.51421 0,0.40166 0.32561,0.72727 0.72727,0.72727 0.19287,-2.9e-5 0.37784,-0.07667 0.5142,-0.21307 l 2.194228,-2.194228 v 0 l 0.404546,0.0032 2.191026,2.191026 c 0.13634,0.13637 0.32131,0.21301 0.51418,0.21304 0.40166,0 0.72727,-0.32561 0.72727,-0.72727 -3e-5,-0.19287 -0.07667,-0.37784 -0.21307,-0.5142 l -2.179141,-2.179141 0.03223,-0.46375 v 0 L 15.05971,32.51445 c 0.13637,-0.13634 0.21301,-0.32131 0.21304,-0.51418 0,-0.40166 -0.32561,-0.72727 -0.72727,-0.72727 -0.19287,2.9e-5 -0.37784,0.07667 -0.5142,0.21307 l -2.163738,2.163828 v 0 l -0.447535,0.0146 L 9.24158,31.48607 C 9.10518,31.3497 8.92022,31.27306 8.72734,31.27303 Z"
       style="fill-rule:evenodd"
       id="path12"
       sodipodi:nodetypes="ccccccsccccccccccccccccccccccc" />
    <path
       d="m11.636 26.182c-4.8199 0-8.7273 3.9073-8.7273 8.7273 0 0.1228 0.013443 0.24207 0.018466 0.36364 0.19213-4.6499 4.0117-8.3636 8.7088-8.3636 4.6971 0 8.5167 3.7137 8.7088 8.3636 5e-3 -0.12157 0.01847-0.24084 0.01847-0.36364 0-4.8199-3.9073-8.7273-8.7273-8.7273z"
       style="fill:#fff;opacity:.3"
       id="path14" />
  </g>
  <path
     transform="scale(.72734)"
     d="m32 5c-14.912 0-27 12.088-27 27 0 0.33557 0.013253 0.6674 0.025391 1 0.52723-14.447 12.398-26 26.975-26 14.576 0 26.447 11.553 26.975 26 0.012138-0.3326 0.025391-0.66443 0.025391-1 0-14.912-12.088-27-27-27z"
     style="opacity:.1;stroke-width:3.0938"
     id="path18" />
  <path
     d="m43.108 62.879c0 10.846 8.7924 19.638 19.638 19.638 10.846 0 19.638-8.7924 19.638-19.638 0-10.846-8.7924-19.638-19.638-19.638-10.846 0-19.638 8.7924-19.638 19.638z"
     style="fill:#fff;stroke-width:2.2502"
     id="path20" />
</svg>
