<?xml version="1.0" encoding="UTF-8" standalone="no"?>
<svg
   width="36pt"
   height="36pt"
   version="1.1"
   viewBox="0 0 36 36"
   id="svg11418"
   sodipodi:docname="gnome-mime-application-x-glade.svg"
   inkscape:version="1.1.2 (0a00cf5339, 2022-02-04)"
   xmlns:inkscape="http://www.inkscape.org/namespaces/inkscape"
   xmlns:sodipodi="http://sodipodi.sourceforge.net/DTD/sodipodi-0.dtd"
   xmlns="http://www.w3.org/2000/svg"
   xmlns:svg="http://www.w3.org/2000/svg">
  <sodipodi:namedview
     id="namedview11420"
     pagecolor="#ffffff"
     bordercolor="#666666"
     borderopacity="1.0"
     inkscape:pageshadow="2"
     inkscape:pageopacity="0.0"
     inkscape:pagecheckerboard="0"
     inkscape:document-units="pt"
     showgrid="false"
     inkscape:zoom="17.229167"
     inkscape:cx="23.970979"
     inkscape:cy="24"
     inkscape:window-width="1920"
     inkscape:window-height="1051"
     inkscape:window-x="0"
     inkscape:window-y="29"
     inkscape:window-maximized="1"
     inkscape:current-layer="svg11418" />
  <defs
     id="defs11406">
    <filter
       id="a"
       x="-0.19199928"
       y="-0.19199928"
       width="1.3839986"
       height="1.3839986"
       color-interpolation-filters="sRGB">
      <feGaussianBlur
         stdDeviation="0.67843748"
         id="feGaussianBlur11403" />
    </filter>
  </defs>
  <path
     d="m7.3477 3.9022c-0.67188 0-1.3047 0.63281-1.3047 1.3047v27.391c0 0.63281 0.67188 1.3047 1.3047 1.3047h20.871c0.63281 0 1.3047-0.67188 1.3047-1.3047v-20.215l-8.4805-8.4805z"
     opacity=".1"
     id="path11408" />
  <path
     d="m7.3477 3.1523c-0.67188 0-1.3047 0.63281-1.3047 1.3047v27.391c0 0.63281 0.67188 1.3047 1.3047 1.3047h20.871c0.63281 0 1.3047-0.67188 1.3047-1.3047v-20.215l-8.4805-8.4805z"
     fill="#0ba05d"
     id="path11410" />
  <path
     d="m20.668 3.5272 8.4805 8.4805h-7.1758c-0.63281 0-1.3047-0.67187-1.3047-1.3047z"
     filter="url(#a)"
     opacity=".2"
     id="path11412" />
  <path
     d="m21.043 3.1523 8.4805 8.4805h-7.1758c-0.63281 0-1.3047-0.67187-1.3047-1.3047z"
     fill="#53bc8d"
     id="path11414" />
  <path
     d="m 24.749976,16.245842 -0.970096,-0.462263 -11.561415,8.93312 -0.0013,0.739312 c 0.435395,0 -0.243363,0.0043 0,0 0.440733,-0.0079 0.733704,-0.01469 1.484327,0.009 v -1.2239 h 0.61378 v 1.2239 h 1.2276 v -1.2239 h 0.61379 v 1.2239 h 1.2276 v -1.2239 h 0.61378 v 1.2239 h 1.2276 v -1.2239 h 0.61378 v 1.2239 h 1.2276 v -1.2239 h 0.61378 v 1.2239 h 1.2276 v -1.2239 h 0.61378 v 1.2239 h 0.687283 v 0 l 0.540328,-0.544917 z m -1.641695,1.582182 0.414119,0.243513 v 4.491565 L 23.11313,23.0133 v 0 l -5.690145,0 v 0 l -0.158582,-0.403937 z"
     fill="#ffffff"
     fill-rule="evenodd"
     stroke-width="0.9409"
     id="path11416"
     sodipodi:nodetypes="ccccsccccccccccccccccccccccccccccccccccccccc" />
</svg>
