<?xml version="1.0" encoding="UTF-8" standalone="no"?>
<svg
   width="64"
   height="64"
   version="1.1"
   id="svg1289326"
   sodipodi:docname="application-x-designer.svg"
   inkscape:version="1.1.2 (0a00cf5339, 2022-02-04)"
   xmlns:inkscape="http://www.inkscape.org/namespaces/inkscape"
   xmlns:sodipodi="http://sodipodi.sourceforge.net/DTD/sodipodi-0.dtd"
   xmlns="http://www.w3.org/2000/svg"
   xmlns:svg="http://www.w3.org/2000/svg">
  <defs
     id="defs1289330" />
  <sodipodi:namedview
     id="namedview1289328"
     pagecolor="#ffffff"
     bordercolor="#666666"
     borderopacity="1.0"
     inkscape:pageshadow="2"
     inkscape:pageopacity="0.0"
     inkscape:pagecheckerboard="0"
     showgrid="false"
     inkscape:zoom="12.921875"
     inkscape:cx="31.961306"
     inkscape:cy="32"
     inkscape:window-width="1920"
     inkscape:window-height="1051"
     inkscape:window-x="0"
     inkscape:window-y="29"
     inkscape:window-maximized="1"
     inkscape:current-layer="svg1289326" />
  <path
     style="opacity:0.2"
     d="M 12.75,5 C 11.2265,5 10,6.2488 10,7.8 v 50.4 c 0,1.55008 1.2265,2.8 2.75,2.8 h 38.5 C 52.7724,61 54,59.75008 54,58.2 V 23 L 40,19 36,5 Z"
     id="path1289312" />
  <path
     style="fill:#00cc5c"
     d="M 12.75,4 C 11.2265,4 10,5.2488 10,6.8 v 50.4 c 0,1.55008 1.2265,2.8 2.75,2.8 h 38.5 C 52.7724,60 54,58.75008 54,57.2 V 22 L 40,18 36,4 Z"
     id="path1289314" />
  <path
     style="opacity:0.2"
     d="M 54,23 36,5 V 20.1875 C 36,21.74675 37.2555,23 38.8125,23 Z"
     id="path1289316" />
  <path
     style="fill:#6ef1a8"
     d="M 54,22 36,4 V 19.1875 C 36,20.74675 37.2555,22 38.8125,22 Z"
     id="path1289318" />
  <path
     style="opacity:0.2;fill:#ffffff"
     d="M 12.75 4 C 11.2265 4 10 5.2495812 10 6.8007812 L 10 7.8007812 C 10 6.2495813 11.2265 5 12.75 5 L 36 5 L 36 4 L 12.75 4 z"
     id="path1289320" />
  <path
     style="opacity:0.2"
     d="m 45,28.000032 c -3.799709,4.336174 -11.621765,8.463322 -16.56116,10.088567 -13.255189,5.276299 -6.931,17.893245 -6.931,17.893245 4.020908,-3.342423 22.10596,-25.689702 22.10596,-25.689702 0,0 -14.20728,20.447329 -20.654656,25.689702 v 0.01092 C 40.262573,56.315447 40.955099,45.770557 42.235738,39.334609 43.552835,32.715431 45,28.000032 45,28.000032 Z"
     id="path1289322" />
  <path
     style="fill:#ffffff"
     d="m 44.706619,28.003827 c -0.253408,0.289185 -0.231324,-0.426355 -0.518464,-0.13971 -4.018368,4.011451 -11.139334,7.707627 -15.749315,9.224482 -13.255189,5.276299 -6.931,17.893245 -6.931,17.893245 4.020908,-3.342423 22.10596,-25.689702 22.10596,-25.689702 0,0 -14.20728,20.447329 -20.654656,25.689702 v 0.01092 C 40.262573,55.315447 40.9551,44.770557 42.235738,38.334609 c 0.956288,-4.805902 1.981142,-8.60821 2.470881,-10.330782 0.184779,-0.64993 0,0 0,0 z"
     id="path1289324"
     sodipodi:nodetypes="cscccccssc" />
</svg>
