<?xml version="1.0" encoding="UTF-8" standalone="no"?>
<svg
   width="64"
   height="64"
   version="1"
   id="svg1419935"
   sodipodi:docname="application-x-gzpostscript.svg"
   inkscape:version="1.1.2 (0a00cf5339, 2022-02-04)"
   xmlns:inkscape="http://www.inkscape.org/namespaces/inkscape"
   xmlns:sodipodi="http://sodipodi.sourceforge.net/DTD/sodipodi-0.dtd"
   xmlns="http://www.w3.org/2000/svg"
   xmlns:svg="http://www.w3.org/2000/svg">
  <defs
     id="defs1419939" />
  <sodipodi:namedview
     id="namedview1419937"
     pagecolor="#ffffff"
     bordercolor="#666666"
     borderopacity="1.0"
     inkscape:pageshadow="2"
     inkscape:pageopacity="0.0"
     inkscape:pagecheckerboard="0"
     showgrid="false"
     inkscape:zoom="12.921875"
     inkscape:cx="31.961306"
     inkscape:cy="25.808948"
     inkscape:window-width="1920"
     inkscape:window-height="1051"
     inkscape:window-x="0"
     inkscape:window-y="29"
     inkscape:window-maximized="1"
     inkscape:current-layer="svg1419935" />
  <path
     style="opacity:0.2"
     d="M 12.75,5 C 11.2265,5 10,6.2488 10,7.8 v 50.4 c 0,1.5512 1.2265,2.8 2.75,2.8 h 38.5 C 52.7735,61 54,59.7512 54,58.2 V 21 L 40,19 38,5 Z"
     id="path1419921" />
  <path
     style="fill:#e4e4e4"
     d="M 12.75,4 C 11.2265,4 10,5.2488 10,6.8 v 50.4 c 0,1.5512 1.2265,2.8 2.75,2.8 h 38.5 C 52.7735,60 54,58.7512 54,57.2 V 20 L 40,18 38,4 Z"
     id="path1419923" />
  <path
     style="opacity:0.2"
     d="M 38,5 V 18.333333 C 38,19.806134 39.193906,21 40.666666,21 H 54 Z"
     id="path1419925" />
  <path
     style="fill:#fafafa"
     d="M 38,4 V 17.333333 C 38,18.806133 39.193906,20 40.666666,20 H 54 Z"
     id="path1419927" />
  <path
     style="opacity:0.1"
     d="m 27.448968,54.97261 c -0.607206,-0.02302 -1.121856,-0.06034 -1.143664,-0.08298 -0.0218,-0.02254 0.242894,-0.17934 0.58824,-0.34839 1.387782,-0.679414 2.484708,-1.826372 3.463298,-3.621268 0.15046,-0.275974 0.649192,-1.348496 1.108296,-2.383392 3.35961,-7.573186 7.76176,-17.389398 7.832144,-17.464638 0.0743,-0.0795 0.28674,-0.07706 1.678742,0.019 3.71091,0.255932 4.395174,0.361428 5.05233,0.778952 0.609198,0.38704 1.166284,1.133994 1.365326,1.830644 0.298488,1.04472 0.605402,5.685762 0.60632,9.168462 7.08e-4,3.579342 -0.316048,8.358888 -0.617152,9.305438 -0.320878,1.00872 -1.089526,1.798902 -2.047348,2.104706 -0.545188,0.17406 -3.412756,0.4272 -7.104318,0.62715 -1.465284,0.07942 -9.189366,0.12692 -10.782214,0.0663 z m -6.632486,-0.356754 c -0.11678,-0.0132 -0.499078,-0.0566 -0.8495,-0.09574 -1.864786,-0.208072 -2.893562,-0.893556 -3.339826,-2.225348 -0.403197,-1.203262 -0.720133,-7.26584 -0.602233,-11.519898 0.09424,-3.4004 0.356013,-6.527 0.603776,-7.211484 0.386769,-1.068534 1.246819,-1.853752 2.285473,-2.086626 0.484007,-0.10852 2.620246,-0.29767 4.99691,-0.442454 1.356378,-0.08266 1.69348,-0.12118 1.801314,-0.206052 0.07298,-0.05742 0.953546,-1.055298 1.956848,-2.217506 1.003306,-1.162212 1.846914,-2.12763 1.874678,-2.145368 0.233884,-0.14942 1.64857,-0.10002 1.64857,0.0575 0,0.05962 -11.199698,13.609726 -13.153974,15.914444 -0.05139,0.06064 -0.07872,0.1253 -0.06076,0.14388 0.01798,0.0186 0.306502,-0.02398 0.641226,-0.09446 0.436194,-0.0919 0.841652,-0.12818 1.4313,-0.12818 2.797654,0 5.831902,1.145582 7.554498,2.852206 1.165966,1.155152 1.643574,2.239698 1.644156,3.733488 0.0015,2.990706 -1.796402,4.918466 -5.154584,5.527918 -0.667916,0.12122 -2.702446,0.210384 -3.277864,0.14366 z m 9.28344,-5.76879 c -0.0015,-2.164982 -0.860726,-4.161312 -2.54632,-5.915294 -0.88655,-0.922518 -1.886182,-1.669206 -3.03168,-2.264542 -0.501844,-0.26081 -1.819294,-0.752072 -2.02161,-0.753826 -0.05842,-5e-4 -0.1062,-0.03762 -0.1062,-0.08238 0,-0.06106 6.373184,-7.70146 11.905346,-14.272566 l 0.17718,-0.210458 0.423368,0.14074 c 0.514476,0.171 1.26322,0.557766 1.347672,0.696158 0.06374,0.1045 0.228,-0.09674 -8.103498,9.9274 -1.29277,1.55541 -2.350846,2.84685 -2.351286,2.869856 -4.26e-4,0.02296 0.238126,0.23441 0.53014,0.469786 2.05375,1.655364 3.65413,4.288328 4.054162,6.669922 0.17096,1.01781 0.0386,2.949708 -0.221128,3.226988 -0.03412,0.03642 -0.05592,-0.15882 -0.05614,-0.501766 z"
     id="path1419929" />
  <path
     style="fill:#ec2f36"
     d="m 27.448968,53.97261 c -0.607206,-0.02302 0.918077,0.01846 -1.143664,-0.08298 2.061741,0.101441 0.242894,-0.17934 0.58824,-0.34839 1.387782,-0.679414 2.484708,-1.826372 3.463298,-3.621268 0.15046,-0.275974 0.649192,-1.348496 1.108296,-2.383392 3.35961,-7.573186 7.76176,-17.389398 7.832144,-17.464638 0.0743,-0.0795 0.28674,-0.07706 1.678742,0.019 3.71091,0.255932 4.395174,0.361428 5.05233,0.778952 0.609198,0.38704 1.166284,1.133994 1.365326,1.830644 0.298488,1.04472 0.605402,5.685762 0.60632,9.168462 7.08e-4,3.579342 -0.316048,8.358888 -0.617152,9.305438 -0.320878,1.00872 -1.089526,1.798902 -2.047348,2.104706 -0.545188,0.17406 -3.412756,0.4272 -7.104318,0.62715 -1.272631,0.06898 -7.266462,0.113878 -9.864137,0.08478 -0.39324,-0.0044 -0.708652,-0.01051 -0.918077,-0.01848 z m -6.632486,-0.356754 c -0.11678,-0.0132 -0.499078,-0.0566 -0.8495,-0.09574 -1.864786,-0.208072 -2.893562,-0.893556 -3.339826,-2.225348 -0.403197,-1.203262 -0.720133,-7.26584 -0.602233,-11.519898 0.09424,-3.4004 0.356013,-6.527 0.603776,-7.211484 0.386769,-1.068534 1.246819,-1.853752 2.285473,-2.086626 0.484007,-0.10852 2.620246,-0.29767 4.99691,-0.442454 1.356378,-0.08266 1.69348,-0.12118 1.801314,-0.206052 0.07298,-0.05742 0.953546,-1.055298 1.956848,-2.217506 1.003306,-1.162212 1.846914,-2.12763 1.874678,-2.145368 0.233884,-0.14942 1.64857,-0.10002 1.64857,0.0575 0,0.05047 -8.025195,9.767606 -11.674389,14.147616 -0.661749,0.794277 0.29999,-0.353784 0,0 0.35037,0.997921 0.33241,0.979341 0.35037,0.997921 0.01798,0.0186 0.550692,0.784165 0.885416,0.713685 0.436194,-0.0919 -0.995117,-0.312007 -0.405469,-0.312007 0.23319,0 0.169888,0.296467 0.405469,0.312007 2.590758,0.171333 5.271879,1.264295 6.850893,2.828668 1.165964,1.155154 1.643574,2.239698 1.644156,3.733488 0.0015,2.990706 -1.796402,4.918466 -5.154584,5.527918 -0.667916,0.12122 -2.702446,0.210384 -3.277864,0.14366 z m 9.28344,-5.76879 c -0.0015,-2.164982 -0.860726,-4.161312 -2.54632,-5.915294 -0.88655,-0.922518 -1.886175,-1.669219 -3.03168,-2.264542 -0.234902,-0.122079 -0.648501,-0.29465 -1.04279,-0.443877 -0.44807,-0.169581 0.463379,0 -0.515441,-0.309949 -0.0557,-0.01764 0.10274,-0.164131 0.10274,-0.208891 0,-0.01457 -0.309371,-0.33427 0.318481,-1.094578 2.003103,-2.425692 6.702622,-8.048468 10.914546,-13.051477 l 0.17718,-0.210458 0.423368,0.14074 c 0.514476,0.171 1.26322,0.557766 1.347672,0.696158 0.06374,0.1045 0.228,-0.09674 -8.103498,9.9274 -1.29277,1.55541 -2.350846,2.84685 -2.351286,2.869856 -4.26e-4,0.02296 0.238126,0.23441 0.53014,0.469786 2.05375,1.655364 3.65413,4.288328 4.054162,6.669922 0.17096,1.01781 0.320195,2.22426 0.06047,2.50154 -0.03412,0.03642 -0.337745,0.223664 -0.337735,0.223682 z"
     id="path1419931"
     sodipodi:nodetypes="cccsccccscsscsccccsscsccsssscscssscsccsssssssscccsccsscs" />
  <path
     style="opacity:0.2;fill:#ffffff"
     d="M 12.75 4 C 11.2265 4 10 5.2495812 10 6.8007812 L 10 7.8007812 C 10 6.2495813 11.2265 5 12.75 5 L 38 5 L 38 4 L 12.75 4 z"
     id="path1419933" />
</svg>
