<?xml version="1.0" encoding="UTF-8" standalone="no"?>
<svg
   width="64"
   height="64"
   version="1.1"
   id="svg1257559"
   sodipodi:docname="application-vnd.ms-tnef.svg"
   inkscape:version="1.1.2 (0a00cf5339, 2022-02-04)"
   xmlns:inkscape="http://www.inkscape.org/namespaces/inkscape"
   xmlns:sodipodi="http://sodipodi.sourceforge.net/DTD/sodipodi-0.dtd"
   xmlns="http://www.w3.org/2000/svg"
   xmlns:svg="http://www.w3.org/2000/svg">
  <defs
     id="defs1257563" />
  <sodipodi:namedview
     id="namedview1257561"
     pagecolor="#ffffff"
     bordercolor="#666666"
     borderopacity="1.0"
     inkscape:pageshadow="2"
     inkscape:pageopacity="0.0"
     inkscape:pagecheckerboard="0"
     showgrid="false"
     inkscape:zoom="12.921875"
     inkscape:cx="31.961306"
     inkscape:cy="32"
     inkscape:window-width="1920"
     inkscape:window-height="1051"
     inkscape:window-x="0"
     inkscape:window-y="29"
     inkscape:window-maximized="1"
     inkscape:current-layer="svg1257559" />
  <path
     style="opacity:0.2"
     d="M 12.75,5 C 11.2265,5 10,6.2488 10,7.8 v 50.4 c 0,1.55008 1.2265,2.8 2.75,2.8 h 38.5 C 52.7724,61 54,59.75008 54,58.2 V 23 L 40,19 36,5 Z"
     id="path1257545" />
  <path
     style="fill:#fec006"
     d="M 12.75,4 C 11.2265,4 10,5.2488 10,6.8 v 50.4 c 0,1.55008 1.2265,2.8 2.75,2.8 h 38.5 C 52.7724,60 54,58.75008 54,57.2 V 22 L 40,18 36,4 Z"
     id="path1257547" />
  <path
     style="opacity:0.2"
     d="M 54,23 36,5 V 20.1875 C 36,21.74675 37.2555,23 38.8125,23 Z"
     id="path1257549" />
  <path
     style="fill:#fed865"
     d="M 54,22 36,4 V 19.1875 C 36,20.74675 37.2555,22 38.8125,22 Z"
     id="path1257551" />
  <path
     style="opacity:0.2;fill:#ffffff"
     d="M 12.75 4 C 11.2265 4 10 5.2495812 10 6.8007812 L 10 7.8007812 C 10 6.2495813 11.2265 5 12.75 5 L 36 5 L 36 4 L 12.75 4 z"
     id="path1257553" />
  <path
     style="opacity:0.2"
     d="m 21.5,31 c -0.584804,0 -1.126966,0.163493 -1.610547,0.427002 L 32,38.994873 44.110547,31.427002 C 43.626966,31.163493 43.084804,31 42.5,31 Z m -3.335937,2.607666 C 18.067173,33.944639 18,34.294844 18,34.665772 V 49.334228 C 18,51.365562 19.561,53 21.5,53 h 21 C 44.439,53 46,51.365562 46,49.334228 V 34.665772 c 0,-0.370928 -0.06717,-0.721133 -0.164063,-1.058106 l -13.083984,8.17749 a 1.40014,1.3751375 0 0 1 -1.503906,0 z"
     id="path1257555" />
  <path
     style="fill:#ffffff"
     d="m 21.5,30 c -0.584804,0 0.483581,-0.263509 0,0 l -0.225202,1.292703 9.810055,6.130295 v 0 l 1.876054,-0.0286 9.761346,-6.099857 L 42.5,30 c -0.483581,-0.263509 0.584804,0 0,0 z m -3.335937,3.607666 C 18.067173,33.944639 18,33.294844 18,33.665772 V 48.334228 C 18,50.365562 19.561,52 21.5,52 h 21 C 44.439,52 46,50.365562 46,48.334228 V 33.665772 c 0,-0.370928 -0.06717,0.278867 -0.164063,-0.05811 L 44.56774,33.400289 32.751953,40.785156 c -0.458759,0.286859 -1.045147,0.286859 -1.503906,0 L 19.444886,33.40818 Z"
     id="path1257557"
     sodipodi:nodetypes="scccccccsscsssssscccccc" />
</svg>
