<?xml version="1.0" encoding="UTF-8" standalone="no"?>
<svg
   width="22"
   height="22"
   version="1"
   id="svg59"
   sodipodi:docname="libreoffice-extension.svg"
   inkscape:version="1.1.2 (0a00cf5339, 2022-02-04)"
   xmlns:inkscape="http://www.inkscape.org/namespaces/inkscape"
   xmlns:sodipodi="http://sodipodi.sourceforge.net/DTD/sodipodi-0.dtd"
   xmlns="http://www.w3.org/2000/svg"
   xmlns:svg="http://www.w3.org/2000/svg">
  <defs
     id="defs63" />
  <sodipodi:namedview
     id="namedview61"
     pagecolor="#ffffff"
     bordercolor="#666666"
     borderopacity="1.0"
     inkscape:pageshadow="2"
     inkscape:pageopacity="0.0"
     inkscape:pagecheckerboard="0"
     showgrid="false"
     inkscape:zoom="38.227273"
     inkscape:cx="10.98692"
     inkscape:cy="11"
     inkscape:window-width="1920"
     inkscape:window-height="1051"
     inkscape:window-x="0"
     inkscape:window-y="29"
     inkscape:window-maximized="1"
     inkscape:current-layer="svg59" />
  <path
     fill="#0780da"
     d="M 9,1 C 7.892,1 7,1.892 7,3 V 4.7151689 L 6.7350562,5 V 5 H 3 C 1.892,5 1,5.892 1,7 v 3.743221 L 1.3035009,11 v 0 H 3 c 1.108,0 2,0.892 2,2 0,1.108 -0.892,2 -2,2 H 1.3370128 v 0 L 1,15.203317 V 19 c 0,1.108 0.892,2 2,2 H 6.8396408 L 7,20.745222 v 0 V 19 c 0,-1.108 0.892,-2 2,-2 1.108,0 2,0.892 2,2 v 1.737312 L 11.274358,21 v 0 H 15 c 1.108,0 2,-0.892 2,-2 v -3.79759 0 L 17.145783,15 H 19 c 1.108,0 2,-0.892 2,-2 0,-1.108 -0.892,-2 -2,-2 h -1.740444 v 0 L 17,10.77105 V 7 C 17,5.892 16.108,5 15,5 H 11.249783 V 5 L 11,4.7384926 V 3 C 11,1.892 10.108,1 9,1 Z"
     id="path53"
     sodipodi:nodetypes="sscccsscccssscccsscccssscccsscccssscccsscccss" />
  <path
     fill="#ffffff"
     opacity="0.1"
     d="M 9,1 C 7.892,1 7,1.892 7,3 v 0.5 c 0,-1.108 0.892,-2 2,-2 1.108,0 2,0.892 2,2 V 3 C 11,1.892 10.108,1 9,1 Z M 3,5 C 1.892,5 1,5.892 1,7 v 0.5 c 0,-1.108 0.892,-2 2,-2 H 7 V 5 H 6.7692211 Z m 8,0 v 0.5 h 4 c 1.108,0 2,0.892 2,2 V 7 C 17,5.892 16.108,5 15,5 h -3.782091 z m 6,6 v 0.5 h 2 c 1.0083,0 1.8296,0.74102 1.9707,1.709 0.009,-0.07 0.029,-0.136 0.029,-0.209 0,-1.108 -0.892,-2 -2,-2 h -2 z M 4.93,13.5 C 4.708,14.363 3.9345,15 3.0003,15 h -2 v 0.5 h 2 c 0.93416,0 1.7077,-0.63701 1.9297,-1.5 0.024039,0.09347 0.028601,0.19352 0.041016,0.29102 0.014,-0.096 0.0293,-0.191 0.0293,-0.291 0,-0.174 -0.029,-0.339 -0.0703,-0.5 z"
     id="path55"
     sodipodi:nodetypes="sscscsssscscccsccscssccccscsscccsccsccscc" />
  <path
     opacity=".2"
     d="m1 11v0.5h2c1.0224 0 1.8511 0.76218 1.9746 1.75 0.0104-0.083 0.0254-0.164 0.0254-0.25 0-1.108-0.892-2-2-2h-2zm19.975 2.25c-0.124 0.988-0.953 1.75-1.975 1.75h-2v0.5h2c1.108 0 2-0.892 2-2 0-0.08564-0.01504-0.16725-0.02539-0.25zm-11.975 3.75c-1.108 0-2 0.892-2 2v0.5c0-1.108 0.892-2 2-2s2 0.892 2 2v-0.5c0-1.108-0.892-2-2-2zm-8 2v0.5c0 1.108 0.892 2 2 2h4v-0.5h-4c-1.108 0-2-0.892-2-2zm16 0c0 1.108-0.892 2-2 2h-4v0.5h4c1.108 0 2-0.892 2-2v-0.5z"
     id="path57" />
</svg>
