<?xml version="1.0" encoding="UTF-8" standalone="no"?>
<svg
   width="36pt"
   height="36pt"
   version="1.1"
   viewBox="0 0 36 36"
   id="svg977366"
   sodipodi:docname="text-swift.svg"
   inkscape:version="1.1.2 (0a00cf5339, 2022-02-04)"
   xmlns:inkscape="http://www.inkscape.org/namespaces/inkscape"
   xmlns:sodipodi="http://sodipodi.sourceforge.net/DTD/sodipodi-0.dtd"
   xmlns="http://www.w3.org/2000/svg"
   xmlns:svg="http://www.w3.org/2000/svg">
  <sodipodi:namedview
     id="namedview977368"
     pagecolor="#ffffff"
     bordercolor="#666666"
     borderopacity="1.0"
     inkscape:pageshadow="2"
     inkscape:pageopacity="0.0"
     inkscape:pagecheckerboard="0"
     inkscape:document-units="pt"
     showgrid="false"
     inkscape:zoom="17.229167"
     inkscape:cx="24.02902"
     inkscape:cy="24"
     inkscape:window-width="1920"
     inkscape:window-height="1051"
     inkscape:window-x="0"
     inkscape:window-y="29"
     inkscape:window-maximized="1"
     inkscape:current-layer="svg977366" />
  <defs
     id="defs977354">
    <filter
       id="a"
       x="-0.19199928"
       y="-0.19199928"
       width="1.3839986"
       height="1.3839986"
       color-interpolation-filters="sRGB">
      <feGaussianBlur
         stdDeviation="0.67843748"
         id="feGaussianBlur977351" />
    </filter>
  </defs>
  <path
     d="m7.3477 3.9022c-0.67188 0-1.3047 0.63281-1.3047 1.3047v27.391c0 0.63281 0.67188 1.3047 1.3047 1.3047h20.871c0.63281 0 1.3047-0.67188 1.3047-1.3047v-20.215l-8.4805-8.4805z"
     opacity=".1"
     id="path977356" />
  <path
     d="m7.3477 3.1523c-0.67188 0-1.3047 0.63281-1.3047 1.3047v27.391c0 0.63281 0.67188 1.3047 1.3047 1.3047h20.871c0.63281 0 1.3047-0.67188 1.3047-1.3047v-20.215l-8.4805-8.4805z"
     fill="#fc7c00"
     id="path977358" />
  <path
     d="m20.668 3.5272 8.4805 8.4805h-7.1758c-0.63281 0-1.3047-0.67187-1.3047-1.3047z"
     filter="url(#a)"
     opacity=".2"
     id="path977360" />
  <path
     d="m21.043 3.1523 8.4805 8.4805h-7.1758c-0.63281 0-1.3047-0.67187-1.3047-1.3047z"
     fill="#fda34b"
     id="path977362" />
  <path
     d="m 19.59,13.743 c -0.02187,0.0678 0.07179,0.13557 0.09381,0.19849 0.116981,0.183986 0.227136,0.373215 0.330412,0.566952 0.403431,0.756801 0.701897,1.582386 0.892288,2.432948 0.1211,0.53494 0.17092,1.0842 0.15592,1.6359 0.01708,0.51718 -0.0463,1.0317 -0.16857,1.5301 -0.04508,0.20023 -0.10089,0.39728 -0.16356,0.59165 -1.9326,-1.5223 -3.8445,-3.0847 -5.6321,-4.8106 -0.3023,-0.28543 -0.52035,-0.44642 -0.8168,-0.73807 -0.05852,0.02563 0,0 0,0 0,0 0.343842,0.525215 0.516697,0.787197 0.751215,1.138557 1.517902,2.265747 2.348403,3.335903 0.20067,0.25671 0.41372,0.50112 0.63001,0.74184 -1.3705,-0.90429 -2.6395,-1.9819 -3.8914,-3.0719 -0.45837,-0.39284 -0.302181,0.04894 -0.764731,-0.336442 -0.0422,0.04686 0.520319,0.714968 0,0 0.172601,0.238993 -0.17433,-0.237589 0,0 1.140411,1.554229 2.321187,3.074369 3.586381,4.507232 0.65024,0.72308 1.3205,1.4372 2.095,1.9987 0.05451,0.06163 -0.06939,0.09155 -0.10256,0.11888 -0.63405,0.35234 -1.3323,0.56558 -2.0387,0.63517 -0.69596,0.04018 -1.4026,0.04362 -2.0854,-0.13057 -0.914561,-0.203273 -1.783148,-0.59622 -2.600288,-1.089236 -0.235556,-0.142121 -0.466837,-0.292558 -0.693712,-0.449164 -0.07285,-0.02139 0.677936,0.423144 0.693712,0.449164 0.13935,0.232601 -0.389142,0.123964 -0.232297,0.342579 0.675858,0.942032 1.507032,1.749601 2.432225,2.382927 1.2311,0.83654 2.66,1.3222 4.1059,1.3835 0.70201,0.0116 1.4191,-0.01179 2.0879,-0.273 0.6601,-0.24136 1.2498,-0.67116 1.9107,-0.90644 0.63354,-0.19771 1.3295,0.07751 1.7945,0.56832 0.18546,0.17118 0.32666,0.38966 0.48564,0.58674 0.06986,0.0322 0.06482,-0.1127 0.08917,-0.15355 0.15854,-0.56328 0.12032,-1.1717 -0.04387,-1.7276 -0.20769,-0.72184 -0.57538,-1.3794 -1.0135,-1.9586 0.20405,-0.62655 0.29623,-1.2925 0.28442,-1.9574 0.0085,-1.5807 -0.57553,-3.1094 -1.4382,-4.3518 -0.579478,-0.835561 -1.272194,-1.568858 -2.027824,-2.210779 -0.249089,-0.211606 -0.505016,-0.413283 -0.765976,-0.605421 0.370622,0.741822 -0.034,-0.02884 -0.05394,-0.0232 z"
     fill="#ffffff"
     stroke-width="0.020965"
     id="path977364"
     sodipodi:nodetypes="ccscccccccscccccscccccsccscccccccccccsccc" />
</svg>
