<?xml version="1.0" encoding="UTF-8" standalone="no"?>
<svg
   width="64"
   height="64"
   version="1"
   id="svg897106"
   sodipodi:docname="video-x-wmv.svg"
   inkscape:version="1.1.2 (0a00cf5339, 2022-02-04)"
   xmlns:inkscape="http://www.inkscape.org/namespaces/inkscape"
   xmlns:sodipodi="http://sodipodi.sourceforge.net/DTD/sodipodi-0.dtd"
   xmlns="http://www.w3.org/2000/svg"
   xmlns:svg="http://www.w3.org/2000/svg">
  <defs
     id="defs897110" />
  <sodipodi:namedview
     id="namedview897108"
     pagecolor="#ffffff"
     bordercolor="#666666"
     borderopacity="1.0"
     inkscape:pageshadow="2"
     inkscape:pageopacity="0.0"
     inkscape:pagecheckerboard="0"
     showgrid="false"
     inkscape:zoom="12.921875"
     inkscape:cx="31.961306"
     inkscape:cy="32"
     inkscape:window-width="1920"
     inkscape:window-height="1051"
     inkscape:window-x="0"
     inkscape:window-y="29"
     inkscape:window-maximized="1"
     inkscape:current-layer="svg897106" />
  <path
     style="opacity:0.2"
     d="m 58,54.3326 v -42.666 c 0,-1.4777 -1.16,-2.667 -2.6,-2.667 H 8.6 c -1.4404,0 -2.6,1.1893 -2.6,2.6667 v 42.667 C 6,55.8106 7.1596,57 8.6,57 h 46.8 c 1.4404,0 2.6,-1.1893 2.6,-2.6667 z"
     id="path897096" />
  <path
     fill="#7282d9"
     d="m58 53.333v-42.666c0-1.4777-1.16-2.667-2.6-2.667h-46.8c-1.4404 0-2.6 1.1893-2.6 2.6667v42.667c0 1.4773 1.1596 2.6667 2.6 2.6667h46.8c1.4404 0 2.6-1.1893 2.6-2.6667z"
     id="path897098" />
  <path
     style="opacity:0.2"
     d="M 21.296,24.9996 H 37.7 c 1.3,0 1.3,1.2857 1.3,1.2857 v 15.429 c 0,1.285 -1.3,1.285 -1.3,1.285 H 21.3 c 0,0 -1.3,0 -1.3,-1.2857 v -15.428 c 0,0 0,-1.286 1.3,-1.286 z m 25.704,2 v 13.670971 0 L 45.977358,40.976958 39,33.9996 Z"
     id="path897100"
     sodipodi:nodetypes="cscsccsccccccccc" />
  <path
     fill="#ffffff"
     d="M 21.296,24 H 37.7 c 1.3,0 1.3,1.2857 1.3,1.2857 v 15.429 c 0,1.285 -1.3,1.285 -1.3,1.285 H 21.3 c 0,0 -1.3,0 -1.3,-1.2857 V 25.286 C 20,25.286 20,24 21.3,24 Z M 47,26.9996 v 0.682598 11.96521 0 l -1.007678,0.344914 -6.092949,-6.092949 0.01866,-1.702654 v 0 l 5.917518,-5.177828 z"
     id="path897102"
     sodipodi:nodetypes="cscsccsccccccccccccc" />
  <path
     style="fill:#ffffff;opacity:0.2"
     d="M 8.5996094 8 C 7.1592094 8 6 9.1886156 6 10.666016 L 6 11.666016 C 6 10.188616 7.1592094 9 8.5996094 9 L 55.400391 9 C 56.840391 9 58 10.188316 58 11.666016 L 58 10.667969 C 58 9.1902687 56.840391 8 55.400391 8 L 8.5996094 8 z"
     id="path897104" />
</svg>
