<?xml version="1.0" encoding="UTF-8" standalone="no"?>
<svg
   width="512"
   height="512"
   version="1.1"
   viewBox="0 0 384 384"
   id="svg4258"
   sodipodi:docname="distributor-logo-archlinux.svg"
   inkscape:version="1.1.2 (0a00cf5339, 2022-02-04)"
   xmlns:inkscape="http://www.inkscape.org/namespaces/inkscape"
   xmlns:sodipodi="http://sodipodi.sourceforge.net/DTD/sodipodi-0.dtd"
   xmlns="http://www.w3.org/2000/svg"
   xmlns:svg="http://www.w3.org/2000/svg">
  <sodipodi:namedview
     id="namedview4260"
     pagecolor="#ffffff"
     bordercolor="#666666"
     borderopacity="1.0"
     inkscape:pageshadow="2"
     inkscape:pageopacity="0.0"
     inkscape:pagecheckerboard="0"
     showgrid="false"
     inkscape:zoom="1.6152344"
     inkscape:cx="255.69045"
     inkscape:cy="256"
     inkscape:window-width="1920"
     inkscape:window-height="1051"
     inkscape:window-x="0"
     inkscape:window-y="29"
     inkscape:window-maximized="1"
     inkscape:current-layer="svg4258" />
  <defs
     id="defs4250">
    <clipPath
       id="clipPath4244">
      <rect
         width="384"
         height="384"
         id="rect4242" />
    </clipPath>
    <clipPath
       id="clipPath4248">
      <rect
         width="384"
         height="384"
         id="rect4246" />
    </clipPath>
  </defs>
  <path
     d="m191.97 39.508c-14.246 34.918-22.84 57.762-38.699 91.641 9.7226 10.305 21.66 22.305 41.047 35.859-20.84-8.5742-35.059-17.18-45.68-26.113-20.301 42.348-52.102 102.67-116.64 218.61 50.727-29.277 86.043-47.328 122.69-54.215-1.5742-6.7656-2.4688-14.086-2.4062-21.723l0.0547-1.625c0.80466-32.492 22.066-58.395 41.734-58.437 19.668-0.043 38.793 32.086 37.988 64.574-0.15234 6.1172-0.83984 11.996-2.0469 17.453 36.25 7.0859 71.945 25.09 121.98 53.973-9.8672-18.16-18.672-34.531-27.082-50.125-13.25-10.266-27.066-23.625-55.25-38.086 19.371 5.0313 33.242 10.836 44.055 17.328-85.504-159.17-92.426-180.32-121.75-249.12z"
     fill-rule="evenodd"
     opacity=".3"
     id="path4252" />
  <path
     d="m 191.97,32.008 c -0.91633,2.245984 -1.80927,4.442015 -2.68227,6.594242 -12.69935,31.308142 -21.17781,53.346912 -36.01673,85.046758 9.7227,10.305 21.66,22.305 41.047,35.859 -20.84,-8.5742 -35.059,-17.18 -45.68,-26.113 -19.42766,40.5262 -49.387143,97.51319 -108.490848,203.95268 -2.656925,4.78484 8.477684,1.74499 5.701277,6.7327 4.747203,-2.73984 -4.49099,2.54326 0,0 C 89.346636,319.44723 121.47055,304.03249 154.688,297.79 c -1.5742,-6.7656 -2.4688,-14.086 -2.4062,-21.723 l 0.0547,-1.625 c 0.80469,-32.492 22.066,-58.395 41.734,-58.438 19.668,-0.043 38.793,32.086 37.988,64.574 -0.15234,6.1172 -0.83984,11.996 -2.0469,17.453 32.43729,6.34062 64.43018,21.4235 106.65079,45.22049 4.96265,2.79713 1.84118,-9.45953 7.10378,-6.42167 -2.82359,-5.19666 2.66525,4.92737 0,0 C 337.11758,324.5382 330.913,313.01063 324.9096,301.879 c -13.25,-10.266 -27.066,-23.625 -55.25,-38.086 19.371,5.0312 33.242,10.836 44.055,17.328 C 231.67946,128.40847 221.97957,102.74426 195.42971,40.151693 c -1.12266,-2.646736 -4.95231,1.241741 -6.14198,-1.549451 z"
     fill="#357aef"
     fill-rule="evenodd"
     id="path4254"
     sodipodi:nodetypes="cscccscscccsccscscccscc" />
  <path
     transform="scale(0.75)"
     d="m 251.81538,62.87425 c -1.67377,4.10244 0.8556,-12.116363 -0.7129,-8.242828 C 234.87067,94.717136 223.64469,123.67458 204.362,164.868 c 1.0091,1.0695 2.0749,2.1766 3.123,3.2734 17.67397,-38.2718 28.61775,-66.5039 44.33038,-105.26715 1.34424,-3.316245 7.38908,4.263252 8.81032,0.779971 1.6018,3.757696 0,0 0,0 34.51517,81.351939 47.96117,116.419549 150.0143,306.887179 2.6723,1.4041 5.2246,2.8325 7.6504,4.2891 C 309.79596,172.86905 296.19627,137.56442 261.4315,55.562682 c -1.76415,-4.161186 -7.72781,11.74113 -9.61612,7.311568 z M 198.185,177.858 c -27.068,56.464 -69.469,136.9 -155.52,291.47 2.7712,-1.5994 5.4564,-3.1344 8.1602,-4.6836 80.518,-144.91 121.18,-222.17 147.36,-276.79 14.161,11.911 33.12,23.386 60.906,34.818 -12.623,-8.8256 -22.866,-17.154 -31.564,-24.969 -11.797,-6.5245 -21.337,-13.117 -29.342,-19.85 z m 161.37,183.86 c 37.578,19.281 56.001,37.094 73.668,50.781 8.8702,16.447 18.29,33.919 28.26,52.33 2.6036,1.491 5.1864,2.9667 7.8496,4.5039 -3.70262,-6.81478 -7.29308,-13.44057 -10.7912,-19.90746 -8.93126,-16.51101 -17.26058,-31.98623 -25.3178,-46.92654 -10.633,-8.238 -21.572,-17.978 -36.764,-28.625 -10.401,-4.3588 -22.512,-8.4181 -36.904,-12.156 z m -156.38,12.867 c -0.0168,0.44435 -0.0475,0.88383 -0.0586,1.3301 l -0.0723,2.168 c -0.0545,6.6528 0.44312,13.12 1.375,19.324 0.61114,-0.1196 1.2223,-0.24639 1.834,-0.36132 -1.6476,-7.0811 -2.7262,-14.622 -3.0781,-22.461 z m 106.15,1.9336 c -0.3105,7.2864 -1.1912,14.297 -2.6406,20.85 0.56007,0.10948 1.1198,0.23036 1.6797,0.34375 0.57772,-4.4058 0.93281,-8.9546 1.0488,-13.613 0.0627,-2.5311 0.0257,-5.0608 -0.0879,-7.5801 z"
     fill="#ffffff"
     fill-rule="evenodd"
     opacity="0.3"
     stroke-width="1.3333"
     id="path4256"
     sodipodi:nodetypes="csccscsccscccccccccccccscccccscccccsccccs" />
</svg>
