<?xml version="1.0" encoding="UTF-8" standalone="no"?>
<svg
   width="512"
   height="512"
   version="1.1"
   viewBox="0 0 384 384"
   id="svg709607"
   sodipodi:docname="twitter.svg"
   inkscape:version="1.1.2 (0a00cf5339, 2022-02-04)"
   xmlns:inkscape="http://www.inkscape.org/namespaces/inkscape"
   xmlns:sodipodi="http://sodipodi.sourceforge.net/DTD/sodipodi-0.dtd"
   xmlns="http://www.w3.org/2000/svg"
   xmlns:svg="http://www.w3.org/2000/svg">
  <defs
     id="defs709611" />
  <sodipodi:namedview
     id="namedview709609"
     pagecolor="#ffffff"
     bordercolor="#666666"
     borderopacity="1.0"
     inkscape:pageshadow="2"
     inkscape:pageopacity="0.0"
     inkscape:pagecheckerboard="0"
     showgrid="false"
     inkscape:zoom="1.6152344"
     inkscape:cx="255.69045"
     inkscape:cy="256"
     inkscape:window-width="1920"
     inkscape:window-height="1051"
     inkscape:window-x="0"
     inkscape:window-y="29"
     inkscape:window-maximized="1"
     inkscape:current-layer="svg709607" />
  <path
     d="m258.14083 60.73376c-6.21162-0.0374-12.33984 0.62402-17.74218 2.0376-13.44922 3.52343-28.24268 12.15624-35.00831 20.42578-12.00781 14.68359-18.56591 34.40576-17.31592 52.06201 0.27344 3.88281 0.56596 8.05175 0.65186 9.2666l0.15235 2.20606-9.19483-0.11719c-19.57422-0.24609-41.49609-6.03467-63.64453-16.80029-21.550776-10.47267-40.934076-24.77393-62.699706-46.24659l-8.988285-8.87109-1.44873 3.27832c-0.796875 1.80078-2.281245 6.16406-3.304687 9.6914-7.695308 26.57421-1.543463 49.66017 18.909667 70.98048 7.332023 7.64452 7.340813 8.72558 0.06739 8.59277-3.964853-0.0703-7.266608-0.8003-14.094728-3.12452-4.902352-1.66797-9.124507-3.03515-9.382327-3.03515-0.257805 0-0.257805 1.90235 0 4.23047 3.265635 29.48047 17.85987 48.48389 45.625492 59.40966 7.562498 2.97657 7.90137 4.46924 1.467773 6.46144-5.98437 1.85155-13.804688 2.37938-19.828125 1.3286-2.746088-0.47659-5.182613-0.67676-5.416995-0.44237-0.652335 0.65234 4.034182 9.75438 7.608397 14.78173 9.859373 13.85546 29.289563 25.34424 47.805174 28.2583 2.83204 0.44923 6.24659 0.98389 7.58643 1.19092 4.01953 0.625 2.87841 2.94092-3.96534 8.02295-16.718739 12.41406-35.948716 19.57862-61.378411 22.85595-2.226555 0.28907-10.165035 0.89113-17.645505 1.34034l-13.596683 0.82031 0.276855 0.25928c-1.611592 0.0803 2.15445 2.93638 8.050785 6.11132 5.636723 3.03517 13.37109 6.16357 19.21875 8.40967 14.660153 5.625 36.569828 11.16407 52.401849 12.9375 3.82813 0.42579 8.44629 0.66797 9.65332 0.83204 1.09206 0.14888 3.56332 0.2079 6.77198 0.20361 10.40148 0.44606 21.62781 0.0342 32.54443-1.11768 3.28881-0.21037 6.09793-0.43009 7.58936-0.64453 51.34374-7.36328 94.81299-34.65185 126.60204-77.16357 14.90154-19.92775 25.80063-42.5699 32.47706-65.95898 5.11752-17.55474 7.84319-35.64009 7.87353-53.58399l0.0161-8.30127v-0.0469l7.2495-6.38965c9.63282-7.07811 18.92187-18.17235 23.34375-24.21533 1.88672-2.57812 3.44971-4.98047 3.29737-5.13281-0.0176-0.0176-0.0672-0.0269-0.13769-0.0308 0.0308-0.11416 0.0352-0.19804-3e-3 -0.23437-0.0796-0.0755-1.23877 0.26441-2.97217 0.84521-0.10013 0.0331-0.19759 0.0671-0.2959 0.10254-1.54684 0.52275-3.46805 1.20245-5.59864 1.99658-12.71022 4.73731-24.37119 6.73398-25.37109 4.36523 0.0205-0.6851 3.53874-4.3011 7.67139-8.11816 9.46875-8.75 14.87892-15.09863 16.27734-25.55566l0.22852-1.71826 0.0718-0.44092-2.91798 1.83984c-8.14453 5.14453-19.35937 9.88672-32.48437 13.7461l-3.85253 1.13232c-0.16261 0.0137-0.31642 0.0234-0.45118 0.0234-1.07422 0-3.23534-1.59033-6.04394-4.44579-2.40625-2.44531-6.68751-6.00341-9.51563-7.90577-0.98056-0.65923-2.12995-1.32758-3.32373-1.98632-1.55882-0.89554-3.21671-1.75457-5.09326-2.64258-7.83691-3.7085-18.42122-5.71347-28.77393-5.77588z"
     style="opacity:.3"
     id="path709601" />
  <path
     d="m 116.05078,330.39844 c -12.76562,-0.82031 -29.160156,-3.51953 -43.628906,-7.1875 -17.191406,-4.35938 -33.257813,-20.14062 -48.784948,-13.61341 l 15.527135,-6.52721 v 0 c 7.480469,-0.44922 13.222657,-3.10547 15.449219,-3.39454 25.429688,-3.27734 44.660157,-10.4414 61.37891,-22.85547 6.84375,-5.08203 7.98437,-7.39843 3.96484,-8.02343 -1.33984,-0.20703 -4.75391,-0.74219 -7.58594,-1.19141 -18.515622,-2.91406 -37.94531,-14.40234 -47.804685,-28.25781 -3.574218,-5.02735 -8.261718,-14.12891 -7.609375,-14.78125 0.234375,-0.23438 2.671875,-0.0352 5.417969,0.4414 6.023438,1.05079 13.84375,0.52344 19.828125,-1.32812 6.433594,-1.99219 6.09375,-3.48438 -1.46875,-6.46094 -27.765625,-10.92578 -42.359375,-29.92969 -45.625,-59.41015 -0.257813,-2.32813 -0.257813,-4.23047 0,-4.23047 0.257813,0 4.480469,1.36718 9.382813,3.03515 6.828124,2.32422 10.128906,3.05469 14.09375,3.125 7.273437,0.13282 7.265624,-0.94922 -0.06641,-8.59375 -20.453125,-21.32031 -26.605469,-44.40625 -18.910156,-70.980466 1.023437,-3.527343 2.507813,-7.890624 3.304687,-9.691406 v 0 l 5.543745,0.763798 4.893755,4.829952 c 21.765626,21.472656 41.148438,35.773442 62.699222,46.246092 22.14844,10.76563 44.07031,16.55469 63.64453,16.80078 l 9.19531,0.11719 -0.15234,-2.20703 c -0.0859,-1.21484 -0.37891,-5.38281 -0.65234,-9.26563 -1.25,-17.65625 5.30859,-37.378902 17.3164,-52.062496 6.76563,-8.269531 21.5586,-16.902343 35.00781,-20.425781 14.40625,-3.769531 33.97657,-2.195312 46.51563,3.738281 7,3.3125 11.07422,6.175782 17.55859,12.332032 l 5.33985,5.074218 5.38281,-1.582031 c 13.125,-3.859375 24.33984,-8.601562 32.48438,-13.746093 l -2.15545,1.568899 v 0 c -0.24609,1.511718 2.78826,4.895944 1.08513,8.333444 -3.08984,6.234375 -5.75781,9.386719 -16.30078,19.25 -2.33984,2.1875 -4.13672,4.335938 -3.99219,4.777344 0.8086,2.472656 12.57422,0.480469 25.40235,-4.300781 4.72656,-1.761719 -8.86719,2.945313 0,0 -8.86719,2.945313 2.17969,6.992187 -3.25,12.765624 -3.10156,3.29688 -9.23828,9.16016 -13.63672,13.02734 l -7.99609,7.03125 -0.0156,8.58204 c -0.0859,50.80078 -21.6875,102.75391 -58.41406,140.50391 -24.26172,24.93359 -51.72266,41.5625 -84.01172,50.875 -19.48438,5.62109 -46.21484,8.3164 -68.35547,6.89843 z"
     style="fill:#357af0"
     id="path709603"
     sodipodi:nodetypes="scccccccccsccccscccccccccccccccscccccccccscccccccss" />
  <path
     d="m 112.97266,330.38672 c -1.20703,-0.16406 -5.82422,-0.40625 -9.65234,-0.83203 -15.832035,-1.77344 -37.742191,-7.3125 -52.402347,-12.9375 -5.847657,-2.24609 -24.907119,-1.6456 -21.695048,-7.18342 1.872355,-3.22806 -6.335938,-2.17969 0,0 2.018217,0.69474 1.607979,-5.24057 4.348653,-4.4548 12.66907,3.63229 31.645695,7.8948 43.881551,9.62259 13.871094,1.95704 43.007811,1.78125 56.703121,-0.33593 43.125,-6.67578 76.77735,-23.69532 107.39453,-54.3125 16.09375,-16.09375 27.71094,-31.9961 37.875,-51.83985 12.4375,-24.28515 18.96485,-47.28125 21.48438,-75.70312 2.53906,-28.63672 -5.29297,-58.238284 -19.33203,-73.078128 -1.23047,-1.304687 -3.03907,-2.554687 -2.76953,-2.828125 0.80078,-0.796875 10.99218,3.40625 16.53515,7.132813 2.82813,1.902343 7.10938,5.460937 9.51563,7.90625 2.80859,2.855469 4.96875,4.445312 6.04297,4.445312 4.46184,0 24.57475,-7.667734 34.63361,-13.333443 1.01948,-0.574232 1.93569,-1.127898 2.72186,-1.650932 l -2.72186,1.650932 v 0 c -0.28052,2.097625 4.05018,2.781307 3.44643,4.600784 -2.40604,7.250937 -7.38177,12.710519 -14.95114,19.705316 -4.29687,3.96875 -7.9414,7.730468 -7.66797,8.195312 0.8086,1.382812 2.04688,1.421875 7.9961,0.59375 5.2539,-0.734375 15.71875,-3.984375 22.47656,-6.84375 1.57422,-0.667969 -0.27179,0.789053 -0.12336,0.93749 0.15235,0.152344 2.61555,0.746104 0.72883,3.324229 -4.42188,6.042969 -13.71094,17.13672 -23.34375,24.21484 l -7.25,6.39063 -0.10547,9.40625 c -0.45703,40.80078 -14.29687,83.76172 -40.26172,118.48437 -31.78906,42.51172 -75.25781,69.80078 -126.60156,77.16406 -7.28125,1.04688 -41.77734,2.25782 -46.90625,1.5586 z"
     style="fill:#2861bf"
     id="path709605"
     sodipodi:nodetypes="sccscsccsccccccsscccsccccsccccccs" />
</svg>
