<?xml version="1.0" encoding="UTF-8" standalone="no"?>
<svg
   width="512"
   height="512"
   version="1.1"
   viewBox="0 0 384 384"
   id="svg925570"
   sodipodi:docname="calibre-viewer.svg"
   inkscape:version="1.1.2 (0a00cf5339, 2022-02-04)"
   xmlns:inkscape="http://www.inkscape.org/namespaces/inkscape"
   xmlns:sodipodi="http://sodipodi.sourceforge.net/DTD/sodipodi-0.dtd"
   xmlns="http://www.w3.org/2000/svg"
   xmlns:svg="http://www.w3.org/2000/svg">
  <defs
     id="defs925574" />
  <sodipodi:namedview
     id="namedview925572"
     pagecolor="#ffffff"
     bordercolor="#666666"
     borderopacity="1.0"
     inkscape:pageshadow="2"
     inkscape:pageopacity="0.0"
     inkscape:pagecheckerboard="0"
     showgrid="false"
     inkscape:zoom="1.6152344"
     inkscape:cx="255.69045"
     inkscape:cy="256"
     inkscape:window-width="1920"
     inkscape:window-height="1051"
     inkscape:window-x="0"
     inkscape:window-y="29"
     inkscape:window-maximized="1"
     inkscape:current-layer="g925564" />
  <path
     d="m78 24c-9.9727 0-18 8.0273-18 18v300c0 9.9727 8.0273 18 18 18h228c9.9727 0 18-8.0273 18-18v-300c0-9.9727-8.0273-18-18-18z"
     fill="#17a185"
     id="path925548" />
  <path
     d="m228 31.5v168l24-24 24 24v-168z"
     opacity=".3"
     id="path925550" />
  <path
     d="m228 24v168l24-24 24 24v-168z"
     fill="#fff"
     id="path925552" />
  <path
     transform="scale(.75)"
     d="m80 446v10c0 13.297 10.703 24 24 24h304c13.297 0 24-10.703 24-24v-10c0 13.297-10.703 24-24 24h-304c-13.297 0-24-10.703-24-24z"
     opacity=".3"
     stroke-width="1.3333"
     id="path925554" />
  <g
     fill-rule="evenodd"
     stroke-width=".9375"
     id="g925564">
    <path
       d="m384 294c0 49.706-40.294 90-90 90s-90-40.294-90-90 40.294-90 90-90 90 40.294 90 90z"
       opacity=".3"
       id="path925556" />
    <path
       d="m384 286.5c0 49.706-40.294 90-90 90s-90-40.294-90-90 40.294-90 90-90 90 40.294 90 90z"
       fill="#d41717"
       id="path925558" />
    <path
       d="m296.25 251.25c-10.906 0.12085-21.878 2.9151-31.377 8.9429-3.7866 2.7612-8.3313 6.3281-11.755 9.9206-5.387 5.9107-10.001 12.799-13.118 20.523 8.5437 21.105 27.32 36.574 47.978 38.858 13.553 1.7175 27.737-0.90455 39.65-8.4156 3.7866-2.7612 8.3313-6.3281 11.755-9.9206 5.387-5.9216 10.001-12.814 13.118-20.523-8.5401-21.105-27.323-36.578-47.978-38.858-2.7466-0.36621-5.5151-0.52734-8.2727-0.52734zm0.0219 16.875c12.038-0.26734 22.694 10.507 22.467 22.478 0.38452 13.231-12.795 24.653-25.829 22.181-13.162-1.5454-22.412-16.318-18.083-28.828 2.7685-9.2029 11.811-15.926 21.457-15.82zm-0.0219 11.25c-2.9883 0-5.8521 1.1865-7.9614 3.2995-2.1094 2.113-3.2922 4.9768-3.2886 7.9614 4e-3 6.2073 5.0391 11.239 11.25 11.239s11.246-5.0318 11.25-11.239c-4e-3 -6.2073-5.0391-11.239-11.25-11.239z"
       opacity=".3"
       id="path925560" />
    <path
       d="m 296.25,243.75 c -10.906,0.12085 -21.878,2.9151 -31.377,8.9429 -3.7866,2.7612 -8.3313,6.3281 -11.755,9.9206 -4.12371,4.52459 -7.79445,9.62204 -10.68748,15.22869 -0.88627,1.71759 0.73096,-1.81134 0,0 1.88396,4.22839 -1.22019,8.14093 -0.54657,9.5227 9.22421,18.92111 26.84199,32.50105 46.09405,34.62961 13.553,1.7175 27.737,-0.90455 39.65,-8.4156 3.7866,-2.7612 8.3313,-6.3281 11.755,-9.9206 4.45768,-4.90005 8.38605,-10.46485 11.3749,-16.60701 0.62311,-1.2805 -1.7431,3.91599 0,0 -0.75767,-1.87242 0.14714,-7.61649 -0.76593,-9.39497 -9.37861,-18.26768 -26.64646,-31.3013 -45.46897,-33.37902 -2.7466,-0.36621 -5.5151,-0.52734 -8.2727,-0.52734 z m 0.0219,16.875 c 12.038,-0.26734 22.694,10.507 22.467,22.478 0.38453,13.231 -12.795,24.653 -25.829,22.181 -13.162,-1.5454 -22.412,-16.318 -18.083,-28.828 2.7685,-9.2029 11.811,-15.926 21.457,-15.82 z m -0.0219,11.25 c -2.9883,0 -5.8521,1.1865 -7.9614,3.2995 -2.1094,2.113 -3.2922,4.9768 -3.2886,7.9614 0.004,6.2073 5.0391,11.239 11.25,11.239 6.2109,0 11.246,-5.0318 11.25,-11.239 -0.004,-6.2073 -5.0391,-11.239 -11.25,-11.239 z"
       fill="#ffffff"
       id="path925562"
       sodipodi:nodetypes="sccscscccscscsscccccccscsccc" />
  </g>
  <path
     transform="scale(.75)"
     d="m104 32c-13.297 0-24 10.703-24 24v10c0-13.297 10.703-24 24-24h304c13.297 0 24 10.703 24 24v-10c0-13.297-10.703-24-24-24h-304z"
     fill="#fff"
     opacity=".3"
     stroke-width="1.3333"
     id="path925566" />
  <path
     transform="scale(.75)"
     d="m104 32c-13.297 0-24 10.703-24 24v400c0 13.297 10.703 24 24 24h39.83v-448h-39.83z"
     opacity=".3"
     stroke-width="1.3333"
     id="path925568" />
</svg>
