<?xml version="1.0" encoding="UTF-8" standalone="no"?>
<svg
   width="512"
   height="512"
   version="1.1"
   viewBox="0 0 384 384"
   id="svg842997"
   sodipodi:docname="CMakeSetup32.svg"
   inkscape:version="1.1.2 (0a00cf5339, 2022-02-04)"
   xmlns:inkscape="http://www.inkscape.org/namespaces/inkscape"
   xmlns:sodipodi="http://sodipodi.sourceforge.net/DTD/sodipodi-0.dtd"
   xmlns="http://www.w3.org/2000/svg"
   xmlns:svg="http://www.w3.org/2000/svg">
  <sodipodi:namedview
     id="namedview842999"
     pagecolor="#ffffff"
     bordercolor="#666666"
     borderopacity="1.0"
     inkscape:pageshadow="2"
     inkscape:pageopacity="0.0"
     inkscape:pagecheckerboard="0"
     showgrid="false"
     inkscape:zoom="1.6152344"
     inkscape:cx="255.69045"
     inkscape:cy="256"
     inkscape:window-width="1920"
     inkscape:window-height="1051"
     inkscape:window-x="0"
     inkscape:window-y="29"
     inkscape:window-maximized="1"
     inkscape:current-layer="svg842997" />
  <defs
     id="defs842977">
    <clipPath
       id="clipPath842967">
      <rect
         width="384"
         height="384"
         id="rect842965" />
    </clipPath>
    <clipPath
       id="clipPath842971">
      <rect
         width="384"
         height="384"
         id="rect842969" />
    </clipPath>
    <clipPath
       id="clipPath842975">
      <rect
         width="384"
         height="384"
         id="rect842973" />
    </clipPath>
  </defs>
  <path
     d="m192.00586 30.74415-168.75 337.5h0.0044l-0.01611 0.0117 0.02783-0.0117h337.48388z"
     style="opacity:.3"
     id="path842979" />
  <path
     d="m123.80078 192.375h135.86328v128.26953h-135.86328z"
     style="fill:#ffffff"
     id="path842981" />
  <path
     d="m192.08593 30.687986-168.74999 337.49999 183.60937-134.62939l5.69092 77.70703 148.1997 56.92236z"
     style="fill:#0a0a0a;opacity:.3"
     id="path842983" />
  <path
     d="m 352.98443,357.52449 -1.5202,-0.34106 -138.91345,-53.35531 -20.46485,-273.140134 4.99359,2.721062 158.87289,317.745782 z"
     style="fill:#d41717"
     id="path842985"
     sodipodi:nodetypes="ccccccc" />
  <path
     d="m 31.544409,360.75 -2.236804,-4.5505 114.020515,-85.65263 207.29597,86.00213 2.36034,0.97549 -4.36156,3.22551 z"
     style="fill:#17a185"
     id="path842987"
     sodipodi:nodetypes="cccccccc" />
  <path
     d="m23.238281 360.76172 168.76563-70.32813-48.67578-19.88671z"
     style="opacity:.3"
     id="path842989" />
  <path
     d="m 29.798842,355.94818 v 0 L 206.94531,226.05859 192.85462,34.847204 192.00586,30.74415 186.46499,34.32001 28.012069,351.22586 Z"
     style="fill:#357af0"
     id="path842991"
     sodipodi:nodetypes="cccccccc" />
  <path
     d="m 208.75,244.39063 3.69141,54.7578 140.54302,58.37606 v 0 l 0.34119,-2.45802 z"
     style="opacity:0.3"
     id="path842993"
     sodipodi:nodetypes="cccccc" />
  <path
     d="M 159.94922,260.38281 192,23.25 206.73828,225.71485 Z"
     style="opacity:.3"
     id="path842995" />
</svg>
