<?xml version="1.0" encoding="UTF-8" standalone="no"?>
<svg
   width="32"
   height="32"
   version="1"
   id="svg1610548"
   sodipodi:docname="com.leinardi.gwe.svg"
   inkscape:version="1.1.2 (0a00cf5339, 2022-02-04)"
   xmlns:inkscape="http://www.inkscape.org/namespaces/inkscape"
   xmlns:sodipodi="http://sodipodi.sourceforge.net/DTD/sodipodi-0.dtd"
   xmlns="http://www.w3.org/2000/svg"
   xmlns:svg="http://www.w3.org/2000/svg">
  <defs
     id="defs1610552" />
  <sodipodi:namedview
     id="namedview1610550"
     pagecolor="#ffffff"
     bordercolor="#666666"
     borderopacity="1.0"
     inkscape:pageshadow="2"
     inkscape:pageopacity="0.0"
     inkscape:pagecheckerboard="0"
     showgrid="false"
     inkscape:zoom="25.84375"
     inkscape:cx="15.980653"
     inkscape:cy="16"
     inkscape:window-width="1920"
     inkscape:window-height="1051"
     inkscape:window-x="0"
     inkscape:window-y="29"
     inkscape:window-maximized="1"
     inkscape:current-layer="svg1610548" />
  <rect
     style="opacity:0.2"
     width="28"
     height="28"
     x="2"
     y="3"
     rx="8.4"
     ry="8.4"
     id="rect1610536" />
  <path
     style="fill:#8ed019"
     d="m 10.4,2 h 11.2 c 4.6536,0 8.4,3.7464 8.4,8.4 v 11.2 c 0,2.408167 -1.00325,4.573393 -2.6163,6.102232 C 25.879652,29.127759 23.845433,28.88 21.6,28.88 H 10.4 C 8.3635166,28.88 6.5007683,29.282542 5.0496964,28.085562 3.1849014,26.547307 2,24.217117 2,21.6 V 10.4 C 2,5.7464 5.7464,2 10.4,2 Z"
     id="path1610538" />
  <path
     style="opacity:0.2;fill:#ffffff"
     d="M 10.400391 2 C 5.7467908 2 2 5.7467908 2 10.400391 L 2 11.400391 C 2 6.7467908 5.7467908 3 10.400391 3 L 21.599609 3 C 26.253209 3 30 6.7467908 30 11.400391 L 30 10.400391 C 30 5.7467908 26.253209 2 21.599609 2 L 10.400391 2 z"
     id="path1610540" />
  <path
     style="fill:#3f3f3f"
     d="M 29.496094,7.546875 C 27.850213,7.624903 26.053657,7.8533046 24.472656,8.2421875 16.206232,10.26419 12.220704,15.066406 12.220703,15.066406 c 0,0 2.515235,6.130565 7.177735,9.673828 1.057433,0.801512 2.15107,1.550137 3.271484,2.259766 h -4.658203 c -2.914777,-2.112708 -6.105469,-5.802734 -6.105469,-5.802734 -1.011,0.757658 -2.1861027,0.742822 -3.1816406,1.203125 -0.9955414,0.460303 -1.6503907,0.80664 -1.6503906,0.80664 0,0 0.9075419,1.192401 4.4296872,3.792969 H 3.9707031 c 0.057592,0.06857 0.1204415,0.132155 0.1796875,0.199219 h -0.00586 c 0.025666,0.02818 0.050328,0.05785 0.076172,0.08594 0.068037,0.07394 0.1305404,0.153171 0.2011719,0.22461 0.017502,0.0177 0.037064,0.03322 0.054687,0.05078 0.1814365,0.184709 0.3721387,0.360307 0.5722656,0.525391 3.71e-4,3.06e-4 0.00158,-3.06e-4 0.00195,0 0.00523,0.0043 0.010389,0.0075 0.015625,0.01172 C 6.5151315,29.286631 8.3714863,30 10.400391,30 h 11.199218 c 2.131836,0 4.066811,-0.794266 5.544922,-2.09375 0.07198,-0.05811 0.14304,-0.11904 0.212891,-0.183594 0.0081,-0.0076 0.01732,-0.01188 0.02539,-0.01953 3.46e-4,-3.28e-4 -3.45e-4,-0.0016 0,-0.002 0.02694,-0.02553 0.04958,-0.05419 0.07617,-0.08008 0.002,-0.0019 0.0039,-0.0039 0.0059,-0.0059 0.100813,-0.09848 0.197103,-0.201308 0.292968,-0.304687 0.03404,-0.03671 0.06755,-0.07472 0.101563,-0.111328 h -0.0078 C 27.911701,27.131137 27.978776,27.069543 28.037109,27 h -1.300781 c -1.453966,-0.901747 -3.728478,-2.524936 -5.755859,-5.097656 -3.172166,-4.024974 -3.171875,-5.41211 -3.171875,-5.41211 0,0 3.291236,-3.311861 6.640625,-4.679687 1.81184,-0.739526 4.033754,-1.300885 5.537109,-1.664063 -1.95e-4,-0.0064 2.1e-4,-0.01314 0,-0.01953 -4.18e-4,-0.0036 -0.0019,-0.006 -0.002,-0.0098 -0.01082,-0.3270849 -0.04163,-0.6486787 -0.08789,-0.9648442 l -0.0078,-0.056641 c -0.04628,-0.3020997 -0.109574,-0.5983483 -0.1875,-0.8886719 -0.0064,-0.025711 -0.013,-0.050527 -0.01953,-0.076172 C 29.627381,7.9367221 29.567444,7.7449329 29.5,7.5566406 c -9.8e-4,-0.00273 -0.0031,-0.00507 -0.0039,-0.00781 z M 30,12.210938 c -0.170352,0.05702 -0.38033,0.114282 -0.515625,0.175781 -5.015758,2.278915 -7.076172,5.609375 -7.076172,5.609375 0,0 0.86698,2.795074 3.812519,5.991089 0.187437,0.203375 0.318897,-0.217577 0.523479,-0.01157 0,0 0.0087,0.348567 -0.07574,-0.09128 C 26.42359,22.608195 25.937435,19.964505 25.871094,18.759766 26.966068,17.334159 28.452193,16.132298 30,15.207031 Z"
     id="path1610542"
     sodipodi:nodetypes="cccccccsccccccscsscssccscscsccccccccccccccscccccscsccc" />
  <path
     style="opacity:0.2"
     d="M 29.496094,7.546875 C 27.850213,7.624903 26.053657,7.8533046 24.472656,8.2421875 16.206232,10.26419 12.220704,15.066406 12.220703,15.066406 c 0,0 0.172616,0.37576 0.310547,0.675782 0.742505,-0.818406 4.530623,-4.687291 11.941406,-6.5000005 1.581001,-0.3888829 3.377557,-0.6172845 5.023438,-0.6953125 v 0.00195 c 8e-4,0.00274 0.0029,0.00508 0.0039,0.00781 0.06744,0.1882923 0.127414,0.3801147 0.181641,0.5742188 0.0065,0.025645 0.01313,0.050461 0.01953,0.076172 0.07793,0.2903236 0.14122,0.5865723 0.1875,0.8886722 0.0026,0.01885 0.0052,0.03778 0.0078,0.05664 8.45e-4,0.0058 0.0011,0.0118 0.002,0.01758 0.02534,-0.0061 0.06295,-0.01741 0.08789,-0.02344 -1.95e-4,-0.0064 2.1e-4,-0.01314 0,-0.01953 -4.18e-4,-0.0036 -0.0019,-0.006 -0.002,-0.0098 -0.01082,-0.3270858 -0.04163,-0.6486791 -0.08789,-0.9648446 l -0.0078,-0.056641 c -0.04628,-0.3020997 -0.109574,-0.5983483 -0.1875,-0.8886719 -0.0064,-0.025711 -0.013,-0.050527 -0.01953,-0.076172 C 29.627381,7.9367221 29.567444,7.7449329 29.5,7.5566406 c -9.8e-4,-0.00273 -0.0031,-0.00507 -0.0039,-0.00781 z M 30,12.210938 c -0.170352,0.05702 -0.38033,0.114282 -0.515625,0.175781 -5.015758,2.278915 -7.076172,5.609375 -7.076172,5.609375 0,0 0.08022,0.245995 0.251953,0.65039 0.564356,-0.790946 2.596535,-3.338913 6.824219,-5.259765 C 29.61967,13.32522 29.829648,13.267957 30,13.210938 Z m -11.966797,5.066406 c -0.06131,0.05975 -0.224609,0.21289 -0.224609,0.21289 0,0 -2.91e-4,1.387136 3.171875,5.41211 2.027381,2.57272 4.301893,4.195909 5.755859,5.097656 h 0.291016 c 0.0381,-0.03233 0.07967,-0.06077 0.117187,-0.09375 0.07198,-0.05811 0.14304,-0.11904 0.212891,-0.183594 0.0081,-0.0076 0.01732,-0.01188 0.02539,-0.01953 v -0.002 c 0.02694,-0.02553 0.04958,-0.05419 0.07617,-0.08008 0.002,-0.0019 0.0039,-0.0039 0.0059,-0.0059 0.100813,-0.09848 0.197104,-0.201308 0.292968,-0.304687 0.03404,-0.03671 0.06755,-0.07472 0.101563,-0.111328 h -0.0078 C 27.911701,27.131137 27.978776,27.069543 28.037109,27 h -1.300781 c -1.453966,-0.901747 -3.728478,-2.524936 -5.755859,-5.097656 -1.8836,-2.389988 -2.636542,-3.833293 -2.947266,-4.625 z m 7.939453,2.365234 c -0.03188,0.04032 -0.07031,0.0765 -0.101562,0.117188 0.06495,1.179448 0.10451,1.292527 0.353871,2.596872 -0.123876,-0.258471 -0.477816,-1.365773 0,0 v 0 c 0,0 -0.106066,-1.510533 -0.252309,-2.71406 z M 11.90625,21.197266 c -1.011,0.757658 -2.1861027,0.742822 -3.1816406,1.203125 -0.9955414,0.460303 -1.6503907,0.80664 -1.6503906,0.80664 0,0 0.2215577,0.258848 0.6523437,0.681641 0.2833567,-0.143608 0.3958956,-0.209868 0.9980469,-0.488281 0.9955379,-0.460303 2.1706406,-0.445467 3.1816406,-1.203125 0,0 3.190692,3.690026 6.105469,5.802734 h 4.658203 C 22.158534,27.676106 21.653631,27.341463 21.154297,27 H 18.011719 C 15.096942,24.887292 11.90625,21.197266 11.90625,21.197266 Z M 3.9707031,27 c 0.057592,0.06857 0.1204415,0.132155 0.1796875,0.199219 h -0.00586 c 0.025666,0.02818 0.050328,0.05785 0.076172,0.08594 0.068037,0.07394 0.1305404,0.153171 0.2011719,0.22461 0.017502,0.0177 0.037064,0.03322 0.054687,0.05078 C 4.6282967,27.715018 4.7902903,27.859094 4.9550781,28 h 6.5488279 c -0.521207,-0.384832 -0.876833,-0.676141 -1.289062,-1 z"
     id="path1610544"
     sodipodi:nodetypes="ccccccccccccccccccccsccccccccccccccccccscscccccccccccccsccsccccccccccsccccc" />
  <path
     style="opacity:0.2;fill:#ffffff"
     d="m 29.898438,10.169922 c -1.501555,0.363614 -3.667443,0.91337 -5.449219,1.640625 -3.349389,1.367826 -6.640625,4.679687 -6.640625,4.679687 0,0 0.01204,0.245505 0.224609,0.78711 0.558339,-0.544173 3.398032,-3.234311 6.416016,-4.466797 1.81184,-0.739526 4.033754,-1.300885 5.537109,-1.664063 -1.95e-4,-0.0064 2.1e-4,-0.01314 0,-0.01953 -4.18e-4,-0.0036 -0.0019,-0.006 -0.002,-0.0098 -0.01062,-0.321116 -0.04108,-0.636677 -0.08594,-0.947266 z M 30,15.207031 c -1.547807,0.925267 -3.033932,2.127128 -4.128906,3.552735 0.01234,0.22406 0.06443,0.57726 0.101562,0.882812 C 27.057809,18.270107 28.496368,17.105891 30,16.207031 Z m -17.46875,0.535157 c -0.08573,0.09449 -0.310547,0.324218 -0.310547,0.324218 0,0 2.515235,6.130565 7.177735,9.673828 0.574791,0.43568 1.161187,0.853108 1.755859,1.259766 h 1.515625 C 21.549508,26.290371 20.45587,25.541746 19.398438,24.740234 15.512736,21.787299 13.22121,17.242954 12.53125,15.742188 Z m 10.128906,2.904296 c -0.1052,0.147439 -0.251953,0.34961 -0.251953,0.34961 0,0 0.764139,1.982319 3.354804,4.966549 0,0 0.477196,-0.765847 0.848899,-0.391558 0.06392,-0.325878 0.132295,0.404526 0.132295,0.404526 -0.06927,-0.673364 -0.186874,-1.117583 -0.132295,-0.404526 -1.213066,-1.464138 -1.073565,-1.310946 -1.213066,-1.464138 -2.034069,-2.233704 -2.31928,-2.47285 -2.738684,-3.460463 z M 7.7265625,23.888672 c -0.1851191,0.09382 -0.6523438,0.318359 -0.6523437,0.318359 0,0 0.7671463,0.928297 3.1406252,2.792969 h 1.289062 C 9.4377939,25.474491 8.3378482,24.488615 7.7265625,23.888672 Z"
     id="path1610546"
     sodipodi:nodetypes="ccccccccccccccccccccccccscscscccccc" />
</svg>
