<?xml version="1.0" encoding="UTF-8" standalone="no"?>
<svg
   width="32"
   height="32"
   version="1"
   id="svg245398"
   sodipodi:docname="preferences-web-browser-cookies.svg"
   inkscape:version="1.1.2 (0a00cf5339, 2022-02-04)"
   xmlns:inkscape="http://www.inkscape.org/namespaces/inkscape"
   xmlns:sodipodi="http://sodipodi.sourceforge.net/DTD/sodipodi-0.dtd"
   xmlns="http://www.w3.org/2000/svg"
   xmlns:svg="http://www.w3.org/2000/svg">
  <defs
     id="defs245402" />
  <sodipodi:namedview
     id="namedview245400"
     pagecolor="#ffffff"
     bordercolor="#666666"
     borderopacity="1.0"
     inkscape:pageshadow="2"
     inkscape:pageopacity="0.0"
     inkscape:pagecheckerboard="0"
     showgrid="false"
     inkscape:zoom="25.84375"
     inkscape:cx="15.980653"
     inkscape:cy="16"
     inkscape:window-width="1920"
     inkscape:window-height="1051"
     inkscape:window-x="0"
     inkscape:window-y="29"
     inkscape:window-maximized="1"
     inkscape:current-layer="svg245398" />
  <path
     style="opacity:0.2"
     d="m 16.787109,3.0020193 c -0.602202,-0.013302 -1.256696,0.09708 -2.09375,0.3242188 -0.585702,0.1589324 -1.890904,0.4634424 -3.029297,0.7167969 A 6,6 0 0 1 12,6.0000662 6,6 0 0 1 6.9785156,11.918035 6.3001193,6.3001193 0 0 1 5.5,12.099675 6.3001193,6.3001193 0 0 1 3.4199219,11.738347 c -0.01521,0.05779 -0.046569,0.138362 -0.046875,0.173828 -0.0021,0.252784 -0.3183166,1.367739 -0.703125,2.478516 -0.7978033,2.302906 -0.8534062,3.109611 -0.3242188,4.716797 0.2066164,0.627501 0.4421902,1.559735 0.5234375,2.070312 0.2097614,1.318137 0.593729,1.995759 1.9804688,3.503907 0.6703726,0.729068 1.6224352,1.951888 2.1171875,2.716797 0.7965943,1.231566 1.0727363,1.479681 2.4003906,2.164062 1.6053635,0.82753 2.8336035,1.051492 7.1972655,1.314453 1.425152,0.283468 2.200482,0.0723 3.398438,-0.585937 0.714174,-0.392515 1.65788,-0.832478 2.097656,-0.976563 1.349034,-0.441976 3.111366,-1.510621 3.601562,-2.183594 0.256141,-0.351646 0.898985,-1.535793 1.429688,-2.630859 0.634359,-1.308937 1.289824,-2.31514 1.914062,-2.939453 1.306036,-0.954414 0.949219,-2.103688 0.949219,-3.611328 0,-2.586628 -0.02123,-2.724384 -0.773437,-4.789063 C 28.755813,11.991345 28.251376,10.582889 28.060547,10.029363 27.775458,9.2024384 27.406452,8.7543846 25.984375,7.5176443 23.805591,5.6228279 23.152576,5.2063538 21.660156,4.7598318 21.00049,4.5624628 19.854616,4.084531 19.115234,3.6973318 18.246325,3.2423027 17.561366,3.0191216 16.787109,3.0020193 Z"
     id="path245380" />
  <path
     style="fill:#ffaa46"
     d="m 16.787109,2.0019531 c -0.602202,-0.013302 -1.256696,0.09708 -2.09375,0.3242188 C 14.107657,2.4851043 13.429947,2.6346048 12.291554,2.8879593 12.511449,3.5171175 11.997491,4.3335259 12,5 11.999167,7.9354113 9.8746274,10.439245 6.9785156,10.917969 6.4945944,11.036772 5.9982875,11.097745 5.5,11.099609 c -0.5348384,-0.0019 -1.638981,-0.05964 -1.1231106,0.07612 0,0 -0.7930323,0.620602 -0.9569675,0.562549 0,1 0,0 -0.046875,-0.826172 0.046875,0.826172 0.00353,0.86699 -0.067913,1.143369 -0.125907,0.487091 -0.3897051,0.626475 -0.6352115,1.335147 -0.7978033,2.302906 -0.8534062,3.109611 -0.3242188,4.716797 0.2066164,0.627501 0.4421902,1.559735 0.5234375,2.070312 0.2097614,1.318137 0.593729,1.995759 1.9804688,3.503907 0.6703726,0.729068 1.6224352,1.951888 2.1171875,2.716797 0.7965943,1.231566 1.0727363,1.479681 2.4003906,2.164062 1.605363,0.82753 2.833603,1.051492 7.197265,1.314453 1.425152,0.283468 2.200482,0.0723 3.398438,-0.585937 0.714174,-0.392515 1.65788,-0.832478 2.097656,-0.976563 1.349034,-0.441976 3.111366,-1.510621 3.601562,-2.183594 0.256141,-0.351646 0.898985,-1.535793 1.429688,-2.630859 0.634359,-1.308937 1.289824,-2.31514 1.914062,-2.939453 1.306036,-0.954414 0.949219,-2.103688 0.949219,-3.611328 0,-2.586628 -0.02123,-2.724384 -0.773437,-4.789063 C 28.755813,10.991279 28.251376,9.5828226 28.060547,9.0292969 27.775458,8.2023722 27.406452,7.7543184 25.984375,6.5175781 23.805591,4.6227617 23.152576,4.2062876 21.660156,3.7597656 21.00049,3.5623966 19.854616,3.0844648 19.115234,2.6972656 18.246325,2.2422365 17.561366,2.0190554 16.787109,2.0019531 Z"
     id="path245382"
     sodipodi:nodetypes="ssccccsccscscssscccsscscscsss" />
  <path
     style="opacity:0.1"
     d="m 18.542969,7.0099802 c -0.233933,0.028674 -0.462878,0.114746 -0.699219,0.1894532 -1.145811,0.4046145 -2.406703,1.0812699 -2.699219,2.109375 -0.173245,0.5117946 -0.185232,0.6916486 -0.07031,1.0488286 0.04487,0.139455 0.0976,0.345514 0.115234,0.458984 0.04556,0.292942 0.128552,0.444129 0.429688,0.779297 0.145576,0.162028 0.351548,0.433523 0.458984,0.603516 0.172985,0.273701 0.233179,0.328371 0.521484,0.480469 0.335092,0.149316 0.37226,-0.386305 1.5625,0.292968 0.309479,0.063 0.47814,0.01542 0.738282,-0.130859 0.155086,-0.08724 0.359579,-0.184777 0.455078,-0.216797 0.292948,-0.09823 0.676754,-0.334816 0.783203,-0.484375 0.773073,-1.108071 1.019795,-1.990344 0.763672,-3.1054692 C 20.809864,8.7756008 20.701596,8.4630726 20.660156,8.3400584 20.598251,8.1562829 20.517793,8.0563156 20.208984,7.7814646 19.735851,7.3603629 19.593617,7.2674182 19.269531,7.1681834 19.015873,7.0102579 18.776902,6.9813062 18.542969,7.0099802 Z M 8.328125,13.004121 c -0.1710599,-0.01867 -0.3365317,0.03337 -0.4824219,0.175782 -0.356882,-0.01914 -0.4726065,0.0059 -0.6777343,0.144531 -0.080088,0.05412 -0.2028044,0.12437 -0.2714844,0.15625 -0.177308,0.0823 -0.2575925,0.163318 -0.4140625,0.417969 -0.5946885,0.847834 -0.519966,1.193772 -0.3984375,1.888671 0.0177,0.210829 0.079452,0.309967 0.2207031,0.451172 0.084223,0.08418 0.1845542,0.198149 0.2226563,0.253907 0.5801527,0.725293 1.8590204,0.507616 2.5644531,0.347656 0.147528,-0.106546 0.3261849,-0.234263 0.3964843,-0.283203 0.1050241,-0.07311 0.1527456,-0.141935 0.2695313,-0.390625 C 9.9367391,15.785208 9.9681481,15.678178 9.9707031,15.451387 10.076506,15.067357 9.8683795,14.814935 9.6855469,14.537324 9.4088036,13.751018 8.8413047,13.060117 8.328125,13.004121 Z m 15.738281,3.998047 c -0.443609,-0.01627 -0.902933,0.07822 -1.228515,0.158203 -0.136179,0.106546 -0.300343,0.234263 -0.365235,0.283203 -0.09695,0.07311 -0.140246,0.141935 -0.248047,0.390625 -0.165162,0.381024 -0.194907,0.490005 -0.197265,0.716797 -0.09766,0.384028 0.09295,0.634499 0.261718,0.91211 0.340604,1.048409 1.160551,1.927076 1.699219,1.357421 0.329426,0.01914 0.437605,-0.006 0.626953,-0.144531 0.07392,-0.05413 0.18465,-0.124369 0.248047,-0.15625 0.163668,-0.0823 0.238379,-0.163319 0.382813,-0.417969 1.184764,-0.984612 0.700618,-1.238994 0.36914,-1.886718 -0.01634,-0.210829 -0.07275,-0.311921 -0.203125,-0.453125 -0.07775,-0.08418 -0.169907,-0.19815 -0.205078,-0.253907 -0.267761,-0.362646 -0.697016,-0.489589 -1.140625,-0.505859 z m -12.482422,2.011719 c -0.108378,0.02221 -0.211503,0.07139 -0.335937,0.144531 -0.148366,0.08724 -0.344186,0.184776 -0.435547,0.216797 -0.280254,0.09823 -0.646212,0.334814 -0.748047,0.484375 -1.5044433,0.7574 -1.0774464,1.943601 -0.7304686,3.105469 0.088464,0.25977 0.1927784,0.572299 0.2324218,0.695312 0.05922,0.183776 0.1362126,0.283743 0.4316407,0.558594 0.4526311,0.421102 0.5883941,0.514047 0.8984371,0.613281 0.485332,0.315852 0.911081,0.118167 1.363282,-0.03125 2.00743,-0.404615 3.186553,-1.08127 2.582031,-2.109375 0.16574,-0.511795 0.176343,-0.691648 0.06641,-1.048828 -0.04292,-0.139455 -0.0925,-0.345516 -0.109375,-0.458984 -0.04359,-0.292942 -0.122069,-0.444128 -0.410156,-0.779297 -0.627909,-1.182022 -1.211678,-0.662671 -2.433594,-1.376953 -0.148034,-0.0315 -0.262715,-0.03588 -0.371094,-0.01367 z m 7.982422,5 c -0.112759,0.0219 -0.234173,0.06672 -0.373047,0.11914 -0.88704,0.400383 -1.51986,0.366225 -2.097656,1.019532 -0.215262,0.448453 -0.02309,0.982345 0.144531,1.507812 0.06391,0.175713 0.141279,0.387494 0.169922,0.470703 0.04279,0.124308 0.0971,0.191041 0.310547,0.376953 0.327035,0.28484 0.424426,0.34694 0.648438,0.414063 0.765951,0.300756 0.880792,-0.340605 1.443359,-0.710937 0.741826,-0.392363 1.383611,-0.347736 1.087891,-0.816407 0.119751,-0.346187 0.126299,-0.467382 0.04687,-0.708984 -0.03101,-0.09433 -0.06593,-0.235748 -0.07813,-0.3125 -0.03149,-0.198151 -0.08873,-0.298678 -0.296875,-0.525391 -0.408039,-0.758074 -0.667582,-0.899683 -1.00586,-0.833984 z"
     id="path245384" />
  <path
     style="fill:#835145"
     d="m 15.145415,8.3089705 c -0.173245,0.5117947 -0.1852,0.6909929 -0.07028,1.0481721 0.04487,0.139455 0.09597,0.34638 0.113609,0.4598498 0.04556,0.2929416 0.128888,0.4438206 0.430024,0.7789886 0.145576,0.162028 0.352515,0.433652 0.459951,0.603645 0.172985,0.273701 0.232607,0.328788 0.520912,0.480885 0.335092,0.149316 0.37275,-0.387064 1.56299,0.292209 0.309479,0.063 0.477817,0.01581 0.737959,-0.130465 0.155086,-0.08724 0.360044,-0.184849 0.455543,-0.216869 0.292948,-0.09823 0.675683,-0.335586 0.782132,-0.485145 0.773073,-1.108071 1.020533,-1.9897706 0.76441,-3.104896 C 20.810185,7.775575 20.700681,7.4624194 20.659241,7.3394052 20.597336,7.1556297 20.516832,7.056035 20.208023,6.781184 19.73489,6.3600823 19.593381,6.2677078 19.269295,6.168473 18.761979,5.852622 18.316247,6.0505363 17.843564,6.1999505 16.697753,6.604565 15.437929,7.2808647 15.145413,8.3089697 Z"
     id="path245386" />
  <path
     style="fill:#835145"
     d="m 14.841199,21.691033 c 0.16574,-0.511795 0.177177,-0.690993 0.06724,-1.048173 -0.04292,-0.139455 -0.09181,-0.34638 -0.108687,-0.459848 -0.04359,-0.292942 -0.123302,-0.443821 -0.411389,-0.77899 -0.627909,-1.182022 -1.211705,-0.662458 -2.433621,-1.37674 -0.296068,-0.063 -0.457112,-0.01582 -0.705981,0.130466 -0.148366,0.08724 -0.344442,0.184848 -0.435803,0.216869 -0.280254,0.09823 -0.646404,0.335585 -0.748239,0.485146 -1.5044434,0.7574 -1.0782657,1.943027 -0.7312879,3.104895 0.088464,0.25977 0.1932233,0.572927 0.2328668,0.69594 0.05922,0.183776 0.1362382,0.283371 0.4316663,0.558222 0.4526308,0.421102 0.5880068,0.513477 0.8980498,0.612711 0.485332,0.315852 0.911749,0.117937 1.36395,-0.03148 2.00743,-0.404615 3.185755,-1.080915 2.581233,-2.10902 z"
     id="path245388" />
  <path
     style="fill:#835145"
     d="m 23.988807,19.82071 c 0.329426,0.01914 0.436394,-0.0056 0.625742,-0.144165 0.07392,-0.05413 0.186283,-0.124453 0.24968,-0.156334 0.163668,-0.0823 0.237668,-0.163283 0.382102,-0.417932 1.184764,-0.984613 0.699983,-1.2405 0.368505,-1.888224 -0.01634,-0.210829 -0.07292,-0.310787 -0.2033,-0.451991 -0.07775,-0.08418 -0.170142,-0.198616 -0.205313,-0.254373 -0.535522,-0.725294 -1.716615,-0.507706 -2.367779,-0.347746 -0.136179,0.106546 -0.300683,0.233721 -0.365575,0.282661 -0.09695,0.07311 -0.141408,0.142996 -0.249209,0.391686 -0.165162,0.381024 -0.194905,0.488916 -0.197263,0.715708 -0.09766,0.384028 0.09487,0.635504 0.263633,0.913115 0.340604,1.048409 1.160107,1.92725 1.698775,1.357595 z"
     id="path245390" />
  <path
     style="fill:#835145"
     d="m 7.845444,12.179498 c -0.356882,-0.01914 -0.4727647,0.0055 -0.6778926,0.144165 -0.080088,0.05412 -0.2018087,0.124455 -0.2704887,0.156335 -0.177308,0.0823 -0.257476,0.163283 -0.413946,0.417933 -0.5946885,0.847834 -0.5207452,1.193324 -0.3992167,1.888223 0.0177,0.210829 0.078992,0.310786 0.2202427,0.451991 0.084223,0.08418 0.1843227,0.198616 0.2224247,0.254373 0.5801527,0.725294 1.8596773,0.507706 2.56511,0.347746 0.147528,-0.106546 0.3257427,-0.233721 0.3960421,-0.282661 0.105024,-0.07311 0.153192,-0.142996 0.2699777,-0.391686 C 9.9366238,14.784894 9.9688458,14.677001 9.9714008,14.45021 10.077204,14.06618 9.8686298,13.814705 9.6857972,13.537094 9.3168061,12.488685 8.4290067,11.609844 7.845446,12.179498 Z"
     id="path245392" />
  <path
     style="fill:#835145"
     d="m 20.899471,25.393967 c 0.119751,-0.346187 0.128014,-0.467398 0.04859,-0.709 -0.03101,-0.09433 -0.06633,-0.234296 -0.07852,-0.311048 -0.03149,-0.198151 -0.08909,-0.300207 -0.297237,-0.52692 -0.544052,-1.010766 -0.8229,-0.923215 -1.378395,-0.713544 -0.88704,0.400382 -1.520711,0.366072 -2.098507,1.019379 -0.215262,0.448453 -0.02206,0.981106 0.145561,1.506573 0.06391,0.175713 0.139607,0.387536 0.16825,0.470745 0.04279,0.124308 0.09844,0.191677 0.311888,0.377589 0.327035,0.284839 0.424846,0.347324 0.648858,0.414447 0.765951,0.300756 0.879175,-0.341748 1.441742,-0.712081 0.741826,-0.392363 1.383505,-0.347467 1.087785,-0.816138 z"
     id="path245394" />
  <path
     style="opacity:0.2;fill:#ffffff"
     d="m 16.787109,2.0019531 c -0.602202,-0.013302 -1.256696,0.097081 -2.09375,0.3242188 -0.459035,0.1245608 -1.360015,0.3385411 -2.276271,0.5472335 -0.252834,0.057587 -0.266596,1.0581308 -0.512791,1.1129227 0.105497,0.3074272 -0.05439,-0.3204409 0,0 1.067356,-0.2395965 2.2498,-0.5138254 2.789062,-0.6601562 0.837054,-0.2271388 1.491548,-0.3375208 2.09375,-0.3242188 0.774257,0.017102 1.459216,0.2402834 2.328125,0.6953125 0.739382,0.3871992 1.885256,0.865131 2.544922,1.0625 1.49242,0.446522 2.145435,0.8629961 4.324219,2.7578125 1.422077,1.2367403 1.791083,1.6847942 2.076172,2.5117189 0.190829,0.553526 0.695266,1.961982 1.121094,3.130859 0.752207,2.064679 0.773437,2.202435 0.773437,4.789063 0,0.24093 0.01346,0.458347 0.02344,0.68164 0.02027,-0.511287 -0.02344,-1.059941 -0.02344,-1.68164 0,-2.586628 -0.02123,-2.724384 -0.773437,-4.789063 C 28.755813,10.991279 28.251376,9.5828226 28.060547,9.0292969 27.775458,8.2023722 27.406452,7.7543184 25.984375,6.5175781 23.805591,4.6227617 23.152576,4.2062876 21.660156,3.7597656 21.00049,3.5623966 19.854616,3.0844648 19.115234,2.6972656 18.246325,2.2422365 17.561366,2.0190554 16.787109,2.0019531 Z M 11.972656,5.5410156 C 11.725814,8.2611193 9.6730195,10.471265 6.9785156,10.917969 6.4945944,11.036772 5.9982875,11.097745 5.5,11.099609 c -0.5334968,-0.0019 -1.063868,-0.07164 -1.5784823,-0.206893 -0.1690481,-0.04443 -0.336396,0.904066 -0.5015958,0.845565 -0.01521,0.05779 1.0500667,-0.864958 0.5015958,-0.845565 0.046875,0.826172 -0.5899774,0.309633 -0.6595821,0.58009 -0.1254299,0.487373 -0.3445371,1.20346 -0.5920137,1.917819 -0.554731,1.601271 -0.742837,2.479654 -0.6328125,3.40625 0.072488,-0.640259 0.2733031,-1.368505 0.6328125,-2.40625 0.3848084,-1.110777 0.701025,-2.225732 0.703125,-2.478516 3.06e-4,-0.03547 0.031665,-0.116038 0.046875,-0.173828 0.668099,0.236588 1.3713303,0.358745 2.0800781,0.361328 0.4982875,-0.0019 0.9945944,-0.06284 1.4785156,-0.18164 C 9.8746274,11.439245 11.999167,8.9354113 12,6 11.996753,5.846712 11.987632,5.6936048 11.972656,5.5410156 Z"
     id="path245396"
     sodipodi:nodetypes="sssccsssssscscscscssscccsccsscscccccc" />
</svg>
