<?xml version="1.0" encoding="UTF-8" standalone="no"?>
<svg
   width="512"
   height="512"
   version="1.1"
   viewBox="0 0 384 384"
   id="svg2181313"
   sodipodi:docname="crossover.svg"
   inkscape:version="1.1.2 (0a00cf5339, 2022-02-04)"
   xmlns:inkscape="http://www.inkscape.org/namespaces/inkscape"
   xmlns:sodipodi="http://sodipodi.sourceforge.net/DTD/sodipodi-0.dtd"
   xmlns="http://www.w3.org/2000/svg"
   xmlns:svg="http://www.w3.org/2000/svg">
  <defs
     id="defs2181317" />
  <sodipodi:namedview
     id="namedview2181315"
     pagecolor="#ffffff"
     bordercolor="#666666"
     borderopacity="1.0"
     inkscape:pageshadow="2"
     inkscape:pageopacity="0.0"
     inkscape:pagecheckerboard="0"
     showgrid="false"
     inkscape:zoom="1.6152344"
     inkscape:cx="255.69045"
     inkscape:cy="256"
     inkscape:window-width="1920"
     inkscape:window-height="1051"
     inkscape:window-x="0"
     inkscape:window-y="29"
     inkscape:window-maximized="1"
     inkscape:current-layer="svg2181313" />
  <path
     d="m 127.84,299.81 c 6.7611,9.8427 16.20303,23.3438 25.66319,36.3936 5.93528,8.18743 -0.37857,-8.16547 4.91349,-1.34827 -3.58743,-7.14713 4.30252,8.66585 0,0 -6.03007,-12.1454 -11.9347,-24.51898 -15.39368,-33.57933 -4.8982,-0.39207 -10.072,-0.94198 -15.183,-1.4665 z"
     fill="#001b48"
     opacity="0.3"
     stroke-width="1.205"
     id="path2181297"
     sodipodi:nodetypes="cscsccc" />
  <path
     d="m 134.04,301.47 c 5.88012,8.56018 12.01612,17.27344 18.55042,26.23044 5.69283,7.80353 -0.87313,-11.12682 5.51849,-2.89333 -4.6464,-9.25687 3.76614,8.71462 0,0 -3.21701,-7.44394 -6.15499,-14.71804 -8.88591,-21.87011 -4.8982,-0.39208 -10.072,-0.94198 -15.183,-1.4665 z"
     fill="#357af0"
     stroke-width="1.3034"
     id="path2181299"
     sodipodi:nodetypes="cscsccc" />
  <path
     d="m 213.34,30.752 c 171.8713,221.41663 130.3011,312.25005 -124.747449,272.46339 -7.076509,-1.10391 4.557175,-3.33319 -2.848016,-4.63821 6.457944,-0.23981 -6.125079,0.4434 0,0 C 254.27771,286.37685 306.40029,209.6468 222.93375,43.29075"
     opacity="0.3"
     stroke-width="1.205"
     id="path2181301"
     sodipodi:nodetypes="cscsc" />
  <path
     d="m 213.34,23.252 c 4.44636,5.728107 8.74986,11.368816 12.91052,16.922134 C 382.28025,248.43035 337.41281,333.77759 91.61456,296.18223 c -8.03355,-1.22875 7.590723,-4.0011 -0.872101,-5.4925 8.227633,-0.30553 -7.68734,0.63598 0,0 C 248.90124,277.60495 292.71072,194.5801 222.17866,41.598943 c -2.76988,-6.007759 7.19442,4.798728 4.07186,-1.424809"
     fill="#fd7d00"
     stroke-width="1.3034"
     id="path2181303"
     sodipodi:nodetypes="csscssc" />
  <path
     d="m 186.62,77.739 c -134.71,2.4084 -159.18,68.1 -66.594,209.59 6.2171,-1.0387 12.307,-2.1436 18.086,-3.4522 -39.059119,-121.6004 15.78677,-181.99802 158.07513,-192.349243 6.78628,-0.49369 -7.1834,0.267219 0,0 -7.28282,-1.281941 6.54832,-3.607746 -0.41638,-4.695831 C 253.55005,80.235645 217.17384,77.202858 186.632,77.7488 Z"
     fill="#001b48"
     opacity="0.3"
     stroke-width="1.205"
     id="path2181305"
     sodipodi:nodetypes="cccscscc" />
  <path
     d="m 186.62,70.239 c -134.71,2.4084 -155.16,74.716 -62.567,216.2 6.2171,-1.0387 12.307,-2.1436 18.086,-3.4522 -38.67294,-120.39814 11.1149,-186.701135 149.88598,-198.579824 8.07035,-0.690816 -8.67236,0.322613 0,0 -9.05888,-1.594568 7.2424,-4.559397 -1.32429,-5.854002 C 250.62976,72.497427 215.94218,69.724821 186.629,70.2488 Z"
     fill="#357af0"
     stroke-width="1.3034"
     id="path2181307"
     sodipodi:nodetypes="cccscscc" />
  <path
     transform="scale(0.75)"
     d="m 297.245,57.721 c 4.5582,9.085 -3.9947,-8.74 0,0 10.21,13.498 19.796,26.615 28.762,39.352 1.5205,0.14414 3.0527,0.29613 4.5879,0.44922 0.96475,0.09428 14.7127,26.89963 15.6871,26.99978 -14.569,-21.18 -30.904,-43.44 -49.037,-66.801 z m 49.672,60.082 c -2.0063,0.33312 -3.9952,0.67692 -5.9668,1.0312 52.643,78.513 79.937,141.52 81.785,188.95 1.8688,-46.722 -23.421,-110.06 -75.818,-189.98 z m -7.2402,104.78 c 0,95.59308 -71.54213,150.25868 -207.68178,163.9968 -13.61057,1.37347 14.94825,-0.55533 0,0 15.068,2.6554 -13.22522,7.8857 0.82178,9.9166 140.26,-14.351 209.21,-72.321 206.86,-173.91 z"
     fill="#ffffff"
     opacity="0.2"
     stroke-width="1.7379"
     id="path2181309"
     sodipodi:nodetypes="cccccccccccsscccs" />
  <path
     transform="scale(0.75)"
     d="m 257.86,93.582 c -3.0475,0.0024 -6.0545,0.03099 -9.0195,0.08399 l -0.0117,-0.01367 c -108.84,1.9459 -161.73,38.119997 -159.05,108.299997 2.5911,-63.618 55.5,-96.448 159.05,-98.299 l 0.0117,0.0137 c 37.017,-0.66169 80.494,2.6373 130.38,9.8457 13.855,-1.4214 -17.32666,-9.74496 -2.07466,-10.31236 -15.79874,-2.78081 14.6758,2.09656 0,0 -45.04461,-6.434971 -84.8012,-9.64489 -119.27834,-9.617737 z m -85.164,193.51 c -0.70042,27.012 3.9537,57.299 13.936,90.844 0.96338,-0.20746 1.9394,-0.4057 2.8906,-0.62109 -10.65,-33.157 -16.246,-63.223 -16.826,-90.223 z"
     fill="#cadcfb"
     opacity="0.3"
     stroke-width="1.7379"
     id="path2181311"
     sodipodi:nodetypes="ccccccccsccccccc" />
</svg>
