<?xml version="1.0" encoding="UTF-8" standalone="no"?>
<svg
   version="1.1"
   viewBox="0 0 512 512"
   id="svg371748"
   sodipodi:docname="edb48-logo.svg"
   inkscape:version="1.1.2 (0a00cf5339, 2022-02-04)"
   xmlns:inkscape="http://www.inkscape.org/namespaces/inkscape"
   xmlns:sodipodi="http://sodipodi.sourceforge.net/DTD/sodipodi-0.dtd"
   xmlns="http://www.w3.org/2000/svg"
   xmlns:svg="http://www.w3.org/2000/svg">
  <defs
     id="defs371752" />
  <sodipodi:namedview
     id="namedview371750"
     pagecolor="#ffffff"
     bordercolor="#666666"
     borderopacity="1.0"
     inkscape:pageshadow="2"
     inkscape:pageopacity="0.0"
     inkscape:pagecheckerboard="0"
     showgrid="false"
     inkscape:zoom="1.6152344"
     inkscape:cx="255.69045"
     inkscape:cy="256"
     inkscape:window-width="1920"
     inkscape:window-height="1051"
     inkscape:window-x="0"
     inkscape:window-y="29"
     inkscape:window-maximized="1"
     inkscape:current-layer="svg371748" />
  <circle
     cx="256"
     cy="256"
     r="225"
     fill="#fff"
     id="circle371710" />
  <path
     d="m480.79 250.15a225 225 0 0 1-224.79 220.85 225 225 0 0 1-224.79-219.15 225 225 0 0 0-0.20703 4.1465 225 225 0 0 0 225 225 225 225 0 0 0 225-225 225 225 0 0 0-0.20703-5.8535z"
     opacity=".2"
     id="path371712" />
  <path
     d="m397.97 66.285a366.96 199.72 0 0 0-366.97 199.74 366.96 199.72 0 0 0 366.97 199.68 366.96 199.72 0 0 0 28.038-0.5881 366.96 199.72 0 0 1-343.23-199.1 366.96 199.72 0 0 1 339.11-199.1 366.96 199.72 0 0 0-23.915-0.64841z"
     opacity=".3"
     id="path371714" />
  <path
     d="m 341.76,132.53 c -135.45892,-0.003 -245.270148,59.765 -245.26,133.49 0.03044,73.70938 109.82978,133.45301 245.26,133.45 6.2533,-0.002 12.50421,-0.13341 18.739,-0.39508 -128.92059,-4.54705 -229.25391,-62.74642 -229.39,-133.06 0.0334,-69.77463 89.81401,-127.31733 217.64468,-132.61479 -5.31757,-0.23935 -1.66275,-0.8294 -6.99768,-0.8795 z"
     opacity="0.3"
     id="path371716"
     sodipodi:nodetypes="cccccccc" />
  <path
     d="m299.42 182.42a153.57 83.581 0 0 0-153.57 83.589 153.57 83.581 0 0 0 153.57 83.565 153.57 83.581 0 0 0 11.734-0.24127 153.57 83.581 0 0 1-143.64-83.318 153.57 83.581 0 0 1 141.91-83.318 153.57 83.581 0 0 0-10.008-0.27143z"
     opacity=".3"
     id="path371718" />
  <path
     d="m256 31a225 225 0 0 0-225 225 225 225 0 0 0 0.20703 5.8535 225 225 0 0 1 224.79-220.85 225 225 0 0 1 224.79 219.15 225 225 0 0 0 0.20703-4.1465 225 225 0 0 0-225-225z"
     opacity=".1"
     id="path371720" />
  <g
     opacity=".3"
     stroke-width="6.355"
     aria-label="edb"
     id="g371728">
    <path
       d="m257.98 299.87c9.3208 0 19.489-2.2031 26.776-6.1009l-3.0505-9.8293c-6.2704 3.0505-14.235 4.9146-21.353 4.9146-17.286 0-28.132-10.338-30.166-27.793h56.942c0.33894-2.542 0.67788-8.4735 0.67788-11.693 0-20.506-13.558-34.572-33.725-34.572-22.709 0-38.131 17.794-38.131 42.876 0 26.098 16.1 42.198 42.029 42.198zm-27.963-48.977c1.1863-15.93 9.3208-24.573 23.048-24.573 13.897 0 22.031 8.9819 22.031 24.573z"
       id="path371722" />
    <path
       d="m341.87 299.87c9.8293 0 18.133-3.5589 24.404-9.6598l3.3894 7.9651h9.4903v-125.24h-13.558v49.146c-5.762-4.7452-13.219-7.2872-21.862-7.2872-23.048 0-38.3 17.286-38.3 43.215 0 25.082 14.574 41.859 36.436 41.859zm23.726-21.184c-4.5757 5.9314-11.524 9.3208-19.828 9.3208-16.269 0-26.776-12.71-26.776-31.521 0-17.964 9.4903-29.827 25.251-29.827 9.1514 0 16.439 3.7283 21.353 10.168z"
       id="path371724" />
    <path
       d="m442.03 299.87c23.387 0 38.978-17.455 38.978-43.554 0-24.912-14.913-41.52-37.283-41.52-9.1514 0-16.947 2.7115-22.878 7.9651v-49.824h-13.558v125.24h9.4903l2.7115-6.2704c5.762 5.2536 13.388 7.9651 22.54 7.9651zm-21.184-64.06c4.5757-5.9314 11.524-9.1514 19.659-9.1514 16.269 0 26.946 12.88 26.946 31.691 0 17.794-9.6598 29.657-25.42 29.657-8.9819 0-16.269-3.7283-21.184-10.338z"
       id="path371726" />
  </g>
  <g
     fill="#60636e"
     stroke-width="6.355"
     aria-label="edb"
     id="g371736">
    <path
       d="m257.98 293.87c9.3208 0 19.489-2.2031 26.776-6.1009l-3.0505-9.8293c-6.2704 3.0505-14.235 4.9146-21.353 4.9146-17.286 0-28.132-10.338-30.166-27.793h56.942c0.33894-2.542 0.67788-8.4735 0.67788-11.693 0-20.506-13.558-34.572-33.725-34.572-22.709 0-38.131 17.794-38.131 42.876 0 26.098 16.1 42.198 42.029 42.198zm-27.963-48.977c1.1863-15.93 9.3208-24.573 23.048-24.573 13.897 0 22.031 8.9819 22.031 24.573z"
       id="path371730" />
    <path
       d="m341.87 293.87c9.8293 0 18.133-3.5589 24.404-9.6598l3.3894 7.9651h9.4903v-125.24h-13.558v49.146c-5.762-4.7452-13.219-7.2872-21.862-7.2872-23.048 0-38.3 17.286-38.3 43.215 0 25.082 14.574 41.859 36.436 41.859zm23.726-21.184c-4.5757 5.9314-11.524 9.3208-19.828 9.3208-16.269 0-26.776-12.71-26.776-31.521 0-17.964 9.4903-29.827 25.251-29.827 9.1514 0 16.439 3.7283 21.353 10.168z"
       id="path371732" />
    <path
       d="m442.03 293.87c23.387 0 38.978-17.455 38.978-43.554 0-24.912-14.913-41.52-37.283-41.52-9.1514 0-16.947 2.7115-22.878 7.9651v-49.824h-13.558v125.24h9.4903l2.7115-6.2704c5.762 5.2536 13.388 7.9651 22.54 7.9651zm-21.184-64.06c4.5757-5.9314 11.524-9.1514 19.659-9.1514 16.269 0 26.946 12.88 26.946 31.691 0 17.794-9.6598 29.657-25.42 29.657-8.9819 0-16.269-3.7283-21.184-10.338z"
       id="path371734" />
  </g>
  <g
     fill="#3b8bb8"
     id="g371744">
    <path
       d="M 397.97,56.285 C 195.28533,56.281993 30.979703,145.71275 31,256.025 c 0.04059,110.28881 164.32838,199.68301 366.97,199.68 9.35636,-10e-4 -1.78318,-10.82831 7.54563,-11.21881 C 212.60946,437.68266 82.973498,361.2273 82.778,256.0169 82.81938,153.75797 224.59324,78.009655 410.14406,67.492694 c 3.89565,-0.220804 -3.93334,0.162939 0,0 -3.94931,-0.177531 3.84056,-3.35972 -0.11671,-5.949183 -4.01536,-2.627469 -8.03402,-5.237504 -12.05435,-5.275021 z"
       id="path371738"
       sodipodi:nodetypes="cccccscscc" />
    <path
       d="M 341.76,122.53 C 206.30108,122.527 96.489852,182.295 96.5,256.02 c 0.03044,73.70938 109.82978,133.45301 245.26,133.45 6.2533,-0.002 0.83424,-10.33032 7.06903,-10.59199 C 219.90844,374.33096 131.24509,326.3285 131.109,256.01492 c 0.0326,-68.13082 94.20051,-115.48937 217.64468,-122.61479 2.97837,-0.17191 -3.01155,0.12481 0,0 -2.97033,-0.13369 3.04064,-3.80331 0.0637,-6.63258 -2.35246,-2.23577 -4.7065,-4.22481 -7.06141,-4.24692 z"
       id="path371740"
       sodipodi:nodetypes="cccccscscc" />
    <path
       d="m 299.42,172.42 c -84.82011,0 -153.57812,37.42536 -153.57,83.589 0.0135,38.41939 47.654,70.7803 112.53478,80.54783 13.06227,1.96647 -12.85527,-3.98758 1.35662,-3.98758 3.91555,10e-4 -3.90425,0.16177 0,0 -18.22139,-0.64259 15.88179,3.7667 0,0 -54.48049,-12.92119 -92.16138,-42.46398 -92.2274,-76.55452 0.0209,-43.69058 51.86156,-70.27747 131.906,-73.59473 -3.32969,-0.1497 3.33654,-9.9635 -0.004,-9.9947 z"
       id="path371742"
       sodipodi:nodetypes="ccsccscccc" />
  </g>
  <path
     d="m 397.97,56.285 c -14.47986,-2.15e-4 -28.76385,0.456016 -42.80604,1.343696 C 172.64791,69.166495 30.981153,153.5935 31,256.025 c 0.06673,0.82708 0.142901,1.65393 0.22852,2.4805 3.363558,-98.12983 137.23364,-180.386526 315.81,-194.05 2.99603,-0.480514 6.00234,-0.94005 9.01817,-1.378531 21.54739,-3.132848 -22.24678,0.955909 0,0 -7.95692,-0.35769 49.89467,-6.72082 41.91183,-6.795309 z m -56.209,66.238 v 0.004 c -16.0719,-3.6e-4 -31.78275,0.8407 -46.99197,2.44665 C 181.79035,136.90316 96.492056,191.03931 96.501,256.017 c 0.06204,0.8272 0.138215,1.65407 0.22852,2.4805 3.027403,-60.3088 80.00652,-112.01493 187.78,-126.13 4.08833,-0.90404 8.21721,-1.74709 12.38197,-2.52853 19.64641,-3.68629 -22.87617,-3.98354 -2.12246,-4.86532 -5.31721,-0.23976 0,0 46.98549,-2.45379 z m -42.34,49.9 c -16.70394,0 -32.78495,1.45146 -47.84049,4.13529 C 190.1869,187.50242 145.8453,218.93893 145.851,256.011 c 0.0536,0.8274 0.12977,1.65433 0.22851,2.4805 2.54624,-32.65622 39.83496,-61.50815 95.445,-73.85 3.384,-1.12173 6.83994,-2.1696 10.35945,-3.14214 17.90353,-4.94727 -20.3977,-4.08557 -0.30345,-4.94107 -3.33035,-0.14975 0,0 47.84,-4.13128 l -47.84,4.13128 z m -131.63,86.641 c -0.12313,0.98341 -0.2143,1.96793 -0.27344,2.9531 0.10641,29.19458 28.19445,56.24316 74.094,71.352 18.35351,4.08059 37.98516,6.18839 57.811,6.207 3.91553,10e-4 7.82972,-0.0788 11.734,-0.24023 -78.5183,-2.81447 -140.42386,-37.47459 -143.37,-80.271 z m -36.42,0.12305 c -0.10564,0.94284 -0.19288,1.88626 -0.26172,2.8301 0.18109,54.51044 61.24459,103.48396 154.25,123.71 2.3541,0.30994 4.71563,0.60076 7.08378,0.87242 16.21365,1.85991 -23.6659,-0.91876 -7.08378,-0.87242 -51.23388,-8.56081 -1.06435,-4.55913 5.17012,-4.82061 -24.51166,-0.87466 21.96938,4.47492 0,0 C 199.01752,362.26656 133.90403,314.85493 131.37128,259.18281 Z m -48.35,0.17773 c -0.09294,0.88836 -0.174973,1.77704 -0.24609,2.666 0.278617,88.95709 108.62458,167.09029 265.73,191.63 2.74089,0.21592 5.48574,0.41491 8.23403,0.59695 13.681,0.9062 27.44712,1.39236 41.23297,1.45575 9.35669,-10e-4 -50.55808,-6.2895 -41.22894,-6.67995 -23.80288,-0.84598 22.30783,3.17663 0,0 C 200.53645,426.7898 85.977737,350.25849 83.02091,259.36559 Z"
     fill="#ffffff"
     opacity="0.2"
     id="path371746"
     sodipodi:nodetypes="cscccscccccscccsccccscccsccccccccccccccsccscccccsccscc" />
</svg>
