<?xml version="1.0" encoding="UTF-8" standalone="no"?>
<svg
   width="32"
   height="32"
   version="1"
   id="svg380042"
   sodipodi:docname="flowblade.svg"
   inkscape:version="1.1.2 (0a00cf5339, 2022-02-04)"
   xmlns:inkscape="http://www.inkscape.org/namespaces/inkscape"
   xmlns:sodipodi="http://sodipodi.sourceforge.net/DTD/sodipodi-0.dtd"
   xmlns="http://www.w3.org/2000/svg"
   xmlns:svg="http://www.w3.org/2000/svg">
  <defs
     id="defs380046" />
  <sodipodi:namedview
     id="namedview380044"
     pagecolor="#ffffff"
     bordercolor="#666666"
     borderopacity="1.0"
     inkscape:pageshadow="2"
     inkscape:pageopacity="0.0"
     inkscape:pagecheckerboard="0"
     showgrid="false"
     inkscape:zoom="25.84375"
     inkscape:cx="15.980653"
     inkscape:cy="16"
     inkscape:window-width="1920"
     inkscape:window-height="1051"
     inkscape:window-x="0"
     inkscape:window-y="29"
     inkscape:window-maximized="1"
     inkscape:current-layer="svg380042" />
  <rect
     style="opacity:0.2"
     width="28"
     height="28"
     x="2"
     y="3"
     rx="1.4"
     ry="1.4"
     id="rect380028" />
  <rect
     style="fill:#4f4f4f"
     width="28"
     height="28"
     x="2"
     y="2"
     rx="1.4"
     ry="1.4"
     id="rect380030" />
  <path
     style="opacity:0.2"
     d="M 4,5 4,8 7,8 7,5 4,5 Z m 21,0 0,3 3,0 0,-3 -3,0 z m -21,7 0,3 3,0 0,-3 -3,0 z m 21,0 0,3 3,0 0,-3 -3,0 z m -21,7 0,3 3,0 0,-3 -3,0 z m 21,0 0,3 3,0 0,-3 -3,0 z m -21,7 0,3 3,0 0,-3 -3,0 z m 21,0 0,3 3,0 0,-3 -3,0 z"
     id="path380032" />
  <path
     style="opacity:0.2"
     d="m 16,7 7,0 c 0,0 -4.487739,0.9568819 -5,2.6190474 -0.386229,1.2532176 2.268431,2.2865756 2,3.5714296 -0.321889,1.540729 -3.680539,1.553981 -4,3.095237 -0.302383,1.458861 3.251228,2.578686 3,4.047619 -0.264743,1.547953 -3.971498,1.762253 -4,3.333334 C 14.9725,25.182674 19,27 19,27 L 9,27 Z"
     id="path380034" />
  <path
     style="fill:#e4e4e4"
     d="m 16,6 h 5.299241 v 0 c 0,0 0.985484,0.1525119 0.09346,0.4415264 C 20.050352,6.8764423 18.307751,7.6204676 18,8.6190474 c -0.386228,1.2532175 2.268431,2.2865756 2,3.5714296 -0.321889,1.540729 -3.680539,1.553981 -4,3.095237 -0.302383,1.458861 3.251228,2.578686 3,4.047619 -0.264743,1.547953 -3.971501,1.762253 -4,3.333334 -0.01785,0.98383 1.672075,2.094561 2.860729,2.753144 0.64297,0.356244 0,0 0,0 L 17.751259,26 H 9 Z"
     id="path380036"
     sodipodi:nodetypes="cccssssssscccc" />
  <path
     style="fill:#989898"
     d="M 4 4 L 4 7 L 7 7 L 7 4 L 4 4 z M 25 4 L 25 7 L 28 7 L 28 4 L 25 4 z M 4 11 L 4 14 L 7 14 L 7 11 L 4 11 z M 25 11 L 25 14 L 28 14 L 28 11 L 25 11 z M 4 18 L 4 21 L 7 21 L 7 18 L 4 18 z M 25 18 L 25 21 L 28 21 L 28 18 L 25 18 z M 4 25 L 4 28 L 7 28 L 7 25 L 4 25 z M 25 25 L 25 28 L 28 28 L 28 25 L 25 25 z"
     id="path380038" />
  <path
     style="fill:#ffffff;opacity:0.1"
     d="M 3.4003906 2 C 2.6247906 2 2 2.6247906 2 3.4003906 L 2 4.4003906 C 2 3.6247906 2.6247906 3 3.4003906 3 L 28.599609 3 C 29.375209 3 30 3.6247906 30 4.4003906 L 30 3.4003906 C 30 2.6247906 29.375209 2 28.599609 2 L 3.4003906 2 z"
     id="path380040" />
</svg>
