<?xml version="1.0" encoding="UTF-8" standalone="no"?>
<svg
   width="32"
   height="32"
   version="1.1"
   id="svg605246"
   sodipodi:docname="gshutdown.svg"
   inkscape:version="1.1.2 (0a00cf5339, 2022-02-04)"
   xmlns:inkscape="http://www.inkscape.org/namespaces/inkscape"
   xmlns:sodipodi="http://sodipodi.sourceforge.net/DTD/sodipodi-0.dtd"
   xmlns="http://www.w3.org/2000/svg"
   xmlns:svg="http://www.w3.org/2000/svg">
  <defs
     id="defs605250" />
  <sodipodi:namedview
     id="namedview605248"
     pagecolor="#ffffff"
     bordercolor="#666666"
     borderopacity="1.0"
     inkscape:pageshadow="2"
     inkscape:pageopacity="0.0"
     inkscape:pagecheckerboard="0"
     showgrid="false"
     inkscape:zoom="25.84375"
     inkscape:cx="15.980653"
     inkscape:cy="16"
     inkscape:window-width="1920"
     inkscape:window-height="1051"
     inkscape:window-x="0"
     inkscape:window-y="29"
     inkscape:window-maximized="1"
     inkscape:current-layer="svg605246" />
  <ellipse
     fill="#4f4f4f"
     cx="16"
     cy="16"
     rx="14"
     ry="14"
     id="ellipse605232" />
  <ellipse
     opacity=".2"
     cx="16"
     cy="17"
     rx="11"
     ry="11"
     id="ellipse605234" />
  <ellipse
     fill="#cb4444"
     cx="16"
     cy="16"
     rx="11"
     ry="11"
     id="ellipse605236" />
  <path
     opacity=".2"
     d="m15 8v6h2v-6h-2zm2.0391 2.084c0.11944 0.01846 0.2391 0.03983 0.35742 0.06445-0.11833-0.02462-0.23798-0.04599-0.35742-0.06445zm-2.334 0.041c-0.10954 0.02224-0.21782 0.04675-0.32617 0.07422 0.10835-0.02746 0.21663-0.05197 0.32617-0.07422zm3.0078 0.09375c0.12146 0.03114 0.24171 0.0659 0.36133 0.10352-0.11962-0.03762-0.23986-0.07238-0.36133-0.10352zm-3.6973 0.07422c-0.10227 0.03164-0.20398 0.06527-0.30469 0.10156 0.10071-0.0363 0.20242-0.06992 0.30469-0.10156zm4.4141 0.14648c0.06332 0.02312 0.12683 0.04733 0.18945 0.07227-0.06262-0.02494-0.12614-0.04915-0.18945-0.07227zm-4.9727 0.04687c-2.685 1.047-4.4538 3.632-4.457 6.514 0 3.866 3.134 7 7 7s7-3.134 7-7c-0.0036-2.7987-1.6729-5.327-4.2461-6.4277l-0.754 1.848a5 5 0 0 1 3 4.58 5 5 0 0 1 -5 5 5 5 0 0 1 -5 -5 5 5 0 0 1 3.0645 -4.6055l-0.60742-1.9082z"
     id="path605238" />
  <path
     fill="#ffffff"
     d="M 15.420361,7 15,7.3541604 v 5.1708106 0 L 15.441432,13 h 1.178972 v 0 L 17,12.597238 v -5.2625144 0 L 16.658531,7 Z M 17.0391,9.084 c 0.11944,0.018461 0.2391,0.039833 0.35742,0.064453 C 17.27819,9.123833 17.15854,9.102461 17.0391,9.084 Z m -2.334,0.041 c -0.109,0.0222 -0.218,0.0468 -0.326,0.0742 0.108,-0.0274 0.217,-0.052 0.326,-0.0742 z m 3.0078,0.09375 c 0.12146,0.031141 0.24171,0.065896 0.36133,0.10352 C 17.95461,9.28465 17.83437,9.249895 17.7129,9.21875 Z m -3.6973,0.074219 c -0.10227,0.03164 -0.20398,0.065265 -0.30469,0.10156 0.10071,-0.036297 0.20242,-0.069922 0.30469,-0.10156 z m 4.4141,0.14648 c 0.06332,0.023119 0.12683,0.047328 0.18945,0.072266 C 18.55653,9.486777 18.49301,9.462567 18.4297,9.439449 Z m -5.558332,0.3064616 c -0.200434,0.078128 0.18987,-0.094757 0,0 C 10.517759,10.920517 9.0029611,13.333064 9,15.999924 c 0,3.866 3.134,7 7,7 3.866,0 7,-3.134 7,-7 -0.0033,-2.583377 -1.425899,-4.936361 -3.668577,-6.1488231 -0.186926,-0.101058 -0.578298,0.2928471 -0.776272,0.2081631 v 0 l -0.384978,0.943402 v 0 c 0.186969,0.0816 0.196882,0.591029 0.36971,0.692891 1.510694,0.89038 2.459098,2.521191 2.460017,4.304367 0,2.761424 -2.238576,5 -5,5 -2.761424,0 -5,-2.238576 -5,-5 0.0019,-1.873642 1.049388,-3.576304 2.691731,-4.430409 0.120925,-0.06289 -0.127194,0.05342 0,0 l 0.234788,-0.606897 -0.315782,-0.9929717 v 0 z"
     id="path605240"
     sodipodi:nodetypes="cccccccccccccccccccccccccccccscscsccccscscsccccc" />
  <path
     fill="#fff"
     opacity=".1"
     d="m16 2a14 14 0 0 0 -14 14 14 14 0 0 0 0.0215 0.586 14 14 0 0 1 13.978 -13.586 14 14 0 0 1 13.979 13.414 14 14 0 0 0 0.021 -0.414 14 14 0 0 0 -14 -14z"
     id="path605242" />
  <path
     opacity=".2"
     d="m29.979 16.414a14 14 0 0 1 -13.979 13.586 14 14 0 0 1 -13.978 -13.414 14 14 0 0 0 -0.022 0.414 14 14 0 0 0 14 14 14 14 0 0 0 14 -14 14 14 0 0 0 -0.021 -0.586z"
     id="path605244" />
</svg>
