<?xml version="1.0" encoding="UTF-8" standalone="no"?>
<svg
   width="32"
   height="32"
   version="1"
   id="svg12"
   sodipodi:docname="ibus-bopomofo.svg"
   inkscape:version="1.1.2 (0a00cf5339, 2022-02-04)"
   xmlns:inkscape="http://www.inkscape.org/namespaces/inkscape"
   xmlns:sodipodi="http://sodipodi.sourceforge.net/DTD/sodipodi-0.dtd"
   xmlns="http://www.w3.org/2000/svg"
   xmlns:svg="http://www.w3.org/2000/svg">
  <defs
     id="defs16" />
  <sodipodi:namedview
     id="namedview14"
     pagecolor="#ffffff"
     bordercolor="#666666"
     borderopacity="1.0"
     inkscape:pageshadow="2"
     inkscape:pageopacity="0.0"
     inkscape:pagecheckerboard="0"
     showgrid="false"
     inkscape:zoom="25.84375"
     inkscape:cx="15.980653"
     inkscape:cy="16"
     inkscape:window-width="1916"
     inkscape:window-height="1015"
     inkscape:window-x="0"
     inkscape:window-y="29"
     inkscape:window-maximized="1"
     inkscape:current-layer="svg12" />
  <rect
     fill="#2095f2"
     width="28"
     height="28"
     x="2"
     y="2"
     rx="1.5"
     ry="1.5"
     id="rect2" />
  <path
     fill="#fff"
     opacity=".1"
     d="m3.5 2c-0.831 0-1.5 0.669-1.5 1.5v1c0-0.831 0.669-1.5 1.5-1.5h25c0.831 0 1.5 0.669 1.5 1.5v-1c0-0.831-0.669-1.5-1.5-1.5h-25z"
     id="path4" />
  <path
     opacity=".2"
     d="m2 28.5v1c0 0.831 0.669 1.5 1.5 1.5h25c0.831 0 1.5-0.669 1.5-1.5v-1c0 0.831-0.669 1.5-1.5 1.5h-25c-0.831 0-1.5-0.669-1.5-1.5z"
     id="path6" />
  <path
     fill-rule="evenodd"
     opacity=".2"
     d="m11.275 6.8573-4.2656 5.7559 1.2051 2.3926h12.785c-0.12088 3.0649-0.14525 3.8063-0.79883 5.3906-0.38554 0.93461-0.87219 1.521-1.8516 1.9785-0.97937 0.45756-2.5467 0.73541-4.9277 0.58203l-0.19336 2.9922c2.6849 0.17295 4.7529-0.0904 6.3906-0.85547 1.6377-0.76511 2.7496-2.084 3.3555-3.5527 1.2118-2.9376 0.88629-4.4027 1.0898-7.9492l-0.065-1.586h-12.807l2.4922-3.3613z"
     id="path8" />
  <path
     fill="#ffffff"
     fill-rule="evenodd"
     d="m 11.275,5.8516 -4.023811,5.429636 -0.1104968,0.586931 v 0 L 8.2145,14.0001 h 12.785 c -0.12088,3.0649 -0.14525,3.8063 -0.79883,5.3906 -0.38554,0.93461 -0.87219,1.521 -1.8516,1.9785 -0.97937,0.45756 -2.5467,0.73541 -4.9277,0.58203 l -0.19336,2.9922 c 2.6849,0.17295 4.7529,-0.0904 6.3906,-0.85547 1.6377,-0.76511 2.7496,-2.084 3.3555,-3.5527 1.2118,-2.9376 0.88629,-4.4027 1.0898,-7.9492 l -0.065,-1.587 h -12.807 l 2.4922,-3.3613 z"
     id="path10"
     sodipodi:nodetypes="ccccccccccccccccc" />
</svg>
