<?xml version="1.0" encoding="UTF-8" standalone="no"?>
<svg
   width="32"
   height="32"
   version="1"
   id="svg153"
   sodipodi:docname="VBox.svg"
   inkscape:version="1.1.2 (0a00cf5339, 2022-02-04)"
   xmlns:inkscape="http://www.inkscape.org/namespaces/inkscape"
   xmlns:sodipodi="http://sodipodi.sourceforge.net/DTD/sodipodi-0.dtd"
   xmlns="http://www.w3.org/2000/svg"
   xmlns:svg="http://www.w3.org/2000/svg">
  <defs
     id="defs157" />
  <sodipodi:namedview
     id="namedview155"
     pagecolor="#ffffff"
     bordercolor="#666666"
     borderopacity="1.0"
     inkscape:pageshadow="2"
     inkscape:pageopacity="0.0"
     inkscape:pagecheckerboard="0"
     showgrid="false"
     inkscape:zoom="26.28125"
     inkscape:cx="15.980975"
     inkscape:cy="16"
     inkscape:window-width="1920"
     inkscape:window-height="1051"
     inkscape:window-x="0"
     inkscape:window-y="29"
     inkscape:window-maximized="1"
     inkscape:current-layer="svg153" />
  <rect
     style="opacity:0.2"
     width="28"
     height="28"
     x="2"
     y="3"
     rx="1.4"
     ry="1.4"
     id="rect139" />
  <rect
     style="fill:#1159d4"
     width="28"
     height="28"
     x="2"
     y="2"
     rx="1.4"
     ry="1.4"
     id="rect141" />
  <path
     style="fill:none;stroke:#1159d4;stroke-width:3;stroke-linecap:square"
     d="M 4.1,13.5 H 9 l 2.8,7.89 3.5,-10.29 2.45,5.6 2.45,-6.3 2.8,8.1 h 4.2"
     id="path143" />
  <path
     style="opacity:0.2"
     d="M 6.0996094,6 C 5.4902094,6 5,6.4902094 5,7.0996094 V 13 h 5.058594 L 11.769531,17.822266 15.125,7.9570312 17.667969,13.771484 20.283203,7.0488281 24.068359,18 H 27 V 7.0996094 C 27,6.4902094 26.509791,6 25.900391,6 Z M 20.117188,15.75 17.832031,21.628906 15.476562,16.244141 11.830078,26.958984 7.9414062,16 H 5 V 26.900391 C 5,27.509791 5.4902094,28 6.0996094,28 H 25.900391 C 26.509791,28 27,27.509791 27,26.900391 V 21 h -5.068359 z"
     id="path145" />
  <path
     style="fill:#39dcff"
     d="M 6.0996094,5 C 5.4902094,5 5,5.4902094 5,6.0996094 V 12 h 4.6946599 l 0.5317041,0.472859 v 0 l 1.399457,3.944362 v 0 l 0.289537,-0.02369 2.890036,-8.4968391 0.319606,0.060343 0.438475,0.00257 2.104494,4.8118875 2.226421,-5.7231839 0.388813,5.28e-4 0.342225,-0.00988 3.319138,9.602893 v 0 L 24.338227,17 H 27 V 6.0996094 C 27,5.4902094 26.509791,5 25.900391,5 Z m 14.2027226,10.285701 -0.384379,-0.02314 -1.744532,4.488069 v 0 l -0.710983,0.03336 -1.804698,-4.125664 -0.328794,0.01957 v 0 l -3.151262,9.259678 -0.688601,0.06042 v 0 L 8.0435855,15.28796 v 0 L 7.6034436,15 H 5 V 25.900391 C 5,26.509791 5.4902094,27 6.0996094,27 H 25.900391 C 26.509791,27 27,26.509791 27,25.900391 V 20 h -5.068359 z"
     id="path147"
     sodipodi:nodetypes="ssccccccccccccccccccssscccccccccccccccsssscccc" />
  <path
     style="fill:#ffffff;opacity:0.1"
     d="M 3.4003906 2 C 2.6247906 2 2 2.6247906 2 3.4003906 L 2 4.4003906 C 2 3.6247906 2.6247906 3 3.4003906 3 L 28.599609 3 C 29.375209 3 30 3.6247906 30 4.4003906 L 30 3.4003906 C 30 2.6247906 29.375209 2 28.599609 2 L 3.4003906 2 z"
     id="path149" />
  <path
     style="fill:#ffffff;opacity:0.2"
     d="M 6.0996094 5 C 5.4902094 5 5 5.4902094 5 6.0996094 L 5 7.0996094 C 5 6.4902094 5.4902094 6 6.0996094 6 L 25.900391 6 C 26.509791 6 27 6.4902094 27 7.0996094 L 27 6.0996094 C 27 5.4902094 26.509791 5 25.900391 5 L 6.0996094 5 z M 20.117188 14.75 L 17.832031 20.628906 L 15.476562 15.244141 L 11.830078 25.958984 L 7.9414062 15 L 5 15 L 5 16 L 7.9414062 16 L 11.830078 26.958984 L 15.476562 16.244141 L 17.832031 21.628906 L 20.117188 15.75 L 21.931641 21 L 27 21 L 27 20 L 21.931641 20 L 20.117188 14.75 z"
     id="path151" />
</svg>
