<?xml version="1.0" encoding="UTF-8" standalone="no"?>
<svg
   width="512"
   height="512"
   version="1.1"
   viewBox="0 0 384 384"
   id="svg4112"
   sodipodi:docname="input-touchpad-off.svg"
   inkscape:version="1.1.2 (0a00cf5339, 2022-02-04)"
   xmlns:inkscape="http://www.inkscape.org/namespaces/inkscape"
   xmlns:sodipodi="http://sodipodi.sourceforge.net/DTD/sodipodi-0.dtd"
   xmlns="http://www.w3.org/2000/svg"
   xmlns:svg="http://www.w3.org/2000/svg">
  <sodipodi:namedview
     id="namedview4114"
     pagecolor="#ffffff"
     bordercolor="#666666"
     borderopacity="1.0"
     inkscape:pageshadow="2"
     inkscape:pageopacity="0.0"
     inkscape:pagecheckerboard="0"
     showgrid="false"
     inkscape:zoom="1.6152344"
     inkscape:cx="255.69045"
     inkscape:cy="256"
     inkscape:window-width="1920"
     inkscape:window-height="1051"
     inkscape:window-x="0"
     inkscape:window-y="29"
     inkscape:window-maximized="1"
     inkscape:current-layer="svg4112" />
  <defs
     id="defs4090">
    <clipPath
       id="clipPath4076">
      <rect
         width="36"
         height="36"
         id="rect4074" />
    </clipPath>
    <clipPath
       id="clipPath4080">
      <rect
         width="384"
         height="384"
         id="rect4078" />
    </clipPath>
    <clipPath
       id="clipPath4084">
      <rect
         width="384"
         height="384"
         id="rect4082" />
    </clipPath>
    <clipPath
       id="clipPath4088">
      <rect
         width="384"
         height="384"
         id="rect4086" />
    </clipPath>
  </defs>
  <g
     transform="translate(.002 .005)"
     id="g4102">
    <path
       d="m360.75 344.52v-305.05c0-8.9648-7.2656-16.227-16.227-16.227h-305.05c-8.9609 0-16.227 7.2617-16.227 16.227v305.05c0 8.9609 7.2656 16.227 16.227 16.227h305.05c8.9609 0 16.227-7.2656 16.227-16.227z"
       fill="#fff"
       opacity=".2"
       stroke="#000"
       stroke-width="7.5"
       id="path4092" />
    <path
       d="m360.75 344.52v-305.05c0-8.9648-7.2656-16.227-16.227-16.227h-305.05c-8.9609 0-16.227 7.2617-16.227 16.227v305.05c0 8.9609 7.2656 16.227 16.227 16.227h305.05c8.9609 0 16.227-7.2656 16.227-16.227z"
       fill="#fff"
       id="path4094" />
    <path
       d="m297 71.929c-0.6374 0-1.1514 0.5125-1.1514 1.1499v10.68c0 0.6374 0.51397 1.1499 1.1514 1.1499h49.62c0.6374 0 1.1514-0.5125 1.1514-1.1499v-10.68c0-0.6374-0.5139-1.1499-1.1514-1.1499zm0 25.961c-0.6374 0-1.1514 0.5125-1.1514 1.1499v10.68c0 0.6374 0.51397 1.1499 1.1514 1.1499h49.62c0.6374 0 1.1514-0.5125 1.1514-1.1499v-10.68c0-0.63741-0.5139-1.1499-1.1514-1.1499zm0 25.96c-0.6374 0-1.1514 0.51396-1.1514 1.1514v10.678c0 0.6374 0.51397 1.1514 1.1514 1.1514h49.62c0.6374 0 1.1514-0.51397 1.1514-1.1514v-10.678c0-0.63741-0.5139-1.1514-1.1514-1.1514zm0 25.961c-0.6374 0-1.1514 0.51249-1.1514 1.1499v10.68c0 0.6374 0.51397 1.1499 1.1514 1.1499h49.62c0.6374 0 1.1514-0.5125 1.1514-1.1499v-10.68c0-0.63741-0.5139-1.1499-1.1514-1.1499zm0 25.961c-0.6374 0-1.1514 0.5125-1.1514 1.1499v10.68c0 0.6374 0.51397 1.1499 1.1514 1.1499h49.62c0.6374 0 1.1514-0.51251 1.1514-1.1499v-10.68c0-0.63741-0.5139-1.1499-1.1514-1.1499zm0 25.96c-0.6374 0-1.1514 0.51396-1.1514 1.1514v10.678c0 0.6374 0.51397 1.1514 1.1514 1.1514h49.62c0.6374 0 1.1514-0.51397 1.1514-1.1514v-10.678c0-0.63741-0.5139-1.1514-1.1514-1.1514zm-244.78 64.907c-8.4458 0-15.244 6.799-15.244 15.244v47.464c0 8.4458 6.799 15.244 15.244 15.244h110.63c8.4458 0 15.244-6.799 15.244-15.244v-47.464c0-8.4458-6.799-15.244-15.244-15.244zm168.93 0c-8.4458 0-15.244 6.799-15.244 15.244v47.464c0 8.4458 6.799 15.244 15.244 15.244h110.63c8.4458 0 15.244-6.799 15.244-15.244v-47.464c0-8.4458-6.799-15.244-15.244-15.244z"
       opacity=".1"
       stroke="#000"
       stroke-width=".75"
       style="paint-order:normal"
       id="path4096" />
    <path
       d="m23.252 337.03v7.5c0 8.961 7.2651 16.226 16.226 16.226h305.05c8.961 0 16.226-7.2652 16.226-16.226v-7.5c0 8.961-7.2651 16.226-16.226 16.226h-305.05c-8.961 0-16.226-7.2652-16.226-16.226z"
       fill="#040404"
       opacity=".3"
       stroke-width=".99997"
       id="path4098" />
    <path
       d="m39.478 23.25c-8.961 0-16.226 7.2612-16.226 16.226v7.5c0-8.9648 7.2651-16.226 16.226-16.226h305.05c8.961 0 16.226 7.2612 16.226 16.226v-7.5c0-8.9648-7.2652-16.226-16.226-16.226z"
       opacity=".1"
       stroke-width=".99997"
       id="path4100" />
  </g>
  <path
     d="m384 294c0 49.706-40.294 90-90 90-49.706 0-90-40.294-90-90 0-49.706 40.294-90 90-90 49.706 0 90 40.294 90 90z"
     fill-rule="evenodd"
     opacity=".3"
     stroke-width=".9375"
     id="path4104" />
  <path
     d="m384 286.5c0 49.706-40.294 90-90 90-49.706 0-90-40.294-90-90 0-49.706 40.294-90 90-90 49.706 0 90 40.294 90 90z"
     fill="#d41717"
     fill-rule="evenodd"
     stroke-width=".9375"
     id="path4106" />
  <path
     d="m264.75 253.07-11.675 11.675 29.253 29.254-29.253 29.253 11.675 11.676 29.254-29.254 29.253 29.254 11.676-11.676-29.254-29.253 29.254-29.254-11.676-11.675-29.253 29.253z"
     opacity=".3"
     stroke-width="11.029"
     id="path4108" />
  <path
     d="m 261.17641,249.14359 v 0 l -5.15235,5.15235 v 0 l 1.64031,7.53859 24.66363,24.66447 -25.543,25.543 -0.62699,6.79327 v 0 l 4.8713,4.87172 v 0 l 7.17333,0.26837 25.80136,-25.80136 24.91493,24.91578 7.30008,1.37621 v 0 l 5.01336,-5.01336 -0.78801,-8.18912 v 0 L 305.679,286.499 l 25.35337,-25.35337 0.83075,-6.97025 v 0 l -4.64225,-4.64185 -7.71259,-0.21481 v 0 L 294.004,274.823 268.56981,249.38968 Z"
     fill="#ffffff"
     stroke-width="11.029"
     id="path4110"
     sodipodi:nodetypes="ccccccccccccccccccccccccccccc" />
</svg>
