<?xml version="1.0" encoding="UTF-8" standalone="no"?>
<svg
   width="32"
   height="32"
   version="1"
   id="svg812336"
   sodipodi:docname="kbruch.svg"
   inkscape:version="1.1.2 (0a00cf5339, 2022-02-04)"
   xmlns:inkscape="http://www.inkscape.org/namespaces/inkscape"
   xmlns:sodipodi="http://sodipodi.sourceforge.net/DTD/sodipodi-0.dtd"
   xmlns="http://www.w3.org/2000/svg"
   xmlns:svg="http://www.w3.org/2000/svg">
  <defs
     id="defs812340" />
  <sodipodi:namedview
     id="namedview812338"
     pagecolor="#ffffff"
     bordercolor="#666666"
     borderopacity="1.0"
     inkscape:pageshadow="2"
     inkscape:pageopacity="0.0"
     inkscape:pagecheckerboard="0"
     showgrid="false"
     inkscape:zoom="25.84375"
     inkscape:cx="15.980653"
     inkscape:cy="16"
     inkscape:window-width="1920"
     inkscape:window-height="1051"
     inkscape:window-x="0"
     inkscape:window-y="29"
     inkscape:window-maximized="1"
     inkscape:current-layer="g812334" />
  <rect
     fill="#5db43e"
     width="28"
     height="28"
     x="2"
     y="2"
     rx="14"
     ry="14"
     id="rect812314" />
  <g
     opacity=".2"
     transform="translate(0,1)"
     id="g812322">
    <path
       d="m15 6v1h1v7h1v-8z"
       id="path812316" />
    <path
       d="m10 15v1h12v-1z"
       id="path812318" />
    <path
       d="m14 17v5h3v3h1v-8h-1v4h-2v-4z"
       id="path812320" />
  </g>
  <path
     fill="#fff"
     opacity=".1"
     d="m16 2c-7.756 0-14 6.244-14 14 0 0.169 0.0195 0.333 0.0254 0.5 0.2637-7.5206 6.3874-13.5 13.975-13.5 7.5872 0 13.711 5.9794 13.975 13.5 0.006-0.16736 0.0254-0.33116 0.0254-0.5 0-7.756-6.244-14-14-14z"
     id="path812324" />
  <path
     opacity=".2"
     d="m2.0254 16.5c-0.0059 0.167-0.0254 0.331-0.0254 0.5 0 7.756 6.244 14 14 14s14-6.244 14-14c0-0.16884-0.01952-0.33264-0.02539-0.5-0.264 7.521-6.388 13.5-13.975 13.5-7.5872 0-13.711-5.979-13.975-13.5z"
     id="path812326" />
  <g
     fill="#fff"
     id="g812334">
    <path
       d="m 15,6.2979649 v 0 0.4412917 0 L 15.301395,7 H 16 v 7 h 1 V 6 h -1.664287 z"
       id="path812328"
       sodipodi:nodetypes="ccccccccccc" />
    <path
       d="m10 15v1h12v-1z"
       id="path812330" />
    <path
       d="m14 17v5h3v3h1v-8h-1v4h-2v-4z"
       id="path812332" />
  </g>
</svg>
