<?xml version="1.0" encoding="UTF-8" standalone="no"?>
<svg
   width="32"
   height="32"
   version="1.1"
   id="svg417158"
   sodipodi:docname="lutris_thimbleweed-park.svg"
   inkscape:version="1.1.2 (0a00cf5339, 2022-02-04)"
   xmlns:inkscape="http://www.inkscape.org/namespaces/inkscape"
   xmlns:sodipodi="http://sodipodi.sourceforge.net/DTD/sodipodi-0.dtd"
   xmlns="http://www.w3.org/2000/svg"
   xmlns:svg="http://www.w3.org/2000/svg">
  <defs
     id="defs417162" />
  <sodipodi:namedview
     id="namedview417160"
     pagecolor="#ffffff"
     bordercolor="#666666"
     borderopacity="1.0"
     inkscape:pageshadow="2"
     inkscape:pageopacity="0.0"
     inkscape:pagecheckerboard="0"
     showgrid="false"
     inkscape:zoom="25.84375"
     inkscape:cx="15.980653"
     inkscape:cy="16"
     inkscape:window-width="1920"
     inkscape:window-height="1051"
     inkscape:window-x="0"
     inkscape:window-y="29"
     inkscape:window-maximized="1"
     inkscape:current-layer="svg417158" />
  <path
     style="opacity:0.2;fill-rule:evenodd"
     d="m 23.725685,10.000009 c -0.566621,1.546509 -2.009281,2.864259 -2.00928,2.864259 0.824163,0.228272 1.030646,0 1.030646,0 -0.412083,1.014101 -1.957269,2.180121 -1.957269,2.180121 0.772655,0.152181 1.699949,-0.151806 1.699949,-0.151806 -0.206022,1.014101 -2.57593,1.725378 -2.57593,1.725378 0.824169,0.405603 2.421265,0 2.421265,0 -0.566631,0.912672 -3.70923,1.722641 -3.70923,1.722641 0.92719,0.456355 3.347888,0.253759 3.347888,0.253759 -1.184741,1.419742 -2.485595,1.896412 -2.485595,1.896412 0,0 -0.788925,0.818366 -1.973693,-0.601376 0,0 1.351749,-0.238766 2.278918,-0.695046 0,0 -2.340535,-0.568354 -2.907161,-1.480988 0,0 1.595722,0.405603 2.419896,0 0,0 -2.368525,-0.709891 -2.574561,-1.724029 0,0 0.927269,0.303987 1.69995,0.152181 0,0 -1.546545,-1.166019 -1.958637,-2.18012 0,0 0.20646,0.228271 1.030645,0 0,0 -1.441302,-1.317788 -2.007912,-2.864297 -0.566618,1.546509 -2.009279,2.864297 -2.009279,2.864297 0.824159,0.228271 1.030645,0 1.030645,0 -0.412082,1.014101 -1.957269,2.18012 -1.957269,2.18012 0.772656,0.152181 1.69995,-0.152181 1.69995,-0.152181 -0.206022,1.014138 -2.57593,1.724029 -2.57593,1.724029 0.824169,0.405603 2.421264,0 2.421264,0 -0.566634,0.912634 -3.709229,1.72399 -3.709229,1.72399 0.927192,0.456317 3.347887,0.25376 3.347887,0.25376 -1.184741,1.419704 -2.856517,1.714507 -2.856517,1.714507 0,0 -1.0366642,0.39076 -2.2214311,-1.028982 0,0 1.3517451,-0.238766 2.2789171,-0.695009 0,0 -2.341899,-0.568353 -2.9085284,-1.481063 0,0 1.5970909,0.40564 2.4212644,0 0,0 -2.3685299,-0.70989 -2.5745614,-1.723991 0,0 0.9272697,0.303986 1.6999499,0.152181 0,0 -1.5465452,-1.166019 -1.958638,-2.18012 0,0 0.2064676,0.22827 1.0306464,0 4.9e-6,0 -1.4426768,-1.317788 -2.0092805,-2.864297 -0.5666242,1.546509 -2.0079112,2.864297 -2.0079112,2.864297 0.8241587,0.22827 1.0306456,0 1.0306456,0 -0.4120818,1.014101 -1.9586375,2.18012 -1.9586375,2.18012 0.7726555,0.15218 1.7013183,-0.152181 1.7013183,-0.152181 -0.2060254,1.014101 -2.57593,1.723991 -2.57593,1.723991 0.8241689,0.40564 2.4198959,0 2.4198959,0 -0.4381178,0.705691 -2.1584634,1.340165 -3.0330823,1.596436 v 0.276999 c 1.089509,0.253384 2.6731091,0.104577 2.6731091,0.104577 -0.5893413,0.706217 -1.8834276,1.195181 -2.8948416,1.520383 v 6.205077 c 0,1.161409 0.94907,2.095934 2.1283588,2.095934 H 27.871537 c 1.179288,0 2.128357,-0.934525 2.128357,-2.095934 V 21.83881 c -1.503505,0.747935 -3.643532,1.027595 -3.643532,1.027595 0,0 0.572948,-2.652706 -0.611818,-4.072446 0,0 1.351747,-0.240267 2.27892,-0.696396 0,0 -2.340534,-0.566968 -2.907161,-1.47964 0,0 1.597091,0.405603 2.421266,0 0,0 -2.369899,-0.711276 -2.575931,-1.725377 0,0 0.92727,0.303986 1.699949,0.151806 0,0 -1.545175,-1.166019 -1.957268,-2.180121 0,0 0.205092,0.228271 1.029278,0 0,0 -1.441304,-1.317751 -2.007912,-2.864259 z m 6.274209,8.659386 c -0.488612,0.202033 -0.990952,0.333972 -0.990952,0.333972 0.242581,0.119571 0.650746,0.157804 0.990952,0.1668 v -0.500922 z m 0,1.335779 c -1.034447,0.428206 -2.277549,0.722147 -2.277549,0.722147 0.49888,0.245138 1.513791,0.292741 2.277549,0.290492 v -1.012676 z"
     id="path417140" />
  <path
     style="fill:#0088b5"
     d="M 29.999941,20.446063 V 4.1139638 c 0,-1.1710842 -0.949391,-2.1138855 -2.12868,-2.1138855 H 4.1287639 c -1.1792884,0 -2.1286796,0.9428013 -2.1286796,2.1138855 V 20.446063 c 0,1.171123 0.9493912,2.113886 2.1286796,2.113886 H 27.871261 c 1.179289,0 2.12868,-0.942763 2.12868,-2.113886 z"
     id="path417142" />
  <path
     style="fill:#003c56;fill-rule:evenodd"
     d="m 23.899565,9.2507826 c -0.05597,0.1540372 -0.29437,-0.1116596 -0.365202,0.036818 -0.646235,1.3546294 -1.817959,2.4338184 -1.817958,2.4338184 0.824163,0.230173 1.030646,0 1.030646,0 -0.412083,1.02255 -1.957269,2.198283 -1.957269,2.198283 0.772655,0.153448 1.699949,-0.153071 1.699949,-0.153071 -0.206022,1.022549 -2.57593,1.739751 -2.57593,1.739751 0.824169,0.408982 2.421265,0 2.421265,0 -0.566631,0.920275 -3.70923,1.736992 -3.70923,1.736992 0.92719,0.460156 3.347888,0.255873 3.347888,0.255873 -1.184741,1.431569 -2.485595,1.912211 -2.485595,1.912211 0,0 -0.788925,0.825182 -1.973693,-0.606387 0,0 1.351749,-0.240755 2.278918,-0.700836 0,0 -2.340535,-0.573089 -2.907161,-1.493326 0,0 1.595722,0.408982 2.419896,0 0,0 -2.368525,-0.715803 -2.574561,-1.73839 0,0 0.927269,0.306519 1.69995,0.153448 0,0 -1.546545,-1.175733 -1.958637,-2.198282 0,0 0.20646,0.230173 1.030645,0 0,0 -1.065905,-0.982679 -1.724783,-2.249641 -0.107288,-0.206306 -0.467048,0.179705 -0.546392,-0.03866 -0.0744,0.204757 0.09936,-0.194318 0,0 -0.380937,0.745007 -0.906731,1.395023 -1.281557,1.809947 -0.27197,0.301064 -0.0088,0.570456 -0.0088,0.570456 0.179866,0.05023 -0.125302,-0.01356 0,0 0.448837,0.04857 0.57503,-0.0921 0.57503,-0.0921 -0.228501,0.567008 -0.805405,1.181117 -1.274071,1.61575 -0.376531,0.349189 -0.134804,0.6246 -0.134804,0.6246 0.178984,0.03555 -0.18213,0.0043 0,0 0.604112,-0.01433 1.151556,-0.195516 1.151556,-0.195516 -0.117092,0.581182 -0.933153,1.063268 -1.61585,1.371169 -0.518504,0.233848 -0.03887,0.548352 -0.03887,0.548352 0.256132,0.127102 -0.334296,-0.0059 0,0 0.741386,0.01315 1.500054,-0.181131 1.500054,-0.181131 -0.340414,0.552846 -1.610539,1.068834 -2.570438,1.392718 -0.637897,0.215236 -0.05266,0.599346 -0.05266,0.599346 0.26849,0.133238 -0.423916,-0.04295 0,0 1.040017,0.105279 2.261758,0.0022 2.261758,0.0022 -1.184741,1.431531 -2.856517,1.72879 -2.856517,1.72879 0,0 -1.0366642,0.394015 -2.2214311,-1.037554 0,0 1.1431729,-0.141242 2.0874021,-0.420551 0.26955,-0.07973 -0.374037,-0.390638 -0.168136,-0.492802 0,0 0.514018,0.142722 0,0 -0.8954824,-0.24864 -2.1888867,-0.696154 -2.5488774,-1.280847 0,0 0.7679928,0.196685 1.51368,0.180883 0.3296456,-0.007 -0.072595,-0.3222 0.1800569,-0.447586 0,0 0.4113575,0.171152 0,0 -0.7145377,-0.297296 -1.7162781,-0.822699 -1.8470339,-1.47165 0,0 0.5230122,0.172888 1.1107582,0.194137 0.1948485,0.007 -0.1923801,0.03811 0,0 0,0 0.328105,-0.239174 -0.0081,-0.543969 -0.4820642,-0.43702 -1.1185686,-1.092593 -1.3613422,-1.695001 h 0.5755229 l 0.07045,-0.235535 c 0.1322532,-0.442157 0.2584482,-0.07327 0.062286,-0.281725 -0.3823736,-0.406338 -1.0214712,-1.021367 -1.4540746,-1.846098 -0.08728,-0.166393 0.066665,0.183473 0,0 -0.066644,0.183409 -0.3782049,-0.161166 -0.4652822,0.01408 -0.4088264,0.822777 -1.0013115,1.53584 -1.3874593,1.954266 -0.2308743,0.250173 0.02065,0.481489 0.02065,0.481489 0.1579296,0.04411 -0.1154607,-0.01516 0,0 0.4870738,0.06394 0.6220068,-0.08647 0.6220068,-0.08647 -0.2440559,0.605606 -0.8860415,1.264943 -1.3690027,1.701943 -0.3325058,0.300863 0,0 0,0 0.1759373,0.03494 -0.2296713,0.542353 -0.050362,0.538615 0.6081541,-0.01268 1.1620457,-0.195725 1.1620457,-0.195725 -0.1177245,0.584293 -0.94197,1.068431 -1.6268757,1.376097 -0.5137232,0.230769 -0.029491,0.543381 -0.029491,0.543381 0.2557912,0.126944 -0.3336602,-0.006 0,0 0.7414057,0.0134 1.5003331,-0.181125 1.5003331,-0.181125 -0.3433287,0.557618 -1.4740721,1.071138 -2.3681833,1.391595 -0.2468539,0.08847 0.1892285,-0.05591 0,0 l 0.094644,0.612311 c 0.2369366,0.05556 -0.2623023,-0.02291 0,0 0.9438461,0.08247 1.9135663,-0.0094 1.9135663,-0.0094 -0.5893413,0.7121 -1.8834276,1.205138 -2.8948416,1.533049 v 6.256769 c 0,1.171084 0.94907,2.113394 2.1283588,2.113394 H 27.871537 c 1.179288,0 2.128357,-0.94231 2.128357,-2.113394 v -6.115755 c -1.503505,0.754166 -3.643532,1.036156 -3.643532,1.036156 0,0 0.572948,-2.674804 -0.611818,-4.106373 0,0 1.351747,-0.242267 2.27892,-0.702197 0,0 -2.340534,-0.57169 -2.907161,-1.491966 0,0 1.597091,0.408982 2.421266,0 0,0 -2.369899,-0.717202 -2.575931,-1.739751 0,0 0.92727,0.306519 1.699949,0.153071 0,0 -1.545175,-1.175733 -1.957268,-2.198282 0,0 0.205092,0.230172 1.029278,0 0,0 -1.191897,-1.098802 -1.834032,-2.4706482 -0.06399,-0.136718 0.05135,0.1413245 0,-2e-7 z m 6.100329,8.3140394 c -0.488612,0.203716 -0.990952,0.336755 -0.990952,0.336755 0.242581,0.120567 0.650746,0.159118 0.990952,0.168189 v -0.505095 z m 0,1.346908 c -1.034447,0.431772 -2.277549,0.728162 -2.277549,0.728162 0.49888,0.24718 1.513791,0.29518 2.277549,0.292913 v -1.021113 z"
     id="path417144"
     sodipodi:nodetypes="cscccccccccccccccccscsscscscscscscscscccscscscscscscsssscsscscscscscscsccsccssssccccccccccscccccccccccc" />
  <rect
     style="fill:#625323"
     width="2"
     height="5"
     x="20"
     y="24"
     id="rect417146" />
  <path
     style="opacity:0.2"
     d="m 29.999929,23.36665 v -9.767263 c 0,-0.441977 -0.02861,-1.599304 -0.02861,-1.599304 0,0 -1.078478,0.0027 -1.502628,0.0027 h -9.937502 c -0.848297,0 -1.531217,0.711608 -1.531217,1.595486 v 9.767338 c 0,0.883803 0.68292,1.595411 1.531217,1.595411 h 9.937505 c 0.42415,0 1.502631,0.03893 1.502631,0.03893 0,0 0.02861,-1.190889 0.02861,-1.632828 z"
     id="path417148" />
  <path
     style="fill:#08c688"
     d="m 29.999929,22.366664 v -9.767262 c 0,-0.441977 -0.02861,-1.599304 -0.02861,-1.599304 0,0 -1.078478,0.0027 -1.502628,0.0027 h -9.937502 c -0.848297,0 -1.531217,0.711608 -1.531217,1.595487 v 9.767338 c 0,0.883803 0.68292,1.595411 1.531217,1.595411 h 9.937505 c 0.42415,0 1.502631,0.03893 1.502631,0.03893 0,0 0.02861,-1.190889 0.02861,-1.632828 z"
     id="path417150" />
  <path
     style="opacity:0.2;fill:#ffffff"
     d="m 4.1289022,2.0000281 c -1.1792884,0 -2.1289023,0.942193 -2.1289023,2.1132773 v 0.9999979 c 0,-1.1710843 0.9496139,-2.1132771 2.1289023,-2.1132771 H 27.871045 c 1.179289,0 2.128902,0.9421928 2.128902,2.1132771 V 4.1133054 c 0,-1.1710843 -0.949613,-2.1132773 -2.128902,-2.1132773 z"
     id="path417152" />
  <path
     style="opacity:0.2"
     d="m 29.999946,14.000195 c -1.114809,3.03e-4 -6.995388,0.002 -9.939434,0.002 -0.587283,-7.5e-5 -1.060545,0.493455 -1.060545,1.105314 v 6.761209 c 0,0.611859 0.473262,1.103424 1.060545,1.103424 2.943459,0.0378 8.824526,0.02646 9.939434,0.02646 v -0.996018 c -1.116342,0.002 -7.002624,0.0076 -9.927715,-0.03024 h -0.0078 -0.0078 c -0.02793,0 -0.05859,-0.0076 -0.05859,-0.10355 v -6.761172 c 0,-0.09675 0.03065,-0.103551 0.05859,-0.103551 v 0.002 c 2.944365,0 8.82911,3.03e-4 9.94334,0 z"
     id="path417154" />
  <path
     style="fill:#ffffff"
     d="m 29.999947,13.000007 c -1.114809,3.18e-4 -6.995388,0.002 -9.939434,0.002 -0.587283,-4.7e-5 -1.060545,0.493515 -1.060545,1.10542 v 6.761706 c 0,0.611904 0.473262,1.103513 1.060545,1.103513 2.943459,0.0367 8.824526,0.02721 9.939434,0.0254 v -0.996101 c -1.116342,0.002 -7.002624,0.0065 -9.927715,-0.03126 h -0.0078 -0.0078 c -0.02793,0 -0.05859,-0.0079 -0.05859,-0.103513 v -6.761701 c 0,-0.09676 0.03065,-0.103517 0.05859,-0.103517 v 0.002 c 2.944366,0 8.82911,3.03e-4 9.94334,0 z"
     id="path417156" />
</svg>
