<?xml version="1.0" encoding="UTF-8" standalone="no"?>
<svg
   version="1"
   viewBox="0 0 512 512"
   id="svg1762801"
   sodipodi:docname="mate-panel-separator.svg"
   inkscape:version="1.1.2 (0a00cf5339, 2022-02-04)"
   xmlns:inkscape="http://www.inkscape.org/namespaces/inkscape"
   xmlns:sodipodi="http://sodipodi.sourceforge.net/DTD/sodipodi-0.dtd"
   xmlns="http://www.w3.org/2000/svg"
   xmlns:svg="http://www.w3.org/2000/svg">
  <defs
     id="defs1762805" />
  <sodipodi:namedview
     id="namedview1762803"
     pagecolor="#ffffff"
     bordercolor="#666666"
     borderopacity="1.0"
     inkscape:pageshadow="2"
     inkscape:pageopacity="0.0"
     inkscape:pagecheckerboard="0"
     showgrid="false"
     inkscape:zoom="1.6152344"
     inkscape:cx="255.69045"
     inkscape:cy="256"
     inkscape:window-width="1920"
     inkscape:window-height="1051"
     inkscape:window-x="0"
     inkscape:window-y="29"
     inkscape:window-maximized="1"
     inkscape:current-layer="svg1762801" />
  <rect
     x="31"
     y="31"
     width="450"
     height="450"
     rx="60"
     ry="60"
     fill="#367bf0"
     stroke-width="8.0357"
     id="rect1762783" />
  <path
     d="m456.89 264.04-64.286 48.214v-32.143h-64.286v-32.143h64.286v-32.143z"
     opacity=".2"
     stroke-width="8.0357"
     id="path1762785" />
  <path
     d="m 451.04298,251.61469 1.00257,8.01861 -48.11902,36.08889 -11.32253,-1.69445 v 0 -21.95674 h -64.286 v -32.143 h 64.286 V 217.34131 215.825 l 10.97513,0.19143 z"
     fill="#80c6ed"
     stroke-width="8.0357"
     id="path1762787"
     sodipodi:nodetypes="cccccccccccccc" />
  <rect
     x="231.89"
     y="71.179"
     width="48.214"
     height="385.71"
     rx="12.054"
     ry="12.054"
     fill="#fff"
     opacity=".2"
     stroke-width="8.0357"
     id="rect1762789" />
  <rect
     x="231.89"
     y="63.143"
     width="48.214"
     height="385.71"
     rx="12.054"
     ry="12.054"
     fill="#0f2751"
     stroke-width="8.0357"
     id="rect1762791" />
  <path
     d="m55.107 264.04 64.286 48.214v-32.143h64.286v-32.143h-64.286v-32.143z"
     opacity=".2"
     stroke-width="8.0357"
     id="path1762793" />
  <path
     d="m 60.489289,260.03667 v 0 L 109.29289,296.639 119.393,294.34844 v 0 -22.27744 h 64.286 V 239.928 H 119.393 V 216.48691 215.825 l -10.18384,-0.40204 -48.656403,36.49268 z"
     fill="#80c6ed"
     stroke-width="8.0357"
     id="path1762795"
     sodipodi:nodetypes="cccccccccccccc" />
  <path
     d="m31 411v10c0 33.24 26.76 60 60 60h330c33.24 0 60-26.76 60-60v-10c0 33.24-26.76 60-60 60h-330c-33.24 0-60-26.76-60-60z"
     opacity=".3"
     stroke-width="8.0357"
     id="path1762797" />
  <path
     d="m91 31c-33.24 0-60 26.76-60 60v10c0-33.24 26.76-60 60-60h330c33.24 0 60 26.76 60 60v-10c0-33.24-26.76-60-60-60h-330z"
     fill="#fff"
     opacity=".2"
     stroke-width="8.0357"
     id="path1762799" />
</svg>
