<?xml version="1.0" encoding="UTF-8" standalone="no"?>
<svg
   width="512"
   height="512"
   version="1.1"
   viewBox="0 0 384 384"
   id="svg280562"
   sodipodi:docname="mic-off.svg"
   inkscape:version="1.1.2 (0a00cf5339, 2022-02-04)"
   xmlns:inkscape="http://www.inkscape.org/namespaces/inkscape"
   xmlns:sodipodi="http://sodipodi.sourceforge.net/DTD/sodipodi-0.dtd"
   xmlns="http://www.w3.org/2000/svg"
   xmlns:svg="http://www.w3.org/2000/svg">
  <sodipodi:namedview
     id="namedview280564"
     pagecolor="#ffffff"
     bordercolor="#666666"
     borderopacity="1.0"
     inkscape:pageshadow="2"
     inkscape:pageopacity="0.0"
     inkscape:pagecheckerboard="0"
     showgrid="false"
     inkscape:zoom="1.6152344"
     inkscape:cx="255.69045"
     inkscape:cy="256"
     inkscape:window-width="1920"
     inkscape:window-height="1051"
     inkscape:window-x="0"
     inkscape:window-y="29"
     inkscape:window-maximized="1"
     inkscape:current-layer="svg280562" />
  <defs
     id="defs280536">
    <clipPath
       id="clipPath280526">
      <rect
         width="36"
         height="36"
         id="rect280524" />
    </clipPath>
    <clipPath
       id="clipPath280530">
      <rect
         width="384"
         height="384"
         id="rect280528" />
    </clipPath>
    <clipPath
       id="clipPath280534">
      <rect
         width="384"
         height="384"
         id="rect280532" />
    </clipPath>
  </defs>
  <g
     transform="translate(.0012121 .00065773)"
     id="g280552">
    <g
       transform="matrix(.94718 0 0 .94718 10.145 19.053)"
       id="g280546">
      <g
         transform="matrix(1.5364,0,0,1.5364,-97.996,463.73)"
         id="g280542">
        <g
           transform="translate(-3.2542,-372.61)"
           fill-rule="evenodd"
           id="g280540">
          <path
             transform="matrix(.75 0 0 .75 3.2542 372.61)"
             d="m191.17-235.05-25.225 0.10937c2.2307 52.224 36.654 81.489 74.094 86.594v33.611c-16.457 2.7692-32.222 11.136-44.213 24.992l112.21 0.375c-11.731-14.275-27.4-22.706-43.881-25.424v-33.609c36.518-5.156 69.978-33.593 73.215-86.498l-25.621-0.15039c-4.3125 81.474-115.79 82.062-120.58 0z"
             fill="#0f2b5c"
             id="path280538" />
        </g>
      </g>
      <path
         transform="scale(.75)"
         d="m125.01 257.33-0.70508 4e-3c3.4273 80.239 56.315 125.2 113.84 133.04v-10c-55.089-7.5117-105.92-49.071-113.13-123.05zm261.81 0.0606c-8.4167 74.877-57.857 115.31-111.62 122.9v10c56.108-7.9219 107.52-51.613 112.49-132.9l-0.87109-6e-3zm-206.89 213.06c-3.3835 3.0879-6.6297 6.4062-9.7109 9.9668l172.41 0.57617c-2.9456-3.5846-6.0568-6.9255-9.3047-10.031l-153.39-0.51172z"
         fill-rule="evenodd"
         opacity=".3"
         id="path280544" />
    </g>
    <path
       d="m192.09 30.355c-31.597 0-54.641 31.058-54.641 66.358v94.241c0 35.301 23.043 66.358 54.641 66.358 31.597 0 54.639-31.059 54.639-66.358v-94.241c0-35.3-23.041-66.358-54.639-66.358z"
       color="#000000"
       color-rendering="auto"
       dominant-baseline="auto"
       fill-rule="evenodd"
       image-rendering="auto"
       opacity=".3"
       shape-rendering="auto"
       solid-color="#000000"
       style="font-feature-settings:normal;font-variant-alternates:normal;font-variant-caps:normal;font-variant-ligatures:normal;font-variant-numeric:normal;font-variant-position:normal;isolation:auto;mix-blend-mode:normal;shape-padding:0;text-decoration-color:#000000;text-decoration-line:none;text-decoration-style:solid;text-indent:0;text-orientation:mixed;text-transform:none;white-space:normal"
       id="path280548" />
    <path
       d="m192.09 33.977c24.253 0 43.911 24.908 43.911 55.632v94.241c0 30.724-19.658 55.632-43.911 55.632s-43.915-24.908-43.915-55.632v-94.241c0-30.724 19.661-55.632 43.915-55.632zm0 0"
       fill="#fff"
       fill-rule="evenodd"
       stroke="#000"
       stroke-linecap="square"
       stroke-miterlimit="2.0126"
       stroke-width="21.454"
       id="path280550" />
  </g>
  <path
     d="m384 294c0 49.706-40.294 90-90 90-49.706 0-90-40.294-90-90 0-49.706 40.294-90 90-90 49.706 0 90 40.294 90 90z"
     fill-rule="evenodd"
     opacity=".3"
     stroke-width=".9375"
     id="path280554" />
  <path
     d="m384 286.5c0 49.706-40.294 90-90 90-49.706 0-90-40.294-90-90 0-49.706 40.294-90 90-90 49.706 0 90 40.294 90 90z"
     fill="#d41717"
     fill-rule="evenodd"
     stroke-width=".9375"
     id="path280556" />
  <path
     d="m264.75 253.07-11.675 11.675 29.253 29.254-29.253 29.253 11.675 11.676 29.254-29.254 29.253 29.254 11.676-11.676-29.254-29.253 29.254-29.254-11.676-11.675-29.253 29.253z"
     opacity=".3"
     stroke-width="11.029"
     id="path280558" />
  <path
     d="m 267.94852,248.76841 -6.73544,0.33851 -5.4913,5.4913 v 0 l 1.2936,6.5873 25.31262,25.31348 -26.57991,26.57991 v 0 l 0.19821,5.54464 5.62002,5.6205 6.14838,0.21925 v 0 l 26.2893,-26.2893 25.10994,25.1108 6.99797,1.28829 v 0 l 5.93977,-5.93977 -1.40535,-7.16785 v 0 L 305.679,286.499 l 25.69058,-25.69058 0.77673,-6.34987 v 0 l -5.84443,-5.84393 v 0 l -6.83508,0.74558 -25.4628,25.4628 z"
     fill="#ffffff"
     stroke-width="11.029"
     id="path280560"
     sodipodi:nodetypes="ccccccccccccccccccccccccccccc" />
</svg>
