<?xml version="1.0" encoding="UTF-8" standalone="no"?>
<svg
   width="512"
   height="512"
   version="1.1"
   viewBox="0 0 384 384"
   id="svg20524"
   sodipodi:docname="network-wired-disconected.svg"
   inkscape:version="1.1.2 (0a00cf5339, 2022-02-04)"
   xmlns:inkscape="http://www.inkscape.org/namespaces/inkscape"
   xmlns:sodipodi="http://sodipodi.sourceforge.net/DTD/sodipodi-0.dtd"
   xmlns:xlink="http://www.w3.org/1999/xlink"
   xmlns="http://www.w3.org/2000/svg"
   xmlns:svg="http://www.w3.org/2000/svg">
  <sodipodi:namedview
     id="namedview20526"
     pagecolor="#ffffff"
     bordercolor="#666666"
     borderopacity="1.0"
     inkscape:pageshadow="2"
     inkscape:pageopacity="0.0"
     inkscape:pagecheckerboard="0"
     showgrid="false"
     inkscape:zoom="1.6152344"
     inkscape:cx="255.69045"
     inkscape:cy="256"
     inkscape:window-width="1920"
     inkscape:window-height="1051"
     inkscape:window-x="0"
     inkscape:window-y="29"
     inkscape:window-maximized="1"
     inkscape:current-layer="svg20524" />
  <defs
     id="defs20508">
    <filter
       id="alpha"
       x="0"
       y="0"
       width="1"
       height="1">
      <feColorMatrix
         in="SourceGraphic"
         values="0 0 0 0 1 0 0 0 0 1 0 0 0 0 1 0 0 0 1 0"
         id="feColorMatrix20494" />
    </filter>
    <mask
       id="b">
      <g
         filter="url(#alpha)"
         id="g20499">
        <rect
           width="384"
           height="384"
           fill-opacity=".30196"
           id="rect20497" />
      </g>
    </mask>
    <clipPath
       id="c">
      <rect
         width="384"
         height="384"
         id="rect20502" />
    </clipPath>
    <g
       id="a"
       clip-path="url(#c)">
      <path
         transform="matrix(2.4877 2.4877 -2.4877 2.4877 99.702 -1048.2)"
         d="m269.4 218.12v10.879h10.879l7.85e-4 3.3203h-10.879l-7.85e-4 10.879-3.281-7.85e-4v-10.879h-10.879l-7.85e-4 -3.3203h10.879l7.85e-4 -10.879z"
         stroke="#000"
         id="path20505" />
    </g>
  </defs>
  <path
     d="m36.82 40.887-5.0078 2.3828c-9.3477 4.4531-14.051 11.059-15.457 21.723-0.51172 3.8555-0.70703 45.234-0.55859 118.37 0.21875 107.73 0.28906 112.6 1.6719 116.29 3.1211 8.3203 8.4922 13.539 17.297 16.793 4.0352 1.4961 6.2422 1.6328 29.395 1.8672 13.766 0.13672 25.871 0.4375 26.902 0.66406 1.0312 0.23047 6.9492 5.3867 13.145 11.457 9.7656 9.5703 11.727 11.148 14.684 11.805 5.0625 1.1289 140.39 1.1836 145.63 0.0586 3.7852-0.8125 4.8047-1.6055 15.297-11.887 6.1836-6.0586 12.086-11.207 13.117-11.438 1.0312-0.23047 13.832-0.53516 28.445-0.67188 22.195-0.21094 27.098-0.45703 29.77-1.4961 7.7734-3.0195 12.73-8.2578 15.484-16.348 1.2226-3.5898 1.3438-12.465 1.5625-116.71 0.15234-73.562-0.0391-114.89-0.55078-118.75-1.4141-10.703-6.0742-17.285-15.336-21.676l-5.1289-2.4297z"
     id="path20510" />
  <use
     mask="url(#b)"
     xlink:href="#a"
     id="use20512" />
  <path
     transform="matrix(2.4877 2.4877 -2.4877 2.4877 99.702 -1056.7)"
     d="m269.4 218.12v10.879h10.879l7.86e-4 3.3203h-10.879l-7.85e-4 10.879-3.281-7.85e-4v-10.879h-10.879l-7.85e-4 -3.3203h10.879l7.85e-4 -10.879z"
     stroke="#000"
     id="path20514" />
  <path
     d="m130.81 273.93-12.395-12.312-48.48-0.40625v-170.2h244.13v170.2l-48.48 0.40625-12.395 12.312-12.395 12.309h-97.594z"
     fill="#fff"
     id="path20516" />
  <path
     d="m164.99 157.99-10.746 10.75 27.062 27.062-27.062 27.061 10.648 10.652 27.064-27.062 27.062 27.062 10.746-10.75-27.062-27.062 27.062-27.062-1.2441-1.2422-9.4023-9.4082-27.066 27.062z"
     color="#000000"
     color-rendering="auto"
     dominant-baseline="auto"
     image-rendering="auto"
     opacity=".3"
     shape-rendering="auto"
     solid-color="#000000"
     style="font-feature-settings:normal;font-variant-alternates:normal;font-variant-caps:normal;font-variant-ligatures:normal;font-variant-numeric:normal;font-variant-position:normal;isolation:auto;mix-blend-mode:normal;shape-padding:0;text-decoration-color:#000000;text-decoration-line:none;text-decoration-style:solid;text-indent:0;text-orientation:mixed;text-transform:none;white-space:normal"
     id="path20518" />
  <path
     d="m 168.6498,154.14994 -6.39934,-0.91938 -5.36898,5.37098 v 0 l 0.45368,5.72962 23.97084,23.97084 -23.85509,23.8542 -0.72713,6.67049 1.04358,0.061 4.85233,4.85415 v 0 l 5.96121,-1.41546 23.3751,-23.37337 23.69135,23.69135 6.4025,0.33767 v 0 l 4.79389,-4.79568 -0.72257,-6.56417 v 0 L 202.702,188.203 l 23.70124,-23.70124 2.11666,-4.60296 v 0 l -2.45752,-2.45906 -3.58746,-3.58971 v 0 l -7.05633,0.33903 -23.36699,23.36354 z"
     color="#000000"
     color-rendering="auto"
     dominant-baseline="auto"
     image-rendering="auto"
     shape-rendering="auto"
     solid-color="#000000"
     style="font-variant-ligatures:normal;font-variant-position:normal;font-variant-caps:normal;font-variant-numeric:normal;font-variant-alternates:normal;font-feature-settings:normal;text-indent:0;text-decoration-line:none;text-decoration-style:solid;text-decoration-color:#000000;text-transform:none;text-orientation:mixed;white-space:normal;shape-padding:0;isolation:auto;mix-blend-mode:normal"
     id="path20520"
     sodipodi:nodetypes="ccccccccccccccccccccccccccccc" />
  <path
     transform="scale(.75)"
     d="m93.244 121.35v10h325.51v-10h-325.51z"
     opacity=".3"
     stroke-width="1.3333"
     id="path20522" />
</svg>
