<?xml version="1.0" encoding="UTF-8" standalone="no"?>
<svg
   width="32"
   height="32"
   version="1"
   id="svg76744"
   sodipodi:docname="xonotic.svg"
   inkscape:version="1.1.2 (0a00cf5339, 2022-02-04)"
   xmlns:inkscape="http://www.inkscape.org/namespaces/inkscape"
   xmlns:sodipodi="http://sodipodi.sourceforge.net/DTD/sodipodi-0.dtd"
   xmlns="http://www.w3.org/2000/svg"
   xmlns:svg="http://www.w3.org/2000/svg">
  <defs
     id="defs76748" />
  <sodipodi:namedview
     id="namedview76746"
     pagecolor="#ffffff"
     bordercolor="#666666"
     borderopacity="1.0"
     inkscape:pageshadow="2"
     inkscape:pageopacity="0.0"
     inkscape:pagecheckerboard="0"
     showgrid="false"
     inkscape:zoom="25.84375"
     inkscape:cx="15.980653"
     inkscape:cy="16"
     inkscape:window-width="1920"
     inkscape:window-height="1051"
     inkscape:window-x="0"
     inkscape:window-y="29"
     inkscape:window-maximized="1"
     inkscape:current-layer="svg76744" />
  <rect
     fill="#4f4f4f"
     width="28"
     height="28"
     x="2"
     y="2"
     rx="14"
     ry="14"
     id="rect76730" />
  <path
     opacity=".2"
     d="m21.15 11.035c-0.48492 0.02519-1.0228 0.13738-1.627 0.31445l-0.523-0.32-10 6c1.5251-0.58485 2.8001-0.86158 3.582-0.92578l-2.582 2.926 2.006-1.099c-0.822 2.289-1.789 4.436-4.006 5.416-0.012513 0.02876-0.012896 0.0622-0.023437 0.0918 1.688 1.8904 3.9751 3.229 6.5781 3.5918l1.425 1.97 0.05469-0.01563 1.4102-1.9551c2.7445-0.38251 5.1444-1.8429 6.8535-3.8984-0.08873-0.01785-0.17912-0.03466-0.29883-0.03125-3.1578 0.0268-5.6954-0.48672-6-3.9355-0.08249-0.43679-0.15175-3.247 4.5-4.6348-0.46947-0.30189-2.0297-0.32288-3.1406-0.32617-0.04826-0.41129 0.05157-1.9748 3.6406-2.1738-0.56327-0.5424-1.0414-1.0361-1.8496-0.99414zm-2.998 1.215c0.22991 0.09295 0.25954 0.23341 0.30078 0.38477-0.40102 0.07732-0.96599 0.25838-1.123 0.05273-0.07196-0.07074 0.41897-0.33211 0.82617-0.43164z"
     id="path76732" />
  <path
     fill="#ee5454"
     d="m 21.15,10.006 c -0.48492,0.02519 -1.0228,0.13738 -1.627,0.31445 l -0.523,-0.32 -8.348723,5.009234 0.205082,0.387155 c 0.674759,-0.258759 -0.555799,0.146408 0,0 0.700428,-0.184507 1.289681,-0.286373 1.725641,-0.322169 l -1.643011,1.861909 0.178173,0.45149 v 0 L 12.006,16.90067 c -0.822,2.29 -1.789,4.437 -4.006,5.416 -0.012513,0.02876 -0.012896,0.0622 -0.023437,0.0918 1.688,1.8904 3.9751,3.229 6.5781,3.5918 l 1.4258,1.9707 0.05469,-0.01563 1.409,-1.955 c 2.7445,-0.38251 5.1444,-1.8429 6.8535,-3.8984 -0.088,-0.018 -0.178,-0.035 -0.298,-0.032 -3.158,0.027 -5.695,-0.486 -6,-3.935 -0.07796,-0.415464 -0.145071,-2.975796 3.846056,-4.419881 0.206889,-0.07486 -0.229262,0.0684 0,0 -0.139325,-0.08971 0.278926,-0.36975 -0.01271,-0.416763 -0.690079,-0.111244 -1.693388,-0.122247 -2.474345,-0.124356 -0.04456,-0.381581 0.03844,-1.757008 2.922712,-2.11121 0.22237,-0.02731 0.0731,-0.416435 0.329999,-0.430679 -0.132325,-0.127389 0.128335,0.115757 0,0 -0.41769,-0.376752 -0.842854,-0.658316 -1.461711,-0.626111 z m -2.998,1.2148 c 0.22991,0.09295 0.25954,0.23341 0.30078,0.38477 -0.40102,0.07732 -0.96599,0.25838 -1.123,0.05273 -0.07196,-0.07074 0.41897,-0.33211 0.82617,-0.43164 z"
     id="path76734"
     sodipodi:nodetypes="cccccsccccccccccccccscscscsccccccc" />
  <path
     opacity=".2"
     d="m10.531 6.0032c-4.4464 1.9968-7.531 6.3508-7.531 11.41 0 6.951 5.8205 12.587 13.001 12.587 7.179 0 12.999-5.637 12.999-12.587 0-4.997-3.01-9.3084-7.367-11.331l-0.13578 0.13059c3.44 1.8695 5.503 5.4264 5.503 9.5184 0 5.495-4.101 10.509-9.556 11.269l-1.443 2-1.445-2c-5.4547-0.76-9.556-5.774-9.556-11.269 0-4.1346 2.1139-7.721 5.6114-9.5733-0.0234-0.049521-0.05721-0.10492-0.08148-0.1578"
     id="path76736" />
  <path
     fill="#7abfe8"
     d="M 8.1209945,6.9888166 C 7.1529627,7.4235427 8.6594832,5.9843793 7.838323,6.6255124 4.8876996,8.9292559 3,12.455445 3,16.4132 c 0,6.951 5.8205,12.587 13.001,12.587 7.179,0 12.999,-5.637 12.999,-12.587 0,-3.704493 -1.654266,-7.0321864 -4.285233,-9.3298818 -0.917952,-0.801672 1.126967,0.523159 0,0 l -0.516118,0.2318741 c 1.030087,0.5598104 -0.764726,-0.831478 0,0 1.789094,1.9452624 2.801571,4.5493217 2.801571,7.4159977 0,5.495 -4.101,10.509 -9.556,11.269 l -1.443,2 -1.445,-2 c -5.4547,-0.76 -9.556,-5.774 -9.556,-11.269 0,-3.031204 1.1361817,-5.7677609 3.1207745,-7.7423734 C 8.843411,6.2700332 6.9049492,7.1198336 7.838323,6.6255124 7.814923,6.5759914 7.0561434,7.9477069 8.1209945,6.9888166"
     id="path76738"
     sodipodi:nodetypes="csssssccsscccsscc" />
  <path
     fill="#fff"
     opacity=".1"
     d="m16 2c-7.756 0-14 6.244-14 14 0 0.169 0.0195 0.333 0.0254 0.5 0.2637-7.5206 6.3874-13.5 13.975-13.5 7.587 0 13.711 5.9794 13.975 13.5 0.005-0.167 0.025-0.331 0.025-0.5 0-7.756-6.244-14-14-14z"
     id="path76740" />
  <path
     opacity=".2"
     d="m2.0254 16.5c-0.0059 0.167-0.0254 0.331-0.0254 0.5 0 7.756 6.244 14 14 14s14-6.244 14-14c0-0.16884-0.01952-0.33264-0.02539-0.5-0.264 7.521-6.388 13.5-13.975 13.5-7.5872 0-13.711-5.979-13.975-13.5z"
     id="path76742" />
</svg>
