<?xml version="1.0" encoding="UTF-8" standalone="no"?>
<svg
   width="32"
   height="32"
   version="1"
   id="svg1240659"
   sodipodi:docname="org.freecadweb.FreeCAD.svg"
   inkscape:version="1.1.2 (0a00cf5339, 2022-02-04)"
   xmlns:inkscape="http://www.inkscape.org/namespaces/inkscape"
   xmlns:sodipodi="http://sodipodi.sourceforge.net/DTD/sodipodi-0.dtd"
   xmlns="http://www.w3.org/2000/svg"
   xmlns:svg="http://www.w3.org/2000/svg">
  <defs
     id="defs1240663" />
  <sodipodi:namedview
     id="namedview1240661"
     pagecolor="#ffffff"
     bordercolor="#666666"
     borderopacity="1.0"
     inkscape:pageshadow="2"
     inkscape:pageopacity="0.0"
     inkscape:pagecheckerboard="0"
     showgrid="false"
     inkscape:zoom="25.84375"
     inkscape:cx="15.980653"
     inkscape:cy="16"
     inkscape:window-width="1920"
     inkscape:window-height="1051"
     inkscape:window-x="0"
     inkscape:window-y="29"
     inkscape:window-maximized="1"
     inkscape:current-layer="svg1240659" />
  <rect
     fill="#4f4f4f"
     width="28"
     height="28"
     x="2"
     y="2"
     rx="1.4"
     ry="1.4"
     id="rect1240643" />
  <path
     opacity=".2"
     d="m10 8h12v4h-8.9996v4h5v3h-4.9996v7h-3z"
     id="path1240645" />
  <path
     fill="#ff6363"
     d="m10 7h12v4h-8.9996v4h5v3h-4.9996v7h-3z"
     id="path1240647" />
  <path
     fill="#fff"
     opacity=".1"
     d="m3.4004 2c-0.7756 0-1.4004 0.6248-1.4004 1.4004v1c0-0.7756 0.6248-1.4004 1.4004-1.4004h25.2c0.775 0 1.4 0.6248 1.4 1.4004v-1c0-0.7756-0.625-1.4004-1.4-1.4004h-25.2z"
     id="path1240649" />
  <path
     opacity=".2"
     d="m2 28.6v1c0 0.775 0.6248 1.4 1.4004 1.4h25.2c0.775 0 1.4-0.625 1.4-1.4v-1c0 0.775-0.625 1.4-1.4 1.4h-25.2c-0.7752 0-1.4-0.625-1.4-1.4z"
     id="path1240651" />
  <circle
     fill="#3f92e7"
     cx="24"
     cy="23"
     r="8"
     id="circle1240653" />
  <path
     fill="#ffffff"
     d="m 23,19 -0.02784,0.332602 -0.06036,0.720998 c -0.33407,0.123749 -0.644669,0.303395 -0.91852,0.53126 l -0.539254,-0.253919 -0.610477,0.135826 v 0 l -0.638124,1.105295 0.185344,0.540598 v 0 l 0.514331,0.3572 c -0.03096,0.175035 -0.04702,0.352381 -0.048,0.53013 9.4e-5,0.178432 0.01538,0.356532 0.0457,0.53237 l -0.546398,0.37903 -0.132768,0.548206 v 0 l 0.607825,1.052814 v 0 l 0.516663,0.206481 0.642848,-0.302651 c 0.274771,0.226891 0.586126,0.405403 0.92075,0.5279 l 0.05491,0.65724 0.379879,0.39856 v 0 h 1.326457 l 0.36076,-0.403774 v 0 l 0.0544,-0.649826 c 0.334077,-0.123747 0.644683,-0.303393 0.91854,-0.53126 l 0.545341,0.256787 0.62644,-0.176904 v 0 l 0.585356,-1.013895 v 0 L 27.65015,23.915749 27.09482,23.53008 c 0.03096,-0.175035 0.04702,-0.352381 0.048,-0.53013 -9.4e-5,-0.178432 -0.01538,-0.356532 -0.0457,-0.53237 l 0.568956,-0.394678 v 0 l 0.05048,-0.636014 -0.588808,-1.019875 v 0 L 26.638565,20.28728 26.00895,20.5837 c -0.274839,-0.226951 -0.586281,-0.405498 -0.921,-0.528 L 25.027901,19.335108 24.627409,18.9997 v 0 h -1.246561 l -0.408691,0.332902 z m 1,2.8572 c 0.631284,-5.5e-5 1.143055,0.511716 1.143,1.143 5.5e-5,0.631284 -0.511716,1.143055 -1.143,1.143 -0.631284,5.5e-5 -1.143055,-0.511716 -1.143,-1.143 -5.5e-5,-0.631284 0.511716,-1.143055 1.143,-1.143 z"
     id="path1240655"
     sodipodi:nodetypes="ccccccccccccccccccccccccccccccccccccccccccccccccccccccccc" />
  <path
     opacity=".2"
     d="m31.979 23.424a8 8 0 0 1 -7.979 7.576 8 8 0 0 1 -7.979 -7.424 8 8 0 0 0 -0.021 0.424 8 8 0 0 0 8 8 8 8 0 0 0 8 -8 8 8 0 0 0 -0.02148 -0.57617z"
     id="path1240657" />
</svg>
