<?xml version="1.0" encoding="UTF-8" standalone="no"?>
<svg
   width="32"
   height="32"
   version="1.1"
   id="svg1373890"
   sodipodi:docname="org.gnome.Glade.svg"
   inkscape:version="1.1.2 (0a00cf5339, 2022-02-04)"
   xmlns:inkscape="http://www.inkscape.org/namespaces/inkscape"
   xmlns:sodipodi="http://sodipodi.sourceforge.net/DTD/sodipodi-0.dtd"
   xmlns="http://www.w3.org/2000/svg"
   xmlns:svg="http://www.w3.org/2000/svg">
  <defs
     id="defs1373894" />
  <sodipodi:namedview
     id="namedview1373892"
     pagecolor="#ffffff"
     bordercolor="#666666"
     borderopacity="1.0"
     inkscape:pageshadow="2"
     inkscape:pageopacity="0.0"
     inkscape:pagecheckerboard="0"
     showgrid="false"
     inkscape:zoom="25.84375"
     inkscape:cx="15.980653"
     inkscape:cy="16"
     inkscape:window-width="1920"
     inkscape:window-height="1051"
     inkscape:window-x="0"
     inkscape:window-y="29"
     inkscape:window-maximized="1"
     inkscape:current-layer="g1373886" />
  <g
     transform="translate(0 -1020.4)"
     id="g1373888">
    <g
       transform="translate(0 1020.4)"
       id="g1373886">
      <path
         fill="#e4e4e4"
         d="m27 28.5v-25c0-0.831-0.669-1.5-1.5-1.5h-19c-0.831 0-1.5 0.669-1.5 1.5v25c0 0.831 0.669 1.5 1.5 1.5h19c0.831 0 1.5-0.669 1.5-1.5z"
         id="path1373876" />
      <path
         fill="#fff"
         opacity=".1"
         d="m6.5 2c-0.831 0-1.5 0.669-1.5 1.5v1c0-0.831 0.669-1.5 1.5-1.5h19c0.831 0 1.5 0.669 1.5 1.5v-1c0-0.831-0.669-1.5-1.5-1.5z"
         id="path1373878" />
      <path
         opacity=".2"
         d="m2 5v22c0 2 2 2 2 2h26l-28-24zm5 10.871 9.482 8.129h-9.482v-8.129z"
         id="path1373880" />
      <path
         fill="#689f38"
         d="M 2,5 V 5.1094045 26 c 0,2 2,2 2,2 h 24.694207 l 0.165179,-0.977669 v 0 L 2.8040506,4.6891862 Z m 5.4682869,10.272466 v 0 L 15.728662,22.354157 15.553001,23 v 0 H 7.44083 L 7,22.474163 v 0 -6.854585 z"
         id="path1373882"
         sodipodi:nodetypes="ccscccccccccccccccc" />
      <path
         opacity=".2"
         d="m5 28.5v1c0 0.831 0.669 1.5 1.5 1.5h19c0.831 0 1.5-0.669 1.5-1.5v-1c0 0.831-0.669 1.5-1.5 1.5h-19c-0.831 0-1.5-0.669-1.5-1.5z"
         id="path1373884" />
    </g>
  </g>
</svg>
