<?xml version="1.0" encoding="UTF-8" standalone="no"?>
<svg
   width="32"
   height="32"
   version="1"
   id="svg874739"
   sodipodi:docname="xfburn.svg"
   inkscape:version="1.1.2 (0a00cf5339, 2022-02-04)"
   xmlns:inkscape="http://www.inkscape.org/namespaces/inkscape"
   xmlns:sodipodi="http://sodipodi.sourceforge.net/DTD/sodipodi-0.dtd"
   xmlns="http://www.w3.org/2000/svg"
   xmlns:svg="http://www.w3.org/2000/svg">
  <defs
     id="defs874743" />
  <sodipodi:namedview
     id="namedview874741"
     pagecolor="#ffffff"
     bordercolor="#666666"
     borderopacity="1.0"
     inkscape:pageshadow="2"
     inkscape:pageopacity="0.0"
     inkscape:pagecheckerboard="0"
     showgrid="false"
     inkscape:zoom="25.84375"
     inkscape:cx="15.980653"
     inkscape:cy="16"
     inkscape:window-width="1920"
     inkscape:window-height="1051"
     inkscape:window-x="0"
     inkscape:window-y="29"
     inkscape:window-maximized="1"
     inkscape:current-layer="svg874739" />
  <path
     opacity=".2"
     d="m16 3c-7.756 0-14 6.244-14 14s6.244 14 14 14 14-6.244 14-14-6.244-14-14-14zm0 8a6 6 0 0 1 6 6 6 6 0 0 1 -6 6 6 6 0 0 1 -6 -6 6 6 0 0 1 6 -6z"
     id="path874725" />
  <path
     fill="#848484"
     d="m16 8.5a7.5 7.5 0 0 0 -7.5 7.5 7.5 7.5 0 0 0 7.5 7.5 7.5 7.5 0 0 0 7.5 -7.5 7.5 7.5 0 0 0 -7.5 -7.5zm0 4.5c1.6569 0 3 1.3431 3 3s-1.3431 3-3 3-3-1.3431-3-3 1.3431-3 3-3z"
     id="path874727" />
  <path
     fill="#e4e4e4"
     d="m16 2c-7.756 0-14 6.244-14 14s6.244 14 14 14 14-6.244 14-14-6.244-14-14-14zm0 8a6 6 0 0 1 6 6 6 6 0 0 1 -6 6 6 6 0 0 1 -6 -6 6 6 0 0 1 6 -6z"
     id="path874729" />
  <path
     fill="#fff"
     opacity=".2"
     d="m16 2c-7.756 0-14 6.244-14 14 0 0.169 0.0195 0.333 0.0254 0.5 0.2637-7.5206 6.3874-13.5 13.975-13.5 7.587 0 13.711 5.9794 13.975 13.5 0.005-0.167 0.025-0.331 0.025-0.5 0-7.756-6.244-14-14-14zm-5.975 14.498a6 6 0 0 0 -0.025 0.502 6 6 0 0 0 6 6 6 6 0 0 0 6 -6 6 6 0 0 0 -0.025 -0.498 6 6 0 0 1 -5.975 5.498 6 6 0 0 1 -5.975 -5.502z"
     id="path874731" />
  <circle
     fill="#ff5722"
     cx="24"
     cy="23"
     r="8"
     id="circle874733" />
  <path
     fill="#ffffff"
     d="m 24.927,19 c -0.10646,0.04338 -0.211074,0.08929 -0.313801,0.137569 C 22.347968,20.202081 21,22.415841 21,24 c 0,1.124972 0.428344,1.946977 1.327993,2.459775 0.409793,0.233582 0.0084,0.04831 0.509169,0.05804 -0.415238,-0.0083 0.262977,0.288302 0,0 C 22.593689,26.2509 22.4448,25.893441 22.4448,25.5 c 0,-0.773728 0.642283,-1.846777 1.726896,-2.392462 0.07668,-0.03858 -0.08103,0.03301 0,0 0,0.08833 0.239961,0.06532 0.246294,0.146314 0.119115,1.523585 1.290957,1.799474 0.97205,2.746148 -0.104207,0.30936 -0.290485,0.577921 -0.569763,0.758451 -0.231079,0.149374 0.660509,0.234085 0.295899,0.236172 0.0048,2.5e-5 -0.218498,-0.08787 -0.213358,-0.08787 0.327453,0 -0.03957,0.159917 0.213358,0.08787 1.003493,-0.285813 1.468336,-1.087082 1.774154,-1.995031 0.65121,-1.933271 -1.805805,-2.467751 -1.956312,-5.687932 -0.0047,-0.101322 -0.320819,-0.174091 -0.0072,-0.312068 z"
     id="path874735"
     sodipodi:nodetypes="cssscssscscscsscscc" />
  <path
     opacity=".2"
     d="m31.979 23.424a8 8 0 0 1 -7.979 7.576 8 8 0 0 1 -7.979 -7.424 8 8 0 0 0 -0.021 0.424 8 8 0 0 0 8 8 8 8 0 0 0 8 -8 8 8 0 0 0 -0.02148 -0.57617z"
     id="path874737" />
</svg>
