<?xml version="1.0" encoding="UTF-8" standalone="no"?>
<svg
   width="32"
   height="32"
   version="1"
   id="svg208130"
   sodipodi:docname="plank.svg"
   inkscape:version="1.1.2 (0a00cf5339, 2022-02-04)"
   xmlns:inkscape="http://www.inkscape.org/namespaces/inkscape"
   xmlns:sodipodi="http://sodipodi.sourceforge.net/DTD/sodipodi-0.dtd"
   xmlns="http://www.w3.org/2000/svg"
   xmlns:svg="http://www.w3.org/2000/svg">
  <defs
     id="defs208134" />
  <sodipodi:namedview
     id="namedview208132"
     pagecolor="#ffffff"
     bordercolor="#666666"
     borderopacity="1.0"
     inkscape:pageshadow="2"
     inkscape:pageopacity="0.0"
     inkscape:pagecheckerboard="0"
     showgrid="false"
     inkscape:zoom="25.84375"
     inkscape:cx="15.980653"
     inkscape:cy="16"
     inkscape:window-width="1920"
     inkscape:window-height="1051"
     inkscape:window-x="0"
     inkscape:window-y="29"
     inkscape:window-maximized="1"
     inkscape:current-layer="svg208130" />
  <rect
     style="opacity:0.2"
     width="32"
     height="6"
     x="0"
     y="25"
     rx="1.455"
     ry="1.5"
     id="rect208112" />
  <rect
     style="fill:#3c94e7"
     width="26"
     height="26"
     x="3"
     y="1"
     rx="2.889"
     ry="2.889"
     id="rect208114" />
  <rect
     style="fill:#4f4f4f"
     width="32"
     height="6"
     x="0"
     y="24"
     rx="1.455"
     ry="1.5"
     id="rect208116" />
  <path
     style="opacity:0.2"
     d="M 4.5976562,22 C 4.2662289,22 4,22.266223 4,22.597656 v 4.804688 C 4,27.733777 4.2662289,28 4.5976562,28 H 9.4023438 C 9.7337799,28 10,27.733777 10,27.402344 V 22.597656 C 10,22.266223 9.7337799,22 9.4023438,22 Z m 8.9999998,0 C 13.266228,22 13,22.266223 13,22.597656 v 4.804688 C 13,27.733777 13.266228,28 13.597656,28 h 4.804688 C 18.73378,28 19,27.733777 19,27.402344 V 22.597656 C 19,22.266223 18.73378,22 18.402344,22 Z m 9,0 C 22.266228,22 22,22.266223 22,22.597656 v 4.804688 C 22,27.733777 22.266228,28 22.597656,28 h 4.804688 C 27.73378,28 28,27.733777 28,27.402344 V 22.597656 C 28,22.266223 27.73378,22 27.402344,22 Z"
     id="path208118" />
  <path
     style="fill:#ffffff"
     d="M 9.4017408,21.000012 H 4.5982543 C 4.2668269,21.000012 4,21.266834 4,21.598267 v 4.803478 C 4,26.733178 4.2668269,27 4.5982543,27 H 9.4017408 C 9.733177,27 10,26.733178 10,26.401745 V 21.598267 C 10,21.266834 9.733177,21.000012 9.4017408,21.000012 Z"
     id="path208120" />
  <path
     style="opacity:0.3"
     d="m 16.00139,2.999795 c -1.6569,0 -3,1.3431 -3,3 0.0018,1.2698 0.80282,2.401 2,2.8242 v 1.176 h -2.75 v 2 h 2.75 v 4.499795 c 0,0.75 -0.78343,0.56472 -1.2773,0.5 -2.2141,-0.29018 -3.6645,0.0071 -4.6983,-0.95128 l 0.5545035,-0.03269 v 0 L 9.7445415,15.557617 8.90369,14.77251 l -1.2949,-1.205 c -0.3967892,0.898467 -0.508702,1.792307 -0.5701645,2.729361 -0.014128,0.215402 0.011644,-0.220551 0,0 L 7.4519585,16.506536 7.80217,16.16145 c 0.38491,1.5879 5.6421,2.5889 6.3848,3.2422 l 1.814,1.596 1.814,-1.596 c 0.74438,-0.65482 5.9998,-1.6565 6.3789,-3.2461 l 0.451789,0.443952 0.339799,-0.156357 c 0,-0.171275 0.0101,0.165879 0,0 -0.06076,-0.997474 -0.295009,-1.909204 -0.592008,-2.877395 l -1.295,1.205 -0.729603,0.802032 0.124571,0.439315 v 0 L 22.98,16.048 C 21.948,17.004 20.504,16.709 18.299,17 17.798,17.066 17,17.25 17,16.5 v -4.499795 h 2.75 v -2 H 17 v -1.1738 c 1.198,-0.423 1.999,-1.555 2,-2.826 0,-1.6569 -1.343,-3 -3,-3 z m 0,2 c 0.55228,0 1,0.4477 1,1 0,0.5523 -0.44772,1 -1,1 -0.55228,0 -1,-0.4477 -1,-1 0,-0.5523 0.44772,-1 1,-1 z"
     id="path208122"
     sodipodi:nodetypes="cccccccscccccccscccccccccscccccccsccccccccsssss" />
  <path
     style="fill:#ffffff"
     d="M 27.401741,21.000012 H 22.598255 C 22.266827,21.000012 22,21.266834 22,21.598267 v 4.803478 C 22,26.733178 22.266827,27 22.598255,27 h 4.803486 C 27.733177,27 28,26.733178 28,26.401745 v -4.803478 c 0,-0.331433 -0.266823,-0.598255 -0.598259,-0.598255 z"
     id="path208124" />
  <path
     style="fill:#ffffff"
     d="M 18.401741,21.000012 H 13.598255 C 13.266827,21.000012 13,21.266834 13,21.598267 v 4.803478 C 13,26.733178 13.266827,27 13.598255,27 h 4.803486 C 18.733177,27 19,26.733178 19,26.401745 v -4.803478 c 0,-0.331433 -0.266823,-0.598255 -0.598259,-0.598255 z"
     id="path208126" />
  <path
     style="fill:#ffffff;opacity:0.2"
     d="M 5.8886719 1 C 4.2882275 1 3 2.2882275 3 3.8886719 L 3 4.8886719 C 3 3.2882275 4.2882275 2 5.8886719 2 L 26.111328 2 C 27.711773 2 29 3.2882275 29 4.8886719 L 29 3.8886719 C 29 2.2882275 27.711773 1 26.111328 1 L 5.8886719 1 z"
     id="path208128" />
</svg>
