<?xml version="1.0" encoding="UTF-8" standalone="no"?>
<svg
   width="512"
   height="512"
   version="1.1"
   viewBox="0 0 384 384"
   id="svg1976239"
   sodipodi:docname="org.qelectrotech.QElectroTech.svg"
   inkscape:version="1.1.2 (0a00cf5339, 2022-02-04)"
   xmlns:inkscape="http://www.inkscape.org/namespaces/inkscape"
   xmlns:sodipodi="http://sodipodi.sourceforge.net/DTD/sodipodi-0.dtd"
   xmlns="http://www.w3.org/2000/svg"
   xmlns:svg="http://www.w3.org/2000/svg">
  <sodipodi:namedview
     id="namedview1976241"
     pagecolor="#ffffff"
     bordercolor="#666666"
     borderopacity="1.0"
     inkscape:pageshadow="2"
     inkscape:pageopacity="0.0"
     inkscape:pagecheckerboard="0"
     showgrid="false"
     inkscape:zoom="1.6152344"
     inkscape:cx="255.69045"
     inkscape:cy="256"
     inkscape:window-width="1920"
     inkscape:window-height="1051"
     inkscape:window-x="0"
     inkscape:window-y="29"
     inkscape:window-maximized="1"
     inkscape:current-layer="svg1976239" />
  <defs
     id="defs1976227">
    <clipPath
       id="clipPath1975945">
      <rect
         width="384"
         height="384"
         id="rect1975943" />
    </clipPath>
    <clipPath
       id="clipPath1975949">
      <rect
         width="384"
         height="384"
         id="rect1975947" />
    </clipPath>
    <clipPath
       id="clipPath1975953">
      <rect
         width="384"
         height="384"
         id="rect1975951" />
    </clipPath>
    <clipPath
       id="clipPath1975957">
      <rect
         width="384"
         height="384"
         id="rect1975955" />
    </clipPath>
    <clipPath
       id="clipPath1975961">
      <rect
         width="384"
         height="384"
         id="rect1975959" />
    </clipPath>
    <clipPath
       id="clipPath1975965">
      <rect
         width="384"
         height="384"
         id="rect1975963" />
    </clipPath>
    <clipPath
       id="clipPath1975969">
      <rect
         width="384"
         height="384"
         id="rect1975967" />
    </clipPath>
    <clipPath
       id="clipPath1975973">
      <rect
         width="384"
         height="384"
         id="rect1975971" />
    </clipPath>
    <clipPath
       id="clipPath1975977">
      <rect
         width="384"
         height="384"
         id="rect1975975" />
    </clipPath>
    <clipPath
       id="clipPath1975981">
      <rect
         width="384"
         height="384"
         id="rect1975979" />
    </clipPath>
    <clipPath
       id="clipPath1975985">
      <rect
         width="384"
         height="384"
         id="rect1975983" />
    </clipPath>
    <clipPath
       id="clipPath1975989">
      <rect
         width="384"
         height="384"
         id="rect1975987" />
    </clipPath>
    <clipPath
       id="clipPath1975993">
      <rect
         width="384"
         height="384"
         id="rect1975991" />
    </clipPath>
    <clipPath
       id="clipPath1975997">
      <rect
         width="384"
         height="384"
         id="rect1975995" />
    </clipPath>
    <clipPath
       id="clipPath1976001">
      <rect
         width="384"
         height="384"
         id="rect1975999" />
    </clipPath>
    <clipPath
       id="clipPath1976005">
      <rect
         width="384"
         height="384"
         id="rect1976003" />
    </clipPath>
    <clipPath
       id="clipPath1976009">
      <rect
         width="384"
         height="384"
         id="rect1976007" />
    </clipPath>
    <clipPath
       id="clipPath1976013">
      <rect
         width="384"
         height="384"
         id="rect1976011" />
    </clipPath>
    <clipPath
       id="clipPath1976017">
      <rect
         width="384"
         height="384"
         id="rect1976015" />
    </clipPath>
    <clipPath
       id="clipPath1976021">
      <rect
         width="384"
         height="384"
         id="rect1976019" />
    </clipPath>
    <clipPath
       id="clipPath1976025">
      <rect
         width="384"
         height="384"
         id="rect1976023" />
    </clipPath>
    <clipPath
       id="clipPath1976029">
      <rect
         width="384"
         height="384"
         id="rect1976027" />
    </clipPath>
    <clipPath
       id="clipPath1976033">
      <rect
         width="384"
         height="384"
         id="rect1976031" />
    </clipPath>
    <clipPath
       id="clipPath1976037">
      <rect
         width="384"
         height="384"
         id="rect1976035" />
    </clipPath>
    <clipPath
       id="clipPath1976041">
      <rect
         width="384"
         height="384"
         id="rect1976039" />
    </clipPath>
    <clipPath
       id="clipPath1976045">
      <rect
         width="384"
         height="384"
         id="rect1976043" />
    </clipPath>
    <clipPath
       id="clipPath1976049">
      <rect
         width="384"
         height="384"
         id="rect1976047" />
    </clipPath>
    <clipPath
       id="clipPath1976053">
      <rect
         width="384"
         height="384"
         id="rect1976051" />
    </clipPath>
    <clipPath
       id="clipPath1976057">
      <rect
         width="384"
         height="384"
         id="rect1976055" />
    </clipPath>
    <clipPath
       id="clipPath1976061">
      <rect
         width="384"
         height="384"
         id="rect1976059" />
    </clipPath>
    <clipPath
       id="clipPath1976065">
      <rect
         width="384"
         height="384"
         id="rect1976063" />
    </clipPath>
    <clipPath
       id="clipPath1976069">
      <rect
         width="384"
         height="384"
         id="rect1976067" />
    </clipPath>
    <clipPath
       id="clipPath1976073">
      <rect
         width="384"
         height="384"
         id="rect1976071" />
    </clipPath>
    <clipPath
       id="clipPath1976077">
      <rect
         width="384"
         height="384"
         id="rect1976075" />
    </clipPath>
    <clipPath
       id="clipPath1976081">
      <rect
         width="384"
         height="384"
         id="rect1976079" />
    </clipPath>
    <clipPath
       id="clipPath1976085">
      <rect
         width="384"
         height="384"
         id="rect1976083" />
    </clipPath>
    <clipPath
       id="clipPath1976089">
      <rect
         width="384"
         height="384"
         id="rect1976087" />
    </clipPath>
    <clipPath
       id="clipPath1976093">
      <rect
         width="384"
         height="384"
         id="rect1976091" />
    </clipPath>
    <clipPath
       id="clipPath1976097">
      <rect
         width="384"
         height="384"
         id="rect1976095" />
    </clipPath>
    <clipPath
       id="clipPath1976101">
      <rect
         width="384"
         height="384"
         id="rect1976099" />
    </clipPath>
    <clipPath
       id="clipPath1976105">
      <rect
         width="384"
         height="384"
         id="rect1976103" />
    </clipPath>
    <clipPath
       id="clipPath1976109">
      <rect
         width="384"
         height="384"
         id="rect1976107" />
    </clipPath>
    <clipPath
       id="clipPath1976113">
      <rect
         width="384"
         height="384"
         id="rect1976111" />
    </clipPath>
    <clipPath
       id="clipPath1976117">
      <rect
         width="384"
         height="384"
         id="rect1976115" />
    </clipPath>
    <clipPath
       id="clipPath1976121">
      <rect
         width="384"
         height="384"
         id="rect1976119" />
    </clipPath>
    <clipPath
       id="clipPath1976125">
      <rect
         width="384"
         height="384"
         id="rect1976123" />
    </clipPath>
    <clipPath
       id="clipPath1976129">
      <rect
         width="384"
         height="384"
         id="rect1976127" />
    </clipPath>
    <clipPath
       id="clipPath1976133">
      <rect
         width="384"
         height="384"
         id="rect1976131" />
    </clipPath>
    <clipPath
       id="clipPath1976137">
      <rect
         width="384"
         height="384"
         id="rect1976135" />
    </clipPath>
    <clipPath
       id="clipPath1976141">
      <rect
         width="384"
         height="384"
         id="rect1976139" />
    </clipPath>
    <clipPath
       id="clipPath1976145">
      <rect
         width="384"
         height="384"
         id="rect1976143" />
    </clipPath>
    <clipPath
       id="clipPath1976149">
      <rect
         width="384"
         height="384"
         id="rect1976147" />
    </clipPath>
    <clipPath
       id="c">
      <path
         d="m111 119h177v23h-177z"
         id="path1976151" />
    </clipPath>
    <clipPath
       id="clipPath1976156">
      <path
         d="m368.64 199.88c0-93.234-75.602-168.75-168.75-168.75-93.152 0-168.75 75.516-168.75 168.75s75.598 168.75 168.75 168.75c93.148 0 168.75-75.516 168.75-168.75z"
         id="path1976154" />
    </clipPath>
    <clipPath
       id="b">
      <path
         d="m177 130h45v89h-45z"
         id="path1976158" />
    </clipPath>
    <clipPath
       id="clipPath1976163">
      <path
         d="m368.64 199.88c0-93.234-75.602-168.75-168.75-168.75-93.152 0-168.75 75.516-168.75 168.75s75.598 168.75 168.75 168.75c93.148 0 168.75-75.516 168.75-168.75z"
         id="path1976161" />
    </clipPath>
    <clipPath
       id="a">
      <path
         d="m111 207h177v89h-177z"
         id="path1976165" />
    </clipPath>
    <clipPath
       id="clipPath1976170">
      <path
         d="m368.64 199.88c0-93.234-75.602-168.75-168.75-168.75-93.152 0-168.75 75.516-168.75 168.75s75.598 168.75 168.75 168.75c93.148 0 168.75-75.516 168.75-168.75z"
         id="path1976168" />
    </clipPath>
    <clipPath
       id="d">
      <rect
         width="384"
         height="384"
         id="rect1976172" />
    </clipPath>
    <g
       clip-path="url(#d)"
       id="g1976181">
      <g
         clip-path="url(#c)"
         id="g1976175" />
      <g
         clip-path="url(#b)"
         id="g1976177" />
      <g
         clip-path="url(#a)"
         id="g1976179" />
    </g>
    <clipPath
       id="clipPath1976185">
      <rect
         width="384"
         height="384"
         id="rect1976183" />
    </clipPath>
    <clipPath
       id="clipPath1976189">
      <rect
         width="384"
         height="384"
         id="rect1976187" />
    </clipPath>
    <clipPath
       id="clipPath1976193">
      <rect
         width="384"
         height="384"
         id="rect1976191" />
    </clipPath>
    <clipPath
       id="clipPath1976197">
      <rect
         width="384"
         height="384"
         id="rect1976195" />
    </clipPath>
    <clipPath
       id="clipPath1976201">
      <rect
         width="384"
         height="384"
         id="rect1976199" />
    </clipPath>
    <clipPath
       id="clipPath1976205">
      <rect
         width="384"
         height="384"
         id="rect1976203" />
    </clipPath>
    <clipPath
       id="clipPath1976209">
      <rect
         width="384"
         height="384"
         id="rect1976207" />
    </clipPath>
    <clipPath
       id="clipPath1976213">
      <rect
         width="384"
         height="384"
         id="rect1976211" />
    </clipPath>
    <clipPath
       id="clipPath1976217">
      <rect
         width="384"
         height="384"
         id="rect1976215" />
    </clipPath>
    <clipPath
       id="clipPath1976221">
      <rect
         width="384"
         height="384"
         id="rect1976219" />
    </clipPath>
    <clipPath
       id="clipPath1976225">
      <rect
         width="384"
         height="384"
         id="rect1976223" />
    </clipPath>
  </defs>
  <path
     d="m360 342v-300c0-9.9414-8.0586-18-18-18h-300c-9.9414 0-18 8.0586-18 18v300c0 9.9414 8.0586 18 18 18h300c9.9414 0 18-8.0586 18-18z"
     style="fill:#fff;opacity:.2;stroke-width:7.5;stroke:#000"
     id="path1976229" />
  <path
     d="m360 342v-300c0-9.9414-8.0586-18-18-18h-300c-9.9414 0-18 8.0586-18 18v300c0 9.9414 8.0586 18 18 18h300c9.9414 0 18-8.0586 18-18z"
     style="fill:#fff"
     id="path1976231" />
  <path
     d="m 192,72 c -16.895,0 -33.613,6.6133 -46.5,19.5 -11.375,11.375 -17.785,25.645 -19.129,40.5 H 72 v 156 h 108 v 14.08979 L 183.34944,306 v 0 h 4.90575 L 192,302.17226 v 0 -41.47162 0 L 189.06892,258 h -4.76829 L 180,262.96637 v 0 V 276 H 84 V 144 h 42.371 c 1.3438,14.855 7.7539,29.125 19.129,40.5 25.777,25.777 67.223,25.777 93,0 11.375,-11.375 17.785,-25.645 19.129,-40.5 H 300 V 276 H 216 V 242.96336 L 212.43489,240 v 0 h -3.87178 v 0 L 204,244.14988 v 75.95714 0 l 3.09809,3.89298 6.0361,0 L 216,320.89792 v 0 V 288 h 96 V 132 H 257.629 C 256.2852,117.145 249.8751,102.875 238.5,91.5 225.613,78.613 208.895,72 192,72 Z m 0,12.371 c 11.797,0 23.555,3.793 33.371,11.629 L 192,129.371 158.629,96 C 168.4454,88.1641 180.203,84.371 192,84.371 Z M 150,104.629 183.371,138 150,171.371 c -15.66,-19.633 -15.66,-47.125 0,-66.754 z m 84,0 c 15.66,19.633 15.66,47.125 0,66.754 L 200.629,138.012 234,104.641 Z m -42,42 33.371,33.371 c -19.633,15.66 -47.125,15.66 -66.754,0 l 33.371,-33.371 z"
     style="fill:#272a34"
     id="path1976233"
     sodipodi:nodetypes="sccccccccccccccccccccccscccccccccccccccccccccsscccsccccccccccccccc" />
  <path
     transform="scale(.75)"
     d="m32 446v10c0 13.255 10.745 24 24 24h400c13.255 0 24-10.745 24-24v-10c0 13.255-10.745 24-24 24h-400c-13.255 0-24-10.745-24-24z"
     style="fill:#111;opacity:.3;stroke-width:1.3333"
     id="path1976235" />
  <path
     transform="scale(.75)"
     d="m56 32c-13.255 0-24 10.745-24 24v10c0-13.255 10.745-24 24-24h400c13.255 0 24 10.745 24 24v-10c0-13.255-10.745-24-24-24h-400z"
     style="opacity:.1;stroke-width:1.3333"
     id="path1976237" />
</svg>
