<?xml version="1.0" encoding="UTF-8" standalone="no"?>
<svg
   width="32"
   height="32"
   version="1"
   id="svg296578"
   sodipodi:docname="quimup.svg"
   inkscape:version="1.1.2 (0a00cf5339, 2022-02-04)"
   xmlns:inkscape="http://www.inkscape.org/namespaces/inkscape"
   xmlns:sodipodi="http://sodipodi.sourceforge.net/DTD/sodipodi-0.dtd"
   xmlns="http://www.w3.org/2000/svg"
   xmlns:svg="http://www.w3.org/2000/svg">
  <defs
     id="defs296582" />
  <sodipodi:namedview
     id="namedview296580"
     pagecolor="#ffffff"
     bordercolor="#666666"
     borderopacity="1.0"
     inkscape:pageshadow="2"
     inkscape:pageopacity="0.0"
     inkscape:pagecheckerboard="0"
     showgrid="false"
     inkscape:zoom="25.84375"
     inkscape:cx="15.980653"
     inkscape:cy="16"
     inkscape:window-width="1920"
     inkscape:window-height="1051"
     inkscape:window-x="0"
     inkscape:window-y="29"
     inkscape:window-maximized="1"
     inkscape:current-layer="svg296578" />
  <rect
     fill="#355871"
     width="28"
     height="28"
     x="2"
     y="2"
     rx="14"
     ry="14"
     id="rect296568" />
  <path
     opacity=".2"
     d="m2.0254 16.5c-0.0059 0.167-0.0254 0.331-0.0254 0.5 0 7.756 6.244 14 14 14s14-6.244 14-14c0-0.169-0.02-0.333-0.025-0.5-0.264 7.521-6.388 13.5-13.975 13.5-7.5872 0-13.711-5.979-13.975-13.5z"
     id="path296570" />
  <path
     fill="#fff"
     opacity=".1"
     d="m16 2c-7.756 0-14 6.244-14 14 0 0.169 0.0195 0.333 0.0254 0.5 0.2637-7.5206 6.3874-13.5 13.975-13.5 7.587 0 13.711 5.9794 13.975 13.5 0.005-0.167 0.025-0.331 0.025-0.5 0-7.756-6.244-14-14-14z"
     id="path296572" />
  <path
     opacity=".2"
     d="m25 5-8 10 9 2-18 13 7-11-9-2z"
     id="path296574" />
  <path
     fill="#3bb8d6"
     d="m 23.856698,5.4291274 v 0 l -6.538802,8.1735026 0.05863,0.481044 v 0 l 7.746208,1.721379 v 0 l 0.185053,0.694875 -16.038007,11.583005 v 0 L 8.9430636,27.518043 14.761841,18.37425 14.591288,17.909175 v 0 L 6.8590641,16.190903 v 0 L 6.8004012,15.494483 23.394739,5.0138491 Z"
     id="path296576"
     sodipodi:nodetypes="ccccccccccccccccccc" />
</svg>
