<?xml version="1.0" encoding="UTF-8" standalone="no"?>
<svg
   width="512"
   height="512"
   version="1.1"
   viewBox="0 0 384 384"
   id="svg560139"
   sodipodi:docname="reditr.svg"
   inkscape:version="1.1.2 (0a00cf5339, 2022-02-04)"
   xmlns:inkscape="http://www.inkscape.org/namespaces/inkscape"
   xmlns:sodipodi="http://sodipodi.sourceforge.net/DTD/sodipodi-0.dtd"
   xmlns="http://www.w3.org/2000/svg"
   xmlns:svg="http://www.w3.org/2000/svg">
  <sodipodi:namedview
     id="namedview560141"
     pagecolor="#ffffff"
     bordercolor="#666666"
     borderopacity="1.0"
     inkscape:pageshadow="2"
     inkscape:pageopacity="0.0"
     inkscape:pagecheckerboard="0"
     showgrid="false"
     inkscape:zoom="1.6152344"
     inkscape:cx="255.69045"
     inkscape:cy="256"
     inkscape:window-width="1920"
     inkscape:window-height="1051"
     inkscape:window-x="0"
     inkscape:window-y="29"
     inkscape:window-maximized="1"
     inkscape:current-layer="svg560139" />
  <defs
     id="defs560127">
    <clipPath
       id="c">
      <path
         d="m111 119h177v23h-177z"
         id="path559837" />
    </clipPath>
    <clipPath
       id="b">
      <path
         d="m177 130h45v89h-45z"
         id="path559840" />
    </clipPath>
    <clipPath
       id="a">
      <path
         d="m111 207h177v89h-177z"
         id="path559843" />
    </clipPath>
    <clipPath
       id="d">
      <rect
         width="384"
         height="384"
         id="rect559846" />
    </clipPath>
    <g
       clip-path="url(#d)"
       id="g559849" />
    <clipPath
       id="clipPath559853">
      <rect
         width="384"
         height="384"
         id="rect559851" />
    </clipPath>
    <clipPath
       id="clipPath559857">
      <rect
         width="384"
         height="384"
         id="rect559855" />
    </clipPath>
    <clipPath
       id="clipPath559861">
      <rect
         width="384"
         height="384"
         id="rect559859" />
    </clipPath>
    <clipPath
       id="clipPath559865">
      <rect
         width="384"
         height="384"
         id="rect559863" />
    </clipPath>
    <clipPath
       id="clipPath559869">
      <rect
         width="384"
         height="384"
         id="rect559867" />
    </clipPath>
    <clipPath
       id="clipPath559873">
      <rect
         width="384"
         height="384"
         id="rect559871" />
    </clipPath>
    <clipPath
       id="clipPath559877">
      <rect
         width="384"
         height="384"
         id="rect559875" />
    </clipPath>
    <clipPath
       id="clipPath559881">
      <rect
         width="384"
         height="384"
         id="rect559879" />
    </clipPath>
    <clipPath
       id="clipPath559885">
      <rect
         width="384"
         height="384"
         id="rect559883" />
    </clipPath>
    <clipPath
       id="clipPath559889">
      <rect
         width="384"
         height="384"
         id="rect559887" />
    </clipPath>
    <clipPath
       id="clipPath559893">
      <rect
         width="384"
         height="384"
         id="rect559891" />
    </clipPath>
    <clipPath
       id="clipPath559897">
      <rect
         width="384"
         height="384"
         id="rect559895" />
    </clipPath>
    <clipPath
       id="clipPath559901">
      <rect
         width="384"
         height="384"
         id="rect559899" />
    </clipPath>
    <clipPath
       id="clipPath559905">
      <rect
         width="384"
         height="384"
         id="rect559903" />
    </clipPath>
    <clipPath
       id="clipPath559909">
      <rect
         width="384"
         height="384"
         id="rect559907" />
    </clipPath>
    <clipPath
       id="clipPath559913">
      <rect
         width="384"
         height="384"
         id="rect559911" />
    </clipPath>
    <clipPath
       id="clipPath559917">
      <rect
         width="384"
         height="384"
         id="rect559915" />
    </clipPath>
    <clipPath
       id="clipPath559921">
      <rect
         width="384"
         height="384"
         id="rect559919" />
    </clipPath>
    <clipPath
       id="clipPath559925">
      <rect
         width="384"
         height="384"
         id="rect559923" />
    </clipPath>
    <clipPath
       id="clipPath559929">
      <rect
         width="384"
         height="384"
         id="rect559927" />
    </clipPath>
    <clipPath
       id="clipPath559933">
      <rect
         width="384"
         height="384"
         id="rect559931" />
    </clipPath>
    <clipPath
       id="clipPath559937">
      <rect
         width="384"
         height="384"
         id="rect559935" />
    </clipPath>
    <clipPath
       id="clipPath559941">
      <rect
         width="384"
         height="384"
         id="rect559939" />
    </clipPath>
    <clipPath
       id="clipPath559945">
      <rect
         width="384"
         height="384"
         id="rect559943" />
    </clipPath>
    <clipPath
       id="clipPath559949">
      <rect
         width="384"
         height="384"
         id="rect559947" />
    </clipPath>
    <clipPath
       id="clipPath559953">
      <rect
         width="384"
         height="384"
         id="rect559951" />
    </clipPath>
    <clipPath
       id="clipPath559957">
      <rect
         width="384"
         height="384"
         id="rect559955" />
    </clipPath>
    <clipPath
       id="clipPath559961">
      <rect
         width="384"
         height="384"
         id="rect559959" />
    </clipPath>
    <clipPath
       id="clipPath559965">
      <rect
         width="384"
         height="384"
         id="rect559963" />
    </clipPath>
    <clipPath
       id="clipPath559969">
      <rect
         width="384"
         height="384"
         id="rect559967" />
    </clipPath>
    <clipPath
       id="clipPath559973">
      <rect
         width="384"
         height="384"
         id="rect559971" />
    </clipPath>
    <clipPath
       id="clipPath559977">
      <rect
         width="384"
         height="384"
         id="rect559975" />
    </clipPath>
    <clipPath
       id="clipPath559981">
      <rect
         width="384"
         height="384"
         id="rect559979" />
    </clipPath>
    <clipPath
       id="clipPath559985">
      <rect
         width="384"
         height="384"
         id="rect559983" />
    </clipPath>
    <clipPath
       id="clipPath559989">
      <rect
         width="384"
         height="384"
         id="rect559987" />
    </clipPath>
    <clipPath
       id="clipPath559993">
      <rect
         width="384"
         height="384"
         id="rect559991" />
    </clipPath>
    <clipPath
       id="clipPath559997">
      <rect
         width="384"
         height="384"
         id="rect559995" />
    </clipPath>
    <clipPath
       id="clipPath560001">
      <rect
         width="384"
         height="384"
         id="rect559999" />
    </clipPath>
    <clipPath
       id="clipPath560005">
      <rect
         width="384"
         height="384"
         id="rect560003" />
    </clipPath>
    <clipPath
       id="clipPath560009">
      <rect
         width="384"
         height="384"
         id="rect560007" />
    </clipPath>
    <clipPath
       id="clipPath560013">
      <rect
         width="384"
         height="384"
         id="rect560011" />
    </clipPath>
    <clipPath
       id="clipPath560017">
      <rect
         width="384"
         height="384"
         id="rect560015" />
    </clipPath>
    <clipPath
       id="clipPath560021">
      <rect
         width="384"
         height="384"
         id="rect560019" />
    </clipPath>
    <clipPath
       id="clipPath560025">
      <rect
         width="384"
         height="384"
         id="rect560023" />
    </clipPath>
    <clipPath
       id="clipPath560029">
      <rect
         width="384"
         height="384"
         id="rect560027" />
    </clipPath>
    <clipPath
       id="clipPath560033">
      <rect
         width="384"
         height="384"
         id="rect560031" />
    </clipPath>
    <clipPath
       id="clipPath560037">
      <rect
         width="384"
         height="384"
         id="rect560035" />
    </clipPath>
    <clipPath
       id="clipPath560041">
      <rect
         width="384"
         height="384"
         id="rect560039" />
    </clipPath>
    <clipPath
       id="clipPath560045">
      <rect
         width="384"
         height="384"
         id="rect560043" />
    </clipPath>
    <clipPath
       id="clipPath560049">
      <rect
         width="384"
         height="384"
         id="rect560047" />
    </clipPath>
    <clipPath
       id="g">
      <path
         d="m111 119h177v23h-177z"
         id="path560051" />
    </clipPath>
    <clipPath
       id="clipPath560056">
      <path
         d="m368.64 199.88c0-93.234-75.602-168.75-168.75-168.75-93.152 0-168.75 75.516-168.75 168.75s75.598 168.75 168.75 168.75c93.148 0 168.75-75.516 168.75-168.75z"
         id="path560054" />
    </clipPath>
    <clipPath
       id="f">
      <path
         d="m177 130h45v89h-45z"
         id="path560058" />
    </clipPath>
    <clipPath
       id="clipPath560063">
      <path
         d="m368.64 199.88c0-93.234-75.602-168.75-168.75-168.75-93.152 0-168.75 75.516-168.75 168.75s75.598 168.75 168.75 168.75c93.148 0 168.75-75.516 168.75-168.75z"
         id="path560061" />
    </clipPath>
    <clipPath
       id="e">
      <path
         d="m111 207h177v89h-177z"
         id="path560065" />
    </clipPath>
    <clipPath
       id="clipPath560070">
      <path
         d="m368.64 199.88c0-93.234-75.602-168.75-168.75-168.75-93.152 0-168.75 75.516-168.75 168.75s75.598 168.75 168.75 168.75c93.148 0 168.75-75.516 168.75-168.75z"
         id="path560068" />
    </clipPath>
    <clipPath
       id="h">
      <rect
         width="384"
         height="384"
         id="rect560072" />
    </clipPath>
    <g
       clip-path="url(#h)"
       id="g560081">
      <g
         clip-path="url(#g)"
         id="g560075" />
      <g
         clip-path="url(#f)"
         id="g560077" />
      <g
         clip-path="url(#e)"
         id="g560079" />
    </g>
    <clipPath
       id="clipPath560085">
      <rect
         width="384"
         height="384"
         id="rect560083" />
    </clipPath>
    <clipPath
       id="clipPath560089">
      <rect
         width="384"
         height="384"
         id="rect560087" />
    </clipPath>
    <clipPath
       id="clipPath560093">
      <rect
         width="384"
         height="384"
         id="rect560091" />
    </clipPath>
    <clipPath
       id="clipPath560097">
      <rect
         width="384"
         height="384"
         id="rect560095" />
    </clipPath>
    <clipPath
       id="clipPath560101">
      <rect
         width="384"
         height="384"
         id="rect560099" />
    </clipPath>
    <clipPath
       id="clipPath560105">
      <rect
         width="384"
         height="384"
         id="rect560103" />
    </clipPath>
    <clipPath
       id="clipPath560109">
      <rect
         width="384"
         height="384"
         id="rect560107" />
    </clipPath>
    <clipPath
       id="clipPath560113">
      <rect
         width="384"
         height="384"
         id="rect560111" />
    </clipPath>
    <clipPath
       id="clipPath560117">
      <rect
         width="384"
         height="384"
         id="rect560115" />
    </clipPath>
    <clipPath
       id="clipPath560121">
      <rect
         width="384"
         height="384"
         id="rect560119" />
    </clipPath>
    <clipPath
       id="clipPath560125">
      <rect
         width="384"
         height="384"
         id="rect560123" />
    </clipPath>
  </defs>
  <path
     d="m360 343.2v-302.4c0-9.2773-7.5234-16.801-16.801-16.801h-302.4c-9.2773 0-16.801 7.5234-16.801 16.801v302.4c0 9.2773 7.5234 16.801 16.801 16.801h302.4c9.2773 0 16.801-7.5234 16.801-16.801z"
     fill="#316fd8"
     id="path560129" />
  <path
     d="m180.65 115.52c-7.0479 0.0629-14.203 0.91908-21.327 2.6396-45.578 11.012-72.625 53.276-60.417 94.386 7.043 21.383 144.21 13.239 165.07-39.898-10.306-34.679-45.267-57.467-83.326-57.127zm115.16 36.007c-8.7124-0.18146-19.267 1.8577-31.412 7.4253 2.7578 2.4648 26.94-3.3164 25.468 12.059-31.176 68.465-169.89 100.5-169.89 100.5l5e-3 4e-3s63.757-8.9648 100.78-23.074c56.336-22.316 99.465-56.511 103.09-77.433 1.3777-7.9412-8.8697-19.085-28.037-19.484zm-31.843 35.987-0.0175 0.0161c2.6e-4 -1.9e-4 0.022-0.0161 0.022-0.0161zm-0.0175 0.0161c-0.2436 0.17615-113.19 81.823-185.72 55.641-12.629-9.9258 11.325-26.484 11.29-30.265-27.777 11.039-41.543 25.39-41.543 42.683 11.824 38.484 119.09-3.8394 136.92-11.902 35.264-16.938 78.96-56.066 79.061-56.156z"
     opacity=".3"
     id="path560131" />
  <path
     d="m 180.67,108 c -7.0479,0.0629 -14.203,0.91907 -21.327,2.6396 -45.578,11.012 -72.625,53.276 -60.417,94.386 7.043,21.383 144.21,13.239 165.07,-39.898 -10.306,-34.679 -45.267,-57.467 -83.326,-57.127 z m 115.16,36.007 c -6.73848,-0.14035 -14.57897,1.04769 -23.40497,4.16919 -2.58542,0.91439 2.75162,-1.26142 0,0 9.3873,0.83586 -3.0848,3.95397 1.38027,4.09197 7.68208,0.23742 17.01162,1.49946 16.0807,11.22314 -19.76333,43.40186 -82.74236,72.16381 -126.20364,87.40547 -25.09745,8.80156 0,0 0,0 l 0.41199,5.33466 c 0,0 -24.09825,4.95224 0,0 18.9323,-3.89062 40.39652,-9.10246 56.68565,-15.31013 56.336,-22.316 99.465,-56.511 103.09,-77.433 1.3777,-7.9412 -8.8697,-19.085 -28.037,-19.484 z m -31.843,35.987 -0.0175,0.0161 0.022,-0.0161 z m -23.40571,17.72738 c -21.22485,16.24537 10.19393,-8.1733 -9.92782,3.28246 -39.05946,22.23748 -104.53434,51.92732 -152.40397,34.64726 -8.556953,-6.72536 -0.318919,-16.49561 5.8723,-23.27311 2.946251,-3.22524 0.01129,1.21913 0,0 -3.132269,1.24481 -0.668674,-4.46015 -3.444969,-3.13164 C 58.832906,219.69909 47.9965,232.72614 47.9965,248.0691 c 11.824,38.484 119.09,-3.8394 136.92,-11.902 16.15016,-7.75724 34.06888,-20.16871 48.75853,-31.35294 14.47448,-11.02041 0.49438,-0.58195 6.90626,-7.09278 1.28944,-1.30934 -3.33609,2.99264 0,0 z"
     fill="#ffffff"
     id="path560133"
     sodipodi:nodetypes="cccccccscscsccscccccccccscscsccssc" />
  <path
     transform="scale(.75)"
     d="m32 447.6v10c0 12.37 10.031 22.4 22.4 22.4h403.2c12.37 0 22.4-10.031 22.4-22.4v-10c0 12.37-10.031 22.4-22.4 22.4h-403.2c-12.37 0-22.4-10.031-22.4-22.4z"
     opacity=".3"
     stroke-width="1.3333"
     id="path560135" />
  <path
     transform="scale(.75)"
     d="m54.4 32c-12.37 0-22.4 10.031-22.4 22.4v10c0-12.37 10.031-22.4 22.4-22.4h403.2c12.37 0 22.4 10.031 22.4 22.4v-10c0-12.37-10.031-22.4-22.4-22.4h-403.2z"
     fill="#fff"
     opacity=".3"
     stroke-width="1.3333"
     id="path560137" />
</svg>
