<?xml version="1.0" encoding="UTF-8" standalone="no"?>
<svg
   width="512"
   height="512"
   version="1.1"
   viewBox="0 0 384 384"
   id="svg322737"
   sodipodi:docname="rsmangler.svg"
   inkscape:version="1.1.2 (0a00cf5339, 2022-02-04)"
   xmlns:inkscape="http://www.inkscape.org/namespaces/inkscape"
   xmlns:sodipodi="http://sodipodi.sourceforge.net/DTD/sodipodi-0.dtd"
   xmlns="http://www.w3.org/2000/svg"
   xmlns:svg="http://www.w3.org/2000/svg">
  <sodipodi:namedview
     id="namedview322739"
     pagecolor="#ffffff"
     bordercolor="#666666"
     borderopacity="1.0"
     inkscape:pageshadow="2"
     inkscape:pageopacity="0.0"
     inkscape:pagecheckerboard="0"
     showgrid="false"
     inkscape:zoom="1.6152344"
     inkscape:cx="255.69045"
     inkscape:cy="256"
     inkscape:window-width="1920"
     inkscape:window-height="1051"
     inkscape:window-x="0"
     inkscape:window-y="29"
     inkscape:window-maximized="1"
     inkscape:current-layer="svg322737" />
  <defs
     id="defs322689">
    <filter
       id="c"
       x="-0.023030718"
       y="-0.017271846"
       width="1.0460614"
       height="1.0345437"
       color-interpolation-filters="sRGB">
      <feGaussianBlur
         stdDeviation="1.7377637"
         id="feGaussianBlur322680" />
    </filter>
    <filter
       id="b"
       x="-0.10647837"
       y="-0.077727768"
       width="1.2129567"
       height="1.1554555"
       color-interpolation-filters="sRGB">
      <feGaussianBlur
         stdDeviation="6.0364682"
         id="feGaussianBlur322683" />
    </filter>
    <filter
       id="a"
       x="-0.10660325"
       y="-0.077933863"
       width="1.2132065"
       height="1.1558677"
       color-interpolation-filters="sRGB">
      <feGaussianBlur
         stdDeviation="6.0364682"
         id="feGaussianBlur322686" />
    </filter>
  </defs>
  <path
     d="m194.04 360.75h110.47c5.9185 0 12.202-6.2839 12.202-12.202v-155.77z"
     opacity=".3"
     stroke-width="9.3527"
     id="path322691" />
  <path
     d="m185.05 53.98-102.94 140.95v127.43c0 5.9185 6.2839 12.202 12.202 12.202h84.728l122.68-167.97v-33.296l-79.316-79.316z"
     opacity=".3"
     stroke-width="9.3527"
     id="path322693" />
  <path
     d="m 203.40791,354.51 v 0 H 304.51 c 5.9185,0 12.202,-6.2839 12.202,-12.202 v -141.30069 0 l -10.95041,0.52484 -105.21508,144.06863 z"
     fill="#e6e6e6"
     stroke-width="9.3527"
     id="path322695"
     sodipodi:nodetypes="ccssccccc" />
  <path
     d="M 170.05,30.109 H 79.311 c -6.2839,0 -12.202,5.9185 -12.202,12.202 v 116.08266 0 l 8.281965,1.32726 z"
     opacity="0.3"
     stroke-width="9.3527"
     id="path322697"
     sodipodi:nodetypes="csscccc" />
  <path
     d="m 163.74914,23.874 v 0 H 79.311 c -6.2839,0 -12.202,5.9185 -12.202,12.202 v 118.18156 0 l 6.807505,1.24726 90.929755,-124.5056 z"
     fill="#e6e6e6"
     stroke-width="9.3527"
     id="path322699"
     sodipodi:nodetypes="ccssccccc" />
  <path
     d="m185.05 47.745-102.94 140.95v127.43c0 5.9185 6.2839 12.202 12.202 12.202h84.728l122.68-167.97v-33.296l-79.316-79.316z"
     fill="#e6e6e6"
     stroke-width="9.3527"
     id="path322701" />
  <path
     d="m219.94 47.745h2.4591l79.316 79.316 2e-3 3.7411h-68.328c-5.9185 0-13.449-7.5309-13.449-13.449z"
     opacity=".2"
     stroke-width="9.3527"
     id="path322703" />
  <path
     d="m222.4 47.745 79.316 79.316h-67.113c-5.9185 0-12.202-6.2839-12.202-12.202z"
     fill="#fff"
     stroke-width="9.3527"
     id="path322705" />
  <path
     d="m132.93 156.11v6.1012h122.02v-6.1012z"
     fill="#272a34"
     stroke-width="9.3527"
     id="path322707" />
  <path
     d="m132.93 180.51v6.1012h122.02v-6.1012z"
     fill="#272a34"
     stroke-width="9.3527"
     id="path322709" />
  <path
     d="m132.93 204.91v6.1012h122.02v-6.1012z"
     fill="#272a34"
     stroke-width="9.3527"
     id="path322711" />
  <path
     d="m261.89 261.61h8.0594v-6.1012h-3.6035z"
     fill="#272a34"
     stroke-width="9.3527"
     id="path322713" />
  <path
     d="m246.89 235.42 4.456-6.1012h-118.42v6.1012z"
     fill="#272a34"
     stroke-width="9.3527"
     id="path322715" />
  <path
     d="m132.93 253.72v6.0647h72.082v-6.0647z"
     fill="#272a34"
     stroke-width="9.3527"
     id="path322717" />
  <path
     d="m243.78 286.6h26.337v-6.1012h-21.881z"
     fill="#272a34"
     stroke-width="9.3527"
     id="path322719" />
  <path
     transform="matrix(.83135 0 0 .83135 32.294 28.416)"
     d="m181.63 363.88 181.09-241.47"
     color="#000000"
     color-rendering="auto"
     dominant-baseline="auto"
     fill="#f00"
     fill-opacity=".35294"
     filter="url(#c)"
     image-rendering="auto"
     shape-rendering="auto"
     solid-color="#000000"
     stop-color="#000000"
     style="font-feature-settings:normal;font-variant-alternates:normal;font-variant-caps:normal;font-variant-east-asian:normal;font-variant-ligatures:normal;font-variant-numeric:normal;font-variant-position:normal;font-variation-settings:normal;inline-size:0;isolation:auto;mix-blend-mode:normal;shape-margin:0;shape-padding:0;text-decoration-color:#000000;text-decoration-line:none;text-decoration-style:solid;text-indent:0;text-orientation:mixed;text-transform:none;white-space:normal"
     id="path322721" />
  <path
     d="m46.799 219.98 129.15-171.15"
     color="#000000"
     color-rendering="auto"
     dominant-baseline="auto"
     fill="#f00"
     fill-opacity=".35294"
     image-rendering="auto"
     shape-rendering="auto"
     solid-color="#000000"
     stop-color="#000000"
     style="font-feature-settings:normal;font-variant-alternates:normal;font-variant-caps:normal;font-variant-east-asian:normal;font-variant-ligatures:normal;font-variant-numeric:normal;font-variant-position:normal;font-variation-settings:normal;inline-size:0;isolation:auto;mix-blend-mode:normal;shape-margin:0;shape-padding:0;text-decoration-color:#000000;text-decoration-line:none;text-decoration-style:solid;text-indent:0;text-orientation:mixed;text-transform:none;white-space:normal"
     id="path322723" />
  <path
     d="m 76.317193,188.28538 c 5.467823,-10.21321 -3.808479,6.79878 1.656982,-2.59799 C 118.62678,115.7933 159.36625,66.69326 202.457,11.75 l 6.269,11.644 c -41.87619,53.592699 -84.33797,109.42238 -126.71972,164.94036 -6.813083,8.9248 1.117095,-8.94708 -5.689087,-0.049 z"
     opacity="0.5"
     id="path322725"
     sodipodi:nodetypes="csccscc" />
  <path
     d="m 89.355078,171.22671 c 3.507003,-6.55064 -6.110662,4.25005 -2.762824,-1.74927 C 127.28844,96.54986 157.28873,61.842224 202.457,4.25 l 6.269,11.644 c -44.1986,56.564894 -76.8615,99.6739 -119.370922,155.33271 -4.240885,5.55271 4.458116,-5.82835 0,0 z"
     fill="#4aaee6"
     id="path322727"
     sodipodi:nodetypes="csccsc" />
  <path
     d="m 316.49,157.16 c -46.138,86.18 -91.996,140.99 -140.88,203.32 l -6.269,-11.644 c 48.608,-62.208 93.17946,-126.02546 142.32446,-190.27546 z"
     opacity="0.5"
     id="path322729"
     sodipodi:nodetypes="ccccc" />
  <path
     d="m 311.66546,158.56054 c -1.60847,3.00443 1.60794,-2.92982 0,0 C 267.1509,239.67073 222.7898,292.82296 175.61,352.98 l -6.269,-11.644 C 217.949,279.128 252.575,224.607 301.72,160.357 l 7.90737,-5.72682 z"
     fill="#4aaee6"
     id="path322731"
     sodipodi:nodetypes="csccccc" />
  <path
     d="m 76.317193,188.28538 c 4.063643,-7.59037 -6.615078,4.34722 -2.55352,-2.78304 C 115.81644,111.67679 157.8785,61.090233 202.457,4.25 l 6.269,11.644 c -39.53216,50.592828 -88.9932,104.42445 -129.009106,156.86018 -4.269569,5.59473 0.86832,9.94251 -3.399701,15.5312 -4.915558,6.4366 4.91156,-6.42115 0,0 z"
     fill="#39c1c8"
     filter="url(#a)"
     id="path322733"
     sodipodi:nodetypes="csccssc" />
  <path
     d="m 301.72,166.592 c -3.99928,7.47014 6.77355,-2.22741 2.77633,4.79666 C 262.37925,245.39844 220.2567,296.05281 175.61,352.98 l -6.269,-11.644 c 43.69938,-55.926 88.03645,-114.288 132.25481,-172.18974 4.96692,-6.50393 -4.83866,3.93395 0.12419,-2.55426 z"
     fill="#39c1c8"
     filter="url(#b)"
     id="path322735"
     sodipodi:nodetypes="csccscc" />
</svg>
