<?xml version="1.0" encoding="UTF-8" standalone="no"?>
<svg
   width="32"
   height="32"
   version="1"
   id="svg442348"
   sodipodi:docname="semaphor.svg"
   inkscape:version="1.1.2 (0a00cf5339, 2022-02-04)"
   xmlns:inkscape="http://www.inkscape.org/namespaces/inkscape"
   xmlns:sodipodi="http://sodipodi.sourceforge.net/DTD/sodipodi-0.dtd"
   xmlns="http://www.w3.org/2000/svg"
   xmlns:svg="http://www.w3.org/2000/svg">
  <defs
     id="defs442352" />
  <sodipodi:namedview
     id="namedview442350"
     pagecolor="#ffffff"
     bordercolor="#666666"
     borderopacity="1.0"
     inkscape:pageshadow="2"
     inkscape:pageopacity="0.0"
     inkscape:pagecheckerboard="0"
     showgrid="false"
     inkscape:zoom="25.84375"
     inkscape:cx="15.980653"
     inkscape:cy="16"
     inkscape:window-width="1920"
     inkscape:window-height="1051"
     inkscape:window-x="0"
     inkscape:window-y="29"
     inkscape:window-maximized="1"
     inkscape:current-layer="svg442348" />
  <circle
     style="opacity:0.2"
     cx="16"
     cy="17"
     r="14"
     id="circle442320" />
  <circle
     style="fill:#36445d"
     cx="16"
     cy="16"
     r="14"
     id="circle442322" />
  <path
     style="opacity:0.2"
     d="m 9,21 h 7 v 7 z"
     id="path442324" />
  <path
     style="fill:#70bbff"
     d="m 9.8158229,20 v 0 H 16 l -0.06508,5.243335 v 0.984274 l -0.778575,-0.07127 -5.4136523,-5.413652 z"
     id="path442326"
     sodipodi:nodetypes="cccccccc" />
  <path
     style="opacity:0.2;fill:#ffffff"
     d="M 10,21 11.215786,20.846185 16,21 v -1 l -4.784214,0.846185 z"
     id="path442328"
     sodipodi:nodetypes="cccccc" />
  <path
     style="opacity:0.2"
     d="m 9,14 h 7 v 7 z"
     id="path442330" />
  <path
     style="fill:#3675fb"
     d="m 9,13 h 7 v 7 z"
     id="path442332" />
  <path
     style="opacity:0.2"
     d="m 9,14 h 7 V 7 Z"
     id="path442334" />
  <path
     style="fill:#70bbff"
     d="m 9,13 h 7 V 6 Z"
     id="path442336" />
  <path
     style="opacity:0.2"
     d="M 23,14 H 16 V 7 Z"
     id="path442338" />
  <path
     style="fill:#3675fb"
     d="m 22.070133,12.868108 v 0 L 16,13 V 6 l 6.241966,6.261266 z"
     id="path442340"
     sodipodi:nodetypes="cccccc" />
  <path
     style="opacity:0.2;fill:#ffffff"
     d="M 16,6 9.5168478,12.483152 9.6058443,13 v 0 H 10 l 6,-6 z"
     id="path442342"
     sodipodi:nodetypes="ccccccc" />
  <path
     style="opacity:0.1;fill:#ffffff"
     d="m 16,6 v 1 l 6,6 v 0 0 z"
     id="path442344"
     sodipodi:nodetypes="cccccc" />
  <path
     style="opacity:0.1;fill:#ffffff"
     d="M 16 2 A 14 14 0 0 0 2 16 A 14 14 0 0 0 2.0214844 16.585938 A 14 14 0 0 1 16 3 A 14 14 0 0 1 29.978516 16.414062 A 14 14 0 0 0 30 16 A 14 14 0 0 0 16 2 z"
     id="path442346" />
</svg>
