<?xml version="1.0" encoding="UTF-8" standalone="no"?>
<svg
   width="32"
   height="32"
   version="1"
   id="svg2186033"
   sodipodi:docname="uget.svg"
   inkscape:version="1.1.2 (0a00cf5339, 2022-02-04)"
   xmlns:inkscape="http://www.inkscape.org/namespaces/inkscape"
   xmlns:sodipodi="http://sodipodi.sourceforge.net/DTD/sodipodi-0.dtd"
   xmlns="http://www.w3.org/2000/svg"
   xmlns:svg="http://www.w3.org/2000/svg">
  <defs
     id="defs2186037" />
  <sodipodi:namedview
     id="namedview2186035"
     pagecolor="#ffffff"
     bordercolor="#666666"
     borderopacity="1.0"
     inkscape:pageshadow="2"
     inkscape:pageopacity="0.0"
     inkscape:pagecheckerboard="0"
     showgrid="false"
     inkscape:zoom="25.84375"
     inkscape:cx="15.980653"
     inkscape:cy="16"
     inkscape:window-width="1920"
     inkscape:window-height="1051"
     inkscape:window-x="0"
     inkscape:window-y="29"
     inkscape:window-maximized="1"
     inkscape:current-layer="svg2186033" />
  <rect
     style="opacity:0.2"
     width="26"
     height="26"
     x="3"
     y="4"
     rx="1.4"
     ry="1.4"
     id="rect2186023" />
  <rect
     style="fill:#72a637"
     width="26"
     height="26"
     x="3"
     y="3"
     rx="1.4"
     ry="1.4"
     id="rect2186025" />
  <path
     style="opacity:0.2"
     d="m 26,15 h -5 v 3 h 3 l -5.5,6.5 -5,-6.5 H 16 v -7 h 5 v 2 h 5 v -2 c 0,0 0,-4 -3.75,-4 h -7.5 C 14.75,7 11,7 11,11.25 V 12 19 H 9 V 12 H 6 v 7.5 C 6,22 8.5,22 8.5,22 H 11 v 1.25 C 11,27 14.75,27 14.75,27 h 7.5 C 26,27 26,23.25 26,23.25"
     id="path2186027" />
  <path
     style="fill:#ffffff"
     d="m 26,14 h -5 v 3 h 2.319722 l 0.176458,0.595423 v 0 l -4.630649,5.472586 -0.689282,0.01112 v 0 L 14.078831,17.75248 v 0 L 14.370135,17 H 16 v -7 h 5 v 2 h 5 v -2 c 0,0 0,-4 -3.75,-4 h -7.5 C 14.75,6 11,6 11,10.25 V 11 18 H 9 V 11 H 6 v 7.5 C 6,21 8.5,21 8.5,21 H 11 v 1.25 C 11,26 14.75,26 14.75,26 h 7.5 C 26,26 26,22.25 26,22.25"
     id="path2186029"
     sodipodi:nodetypes="ccccccccccccccccccscscccccsccscsc" />
  <path
     style="opacity:0.2;fill:#ffffff"
     d="M 4.4004,3 C 3.6248,3 3,3.6248 3,4.4004 V 5.4004 C 3,4.6248 3.6248,4 4.4004,4 H 27.6 C 28.375,4 29,4.6248 29,5.4004 V 4.4004 C 29,3.6248 28.375,3 27.6,3 Z"
     id="path2186031" />
</svg>
