<?xml version="1.0" encoding="UTF-8" standalone="no"?>
<svg
   width="512"
   height="512"
   version="1.1"
   viewBox="0 0 384 384"
   id="svg713218"
   sodipodi:docname="winff.svg"
   inkscape:version="1.1.2 (0a00cf5339, 2022-02-04)"
   xmlns:inkscape="http://www.inkscape.org/namespaces/inkscape"
   xmlns:sodipodi="http://sodipodi.sourceforge.net/DTD/sodipodi-0.dtd"
   xmlns="http://www.w3.org/2000/svg"
   xmlns:svg="http://www.w3.org/2000/svg">
  <defs
     id="defs713222" />
  <sodipodi:namedview
     id="namedview713220"
     pagecolor="#ffffff"
     bordercolor="#666666"
     borderopacity="1.0"
     inkscape:pageshadow="2"
     inkscape:pageopacity="0.0"
     inkscape:pagecheckerboard="0"
     showgrid="false"
     inkscape:zoom="1.6152344"
     inkscape:cx="255.69045"
     inkscape:cy="256"
     inkscape:window-width="1920"
     inkscape:window-height="1051"
     inkscape:window-x="0"
     inkscape:window-y="29"
     inkscape:window-maximized="1"
     inkscape:current-layer="svg713218" />
  <path
     d="m192.3 51.006c30.901 0.0631 62.233 9.3116 86.708 27.614 17.206 19.031-15.577 39.415-30.345 20.855-44.453-25.824-107.14-16.73-140.59 21.876-17.791 19.163-27.82 44.728-27.7 70.397h29.375c-15.674 22.559-31.337 45.118-47.006 67.677l-47-67.677h29.375c-0.93518-61.286 44.969-119.58 106.6-135.45 13.224-3.4825 26.845-5.4332 40.574-5.2955zm128.96 73.328c15.651 22.565 31.32 45.141 46.989 67.7h-29.375c0.83191 62.015-46.243 120.97-108.95 136-42.318 11.348-90.162 3.0695-124.94-22.892-17.74-19.346 15.496-39.53 30.402-20.803 43.064 25.089 103.37 17.126 137.37-18.704 19.685-19.478 31.016-46.455 30.867-73.598h-29.375l47-67.694z"
     opacity=".3"
     stroke-width="1.4688"
     id="path713204" />
  <path
     d="m 192.3,39.756 c -14.098,-0.13822 -28.04,1.8666 -41.533,5.4199 -62.056,15.988 -108.34,73.565 -109.28,135.32 H 20.649656 v 0 l -5.326774,9.72211 47.418118,68.27789 3.0801,-4.4336 c 15.669,-22.559 31.332,-45.119 47.006,-67.678 l -4.2398,-5.8887 v 0 0 H 84.2879 c 0.82286,-23.42 10.258,-46.569 26.531,-64.096 l 0.0449,-0.0469 0.041,-0.0488 c 32.035,-36.981 92.76,-45.892 135.54,-21.26 8.6947,10.017 22.416,9.6224 31.426,3.7363 4.6249,-3.0214 8.2693,-7.5241 9.3984,-13.01 1.1292,-5.4857 -0.56414,-11.724 -5.4863,-17.168 l -0.24414,-0.27148 -0.29102,-0.2168 c -25.213,-18.854 -57.285,-28.292 -88.922,-28.361 z m -0.0449,7.5 H 192.3 c 30.015,0.06283 60.437,9.0533 84.119,26.635 3.4731,3.9562 4.1358,7.3279 3.5098,10.369 -0.63991,3.1088 -2.8883,6.1105 -6.1543,8.2441 -6.532,4.2672 -16.052,4.8355 -22.178,-2.8633 l -0.43945,-0.55273 -0.61133,-0.35547 c -46.095,-26.778 -110.5,-17.479 -145.28,22.633 -18.408,19.859 -28.77,46.272 -28.645,72.9 l 0.01758,3.7324 h 25.936 c -13.282,19.118 -26.557,38.235 -39.834,57.352 l -39.83,-57.352 h 26.014 l -0.05859,-3.8066 c -0.90606,-59.378 43.867,-116.33 103.79,-131.76 l 0.01,-0.0039 0.01,-0.002 c 12.945,-3.4089 26.231,-5.3058 39.58,-5.1719 z m 130.23,64.77 -2.9062,1.4551 -0.86914,0.43555 -43.66094,62.88653 2.96953,11.48247 v 0 h 21.67541 c -0.86389,24.822 -11.518,49.311 -29.578,67.182 l -0.043,0.041 -0.041,0.043 c -32.582,34.336 -91.006,42.139 -132.44,18.217 -8.7599,-10.106 -22.594,-9.8171 -31.689,-3.959 -4.6672,3.006 -8.3421,7.528 -9.4356,13.059 -1.0934,5.5306 0.69547,11.801 5.7441,17.307 l 0.23828,0.25976 0.28125,0.21094 c 35.778,26.707 84.67,35.148 128.1,23.521 63.154,-15.158 110.6,-73.381 111.66,-135.88 h 25.07456 l 1.02268,-9.83132 2.73696,3.94072 c -0.91232,-1.31352 -1.82465,-2.6271 -2.73696,-3.94072 -14.75552,-21.24626 -29.50937,-42.50615 -44.24904,-63.75628 z m -1.2324,11.381 c 13.267,19.126 26.544,38.257 39.824,57.379 h -26.008 l 0.0508,3.7988 c 0.80603,60.085 -45.115,117.69 -106.08,132.3 l -0.0488,0.0117 -0.0469,0.0137 c -41.07,11.014 -87.667,2.9581 -121.41,-22.066 -3.6063,-4.0485 -4.3143,-7.4794 -3.7129,-10.521 0.61483,-3.1098 2.853,-6.0916 6.1406,-8.209 6.5752,-4.2349 16.28,-4.7285 22.479,3.0586 l 0.4375,0.55078 0.60742,0.35351 c 44.661,26.02 106.6,17.877 141.94,-19.32 20.378,-20.186 32.094,-48.061 31.939,-76.242 l -0.0215,-3.7285 h -25.936 z"
     color="#000000"
     color-rendering="auto"
     dominant-baseline="auto"
     image-rendering="auto"
     opacity="0.2"
     shape-rendering="auto"
     solid-color="#000000"
     style="font-variant-ligatures:normal;font-variant-position:normal;font-variant-caps:normal;font-variant-numeric:normal;font-variant-alternates:normal;font-feature-settings:normal;text-indent:0;text-decoration-line:none;text-decoration-style:solid;text-decoration-color:#000000;text-transform:none;text-orientation:mixed;white-space:normal;shape-padding:0;isolation:auto;mix-blend-mode:normal"
     id="path713206"
     sodipodi:nodetypes="cccccccccccccccccscccccccccssccccccccccccccccccccccccccccsccccccccsccccccscccsccccccccc" />
  <path
     d="m 192.3,43.506 c 30.901,0.06311 62.233,9.3116 86.708,27.614 17.206,19.031 -15.577,39.415 -30.345,20.855 -44.453,-25.824 -107.14,-16.73 -140.59,21.876 -17.791,19.163 -27.82,44.728 -27.7,70.397 h 21.8665 v 0 c -1.83566,2.642 3.83732,5.28401 2.00193,7.92601 C 90.405164,212.09101 76.575921,232.008 62.742,251.925 L 21.020744,191.84905 22.9103,187.998 l 1.794667,-3.75 H 45.117 c -0.93518,-61.286 44.969,-119.58 106.6,-135.45 13.224,-3.4825 26.845,-5.4332 40.574,-5.2955 z m 128.96,73.328 c 13.65893,19.69291 27.33157,39.39419 41.00595,59.08525 1.99432,2.87182 -1.99437,-2.87133 0,0 l -2.01009,8.61475 H 338.874 c 0.83191,62.015 -46.243,120.97 -108.95,136 -42.318,11.348 -90.162,3.0695 -124.94,-22.892 -17.74,-19.346 15.496,-39.53 30.402,-20.803 43.064,25.089 103.37,17.126 137.37,-18.704 19.685,-19.478 31.016,-46.455 30.867,-73.598 h -21.85171 l -0.36437,-3.75041 -1.07947,-5.0058 L 321.248,116.843 Z"
     fill="#ffffff"
     stroke-width="1.4688"
     id="path713208"
     sodipodi:nodetypes="cccccccscccccccccsccccccccccccc" />
  <path
     d="m384 294c0 49.706-40.294 90-90 90-49.706 0-90-40.294-90-90s40.294-90 90-90 90 40.294 90 90z"
     opacity=".3"
     stroke-width=".9375"
     id="path713210" />
  <path
     d="m384 286.5c0 49.706-40.294 90-90 90s-90-40.294-90-90 40.294-90 90-90 90 40.294 90 90z"
     fill="#fd3333"
     stroke-width=".9375"
     id="path713212" />
  <path
     d="m242.68 260.25c-4.9294 0-4.9289 4.826-4.9289 4.8149v57.86c0 4.8268 4.9289 4.8273 4.9289 4.8273h68.882s4.9303-4.8e-4 4.9413-4.8163v-32.85l33.747 26.413v-50.627l-33.747 24.208v-25.004s0-4.819-4.922-4.819h-68.894z"
     opacity=".3"
     stroke-width=".93753"
     id="path713214" />
  <path
     d="m 242.68,252.75 c -4.9294,0 -4.9289,4.826 -4.9289,4.8149 v 57.86 c 0,4.8268 4.9289,4.8273 4.9289,4.8273 h 68.882 c 0,0 4.9303,-4.8e-4 4.9413,-4.8163 v -32.85 l 7.43905,-5.34231 0.1511,5.24114 20.23584,21.87993 5.92101,-2.18602 v 0 -37.30746 l -6.7953,-1.62475 v 0 l -19.51265,13.99716 v 0 l -7.43905,5.34231 v -25.01 c 0,0 0,-4.819 -4.922,-4.819 h -68.894 z"
     fill="#ffffff"
     stroke-width="0.93753"
     id="path713216"
     sodipodi:nodetypes="ccsccccccccccccccccscc" />
</svg>
