<?xml version="1.0" encoding="UTF-8" standalone="no"?>
<svg
   width="512"
   height="512"
   version="1.1"
   viewBox="0 0 384 384"
   id="svg1473405"
   sodipodi:docname="battery-missing.svg"
   inkscape:version="1.1.2 (0a00cf5339, 2022-02-04)"
   xmlns:inkscape="http://www.inkscape.org/namespaces/inkscape"
   xmlns:sodipodi="http://sodipodi.sourceforge.net/DTD/sodipodi-0.dtd"
   xmlns="http://www.w3.org/2000/svg"
   xmlns:svg="http://www.w3.org/2000/svg">
  <defs
     id="defs1473409" />
  <sodipodi:namedview
     id="namedview1473407"
     pagecolor="#ffffff"
     bordercolor="#666666"
     borderopacity="1.0"
     inkscape:pageshadow="2"
     inkscape:pageopacity="0.0"
     inkscape:pagecheckerboard="0"
     showgrid="false"
     inkscape:zoom="1.6152344"
     inkscape:cx="255.69045"
     inkscape:cy="256"
     inkscape:window-width="1920"
     inkscape:window-height="1051"
     inkscape:window-x="0"
     inkscape:window-y="29"
     inkscape:window-maximized="1"
     inkscape:current-layer="g1473403" />
  <g
     transform="translate(6.62e-6 4.6676e-6)"
     id="g1473393">
    <rect
       x="133.53"
       y="23.25"
       width="116.95"
       height="40.258"
       rx="6.8245"
       ry="6.8245"
       fill="#2c2c2c"
       style="paint-order:stroke markers fill"
       id="rect1473371" />
    <g
       transform="matrix(10.475 0 0 13.419 3.4559 -47.426)"
       id="g1473375">
      <path
         d="m29.272 29.126v-20.647c0-0.71578-0.62747-1.2904-1.4091-1.2904h-19.727c-0.78159 0-1.4091 0.57464-1.4091 1.2904v20.647c0 0.71578 0.62747 1.2904 1.4091 1.2904h19.727c0.78158 0 1.4091-0.57464 1.4091-1.2904z"
         fill="#4a4a4a"
         stroke-width=".89895"
         id="path1473373" />
    </g>
    <g
       fill="#2c2c2c"
       id="g1473383">
      <rect
         x="89.872"
         y="62.964"
         width="204.26"
         height="88.212"
         rx="4.5"
         ry="4.9301"
         style="paint-order:stroke markers fill"
         id="rect1473377" />
      <rect
         x="89.872"
         y="160.08"
         width="204.26"
         height="88.212"
         rx="4.5"
         ry="4.9301"
         style="paint-order:stroke markers fill"
         id="rect1473379" />
      <rect
         x="89.872"
         y="257.2"
         width="204.26"
         height="88.212"
         rx="4.5"
         ry="4.9301"
         style="paint-order:stroke markers fill"
         id="rect1473381" />
    </g>
    <path
       transform="scale(.75)"
       d="m119.83 184.99v10c0 3.6417 2.676 6.5723 6 6.5723h260.34c3.324 0 6-2.9306 6-6.5723v-10c0 3.6417-2.676 6.5742-6 6.5742h-260.34c-3.324 0-6-2.9325-6-6.5742zm0 129.49v9.998c0 3.6417 2.676 6.5742 6 6.5742h260.34c3.324 0 6-2.9325 6-6.5742v-9.998c0 3.6417-2.676 6.5723-6 6.5723h-260.34c-3.324 0-6-2.9305-6-6.5723zm0 129.49v10c0 3.6417 2.676 6.5723 6 6.5723h260.34c3.324 0 6-2.9306 6-6.5723v-10c0 3.6417-2.676 6.5742-6 6.5742h-260.34c-3.324 0-6-2.9325-6-6.5742z"
       opacity=".3"
       style="paint-order:stroke markers fill"
       id="path1473385" />
    <path
       transform="scale(.75)"
       d="m187.13 31c-5.041 0-9.0996 4.0586-9.0996 9.0996v10c0-5.041 4.0586-9.0996 9.0996-9.0996h137.73c5.041 0 9.0996 4.0586 9.0996 9.0996v-10c0-5.041-4.0586-9.0996-9.0996-9.0996z"
       fill="#fff"
       opacity=".1"
       style="paint-order:stroke markers fill"
       id="path1473387" />
    <path
       transform="scale(.75)"
       d="m118.25 65.4c-10.916 0-19.68 10.281-19.68 23.088v10c0-12.807 8.7639-23.088 19.68-23.088h275.51c10.916 0 19.68 10.281 19.68 23.088v-10c0-12.807-8.7639-23.088-19.68-23.088z"
       fill="#fff"
       opacity=".1"
       stroke-width="14.211"
       id="path1473389" />
    <path
       transform="scale(.75)"
       d="m98.566 447.91v10c0 12.807 8.7639 23.09 19.68 23.09h275.51c10.916 0 19.68-10.283 19.68-23.09v-10c0 12.807-8.7639 23.09-19.68 23.09h-275.51c-10.916 0-19.68-10.283-19.68-23.09z"
       opacity=".5"
       stroke-width="14.211"
       id="path1473391" />
  </g>
  <g
     transform="translate(-187.16 -138.86)"
     id="g1473403">
    <path
       d="m571.16 432.86c0 49.706-40.294 90-90 90s-90-40.294-90-90 40.294-90 90-90 90 40.294 90 90z"
       fill-rule="evenodd"
       opacity=".3"
       stroke-width=".9375"
       id="path1473395" />
    <path
       d="m571.16 425.36c0 49.706-40.294 90-90 90s-90-40.294-90-90 40.294-90 90-90 90 40.294 90 90z"
       fill="#d41717"
       fill-rule="evenodd"
       stroke-width=".9375"
       id="path1473397" />
    <path
       d="m451.91 391.93-11.675 11.675 29.253 29.254-29.253 29.253 11.675 11.676 29.254-29.254 29.253 29.254 11.676-11.676-29.254-29.253 29.254-29.254-11.676-11.675-29.253 29.253z"
       opacity=".3"
       stroke-width="11.029"
       id="path1473399" />
    <path
       d="m 448.79073,387.54927 v 0 l -6.03485,6.03485 v 0 l 0.59755,5.63942 26.13457,26.13546 -26.29224,26.29224 -0.14085,5.78091 v 0 l 6.5837,6.58426 v 0 l 6.17989,-1.63691 25.3455,-25.3455 25.38137,25.38224 6.41035,1.33304 v 0 l 5.79983,-5.79983 0.14907,-6.52572 v 0 L 492.839,425.359 519.50875,398.68925 v 0 l -0.0202,-5.18847 -6.16239,-6.16187 -6.12104,0.30297 v 0 L 481.164,413.683 455.07126,387.59115 Z"
       fill="#ffffff"
       stroke-width="11.029"
       id="path1473401"
       sodipodi:nodetypes="ccccccccccccccccccccccccccccc" />
  </g>
</svg>
