<?xml version="1.0" encoding="UTF-8" standalone="no"?>
<svg
   width="512"
   height="512"
   version="1.1"
   viewBox="0 0 384 384"
   id="svg4396"
   sodipodi:docname="boostnote.svg"
   inkscape:version="1.1.2 (0a00cf5339, 2022-02-04)"
   xmlns:inkscape="http://www.inkscape.org/namespaces/inkscape"
   xmlns:sodipodi="http://sodipodi.sourceforge.net/DTD/sodipodi-0.dtd"
   xmlns="http://www.w3.org/2000/svg"
   xmlns:svg="http://www.w3.org/2000/svg">
  <sodipodi:namedview
     id="namedview4398"
     pagecolor="#ffffff"
     bordercolor="#666666"
     borderopacity="1.0"
     inkscape:pageshadow="2"
     inkscape:pageopacity="0.0"
     inkscape:pagecheckerboard="0"
     showgrid="false"
     inkscape:zoom="1.6152344"
     inkscape:cx="255.69045"
     inkscape:cy="256"
     inkscape:window-width="1920"
     inkscape:window-height="1051"
     inkscape:window-x="0"
     inkscape:window-y="29"
     inkscape:window-maximized="1"
     inkscape:current-layer="svg4396" />
  <defs
     id="defs4382">
    <clipPath
       id="clipPath4372">
      <rect
         width="384"
         height="384"
         id="rect4370" />
    </clipPath>
    <clipPath
       id="clipPath4376">
      <rect
         width="384"
         height="384"
         id="rect4374" />
    </clipPath>
    <clipPath
       id="clipPath4380">
      <rect
         width="384"
         height="384"
         id="rect4378" />
    </clipPath>
  </defs>
  <path
     d="m360 192c0 92.785-75.215 168-168 168-92.785 0-168-75.215-168-168 0-92.785 75.215-168 168-168 92.785 0 168 75.215 168 168z"
     fill="#17a185"
     id="path4384" />
  <path
     d="M 264,127.5 93.406191,182.08812 v 0 l 0.713002,7.21881 56.513807,23.50607 23.367,4.6875 5.0156,23.965 21.90479,52.81639 v 0 l 10.08882,-1.17774 z M 141.9,235.54 c -0.75,0.0625 -1.7188,0.22656 -2.6133,0.45703 -6.8281,1.7812 -16.75,9.1172 -22.066,16.324 -6.0274,8.1719 -9.2383,17.746 -9.2227,27.504 0.004,2.7305 0.1211,3.1914 0.92579,3.5391 0.91015,0.39453 8.6328,-0.0781 11.766,-0.71484 9.0273,-1.8438 16.719,-6.0742 23.59,-12.961 4.3203,-4.3281 6.8789,-7.9024 9.3867,-13.125 1.6406,-3.4219 2.75,-7.5742 2.1797,-8.1445 -0.11329,-0.10936 -1.0156,0.42189 -2.0039,1.1953 -7.4531,4.7734 -13.398,8.2305 -21.844,9.8906 2.1914,-8.3047 4.5234,-14.629 8.8828,-20.59 1.2617,-1.6992 2.2969,-3.1602 2.2969,-3.2461 0,-0.16014 -0.52735,-0.19139 -1.2774,-0.12889 z"
     opacity="0.3"
     id="path4386"
     sodipodi:nodetypes="cccccccccccccccccccccccscc" />
  <path
     d="M 257.36521,126.63319 97.08444,173.41286 150.633,205.313 174,210.0005 l 5.0156,23.965 23.05592,55.59198 v 0 l 7.96255,-0.90588 51.17974,-159.94433 z M 141.9,228.04 c -0.75,0.0625 -1.7188,0.22656 -2.6133,0.45703 -6.8281,1.7812 -16.75,9.1172 -22.066,16.324 -6.0274,8.1719 -9.2383,17.746 -9.2227,27.504 0.004,2.7305 0.12109,3.1914 0.92578,3.5391 0.91016,0.39454 8.6328,-0.0781 11.766,-0.71484 9.0273,-1.8438 16.719,-6.0742 23.59,-12.961 4.3203,-4.3281 6.8789,-7.9023 9.3867,-13.125 1.6406,-3.4219 2.75,-7.5742 2.1797,-8.1445 -0.11329,-0.10937 -1.0156,0.42188 -2.0039,1.1953 -7.4531,4.7734 -13.398,8.2305 -21.844,9.8906 2.1914,-8.3047 4.5234,-14.629 8.8828,-20.59 1.2617,-1.6992 -1.59438,-2.91766 2.2969,-3.2461 0.15958,-0.0135 -3.14123,0.26594 -3.89128,0.32844 z"
     fill="#ffffff"
     id="path4388"
     sodipodi:nodetypes="ccccccccccccccccccccccscc" />
  <path
     d="m 97.08444,173.41286 0.237743,9.72704 53.306817,22.1671 23.371,4.6914 83.36521,-83.36521 v 0 l -2.04626,-3.85678 z"
     fill="#e6e6e6"
     id="path4390"
     sodipodi:nodetypes="ccccccccc" />
  <path
     transform="scale(.75)"
     d="m32.062 251c-0.036438 1.6631-0.0625 3.3282-0.0625 5 0 123.71 100.29 224 224 224 123.71 0 224-100.29 224-224 0-1.6718-0.02606-3.3369-0.0625-5-2.66 121.4-101.9 219-223.94 219-122.04 0-221.28-97.597-223.94-219z"
     opacity=".3"
     stroke-width="1.3333"
     id="path4392" />
  <path
     transform="scale(.75)"
     d="m256 32c-123.71 0-224 100.29-224 224 0 1.6718 0.026062 3.3369 0.0625 5 2.66-121.4 101.9-219 223.94-219 122.04 0 221.28 97.597 223.94 219 0.03644-1.6631 0.0625-3.3282 0.0625-5 0-123.71-100.29-224-224-224z"
     fill="#d8d8d8"
     opacity=".3"
     stroke-width="1.3333"
     id="path4394" />
</svg>
