<?xml version="1.0" encoding="UTF-8" standalone="no"?>
<svg
   width="512"
   height="512"
   version="1.1"
   viewBox="0 0 384 384"
   id="svg110812"
   sodipodi:docname="camera-off.svg"
   inkscape:version="1.1.2 (0a00cf5339, 2022-02-04)"
   xmlns:inkscape="http://www.inkscape.org/namespaces/inkscape"
   xmlns:sodipodi="http://sodipodi.sourceforge.net/DTD/sodipodi-0.dtd"
   xmlns:xlink="http://www.w3.org/1999/xlink"
   xmlns="http://www.w3.org/2000/svg"
   xmlns:svg="http://www.w3.org/2000/svg">
  <sodipodi:namedview
     id="namedview110814"
     pagecolor="#ffffff"
     bordercolor="#666666"
     borderopacity="1.0"
     inkscape:pageshadow="2"
     inkscape:pageopacity="0.0"
     inkscape:pagecheckerboard="0"
     showgrid="false"
     inkscape:zoom="1.6152344"
     inkscape:cx="255.69045"
     inkscape:cy="256"
     inkscape:window-width="1920"
     inkscape:window-height="1051"
     inkscape:window-x="0"
     inkscape:window-y="29"
     inkscape:window-maximized="1"
     inkscape:current-layer="svg110812" />
  <defs
     id="defs110788">
    <clipPath
       id="clipPath110745">
      <rect
         width="36"
         height="36"
         id="rect110743" />
    </clipPath>
    <clipPath
       id="clipPath110749">
      <rect
         width="384"
         height="384"
         id="rect110747" />
    </clipPath>
    <clipPath
       id="clipPath110753">
      <rect
         width="384"
         height="384"
         id="rect110751" />
    </clipPath>
    <clipPath
       id="h">
      <rect
         width="384"
         height="384"
         id="rect110755" />
    </clipPath>
    <g
       id="f"
       clip-path="url(#h)">
      <path
         d="m194.75 93.59c-0.77735 0-1.4062 0.63281-1.4062 1.4102s0.6289 1.4062 1.4062 1.4062c0.77734 0 1.4062-0.62891 1.4062-1.4062s-0.62891-1.4102-1.4062-1.4102zm-2.5625 2.3008c-0.41407 0-0.75 0.33594-0.75 0.75391 0 0.41406 0.33593 0.75391 0.75 0.75391 0.41796 0 0.7539-0.33984 0.7539-0.75391 0-0.41797-0.33594-0.75391-0.7539-0.75391z"
         fill="#fff"
         id="path110758" />
    </g>
    <filter
       id="i"
       x="0"
       y="0"
       width="1"
       height="1">
      <feColorMatrix
         in="SourceGraphic"
         values="0 0 0 0 1 0 0 0 0 1 0 0 0 0 1 0 0 0 1 0"
         id="feColorMatrix110761" />
    </filter>
    <mask
       id="g">
      <g
         filter="url(#i)"
         id="g110766">
        <rect
           width="384"
           height="384"
           fill-opacity=".4"
           id="rect110764" />
      </g>
    </mask>
    <linearGradient
       id="d"
       x1="-44"
       x2="-24"
       y1="-24"
       y2="-24"
       gradientTransform="matrix(2.3855,-2.4201,-2.4201,-2.3855,191.02,67.38)"
       gradientUnits="userSpaceOnUse">
      <stop
         stop-opacity="0"
         offset="0"
         id="stop110769" />
      <stop
         offset="1"
         id="stop110771" />
    </linearGradient>
    <g
       id="b"
       opacity=".3"
       lip-path="url(#clip3)">
      <path
         d="m152.85 144.27c-11.742 10.883-18.426 26.164-18.445 42.172 0 31.805 25.785 57.59 57.59 57.59 16.297-0.0234 31.82-6.9531 42.723-19.066z"
         fill="url(#d)"
         id="path110774" />
    </g>
    <linearGradient
       id="c"
       x1="-44"
       x2="-24"
       y1="-24"
       y2="-24"
       gradientTransform="matrix(-2.4201,-2.3855,2.3855,-2.4201,191.02,67.38)"
       gradientUnits="userSpaceOnUse">
      <stop
         stop-opacity="0"
         offset="0"
         id="stop110777" />
      <stop
         offset="1"
         id="stop110779" />
    </linearGradient>
    <clipPath
       id="e">
      <rect
         width="384"
         height="384"
         id="rect110782" />
    </clipPath>
    <g
       id="a"
       clip-path="url(#e)"
       opacity=".3">
      <path
         d="m230.4 143.61-80.684 81.852c10.887 11.816 26.215 18.551 42.281 18.57 31.805 0 57.586-25.785 57.59-57.59-0.0234-16.355-7-31.926-19.188-42.832z"
         fill="url(#c)"
         id="path110785" />
    </g>
  </defs>
  <g
     stroke-width="295.42"
     id="g110796">
    <path
       d="m360.75 203.25c0 93.141-75.555 168.7-168.8 168.7-93.141 0-168.7-75.555-168.7-168.7 0-93.141 75.555-168.7 168.7-168.7 93.25 0 168.8 75.555 168.8 168.7z"
       opacity=".3"
       id="path110790" />
    <path
       d="m360.75 195.75c0 93.141-75.555 168.7-168.8 168.7-93.141 0-168.7-75.555-168.7-168.7 0-93.141 75.555-168.7 168.7-168.7 93.25 0 168.8 75.555 168.8 168.7z"
       fill="#171717"
       id="path110792" />
    <path
       d="m329.49 195.75c0 75.881-61.551 137.43-137.54 137.43-75.881 0-137.43-61.552-137.43-137.43 0-75.881 61.551-137.43 137.43-137.43 75.989 0 137.54 61.551 137.54 137.43z"
       fill="#2359b0"
       id="path110794" />
  </g>
  <use
     transform="matrix(27.79 0 0 27.79 -5115.4 -2489.4)"
     width="100%"
     height="100%"
     mask="url(#g)"
     xlink:href="#f"
     id="use110798" />
  <use
     transform="matrix(1.8571 0 0 1.8571 -165.22 -147.07)"
     width="100%"
     height="100%"
     xlink:href="#b"
     id="use110800" />
  <use
     transform="matrix(1.8571 0 0 1.8571 -165.22 -147.07)"
     width="100%"
     height="100%"
     xlink:href="#a"
     id="use110802" />
  <path
     d="m384 294c0 49.706-40.294 90-90 90-49.706 0-90-40.294-90-90 0-49.706 40.294-90 90-90 49.706 0 90 40.294 90 90z"
     fill-rule="evenodd"
     opacity=".3"
     stroke-width=".9375"
     id="path110804" />
  <path
     d="m384 286.5c0 49.706-40.294 90-90 90-49.706 0-90-40.294-90-90 0-49.706 40.294-90 90-90 49.706 0 90 40.294 90 90z"
     fill="#d41717"
     fill-rule="evenodd"
     stroke-width=".9375"
     id="path110806" />
  <path
     d="m264.75 253.07-11.675 11.675 29.253 29.254-29.253 29.253 11.675 11.676 29.254-29.254 29.253 29.254 11.676-11.676-29.254-29.253 29.254-29.254-11.676-11.675-29.253 29.253z"
     opacity=".3"
     stroke-width="11.029"
     id="path110808" />
  <path
     d="m 261.87703,248.44297 v 0 l -5.83377,5.83377 v 0 l 0.79167,6.72832 25.49307,25.49394 -25.75611,25.75611 v 0 l -0.61484,6.37918 5.12143,5.12188 7.00139,0.34196 v 0 L 294.004,298.174 l 25.63992,25.64079 5.88891,1.33738 v 0 l 5.92391,-5.92391 0.55032,-6.4021 v 0 L 305.679,286.499 l 25.93635,-25.93635 -0.41184,-7.04682 v 0 l -4.92101,-4.92059 -6.61982,0.56908 v 0 L 294.004,274.823 268.6914,249.51127 Z"
     fill="#ffffff"
     stroke-width="11.029"
     id="path110810"
     sodipodi:nodetypes="ccccccccccccccccccccccccccccc" />
</svg>
