<?xml version="1.0" encoding="UTF-8" standalone="no"?>
<svg
   width="512"
   height="512"
   version="1.1"
   viewBox="0 0 384 384"
   id="svg558822"
   sodipodi:docname="com.leagueoflegends.Client.svg"
   inkscape:version="1.1.2 (0a00cf5339, 2022-02-04)"
   xmlns:inkscape="http://www.inkscape.org/namespaces/inkscape"
   xmlns:sodipodi="http://sodipodi.sourceforge.net/DTD/sodipodi-0.dtd"
   xmlns:xlink="http://www.w3.org/1999/xlink"
   xmlns="http://www.w3.org/2000/svg"
   xmlns:svg="http://www.w3.org/2000/svg">
  <sodipodi:namedview
     id="namedview558824"
     pagecolor="#ffffff"
     bordercolor="#666666"
     borderopacity="1.0"
     inkscape:pageshadow="2"
     inkscape:pageopacity="0.0"
     inkscape:pagecheckerboard="0"
     showgrid="false"
     inkscape:zoom="1.6152344"
     inkscape:cx="255.69045"
     inkscape:cy="256"
     inkscape:window-width="1920"
     inkscape:window-height="1051"
     inkscape:window-x="0"
     inkscape:window-y="29"
     inkscape:window-maximized="1"
     inkscape:current-layer="g558820" />
  <defs
     id="defs558808">
    <filter
       id="alpha"
       width="1"
       height="1"
       x="0"
       y="0"
       filterUnits="objectBoundingBox">
      <feColorMatrix
         in="SourceGraphic"
         type="matrix"
         values="0 0 0 0 1 0 0 0 0 1 0 0 0 0 1 0 0 0 1 0"
         id="feColorMatrix558772" />
    </filter>
    <mask
       id="mask0">
      <g
         filter="url(#alpha)"
         id="g558777">
        <rect
           width="384"
           height="384"
           x="0"
           y="0"
           style="fill:rgb(0%,0%,0%);fill-opacity:0.2"
           id="rect558775" />
      </g>
    </mask>
    <clipPath
       id="clip1">
      <rect
         width="384"
         height="384"
         x="0"
         y="0"
         id="rect558780" />
    </clipPath>
    <g
       id="surface5"
       clip-path="url(#clip1)">
      <path
         style="fill:rgb(0%,0%,0%)"
         d="M 24.257812 190.96875 C 24.121094 193.308594 24.035156 195.65625 24 198 C 24 290.785156 99.214844 366 192 366 C 284.785156 366 360 290.785156 360 198 C 359.941406 196.34375 359.855469 194.6875 359.746094 193.03125 C 355.980469 282.960938 282.007812 353.945312 192 354 C 101.226562 353.898438 26.949219 281.703125 24.265625 190.96875 Z M 24.257812 190.96875"
         id="path558783" />
    </g>
    <mask
       id="mask1">
      <g
         filter="url(#alpha)"
         id="g558788">
        <rect
           width="384"
           height="384"
           x="0"
           y="0"
           style="fill:rgb(0%,0%,0%);fill-opacity:0.2"
           id="rect558786" />
      </g>
    </mask>
    <clipPath
       id="clip2">
      <rect
         width="384"
         height="384"
         x="0"
         y="0"
         id="rect558791" />
    </clipPath>
    <g
       id="surface8"
       clip-path="url(#clip2)">
      <path
         style="fill:rgb(100.000%,100.000%,100.000%)"
         d="M 191.988281 24 C 99.210938 24.007812 24 99.222656 24 192 C 24.035156 192.8125 24.078125 193.625 24.128906 194.4375 C 26.066406 103.101562 100.632812 30.054688 191.988281 30 L 192 30 C 283.765625 30.066406 358.503906 103.757812 359.859375 195.515625 C 359.914062 194.34375 359.957031 193.171875 359.988281 192 C 359.988281 99.222656 284.777344 24.007812 192 24 Z M 191.988281 24"
         id="path558794" />
    </g>
    <mask
       id="mask2">
      <g
         filter="url(#alpha)"
         id="g558799">
        <rect
           width="384"
           height="384"
           x="0"
           y="0"
           style="fill:rgb(0%,0%,0%);fill-opacity:0.2"
           id="rect558797" />
      </g>
    </mask>
    <clipPath
       id="clip3">
      <rect
         width="384"
         height="384"
         x="0"
         y="0"
         id="rect558802" />
    </clipPath>
    <g
       id="surface11"
       clip-path="url(#clip3)">
      <path
         style="fill-rule:evenodd;fill:rgb(0%,0%,0%)"
         d="M 108 102 L 192 102 L 168 126 L 168 252 L 192 258 L 252 252 L 288 222 L 270 294 L 108 294 L 132 276 L 132 126 Z M 108 102"
         id="path558805" />
    </g>
  </defs>
  <g
     id="g558820">
    <use
       mask="url(#mask0)"
       xlink:href="#surface5"
       id="use558810" />
    <path
       style="fill:rgb(63.137%,41.960%,23.921%)"
       d="M 192 24 C 99.214844 24 24 99.214844 24 192 C 24 284.785156 99.214844 360 192 360 C 284.785156 360 360 284.785156 360 192 C 360 99.214844 284.785156 24 192 24 Z M 192 24"
       id="path558812" />
    <use
       mask="url(#mask1)"
       xlink:href="#surface8"
       id="use558814" />
    <use
       mask="url(#mask2)"
       xlink:href="#surface11"
       id="use558816" />
    <path
       style="fill:#ffffff;fill-rule:evenodd"
       d="m 116.02569,96 v 0 h 68.96432 v 0 l 1.59114,5.41885 L 168,120 v 126 l 24,6 60,-6 29.38708,-24.48923 v 0 l 4.63307,2.40864 -14.82985,59.31939 v 0 L 265.50317,288 H 116.56288 l -2.15086,-4.80901 v 0 L 132,270 V 120 l -17.95152,-17.95152 z"
       id="path558818"
       sodipodi:nodetypes="cccccccccccccccccccccc" />
  </g>
</svg>
