<?xml version="1.0" encoding="UTF-8" standalone="no"?>
<svg
   width="32"
   height="32"
   version="1"
   id="svg805327"
   sodipodi:docname="convertall.svg"
   inkscape:version="1.1.2 (0a00cf5339, 2022-02-04)"
   xmlns:inkscape="http://www.inkscape.org/namespaces/inkscape"
   xmlns:sodipodi="http://sodipodi.sourceforge.net/DTD/sodipodi-0.dtd"
   xmlns="http://www.w3.org/2000/svg"
   xmlns:svg="http://www.w3.org/2000/svg">
  <defs
     id="defs805331" />
  <sodipodi:namedview
     id="namedview805329"
     pagecolor="#ffffff"
     bordercolor="#666666"
     borderopacity="1.0"
     inkscape:pageshadow="2"
     inkscape:pageopacity="0.0"
     inkscape:pagecheckerboard="0"
     showgrid="false"
     inkscape:zoom="25.84375"
     inkscape:cx="15.980653"
     inkscape:cy="16"
     inkscape:window-width="1920"
     inkscape:window-height="1051"
     inkscape:window-x="0"
     inkscape:window-y="29"
     inkscape:window-maximized="1"
     inkscape:current-layer="svg805327" />
  <path
     style="opacity:0.2"
     d="M 3.4492188,2 C 2.6459187,2 2,2.6459187 2,3.4492188 V 29.550781 C 2,30.354081 2.6459187,31 3.4492188,31 H 16.5 29.550781 C 30.354081,31 31,30.354081 31,29.550781 V 3.4492188 C 31,2.6459187 30.354081,2 29.550781,2 H 16.5 Z"
     id="path805297" />
  <path
     style="fill:#f3389a"
     d="M 3.4500001,0.99999836 H 16.5 V 30 H 3.4500001 C 2.6467,30 2,29.3533 2,28.55 V 2.4499984 c 0,-0.8033 0.6467,-1.45000004 1.4500001,-1.45000004 z"
     id="path805299" />
  <path
     style="fill:#5a50e3"
     d="M 29.55,0.99999836 H 16.5 V 30 H 29.55 C 30.3533,30 31,29.3533 31,28.55 V 2.4499984 c 0,-0.8033 -0.6467,-1.45000004 -1.45,-1.45000004 z"
     id="path805301" />
  <path
     style="opacity:0.1"
     d="M 7.5175781,6.5214844 A 0.69166555,0.69166555 0 0 0 7.1171875,7.75 l -4.1132813,13.261719 0.00586,0.002 A 4.9999978,3.8555552 0 0 0 3,21.144531 4.9999978,3.8555552 0 0 0 8,25 4.9999978,3.8555552 0 0 0 13,21.144531 4.9999978,3.8555552 0 0 0 12.994141,21 h -0.02539 l 0.02148,-0.0078 L 8.1230469,8.0566406 25.224609,12.074219 20.027344,25 h -0.01758 A 4.9999997,3.8555563 0 0 0 20,25.144531 4.9999997,3.8555563 0 0 0 25,29 a 4.9999997,3.8555563 0 0 0 5,-3.855469 4.9999997,3.8555563 0 0 0 -0.0039,-0.07813 h 0.002 l -0.002,-0.0039 A 4.9999997,3.8555563 0 0 0 29.994141,25 h -0.01563 L 26.152344,12.248047 a 0.69166555,0.69166555 0 0 0 0.04883,-1.365235 L 7.7226562,6.5410156 A 0.69166555,0.69166555 0 0 0 7.5175781,6.5214844 Z M 7.5859375,8.6875 12.216797,21 H 3.765625 Z M 25.626953,13.015625 29.220703,25 h -8.412109 z"
     id="path805303" />
  <path
     style="fill:#3f3f3f"
     d="M 20.009,24 A 4.9999997,3.8555563 0 0 0 20,24.14375 4.9999997,3.8555563 0 0 0 25,28 4.9999997,3.8555563 0 0 0 30,24.14375 4.9999997,3.8555563 0 0 0 29.994,24 Z"
     id="path805305" />
  <path
     style="fill:none;stroke:#3f3f3f;stroke-width:0.72;stroke-linejoin:bevel"
     d="M 20.35,24.17 25.676663,10.919979 29.65,24.17"
     id="path805307" />
  <path
     style="fill:#3f3f3f"
     d="M 3.0090187,20 A 4.9999978,3.8555552 0 0 0 3.0000001,20.143751 4.9999978,3.8555552 0 0 0 8.000002,24 4.9999978,3.8555552 0 0 0 13,20.143751 4.9999978,3.8555552 0 0 0 12.993953,20 Z"
     id="path805309" />
  <path
     style="opacity:0.2"
     d="M 7.7109375,19.5 5,20.992188 10.380859,21 Z M 25,21.5 21.998047,24.992188 27.958984,25 Z"
     id="path805311" />
  <path
     style="fill:#fffb00"
     d="m 27.959556,24 -5.960951,-0.0073 2.733759,-3.181292 v 0 l 0.522412,-0.01015 z"
     id="path805313"
     sodipodi:nodetypes="cccccc" />
  <path
     style="fill:none;stroke:#3f3f3f;stroke-width:1.38;stroke-linecap:round"
     d="M 7.5647842,6.2148954 C 26.043706,10.555708 26.043706,10.555708 26.043706,10.555708"
     id="path805315" />
  <path
     style="fill:none;stroke:#3f3f3f;stroke-width:0.72;stroke-linejoin:bevel"
     d="M 3.35,20.12 7.5516617,6.5699786 12.65,20.12"
     id="path805317" />
  <path
     style="fill:#fffb00"
     transform="matrix(0.09732408,0,0,0.03124576,-4.1550086,-3.7995659)"
     d="m 149.35752,761.68946 -55.29027,-0.24747 27.85944,-47.75904 z"
     id="path805319" />
  <path
     style="fill:#ffffff;opacity:0.1"
     d="M 3.4492188 1 C 2.6459187 1 2 1.6459187 2 2.4492188 L 2 3.4492188 C 2 2.6459187 2.6459187 2 3.4492188 2 L 16.5 2 L 29.550781 2 C 30.354081 2 31 2.6459187 31 3.4492188 L 31 2.4492188 C 31 1.6459187 30.354081 1 29.550781 1 L 16.5 1 L 3.4492188 1 z"
     id="path805321" />
  <rect
     style="fill:#3f3f3f"
     width="3"
     height="29"
     x="15"
     y="1"
     id="rect805323" />
  <path
     style="opacity:0.2;fill:#ffffff"
     d="m 7.4031,18.669444 v 0 L 5,19.992188 6.8125,19.994141 7.7109375,19.5 8.5957031,19.998047 10.380859,20 8.0271414,18.677648 Z M 25,21.5 l -0.446507,-0.480576 -2.555446,2.972764 0.859375,0.002 L 25,21.5 27.113281,23.998047 27.958984,24 25.498171,21.089256 Z"
     id="path805325"
     sodipodi:nodetypes="cccccccccccccccccc" />
</svg>
