<?xml version="1.0" encoding="UTF-8" standalone="no"?>
<svg
   width="512"
   height="512"
   version="1.1"
   viewBox="0 0 384 384"
   id="svg598422"
   sodipodi:docname="deadbeef.svg"
   inkscape:version="1.1.2 (0a00cf5339, 2022-02-04)"
   xmlns:inkscape="http://www.inkscape.org/namespaces/inkscape"
   xmlns:sodipodi="http://sodipodi.sourceforge.net/DTD/sodipodi-0.dtd"
   xmlns="http://www.w3.org/2000/svg"
   xmlns:svg="http://www.w3.org/2000/svg">
  <defs
     id="defs598426" />
  <sodipodi:namedview
     id="namedview598424"
     pagecolor="#ffffff"
     bordercolor="#666666"
     borderopacity="1.0"
     inkscape:pageshadow="2"
     inkscape:pageopacity="0.0"
     inkscape:pagecheckerboard="0"
     showgrid="false"
     inkscape:zoom="1.6152344"
     inkscape:cx="255.69045"
     inkscape:cy="256"
     inkscape:window-width="1920"
     inkscape:window-height="1051"
     inkscape:window-x="0"
     inkscape:window-y="29"
     inkscape:window-maximized="1"
     inkscape:current-layer="g598418" />
  <g
     style="fill-opacity:.2;fill:rgb(0%,0%,0%)"
     id="g598410">
    <path
       d="m96 101.99609v96.003906l54.003906-36.003906 54 36.003906-108.00391 72v24l144.00391-96-72-48.003906z"
       style="fill-rule:evenodd;fill:rgb(0%,0%,0%)"
       id="path598408" />
  </g>
  <path
     d="m88.238283 31.501482c-7.425781-0.16407-14.609374 2.53906-19.925781 7.5-5.316405 4.96093-8.312499 11.75781-8.312499 18.85937v283.30077c0.0078 9.41406 5.269531 18.11328 13.808594 22.81641 8.535156 4.70703 19.05078 4.70312 27.589843-4e-3l208.80468-141.63663c8.53907-4.71093 13.79688-13.41406 13.79688-22.83203 0-9.42187-5.2578-18.125-13.79688-22.83594l-208.80468-141.65233c-4.011719-2.21094-8.535157-3.42187-13.164063-3.52344z"
     style="opacity:.3"
     id="path598412" />
  <g
     transform="translate(24 -.00243544)"
     id="g598418">
    <path
       d="m64.238281 24.003906c-7.425781-0.164062-14.609375 2.539063-19.925781 7.5-5.316406 4.960938-8.3125 11.757813-8.3125 18.859375v283.30078c0.0078 9.41406 5.269531 18.11328 13.808594 22.81641 8.535156 4.70703 19.050781 4.70312 27.589844-4e-3l208.80468-141.63663c8.53907-4.71093 13.79688-13.41406 13.79688-22.83203 0-9.42187-5.25781-18.125-13.79688-22.83594l-208.80468-141.65234c-4.011719-2.210937-8.535157-3.421875-13.164063-3.523437z"
       id="path598414" />
    <path
       d="m 80.37837,74.971363 -6.293753,3.468506 v 104.291831 0 l 7.441061,4.30353 56.988332,-37.98947 v 0 l 8.511,0.65859 57.32859,38.21906 0.48282,7.8217 -0.11443,0.0771 -130.63737,87.09315 v 23.80224 0 l 7.060744,1.7955 169.491936,-112.99616 -2.1354,-8.4663 v 0 l -83.49748,-55.66499 z"
       style="fill:#24aa6e;fill-rule:evenodd"
       id="path598416"
       sodipodi:nodetypes="ccccccccccccccccccccc" />
  </g>
  <path
     transform="scale(.75)"
     d="m130.7793 94.365234v9.999996l121.22656 80.8125 113.7207 75.8125 7.5-5-121.2207-80.8125-121.22656-80.812496zm174.33593 166.625l-174.33593 116.22657v10l181.83593-121.22657-7.5-5z"
     style="fill-rule:evenodd;opacity:.3"
     id="path598420" />
</svg>
