<?xml version="1.0" encoding="UTF-8" standalone="no"?>
<svg
   width="512"
   height="512"
   version="1.1"
   viewBox="0 0 384 384"
   id="svg140420"
   sodipodi:docname="dribble.svg"
   inkscape:version="1.1.2 (0a00cf5339, 2022-02-04)"
   xmlns:inkscape="http://www.inkscape.org/namespaces/inkscape"
   xmlns:sodipodi="http://sodipodi.sourceforge.net/DTD/sodipodi-0.dtd"
   xmlns="http://www.w3.org/2000/svg"
   xmlns:svg="http://www.w3.org/2000/svg">
  <defs
     id="defs140424" />
  <sodipodi:namedview
     id="namedview140422"
     pagecolor="#ffffff"
     bordercolor="#666666"
     borderopacity="1.0"
     inkscape:pageshadow="2"
     inkscape:pageopacity="0.0"
     inkscape:pagecheckerboard="0"
     showgrid="false"
     inkscape:zoom="1.6152344"
     inkscape:cx="255.69045"
     inkscape:cy="256"
     inkscape:window-width="1920"
     inkscape:window-height="1051"
     inkscape:window-x="0"
     inkscape:window-y="29"
     inkscape:window-maximized="1"
     inkscape:current-layer="svg140420" />
  <path
     d="m359.59 192.04c-0.01193 92.551-75.043 167.57-167.59 167.57-92.551 0-167.58-75.016-167.59-167.57-0.015919-92.566 75.023-167.62 167.59-167.62 92.566 0 167.61 75.051 167.59 167.62z"
     fill="#b8174a"
     stroke-width=".96175"
     id="path140412" />
  <path
     d="m 192,335.49 c -79.236,0 -143.66,-64.309 -143.66,-143.43 0,-79.236 64.421,-143.54 143.66,-143.54 79.239,0 143.66,64.309 143.66,143.43 0,79.123 -64.421,143.54 -143.66,143.54 z M 306.07238,209.64763 c -0.93506,-0.30326 3.6552,0.89769 0,0 -11.29833,-2.77476 -34.23252,-7.04254 -60.40179,-4.47828 -2.96279,0.29032 -3.22365,8.37095 -6.25719,8.8485 0.94741,2.59714 -0.88181,-2.53662 0,0 10.74553,30.91069 16.68506,57.01566 19.4055,70.71127 0.83807,4.21911 8.13146,2.38597 8.40492,4.02742 2.31065,-1.54981 -2.19534,1.6987 0,0 21.69981,-16.79074 37.58675,-40.67837 44.10218,-68.16821 0.29868,-1.26019 0.57767,-2.52795 0.83662,-3.80295 0.34917,-1.71922 -0.27547,1.74469 0,0 z M 239.925,304.967 c -0.29249,-1.75488 -0.72789,-4.21843 -1.32611,-7.30626 -2.91932,-15.06877 -9.71585,-45.00465 -22.7004,-79.99959 -0.69023,-1.86024 0,0 -2.12349,-5.62215 2.12349,5.62215 -0.56118,0.22446 -0.78563,0.22446 -1.62482,0.56619 -3.22518,1.14548 -4.80134,1.737 -51.65707,19.38643 -77.33462,51.91066 -86.9859,66.99945 -2.60448,4.07184 2.0842,11.34571 1.6183,12.27729 1.9933,1.55149 -2.08981,-1.42874 0,0 19.67856,13.45353 43.51293,21.34126 69.18194,21.34126 15.25345,0.10101 29.96169,-2.70741 43.4692,-7.85253 1.4997,-0.57125 1.65812,-8.47712 3.12732,-9.10519 z M 97.695273,270.44996 c 0.467171,-0.78484 4.959697,0.67078 7.132417,-2.54188 10.87651,-16.08233 43.05172,-57.6057 95.81131,-74.72408 1.5713,-0.56115 3.2547,-1.0101 4.826,-1.459 -3.0303,-6.9584 -6.3972,-13.917 -9.9886,-20.763 -49.64276,14.82016 -98.105526,17.11852 -117.586291,17.39746 -4.566284,0.0654 -8.788169,7.40594 -8.675939,3.70224 0,1.2346 0,-1.2346 0,0 0.0062,1.73462 0.048,3.46075 0.124802,5.17771 1.242806,27.78301 11.644664,53.163 28.356301,73.21055 1.032122,1.23815 -1.079586,-1.19678 0,0 z m -24.22841,-109.923 c 1.229047,0.0251 3.148089,6.56182 8.448191,6.42397 18.415336,-0.47894 58.840876,-2.99248 103.463946,-14.84493 -15.57473,-27.70775 -32.13878,-51.98435 -40.43637,-63.776387 -2.5249,-3.588224 -9.49194,-3.424856 -10.2252,-4.446013 -1.75936,0.825223 1.71196,-0.904768 0,0 -28.06336,14.831437 -49.601631,40.1858 -59.480856,70.66466 -0.639171,1.97194 -1.229538,3.96533 -1.769711,5.9787 -0.575903,2.14655 0.460111,-2.19022 0,0 z M 168.4757,76.26262 c -0.20208,1.298985 -2.59126,0.240384 0.007,3.878599 8.49165,11.892155 25.19105,36.283761 40.57467,64.557781 43.658,-16.386 62.064,-41.077 64.309,-44.219 -21.661,-19.192 -50.168,-30.864 -81.368,-30.864 -7.7973,0 -15.45448,0.769452 -22.86141,2.142723 -1.97502,0.366175 0.15253,-0.72478 -0.15067,1.224177 z m 122.02854,42.8979 c -0.57632,0.77679 -5.60602,-1.84464 -8.0488,0.8725 -8.49831,9.45277 -28.75258,28.57644 -63.97044,42.95998 2.8058,5.836 5.6116,11.784 8.1929,17.733 0.89785,2.1324 1.7957,4.2648 2.6936,6.285 32.80615,-4.1459 65.39561,0.39348 79.05236,2.74921 3.34938,0.57776 0,0 6.35564,1.17889 -0.0256,-2.19491 -0.10908,-4.37682 -0.249,-6.5442 -1.56799,-24.28918 -10.22627,-46.75318 -24.02626,-65.23438 -1.15086,-1.54126 0,0 0,0 z"
     fill="#ffffff"
     id="path140414"
     sodipodi:nodetypes="ssssscsscsscssscccssccsscscscccscccsccsscscscscsssscscccsssscccscscs" />
  <path
     transform="scale(.75)"
     d="m32.611 250.99c-0.037216 1.685-0.064744 3.3724-0.064453 5.0664 0.01592 123.4 100.05 223.42 223.45 223.42 123.4 0 223.44-100.02 223.45-223.42 3e-4 -1.694-0.02723-3.3814-0.06445-5.0664-2.6402 121.12-101.64 218.49-223.39 218.49-121.75 0-220.75-97.367-223.39-218.49z"
     opacity=".3"
     stroke-width="1.2823"
     id="path140416" />
  <path
     transform="scale(.75)"
     d="m256 32.566c-123.42 0-223.47 100.07-223.45 223.49 2.13e-4 1.6493 0.028688 3.2928 0.064453 4.9336 2.6743-121.08 101.66-218.42 223.39-218.42 121.73 0 220.71 97.342 223.39 218.42 0.03577-1.6408 0.06424-3.2842 0.06445-4.9336 0.02122-123.42-100.03-223.49-223.45-223.49z"
     fill="#fff"
     opacity=".3"
     stroke-width="1.2823"
     id="path140418" />
</svg>
