<?xml version="1.0" encoding="UTF-8" standalone="no"?>
<svg
   width="512"
   height="512"
   version="1.1"
   viewBox="0 0 384 384"
   id="svg38962"
   sodipodi:docname="xemacs.svg"
   inkscape:version="1.1.2 (0a00cf5339, 2022-02-04)"
   xmlns:inkscape="http://www.inkscape.org/namespaces/inkscape"
   xmlns:sodipodi="http://sodipodi.sourceforge.net/DTD/sodipodi-0.dtd"
   xmlns="http://www.w3.org/2000/svg"
   xmlns:svg="http://www.w3.org/2000/svg">
  <sodipodi:namedview
     id="namedview38964"
     pagecolor="#ffffff"
     bordercolor="#666666"
     borderopacity="1.0"
     inkscape:pageshadow="2"
     inkscape:pageopacity="0.0"
     inkscape:pagecheckerboard="0"
     showgrid="false"
     inkscape:zoom="1.6152344"
     inkscape:cx="255.69045"
     inkscape:cy="256"
     inkscape:window-width="1920"
     inkscape:window-height="1051"
     inkscape:window-x="0"
     inkscape:window-y="29"
     inkscape:window-maximized="1"
     inkscape:current-layer="svg38962" />
  <defs
     id="defs38950">
    <clipPath
       id="clipPath38939">
      <rect
         width="384"
         height="384"
         id="rect38937" />
    </clipPath>
    <clipPath
       id="clipPath38943">
      <rect
         width="384"
         height="384"
         id="rect38941" />
    </clipPath>
    <linearGradient
       id="a"
       x1="239.82"
       x2="-85.818"
       y1="193.46"
       y2="595.64"
       gradientUnits="userSpaceOnUse">
      <stop
         stop-color="#8b41aa"
         offset="0"
         id="stop38945" />
      <stop
         stop-color="#be2d5d"
         offset="1"
         id="stop38947" />
    </linearGradient>
  </defs>
  <path
     d="m360 192.01c0-92.781-75.215-168-167.99-168-92.781 0-168 75.215-168 168 0 92.777 75.215 167.99 168 167.99 92.777 0 167.99-75.215 167.99-167.99z"
     fill="url(#a)"
     id="path38952" />
  <path
     d="m126.44 295.5s12.875 6.0586 30.016 8.1953c6.9414 0.86328 33.348 3.8906 53.598 3.8086 0 0 24.66 0.0234 38.273-1.9024 14.242-2.0234 22.309-4.6055 26.801-9.7617 0.11718-1.2266 2.168-5.2305-3.3672-9.0938-14.156-9.875-32.453-12.578-67.996-21.02-39.305-9.8828-51.652-19.344-57.523-26.191-5.5625-6.8633 1.6484-21.117 33.32-28.109 16.035-3.9023 72.438-5.9258 72.438-5.9258-17.133-13.602-45.984-36.648-52.559-41.828-5.7656-4.543-15.059-11.516-16.059-17.742-1.3438-6.0664 8.1992-8.9844 13.254-9.3203 16.281-1.125 38.516 3.1836 58.281 7.1133 9.9336 1.9766 11.68 1.6836 11.68 1.6836 14.148 0.67187 27.965-9.1367 27.402-24.746-0.11328-15.832-18.754-28.527-36.277-29.082-17.723-0.0781-59.723-0.0781-59.723-0.0781 47.391 9.7695 57.703 14.695 60.176 20.402 1.4609 3.3711-2.4375 6.7188-15.492 6.0664-14.219-0.71484-43.355-4.1562-43.355-4.1562-27.73-4.2656-44.652-8.3086-53.074 2.6953-5.5039 7.1875 0.78515 15.945 3.2578 21.109 11.004 19.203 27.633 32.379 39.707 41.664 4.5469 3.4922 18.418 11.227 18.418 11.227-43.121-11.789-79.883-5.1641-101.67 6.289-25.043 14.824-20.758 39.836 18.977 63.223 23.473 13.813 37.555 20.449 75.98 25.168 22.461 3.582 27.012 5.0469 26.84 6.9141-0.24217 2.6328-27.785 3.6289-35.027 4.1289-18.422 1.2734-66.066-0.73047-66.301-0.73047z"
     fill="#040404"
     opacity=".3"
     id="path38954" />
  <path
     d="m 145.34592,294.20502 c 0,0 -11.3013,-2.62651 0,0 3.40364,0.79103 7.14258,1.49571 11.11008,1.99028 6.9414,0.86328 33.348,3.8906 53.598,3.8086 0,0 24.66,0.0234 38.273,-1.9024 14.242,-2.0234 22.309,-4.6055 26.801,-9.7617 0.11718,-1.2266 2.168,-5.2305 -3.3672,-9.0938 -14.156,-9.875 -32.453,-12.578 -67.996,-21.02 -39.305,-9.8828 -51.652,-19.344 -57.523,-26.191 -5.5625,-6.8633 1.6484,-21.117 33.32,-28.109 16.035,-3.9023 72.438,-5.9258 72.438,-5.9258 -17.133,-13.602 -45.984,-36.648 -52.559,-41.828 -5.7656,-4.543 -15.059,-11.516 -16.059,-17.742 -1.3438,-6.0664 8.1992,-8.9844 13.254,-9.3203 16.281,-1.125 38.516,3.1836 58.281,7.1133 9.9336,1.9766 11.68,1.6836 11.68,1.6836 14.148,0.67187 27.965,-9.1367 27.402,-24.746 -0.11328,-15.832 -18.754,-28.527 -36.277,-29.082 -9.98859,-0.04403 -27.6885,-0.06325 -41.23485,-0.07163 -10.48927,-0.0065 0,0 0,0 6.61941,1.36457 -5.97272,2.628143 -0.72042,3.819034 32.35102,7.335173 40.28069,11.666607 42.40827,16.576466 1.4609,3.37111 -2.4375,6.71881 -15.492,6.06641 -14.219,-0.71485 -43.355,-4.15621 -43.355,-4.15621 -27.73,-4.2656 -44.652,-8.308593 -53.074,2.6953 -5.5039,7.18751 0.78515,15.94501 3.2578,21.109 11.004,19.203 27.633,32.379 39.707,41.66401 4.5469,3.49219 18.418,11.227 18.418,11.227 -43.121,-11.789 -79.883,-5.1641 -101.67,6.2891 -25.043,14.82399 -20.758,39.83599 18.977,63.223 23.473,13.812 37.555,20.449 75.98,25.16799 22.461,3.58201 27.012,5.04691 26.84,6.91411 -0.24218,2.6328 -27.785,3.6289 -35.027,4.1289 -10.60747,0.73323 -30.90351,0.37988 -46.25862,-0.0518 -11.31214,-0.31805 0.0997,0 0,0 z"
     fill="#ffffff"
     id="path38956"
     sodipodi:nodetypes="csccccccccccccccccscsccccccccccccscc" />
  <path
     transform="scale(.75)"
     d="m32.078 251.01c-0.036438 1.663-0.0625 3.3283-0.0625 5 0 123.7 100.29 223.99 223.99 223.99 123.7 0 223.99-100.29 223.99-223.99 0-1.6717-0.02606-3.337-0.0625-5-2.66 121.39-101.9 218.99-223.93 218.99-122.04 0-221.27-97.597-223.93-218.99z"
     opacity=".3"
     stroke-width="1.3333"
     id="path38958" />
  <path
     transform="scale(.75)"
     d="m256.01 32.016c-123.71 0-223.99 100.29-223.99 223.99 0 1.6717 0.026062 3.3371 0.0625 5 2.66-121.4 101.9-218.99 223.93-218.99 122.03 0 221.27 97.596 223.93 218.99 0.03644-1.6629 0.0625-3.3283 0.0625-5 0-123.71-100.29-223.99-223.99-223.99z"
     fill="#fff"
     opacity=".2"
     stroke-width="1.3333"
     id="path38960" />
</svg>
