<?xml version="1.0" encoding="UTF-8" standalone="no"?>
<svg
   width="512"
   height="512"
   version="1.1"
   viewBox="0 0 384 384"
   id="svg1622173"
   sodipodi:docname="ghostwriter.svg"
   inkscape:version="1.1.2 (0a00cf5339, 2022-02-04)"
   xmlns:inkscape="http://www.inkscape.org/namespaces/inkscape"
   xmlns:sodipodi="http://sodipodi.sourceforge.net/DTD/sodipodi-0.dtd"
   xmlns:xlink="http://www.w3.org/1999/xlink"
   xmlns="http://www.w3.org/2000/svg"
   xmlns:svg="http://www.w3.org/2000/svg">
  <sodipodi:namedview
     id="namedview1622175"
     pagecolor="#ffffff"
     bordercolor="#666666"
     borderopacity="1.0"
     inkscape:pageshadow="2"
     inkscape:pageopacity="0.0"
     inkscape:pagecheckerboard="0"
     showgrid="false"
     inkscape:zoom="1.6152344"
     inkscape:cx="255.69045"
     inkscape:cy="256"
     inkscape:window-width="1920"
     inkscape:window-height="1051"
     inkscape:window-x="0"
     inkscape:window-y="29"
     inkscape:window-maximized="1"
     inkscape:current-layer="g1622159" />
  <defs
     id="defs1622151">
    <filter
       id="alpha"
       x="0"
       y="0"
       width="1"
       height="1">
      <feColorMatrix
         in="SourceGraphic"
         values="0 0 0 0 1 0 0 0 0 1 0 0 0 0 1 0 0 0 1 0"
         id="feColorMatrix1622125" />
    </filter>
    <clipPath
       id="clipPath1622130">
      <rect
         width="384"
         height="384"
         id="rect1622128" />
    </clipPath>
    <clipPath
       id="clipPath1622134">
      <rect
         width="384"
         height="384"
         id="rect1622132" />
    </clipPath>
    <clipPath
       id="clipPath1622138">
      <rect
         width="384"
         height="384"
         id="rect1622136" />
    </clipPath>
    <mask
       id="b">
      <g
         filter="url(#alpha)"
         id="g1622142">
        <rect
           width="384"
           height="384"
           fill-opacity=".2"
           id="rect1622140" />
      </g>
    </mask>
    <clipPath
       id="c">
      <rect
         width="384"
         height="384"
         id="rect1622145" />
    </clipPath>
    <g
       id="a"
       clip-path="url(#c)">
      <path
         d="m192 24c-52.176 0.042969-100.88 28.168-129.77 74.953-4.4922-1.9414-9.332-2.9453-14.227-2.9531-19.883 0-36 16.117-36 36 0.015625 0.96875 0.070312 1.9414 0.16406 2.9062 1.6055-18.602 17.164-32.891 35.836-32.906 4.8945 0.007812 9.7344 1.0117 14.227 2.9531 28.898-46.785 77.598-74.91 129.77-74.953 52.18 0.046875 100.88 28.184 129.77 74.977 4.4922-1.9492 9.332-2.9609 14.227-2.9766 18.684 0.011719 34.254 14.312 35.848 32.93 0.089844-0.97266 0.14062-1.9531 0.15234-2.9297 0-19.883-16.117-36-36-36-4.8945 0.015625-9.7344 1.0273-14.227 2.9766-28.891-46.793-77.594-74.93-129.77-74.977zm155.27 154.12c-0.39453 0.14844-0.79297 0.28906-1.1953 0.42188 0.21094 1.9336 0.39062 3.8711 0.53906 5.8125 0.21875-0.074219 0.4375-0.15234 0.65625-0.23438 0.33594 3.9453 0.54297 7.8984 0.62109 11.859 0.050781-1.3281 0.085938-2.6562 0.10547-3.9844-0.0625-4.6328-0.30859-9.2617-0.72656-13.875zm-310.48 0.023438c-0.44141 4.6016-0.70703 9.2227-0.79688 13.852 0.039062 1.0938 0.089844 2.1875 0.15234 3.2812 0.10156-3.7188 0.31641-7.4297 0.64453-11.133 0.19531 0.066406 0.39062 0.13281 0.58594 0.19922 0.17188-1.9375 0.375-3.8711 0.60938-5.8008-0.40234-0.125-0.80078-0.25781-1.1953-0.39844zm292.71 115.38c-0.23047 3.0156-0.23437 6.0469-0.11719 9.0703 0.039063-1.0234 0.039063-2.0508 0.11719-3.0703 1.293 15.664 7.7266 30.508 21.961 38.684 3.0508-0.76562 6.4688-1.5781 8.5312-2.2148-20.301-6.5547-28.965-23.957-30.492-42.469z"
         fill="#fff"
         fill-rule="evenodd"
         id="path1622148" />
    </g>
  </defs>
  <g
     fill-rule="evenodd"
     id="g1622159">
    <path
       d="m192 31.5c-54.174 0-101.89 29.743-129.86 74.887-4.3421-1.857-9.1216-2.8872-14.143-2.8872-19.883 0-36 16.117-36 36 0 16.333 10.879 30.116 25.784 34.521-1.1739 8.3089-1.7842 16.817-1.7842 25.479 0 92.785 69.844 168 156 168 4.7019 0 9.3522-0.23663 13.948-0.67529l-0.0381 0.0308c74.316-3.9141 131.83-16.465 154.09-23.356-30.035-9.7017-35.029-43.222-28.427-68.905 10.505-22.6 16.427-48.101 16.427-75.095 0-8.6621-0.61029-17.171-1.7842-25.479 14.905-4.4043 25.784-18.188 25.784-34.521 0-19.883-16.117-36-36-36-5.0214 0-9.801 1.0302-14.143 2.8872-27.967-45.145-75.683-74.887-129.86-74.887z"
       fill="#303030"
       opacity=".3"
       id="path1622153" />
    <path
       d="M 192,24 C 137.826,24 90.11,53.743 62.14,98.887 57.7979,97.03 53.0184,95.9998 47.997,95.9998 c -19.883,0 -36,16.117 -36,36 0,16.333 10.879,30.116 25.784,34.521 -1.1739,8.3089 -1.7842,16.817 -1.7842,25.479 0,92.785 69.844,168 156,168 4.7019,0 9.3522,-0.23663 13.948,-0.67529 l -0.0381,0.0308 c 67.70211,-3.56576 121.45979,-14.29942 147.32211,-21.39176 2.52652,-0.69286 -2.40132,-4.35509 -0.42025,-4.96837 -2.57765,-0.83261 2.21728,1.16347 0,0 -23.61864,-12.39337 -27.27427,-42.42202 -21.23886,-65.90087 10.505,-22.6 16.427,-48.101 16.427,-75.095 0,-8.6621 -0.61029,-17.171 -1.7842,-25.479 14.905,-4.4043 25.784,-18.188 25.784,-34.521 0,-19.883 -16.117,-36 -36,-36 -5.0214,0 -9.801,1.0302 -14.143,2.8872 -27.967,-45.145 -75.683,-74.887 -129.86,-74.887 z"
       fill="#ffffff"
       opacity="0.2"
       stroke="#000000"
       stroke-width="7.5"
       id="path1622155"
       sodipodi:nodetypes="ccsscssccscscscssccc" />
    <path
       d="M 192,24 C 137.826,24 90.11,53.743 62.14,98.887 57.7979,97.03 53.0184,95.9998 47.997,95.9998 c -19.883,0 -36,16.117 -36,36 0,16.333 10.879,30.116 25.784,34.521 -1.1739,8.3089 -1.7842,16.817 -1.7842,25.479 0,92.785 69.844,168 156,168 4.7019,0 9.3522,-0.23663 13.948,-0.67529 l -10.31109,-0.39411 c 63.98937,-3.37021 115.52178,-13.14373 142.81792,-20.19387 4.40507,-1.13776 -2.92559,-7.93332 0.16756,-8.89086 -4.435,-1.43257 3.00449,2.35353 0,0 -17.34263,-13.58517 -12.67663,-40.86075 -7.04949,-62.75136 10.505,-22.6 16.427,-48.101 16.427,-75.095 0,-8.6621 -0.61029,-17.171 -1.7842,-25.479 14.905,-4.4043 25.784,-18.188 25.784,-34.521 0,-19.883 -16.117,-36 -36,-36 -5.0214,0 -9.801,1.0302 -14.143,2.8872 -27.967,-45.145 -75.683,-74.887 -129.86,-74.887 z"
       fill="#ffffff"
       id="path1622157"
       sodipodi:nodetypes="ccsscssccscscscssccc" />
  </g>
  <g
     fill-rule="evenodd"
     id="g1622169">
    <path
       d="m167.05 157.81c4.543-26.281-7.4648-50.406-26.816-53.887-19.355-3.4805-38.727 15.004-43.27 41.281-4.543 26.277 7.4648 50.402 26.816 53.887 19.355 3.4805 38.727-15.004 43.27-41.281z"
       opacity=".3"
       id="path1622161" />
    <path
       d="m167.05 150.31c4.543-26.281-7.4648-50.406-26.816-53.887-19.355-3.4805-38.727 15.004-43.27 41.281-4.543 26.277 7.4648 50.402 26.816 53.887 19.355 3.4805 38.727-15.004 43.27-41.281z"
       id="path1622163" />
    <path
       d="m287.03 145.23c-4.5625-26.281-23.949-44.777-43.297-41.312-19.348 3.4648-31.336 27.582-26.773 53.863 4.5625 26.281 23.945 44.777 43.297 41.312 19.348-3.4648 31.336-27.582 26.773-53.863z"
       opacity=".3"
       id="path1622165" />
    <path
       d="m287.03 137.73c-4.5625-26.281-23.949-44.777-43.297-41.313-19.348 3.4648-31.336 27.582-26.773 53.863s23.945 44.777 43.297 41.312c19.348-3.4648 31.336-27.582 26.773-53.863z"
       id="path1622167" />
  </g>
  <use
     width="100%"
     height="100%"
     mask="url(#b)"
     xlink:href="#a"
     id="use1622171"
     transform="rotate(10.781265,192.0002,181.10372)"
     x="0"
     y="0" />
</svg>
