<?xml version="1.0" encoding="UTF-8" standalone="no"?>
<svg
   width="512"
   height="512"
   version="1.1"
   viewBox="0 0 384 384"
   id="svg316456"
   sodipodi:docname="xfce4-indicator-plugin.svg"
   inkscape:version="1.1.2 (0a00cf5339, 2022-02-04)"
   xmlns:inkscape="http://www.inkscape.org/namespaces/inkscape"
   xmlns:sodipodi="http://sodipodi.sourceforge.net/DTD/sodipodi-0.dtd"
   xmlns="http://www.w3.org/2000/svg"
   xmlns:svg="http://www.w3.org/2000/svg">
  <sodipodi:namedview
     id="namedview316458"
     pagecolor="#ffffff"
     bordercolor="#666666"
     borderopacity="1.0"
     inkscape:pageshadow="2"
     inkscape:pageopacity="0.0"
     inkscape:pagecheckerboard="0"
     showgrid="false"
     inkscape:zoom="1.6152344"
     inkscape:cx="255.69045"
     inkscape:cy="256"
     inkscape:window-width="1920"
     inkscape:window-height="1051"
     inkscape:window-x="0"
     inkscape:window-y="29"
     inkscape:window-maximized="1"
     inkscape:current-layer="svg316456" />
  <defs
     id="defs316444">
    <clipPath
       id="clipPath316434">
      <rect
         width="384"
         height="384"
         id="rect316432" />
    </clipPath>
    <clipPath
       id="clipPath316438">
      <rect
         width="384"
         height="384"
         id="rect316436" />
    </clipPath>
    <clipPath
       id="clipPath316442">
      <rect
         width="384"
         height="384"
         id="rect316440" />
    </clipPath>
  </defs>
  <path
     d="m360.75 192c0-93.199-75.551-168.75-168.75-168.75-93.199 0-168.75 75.551-168.75 168.75 0 93.199 75.551 168.75 168.75 168.75 93.199 0 168.75-75.551 168.75-168.75z"
     fill="#357af0"
     id="path316446" />
  <path
     d="m165.98 272.54h29.836v37.332h-29.836zm28.953-21.602h-28.07v-22.633c0-9.8984 1.3711-18.031 4.1133-24.398s8.5234-13.766 17.344-22.191l13.227-13.082c5.5859-5.1914 9.6016-10.09 12.051-14.695 2.5469-4.6055 3.8203-9.3086 3.8203-14.109 0-8.7187-3.2305-15.773-9.6992-21.164-6.3672-5.3867-14.844-8.082-25.426-8.082-7.7383 0-16.02 1.7148-24.836 5.1445-8.7227 3.4297-17.832 8.4258-27.336 14.988v-27.629c9.2109-5.582 18.516-9.7461 27.922-12.492 9.5039-2.7422 19.305-4.1133 29.395-4.1133 18.027 0 32.48 4.75 43.355 14.254 10.973 9.5039 16.461 22.047 16.461 37.625 0 7.4453-1.7656 14.551-5.293 21.309-3.5274 6.6641-9.6992 14.207-18.516 22.633l-12.934 12.641c-4.6055 4.6055-7.8867 8.2305-9.8477 10.875-1.8594 2.5469-3.1836 5.0469-3.9688 7.4961-0.58594 2.0586-1.0273 4.5547-1.3203 7.4961-0.29688 2.9375-0.4414 6.957-0.4414 12.051z"
     opacity=".3"
     id="path316448" />
  <path
     d="m 170.07185,265.04 v 0 h 21.85982 l 3.88433,5.18806 v 0 27.02519 l -3.819,5.11875 v 0 h -21.12484 v 0 l -4.89216,-4.74024 0,-28.07869 z m 24.86119,-25.03987 -4.99033,3.43787 -18.88722,0 v 0 L 166.863,239.12893 V 220.805 c 0,-9.8984 1.3711,-18.031 4.1133,-24.398 2.7422,-6.367 8.5234,-13.766 17.344,-22.191 l 13.227,-13.082 c 5.5859,-5.1914 9.6016,-10.09 12.051,-14.695 2.5469,-4.6055 3.8203,-9.3086 3.8203,-14.109 0,-8.7187 -3.2305,-15.773 -9.6992,-21.164 -6.3672,-5.3867 -14.844,-8.082 -25.426,-8.082 -7.7383,0 -16.02,1.7148 -24.836,5.1445 -7.57572,2.97872 -15.44306,7.13898 -23.60732,12.48058 -1.23608,0.80873 1.24971,-0.86288 0,0 l -3.72868,-2.84646 V 99.778638 l 3.72388,-6.367736 c 1.23958,-0.751213 -1.24301,0.699852 0,0 7.99337,-4.500507 16.05796,-7.939039 24.19812,-10.315402 9.5039,-2.7422 19.305,-4.1133 29.395,-4.1133 18.027,0 32.48,4.75 43.355,14.254 10.973,9.5039 16.461,22.047 16.461,37.625 0,7.4453 -1.7656,14.551 -5.293,21.309 -3.5274,6.6641 -9.6992,14.207 -18.516,22.633 l -12.934,12.641 c -4.6055,4.6055 -7.8867,8.2305 -9.8477,10.875 -1.8594,2.5469 -3.1836,5.0469 -3.9688,7.4961 -0.58594,2.0586 -1.0273,4.5547 -1.3203,7.4961 -0.29688,2.9375 -0.44141,6.957 -0.44141,12.051 z"
     fill="#ffffff"
     id="path316450"
     sodipodi:nodetypes="ccccccccccccccccccsscccscscsccccscscsccccccccc" />
  <path
     transform="scale(.75)"
     d="m31.064 251c-0.036282 1.6632-0.064453 3.3281-0.064453 5 0 124.27 100.73 225 225 225 124.27 0 225-100.73 225-225 0-1.6719-0.02817-3.3368-0.06445-5-2.6604 121.96-102.34 220-224.94 220-122.59 0-222.28-98.045-224.94-220z"
     opacity=".3"
     stroke-width="1.3333"
     id="path316452" />
  <path
     transform="scale(.75)"
     d="m256 31c-124.27 0-225 100.73-225 225 0 1.6719 0.028171 3.3368 0.064453 5 2.6604-121.96 102.34-220 224.94-220 122.59 0 222.28 98.045 224.94 220 0.03628-1.6632 0.06445-3.3281 0.06445-5 0-124.27-100.73-225-225-225z"
     fill="#fff"
     opacity=".3"
     stroke-width="1.3333"
     id="path316454" />
</svg>
