<?xml version="1.0" encoding="UTF-8" standalone="no"?>
<svg
   width="32"
   height="32"
   version="1"
   id="svg24928"
   sodipodi:docname="hamster-indicator.svg"
   inkscape:version="1.1.2 (0a00cf5339, 2022-02-04)"
   xmlns:inkscape="http://www.inkscape.org/namespaces/inkscape"
   xmlns:sodipodi="http://sodipodi.sourceforge.net/DTD/sodipodi-0.dtd"
   xmlns="http://www.w3.org/2000/svg"
   xmlns:svg="http://www.w3.org/2000/svg">
  <defs
     id="defs24932" />
  <sodipodi:namedview
     id="namedview24930"
     pagecolor="#ffffff"
     bordercolor="#666666"
     borderopacity="1.0"
     inkscape:pageshadow="2"
     inkscape:pageopacity="0.0"
     inkscape:pagecheckerboard="0"
     showgrid="false"
     inkscape:zoom="25.84375"
     inkscape:cx="15.980653"
     inkscape:cy="16"
     inkscape:window-width="1920"
     inkscape:window-height="1051"
     inkscape:window-x="0"
     inkscape:window-y="29"
     inkscape:window-maximized="1"
     inkscape:current-layer="svg24928" />
  <rect
     fill="#5584bb"
     width="28"
     height="28"
     x="2"
     y="2"
     rx="14"
     ry="14"
     id="rect24882" />
  <path
     fill="#fff"
     opacity=".2"
     d="m16 2c-7.756 0-14 6.244-14 14 0 0.169 0.0195 0.333 0.0254 0.5 0.2637-7.5206 6.3874-13.5 13.975-13.5 7.587 0 13.711 5.9794 13.975 13.5 0.005-0.167 0.025-0.331 0.025-0.5 0-7.756-6.244-14-14-14z"
     id="path24884" />
  <path
     opacity=".2"
     d="m2.0254 16.5c-0.0059 0.167-0.0254 0.331-0.0254 0.5 0 7.756 6.244 14 14 14s14-6.244 14-14c0-0.16884-0.01952-0.33264-0.02539-0.5-0.264 7.521-6.388 13.5-13.975 13.5-7.5872 0-13.711-5.979-13.975-13.5z"
     id="path24886" />
  <path
     opacity=".2"
     d="m12 10.077a8 8 0 0 0 -3.3673 10.027l13.733-7.929a8 8 0 0 0 -10.366 -2.098zm-2.3656 11.758a8 8 0 0 0 10.366 2.098 8 8 0 0 0 3.367 -10.027l-13.733 7.929z"
     id="path24888" />
  <path
     fill="#ffffff"
     d="m 12,9.0718 c -3.3086834,1.914454 -4.7767842,5.880022 -3.5836217,9.452916 0.064329,0.19263 0.6696393,0.07624 0.7495679,0.266205 v 0 L 21.947897,11.411026 v 0 c -0.09985,-0.131639 0.214732,-0.500618 0.108337,-0.624442 C 19.568684,7.8915447 15.347321,7.1439502 11.9997,9.0716 Z M 9.9930018,21.269646 c 0.1151492,0.151806 -0.1238147,-0.141404 0,0 2.4937612,2.848015 6.6817612,3.573212 10.0073982,1.658154 3.348195,-1.937472 4.811442,-5.975363 3.53932,-9.581101 -0.05272,-0.149435 0.06218,0.147771 0,0 l -0.712124,-0.134233 -12.655327,7.306785 z"
     id="path24890"
     sodipodi:nodetypes="csccccscccscscccc" />
  <g
     opacity=".2"
     transform="translate(0,1)"
     id="g24908">
    <rect
       width="4"
       height="2"
       x="14"
       y="4"
       id="rect24892" />
    <rect
       width="4"
       height="2"
       x="14"
       y="26"
       id="rect24894" />
    <rect
       width="4"
       height="2"
       x="14"
       y="-28"
       transform="rotate(90)"
       id="rect24896" />
    <rect
       width="4"
       height="2"
       x="14"
       y="-6"
       transform="rotate(90)"
       id="rect24898" />
    <rect
       width="4"
       height="2"
       x="20.63"
       y="-12"
       transform="rotate(45)"
       id="rect24900" />
    <rect
       width="4"
       height="2"
       x="20.63"
       y="10"
       transform="rotate(45)"
       id="rect24902" />
    <rect
       width="4"
       height="2"
       x="-2"
       y="-34.63"
       transform="rotate(135)"
       id="rect24904" />
    <rect
       width="4"
       height="2"
       x="-2"
       y="-12.63"
       transform="rotate(135)"
       id="rect24906" />
  </g>
  <g
     fill="#fff"
     id="g24926">
    <rect
       width="4"
       height="2"
       x="14"
       y="4"
       id="rect24910"
       ry="1" />
    <rect
       width="4"
       height="2"
       x="14"
       y="26"
       id="rect24912"
       ry="1" />
    <rect
       width="4"
       height="2"
       x="14"
       y="-28"
       transform="rotate(90)"
       id="rect24914"
       ry="0.73252344" />
    <rect
       width="4"
       height="2"
       x="14"
       y="-6"
       transform="rotate(90)"
       id="rect24916"
       ry="0.66877645"
       rx="0.93602395" />
    <rect
       width="4"
       height="2"
       x="20.629999"
       y="-12"
       transform="rotate(45)"
       id="rect24918"
       ry="0.57499772" />
    <rect
       width="4"
       height="2"
       x="20.629999"
       y="10"
       transform="rotate(45)"
       id="rect24920"
       ry="0.58224958" />
    <rect
       width="4"
       height="2"
       x="-2"
       y="-34.630001"
       transform="rotate(135)"
       id="rect24922"
       ry="0.66280574" />
    <rect
       width="4"
       height="2"
       x="-2"
       y="-12.63"
       transform="rotate(135)"
       id="rect24924"
       ry="0.7269544" />
  </g>
</svg>
