<?xml version="1.0" encoding="UTF-8" standalone="no"?>
<svg
   width="32"
   height="32"
   version="1"
   id="svg51041"
   sodipodi:docname="irc-chat.svg"
   inkscape:version="1.1.2 (0a00cf5339, 2022-02-04)"
   xmlns:inkscape="http://www.inkscape.org/namespaces/inkscape"
   xmlns:sodipodi="http://sodipodi.sourceforge.net/DTD/sodipodi-0.dtd"
   xmlns="http://www.w3.org/2000/svg"
   xmlns:svg="http://www.w3.org/2000/svg">
  <defs
     id="defs51045" />
  <sodipodi:namedview
     id="namedview51043"
     pagecolor="#ffffff"
     bordercolor="#666666"
     borderopacity="1.0"
     inkscape:pageshadow="2"
     inkscape:pageopacity="0.0"
     inkscape:pagecheckerboard="0"
     showgrid="false"
     inkscape:zoom="25.84375"
     inkscape:cx="15.980653"
     inkscape:cy="16"
     inkscape:window-width="1920"
     inkscape:window-height="1051"
     inkscape:window-x="0"
     inkscape:window-y="29"
     inkscape:window-maximized="1"
     inkscape:current-layer="svg51041" />
  <path
     style="opacity:0.2"
     d="M 11.5,4 C 10.669,4 10,4.669 10,5.5 l 0,14 c 0,0.831 0.669,1.5 1.5,1.5 l 14,0 C 26.331,21 27,20.331 27,19.5 L 27,7 30,4 11.5,4 Z"
     id="path51025" />
  <path
     style="opacity:0.2"
     d="m 2,13 3,3 0,12.5 C 5,29.331 5.669,30 6.5,30 l 14,0 c 0.831,0 1.5,-0.669 1.5,-1.5 l 0,-14 C 22,13.669 21.331,13 20.5,13 L 2,13 Z"
     id="path51027" />
  <path
     style="fill:#4bae4f"
     d="M 11.5,3 C 10.669,3 10,3.669 10,4.5 v 14 c 0,0.831 0.669,1.5 1.5,1.5 h 14 c 0.831,0 1.5,-0.669 1.5,-1.5 v -12.1189635 0 L 27.297491,5.7025092 29.342787,3.6572133 29.218627,3 v 0 z"
     id="path51029"
     sodipodi:nodetypes="ssssssccccccs" />
  <path
     style="opacity:0.1;fill:#ffffff"
     d="M 11.5,3 C 10.669,3 10,3.669 10,4.5 v 1 C 10,4.669 10.669,4 11.5,4 H 29 l -0.03621,-1 v 0 z"
     id="path51031"
     sodipodi:nodetypes="sscscccs" />
  <path
     style="fill:#8ac249"
     d="m 2.6286004,12.6286 v 0 l 2.0932127,2.093213 v 0 0 L 5,15.760363 V 27.5 C 5,28.331 5.669,29 6.5,29 h 14 c 0.831,0 1.5,-0.669 1.5,-1.5 v -14 C 22,12.669 21.331,12 20.5,12 H 2.7655234 Z"
     id="path51033"
     sodipodi:nodetypes="ccccccsssssscc" />
  <path
     fill="#ffffff"
     opacity="0.1"
     d="m 20.5,12 c 0.831,0 1.5,0.669 1.5,1.5 v 1 C 22,13.669 21.331,13 20.5,13 H 3 l 0.00317,-1 v 0 z"
     id="path51035"
     sodipodi:nodetypes="sscscccs" />
  <path
     style="opacity:0.2;fill-rule:evenodd"
     d="m 11.47075,16 -0.5293,3 -2.9414,0 0,1 2.7656,0 L 10.2344,23 8,23 l 0,1 2.0586,0 -0.5293,3 1,0 0.5293,-3 2.5,0 -0.52929,3 1,0 0.52929,-3 3.4414,0 0,-1 -3.2656,0 0.53124,-3 2.7344,0 0,-1 -2.5586,0 0.52929,-3 -1,0 -0.52929,3 -2.5,0 0.52929,-3 z m 0.29492,4 2.5,0 -0.53124,3 -2.5,0 z"
     id="path51037" />
  <path
     style="fill:#ffffff;fill-rule:evenodd"
     d="m 11.47075,15 -0.5293,3 -2.9414,0 0,1 2.7656,0 L 10.2344,22 8,22 l 0,1 2.0586,0 -0.5293,3 1,0 0.5293,-3 2.5,0 -0.52929,3 1,0 0.52929,-3 3.4414,0 0,-1 -3.2656,0 0.53124,-3 2.7344,0 0,-1 -2.5586,0 0.52929,-3 -1,0 -0.52929,3 -2.5,0 0.52929,-3 z m 0.29492,4 2.5,0 -0.53124,3 -2.5,0 z"
     id="path51039" />
</svg>
