<?xml version="1.0" encoding="UTF-8" standalone="no"?>
<svg
   width="32"
   height="32"
   version="1"
   id="svg204810"
   sodipodi:docname="k3b.svg"
   inkscape:version="1.1.2 (0a00cf5339, 2022-02-04)"
   xmlns:inkscape="http://www.inkscape.org/namespaces/inkscape"
   xmlns:sodipodi="http://sodipodi.sourceforge.net/DTD/sodipodi-0.dtd"
   xmlns="http://www.w3.org/2000/svg"
   xmlns:svg="http://www.w3.org/2000/svg">
  <defs
     id="defs204814" />
  <sodipodi:namedview
     id="namedview204812"
     pagecolor="#ffffff"
     bordercolor="#666666"
     borderopacity="1.0"
     inkscape:pageshadow="2"
     inkscape:pageopacity="0.0"
     inkscape:pagecheckerboard="0"
     showgrid="false"
     inkscape:zoom="25.84375"
     inkscape:cx="15.980653"
     inkscape:cy="16"
     inkscape:window-width="1920"
     inkscape:window-height="1051"
     inkscape:window-x="0"
     inkscape:window-y="29"
     inkscape:window-maximized="1"
     inkscape:current-layer="svg204810" />
  <path
     opacity=".2"
     d="m16 3c-7.756 0-14 6.244-14 14s6.244 14 14 14 14-6.244 14-14-6.244-14-14-14zm0 8a6 6 0 0 1 6 6 6 6 0 0 1 -6 6 6 6 0 0 1 -6 -6 6 6 0 0 1 6 -6z"
     id="path204796" />
  <path
     fill="#848484"
     d="m16 8.5a7.5 7.5 0 0 0 -7.5 7.5 7.5 7.5 0 0 0 7.5 7.5 7.5 7.5 0 0 0 7.5 -7.5 7.5 7.5 0 0 0 -7.5 -7.5zm0 4.5c1.6569 0 3 1.3431 3 3s-1.3431 3-3 3-3-1.3431-3-3 1.3431-3 3-3z"
     id="path204798" />
  <path
     fill="#e4e4e4"
     d="m16 2c-7.756 0-14 6.244-14 14s6.244 14 14 14 14-6.244 14-14-6.244-14-14-14zm0 8a6 6 0 0 1 6 6 6 6 0 0 1 -6 6 6 6 0 0 1 -6 -6 6 6 0 0 1 6 -6z"
     id="path204800" />
  <path
     fill="#fff"
     opacity=".2"
     d="m16 2c-7.756 0-14 6.244-14 14 0 0.169 0.0195 0.333 0.0254 0.5 0.2637-7.5206 6.3874-13.5 13.975-13.5 7.587 0 13.711 5.9794 13.975 13.5 0.005-0.167 0.025-0.331 0.025-0.5 0-7.756-6.244-14-14-14zm-5.975 14.498a6 6 0 0 0 -0.025 0.502 6 6 0 0 0 6 6 6 6 0 0 0 6 -6 6 6 0 0 0 -0.025 -0.498 6 6 0 0 1 -5.975 5.498 6 6 0 0 1 -5.975 -5.502z"
     id="path204802" />
  <circle
     fill="#ff5722"
     cx="24"
     cy="23"
     r="8"
     id="circle204804" />
  <path
     fill="#ffffff"
     d="M 24.927,19 C 22.473,20 21,22.344 21,24 c 0,0.959849 0.442738,1.813584 1.131509,2.362041 0.486198,0.387153 1.094992,0.62219 1.757191,0.635059 -0.262338,-0.0052 -1.913108,-1.161006 -1.378509,-0.607144 0.18019,0.186683 0.251643,0.07502 0.124343,-0.153918 C 22.513749,26.018817 22.4448,25.76774 22.4448,25.5 c 0,-0.82843 0.73631,-2 1.9635,-2.5 0,1.75 1.3176,2.003 0.98174,3 -0.03148,0.09345 -0.07045,0.18318 -0.117205,0.267882 -0.109497,0.198356 0.495275,0.200523 0.296466,0.327047 -0.229875,0.146294 -1.279029,0.402028 -1.639461,0.404091 0.0048,2.5e-5 11.121358,-1.707679 0.01529,5.72e-4 -1.498361,0.230466 1.252279,-0.154396 1.703498,-0.418587 0.615686,-0.360486 1.02074,-0.925393 1.241702,-1.581413 0.6717,-1.9941 -1.9635,-2.5 -1.9635,-6 z"
     id="path204806"
     sodipodi:nodetypes="csscsssccsscssccc" />
  <path
     opacity=".2"
     d="m31.979 23.424a8 8 0 0 1 -7.979 7.576 8 8 0 0 1 -7.979 -7.424 8 8 0 0 0 -0.021 0.424 8 8 0 0 0 8 8 8 8 0 0 0 8 -8 8 8 0 0 0 -0.02148 -0.57617z"
     id="path204808" />
</svg>
