<?xml version="1.0" encoding="UTF-8" standalone="no"?>
<svg
   width="512"
   height="512"
   version="1.1"
   viewBox="0 0 135.47 135.47"
   id="svg210176"
   sodipodi:docname="kali-powershell-empire.svg"
   inkscape:version="1.1.2 (0a00cf5339, 2022-02-04)"
   xmlns:inkscape="http://www.inkscape.org/namespaces/inkscape"
   xmlns:sodipodi="http://sodipodi.sourceforge.net/DTD/sodipodi-0.dtd"
   xmlns="http://www.w3.org/2000/svg"
   xmlns:svg="http://www.w3.org/2000/svg">
  <defs
     id="defs210180" />
  <sodipodi:namedview
     id="namedview210178"
     pagecolor="#ffffff"
     bordercolor="#666666"
     borderopacity="1.0"
     inkscape:pageshadow="2"
     inkscape:pageopacity="0.0"
     inkscape:pagecheckerboard="0"
     showgrid="false"
     inkscape:zoom="1.6152344"
     inkscape:cx="255.69045"
     inkscape:cy="256"
     inkscape:window-width="1920"
     inkscape:window-height="1051"
     inkscape:window-x="0"
     inkscape:window-y="29"
     inkscape:window-maximized="1"
     inkscape:current-layer="svg210176" />
  <circle
     cx="67.733"
     cy="67.733"
     r="59.531"
     fill="#367bf0"
     fill-rule="evenodd"
     stroke-width=".26458"
     id="circle210170" />
  <path
     d="m55.912 129.09c-11.673-2.3424-21.638-7.7599-30.406-16.53-9.0441-9.0465-14.555-19.445-16.717-31.542-0.58719-3.2859-0.68087-5.5938-0.51197-12.612 0.18088-7.5165 0.33983-9.088 1.2716-12.572 2.9833-11.155 7.804-19.513 15.96-27.671 8.1558-8.158 16.512-12.98 27.663-15.964 3.483-0.93202 5.054-1.091 12.568-1.272 7.0197-0.16904 9.3161-0.07562 12.576 0.51143 12.172 2.1923 22.521 7.6743 31.566 16.722 8.8845 8.8869 14.254 18.851 16.554 30.723 1.1045 5.6995 1.1045 17.254 0 22.953-2.3007 11.872-7.6697 21.836-16.554 30.723-8.8845 8.8869-18.846 14.257-30.715 16.559-5.5371 1.0737-17.837 1.0584-23.255-0.0288zm22.944-3.5326c11.189-2.4281 20.6-7.5284 28.553-15.476 8.0863-8.0796 13.079-17.382 15.548-28.97 1.0514-4.9347 1.0514-16.568 0-21.503-2.4778-11.629-7.4195-20.834-15.553-28.97-8.1335-8.1357-17.336-13.079-28.962-15.557-4.9333-1.0517-16.563-1.0517-21.497 0-11.626 2.4784-20.828 7.4215-28.962 15.557-8.1335 8.1357-13.075 17.34-15.553 28.97-1.0514 4.9347-1.0514 16.568 0 21.503 2.3268 10.921 7.1288 20.22 14.419 27.924 8.6129 9.1014 19.616 14.876 32.369 16.988 4.3135 0.7143 15.41 0.45064 19.636-0.46658zm-17.111-1.4661c-11.913-1.3826-22.586-6.4354-31.402-14.866-3.3964-3.2479-8.5442-9.6356-8.531-10.586 8e-3 -0.54301 2.7612-2.2308 3.6063-2.2104 0.41716 9e-3 1.5254 1.156 2.5895 2.6777 1.0232 1.4631 2.0792 2.7466 2.3468 2.8524 0.26757 0.1058 1.3193-0.54097 2.3371-1.4372 1.0179-0.89619 1.9865-1.6294 2.1526-1.6294 0.16607 0 1.6864 1.3155 3.3785 2.9233 5.1398 4.8836 10.121 7.7432 17.276 9.9172 4.1311 1.2552 3.9168 0.93837 3.4789 5.1423l-0.17173 1.649 2.4804 0.33328c5.6884 0.76435 5.1675 0.46606 5.1675 2.9594 0 2.0845-0.47252 2.8777-1.5841 2.659-0.15187-0.0298-1.5582-0.20315-3.1251-0.38501zm7.7063 0.14863c-0.32547-0.12081-0.51675-1.0139-0.51675-2.4129 0-2.5048-0.52239-2.2046 5.1675-2.9692l2.4804-0.33328-0.17173-1.649c-0.43802-4.206-0.65342-3.8887 3.4789-5.1241 6.9542-2.079 13.716-6.1063 18.379-10.946 1.0137-1.0521 2.0083-1.9129 2.2103-1.9129 0.20198 0 1.2 0.73325 2.2179 1.6294 1.0179 0.89621 2.0696 1.5429 2.3371 1.4372 0.26755-0.1058 1.3236-1.3893 2.3468-2.8524 1.0642-1.5217 2.1724-2.6676 2.5896-2.6777 0.88318-0.02131 3.5992 1.6784 3.6063 2.2569 0.0109 0.91392-5.5406 7.7223-8.8607 10.866-7.616 7.2112-17.295 12.171-27.1 13.885-4.2626 0.74552-7.4687 1.0606-8.1646 0.80237zm-10.645-26.151c-1.3638-0.55836-2.3309-1.9299-2.5587-3.6289-0.17709-1.3206-0.0188-1.8361 0.89858-2.9267l1.1135-1.3237h31.796l0.9979 0.99816c2.0207 2.0212 1.6559 4.9969-0.79583 6.4924-1.1846 0.72259-2.2935 0.77486-15.949 0.75192-8.0716-0.0141-15.048-0.177-15.502-0.36317zm-15.177-1.2208c-1.7462-1.5607-1.8806-3.9604-0.31657-5.6519 0.56325-0.60915 6.7445-6.317 13.736-12.684 6.9916-6.3672 12.712-11.739 12.712-11.937 0-0.19827-4.5112-5.3081-10.025-11.355-5.5137-6.0471-10.38-11.593-10.814-12.325-1.0011-1.6871-0.65702-3.2628 1.0636-4.8705 1.6826-1.5722 3.6097-1.587 5.2864-0.04051 0.67811 0.62544 6.3587 6.8126 12.624 13.749 12.505 13.846 13.061 14.672 11.56 17.162-0.44317 0.73479-7.7258 7.5944-16.184 15.244-14.092 12.745-15.5 13.908-16.839 13.908-1.0285 0-1.8589-0.35507-2.8023-1.1982zm-24.659-3.247c-1.7815-3.5462-3.2436-7.8806-4.2565-12.619-1.2766-5.9718-1.2766-15.311 0-21.282 1.3842-6.4751 4.7399-14.997 5.9055-14.997 0.80473 0 3.6676 1.7901 3.6676 2.2933 0 0.26779-0.56821 1.7404-1.2627 3.2725-0.69448 1.5321-1.2061 3.0677-1.1368 3.4125 0.0692 0.34478 1.1242 0.9989 2.3443 1.4536 2.5317 0.94344 2.4768 0.59041 1.0785 6.9357-0.9503 4.3123-0.64218 15.013 0.55771 19.369l0.83608 3.0352-1.7253 0.73403c-0.94891 0.40373-2.0509 0.84632-2.4488 0.98356-1.0056 0.34681-0.91231 1.1175 0.51676 4.2701 0.6821 1.5048 1.2402 2.8896 1.2402 3.0774 0 0.44999-2.9389 2.4388-3.6039 2.4388-0.28499 0-1.0557-1.07-1.7127-2.3777zm93.673 1.329c-0.84857-0.57679-1.5429-1.2023-1.5429-1.3901 0-0.18776 0.55809-1.5726 1.2402-3.0774 1.4291-3.1526 1.5223-3.9233 0.51675-4.2701-0.39789-0.13723-1.4998-0.57983-2.4488-0.98356l-1.7253-0.73403 0.82757-3.0352c1.1984-4.3953 1.5127-15.101 0.56867-19.369-1.402-6.3395-1.4559-5.9921 1.0761-6.9357 1.2202-0.45468 2.2751-1.1088 2.3444-1.4536 0.0692-0.34478-0.44236-1.8804-1.1369-3.4125-0.69448-1.5321-1.2627-3.0047-1.2627-3.2725 0-0.50319 2.8628-2.2933 3.6676-2.2933 1.1656 0 4.5213 8.5214 5.9055 14.997 1.2766 5.9718 1.2766 15.311 0 21.282-1.4212 6.6482-4.7442 14.997-5.9692 14.997-0.28501 0-1.2125-0.4719-2.061-1.0487zm-89.287-51.558c-0.85263-0.49434-1.5502-1.0949-1.5502-1.3346 0-0.94128 5.5189-7.7189 8.8658-10.888 6.95-6.5805 15.429-11.218 24.391-13.34 3.7699-0.89269 10.004-1.6688 10.837-1.3491 0.36585 0.1405 0.55369 0.95272 0.55369 2.3944 0 2.4586-0.24732 2.6399-3.7206 2.7274-3.9889 0.1005-4.1551 0.29639-3.5339 4.1653l0.30934 1.9266-3.6586 1.1117c-7.0291 2.1359-12.456 5.1797-17.301 9.7031-3.9609 3.6984-3.5691 3.5864-5.7969 1.6577l-1.955-1.6925-0.9768 0.91791c-0.53724 0.50485-1.5835 1.8131-2.3251 2.9072-0.74155 1.0941-1.6273 1.9898-1.9684 1.9904-0.34105 6.2e-4 -1.3177-0.4033-2.1703-0.89764zm84.535-1.0928c-0.74154-1.0941-1.7878-2.4023-2.3251-2.9072l-0.9768-0.91791-1.955 1.6925c-2.2278 1.9286-1.836 2.0407-5.7969-1.6577-4.8446-4.5235-10.272-7.5673-17.301-9.7031l-3.6586-1.1117 0.30935-1.9266c0.6212-3.8689 0.455-4.0648-3.5339-4.1653-3.4733-0.08752-3.7206-0.26879-3.7206-2.7274 0-1.4416 0.18784-2.2539 0.55369-2.3944 0.83285-0.31969 7.0669 0.4564 10.837 1.3491 8.9621 2.1222 17.441 6.7594 24.391 13.34 3.3555 3.1772 8.8658 9.9474 8.8658 10.893 0 0.51056-2.9414 2.2524-3.7769 2.2366-0.3101-6e-3 -1.1706-0.90584-1.9121-1.9999z"
     opacity=".3"
     stroke-width=".41346"
     id="path210172" />
  <path
     d="M 55.912,126.44 C 44.239,124.0976 34.274,118.6801 25.506,109.91 16.4619,100.8635 10.951,90.465 8.789,78.368 8.20181,75.0821 8.10813,72.7742 8.27703,65.756 c 0.18088,-7.5165 0.33983,-9.088 1.2716,-12.572 2.9833,-11.155 7.804,-19.513 15.96,-27.671 8.1558,-8.158 16.512,-12.98 27.663,-15.964 3.483,-0.93202 5.054,-1.091 12.568,-1.272 7.0197,-0.16904 9.3161,-0.075621 12.576,0.51143 12.172,2.1923 22.521,7.6743 31.566,16.722 8.8845,8.8869 14.254,18.851 16.554,30.723 1.1045,5.6995 1.1045,17.254 0,22.953 -2.3007,11.872 -7.6697,21.836 -16.554,30.723 -8.8845,8.8869 -18.846,14.257 -30.715,16.559 -5.5371,1.0737 -17.837,1.0584 -23.255,-0.0288 z m 22.944,-3.5326 c 11.189,-2.4281 20.6,-7.5284 28.553,-15.476 8.0863,-8.0796 13.079,-17.382 15.548,-28.97 1.0514,-4.9347 1.0514,-16.568 0,-21.503 -2.4778,-11.629 -7.4195,-20.834 -15.553,-28.97 -8.1335,-8.1357 -17.336,-13.079 -28.962,-15.557 -4.9333,-1.0517 -16.563,-1.0517 -21.497,0 -11.626,2.4784 -20.828,7.4215 -28.962,15.557 -8.1335,8.1357 -13.075,17.34 -15.553,28.97 -1.0514,4.9347 -1.0514,16.568 0,21.503 2.3268,10.921 7.1288,20.22 14.419,27.924 8.6129,9.1014 19.616,14.876 32.369,16.988 4.3135,0.7143 15.41,0.45064 19.636,-0.46658 z m -17.111,-1.4661 c -11.913,-1.3826 -22.586,-6.4354 -31.402,-14.866 -3.3964,-3.2479 -8.5442,-9.6356 -8.531,-10.586 0.008,-0.54301 2.7612,-2.2308 3.6063,-2.2104 0.41716,0.009 1.5254,1.156 2.5895,2.6777 1.0232,1.463 1.97611,0.870156 2.24371,0.975956 0.26757,0.1058 1.42239,1.335474 2.44019,0.439244 1.0179,-0.8962 1.9865,-1.6294 2.1526,-1.6294 0.16607,0 1.6864,1.3155 3.3785,2.9233 5.1398,4.8836 10.121,7.7431 17.276,9.9171 4.1311,1.2552 3.9168,0.93837 3.4789,5.1423 l 2.30867,1.98228 v 0 c 0,0 5.1675,0.46606 5.1675,2.9594 0,2.0845 -0.47252,2.8777 -1.5841,2.659 -0.15187,-0.0298 -1.5582,-0.20315 -3.1251,-0.38501 z m 7.7063,0.14863 c -0.32547,-0.12081 -0.51675,-1.0139 -0.51675,-2.4129 0,-2.5048 -0.52239,-2.2046 5.1675,-2.9692 v 0 l 2.30867,-1.98228 c 0,0 -0.65342,-3.8887 3.4789,-5.1241 6.9542,-2.079 13.716,-6.1063 18.379,-10.946 1.0137,-1.0521 2.0083,-1.9129 2.2103,-1.9129 0.20198,0 1.2,0.73325 2.2179,1.6294 1.0179,0.8962 -0.2675,0.1057 0,0 0.26755,-0.1058 3.6607,0.0479 4.6839,-1.4152 1.0642,-1.5217 2.1724,-2.6676 2.5896,-2.6777 0.88318,-0.02131 3.5992,1.6784 3.6063,2.2569 0.0109,0.91392 -5.5406,7.7222 -8.8607,10.866 -7.616,7.2112 -17.295,12.171 -27.1,13.885 -4.2626,0.74552 -7.4687,1.0606 -8.1646,0.80237 z m -10.645,-26.151 c -1.3638,-0.55836 -2.3309,-1.9299 -2.5587,-3.6289 -0.17709,-1.3206 -0.0188,-1.8361 0.89858,-2.9267 l 1.1135,-1.3237 h 31.796 l 0.9979,0.99816 c 2.0207,2.0212 1.6559,4.9969 -0.79583,6.4924 -1.1846,0.72259 -2.2935,0.77486 -15.949,0.75192 -8.0716,-0.0141 -15.048,-0.177 -15.502,-0.36317 z m -15.177,-1.2208 c -1.7462,-1.5607 -1.8806,-3.9604 -0.31657,-5.6519 0.56325,-0.60915 6.7445,-6.317 13.736,-12.684 6.9916,-6.3672 12.712,-11.739 12.712,-11.937 0,-0.19827 -4.5112,-5.3081 -10.025,-11.355 -5.5137,-6.0471 -10.38,-11.593 -10.814,-12.325 -1.0011,-1.6871 -0.65702,-3.2628 1.0636,-4.8705 1.6826,-1.5722 3.6097,-1.587 5.2864,-0.04051 0.67811,0.62544 6.3587,6.8126 12.624,13.749 12.505,13.846 13.061,14.672 11.56,17.162 -0.44317,0.73479 -7.7258,7.5944 -16.184,15.244 -14.092,12.745 -15.5,13.908 -16.839,13.908 -1.0285,0 -1.8589,-0.35507 -2.8023,-1.1982 z m -24.659,-3.247 c -1.7815,-3.5462 -3.2436,-7.8806 -4.2565,-12.619 -1.2766,-5.9718 -1.2766,-15.311 0,-21.282 1.3842,-6.4751 4.7399,-14.997 5.9055,-14.997 0.80473,0 3.6676,1.7901 3.6676,2.2933 0,0.26779 -0.56821,1.7404 -1.2627,3.2725 -0.69448,1.5321 1.1382,4.5213 1.2075,4.8661 0.0692,0.34478 -1.2201,-0.4547 0,0 2.5317,0.94344 2.4768,0.59041 1.0785,6.9357 -0.9503,4.3123 -0.64218,15.013 0.55771,19.369 l 0.83608,3.0352 -1.7253,0.73403 c -0.94891,0.40373 0.3979,-0.13724 0,0 -1.0056,0.34681 -3.36111,2.10106 -1.93204,5.25366 0.6821,1.5048 1.2402,2.8896 1.2402,3.0774 0,0.44999 -2.9389,2.4388 -3.6039,2.4388 -0.28499,0 -1.0557,-1.07 -1.7127,-2.3777 z m 93.673,1.329 c -0.84857,-0.57679 -1.5429,-1.2023 -1.5429,-1.3901 0,-0.18776 0.55809,-1.5726 1.2402,-3.0774 1.4291,-3.1526 0.61363,-2.691144 -0.39192,-3.037944 -0.39789,-0.13723 -0.59113,-1.811986 -1.54013,-2.215716 l -1.7253,-0.73403 0.82757,-3.0352 c 1.1984,-4.3953 1.5127,-15.101 0.56867,-19.369 -1.402,-6.3395 -1.4559,-5.9921 1.0761,-6.9357 1.2202,-0.45468 1.1382,-4.5213 1.2075,-4.8661 0.0692,-0.34478 0.69454,1.5321 0,0 -0.69448,-1.5321 -1.2627,-3.0047 -1.2627,-3.2725 0,-0.50319 2.8628,-2.2933 3.6676,-2.2933 1.1656,0 4.5213,8.5214 5.9055,14.997 1.2766,5.9718 1.2766,15.311 0,21.282 -1.4212,6.6482 -4.7442,14.997 -5.9692,14.997 -0.28501,0 -1.2125,-0.4719 -2.061,-1.0487 z m -89.287,-51.558 c -0.85263,-0.49434 -1.5502,-1.0949 -1.5502,-1.3346 0,-0.94128 5.5189,-7.7189 8.8658,-10.888 6.95,-6.5805 15.429,-11.218 24.391,-13.34 2.777502,-0.657696 6.892601,-1.252111 9.199801,-1.391631 0.824359,-0.04985 1.417918,-0.04163 1.637199,0.04253 0.55369,2.3944 0.55369,0.95272 0.55369,2.3944 0,2.4586 -0.24732,2.6399 -3.7206,2.7274 -3.9889,0.1005 -3.5339,4.1653 -3.5339,4.1653 l 0.30934,1.9266 -3.6586,1.1117 c -7.0291,2.1359 -12.456,5.1797 -17.301,9.7031 -3.9609,3.6984 -3.5691,3.5864 -5.7969,1.6577 l -2.9318,-0.77459 v 0 c 0,0 -1.5835,1.8131 -2.3251,2.9072 -0.74155,1.0941 -1.6273,1.9898 -1.9684,1.9904 -0.34105,6.2e-4 -1.3177,-0.4033 -2.1703,-0.89764 z m 84.535,-1.0928 c -0.74154,-1.0941 -1.7878,-2.4023 -2.3251,-2.9072 v 0 l -2.9318,0.77459 c -2.2278,1.9286 -1.836,2.0407 -5.7969,-1.6577 -4.8446,-4.5235 -10.272,-7.5673 -17.301,-9.7031 l -3.6586,-1.1117 0.30935,-1.9266 c 0.6212,-3.8689 0,0 -3.5339,-4.1653 -2.247751,-2.649356 -3.7206,-0.26879 -3.7206,-2.7274 0,-1.4416 0.55369,-2.3944 0.55369,-2.3944 0.83285,-0.31969 7.0669,0.4564 10.837,1.3491 8.9621,2.1222 17.441,6.7594 24.391,13.34 3.3555,3.1772 8.8658,9.9474 8.8658,10.893 0,0.51056 -2.9414,2.2524 -3.7769,2.2366 -0.3101,-0.006 -1.1706,-0.90584 -1.9121,-1.9999 z"
     fill="#ffffff"
     stroke-width="0.41346"
     id="path210174"
     sodipodi:nodetypes="cccsccccccccccccccsccccccccccccscccscscsccssccccsccscssccscccccccccccssccccscscccscccscccccsssccssccccsscccscsccsccccssccscccsccscssccccccscccccscccscssscccsccc" />
</svg>
