<?xml version="1.0" encoding="UTF-8" standalone="no"?>
<svg
   width="32"
   height="32"
   version="1.1"
   id="svg875722"
   sodipodi:docname="kreversi.svg"
   inkscape:version="1.1.2 (0a00cf5339, 2022-02-04)"
   xmlns:inkscape="http://www.inkscape.org/namespaces/inkscape"
   xmlns:sodipodi="http://sodipodi.sourceforge.net/DTD/sodipodi-0.dtd"
   xmlns="http://www.w3.org/2000/svg"
   xmlns:svg="http://www.w3.org/2000/svg">
  <defs
     id="defs875726" />
  <sodipodi:namedview
     id="namedview875724"
     pagecolor="#ffffff"
     bordercolor="#666666"
     borderopacity="1.0"
     inkscape:pageshadow="2"
     inkscape:pageopacity="0.0"
     inkscape:pagecheckerboard="0"
     showgrid="false"
     inkscape:zoom="25.84375"
     inkscape:cx="15.980653"
     inkscape:cy="16"
     inkscape:window-width="1920"
     inkscape:window-height="1051"
     inkscape:window-x="0"
     inkscape:window-y="29"
     inkscape:window-maximized="1"
     inkscape:current-layer="svg875722" />
  <path
     opacity=".2"
     d="m12.422 3.3477c-0.635 0.1451-1.253 0.3327-1.85 0.5703-1.3047 1.2757-2.1208 3.0793-2.1208 5.082 0 0.1403 0.0169 0.2763 0.0273 0.4141 0.1792-2.2314 1.3688-4.1658 3.0975-5.3106 0.257-0.2773 0.54-0.5298 0.846-0.7558zm-2.397 5.4394c-0.012 0.1695-0.025 0.3382-0.025 0.5137 0 3.8652 3.283 6.0502 6.428 7.0002 2.963 0.895 6.817 3.628 7.093 7.285 0.016-0.193 0.028-0.388 0.028-0.586 0-3.866-4.047-6.77-7.121-7.699-3.009-0.909-6.138-2.953-6.403-6.5139zm-8.0016 7.7069c-0.0057 0.169-0.0234 0.335-0.0234 0.506 0 7.731 5.9227 14 13.227 14 1.657 0 3.174-0.479 4.351-1.348-0.687 0.157-1.389 0.271-2.111 0.311 1.081-0.114 2.086-0.49 2.957-1.067 0.983-1.062 1.576-2.489 1.576-4.197 0-0.166-0.013-0.326-0.025-0.486-0.259 3.564-3.177 5.787-6.748 5.787-7.1467 0-12.956-6.005-13.204-13.506zm27.954 0.012c-0.196 5.773-3.687 10.642-8.549 12.576-1.057 1.033-2.433 1.721-3.961 1.881 6.98-0.384 12.533-6.479 12.533-13.963 0-0.167-0.018-0.329-0.023-0.494z"
     id="path875706" />
  <path
     fill="#f65e5e"
     d="m 19.5775,29.6521 c 0.984718,0 -0.863183,0.233954 0.06017,0.01784 C 25.563157,28.283066 29.996,22.688714 29.996,16 29.996,8.2686 24.074,2 16.77,2 13.028,2 9.9958,4.4343 9.9958,8.3 c 0,3.8657 3.284,6.0501 6.4286,7 3.0747,0.92876 7.1198,3.8343 7.1198,7.7 0,2.776766 -1.564774,5.176153 -3.833029,6.30759 -0.889518,0.443703 0.920277,0.34451 -0.133671,0.34451 z"
     id="path875708"
     sodipodi:nodetypes="csssscssc" />
  <circle
     opacity=".2"
     cx="-17"
     cy="-10"
     r="3"
     transform="scale(-1)"
     id="circle875710" />
  <circle
     fill="#fff"
     cx="-17"
     cy="-9"
     r="3"
     transform="scale(-1)"
     id="circle875712" />
  <path
     fill="#8d62ad"
     d="M 15.22,2 C 13.98114,2 12.782029,2.1803504 11.644826,2.517599 6.0775545,4.168627 1.994,9.5799888 1.994,16 c 0,7.7314 5.922,14 13.226,14 3.7415,0 6.7742,-2.4343 6.7742,-6.3 0,-3.8657 -3.284,-6.0501 -6.4286,-7 C 12.4916,15.771 8.4464,12.866 8.4464,9 8.4464,6.4130993 9.8045027,4.153734 11.824287,2.9420002 12.462919,2.5588643 10.570804,2.7439612 11.319725,2.593062 11.741685,2.5080418 14.263495,1.8652881 15.2206,2 Z"
     id="path875714"
     sodipodi:nodetypes="ssssscssscs" />
  <circle
     opacity=".2"
     cx="15"
     cy="24"
     r="3"
     id="circle875716" />
  <circle
     fill="#fff"
     cx="15"
     cy="23"
     r="3"
     id="circle875718" />
  <path
     fill="#ffffff"
     opacity="0.2"
     d="M 16.773,2 C 15.116,2 13.599,2.4792 12.422,3.3477 13.109,3.1905 13.811,3.0768 14.533,3.0371 13.452,3.1506 12.447,3.5272 11.576,4.1035 10.593,5.1662 10,6.5933 10,8.3008 10,8.4674 10.013,8.6267 10.025,8.7871 10.284,5.2229 13.202,3 16.773,3 23.92,3 29.729,9.0052 29.977,16.506 29.982,16.337 30,16.171 30,16 30,8.2686 24.077,2 16.773,2 Z m -5.782264,0.7512329 c -1.2328328,0.067792 1.121095,-0.4003561 0,0 C 5.7648276,4.6174658 2,9.8380269 2,16.0001 c 0,0.167 0.018,0.329 0.0234,0.494 C 2.2188,10.7211 5.7097,5.8521 10.572,3.9181 10.792365,3.7027802 11.026595,3.50246 11.273177,3.3187905 12.209348,2.6214733 9.7812959,2.8781924 10.990736,2.7512329 Z M 8.4785,9.4141 C 8.463,9.6075 8.4512,9.8025 8.4512,10 c 0,3.866 4.0468,6.77 7.1208,7.699 3.009,0.909 6.138,2.953 6.403,6.514 0.012,-0.17 0.025,-0.338 0.025,-0.514 0,-3.865 -3.283,-6.05 -6.428,-7 C 12.609,15.804 8.7553,13.071 8.4785,9.4141 Z m 15.042,14.172 c -0.179,2.231 -1.368,4.166 -3.097,5.31 -0.257,0.278 -0.5395,0.5299 -0.8455,0.7559 0.635,-0.145 1.2525,-0.3319 1.8495,-0.5699 1.305,-1.276 2.121,-3.079 2.121,-5.082 0,-0.14 -0.017,-0.276 -0.028,-0.414 z"
     id="path875720"
     sodipodi:nodetypes="scccscscsscssccscccsccsccccccsc" />
</svg>
