<?xml version="1.0" encoding="UTF-8" standalone="no"?>
<svg
   width="32"
   height="32"
   version="1.1"
   id="svg521480"
   sodipodi:docname="livewallpaper-config.svg"
   inkscape:version="1.1.2 (0a00cf5339, 2022-02-04)"
   xmlns:inkscape="http://www.inkscape.org/namespaces/inkscape"
   xmlns:sodipodi="http://sodipodi.sourceforge.net/DTD/sodipodi-0.dtd"
   xmlns="http://www.w3.org/2000/svg"
   xmlns:svg="http://www.w3.org/2000/svg">
  <defs
     id="defs521484" />
  <sodipodi:namedview
     id="namedview521482"
     pagecolor="#ffffff"
     bordercolor="#666666"
     borderopacity="1.0"
     inkscape:pageshadow="2"
     inkscape:pageopacity="0.0"
     inkscape:pagecheckerboard="0"
     showgrid="false"
     inkscape:zoom="25.84375"
     inkscape:cx="15.980653"
     inkscape:cy="16"
     inkscape:window-width="1920"
     inkscape:window-height="1051"
     inkscape:window-x="0"
     inkscape:window-y="29"
     inkscape:window-maximized="1"
     inkscape:current-layer="svg521480" />
  <rect
     style="opacity:0.2"
     width="16"
     height="21"
     x="8"
     y="8"
     rx="1.25"
     ry="1.25"
     id="rect521448" />
  <rect
     style="fill:#8e8e8e"
     width="16"
     height="21"
     x="8"
     y="7"
     rx="1.25"
     ry="1.25"
     id="rect521450" />
  <rect
     style="opacity:0.2"
     width="26"
     height="20"
     x="3"
     y="6"
     rx="1.25"
     ry="1.25"
     id="rect521452" />
  <path
     style="fill:#3f3f3f"
     d="m 3,22 v 1.75 C 3,24.4425 3.5575,25 4.25,25 h 23.5 C 28.4425,25 29,24.4425 29,23.75 V 22 Z"
     id="path521454" />
  <path
     style="fill:#0095e5"
     d="M 4.25,5 C 3.5575,5 3,5.5575 3,6.25 V 22 H 29 V 6.25 C 29,5.5575 28.4425,5 27.75,5 Z"
     id="path521456" />
  <rect
     style="opacity:0.2"
     width="26"
     height="1"
     x="3"
     y="22"
     id="rect521458" />
  <path
     style="fill:#ffffff;opacity:0.2"
     d="M 4.25 5 C 3.5575 5 3 5.5575 3 6.25 L 3 7.25 C 3 6.5575 3.5575 6 4.25 6 L 27.75 6 C 28.442 6 29 6.5575 29 7.25 L 29 6.25 C 29 5.5575 28.442 5 27.75 5 L 4.25 5 z"
     id="path521460" />
  <path
     style="opacity:0.2"
     d="M 21.5,7.9999998 C 19.567003,7.9999998 18,9.5670033 18,11.5 18,13.432997 19.567003,15 21.5,15 23.432997,15 25,13.432997 25,11.5 25,9.5670033 23.432997,7.9999998 21.5,7.9999998 Z m -7,2 C 13.671573,9.9999998 13,10.671573 13,11.5 13,12.328427 13.671573,13 14.5,13 15.328427,13 16,12.328427 16,11.5 16,10.671573 15.328427,9.9999998 14.5,9.9999998 Z M 9.5,13 C 8.1192881,13 7,14.119288 7,15.5 7,16.880712 8.1192881,18 9.5,18 10.880712,18 12,16.880712 12,15.5 12,14.119288 10.880712,13 9.5,13 Z m 13.970703,3.470351 c -0.552285,0 -1,0.447716 -1,1 0,0.552285 0.447715,1 1,1 0.552285,0 1,-0.447715 1,-1 0,-0.552284 -0.447715,-1 -1,-1 z M 18,16.999648 c -1.104569,0 -2,0.895431 -2,2 0,1.10457 0.895431,2 2,2 1.104569,0 2,-0.89543 2,-2 0,-1.104569 -0.895431,-2 -2,-2 z"
     id="path521462" />
  <circle
     style="fill:#f0f9fd"
     cx="21.5"
     cy="10.5"
     r="3.5"
     id="circle521464" />
  <circle
     style="fill:#c4e7f5"
     cx="9.5"
     cy="14.5"
     r="2.5"
     id="circle521466" />
  <circle
     style="fill:#a6daf0"
     cx="18"
     cy="18"
     r="2"
     id="circle521468" />
  <circle
     style="fill:#c4e7f5"
     cx="14.5"
     cy="10.5"
     r="1.5"
     id="circle521470" />
  <circle
     style="fill:#d3edf8"
     cx="23.471"
     cy="16.471"
     r="1"
     id="circle521472" />
  <circle
     style="opacity:0.2"
     cx="24"
     cy="24"
     r="8"
     id="circle521474" />
  <circle
     style="fill:#c149c0"
     cx="24"
     cy="23"
     r="8"
     id="circle521476" />
  <path
     style="fill:#ffffff"
     d="m 23.435478,19 -0.465288,0.357719 -0.05808,0.696969 c -0.334563,0.123603 -0.645646,0.303252 -0.919921,0.53125 l -0.60111,-0.28338 -0.569513,0.201821 v 0 l -0.602103,1.04192 0.155404,0.555587 v 0 l 0.529431,0.368817 c -0.03054,0.174793 -0.04622,0.351858 -0.04687,0.529297 -10e-5,0.178036 0.01493,0.355759 0.04492,0.53125 l -0.55104,0.383494 -0.107852,0.580471 v 0 l 0.588127,1.017736 0.530413,0.198557 v 0 l 0.628242,-0.295492 c 0.275152,0.226804 0.586893,0.405131 0.921875,0.527343 l 0.04693,0.56421 L 23.455817,27 v 0 h 1.12654 v 0 l 0.459491,-0.502178 0.04604,-0.55251 c 0.334563,-0.123603 0.645646,-0.303252 0.919921,-0.53125 l 0.539448,0.254311 0.672541,-0.244334 v 0 l 0.554008,-0.958693 v 0 l -0.106565,-0.537897 -0.571541,-0.398152 c 0.03054,-0.174793 0.04622,-0.351858 0.04687,-0.529297 10e-5,-0.178036 -0.01493,-0.355759 -0.04492,-0.53125 l 0.588238,-0.409382 0.08068,-0.537225 v 0 l -0.612008,-1.059061 v 0 l -0.56649,-0.151107 -0.578315,0.272009 C 25.734614,20.35718 25.422873,20.178853 25.087891,20.056641 L 25.029156,19.350515 24.57266,19 v 0 z M 24,22 c 0.552305,-4.8e-5 1.000048,0.447695 1,1 4.8e-5,0.552305 -0.447695,1.000048 -1,1 -0.552305,4.8e-5 -1.000048,-0.447695 -1,-1 -4.8e-5,-0.552305 0.447695,-1.000048 1,-1 z"
     id="path521478"
     sodipodi:nodetypes="cccccccccccccccccccccccccccccccccccccccccccccccccccccccc" />
</svg>
