<?xml version="1.0" encoding="UTF-8" standalone="no"?>
<svg
   width="32"
   height="32"
   version="1.1"
   id="svg1081834"
   sodipodi:docname="netsurf.svg"
   inkscape:version="1.1.2 (0a00cf5339, 2022-02-04)"
   xmlns:inkscape="http://www.inkscape.org/namespaces/inkscape"
   xmlns:sodipodi="http://sodipodi.sourceforge.net/DTD/sodipodi-0.dtd"
   xmlns="http://www.w3.org/2000/svg"
   xmlns:svg="http://www.w3.org/2000/svg">
  <defs
     id="defs1081838" />
  <sodipodi:namedview
     id="namedview1081836"
     pagecolor="#ffffff"
     bordercolor="#666666"
     borderopacity="1.0"
     inkscape:pageshadow="2"
     inkscape:pageopacity="0.0"
     inkscape:pagecheckerboard="0"
     showgrid="false"
     inkscape:zoom="25.84375"
     inkscape:cx="15.980653"
     inkscape:cy="16"
     inkscape:window-width="1920"
     inkscape:window-height="1051"
     inkscape:window-x="0"
     inkscape:window-y="29"
     inkscape:window-maximized="1"
     inkscape:current-layer="svg1081834" />
  <path
     style="opacity:0.2"
     d="M 23,4.8756447 A 14,14 0 0 0 3.8756448,10 14,14 0 0 0 9.0000006,29.124356 14,14 0 0 0 28.124355,24 14,14 0 0 0 23,4.8756447 Z"
     id="path1081816" />
  <path
     style="fill:#42b8fe"
     d="M 23,3.8756444 A 14,14 0 0 0 3.8756448,9.0000001 14,14 0 0 0 9.0000006,28.124356 14,14 0 0 0 28.124355,23 14,14 0 0 0 23,3.8756444 Z"
     id="path1081818" />
  <path
     style="fill:#ffffff;opacity:0.2"
     d="M 16.330078 2.0039062 A 14 14 0 0 0 3.875 9 A 14 14 0 0 0 2.0234375 16.40625 A 14 14 0 0 1 3.875 10 A 14 14 0 0 1 23 4.875 A 14 14 0 0 1 29.976562 16.59375 A 14 14 0 0 0 23 3.875 A 14 14 0 0 0 16.330078 2.0039062 z"
     id="path1081820" />
  <path
     style="opacity:0.2"
     transform="matrix(0.56626835,0.43586288,-0.43586288,0.56626835,11.055768,-7.6849619)"
     d="m 26.721132,7.139029 1.350113,3.796569 3.639254,-1.7299056 -1.729906,3.6392536 3.796569,1.350113 -3.796569,1.350113 1.729906,3.639253 -3.639254,-1.729906 -1.350113,3.79657 -1.350113,-3.79657 -3.639253,1.729906 1.729906,-3.639254 -3.79657,-1.350112 3.79657,-1.350113 -1.729906,-3.6392538 3.639254,1.7299058 z"
     id="path1081822" />
  <path
     style="fill:#ffffff"
     transform="matrix(0.56626835,0.43586288,-0.43586288,0.56626835,11.055768,-8.6849622)"
     d="m 27.163825,8.3838994 v 0 l 0.745852,2.0973626 0.592818,0.249343 v 0 l 1.983039,-0.9426299 0.67847,0.5673949 v 0 l -0.981602,2.065024 v 0 l 0.231521,0.57865 2.173594,0.772961 v 0 l -0.03888,0.859933 -2.007152,0.713772 v 0 l -0.387531,0.564172 1.036902,2.181362 v 0 l -0.563898,0.578125 -2.159108,-1.026324 v 0 l -0.537348,0.207242 -0.762283,2.143567 -0.866133,0.07887 v 0 l -0.798916,-2.246583 v 0 l -0.468968,-0.211519 -2.101628,0.999002 v 0 L 22.273122,18.045559 23.24831,15.994026 22.967482,15.36943 v 0 l -2.073446,-0.737345 v 0 l 0.04993,-0.891807 2.071805,-0.736763 0.227284,-0.618485 v 0 l -0.976032,-2.053307 v 0 l 0.711282,-0.5334941 2.049896,0.9744101 0.469297,-0.192697 v 0 L 26.29212,8.3454274 Z"
     id="path1081824"
     sodipodi:nodetypes="ccccccccccccccccccccccccccccccccccccccccccccccccc" />
  <path
     style="opacity:0.2;fill:none;stroke:#000000;stroke-width:2;stroke-linecap:round;stroke-linejoin:round"
     d="M 9,3.9898236 C 6,14.989824 9.3460958,23.217978 17,30.989824"
     id="path1081826" />
  <path
     style="fill:none;stroke:#3f3f3f;stroke-width:2;stroke-linecap:round;stroke-linejoin:round"
     d="M 9,3 C 6,14 9.3460958,22.228154 17,30"
     id="path1081828" />
  <path
     style="opacity:0.2;fill:none;stroke:#000000;stroke-width:2;stroke-linecap:round;stroke-linejoin:round"
     d="m 30,16.989824 c -7.880913,7.840867 -17,9 -27,6"
     id="path1081830" />
  <path
     style="fill:none;stroke:#3f3f3f;stroke-width:2;stroke-linecap:round;stroke-linejoin:round"
     d="M 30,16 C 22.119087,23.840867 13,25 3,22"
     id="path1081832" />
</svg>
