<?xml version="1.0" encoding="UTF-8" standalone="no"?>
<svg
   width="512"
   height="512"
   version="1.1"
   viewBox="0 0 384 384"
   id="svg2437059"
   sodipodi:docname="notification-disabled.svg"
   inkscape:version="1.1.2 (0a00cf5339, 2022-02-04)"
   xmlns:inkscape="http://www.inkscape.org/namespaces/inkscape"
   xmlns:sodipodi="http://sodipodi.sourceforge.net/DTD/sodipodi-0.dtd"
   xmlns="http://www.w3.org/2000/svg"
   xmlns:svg="http://www.w3.org/2000/svg">
  <sodipodi:namedview
     id="namedview2437061"
     pagecolor="#ffffff"
     bordercolor="#666666"
     borderopacity="1.0"
     inkscape:pageshadow="2"
     inkscape:pageopacity="0.0"
     inkscape:pagecheckerboard="0"
     showgrid="false"
     inkscape:zoom="1.6152344"
     inkscape:cx="255.69045"
     inkscape:cy="256"
     inkscape:window-width="1920"
     inkscape:window-height="1051"
     inkscape:window-x="0"
     inkscape:window-y="29"
     inkscape:window-maximized="1"
     inkscape:current-layer="svg2437059" />
  <defs
     id="defs2437035">
    <clipPath
       id="clipPath2437021">
      <rect
         width="36"
         height="36"
         id="rect2437019" />
    </clipPath>
    <clipPath
       id="clipPath2437025">
      <rect
         width="36"
         height="36"
         id="rect2437023" />
    </clipPath>
    <clipPath
       id="clipPath2437029">
      <rect
         width="36"
         height="36"
         id="rect2437027" />
    </clipPath>
    <clipPath
       id="clipPath2437033">
      <rect
         width="36"
         height="36"
         id="rect2437031" />
    </clipPath>
  </defs>
  <g
     transform="matrix(11.25 0 0 11.25 -10.499 -10.504)"
     id="g2437041">
    <path
       d="m6.6094 18.434c0 6.2344-7.5898 10.816-0.75781 10.816h24.297c6.832 0-0.76172-4.582-0.76172-10.816 0-6.957-3.0352-14.684-11.387-14.684s-11.391 7.7266-11.391 14.684z"
       fill="#ffc730"
       id="path2437037" />
    <path
       d="m12.75 29.25c0.77734 1.7383 2.8203 3 5.25 3s4.4727-1.2617 5.25-3z"
       fill="#fae895"
       id="path2437039" />
  </g>
  <g
     id="g2437049">
    <path
       transform="scale(.75)"
       d="m177.26 424.75c11.66 26.075 42.304 45 78.75 45 36.446 0 67.092-18.925 78.752-45h-5.6426c-14.287 20.773-41.515 35-73.109 35-31.595 0-58.82-14.227-73.107-35h-5.6426z"
       opacity=".1"
       stroke-width="15"
       id="path2437043" />
    <path
       d="m23.736 308.1c-2.4922 11.48 4.3592 17.96 31.597 17.96h273.34c27.23 0 34.079-6.4771 31.585-17.952-2.0676 6.7558-11.009 10.452-31.585 10.452h-273.34c-20.585 0-29.53-3.699-31.597-10.46z"
       opacity=".3"
       stroke-width="11.25"
       id="path2437045" />
    <path
       transform="scale(.75)"
       d="m256.01 42.246c-125.28 0-170.86 115.9-170.86 220.26 0 68.472-61.031 123.66-53.496 148.3 6.0541-27.888 53.496-77.925 53.496-138.3 0-104.36 45.585-220.26 170.86-220.26 125.28 0 170.8 115.9 170.8 220.26 0 60.386 47.478 110.43 53.539 138.31 7.5413-24.641-53.539-79.831-53.539-148.31 0-104.36-45.529-220.26-170.8-220.26z"
       fill="#fff"
       opacity=".3"
       stroke-width="15"
       id="path2437047" />
  </g>
  <path
     d="m384 294c0 49.706-40.294 90-90 90-49.706 0-90-40.294-90-90 0-49.706 40.294-90 90-90 49.706 0 90 40.294 90 90z"
     fill-rule="evenodd"
     opacity=".3"
     stroke-width=".9375"
     id="path2437051" />
  <path
     d="m384 286.5c0 49.706-40.294 90-90 90-49.706 0-90-40.294-90-90 0-49.706 40.294-90 90-90 49.706 0 90 40.294 90 90z"
     fill="#d41717"
     fill-rule="evenodd"
     stroke-width=".9375"
     id="path2437053" />
  <path
     d="m264.75 253.07-11.675 11.675 29.253 29.254-29.253 29.253 11.675 11.676 29.254-29.254 29.253 29.254 11.676-11.676-29.254-29.253 29.254-29.254-11.676-11.675-29.253 29.253z"
     opacity=".3"
     stroke-width="11.029"
     id="path2437055" />
  <path
     d="m 261.54289,248.77711 v 0 l -4.67191,4.67191 v 0 l -0.0202,7.57193 25.47718,25.47805 -24.71833,24.71833 -1.32956,7.74006 v 0 l 5.06697,5.0674 v 0 l 6.99653,-0.1904 25.66039,-25.66039 26.3334,26.3343 5.819,0.0203 v 0 l 5.86657,-5.86657 v 0 l -1.36478,-7.18469 -24.97919,-24.97834 24.64749,-24.64749 2.41628,-6.79656 v 0 l -6.05491,-6.05438 -8.28838,1.42695 v 0 L 294.00396,274.823 268.02358,248.8435 Z"
     fill="#ffffff"
     stroke-width="11.029"
     id="path2437057"
     sodipodi:nodetypes="ccccccccccccccccccccccccccccc" />
</svg>
