<?xml version="1.0" encoding="UTF-8" standalone="no"?>
<svg
   width="512"
   height="512"
   version="1.1"
   viewBox="0 0 384 384"
   id="svg671560"
   sodipodi:docname="notification-display-brightness-low.svg"
   inkscape:version="1.1.2 (0a00cf5339, 2022-02-04)"
   xmlns:inkscape="http://www.inkscape.org/namespaces/inkscape"
   xmlns:sodipodi="http://sodipodi.sourceforge.net/DTD/sodipodi-0.dtd"
   xmlns="http://www.w3.org/2000/svg"
   xmlns:svg="http://www.w3.org/2000/svg">
  <sodipodi:namedview
     id="namedview671562"
     pagecolor="#ffffff"
     bordercolor="#666666"
     borderopacity="1.0"
     inkscape:pageshadow="2"
     inkscape:pageopacity="0.0"
     inkscape:pagecheckerboard="0"
     showgrid="false"
     inkscape:zoom="1.6152344"
     inkscape:cx="255.69045"
     inkscape:cy="256"
     inkscape:window-width="1920"
     inkscape:window-height="1051"
     inkscape:window-x="0"
     inkscape:window-y="29"
     inkscape:window-maximized="1"
     inkscape:current-layer="svg671560" />
  <defs
     id="defs671536">
    <clipPath
       id="clipPath671525">
      <rect
         width="36"
         height="36"
         id="rect671523" />
    </clipPath>
    <clipPath
       id="clipPath671529">
      <rect
         width="384"
         height="384"
         id="rect671527" />
    </clipPath>
    <linearGradient
       id="a"
       x1="24.161"
       x2="470.92"
       y1="255.65"
       y2="-4.7024"
       gradientTransform="translate(-.021237 -.011297)"
       gradientUnits="userSpaceOnUse">
      <stop
         stop-color="#367bf0"
         offset="0"
         id="stop671531" />
      <stop
         stop-color="#b7164b"
         stop-opacity=".99608"
         offset="1"
         id="stop671533" />
    </linearGradient>
  </defs>
  <g
     transform="translate(-.003 -.00015)"
     id="g671554">
    <path
       d="m158.18 263.77h67.652v54.723h-67.652z"
       fill="#262833"
       id="path671538" />
    <path
       d="m158.07 264.17h67.852v54.168z"
       fill="#171717"
       id="path671540" />
    <path
       d="m23.996 55.281h336.01c4.5391 0 8.2188 3.4648 8.2188 7.7422v193.58c0 4.2774-3.6797 7.7461-8.2188 7.7461h-336.01c-4.5352 0-8.2148-3.4688-8.2148-7.7461v-193.58c0-4.2773 3.6797-7.7422 8.2148-7.7422z"
       id="path671542" />
    <path
       d="m132.2 317.36h119.6c2.5781 0 4.6641 1.9688 4.6641 4.3984v2.5664c0 2.4258-2.0859 4.3945-4.6641 4.3945h-119.6c-2.5781 0-4.6641-1.9688-4.6641-4.3945v-2.5664c0-2.4297 2.0859-4.3984 4.6641-4.3984z"
       fill="#171717"
       id="path671544" />
    <path
       d="m23.996 59.781h336.01c4.5391 0 8.2187 3.4648 8.2187 7.7422v193.58c0 4.2774-3.6797 7.7461-8.2187 7.7461h-336.01c-4.5352 0-8.2148-3.4688-8.2148-7.7461v-193.58c0-4.2773 3.6797-7.7422 8.2148-7.7422z"
       opacity=".3"
       id="path671546" />
    <rect
       x="24.14"
       y="63.993"
       width="335.73"
       height="191.64"
       rx="3.7555"
       ry="3.7555"
       fill="url(#a)"
       id="rect671548" />
    <path
       d="m223.32 233.3h-14.855v15.797h14.855zm-22.281 0h-14.855v15.797h14.855zm-22.285 0h-14.855v15.797h14.855z"
       fill="#060606"
       opacity=".3"
       id="path671550" />
    <path
       d="m220.32 230.3h-14.855v15.797h14.855zm-22.281 0h-14.855v15.797h14.855zm-22.285 0h-14.855v15.797h14.855z"
       fill="#fff"
       id="path671552" />
  </g>
  <path
     d="m192.11 81.25c-7.012 6.9353-13.729 14.807-20.826 21.693h-26.902v26.902c-6.9366 7.1468-14.87 13.906-21.842 20.972 6.9709 7.0643 14.906 14.093 21.842 21.262v26.612h26.902c7.0967 6.8879 13.815 14.756 20.826 21.693 7.0105-6.9368 13.729-14.805 20.826-21.693h26.902v-26.612c6.9366-7.1688 14.871-14.198 21.842-21.262-6.9725-7.0659-14.906-13.825-21.842-20.972v-26.902h-26.902c-7.0967-6.8863-13.814-14.758-20.826-21.693zm0 29.172c21.153 0 38.3 17.147 38.3 38.3 0 21.153-17.147 38.298-38.3 38.298-21.153 0-38.3-17.146-38.3-38.298s17.147-38.3 38.3-38.3z"
     opacity=".3"
     stroke-width=".39895"
     id="path671556" />
  <path
     transform="scale(0.75)"
     d="m 256.14667,108.33333 c -2.05839,2.03587 -4.09436,-5.86711 -6.12419,-3.73761 -7.18985,7.54291 -14.26088,15.50181 -21.64048,22.66228 l -25.61549,0 -10.25351,9.37807 v 0 26.49093 c -7.18491,7.40266 -15.17149,14.49379 -22.73679,21.70673 -2.17316,2.07195 1.94995,10.33561 -0.1247,12.43793 2.03473,2.06199 -2.13046,-2.05994 0,0 7.60131,7.3497 15.63726,14.70198 22.86149,22.16834 v 23.36298 12.11902 h 8.35501 4.05755 23.45644 c 7.39343,7.1759 14.47891,15.15 21.6832,22.70604 2.01585,2.11426 10.00539,-1.89632 12.04919,0.12584 2.00309,-1.98205 -1.97611,2.07101 0,0 7.24531,-7.59327 14.36849,-15.61597 21.80361,-22.83188 h 25.97559 v 0 L 319.787,242.53548 V 219.44 c 7.20476,-7.44593 15.21685,-14.77912 22.80029,-22.10932 2.15148,-2.07963 -2.39793,-10.68241 -0.34367,-12.76407 -2.16373,-2.1927 2.26956,2.16011 0,0 -7.48191,-7.12107 -15.36024,-14.1284 -22.45662,-21.43961 v -25.82459 l -0.003,-0.0451 -9.76688,-9.99933 H 283.918 c -7.66009,-7.43302 -14.98831,-15.72692 -22.46246,-23.5225 -1.75836,-1.83398 -3.52814,6.35895 -5.30887,4.59783 z M 256.15,137.23 c 28.203,0 51.066,22.863 51.066,51.066 0,28.203 -22.863,51.064 -51.066,51.064 -28.203,0 -51.066,-22.861 -51.066,-51.064 0,-28.203 22.863,-51.066 51.066,-51.066 z"
     fill="#ffffff"
     stroke-width="0.53194"
     id="path671558"
     sodipodi:nodetypes="sscccccscsccccccscscccccscscccccscssssss" />
</svg>
