<?xml version="1.0" encoding="UTF-8" standalone="no"?>
<svg
   width="32"
   height="32"
   version="1"
   id="svg2043048"
   sodipodi:docname="org.quassel_irc.QuasselClient.svg"
   inkscape:version="1.1.2 (0a00cf5339, 2022-02-04)"
   xmlns:inkscape="http://www.inkscape.org/namespaces/inkscape"
   xmlns:sodipodi="http://sodipodi.sourceforge.net/DTD/sodipodi-0.dtd"
   xmlns="http://www.w3.org/2000/svg"
   xmlns:svg="http://www.w3.org/2000/svg">
  <defs
     id="defs2043052" />
  <sodipodi:namedview
     id="namedview2043050"
     pagecolor="#ffffff"
     bordercolor="#666666"
     borderopacity="1.0"
     inkscape:pageshadow="2"
     inkscape:pageopacity="0.0"
     inkscape:pagecheckerboard="0"
     showgrid="false"
     inkscape:zoom="25.84375"
     inkscape:cx="15.980653"
     inkscape:cy="16"
     inkscape:window-width="1920"
     inkscape:window-height="1051"
     inkscape:window-x="0"
     inkscape:window-y="29"
     inkscape:window-maximized="1"
     inkscape:current-layer="svg2043048" />
  <rect
     fill="#0286c2"
     width="28"
     height="28"
     x="2"
     y="2"
     rx="14"
     ry="14"
     id="rect2043038" />
  <path
     opacity=".2"
     d="m2.0254 16.5c-0.0059 0.167-0.0254 0.331-0.0254 0.5 0 7.756 6.244 14 14 14s14-6.244 14-14c0-0.169-0.02-0.333-0.025-0.5-0.264 7.521-6.388 13.5-13.975 13.5-7.5872 0-13.711-5.979-13.975-13.5z"
     id="path2043040" />
  <path
     fill="#fff"
     opacity=".2"
     d="m16 2c-7.756 0-14 6.244-14 14 0 0.169 0.0195 0.333 0.0254 0.5 0.2637-7.5206 6.3874-13.5 13.975-13.5 7.587 0 13.711 5.9794 13.975 13.5 0.005-0.167 0.025-0.331 0.025-0.5 0-7.756-6.244-14-14-14z"
     id="path2043042" />
  <path
     opacity=".2"
     d="m16 9a8 8 0 0 0 -8 8 8 8 0 0 0 8 8 8 8 0 0 0 5.0332 -1.7852 4.5 4.5 0 0 1 -2.533 0.785 4.5 4.5 0 0 1 -4.5 -4.5 4.5 4.5 0 0 1 4.5 -4.5 4.5 4.5 0 0 1 4.5 4.5 4.5 4.5 0 0 1 -0.746 2.477 8 8 0 0 0 1.746 -4.977 8 8 0 0 0 -8 -8z"
     id="path2043044" />
  <path
     fill="#ffffff"
     d="m 16,8 c -4.418278,0 -8,3.581722 -8,8 0,4.418278 3.581722,8 8,8 1.118621,-5.99e-4 2.216416,-0.235616 3.225812,-0.681083 0.644343,-0.284362 -0.692416,0.0911 -0.137693,-0.358534 -0.583359,0.398765 0.695054,-0.09262 0,0 -0.194157,0.02587 -0.390529,0.03913 -0.587919,0.03942 -2.485281,0 -4.5,-2.014719 -4.5,-4.5 0,-2.485281 2.014719,-4.5 4.5,-4.5 2.485281,0 4.5,2.014719 4.5,4.5 -8.67e-4,0.880886 1.072549,-0.708775 0.586803,0.02608 0.588551,-0.73782 -0.295229,0.882572 0,0 0.270535,-0.808755 0.411927,-1.661212 0.413197,-2.526079 0,-4.418278 -3.581722,-8 -8,-8 z"
     id="path2043046"
     sodipodi:nodetypes="cscscscssccsccc" />
</svg>
