<?xml version="1.0" encoding="UTF-8" standalone="no"?>
<svg
   width="512"
   height="512"
   version="1.1"
   viewBox="0 0 384 384"
   id="svg31987"
   sodipodi:docname="printer-error.svg"
   inkscape:version="1.1.2 (0a00cf5339, 2022-02-04)"
   xmlns:inkscape="http://www.inkscape.org/namespaces/inkscape"
   xmlns:sodipodi="http://sodipodi.sourceforge.net/DTD/sodipodi-0.dtd"
   xmlns="http://www.w3.org/2000/svg"
   xmlns:svg="http://www.w3.org/2000/svg">
  <sodipodi:namedview
     id="namedview31989"
     pagecolor="#ffffff"
     bordercolor="#666666"
     borderopacity="1.0"
     inkscape:pageshadow="2"
     inkscape:pageopacity="0.0"
     inkscape:pagecheckerboard="0"
     showgrid="false"
     inkscape:zoom="1.6152344"
     inkscape:cx="255.69045"
     inkscape:cy="256"
     inkscape:window-width="1920"
     inkscape:window-height="1051"
     inkscape:window-x="0"
     inkscape:window-y="29"
     inkscape:window-maximized="1"
     inkscape:current-layer="svg31987" />
  <defs
     id="defs31945">
    <clipPath
       id="clipPath31943">
      <rect
         width="36"
         height="36"
         id="rect31941" />
    </clipPath>
  </defs>
  <g
     transform="translate(0 .002)"
     id="g31981">
    <g
       transform="translate(.004525 1.8788)"
       id="g31975">
      <path
         d="m84.15 38.24h216.99c0.99999 0 1.8086 0.98438 1.8086 2.1992v122.73c0 1.2148-0.80859 2.1992-1.8086 2.1992h-216.99c-1 0-1.8086-0.98439-1.8086-2.1992v-122.73c0-1.2148 0.80859-2.1992 1.8086-2.1992z"
         fill="#fff"
         fill-rule="evenodd"
         opacity=".2"
         stroke="#000"
         stroke-width="7.5"
         id="path31947" />
      <g
         transform="translate(419.32,323.11)"
         id="g31971">
        <path
           d="m-386.94-182.69h319.23c4.0352 0 7.3047 2.6758 7.3047 5.9766v138.92c0 3.2969-3.2695 5.9727-7.3047 5.9727h-319.23c-4.0352 0-7.3047-2.6758-7.3047-5.9727v-138.92c0-3.3008 3.2695-5.9766 7.3047-5.9766z"
           fill-rule="evenodd"
           opacity=".3"
           id="path31949" />
        <path
           d="m-335.17-284.87h216.99c1 0 1.8086 0.98438 1.8086 2.1992v122.73c0 1.2148-0.80859 2.1992-1.8086 2.1992h-216.99c-1 0-1.8086-0.98439-1.8086-2.1992v-122.73c0-1.2148 0.80859-2.1992 1.8086-2.1992z"
           fill="#fff"
           fill-rule="evenodd"
           id="path31951" />
        <path
           d="m-294.43-45.681c-0.30859-0.80078-0.40234-2.2695-0.21094-3.2656 0.33204-1.7148 2.7266-1.8125 45.043-1.8125h44.695v6.0078l-44.484 0.26172c-38.129 0.22266-44.562 0.0547-45.043-1.1914z"
           fill="#b3b3b3"
           id="path31953" />
        <path
           d="m-190.94-45.671c-0.31251-0.80859-0.41016-2.2852-0.21486-3.2812 0.32031-1.6524 1.6953-1.8125 15.906-1.8125h15.559v6.0078l-15.344 0.27735c-12.738 0.23047-15.438 0.0274-15.906-1.1914z"
           fill="#b3b3b3"
           id="path31955" />
        <path
           d="m-386.94-190.19h319.23c4.0352 0 7.3047 2.6758 7.3047 5.9766v138.92c0 3.2969-3.2695 5.9727-7.3047 5.9727h-319.23c-4.0352 0-7.3047-2.6758-7.3047-5.9727v-138.92c0-3.3008 3.2695-5.9766 7.3047-5.9766z"
           fill="#e6e6e6"
           fill-rule="evenodd"
           id="path31957" />
        <path
           d="m-350.6-190.22v19.012h-0.0312v38.234h246.12v-19.125h0.0312v-38.121zm245.85 107.51-123.18 0.69531-123.6-0.34765 0.14844 20.25v22.832l19.598 0.0156 19.449 0.0195 0.28515-12.188 0.20704-8.1289 83.41-0.14062c66.719-0.11328 84.172-0.69141 85.129-0.0312 0.94531 0.64845 0.67578 4.5156 0.77734 8.918l0.25781 11.461 19.535 0.0469 18.793-0.0742-0.54297-21.684z"
           fill="#333"
           id="path31959" />
        <path
           d="m-310.61-88.941h166.45c0.7656 0 1.3867 0.86718 1.3867 1.9336v107.72c0 1.0664-0.62109 1.9297-1.3867 1.9297h-166.45c-0.76563 0-1.3867-0.86328-1.3867-1.9297v-107.72c0-1.0664 0.62109-1.9336 1.3867-1.9336z"
           fill-rule="evenodd"
           opacity=".3"
           id="path31961" />
        <g
           transform="translate(-419.32,-325.68)"
           fill="#fff"
           id="g31969">
          <path
             d="m108.71 229.24h166.45c0.76562 0 1.3867 0.86719 1.3867 1.9336v107.72c0 1.0664-0.62109 1.9297-1.3867 1.9297h-166.45c-0.76563 0-1.3867-0.86328-1.3867-1.9297v-107.72c0-1.0664 0.62109-1.9336 1.3867-1.9336z"
             fill-rule="evenodd"
             id="path31963" />
          <path
             d="m108.71 228.65h166.45c0.76562 0 1.3867 0.86328 1.3867 1.9297v36.238c0 1.0664-0.62109 1.9336-1.3867 1.9336h-166.45c-0.76563 0-1.3867-0.86719-1.3867-1.9336v-36.238c0-1.0664 0.62109-1.9297 1.3867-1.9297z"
             fill-rule="evenodd"
             id="path31965" />
          <path
             d="m300.88 154.44c0 5.3047-4.3008 9.6055-9.6094 9.6055-5.3047 0-9.6055-4.3008-9.6055-9.6055 0-5.3086 4.3008-9.6094 9.6055-9.6094 5.3086 0 9.6094 4.3008 9.6094 9.6094z"
             id="path31967" />
        </g>
      </g>
      <path
         transform="scale(.75)"
         d="m43.174 177.23c-5.3803 0-9.7402 3.5677-9.7402 7.9688v10c0-4.4011 4.36-7.9688 9.7402-7.9688h425.64c5.3803 0 9.7402 3.5677 9.7402 7.9688v-10c0-4.4011-4.36-7.9688-9.7402-7.9688z"
         fill="#fff"
         fill-rule="evenodd"
         opacity=".3"
         stroke-width="1.3333"
         id="path31973" />
    </g>
    <path
       d="m384 294c0-49.706-40.292-90.002-90-90.002-49.706 0-90 40.296-90 90.002s40.292 89.998 90 89.998c49.706 0 90-40.291 90-89.998z"
       opacity=".3"
       stroke-width="1.103"
       id="path31977" />
    <path
       d="m384 286.5c0-49.706-40.292-90.002-90-90.002-49.706 0-90 40.296-90 90.002s40.292 89.998 90 89.998c49.706 0 90-40.291 90-89.998z"
       fill="#d41717"
       stroke-width="1.103"
       id="path31979" />
  </g>
  <path
     d="m264.75 253.07-11.675 11.675 29.253 29.254-29.253 29.253 11.675 11.676 29.254-29.254 29.253 29.254 11.676-11.676-29.254-29.253 29.254-29.254-11.676-11.675-29.253 29.253z"
     opacity=".3"
     stroke-width="11.029"
     id="path31983" />
  <path
     d="m 261.12474,249.19526 v 0 l -5.18172,5.18172 0.88444,6.62061 v 0 l 25.50054,25.50141 -24.97974,24.97974 -0.62234,7.92449 v 0 l 4.57691,4.5773 v 0 l 7.05782,-0.16318 25.64335,-25.64335 25.28597,25.28683 3.96703,3.96717 3.70188,-3.70188 4.75393,-4.75393 -1.25854,-7.69877 v 0 L 305.679,286.499 l 26.73209,-26.73209 -1.38589,-6.42937 v 0 l -3.46029,-3.46 v 0 l -8.59776,-0.0177 L 294.004,274.823 268.93899,249.75885 Z"
     fill="#ffffff"
     stroke-width="11.029"
     id="path31985"
     sodipodi:nodetypes="ccccccccccccccccccccccccccccc" />
</svg>
