<?xml version="1.0" encoding="UTF-8" standalone="no"?>
<svg
   width="512"
   height="512"
   version="1.1"
   viewBox="0 0 384 384"
   id="svg772977"
   sodipodi:docname="appimagekit-QMPlay2.svg"
   inkscape:version="1.1.2 (0a00cf5339, 2022-02-04)"
   xmlns:inkscape="http://www.inkscape.org/namespaces/inkscape"
   xmlns:sodipodi="http://sodipodi.sourceforge.net/DTD/sodipodi-0.dtd"
   xmlns:xlink="http://www.w3.org/1999/xlink"
   xmlns="http://www.w3.org/2000/svg"
   xmlns:svg="http://www.w3.org/2000/svg">
  <sodipodi:namedview
     id="namedview772979"
     pagecolor="#ffffff"
     bordercolor="#666666"
     borderopacity="1.0"
     inkscape:pageshadow="2"
     inkscape:pageopacity="0.0"
     inkscape:pagecheckerboard="0"
     showgrid="false"
     inkscape:zoom="1.6152344"
     inkscape:cx="255.69045"
     inkscape:cy="256"
     inkscape:window-width="1920"
     inkscape:window-height="1051"
     inkscape:window-x="0"
     inkscape:window-y="29"
     inkscape:window-maximized="1"
     inkscape:current-layer="g772975" />
  <defs
     id="defs772963">
    <filter
       id="alpha"
       width="1"
       height="1"
       x="0"
       y="0"
       filterUnits="objectBoundingBox">
      <feColorMatrix
         in="SourceGraphic"
         type="matrix"
         values="0 0 0 0 1 0 0 0 0 1 0 0 0 0 1 0 0 0 1 0"
         id="feColorMatrix772927" />
    </filter>
    <mask
       id="mask0">
      <g
         filter="url(#alpha)"
         id="g772932">
        <rect
           width="384"
           height="384"
           x="0"
           y="0"
           style="fill:rgb(0%,0%,0%);fill-opacity:0.2"
           id="rect772930" />
      </g>
    </mask>
    <clipPath
       id="clip1">
      <rect
         width="384"
         height="384"
         x="0"
         y="0"
         id="rect772935" />
    </clipPath>
    <g
       id="surface5"
       clip-path="url(#clip1)">
      <path
         style="fill:rgb(0%,0%,0%)"
         d="M 72 90.003906 L 72 306 L 185.519531 249.242188 L 287.996094 198 L 185.519531 146.761719 Z M 72 90.003906"
         id="path772938" />
    </g>
    <mask
       id="mask1">
      <g
         filter="url(#alpha)"
         id="g772943">
        <rect
           width="384"
           height="384"
           x="0"
           y="0"
           style="fill:rgb(0%,0%,0%);fill-opacity:0.101961"
           id="rect772941" />
      </g>
    </mask>
    <clipPath
       id="clip2">
      <rect
         width="384"
         height="384"
         x="0"
         y="0"
         id="rect772946" />
    </clipPath>
    <g
       id="surface8"
       clip-path="url(#clip2)">
      <path
         style="fill:rgb(100.000%,100.000%,100.000%)"
         d="M 54.421875 24.007812 C 46.417969 23.839844 38.675781 26.542969 32.949219 31.503906 C 27.222656 36.464844 23.996094 43.265625 24 50.363281 L 24 56.359375 C 23.996094 49.261719 27.222656 42.460938 32.949219 37.5 C 38.675781 32.539062 46.417969 29.835938 54.421875 30.003906 C 59.402344 30.113281 64.269531 31.328125 68.582031 33.542969 L 206.867188 104.304688 L 345.167969 175.097656 C 353.332031 179.296875 358.757812 186.683594 359.792969 195 C 361.1875 184.554688 355.4375 174.371094 345.167969 169.101562 L 206.867188 98.304688 L 68.582031 27.542969 C 64.269531 25.332031 59.402344 24.117188 54.421875 24.007812 Z M 54.421875 24.007812"
         id="path772949" />
    </g>
    <mask
       id="mask2">
      <g
         filter="url(#alpha)"
         id="g772954">
        <rect
           width="384"
           height="384"
           x="0"
           y="0"
           style="fill:rgb(0%,0%,0%);fill-opacity:0.2"
           id="rect772952" />
      </g>
    </mask>
    <clipPath
       id="clip3">
      <rect
         width="384"
         height="384"
         x="0"
         y="0"
         id="rect772957" />
    </clipPath>
    <g
       id="surface11"
       clip-path="url(#clip3)">
      <path
         style="fill:rgb(0%,0%,0%)"
         d="M 359.804688 195 C 358.738281 203.285156 353.3125 210.636719 345.179688 214.820312 L 206.886719 285.652344 L 68.582031 356.46875 C 59.390625 361.175781 48.070312 361.175781 38.875 356.472656 C 29.683594 351.769531 24.011719 343.074219 24 333.660156 L 24 339.660156 C 24.011719 349.074219 29.683594 357.769531 38.875 362.472656 C 48.070312 367.175781 59.390625 367.175781 68.582031 362.46875 L 206.886719 291.652344 L 345.179688 220.820312 C 355.410156 215.5625 361.152344 205.421875 359.804688 195 Z M 359.804688 195"
         id="path772960" />
    </g>
  </defs>
  <g
     id="g772975">
    <path
       style="fill:rgb(29.803%,29.803%,29.803%)"
       d="M 54.410156 24.007812 C 46.410156 23.84375 38.675781 26.546875 32.953125 31.507812 C 27.226562 36.46875 24 43.265625 24 50.363281 L 24 333.65625 C 24.007812 343.070312 29.675781 351.769531 38.871094 356.472656 C 48.0625 361.179688 59.386719 361.175781 68.582031 356.46875 L 206.855469 285.671875 L 345.140625 214.847656 C 354.335938 210.136719 360 201.433594 360 192.015625 C 360 182.597656 354.335938 173.890625 345.140625 169.183594 L 206.855469 98.363281 L 68.582031 27.539062 C 64.265625 25.332031 59.394531 24.121094 54.410156 24.019531 Z M 54.410156 24.007812"
       id="path772965" />
    <use
       mask="url(#mask0)"
       xlink:href="#surface5"
       id="use772967" />
    <path
       style="fill:#23a86e"
       d="m 72,90.003906 0,2.407563 v 196.143661 0 l 11.427852,5.73465 102.091678,-51.04759 92.94435,-46.47218 -1.21157,-10.138 v 0 L 185.51953,140.76562 80.057961,88.033025 Z"
       id="path772969"
       sodipodi:nodetypes="cccccccccccc" />
    <use
       mask="url(#mask1)"
       xlink:href="#surface8"
       id="use772971" />
    <use
       mask="url(#mask2)"
       xlink:href="#surface11"
       id="use772973" />
  </g>
</svg>
