<?xml version="1.0" encoding="UTF-8" standalone="no"?>
<svg
   width="512"
   height="512"
   version="1.1"
   viewBox="0 0 384 384"
   id="svg1922364"
   sodipodi:docname="cantata.svg"
   inkscape:version="1.1.2 (0a00cf5339, 2022-02-04)"
   xmlns:inkscape="http://www.inkscape.org/namespaces/inkscape"
   xmlns:sodipodi="http://sodipodi.sourceforge.net/DTD/sodipodi-0.dtd"
   xmlns="http://www.w3.org/2000/svg"
   xmlns:svg="http://www.w3.org/2000/svg">
  <sodipodi:namedview
     id="namedview1922366"
     pagecolor="#ffffff"
     bordercolor="#666666"
     borderopacity="1.0"
     inkscape:pageshadow="2"
     inkscape:pageopacity="0.0"
     inkscape:pagecheckerboard="0"
     showgrid="false"
     inkscape:zoom="1.6152344"
     inkscape:cx="255.69045"
     inkscape:cy="256"
     inkscape:window-width="1920"
     inkscape:window-height="1051"
     inkscape:window-x="0"
     inkscape:window-y="29"
     inkscape:window-maximized="1"
     inkscape:current-layer="svg1922364" />
  <defs
     id="defs1922356">
    <clipPath
       id="clipPath1922350">
      <rect
         width="384"
         height="384"
         id="rect1922348" />
    </clipPath>
    <clipPath
       id="clipPath1922354">
      <rect
         width="384"
         height="384"
         id="rect1922352" />
    </clipPath>
  </defs>
  <path
     d="m 209.76,23.25 c -17.762,0 -53.289,8.8789 -53.289,32.891 v 164.87 c -5.7969,-1.5352 -11.766,-2.3281 -17.762,-2.3633 -39.242,0 -71.055,31.812 -71.055,71.055 0,39.238 31.812,71.051 71.055,71.051 35.781,-0.0352 65.953,-26.672 70.43,-62.172 0,0 0.62109,-6.457 0.62109,-8.8789 v -150.99 c 0,-69.291606 66.99182,2.30123 96.18751,33.52695 4.48413,4.79591 7.68402,-5.35652 10.00531,-3.12177 0,-3.75626 0.29326,5.49047 0,0 C 313.47283,122.68507 297.12663,23.2488 209.76009,23.2488 Z"
     fill="#357aef"
     id="path1922358"
     sodipodi:nodetypes="csccsccssscscc" />
  <path
     transform="scale(0.75)"
     d="m 300.82,135.98 c -12.753,-0.013 -21.141,10.659 -21.141,38.969 v 10 c 0,-87.753613 80.5776,-6.03463 122.02169,38.06517 8.89128,9.46104 3.90902,-6.96081 8.01592,-3.00758 -4.63507,-12.37881 3.33131,4.47881 0,0 -5.58411,-7.50762 -8.99146,-7.10566 -9.06515,-9.48595 -17.317,-16.757 -64.67253,-74.50464 -99.82653,-74.54064 z m -21.141,240.29 c 0,3.2292 -0.82812,11.838 -0.82812,11.838 -5.9688,47.333 -46.198,82.85 -93.906,82.896 -50.646,0 -92.007,-39.741 -94.607,-89.734 -0.08612,1.656 -0.13086,3.3226 -0.13086,5 0,52.318 42.415,94.734 94.738,94.734 47.708,-0.0469 87.938,-35.563 93.906,-82.896 0,0 0.82812,-8.6087 0.82812,-11.838 v -10 z"
     opacity="0.3"
     stroke-width="1.3333"
     id="path1922360"
     sodipodi:nodetypes="sscscscssccccsccscc" />
  <path
     transform="scale(0.75)"
     d="m 279.68,31 c -23.682,0 -71.051,11.838 -71.051,43.854 v 10 C 208.629,52.838 255.997,41 279.68,41 c 108.01905,0 134.60713,114.00181 140.54414,179.94176 0.77668,8.6262 1.19994,16.42989 1.40586,23.04824 0.0493,0.0477 0.11565,0.1155 0.16407,0.16211 0,-47.365 -11.844,-213.16 -142.11,-213.16 z m -94.734,260.53 c -52.323,0 -94.738,42.417 -94.738,94.74 0,1.6773 0.04474,3.3442 0.13086,5 2.6001,-49.998 43.962,-89.74 94.607,-89.74 7.9948,0.0469 15.954,1.1055 23.684,3.1523 v -10 c -7.7292,-2.0468 -15.689,-3.1055 -23.684,-3.1523 z"
     fill="#edf4ff"
     opacity="0.3"
     stroke-width="1.3333"
     id="path1922362"
     sodipodi:nodetypes="cscsscccccscccccc" />
</svg>
