<?xml version="1.0" encoding="UTF-8" standalone="no"?>
<svg
   width="512"
   height="512"
   version="1.1"
   viewBox="0 0 384 384"
   id="svg20980"
   sodipodi:docname="org.soundconverter.SoundConverter.svg"
   inkscape:version="1.1.2 (0a00cf5339, 2022-02-04)"
   xmlns:inkscape="http://www.inkscape.org/namespaces/inkscape"
   xmlns:sodipodi="http://sodipodi.sourceforge.net/DTD/sodipodi-0.dtd"
   xmlns="http://www.w3.org/2000/svg"
   xmlns:svg="http://www.w3.org/2000/svg">
  <sodipodi:namedview
     id="namedview20982"
     pagecolor="#ffffff"
     bordercolor="#666666"
     borderopacity="1.0"
     inkscape:pageshadow="2"
     inkscape:pageopacity="0.0"
     inkscape:pagecheckerboard="0"
     showgrid="false"
     inkscape:zoom="1.6152344"
     inkscape:cx="255.69045"
     inkscape:cy="256"
     inkscape:window-width="1920"
     inkscape:window-height="1051"
     inkscape:window-x="0"
     inkscape:window-y="29"
     inkscape:window-maximized="1"
     inkscape:current-layer="svg20980" />
  <defs
     id="defs20958">
    <clipPath
       id="clipPath20944">
      <rect
         width="384"
         height="384"
         id="rect20942" />
    </clipPath>
    <clipPath
       id="clipPath20948">
      <rect
         width="384"
         height="384"
         id="rect20946" />
    </clipPath>
    <clipPath
       id="clipPath20952">
      <rect
         width="384"
         height="384"
         id="rect20950" />
    </clipPath>
    <clipPath
       id="clipPath20956">
      <rect
         width="384"
         height="384"
         id="rect20954" />
    </clipPath>
  </defs>
  <path
     d="m360.75 343.87v-303.75c0-9.3215-7.5552-16.877-16.877-16.877h-303.75c-9.3215 0-16.877 7.5552-16.877 16.877v303.75c0 9.3215 7.5552 16.877 16.877 16.877h303.75c9.3215 0 16.877-7.5552 16.877-16.877z"
     fill="#23a86e"
     stroke-width="1.0817"
     id="path20960" />
  <g
     id="g20968">
    <path
       transform="scale(.75)"
       d="m31 448.5v10c0 12.429 10.073 22.502 22.502 22.502h405c12.429 0 22.502-10.073 22.502-22.502v-10c-1e-5 12.429-10.073 22.502-22.502 22.502h-405c-12.429 0-22.502-10.073-22.502-22.502z"
       opacity=".3"
       stroke-width="1.4423"
       id="path20962" />
    <path
       d="m192.01 91.5c-10.094-0.10547-20.113 1.3906-29.848 4.0547-45.32 12.156-78.488 57.012-77.801 103.96h-24.363c12.418 18.262 36 53.988 36 53.988s36-54.004 36-54.012h-23.508c-0.0859-19.66 7.293-39.43 20.379-54.105 24.598-29.574 69.137-41.883 103.39-16.758 10.859 14.215 34.547-1.9141 22.324-15.973-18-14.02-39.852-21.105-62.578-21.152zm95.988 54s-36 53.992-36 54h23.508c0.0859 19.66-7.293 39.441-20.379 54.117-24.598 29.574-69.137 41.883-103.39 16.758-10.859-14.215-34.547 1.9141-22.324 15.973 18 14.02 39.852 21.105 62.578 21.152 10.094 0.10547 20.113-1.3906 29.848-4.0547 45.32-12.156 78.488-57.012 77.801-103.96h24.363c-12.418-18.262-36-53.988-36-53.988z"
       opacity=".3"
       id="path20964" />
    <path
       d="m384 294c0 49.706-40.294 90-90 90-49.706 0-90-40.294-90-90 0-49.706 40.294-90 90-90 49.706 0 90 40.294 90 90z"
       opacity=".3"
       stroke-width=".9375"
       id="path20966" />
  </g>
  <path
     d="m 192.01,84 c -10.094,-0.10547 -20.113,1.3906 -29.848,4.0547 -45.32,12.156 -78.488,57.012 -77.801,103.96 H 66.371146 l -2.362532,5.92713 c 1.23747,1.81984 -1.424809,-2.11404 0,0 9.676291,14.35707 22.879904,34.28508 28.841026,43.29736 1.969447,2.97749 6.09246,0.34699 6.09246,0.34699 0,0 -1.832515,2.74902 0,0 6.44627,-9.67027 21.81358,-32.72363 29.09696,-43.65264 2.42903,-3.64486 -6.53672,-5.94284 -1.28889,-5.94284 v 0 H 108.49 c -0.0859,-19.66 7.293,-39.43 20.379,-54.105 24.598,-29.574 69.137,-41.883 103.39,-16.758 10.859,14.215 34.547,-1.9141 22.324,-15.973 -18,-14.02 -39.852,-21.105 -62.578,-21.152 z m 95.988,54 c 0,0 -1.18457,1.77659 -3.12396,4.68529 -6.29177,9.43642 -20.52792,30.78813 -28.03448,42.04909 -2.93526,4.40334 9.368,7.26562 2.26322,7.26562 v 0 H 275.506 c 0.0859,19.66 -7.293,39.441 -20.379,54.117 -24.598,29.574 -69.137,41.883 -103.39,16.758 -10.859,-14.215 -34.547,1.9141 -22.324,15.973 18,14.02 39.852,21.105 62.578,21.152 10.094,0.10547 20.113,-1.3906 29.848,-4.0547 45.32,-12.156 78.488,-57.012 77.801,-103.96 h 18.46854 l 1.77564,-6.08769 c -1.26875,-1.86584 1.46478,2.17371 0,0 -9.63905,-14.3043 -22.71994,-34.04646 -28.68245,-43.06065 -1.9997,-3.02317 -6.32769,-0.15167 -6.32769,-0.15167 z"
     fill="#ffffff"
     id="path20970"
     sodipodi:nodetypes="cccccsscsscccccccccsscccccccccccsscc" />
  <path
     d="m384 286.5c0 49.706-40.294 90-90 90s-90-40.294-90-90 40.294-90 90-90 90 40.294 90 90z"
     fill="#9754b3"
     stroke-width=".9375"
     id="path20972" />
  <path
     d="m334.5 249.01-53.996 8.9994v47.423c-2.7332-1.5849-5.8385-2.4256-8.9994-2.4286-9.9398 0-17.999 8.0561-17.999 17.999 0 9.9398 8.059 17.999 17.999 17.999s17.999-8.059 17.999-17.999v-46.491l35.998-6.0113v27.93c-2.7332-1.5878-5.8385-2.4256-8.9994-2.4315-9.9398 0-17.999 8.059-17.999 17.999 0 9.9398 8.0591 17.999 17.999 17.999 9.9398 0 17.999-8.059 17.999-17.999v-62.996z"
     opacity=".3"
     stroke-width=".74995"
     id="path20974" />
  <path
     d="m334.5 241.51-53.996 8.9994v47.423c-2.7332-1.5849-5.8385-2.4256-8.9994-2.4286-9.9398 0-17.999 8.0561-17.999 17.999 0 9.9398 8.059 17.999 17.999 17.999s17.999-8.059 17.999-17.999v-46.491l35.998-6.0113v27.93c-2.7332-1.5878-5.8385-2.4256-8.9994-2.4315-9.9398 0-17.999 8.059-17.999 17.999 0 9.9398 8.0591 17.999 17.999 17.999 9.9398 0 17.999-8.059 17.999-17.999v-62.996z"
     fill="#fff"
     stroke-width=".74995"
     id="path20976" />
  <path
     transform="scale(.75)"
     d="m53.502 31c-12.429 0-22.502 10.073-22.502 22.502v10c0-12.429 10.073-22.502 22.502-22.502h405c12.429 0 22.502 10.073 22.502 22.502v-10c0-12.429-10.073-22.502-22.502-22.502h-405z"
     fill="#fff"
     opacity=".3"
     stroke-width="1.4423"
     id="path20978" />
</svg>
