<?xml version="1.0" encoding="UTF-8" standalone="no"?>
<svg
   width="512"
   height="512"
   version="1.1"
   viewBox="0 0 384 384"
   id="svg2090923"
   sodipodi:docname="tomahawk.svg"
   inkscape:version="1.1.2 (0a00cf5339, 2022-02-04)"
   xmlns:inkscape="http://www.inkscape.org/namespaces/inkscape"
   xmlns:sodipodi="http://sodipodi.sourceforge.net/DTD/sodipodi-0.dtd"
   xmlns="http://www.w3.org/2000/svg"
   xmlns:svg="http://www.w3.org/2000/svg">
  <defs
     id="defs2090927" />
  <sodipodi:namedview
     id="namedview2090925"
     pagecolor="#ffffff"
     bordercolor="#666666"
     borderopacity="1.0"
     inkscape:pageshadow="2"
     inkscape:pageopacity="0.0"
     inkscape:pagecheckerboard="0"
     showgrid="false"
     inkscape:zoom="1.6152344"
     inkscape:cx="255.69045"
     inkscape:cy="256"
     inkscape:window-width="1920"
     inkscape:window-height="1051"
     inkscape:window-x="0"
     inkscape:window-y="29"
     inkscape:window-maximized="1"
     inkscape:current-layer="svg2090923" />
  <circle
     cx="192"
     cy="192"
     r="156.35"
     fill="#fff"
     style="paint-order:normal"
     id="circle2090915" />
  <path
     d="m192 30.75c-93.215 0-168.75 75.535-168.75 168.75 0 93.215 75.535 168.75 168.75 168.75 93.215 0 168.75-75.535 168.75-168.75 0-93.215-75.535-168.75-168.75-168.75zm0 36.363c73.129 0 132.39 59.254 132.39 132.39 0 46.066-23.41 86.516-59.09 110.23v-190.34h-46.594v62.5l-34.375-22.445-60.793-39.203v157.39l60.793-39.203 34.375-22.445v113.36c-8.6172 1.7617-17.562 2.5547-26.703 2.5547-73.129 0-132.39-59.254-132.39-132.39 0-73.133 59.258-132.39 132.39-132.39z"
     opacity=".3"
     id="path2090917" />
  <path
     d="M 192,23.25 C 98.785,23.25 23.25,98.785 23.25,192 23.25,285.215 98.785,360.75 192,360.75 285.215,360.75 360.75,285.215 360.75,192 360.75,98.785 285.215,23.25 192,23.25 Z m 0,36.363 c 73.129,0 132.39,59.254 132.39,132.39 0,44.62109 -21.96448,83.97297 -55.76914,107.94951 -1.09465,0.7764 3.32086,-2.28049 0,0 L 265.3,298.30839 v -180.47663 0 l -5.61477,-5.93876 h -34.05437 l -6.92486,5.83895 v 0 52.16429 0 L 215.06864,172.018 184.331,151.948 133.02053,118.85991 123.538,120.245 v 5.20337 129.49027 l 7.14119,5.05065 8.49107,0.0651 -8.49107,-0.0651 8.49107,0.0651 45.16074,-29.12237 29.47302,-19.24428 4.90198,3.0688 v 0 102.64191 l -3.55674,5.11801 c -1.17956,0.24115 1.19149,-0.20529 0,0 -7.51293,1.2945 -15.25651,1.88526 -23.14626,1.88526 -73.129,0 -132.39,-59.254 -132.39,-132.39 0,-73.136 59.258,-132.39 132.39,-132.39 z"
     fill="#d31818"
     id="path2090919"
     sodipodi:nodetypes="ssssscssccccccccccccccccccccccccccssscc" />
  <path
     d="m 192,44.613 c -73.129,0 -132.39,59.254 -132.39,132.39 0,2.5156 0.07813,5.0156 0.21875,7.5 3.8867,-69.641 61.555,-124.89 132.17,-124.89 70.598,0 128.26,55.223 132.17,124.84 0.13672,-2.4648 0.21875,-4.9492 0.21875,-7.4531 0,-73.133 -59.258,-132.39 -132.39,-132.39 z M 23.43,184.503 c -0.10938,2.4883 -0.17578,4.9844 -0.17578,7.5 0,93.215 75.535,168.75 168.75,168.75 93.215,0 168.75,-75.535 168.75,-168.75 0,-2.5156 -0.0664,-5.0117 -0.17578,-7.5 -3.9219,89.73 -77.875,161.25 -168.57,161.25 -90.695,0 -164.65,-71.52 -168.57,-161.25 z m 195.28,8.9766 -34.371,22.445 -60.797,39.203 v 0 l 60.797,-24.203 30.62239,-19.99707 3.74861,-2.44793 z"
     fill="#941111"
     id="path2090921"
     sodipodi:nodetypes="cscscscccssscscccccccccc" />
</svg>
