<?xml version="1.0" encoding="UTF-8" standalone="no"?>
<svg
   width="24"
   height="24"
   viewBox="0 0 24 24"
   version="1.1"
   id="svg7"
   sodipodi:docname="adjustcurves.svg"
   inkscape:version="1.1.2 (0a00cf5339, 2022-02-04)"
   xmlns:inkscape="http://www.inkscape.org/namespaces/inkscape"
   xmlns:sodipodi="http://sodipodi.sourceforge.net/DTD/sodipodi-0.dtd"
   xmlns="http://www.w3.org/2000/svg"
   xmlns:svg="http://www.w3.org/2000/svg">
  <sodipodi:namedview
     id="namedview9"
     pagecolor="#ffffff"
     bordercolor="#666666"
     borderopacity="1.0"
     inkscape:pageshadow="2"
     inkscape:pageopacity="0.0"
     inkscape:pagecheckerboard="0"
     showgrid="false"
     inkscape:zoom="64"
     inkscape:cx="3.3046875"
     inkscape:cy="14.773437"
     inkscape:window-width="951"
     inkscape:window-height="519"
     inkscape:window-x="964"
     inkscape:window-y="556"
     inkscape:window-maximized="1"
     inkscape:current-layer="svg7" />
  <defs
     id="defs3">
    <style
       id="current-color-scheme"
       type="text/css">
   .ColorScheme-Text { color:#eeeeec; } .ColorScheme-Highlight { color:#367bf0; } .ColorScheme-NeutralText { color:#ffcc44; } .ColorScheme-PositiveText { color:#3db47e; } .ColorScheme-NegativeText { color:#dd4747; }
  </style>
  </defs>
  <path
     style="fill:currentColor"
     class="ColorScheme-Text"
     d="M 1,0 V 14 H 0 v 1 h 1 v 1 H 2 V 15 H 16 V 14 H 2.1129513 v 0 L 2,13.837589 V 10.875 L 5.8441548,7.0308452 v 0 L 6.1496389,7.0285451 8.0059188,8.884825 8.1210938,9 8.1269531,8.9960938 8.0059188,8.884825 8.2654866,8.8652725 16,1.125 V 0 h -0.289062 c 0.0063,-0.0108846 -5.8784538,6.2928542 -7.6273199,7.2436602 v 0 L 7.7569925,7.2202229 v 0 0 0 L 6.2153755,5.6800215 v 0 L 5.9762846,5.6327963 v 0 l -0.1957731,0.04763 -3.6107308,3.6107307 v 0 L 2,9.184042 2,0 Z"
     transform="translate(4,4)"
     id="path5"
     sodipodi:nodetypes="cccccccccccccccccccccccccsccccccccccccccc" />
</svg>
