<?xml version="1.0" encoding="UTF-8" standalone="no"?>
<svg
   width="24"
   height="24"
   viewBox="0 0 24 24"
   version="1.1"
   id="svg7"
   sodipodi:docname="action-unavailable.svg"
   inkscape:version="1.1.2 (0a00cf5339, 2022-02-04)"
   xmlns:inkscape="http://www.inkscape.org/namespaces/inkscape"
   xmlns:sodipodi="http://sodipodi.sourceforge.net/DTD/sodipodi-0.dtd"
   xmlns="http://www.w3.org/2000/svg"
   xmlns:svg="http://www.w3.org/2000/svg">
  <sodipodi:namedview
     id="namedview9"
     pagecolor="#ffffff"
     bordercolor="#666666"
     borderopacity="1.0"
     inkscape:pageshadow="2"
     inkscape:pageopacity="0.0"
     inkscape:pagecheckerboard="0"
     showgrid="false"
     inkscape:zoom="34.458333"
     inkscape:cx="12.01451"
     inkscape:cy="12"
     inkscape:window-width="1914"
     inkscape:window-height="1045"
     inkscape:window-x="3"
     inkscape:window-y="32"
     inkscape:window-maximized="1"
     inkscape:current-layer="svg7" />
  <defs
     id="defs3">
    <style
       id="current-color-scheme"
       type="text/css">
   .ColorScheme-Text { color:#eeeeec; } .ColorScheme-Highlight { color:#367bf0; } .ColorScheme-NeutralText { color:#ffcc44; } .ColorScheme-PositiveText { color:#3db47e; } .ColorScheme-NegativeText { color:#dd4747; }
  </style>
  </defs>
  <path
     style="fill:currentColor"
     class="ColorScheme-Text"
     d="M 8,1 C 4.137,1 1,4.137 1,8 c 0,3.863 3.137,7 7,7 3.863,0 7,-3.137 7,-7 C 15,4.137 11.863,1 8,1 Z m 0,2 c 0.8778785,0 1.696576,0.2133112 2.412153,0.6077517 0.115357,0.063587 -0.109814,-0.072867 0,0 l 0.08905,0.4535463 -6.4461047,6.446105 -0.1877958,-0.05481 C 3.7579665,10.420676 3.689969,10.558051 3.6339131,10.458988 3.2227517,9.7323726 3,8.8970941 3,8 3,5.2407 5.2408,3 8,3 Z m 4.1875,2.4637166 c 0.02069,-0.00331 0.113932,-0.035738 0.166418,0.055918 C 12.772851,6.2512262 13,7.0940952 13,8 c 0,2.7592 -2.2408,5 -5,5 -0.8968791,0 -1.7319877,-0.222645 -2.4584706,-0.633617 -0.099243,-0.05614 0.09507,0.06308 0,0 L 5.4679234,11.969577 11.933147,5.5043532 Z"
     transform="translate(4,4)"
     id="path5"
     sodipodi:nodetypes="ssssscscccssscssscscccs" />
</svg>
