<?xml version="1.0" encoding="UTF-8" standalone="no"?>
<svg
   width="24"
   height="24"
   version="1.1"
   id="svg9"
   sodipodi:docname="filename-filetype-amarok.svg"
   inkscape:version="1.1.2 (0a00cf5339, 2022-02-04)"
   xmlns:inkscape="http://www.inkscape.org/namespaces/inkscape"
   xmlns:sodipodi="http://sodipodi.sourceforge.net/DTD/sodipodi-0.dtd"
   xmlns="http://www.w3.org/2000/svg"
   xmlns:svg="http://www.w3.org/2000/svg">
  <sodipodi:namedview
     id="namedview11"
     pagecolor="#ffffff"
     bordercolor="#666666"
     borderopacity="1.0"
     inkscape:pageshadow="2"
     inkscape:pageopacity="0.0"
     inkscape:pagecheckerboard="0"
     showgrid="false"
     inkscape:zoom="34.458333"
     inkscape:cx="11.956469"
     inkscape:cy="7.356711"
     inkscape:window-width="954"
     inkscape:window-height="519"
     inkscape:window-x="961"
     inkscape:window-y="556"
     inkscape:window-maximized="1"
     inkscape:current-layer="g7" />
  <defs
     id="defs3">
    <style
       id="current-color-scheme"
       type="text/css">
   .ColorScheme-Text { color:#eeeeec; } .ColorScheme-Highlight { color:#367bf0; } .ColorScheme-NeutralText { color:#ffcc44; } .ColorScheme-PositiveText { color:#3db47e; } .ColorScheme-NegativeText { color:#dd4747; }
  </style>
  </defs>
  <g
     transform="translate(4,4)"
     id="g7">
    <path
       style="fill:currentColor"
       class="ColorScheme-Text"
       d="m 5,1.4522618 v 0 V 9.1758 C 4.6790763,9.0608084 4.3409007,9.0013571 4,9 2.3431458,9 1,10.343146 1,12 c 0,1.656854 1.3431458,3 3,3 1.6568542,0 3,-1.343146 3,-3 v -6.6116428 0 L 7.4416625,5 H 12.545841 V 5 L 13,5.3894802 v 3.3873865 0 C 12.679076,8.6618751 12.340901,9.0013571 12,9 c -1.656854,0 -3,1.343146 -3,3 0,1.656854 1.343146,3 3,3 1.656854,0 3,-1.343146 3,-3 V 1.4674522 L 14.636656,1 V 1 H 5.335497 Z"
       id="path5"
       sodipodi:nodetypes="ccccssscccccccccsssccccc" />
  </g>
</svg>
