<?xml version="1.0" encoding="UTF-8" standalone="no"?>
<svg
   width="24"
   height="24"
   version="1.1"
   id="svg13"
   sodipodi:docname="tools-check-spelling.svg"
   inkscape:version="1.1.2 (0a00cf5339, 2022-02-04)"
   xmlns:inkscape="http://www.inkscape.org/namespaces/inkscape"
   xmlns:sodipodi="http://sodipodi.sourceforge.net/DTD/sodipodi-0.dtd"
   xmlns="http://www.w3.org/2000/svg"
   xmlns:svg="http://www.w3.org/2000/svg">
  <sodipodi:namedview
     id="namedview15"
     pagecolor="#ffffff"
     bordercolor="#666666"
     borderopacity="1.0"
     inkscape:pageshadow="2"
     inkscape:pageopacity="0.0"
     inkscape:pagecheckerboard="0"
     showgrid="false"
     inkscape:zoom="31.416667"
     inkscape:cx="11.984085"
     inkscape:cy="12"
     inkscape:window-width="1826"
     inkscape:window-height="966"
     inkscape:window-x="0"
     inkscape:window-y="29"
     inkscape:window-maximized="1"
     inkscape:current-layer="g11" />
  <defs
     id="defs3">
    <style
       id="current-color-scheme"
       type="text/css">
   .ColorScheme-Text { color:#eeeeec; } .ColorScheme-Highlight { color:#367bf0; } .ColorScheme-NeutralText { color:#ffcc44; } .ColorScheme-PositiveText { color:#3db47e; } .ColorScheme-NegativeText { color:#dd4747; }
  </style>
  </defs>
  <g
     transform="matrix(1,0,0,1,4,4)"
     id="g11">
    <path
       style="fill:currentColor"
       class="ColorScheme-Text"
       d="m 2.6738949,11.619033 v 0 L 0.64648,13.646 c -0.47612893,0.471339 0.23502186,1.183476 0.70702,0.708 l 1.3591807,-1.359593 v 0 l 0.6160515,0.04132 1.2568194,1.25682 v 0 l 0.8754765,-0.04658 1.2410986,-1.241099 v 0 l 0.6474808,0.05174 1.3685002,1.3685 v 0 l 0.6204625,-0.05668 1.4004108,-1.400411 v 0 l 0.599865,0.07783 1.384448,1.384448 v 0 L 13.296185,14.410941 15.354,12.354 c 0.472,-0.472 -0.236,-1.18 -0.708,-0.708 l -1.356532,1.357356 v 0 l -0.543447,0.03566 -1.368532,-1.368532 v 0 l -0.692888,-0.06209 -1.3847376,1.384738 v 0 L 8.7886933,13.081693 7.324444,11.617444 v 0 l -0.5974278,-0.05146 -1.4001371,1.400137 v 0 L 4.671794,12.964794 3.4784009,11.771401 Z"
       id="path5"
       sodipodi:nodetypes="ccccccccccccccccccccccccccccccccccccccccc" />
    <path
       style="fill:currentColor"
       class="ColorScheme-Text"
       d="M 8,2 V 11 H 11 C 12.662,11 14,9.662 14,8 14,6.338 12.662,5 11,5 H 10 V 2 Z M 10,7 H 11 C 11.554,7 12,7.446 12,8 12,8.554 11.554,9 11,9 H 10 Z"
       id="path7" />
    <path
       style="fill:currentColor"
       class="ColorScheme-Text"
       d="M 2,3 V 5 H 5 V 6 H 4 C 2.338,6 1,7.115 1,8.5 1,9.885 2.338,11 4,11 H 7 V 5 C 7,3.892 6.108,3 5,3 Z M 3.5,8 H 5 V 9 H 3.5 C 3.223,9 3,8.777 3,8.5 3,8.223 3.223,8 3.5,8 Z"
       id="path9" />
  </g>
</svg>
