<?xml version="1.0" encoding="UTF-8" standalone="no"?>
<svg
   width="24"
   height="24"
   version="1.1"
   id="svg11"
   sodipodi:docname="gtk-goto-last-rtl.svg"
   inkscape:version="1.1.2 (0a00cf5339, 2022-02-04)"
   xmlns:inkscape="http://www.inkscape.org/namespaces/inkscape"
   xmlns:sodipodi="http://sodipodi.sourceforge.net/DTD/sodipodi-0.dtd"
   xmlns="http://www.w3.org/2000/svg"
   xmlns:svg="http://www.w3.org/2000/svg">
  <sodipodi:namedview
     id="namedview13"
     pagecolor="#ffffff"
     bordercolor="#666666"
     borderopacity="1.0"
     inkscape:pageshadow="2"
     inkscape:pageopacity="0.0"
     inkscape:pagecheckerboard="0"
     showgrid="false"
     inkscape:zoom="34.458333"
     inkscape:cx="11.825877"
     inkscape:cy="10.142684"
     inkscape:window-width="953"
     inkscape:window-height="519"
     inkscape:window-x="3"
     inkscape:window-y="556"
     inkscape:window-maximized="1"
     inkscape:current-layer="g9" />
  <defs
     id="defs3">
    <style
       id="current-color-scheme"
       type="text/css">
   .ColorScheme-Text { color:#eeeeec; } .ColorScheme-Highlight { color:#367bf0; } .ColorScheme-NeutralText { color:#ffcc44; } .ColorScheme-PositiveText { color:#3db47e; } .ColorScheme-NegativeText { color:#dd4747; }
  </style>
  </defs>
  <g
     transform="matrix(1,0,0,1,4,4)"
     id="g9">
    <circle
       class="ColorScheme-Text"
       cx="2"
       cy="8"
       r="2"
       style="fill:currentColor"
       id="circle5" />
    <path
       class="ColorScheme-Text"
       d="M 15.695109,7 V 7 H 9.3435797 L 9.1702946,6.8297054 v 0 L 12.287615,3.7123846 12.228935,3.2289348 v 0 L 11.133284,2.133284 v 0 l -0.32828,0.061712 -5.5811313,5.5811313 -0.047669,0.4000768 v 0 L 10.721722,13.721722 11,14 l -0.278278,-0.278278 0.506579,0.04998 1.07059,-1.07059 -0.0296,-0.431818 c 0.345595,0.198702 0.21461,0.166732 0,0 L 9.1749557,9.1749557 v 0 L 9.297647,9 h 6.34505 V 9 L 16,8.6657086 V 7.297146 Z"
       style="fill:currentColor"
       id="path7"
       sodipodi:nodetypes="ccccccccccccccccccccccccccccc" />
  </g>
</svg>
