<?xml version="1.0" encoding="UTF-8" standalone="no"?>
<svg
   width="24"
   height="24"
   version="1.1"
   id="svg11"
   sodipodi:docname="kdenlive-zindex-top.svg"
   inkscape:version="1.1.2 (0a00cf5339, 2022-02-04)"
   xmlns:inkscape="http://www.inkscape.org/namespaces/inkscape"
   xmlns:sodipodi="http://sodipodi.sourceforge.net/DTD/sodipodi-0.dtd"
   xmlns="http://www.w3.org/2000/svg"
   xmlns:svg="http://www.w3.org/2000/svg">
  <sodipodi:namedview
     id="namedview13"
     pagecolor="#ffffff"
     bordercolor="#666666"
     borderopacity="1.0"
     inkscape:pageshadow="2"
     inkscape:pageopacity="0.0"
     inkscape:pagecheckerboard="0"
     showgrid="false"
     inkscape:zoom="34.458333"
     inkscape:cx="10.374849"
     inkscape:cy="10.258767"
     inkscape:window-width="953"
     inkscape:window-height="519"
     inkscape:window-x="3"
     inkscape:window-y="556"
     inkscape:window-maximized="1"
     inkscape:current-layer="g9" />
  <defs
     id="defs3">
    <style
       id="current-color-scheme"
       type="text/css">
   .ColorScheme-Text { color:#eeeeec; } .ColorScheme-Highlight { color:#367bf0; } .ColorScheme-NeutralText { color:#ffcc44; } .ColorScheme-PositiveText { color:#3db47e; } .ColorScheme-NegativeText { color:#dd4747; }
  </style>
  </defs>
  <g
     transform="matrix(1,0,0,1,4,4)"
     id="g9">
    <path
       class="ColorScheme-Text"
       d="m 7,10.6732 v 0 L 7,4.3852403 v 0 l -0.2578293,-0.127411 -2.969543,2.969543 v 0 L 3.1149132,7.1149132 2.185798,6.185798 2.2842809,5.7157191 v 0 L 7.740812,0.25918804 8.216089,0.21608896 v 0 0 L 13.655008,5.6550077 13.811468,6.1885324 14,6 13.811468,6.1885324 12.719277,7.280723 v 0 C 12.551327,7.1335044 12.28597,7.286463 12.181144,7.181144 L 9.2097375,4.2097375 v 0 L 9,4.3349043 V 10.472711 L 8.6412978,11 v 0 H 7.2778373 Z"
       style="fill:currentColor"
       id="path5"
       sodipodi:nodetypes="cccccccccccccccccccccccccccccc" />
    <circle
       class="ColorScheme-Text"
       cx="8"
       cy="14"
       r="2"
       style="fill:currentColor"
       id="circle7" />
  </g>
</svg>
