<?xml version="1.0" encoding="UTF-8" standalone="no"?>
<svg
   width="24"
   height="24"
   version="1.1"
   id="svg9"
   sodipodi:docname="slideshow-plugin.svg"
   inkscape:version="1.1.2 (0a00cf5339, 2022-02-04)"
   xmlns:inkscape="http://www.inkscape.org/namespaces/inkscape"
   xmlns:sodipodi="http://sodipodi.sourceforge.net/DTD/sodipodi-0.dtd"
   xmlns="http://www.w3.org/2000/svg"
   xmlns:svg="http://www.w3.org/2000/svg">
  <sodipodi:namedview
     id="namedview11"
     pagecolor="#ffffff"
     bordercolor="#666666"
     borderopacity="1.0"
     inkscape:pageshadow="2"
     inkscape:pageopacity="0.0"
     inkscape:pagecheckerboard="0"
     showgrid="false"
     inkscape:zoom="31.416667"
     inkscape:cx="11.984085"
     inkscape:cy="12"
     inkscape:window-width="1826"
     inkscape:window-height="966"
     inkscape:window-x="0"
     inkscape:window-y="29"
     inkscape:window-maximized="1"
     inkscape:current-layer="g7" />
  <defs
     id="defs3">
    <style
       id="current-color-scheme"
       type="text/css">
   .ColorScheme-Text { color:#eeeeec; } .ColorScheme-Highlight { color:#367bf0; } .ColorScheme-NeutralText { color:#ffcc44; } .ColorScheme-PositiveText { color:#3db47e; } .ColorScheme-NegativeText { color:#dd4747; }
  </style>
  </defs>
  <g
     transform="translate(4,4)"
     id="g7">
    <path
       style="fill:currentColor"
       class="ColorScheme-Text"
       d="M 6.5,1 C 6.5,1 5,1 5,2.5 v 1.2102274 0 L 4.7601076,4 H 2 C 1,4 1,5 1,5 V 7.7207608 L 1.3545731,8 V 8 H 2.5 C 4,8 4,9.5 4,9.5 4,9.5 4,11 2.5,11 H 1.3226458 v 0 L 1,11.317628 V 14 c 0,1 1,1 1,1 H 4.6962547 L 5,14.691231 v 0 V 14 c 0,-2 1.5,-2 1.5,-2 0,0 1.5,0 1.5,2 v 0.627926 L 8.2614241,15 v 0 L 11,15 c 1,0 1,-1 1,-1 v -2.682372 0 L 12.271795,11 H 13.5 C 15,11 15,9.5 15,9.5 15,9.5 15,8 13.5,8 H 12.207942 V 8 L 12,7.6888664 V 5 C 12,4 11,4 11,4 H 8.2614241 V 4 L 8,3.7421218 V 2.5 C 8,1 6.5,1 6.5,1 Z"
       id="path5"
       sodipodi:nodetypes="cscccsccccscscccsccccscscccsccccscscccsccccsc" />
  </g>
</svg>
