<?xml version="1.0" encoding="UTF-8" standalone="no"?>
<svg
   width="24"
   height="24"
   version="1.1"
   id="svg9"
   sodipodi:docname="media-playlist-repeat-amarok.svg"
   inkscape:version="1.1.2 (0a00cf5339, 2022-02-04)"
   xmlns:inkscape="http://www.inkscape.org/namespaces/inkscape"
   xmlns:sodipodi="http://sodipodi.sourceforge.net/DTD/sodipodi-0.dtd"
   xmlns="http://www.w3.org/2000/svg"
   xmlns:svg="http://www.w3.org/2000/svg">
  <sodipodi:namedview
     id="namedview11"
     pagecolor="#ffffff"
     bordercolor="#666666"
     borderopacity="1.0"
     inkscape:pageshadow="2"
     inkscape:pageopacity="0.0"
     inkscape:pagecheckerboard="0"
     showgrid="false"
     inkscape:zoom="34.458333"
     inkscape:cx="11.941959"
     inkscape:cy="12.696493"
     inkscape:window-width="953"
     inkscape:window-height="519"
     inkscape:window-x="3"
     inkscape:window-y="556"
     inkscape:window-maximized="1"
     inkscape:current-layer="g7" />
  <defs
     id="defs3">
    <style
       id="current-color-scheme"
       type="text/css">
   .ColorScheme-Text { color:#eeeeec; } .ColorScheme-Highlight { color:#367bf0; } .ColorScheme-NeutralText { color:#ffcc44; } .ColorScheme-PositiveText { color:#3db47e; } .ColorScheme-NegativeText { color:#dd4747; }
  </style>
  </defs>
  <g
     transform="translate(4,4)"
     id="g7">
    <path
       style="fill:currentColor"
       class="ColorScheme-Text"
       d="M 5.2150092,2.1612569 5,2.2402663 V 3.7218202 L 4.6661077,4 V 4 H 3 C 1,4 1,6 1,6 v 6 c 0,0 0,2 2,2 h 10 c 2,0 2,-2 2,-2 V 6 C 15,6 15,4 13,4 H 11.251505 V 4 H 11 V 4.2117245 5.7007586 L 11.225951,6 V 6 H 13 v 6 H 3 V 6 H 4.7242268 L 5,6.1976842 v 0 1.4849849 l 0.2399031,0.1374036 v 0 l 3.480314,-2.6102355 v 0 L 8.6526284,4.7394713 Z M 9,11 h 3 v 1 H 9 Z M 9,9 h 3 v 1 H 9 Z M 9,7 h 3 V 8 H 9 Z"
       id="path5"
       sodipodi:nodetypes="cccccsccssccsccccccccccccccccccccccccccccccccccccc" />
  </g>
</svg>
