<?xml version="1.0" encoding="UTF-8" standalone="no"?>
<svg
   width="24"
   height="24"
   version="1.1"
   id="svg9"
   sodipodi:docname="x-clementine-shuffle.svg"
   inkscape:version="1.1.2 (0a00cf5339, 2022-02-04)"
   xmlns:inkscape="http://www.inkscape.org/namespaces/inkscape"
   xmlns:sodipodi="http://sodipodi.sourceforge.net/DTD/sodipodi-0.dtd"
   xmlns="http://www.w3.org/2000/svg"
   xmlns:svg="http://www.w3.org/2000/svg">
  <sodipodi:namedview
     id="namedview11"
     pagecolor="#000000"
     bordercolor="#666666"
     borderopacity="1.0"
     inkscape:pageshadow="2"
     inkscape:pageopacity="0"
     inkscape:pagecheckerboard="0"
     showgrid="false"
     inkscape:zoom="31.416667"
     inkscape:cx="11.984085"
     inkscape:cy="12"
     inkscape:window-width="1826"
     inkscape:window-height="966"
     inkscape:window-x="0"
     inkscape:window-y="29"
     inkscape:window-maximized="1"
     inkscape:current-layer="g7" />
  <defs
     id="defs3">
    <style
       id="current-color-scheme"
       type="text/css">
   .ColorScheme-Text { color:#eeeeec; } .ColorScheme-Highlight { color:#367bf0; } .ColorScheme-NeutralText { color:#ffcc44; } .ColorScheme-PositiveText { color:#3db47e; } .ColorScheme-NegativeText { color:#dd4747; }
  </style>
  </defs>
  <g
     transform="translate(4,4)"
     id="g7">
    <path
       style="fill:currentColor"
       class="ColorScheme-Text"
       d="m 1,3 v 2 h 4.5 l 0.8446777,1.6893555 v 0 L 6.6658369,6.6683262 7.5,5 6.5952746,3.1905491 v 0 L 6.2243102,3 Z m 10,6.6624791 v 0 V 11 H 10.5 L 9.6380593,9.2761185 9.3629735,9.274053 v 0 L 8.5,11 l 1,2 H 11 v 1.213776 l 0.616142,0.324118 v 0 l 2.922818,-2.192114 -0.105387,-0.7706 v 0 L 11.606997,9.4552476 Z m 0,-8.052962 v 0 V 3 H 9.5 l -4,8 H 1 v 2 h 5.1604574 v 0 L 6.6530349,12.69393 10.5,5 H 11 v 1.3840772 0 l 0.702357,0.089155 2.866916,-2.1501873 v 0 L 14.474282,3.6057112 11.60224,1.4516802 Z"
       id="path5"
       sodipodi:nodetypes="ccccccccccccccccccccccccccccccccccccccccccccccccc" />
  </g>
</svg>
