<?xml version="1.0" encoding="UTF-8" standalone="no"?>
<svg
   width="24"
   height="24"
   version="1.1"
   id="svg9"
   sodipodi:docname="reply-all-rtl.svg"
   inkscape:version="1.1.2 (0a00cf5339, 2022-02-04)"
   xmlns:inkscape="http://www.inkscape.org/namespaces/inkscape"
   xmlns:sodipodi="http://sodipodi.sourceforge.net/DTD/sodipodi-0.dtd"
   xmlns="http://www.w3.org/2000/svg"
   xmlns:svg="http://www.w3.org/2000/svg">
  <sodipodi:namedview
     id="namedview11"
     pagecolor="#ffffff"
     bordercolor="#666666"
     borderopacity="1.0"
     inkscape:pageshadow="2"
     inkscape:pageopacity="0.0"
     inkscape:pagecheckerboard="0"
     showgrid="false"
     inkscape:zoom="34.458333"
     inkscape:cx="11.956469"
     inkscape:cy="16.643289"
     inkscape:window-width="954"
     inkscape:window-height="519"
     inkscape:window-x="961"
     inkscape:window-y="556"
     inkscape:window-maximized="1"
     inkscape:current-layer="g7" />
  <defs
     id="defs3">
    <style
       id="current-color-scheme"
       type="text/css">
   .ColorScheme-Text { color:#eeeeec; } .ColorScheme-Highlight { color:#367bf0; } .ColorScheme-NeutralText { color:#ffcc44; } .ColorScheme-PositiveText { color:#3db47e; } .ColorScheme-NegativeText { color:#dd4747; }
  </style>
  </defs>
  <g
     transform="translate(4,4)"
     id="g7">
    <path
       style="fill:currentColor"
       class="ColorScheme-Text"
       d="m 9.909047,1.7831864 v 0 l 5.523795,3.8241659 0.07638,0.7324189 v 0 L 9.9409557,10.194723 v 0 L 9.5,9.9531858 V 9.1152 l 4.022408,-2.7845791 v 0 L 13.51506,5.6642925 9.5,2.8848 V 1.9920771 Z M 6.7813642,2.0409444 6,2.4001911 V 4 H 5 C 2,4 0,6 0,9 c 0,2.541338 1.9933331,3.986343 3.165703,4.616444 0.4883818,0.262486 0,0 0,0 0,0 0.6231858,0.07393 0.3593619,-0.381655 C 3.085648,12.475987 2.5,11.312299 2.5,10.5 2.5,9.2 4,8 5.5,8 H 6 v 1.7495389 l 0.6556663,0.2965381 v 0 L 11.903728,6.4128035 v 0 l -0.05946,-0.8667724 z"
       id="path5"
       sodipodi:nodetypes="ccccccccccccccccccssscsssccccccccc" />
  </g>
</svg>
