<?xml version="1.0" encoding="UTF-8" standalone="no"?>
<svg
   width="24"
   height="24"
   version="1.1"
   id="svg9"
   sodipodi:docname="rabbitvcs-reset.svg"
   inkscape:version="1.1.2 (0a00cf5339, 2022-02-04)"
   xmlns:inkscape="http://www.inkscape.org/namespaces/inkscape"
   xmlns:sodipodi="http://sodipodi.sourceforge.net/DTD/sodipodi-0.dtd"
   xmlns="http://www.w3.org/2000/svg"
   xmlns:svg="http://www.w3.org/2000/svg">
  <sodipodi:namedview
     id="namedview11"
     pagecolor="#ffffff"
     bordercolor="#666666"
     borderopacity="1.0"
     inkscape:pageshadow="2"
     inkscape:pageopacity="0.0"
     inkscape:pagecheckerboard="0"
     showgrid="false"
     inkscape:zoom="31.416667"
     inkscape:cx="11.984085"
     inkscape:cy="12"
     inkscape:window-width="1826"
     inkscape:window-height="966"
     inkscape:window-x="0"
     inkscape:window-y="29"
     inkscape:window-maximized="1"
     inkscape:current-layer="g7" />
  <defs
     id="defs3">
    <style
       id="current-color-scheme"
       type="text/css">
   .ColorScheme-Text { color:#eeeeec; } .ColorScheme-Highlight { color:#367bf0; } .ColorScheme-NeutralText { color:#ffcc44; } .ColorScheme-PositiveText { color:#3db47e; } .ColorScheme-NegativeText { color:#dd4747; }
  </style>
  </defs>
  <g
     transform="translate(4,4)"
     id="g7">
    <path
       style="fill:currentColor"
       class="ColorScheme-Text"
       d="m 13,1 c 0,0 1,0 1,1 v 4 h -2 v -2.5763428 0 L 11.666959,3 H 4.4098001 L 4,3.3603503 v 0 9.1982767 L 4.3140179,13 v 0 h 7.3848681 v 0 L 12,12.622417 V 10 c 0,0 0,-1 -1,-1 h -1 v 1.330821 l -0.6679871,0.223854 v 0 L 6.1662673,8.4441782 v 0 L 6.1447789,7.5701474 9.4872615,5.3418257 v 0 L 10,5.6519458 V 7 h 1 c 0,0 3,0 3,3 v 4 c 0,1 -1,1 -1,1 H 3 C 3,15 2,15 2,14 V 2 C 2,1 3,1 3,1 Z"
       id="path5"
       sodipodi:nodetypes="cscccccccccccccccsccccccccccccssccsscc" />
  </g>
</svg>
