<?xml version="1.0" encoding="UTF-8" standalone="no"?>
<svg
   width="24"
   height="24"
   viewBox="0 0 24 24"
   version="1.1"
   id="svg7"
   sodipodi:docname="cm_options.svg"
   inkscape:version="1.1.2 (0a00cf5339, 2022-02-04)"
   xmlns:inkscape="http://www.inkscape.org/namespaces/inkscape"
   xmlns:sodipodi="http://sodipodi.sourceforge.net/DTD/sodipodi-0.dtd"
   xmlns="http://www.w3.org/2000/svg"
   xmlns:svg="http://www.w3.org/2000/svg">
  <sodipodi:namedview
     id="namedview9"
     pagecolor="#ffffff"
     bordercolor="#666666"
     borderopacity="1.0"
     inkscape:pageshadow="2"
     inkscape:pageopacity="0.0"
     inkscape:pagecheckerboard="0"
     showgrid="false"
     inkscape:zoom="34.458333"
     inkscape:cx="11.956469"
     inkscape:cy="5.0350665"
     inkscape:window-width="954"
     inkscape:window-height="519"
     inkscape:window-x="961"
     inkscape:window-y="556"
     inkscape:window-maximized="1"
     inkscape:current-layer="svg7" />
  <defs
     id="defs3">
    <style
       id="current-color-scheme"
       type="text/css">
   .ColorScheme-Text { color:#eeeeec; } .ColorScheme-Highlight { color:#367bf0; } .ColorScheme-NeutralText { color:#ffcc44; } .ColorScheme-PositiveText { color:#3db47e; } .ColorScheme-NegativeText { color:#dd4747; }
  </style>
  </defs>
  <path
     style="fill:currentColor"
     class="ColorScheme-Text"
     d="m 6.2196705,1.3624179 v 0 L 6.0957031,2.84375 C 5.5110767,3.0603026 4.9675242,3.374678 4.4882812,3.7734375 L 3.2614924,3.1957887 2.5927158,3.3650726 v 0 L 1.289539,5.622361 1.408669,6.2560325 v 0 L 2.5839844,7.0722656 C 2.5298047,7.378579 2.5017091,7.6889366 2.5,8 c 1.978e-4,0.312257 0.026987,0.62393 0.080078,0.9316406 L 1.4220951,9.7349262 1.233414,10.280423 v 0 l 1.3251576,2.295362 0.6369338,0.259523 v 0 L 4.484375,12.228516 c 0.4808526,0.397064 1.0257299,0.70946 1.6113281,0.923828 l 0.104335,1.283185 0.5975076,0.566424 v 0 H 9.320074 v 0 l 0.4662129,-0.480282 0.1141037,-1.363468 c 0.5846264,-0.216552 1.1281784,-0.530928 1.6074214,-0.929687 l 1.244615,0.586042 0.681809,-0.231128 v 0 l 1.274779,-2.208099 v 0 L 14.543969,9.7157414 13.412109,8.9296875 c 0.05418,-0.3063134 0.08228,-0.616671 0.08399,-0.9277344 -1.98e-4,-0.312257 -0.02699,-0.62393 -0.08008,-0.9316406 l 1.090112,-0.7562036 v 0 L 14.724716,5.6557717 13.400519,3.3620733 v 0 L 12.732926,3.1984999 11.511719,3.7734375 C 11.030866,3.3763737 10.485989,3.0639774 9.9003906,2.8496094 L 9.7875223,1.4614754 v 0 L 9.1763811,1 H 6.6614694 Z M 8,6 c 1.1045695,0 2,0.8954305 2,2 0,1.1045695 -0.8954305,2 -2,2 C 6.8954305,10 6,9.1045695 6,8 6,6.8954305 6.8954305,6 8,6 Z"
     transform="translate(4,4)"
     id="path5"
     sodipodi:nodetypes="cccccccccccccccccccccccccccccccccccccccccccccccccccsssss" />
</svg>
