<?xml version="1.0" encoding="UTF-8" standalone="no"?>
<svg
   width="24"
   height="24"
   version="1.1"
   id="svg15"
   sodipodi:docname="transform-skew-vertical.svg"
   inkscape:version="1.1.2 (0a00cf5339, 2022-02-04)"
   xmlns:inkscape="http://www.inkscape.org/namespaces/inkscape"
   xmlns:sodipodi="http://sodipodi.sourceforge.net/DTD/sodipodi-0.dtd"
   xmlns="http://www.w3.org/2000/svg"
   xmlns:svg="http://www.w3.org/2000/svg">
  <sodipodi:namedview
     id="namedview17"
     pagecolor="#ffffff"
     bordercolor="#666666"
     borderopacity="1.0"
     inkscape:pageshadow="2"
     inkscape:pageopacity="0.0"
     inkscape:pagecheckerboard="0"
     showgrid="false"
     inkscape:zoom="181.01934"
     inkscape:cx="5.8225824"
     inkscape:cy="8.8415969"
     inkscape:window-width="1026"
     inkscape:window-height="519"
     inkscape:window-x="889"
     inkscape:window-y="556"
     inkscape:window-maximized="1"
     inkscape:current-layer="g13" />
  <defs
     id="defs3">
    <style
       id="current-color-scheme"
       type="text/css">
   .ColorScheme-Text { color:#eeeeec; } .ColorScheme-Highlight { color:#367bf0; } .ColorScheme-NeutralText { color:#ffcc44; } .ColorScheme-PositiveText { color:#3db47e; } .ColorScheme-NegativeText { color:#dd4747; }
  </style>
  </defs>
  <g
     transform="rotate(90,12,12)"
     id="g13">
    <path
       style="fill:currentColor"
       class="ColorScheme-Text"
       d="m 21,19.844425 v 0 V 21 h -3 v 1 h 3 v 1.21209 0 l 0.733545,0.176623 1.708715,-1.42393 0.06464,-0.8757 v 0 L 21.692791,19.577326 Z M 3,0.77154224 2.4002802,0.49976646 0.46909601,2.1090867 v 0 L 0.53639107,2.9469926 2.3437134,4.4530945 3,4.1423372 v 0 V 3 H 6 V 2 H 3 Z"
       id="path5"
       sodipodi:nodetypes="ccccccccccccccccccccccccccc" />
    <g
       transform="matrix(1,0,0.60159,1,-7.2189,0)"
       id="g11">
      <path
         style="fill:currentColor"
         class="ColorScheme-Text"
         d="M 4.5,5 C 4,5 4,5.5 4,5.5 v 13 C 4,19 4.5,19 4.5,19 h 15 C 20,19 20,18.5 20,18.5 V 5.5 C 20,5 19.5,5 19.5,5 Z M 5.247397,6.2278666 5.4739904,6 H 18.822609 L 19,6.1203776 v 0 11.1111324 0 L 18.310479,18 H 5.1405117 L 5.0432501,17.940066 5,17.85501 V 6.4319034 Z"
         id="path7"
         sodipodi:nodetypes="scscscscsccccccccccccc" />
      <path
         style="opacity:0.35;fill:currentColor"
         class="ColorScheme-Text"
         d="M 5.5742866,6 V 6 H 18.724959 L 19,6.1657829 v 0 V 18 H 5.1916443 L 5.1826922,17.82944 5,17.811816 5,6.521534 Z"
         id="path9"
         sodipodi:nodetypes="ccccccccccc" />
    </g>
  </g>
</svg>
