<?xml version="1.0" encoding="UTF-8" standalone="no"?>
<svg
   width="24"
   height="24"
   version="1.1"
   id="svg9"
   sodipodi:docname="twitter-home.svg"
   inkscape:version="1.1.2 (0a00cf5339, 2022-02-04)"
   xmlns:inkscape="http://www.inkscape.org/namespaces/inkscape"
   xmlns:sodipodi="http://sodipodi.sourceforge.net/DTD/sodipodi-0.dtd"
   xmlns="http://www.w3.org/2000/svg"
   xmlns:svg="http://www.w3.org/2000/svg">
  <sodipodi:namedview
     id="namedview11"
     pagecolor="#ffffff"
     bordercolor="#666666"
     borderopacity="1.0"
     inkscape:pageshadow="2"
     inkscape:pageopacity="0.0"
     inkscape:pagecheckerboard="0"
     showgrid="false"
     inkscape:zoom="48.731442"
     inkscape:cx="15.759845"
     inkscape:cy="14.190017"
     inkscape:window-width="1026"
     inkscape:window-height="519"
     inkscape:window-x="889"
     inkscape:window-y="556"
     inkscape:window-maximized="1"
     inkscape:current-layer="g7" />
  <defs
     id="defs3">
    <style
       id="current-color-scheme"
       type="text/css">
   .ColorScheme-Text { color:#eeeeec; } .ColorScheme-Highlight { color:#367bf0; } .ColorScheme-NeutralText { color:#ffcc44; } .ColorScheme-PositiveText { color:#3db47e; } .ColorScheme-NegativeText { color:#dd4747; }
  </style>
  </defs>
  <g
     transform="translate(4,4)"
     id="g7">
    <path
       style="fill:currentColor"
       class="ColorScheme-Text"
       d="m 7.6071373,1.3928627 v 0 l -7.3359218,7.3359218 0.008551,0.5509818 v 0 l 0.98518695,0.9851867 0.4777257,-0.0076 v 0 L 2.3428593,9.6571407 v 0 L 2.5383674,9.7110206 3.5,15 h 9 l 0.94905,-5.2197745 v 0 l 0.243513,-0.087662 0.55427,0.5542695 v 0 L 14.823045,10.176955 15.71868,9.2813199 15.559959,9 15.700875,8.700875 8.3681921,1.3681921 Z M 8,6 C 9.3807119,6 10.5,7.1192881 10.5,8.5 10.5,9.8807119 9.3807119,11 8,11 6.6192881,11 5.5,9.8807119 5.5,8.5 5.5,7.1192881 6.6192881,6 8,6 Z m 0,6 c 0.5522847,0 1,0.447715 1,1 0,0.552285 -0.4477153,1 -1,1 -0.5522847,0 -1,-0.447715 -1,-1 0,-0.552285 0.4477153,-1 1,-1 z"
       id="path5"
       sodipodi:nodetypes="ccccccccccccccccccccccccssssssssss" />
  </g>
</svg>
