<?xml version="1.0" encoding="UTF-8" standalone="no"?>
<svg
   width="24"
   height="24"
   version="1.1"
   id="svg7"
   sodipodi:docname="udiskie-unmount.svg"
   inkscape:version="1.1.2 (0a00cf5339, 2022-02-04)"
   xmlns:inkscape="http://www.inkscape.org/namespaces/inkscape"
   xmlns:sodipodi="http://sodipodi.sourceforge.net/DTD/sodipodi-0.dtd"
   xmlns="http://www.w3.org/2000/svg"
   xmlns:svg="http://www.w3.org/2000/svg">
  <sodipodi:namedview
     id="namedview9"
     pagecolor="#ffffff"
     bordercolor="#666666"
     borderopacity="1.0"
     inkscape:pageshadow="2"
     inkscape:pageopacity="0.0"
     inkscape:pagecheckerboard="0"
     showgrid="false"
     inkscape:zoom="256"
     inkscape:cx="12.882812"
     inkscape:cy="13.193359"
     inkscape:window-width="1026"
     inkscape:window-height="677"
     inkscape:window-x="889"
     inkscape:window-y="398"
     inkscape:window-maximized="1"
     inkscape:current-layer="svg7" />
  <defs
     id="defs3">
    <style
       id="current-color-scheme"
       type="text/css">
   .ColorScheme-Text { color:#eeeeec; } .ColorScheme-Highlight { color:#367bf0; } .ColorScheme-NeutralText { color:#ffcc44; } .ColorScheme-PositiveText { color:#3db47e; } .ColorScheme-NegativeText { color:#dd4747; }
  </style>
  </defs>
  <path
     style="fill:currentColor"
     class="ColorScheme-Text"
     d="m 12,5 c -3.8659932,0 -7,3.1340068 -7,7 4.283e-4,0.234664 0.012656,0.469106 0.036622,0.702438 0.00846,0.08241 0.077413,0.05007 0.088804,0.132165 l 0.1250987,-0.02343 2.1498657,-1.611949 C 7.7034742,10.972336 8.1086919,10.936048 8.4472656,11.105469 8.7860465,11.27491 9.0000258,11.621209 9,12 v 1 h 1.157854 v 0 c -0.01795,-0.03111 0.0747,-0.06264 0.05851,-0.09457 C 10.074256,12.625294 9.9998987,12.315127 10,12 c 0,-1.104569 0.895431,-2 2,-2 1.104569,0 2,0.895431 2,2 -0.0056,0.406707 -0.134977,0.801438 -0.370075,1.13193 -0.01427,0.02007 0.02291,0.08004 0.0079,0.09962 0.01778,0.01286 -0.01678,-0.01389 0,0 C 13.865851,13.420379 13.999459,13.701663 14,14 v 2 c -5.5e-5,0.552262 -0.447738,0.999945 -1,1 H 9 v 1 c -3.397e-4,0.09934 -0.01548,0.198086 -0.044922,0.292969 C 9.9037815,18.755154 10.944707,18.996857 12,19 15.865993,19 19,15.865993 19,12 19,8.1340068 15.865993,5 12,5 Z M 8,12.635657 7.4769185,12.392311 4.439822,14.670133 4.4019026,15.301427 v 0 L 7.4747918,17.606094 8,17.455847 v 0 V 16 h 5 V 14 H 8 Z"
     id="path5"
     sodipodi:nodetypes="scsccccccccscscscscccccccsscccccccccccccc" />
</svg>
