<?xml version="1.0" encoding="UTF-8" standalone="no"?>
<svg
   width="24"
   height="24"
   version="1.1"
   id="svg7"
   sodipodi:docname="udiskie-detach.svg"
   inkscape:version="1.1.2 (0a00cf5339, 2022-02-04)"
   xmlns:inkscape="http://www.inkscape.org/namespaces/inkscape"
   xmlns:sodipodi="http://sodipodi.sourceforge.net/DTD/sodipodi-0.dtd"
   xmlns="http://www.w3.org/2000/svg"
   xmlns:svg="http://www.w3.org/2000/svg">
  <sodipodi:namedview
     id="namedview9"
     pagecolor="#ffffff"
     bordercolor="#666666"
     borderopacity="1.0"
     inkscape:pageshadow="2"
     inkscape:pageopacity="0.0"
     inkscape:pagecheckerboard="0"
     showgrid="false"
     inkscape:zoom="34.458333"
     inkscape:cx="11.927449"
     inkscape:cy="5.0350665"
     inkscape:window-width="1026"
     inkscape:window-height="519"
     inkscape:window-x="889"
     inkscape:window-y="556"
     inkscape:window-maximized="1"
     inkscape:current-layer="svg7" />
  <defs
     id="defs3">
    <style
       id="current-color-scheme"
       type="text/css">
   .ColorScheme-Text { color:#eeeeec; } .ColorScheme-Highlight { color:#367bf0; } .ColorScheme-NeutralText { color:#ffcc44; } .ColorScheme-PositiveText { color:#3db47e; } .ColorScheme-NegativeText { color:#dd4747; }
  </style>
  </defs>
  <path
     style="fill:currentColor"
     class="ColorScheme-Text"
     d="m 11.358039,5.0699346 v 0 L 6.5685697,13.052384 6.892251,14 v 0 H 12 v 4.935707 l 0.593902,0.07446 v 0 L 17.38326,11.0279 v 0 L 16.838533,10 H 12 V 5.0550801 Z M 6,15.377958 v 0 V 16 c 0,0.28 0.099297,0.540703 0.2792969,0.720703 L 7.0605469,17.5 6.2792969,18.279297 C 6.0992969,18.459297 6,18.72 6,19 v 0.477956 L 6.4428859,20 v 0 H 7 c 0.28,0 0.5407031,-0.0993 0.7207031,-0.279297 L 8.5,18.939453 9.2792969,19.720703 C 9.4592969,19.900703 9.72,20 10,20 h 0.573621 v 0 L 11,19.556752 V 19 c 0,-0.28 -0.0993,-0.540703 -0.279297,-0.720703 L 9.9394531,17.5 10.720703,16.720703 C 10.900703,16.540703 11,16.28 11,16 V 15.390759 L 10.591709,15 v 0 H 10 C 9.72,15 9.4592969,15.0993 9.2792969,15.279297 L 8.5,16.060547 7.7207031,15.279297 C 7.5407031,15.099297 7.28,15 7,15 H 6.3962978 Z"
     id="path5"
     sodipodi:nodetypes="cccccccccccccccccscccscccscccscccscccscccscccscc" />
</svg>
