<?xml version="1.0" encoding="UTF-8" standalone="no"?>
<svg
   width="24"
   height="24"
   version="1.1"
   id="svg9"
   sodipodi:docname="view-certificate-export.svg"
   inkscape:version="1.1.2 (0a00cf5339, 2022-02-04)"
   xmlns:inkscape="http://www.inkscape.org/namespaces/inkscape"
   xmlns:sodipodi="http://sodipodi.sourceforge.net/DTD/sodipodi-0.dtd"
   xmlns="http://www.w3.org/2000/svg"
   xmlns:svg="http://www.w3.org/2000/svg">
  <sodipodi:namedview
     id="namedview11"
     pagecolor="#ffffff"
     bordercolor="#666666"
     borderopacity="1.0"
     inkscape:pageshadow="2"
     inkscape:pageopacity="0.0"
     inkscape:pagecheckerboard="0"
     showgrid="false"
     inkscape:zoom="34.458333"
     inkscape:cx="11.956469"
     inkscape:cy="16.643289"
     inkscape:window-width="954"
     inkscape:window-height="519"
     inkscape:window-x="961"
     inkscape:window-y="556"
     inkscape:window-maximized="1"
     inkscape:current-layer="g7" />
  <defs
     id="defs3">
    <style
       id="current-color-scheme"
       type="text/css">
   .ColorScheme-Text { color:#eeeeec; } .ColorScheme-Highlight { color:#367bf0; } .ColorScheme-NeutralText { color:#ffcc44; } .ColorScheme-PositiveText { color:#3db47e; } .ColorScheme-NegativeText { color:#dd4747; }
  </style>
  </defs>
  <g
     transform="translate(4,4)"
     id="g7">
    <path
       style="fill:currentColor"
       class="ColorScheme-Text"
       d="m 13,10.539346 v 0 V 11 h -3 v 3 h 3 v 0.544382 l 0.443316,0.08619 v 0 l 2.165999,-1.805001 v 0 l -0.01867,-0.666703 -2.092439,-1.743699 z M 0,1 V 15 H 9 V 10 9 h 6 1 V 1 Z m 9,2 h 6 V 4 H 9 Z M 3.5,4 C 3.5,4 5,4 5,5.5 V 7 h 1 v 3 H 1 V 7 H 2 V 5.5 C 2,4 3.5,4 3.5,4 Z m 0,1 C 3.5,5 3,5 3,5.5 V 7 H 4 V 5.5 C 4,5 3.5,5 3.5,5 Z M 9,6 h 6 V 7 H 9 Z"
       id="path5"
       sodipodi:nodetypes="cccccccccccccccccccccccccccccsccccccsccsccscccccc" />
  </g>
</svg>
