<?xml version="1.0" encoding="UTF-8" standalone="no"?>
<svg
   width="24"
   height="24"
   version="1.1"
   id="svg9"
   sodipodi:docname="view-financial-account-close.svg"
   inkscape:version="1.1.2 (0a00cf5339, 2022-02-04)"
   xmlns:inkscape="http://www.inkscape.org/namespaces/inkscape"
   xmlns:sodipodi="http://sodipodi.sourceforge.net/DTD/sodipodi-0.dtd"
   xmlns="http://www.w3.org/2000/svg"
   xmlns:svg="http://www.w3.org/2000/svg">
  <sodipodi:namedview
     id="namedview11"
     pagecolor="#ffffff"
     bordercolor="#666666"
     borderopacity="1.0"
     inkscape:pageshadow="2"
     inkscape:pageopacity="0.0"
     inkscape:pagecheckerboard="0"
     showgrid="false"
     inkscape:zoom="34.458333"
     inkscape:cx="11.956469"
     inkscape:cy="18.964933"
     inkscape:window-width="954"
     inkscape:window-height="519"
     inkscape:window-x="961"
     inkscape:window-y="556"
     inkscape:window-maximized="1"
     inkscape:current-layer="g7" />
  <defs
     id="defs3">
    <style
       id="current-color-scheme"
       type="text/css">
   .ColorScheme-Text { color:#eeeeec; } .ColorScheme-Highlight { color:#367bf0; } .ColorScheme-NeutralText { color:#ffcc44; } .ColorScheme-PositiveText { color:#3db47e; } .ColorScheme-NegativeText { color:#dd4747; }
  </style>
  </defs>
  <g
     transform="translate(4,4)"
     id="g7">
    <path
       style="fill:currentColor"
       class="ColorScheme-Text"
       d="M 3,0 C 2.446,0 2,0.446 2,1 v 6 h 11 c 1.090703,0 2,0.9092972 2,2 v 1 h 1 V 1 C 16,0.446 15.554,0 15,0 Z m 1,2 h 7 V 3 H 4 Z m 8,0 h 2 V 3 H 12 Z M 4,4 H 8 V 5 H 4 Z M 1,8 C 0.446,8 0,8.446 0,9 v 6 c 0,0.554 0.446,1 1,1 h 9 v -3 -2 -1 h 4 V 9 C 14,8.446 13.554,8 13,8 Z m 13,4.439731 v 0 V 13 h -3 v 1 h 3 v 0.404871 l 0.437294,0.267159 v 0 l 1.294959,-0.97122 -0.03359,-0.426809 v 0 l -1.31464,-0.98598 z M 1,14 h 1 v 1 H 1 Z m 2,0 h 1 v 1 H 3 Z m 2,0 h 1 v 1 H 5 Z m 2,0 h 1 v 1 H 7 Z"
       id="path5"
       sodipodi:nodetypes="sscssccssscccccccccccccccsssscccccssscccccccccccccccccccccccccccccccccc" />
  </g>
</svg>
