<?xml version="1.0" encoding="UTF-8" standalone="no"?>
<svg
   width="24"
   height="24"
   version="1.1"
   id="svg9"
   sodipodi:docname="view-institution-delete.svg"
   inkscape:version="1.1.2 (0a00cf5339, 2022-02-04)"
   xmlns:inkscape="http://www.inkscape.org/namespaces/inkscape"
   xmlns:sodipodi="http://sodipodi.sourceforge.net/DTD/sodipodi-0.dtd"
   xmlns="http://www.w3.org/2000/svg"
   xmlns:svg="http://www.w3.org/2000/svg">
  <sodipodi:namedview
     id="namedview11"
     pagecolor="#ffffff"
     bordercolor="#666666"
     borderopacity="1.0"
     inkscape:pageshadow="2"
     inkscape:pageopacity="0.0"
     inkscape:pagecheckerboard="0"
     showgrid="false"
     inkscape:zoom="34.458333"
     inkscape:cx="11.956469"
     inkscape:cy="7.356711"
     inkscape:window-width="954"
     inkscape:window-height="519"
     inkscape:window-x="961"
     inkscape:window-y="556"
     inkscape:window-maximized="1"
     inkscape:current-layer="g7" />
  <defs
     id="defs3">
    <style
       id="current-color-scheme"
       type="text/css">
   .ColorScheme-Text { color:#eeeeec; } .ColorScheme-Highlight { color:#367bf0; } .ColorScheme-NeutralText { color:#ffcc44; } .ColorScheme-PositiveText { color:#3db47e; } .ColorScheme-NegativeText { color:#dd4747; }
  </style>
  </defs>
  <g
     transform="translate(4,4)"
     id="g7">
    <path
       style="fill:currentColor"
       class="ColorScheme-Text"
       d="m 7.9709794,1.5034758 -0.557953,-0.209989 -6.24498,3.12249 L 1.1976553,5 V 5 H 2 v 2 h 1 v 6 H 2 v 2 h 1 7 V 13 H 9 V 7 h 2 v 3 h 2 V 7 h 1 V 5 h 0.995176 V 5 L 14.931673,4.4658367 8.6061458,1.3030729 Z M 5,7 h 2 v 6 H 5 Z m 6,4.298136 v 0 0.408895 L 12.792969,13.5 11,15.292969 v 0.43633 L 11.287024,16 v 0 h 0.420007 L 13.5,14.207031 15.292969,16 h 0.354893 v 0 L 16,15.757442 V 15.292969 L 14.207031,13.5 16,11.707031 V 11.304207 L 15.71691,11 v 0 H 15.292969 L 13.5,12.792969 11.707031,11 h -0.45088 z"
       id="path5"
       sodipodi:nodetypes="ccccccccccccccccccccccccccccccccccccccccccccccccccccccccc" />
  </g>
</svg>
