<?xml version="1.0" encoding="UTF-8" standalone="no"?>
<svg
   width="24"
   height="24"
   version="1.1"
   id="svg9"
   sodipodi:docname="view-user-offline-kopete.svg"
   inkscape:version="1.1.2 (0a00cf5339, 2022-02-04)"
   xmlns:inkscape="http://www.inkscape.org/namespaces/inkscape"
   xmlns:sodipodi="http://sodipodi.sourceforge.net/DTD/sodipodi-0.dtd"
   xmlns="http://www.w3.org/2000/svg"
   xmlns:svg="http://www.w3.org/2000/svg">
  <sodipodi:namedview
     id="namedview11"
     pagecolor="#ffffff"
     bordercolor="#666666"
     borderopacity="1.0"
     inkscape:pageshadow="2"
     inkscape:pageopacity="0.0"
     inkscape:pagecheckerboard="0"
     showgrid="false"
     inkscape:zoom="68.916667"
     inkscape:cx="20.212817"
     inkscape:cy="19.422007"
     inkscape:window-width="954"
     inkscape:window-height="519"
     inkscape:window-x="961"
     inkscape:window-y="556"
     inkscape:window-maximized="1"
     inkscape:current-layer="g7" />
  <defs
     id="defs3">
    <style
       id="current-color-scheme"
       type="text/css">
   .ColorScheme-Text { color:#eeeeec; } .ColorScheme-Highlight { color:#367bf0; } .ColorScheme-NeutralText { color:#ffcc44; } .ColorScheme-PositiveText { color:#3db47e; } .ColorScheme-NegativeText { color:#dd4747; }
  </style>
  </defs>
  <g
     transform="translate(4,4)"
     id="g7">
    <path
       style="fill:currentColor"
       class="ColorScheme-Text"
       d="M 9,5 C 9,6.6568542 7.6568542,8 6,8 4.3431458,8 3,6.6568542 3,5 3,3.3431458 4.3431458,2 6,2 7.6568542,2 9,3.3431458 9,5 Z m -3,5 c -6,0 -6,4 -6,4 v 1 h 12 v -1 c 0,0 0,-4 -6,-4 z M 11.5,4 C 10.944769,4.0000183 10.405343,4.1848699 9.9668,4.5254 9.9872733,4.6828012 9.9983596,4.8412814 10,5 9.9977999,5.8757577 9.7082512,6.7265927 9.1758,7.4219 9.5537736,8.3746492 10.475015,9.0001592 11.5,9 12.880712,9 14,7.8807119 14,6.5 14,5.1192881 12.880712,4 11.5,4 Z m 0,6 c -0.178724,0 -0.353588,0.0088 -0.525289,0.02429 -0.199132,0.01797 0.13927,0.384578 -0.05243,0.417335 0.185817,0.106731 -0.169467,-0.119518 0,0 1.221673,0.86159 2.000224,2.042594 2.07225,3.358093 0.0036,0.06643 0.184224,0.133198 0.184224,0.200287 v 0 h 2.677951 v 0 L 16,13.842246 V 13 c 0,-1.662 -2.007,-3 -4.5,-3 z"
       id="path5"
       sodipodi:nodetypes="ssssssccccscccccscsscsscccccss" />
  </g>
</svg>
