<?xml version="1.0" encoding="UTF-8" standalone="no"?>
<svg
   width="24"
   height="24"
   version="1.1"
   id="svg9"
   sodipodi:docname="view-sort-descending.svg"
   inkscape:version="1.1.2 (0a00cf5339, 2022-02-04)"
   xmlns:inkscape="http://www.inkscape.org/namespaces/inkscape"
   xmlns:sodipodi="http://sodipodi.sourceforge.net/DTD/sodipodi-0.dtd"
   xmlns="http://www.w3.org/2000/svg"
   xmlns:svg="http://www.w3.org/2000/svg">
  <sodipodi:namedview
     id="namedview11"
     pagecolor="#ffffff"
     bordercolor="#666666"
     borderopacity="1.0"
     inkscape:pageshadow="2"
     inkscape:pageopacity="0.0"
     inkscape:pagecheckerboard="0"
     showgrid="false"
     inkscape:zoom="34.458333"
     inkscape:cx="11.840387"
     inkscape:cy="7.0665055"
     inkscape:window-width="954"
     inkscape:window-height="519"
     inkscape:window-x="961"
     inkscape:window-y="556"
     inkscape:window-maximized="1"
     inkscape:current-layer="g7" />
  <defs
     id="defs3">
    <style
       id="current-color-scheme"
       type="text/css">
   .ColorScheme-Text { color:#eeeeec; } .ColorScheme-Highlight { color:#367bf0; } .ColorScheme-NeutralText { color:#ffcc44; } .ColorScheme-PositiveText { color:#3db47e; } .ColorScheme-NegativeText { color:#dd4747; }
  </style>
  </defs>
  <g
     transform="translate(4,4)"
     id="g7">
    <path
       style="fill:currentColor"
       class="ColorScheme-Text"
       d="m 8.0000005,12.65916 v 0 -3.3834299 L 7.6571677,9 V 9 H 5.5292462 5.2842865 V 9 H 5.5292462 L 5.4260321,8.40356 9.6462169,2.4953016 9.8243027,2.2459815 9.6462169,2.4953016 10.334975,2.4689617 v 0 0 L 14.489693,8.2855693 14.621502,9 V 9 9 H 12.295328 V 9 9 L 12,9.3165704 V 12.694061 L 11.671968,13 v 0 H 8.2069571 Z m -4,-1.15916 c 0,0.828427 -0.671573,1.5 -1.5,1.5 -0.828427,0 -1.5,-0.671573 -1.5,-1.5 0,-0.828427 0.671573,-1.5 1.5,-1.5 0.828427,0 1.5,0.671573 1.5,1.5 z m 0,-4 c 0,0.8284271 -0.671573,1.5 -1.5,1.5 -0.828427,0 -1.5,-0.6715729 -1.5,-1.5 0,-0.8284271 0.671573,-1.5 1.5,-1.5 0.828427,0 1.5,0.6715729 1.5,1.5 z m 0,-4.0000005 c 0,0.828428 -0.671573,1.5 -1.5,1.5 -0.828427,0 -1.5,-0.671572 -1.5,-1.5 0,-0.828427 0.671573,-1.5 1.5,-1.5 0.828427,0 1.5,0.671573 1.5,1.5 z"
       id="path5"
       sodipodi:nodetypes="cccccccccccccccccccccccccccccsssssssssssssss" />
  </g>
</svg>
