<?xml version="1.0" encoding="UTF-8" standalone="no"?>
<svg
   width="24"
   height="24"
   version="1.1"
   id="svg7"
   sodipodi:docname="view-pages-facing.svg"
   inkscape:version="1.1.2 (0a00cf5339, 2022-02-04)"
   xmlns:inkscape="http://www.inkscape.org/namespaces/inkscape"
   xmlns:sodipodi="http://sodipodi.sourceforge.net/DTD/sodipodi-0.dtd"
   xmlns="http://www.w3.org/2000/svg"
   xmlns:svg="http://www.w3.org/2000/svg">
  <sodipodi:namedview
     id="namedview9"
     pagecolor="#ffffff"
     bordercolor="#666666"
     borderopacity="1.0"
     inkscape:pageshadow="2"
     inkscape:pageopacity="0.0"
     inkscape:pagecheckerboard="0"
     showgrid="false"
     inkscape:zoom="34.458333"
     inkscape:cx="11.956469"
     inkscape:cy="12"
     inkscape:window-width="954"
     inkscape:window-height="519"
     inkscape:window-x="961"
     inkscape:window-y="556"
     inkscape:window-maximized="1"
     inkscape:current-layer="svg7" />
  <defs
     id="defs3">
    <style
       id="current-color-scheme"
       type="text/css">
   .ColorScheme-Text { color:#eeeeec; } .ColorScheme-Highlight { color:#367bf0; } .ColorScheme-NeutralText { color:#ffcc44; } .ColorScheme-PositiveText { color:#3db47e; } .ColorScheme-NegativeText { color:#dd4747; }
  </style>
  </defs>
  <path
     style="fill:currentColor"
     class="ColorScheme-Text"
     d="m 6.5044887,7.1731237 v 0 L 4.1646609,9.6809392 4,10.121542 v 0 6.163614 C 4,16.285156 3.9993486,17 4.6660156,17 H 11.333984 C 11.333984,17 12,16.999442 12,16.285156 12,16.999442 12.666016,17 12.666016,17 h 6.667968 C 20.000651,17 20,16.285156 20,16.285156 V 10.149851 L 19.797407,9.6402836 v 0 L 17.540294,7.2211223 17.022451,7 v 0 h -4.356435 c 0,0 -0.173395,1.452e-4 -0.343238,0.095173 -0.163025,0.091213 -0.636406,-0.3446132 -0.636406,0.00521 0,-0.3432796 0.1598,0.092746 0,0 C 11.513665,7.0001505 11.333984,7 11.333984,7 H 6.9369757 Z M 7.6789235,9 V 9 H 9.7176211 V 9 L 10,9.2323788 V 15 H 6 v -3.994133 l 0.2005788,-0.549351 v 0 L 7.2583166,9.1869381 Z M 14,9.2338294 14.298529,9 h 1.969817 l 0.549863,0.2787899 v 0 L 17.768161,10.418995 18,11.005178 v 0 V 15 h -4 z"
     id="path5"
     sodipodi:nodetypes="ccccccscccsccccccccscscccccccccccccccccccccccccc" />
</svg>
