<?xml version="1.0" encoding="UTF-8" standalone="no"?>
<svg
   width="24"
   height="24"
   version="1.1"
   id="svg9"
   sodipodi:docname="view-time-schedule-baselined-remove.svg"
   inkscape:version="1.1.2 (0a00cf5339, 2022-02-04)"
   xmlns:inkscape="http://www.inkscape.org/namespaces/inkscape"
   xmlns:sodipodi="http://sodipodi.sourceforge.net/DTD/sodipodi-0.dtd"
   xmlns="http://www.w3.org/2000/svg"
   xmlns:svg="http://www.w3.org/2000/svg">
  <sodipodi:namedview
     id="namedview11"
     pagecolor="#ffffff"
     bordercolor="#666666"
     borderopacity="1.0"
     inkscape:pageshadow="2"
     inkscape:pageopacity="0.0"
     inkscape:pagecheckerboard="0"
     showgrid="false"
     inkscape:zoom="97.462885"
     inkscape:cx="11.768583"
     inkscape:cy="19.930664"
     inkscape:window-width="954"
     inkscape:window-height="519"
     inkscape:window-x="961"
     inkscape:window-y="556"
     inkscape:window-maximized="1"
     inkscape:current-layer="g7" />
  <defs
     id="defs3">
    <style
       id="current-color-scheme"
       type="text/css">
   .ColorScheme-Text { color:#eeeeec; } .ColorScheme-Highlight { color:#367bf0; } .ColorScheme-NeutralText { color:#ffcc44; } .ColorScheme-PositiveText { color:#3db47e; } .ColorScheme-NegativeText { color:#dd4747; }
  </style>
  </defs>
  <g
     transform="translate(4,4)"
     id="g7">
    <path
       style="fill:currentColor"
       class="ColorScheme-Text"
       d="M 10.081804,10.115315 10,10.279131 10,11.414 11.586,13 10,14.586 v 0.998644 L 10.162107,15.916659 10.443484,16 H 11.414 L 13,14.414 14.586,16 h 0.961547 L 15.798843,15.853452 16,15.565014 V 14.586 L 14.414,13 16,11.414 V 10.30881 L 15.909953,10.088485 15.643171,10 H 14.586 L 13,11.586 11.414,10 H 10.276276 Z M 4,10 v 2 H 8 V 10 Z M 2,1 C 0,1 0,3 0,3 V 15 H 8 V 13 H 2 V 6 H 6 V 4 H 2 V 3 H 12 V 7 H 6 v 2 h 8 V 3 c 0,0 0,-2 -2,-2 z"
       id="path5"
       sodipodi:nodetypes="ccccccccccccccccccccccccccccccsccccccccccccccccss" />
  </g>
</svg>
