<?xml version="1.0" encoding="UTF-8" standalone="no"?>
<svg
   width="24"
   height="24"
   version="1.1"
   id="svg9"
   sodipodi:docname="view-task-child.svg"
   inkscape:version="1.1.2 (0a00cf5339, 2022-02-04)"
   xmlns:inkscape="http://www.inkscape.org/namespaces/inkscape"
   xmlns:sodipodi="http://sodipodi.sourceforge.net/DTD/sodipodi-0.dtd"
   xmlns="http://www.w3.org/2000/svg"
   xmlns:svg="http://www.w3.org/2000/svg">
  <sodipodi:namedview
     id="namedview11"
     pagecolor="#ffffff"
     bordercolor="#666666"
     borderopacity="1.0"
     inkscape:pageshadow="2"
     inkscape:pageopacity="0.0"
     inkscape:pagecheckerboard="0"
     showgrid="false"
     inkscape:zoom="68.916667"
     inkscape:cx="13.509069"
     inkscape:cy="15.359129"
     inkscape:window-width="954"
     inkscape:window-height="519"
     inkscape:window-x="961"
     inkscape:window-y="556"
     inkscape:window-maximized="1"
     inkscape:current-layer="g7" />
  <defs
     id="defs3">
    <style
       id="current-color-scheme"
       type="text/css">
   .ColorScheme-Text { color:#eeeeec; } .ColorScheme-Highlight { color:#367bf0; } .ColorScheme-NeutralText { color:#ffcc44; } .ColorScheme-PositiveText { color:#3db47e; } .ColorScheme-NegativeText { color:#dd4747; }
  </style>
  </defs>
  <g
     transform="translate(4,4)"
     id="g7">
    <path
       style="fill:currentColor"
       class="ColorScheme-Text"
       d="M 12.892658,6.5888062 12.732891,3 12.804978,3.2275258 7.2514158,9.7066816 v 0 L 6.6750913,9.6750913 5,8 C 5,8 4.0437266,7 3.3287266,7.7845 2.733706,8.560953 3.5437266,9.5 3.5437266,9.5 l 3.0843389,3.030767 v 0 l 0.6086803,-0.03239 v 0 0 L 12.669416,6.5612789 Z M 10.8,10 C 10,10 10,10.8 10,10.8 V 16 h 6 V 10.8 C 16,10 15.2,10 15.2,10 Z M 3,1 C 1,1 1,3 1,3 V 15 H 9 V 13 H 3 V 3 h 9.732891 v 0 l 0.159767,3.5888062 v 0 L 13,9 h 2 V 3 c 0,0 0,-2 -2,-2 z"
       id="path5"
       sodipodi:nodetypes="ccccccccccccccccscccscsscccccccccccccss" />
  </g>
</svg>
