<?xml version="1.0" encoding="UTF-8" standalone="no"?>
<svg
   width="24"
   height="24"
   version="1.1"
   id="svg7"
   sodipodi:docname="view-media-lyrics.svg"
   inkscape:version="1.1.2 (0a00cf5339, 2022-02-04)"
   xmlns:inkscape="http://www.inkscape.org/namespaces/inkscape"
   xmlns:sodipodi="http://sodipodi.sourceforge.net/DTD/sodipodi-0.dtd"
   xmlns="http://www.w3.org/2000/svg"
   xmlns:svg="http://www.w3.org/2000/svg">
  <sodipodi:namedview
     id="namedview9"
     pagecolor="#ffffff"
     bordercolor="#666666"
     borderopacity="1.0"
     inkscape:pageshadow="2"
     inkscape:pageopacity="0.0"
     inkscape:pagecheckerboard="0"
     showgrid="false"
     inkscape:zoom="34.458333"
     inkscape:cx="11.956469"
     inkscape:cy="12"
     inkscape:window-width="954"
     inkscape:window-height="519"
     inkscape:window-x="961"
     inkscape:window-y="556"
     inkscape:window-maximized="1"
     inkscape:current-layer="svg7" />
  <defs
     id="defs3">
    <style
       id="current-color-scheme"
       type="text/css">
   .ColorScheme-Text { color:#eeeeec; } .ColorScheme-Highlight { color:#367bf0; } .ColorScheme-NeutralText { color:#ffcc44; } .ColorScheme-PositiveText { color:#3db47e; } .ColorScheme-NegativeText { color:#dd4747; }
  </style>
  </defs>
  <path
     style="fill:currentColor"
     class="ColorScheme-Text"
     d="M 5,5 V 7 H 19 V 5 Z m 0,4 v 2 H 15 V 9 Z m 11,0.2666228 v 0 4.8740562 l -0.313889,0.15768 c -0.09933,-0.07477 0.109713,0.0594 0,0 C 15.333933,14.107668 14.931558,14 14.5,14 13.115,14 12,15.115 12,16.5 12,17.885 13.115,19 14.5,19 15.885,19 17,17.885 17,16.5 V 11 h 2 C 19,9.892 18.108,9 17,9 H 16.263142 Z M 5,13 v 2 h 6 v -2 z m 0,4 v 2 h 6 v -2 z"
     id="path5"
     sodipodi:nodetypes="ccccccccccccccsssssccscccccccccccc" />
</svg>
