<?xml version="1.0" encoding="UTF-8" standalone="no"?>
<svg
   width="24"
   height="24"
   version="1.1"
   id="svg9"
   sodipodi:docname="view-financial-account-edit.svg"
   inkscape:version="1.1.2 (0a00cf5339, 2022-02-04)"
   xmlns:inkscape="http://www.inkscape.org/namespaces/inkscape"
   xmlns:sodipodi="http://sodipodi.sourceforge.net/DTD/sodipodi-0.dtd"
   xmlns="http://www.w3.org/2000/svg"
   xmlns:svg="http://www.w3.org/2000/svg">
  <sodipodi:namedview
     id="namedview11"
     pagecolor="#ffffff"
     bordercolor="#666666"
     borderopacity="1.0"
     inkscape:pageshadow="2"
     inkscape:pageopacity="0.0"
     inkscape:pagecheckerboard="0"
     showgrid="false"
     inkscape:zoom="68.916667"
     inkscape:cx="13.639661"
     inkscape:cy="15.823458"
     inkscape:window-width="954"
     inkscape:window-height="519"
     inkscape:window-x="961"
     inkscape:window-y="556"
     inkscape:window-maximized="1"
     inkscape:current-layer="g7" />
  <defs
     id="defs3">
    <style
       id="current-color-scheme"
       type="text/css">
   .ColorScheme-Text { color:#eeeeec; } .ColorScheme-Highlight { color:#367bf0; } .ColorScheme-NeutralText { color:#ffcc44; } .ColorScheme-PositiveText { color:#3db47e; } .ColorScheme-NegativeText { color:#dd4747; }
  </style>
  </defs>
  <g
     transform="translate(4,4)"
     id="g7">
    <path
       style="fill:currentColor"
       class="ColorScheme-Text"
       d="M 3,0 C 2.446,0 2,0.446 2,1 v 6 h 11 c 1.090703,0 2,0.9092972 2,2 v 1 h 1 V 1 C 16,0.446 15.554,0 15,0 Z m 1,2 h 7 V 3 H 4 Z m 8,0 h 2 V 3 H 12 Z M 4,4 H 8 V 5 H 4 Z M 1,8 C 0.446,8 0,8.446 0,9 v 6 c 0,0.554 0.446,1 1,1 h 9 v -3 -2 -1 h 4 V 9 C 14,8.446 13.554,8 13,8 Z m 13.980469,3.003906 c -0.04186,0.0084 -0.08621,0.03153 -0.13086,0.07617 l -0.634765,0.634766 1.070312,1.070312 0.634766,-0.634765 c 0.178594,-0.178569 0,-0.357422 0,-0.357422 l -0.712891,-0.712891 c 0,0 -0.100988,-0.101281 -0.226562,-0.07617 z m -0.991217,1.20019 -0.244522,-0.01921 -2.642001,2.640194 L 11,15.052483 v 0 0.698238 L 11.230848,16 v 0 h 0.654709 v 0 l 0.310471,-0.123847 2.60192,-2.6037 -0.01728,-0.276939 v 0 z M 1,14 h 1 v 1 H 1 Z m 2,0 h 1 v 1 H 3 Z m 2,0 h 1 v 1 H 5 Z m 2,0 h 1 v 1 H 7 Z"
       id="path5"
       sodipodi:nodetypes="sscssccssscccccccccccccccsssscccccssssccccccscccccccccccccccccccccccccccccccccccc" />
  </g>
</svg>
