<?xml version="1.0" encoding="UTF-8" standalone="no"?>
<svg
   width="24"
   height="24"
   version="1.1"
   id="svg9"
   sodipodi:docname="view-financial-transfer-reconciled.svg"
   inkscape:version="1.1.2 (0a00cf5339, 2022-02-04)"
   xmlns:inkscape="http://www.inkscape.org/namespaces/inkscape"
   xmlns:sodipodi="http://sodipodi.sourceforge.net/DTD/sodipodi-0.dtd"
   xmlns="http://www.w3.org/2000/svg"
   xmlns:svg="http://www.w3.org/2000/svg">
  <sodipodi:namedview
     id="namedview11"
     pagecolor="#ffffff"
     bordercolor="#666666"
     borderopacity="1.0"
     inkscape:pageshadow="2"
     inkscape:pageopacity="0.0"
     inkscape:pagecheckerboard="0"
     showgrid="false"
     inkscape:zoom="48.731442"
     inkscape:cx="11.471033"
     inkscape:cy="17.86321"
     inkscape:window-width="954"
     inkscape:window-height="519"
     inkscape:window-x="961"
     inkscape:window-y="556"
     inkscape:window-maximized="1"
     inkscape:current-layer="g7" />
  <defs
     id="defs3">
    <style
       id="current-color-scheme"
       type="text/css">
   .ColorScheme-Text { color:#eeeeec; } .ColorScheme-Highlight { color:#367bf0; } .ColorScheme-NeutralText { color:#ffcc44; } .ColorScheme-PositiveText { color:#3db47e; } .ColorScheme-NegativeText { color:#dd4747; }
  </style>
  </defs>
  <g
     transform="translate(4,4)"
     id="g7">
    <path
       style="fill:currentColor"
       class="ColorScheme-Text"
       d="M 3,0 C 2.446,0 2,0.446 2,1 v 6 h 5 c 1.0907028,0 2,0.9092972 2,2 v 6 C 9,15.278441 8.9369467,15.542568 8.8287545,15.784083 8.7955212,15.858269 8.9876893,15.930322 8.9464573,16 v 0 H 15 c 0.554,0 1,-0.446 1,-1 V 1 C 16,0.446 15.554,0 15,0 Z m 1,2 h 7 V 3 H 4 Z m 8,0 h 2 V 3 H 12 Z M 4,4 H 8 V 5 H 4 Z m 5,2 h 4 V 7 H 9 Z M 1,8 C 0.446,8 0,8.446 0,9 v 6 c 0,0.554 0.446,1 1,1 h 6 c 0.554,0 1,-0.446 1,-1 V 9 C 8,8.446 7.554,8 7,8 Z m 9,0 h 2 v 1 h -2 z m 3,0 h 2 V 9 H 13 Z M 6.412293,9.0055534 6.7851324,8.8710794 7.2008705,9.1205223 v 0 l 0.09002,0.3684801 -2.9402781,4.8975376 v 0 L 3.902258,14.536353 0.89205581,12.528981 v 0 L 0.8662316,12.200653 1.1619194,11.757121 v 0 l 0.300228,-0.04989 2.171741,1.44838 v 0 L 3.9939398,13.036142 Z M 11,10 h 3 v 1 h -3 z m -1,2 h 1 v 1 h -1 z m 2,0 h 3 v 1 h -3 z m -2,2 h 3 v 1 h -3 z"
       id="path5"
       sodipodi:nodetypes="sscssssccsssssccccccccccccccccccccsssssssssccccccccccccccccccccccccccccccccccccccccccccccccc" />
  </g>
</svg>
