<?xml version="1.0" encoding="UTF-8" standalone="no"?>
<svg
   width="24"
   height="24"
   version="1.1"
   id="svg9"
   sodipodi:docname="view-financial-account-investment-security-closed.svg"
   inkscape:version="1.1.2 (0a00cf5339, 2022-02-04)"
   xmlns:inkscape="http://www.inkscape.org/namespaces/inkscape"
   xmlns:sodipodi="http://sodipodi.sourceforge.net/DTD/sodipodi-0.dtd"
   xmlns="http://www.w3.org/2000/svg"
   xmlns:svg="http://www.w3.org/2000/svg">
  <sodipodi:namedview
     id="namedview11"
     pagecolor="#000000"
     bordercolor="#666666"
     borderopacity="1.0"
     inkscape:pageshadow="2"
     inkscape:pageopacity="0"
     inkscape:pagecheckerboard="0"
     showgrid="false"
     inkscape:zoom="34.458333"
     inkscape:cx="8.5320435"
     inkscape:cy="14.495768"
     inkscape:window-width="1914"
     inkscape:window-height="1045"
     inkscape:window-x="3"
     inkscape:window-y="32"
     inkscape:window-maximized="1"
     inkscape:current-layer="g7" />
  <defs
     id="defs3">
    <style
       id="current-color-scheme"
       type="text/css">
   .ColorScheme-Text { color:#eeeeec; } .ColorScheme-Highlight { color:#367bf0; } .ColorScheme-NeutralText { color:#ffcc44; } .ColorScheme-PositiveText { color:#3db47e; } .ColorScheme-NegativeText { color:#dd4747; }
  </style>
  </defs>
  <g
     transform="translate(4,4)"
     id="g7">
    <path
       style="opacity:0.35;fill:currentColor"
       class="ColorScheme-Text"
       d="M 1,2 V 15 H 14 V 13.001953 13 11.867188 L 13.958984,11.828125 11.435471,9.3046124 11.130859,9 l -0.0039,0.00391 0.308518,0.3007062 -0.656004,0.037014 -1.5194713,1.5194713 v 0 L 8.7943559,10.919356 5.875,8 H 4.4609375 3 V 2 Z M 9,2 8.7066639,2.2933361 4.9980469,6.0019531 H 3.0019531 v 1 h 2.4101563 l 3.308119,-3.308119 v 0 l 0.623465,0.060016 1.4853016,1.4853011 v 0 0 L 11.54215,5.1278059 v 0 L 13.962925,2.7070312 C 13.965857,2.7120315 13.255859,2 13.255859,2 l -1.792933,1.7929331 v 0 l -0.647935,0.016489 -1.4941579,-1.4927866 -0.6141692,-0.0233 v 0 z M 3,9 h 2.4609375 l 3.2944039,3.294404 0.2407524,0.240752 -0.2407524,-0.240752 0.5572625,-0.07157 v 0 l 1.8143431,-1.812677 2.125,2.125 0.221685,0.213605 L 13.417655,13 v 0 H 3.2333843 v 0 L 3,12.778334 Z"
       id="path5"
       sodipodi:nodetypes="ccccccccccccccccccccccccccccccccccccccccccccccccccccccccccc" />
  </g>
</svg>
