<?xml version="1.0" encoding="UTF-8" standalone="no"?>
<svg
   width="24"
   height="24"
   version="1.1"
   id="svg7"
   sodipodi:docname="vm-snapshot-autoprotect-keep.svg"
   inkscape:version="1.1.2 (0a00cf5339, 2022-02-04)"
   xmlns:inkscape="http://www.inkscape.org/namespaces/inkscape"
   xmlns:sodipodi="http://sodipodi.sourceforge.net/DTD/sodipodi-0.dtd"
   xmlns="http://www.w3.org/2000/svg"
   xmlns:svg="http://www.w3.org/2000/svg">
  <sodipodi:namedview
     id="namedview9"
     pagecolor="#ffffff"
     bordercolor="#666666"
     borderopacity="1.0"
     inkscape:pageshadow="2"
     inkscape:pageopacity="0.0"
     inkscape:pagecheckerboard="0"
     showgrid="false"
     inkscape:zoom="97.462884"
     inkscape:cx="14.28236"
     inkscape:cy="18.678906"
     inkscape:window-width="954"
     inkscape:window-height="519"
     inkscape:window-x="961"
     inkscape:window-y="556"
     inkscape:window-maximized="1"
     inkscape:current-layer="svg7" />
  <defs
     id="defs3">
    <style
       id="current-color-scheme"
       type="text/css">
   .ColorScheme-Text { color:#eeeeec; } .ColorScheme-Highlight { color:#367bf0; } .ColorScheme-NeutralText { color:#ffcc44; } .ColorScheme-PositiveText { color:#3db47e; } .ColorScheme-NegativeText { color:#dd4747; }
  </style>
  </defs>
  <path
     style="fill:currentColor"
     class="ColorScheme-Text"
     d="M 8.5,4 C 7.132132,4 6,5.1321324 6,6.5 V 9.050781 C 4.866938,9.28618 4,10.303116 4,11.5 v 6 C 4,18.867868 5.132132,20 6.5,20 h 6 c 0.338022,0 0.661266,-0.07055 0.957031,-0.195312 C 12.91982,19.308688 12.51156,18.689262 12.267578,18 H 6.5 C 6.205537,18 6,17.794463 6,17.5 v -6 C 6,11.205537 6.205537,11 6.5,11 h 2.5 2 1.5 c 0.294463,0 0.5,0.205537 0.5,0.5 v 1.772041 l 0.318061,0.0589 c 0.09999,-0.124107 -0.111875,0.112171 0,0 C 13.790914,12.856834 14.36515,12.492746 15,12.267578 V 11.5 C 15,10.499386 14.394183,9.624918 13.533435,9.227481 13.217516,9.0816099 13.886494,9 13.51924,9 v 0 h 2.853033 l -0.07336,-0.1588231 c -0.163746,-0.3545246 0.44097,0.069285 0.111692,-0.090381 C 15.57568,8.3459412 15,7.4901992 15,6.5 V 7 H 11.5 C 10.303116,7 9.2861799,7.8669384 9.0507812,9 H 8 V 6.5 C 8,6.2055368 8.2055368,6 8.5,6 h 6 c 0.294463,0 0.572909,-0.3856772 0.572909,-0.091214 6.7e-4,-0.20139 -0.04731,0.1915072 0,0 C 15.209573,5.3556104 15.533005,4.8592521 15.998047,4.5097656 15.578517,4.1916146 15.060152,4 14.5,4 Z m 9.30654,4.8949865 C 18.101003,8.8949865 18,9.205537 18,9.5 v 2.757813 c 0.625499,0.221118 1.192348,0.577061 1.661562,1.04026 0.119343,0.117813 0.232369,-0.206957 0.338438,-0.07572 v 0 V 9.5 C 20,8.939848 19.808385,8.421483 19.490234,8.001953 19.019757,8.6279901 18.589652,8.8923834 17.80654,8.8949865 Z M 17.5,5 C 16.671573,5 16,5.6715729 16,6.5 16,7.3284271 16.671573,8 17.5,8 18.328427,8 19,7.3284271 19,6.5 19,5.6715729 18.328427,5 17.5,5 Z m -1,8 C 14.567003,13 13,14.567003 13,16.5 13,18.432997 14.567003,20 16.5,20 18.432997,20 20,18.432997 20,16.5 20,14.567003 18.432997,13 16.5,13 Z m 0,1 c 1.380712,0 2.5,1.119288 2.5,2.5 0,1.380712 -1.119288,2.5 -2.5,2.5 -0.168147,-0.002 -0.335662,-0.02099 -0.5,-0.05664 v -1.029297 c 0.160578,0.05683 0.329663,0.08589 0.5,0.08594 0.828427,0 1.5,-0.671573 1.5,-1.5 0,-0.828427 -0.671573,-1.5 -1.5,-1.5 -0.604528,0 -1.125094,0.357791 -1.36249,0.873037 -0.01905,0.04134 0.05312,0.0837 0.03782,0.126963 v 0 h 0.547087 v 0 l 0.06668,0.210904 -1.547841,1.547841 v 0 L 14,17.731934 14,16.5 V 16 l 0.05078,-0.197541 C 14.340666,14.674761 15.290548,14 16.5,14 Z"
     id="path5"
     sodipodi:nodetypes="cscssssccssssccssccscsscccsccsccssscscsscscsccsccssssssssssssccccsscsccccccccccss" />
</svg>
