<?xml version="1.0" encoding="UTF-8" standalone="no"?>
<svg
   width="24"
   height="24"
   version="1.1"
   id="svg7"
   sodipodi:docname="vmware-disabled.svg"
   inkscape:version="1.1.2 (0a00cf5339, 2022-02-04)"
   xmlns:inkscape="http://www.inkscape.org/namespaces/inkscape"
   xmlns:sodipodi="http://sodipodi.sourceforge.net/DTD/sodipodi-0.dtd"
   xmlns="http://www.w3.org/2000/svg"
   xmlns:svg="http://www.w3.org/2000/svg">
  <sodipodi:namedview
     id="namedview9"
     pagecolor="#ffffff"
     bordercolor="#666666"
     borderopacity="1.0"
     inkscape:pageshadow="2"
     inkscape:pageopacity="0.0"
     inkscape:pagecheckerboard="0"
     showgrid="false"
     inkscape:zoom="68.916667"
     inkscape:cx="18.036276"
     inkscape:cy="21.540508"
     inkscape:window-width="954"
     inkscape:window-height="519"
     inkscape:window-x="961"
     inkscape:window-y="556"
     inkscape:window-maximized="1"
     inkscape:current-layer="svg7" />
  <defs
     id="defs3">
    <style
       id="current-color-scheme"
       type="text/css">
   .ColorScheme-Text { color:#eeeeec; } .ColorScheme-Highlight { color:#367bf0; } .ColorScheme-NeutralText { color:#ffcc44; } .ColorScheme-PositiveText { color:#3db47e; } .ColorScheme-NegativeText { color:#dd4747; }
  </style>
  </defs>
  <path
     style="fill:currentColor"
     class="ColorScheme-NegativeText"
     d="M 18.5,17 C 17.669,17 17,17.669 17,18.5 v 4 c 0,0.831 0.669,1.5 1.5,1.5 h 4 c 0.831,0 1.5,-0.669 1.5,-1.5 v -4 C 24,17.669 23.331,17 22.5,17 Z m 0.433529,1.531315 0.316301,0.01148 1.147659,1.14766 0.190894,0.01413 v 0 l 1.169261,-1.169262 0.299698,-0.01314 v 0 l 0.422177,0.422177 v 0 l -0.03936,0.32251 -1.159393,1.159393 0.0049,0.152369 v 0 l 1.171889,1.171888 0.01034,0.316742 v 0 l -0.413483,0.413483 v 0 l -0.302017,-0.02132 -1.141974,-1.141975 -0.195048,-0.02579 v 0 l -1.172314,1.172315 v 0 l -0.323407,-0.0092 -0.378539,-0.378539 v 0 l -0.01223,-0.312154 1.181023,-1.181022 v 0 l -0.01379,-0.179909 -1.16916,-1.16916 v 0 l 0.0072,-0.303339 z"
     id="path5"
     sodipodi:nodetypes="sssssssssccccccccccccccccccccccccccccccccccccc" />
</svg>
