<?xml version="1.0" encoding="UTF-8" standalone="no"?>
<svg
   width="24"
   height="24"
   version="1.1"
   id="svg9"
   sodipodi:docname="vmware-component-downloading.svg"
   inkscape:version="1.1.2 (0a00cf5339, 2022-02-04)"
   xmlns:inkscape="http://www.inkscape.org/namespaces/inkscape"
   xmlns:sodipodi="http://sodipodi.sourceforge.net/DTD/sodipodi-0.dtd"
   xmlns="http://www.w3.org/2000/svg"
   xmlns:svg="http://www.w3.org/2000/svg">
  <sodipodi:namedview
     id="namedview11"
     pagecolor="#ffffff"
     bordercolor="#666666"
     borderopacity="1.0"
     inkscape:pageshadow="2"
     inkscape:pageopacity="0.0"
     inkscape:pagecheckerboard="0"
     showgrid="false"
     inkscape:zoom="34.458333"
     inkscape:cx="11.956469"
     inkscape:cy="9.6783555"
     inkscape:window-width="954"
     inkscape:window-height="519"
     inkscape:window-x="961"
     inkscape:window-y="556"
     inkscape:window-maximized="1"
     inkscape:current-layer="svg9" />
  <defs
     id="defs3">
    <style
       id="current-color-scheme"
       type="text/css">
   .ColorScheme-Text { color:#eeeeec; } .ColorScheme-Highlight { color:#367bf0; } .ColorScheme-NeutralText { color:#ffcc44; } .ColorScheme-PositiveText { color:#3db47e; } .ColorScheme-NegativeText { color:#dd4747; }
  </style>
  </defs>
  <path
     style="fill:currentColor"
     class="ColorScheme-Text"
     d="M 10.203125,5 8.2792969,5.6210938 C 4.2136867,6.9333798 4.08235,6.9800563 4.03125,7.1347656 3.99261,7.2516853 4.1540525,7.4436189 4.8515625,8.115234 5.3288925,8.574842 5.71875,8.985193 5.71875,9.027344 c 0,0.04215 -0.386475,0.438281 -0.859375,0.880859 C 4.386485,10.35078 4,10.755735 4,10.808594 c 0,0.05286 0.054294,0.141109 0.1210938,0.195312 0.06676,0.0542 1.437935,0.524771 3.046875,1.044922 1.6089399,0.520151 2.9568402,0.948099 2.9941402,0.951172 0.03731,0.0031 0.466135,-0.372055 0.953125,-0.833984 l 0.689029,-0.655566 v 0 l 0.432518,0.03866 0.65775,0.624719 c 0.492001,0.46669 0.937335,0.833142 0.990235,0.814453 0.05286,-0.01869 1.391439,-0.446554 2.974609,-0.951172 C 19.589975,11.166765 20,11.007551 20,10.820313 20,10.776423 19.613515,10.370838 19.140625,9.917969 18.667725,9.465099 18.28125,9.062976 18.28125,9.023438 c 0,-0.03954 0.389857,-0.448596 0.867188,-0.908204 C 19.844758,7.444756 20.00725,7.2511705 19.96875,7.1347656 19.93023,7.0182254 19.491018,6.8486278 17.736328,6.2734375 16.534898,5.8796107 15.155575,5.4315708 14.671875,5.2792969 l -0.878906,-0.2753907 -0.896485,0.859375 -0.63325,0.605658 v 0 L 11.763542,6.4940117 11.101563,5.859375 Z m 1.810547,2 2.230469,0.7421875 c 0.721757,0.2398964 1.370341,0.4576331 1.784818,0.5991303 0.289676,0.098891 -0.47104,-0.1664952 0,0 -0.47104,-0.1664952 0.280976,0.2455098 -0.0487,0.3596557 C 15.579786,8.8396301 14.983113,9.0397596 14.316406,9.257813 13.100847,9.6553739 12.074586,9.98939 12.035156,10 11.962423,10.019557 8.9601905,9.0384413 7.8810537,8.6553936 c -0.243021,-0.086262 -0.00746,0.00734 0,0 C 7.8881213,8.6484481 7.7058662,8.4292591 8.0301223,8.319224 8.4492952,8.1769792 9.0781237,7.9672531 9.7734375,7.7382812 Z m 0.193359,5.900391 -0.404297,-0.0098 c -0.251564,0.238619 -0.48648,0.455024 -0.673828,0.619141 -0.09367,0.08206 -0.173593,0.150428 -0.25,0.210937 -0.0382,0.03025 -0.07292,0.05625 -0.128906,0.09375 -0.028,0.01875 -0.05771,0.04106 -0.123047,0.07422 -0.03267,0.01658 -0.07371,0.03653 -0.146484,0.06055 -0.03639,0.01201 -0.08199,0.02422 -0.144531,0.03516 -0.06207,0.01086 -0.25239,0.01176 -0.25586,0.01172 -0.0012,-9.6e-5 -0.1465875,-0.02252 -0.1660155,-0.02734 -0.019429,-0.0048 -0.0314,-0.0085 -0.042969,-0.01172 -0.023138,-0.0064 -0.043308,-0.01205 -0.068359,-0.01953 C 9.7526315,13.922553 9.687673,13.903833 9.607422,13.878923 9.4469196,13.829079 9.2237471,13.758428 8.9511719,13.671875 8.4060215,13.498769 7.6672235,13.260537 6.8613281,13 c -0.327531,-0.105887 -0.5570159,0.109556 -0.8563838,0.01068 2.731e-4,0.097 -4.18e-4,-0.100075 0,0 0.00754,1.805684 0.03822,4.039967 0.075134,4.096745 0.039418,0.06062 1.3630086,0.533822 2.9394531,1.052734 h 0.00195 c 1.5765036,0.518882 2.9804686,0.955078 2.9804686,0.955078 v -0.01367 c 0,0 1.456642,-0.447606 3,-0.949218 C 15.164576,18.099489 15.308677,18.051574 15.464844,18 L 15.167969,17.554688 C 14.725127,16.890134 15.201413,16.000171 16,16 v -2 c 0.0028,-0.288748 -1.764268,0.04327 -1.544922,-0.144531 -0.437021,0.139794 -0.92,0.294204 -1.246093,0.398438 -0.269359,0.0861 1.40303,-0.448817 1.246093,-0.398438 -0.156938,0.05038 -0.343607,0.114102 -0.236328,0.07617 -8.27e-4,2.92e-4 -0.16714,0.04577 -0.234375,0.05273 -0.06724,0.0069 -0.123587,0.0051 -0.171875,0.002 -0.09659,-0.0064 -0.161218,-0.02062 -0.212891,-0.03516 -0.103347,-0.02907 -0.156516,-0.05767 -0.201172,-0.08008 -0.08931,-0.04481 -0.137683,-0.07718 -0.1875,-0.111328 -0.09963,-0.06832 -0.187976,-0.137987 -0.291015,-0.222692 -0.206079,-0.169409 -0.452308,-0.389541 -0.712891,-0.636718 z"
     id="path5"
     sodipodi:nodetypes="cccsscscsccccccccscsccsccccccccccscsscscscccccscssscccscsscscccccscccccssccccccsc" />
  <path
     style="fill:currentColor"
     class="ColorScheme-PositiveText"
     d="m 17,14 v 3 h -0.646591 l -0.08049,0.409381 v 0 L 17,18.5 l 0.791158,1.186737 0.427814,-0.0152 v 0 L 19,18.5 19.7172,17.4242 19.515633,17 v 0 H 19 v -3 z"
     id="path7"
     sodipodi:nodetypes="cccccccccccccccc" />
</svg>
