<?xml version="1.0" encoding="UTF-8" standalone="no"?>
<svg
   width="24"
   height="24"
   version="1.1"
   id="svg7"
   sodipodi:docname="vmware-autoprotect-keep.svg"
   inkscape:version="1.1.2 (0a00cf5339, 2022-02-04)"
   xmlns:inkscape="http://www.inkscape.org/namespaces/inkscape"
   xmlns:sodipodi="http://sodipodi.sourceforge.net/DTD/sodipodi-0.dtd"
   xmlns="http://www.w3.org/2000/svg"
   xmlns:svg="http://www.w3.org/2000/svg">
  <sodipodi:namedview
     id="namedview9"
     pagecolor="#ffffff"
     bordercolor="#666666"
     borderopacity="1.0"
     inkscape:pageshadow="2"
     inkscape:pageopacity="0.0"
     inkscape:pagecheckerboard="0"
     showgrid="false"
     inkscape:zoom="181.01934"
     inkscape:cx="17.147339"
     inkscape:cy="8.7642571"
     inkscape:window-width="954"
     inkscape:window-height="519"
     inkscape:window-x="961"
     inkscape:window-y="556"
     inkscape:window-maximized="1"
     inkscape:current-layer="svg7" />
  <defs
     id="defs3">
    <style
       id="current-color-scheme"
       type="text/css">
   .ColorScheme-Text { color:#eeeeec; } .ColorScheme-Highlight { color:#367bf0; } .ColorScheme-NeutralText { color:#ffcc44; } .ColorScheme-PositiveText { color:#3db47e; } .ColorScheme-NegativeText { color:#dd4747; }
  </style>
  </defs>
  <path
     style="fill:currentColor"
     class="ColorScheme-Text"
     d="M 8.5,4 C 7.132132,4 6,5.1321324 6,6.5 V 9.050781 C 4.866938,9.28618 4,10.303116 4,11.5 v 6 C 4,18.867868 5.132132,20 6.5,20 h 6 c 0.338022,0 0.661266,-0.07055 0.957031,-0.195312 C 12.91982,19.308688 12.51156,18.689262 12.267578,18 H 6.5 C 6.205537,18 6,17.794463 6,17.5 v -6 C 6,11.205537 6.205537,11 6.5,11 h 2.5 2 1.5 c 0.294463,0 0.5,0.205537 0.5,0.5 v 2.010475 l 0.121092,0.03104 c 0.03941,-0.04892 -0.04131,0.0471 0,0 C 13.627534,12.964067 14.274149,12.525022 15,12.267578 V 11.5 C 15,10.416458 14.289604,9.4808362 13.314371,9.1386942 13.058466,9.0489149 13.64664,9 13.362314,9 v 0 h 3.546356 l 0.0085,-0.039677 c -0.582788,-0.039677 0.186985,0.026597 0,0 C 15.817592,8.8039127 15,8.1800501 15,7 V 7 H 11.5 C 10.303116,7 9.2861799,7.8669384 9.0507812,9 H 8 V 6.5 C 8,6.2055368 8.2055368,6 8.5,6 h 6 c 0.189606,0 0.342342,0.085218 0.427077,0.2245229 0.04686,0.077039 0.08927,-0.1068268 0.08927,-0.00197 3.1e-4,-0.093265 -0.01053,0.091576 0,0 0.07789,-0.6773519 0.430221,-1.2983416 0.9817,-1.7127873 C 15.578517,4.1916146 15.060152,4 14.5,4 Z m 9.395777,5.0363457 c 0.07242,0 -0.03881,-0.023044 0,0 C 18.01477,9.1070024 18,9.2779558 18,9.5 v 2.757813 c 0.731258,0.258505 1.382359,0.701281 1.891004,1.28428 0.0371,0.04252 0.07344,-0.07647 0.108996,-0.03248 v 0 V 9.5 c 0,-0.560152 -0.191615,-1.078517 -0.509766,-1.498047 -0.432932,0.5760786 -0.89521,0.9356352 -1.576429,0.9913809 -0.05908,0.00483 0.04447,0.042804 -0.01803,0.043012 z M 17.5,5 C 16.671573,5 16,5.6715729 16,6.5 16,7.3284271 16.671573,8 17.5,8 18.328427,8 19,7.3284271 19,6.5 19,5.6715729 18.328427,5 17.5,5 Z m -1,8 C 14.567003,13 13,14.567003 13,16.5 13,18.432997 14.567003,20 16.5,20 18.432997,20 20,18.432997 20,16.5 20,14.567003 18.432997,13 16.5,13 Z m 0,1 c 1.380712,0 2.5,1.119288 2.5,2.5 0,1.380712 -1.119288,2.5 -2.5,2.5 -0.168147,-0.002 -0.335662,-0.02099 -0.5,-0.05664 v -1.029297 c 0.160578,0.05683 0.329663,0.08589 0.5,0.08594 0.828427,0 1.5,-0.671573 1.5,-1.5 0,-0.828427 -0.671573,-1.5 -1.5,-1.5 -0.618664,0 -0.921053,0.294424 -1.342624,0.896761 -0.02342,0.03346 0.07696,0.06787 0.05273,0.103239 v 0 h 0.37042 v 0 l 0.07678,0.342699 -1.472377,1.472377 L 14,17.777089 v 0 V 16.5 L 14.05078,16 v 0 C 14.282446,14.858918 15.290548,14 16.5,14 Z"
     id="path5"
     sodipodi:nodetypes="sscssssccssssccssccscssccccsccsccsssscscsscsscsccscscssssssssssssccccssscccccccccccs" />
</svg>
