<?xml version="1.0" encoding="UTF-8" standalone="no"?>
<svg
   width="24"
   height="24"
   version="1.1"
   id="svg9"
   sodipodi:docname="x-shape-formula.svg"
   inkscape:version="1.1.2 (0a00cf5339, 2022-02-04)"
   xmlns:inkscape="http://www.inkscape.org/namespaces/inkscape"
   xmlns:sodipodi="http://sodipodi.sourceforge.net/DTD/sodipodi-0.dtd"
   xmlns="http://www.w3.org/2000/svg"
   xmlns:svg="http://www.w3.org/2000/svg">
  <sodipodi:namedview
     id="namedview11"
     pagecolor="#ffffff"
     bordercolor="#666666"
     borderopacity="1.0"
     inkscape:pageshadow="2"
     inkscape:pageopacity="0.0"
     inkscape:pagecheckerboard="0"
     showgrid="false"
     inkscape:zoom="34.458333"
     inkscape:cx="11.941959"
     inkscape:cy="18.964933"
     inkscape:window-width="475"
     inkscape:window-height="519"
     inkscape:window-x="1440"
     inkscape:window-y="556"
     inkscape:window-maximized="1"
     inkscape:current-layer="g7" />
  <defs
     id="defs3">
    <style
       id="current-color-scheme"
       type="text/css">
   .ColorScheme-Text { color:#eeeeec; } .ColorScheme-Highlight { color:#367bf0; } .ColorScheme-NeutralText { color:#ffcc44; } .ColorScheme-PositiveText { color:#3db47e; } .ColorScheme-NegativeText { color:#dd4747; }
  </style>
  </defs>
  <g
     transform="translate(4,4)"
     id="g7">
    <path
       style="fill:currentColor"
       class="ColorScheme-Text"
       d="M 9,1 C 8.35,1 8,2 8,2 L 6.3981721,8.3743942 v 0 L 6.052905,8.4106429 5.5273,7.5 C 5.3488,7.1909 5.0191,7.0003 4.6621,7 H 2 C 1,7 1,8 1,8 v 1 c 0,0 0,1 1,1 h 1.5059 l 2.5996,4.5 c 0.4452,0.771 1.6008,0.62 1.832,-0.24 L 10.5,4 H 14 c 1,0 1,-1 1,-1 V 2 c 0,0 0,-1 -1,-1 z"
       id="path5"
       sodipodi:nodetypes="sccccccsccsccccsccss" />
  </g>
</svg>
