<?xml version="1.0" encoding="UTF-8" standalone="no"?>
<svg
   width="24"
   height="24"
   viewBox="0 0 24 24"
   version="1.1"
   id="svg7"
   sodipodi:docname="xfpm-brightness-lcd.svg"
   inkscape:version="1.1.2 (0a00cf5339, 2022-02-04)"
   xmlns:inkscape="http://www.inkscape.org/namespaces/inkscape"
   xmlns:sodipodi="http://sodipodi.sourceforge.net/DTD/sodipodi-0.dtd"
   xmlns="http://www.w3.org/2000/svg"
   xmlns:svg="http://www.w3.org/2000/svg">
  <sodipodi:namedview
     id="namedview9"
     pagecolor="#ffffff"
     bordercolor="#666666"
     borderopacity="1.0"
     inkscape:pageshadow="2"
     inkscape:pageopacity="0.0"
     inkscape:pagecheckerboard="0"
     showgrid="false"
     inkscape:zoom="34.458333"
     inkscape:cx="11.956469"
     inkscape:cy="9.6783555"
     inkscape:window-width="954"
     inkscape:window-height="519"
     inkscape:window-x="961"
     inkscape:window-y="556"
     inkscape:window-maximized="1"
     inkscape:current-layer="svg7" />
  <defs
     id="defs3">
    <style
       id="current-color-scheme"
       type="text/css">
   .ColorScheme-Text { color:#eeeeec; } .ColorScheme-Highlight { color:#367bf0; } .ColorScheme-NeutralText { color:#ffcc44; } .ColorScheme-PositiveText { color:#3db47e; } .ColorScheme-NegativeText { color:#dd4747; }
  </style>
  </defs>
  <path
     style="fill:currentColor"
     class="ColorScheme-Text"
     d="m 11.996094,4.71875 0.002,0.00195 L 12,4.71875 Z m 0.002,0.00195 c 0,0 -0.367675,0.1088978 -0.544479,0.2569775 C 10.942129,5.4060644 10.462238,6.2656488 9.9475622,6.7648393 9.8663977,6.8435618 9.4835208,6.92197 9.4017073,7 V 7 H 7.5286734 L 7,7.614396 v 0 1.8190525 L 6.873448,9.8351626 c -0.042078,0.044113 0.042286,-0.043916 0,0 -0.5629211,0.5846084 -1.1434097,1.1525884 -1.7180502,1.7260984 -0.1460548,0.145767 0.065582,0.651386 -0.079333,0.798232 0.1186633,0.120253 -0.1194762,-0.119477 0,0 0.5824306,0.582434 1.172006,1.15805 1.7442051,1.75019 0.060111,0.06221 0,0 0.1797301,0.187192 L 6.8202699,14.109683 7,16.473243 7.5088032,17 v 0 h 1.8979522 v 0 c 0.071872,0.06856 0.4398388,0.137404 0.511203,0.206497 0.5296366,0.512781 1.0464166,1.039143 1.5669486,1.561538 0.171096,0.171708 0.827953,-0.140389 1.000449,0.02984 0.162511,-0.160364 -0.161225,0.161713 0,0 0.525729,-0.527321 1.047262,-1.059037 1.581841,-1.577032 0.07628,-0.07391 -0.07686,0.0733 0,0 L 14.542048,17 h 1.747029 v 0 L 17,16.293062 v -1.996187 c 0.59359,-0.622289 1.208884,-1.224035 1.818015,-1.831609 0.154963,-0.154567 -0.153707,0.155756 0,0 -0.160426,-0.162575 0.141446,-0.789523 -0.02033,-0.95081 -0.497625,-0.496121 -0.999162,-0.988507 -1.489387,-1.491648 -0.103316,-0.106038 0.102169,0.107129 0,0 L 17,9.4322228 V 7.6321264 L 16.415397,7 V 7 H 14.589408 V 7 C 14.520117,6.934284 14.158599,6.8683013 14.089875,6.8020897 13.469338,6.2042338 12.870148,5.5877123 12.260205,4.9803574 12.17307,4.893592 11.453615,4.9776775 11.996094,4.71875 Z M 12,7.5 c 2.4853,0 4.5,2.0147 4.5,4.5 0,2.4853 -2.0147,4.5 -4.5,4.5 C 9.5147,16.5 7.5,14.4853 7.5,12 7.5,9.5147 9.5147,7.5 12,7.5 Z m -0.333307,1.5183068 c -0.112661,0 0.109436,-0.012097 0,0 C 10.1667,9.1841106 9,10.455811 9,12 c 0,1.541822 1.163126,2.81199 2.659797,2.980923 0.111659,0.0126 -0.115028,0 0,0 L 12,14.713682 V 9.2994853 Z"
     id="path5"
     sodipodi:nodetypes="ccccssscccccccsscsscccccccsscssccccccscsscccccccsscscssscsssccccs" />
</svg>
