<?xml version="1.0" encoding="UTF-8" standalone="no"?>
<svg
   width="16"
   height="16"
   version="1.1"
   id="svg2571311"
   sodipodi:docname="alarm-symbolic.svg"
   inkscape:version="1.1.2 (0a00cf5339, 2022-02-04)"
   xmlns:inkscape="http://www.inkscape.org/namespaces/inkscape"
   xmlns:sodipodi="http://sodipodi.sourceforge.net/DTD/sodipodi-0.dtd"
   xmlns="http://www.w3.org/2000/svg"
   xmlns:svg="http://www.w3.org/2000/svg">
  <defs
     id="defs2571315" />
  <sodipodi:namedview
     id="namedview2571313"
     pagecolor="#ffffff"
     bordercolor="#666666"
     borderopacity="1.0"
     inkscape:pageshadow="2"
     inkscape:pageopacity="0.0"
     inkscape:pagecheckerboard="0"
     showgrid="false"
     inkscape:zoom="51.6875"
     inkscape:cx="7.9903265"
     inkscape:cy="8"
     inkscape:window-width="1920"
     inkscape:window-height="1051"
     inkscape:window-x="0"
     inkscape:window-y="29"
     inkscape:window-maximized="1"
     inkscape:current-layer="svg2571311" />
  <path
     style="fill:#5c616c"
     d="M 4.5,0 C 2.5670034,0 1,1.5670034 1,3.5 c 3.215e-4,0.3297269 0.047232,0.6572467 0.1389341,0.972932 0.02774,0.095494 -0.035887,-0.093062 0,0 0.058995,-0.093603 0.2153282,0.097061 0.2780137,0.00611 1.2265544,-1.77962 3.1494327,-3.041307 5.3736229,-3.3815077 0.074675,-0.011422 -0.086402,-0.24423777 -0.011062,-0.25356699 -0.075542,-0.0780831 0.081748,0.0701612 0,0 C 6.1476551,0.30167405 5.3397367,-3.110768e-5 4.5,0 Z m 7,0 c -0.82306,8.8709734e-4 -1.615275,0.29161308 -2.2408414,0.81451877 -0.094221,0.0787589 0.1248938,0.20747093 0.038698,0.29656713 0.1038176,0.012906 -0.1025402,-0.016871 0,0 2.2019624,0.3622905 4.1004444,1.6294984 5.3099144,3.4046104 0.05343,0.078421 -0.05071,-0.08037 0,0 0.03434,-0.088702 0.221221,0.059568 0.248153,-0.031367 C 14.950434,4.1652189 14.999086,3.833781 15,3.5 15,1.5670034 13.432997,0 11.5,0 Z M 8,2 C 4.1340068,2 1,5.1340068 1,9 c -1.63e-6,1.650427 0.4269918,3.243172 1.4903367,4.505395 0.0777,0.09218 0.1577578,0.18233 0.2400904,0.270353 0.071887,0.07686 0.1455084,0.15209 0.2208096,0.225647 -0.052245,-0.0056 0.275433,0.368274 0,0 C 2.7621496,13.748572 2.713025,14.034864 2.6033958,14.082223 2.4889227,14.131674 2.3833533,14.202675 2.293,14.293 c -0.3903819,0.3905 -0.3903819,1.0235 0,1.414 0.3904999,0.390382 1.0235001,0.390382 1.414,0 0.1894663,-0.189907 0.2916192,-0.444333 0.2920957,-0.704564 1.845e-4,-0.100744 0.031126,0.09908 0,0 0.090102,0.06381 0.1356912,-0.175966 0.228681,-0.116507 0.1033741,0.0661 0.2084843,0.129479 0.3152233,0.190071 0.1936291,0.110427 0.3924223,0.211542 0.5957,0.303 0.01883,0.0084 0.037697,0.01675 0.0566,0.025 0.1760883,0.07701 0.3552734,0.146736 0.5371,0.209 0.056388,0.01972 0.1130258,0.03873 0.1699,0.057 0.1610844,0.05088 0.3239577,0.09591 0.4883,0.135 0.064261,0.01525 0.1287337,0.02958 0.1934,0.043 0.1604574,0.03299 0.3220236,0.06034 0.4844,0.082 0.074716,0.01021 0.1495928,0.01921 0.2246,0.027 0.173312,0.01882 0.3472666,0.03116 0.5215,0.037 C 7.876304,15.9968 7.9381429,15.9988 8,16 c 0.2335045,3e-6 0.466863,-0.01168 0.6992,-0.035 1.0665777,-0.10848 2.092209,-0.460291 2.998688,-1.026211 0.04644,-0.02899 0.09257,-0.05855 0.13837,-0.08866 0.06287,-0.04133 0.147422,0.30267 0.167082,0.08777 0.0073,-0.0047 -0.04165,0.2289 0,0 -0.02303,0.0754 0.0049,-0.07671 0,0 -0.0179,0.282372 0.08481,0.563525 0.289656,0.7691 0.3905,0.390382 1.0235,0.390382 1.414,0 0.390382,-0.3905 0.492386,-1.043465 0.102004,-1.433965 -0.109221,-0.109001 -0.317654,-0.180466 -0.497806,-0.224572 -0.177883,-0.04355 0,0 0,0 0,0 -0.12599,-0.352954 0.0148,-0.519465 0.01037,-0.01097 0.0207,-0.02197 0.031,-0.033 0.004,-0.0053 0.008,-0.01066 0.012,-0.016 0.130006,-0.156559 0.253123,-0.318713 0.369,-0.486 0.01986,-0.02653 0.03952,-0.05319 0.059,-0.08 0.104781,-0.15663 0.203195,-0.317428 0.295,-0.482 0.02444,-0.04208 0.04844,-0.08442 0.072,-0.127 0.08506,-0.161198 0.163782,-0.325657 0.236,-0.493 0.02219,-0.04709 0.04386,-0.09443 0.065,-0.142 0.06141,-0.152315 0.117449,-0.306744 0.168,-0.463 0.0252,-0.0726 0.0492,-0.14561 0.072,-0.219 0.04244,-0.145736 0.08013,-0.292814 0.113,-0.441 0.01901,-0.07802 0.03668,-0.156368 0.053,-0.235 0.02717,-0.148803 0.04952,-0.298449 0.067,-0.4487 C 14.94988,9.778863 14.96021,9.6942151 14.969,9.6094 14.988186,9.4068138 14.998529,9.2034874 15,9 15,5.1340068 11.865993,2 8,2 Z m 0,2 c 2.761424,0 5,2.2385763 5,5 0,2.761424 -2.238576,5 -5,5 C 5.2385763,14 3,11.761424 3,9 3.000112,8.8330138 3.0085893,8.666138 3.0254,8.5 3.2821673,5.9451971 5.4323265,4.0001732 8,4 Z m 2.49,1.9961 C 10.360151,5.99965 10.23678,6.053589 10.146,6.1465 L 8,8.293 6.3535,6.6465 C 5.8822879,6.1536851 5.1536851,6.8822879 5.6465,7.3535 l 2,2 c 0.1952614,0.1951634 0.5117386,0.1951634 0.707,0 l 2.5005,-2.5 C 11.179518,6.5352507 10.945052,5.982967 10.49,5.9961 Z"
     id="path2571309"
     sodipodi:nodetypes="ccscsscsccscsscsccsscscsscccscsccccccccccccssccscccscccccccccccccccccscsscccccccccccc" />
</svg>
