<?xml version="1.0" encoding="UTF-8" standalone="no"?>
<svg
   width="16"
   height="16"
   version="1.1"
   id="svg21773"
   sodipodi:docname="arch-lit-symbolic.svg"
   inkscape:version="1.1.2 (0a00cf5339, 2022-02-04)"
   xmlns:inkscape="http://www.inkscape.org/namespaces/inkscape"
   xmlns:sodipodi="http://sodipodi.sourceforge.net/DTD/sodipodi-0.dtd"
   xmlns="http://www.w3.org/2000/svg"
   xmlns:svg="http://www.w3.org/2000/svg">
  <defs
     id="defs21777" />
  <sodipodi:namedview
     id="namedview21775"
     pagecolor="#ffffff"
     bordercolor="#666666"
     borderopacity="1.0"
     inkscape:pageshadow="2"
     inkscape:pageopacity="0.0"
     inkscape:pagecheckerboard="0"
     showgrid="false"
     inkscape:zoom="51.6875"
     inkscape:cx="7.9903265"
     inkscape:cy="8"
     inkscape:window-width="1920"
     inkscape:window-height="1051"
     inkscape:window-x="0"
     inkscape:window-y="29"
     inkscape:window-maximized="1"
     inkscape:current-layer="svg21773" />
  <path
     style="fill:#5c616c"
     d="M 8.1835464,1.1680309 C 8.1217557,1.2264359 7.874871,1.116294 7.8101219,1.1736449 6.0531078,2.7299037 3.2572767,3.889875 2.1564202,4.2076211 c -0.056773,0.016387 -0.1073998,0.253077 -0.1547819,0.2649225 0,0.074066 -0.00109,-0.07429 0,0 C 2.0705324,9.1626306 4.3084731,14.261695 8,15 11.700139,14.259972 13.939902,9.1388146 13.998808,4.4397244 13.999602,4.3764024 13.776533,4.251012 13.776533,4.1878551 c -0.06549,-0.016373 0.08316,0.025003 0,0 C 12.631515,3.8435744 9.9055875,2.6964218 8.1835464,1.1680309 c -0.062548,-0.055514 0.059775,0.0565 0,0 z M 7,5 H 9 V 7.829986 L 9.130485,8 v 0 h 1.466774 v 0 l 0.192152,0.2807856 -2.5864661,3.4486214 -0.3886099,0.02304 v 0 L 5.2147208,8.2862944 v 0 L 5.4322783,8 H 6.8262498 L 7,7.8251315 v 0 z"
     id="path21771"
     sodipodi:nodetypes="csscscscssccccccccccccccccccc" />
</svg>
