<?xml version="1.0" encoding="UTF-8" standalone="no"?>
<svg
   width="16"
   height="16"
   version="1.1"
   id="svg77751"
   sodipodi:docname="auth-sim-locked-symbolic.svg"
   inkscape:version="1.1.2 (0a00cf5339, 2022-02-04)"
   xmlns:inkscape="http://www.inkscape.org/namespaces/inkscape"
   xmlns:sodipodi="http://sodipodi.sourceforge.net/DTD/sodipodi-0.dtd"
   xmlns="http://www.w3.org/2000/svg"
   xmlns:svg="http://www.w3.org/2000/svg">
  <defs
     id="defs77755" />
  <sodipodi:namedview
     id="namedview77753"
     pagecolor="#ffffff"
     bordercolor="#666666"
     borderopacity="1.0"
     inkscape:pageshadow="2"
     inkscape:pageopacity="0.0"
     inkscape:pagecheckerboard="0"
     showgrid="false"
     inkscape:zoom="51.6875"
     inkscape:cx="7.9903265"
     inkscape:cy="8"
     inkscape:window-width="1920"
     inkscape:window-height="1051"
     inkscape:window-x="0"
     inkscape:window-y="29"
     inkscape:window-maximized="1"
     inkscape:current-layer="svg77751" />
  <path
     style="fill:#5c616c"
     d="M 12.984925,9 C 11.889447,9 11,9.8635789 11,10.934456 v 1.066035 H 10 V 16 h 6 V 11.999509 H 15 V 10.934456 C 15,9.8635789 14.078392,9 12.984925,9 Z m 0,1 C 13.533668,10 14,10.39214 14,10.934456 v 1.066035 H 12 V 10.934456 C 12,10.39214 12.435176,10 12.984925,10 Z"
     id="path77747" />
  <path
     style="opacity:0.35;fill:#5c616c"
     d="M 4,0 C 2,0 2,2 2,2 v 12 c 0,2 2,2 2,2 H 9 V 14.000977 H 7 V 12 H 9 V 11 H 3.9990234 V 9.0019531 H 10.669922 C 11.236995,8.2942661 12.093156,7.9804832 13,7.97525 c 0.26778,0 0.525144,0.041957 0.771209,0.1126648 C 13.848599,8.110153 13.924872,7.9079752 14,7.9354902 v 0 -4.7484761 L 13.898434,2.8984343 v 0 L 11.171108,0.17110848 10.734559,0 v 0 z m 1,5.9970703 1,0.00586 V 8.0019532 H 3.9990234 L 4.0009765,7 C 4.0009765,7 4,5.9970703 5,5.9970703 Z m 6,0 C 12,5.9970703 12,7 12,7 L 11.998,7.9980468 H 10 V 5.9990234 Z m -4,0.00586 H 9 V 8.0019532 H 7 Z M 3.9990234,12 H 6 v 2.000977 l -1,-0.002 C 4,13.999024 4.0009765,13 4.0009765,13 Z"
     id="path77749"
     sodipodi:nodetypes="scscccccccccccsccccccccsccccccccccccccccccccccc" />
</svg>
