<?xml version="1.0" encoding="UTF-8" standalone="no"?>
<svg
   width="16"
   height="16"
   version="1.1"
   id="svg82400"
   sodipodi:docname="auth-sim-missing-symbolic.svg"
   inkscape:version="1.1.2 (0a00cf5339, 2022-02-04)"
   xmlns:inkscape="http://www.inkscape.org/namespaces/inkscape"
   xmlns:sodipodi="http://sodipodi.sourceforge.net/DTD/sodipodi-0.dtd"
   xmlns="http://www.w3.org/2000/svg"
   xmlns:svg="http://www.w3.org/2000/svg">
  <defs
     id="defs82404" />
  <sodipodi:namedview
     id="namedview82402"
     pagecolor="#ffffff"
     bordercolor="#666666"
     borderopacity="1.0"
     inkscape:pageshadow="2"
     inkscape:pageopacity="0.0"
     inkscape:pagecheckerboard="0"
     showgrid="false"
     inkscape:zoom="51.6875"
     inkscape:cx="7.9903265"
     inkscape:cy="8"
     inkscape:window-width="1920"
     inkscape:window-height="1051"
     inkscape:window-x="0"
     inkscape:window-y="29"
     inkscape:window-maximized="1"
     inkscape:current-layer="svg82400" />
  <path
     opacity="0.35"
     style="fill:#5c616c"
     d="M 4,0 C 2,0 2,2 2,2 v 12 c 0,2 2,2 2,2 h 8 c 0,0 2,0 2,-2 V 3.2061007 L 13.859829,2.859829 v 0 L 11.146614,0.14661442 v 0 L 10.779814,0 Z m 3.755,3.002 c 0.02,-10e-4 0.037,0.009 0.057,0.008 2.16,-0.09 4.063,1.565 4.186,3.746 L 12,6.786 V 6.813 C 12,6.858 11.995,6.899 11.994,6.943 11.994,6.958 12,7 12,7 l -0.002,1.002 h -0.123 c -0.0707,0.3222007 -0.190069,0.6317514 -0.354,0.918 -0.017,0.03 -0.039,0.054 -0.057,0.082 h 0.534 V 11 H 12 v 2 c 0,1 -1,1 -1,1 L 9.998,13.998 V 13.014 C 9.9828067,14.109151 9.0952223,14.991404 8,15 6.907,15 6,14.093 6,13 6,12.618 6.134,12.288 6.336,12 H 6 V 11.002 H 3.998 v -2 H 6 V 8 H 5.998 v 0.006 h -2 L 4,7 4.01,6.906 C 3.976,4.797 5.68,3.118 7.756,3.002 Z M 11.998,11 H 10 v 0.002 h 1.998 z M 8.666,5.13 C 9.384,5.396 9.937,6.063 9.99,6.865 9.99,6.858 9.992,6.858 9.992,6.852 9.938,6.053 9.392,5.392 8.666,5.131 Z M 9.664,12 c 0.199,0.285 0.331,0.613 0.334,0.99 V 12 Z m -5.666,0.002 h 2 v 2 L 5,14 C 4,14 4,13 4,13 Z"
     id="path82396"
     sodipodi:nodetypes="scsccsccccccsccccscccccccccsccccscccccccccccccccccccccccccccccccccc" />
  <path
     style="fill:#5c616c"
     d="M 8.152,4.006 A 2.992,2.992 0 0 0 6.852,4.229 3.005,3.005 0 0 0 5,7 H 7 C 7,6.593 7.24,6.232 7.617,6.076 A 0.994,0.994 0 0 1 8.707,6.293 0.994,0.994 0 0 1 8.923,7.383 0.994,0.994 0 0 1 8,8 1,1 0 0 0 7,9 v 2 H 9 V 9.82 A 2.998,2.998 0 0 0 10.771,8.148 3.006,3.006 0 0 0 10.121,4.878 3.001,3.001 0 0 0 8.151,4.006 Z M 8,12 a 1,1 0 0 0 -1,1 1,1 0 0 0 1,1 1,1 0 0 0 1,-1 1,1 0 0 0 -1,-1 z"
     id="path82398" />
</svg>
