<?xml version="1.0" encoding="UTF-8" standalone="no"?>
<svg
   width="16"
   height="16"
   version="1.1"
   id="svg95125"
   sodipodi:docname="call-missed-symbolic.svg"
   inkscape:version="1.1.2 (0a00cf5339, 2022-02-04)"
   xmlns:inkscape="http://www.inkscape.org/namespaces/inkscape"
   xmlns:sodipodi="http://sodipodi.sourceforge.net/DTD/sodipodi-0.dtd"
   xmlns="http://www.w3.org/2000/svg"
   xmlns:svg="http://www.w3.org/2000/svg">
  <defs
     id="defs95129" />
  <sodipodi:namedview
     id="namedview95127"
     pagecolor="#ffffff"
     bordercolor="#666666"
     borderopacity="1.0"
     inkscape:pageshadow="2"
     inkscape:pageopacity="0.0"
     inkscape:pagecheckerboard="0"
     showgrid="false"
     inkscape:zoom="51.6875"
     inkscape:cx="7.9903265"
     inkscape:cy="8"
     inkscape:window-width="1920"
     inkscape:window-height="1051"
     inkscape:window-x="0"
     inkscape:window-y="29"
     inkscape:window-maximized="1"
     inkscape:current-layer="svg95125" />
  <path
     style="opacity:0.35;fill:#5c616c"
     d="m 8.2996243,1.2996243 v 0 l 1.3653649,1.3653649 v 0 l 0.017235,0.2333882 -1.5105028,1.5189413 v 0 L 7.8216098,4.4116098 5.2705439,1.8605439 4.7135394,1.8764606 v 0 L 3.9136621,2.6763379 3.8467681,3.2574621 v 0 L 7.29,6.71 c 0.3912,0.3943 1.0288,0.3943 1.42,0 l 2.385571,-2.3846169 v 0 l 0.252756,0.02202 1.305173,1.3059034 v 0 L 13,5.382414 13,1.3058317 v 0 L 12.675677,1 H 8.4941241 Z"
     id="path95121"
     sodipodi:nodetypes="ccccccccccccccccccccccccccc" />
  <path
     style="fill:#5c616c"
     d="M 8.14,8.01 C 5.47,7.97 2.89,9.02 0.99,10.91 L 0.29,11.62 C -0.1,12 -0.1,12.63 0.29,13.02 L 2.39,15.12 C 2.78,15.51 3.41,15.51 3.8,15.12 L 5,13.92 V 11.66 11.66 L 5.2,11.58 C 6.98,10.79 9.02,10.79 10.801,11.59 L 11.001,11.66 V 11.66 13.92 L 11.501,14.42 12.211,15.12 C 12.59,15.51 13.221,15.51 13.61,15.12 L 15.711,13.02 C 16.1,12.63 16.1,12 15.711,11.62 L 15.01,10.91 C 13.18,9.09 10.721,8.05 8.14,8.01 Z"
     id="path95123" />
</svg>
