<?xml version="1.0" encoding="UTF-8" standalone="no"?>
<svg
   width="16"
   height="16"
   version="1.1"
   id="svg1392752"
   sodipodi:docname="channel-insecure-symbolic.svg"
   inkscape:version="1.1.2 (0a00cf5339, 2022-02-04)"
   xmlns:inkscape="http://www.inkscape.org/namespaces/inkscape"
   xmlns:sodipodi="http://sodipodi.sourceforge.net/DTD/sodipodi-0.dtd"
   xmlns="http://www.w3.org/2000/svg"
   xmlns:svg="http://www.w3.org/2000/svg">
  <defs
     id="defs1392756" />
  <sodipodi:namedview
     id="namedview1392754"
     pagecolor="#ffffff"
     bordercolor="#666666"
     borderopacity="1.0"
     inkscape:pageshadow="2"
     inkscape:pageopacity="0.0"
     inkscape:pagecheckerboard="0"
     showgrid="false"
     inkscape:zoom="51.6875"
     inkscape:cx="7.9903265"
     inkscape:cy="8"
     inkscape:window-width="1920"
     inkscape:window-height="1051"
     inkscape:window-x="0"
     inkscape:window-y="29"
     inkscape:window-maximized="1"
     inkscape:current-layer="svg1392752" />
  <path
     style="fill:#5c616c;opacity:.35"
     d="M 8 1 C 5.784 1 4 2.784 4 5 L 4 7 L 3 7 C 2.446 7 2 7.446 2 8 L 2 14 C 2 14.554 2.446 15 3 15 L 9 15 L 9 14 A 1.0001 1.0001 0 0 1 9.5859375 13.414062 A 1.0001 1.0001 0 0 1 9.2578125 13.125 L 9.0078125 11.125 A 1.0001 1.0001 0 0 1 9 11 L 9 7 L 6 7 L 6 5 C 6 3.892 6.892 3 8 3 C 9.108 3 10 3.892 10 5 L 10 6 L 12 6 L 12 5 C 12 2.784 10.216 1 8 1 z M 13 7 L 13 11 A 1.0001 1.0001 0 0 1 12.992188 11.125 L 12.742188 13.125 A 1.0001 1.0001 0 0 1 12.414062 13.414062 A 1.0001 1.0001 0 0 1 13 14 L 13 15 C 13.554 15 14 14.554 14 14 L 14 8 C 14 7.446 13.554 7 13 7 z"
     id="path1392748" />
  <path
     style="fill:#dd4747"
     class="error"
     d="M 10.343783,7 10,7.3349727 V 11 L 10.216324,12.730589 10.460978,13 v 0 h 1.090764 v 0 L 11.773567,12.811464 12,11 V 7.4140023 L 11.762541,7 V 7 Z M 10,14.227634 v 0 1.505955 0 L 10.229108,16 h 1.514104 v 0 L 12,15.769826 V 14.190772 L 11.781328,14 v 0 h -1.529151 z"
     id="path1392750"
     sodipodi:nodetypes="cccccccccccccccccccccccccccc" />
</svg>
