<?xml version="1.0" encoding="UTF-8" standalone="no"?>
<svg
   width="16"
   height="16"
   version="1.1"
   id="svg1459708"
   sodipodi:docname="computer-fail-symbolic.svg"
   inkscape:version="1.1.2 (0a00cf5339, 2022-02-04)"
   xmlns:inkscape="http://www.inkscape.org/namespaces/inkscape"
   xmlns:sodipodi="http://sodipodi.sourceforge.net/DTD/sodipodi-0.dtd"
   xmlns="http://www.w3.org/2000/svg"
   xmlns:svg="http://www.w3.org/2000/svg">
  <defs
     id="defs1459712" />
  <sodipodi:namedview
     id="namedview1459710"
     pagecolor="#ffffff"
     bordercolor="#666666"
     borderopacity="1.0"
     inkscape:pageshadow="2"
     inkscape:pageopacity="0.0"
     inkscape:pagecheckerboard="0"
     showgrid="false"
     inkscape:zoom="51.6875"
     inkscape:cx="7.9903265"
     inkscape:cy="6.4619105"
     inkscape:window-width="1036"
     inkscape:window-height="860"
     inkscape:window-x="495"
     inkscape:window-y="31"
     inkscape:window-maximized="1"
     inkscape:current-layer="svg1459708" />
  <path
     style="fill:#5c616c"
     d="M 2,0 C 0,0 0,2 0,2 v 9 c 0,0 0,2 2,2 h 12 c 0,0 2,0 2,-2 V 2 C 16,2 16,0 14,0 Z M 2,2.2464474 2.3291334,2 H 13.658562 L 14,2.3234872 v 0 7.3028554 0 L 13.626365,10 H 2.3401331 v 0 L 2,9.6566834 Z M 3,15 v 1 h 10 v -1 c 0,-1 -1,-1 -1,-1 H 4 c 0,0 -1,0 -1,1 z"
     id="path1459704"
     sodipodi:nodetypes="sccscscsscccccccccccccsccsccs" />
  <path
     style="fill:#5c616c"
     d="m 5,3.2485192 v 0 1.471042 L 5.2109871,5 V 5 H 5.8006809 L 6,4.7564256 v 0 -1.4978305 L 5.7869322,3 V 3 H 5.275099 Z m 5,0.043145 v 0 1.4426149 L 10.246583,5 v 0 h 0.568172 V 5 L 11,4.7757443 V 3.3115214 L 10.734153,3 V 3 H 10.289509 Z M 5.238887,7 5,7.1593934 V 8 h 6 V 7.2093575 L 10.78133,7 V 7 Z M 11,8 v 1 h 1 V 8 Z M 5,8 H 4 v 1 h 1 z"
     id="path1459706"
     sodipodi:nodetypes="cccccccccccccccccccccccccccccccccccccccccccc" />
</svg>
