<?xml version="1.0" encoding="UTF-8" standalone="no"?>
<svg
   width="16"
   height="16"
   version="1.1"
   id="svg162718"
   sodipodi:docname="dialog-information-symbolic.svg"
   inkscape:version="1.1.2 (0a00cf5339, 2022-02-04)"
   xmlns:inkscape="http://www.inkscape.org/namespaces/inkscape"
   xmlns:sodipodi="http://sodipodi.sourceforge.net/DTD/sodipodi-0.dtd"
   xmlns="http://www.w3.org/2000/svg"
   xmlns:svg="http://www.w3.org/2000/svg">
  <defs
     id="defs162722" />
  <sodipodi:namedview
     id="namedview162720"
     pagecolor="#ffffff"
     bordercolor="#666666"
     borderopacity="1.0"
     inkscape:pageshadow="2"
     inkscape:pageopacity="0.0"
     inkscape:pagecheckerboard="0"
     showgrid="false"
     inkscape:zoom="51.6875"
     inkscape:cx="7.9903265"
     inkscape:cy="8"
     inkscape:window-width="1920"
     inkscape:window-height="1051"
     inkscape:window-x="0"
     inkscape:window-y="29"
     inkscape:window-maximized="1"
     inkscape:current-layer="svg162718" />
  <path
     style="fill:#5c616c"
     d="M 8,1 C 4.13,1 1,4.13 1,8 c 0,3.87 3.13,7 7,7 3.87,0 7,-3.13 7,-7 C 15,4.13 11.87,1 8,1 Z M 8,3.75 C 8.69,3.75 9.25,4.31 9.25,5 9.25,5.69 8.69,6.25 8,6.25 7.31,6.25 6.75,5.69 6.75,5 6.75,4.31 7.31,3.75 8,3.75 Z M 7,7.3912438 7.3527811,7 H 8.6768995 V 7 L 9,7.3726537 v 4.2924173 0 L 8.6881908,12 H 7.3619363 v 0 L 7,11.574554 Z"
     id="path162716"
     sodipodi:nodetypes="ssssssssssccccccccccccc" />
</svg>
