<?xml version="1.0" encoding="UTF-8" standalone="no"?>
<svg
   width="16"
   height="16"
   version="1.1"
   id="svg2401744"
   sodipodi:docname="display-brightness-high-symbolic.svg"
   inkscape:version="1.1.2 (0a00cf5339, 2022-02-04)"
   xmlns:inkscape="http://www.inkscape.org/namespaces/inkscape"
   xmlns:sodipodi="http://sodipodi.sourceforge.net/DTD/sodipodi-0.dtd"
   xmlns="http://www.w3.org/2000/svg"
   xmlns:svg="http://www.w3.org/2000/svg">
  <defs
     id="defs2401748" />
  <sodipodi:namedview
     id="namedview2401746"
     pagecolor="#ffffff"
     bordercolor="#666666"
     borderopacity="1.0"
     inkscape:pageshadow="2"
     inkscape:pageopacity="0.0"
     inkscape:pagecheckerboard="0"
     showgrid="false"
     inkscape:zoom="51.6875"
     inkscape:cx="7.9903265"
     inkscape:cy="8"
     inkscape:window-width="1920"
     inkscape:window-height="1051"
     inkscape:window-x="0"
     inkscape:window-y="29"
     inkscape:window-maximized="1"
     inkscape:current-layer="svg2401744" />
  <path
     style="fill:#5c616c"
     d="M 8.1705735,0.89518361 7.7823214,0.94662432 5.81,3 H 3.2792839 V 3 L 3,3.2123929 V 5.81 L 0.9131146,7.8145083 0.8847344,8.1603993 v 0 L 3,10.22 v 2.513578 L 3.213239,13 v 0 H 5.81 l 1.9955441,2.077553 v 0 c 0.1331311,-0.129349 0.2662622,-0.117112 0.3993933,-0.008 L 10.22,13 h 2.487558 v 0 L 13,12.671067 V 10.22 L 15.112475,8.1631161 15.039418,7.788963 v 0 L 13,6 v -2.7020947 0 L 12.706061,3 H 10.22 Z M 8,4 c 2.21,0 4,1.79 4,4 0,2.21 -1.79,4 -4,4 C 5.79,12 4,10.21 4,8 4,5.79 5.79,4 8,4 Z M 8,5 C 6.3431,5 5,6.3431 5,8 5,9.6569 6.3431,11 8,11 9.6569,11 11,9.6569 11,8 11,6.3431 9.6569,5 8,5 Z"
     id="path2401742"
     sodipodi:nodetypes="ccccccccccccccccccccccccccccccccssssssssss" />
</svg>
