<?xml version="1.0" encoding="UTF-8" standalone="no"?>
<svg
   width="16"
   height="16"
   version="1.1"
   id="svg2069758"
   sodipodi:docname="display-brightness-off-symbolic.svg"
   inkscape:version="1.1.2 (0a00cf5339, 2022-02-04)"
   xmlns:inkscape="http://www.inkscape.org/namespaces/inkscape"
   xmlns:sodipodi="http://sodipodi.sourceforge.net/DTD/sodipodi-0.dtd"
   xmlns="http://www.w3.org/2000/svg"
   xmlns:svg="http://www.w3.org/2000/svg">
  <defs
     id="defs2069762" />
  <sodipodi:namedview
     id="namedview2069760"
     pagecolor="#ffffff"
     bordercolor="#666666"
     borderopacity="1.0"
     inkscape:pageshadow="2"
     inkscape:pageopacity="0.0"
     inkscape:pagecheckerboard="0"
     showgrid="false"
     inkscape:zoom="51.6875"
     inkscape:cx="7.9903265"
     inkscape:cy="8"
     inkscape:window-width="1920"
     inkscape:window-height="1051"
     inkscape:window-x="0"
     inkscape:window-y="29"
     inkscape:window-maximized="1"
     inkscape:current-layer="svg2069758" />
  <path
     style="opacity:0.35;fill:#5c616c"
     d="M 8.2045718,0.93094165 7.7827131,0.94719864 5.8105,3.0003 H 3.3060844 L 3,3.3771332 v 0 V 5.8108 l -2.08609211,2.0039041 -0.00454,0.3694131 v 0 L 3,10.221 v 2.462093 L 3.301694,13 v 0 H 5.8105 l 1.986473,2.067674 v 0 L 8.1822935,15.091946 10.221,13 h 2.500112 v 0 L 13,12.666117 V 10.221 l 2.034559,-1.9825126 v 0 L 14.98446,7.7418178 13,6.0003 v -2.6781891 0 L 12.672704,3.0003 H 10.221 Z M 8,4.0003 c 2.21,0 4,1.79 4,4 C 12,10.21 10.21,12 8,12 5.79,12 4,10.21 4,8.0003 c 0,-2.21 1.79,-4 4,-4 z m 0,1 c -1.6569,0 -3,1.3431 -3,3 C 5,9.6572 6.3431,11 8,11 Z"
     id="path2069756"
     sodipodi:nodetypes="cccccccccccccccccccccccccccccccccssssscscc" />
</svg>
