<?xml version="1.0" encoding="UTF-8" standalone="no"?>
<svg
   width="16"
   height="16"
   version="1.1"
   id="svg2777646"
   sodipodi:docname="folder-open-symbolic.svg"
   inkscape:version="1.1.2 (0a00cf5339, 2022-02-04)"
   xmlns:inkscape="http://www.inkscape.org/namespaces/inkscape"
   xmlns:sodipodi="http://sodipodi.sourceforge.net/DTD/sodipodi-0.dtd"
   xmlns="http://www.w3.org/2000/svg"
   xmlns:svg="http://www.w3.org/2000/svg">
  <defs
     id="defs2777650" />
  <sodipodi:namedview
     id="namedview2777648"
     pagecolor="#ffffff"
     bordercolor="#666666"
     borderopacity="1.0"
     inkscape:pageshadow="2"
     inkscape:pageopacity="0.0"
     inkscape:pagecheckerboard="0"
     showgrid="false"
     inkscape:zoom="51.6875"
     inkscape:cx="7.9903265"
     inkscape:cy="8"
     inkscape:window-width="1920"
     inkscape:window-height="1051"
     inkscape:window-x="0"
     inkscape:window-y="29"
     inkscape:window-maximized="1"
     inkscape:current-layer="svg2777646" />
  <path
     style="opacity:0.35;fill:#5c616c"
     d="M 2,1 C 2,1 1,1 1,2 v 2.1944564 l 0.2065875,0.1597245 c 0,-0.2924751 -0.1210458,0.1464105 0,0 C 1.4994086,4 2,4 2,4 H 6.8659665 L 7.0981,4.0981 v 0 L 8.8824579,5.8824579 9.1191135,6 V 6 H 14 c 0,0 0.583406,0 0.858995,0.4456116 C 14.944214,6.5834061 15,6.1892674 15,6.4254571 v 0 V 4 C 15,3 14,3 14,3 H 9.1736534 L 8.9108308,2.9108308 v 0 L 7.1224101,1.1224101 v 0 L 6.7990017,1 Z"
     id="path2777642"
     sodipodi:nodetypes="csccsccccccccsccscccccccc" />
  <path
     style="fill:#5c616c"
     d="M 2,5 C 2,5 1,5 1,6 v 7 c 0,0 0,1 1,1 h 12 c 0,0 1,0 1,-1 V 8 C 15,7 14,7 14,7 H 9.1731539 L 8.8861794,6.8861794 v 0 L 7.1095837,5.1095837 v 0 L 6.8142937,5 Z"
     id="path2777644"
     sodipodi:nodetypes="cscscsscccccccc" />
</svg>
