<?xml version="1.0" encoding="UTF-8" standalone="no"?>
<svg
   width="16"
   height="16"
   version="1.1"
   id="svg1911639"
   sodipodi:docname="keyboard-brightness-symbolic.svg"
   inkscape:version="1.1.2 (0a00cf5339, 2022-02-04)"
   xmlns:inkscape="http://www.inkscape.org/namespaces/inkscape"
   xmlns:sodipodi="http://sodipodi.sourceforge.net/DTD/sodipodi-0.dtd"
   xmlns="http://www.w3.org/2000/svg"
   xmlns:svg="http://www.w3.org/2000/svg">
  <defs
     id="defs1911643" />
  <sodipodi:namedview
     id="namedview1911641"
     pagecolor="#ffffff"
     bordercolor="#666666"
     borderopacity="1.0"
     inkscape:pageshadow="2"
     inkscape:pageopacity="0.0"
     inkscape:pagecheckerboard="0"
     showgrid="false"
     inkscape:zoom="51.6875"
     inkscape:cx="7.9903265"
     inkscape:cy="8"
     inkscape:window-width="1920"
     inkscape:window-height="1051"
     inkscape:window-x="0"
     inkscape:window-y="29"
     inkscape:window-maximized="1"
     inkscape:current-layer="svg1911639" />
  <path
     style="fill:#5c616c"
     d="M 5.5,9 C 5.223,9 5,9.223 5,9.5 V 12 H 11 V 9.5 C 11,9.223 10.777,9 10.5,9 Z"
     id="path1911627" />
  <path
     style="fill:#5c616c"
     d="m 3,12 v -2 l -2.67715942,0.892386 0.0182374,0.221307 v 0 z"
     id="path1911629"
     sodipodi:nodetypes="cccccc" />
  <path
     style="fill:#5c616c"
     d="M 7,6 H 9 L 8.1288446,3.3865337 7.8757265,3.3728204 v 0 z"
     id="path1911631"
     sodipodi:nodetypes="cccccc" />
  <path
     style="fill:#5c616c"
     d="m 13,10 v 2 l 2.633033,-0.877678 v 0 l -0.05704,-0.263658 z"
     id="path1911633"
     sodipodi:nodetypes="cccccc" />
  <path
     style="fill:#5c616c"
     d="m 10.825,6.756 1.414,1.4143 1.239095,-2.4768774 v 0 L 13.309558,5.5139844 Z"
     id="path1911635"
     sodipodi:nodetypes="cccccc" />
  <path
     style="fill:#5c616c"
     d="M 3.7605,8.1703 5.1748,6.756 2.7290168,5.5331516 2.5146944,5.6786008 v 0 z"
     id="path1911637"
     sodipodi:nodetypes="cccccc" />
</svg>
