<?xml version="1.0" encoding="UTF-8" standalone="no"?>
<svg
   width="16"
   height="16"
   version="1.1"
   id="svg1480"
   sodipodi:docname="media-playlist-repeat-symbolic-rtl.svg"
   inkscape:version="1.1.2 (0a00cf5339, 2022-02-04)"
   xmlns:inkscape="http://www.inkscape.org/namespaces/inkscape"
   xmlns:sodipodi="http://sodipodi.sourceforge.net/DTD/sodipodi-0.dtd"
   xmlns="http://www.w3.org/2000/svg"
   xmlns:svg="http://www.w3.org/2000/svg">
  <defs
     id="defs1484" />
  <sodipodi:namedview
     id="namedview1482"
     pagecolor="#ffffff"
     bordercolor="#666666"
     borderopacity="1.0"
     inkscape:pageshadow="2"
     inkscape:pageopacity="0.0"
     inkscape:pagecheckerboard="0"
     showgrid="false"
     inkscape:zoom="51.6875"
     inkscape:cx="7.9903265"
     inkscape:cy="8"
     inkscape:window-width="1920"
     inkscape:window-height="1051"
     inkscape:window-x="0"
     inkscape:window-y="29"
     inkscape:window-maximized="1"
     inkscape:current-layer="svg1480" />
  <path
     style="fill:#5c616c"
     d="m 10,1.4576376 v 0 V 3 h 2 c 1.662,0 3,1.338 3,3 v 4 c 0,1.662 -1.338,3 -3,3 H 4 C 2.338,13 1,11.662 1,10 V 6 C 1,4.338 2.338,3 4,3 H 5 V 5 H 4 C 3.446,5 3,5.446 3,6 v 4 c 0,0.554 0.446,1 1,1 h 8 c 0.554,0 1,-0.446 1,-1 V 6 C 13,5.446 12.554,5 12,5 h -2 v 1.4521301 0 L 9.5838796,6.6879097 6.3778193,4.2833645 v 0 l 0.038375,-0.5955101 3.242824,-2.4321179 z"
     id="path1478"
     sodipodi:nodetypes="cccssssssssccssssssssccccccccc" />
</svg>
