<?xml version="1.0" encoding="UTF-8" standalone="no"?>
<svg
   width="16"
   height="16"
   version="1.1"
   id="svg4325352"
   sodipodi:docname="security-medium-symbolic.svg"
   inkscape:version="1.1.2 (0a00cf5339, 2022-02-04)"
   xmlns:inkscape="http://www.inkscape.org/namespaces/inkscape"
   xmlns:sodipodi="http://sodipodi.sourceforge.net/DTD/sodipodi-0.dtd"
   xmlns="http://www.w3.org/2000/svg"
   xmlns:svg="http://www.w3.org/2000/svg">
  <defs
     id="defs4325356" />
  <sodipodi:namedview
     id="namedview4325354"
     pagecolor="#ffffff"
     bordercolor="#666666"
     borderopacity="1.0"
     inkscape:pageshadow="2"
     inkscape:pageopacity="0.0"
     inkscape:pagecheckerboard="0"
     showgrid="false"
     inkscape:zoom="51.6875"
     inkscape:cx="8.0096735"
     inkscape:cy="8"
     inkscape:window-width="1920"
     inkscape:window-height="1051"
     inkscape:window-x="0"
     inkscape:window-y="29"
     inkscape:window-maximized="1"
     inkscape:current-layer="svg4325352" />
  <path
     style="fill:#ffcc44"
     class="warning"
     d="M 8.2121924,0.07073081 7.7922605,0.06924649 2.1812552,1.9395816 v 0 L 2,2.2184607 V 9 c 0,2.07 1.5795,3.489 2.9395,4.439 1.0929506,0.763458 2.4058089,1.307977 2.8792531,1.492384 0.1156804,0.04506 0.3308448,0.01228 0.3308448,0.01228 0,0 -0.095917,0.03705 0,0 C 8.5935326,14.772182 9.942224,14.220211 11.061,13.439 12.421,12.479 14,11.04 14,9 V 2.2622732 L 13.839018,1.9463393 v 0 z M 7.3156659,3 V 3 H 8.6870088 V 3 L 9,3.2822301 V 8.771802 L 8.7966471,9 V 9 H 7.279415 V 9 L 7,8.7400053 V 3.3256576 Z M 7,10.307477 7.2706283,10 h 1.4135275 v 0 L 9,10.337496 v 1.30017 L 8.659652,12 v 0 H 7.3902152 L 7,11.669767 v 0 z"
     id="path4325350"
     sodipodi:nodetypes="cccccssscscscccccccccccccccccccccccccccccc" />
</svg>
