<?xml version="1.0" encoding="UTF-8" standalone="no"?>
<svg
   width="16"
   height="16"
   version="1.1"
   id="svg1772451"
   sodipodi:docname="user-invisible-symbolic.svg"
   inkscape:version="1.1.2 (0a00cf5339, 2022-02-04)"
   xmlns:inkscape="http://www.inkscape.org/namespaces/inkscape"
   xmlns:sodipodi="http://sodipodi.sourceforge.net/DTD/sodipodi-0.dtd"
   xmlns="http://www.w3.org/2000/svg"
   xmlns:svg="http://www.w3.org/2000/svg">
  <defs
     id="defs1772455" />
  <sodipodi:namedview
     id="namedview1772453"
     pagecolor="#ffffff"
     bordercolor="#666666"
     borderopacity="1.0"
     inkscape:pageshadow="2"
     inkscape:pageopacity="0.0"
     inkscape:pagecheckerboard="0"
     showgrid="false"
     inkscape:zoom="51.6875"
     inkscape:cx="7.9903265"
     inkscape:cy="8"
     inkscape:window-width="1920"
     inkscape:window-height="1051"
     inkscape:window-x="0"
     inkscape:window-y="29"
     inkscape:window-maximized="1"
     inkscape:current-layer="svg1772451" />
  <path
     style="opacity:0.35;fill:#5c616c"
     d="M 8,2 C 6.34,2 5,3.34 5,5 5,6.65 6.34,8 8,8 9.66,8 11,6.65 11,5 11,3.34 9.66,2 8,2 Z M 8,3 C 9.1045695,3 10,3.8954305 10,5 10,6.1045695 9.1045695,7 8,7 6.8954305,7 6,6.1045695 6,5 6,3.8954305 6.8954305,3 8,3 Z m 0,7 c -6,0 -6,4 -6,4 v 1 h 12 v -1 c 0,0 0,-4.01 -6,-4 z m 0,1 c 2.78,0 3.89,0.85 4.45,1.6 0.347276,0.4589 0.475348,0.887035 0.522537,1.146083 0.02891,0.158681 0,0 0,0 L 12.713058,14 H 3.2225854 L 3.0320547,13.721684 c 0,0 -0.033646,0.173267 0,0 C 3.0827447,13.460647 3.2134144,13.044774 3.55,12.6 4.11,11.85 5.22,11 8,11 Z"
     id="path1772449"
     sodipodi:nodetypes="ssssssssssccccccscsccccscs" />
</svg>
