<?xml version="1.0" encoding="UTF-8" standalone="no"?>
<svg
   width="16"
   height="16"
   version="1.1"
   id="svg3767882"
   sodipodi:docname="view-wrapped-symbolic-rtl.svg"
   inkscape:version="1.1.2 (0a00cf5339, 2022-02-04)"
   xmlns:inkscape="http://www.inkscape.org/namespaces/inkscape"
   xmlns:sodipodi="http://sodipodi.sourceforge.net/DTD/sodipodi-0.dtd"
   xmlns="http://www.w3.org/2000/svg"
   xmlns:svg="http://www.w3.org/2000/svg">
  <defs
     id="defs3767886" />
  <sodipodi:namedview
     id="namedview3767884"
     pagecolor="#ffffff"
     bordercolor="#666666"
     borderopacity="1.0"
     inkscape:pageshadow="2"
     inkscape:pageopacity="0.0"
     inkscape:pagecheckerboard="0"
     showgrid="false"
     inkscape:zoom="51.6875"
     inkscape:cx="7.9903265"
     inkscape:cy="8"
     inkscape:window-width="1920"
     inkscape:window-height="1051"
     inkscape:window-x="0"
     inkscape:window-y="29"
     inkscape:window-maximized="1"
     inkscape:current-layer="svg3767882" />
  <path
     style="fill:#5c616c"
     d="M 6,1 C 4.338,1 3,2.338 3,4 V 5.8386287 L 2.865062,6 V 6 H 1.3872938 L 1.2499833,6.3333111 v 0 l 2.5851048,3.4468064 0.3039416,0.03451 v 0 L 6.7500238,6.3333017 6.7032018,6 V 6 H 5.1606463 V 6 L 5,5.8867394 V 4 C 5,3.446 5.446,3 6,3 h 4 c 0.554,0 1,0.446 1,1 v 8 c 0,0.554 -0.446,1 -1,1 H 7 v 2 h 3 c 1.662,0 3,-1.338 3,-3 V 4 C 13,2.338 11.662,1 10,1 Z"
     id="path3767880"
     sodipodi:nodetypes="sscccccccccccccccssssssccsssss" />
</svg>
