<?xml version="1.0" encoding="UTF-8" standalone="no"?>
<svg
   width="16"
   height="16"
   version="1.1"
   id="svg2819103"
   sodipodi:docname="weather-few-clouds-symbolic.svg"
   inkscape:version="1.1.2 (0a00cf5339, 2022-02-04)"
   xmlns:inkscape="http://www.inkscape.org/namespaces/inkscape"
   xmlns:sodipodi="http://sodipodi.sourceforge.net/DTD/sodipodi-0.dtd"
   xmlns="http://www.w3.org/2000/svg"
   xmlns:svg="http://www.w3.org/2000/svg">
  <defs
     id="defs2819107" />
  <sodipodi:namedview
     id="namedview2819105"
     pagecolor="#ffffff"
     bordercolor="#666666"
     borderopacity="1.0"
     inkscape:pageshadow="2"
     inkscape:pageopacity="0.0"
     inkscape:pagecheckerboard="0"
     showgrid="false"
     inkscape:zoom="51.6875"
     inkscape:cx="7.9903265"
     inkscape:cy="8"
     inkscape:window-width="1920"
     inkscape:window-height="1051"
     inkscape:window-x="0"
     inkscape:window-y="29"
     inkscape:window-maximized="1"
     inkscape:current-layer="svg2819103" />
  <path
     style="fill:#5c616c"
     d="M 7.3150081,0 7,0.29651277 V 1.7571946 L 7.2289713,2.051293 c 0.076117,-0.013024 -0.076516,0.010071 0,0 C 7.4845322,2.0176564 7.7420751,2.0005129 8,2 c 0.2606756,0.00152 0.5208954,0.02003 0.7790084,0.055375 0.073849,0.010112 -0.073466,-0.012866 0,0 L 9,1.7920444 V 0.29091673 L 8.7023433,0 V 0 Z M 2.8485397,1.8389603 v 0 L 1.8503309,2.8371691 1.830296,3.2443585 v 0 l 1.0809082,1.0809083 0.3772414,-0.031391 c 0.056536,-0.079301 -0.06022,0.076324 0,0 0.306995,-0.3890925 0.6610722,-0.7387153 1.0541643,-1.0408233 0.061291,-0.047105 -0.066325,-0.2829083 -0.00317,-0.327672 v 0 L 3.2597563,1.8456939 Z m 9.8740333,0.024405 v 0 l -0.99564,0.9956389 v 0 c 0.08914,0.06355 -0.07784,0.383744 0.0075,0.4519399 0.328808,0.262663 0.629007,0.5591426 0.895669,0.8844973 0.08864,0.108155 0.369631,0.023453 0.450682,0.1378076 v 0 l 1.069656,-1.0696559 5.74e-4,-0.425049 v 0 L 13.188859,1.8763585 Z M 8,3 C 5.2385763,3 3.0000084,5.2385763 3,8 c -5e-6,1.627511 0.7916608,3.148225 2.1132367,4.082507 0.059496,0.04206 0.2107577,-0.09681 0.2723774,-0.05717 0.028372,-0.06099 -0.032062,0.05883 0,0 C 5.826362,11.216656 6.6082034,10.615706 7.5234375,10.322266 8.1696152,9.0017204 9.4227843,8 11,8 c 0.646552,0 1.236778,0.1734287 1.75502,0.4648224 0.06929,0.038958 0.177962,0.1980503 0.203964,0.1230682 0.0777,-0.2240576 0.09356,-0.066688 0.0777,-0.2240576 C 13.023832,8.2363391 12.999059,8.0879902 13,8 13,5.2385763 10.761424,3 8,3 Z M 0,7.3322414 v 0 1.3233709 L 0.33188601,9 V 9 H 1.7956741 L 2.0517688,8.7746353 c -0.012819,-0.074922 0.00996,0.075308 0,0 C 2.0178181,8.5178909 2.0005153,8.2591383 2,8 2.0014946,7.744342 2.019324,7.4891223 2.0533525,7.2358986 2.0639473,7.1570566 1.7996234,7.078408 1.8133549,7 V 7 H 0.31236774 Z M 13.938229,7.1530989 c 0.02417,0.153099 -0.0074,-0.051123 0,0 0.04056,0.2804229 0.06121,0.5634313 0.06177,0.8469011 -0.0016,0.2651421 -0.02068,0.5298128 -0.05721,0.7922744 C 13.933131,8.8616815 14.23938,8.930934 14.227285,9 v 0 h 1.480466 L 16,8.6202435 v 0 -1.2852141 0 L 15.637297,7 H 14.276945 Z M 11,9 C 9.69,9 8.5994531,9.8592969 8.1894531,11.029297 6.9594531,11.189297 6,12.23 6,13.5 6,14.88 7.12,16 8.5,16 h 5 C 14.88,16 16,14.88 16,13.5 16,12.23 15.040547,11.189297 13.810547,11.029297 13.410547,9.8592969 12.31,9 11,9 Z m -7.6973762,2.721001 -0.4240577,-0.01363 -0.9985196,0.99852 v 0 l 0.00926,0.495913 0.9369356,0.936936 0.4491501,-6.8e-5 v 0 l 1.081134,-1.081133 v 0 c -0.091206,-0.06502 -0.00966,-0.303344 -0.096921,-0.373229 -0.3543956,-0.283839 -0.675452,-0.607011 -0.9569796,-0.963309 -0.064567,-0.08171 0.060334,0.08513 0,0 z"
     id="path2819101"
     sodipodi:nodetypes="ccccscsccccccccccccccsscccccccssccccccccsscsccssscccccccccscscccccscscccccccccccscsssscccccccccccsscc" />
</svg>
