<?xml version="1.0" encoding="UTF-8" standalone="no"?>
<svg
   width="16"
   height="16"
   version="1.1"
   id="svg61"
   sodipodi:docname="weather-storm-symbolic.svg"
   inkscape:version="1.1.2 (0a00cf5339, 2022-02-04)"
   xmlns:inkscape="http://www.inkscape.org/namespaces/inkscape"
   xmlns:sodipodi="http://sodipodi.sourceforge.net/DTD/sodipodi-0.dtd"
   xmlns="http://www.w3.org/2000/svg"
   xmlns:svg="http://www.w3.org/2000/svg">
  <defs
     id="defs65" />
  <sodipodi:namedview
     id="namedview63"
     pagecolor="#ffffff"
     bordercolor="#666666"
     borderopacity="1.0"
     inkscape:pageshadow="2"
     inkscape:pageopacity="0.0"
     inkscape:pagecheckerboard="0"
     showgrid="false"
     inkscape:zoom="52.5625"
     inkscape:cx="7.9904875"
     inkscape:cy="7.9904875"
     inkscape:window-width="460"
     inkscape:window-height="884"
     inkscape:window-x="465"
     inkscape:window-y="31"
     inkscape:window-maximized="1"
     inkscape:current-layer="svg61" />
  <path
     style="fill:#5c616c"
     d="m 6,7.3773491 v 0 4.3217689 L 6.2156043,12 v 0 H 7 v 3.392148 l 0.2548176,0.183156 v 0 l 2.55606,-4.2601 L 9.7736442,11 v 0 h -0.572326 l -0.140721,-0.161593 v 0 L 10.35779,7.3792276 10.094198,7 V 7 H 6.3558647 Z"
     id="path57"
     sodipodi:nodetypes="cccccccccccccccccccc" />
  <path
     style="fill:#5c616c"
     d="M 8,0 C 5.93,0 4.17,1.27 3.41,3.06 1.48,3.35 0,4.99 0,7 0,9.21 1.79,11 4,11 H 5 V 6.3941771 L 5.2979398,6 V 6 H 11.661048 V 6 L 11.853699,6.2301365 10.549065,9.7091597 10.683046,10 v 0 h 0.734219 0.140233 -0.140233 l 0.159543,0.321987 v 0 L 11.324303,10.742829 11.447326,11 v 0 H 12.5 C 14.43,11 16,9.43 16,7.5 16,5.7 14.65,4.23 12.91,4.03 12.45,1.74 10.43,0 8,0 Z"
     id="path59"
     sodipodi:nodetypes="scssccccccccccccccccccsscs" />
</svg>
