<?xml version="1.0" encoding="UTF-8" standalone="no"?>
<svg
   width="16"
   height="16"
   version="1.1"
   id="svg1678035"
   sodipodi:docname="weather-severe-alert-symbolic.svg"
   inkscape:version="1.1.2 (0a00cf5339, 2022-02-04)"
   xmlns:inkscape="http://www.inkscape.org/namespaces/inkscape"
   xmlns:sodipodi="http://sodipodi.sourceforge.net/DTD/sodipodi-0.dtd"
   xmlns="http://www.w3.org/2000/svg"
   xmlns:svg="http://www.w3.org/2000/svg">
  <defs
     id="defs1678039" />
  <sodipodi:namedview
     id="namedview1678037"
     pagecolor="#ffffff"
     bordercolor="#666666"
     borderopacity="1.0"
     inkscape:pageshadow="2"
     inkscape:pageopacity="0.0"
     inkscape:pagecheckerboard="0"
     showgrid="false"
     inkscape:zoom="51.6875"
     inkscape:cx="7.9903265"
     inkscape:cy="8"
     inkscape:window-width="1920"
     inkscape:window-height="1051"
     inkscape:window-x="0"
     inkscape:window-y="29"
     inkscape:window-maximized="1"
     inkscape:current-layer="svg1678035" />
  <path
     style="fill:#ffcc44"
     class="warning"
     d="m 7,6.282817 v 0 V 10 L 7.2166225,11.73298 7.4626769,12 v 0 h 1.1043422 v 0 L 8.7800775,11.75938 9,10 V 6.2534935 L 8.7987431,6 V 6 H 7.3035078 Z m 0,7.035314 v 0 1.337749 L 7.2853877,15 v 0 H 8.7550033 L 9,14.666212 v 0 -1.379188 0 L 8.663615,13 H 7.2956764 Z"
     id="path1678031"
     sodipodi:nodetypes="cccccccccccccccccccccccccccc" />
  <path
     style="fill:#5c616c"
     d="M 8,0 C 5.93,0 4.17,1.27 3.41,3.06 1.48,3.35 0,5 0,7 c 0,2.21 1.79,4 4,4 h 1.7697037 v 0 L 6,10.741602 6,5.2521131 v 0 L 6.2618876,5 H 9.7259059 V 5 L 10,5.2378036 V 10.720252 L 10.237082,11 v 0 H 12.5 C 14.43,11 16,9.43 16,7.5 16,5.7 14.65,4.23 12.91,4.03 12.45,1.74 10.43,0 8,0 Z"
     id="path1678033"
     sodipodi:nodetypes="scssccccccccccccsscs" />
</svg>
